<?xml version="1.0" encoding="utf-8" standalone="no"?>
<!DOCTYPE svg PUBLIC "-//W3C//DTD SVG 1.1//EN"
  "http://www.w3.org/Graphics/SVG/1.1/DTD/svg11.dtd">
<!-- Created with matplotlib (https://matplotlib.org/) -->
<svg height="345.6pt" version="1.1" viewBox="0 0 460.8 345.6" width="460.8pt" xmlns="http://www.w3.org/2000/svg" xmlns:xlink="http://www.w3.org/1999/xlink">
 <metadata>
  <rdf:RDF xmlns:cc="http://creativecommons.org/ns#" xmlns:dc="http://purl.org/dc/elements/1.1/" xmlns:rdf="http://www.w3.org/1999/02/22-rdf-syntax-ns#">
   <cc:Work>
    <dc:type rdf:resource="http://purl.org/dc/dcmitype/StillImage"/>
    <dc:date>2021-03-30T18:25:25.998858</dc:date>
    <dc:format>image/svg+xml</dc:format>
    <dc:creator>
     <cc:Agent>
      <dc:title>Matplotlib v3.3.4, https://matplotlib.org/</dc:title>
     </cc:Agent>
    </dc:creator>
   </cc:Work>
  </rdf:RDF>
 </metadata>
 <defs>
  <style type="text/css">*{stroke-linecap:butt;stroke-linejoin:round;}</style>
 </defs>
 <g id="figure_1">
  <g id="patch_1">
   <path d="M 0 345.6 
L 460.8 345.6 
L 460.8 0 
L 0 0 
z
" style="fill:#ffffff;"/>
  </g>
  <g id="axes_1">
   <g id="patch_2">
    <path d="M 57.6 298.944 
L 338.688 298.944 
L 338.688 3.456 
L 57.6 3.456 
z
" style="fill:#ffffff;"/>
   </g>
   <g id="line2d_1">
    <path d="M -1 296.421911 
L 27.203868 296.421911 
L 27.203868 295.160866 
L 33.424023 295.160866 
L 33.424023 293.899821 
L 106.141661 293.899821 
L 106.141661 291.377732 
L 111.286193 291.377732 
L 111.286193 288.855642 
L 142.933275 288.855642 
L 142.933275 286.333553 
L 145.665858 286.333553 
L 145.665858 283.811463 
L 145.854874 283.811463 
L 145.854874 282.550419 
L 146.412608 282.550419 
L 146.412608 280.028329 
L 148.380466 280.028329 
L 148.380466 277.50624 
L 148.733265 277.50624 
L 148.733265 276.245195 
L 149.305096 276.245195 
L 149.305096 273.723105 
L 153.025137 273.723105 
L 153.025137 271.201016 
L 153.138392 271.201016 
L 153.138392 267.417882 
L 155.303359 267.417882 
L 155.303359 266.156837 
L 160.113253 266.156837 
L 160.113253 262.373703 
L 169.904604 262.373703 
L 169.904604 259.851614 
L 182.756051 259.851614 
L 182.756051 256.068479 
L 187.805391 256.068479 
L 187.805391 253.54639 
L 221.112452 253.54639 
L 221.112452 252.285345 
L 223.076718 252.285345 
L 223.076718 251.0243 
L 234.496119 251.0243 
L 234.496119 249.763256 
L 234.539361 249.763256 
L 234.539361 245.980122 
L 234.733624 245.980122 
L 234.733624 243.458032 
L 235.139688 243.458032 
L 235.139688 240.935943 
L 235.142216 240.935943 
L 235.142216 238.413853 
L 236.119704 238.413853 
L 236.119704 237.152808 
L 245.459427 237.152808 
L 245.459427 234.630719 
L 245.514417 234.630719 
L 245.514417 233.369674 
L 247.666192 233.369674 
L 247.666192 230.847585 
L 252.106722 230.847585 
L 252.106722 228.325495 
L 252.303404 228.325495 
L 252.303404 224.542361 
L 254.896703 224.542361 
L 254.896703 222.020272 
L 255.449972 222.020272 
L 255.449972 218.237138 
L 258.987161 218.237138 
L 258.987161 214.454003 
L 262.516589 214.454003 
L 262.516589 211.931914 
L 265.715333 211.931914 
L 265.715333 208.14878 
L 266.143789 208.14878 
L 266.143789 205.62669 
L 267.627394 205.62669 
L 267.627394 203.104601 
L 268.89647 203.104601 
L 268.89647 200.582511 
L 269.970708 200.582511 
L 269.970708 198.060422 
L 271.378488 198.060422 
L 271.378488 195.538333 
L 271.629694 195.538333 
L 271.629694 194.277288 
L 273.435308 194.277288 
L 273.435308 191.755198 
L 277.93203 191.755198 
L 277.93203 187.972064 
L 282.959341 187.972064 
L 282.959341 185.449975 
L 283.474413 185.449975 
L 283.474413 182.927885 
L 285.06328 182.927885 
L 285.06328 181.666841 
L 285.302552 181.666841 
L 285.302552 177.883706 
L 285.510558 177.883706 
L 285.510558 176.622662 
L 285.599683 176.622662 
L 285.599683 175.361617 
L 285.841691 175.361617 
L 285.841691 171.578483 
L 285.990668 171.578483 
L 285.990668 167.795349 
L 286.103602 167.795349 
L 286.103602 165.273259 
L 286.312995 165.273259 
L 286.312995 164.012214 
L 286.338621 164.012214 
L 286.338621 161.490125 
L 297.260097 161.490125 
L 297.260097 158.968036 
L 297.840626 158.968036 
L 297.840626 157.706991 
L 298.501061 157.706991 
L 298.501061 153.923857 
L 338.688 153.923857 
" style="fill:none;stroke:#f5deb3;stroke-linecap:square;stroke-width:4;"/>
   </g>
   <g id="line2d_2">
    <defs>
     <path d="M -0 7.778175 
L 7.778175 0 
L 0 -7.778175 
L -7.778175 -0 
z
" id="mf84cc1aef5" style="stroke:#f5deb3;stroke-linejoin:miter;stroke-width:1.5;"/>
    </defs>
    <g>
     <use style="fill:#f5deb3;stroke:#f5deb3;stroke-linejoin:miter;stroke-width:1.5;" x="111.286193" xlink:href="#mf84cc1aef5" y="291.377732"/>
     <use style="fill:#f5deb3;stroke:#f5deb3;stroke-linejoin:miter;stroke-width:1.5;" x="160.113253" xlink:href="#mf84cc1aef5" y="262.373703"/>
     <use style="fill:#f5deb3;stroke:#f5deb3;stroke-linejoin:miter;stroke-width:1.5;" x="255.449972" xlink:href="#mf84cc1aef5" y="222.020272"/>
     <use style="fill:#f5deb3;stroke:#f5deb3;stroke-linejoin:miter;stroke-width:1.5;" x="286.338621" xlink:href="#mf84cc1aef5" y="164.012214"/>
     <use style="fill:#f5deb3;stroke:#f5deb3;stroke-linejoin:miter;stroke-width:1.5;" x="298.501061" xlink:href="#mf84cc1aef5" y="153.923857"/>
     <use style="fill:#f5deb3;stroke:#f5deb3;stroke-linejoin:miter;stroke-width:1.5;" x="338.688" xlink:href="#mf84cc1aef5" y="153.923857"/>
    </g>
   </g>
   <g id="line2d_3">
    <path style="fill:none;stroke:#f5deb3;stroke-linecap:square;stroke-width:4;"/>
    <g/>
   </g>
   <g id="line2d_4">
    <path d="M 338.688 153.923857 
L 369.60768 12.232871 
" style="fill:none;stroke:#f5deb3;stroke-linecap:square;stroke-width:4;"/>
    <g>
     <use style="fill:#f5deb3;stroke:#f5deb3;stroke-linejoin:miter;stroke-width:1.5;" x="338.688" xlink:href="#mf84cc1aef5" y="153.923857"/>
     <use style="fill:#f5deb3;stroke:#f5deb3;stroke-linejoin:miter;stroke-width:1.5;" x="369.60768" xlink:href="#mf84cc1aef5" y="12.232871"/>
    </g>
   </g>
   <g id="matplotlib.axis_1">
    <g id="xtick_1">
     <g id="line2d_5">
      <path clip-path="url(#pae81580541)" d="M 57.6 298.944 
L 57.6 3.456 
" style="fill:none;stroke:#b0b0b0;stroke-linecap:square;stroke-width:0.8;"/>
     </g>
     <g id="line2d_6">
      <defs>
       <path d="M 0 0 
L 0 3.5 
" id="m8de2810d28" style="stroke:#000000;stroke-width:0.8;"/>
      </defs>
      <g>
       <use style="stroke:#000000;stroke-width:0.8;" x="57.6" xlink:href="#m8de2810d28" y="298.944"/>
      </g>
     </g>
     <g id="text_1">
      <!-- 0 -->
      <g transform="translate(51.2375 321.140875)scale(0.2 -0.2)">
       <defs>
        <path d="M 31.78125 66.40625 
Q 24.171875 66.40625 20.328125 58.90625 
Q 16.5 51.421875 16.5 36.375 
Q 16.5 21.390625 20.328125 13.890625 
Q 24.171875 6.390625 31.78125 6.390625 
Q 39.453125 6.390625 43.28125 13.890625 
Q 47.125 21.390625 47.125 36.375 
Q 47.125 51.421875 43.28125 58.90625 
Q 39.453125 66.40625 31.78125 66.40625 
z
M 31.78125 74.21875 
Q 44.046875 74.21875 50.515625 64.515625 
Q 56.984375 54.828125 56.984375 36.375 
Q 56.984375 17.96875 50.515625 8.265625 
Q 44.046875 -1.421875 31.78125 -1.421875 
Q 19.53125 -1.421875 13.0625 8.265625 
Q 6.59375 17.96875 6.59375 36.375 
Q 6.59375 54.828125 13.0625 64.515625 
Q 19.53125 74.21875 31.78125 74.21875 
z
" id="DejaVuSans-48"/>
       </defs>
       <use xlink:href="#DejaVuSans-48"/>
      </g>
     </g>
    </g>
    <g id="xtick_2">
     <g id="line2d_7">
      <path clip-path="url(#pae81580541)" d="M 137.910857 298.944 
L 137.910857 3.456 
" style="fill:none;stroke:#b0b0b0;stroke-linecap:square;stroke-width:0.8;"/>
     </g>
     <g id="line2d_8">
      <g>
       <use style="stroke:#000000;stroke-width:0.8;" x="137.910857" xlink:href="#m8de2810d28" y="298.944"/>
      </g>
     </g>
     <g id="text_2">
      <!-- 2 -->
      <g transform="translate(131.548357 321.140875)scale(0.2 -0.2)">
       <defs>
        <path d="M 19.1875 8.296875 
L 53.609375 8.296875 
L 53.609375 0 
L 7.328125 0 
L 7.328125 8.296875 
Q 12.9375 14.109375 22.625 23.890625 
Q 32.328125 33.6875 34.8125 36.53125 
Q 39.546875 41.84375 41.421875 45.53125 
Q 43.3125 49.21875 43.3125 52.78125 
Q 43.3125 58.59375 39.234375 62.25 
Q 35.15625 65.921875 28.609375 65.921875 
Q 23.96875 65.921875 18.8125 64.3125 
Q 13.671875 62.703125 7.8125 59.421875 
L 7.8125 69.390625 
Q 13.765625 71.78125 18.9375 73 
Q 24.125 74.21875 28.421875 74.21875 
Q 39.75 74.21875 46.484375 68.546875 
Q 53.21875 62.890625 53.21875 53.421875 
Q 53.21875 48.921875 51.53125 44.890625 
Q 49.859375 40.875 45.40625 35.40625 
Q 44.1875 33.984375 37.640625 27.21875 
Q 31.109375 20.453125 19.1875 8.296875 
z
" id="DejaVuSans-50"/>
       </defs>
       <use xlink:href="#DejaVuSans-50"/>
      </g>
     </g>
    </g>
    <g id="xtick_3">
     <g id="line2d_9">
      <path clip-path="url(#pae81580541)" d="M 218.221714 298.944 
L 218.221714 3.456 
" style="fill:none;stroke:#b0b0b0;stroke-linecap:square;stroke-width:0.8;"/>
     </g>
     <g id="line2d_10">
      <g>
       <use style="stroke:#000000;stroke-width:0.8;" x="218.221714" xlink:href="#m8de2810d28" y="298.944"/>
      </g>
     </g>
     <g id="text_3">
      <!-- 4 -->
      <g transform="translate(211.859214 321.140875)scale(0.2 -0.2)">
       <defs>
        <path d="M 37.796875 64.3125 
L 12.890625 25.390625 
L 37.796875 25.390625 
z
M 35.203125 72.90625 
L 47.609375 72.90625 
L 47.609375 25.390625 
L 58.015625 25.390625 
L 58.015625 17.1875 
L 47.609375 17.1875 
L 47.609375 0 
L 37.796875 0 
L 37.796875 17.1875 
L 4.890625 17.1875 
L 4.890625 26.703125 
z
" id="DejaVuSans-52"/>
       </defs>
       <use xlink:href="#DejaVuSans-52"/>
      </g>
     </g>
    </g>
    <g id="xtick_4">
     <g id="line2d_11">
      <path clip-path="url(#pae81580541)" d="M 298.532571 298.944 
L 298.532571 3.456 
" style="fill:none;stroke:#b0b0b0;stroke-linecap:square;stroke-width:0.8;"/>
     </g>
     <g id="line2d_12">
      <g>
       <use style="stroke:#000000;stroke-width:0.8;" x="298.532571" xlink:href="#m8de2810d28" y="298.944"/>
      </g>
     </g>
     <g id="text_4">
      <!-- 6 -->
      <g transform="translate(292.170071 321.140875)scale(0.2 -0.2)">
       <defs>
        <path d="M 33.015625 40.375 
Q 26.375 40.375 22.484375 35.828125 
Q 18.609375 31.296875 18.609375 23.390625 
Q 18.609375 15.53125 22.484375 10.953125 
Q 26.375 6.390625 33.015625 6.390625 
Q 39.65625 6.390625 43.53125 10.953125 
Q 47.40625 15.53125 47.40625 23.390625 
Q 47.40625 31.296875 43.53125 35.828125 
Q 39.65625 40.375 33.015625 40.375 
z
M 52.59375 71.296875 
L 52.59375 62.3125 
Q 48.875 64.0625 45.09375 64.984375 
Q 41.3125 65.921875 37.59375 65.921875 
Q 27.828125 65.921875 22.671875 59.328125 
Q 17.53125 52.734375 16.796875 39.40625 
Q 19.671875 43.65625 24.015625 45.921875 
Q 28.375 48.1875 33.59375 48.1875 
Q 44.578125 48.1875 50.953125 41.515625 
Q 57.328125 34.859375 57.328125 23.390625 
Q 57.328125 12.15625 50.6875 5.359375 
Q 44.046875 -1.421875 33.015625 -1.421875 
Q 20.359375 -1.421875 13.671875 8.265625 
Q 6.984375 17.96875 6.984375 36.375 
Q 6.984375 53.65625 15.1875 63.9375 
Q 23.390625 74.21875 37.203125 74.21875 
Q 40.921875 74.21875 44.703125 73.484375 
Q 48.484375 72.75 52.59375 71.296875 
z
" id="DejaVuSans-54"/>
       </defs>
       <use xlink:href="#DejaVuSans-54"/>
      </g>
     </g>
    </g>
    <g id="xtick_5">
     <g id="line2d_13">
      <path clip-path="url(#pae81580541)" d="M 97.755429 298.944 
L 97.755429 3.456 
" style="fill:none;stroke:#b0b0b0;stroke-linecap:square;stroke-width:0.8;"/>
     </g>
     <g id="line2d_14">
      <defs>
       <path d="M 0 0 
L 0 2 
" id="m5730a975fc" style="stroke:#000000;stroke-width:0.6;"/>
      </defs>
      <g>
       <use style="stroke:#000000;stroke-width:0.6;" x="97.755429" xlink:href="#m5730a975fc" y="298.944"/>
      </g>
     </g>
    </g>
    <g id="xtick_6">
     <g id="line2d_15">
      <path clip-path="url(#pae81580541)" d="M 178.066286 298.944 
L 178.066286 3.456 
" style="fill:none;stroke:#b0b0b0;stroke-linecap:square;stroke-width:0.8;"/>
     </g>
     <g id="line2d_16">
      <g>
       <use style="stroke:#000000;stroke-width:0.6;" x="178.066286" xlink:href="#m5730a975fc" y="298.944"/>
      </g>
     </g>
    </g>
    <g id="xtick_7">
     <g id="line2d_17">
      <path clip-path="url(#pae81580541)" d="M 258.377143 298.944 
L 258.377143 3.456 
" style="fill:none;stroke:#b0b0b0;stroke-linecap:square;stroke-width:0.8;"/>
     </g>
     <g id="line2d_18">
      <g>
       <use style="stroke:#000000;stroke-width:0.6;" x="258.377143" xlink:href="#m5730a975fc" y="298.944"/>
      </g>
     </g>
    </g>
    <g id="xtick_8">
     <g id="line2d_19">
      <path clip-path="url(#pae81580541)" d="M 338.688 298.944 
L 338.688 3.456 
" style="fill:none;stroke:#b0b0b0;stroke-linecap:square;stroke-width:0.8;"/>
     </g>
     <g id="line2d_20">
      <g>
       <use style="stroke:#000000;stroke-width:0.6;" x="338.688" xlink:href="#m5730a975fc" y="298.944"/>
      </g>
     </g>
    </g>
    <g id="text_5">
     <!-- log10(# f-evals / dimension) -->
     <g transform="translate(77.764078 342.217594)scale(0.17 -0.17)">
      <defs>
       <path d="M 9.421875 75.984375 
L 18.40625 75.984375 
L 18.40625 0 
L 9.421875 0 
z
" id="DejaVuSans-108"/>
       <path d="M 30.609375 48.390625 
Q 23.390625 48.390625 19.1875 42.75 
Q 14.984375 37.109375 14.984375 27.296875 
Q 14.984375 17.484375 19.15625 11.84375 
Q 23.34375 6.203125 30.609375 6.203125 
Q 37.796875 6.203125 41.984375 11.859375 
Q 46.1875 17.53125 46.1875 27.296875 
Q 46.1875 37.015625 41.984375 42.703125 
Q 37.796875 48.390625 30.609375 48.390625 
z
M 30.609375 56 
Q 42.328125 56 49.015625 48.375 
Q 55.71875 40.765625 55.71875 27.296875 
Q 55.71875 13.875 49.015625 6.21875 
Q 42.328125 -1.421875 30.609375 -1.421875 
Q 18.84375 -1.421875 12.171875 6.21875 
Q 5.515625 13.875 5.515625 27.296875 
Q 5.515625 40.765625 12.171875 48.375 
Q 18.84375 56 30.609375 56 
z
" id="DejaVuSans-111"/>
       <path d="M 45.40625 27.984375 
Q 45.40625 37.75 41.375 43.109375 
Q 37.359375 48.484375 30.078125 48.484375 
Q 22.859375 48.484375 18.828125 43.109375 
Q 14.796875 37.75 14.796875 27.984375 
Q 14.796875 18.265625 18.828125 12.890625 
Q 22.859375 7.515625 30.078125 7.515625 
Q 37.359375 7.515625 41.375 12.890625 
Q 45.40625 18.265625 45.40625 27.984375 
z
M 54.390625 6.78125 
Q 54.390625 -7.171875 48.1875 -13.984375 
Q 42 -20.796875 29.203125 -20.796875 
Q 24.46875 -20.796875 20.265625 -20.09375 
Q 16.0625 -19.390625 12.109375 -17.921875 
L 12.109375 -9.1875 
Q 16.0625 -11.328125 19.921875 -12.34375 
Q 23.78125 -13.375 27.78125 -13.375 
Q 36.625 -13.375 41.015625 -8.765625 
Q 45.40625 -4.15625 45.40625 5.171875 
L 45.40625 9.625 
Q 42.625 4.78125 38.28125 2.390625 
Q 33.9375 0 27.875 0 
Q 17.828125 0 11.671875 7.65625 
Q 5.515625 15.328125 5.515625 27.984375 
Q 5.515625 40.671875 11.671875 48.328125 
Q 17.828125 56 27.875 56 
Q 33.9375 56 38.28125 53.609375 
Q 42.625 51.21875 45.40625 46.390625 
L 45.40625 54.6875 
L 54.390625 54.6875 
z
" id="DejaVuSans-103"/>
       <path d="M 12.40625 8.296875 
L 28.515625 8.296875 
L 28.515625 63.921875 
L 10.984375 60.40625 
L 10.984375 69.390625 
L 28.421875 72.90625 
L 38.28125 72.90625 
L 38.28125 8.296875 
L 54.390625 8.296875 
L 54.390625 0 
L 12.40625 0 
z
" id="DejaVuSans-49"/>
       <path d="M 31 75.875 
Q 24.46875 64.65625 21.28125 53.65625 
Q 18.109375 42.671875 18.109375 31.390625 
Q 18.109375 20.125 21.3125 9.0625 
Q 24.515625 -2 31 -13.1875 
L 23.1875 -13.1875 
Q 15.875 -1.703125 12.234375 9.375 
Q 8.59375 20.453125 8.59375 31.390625 
Q 8.59375 42.28125 12.203125 53.3125 
Q 15.828125 64.359375 23.1875 75.875 
z
" id="DejaVuSans-40"/>
       <path d="M 51.125 44 
L 36.921875 44 
L 32.8125 27.6875 
L 47.125 27.6875 
z
M 43.796875 71.78125 
L 38.71875 51.515625 
L 52.984375 51.515625 
L 58.109375 71.78125 
L 65.921875 71.78125 
L 60.890625 51.515625 
L 76.125 51.515625 
L 76.125 44 
L 58.984375 44 
L 54.984375 27.6875 
L 70.515625 27.6875 
L 70.515625 20.21875 
L 53.078125 20.21875 
L 48 0 
L 40.1875 0 
L 45.21875 20.21875 
L 30.90625 20.21875 
L 25.875 0 
L 18.015625 0 
L 23.09375 20.21875 
L 7.71875 20.21875 
L 7.71875 27.6875 
L 24.90625 27.6875 
L 29 44 
L 13.28125 44 
L 13.28125 51.515625 
L 30.90625 51.515625 
L 35.890625 71.78125 
z
" id="DejaVuSans-35"/>
       <path id="DejaVuSans-32"/>
       <path d="M 37.109375 75.984375 
L 37.109375 68.5 
L 28.515625 68.5 
Q 23.6875 68.5 21.796875 66.546875 
Q 19.921875 64.59375 19.921875 59.515625 
L 19.921875 54.6875 
L 34.71875 54.6875 
L 34.71875 47.703125 
L 19.921875 47.703125 
L 19.921875 0 
L 10.890625 0 
L 10.890625 47.703125 
L 2.296875 47.703125 
L 2.296875 54.6875 
L 10.890625 54.6875 
L 10.890625 58.5 
Q 10.890625 67.625 15.140625 71.796875 
Q 19.390625 75.984375 28.609375 75.984375 
z
" id="DejaVuSans-102"/>
       <path d="M 4.890625 31.390625 
L 31.203125 31.390625 
L 31.203125 23.390625 
L 4.890625 23.390625 
z
" id="DejaVuSans-45"/>
       <path d="M 56.203125 29.59375 
L 56.203125 25.203125 
L 14.890625 25.203125 
Q 15.484375 15.921875 20.484375 11.0625 
Q 25.484375 6.203125 34.421875 6.203125 
Q 39.59375 6.203125 44.453125 7.46875 
Q 49.3125 8.734375 54.109375 11.28125 
L 54.109375 2.78125 
Q 49.265625 0.734375 44.1875 -0.34375 
Q 39.109375 -1.421875 33.890625 -1.421875 
Q 20.796875 -1.421875 13.15625 6.1875 
Q 5.515625 13.8125 5.515625 26.8125 
Q 5.515625 40.234375 12.765625 48.109375 
Q 20.015625 56 32.328125 56 
Q 43.359375 56 49.78125 48.890625 
Q 56.203125 41.796875 56.203125 29.59375 
z
M 47.21875 32.234375 
Q 47.125 39.59375 43.09375 43.984375 
Q 39.0625 48.390625 32.421875 48.390625 
Q 24.90625 48.390625 20.390625 44.140625 
Q 15.875 39.890625 15.1875 32.171875 
z
" id="DejaVuSans-101"/>
       <path d="M 2.984375 54.6875 
L 12.5 54.6875 
L 29.59375 8.796875 
L 46.6875 54.6875 
L 56.203125 54.6875 
L 35.6875 0 
L 23.484375 0 
z
" id="DejaVuSans-118"/>
       <path d="M 34.28125 27.484375 
Q 23.390625 27.484375 19.1875 25 
Q 14.984375 22.515625 14.984375 16.5 
Q 14.984375 11.71875 18.140625 8.90625 
Q 21.296875 6.109375 26.703125 6.109375 
Q 34.1875 6.109375 38.703125 11.40625 
Q 43.21875 16.703125 43.21875 25.484375 
L 43.21875 27.484375 
z
M 52.203125 31.203125 
L 52.203125 0 
L 43.21875 0 
L 43.21875 8.296875 
Q 40.140625 3.328125 35.546875 0.953125 
Q 30.953125 -1.421875 24.3125 -1.421875 
Q 15.921875 -1.421875 10.953125 3.296875 
Q 6 8.015625 6 15.921875 
Q 6 25.140625 12.171875 29.828125 
Q 18.359375 34.515625 30.609375 34.515625 
L 43.21875 34.515625 
L 43.21875 35.40625 
Q 43.21875 41.609375 39.140625 45 
Q 35.0625 48.390625 27.6875 48.390625 
Q 23 48.390625 18.546875 47.265625 
Q 14.109375 46.140625 10.015625 43.890625 
L 10.015625 52.203125 
Q 14.9375 54.109375 19.578125 55.046875 
Q 24.21875 56 28.609375 56 
Q 40.484375 56 46.34375 49.84375 
Q 52.203125 43.703125 52.203125 31.203125 
z
" id="DejaVuSans-97"/>
       <path d="M 44.28125 53.078125 
L 44.28125 44.578125 
Q 40.484375 46.53125 36.375 47.5 
Q 32.28125 48.484375 27.875 48.484375 
Q 21.1875 48.484375 17.84375 46.4375 
Q 14.5 44.390625 14.5 40.28125 
Q 14.5 37.15625 16.890625 35.375 
Q 19.28125 33.59375 26.515625 31.984375 
L 29.59375 31.296875 
Q 39.15625 29.25 43.1875 25.515625 
Q 47.21875 21.78125 47.21875 15.09375 
Q 47.21875 7.46875 41.1875 3.015625 
Q 35.15625 -1.421875 24.609375 -1.421875 
Q 20.21875 -1.421875 15.453125 -0.5625 
Q 10.6875 0.296875 5.421875 2 
L 5.421875 11.28125 
Q 10.40625 8.6875 15.234375 7.390625 
Q 20.0625 6.109375 24.8125 6.109375 
Q 31.15625 6.109375 34.5625 8.28125 
Q 37.984375 10.453125 37.984375 14.40625 
Q 37.984375 18.0625 35.515625 20.015625 
Q 33.0625 21.96875 24.703125 23.78125 
L 21.578125 24.515625 
Q 13.234375 26.265625 9.515625 29.90625 
Q 5.8125 33.546875 5.8125 39.890625 
Q 5.8125 47.609375 11.28125 51.796875 
Q 16.75 56 26.8125 56 
Q 31.78125 56 36.171875 55.265625 
Q 40.578125 54.546875 44.28125 53.078125 
z
" id="DejaVuSans-115"/>
       <path d="M 25.390625 72.90625 
L 33.6875 72.90625 
L 8.296875 -9.28125 
L 0 -9.28125 
z
" id="DejaVuSans-47"/>
       <path d="M 45.40625 46.390625 
L 45.40625 75.984375 
L 54.390625 75.984375 
L 54.390625 0 
L 45.40625 0 
L 45.40625 8.203125 
Q 42.578125 3.328125 38.25 0.953125 
Q 33.9375 -1.421875 27.875 -1.421875 
Q 17.96875 -1.421875 11.734375 6.484375 
Q 5.515625 14.40625 5.515625 27.296875 
Q 5.515625 40.1875 11.734375 48.09375 
Q 17.96875 56 27.875 56 
Q 33.9375 56 38.25 53.625 
Q 42.578125 51.265625 45.40625 46.390625 
z
M 14.796875 27.296875 
Q 14.796875 17.390625 18.875 11.75 
Q 22.953125 6.109375 30.078125 6.109375 
Q 37.203125 6.109375 41.296875 11.75 
Q 45.40625 17.390625 45.40625 27.296875 
Q 45.40625 37.203125 41.296875 42.84375 
Q 37.203125 48.484375 30.078125 48.484375 
Q 22.953125 48.484375 18.875 42.84375 
Q 14.796875 37.203125 14.796875 27.296875 
z
" id="DejaVuSans-100"/>
       <path d="M 9.421875 54.6875 
L 18.40625 54.6875 
L 18.40625 0 
L 9.421875 0 
z
M 9.421875 75.984375 
L 18.40625 75.984375 
L 18.40625 64.59375 
L 9.421875 64.59375 
z
" id="DejaVuSans-105"/>
       <path d="M 52 44.1875 
Q 55.375 50.25 60.0625 53.125 
Q 64.75 56 71.09375 56 
Q 79.640625 56 84.28125 50.015625 
Q 88.921875 44.046875 88.921875 33.015625 
L 88.921875 0 
L 79.890625 0 
L 79.890625 32.71875 
Q 79.890625 40.578125 77.09375 44.375 
Q 74.3125 48.1875 68.609375 48.1875 
Q 61.625 48.1875 57.5625 43.546875 
Q 53.515625 38.921875 53.515625 30.90625 
L 53.515625 0 
L 44.484375 0 
L 44.484375 32.71875 
Q 44.484375 40.625 41.703125 44.40625 
Q 38.921875 48.1875 33.109375 48.1875 
Q 26.21875 48.1875 22.15625 43.53125 
Q 18.109375 38.875 18.109375 30.90625 
L 18.109375 0 
L 9.078125 0 
L 9.078125 54.6875 
L 18.109375 54.6875 
L 18.109375 46.1875 
Q 21.1875 51.21875 25.484375 53.609375 
Q 29.78125 56 35.6875 56 
Q 41.65625 56 45.828125 52.96875 
Q 50 49.953125 52 44.1875 
z
" id="DejaVuSans-109"/>
       <path d="M 54.890625 33.015625 
L 54.890625 0 
L 45.90625 0 
L 45.90625 32.71875 
Q 45.90625 40.484375 42.875 44.328125 
Q 39.84375 48.1875 33.796875 48.1875 
Q 26.515625 48.1875 22.3125 43.546875 
Q 18.109375 38.921875 18.109375 30.90625 
L 18.109375 0 
L 9.078125 0 
L 9.078125 54.6875 
L 18.109375 54.6875 
L 18.109375 46.1875 
Q 21.34375 51.125 25.703125 53.5625 
Q 30.078125 56 35.796875 56 
Q 45.21875 56 50.046875 50.171875 
Q 54.890625 44.34375 54.890625 33.015625 
z
" id="DejaVuSans-110"/>
       <path d="M 8.015625 75.875 
L 15.828125 75.875 
Q 23.140625 64.359375 26.78125 53.3125 
Q 30.421875 42.28125 30.421875 31.390625 
Q 30.421875 20.453125 26.78125 9.375 
Q 23.140625 -1.703125 15.828125 -13.1875 
L 8.015625 -13.1875 
Q 14.5 -2 17.703125 9.0625 
Q 20.90625 20.125 20.90625 31.390625 
Q 20.90625 42.671875 17.703125 53.65625 
Q 14.5 64.65625 8.015625 75.875 
z
" id="DejaVuSans-41"/>
      </defs>
      <use xlink:href="#DejaVuSans-108"/>
      <use x="27.783203" xlink:href="#DejaVuSans-111"/>
      <use x="88.964844" xlink:href="#DejaVuSans-103"/>
      <use x="152.441406" xlink:href="#DejaVuSans-49"/>
      <use x="216.064453" xlink:href="#DejaVuSans-48"/>
      <use x="279.6875" xlink:href="#DejaVuSans-40"/>
      <use x="318.701172" xlink:href="#DejaVuSans-35"/>
      <use x="402.490234" xlink:href="#DejaVuSans-32"/>
      <use x="434.277344" xlink:href="#DejaVuSans-102"/>
      <use x="463.982422" xlink:href="#DejaVuSans-45"/>
      <use x="500.066406" xlink:href="#DejaVuSans-101"/>
      <use x="561.589844" xlink:href="#DejaVuSans-118"/>
      <use x="620.769531" xlink:href="#DejaVuSans-97"/>
      <use x="682.048828" xlink:href="#DejaVuSans-108"/>
      <use x="709.832031" xlink:href="#DejaVuSans-115"/>
      <use x="761.931641" xlink:href="#DejaVuSans-32"/>
      <use x="793.71875" xlink:href="#DejaVuSans-47"/>
      <use x="827.410156" xlink:href="#DejaVuSans-32"/>
      <use x="859.197266" xlink:href="#DejaVuSans-100"/>
      <use x="922.673828" xlink:href="#DejaVuSans-105"/>
      <use x="950.457031" xlink:href="#DejaVuSans-109"/>
      <use x="1047.869141" xlink:href="#DejaVuSans-101"/>
      <use x="1109.392578" xlink:href="#DejaVuSans-110"/>
      <use x="1172.771484" xlink:href="#DejaVuSans-115"/>
      <use x="1224.871094" xlink:href="#DejaVuSans-105"/>
      <use x="1252.654297" xlink:href="#DejaVuSans-111"/>
      <use x="1313.835938" xlink:href="#DejaVuSans-110"/>
      <use x="1377.214844" xlink:href="#DejaVuSans-41"/>
     </g>
    </g>
   </g>
   <g id="matplotlib.axis_2">
    <g id="ytick_1">
     <g id="line2d_21">
      <path clip-path="url(#pae81580541)" d="M 57.6 298.944 
L 338.688 298.944 
" style="fill:none;stroke:#b0b0b0;stroke-linecap:square;stroke-width:0.8;"/>
     </g>
     <g id="line2d_22">
      <defs>
       <path d="M 0 0 
L -3.5 0 
" id="m2a8fefc9cb" style="stroke:#000000;stroke-width:0.8;"/>
      </defs>
      <g>
       <use style="stroke:#000000;stroke-width:0.8;" x="57.6" xlink:href="#m2a8fefc9cb" y="298.944"/>
      </g>
     </g>
     <g id="text_6">
      <!-- 0.0 -->
      <g transform="translate(25.155 305.02275)scale(0.16 -0.16)">
       <defs>
        <path d="M 10.6875 12.40625 
L 21 12.40625 
L 21 0 
L 10.6875 0 
z
" id="DejaVuSans-46"/>
       </defs>
       <use xlink:href="#DejaVuSans-48"/>
       <use x="63.623047" xlink:href="#DejaVuSans-46"/>
       <use x="95.410156" xlink:href="#DejaVuSans-48"/>
      </g>
     </g>
    </g>
    <g id="ytick_2">
     <g id="line2d_23">
      <path clip-path="url(#pae81580541)" d="M 57.6 240.431525 
L 338.688 240.431525 
" style="fill:none;stroke:#b0b0b0;stroke-linecap:square;stroke-width:0.8;"/>
     </g>
     <g id="line2d_24">
      <g>
       <use style="stroke:#000000;stroke-width:0.8;" x="57.6" xlink:href="#m2a8fefc9cb" y="240.431525"/>
      </g>
     </g>
     <g id="text_7">
      <!-- 0.2 -->
      <g transform="translate(25.155 246.510275)scale(0.16 -0.16)">
       <use xlink:href="#DejaVuSans-48"/>
       <use x="63.623047" xlink:href="#DejaVuSans-46"/>
       <use x="95.410156" xlink:href="#DejaVuSans-50"/>
      </g>
     </g>
    </g>
    <g id="ytick_3">
     <g id="line2d_25">
      <path clip-path="url(#pae81580541)" d="M 57.6 181.91905 
L 338.688 181.91905 
" style="fill:none;stroke:#b0b0b0;stroke-linecap:square;stroke-width:0.8;"/>
     </g>
     <g id="line2d_26">
      <g>
       <use style="stroke:#000000;stroke-width:0.8;" x="57.6" xlink:href="#m2a8fefc9cb" y="181.91905"/>
      </g>
     </g>
     <g id="text_8">
      <!-- 0.4 -->
      <g transform="translate(25.155 187.9978)scale(0.16 -0.16)">
       <use xlink:href="#DejaVuSans-48"/>
       <use x="63.623047" xlink:href="#DejaVuSans-46"/>
       <use x="95.410156" xlink:href="#DejaVuSans-52"/>
      </g>
     </g>
    </g>
    <g id="ytick_4">
     <g id="line2d_27">
      <path clip-path="url(#pae81580541)" d="M 57.6 123.406574 
L 338.688 123.406574 
" style="fill:none;stroke:#b0b0b0;stroke-linecap:square;stroke-width:0.8;"/>
     </g>
     <g id="line2d_28">
      <g>
       <use style="stroke:#000000;stroke-width:0.8;" x="57.6" xlink:href="#m2a8fefc9cb" y="123.406574"/>
      </g>
     </g>
     <g id="text_9">
      <!-- 0.6 -->
      <g transform="translate(25.155 129.485324)scale(0.16 -0.16)">
       <use xlink:href="#DejaVuSans-48"/>
       <use x="63.623047" xlink:href="#DejaVuSans-46"/>
       <use x="95.410156" xlink:href="#DejaVuSans-54"/>
      </g>
     </g>
    </g>
    <g id="ytick_5">
     <g id="line2d_29">
      <path clip-path="url(#pae81580541)" d="M 57.6 64.894099 
L 338.688 64.894099 
" style="fill:none;stroke:#b0b0b0;stroke-linecap:square;stroke-width:0.8;"/>
     </g>
     <g id="line2d_30">
      <g>
       <use style="stroke:#000000;stroke-width:0.8;" x="57.6" xlink:href="#m2a8fefc9cb" y="64.894099"/>
      </g>
     </g>
     <g id="text_10">
      <!-- 0.8 -->
      <g transform="translate(25.155 70.972849)scale(0.16 -0.16)">
       <defs>
        <path d="M 31.78125 34.625 
Q 24.75 34.625 20.71875 30.859375 
Q 16.703125 27.09375 16.703125 20.515625 
Q 16.703125 13.921875 20.71875 10.15625 
Q 24.75 6.390625 31.78125 6.390625 
Q 38.8125 6.390625 42.859375 10.171875 
Q 46.921875 13.96875 46.921875 20.515625 
Q 46.921875 27.09375 42.890625 30.859375 
Q 38.875 34.625 31.78125 34.625 
z
M 21.921875 38.8125 
Q 15.578125 40.375 12.03125 44.71875 
Q 8.5 49.078125 8.5 55.328125 
Q 8.5 64.0625 14.71875 69.140625 
Q 20.953125 74.21875 31.78125 74.21875 
Q 42.671875 74.21875 48.875 69.140625 
Q 55.078125 64.0625 55.078125 55.328125 
Q 55.078125 49.078125 51.53125 44.71875 
Q 48 40.375 41.703125 38.8125 
Q 48.828125 37.15625 52.796875 32.3125 
Q 56.78125 27.484375 56.78125 20.515625 
Q 56.78125 9.90625 50.3125 4.234375 
Q 43.84375 -1.421875 31.78125 -1.421875 
Q 19.734375 -1.421875 13.25 4.234375 
Q 6.78125 9.90625 6.78125 20.515625 
Q 6.78125 27.484375 10.78125 32.3125 
Q 14.796875 37.15625 21.921875 38.8125 
z
M 18.3125 54.390625 
Q 18.3125 48.734375 21.84375 45.5625 
Q 25.390625 42.390625 31.78125 42.390625 
Q 38.140625 42.390625 41.71875 45.5625 
Q 45.3125 48.734375 45.3125 54.390625 
Q 45.3125 60.0625 41.71875 63.234375 
Q 38.140625 66.40625 31.78125 66.40625 
Q 25.390625 66.40625 21.84375 63.234375 
Q 18.3125 60.0625 18.3125 54.390625 
z
" id="DejaVuSans-56"/>
       </defs>
       <use xlink:href="#DejaVuSans-48"/>
       <use x="63.623047" xlink:href="#DejaVuSans-46"/>
       <use x="95.410156" xlink:href="#DejaVuSans-56"/>
      </g>
     </g>
    </g>
    <g id="ytick_6">
     <g id="line2d_31">
      <path clip-path="url(#pae81580541)" d="M 57.6 6.381624 
L 338.688 6.381624 
" style="fill:none;stroke:#b0b0b0;stroke-linecap:square;stroke-width:0.8;"/>
     </g>
     <g id="line2d_32">
      <g>
       <use style="stroke:#000000;stroke-width:0.8;" x="57.6" xlink:href="#m2a8fefc9cb" y="6.381624"/>
      </g>
     </g>
     <g id="text_11">
      <!-- 1.0 -->
      <g transform="translate(25.155 12.460374)scale(0.16 -0.16)">
       <use xlink:href="#DejaVuSans-49"/>
       <use x="63.623047" xlink:href="#DejaVuSans-46"/>
       <use x="95.410156" xlink:href="#DejaVuSans-48"/>
      </g>
     </g>
    </g>
    <g id="text_12">
     <!-- Fraction of function,target pairs -->
     <g transform="translate(17.619531 285.585)rotate(-90)scale(0.17 -0.17)">
      <defs>
       <path d="M 9.8125 72.90625 
L 51.703125 72.90625 
L 51.703125 64.59375 
L 19.671875 64.59375 
L 19.671875 43.109375 
L 48.578125 43.109375 
L 48.578125 34.8125 
L 19.671875 34.8125 
L 19.671875 0 
L 9.8125 0 
z
" id="DejaVuSans-70"/>
       <path d="M 41.109375 46.296875 
Q 39.59375 47.171875 37.8125 47.578125 
Q 36.03125 48 33.890625 48 
Q 26.265625 48 22.1875 43.046875 
Q 18.109375 38.09375 18.109375 28.8125 
L 18.109375 0 
L 9.078125 0 
L 9.078125 54.6875 
L 18.109375 54.6875 
L 18.109375 46.1875 
Q 20.953125 51.171875 25.484375 53.578125 
Q 30.03125 56 36.53125 56 
Q 37.453125 56 38.578125 55.875 
Q 39.703125 55.765625 41.0625 55.515625 
z
" id="DejaVuSans-114"/>
       <path d="M 48.78125 52.59375 
L 48.78125 44.1875 
Q 44.96875 46.296875 41.140625 47.34375 
Q 37.3125 48.390625 33.40625 48.390625 
Q 24.65625 48.390625 19.8125 42.84375 
Q 14.984375 37.3125 14.984375 27.296875 
Q 14.984375 17.28125 19.8125 11.734375 
Q 24.65625 6.203125 33.40625 6.203125 
Q 37.3125 6.203125 41.140625 7.25 
Q 44.96875 8.296875 48.78125 10.40625 
L 48.78125 2.09375 
Q 45.015625 0.34375 40.984375 -0.53125 
Q 36.96875 -1.421875 32.421875 -1.421875 
Q 20.0625 -1.421875 12.78125 6.34375 
Q 5.515625 14.109375 5.515625 27.296875 
Q 5.515625 40.671875 12.859375 48.328125 
Q 20.21875 56 33.015625 56 
Q 37.15625 56 41.109375 55.140625 
Q 45.0625 54.296875 48.78125 52.59375 
z
" id="DejaVuSans-99"/>
       <path d="M 18.3125 70.21875 
L 18.3125 54.6875 
L 36.8125 54.6875 
L 36.8125 47.703125 
L 18.3125 47.703125 
L 18.3125 18.015625 
Q 18.3125 11.328125 20.140625 9.421875 
Q 21.96875 7.515625 27.59375 7.515625 
L 36.8125 7.515625 
L 36.8125 0 
L 27.59375 0 
Q 17.1875 0 13.234375 3.875 
Q 9.28125 7.765625 9.28125 18.015625 
L 9.28125 47.703125 
L 2.6875 47.703125 
L 2.6875 54.6875 
L 9.28125 54.6875 
L 9.28125 70.21875 
z
" id="DejaVuSans-116"/>
       <path d="M 8.5 21.578125 
L 8.5 54.6875 
L 17.484375 54.6875 
L 17.484375 21.921875 
Q 17.484375 14.15625 20.5 10.265625 
Q 23.53125 6.390625 29.59375 6.390625 
Q 36.859375 6.390625 41.078125 11.03125 
Q 45.3125 15.671875 45.3125 23.6875 
L 45.3125 54.6875 
L 54.296875 54.6875 
L 54.296875 0 
L 45.3125 0 
L 45.3125 8.40625 
Q 42.046875 3.421875 37.71875 1 
Q 33.40625 -1.421875 27.6875 -1.421875 
Q 18.265625 -1.421875 13.375 4.4375 
Q 8.5 10.296875 8.5 21.578125 
z
M 31.109375 56 
z
" id="DejaVuSans-117"/>
       <path d="M 11.71875 12.40625 
L 22.015625 12.40625 
L 22.015625 4 
L 14.015625 -11.625 
L 7.71875 -11.625 
L 11.71875 4 
z
" id="DejaVuSans-44"/>
       <path d="M 18.109375 8.203125 
L 18.109375 -20.796875 
L 9.078125 -20.796875 
L 9.078125 54.6875 
L 18.109375 54.6875 
L 18.109375 46.390625 
Q 20.953125 51.265625 25.265625 53.625 
Q 29.59375 56 35.59375 56 
Q 45.5625 56 51.78125 48.09375 
Q 58.015625 40.1875 58.015625 27.296875 
Q 58.015625 14.40625 51.78125 6.484375 
Q 45.5625 -1.421875 35.59375 -1.421875 
Q 29.59375 -1.421875 25.265625 0.953125 
Q 20.953125 3.328125 18.109375 8.203125 
z
M 48.6875 27.296875 
Q 48.6875 37.203125 44.609375 42.84375 
Q 40.53125 48.484375 33.40625 48.484375 
Q 26.265625 48.484375 22.1875 42.84375 
Q 18.109375 37.203125 18.109375 27.296875 
Q 18.109375 17.390625 22.1875 11.75 
Q 26.265625 6.109375 33.40625 6.109375 
Q 40.53125 6.109375 44.609375 11.75 
Q 48.6875 17.390625 48.6875 27.296875 
z
" id="DejaVuSans-112"/>
      </defs>
      <use xlink:href="#DejaVuSans-70"/>
      <use x="50.269531" xlink:href="#DejaVuSans-114"/>
      <use x="91.382812" xlink:href="#DejaVuSans-97"/>
      <use x="152.662109" xlink:href="#DejaVuSans-99"/>
      <use x="207.642578" xlink:href="#DejaVuSans-116"/>
      <use x="246.851562" xlink:href="#DejaVuSans-105"/>
      <use x="274.634766" xlink:href="#DejaVuSans-111"/>
      <use x="335.816406" xlink:href="#DejaVuSans-110"/>
      <use x="399.195312" xlink:href="#DejaVuSans-32"/>
      <use x="430.982422" xlink:href="#DejaVuSans-111"/>
      <use x="492.164062" xlink:href="#DejaVuSans-102"/>
      <use x="527.369141" xlink:href="#DejaVuSans-32"/>
      <use x="559.15625" xlink:href="#DejaVuSans-102"/>
      <use x="594.361328" xlink:href="#DejaVuSans-117"/>
      <use x="657.740234" xlink:href="#DejaVuSans-110"/>
      <use x="721.119141" xlink:href="#DejaVuSans-99"/>
      <use x="776.099609" xlink:href="#DejaVuSans-116"/>
      <use x="815.308594" xlink:href="#DejaVuSans-105"/>
      <use x="843.091797" xlink:href="#DejaVuSans-111"/>
      <use x="904.273438" xlink:href="#DejaVuSans-110"/>
      <use x="967.652344" xlink:href="#DejaVuSans-44"/>
      <use x="999.439453" xlink:href="#DejaVuSans-116"/>
      <use x="1038.648438" xlink:href="#DejaVuSans-97"/>
      <use x="1099.927734" xlink:href="#DejaVuSans-114"/>
      <use x="1139.291016" xlink:href="#DejaVuSans-103"/>
      <use x="1202.767578" xlink:href="#DejaVuSans-101"/>
      <use x="1264.291016" xlink:href="#DejaVuSans-116"/>
      <use x="1303.5" xlink:href="#DejaVuSans-32"/>
      <use x="1335.287109" xlink:href="#DejaVuSans-112"/>
      <use x="1398.763672" xlink:href="#DejaVuSans-97"/>
      <use x="1460.042969" xlink:href="#DejaVuSans-105"/>
      <use x="1487.826172" xlink:href="#DejaVuSans-114"/>
      <use x="1528.939453" xlink:href="#DejaVuSans-115"/>
     </g>
    </g>
   </g>
   <g id="line2d_33">
    <defs>
     <path d="M 0 1.5 
C 0.397805 1.5 0.77937 1.341951 1.06066 1.06066 
C 1.341951 0.77937 1.5 0.397805 1.5 0 
C 1.5 -0.397805 1.341951 -0.77937 1.06066 -1.06066 
C 0.77937 -1.341951 0.397805 -1.5 0 -1.5 
C -0.397805 -1.5 -0.77937 -1.341951 -1.06066 -1.06066 
C -1.341951 -0.77937 -1.5 -0.397805 -1.5 0 
C -1.5 0.397805 -1.341951 0.77937 -1.06066 1.06066 
C -0.77937 1.341951 -0.397805 1.5 0 1.5 
z
" id="mca586a4e53" style="stroke:#f5deb3;"/>
    </defs>
    <g>
     <use style="fill:#f5deb3;stroke:#f5deb3;" x="298.501061" xlink:href="#mca586a4e53" y="153.923857"/>
     <use style="fill:#f5deb3;stroke:#f5deb3;" x="298.501061" xlink:href="#mca586a4e53" y="153.923857"/>
    </g>
   </g>
   <g id="line2d_34">
    <defs>
     <path d="M 0 1.5 
C 0.397805 1.5 0.77937 1.341951 1.06066 1.06066 
C 1.341951 0.77937 1.5 0.397805 1.5 0 
C 1.5 -0.397805 1.341951 -0.77937 1.06066 -1.06066 
C 0.77937 -1.341951 0.397805 -1.5 0 -1.5 
C -0.397805 -1.5 -0.77937 -1.341951 -1.06066 -1.06066 
C -1.341951 -0.77937 -1.5 -0.397805 -1.5 0 
C -1.5 0.397805 -1.341951 0.77937 -1.06066 1.06066 
C -0.77937 1.341951 -0.397805 1.5 0 1.5 
z
" id="m331f8008a2" style="stroke:#ff7500;"/>
    </defs>
    <g>
     <use style="fill:#ff7500;stroke:#ff7500;" x="258.251227" xlink:href="#m331f8008a2" y="207.518257"/>
     <use style="fill:#ff7500;stroke:#ff7500;" x="258.251227" xlink:href="#m331f8008a2" y="207.518257"/>
    </g>
   </g>
   <g id="line2d_35">
    <path d="M 135.819708 298.944 
L 135.819708 298.817896 
L 136.242175 298.817896 
L 136.242175 298.691791 
L 136.494612 298.691791 
L 136.494612 298.565687 
L 136.706114 298.565687 
L 136.706114 298.439582 
L 136.933536 298.439582 
L 136.933536 298.313478 
L 137.080471 298.313478 
L 137.080471 298.187373 
L 137.976132 298.187373 
L 138.028177 297.80906 
L 138.118883 297.80906 
L 138.149014 297.556851 
L 138.264747 297.556851 
L 138.375473 297.052433 
L 138.502366 297.052433 
L 138.502366 296.926328 
L 138.624158 296.926328 
L 138.624158 296.800224 
L 138.786618 296.800224 
L 138.86522 296.295806 
L 139.090775 296.295806 
L 139.196394 295.665284 
L 139.341588 295.665284 
L 139.385713 295.28697 
L 139.624447 295.28697 
L 139.726893 294.782552 
L 139.746525 294.782552 
L 139.852158 294.530343 
L 139.867754 294.530343 
L 139.898902 294.025926 
L 140.01908 294.025926 
L 140.103868 293.773717 
L 140.134598 293.773717 
L 140.245542 293.269299 
L 140.253168 293.269299 
L 140.306452 293.01709 
L 140.393639 293.01709 
L 140.502953 292.134358 
L 140.510467 292.134358 
L 140.510467 292.008254 
L 140.738093 292.008254 
L 140.845276 291.503836 
L 140.937149 291.503836 
L 140.955465 291.251627 
L 141.090414 291.251627 
L 141.159308 290.873314 
L 141.224326 290.873314 
L 141.328571 290.495 
L 141.482002 290.495 
L 141.588253 289.36006 
L 141.630572 289.36006 
L 141.665761 289.107851 
L 141.809295 289.107851 
L 141.917041 288.603433 
L 142.013792 288.603433 
L 142.013792 288.477329 
L 142.198881 288.477329 
L 142.236344 288.099015 
L 142.368525 288.099015 
L 142.429195 287.846806 
L 142.53319 287.846806 
L 142.616608 287.216284 
L 142.712875 287.216284 
L 142.769062 286.711866 
L 142.828357 286.711866 
L 142.910378 286.081344 
L 143.082997 286.081344 
L 143.099194 285.829135 
L 143.208936 285.829135 
L 143.266757 285.450821 
L 143.324386 285.450821 
L 143.324386 285.324717 
L 143.486643 285.324717 
L 143.575087 284.694195 
L 143.60342 284.694195 
L 143.60342 284.56809 
L 143.781805 284.56809 
L 143.85017 284.063672 
L 143.905906 284.063672 
L 143.930621 283.685359 
L 144.090418 283.685359 
L 144.181947 283.43315 
L 144.257856 283.43315 
L 144.257856 283.307045 
L 144.375618 283.307045 
L 144.438701 282.802628 
L 144.498568 282.802628 
L 144.573114 282.550419 
L 144.632522 282.550419 
L 144.712404 282.29821 
L 144.882773 282.29821 
L 144.993499 281.541583 
L 145.01382 281.541583 
L 145.05439 281.289374 
L 145.175536 281.289374 
L 145.278711 280.91106 
L 145.332919 280.91106 
L 145.412499 280.406643 
L 145.449323 280.406643 
L 145.545268 279.902225 
L 145.618282 279.902225 
L 145.72445 279.523911 
L 145.780068 279.523911 
L 145.882498 278.767284 
L 145.945869 278.767284 
L 145.97884 278.515075 
L 146.08557 278.515075 
L 146.131889 278.136762 
L 146.286304 278.136762 
L 146.329404 277.758449 
L 146.40993 277.758449 
L 146.495417 277.50624 
L 146.638733 277.50624 
L 146.746765 276.749613 
L 146.793983 276.749613 
L 146.809695 276.371299 
L 146.914075 276.371299 
L 146.994542 275.740777 
L 147.066904 275.740777 
L 147.141536 275.110255 
L 147.287301 275.110255 
L 147.391401 274.605837 
L 147.477259 274.605837 
L 147.537611 274.353628 
L 147.602758 274.353628 
L 147.637737 273.84921 
L 147.828875 273.84921 
L 147.86833 273.470897 
L 147.942069 273.470897 
L 148.010612 273.092583 
L 148.05697 273.092583 
L 148.166278 272.335956 
L 148.168699 272.335956 
L 148.231534 271.705434 
L 148.36132 271.705434 
L 148.468742 271.201016 
L 148.48777 271.201016 
L 148.587329 270.696598 
L 148.676918 270.696598 
L 148.775406 270.066076 
L 148.82211 270.066076 
L 148.931374 269.561658 
L 149.049169 269.561658 
L 149.157025 269.183344 
L 149.284669 269.183344 
L 149.379792 268.552822 
L 149.530471 268.552822 
L 149.593058 267.417882 
L 149.710913 267.417882 
L 149.710913 267.165673 
L 149.849978 267.165673 
L 149.849978 267.039568 
L 149.970484 267.039568 
L 149.970484 266.913464 
L 150.144291 266.913464 
L 150.144291 266.78736 
L 150.256345 266.78736 
L 150.303536 266.282942 
L 150.391144 266.282942 
L 150.450722 266.030733 
L 150.577707 266.030733 
L 150.661853 265.652419 
L 150.703775 265.652419 
L 150.81022 265.274106 
L 150.816462 265.274106 
L 150.858013 264.895792 
L 151.019126 264.895792 
L 151.019126 264.769688 
L 151.133886 264.769688 
L 151.133886 264.643583 
L 151.262094 264.643583 
L 151.262094 264.517479 
L 151.391379 264.517479 
L 151.481712 264.013061 
L 151.670893 264.013061 
L 151.771612 263.760852 
L 151.812917 263.760852 
L 151.920633 263.256434 
L 152.122515 263.256434 
L 152.122515 263.004225 
L 152.306816 263.004225 
L 152.356397 262.752016 
L 152.485409 262.752016 
L 152.515626 262.373703 
L 152.598456 262.373703 
L 152.667804 262.121494 
L 152.736878 262.121494 
L 152.746192 261.869285 
L 152.872362 261.869285 
L 152.92405 261.617076 
L 153.052605 261.617076 
L 153.052605 261.490972 
L 153.189299 261.490972 
L 153.214697 261.112658 
L 153.335734 261.112658 
L 153.443418 260.860449 
L 153.776583 260.860449 
L 153.776583 260.734345 
L 153.926893 260.734345 
L 154.006762 259.851614 
L 154.153391 259.851614 
L 154.251033 259.599405 
L 154.283459 259.599405 
L 154.390548 259.221091 
L 154.622851 259.221091 
L 154.622851 259.094987 
L 154.779333 259.094987 
L 154.8587 258.33836 
L 155.026166 258.33836 
L 155.026166 258.212255 
L 155.264719 258.212255 
L 155.353142 257.833942 
L 155.433138 257.833942 
L 155.433138 257.581733 
L 155.598366 257.581733 
L 155.678822 257.077315 
L 155.727546 257.077315 
L 155.813658 256.446793 
L 155.85266 256.446793 
L 155.85266 256.194584 
L 155.983071 256.194584 
L 155.983071 256.068479 
L 156.295782 256.068479 
L 156.295782 255.81627 
L 156.477143 255.81627 
L 156.477143 255.690166 
L 156.658127 255.690166 
L 156.729404 255.311853 
L 156.863741 255.311853 
L 156.972223 254.68133 
L 157.004345 254.68133 
L 157.004345 254.555226 
L 157.197287 254.555226 
L 157.269273 254.303017 
L 157.460743 254.303017 
L 157.460743 254.176912 
L 157.703468 254.176912 
L 157.746858 253.924703 
L 158.047603 253.924703 
L 158.047603 253.798599 
L 158.313503 253.798599 
L 158.313503 253.54639 
L 158.524678 253.54639 
L 158.562073 253.294181 
L 158.648574 253.294181 
L 158.720112 252.789763 
L 158.77555 252.789763 
L 158.815042 252.537554 
L 158.966905 252.537554 
L 158.966905 252.41145 
L 159.163917 252.41145 
L 159.259031 252.159241 
L 159.275687 252.159241 
L 159.379109 251.528718 
L 159.38929 251.528718 
L 159.456591 251.150405 
L 160.475629 251.150405 
L 160.475629 251.0243 
L 160.92758 251.0243 
L 160.92758 250.898196 
L 161.406689 250.898196 
L 161.406689 250.772091 
L 161.520779 250.772091 
L 161.520779 250.645987 
L 161.984076 250.645987 
L 161.984076 250.519883 
L 162.33144 250.519883 
L 162.33144 250.393778 
L 162.513202 250.393778 
L 162.513202 250.267674 
L 162.63826 250.267674 
L 162.63826 250.141569 
L 162.776055 250.141569 
L 162.8555 249.88936 
L 162.926277 249.88936 
L 162.926277 249.763256 
L 163.432007 249.763256 
L 163.432007 249.637151 
L 163.554677 249.637151 
L 163.554677 249.511047 
L 163.792519 249.511047 
L 163.792519 249.384942 
L 164.268307 249.384942 
L 164.337419 249.132733 
L 164.431051 249.132733 
L 164.51565 248.502211 
L 164.762338 248.502211 
L 164.802494 248.123898 
L 165.705872 248.123898 
L 165.705872 247.997793 
L 166.918621 247.997793 
L 166.918621 247.871689 
L 167.676073 247.871689 
L 167.676073 247.61948 
L 167.927398 247.61948 
L 168.033124 247.115062 
L 168.081883 247.115062 
L 168.081883 246.988957 
L 168.284739 246.988957 
L 168.284739 246.862853 
L 168.592925 246.862853 
L 168.592925 246.610644 
L 169.574291 246.610644 
L 169.667694 246.358435 
L 169.815964 246.358435 
L 169.906692 245.980122 
L 170.208264 245.980122 
L 170.208264 245.854017 
L 170.559777 245.854017 
L 170.559777 245.727913 
L 171.112802 245.727913 
L 171.112802 245.475704 
L 172.426198 245.475704 
L 172.426198 245.223495 
L 173.021974 245.223495 
L 173.021974 245.09739 
L 173.532602 245.09739 
L 173.558028 244.719077 
L 173.970352 244.719077 
L 173.973109 244.340763 
L 174.390386 244.340763 
L 174.390386 244.214659 
L 174.655881 244.214659 
L 174.655881 243.96245 
L 175.300669 243.96245 
L 175.300669 243.836346 
L 177.262399 243.836346 
L 177.357558 243.331928 
L 177.468 243.331928 
L 177.513511 242.953614 
L 178.116352 242.953614 
L 178.116352 242.82751 
L 178.283356 242.82751 
L 178.283356 242.701405 
L 179.400759 242.701405 
L 179.400759 242.575301 
L 179.875641 242.575301 
L 179.875641 242.449196 
L 180.004466 242.449196 
L 180.004466 242.323092 
L 180.57967 242.323092 
L 180.57967 242.070883 
L 180.873862 242.070883 
L 180.873862 241.944778 
L 181.05405 241.944778 
L 181.081578 241.566465 
L 181.344386 241.566465 
L 181.344386 241.440361 
L 181.491882 241.440361 
L 181.491882 241.188152 
L 181.946933 241.188152 
L 181.946933 240.935943 
L 182.332816 240.935943 
L 182.332816 240.809838 
L 182.473572 240.809838 
L 182.566108 240.30542 
L 182.742385 240.30542 
L 182.742385 240.053211 
L 183.266922 240.053211 
L 183.266922 239.801002 
L 183.584341 239.801002 
L 183.584341 239.674898 
L 184.784985 239.674898 
L 184.784985 239.548793 
L 184.905574 239.548793 
L 184.905574 239.296584 
L 185.396666 239.296584 
L 185.396666 239.044376 
L 185.595694 239.044376 
L 185.595694 238.792167 
L 185.765582 238.792167 
L 185.765582 238.666062 
L 186.417982 238.666062 
L 186.417982 238.413853 
L 186.695027 238.413853 
L 186.695027 238.161644 
L 187.198331 238.161644 
L 187.198331 237.909435 
L 187.315957 237.909435 
L 187.315957 237.783331 
L 187.759687 237.783331 
L 187.759687 237.531122 
L 188.141592 237.531122 
L 188.141592 237.405017 
L 188.520819 237.405017 
L 188.520819 237.152808 
L 188.746775 237.152808 
L 188.75717 236.9006 
L 189.047825 236.9006 
L 189.154343 236.522286 
L 189.509905 236.522286 
L 189.509905 236.396182 
L 189.660578 236.396182 
L 189.660578 236.270077 
L 190.076058 236.270077 
L 190.076058 236.017868 
L 190.303395 236.017868 
L 190.354544 235.387346 
L 190.837626 235.387346 
L 190.892668 235.009032 
L 191.852248 235.009032 
L 191.852248 234.756823 
L 192.456514 234.756823 
L 192.456514 234.630719 
L 192.592001 234.630719 
L 192.592001 234.37851 
L 192.815749 234.37851 
L 192.815749 234.126301 
L 193.21718 234.126301 
L 193.21718 234.000197 
L 193.371213 234.000197 
L 193.399649 233.495779 
L 194.405437 233.495779 
L 194.405437 233.24357 
L 194.597755 233.24357 
L 194.597755 233.117465 
L 194.771757 233.117465 
L 194.771757 232.991361 
L 195.207718 232.991361 
L 195.207718 232.739152 
L 195.515304 232.739152 
L 195.515304 232.613047 
L 195.754268 232.613047 
L 195.754268 232.360839 
L 196.208118 232.360839 
L 196.208118 232.234734 
L 196.363635 232.234734 
L 196.363635 231.982525 
L 196.79852 231.982525 
L 196.79852 231.856421 
L 198.485568 231.856421 
L 198.485568 231.604212 
L 198.795107 231.604212 
L 198.88651 231.225898 
L 199.395607 231.225898 
L 199.395607 230.973689 
L 199.698999 230.973689 
L 199.698999 230.847585 
L 200.098687 230.847585 
L 200.098687 230.72148 
L 200.257205 230.72148 
L 200.257205 230.595376 
L 200.728334 230.595376 
L 200.730355 230.343167 
L 201.370561 230.343167 
L 201.370561 230.090958 
L 202.842515 230.090958 
L 202.842515 229.964854 
L 203.319812 229.964854 
L 203.319812 229.712645 
L 203.461965 229.712645 
L 203.461965 229.460436 
L 204.089895 229.460436 
L 204.089895 229.208227 
L 204.491315 229.208227 
L 204.50836 228.829913 
L 204.62807 228.829913 
L 204.62807 228.703809 
L 205.013614 228.703809 
L 205.013614 228.4516 
L 205.533996 228.4516 
L 205.533996 228.199391 
L 205.794302 228.199391 
L 205.794302 227.947182 
L 206.066543 227.947182 
L 206.066543 227.694973 
L 206.325373 227.694973 
L 206.325373 227.568869 
L 207.067273 227.568869 
L 207.067273 227.442764 
L 209.034582 227.442764 
L 209.034582 227.190555 
L 209.757793 227.190555 
L 209.864005 226.560033 
L 210.322731 226.560033 
L 210.322731 226.433928 
L 210.889071 226.433928 
L 210.889071 226.181719 
L 212.020732 226.181719 
L 212.122034 225.677301 
L 212.268446 225.677301 
L 212.268446 225.551197 
L 212.505006 225.551197 
L 212.505006 225.425093 
L 213.339783 225.425093 
L 213.434471 225.046779 
L 214.160485 225.046779 
L 214.160485 224.79457 
L 214.541131 224.79457 
L 214.541131 224.668466 
L 215.259159 224.668466 
L 215.259159 224.416257 
L 216.932866 224.416257 
L 216.932866 224.290152 
L 217.546102 224.290152 
L 217.641016 223.911839 
L 218.005528 223.911839 
L 218.015236 223.407421 
L 218.286946 223.407421 
L 218.286946 223.155212 
L 218.459828 223.155212 
L 218.459828 222.903003 
L 220.105975 222.903003 
L 220.105975 222.650794 
L 221.175724 222.650794 
L 221.175724 222.398585 
L 221.520756 222.398585 
L 221.520756 222.146376 
L 222.736687 222.146376 
L 222.736687 222.020272 
L 223.422836 222.020272 
L 223.422836 221.768063 
L 224.928457 221.768063 
L 224.928457 221.515854 
L 226.578218 221.515854 
L 226.578218 221.263645 
L 227.169897 221.263645 
L 227.169897 221.011436 
L 227.390085 221.011436 
L 227.390085 220.759227 
L 227.824252 220.759227 
L 227.824252 220.633123 
L 228.292053 220.633123 
L 228.292053 220.507018 
L 228.724777 220.507018 
L 228.724777 220.254809 
L 229.320803 220.254809 
L 229.320803 220.0026 
L 229.84847 220.0026 
L 229.84847 219.750391 
L 230.997414 219.750391 
L 230.997414 219.498182 
L 231.131811 219.498182 
L 231.131811 219.245973 
L 233.38716 219.245973 
L 233.38716 219.119869 
L 234.183805 219.119869 
L 234.183805 218.993764 
L 234.331542 218.993764 
L 234.331542 218.86766 
L 234.489962 218.86766 
L 234.489962 218.615451 
L 235.205616 218.615451 
L 235.205616 218.363242 
L 235.736555 218.363242 
L 235.771095 218.111033 
L 236.635374 218.111033 
L 236.635374 217.858824 
L 237.165728 217.858824 
L 237.165728 217.73272 
L 238.685123 217.73272 
L 238.685123 217.606615 
L 238.836712 217.606615 
L 238.836712 217.354406 
L 239.392209 217.354406 
L 239.394074 216.976093 
L 241.715189 216.976093 
L 241.715189 216.849988 
L 242.166844 216.849988 
L 242.166844 216.597779 
L 242.31618 216.597779 
L 242.389035 216.219466 
L 242.483781 216.219466 
L 242.483781 215.967257 
L 243.503079 215.967257 
L 243.503079 215.841153 
L 244.835949 215.841153 
L 244.860213 215.462839 
L 245.344725 215.462839 
L 245.344725 215.336735 
L 245.631362 215.336735 
L 245.631362 215.084526 
L 246.008756 215.084526 
L 246.023857 214.706212 
L 246.630129 214.706212 
L 246.630129 214.580108 
L 247.12593 214.580108 
L 247.12593 214.454003 
L 247.306128 214.454003 
L 247.306128 214.327899 
L 248.230011 214.327899 
L 248.281828 214.07569 
L 249.691787 214.07569 
L 249.785379 213.823481 
L 249.897872 213.823481 
L 249.897872 213.697377 
L 250.12594 213.697377 
L 250.12594 213.571272 
L 250.340816 213.571272 
L 250.340816 213.445168 
L 250.641232 213.445168 
L 250.641232 213.192959 
L 250.783856 213.192959 
L 250.824751 212.94075 
L 251.129716 212.94075 
L 251.177578 212.436332 
L 252.192478 212.436332 
L 252.280493 212.058018 
L 252.590137 212.058018 
L 252.590137 211.931914 
L 252.786957 211.931914 
L 252.786957 211.805809 
L 253.035 211.805809 
L 253.035 211.553601 
L 253.304827 211.553601 
L 253.328942 211.175287 
L 253.42948 211.175287 
L 253.42948 211.049183 
L 254.30215 211.049183 
L 254.369755 210.670869 
L 255.283992 210.670869 
L 255.328867 210.292556 
L 255.670701 210.292556 
L 255.756981 210.040347 
L 255.790449 210.040347 
L 255.85805 209.662033 
L 256.174974 209.662033 
L 256.174974 209.535929 
L 256.490405 209.535929 
L 256.555216 209.28372 
L 256.606348 209.28372 
L 256.647425 208.779302 
L 257.314125 208.779302 
L 257.364381 208.527093 
L 257.527766 208.527093 
L 257.60205 208.274884 
L 257.983751 208.274884 
L 258.076281 207.644362 
L 258.251227 207.644362 
L 258.251227 207.518257 
L 338.688 207.518257 
L 338.688 207.518257 
" style="fill:none;stroke:#ff7500;stroke-linecap:square;stroke-width:1.5;"/>
   </g>
   <g id="line2d_36">
    <defs>
     <path d="M 0 -6 
L -1.347084 -1.854102 
L -5.706339 -1.854102 
L -2.179628 0.708204 
L -3.526712 4.854102 
L -0 2.291796 
L 3.526712 4.854102 
L 2.179628 0.708204 
L 5.706339 -1.854102 
L 1.347084 -1.854102 
z
" id="m47524b78b8" style="stroke:#ff7500;stroke-linejoin:bevel;stroke-width:1.5;"/>
    </defs>
    <g>
     <use style="fill-opacity:0;stroke:#ff7500;stroke-linejoin:bevel;stroke-width:1.5;" x="192.815749" xlink:href="#m47524b78b8" y="234.126301"/>
     <use style="fill-opacity:0;stroke:#ff7500;stroke-linejoin:bevel;stroke-width:1.5;" x="250.340816" xlink:href="#m47524b78b8" y="213.445168"/>
     <use style="fill-opacity:0;stroke:#ff7500;stroke-linejoin:bevel;stroke-width:1.5;" x="258.251227" xlink:href="#m47524b78b8" y="207.518257"/>
     <use style="fill-opacity:0;stroke:#ff7500;stroke-linejoin:bevel;stroke-width:1.5;" x="258.251227" xlink:href="#m47524b78b8" y="207.518257"/>
     <use style="fill-opacity:0;stroke:#ff7500;stroke-linejoin:bevel;stroke-width:1.5;" x="338.688" xlink:href="#m47524b78b8" y="207.518257"/>
    </g>
   </g>
   <g id="line2d_37">
    <path style="fill:none;stroke:#ff7500;stroke-linecap:square;stroke-width:1.5;"/>
    <g/>
   </g>
   <g id="line2d_38">
    <path clip-path="url(#pae81580541)" d="M 258.377143 207.518257 
" style="fill:none;stroke:#ff7500;stroke-linecap:square;stroke-width:1.5;"/>
    <defs>
     <path d="M -12 12 
L 12 -12 
M -12 -12 
L 12 12 
" id="mba30c2bf97" style="stroke:#ff7500;"/>
    </defs>
    <g clip-path="url(#pae81580541)">
     <use style="fill:#ff7500;stroke:#ff7500;" x="258.377143" xlink:href="#mba30c2bf97" y="207.518257"/>
    </g>
   </g>
   <g id="line2d_39">
    <defs>
     <path d="M 0 1.5 
C 0.397805 1.5 0.77937 1.341951 1.06066 1.06066 
C 1.341951 0.77937 1.5 0.397805 1.5 0 
C 1.5 -0.397805 1.341951 -0.77937 1.06066 -1.06066 
C 0.77937 -1.341951 0.397805 -1.5 0 -1.5 
C -0.397805 -1.5 -0.77937 -1.341951 -1.06066 -1.06066 
C -1.341951 -0.77937 -1.5 -0.397805 -1.5 0 
C -1.5 0.397805 -1.341951 0.77937 -1.06066 1.06066 
C -0.77937 1.341951 -0.397805 1.5 0 1.5 
z
" id="m8097af99e1" style="stroke:#6495ed;"/>
    </defs>
    <g>
     <use style="fill:#6495ed;stroke:#6495ed;" x="257.209029" xlink:href="#m8097af99e1" y="268.805031"/>
     <use style="fill:#6495ed;stroke:#6495ed;" x="257.209029" xlink:href="#m8097af99e1" y="268.805031"/>
    </g>
   </g>
   <g id="line2d_40">
    <path d="M -1 290.368896 
L 91.965895 290.368896 
L 91.965895 290.242791 
L 97.043522 290.242791 
L 97.043522 290.116687 
L 104.768221 290.116687 
L 104.768221 289.990582 
L 109.535528 289.990582 
L 109.535528 289.864478 
L 110.145965 289.864478 
L 110.231452 289.612269 
L 110.569269 289.612269 
L 110.569269 289.486165 
L 111.663381 289.486165 
L 111.663381 289.36006 
L 111.974805 289.36006 
L 111.974805 289.233956 
L 112.33754 289.233956 
L 112.33754 289.107851 
L 112.488041 289.107851 
L 112.506763 288.855642 
L 114.148479 288.855642 
L 114.148479 288.729538 
L 115.711251 288.729538 
L 115.711251 288.603433 
L 115.927891 288.603433 
L 115.927891 288.477329 
L 116.050487 288.477329 
L 116.157057 288.099015 
L 116.323218 288.099015 
L 116.338246 287.846806 
L 116.502698 287.846806 
L 116.502698 287.720702 
L 116.972471 287.720702 
L 116.98695 287.342389 
L 117.231262 287.342389 
L 117.288253 287.09018 
L 117.359231 287.09018 
L 117.359231 286.964075 
L 118.039942 286.964075 
L 118.039942 286.837971 
L 118.417314 286.837971 
L 118.417314 286.711866 
L 118.668815 286.711866 
L 118.747488 286.459657 
L 118.81278 286.459657 
L 118.81278 286.333553 
L 119.020084 286.333553 
L 119.020084 286.207448 
L 119.351785 286.207448 
L 119.351785 285.955239 
L 119.62761 285.955239 
L 119.726838 285.70303 
L 119.923616 285.70303 
L 119.923616 285.576926 
L 120.286695 285.576926 
L 120.310634 285.324717 
L 120.910223 285.324717 
L 120.910223 285.198612 
L 121.196777 285.198612 
L 121.230849 284.946404 
L 121.612419 284.946404 
L 121.612419 284.820299 
L 121.953191 284.820299 
L 121.953191 284.694195 
L 122.191052 284.694195 
L 122.287432 284.441986 
L 124.033832 284.441986 
L 124.072436 284.189777 
L 124.197312 284.189777 
L 124.197312 284.063672 
L 124.378229 284.063672 
L 124.463275 283.811463 
L 124.510345 283.811463 
L 124.585393 283.559254 
L 125.417081 283.559254 
L 125.417081 283.43315 
L 125.97912 283.43315 
L 125.97912 283.307045 
L 126.22795 283.307045 
L 126.22795 283.180941 
L 126.97016 283.180941 
L 126.978322 282.928732 
L 127.2536 282.928732 
L 127.2536 282.802628 
L 127.689902 282.802628 
L 127.689902 282.676523 
L 131.502845 282.676523 
L 131.502845 282.550419 
L 131.69693 282.550419 
L 131.69693 282.424314 
L 133.655948 282.424314 
L 133.655948 282.29821 
L 135.102271 282.29821 
L 135.102271 282.172105 
L 136.299652 282.172105 
L 136.299652 282.046001 
L 136.887363 282.046001 
L 136.887363 281.919896 
L 139.933878 281.919896 
L 139.933878 281.793792 
L 145.120836 281.793792 
L 145.152526 281.541583 
L 146.890644 281.541583 
L 146.890644 281.415478 
L 147.338159 281.415478 
L 147.338159 281.289374 
L 147.452051 281.289374 
L 147.452051 281.163269 
L 148.61331 281.163269 
L 148.61331 281.037165 
L 149.985761 281.037165 
L 149.985761 280.91106 
L 150.463462 280.91106 
L 150.463462 280.784956 
L 152.611597 280.784956 
L 152.611597 280.658851 
L 154.552477 280.658851 
L 154.552477 280.532747 
L 156.001622 280.532747 
L 156.001622 280.406643 
L 156.300339 280.406643 
L 156.300339 280.280538 
L 160.457688 280.280538 
L 160.457688 280.028329 
L 161.839854 280.028329 
L 161.839854 279.902225 
L 162.815822 279.902225 
L 162.876347 279.650016 
L 163.766802 279.650016 
L 163.766802 279.523911 
L 165.839101 279.523911 
L 165.839101 279.397807 
L 165.977425 279.397807 
L 165.977425 279.271702 
L 170.147267 279.271702 
L 170.147267 279.019493 
L 170.646059 279.019493 
L 170.646059 278.893389 
L 171.183463 278.893389 
L 171.183463 278.767284 
L 171.990033 278.767284 
L 171.990033 278.64118 
L 172.504341 278.64118 
L 172.504341 278.515075 
L 173.645883 278.515075 
L 173.645883 278.388971 
L 176.267102 278.388971 
L 176.267102 278.136762 
L 177.197449 278.136762 
L 177.197449 278.010658 
L 177.869864 278.010658 
L 177.869864 277.884553 
L 179.363969 277.884553 
L 179.363969 277.758449 
L 180.780453 277.758449 
L 180.780453 277.50624 
L 181.047436 277.50624 
L 181.107965 277.254031 
L 182.410814 277.254031 
L 182.410814 277.127926 
L 184.460787 277.127926 
L 184.460787 277.001822 
L 185.598525 277.001822 
L 185.598525 276.875717 
L 187.585518 276.875717 
L 187.585518 276.749613 
L 188.058209 276.749613 
L 188.058209 276.623508 
L 189.634096 276.623508 
L 189.634096 276.497404 
L 189.756963 276.497404 
L 189.756963 276.371299 
L 190.079343 276.371299 
L 190.089629 276.11909 
L 191.023607 276.11909 
L 191.023607 275.992986 
L 195.437224 275.992986 
L 195.437224 275.866882 
L 196.533359 275.866882 
L 196.533359 275.740777 
L 196.842398 275.740777 
L 196.842398 275.614673 
L 197.238659 275.614673 
L 197.238659 275.488568 
L 198.218414 275.488568 
L 198.318889 275.110255 
L 199.637729 275.110255 
L 199.637729 274.98415 
L 201.923165 274.98415 
L 201.923165 274.858046 
L 202.308298 274.858046 
L 202.308298 274.731941 
L 203.472328 274.731941 
L 203.472328 274.479732 
L 204.167955 274.479732 
L 204.167955 274.353628 
L 205.443877 274.353628 
L 205.443877 274.227523 
L 208.178706 274.227523 
L 208.178706 274.101419 
L 209.64587 274.101419 
L 209.64587 273.975314 
L 210.066784 273.975314 
L 210.15958 273.597001 
L 215.141158 273.597001 
L 215.141158 273.344792 
L 215.492436 273.344792 
L 215.492436 273.218688 
L 217.043113 273.218688 
L 217.043113 273.092583 
L 218.532915 273.092583 
L 218.532915 272.966479 
L 220.58711 272.966479 
L 220.631023 272.588165 
L 222.17741 272.588165 
L 222.17741 272.462061 
L 223.320032 272.462061 
L 223.320032 272.335956 
L 223.745456 272.335956 
L 223.745456 272.209852 
L 225.120957 272.209852 
L 225.120957 272.083747 
L 228.495093 272.083747 
L 228.495093 271.957643 
L 229.017169 271.957643 
L 229.017169 271.831538 
L 230.238208 271.831538 
L 230.238208 271.705434 
L 230.611736 271.705434 
L 230.611736 271.579329 
L 231.652494 271.579329 
L 231.652494 271.453225 
L 232.006094 271.453225 
L 232.006094 271.327121 
L 233.858363 271.327121 
L 233.858363 271.201016 
L 234.99252 271.201016 
L 234.99252 271.074912 
L 238.935786 271.074912 
L 239.039561 270.696598 
L 239.512509 270.696598 
L 239.512509 270.570494 
L 241.698916 270.570494 
L 241.792027 270.318285 
L 246.224308 270.318285 
L 246.224308 270.19218 
L 247.057945 270.19218 
L 247.057945 270.066076 
L 247.505836 270.066076 
L 247.505836 269.939971 
L 247.953864 269.939971 
L 247.953864 269.813867 
L 248.847753 269.813867 
L 248.847753 269.687762 
L 251.718753 269.687762 
L 251.718753 269.435553 
L 253.130528 269.435553 
L 253.130528 269.183344 
L 253.343273 269.183344 
L 253.343273 269.05724 
L 256.95299 269.05724 
L 256.95299 268.931136 
L 257.209029 268.931136 
L 257.209029 268.805031 
L 338.688 268.805031 
L 338.688 268.805031 
" style="fill:none;stroke:#6495ed;stroke-linecap:square;stroke-width:1.5;"/>
   </g>
   <g id="line2d_41">
    <defs>
     <path d="M -0 6 
L 6 -6 
L -6 -6 
z
" id="m28a9646ee3" style="stroke:#6495ed;stroke-linejoin:miter;stroke-width:1.5;"/>
    </defs>
    <g>
     <use style="fill-opacity:0;stroke:#6495ed;stroke-linejoin:miter;stroke-width:1.5;" x="114.148479" xlink:href="#m28a9646ee3" y="288.855642"/>
     <use style="fill-opacity:0;stroke:#6495ed;stroke-linejoin:miter;stroke-width:1.5;" x="191.023607" xlink:href="#m28a9646ee3" y="275.992986"/>
     <use style="fill-opacity:0;stroke:#6495ed;stroke-linejoin:miter;stroke-width:1.5;" x="257.209029" xlink:href="#m28a9646ee3" y="268.931136"/>
     <use style="fill-opacity:0;stroke:#6495ed;stroke-linejoin:miter;stroke-width:1.5;" x="257.209029" xlink:href="#m28a9646ee3" y="268.805031"/>
     <use style="fill-opacity:0;stroke:#6495ed;stroke-linejoin:miter;stroke-width:1.5;" x="338.688" xlink:href="#m28a9646ee3" y="268.805031"/>
    </g>
   </g>
   <g id="line2d_42">
    <path style="fill:none;stroke:#6495ed;stroke-linecap:square;stroke-width:1.5;"/>
    <g/>
   </g>
   <g id="line2d_43">
    <path clip-path="url(#pae81580541)" d="M 258.377631 268.805031 
" style="fill:none;stroke:#6495ed;stroke-linecap:square;stroke-width:1.5;"/>
    <defs>
     <path d="M -12 12 
L 12 -12 
M -12 -12 
L 12 12 
" id="m5ec654a887" style="stroke:#6495ed;"/>
    </defs>
    <g clip-path="url(#pae81580541)">
     <use style="fill:#6495ed;stroke:#6495ed;" x="258.377631" xlink:href="#m5ec654a887" y="268.805031"/>
    </g>
   </g>
   <g id="line2d_44">
    <path d="M 338.688 268.805031 
L 369.60768 293.092752 
" style="fill:none;stroke:#6495ed;stroke-linecap:square;stroke-width:1.5;"/>
    <g>
     <use style="fill-opacity:0;stroke:#6495ed;stroke-linejoin:miter;stroke-width:1.5;" x="338.688" xlink:href="#m28a9646ee3" y="268.805031"/>
     <use style="fill-opacity:0;stroke:#6495ed;stroke-linejoin:miter;stroke-width:1.5;" x="369.60768" xlink:href="#m28a9646ee3" y="293.092752"/>
    </g>
   </g>
   <g id="line2d_45">
    <path d="M 338.688 207.518257 
L 369.60768 152.662812 
" style="fill:none;stroke:#ff7500;stroke-linecap:square;stroke-width:1.5;"/>
    <g>
     <use style="fill-opacity:0;stroke:#ff7500;stroke-linejoin:bevel;stroke-width:1.5;" x="338.688" xlink:href="#m47524b78b8" y="207.518257"/>
     <use style="fill-opacity:0;stroke:#ff7500;stroke-linejoin:bevel;stroke-width:1.5;" x="369.60768" xlink:href="#m47524b78b8" y="152.662812"/>
    </g>
   </g>
   <g id="line2d_46">
    <path d="M 338.688 298.944 
L 338.688 6.381624 
" style="fill:none;stroke:#000000;stroke-linecap:square;stroke-width:1.5;"/>
   </g>
   <g id="patch_3">
    <path d="M 57.6 298.944 
L 57.6 3.456 
" style="fill:none;stroke:#000000;stroke-linecap:square;stroke-linejoin:miter;stroke-width:0.8;"/>
   </g>
   <g id="patch_4">
    <path d="M 338.688 298.944 
L 338.688 3.456 
" style="fill:none;stroke:#000000;stroke-linecap:square;stroke-linejoin:miter;stroke-width:0.8;"/>
   </g>
   <g id="patch_5">
    <path d="M 57.6 298.944 
L 338.688 298.944 
" style="fill:none;stroke:#000000;stroke-linecap:square;stroke-linejoin:miter;stroke-width:0.8;"/>
   </g>
   <g id="patch_6">
    <path d="M 57.6 3.456 
L 338.688 3.456 
" style="fill:none;stroke:#000000;stroke-linecap:square;stroke-linejoin:miter;stroke-width:0.8;"/>
   </g>
   <g id="text_13">
    <!-- NSGA-II-M -->
    <g transform="translate(375.22944 297.78369)scale(0.17 -0.17)">
     <defs>
      <path d="M 9.8125 72.90625 
L 23.09375 72.90625 
L 55.421875 11.921875 
L 55.421875 72.90625 
L 64.984375 72.90625 
L 64.984375 0 
L 51.703125 0 
L 19.390625 60.984375 
L 19.390625 0 
L 9.8125 0 
z
" id="DejaVuSans-78"/>
      <path d="M 53.515625 70.515625 
L 53.515625 60.890625 
Q 47.90625 63.578125 42.921875 64.890625 
Q 37.9375 66.21875 33.296875 66.21875 
Q 25.25 66.21875 20.875 63.09375 
Q 16.5 59.96875 16.5 54.203125 
Q 16.5 49.359375 19.40625 46.890625 
Q 22.3125 44.4375 30.421875 42.921875 
L 36.375 41.703125 
Q 47.40625 39.59375 52.65625 34.296875 
Q 57.90625 29 57.90625 20.125 
Q 57.90625 9.515625 50.796875 4.046875 
Q 43.703125 -1.421875 29.984375 -1.421875 
Q 24.8125 -1.421875 18.96875 -0.25 
Q 13.140625 0.921875 6.890625 3.21875 
L 6.890625 13.375 
Q 12.890625 10.015625 18.65625 8.296875 
Q 24.421875 6.59375 29.984375 6.59375 
Q 38.421875 6.59375 43.015625 9.90625 
Q 47.609375 13.234375 47.609375 19.390625 
Q 47.609375 24.75 44.3125 27.78125 
Q 41.015625 30.8125 33.5 32.328125 
L 27.484375 33.5 
Q 16.453125 35.6875 11.515625 40.375 
Q 6.59375 45.0625 6.59375 53.421875 
Q 6.59375 63.09375 13.40625 68.65625 
Q 20.21875 74.21875 32.171875 74.21875 
Q 37.3125 74.21875 42.625 73.28125 
Q 47.953125 72.359375 53.515625 70.515625 
z
" id="DejaVuSans-83"/>
      <path d="M 59.515625 10.40625 
L 59.515625 29.984375 
L 43.40625 29.984375 
L 43.40625 38.09375 
L 69.28125 38.09375 
L 69.28125 6.78125 
Q 63.578125 2.734375 56.6875 0.65625 
Q 49.8125 -1.421875 42 -1.421875 
Q 24.90625 -1.421875 15.25 8.5625 
Q 5.609375 18.5625 5.609375 36.375 
Q 5.609375 54.25 15.25 64.234375 
Q 24.90625 74.21875 42 74.21875 
Q 49.125 74.21875 55.546875 72.453125 
Q 61.96875 70.703125 67.390625 67.28125 
L 67.390625 56.78125 
Q 61.921875 61.421875 55.765625 63.765625 
Q 49.609375 66.109375 42.828125 66.109375 
Q 29.4375 66.109375 22.71875 58.640625 
Q 16.015625 51.171875 16.015625 36.375 
Q 16.015625 21.625 22.71875 14.15625 
Q 29.4375 6.6875 42.828125 6.6875 
Q 48.046875 6.6875 52.140625 7.59375 
Q 56.25 8.5 59.515625 10.40625 
z
" id="DejaVuSans-71"/>
      <path d="M 34.1875 63.1875 
L 20.796875 26.90625 
L 47.609375 26.90625 
z
M 28.609375 72.90625 
L 39.796875 72.90625 
L 67.578125 0 
L 57.328125 0 
L 50.6875 18.703125 
L 17.828125 18.703125 
L 11.1875 0 
L 0.78125 0 
z
" id="DejaVuSans-65"/>
      <path d="M 9.8125 72.90625 
L 19.671875 72.90625 
L 19.671875 0 
L 9.8125 0 
z
" id="DejaVuSans-73"/>
      <path d="M 9.8125 72.90625 
L 24.515625 72.90625 
L 43.109375 23.296875 
L 61.8125 72.90625 
L 76.515625 72.90625 
L 76.515625 0 
L 66.890625 0 
L 66.890625 64.015625 
L 48.09375 14.015625 
L 38.1875 14.015625 
L 19.390625 64.015625 
L 19.390625 0 
L 9.8125 0 
z
" id="DejaVuSans-77"/>
     </defs>
     <use xlink:href="#DejaVuSans-78"/>
     <use x="74.804688" xlink:href="#DejaVuSans-83"/>
     <use x="138.28125" xlink:href="#DejaVuSans-71"/>
     <use x="215.771484" xlink:href="#DejaVuSans-65"/>
     <use x="281.929688" xlink:href="#DejaVuSans-45"/>
     <use x="318.013672" xlink:href="#DejaVuSans-73"/>
     <use x="347.505859" xlink:href="#DejaVuSans-73"/>
     <use x="376.998047" xlink:href="#DejaVuSans-45"/>
     <use x="413.082031" xlink:href="#DejaVuSans-77"/>
    </g>
   </g>
   <g id="text_14">
    <!-- RM-MEDA A -->
    <g transform="translate(375.22944 157.353749)scale(0.17 -0.17)">
     <defs>
      <path d="M 44.390625 34.1875 
Q 47.5625 33.109375 50.5625 29.59375 
Q 53.5625 26.078125 56.59375 19.921875 
L 66.609375 0 
L 56 0 
L 46.6875 18.703125 
Q 43.0625 26.03125 39.671875 28.421875 
Q 36.28125 30.8125 30.421875 30.8125 
L 19.671875 30.8125 
L 19.671875 0 
L 9.8125 0 
L 9.8125 72.90625 
L 32.078125 72.90625 
Q 44.578125 72.90625 50.734375 67.671875 
Q 56.890625 62.453125 56.890625 51.90625 
Q 56.890625 45.015625 53.6875 40.46875 
Q 50.484375 35.9375 44.390625 34.1875 
z
M 19.671875 64.796875 
L 19.671875 38.921875 
L 32.078125 38.921875 
Q 39.203125 38.921875 42.84375 42.21875 
Q 46.484375 45.515625 46.484375 51.90625 
Q 46.484375 58.296875 42.84375 61.546875 
Q 39.203125 64.796875 32.078125 64.796875 
z
" id="DejaVuSans-82"/>
      <path d="M 9.8125 72.90625 
L 55.90625 72.90625 
L 55.90625 64.59375 
L 19.671875 64.59375 
L 19.671875 43.015625 
L 54.390625 43.015625 
L 54.390625 34.71875 
L 19.671875 34.71875 
L 19.671875 8.296875 
L 56.78125 8.296875 
L 56.78125 0 
L 9.8125 0 
z
" id="DejaVuSans-69"/>
      <path d="M 19.671875 64.796875 
L 19.671875 8.109375 
L 31.59375 8.109375 
Q 46.6875 8.109375 53.6875 14.9375 
Q 60.6875 21.78125 60.6875 36.53125 
Q 60.6875 51.171875 53.6875 57.984375 
Q 46.6875 64.796875 31.59375 64.796875 
z
M 9.8125 72.90625 
L 30.078125 72.90625 
Q 51.265625 72.90625 61.171875 64.09375 
Q 71.09375 55.28125 71.09375 36.53125 
Q 71.09375 17.671875 61.125 8.828125 
Q 51.171875 0 30.078125 0 
L 9.8125 0 
z
" id="DejaVuSans-68"/>
     </defs>
     <use xlink:href="#DejaVuSans-82"/>
     <use x="69.482422" xlink:href="#DejaVuSans-77"/>
     <use x="155.761719" xlink:href="#DejaVuSans-45"/>
     <use x="191.845703" xlink:href="#DejaVuSans-77"/>
     <use x="278.125" xlink:href="#DejaVuSans-69"/>
     <use x="341.308594" xlink:href="#DejaVuSans-68"/>
     <use x="416.560547" xlink:href="#DejaVuSans-65"/>
     <use x="484.96875" xlink:href="#DejaVuSans-32"/>
     <use x="516.755859" xlink:href="#DejaVuSans-65"/>
    </g>
   </g>
   <g id="text_15">
    <!-- best 2016 -->
    <g transform="translate(375.22944 16.923809)scale(0.17 -0.17)">
     <defs>
      <path d="M 48.6875 27.296875 
Q 48.6875 37.203125 44.609375 42.84375 
Q 40.53125 48.484375 33.40625 48.484375 
Q 26.265625 48.484375 22.1875 42.84375 
Q 18.109375 37.203125 18.109375 27.296875 
Q 18.109375 17.390625 22.1875 11.75 
Q 26.265625 6.109375 33.40625 6.109375 
Q 40.53125 6.109375 44.609375 11.75 
Q 48.6875 17.390625 48.6875 27.296875 
z
M 18.109375 46.390625 
Q 20.953125 51.265625 25.265625 53.625 
Q 29.59375 56 35.59375 56 
Q 45.5625 56 51.78125 48.09375 
Q 58.015625 40.1875 58.015625 27.296875 
Q 58.015625 14.40625 51.78125 6.484375 
Q 45.5625 -1.421875 35.59375 -1.421875 
Q 29.59375 -1.421875 25.265625 0.953125 
Q 20.953125 3.328125 18.109375 8.203125 
L 18.109375 0 
L 9.078125 0 
L 9.078125 75.984375 
L 18.109375 75.984375 
z
" id="DejaVuSans-98"/>
     </defs>
     <use xlink:href="#DejaVuSans-98"/>
     <use x="63.476562" xlink:href="#DejaVuSans-101"/>
     <use x="125" xlink:href="#DejaVuSans-115"/>
     <use x="177.099609" xlink:href="#DejaVuSans-116"/>
     <use x="216.308594" xlink:href="#DejaVuSans-32"/>
     <use x="248.095703" xlink:href="#DejaVuSans-50"/>
     <use x="311.71875" xlink:href="#DejaVuSans-48"/>
     <use x="375.341797" xlink:href="#DejaVuSans-49"/>
     <use x="438.964844" xlink:href="#DejaVuSans-54"/>
    </g>
   </g>
   <g id="text_16">
    <!-- bbob-biobj f48, f49, f51, f52, 40-D -->
    <g transform="translate(60.41088 14.161286)scale(0.102 -0.102)">
     <defs>
      <path d="M 9.421875 54.6875 
L 18.40625 54.6875 
L 18.40625 -0.984375 
Q 18.40625 -11.421875 14.421875 -16.109375 
Q 10.453125 -20.796875 1.609375 -20.796875 
L -1.8125 -20.796875 
L -1.8125 -13.1875 
L 0.59375 -13.1875 
Q 5.71875 -13.1875 7.5625 -10.8125 
Q 9.421875 -8.453125 9.421875 -0.984375 
z
M 9.421875 75.984375 
L 18.40625 75.984375 
L 18.40625 64.59375 
L 9.421875 64.59375 
z
" id="DejaVuSans-106"/>
      <path d="M 10.984375 1.515625 
L 10.984375 10.5 
Q 14.703125 8.734375 18.5 7.8125 
Q 22.3125 6.890625 25.984375 6.890625 
Q 35.75 6.890625 40.890625 13.453125 
Q 46.046875 20.015625 46.78125 33.40625 
Q 43.953125 29.203125 39.59375 26.953125 
Q 35.25 24.703125 29.984375 24.703125 
Q 19.046875 24.703125 12.671875 31.3125 
Q 6.296875 37.9375 6.296875 49.421875 
Q 6.296875 60.640625 12.9375 67.421875 
Q 19.578125 74.21875 30.609375 74.21875 
Q 43.265625 74.21875 49.921875 64.515625 
Q 56.59375 54.828125 56.59375 36.375 
Q 56.59375 19.140625 48.40625 8.859375 
Q 40.234375 -1.421875 26.421875 -1.421875 
Q 22.703125 -1.421875 18.890625 -0.6875 
Q 15.09375 0.046875 10.984375 1.515625 
z
M 30.609375 32.421875 
Q 37.25 32.421875 41.125 36.953125 
Q 45.015625 41.5 45.015625 49.421875 
Q 45.015625 57.28125 41.125 61.84375 
Q 37.25 66.40625 30.609375 66.40625 
Q 23.96875 66.40625 20.09375 61.84375 
Q 16.21875 57.28125 16.21875 49.421875 
Q 16.21875 41.5 20.09375 36.953125 
Q 23.96875 32.421875 30.609375 32.421875 
z
" id="DejaVuSans-57"/>
      <path d="M 10.796875 72.90625 
L 49.515625 72.90625 
L 49.515625 64.59375 
L 19.828125 64.59375 
L 19.828125 46.734375 
Q 21.96875 47.46875 24.109375 47.828125 
Q 26.265625 48.1875 28.421875 48.1875 
Q 40.625 48.1875 47.75 41.5 
Q 54.890625 34.8125 54.890625 23.390625 
Q 54.890625 11.625 47.5625 5.09375 
Q 40.234375 -1.421875 26.90625 -1.421875 
Q 22.3125 -1.421875 17.546875 -0.640625 
Q 12.796875 0.140625 7.71875 1.703125 
L 7.71875 11.625 
Q 12.109375 9.234375 16.796875 8.0625 
Q 21.484375 6.890625 26.703125 6.890625 
Q 35.15625 6.890625 40.078125 11.328125 
Q 45.015625 15.765625 45.015625 23.390625 
Q 45.015625 31 40.078125 35.4375 
Q 35.15625 39.890625 26.703125 39.890625 
Q 22.75 39.890625 18.8125 39.015625 
Q 14.890625 38.140625 10.796875 36.28125 
z
" id="DejaVuSans-53"/>
     </defs>
     <use xlink:href="#DejaVuSans-98"/>
     <use x="63.476562" xlink:href="#DejaVuSans-98"/>
     <use x="126.953125" xlink:href="#DejaVuSans-111"/>
     <use x="188.134766" xlink:href="#DejaVuSans-98"/>
     <use x="251.611328" xlink:href="#DejaVuSans-45"/>
     <use x="287.695312" xlink:href="#DejaVuSans-98"/>
     <use x="351.171875" xlink:href="#DejaVuSans-105"/>
     <use x="378.955078" xlink:href="#DejaVuSans-111"/>
     <use x="440.136719" xlink:href="#DejaVuSans-98"/>
     <use x="503.613281" xlink:href="#DejaVuSans-106"/>
     <use x="531.396484" xlink:href="#DejaVuSans-32"/>
     <use x="563.183594" xlink:href="#DejaVuSans-102"/>
     <use x="598.388672" xlink:href="#DejaVuSans-52"/>
     <use x="662.011719" xlink:href="#DejaVuSans-56"/>
     <use x="725.634766" xlink:href="#DejaVuSans-44"/>
     <use x="757.421875" xlink:href="#DejaVuSans-32"/>
     <use x="789.208984" xlink:href="#DejaVuSans-102"/>
     <use x="824.414062" xlink:href="#DejaVuSans-52"/>
     <use x="888.037109" xlink:href="#DejaVuSans-57"/>
     <use x="951.660156" xlink:href="#DejaVuSans-44"/>
     <use x="983.447266" xlink:href="#DejaVuSans-32"/>
     <use x="1015.234375" xlink:href="#DejaVuSans-102"/>
     <use x="1050.439453" xlink:href="#DejaVuSans-53"/>
     <use x="1114.0625" xlink:href="#DejaVuSans-49"/>
     <use x="1177.685547" xlink:href="#DejaVuSans-44"/>
     <use x="1209.472656" xlink:href="#DejaVuSans-32"/>
     <use x="1241.259766" xlink:href="#DejaVuSans-102"/>
     <use x="1276.464844" xlink:href="#DejaVuSans-53"/>
     <use x="1340.087891" xlink:href="#DejaVuSans-50"/>
     <use x="1403.710938" xlink:href="#DejaVuSans-44"/>
     <use x="1435.498047" xlink:href="#DejaVuSans-32"/>
     <use x="1467.285156" xlink:href="#DejaVuSans-52"/>
     <use x="1530.908203" xlink:href="#DejaVuSans-48"/>
     <use x="1594.53125" xlink:href="#DejaVuSans-45"/>
     <use x="1630.615234" xlink:href="#DejaVuSans-68"/>
    </g>
    <!-- 58 targets: 1..-1.0e-4 -->
    <g transform="translate(60.41088 25.583055)scale(0.102 -0.102)">
     <defs>
      <path d="M 11.71875 12.40625 
L 22.015625 12.40625 
L 22.015625 0 
L 11.71875 0 
z
M 11.71875 51.703125 
L 22.015625 51.703125 
L 22.015625 39.3125 
L 11.71875 39.3125 
z
" id="DejaVuSans-58"/>
     </defs>
     <use xlink:href="#DejaVuSans-53"/>
     <use x="63.623047" xlink:href="#DejaVuSans-56"/>
     <use x="127.246094" xlink:href="#DejaVuSans-32"/>
     <use x="159.033203" xlink:href="#DejaVuSans-116"/>
     <use x="198.242188" xlink:href="#DejaVuSans-97"/>
     <use x="259.521484" xlink:href="#DejaVuSans-114"/>
     <use x="298.884766" xlink:href="#DejaVuSans-103"/>
     <use x="362.361328" xlink:href="#DejaVuSans-101"/>
     <use x="423.884766" xlink:href="#DejaVuSans-116"/>
     <use x="463.09375" xlink:href="#DejaVuSans-115"/>
     <use x="515.193359" xlink:href="#DejaVuSans-58"/>
     <use x="548.884766" xlink:href="#DejaVuSans-32"/>
     <use x="580.671875" xlink:href="#DejaVuSans-49"/>
     <use x="644.294922" xlink:href="#DejaVuSans-46"/>
     <use x="676.082031" xlink:href="#DejaVuSans-46"/>
     <use x="707.869141" xlink:href="#DejaVuSans-45"/>
     <use x="743.953125" xlink:href="#DejaVuSans-49"/>
     <use x="807.576172" xlink:href="#DejaVuSans-46"/>
     <use x="839.363281" xlink:href="#DejaVuSans-48"/>
     <use x="902.986328" xlink:href="#DejaVuSans-101"/>
     <use x="964.509766" xlink:href="#DejaVuSans-45"/>
     <use x="1000.59375" xlink:href="#DejaVuSans-52"/>
    </g>
    <!-- 10 instances -->
    <g transform="translate(60.41088 37.004824)scale(0.102 -0.102)">
     <use xlink:href="#DejaVuSans-49"/>
     <use x="63.623047" xlink:href="#DejaVuSans-48"/>
     <use x="127.246094" xlink:href="#DejaVuSans-32"/>
     <use x="159.033203" xlink:href="#DejaVuSans-105"/>
     <use x="186.816406" xlink:href="#DejaVuSans-110"/>
     <use x="250.195312" xlink:href="#DejaVuSans-115"/>
     <use x="302.294922" xlink:href="#DejaVuSans-116"/>
     <use x="341.503906" xlink:href="#DejaVuSans-97"/>
     <use x="402.783203" xlink:href="#DejaVuSans-110"/>
     <use x="466.162109" xlink:href="#DejaVuSans-99"/>
     <use x="521.142578" xlink:href="#DejaVuSans-101"/>
     <use x="582.666016" xlink:href="#DejaVuSans-115"/>
    </g>
   </g>
   <g id="text_17">
    <!-- v2.4, hv-hash=ff0e71e8cd978373 -->
    <g style="fill:#808080;" transform="translate(112.648687 293.909432)scale(0.1 -0.1)">
     <defs>
      <path d="M 54.890625 33.015625 
L 54.890625 0 
L 45.90625 0 
L 45.90625 32.71875 
Q 45.90625 40.484375 42.875 44.328125 
Q 39.84375 48.1875 33.796875 48.1875 
Q 26.515625 48.1875 22.3125 43.546875 
Q 18.109375 38.921875 18.109375 30.90625 
L 18.109375 0 
L 9.078125 0 
L 9.078125 75.984375 
L 18.109375 75.984375 
L 18.109375 46.1875 
Q 21.34375 51.125 25.703125 53.5625 
Q 30.078125 56 35.796875 56 
Q 45.21875 56 50.046875 50.171875 
Q 54.890625 44.34375 54.890625 33.015625 
z
" id="DejaVuSans-104"/>
      <path d="M 10.59375 45.40625 
L 73.1875 45.40625 
L 73.1875 37.203125 
L 10.59375 37.203125 
z
M 10.59375 25.484375 
L 73.1875 25.484375 
L 73.1875 17.1875 
L 10.59375 17.1875 
z
" id="DejaVuSans-61"/>
      <path d="M 8.203125 72.90625 
L 55.078125 72.90625 
L 55.078125 68.703125 
L 28.609375 0 
L 18.3125 0 
L 43.21875 64.59375 
L 8.203125 64.59375 
z
" id="DejaVuSans-55"/>
      <path d="M 40.578125 39.3125 
Q 47.65625 37.796875 51.625 33 
Q 55.609375 28.21875 55.609375 21.1875 
Q 55.609375 10.40625 48.1875 4.484375 
Q 40.765625 -1.421875 27.09375 -1.421875 
Q 22.515625 -1.421875 17.65625 -0.515625 
Q 12.796875 0.390625 7.625 2.203125 
L 7.625 11.71875 
Q 11.71875 9.328125 16.59375 8.109375 
Q 21.484375 6.890625 26.8125 6.890625 
Q 36.078125 6.890625 40.9375 10.546875 
Q 45.796875 14.203125 45.796875 21.1875 
Q 45.796875 27.640625 41.28125 31.265625 
Q 36.765625 34.90625 28.71875 34.90625 
L 20.21875 34.90625 
L 20.21875 43.015625 
L 29.109375 43.015625 
Q 36.375 43.015625 40.234375 45.921875 
Q 44.09375 48.828125 44.09375 54.296875 
Q 44.09375 59.90625 40.109375 62.90625 
Q 36.140625 65.921875 28.71875 65.921875 
Q 24.65625 65.921875 20.015625 65.03125 
Q 15.375 64.15625 9.8125 62.3125 
L 9.8125 71.09375 
Q 15.4375 72.65625 20.34375 73.4375 
Q 25.25 74.21875 29.59375 74.21875 
Q 40.828125 74.21875 47.359375 69.109375 
Q 53.90625 64.015625 53.90625 55.328125 
Q 53.90625 49.265625 50.4375 45.09375 
Q 46.96875 40.921875 40.578125 39.3125 
z
" id="DejaVuSans-51"/>
     </defs>
     <use xlink:href="#DejaVuSans-118"/>
     <use x="59.179688" xlink:href="#DejaVuSans-50"/>
     <use x="122.802734" xlink:href="#DejaVuSans-46"/>
     <use x="154.589844" xlink:href="#DejaVuSans-52"/>
     <use x="218.212891" xlink:href="#DejaVuSans-44"/>
     <use x="250" xlink:href="#DejaVuSans-32"/>
     <use x="281.787109" xlink:href="#DejaVuSans-104"/>
     <use x="345.166016" xlink:href="#DejaVuSans-118"/>
     <use x="401.720703" xlink:href="#DejaVuSans-45"/>
     <use x="437.804688" xlink:href="#DejaVuSans-104"/>
     <use x="501.183594" xlink:href="#DejaVuSans-97"/>
     <use x="562.462891" xlink:href="#DejaVuSans-115"/>
     <use x="614.5625" xlink:href="#DejaVuSans-104"/>
     <use x="677.941406" xlink:href="#DejaVuSans-61"/>
     <use x="761.730469" xlink:href="#DejaVuSans-102"/>
     <use x="796.935547" xlink:href="#DejaVuSans-102"/>
     <use x="832.140625" xlink:href="#DejaVuSans-48"/>
     <use x="895.763672" xlink:href="#DejaVuSans-101"/>
     <use x="957.287109" xlink:href="#DejaVuSans-55"/>
     <use x="1020.910156" xlink:href="#DejaVuSans-49"/>
     <use x="1084.533203" xlink:href="#DejaVuSans-101"/>
     <use x="1146.056641" xlink:href="#DejaVuSans-56"/>
     <use x="1209.679688" xlink:href="#DejaVuSans-99"/>
     <use x="1264.660156" xlink:href="#DejaVuSans-100"/>
     <use x="1328.136719" xlink:href="#DejaVuSans-57"/>
     <use x="1391.759766" xlink:href="#DejaVuSans-55"/>
     <use x="1455.382812" xlink:href="#DejaVuSans-56"/>
     <use x="1519.005859" xlink:href="#DejaVuSans-51"/>
     <use x="1582.628906" xlink:href="#DejaVuSans-55"/>
     <use x="1646.251953" xlink:href="#DejaVuSans-51"/>
    </g>
   </g>
  </g>
 </g>
 <defs>
  <clipPath id="pae81580541">
   <rect height="295.488" width="281.088" x="57.6" y="3.456"/>
  </clipPath>
 </defs>
</svg>
