<?xml version="1.0" encoding="utf-8" standalone="no"?>
<!DOCTYPE svg PUBLIC "-//W3C//DTD SVG 1.1//EN"
  "http://www.w3.org/Graphics/SVG/1.1/DTD/svg11.dtd">
<!-- Created with matplotlib (https://matplotlib.org/) -->
<svg height="345.6pt" version="1.1" viewBox="0 0 460.8 345.6" width="460.8pt" xmlns="http://www.w3.org/2000/svg" xmlns:xlink="http://www.w3.org/1999/xlink">
 <metadata>
  <rdf:RDF xmlns:cc="http://creativecommons.org/ns#" xmlns:dc="http://purl.org/dc/elements/1.1/" xmlns:rdf="http://www.w3.org/1999/02/22-rdf-syntax-ns#">
   <cc:Work>
    <dc:type rdf:resource="http://purl.org/dc/dcmitype/StillImage"/>
    <dc:date>2021-03-30T18:26:33.230644</dc:date>
    <dc:format>image/svg+xml</dc:format>
    <dc:creator>
     <cc:Agent>
      <dc:title>Matplotlib v3.3.4, https://matplotlib.org/</dc:title>
     </cc:Agent>
    </dc:creator>
   </cc:Work>
  </rdf:RDF>
 </metadata>
 <defs>
  <style type="text/css">*{stroke-linecap:butt;stroke-linejoin:round;}</style>
 </defs>
 <g id="figure_1">
  <g id="patch_1">
   <path d="M 0 345.6 
L 460.8 345.6 
L 460.8 0 
L 0 0 
z
" style="fill:#ffffff;"/>
  </g>
  <g id="axes_1">
   <g id="patch_2">
    <path d="M 57.6 298.944 
L 338.688 298.944 
L 338.688 3.456 
L 57.6 3.456 
z
" style="fill:#ffffff;"/>
   </g>
   <g id="line2d_1">
    <path d="M -1 297.262607 
L 12.427603 297.262607 
L 12.427603 295.581214 
L 29.53256 295.581214 
L 29.53256 293.899821 
L 69.687988 293.899821 
L 69.687988 290.537035 
L 118.430642 290.537035 
L 118.430642 287.174249 
L 132.577122 287.174249 
L 132.577122 283.811463 
L 139.013186 283.811463 
L 139.013186 280.448677 
L 140.348205 280.448677 
L 140.348205 277.085891 
L 141.958572 277.085891 
L 141.958572 275.404498 
L 142.456092 275.404498 
L 142.456092 273.723105 
L 143.518281 273.723105 
L 143.518281 268.678927 
L 145.0486 268.678927 
L 145.0486 265.316141 
L 146.442037 265.316141 
L 146.442037 260.271962 
L 146.54332 260.271962 
L 146.54332 258.590569 
L 146.968625 258.590569 
L 146.968625 255.227783 
L 147.96658 255.227783 
L 147.96658 251.864997 
L 148.52102 251.864997 
L 148.52102 250.183604 
L 149.418147 250.183604 
L 149.418147 245.139425 
L 150.120495 245.139425 
L 150.120495 240.095246 
L 151.00267 240.095246 
L 151.00267 236.73246 
L 151.930393 236.73246 
L 151.930393 233.369674 
L 152.839053 233.369674 
L 152.839053 230.006888 
L 153.279836 230.006888 
L 153.279836 226.644102 
L 153.364515 226.644102 
L 153.364515 224.962709 
L 154.998366 224.962709 
L 154.998366 221.599924 
L 155.324253 221.599924 
L 155.324253 218.237138 
L 156.928325 218.237138 
L 156.928325 213.192959 
L 158.862313 213.192959 
L 158.862313 211.511566 
L 159.244925 211.511566 
L 159.244925 208.14878 
L 164.622474 208.14878 
L 164.622474 203.104601 
L 176.668945 203.104601 
L 176.668945 199.741815 
L 181.074241 199.741815 
L 181.074241 198.060422 
L 204.551379 198.060422 
L 204.551379 196.379029 
L 215.342511 196.379029 
L 215.342511 191.33485 
L 223.944104 191.33485 
L 223.944104 187.972064 
L 225.367128 187.972064 
L 225.367128 184.609278 
L 226.008016 184.609278 
L 226.008016 181.246492 
L 237.532826 181.246492 
L 237.532826 176.202313 
L 244.529783 176.202313 
L 244.529783 174.52092 
L 250.386106 174.52092 
L 250.386106 172.839527 
L 252.358729 172.839527 
L 252.358729 169.476742 
L 260.224524 169.476742 
L 260.224524 166.113956 
L 260.521833 166.113956 
L 260.521833 161.069777 
L 263.955313 161.069777 
L 263.955313 156.025598 
L 276.434089 156.025598 
L 276.434089 154.344205 
L 286.140504 154.344205 
L 286.140504 150.981419 
L 297.667602 150.981419 
L 297.667602 145.93724 
L 297.866941 145.93724 
L 297.866941 142.574454 
L 298.257013 142.574454 
L 298.257013 139.211668 
L 338.688 139.211668 
" style="fill:none;stroke:#f5deb3;stroke-linecap:square;stroke-width:4;"/>
   </g>
   <g id="line2d_2">
    <defs>
     <path d="M -0 7.778175 
L 7.778175 0 
L 0 -7.778175 
L -7.778175 -0 
z
" id="m9357a2f8e6" style="stroke:#f5deb3;stroke-linejoin:miter;stroke-width:1.5;"/>
    </defs>
    <g>
     <use style="fill:#f5deb3;stroke:#f5deb3;stroke-linejoin:miter;stroke-width:1.5;" x="146.54332" xlink:href="#m9357a2f8e6" y="260.271962"/>
     <use style="fill:#f5deb3;stroke:#f5deb3;stroke-linejoin:miter;stroke-width:1.5;" x="176.668945" xlink:href="#m9357a2f8e6" y="199.741815"/>
     <use style="fill:#f5deb3;stroke:#f5deb3;stroke-linejoin:miter;stroke-width:1.5;" x="260.521833" xlink:href="#m9357a2f8e6" y="161.069777"/>
     <use style="fill:#f5deb3;stroke:#f5deb3;stroke-linejoin:miter;stroke-width:1.5;" x="298.257013" xlink:href="#m9357a2f8e6" y="139.211668"/>
     <use style="fill:#f5deb3;stroke:#f5deb3;stroke-linejoin:miter;stroke-width:1.5;" x="338.688" xlink:href="#m9357a2f8e6" y="139.211668"/>
    </g>
   </g>
   <g id="line2d_3">
    <path style="fill:none;stroke:#f5deb3;stroke-linecap:square;stroke-width:4;"/>
    <g/>
   </g>
   <g id="line2d_4">
    <path d="M 338.688 139.211668 
L 369.60768 12.232871 
" style="fill:none;stroke:#f5deb3;stroke-linecap:square;stroke-width:4;"/>
    <g>
     <use style="fill:#f5deb3;stroke:#f5deb3;stroke-linejoin:miter;stroke-width:1.5;" x="338.688" xlink:href="#m9357a2f8e6" y="139.211668"/>
     <use style="fill:#f5deb3;stroke:#f5deb3;stroke-linejoin:miter;stroke-width:1.5;" x="369.60768" xlink:href="#m9357a2f8e6" y="12.232871"/>
    </g>
   </g>
   <g id="matplotlib.axis_1">
    <g id="xtick_1">
     <g id="line2d_5">
      <path clip-path="url(#p649159deb3)" d="M 57.6 298.944 
L 57.6 3.456 
" style="fill:none;stroke:#b0b0b0;stroke-linecap:square;stroke-width:0.8;"/>
     </g>
     <g id="line2d_6">
      <defs>
       <path d="M 0 0 
L 0 3.5 
" id="m42486e7228" style="stroke:#000000;stroke-width:0.8;"/>
      </defs>
      <g>
       <use style="stroke:#000000;stroke-width:0.8;" x="57.6" xlink:href="#m42486e7228" y="298.944"/>
      </g>
     </g>
     <g id="text_1">
      <!-- 0 -->
      <g transform="translate(51.2375 321.140875)scale(0.2 -0.2)">
       <defs>
        <path d="M 31.78125 66.40625 
Q 24.171875 66.40625 20.328125 58.90625 
Q 16.5 51.421875 16.5 36.375 
Q 16.5 21.390625 20.328125 13.890625 
Q 24.171875 6.390625 31.78125 6.390625 
Q 39.453125 6.390625 43.28125 13.890625 
Q 47.125 21.390625 47.125 36.375 
Q 47.125 51.421875 43.28125 58.90625 
Q 39.453125 66.40625 31.78125 66.40625 
z
M 31.78125 74.21875 
Q 44.046875 74.21875 50.515625 64.515625 
Q 56.984375 54.828125 56.984375 36.375 
Q 56.984375 17.96875 50.515625 8.265625 
Q 44.046875 -1.421875 31.78125 -1.421875 
Q 19.53125 -1.421875 13.0625 8.265625 
Q 6.59375 17.96875 6.59375 36.375 
Q 6.59375 54.828125 13.0625 64.515625 
Q 19.53125 74.21875 31.78125 74.21875 
z
" id="DejaVuSans-48"/>
       </defs>
       <use xlink:href="#DejaVuSans-48"/>
      </g>
     </g>
    </g>
    <g id="xtick_2">
     <g id="line2d_7">
      <path clip-path="url(#p649159deb3)" d="M 137.910857 298.944 
L 137.910857 3.456 
" style="fill:none;stroke:#b0b0b0;stroke-linecap:square;stroke-width:0.8;"/>
     </g>
     <g id="line2d_8">
      <g>
       <use style="stroke:#000000;stroke-width:0.8;" x="137.910857" xlink:href="#m42486e7228" y="298.944"/>
      </g>
     </g>
     <g id="text_2">
      <!-- 2 -->
      <g transform="translate(131.548357 321.140875)scale(0.2 -0.2)">
       <defs>
        <path d="M 19.1875 8.296875 
L 53.609375 8.296875 
L 53.609375 0 
L 7.328125 0 
L 7.328125 8.296875 
Q 12.9375 14.109375 22.625 23.890625 
Q 32.328125 33.6875 34.8125 36.53125 
Q 39.546875 41.84375 41.421875 45.53125 
Q 43.3125 49.21875 43.3125 52.78125 
Q 43.3125 58.59375 39.234375 62.25 
Q 35.15625 65.921875 28.609375 65.921875 
Q 23.96875 65.921875 18.8125 64.3125 
Q 13.671875 62.703125 7.8125 59.421875 
L 7.8125 69.390625 
Q 13.765625 71.78125 18.9375 73 
Q 24.125 74.21875 28.421875 74.21875 
Q 39.75 74.21875 46.484375 68.546875 
Q 53.21875 62.890625 53.21875 53.421875 
Q 53.21875 48.921875 51.53125 44.890625 
Q 49.859375 40.875 45.40625 35.40625 
Q 44.1875 33.984375 37.640625 27.21875 
Q 31.109375 20.453125 19.1875 8.296875 
z
" id="DejaVuSans-50"/>
       </defs>
       <use xlink:href="#DejaVuSans-50"/>
      </g>
     </g>
    </g>
    <g id="xtick_3">
     <g id="line2d_9">
      <path clip-path="url(#p649159deb3)" d="M 218.221714 298.944 
L 218.221714 3.456 
" style="fill:none;stroke:#b0b0b0;stroke-linecap:square;stroke-width:0.8;"/>
     </g>
     <g id="line2d_10">
      <g>
       <use style="stroke:#000000;stroke-width:0.8;" x="218.221714" xlink:href="#m42486e7228" y="298.944"/>
      </g>
     </g>
     <g id="text_3">
      <!-- 4 -->
      <g transform="translate(211.859214 321.140875)scale(0.2 -0.2)">
       <defs>
        <path d="M 37.796875 64.3125 
L 12.890625 25.390625 
L 37.796875 25.390625 
z
M 35.203125 72.90625 
L 47.609375 72.90625 
L 47.609375 25.390625 
L 58.015625 25.390625 
L 58.015625 17.1875 
L 47.609375 17.1875 
L 47.609375 0 
L 37.796875 0 
L 37.796875 17.1875 
L 4.890625 17.1875 
L 4.890625 26.703125 
z
" id="DejaVuSans-52"/>
       </defs>
       <use xlink:href="#DejaVuSans-52"/>
      </g>
     </g>
    </g>
    <g id="xtick_4">
     <g id="line2d_11">
      <path clip-path="url(#p649159deb3)" d="M 298.532571 298.944 
L 298.532571 3.456 
" style="fill:none;stroke:#b0b0b0;stroke-linecap:square;stroke-width:0.8;"/>
     </g>
     <g id="line2d_12">
      <g>
       <use style="stroke:#000000;stroke-width:0.8;" x="298.532571" xlink:href="#m42486e7228" y="298.944"/>
      </g>
     </g>
     <g id="text_4">
      <!-- 6 -->
      <g transform="translate(292.170071 321.140875)scale(0.2 -0.2)">
       <defs>
        <path d="M 33.015625 40.375 
Q 26.375 40.375 22.484375 35.828125 
Q 18.609375 31.296875 18.609375 23.390625 
Q 18.609375 15.53125 22.484375 10.953125 
Q 26.375 6.390625 33.015625 6.390625 
Q 39.65625 6.390625 43.53125 10.953125 
Q 47.40625 15.53125 47.40625 23.390625 
Q 47.40625 31.296875 43.53125 35.828125 
Q 39.65625 40.375 33.015625 40.375 
z
M 52.59375 71.296875 
L 52.59375 62.3125 
Q 48.875 64.0625 45.09375 64.984375 
Q 41.3125 65.921875 37.59375 65.921875 
Q 27.828125 65.921875 22.671875 59.328125 
Q 17.53125 52.734375 16.796875 39.40625 
Q 19.671875 43.65625 24.015625 45.921875 
Q 28.375 48.1875 33.59375 48.1875 
Q 44.578125 48.1875 50.953125 41.515625 
Q 57.328125 34.859375 57.328125 23.390625 
Q 57.328125 12.15625 50.6875 5.359375 
Q 44.046875 -1.421875 33.015625 -1.421875 
Q 20.359375 -1.421875 13.671875 8.265625 
Q 6.984375 17.96875 6.984375 36.375 
Q 6.984375 53.65625 15.1875 63.9375 
Q 23.390625 74.21875 37.203125 74.21875 
Q 40.921875 74.21875 44.703125 73.484375 
Q 48.484375 72.75 52.59375 71.296875 
z
" id="DejaVuSans-54"/>
       </defs>
       <use xlink:href="#DejaVuSans-54"/>
      </g>
     </g>
    </g>
    <g id="xtick_5">
     <g id="line2d_13">
      <path clip-path="url(#p649159deb3)" d="M 97.755429 298.944 
L 97.755429 3.456 
" style="fill:none;stroke:#b0b0b0;stroke-linecap:square;stroke-width:0.8;"/>
     </g>
     <g id="line2d_14">
      <defs>
       <path d="M 0 0 
L 0 2 
" id="macff73c37b" style="stroke:#000000;stroke-width:0.6;"/>
      </defs>
      <g>
       <use style="stroke:#000000;stroke-width:0.6;" x="97.755429" xlink:href="#macff73c37b" y="298.944"/>
      </g>
     </g>
    </g>
    <g id="xtick_6">
     <g id="line2d_15">
      <path clip-path="url(#p649159deb3)" d="M 178.066286 298.944 
L 178.066286 3.456 
" style="fill:none;stroke:#b0b0b0;stroke-linecap:square;stroke-width:0.8;"/>
     </g>
     <g id="line2d_16">
      <g>
       <use style="stroke:#000000;stroke-width:0.6;" x="178.066286" xlink:href="#macff73c37b" y="298.944"/>
      </g>
     </g>
    </g>
    <g id="xtick_7">
     <g id="line2d_17">
      <path clip-path="url(#p649159deb3)" d="M 258.377143 298.944 
L 258.377143 3.456 
" style="fill:none;stroke:#b0b0b0;stroke-linecap:square;stroke-width:0.8;"/>
     </g>
     <g id="line2d_18">
      <g>
       <use style="stroke:#000000;stroke-width:0.6;" x="258.377143" xlink:href="#macff73c37b" y="298.944"/>
      </g>
     </g>
    </g>
    <g id="xtick_8">
     <g id="line2d_19">
      <path clip-path="url(#p649159deb3)" d="M 338.688 298.944 
L 338.688 3.456 
" style="fill:none;stroke:#b0b0b0;stroke-linecap:square;stroke-width:0.8;"/>
     </g>
     <g id="line2d_20">
      <g>
       <use style="stroke:#000000;stroke-width:0.6;" x="338.688" xlink:href="#macff73c37b" y="298.944"/>
      </g>
     </g>
    </g>
    <g id="text_5">
     <!-- log10(# f-evals / dimension) -->
     <g transform="translate(77.764078 342.217594)scale(0.17 -0.17)">
      <defs>
       <path d="M 9.421875 75.984375 
L 18.40625 75.984375 
L 18.40625 0 
L 9.421875 0 
z
" id="DejaVuSans-108"/>
       <path d="M 30.609375 48.390625 
Q 23.390625 48.390625 19.1875 42.75 
Q 14.984375 37.109375 14.984375 27.296875 
Q 14.984375 17.484375 19.15625 11.84375 
Q 23.34375 6.203125 30.609375 6.203125 
Q 37.796875 6.203125 41.984375 11.859375 
Q 46.1875 17.53125 46.1875 27.296875 
Q 46.1875 37.015625 41.984375 42.703125 
Q 37.796875 48.390625 30.609375 48.390625 
z
M 30.609375 56 
Q 42.328125 56 49.015625 48.375 
Q 55.71875 40.765625 55.71875 27.296875 
Q 55.71875 13.875 49.015625 6.21875 
Q 42.328125 -1.421875 30.609375 -1.421875 
Q 18.84375 -1.421875 12.171875 6.21875 
Q 5.515625 13.875 5.515625 27.296875 
Q 5.515625 40.765625 12.171875 48.375 
Q 18.84375 56 30.609375 56 
z
" id="DejaVuSans-111"/>
       <path d="M 45.40625 27.984375 
Q 45.40625 37.75 41.375 43.109375 
Q 37.359375 48.484375 30.078125 48.484375 
Q 22.859375 48.484375 18.828125 43.109375 
Q 14.796875 37.75 14.796875 27.984375 
Q 14.796875 18.265625 18.828125 12.890625 
Q 22.859375 7.515625 30.078125 7.515625 
Q 37.359375 7.515625 41.375 12.890625 
Q 45.40625 18.265625 45.40625 27.984375 
z
M 54.390625 6.78125 
Q 54.390625 -7.171875 48.1875 -13.984375 
Q 42 -20.796875 29.203125 -20.796875 
Q 24.46875 -20.796875 20.265625 -20.09375 
Q 16.0625 -19.390625 12.109375 -17.921875 
L 12.109375 -9.1875 
Q 16.0625 -11.328125 19.921875 -12.34375 
Q 23.78125 -13.375 27.78125 -13.375 
Q 36.625 -13.375 41.015625 -8.765625 
Q 45.40625 -4.15625 45.40625 5.171875 
L 45.40625 9.625 
Q 42.625 4.78125 38.28125 2.390625 
Q 33.9375 0 27.875 0 
Q 17.828125 0 11.671875 7.65625 
Q 5.515625 15.328125 5.515625 27.984375 
Q 5.515625 40.671875 11.671875 48.328125 
Q 17.828125 56 27.875 56 
Q 33.9375 56 38.28125 53.609375 
Q 42.625 51.21875 45.40625 46.390625 
L 45.40625 54.6875 
L 54.390625 54.6875 
z
" id="DejaVuSans-103"/>
       <path d="M 12.40625 8.296875 
L 28.515625 8.296875 
L 28.515625 63.921875 
L 10.984375 60.40625 
L 10.984375 69.390625 
L 28.421875 72.90625 
L 38.28125 72.90625 
L 38.28125 8.296875 
L 54.390625 8.296875 
L 54.390625 0 
L 12.40625 0 
z
" id="DejaVuSans-49"/>
       <path d="M 31 75.875 
Q 24.46875 64.65625 21.28125 53.65625 
Q 18.109375 42.671875 18.109375 31.390625 
Q 18.109375 20.125 21.3125 9.0625 
Q 24.515625 -2 31 -13.1875 
L 23.1875 -13.1875 
Q 15.875 -1.703125 12.234375 9.375 
Q 8.59375 20.453125 8.59375 31.390625 
Q 8.59375 42.28125 12.203125 53.3125 
Q 15.828125 64.359375 23.1875 75.875 
z
" id="DejaVuSans-40"/>
       <path d="M 51.125 44 
L 36.921875 44 
L 32.8125 27.6875 
L 47.125 27.6875 
z
M 43.796875 71.78125 
L 38.71875 51.515625 
L 52.984375 51.515625 
L 58.109375 71.78125 
L 65.921875 71.78125 
L 60.890625 51.515625 
L 76.125 51.515625 
L 76.125 44 
L 58.984375 44 
L 54.984375 27.6875 
L 70.515625 27.6875 
L 70.515625 20.21875 
L 53.078125 20.21875 
L 48 0 
L 40.1875 0 
L 45.21875 20.21875 
L 30.90625 20.21875 
L 25.875 0 
L 18.015625 0 
L 23.09375 20.21875 
L 7.71875 20.21875 
L 7.71875 27.6875 
L 24.90625 27.6875 
L 29 44 
L 13.28125 44 
L 13.28125 51.515625 
L 30.90625 51.515625 
L 35.890625 71.78125 
z
" id="DejaVuSans-35"/>
       <path id="DejaVuSans-32"/>
       <path d="M 37.109375 75.984375 
L 37.109375 68.5 
L 28.515625 68.5 
Q 23.6875 68.5 21.796875 66.546875 
Q 19.921875 64.59375 19.921875 59.515625 
L 19.921875 54.6875 
L 34.71875 54.6875 
L 34.71875 47.703125 
L 19.921875 47.703125 
L 19.921875 0 
L 10.890625 0 
L 10.890625 47.703125 
L 2.296875 47.703125 
L 2.296875 54.6875 
L 10.890625 54.6875 
L 10.890625 58.5 
Q 10.890625 67.625 15.140625 71.796875 
Q 19.390625 75.984375 28.609375 75.984375 
z
" id="DejaVuSans-102"/>
       <path d="M 4.890625 31.390625 
L 31.203125 31.390625 
L 31.203125 23.390625 
L 4.890625 23.390625 
z
" id="DejaVuSans-45"/>
       <path d="M 56.203125 29.59375 
L 56.203125 25.203125 
L 14.890625 25.203125 
Q 15.484375 15.921875 20.484375 11.0625 
Q 25.484375 6.203125 34.421875 6.203125 
Q 39.59375 6.203125 44.453125 7.46875 
Q 49.3125 8.734375 54.109375 11.28125 
L 54.109375 2.78125 
Q 49.265625 0.734375 44.1875 -0.34375 
Q 39.109375 -1.421875 33.890625 -1.421875 
Q 20.796875 -1.421875 13.15625 6.1875 
Q 5.515625 13.8125 5.515625 26.8125 
Q 5.515625 40.234375 12.765625 48.109375 
Q 20.015625 56 32.328125 56 
Q 43.359375 56 49.78125 48.890625 
Q 56.203125 41.796875 56.203125 29.59375 
z
M 47.21875 32.234375 
Q 47.125 39.59375 43.09375 43.984375 
Q 39.0625 48.390625 32.421875 48.390625 
Q 24.90625 48.390625 20.390625 44.140625 
Q 15.875 39.890625 15.1875 32.171875 
z
" id="DejaVuSans-101"/>
       <path d="M 2.984375 54.6875 
L 12.5 54.6875 
L 29.59375 8.796875 
L 46.6875 54.6875 
L 56.203125 54.6875 
L 35.6875 0 
L 23.484375 0 
z
" id="DejaVuSans-118"/>
       <path d="M 34.28125 27.484375 
Q 23.390625 27.484375 19.1875 25 
Q 14.984375 22.515625 14.984375 16.5 
Q 14.984375 11.71875 18.140625 8.90625 
Q 21.296875 6.109375 26.703125 6.109375 
Q 34.1875 6.109375 38.703125 11.40625 
Q 43.21875 16.703125 43.21875 25.484375 
L 43.21875 27.484375 
z
M 52.203125 31.203125 
L 52.203125 0 
L 43.21875 0 
L 43.21875 8.296875 
Q 40.140625 3.328125 35.546875 0.953125 
Q 30.953125 -1.421875 24.3125 -1.421875 
Q 15.921875 -1.421875 10.953125 3.296875 
Q 6 8.015625 6 15.921875 
Q 6 25.140625 12.171875 29.828125 
Q 18.359375 34.515625 30.609375 34.515625 
L 43.21875 34.515625 
L 43.21875 35.40625 
Q 43.21875 41.609375 39.140625 45 
Q 35.0625 48.390625 27.6875 48.390625 
Q 23 48.390625 18.546875 47.265625 
Q 14.109375 46.140625 10.015625 43.890625 
L 10.015625 52.203125 
Q 14.9375 54.109375 19.578125 55.046875 
Q 24.21875 56 28.609375 56 
Q 40.484375 56 46.34375 49.84375 
Q 52.203125 43.703125 52.203125 31.203125 
z
" id="DejaVuSans-97"/>
       <path d="M 44.28125 53.078125 
L 44.28125 44.578125 
Q 40.484375 46.53125 36.375 47.5 
Q 32.28125 48.484375 27.875 48.484375 
Q 21.1875 48.484375 17.84375 46.4375 
Q 14.5 44.390625 14.5 40.28125 
Q 14.5 37.15625 16.890625 35.375 
Q 19.28125 33.59375 26.515625 31.984375 
L 29.59375 31.296875 
Q 39.15625 29.25 43.1875 25.515625 
Q 47.21875 21.78125 47.21875 15.09375 
Q 47.21875 7.46875 41.1875 3.015625 
Q 35.15625 -1.421875 24.609375 -1.421875 
Q 20.21875 -1.421875 15.453125 -0.5625 
Q 10.6875 0.296875 5.421875 2 
L 5.421875 11.28125 
Q 10.40625 8.6875 15.234375 7.390625 
Q 20.0625 6.109375 24.8125 6.109375 
Q 31.15625 6.109375 34.5625 8.28125 
Q 37.984375 10.453125 37.984375 14.40625 
Q 37.984375 18.0625 35.515625 20.015625 
Q 33.0625 21.96875 24.703125 23.78125 
L 21.578125 24.515625 
Q 13.234375 26.265625 9.515625 29.90625 
Q 5.8125 33.546875 5.8125 39.890625 
Q 5.8125 47.609375 11.28125 51.796875 
Q 16.75 56 26.8125 56 
Q 31.78125 56 36.171875 55.265625 
Q 40.578125 54.546875 44.28125 53.078125 
z
" id="DejaVuSans-115"/>
       <path d="M 25.390625 72.90625 
L 33.6875 72.90625 
L 8.296875 -9.28125 
L 0 -9.28125 
z
" id="DejaVuSans-47"/>
       <path d="M 45.40625 46.390625 
L 45.40625 75.984375 
L 54.390625 75.984375 
L 54.390625 0 
L 45.40625 0 
L 45.40625 8.203125 
Q 42.578125 3.328125 38.25 0.953125 
Q 33.9375 -1.421875 27.875 -1.421875 
Q 17.96875 -1.421875 11.734375 6.484375 
Q 5.515625 14.40625 5.515625 27.296875 
Q 5.515625 40.1875 11.734375 48.09375 
Q 17.96875 56 27.875 56 
Q 33.9375 56 38.25 53.625 
Q 42.578125 51.265625 45.40625 46.390625 
z
M 14.796875 27.296875 
Q 14.796875 17.390625 18.875 11.75 
Q 22.953125 6.109375 30.078125 6.109375 
Q 37.203125 6.109375 41.296875 11.75 
Q 45.40625 17.390625 45.40625 27.296875 
Q 45.40625 37.203125 41.296875 42.84375 
Q 37.203125 48.484375 30.078125 48.484375 
Q 22.953125 48.484375 18.875 42.84375 
Q 14.796875 37.203125 14.796875 27.296875 
z
" id="DejaVuSans-100"/>
       <path d="M 9.421875 54.6875 
L 18.40625 54.6875 
L 18.40625 0 
L 9.421875 0 
z
M 9.421875 75.984375 
L 18.40625 75.984375 
L 18.40625 64.59375 
L 9.421875 64.59375 
z
" id="DejaVuSans-105"/>
       <path d="M 52 44.1875 
Q 55.375 50.25 60.0625 53.125 
Q 64.75 56 71.09375 56 
Q 79.640625 56 84.28125 50.015625 
Q 88.921875 44.046875 88.921875 33.015625 
L 88.921875 0 
L 79.890625 0 
L 79.890625 32.71875 
Q 79.890625 40.578125 77.09375 44.375 
Q 74.3125 48.1875 68.609375 48.1875 
Q 61.625 48.1875 57.5625 43.546875 
Q 53.515625 38.921875 53.515625 30.90625 
L 53.515625 0 
L 44.484375 0 
L 44.484375 32.71875 
Q 44.484375 40.625 41.703125 44.40625 
Q 38.921875 48.1875 33.109375 48.1875 
Q 26.21875 48.1875 22.15625 43.53125 
Q 18.109375 38.875 18.109375 30.90625 
L 18.109375 0 
L 9.078125 0 
L 9.078125 54.6875 
L 18.109375 54.6875 
L 18.109375 46.1875 
Q 21.1875 51.21875 25.484375 53.609375 
Q 29.78125 56 35.6875 56 
Q 41.65625 56 45.828125 52.96875 
Q 50 49.953125 52 44.1875 
z
" id="DejaVuSans-109"/>
       <path d="M 54.890625 33.015625 
L 54.890625 0 
L 45.90625 0 
L 45.90625 32.71875 
Q 45.90625 40.484375 42.875 44.328125 
Q 39.84375 48.1875 33.796875 48.1875 
Q 26.515625 48.1875 22.3125 43.546875 
Q 18.109375 38.921875 18.109375 30.90625 
L 18.109375 0 
L 9.078125 0 
L 9.078125 54.6875 
L 18.109375 54.6875 
L 18.109375 46.1875 
Q 21.34375 51.125 25.703125 53.5625 
Q 30.078125 56 35.796875 56 
Q 45.21875 56 50.046875 50.171875 
Q 54.890625 44.34375 54.890625 33.015625 
z
" id="DejaVuSans-110"/>
       <path d="M 8.015625 75.875 
L 15.828125 75.875 
Q 23.140625 64.359375 26.78125 53.3125 
Q 30.421875 42.28125 30.421875 31.390625 
Q 30.421875 20.453125 26.78125 9.375 
Q 23.140625 -1.703125 15.828125 -13.1875 
L 8.015625 -13.1875 
Q 14.5 -2 17.703125 9.0625 
Q 20.90625 20.125 20.90625 31.390625 
Q 20.90625 42.671875 17.703125 53.65625 
Q 14.5 64.65625 8.015625 75.875 
z
" id="DejaVuSans-41"/>
      </defs>
      <use xlink:href="#DejaVuSans-108"/>
      <use x="27.783203" xlink:href="#DejaVuSans-111"/>
      <use x="88.964844" xlink:href="#DejaVuSans-103"/>
      <use x="152.441406" xlink:href="#DejaVuSans-49"/>
      <use x="216.064453" xlink:href="#DejaVuSans-48"/>
      <use x="279.6875" xlink:href="#DejaVuSans-40"/>
      <use x="318.701172" xlink:href="#DejaVuSans-35"/>
      <use x="402.490234" xlink:href="#DejaVuSans-32"/>
      <use x="434.277344" xlink:href="#DejaVuSans-102"/>
      <use x="463.982422" xlink:href="#DejaVuSans-45"/>
      <use x="500.066406" xlink:href="#DejaVuSans-101"/>
      <use x="561.589844" xlink:href="#DejaVuSans-118"/>
      <use x="620.769531" xlink:href="#DejaVuSans-97"/>
      <use x="682.048828" xlink:href="#DejaVuSans-108"/>
      <use x="709.832031" xlink:href="#DejaVuSans-115"/>
      <use x="761.931641" xlink:href="#DejaVuSans-32"/>
      <use x="793.71875" xlink:href="#DejaVuSans-47"/>
      <use x="827.410156" xlink:href="#DejaVuSans-32"/>
      <use x="859.197266" xlink:href="#DejaVuSans-100"/>
      <use x="922.673828" xlink:href="#DejaVuSans-105"/>
      <use x="950.457031" xlink:href="#DejaVuSans-109"/>
      <use x="1047.869141" xlink:href="#DejaVuSans-101"/>
      <use x="1109.392578" xlink:href="#DejaVuSans-110"/>
      <use x="1172.771484" xlink:href="#DejaVuSans-115"/>
      <use x="1224.871094" xlink:href="#DejaVuSans-105"/>
      <use x="1252.654297" xlink:href="#DejaVuSans-111"/>
      <use x="1313.835938" xlink:href="#DejaVuSans-110"/>
      <use x="1377.214844" xlink:href="#DejaVuSans-41"/>
     </g>
    </g>
   </g>
   <g id="matplotlib.axis_2">
    <g id="ytick_1">
     <g id="line2d_21">
      <path clip-path="url(#p649159deb3)" d="M 57.6 298.944 
L 338.688 298.944 
" style="fill:none;stroke:#b0b0b0;stroke-linecap:square;stroke-width:0.8;"/>
     </g>
     <g id="line2d_22">
      <defs>
       <path d="M 0 0 
L -3.5 0 
" id="ma0e0662c6e" style="stroke:#000000;stroke-width:0.8;"/>
      </defs>
      <g>
       <use style="stroke:#000000;stroke-width:0.8;" x="57.6" xlink:href="#ma0e0662c6e" y="298.944"/>
      </g>
     </g>
     <g id="text_6">
      <!-- 0.0 -->
      <g transform="translate(25.155 305.02275)scale(0.16 -0.16)">
       <defs>
        <path d="M 10.6875 12.40625 
L 21 12.40625 
L 21 0 
L 10.6875 0 
z
" id="DejaVuSans-46"/>
       </defs>
       <use xlink:href="#DejaVuSans-48"/>
       <use x="63.623047" xlink:href="#DejaVuSans-46"/>
       <use x="95.410156" xlink:href="#DejaVuSans-48"/>
      </g>
     </g>
    </g>
    <g id="ytick_2">
     <g id="line2d_23">
      <path clip-path="url(#p649159deb3)" d="M 57.6 240.431525 
L 338.688 240.431525 
" style="fill:none;stroke:#b0b0b0;stroke-linecap:square;stroke-width:0.8;"/>
     </g>
     <g id="line2d_24">
      <g>
       <use style="stroke:#000000;stroke-width:0.8;" x="57.6" xlink:href="#ma0e0662c6e" y="240.431525"/>
      </g>
     </g>
     <g id="text_7">
      <!-- 0.2 -->
      <g transform="translate(25.155 246.510275)scale(0.16 -0.16)">
       <use xlink:href="#DejaVuSans-48"/>
       <use x="63.623047" xlink:href="#DejaVuSans-46"/>
       <use x="95.410156" xlink:href="#DejaVuSans-50"/>
      </g>
     </g>
    </g>
    <g id="ytick_3">
     <g id="line2d_25">
      <path clip-path="url(#p649159deb3)" d="M 57.6 181.91905 
L 338.688 181.91905 
" style="fill:none;stroke:#b0b0b0;stroke-linecap:square;stroke-width:0.8;"/>
     </g>
     <g id="line2d_26">
      <g>
       <use style="stroke:#000000;stroke-width:0.8;" x="57.6" xlink:href="#ma0e0662c6e" y="181.91905"/>
      </g>
     </g>
     <g id="text_8">
      <!-- 0.4 -->
      <g transform="translate(25.155 187.9978)scale(0.16 -0.16)">
       <use xlink:href="#DejaVuSans-48"/>
       <use x="63.623047" xlink:href="#DejaVuSans-46"/>
       <use x="95.410156" xlink:href="#DejaVuSans-52"/>
      </g>
     </g>
    </g>
    <g id="ytick_4">
     <g id="line2d_27">
      <path clip-path="url(#p649159deb3)" d="M 57.6 123.406574 
L 338.688 123.406574 
" style="fill:none;stroke:#b0b0b0;stroke-linecap:square;stroke-width:0.8;"/>
     </g>
     <g id="line2d_28">
      <g>
       <use style="stroke:#000000;stroke-width:0.8;" x="57.6" xlink:href="#ma0e0662c6e" y="123.406574"/>
      </g>
     </g>
     <g id="text_9">
      <!-- 0.6 -->
      <g transform="translate(25.155 129.485324)scale(0.16 -0.16)">
       <use xlink:href="#DejaVuSans-48"/>
       <use x="63.623047" xlink:href="#DejaVuSans-46"/>
       <use x="95.410156" xlink:href="#DejaVuSans-54"/>
      </g>
     </g>
    </g>
    <g id="ytick_5">
     <g id="line2d_29">
      <path clip-path="url(#p649159deb3)" d="M 57.6 64.894099 
L 338.688 64.894099 
" style="fill:none;stroke:#b0b0b0;stroke-linecap:square;stroke-width:0.8;"/>
     </g>
     <g id="line2d_30">
      <g>
       <use style="stroke:#000000;stroke-width:0.8;" x="57.6" xlink:href="#ma0e0662c6e" y="64.894099"/>
      </g>
     </g>
     <g id="text_10">
      <!-- 0.8 -->
      <g transform="translate(25.155 70.972849)scale(0.16 -0.16)">
       <defs>
        <path d="M 31.78125 34.625 
Q 24.75 34.625 20.71875 30.859375 
Q 16.703125 27.09375 16.703125 20.515625 
Q 16.703125 13.921875 20.71875 10.15625 
Q 24.75 6.390625 31.78125 6.390625 
Q 38.8125 6.390625 42.859375 10.171875 
Q 46.921875 13.96875 46.921875 20.515625 
Q 46.921875 27.09375 42.890625 30.859375 
Q 38.875 34.625 31.78125 34.625 
z
M 21.921875 38.8125 
Q 15.578125 40.375 12.03125 44.71875 
Q 8.5 49.078125 8.5 55.328125 
Q 8.5 64.0625 14.71875 69.140625 
Q 20.953125 74.21875 31.78125 74.21875 
Q 42.671875 74.21875 48.875 69.140625 
Q 55.078125 64.0625 55.078125 55.328125 
Q 55.078125 49.078125 51.53125 44.71875 
Q 48 40.375 41.703125 38.8125 
Q 48.828125 37.15625 52.796875 32.3125 
Q 56.78125 27.484375 56.78125 20.515625 
Q 56.78125 9.90625 50.3125 4.234375 
Q 43.84375 -1.421875 31.78125 -1.421875 
Q 19.734375 -1.421875 13.25 4.234375 
Q 6.78125 9.90625 6.78125 20.515625 
Q 6.78125 27.484375 10.78125 32.3125 
Q 14.796875 37.15625 21.921875 38.8125 
z
M 18.3125 54.390625 
Q 18.3125 48.734375 21.84375 45.5625 
Q 25.390625 42.390625 31.78125 42.390625 
Q 38.140625 42.390625 41.71875 45.5625 
Q 45.3125 48.734375 45.3125 54.390625 
Q 45.3125 60.0625 41.71875 63.234375 
Q 38.140625 66.40625 31.78125 66.40625 
Q 25.390625 66.40625 21.84375 63.234375 
Q 18.3125 60.0625 18.3125 54.390625 
z
" id="DejaVuSans-56"/>
       </defs>
       <use xlink:href="#DejaVuSans-48"/>
       <use x="63.623047" xlink:href="#DejaVuSans-46"/>
       <use x="95.410156" xlink:href="#DejaVuSans-56"/>
      </g>
     </g>
    </g>
    <g id="ytick_6">
     <g id="line2d_31">
      <path clip-path="url(#p649159deb3)" d="M 57.6 6.381624 
L 338.688 6.381624 
" style="fill:none;stroke:#b0b0b0;stroke-linecap:square;stroke-width:0.8;"/>
     </g>
     <g id="line2d_32">
      <g>
       <use style="stroke:#000000;stroke-width:0.8;" x="57.6" xlink:href="#ma0e0662c6e" y="6.381624"/>
      </g>
     </g>
     <g id="text_11">
      <!-- 1.0 -->
      <g transform="translate(25.155 12.460374)scale(0.16 -0.16)">
       <use xlink:href="#DejaVuSans-49"/>
       <use x="63.623047" xlink:href="#DejaVuSans-46"/>
       <use x="95.410156" xlink:href="#DejaVuSans-48"/>
      </g>
     </g>
    </g>
    <g id="text_12">
     <!-- Fraction of function,target pairs -->
     <g transform="translate(17.619531 285.585)rotate(-90)scale(0.17 -0.17)">
      <defs>
       <path d="M 9.8125 72.90625 
L 51.703125 72.90625 
L 51.703125 64.59375 
L 19.671875 64.59375 
L 19.671875 43.109375 
L 48.578125 43.109375 
L 48.578125 34.8125 
L 19.671875 34.8125 
L 19.671875 0 
L 9.8125 0 
z
" id="DejaVuSans-70"/>
       <path d="M 41.109375 46.296875 
Q 39.59375 47.171875 37.8125 47.578125 
Q 36.03125 48 33.890625 48 
Q 26.265625 48 22.1875 43.046875 
Q 18.109375 38.09375 18.109375 28.8125 
L 18.109375 0 
L 9.078125 0 
L 9.078125 54.6875 
L 18.109375 54.6875 
L 18.109375 46.1875 
Q 20.953125 51.171875 25.484375 53.578125 
Q 30.03125 56 36.53125 56 
Q 37.453125 56 38.578125 55.875 
Q 39.703125 55.765625 41.0625 55.515625 
z
" id="DejaVuSans-114"/>
       <path d="M 48.78125 52.59375 
L 48.78125 44.1875 
Q 44.96875 46.296875 41.140625 47.34375 
Q 37.3125 48.390625 33.40625 48.390625 
Q 24.65625 48.390625 19.8125 42.84375 
Q 14.984375 37.3125 14.984375 27.296875 
Q 14.984375 17.28125 19.8125 11.734375 
Q 24.65625 6.203125 33.40625 6.203125 
Q 37.3125 6.203125 41.140625 7.25 
Q 44.96875 8.296875 48.78125 10.40625 
L 48.78125 2.09375 
Q 45.015625 0.34375 40.984375 -0.53125 
Q 36.96875 -1.421875 32.421875 -1.421875 
Q 20.0625 -1.421875 12.78125 6.34375 
Q 5.515625 14.109375 5.515625 27.296875 
Q 5.515625 40.671875 12.859375 48.328125 
Q 20.21875 56 33.015625 56 
Q 37.15625 56 41.109375 55.140625 
Q 45.0625 54.296875 48.78125 52.59375 
z
" id="DejaVuSans-99"/>
       <path d="M 18.3125 70.21875 
L 18.3125 54.6875 
L 36.8125 54.6875 
L 36.8125 47.703125 
L 18.3125 47.703125 
L 18.3125 18.015625 
Q 18.3125 11.328125 20.140625 9.421875 
Q 21.96875 7.515625 27.59375 7.515625 
L 36.8125 7.515625 
L 36.8125 0 
L 27.59375 0 
Q 17.1875 0 13.234375 3.875 
Q 9.28125 7.765625 9.28125 18.015625 
L 9.28125 47.703125 
L 2.6875 47.703125 
L 2.6875 54.6875 
L 9.28125 54.6875 
L 9.28125 70.21875 
z
" id="DejaVuSans-116"/>
       <path d="M 8.5 21.578125 
L 8.5 54.6875 
L 17.484375 54.6875 
L 17.484375 21.921875 
Q 17.484375 14.15625 20.5 10.265625 
Q 23.53125 6.390625 29.59375 6.390625 
Q 36.859375 6.390625 41.078125 11.03125 
Q 45.3125 15.671875 45.3125 23.6875 
L 45.3125 54.6875 
L 54.296875 54.6875 
L 54.296875 0 
L 45.3125 0 
L 45.3125 8.40625 
Q 42.046875 3.421875 37.71875 1 
Q 33.40625 -1.421875 27.6875 -1.421875 
Q 18.265625 -1.421875 13.375 4.4375 
Q 8.5 10.296875 8.5 21.578125 
z
M 31.109375 56 
z
" id="DejaVuSans-117"/>
       <path d="M 11.71875 12.40625 
L 22.015625 12.40625 
L 22.015625 4 
L 14.015625 -11.625 
L 7.71875 -11.625 
L 11.71875 4 
z
" id="DejaVuSans-44"/>
       <path d="M 18.109375 8.203125 
L 18.109375 -20.796875 
L 9.078125 -20.796875 
L 9.078125 54.6875 
L 18.109375 54.6875 
L 18.109375 46.390625 
Q 20.953125 51.265625 25.265625 53.625 
Q 29.59375 56 35.59375 56 
Q 45.5625 56 51.78125 48.09375 
Q 58.015625 40.1875 58.015625 27.296875 
Q 58.015625 14.40625 51.78125 6.484375 
Q 45.5625 -1.421875 35.59375 -1.421875 
Q 29.59375 -1.421875 25.265625 0.953125 
Q 20.953125 3.328125 18.109375 8.203125 
z
M 48.6875 27.296875 
Q 48.6875 37.203125 44.609375 42.84375 
Q 40.53125 48.484375 33.40625 48.484375 
Q 26.265625 48.484375 22.1875 42.84375 
Q 18.109375 37.203125 18.109375 27.296875 
Q 18.109375 17.390625 22.1875 11.75 
Q 26.265625 6.109375 33.40625 6.109375 
Q 40.53125 6.109375 44.609375 11.75 
Q 48.6875 17.390625 48.6875 27.296875 
z
" id="DejaVuSans-112"/>
      </defs>
      <use xlink:href="#DejaVuSans-70"/>
      <use x="50.269531" xlink:href="#DejaVuSans-114"/>
      <use x="91.382812" xlink:href="#DejaVuSans-97"/>
      <use x="152.662109" xlink:href="#DejaVuSans-99"/>
      <use x="207.642578" xlink:href="#DejaVuSans-116"/>
      <use x="246.851562" xlink:href="#DejaVuSans-105"/>
      <use x="274.634766" xlink:href="#DejaVuSans-111"/>
      <use x="335.816406" xlink:href="#DejaVuSans-110"/>
      <use x="399.195312" xlink:href="#DejaVuSans-32"/>
      <use x="430.982422" xlink:href="#DejaVuSans-111"/>
      <use x="492.164062" xlink:href="#DejaVuSans-102"/>
      <use x="527.369141" xlink:href="#DejaVuSans-32"/>
      <use x="559.15625" xlink:href="#DejaVuSans-102"/>
      <use x="594.361328" xlink:href="#DejaVuSans-117"/>
      <use x="657.740234" xlink:href="#DejaVuSans-110"/>
      <use x="721.119141" xlink:href="#DejaVuSans-99"/>
      <use x="776.099609" xlink:href="#DejaVuSans-116"/>
      <use x="815.308594" xlink:href="#DejaVuSans-105"/>
      <use x="843.091797" xlink:href="#DejaVuSans-111"/>
      <use x="904.273438" xlink:href="#DejaVuSans-110"/>
      <use x="967.652344" xlink:href="#DejaVuSans-44"/>
      <use x="999.439453" xlink:href="#DejaVuSans-116"/>
      <use x="1038.648438" xlink:href="#DejaVuSans-97"/>
      <use x="1099.927734" xlink:href="#DejaVuSans-114"/>
      <use x="1139.291016" xlink:href="#DejaVuSans-103"/>
      <use x="1202.767578" xlink:href="#DejaVuSans-101"/>
      <use x="1264.291016" xlink:href="#DejaVuSans-116"/>
      <use x="1303.5" xlink:href="#DejaVuSans-32"/>
      <use x="1335.287109" xlink:href="#DejaVuSans-112"/>
      <use x="1398.763672" xlink:href="#DejaVuSans-97"/>
      <use x="1460.042969" xlink:href="#DejaVuSans-105"/>
      <use x="1487.826172" xlink:href="#DejaVuSans-114"/>
      <use x="1528.939453" xlink:href="#DejaVuSans-115"/>
     </g>
    </g>
   </g>
   <g id="line2d_33">
    <defs>
     <path d="M 0 1.5 
C 0.397805 1.5 0.77937 1.341951 1.06066 1.06066 
C 1.341951 0.77937 1.5 0.397805 1.5 0 
C 1.5 -0.397805 1.341951 -0.77937 1.06066 -1.06066 
C 0.77937 -1.341951 0.397805 -1.5 0 -1.5 
C -0.397805 -1.5 -0.77937 -1.341951 -1.06066 -1.06066 
C -1.341951 -0.77937 -1.5 -0.397805 -1.5 0 
C -1.5 0.397805 -1.341951 0.77937 -1.06066 1.06066 
C -0.77937 1.341951 -0.397805 1.5 0 1.5 
z
" id="mf72d1f9957" style="stroke:#f5deb3;"/>
    </defs>
    <g>
     <use style="fill:#f5deb3;stroke:#f5deb3;" x="298.257013" xlink:href="#mf72d1f9957" y="139.211668"/>
     <use style="fill:#f5deb3;stroke:#f5deb3;" x="298.257013" xlink:href="#mf72d1f9957" y="139.211668"/>
    </g>
   </g>
   <g id="line2d_34">
    <defs>
     <path d="M 0 1.5 
C 0.397805 1.5 0.77937 1.341951 1.06066 1.06066 
C 1.341951 0.77937 1.5 0.397805 1.5 0 
C 1.5 -0.397805 1.341951 -0.77937 1.06066 -1.06066 
C 0.77937 -1.341951 0.397805 -1.5 0 -1.5 
C -0.397805 -1.5 -0.77937 -1.341951 -1.06066 -1.06066 
C -1.341951 -0.77937 -1.5 -0.397805 -1.5 0 
C -1.5 0.397805 -1.341951 0.77937 -1.06066 1.06066 
C -0.77937 1.341951 -0.397805 1.5 0 1.5 
z
" id="me2b8e56057" style="stroke:#ff7500;"/>
    </defs>
    <g>
     <use style="fill:#ff7500;stroke:#ff7500;" x="257.992864" xlink:href="#me2b8e56057" y="168.636045"/>
     <use style="fill:#ff7500;stroke:#ff7500;" x="257.992864" xlink:href="#me2b8e56057" y="168.636045"/>
    </g>
   </g>
   <g id="line2d_35">
    <path d="M 133.94293 298.944 
L 133.94293 298.775861 
L 134.10095 298.775861 
L 134.10095 298.607721 
L 134.719089 298.607721 
L 134.719089 298.439582 
L 135.311005 298.439582 
L 135.311005 298.271443 
L 135.597107 298.271443 
L 135.661706 297.598886 
L 135.893281 297.598886 
L 135.966545 297.094468 
L 136.083131 297.094468 
L 136.083131 296.926328 
L 136.270937 296.926328 
L 136.323544 296.59005 
L 136.504067 296.59005 
L 136.607732 296.253771 
L 136.617126 296.253771 
L 136.617126 296.085632 
L 136.845703 296.085632 
L 136.845703 295.917493 
L 137.121574 295.917493 
L 137.121574 295.749353 
L 137.343676 295.749353 
L 137.433523 295.413075 
L 137.68266 295.413075 
L 137.68266 295.244935 
L 137.945701 295.244935 
L 138.036836 294.908657 
L 138.0887 294.908657 
L 138.118883 294.404239 
L 138.24765 294.404239 
L 138.24765 294.2361 
L 138.460171 294.2361 
L 138.531843 293.731682 
L 138.590646 293.731682 
L 138.60741 293.395403 
L 138.794909 293.395403 
L 138.819757 293.059125 
L 139.041811 293.059125 
L 139.102995 292.722846 
L 139.180187 292.722846 
L 139.180187 292.554707 
L 139.421732 292.554707 
L 139.421732 292.386567 
L 139.612588 292.386567 
L 139.691499 291.88215 
L 139.758293 291.88215 
L 139.840453 291.545871 
L 139.976531 291.545871 
L 139.999752 291.209592 
L 140.249355 291.209592 
L 140.351996 290.537035 
L 140.416312 290.537035 
L 140.47663 290.032617 
L 140.64889 290.032617 
L 140.64889 289.864478 
L 140.815774 289.864478 
L 140.915143 289.191921 
L 140.944478 289.191921 
L 140.944478 289.023781 
L 141.104941 289.023781 
L 141.209899 288.687503 
L 141.432195 288.687503 
L 141.482002 288.183085 
L 141.570589 288.183085 
L 141.62705 287.846806 
L 141.686839 287.846806 
L 141.756919 287.510528 
L 141.819751 287.510528 
L 141.844124 287.174249 
L 142.068838 287.174249 
L 142.171584 286.837971 
L 142.314418 286.837971 
L 142.365148 286.165413 
L 142.449371 286.165413 
L 142.499711 285.829135 
L 142.583289 285.829135 
L 142.583289 285.660996 
L 142.726112 285.660996 
L 142.821778 285.156578 
L 142.83822 285.156578 
L 142.946345 284.315881 
L 143.157379 284.315881 
L 143.225017 283.307045 
L 143.276375 283.307045 
L 143.346746 282.802628 
L 143.486643 282.802628 
L 143.489809 282.29821 
L 143.637988 282.29821 
L 143.637988 282.13007 
L 143.809805 282.13007 
L 143.905906 280.953095 
L 143.930621 280.953095 
L 143.995331 280.448677 
L 144.075117 280.448677 
L 144.178904 279.439842 
L 144.188032 279.439842 
L 144.260886 278.935424 
L 144.393665 278.935424 
L 144.477638 278.599145 
L 144.516488 278.599145 
L 144.614721 278.262867 
L 144.715355 278.262867 
L 144.747789 277.758449 
L 144.830078 277.758449 
L 144.929481 276.917752 
L 144.944051 276.917752 
L 145.045704 276.245195 
L 145.0862 276.245195 
L 145.0862 276.077056 
L 145.209996 276.077056 
L 145.307262 275.572638 
L 145.327221 275.572638 
L 145.372754 275.06822 
L 145.440832 275.06822 
L 145.483246 274.731941 
L 145.584621 274.731941 
L 145.68541 273.723105 
L 145.755062 273.723105 
L 145.843812 273.386827 
L 145.868691 273.386827 
L 145.91559 273.050548 
L 145.981585 273.050548 
L 145.981585 272.882409 
L 146.118279 272.882409 
L 146.218747 272.041713 
L 146.348227 272.041713 
L 146.404573 271.032877 
L 146.471416 271.032877 
L 146.490086 270.19218 
L 146.670421 270.19218 
L 146.741511 269.687762 
L 146.885432 269.687762 
L 146.960843 269.015205 
L 146.997131 269.015205 
L 147.061745 268.678927 
L 147.159502 268.678927 
L 147.159502 268.510787 
L 147.282207 268.510787 
L 147.282207 268.174509 
L 147.421752 268.174509 
L 147.487332 266.324976 
L 147.54765 266.324976 
L 147.54765 265.988698 
L 147.786855 265.988698 
L 147.786855 265.652419 
L 147.910154 265.652419 
L 147.929801 264.979862 
L 148.08132 264.979862 
L 148.151743 264.139166 
L 148.217054 264.139166 
L 148.318166 263.466608 
L 148.47588 263.466608 
L 148.554206 262.962191 
L 148.662803 262.962191 
L 148.756689 261.785215 
L 148.775406 261.785215 
L 148.880315 260.944519 
L 148.903542 260.944519 
L 148.998453 259.767544 
L 149.33456 259.767544 
L 149.40913 258.926847 
L 149.449671 258.926847 
L 149.537187 257.918012 
L 149.597519 257.918012 
L 149.686518 257.413594 
L 149.715345 257.413594 
L 149.816968 256.741037 
L 149.88512 256.741037 
L 149.88512 256.572897 
L 150.016276 256.572897 
L 150.03804 256.068479 
L 150.161577 256.068479 
L 150.267081 255.395922 
L 150.27352 255.395922 
L 150.37195 254.218947 
L 150.465584 254.218947 
L 150.465584 254.050808 
L 150.621935 254.050808 
L 150.701681 253.378251 
L 150.764382 253.378251 
L 150.851787 253.041972 
L 150.947016 253.041972 
L 150.994436 252.537554 
L 151.0766 252.537554 
L 151.172651 250.519883 
L 151.190983 250.519883 
L 151.290457 249.511047 
L 151.320795 249.511047 
L 151.324836 249.006629 
L 151.467691 249.006629 
L 151.561617 247.829654 
L 151.692666 247.829654 
L 151.749938 247.157097 
L 151.92649 247.157097 
L 152.016042 246.148261 
L 152.216829 246.148261 
L 152.299175 245.307564 
L 152.337344 245.307564 
L 152.439984 244.635007 
L 152.581545 244.635007 
L 152.675285 243.96245 
L 152.718236 243.96245 
L 152.816811 243.458032 
L 152.863116 243.458032 
L 152.896379 242.449196 
L 153.008636 242.449196 
L 153.076375 241.272221 
L 153.178403 241.272221 
L 153.276224 240.263385 
L 153.375295 240.263385 
L 153.441628 239.25455 
L 153.552218 239.25455 
L 153.640896 238.918271 
L 153.683301 238.918271 
L 153.767805 238.077575 
L 153.853648 238.077575 
L 153.932113 237.405017 
L 153.992898 237.405017 
L 154.086268 237.068739 
L 154.120722 237.068739 
L 154.215123 236.228042 
L 154.286869 236.228042 
L 154.366807 235.555485 
L 154.458201 235.555485 
L 154.458201 235.219207 
L 154.652924 235.219207 
L 154.739513 234.546649 
L 154.83724 234.546649 
L 154.945917 233.033396 
L 154.965604 233.033396 
L 154.965604 232.697117 
L 155.114177 232.697117 
L 155.200129 232.192699 
L 155.245367 232.192699 
L 155.335493 231.352003 
L 155.476185 231.352003 
L 155.579381 230.847585 
L 155.611011 230.847585 
L 155.721267 230.006888 
L 155.769872 230.006888 
L 155.877576 229.67061 
L 155.986164 229.67061 
L 155.986164 229.166192 
L 156.150854 229.166192 
L 156.201334 228.829913 
L 156.276021 228.829913 
L 156.377628 228.325495 
L 156.391232 228.325495 
L 156.442528 227.652938 
L 156.614921 227.652938 
L 156.704193 226.644102 
L 156.766413 226.644102 
L 156.766413 226.475963 
L 157.048053 226.475963 
L 157.049508 225.971545 
L 157.24627 225.971545 
L 157.323784 225.467127 
L 157.429451 225.467127 
L 157.459321 224.962709 
L 157.934566 224.962709 
L 158.031107 223.953874 
L 158.061338 223.953874 
L 158.151718 223.281316 
L 158.225319 223.281316 
L 158.225319 223.113177 
L 158.359452 223.113177 
L 158.359452 222.945038 
L 158.530025 222.945038 
L 158.62998 222.44062 
L 158.779504 222.44062 
L 158.779504 222.272481 
L 158.895065 222.272481 
L 158.944731 221.768063 
L 159.026762 221.768063 
L 159.039747 221.431784 
L 159.212824 221.431784 
L 159.270564 220.254809 
L 159.39565 220.254809 
L 159.484452 219.414113 
L 159.518583 219.414113 
L 159.543823 218.909695 
L 159.631875 218.909695 
L 159.720733 218.573416 
L 159.836443 218.573416 
L 159.836443 218.237138 
L 160.361689 218.237138 
L 160.414554 217.73272 
L 160.498327 217.73272 
L 160.594766 216.892023 
L 160.697758 216.892023 
L 160.760203 216.387605 
L 160.830627 216.387605 
L 160.924085 215.042491 
L 161.018204 215.042491 
L 161.018204 214.874352 
L 161.274728 214.874352 
L 161.274728 214.706212 
L 161.390816 214.706212 
L 161.501628 214.201794 
L 161.676583 214.201794 
L 161.676583 213.865516 
L 161.911563 213.865516 
L 162.00161 212.520402 
L 162.02569 212.520402 
L 162.107531 212.015984 
L 162.222549 212.015984 
L 162.234442 211.511566 
L 162.518519 211.511566 
L 162.592792 210.839009 
L 162.79595 210.839009 
L 162.79595 210.670869 
L 162.90757 210.670869 
L 162.90757 210.50273 
L 163.040165 210.50273 
L 163.061823 209.998312 
L 163.223916 209.998312 
L 163.223916 209.830173 
L 163.58171 209.830173 
L 163.639638 209.157616 
L 163.712274 209.157616 
L 163.712274 208.989476 
L 163.847782 208.989476 
L 163.847782 208.821337 
L 164.006669 208.821337 
L 164.007646 208.316919 
L 164.128286 208.316919 
L 164.221115 207.98064 
L 164.452953 207.98064 
L 164.452953 207.812501 
L 164.708028 207.812501 
L 164.708028 207.644362 
L 165.049785 207.644362 
L 165.156139 207.139944 
L 165.192663 207.139944 
L 165.192663 206.971805 
L 165.327141 206.971805 
L 165.43632 206.299248 
L 165.556437 206.299248 
L 165.556437 206.131108 
L 165.810952 206.131108 
L 165.810952 205.962969 
L 166.073083 205.962969 
L 166.073083 205.62669 
L 166.409769 205.62669 
L 166.496321 205.122272 
L 166.630389 205.122272 
L 166.630389 204.954133 
L 166.823349 204.954133 
L 166.91201 204.617855 
L 167.060969 204.617855 
L 167.140278 204.281576 
L 167.207042 204.281576 
L 167.262214 203.945297 
L 167.506754 203.945297 
L 167.506754 203.777158 
L 167.692678 203.777158 
L 167.692678 203.609019 
L 167.844547 203.609019 
L 167.844547 203.440879 
L 168.408061 203.440879 
L 168.408061 203.27274 
L 168.536542 203.27274 
L 168.536542 203.104601 
L 168.832946 203.104601 
L 168.839608 202.768322 
L 168.958345 202.768322 
L 168.958345 202.432044 
L 169.142588 202.432044 
L 169.142588 202.263904 
L 169.319146 202.263904 
L 169.319146 202.095765 
L 169.663459 202.095765 
L 169.663459 201.927626 
L 170.115656 201.927626 
L 170.115656 201.759487 
L 170.977163 201.759487 
L 170.977163 201.591347 
L 171.326498 201.591347 
L 171.326498 201.255069 
L 172.050464 201.255069 
L 172.050464 201.086929 
L 172.192696 201.086929 
L 172.192696 200.750651 
L 173.485042 200.750651 
L 173.485042 200.582511 
L 173.599195 200.582511 
L 173.599195 200.414372 
L 174.090693 200.414372 
L 174.090693 200.246233 
L 174.802118 200.246233 
L 174.802118 200.078094 
L 174.95183 200.078094 
L 174.95183 199.909954 
L 175.1596 199.909954 
L 175.209489 199.405536 
L 175.850335 199.405536 
L 175.946605 198.901118 
L 176.754702 198.901118 
L 176.76457 198.396701 
L 177.399735 198.396701 
L 177.399735 198.060422 
L 179.30884 198.060422 
L 179.30884 197.892283 
L 179.458416 197.892283 
L 179.493402 197.556004 
L 179.812645 197.556004 
L 179.812645 197.387865 
L 179.930968 197.387865 
L 179.930968 197.219726 
L 180.779707 197.219726 
L 180.866437 196.715308 
L 181.62037 196.715308 
L 181.640627 196.21089 
L 182.091517 196.21089 
L 182.091517 196.04275 
L 185.491481 196.04275 
L 185.491481 195.874611 
L 185.785477 195.874611 
L 185.785477 195.706472 
L 186.607888 195.706472 
L 186.607888 195.538333 
L 187.055969 195.538333 
L 187.055969 195.370193 
L 187.556952 195.370193 
L 187.556952 195.202054 
L 189.636117 195.202054 
L 189.636117 194.865775 
L 190.045156 194.865775 
L 190.047349 194.529497 
L 191.204342 194.529497 
L 191.204342 194.361357 
L 191.391347 194.361357 
L 191.391347 194.193218 
L 193.70249 194.193218 
L 193.70249 194.025079 
L 194.278388 194.025079 
L 194.278388 193.85694 
L 195.684558 193.85694 
L 195.684558 193.6888 
L 197.368578 193.6888 
L 197.376504 193.184382 
L 197.829442 193.184382 
L 197.829442 193.016243 
L 198.323393 193.016243 
L 198.323393 192.848104 
L 200.658173 192.848104 
L 200.658173 192.679964 
L 200.916925 192.679964 
L 200.916925 192.343686 
L 201.520022 192.343686 
L 201.520022 192.175547 
L 203.243 192.175547 
L 203.243 192.007407 
L 205.108013 192.007407 
L 205.160646 191.502989 
L 205.661141 191.502989 
L 205.661141 191.166711 
L 205.90862 191.166711 
L 205.90862 190.998572 
L 206.791864 190.998572 
L 206.791864 190.662293 
L 206.928279 190.662293 
L 206.928279 190.326014 
L 207.23016 190.326014 
L 207.23016 190.157875 
L 207.433594 190.157875 
L 207.433594 189.821596 
L 207.590865 189.821596 
L 207.590865 189.485318 
L 208.344182 189.485318 
L 208.344182 189.149039 
L 208.740321 189.149039 
L 208.740321 188.9809 
L 209.170277 188.9809 
L 209.170277 188.812761 
L 210.29624 188.812761 
L 210.29624 188.476482 
L 210.445803 188.476482 
L 210.475875 188.140203 
L 210.632605 188.140203 
L 210.632605 187.972064 
L 211.689993 187.972064 
L 211.689993 187.803925 
L 212.183163 187.803925 
L 212.183163 187.467646 
L 212.423733 187.467646 
L 212.423733 187.299507 
L 212.950084 187.299507 
L 212.950084 187.131368 
L 213.508093 187.131368 
L 213.60676 186.458811 
L 214.304291 186.458811 
L 214.304291 186.290671 
L 218.786695 186.290671 
L 218.786695 186.122532 
L 219.288481 186.122532 
L 219.288481 185.786253 
L 222.655291 185.786253 
L 222.655291 185.449975 
L 222.960355 185.449975 
L 222.960355 185.281835 
L 224.631437 185.281835 
L 224.710774 184.609278 
L 224.835373 184.609278 
L 224.835373 184.441139 
L 225.655195 184.441139 
L 225.750896 183.936721 
L 225.792974 183.936721 
L 225.792974 183.768582 
L 226.185238 183.768582 
L 226.185238 183.432303 
L 226.431695 183.432303 
L 226.431695 183.096025 
L 227.015859 183.096025 
L 227.043958 182.423467 
L 230.441372 182.423467 
L 230.441372 182.087189 
L 231.565325 182.087189 
L 231.575546 181.582771 
L 232.309472 181.582771 
L 232.309472 181.246492 
L 232.569961 181.246492 
L 232.569961 181.078353 
L 232.763421 181.078353 
L 232.763421 180.910214 
L 233.710223 180.910214 
L 233.710223 180.742074 
L 234.157426 180.742074 
L 234.157426 180.405796 
L 236.106436 180.405796 
L 236.106436 180.069517 
L 236.61894 180.069517 
L 236.61894 179.901378 
L 237.214933 179.901378 
L 237.285419 179.565099 
L 237.383295 179.565099 
L 237.383295 179.39696 
L 238.759122 179.39696 
L 238.759122 179.228821 
L 241.125874 179.228821 
L 241.125874 178.892542 
L 241.392323 178.892542 
L 241.464293 178.219985 
L 241.650917 178.219985 
L 241.740673 177.883706 
L 243.577701 177.883706 
L 243.577701 177.547428 
L 243.737505 177.547428 
L 243.737505 177.211149 
L 244.125473 177.211149 
L 244.125473 177.04301 
L 244.795101 177.04301 
L 244.904714 176.538592 
L 245.632358 176.538592 
L 245.741509 175.866035 
L 246.728986 175.866035 
L 246.728986 175.697896 
L 247.215162 175.697896 
L 247.215162 175.361617 
L 247.32668 175.361617 
L 247.32668 175.193478 
L 247.568024 175.193478 
L 247.568024 175.025338 
L 247.881271 175.025338 
L 247.98413 174.352781 
L 248.637746 174.352781 
L 248.645426 173.680224 
L 248.929665 173.680224 
L 248.929665 173.343945 
L 249.845635 173.343945 
L 249.845635 173.175806 
L 250.055444 173.175806 
L 250.091127 172.503249 
L 250.254515 172.503249 
L 250.254515 172.16697 
L 251.409284 172.16697 
L 251.409284 171.998831 
L 251.632735 171.998831 
L 251.632735 171.830692 
L 251.970761 171.830692 
L 251.970761 171.494413 
L 252.508022 171.494413 
L 252.508022 171.158135 
L 252.692023 171.158135 
L 252.692023 170.989995 
L 253.290131 170.989995 
L 253.290131 170.821856 
L 253.506116 170.821856 
L 253.506116 170.485577 
L 253.905134 170.485577 
L 253.905134 170.149299 
L 254.130578 170.149299 
L 254.130578 169.981159 
L 254.52781 169.981159 
L 254.52781 169.81302 
L 254.863499 169.81302 
L 254.863499 169.644881 
L 255.635573 169.644881 
L 255.635573 169.476742 
L 256.46151 169.476742 
L 256.46151 169.308602 
L 256.648628 169.308602 
L 256.648628 169.140463 
L 256.951618 169.140463 
L 256.951618 168.972324 
L 257.992864 168.972324 
L 257.992864 168.636045 
L 338.688 168.636045 
L 338.688 168.636045 
" style="fill:none;stroke:#ff7500;stroke-linecap:square;stroke-width:1.5;"/>
   </g>
   <g id="line2d_36">
    <defs>
     <path d="M 0 -6 
L -1.347084 -1.854102 
L -5.706339 -1.854102 
L -2.179628 0.708204 
L -3.526712 4.854102 
L -0 2.291796 
L 3.526712 4.854102 
L 2.179628 0.708204 
L 5.706339 -1.854102 
L 1.347084 -1.854102 
z
" id="m424935d1ea" style="stroke:#ff7500;stroke-linejoin:bevel;stroke-width:1.5;"/>
    </defs>
    <g>
     <use style="fill-opacity:0;stroke:#ff7500;stroke-linejoin:bevel;stroke-width:1.5;" x="153.178403" xlink:href="#m424935d1ea" y="240.935943"/>
     <use style="fill-opacity:0;stroke:#ff7500;stroke-linejoin:bevel;stroke-width:1.5;" x="201.520022" xlink:href="#m424935d1ea" y="192.343686"/>
     <use style="fill-opacity:0;stroke:#ff7500;stroke-linejoin:bevel;stroke-width:1.5;" x="257.992864" xlink:href="#m424935d1ea" y="168.972324"/>
     <use style="fill-opacity:0;stroke:#ff7500;stroke-linejoin:bevel;stroke-width:1.5;" x="257.992864" xlink:href="#m424935d1ea" y="168.636045"/>
     <use style="fill-opacity:0;stroke:#ff7500;stroke-linejoin:bevel;stroke-width:1.5;" x="338.688" xlink:href="#m424935d1ea" y="168.636045"/>
    </g>
   </g>
   <g id="line2d_37">
    <path style="fill:none;stroke:#ff7500;stroke-linecap:square;stroke-width:1.5;"/>
    <g/>
   </g>
   <g id="line2d_38">
    <path clip-path="url(#p649159deb3)" d="M 258.377143 168.636045 
" style="fill:none;stroke:#ff7500;stroke-linecap:square;stroke-width:1.5;"/>
    <defs>
     <path d="M -12 12 
L 12 -12 
M -12 -12 
L 12 12 
" id="m5cee5aef5d" style="stroke:#ff7500;"/>
    </defs>
    <g clip-path="url(#p649159deb3)">
     <use style="fill:#ff7500;stroke:#ff7500;" x="258.377143" xlink:href="#m5cee5aef5d" y="168.636045"/>
    </g>
   </g>
   <g id="line2d_39">
    <defs>
     <path d="M 0 1.5 
C 0.397805 1.5 0.77937 1.341951 1.06066 1.06066 
C 1.341951 0.77937 1.5 0.397805 1.5 0 
C 1.5 -0.397805 1.341951 -0.77937 1.06066 -1.06066 
C 0.77937 -1.341951 0.397805 -1.5 0 -1.5 
C -0.397805 -1.5 -0.77937 -1.341951 -1.06066 -1.06066 
C -1.341951 -0.77937 -1.5 -0.397805 -1.5 0 
C -1.5 0.397805 -1.341951 0.77937 -1.06066 1.06066 
C -0.77937 1.341951 -0.397805 1.5 0 1.5 
z
" id="md166445130" style="stroke:#6495ed;"/>
    </defs>
    <g>
     <use style="fill:#6495ed;stroke:#6495ed;" x="256.045153" xlink:href="#md166445130" y="243.794311"/>
     <use style="fill:#6495ed;stroke:#6495ed;" x="256.045153" xlink:href="#md166445130" y="243.794311"/>
    </g>
   </g>
   <g id="line2d_40">
    <path d="M -1 290.873314 
L 92.504372 290.873314 
L 92.504372 290.705174 
L 97.447539 290.705174 
L 97.536064 290.368896 
L 101.043642 290.368896 
L 101.043642 290.200757 
L 101.365607 290.200757 
L 101.365607 290.032617 
L 101.541941 290.032617 
L 101.541941 289.864478 
L 104.355088 289.864478 
L 104.355088 289.696339 
L 107.762095 289.696339 
L 107.762095 289.528199 
L 109.756002 289.528199 
L 109.756002 289.36006 
L 110.188761 289.36006 
L 110.188761 289.191921 
L 111.064034 289.191921 
L 111.064034 288.855642 
L 111.266113 288.855642 
L 111.266113 288.687503 
L 111.426108 288.687503 
L 111.426108 288.519364 
L 111.974805 288.519364 
L 112.051799 288.183085 
L 112.185728 288.183085 
L 112.242812 287.678667 
L 112.711386 287.678667 
L 112.785203 287.342389 
L 113.04113 287.342389 
L 113.04113 287.174249 
L 113.524343 287.174249 
L 113.524343 287.00611 
L 113.804498 287.00611 
L 113.873839 286.333553 
L 114.045996 286.333553 
L 114.045996 286.165413 
L 114.165502 286.165413 
L 114.199496 285.829135 
L 114.334816 285.829135 
L 114.334816 285.660996 
L 114.469094 285.660996 
L 114.502503 285.324717 
L 114.668593 285.324717 
L 114.668593 285.156578 
L 115.4287 285.156578 
L 115.460322 284.820299 
L 115.554844 284.820299 
L 115.570548 284.48402 
L 115.773423 284.48402 
L 115.773423 284.315881 
L 115.973966 284.315881 
L 115.973966 284.147742 
L 116.157057 284.147742 
L 116.187386 283.811463 
L 116.943478 283.811463 
L 117.030313 283.307045 
L 117.116718 283.307045 
L 117.116718 283.138906 
L 117.486268 283.138906 
L 117.486268 282.970767 
L 117.765302 282.970767 
L 117.84815 282.13007 
L 118.390628 282.13007 
L 118.390628 281.961931 
L 119.677294 281.961931 
L 119.776241 281.457513 
L 119.89914 281.457513 
L 120.009013 280.953095 
L 120.310634 280.953095 
L 120.310634 280.784956 
L 120.898662 280.784956 
L 121.002434 280.448677 
L 121.071273 280.448677 
L 121.094159 279.944259 
L 121.310093 279.944259 
L 121.321384 279.607981 
L 122.330097 279.607981 
L 122.330097 279.439842 
L 122.657258 279.439842 
L 122.657258 279.271702 
L 123.050097 279.271702 
L 123.111324 278.767284 
L 123.212892 278.767284 
L 123.212892 278.599145 
L 123.404258 278.599145 
L 123.404258 278.431006 
L 123.553867 278.431006 
L 123.553867 278.262867 
L 124.178158 278.262867 
L 124.273716 277.926588 
L 125.417081 277.926588 
L 125.417081 277.758449 
L 125.761724 277.758449 
L 125.761724 277.590309 
L 126.219429 277.590309 
L 126.219429 277.42217 
L 126.632162 277.42217 
L 126.632162 277.254031 
L 127.389626 277.254031 
L 127.389626 277.085891 
L 127.861412 277.085891 
L 127.861412 276.917752 
L 128.583245 276.917752 
L 128.583245 276.749613 
L 129.211887 276.749613 
L 129.211887 276.581474 
L 129.560187 276.581474 
L 129.560187 276.413334 
L 129.693392 276.413334 
L 129.693392 276.245195 
L 130.939826 276.245195 
L 130.939826 276.077056 
L 133.352844 276.077056 
L 133.352844 275.908916 
L 133.605795 275.908916 
L 133.605795 275.740777 
L 134.550744 275.740777 
L 134.550744 275.404498 
L 135.25017 275.404498 
L 135.25017 275.236359 
L 135.750758 275.236359 
L 135.750758 275.06822 
L 136.58893 275.06822 
L 136.58893 274.900081 
L 137.915216 274.900081 
L 137.915216 274.731941 
L 138.114574 274.731941 
L 138.114574 274.563802 
L 138.964003 274.563802 
L 138.964003 274.395663 
L 139.147727 274.395663 
L 139.147727 274.059384 
L 139.36968 274.059384 
L 139.36968 273.891245 
L 139.624447 273.891245 
L 139.624447 273.723105 
L 142.472881 273.723105 
L 142.472881 273.554966 
L 144.671029 273.554966 
L 144.671029 273.386827 
L 145.341463 273.386827 
L 145.341463 273.218688 
L 146.000787 273.218688 
L 146.000787 273.050548 
L 147.781905 273.050548 
L 147.781905 272.882409 
L 150.851787 272.882409 
L 150.851787 272.54613 
L 151.700576 272.54613 
L 151.700576 272.377991 
L 152.530716 272.377991 
L 152.530716 272.209852 
L 153.647971 272.209852 
L 153.647971 272.041713 
L 153.867623 272.041713 
L 153.867623 271.705434 
L 154.105226 271.705434 
L 154.105226 271.537295 
L 156.222706 271.537295 
L 156.222706 271.369155 
L 157.213149 271.369155 
L 157.218914 271.032877 
L 157.503322 271.032877 
L 157.503322 270.864737 
L 158.181741 270.864737 
L 158.181741 270.696598 
L 158.782138 270.696598 
L 158.782138 270.528459 
L 159.851318 270.528459 
L 159.851318 270.36032 
L 160.255477 270.36032 
L 160.255477 270.19218 
L 160.481605 270.19218 
L 160.481605 270.024041 
L 160.9066 270.024041 
L 160.9066 269.855902 
L 163.263696 269.855902 
L 163.263696 269.687762 
L 163.969529 269.687762 
L 163.969529 269.519623 
L 164.093347 269.519623 
L 164.093347 269.351484 
L 165.170758 269.351484 
L 165.170758 269.183344 
L 165.30631 269.183344 
L 165.397599 268.847066 
L 166.870635 268.847066 
L 166.870635 268.678927 
L 167.101078 268.678927 
L 167.101078 268.510787 
L 167.260594 268.510787 
L 167.260594 268.342648 
L 167.822596 268.342648 
L 167.822596 268.174509 
L 168.174383 268.174509 
L 168.174383 267.83823 
L 168.895758 267.83823 
L 168.99579 267.501952 
L 169.948408 267.501952 
L 169.948408 267.333812 
L 170.640721 267.333812 
L 170.640721 267.165673 
L 170.942432 267.165673 
L 170.942432 266.997534 
L 171.769354 266.997534 
L 171.769354 266.829394 
L 172.092273 266.829394 
L 172.190864 266.493116 
L 172.221369 266.493116 
L 172.242691 265.988698 
L 172.400273 265.988698 
L 172.400273 265.820559 
L 172.82642 265.820559 
L 172.929154 265.316141 
L 173.102716 265.316141 
L 173.102716 265.148001 
L 174.397382 265.148001 
L 174.397382 264.979862 
L 174.703001 264.979862 
L 174.703001 264.811723 
L 175.196645 264.811723 
L 175.196645 264.643583 
L 175.768957 264.643583 
L 175.879025 264.307305 
L 176.134155 264.307305 
L 176.134155 264.139166 
L 176.650514 264.139166 
L 176.650514 263.971026 
L 176.791796 263.971026 
L 176.791796 263.802887 
L 177.136394 263.802887 
L 177.136394 263.466608 
L 177.615816 263.466608 
L 177.615816 263.13033 
L 177.899821 263.13033 
L 177.899821 262.962191 
L 178.066722 262.962191 
L 178.102 262.625912 
L 178.211299 262.625912 
L 178.211299 262.457773 
L 179.298687 262.457773 
L 179.298687 262.289633 
L 180.416599 262.289633 
L 180.416599 262.121494 
L 181.204375 262.121494 
L 181.204375 261.953355 
L 181.813454 261.953355 
L 181.813454 261.785215 
L 183.232267 261.785215 
L 183.232267 261.617076 
L 187.12146 261.617076 
L 187.12146 261.448937 
L 187.659369 261.448937 
L 187.659369 261.280798 
L 188.580804 261.280798 
L 188.580804 261.112658 
L 189.700001 261.112658 
L 189.779473 260.440101 
L 190.603388 260.440101 
L 190.603388 260.271962 
L 191.419752 260.271962 
L 191.419752 260.103822 
L 191.69451 260.103822 
L 191.69451 259.935683 
L 191.976594 259.935683 
L 191.976594 259.767544 
L 192.754635 259.767544 
L 192.754635 259.599405 
L 193.349265 259.599405 
L 193.349265 259.431265 
L 193.755589 259.431265 
L 193.755589 259.263126 
L 193.964981 259.263126 
L 193.964981 259.094987 
L 195.680588 259.094987 
L 195.680588 258.758708 
L 196.602928 258.758708 
L 196.602928 258.590569 
L 197.592139 258.590569 
L 197.592139 258.422429 
L 198.337715 258.422429 
L 198.337715 258.25429 
L 198.943626 258.25429 
L 198.943626 258.086151 
L 199.796586 258.086151 
L 199.796586 257.918012 
L 200.731782 257.918012 
L 200.731782 257.581733 
L 202.173241 257.581733 
L 202.173241 257.245454 
L 202.691908 257.245454 
L 202.691908 257.077315 
L 204.24965 257.077315 
L 204.24965 256.909176 
L 204.676956 256.909176 
L 204.676956 256.741037 
L 205.195463 256.741037 
L 205.210639 256.236619 
L 206.076081 256.236619 
L 206.076081 256.068479 
L 206.73383 256.068479 
L 206.73383 255.732201 
L 209.445464 255.732201 
L 209.445464 255.564061 
L 213.743185 255.564061 
L 213.743185 255.227783 
L 214.769431 255.227783 
L 214.769431 254.891504 
L 216.308666 254.891504 
L 216.308666 254.555226 
L 216.538634 254.555226 
L 216.538634 254.387086 
L 216.672324 254.387086 
L 216.672324 254.050808 
L 219.818534 254.050808 
L 219.818534 253.882668 
L 220.389755 253.882668 
L 220.389755 253.54639 
L 221.121057 253.54639 
L 221.121057 253.378251 
L 221.641793 253.378251 
L 221.641793 253.041972 
L 221.886076 253.041972 
L 221.886076 252.873833 
L 222.284425 252.873833 
L 222.284425 252.537554 
L 222.863903 252.537554 
L 222.863903 252.369415 
L 223.388246 252.369415 
L 223.388246 252.033136 
L 225.295117 252.033136 
L 225.382403 251.528718 
L 225.738435 251.528718 
L 225.738435 251.19244 
L 227.408193 251.19244 
L 227.408193 250.856161 
L 228.824591 250.856161 
L 228.824591 250.688022 
L 231.342356 250.688022 
L 231.342356 250.519883 
L 232.245718 250.519883 
L 232.245718 250.183604 
L 232.912805 250.183604 
L 232.912805 250.015465 
L 233.060661 250.015465 
L 233.060661 249.847325 
L 235.651422 249.847325 
L 235.651422 249.679186 
L 236.099352 249.679186 
L 236.099352 249.511047 
L 236.830138 249.511047 
L 236.830138 249.174768 
L 237.266676 249.174768 
L 237.266676 248.83849 
L 239.592088 248.83849 
L 239.592088 248.67035 
L 241.73327 248.67035 
L 241.759157 247.997793 
L 242.521874 247.997793 
L 242.556513 247.493375 
L 244.60543 247.493375 
L 244.60543 247.325236 
L 245.995911 247.325236 
L 245.995911 246.988957 
L 246.149325 246.988957 
L 246.149325 246.820818 
L 248.274375 246.820818 
L 248.274375 246.652679 
L 248.947762 246.652679 
L 248.947762 246.484539 
L 249.569516 246.484539 
L 249.569516 246.3164 
L 250.05297 246.3164 
L 250.05297 245.980122 
L 250.254119 245.980122 
L 250.254119 245.811982 
L 250.394832 245.811982 
L 250.394832 245.643843 
L 251.010709 245.643843 
L 251.010709 245.475704 
L 251.319905 245.475704 
L 251.319905 245.139425 
L 251.793905 245.139425 
L 251.793905 244.971286 
L 252.953726 244.971286 
L 252.953726 244.803146 
L 254.377159 244.803146 
L 254.377159 244.466868 
L 254.759463 244.466868 
L 254.759463 244.130589 
L 255.808124 244.130589 
L 255.808124 243.96245 
L 256.045153 243.96245 
L 256.045153 243.794311 
L 338.688 243.794311 
L 338.688 243.794311 
" style="fill:none;stroke:#6495ed;stroke-linecap:square;stroke-width:1.5;"/>
   </g>
   <g id="line2d_41">
    <defs>
     <path d="M -0 6 
L 6 -6 
L -6 -6 
z
" id="m32844fcec7" style="stroke:#6495ed;stroke-linejoin:miter;stroke-width:1.5;"/>
    </defs>
    <g>
     <use style="fill-opacity:0;stroke:#6495ed;stroke-linejoin:miter;stroke-width:1.5;" x="116.157057" xlink:href="#m32844fcec7" y="284.147742"/>
     <use style="fill-opacity:0;stroke:#6495ed;stroke-linejoin:miter;stroke-width:1.5;" x="172.242691" xlink:href="#m32844fcec7" y="265.988698"/>
     <use style="fill-opacity:0;stroke:#6495ed;stroke-linejoin:miter;stroke-width:1.5;" x="250.254119" xlink:href="#m32844fcec7" y="245.980122"/>
     <use style="fill-opacity:0;stroke:#6495ed;stroke-linejoin:miter;stroke-width:1.5;" x="256.045153" xlink:href="#m32844fcec7" y="243.794311"/>
     <use style="fill-opacity:0;stroke:#6495ed;stroke-linejoin:miter;stroke-width:1.5;" x="256.045153" xlink:href="#m32844fcec7" y="243.794311"/>
     <use style="fill-opacity:0;stroke:#6495ed;stroke-linejoin:miter;stroke-width:1.5;" x="338.688" xlink:href="#m32844fcec7" y="243.794311"/>
    </g>
   </g>
   <g id="line2d_42">
    <path style="fill:none;stroke:#6495ed;stroke-linecap:square;stroke-width:1.5;"/>
    <g/>
   </g>
   <g id="line2d_43">
    <path clip-path="url(#p649159deb3)" d="M 258.377701 243.794311 
" style="fill:none;stroke:#6495ed;stroke-linecap:square;stroke-width:1.5;"/>
    <defs>
     <path d="M -12 12 
L 12 -12 
M -12 -12 
L 12 12 
" id="m70cc9aa3f8" style="stroke:#6495ed;"/>
    </defs>
    <g clip-path="url(#p649159deb3)">
     <use style="fill:#6495ed;stroke:#6495ed;" x="258.377701" xlink:href="#m70cc9aa3f8" y="243.794311"/>
    </g>
   </g>
   <g id="line2d_44">
    <path d="M 338.688 243.794311 
L 369.60768 293.092752 
" style="fill:none;stroke:#6495ed;stroke-linecap:square;stroke-width:1.5;"/>
    <g>
     <use style="fill-opacity:0;stroke:#6495ed;stroke-linejoin:miter;stroke-width:1.5;" x="338.688" xlink:href="#m32844fcec7" y="243.794311"/>
     <use style="fill-opacity:0;stroke:#6495ed;stroke-linejoin:miter;stroke-width:1.5;" x="369.60768" xlink:href="#m32844fcec7" y="293.092752"/>
    </g>
   </g>
   <g id="line2d_45">
    <path d="M 338.688 168.636045 
L 369.60768 152.662812 
" style="fill:none;stroke:#ff7500;stroke-linecap:square;stroke-width:1.5;"/>
    <g>
     <use style="fill-opacity:0;stroke:#ff7500;stroke-linejoin:bevel;stroke-width:1.5;" x="338.688" xlink:href="#m424935d1ea" y="168.636045"/>
     <use style="fill-opacity:0;stroke:#ff7500;stroke-linejoin:bevel;stroke-width:1.5;" x="369.60768" xlink:href="#m424935d1ea" y="152.662812"/>
    </g>
   </g>
   <g id="line2d_46">
    <path d="M 338.688 298.944 
L 338.688 6.381624 
" style="fill:none;stroke:#000000;stroke-linecap:square;stroke-width:1.5;"/>
   </g>
   <g id="patch_3">
    <path d="M 57.6 298.944 
L 57.6 3.456 
" style="fill:none;stroke:#000000;stroke-linecap:square;stroke-linejoin:miter;stroke-width:0.8;"/>
   </g>
   <g id="patch_4">
    <path d="M 338.688 298.944 
L 338.688 3.456 
" style="fill:none;stroke:#000000;stroke-linecap:square;stroke-linejoin:miter;stroke-width:0.8;"/>
   </g>
   <g id="patch_5">
    <path d="M 57.6 298.944 
L 338.688 298.944 
" style="fill:none;stroke:#000000;stroke-linecap:square;stroke-linejoin:miter;stroke-width:0.8;"/>
   </g>
   <g id="patch_6">
    <path d="M 57.6 3.456 
L 338.688 3.456 
" style="fill:none;stroke:#000000;stroke-linecap:square;stroke-linejoin:miter;stroke-width:0.8;"/>
   </g>
   <g id="text_13">
    <!-- NSGA-II-M -->
    <g transform="translate(375.22944 297.78369)scale(0.17 -0.17)">
     <defs>
      <path d="M 9.8125 72.90625 
L 23.09375 72.90625 
L 55.421875 11.921875 
L 55.421875 72.90625 
L 64.984375 72.90625 
L 64.984375 0 
L 51.703125 0 
L 19.390625 60.984375 
L 19.390625 0 
L 9.8125 0 
z
" id="DejaVuSans-78"/>
      <path d="M 53.515625 70.515625 
L 53.515625 60.890625 
Q 47.90625 63.578125 42.921875 64.890625 
Q 37.9375 66.21875 33.296875 66.21875 
Q 25.25 66.21875 20.875 63.09375 
Q 16.5 59.96875 16.5 54.203125 
Q 16.5 49.359375 19.40625 46.890625 
Q 22.3125 44.4375 30.421875 42.921875 
L 36.375 41.703125 
Q 47.40625 39.59375 52.65625 34.296875 
Q 57.90625 29 57.90625 20.125 
Q 57.90625 9.515625 50.796875 4.046875 
Q 43.703125 -1.421875 29.984375 -1.421875 
Q 24.8125 -1.421875 18.96875 -0.25 
Q 13.140625 0.921875 6.890625 3.21875 
L 6.890625 13.375 
Q 12.890625 10.015625 18.65625 8.296875 
Q 24.421875 6.59375 29.984375 6.59375 
Q 38.421875 6.59375 43.015625 9.90625 
Q 47.609375 13.234375 47.609375 19.390625 
Q 47.609375 24.75 44.3125 27.78125 
Q 41.015625 30.8125 33.5 32.328125 
L 27.484375 33.5 
Q 16.453125 35.6875 11.515625 40.375 
Q 6.59375 45.0625 6.59375 53.421875 
Q 6.59375 63.09375 13.40625 68.65625 
Q 20.21875 74.21875 32.171875 74.21875 
Q 37.3125 74.21875 42.625 73.28125 
Q 47.953125 72.359375 53.515625 70.515625 
z
" id="DejaVuSans-83"/>
      <path d="M 59.515625 10.40625 
L 59.515625 29.984375 
L 43.40625 29.984375 
L 43.40625 38.09375 
L 69.28125 38.09375 
L 69.28125 6.78125 
Q 63.578125 2.734375 56.6875 0.65625 
Q 49.8125 -1.421875 42 -1.421875 
Q 24.90625 -1.421875 15.25 8.5625 
Q 5.609375 18.5625 5.609375 36.375 
Q 5.609375 54.25 15.25 64.234375 
Q 24.90625 74.21875 42 74.21875 
Q 49.125 74.21875 55.546875 72.453125 
Q 61.96875 70.703125 67.390625 67.28125 
L 67.390625 56.78125 
Q 61.921875 61.421875 55.765625 63.765625 
Q 49.609375 66.109375 42.828125 66.109375 
Q 29.4375 66.109375 22.71875 58.640625 
Q 16.015625 51.171875 16.015625 36.375 
Q 16.015625 21.625 22.71875 14.15625 
Q 29.4375 6.6875 42.828125 6.6875 
Q 48.046875 6.6875 52.140625 7.59375 
Q 56.25 8.5 59.515625 10.40625 
z
" id="DejaVuSans-71"/>
      <path d="M 34.1875 63.1875 
L 20.796875 26.90625 
L 47.609375 26.90625 
z
M 28.609375 72.90625 
L 39.796875 72.90625 
L 67.578125 0 
L 57.328125 0 
L 50.6875 18.703125 
L 17.828125 18.703125 
L 11.1875 0 
L 0.78125 0 
z
" id="DejaVuSans-65"/>
      <path d="M 9.8125 72.90625 
L 19.671875 72.90625 
L 19.671875 0 
L 9.8125 0 
z
" id="DejaVuSans-73"/>
      <path d="M 9.8125 72.90625 
L 24.515625 72.90625 
L 43.109375 23.296875 
L 61.8125 72.90625 
L 76.515625 72.90625 
L 76.515625 0 
L 66.890625 0 
L 66.890625 64.015625 
L 48.09375 14.015625 
L 38.1875 14.015625 
L 19.390625 64.015625 
L 19.390625 0 
L 9.8125 0 
z
" id="DejaVuSans-77"/>
     </defs>
     <use xlink:href="#DejaVuSans-78"/>
     <use x="74.804688" xlink:href="#DejaVuSans-83"/>
     <use x="138.28125" xlink:href="#DejaVuSans-71"/>
     <use x="215.771484" xlink:href="#DejaVuSans-65"/>
     <use x="281.929688" xlink:href="#DejaVuSans-45"/>
     <use x="318.013672" xlink:href="#DejaVuSans-73"/>
     <use x="347.505859" xlink:href="#DejaVuSans-73"/>
     <use x="376.998047" xlink:href="#DejaVuSans-45"/>
     <use x="413.082031" xlink:href="#DejaVuSans-77"/>
    </g>
   </g>
   <g id="text_14">
    <!-- RM-MEDA A -->
    <g transform="translate(375.22944 157.353749)scale(0.17 -0.17)">
     <defs>
      <path d="M 44.390625 34.1875 
Q 47.5625 33.109375 50.5625 29.59375 
Q 53.5625 26.078125 56.59375 19.921875 
L 66.609375 0 
L 56 0 
L 46.6875 18.703125 
Q 43.0625 26.03125 39.671875 28.421875 
Q 36.28125 30.8125 30.421875 30.8125 
L 19.671875 30.8125 
L 19.671875 0 
L 9.8125 0 
L 9.8125 72.90625 
L 32.078125 72.90625 
Q 44.578125 72.90625 50.734375 67.671875 
Q 56.890625 62.453125 56.890625 51.90625 
Q 56.890625 45.015625 53.6875 40.46875 
Q 50.484375 35.9375 44.390625 34.1875 
z
M 19.671875 64.796875 
L 19.671875 38.921875 
L 32.078125 38.921875 
Q 39.203125 38.921875 42.84375 42.21875 
Q 46.484375 45.515625 46.484375 51.90625 
Q 46.484375 58.296875 42.84375 61.546875 
Q 39.203125 64.796875 32.078125 64.796875 
z
" id="DejaVuSans-82"/>
      <path d="M 9.8125 72.90625 
L 55.90625 72.90625 
L 55.90625 64.59375 
L 19.671875 64.59375 
L 19.671875 43.015625 
L 54.390625 43.015625 
L 54.390625 34.71875 
L 19.671875 34.71875 
L 19.671875 8.296875 
L 56.78125 8.296875 
L 56.78125 0 
L 9.8125 0 
z
" id="DejaVuSans-69"/>
      <path d="M 19.671875 64.796875 
L 19.671875 8.109375 
L 31.59375 8.109375 
Q 46.6875 8.109375 53.6875 14.9375 
Q 60.6875 21.78125 60.6875 36.53125 
Q 60.6875 51.171875 53.6875 57.984375 
Q 46.6875 64.796875 31.59375 64.796875 
z
M 9.8125 72.90625 
L 30.078125 72.90625 
Q 51.265625 72.90625 61.171875 64.09375 
Q 71.09375 55.28125 71.09375 36.53125 
Q 71.09375 17.671875 61.125 8.828125 
Q 51.171875 0 30.078125 0 
L 9.8125 0 
z
" id="DejaVuSans-68"/>
     </defs>
     <use xlink:href="#DejaVuSans-82"/>
     <use x="69.482422" xlink:href="#DejaVuSans-77"/>
     <use x="155.761719" xlink:href="#DejaVuSans-45"/>
     <use x="191.845703" xlink:href="#DejaVuSans-77"/>
     <use x="278.125" xlink:href="#DejaVuSans-69"/>
     <use x="341.308594" xlink:href="#DejaVuSans-68"/>
     <use x="416.560547" xlink:href="#DejaVuSans-65"/>
     <use x="484.96875" xlink:href="#DejaVuSans-32"/>
     <use x="516.755859" xlink:href="#DejaVuSans-65"/>
    </g>
   </g>
   <g id="text_15">
    <!-- best 2016 -->
    <g transform="translate(375.22944 16.923809)scale(0.17 -0.17)">
     <defs>
      <path d="M 48.6875 27.296875 
Q 48.6875 37.203125 44.609375 42.84375 
Q 40.53125 48.484375 33.40625 48.484375 
Q 26.265625 48.484375 22.1875 42.84375 
Q 18.109375 37.203125 18.109375 27.296875 
Q 18.109375 17.390625 22.1875 11.75 
Q 26.265625 6.109375 33.40625 6.109375 
Q 40.53125 6.109375 44.609375 11.75 
Q 48.6875 17.390625 48.6875 27.296875 
z
M 18.109375 46.390625 
Q 20.953125 51.265625 25.265625 53.625 
Q 29.59375 56 35.59375 56 
Q 45.5625 56 51.78125 48.09375 
Q 58.015625 40.1875 58.015625 27.296875 
Q 58.015625 14.40625 51.78125 6.484375 
Q 45.5625 -1.421875 35.59375 -1.421875 
Q 29.59375 -1.421875 25.265625 0.953125 
Q 20.953125 3.328125 18.109375 8.203125 
L 18.109375 0 
L 9.078125 0 
L 9.078125 75.984375 
L 18.109375 75.984375 
z
" id="DejaVuSans-98"/>
     </defs>
     <use xlink:href="#DejaVuSans-98"/>
     <use x="63.476562" xlink:href="#DejaVuSans-101"/>
     <use x="125" xlink:href="#DejaVuSans-115"/>
     <use x="177.099609" xlink:href="#DejaVuSans-116"/>
     <use x="216.308594" xlink:href="#DejaVuSans-32"/>
     <use x="248.095703" xlink:href="#DejaVuSans-50"/>
     <use x="311.71875" xlink:href="#DejaVuSans-48"/>
     <use x="375.341797" xlink:href="#DejaVuSans-49"/>
     <use x="438.964844" xlink:href="#DejaVuSans-54"/>
    </g>
   </g>
   <g id="text_16">
    <!-- bbob-biobj f1, f2, f11, 40-D -->
    <g transform="translate(60.41088 14.161286)scale(0.102 -0.102)">
     <defs>
      <path d="M 9.421875 54.6875 
L 18.40625 54.6875 
L 18.40625 -0.984375 
Q 18.40625 -11.421875 14.421875 -16.109375 
Q 10.453125 -20.796875 1.609375 -20.796875 
L -1.8125 -20.796875 
L -1.8125 -13.1875 
L 0.59375 -13.1875 
Q 5.71875 -13.1875 7.5625 -10.8125 
Q 9.421875 -8.453125 9.421875 -0.984375 
z
M 9.421875 75.984375 
L 18.40625 75.984375 
L 18.40625 64.59375 
L 9.421875 64.59375 
z
" id="DejaVuSans-106"/>
     </defs>
     <use xlink:href="#DejaVuSans-98"/>
     <use x="63.476562" xlink:href="#DejaVuSans-98"/>
     <use x="126.953125" xlink:href="#DejaVuSans-111"/>
     <use x="188.134766" xlink:href="#DejaVuSans-98"/>
     <use x="251.611328" xlink:href="#DejaVuSans-45"/>
     <use x="287.695312" xlink:href="#DejaVuSans-98"/>
     <use x="351.171875" xlink:href="#DejaVuSans-105"/>
     <use x="378.955078" xlink:href="#DejaVuSans-111"/>
     <use x="440.136719" xlink:href="#DejaVuSans-98"/>
     <use x="503.613281" xlink:href="#DejaVuSans-106"/>
     <use x="531.396484" xlink:href="#DejaVuSans-32"/>
     <use x="563.183594" xlink:href="#DejaVuSans-102"/>
     <use x="598.388672" xlink:href="#DejaVuSans-49"/>
     <use x="662.011719" xlink:href="#DejaVuSans-44"/>
     <use x="693.798828" xlink:href="#DejaVuSans-32"/>
     <use x="725.585938" xlink:href="#DejaVuSans-102"/>
     <use x="760.791016" xlink:href="#DejaVuSans-50"/>
     <use x="824.414062" xlink:href="#DejaVuSans-44"/>
     <use x="856.201172" xlink:href="#DejaVuSans-32"/>
     <use x="887.988281" xlink:href="#DejaVuSans-102"/>
     <use x="923.193359" xlink:href="#DejaVuSans-49"/>
     <use x="986.816406" xlink:href="#DejaVuSans-49"/>
     <use x="1050.439453" xlink:href="#DejaVuSans-44"/>
     <use x="1082.226562" xlink:href="#DejaVuSans-32"/>
     <use x="1114.013672" xlink:href="#DejaVuSans-52"/>
     <use x="1177.636719" xlink:href="#DejaVuSans-48"/>
     <use x="1241.259766" xlink:href="#DejaVuSans-45"/>
     <use x="1277.34375" xlink:href="#DejaVuSans-68"/>
    </g>
    <!-- 58 targets: 1..-1.0e-4 -->
    <g transform="translate(60.41088 25.583055)scale(0.102 -0.102)">
     <defs>
      <path d="M 10.796875 72.90625 
L 49.515625 72.90625 
L 49.515625 64.59375 
L 19.828125 64.59375 
L 19.828125 46.734375 
Q 21.96875 47.46875 24.109375 47.828125 
Q 26.265625 48.1875 28.421875 48.1875 
Q 40.625 48.1875 47.75 41.5 
Q 54.890625 34.8125 54.890625 23.390625 
Q 54.890625 11.625 47.5625 5.09375 
Q 40.234375 -1.421875 26.90625 -1.421875 
Q 22.3125 -1.421875 17.546875 -0.640625 
Q 12.796875 0.140625 7.71875 1.703125 
L 7.71875 11.625 
Q 12.109375 9.234375 16.796875 8.0625 
Q 21.484375 6.890625 26.703125 6.890625 
Q 35.15625 6.890625 40.078125 11.328125 
Q 45.015625 15.765625 45.015625 23.390625 
Q 45.015625 31 40.078125 35.4375 
Q 35.15625 39.890625 26.703125 39.890625 
Q 22.75 39.890625 18.8125 39.015625 
Q 14.890625 38.140625 10.796875 36.28125 
z
" id="DejaVuSans-53"/>
      <path d="M 11.71875 12.40625 
L 22.015625 12.40625 
L 22.015625 0 
L 11.71875 0 
z
M 11.71875 51.703125 
L 22.015625 51.703125 
L 22.015625 39.3125 
L 11.71875 39.3125 
z
" id="DejaVuSans-58"/>
     </defs>
     <use xlink:href="#DejaVuSans-53"/>
     <use x="63.623047" xlink:href="#DejaVuSans-56"/>
     <use x="127.246094" xlink:href="#DejaVuSans-32"/>
     <use x="159.033203" xlink:href="#DejaVuSans-116"/>
     <use x="198.242188" xlink:href="#DejaVuSans-97"/>
     <use x="259.521484" xlink:href="#DejaVuSans-114"/>
     <use x="298.884766" xlink:href="#DejaVuSans-103"/>
     <use x="362.361328" xlink:href="#DejaVuSans-101"/>
     <use x="423.884766" xlink:href="#DejaVuSans-116"/>
     <use x="463.09375" xlink:href="#DejaVuSans-115"/>
     <use x="515.193359" xlink:href="#DejaVuSans-58"/>
     <use x="548.884766" xlink:href="#DejaVuSans-32"/>
     <use x="580.671875" xlink:href="#DejaVuSans-49"/>
     <use x="644.294922" xlink:href="#DejaVuSans-46"/>
     <use x="676.082031" xlink:href="#DejaVuSans-46"/>
     <use x="707.869141" xlink:href="#DejaVuSans-45"/>
     <use x="743.953125" xlink:href="#DejaVuSans-49"/>
     <use x="807.576172" xlink:href="#DejaVuSans-46"/>
     <use x="839.363281" xlink:href="#DejaVuSans-48"/>
     <use x="902.986328" xlink:href="#DejaVuSans-101"/>
     <use x="964.509766" xlink:href="#DejaVuSans-45"/>
     <use x="1000.59375" xlink:href="#DejaVuSans-52"/>
    </g>
    <!-- 10 instances -->
    <g transform="translate(60.41088 37.004824)scale(0.102 -0.102)">
     <use xlink:href="#DejaVuSans-49"/>
     <use x="63.623047" xlink:href="#DejaVuSans-48"/>
     <use x="127.246094" xlink:href="#DejaVuSans-32"/>
     <use x="159.033203" xlink:href="#DejaVuSans-105"/>
     <use x="186.816406" xlink:href="#DejaVuSans-110"/>
     <use x="250.195312" xlink:href="#DejaVuSans-115"/>
     <use x="302.294922" xlink:href="#DejaVuSans-116"/>
     <use x="341.503906" xlink:href="#DejaVuSans-97"/>
     <use x="402.783203" xlink:href="#DejaVuSans-110"/>
     <use x="466.162109" xlink:href="#DejaVuSans-99"/>
     <use x="521.142578" xlink:href="#DejaVuSans-101"/>
     <use x="582.666016" xlink:href="#DejaVuSans-115"/>
    </g>
   </g>
   <g id="text_17">
    <!-- v2.4, hv-hash=ff0e71e8cd978373 -->
    <g style="fill:#808080;" transform="translate(112.648687 293.909432)scale(0.1 -0.1)">
     <defs>
      <path d="M 54.890625 33.015625 
L 54.890625 0 
L 45.90625 0 
L 45.90625 32.71875 
Q 45.90625 40.484375 42.875 44.328125 
Q 39.84375 48.1875 33.796875 48.1875 
Q 26.515625 48.1875 22.3125 43.546875 
Q 18.109375 38.921875 18.109375 30.90625 
L 18.109375 0 
L 9.078125 0 
L 9.078125 75.984375 
L 18.109375 75.984375 
L 18.109375 46.1875 
Q 21.34375 51.125 25.703125 53.5625 
Q 30.078125 56 35.796875 56 
Q 45.21875 56 50.046875 50.171875 
Q 54.890625 44.34375 54.890625 33.015625 
z
" id="DejaVuSans-104"/>
      <path d="M 10.59375 45.40625 
L 73.1875 45.40625 
L 73.1875 37.203125 
L 10.59375 37.203125 
z
M 10.59375 25.484375 
L 73.1875 25.484375 
L 73.1875 17.1875 
L 10.59375 17.1875 
z
" id="DejaVuSans-61"/>
      <path d="M 8.203125 72.90625 
L 55.078125 72.90625 
L 55.078125 68.703125 
L 28.609375 0 
L 18.3125 0 
L 43.21875 64.59375 
L 8.203125 64.59375 
z
" id="DejaVuSans-55"/>
      <path d="M 10.984375 1.515625 
L 10.984375 10.5 
Q 14.703125 8.734375 18.5 7.8125 
Q 22.3125 6.890625 25.984375 6.890625 
Q 35.75 6.890625 40.890625 13.453125 
Q 46.046875 20.015625 46.78125 33.40625 
Q 43.953125 29.203125 39.59375 26.953125 
Q 35.25 24.703125 29.984375 24.703125 
Q 19.046875 24.703125 12.671875 31.3125 
Q 6.296875 37.9375 6.296875 49.421875 
Q 6.296875 60.640625 12.9375 67.421875 
Q 19.578125 74.21875 30.609375 74.21875 
Q 43.265625 74.21875 49.921875 64.515625 
Q 56.59375 54.828125 56.59375 36.375 
Q 56.59375 19.140625 48.40625 8.859375 
Q 40.234375 -1.421875 26.421875 -1.421875 
Q 22.703125 -1.421875 18.890625 -0.6875 
Q 15.09375 0.046875 10.984375 1.515625 
z
M 30.609375 32.421875 
Q 37.25 32.421875 41.125 36.953125 
Q 45.015625 41.5 45.015625 49.421875 
Q 45.015625 57.28125 41.125 61.84375 
Q 37.25 66.40625 30.609375 66.40625 
Q 23.96875 66.40625 20.09375 61.84375 
Q 16.21875 57.28125 16.21875 49.421875 
Q 16.21875 41.5 20.09375 36.953125 
Q 23.96875 32.421875 30.609375 32.421875 
z
" id="DejaVuSans-57"/>
      <path d="M 40.578125 39.3125 
Q 47.65625 37.796875 51.625 33 
Q 55.609375 28.21875 55.609375 21.1875 
Q 55.609375 10.40625 48.1875 4.484375 
Q 40.765625 -1.421875 27.09375 -1.421875 
Q 22.515625 -1.421875 17.65625 -0.515625 
Q 12.796875 0.390625 7.625 2.203125 
L 7.625 11.71875 
Q 11.71875 9.328125 16.59375 8.109375 
Q 21.484375 6.890625 26.8125 6.890625 
Q 36.078125 6.890625 40.9375 10.546875 
Q 45.796875 14.203125 45.796875 21.1875 
Q 45.796875 27.640625 41.28125 31.265625 
Q 36.765625 34.90625 28.71875 34.90625 
L 20.21875 34.90625 
L 20.21875 43.015625 
L 29.109375 43.015625 
Q 36.375 43.015625 40.234375 45.921875 
Q 44.09375 48.828125 44.09375 54.296875 
Q 44.09375 59.90625 40.109375 62.90625 
Q 36.140625 65.921875 28.71875 65.921875 
Q 24.65625 65.921875 20.015625 65.03125 
Q 15.375 64.15625 9.8125 62.3125 
L 9.8125 71.09375 
Q 15.4375 72.65625 20.34375 73.4375 
Q 25.25 74.21875 29.59375 74.21875 
Q 40.828125 74.21875 47.359375 69.109375 
Q 53.90625 64.015625 53.90625 55.328125 
Q 53.90625 49.265625 50.4375 45.09375 
Q 46.96875 40.921875 40.578125 39.3125 
z
" id="DejaVuSans-51"/>
     </defs>
     <use xlink:href="#DejaVuSans-118"/>
     <use x="59.179688" xlink:href="#DejaVuSans-50"/>
     <use x="122.802734" xlink:href="#DejaVuSans-46"/>
     <use x="154.589844" xlink:href="#DejaVuSans-52"/>
     <use x="218.212891" xlink:href="#DejaVuSans-44"/>
     <use x="250" xlink:href="#DejaVuSans-32"/>
     <use x="281.787109" xlink:href="#DejaVuSans-104"/>
     <use x="345.166016" xlink:href="#DejaVuSans-118"/>
     <use x="401.720703" xlink:href="#DejaVuSans-45"/>
     <use x="437.804688" xlink:href="#DejaVuSans-104"/>
     <use x="501.183594" xlink:href="#DejaVuSans-97"/>
     <use x="562.462891" xlink:href="#DejaVuSans-115"/>
     <use x="614.5625" xlink:href="#DejaVuSans-104"/>
     <use x="677.941406" xlink:href="#DejaVuSans-61"/>
     <use x="761.730469" xlink:href="#DejaVuSans-102"/>
     <use x="796.935547" xlink:href="#DejaVuSans-102"/>
     <use x="832.140625" xlink:href="#DejaVuSans-48"/>
     <use x="895.763672" xlink:href="#DejaVuSans-101"/>
     <use x="957.287109" xlink:href="#DejaVuSans-55"/>
     <use x="1020.910156" xlink:href="#DejaVuSans-49"/>
     <use x="1084.533203" xlink:href="#DejaVuSans-101"/>
     <use x="1146.056641" xlink:href="#DejaVuSans-56"/>
     <use x="1209.679688" xlink:href="#DejaVuSans-99"/>
     <use x="1264.660156" xlink:href="#DejaVuSans-100"/>
     <use x="1328.136719" xlink:href="#DejaVuSans-57"/>
     <use x="1391.759766" xlink:href="#DejaVuSans-55"/>
     <use x="1455.382812" xlink:href="#DejaVuSans-56"/>
     <use x="1519.005859" xlink:href="#DejaVuSans-51"/>
     <use x="1582.628906" xlink:href="#DejaVuSans-55"/>
     <use x="1646.251953" xlink:href="#DejaVuSans-51"/>
    </g>
   </g>
  </g>
 </g>
 <defs>
  <clipPath id="p649159deb3">
   <rect height="295.488" width="281.088" x="57.6" y="3.456"/>
  </clipPath>
 </defs>
</svg>
