<?xml version="1.0" encoding="utf-8" standalone="no"?>
<!DOCTYPE svg PUBLIC "-//W3C//DTD SVG 1.1//EN"
  "http://www.w3.org/Graphics/SVG/1.1/DTD/svg11.dtd">
<!-- Created with matplotlib (https://matplotlib.org/) -->
<svg height="345.6pt" version="1.1" viewBox="0 0 460.8 345.6" width="460.8pt" xmlns="http://www.w3.org/2000/svg" xmlns:xlink="http://www.w3.org/1999/xlink">
 <metadata>
  <rdf:RDF xmlns:cc="http://creativecommons.org/ns#" xmlns:dc="http://purl.org/dc/elements/1.1/" xmlns:rdf="http://www.w3.org/1999/02/22-rdf-syntax-ns#">
   <cc:Work>
    <dc:type rdf:resource="http://purl.org/dc/dcmitype/StillImage"/>
    <dc:date>2021-03-30T18:25:41.277832</dc:date>
    <dc:format>image/svg+xml</dc:format>
    <dc:creator>
     <cc:Agent>
      <dc:title>Matplotlib v3.3.4, https://matplotlib.org/</dc:title>
     </cc:Agent>
    </dc:creator>
   </cc:Work>
  </rdf:RDF>
 </metadata>
 <defs>
  <style type="text/css">*{stroke-linecap:butt;stroke-linejoin:round;}</style>
 </defs>
 <g id="figure_1">
  <g id="patch_1">
   <path d="M 0 345.6 
L 460.8 345.6 
L 460.8 0 
L 0 0 
z
" style="fill:#ffffff;"/>
  </g>
  <g id="axes_1">
   <g id="patch_2">
    <path d="M 57.6 298.944 
L 338.688 298.944 
L 338.688 3.456 
L 57.6 3.456 
z
" style="fill:#ffffff;"/>
   </g>
   <g id="line2d_1">
    <path d="M 35.086164 298.944 
L 35.086164 296.421911 
L 51.379845 296.421911 
L 51.379845 295.160866 
L 53.708537 295.160866 
L 53.708537 293.899821 
L 119.911382 293.899821 
L 119.911382 291.377732 
L 123.672636 291.377732 
L 123.672636 288.855642 
L 137.030101 288.855642 
L 137.030101 286.333553 
L 139.848257 286.333553 
L 139.848257 283.811463 
L 142.57328 283.811463 
L 142.57328 281.289374 
L 143.51512 281.289374 
L 143.51512 278.767284 
L 146.202494 278.767284 
L 146.202494 277.50624 
L 146.286304 277.50624 
L 146.286304 276.245195 
L 150.577707 276.245195 
L 150.577707 273.723105 
L 153.706228 273.723105 
L 153.706228 269.939971 
L 154.921277 269.939971 
L 154.921277 267.417882 
L 154.981993 267.417882 
L 154.981993 266.156837 
L 162.728843 266.156837 
L 162.728843 262.373703 
L 163.775708 262.373703 
L 163.775708 258.590569 
L 168.447462 258.590569 
L 168.447462 256.068479 
L 170.766406 256.068479 
L 170.766406 253.54639 
L 171.088751 253.54639 
L 171.088751 252.285345 
L 188.842456 252.285345 
L 188.842456 251.0243 
L 191.856994 251.0243 
L 191.856994 249.763256 
L 218.057626 249.763256 
L 218.057626 247.241166 
L 221.399709 247.241166 
L 221.399709 244.719077 
L 235.187859 244.719077 
L 235.187859 240.935943 
L 238.977609 240.935943 
L 238.977609 238.413853 
L 242.678426 238.413853 
L 242.678426 234.630719 
L 244.078055 234.630719 
L 244.078055 233.369674 
L 252.053842 233.369674 
L 252.053842 230.847585 
L 258.99448 230.847585 
L 258.99448 228.325495 
L 260.188121 228.325495 
L 260.188121 225.803406 
L 261.252526 225.803406 
L 261.252526 223.281316 
L 261.437601 223.281316 
L 261.437601 219.498182 
L 262.731833 219.498182 
L 262.731833 216.976093 
L 264.855384 216.976093 
L 264.855384 215.715048 
L 271.74787 215.715048 
L 271.74787 211.931914 
L 274.905143 211.931914 
L 274.905143 209.409825 
L 275.854026 209.409825 
L 275.854026 205.62669 
L 278.671013 205.62669 
L 278.671013 204.365646 
L 282.707241 204.365646 
L 282.707241 203.104601 
L 283.334162 203.104601 
L 283.334162 200.582511 
L 286.18827 200.582511 
L 286.18827 196.799377 
L 297.238642 196.799377 
L 297.238642 194.277288 
L 297.687589 194.277288 
L 297.687589 193.016243 
L 298.281205 193.016243 
L 298.281205 189.233109 
L 298.511684 189.233109 
L 298.511684 186.711019 
L 338.688 186.711019 
" style="fill:none;stroke:#f5deb3;stroke-linecap:square;stroke-width:4;"/>
   </g>
   <g id="line2d_2">
    <defs>
     <path d="M -0 7.778175 
L 7.778175 0 
L 0 -7.778175 
L -7.778175 -0 
z
" id="m3a2579561a" style="stroke:#f5deb3;stroke-linejoin:miter;stroke-width:1.5;"/>
    </defs>
    <g>
     <use style="fill:#f5deb3;stroke:#f5deb3;stroke-linejoin:miter;stroke-width:1.5;" x="163.775708" xlink:href="#m3a2579561a" y="258.590569"/>
     <use style="fill:#f5deb3;stroke:#f5deb3;stroke-linejoin:miter;stroke-width:1.5;" x="235.187859" xlink:href="#m3a2579561a" y="240.935943"/>
     <use style="fill:#f5deb3;stroke:#f5deb3;stroke-linejoin:miter;stroke-width:1.5;" x="278.671013" xlink:href="#m3a2579561a" y="204.365646"/>
     <use style="fill:#f5deb3;stroke:#f5deb3;stroke-linejoin:miter;stroke-width:1.5;" x="298.511684" xlink:href="#m3a2579561a" y="186.711019"/>
     <use style="fill:#f5deb3;stroke:#f5deb3;stroke-linejoin:miter;stroke-width:1.5;" x="338.688" xlink:href="#m3a2579561a" y="186.711019"/>
    </g>
   </g>
   <g id="line2d_3">
    <path style="fill:none;stroke:#f5deb3;stroke-linecap:square;stroke-width:4;"/>
    <g/>
   </g>
   <g id="line2d_4">
    <path d="M 338.688 186.711019 
L 369.60768 12.232871 
" style="fill:none;stroke:#f5deb3;stroke-linecap:square;stroke-width:4;"/>
    <g>
     <use style="fill:#f5deb3;stroke:#f5deb3;stroke-linejoin:miter;stroke-width:1.5;" x="338.688" xlink:href="#m3a2579561a" y="186.711019"/>
     <use style="fill:#f5deb3;stroke:#f5deb3;stroke-linejoin:miter;stroke-width:1.5;" x="369.60768" xlink:href="#m3a2579561a" y="12.232871"/>
    </g>
   </g>
   <g id="matplotlib.axis_1">
    <g id="xtick_1">
     <g id="line2d_5">
      <path clip-path="url(#pdd723f688d)" d="M 57.6 298.944 
L 57.6 3.456 
" style="fill:none;stroke:#b0b0b0;stroke-linecap:square;stroke-width:0.8;"/>
     </g>
     <g id="line2d_6">
      <defs>
       <path d="M 0 0 
L 0 3.5 
" id="mbaae636838" style="stroke:#000000;stroke-width:0.8;"/>
      </defs>
      <g>
       <use style="stroke:#000000;stroke-width:0.8;" x="57.6" xlink:href="#mbaae636838" y="298.944"/>
      </g>
     </g>
     <g id="text_1">
      <!-- 0 -->
      <g transform="translate(51.2375 321.140875)scale(0.2 -0.2)">
       <defs>
        <path d="M 31.78125 66.40625 
Q 24.171875 66.40625 20.328125 58.90625 
Q 16.5 51.421875 16.5 36.375 
Q 16.5 21.390625 20.328125 13.890625 
Q 24.171875 6.390625 31.78125 6.390625 
Q 39.453125 6.390625 43.28125 13.890625 
Q 47.125 21.390625 47.125 36.375 
Q 47.125 51.421875 43.28125 58.90625 
Q 39.453125 66.40625 31.78125 66.40625 
z
M 31.78125 74.21875 
Q 44.046875 74.21875 50.515625 64.515625 
Q 56.984375 54.828125 56.984375 36.375 
Q 56.984375 17.96875 50.515625 8.265625 
Q 44.046875 -1.421875 31.78125 -1.421875 
Q 19.53125 -1.421875 13.0625 8.265625 
Q 6.59375 17.96875 6.59375 36.375 
Q 6.59375 54.828125 13.0625 64.515625 
Q 19.53125 74.21875 31.78125 74.21875 
z
" id="DejaVuSans-48"/>
       </defs>
       <use xlink:href="#DejaVuSans-48"/>
      </g>
     </g>
    </g>
    <g id="xtick_2">
     <g id="line2d_7">
      <path clip-path="url(#pdd723f688d)" d="M 137.910857 298.944 
L 137.910857 3.456 
" style="fill:none;stroke:#b0b0b0;stroke-linecap:square;stroke-width:0.8;"/>
     </g>
     <g id="line2d_8">
      <g>
       <use style="stroke:#000000;stroke-width:0.8;" x="137.910857" xlink:href="#mbaae636838" y="298.944"/>
      </g>
     </g>
     <g id="text_2">
      <!-- 2 -->
      <g transform="translate(131.548357 321.140875)scale(0.2 -0.2)">
       <defs>
        <path d="M 19.1875 8.296875 
L 53.609375 8.296875 
L 53.609375 0 
L 7.328125 0 
L 7.328125 8.296875 
Q 12.9375 14.109375 22.625 23.890625 
Q 32.328125 33.6875 34.8125 36.53125 
Q 39.546875 41.84375 41.421875 45.53125 
Q 43.3125 49.21875 43.3125 52.78125 
Q 43.3125 58.59375 39.234375 62.25 
Q 35.15625 65.921875 28.609375 65.921875 
Q 23.96875 65.921875 18.8125 64.3125 
Q 13.671875 62.703125 7.8125 59.421875 
L 7.8125 69.390625 
Q 13.765625 71.78125 18.9375 73 
Q 24.125 74.21875 28.421875 74.21875 
Q 39.75 74.21875 46.484375 68.546875 
Q 53.21875 62.890625 53.21875 53.421875 
Q 53.21875 48.921875 51.53125 44.890625 
Q 49.859375 40.875 45.40625 35.40625 
Q 44.1875 33.984375 37.640625 27.21875 
Q 31.109375 20.453125 19.1875 8.296875 
z
" id="DejaVuSans-50"/>
       </defs>
       <use xlink:href="#DejaVuSans-50"/>
      </g>
     </g>
    </g>
    <g id="xtick_3">
     <g id="line2d_9">
      <path clip-path="url(#pdd723f688d)" d="M 218.221714 298.944 
L 218.221714 3.456 
" style="fill:none;stroke:#b0b0b0;stroke-linecap:square;stroke-width:0.8;"/>
     </g>
     <g id="line2d_10">
      <g>
       <use style="stroke:#000000;stroke-width:0.8;" x="218.221714" xlink:href="#mbaae636838" y="298.944"/>
      </g>
     </g>
     <g id="text_3">
      <!-- 4 -->
      <g transform="translate(211.859214 321.140875)scale(0.2 -0.2)">
       <defs>
        <path d="M 37.796875 64.3125 
L 12.890625 25.390625 
L 37.796875 25.390625 
z
M 35.203125 72.90625 
L 47.609375 72.90625 
L 47.609375 25.390625 
L 58.015625 25.390625 
L 58.015625 17.1875 
L 47.609375 17.1875 
L 47.609375 0 
L 37.796875 0 
L 37.796875 17.1875 
L 4.890625 17.1875 
L 4.890625 26.703125 
z
" id="DejaVuSans-52"/>
       </defs>
       <use xlink:href="#DejaVuSans-52"/>
      </g>
     </g>
    </g>
    <g id="xtick_4">
     <g id="line2d_11">
      <path clip-path="url(#pdd723f688d)" d="M 298.532571 298.944 
L 298.532571 3.456 
" style="fill:none;stroke:#b0b0b0;stroke-linecap:square;stroke-width:0.8;"/>
     </g>
     <g id="line2d_12">
      <g>
       <use style="stroke:#000000;stroke-width:0.8;" x="298.532571" xlink:href="#mbaae636838" y="298.944"/>
      </g>
     </g>
     <g id="text_4">
      <!-- 6 -->
      <g transform="translate(292.170071 321.140875)scale(0.2 -0.2)">
       <defs>
        <path d="M 33.015625 40.375 
Q 26.375 40.375 22.484375 35.828125 
Q 18.609375 31.296875 18.609375 23.390625 
Q 18.609375 15.53125 22.484375 10.953125 
Q 26.375 6.390625 33.015625 6.390625 
Q 39.65625 6.390625 43.53125 10.953125 
Q 47.40625 15.53125 47.40625 23.390625 
Q 47.40625 31.296875 43.53125 35.828125 
Q 39.65625 40.375 33.015625 40.375 
z
M 52.59375 71.296875 
L 52.59375 62.3125 
Q 48.875 64.0625 45.09375 64.984375 
Q 41.3125 65.921875 37.59375 65.921875 
Q 27.828125 65.921875 22.671875 59.328125 
Q 17.53125 52.734375 16.796875 39.40625 
Q 19.671875 43.65625 24.015625 45.921875 
Q 28.375 48.1875 33.59375 48.1875 
Q 44.578125 48.1875 50.953125 41.515625 
Q 57.328125 34.859375 57.328125 23.390625 
Q 57.328125 12.15625 50.6875 5.359375 
Q 44.046875 -1.421875 33.015625 -1.421875 
Q 20.359375 -1.421875 13.671875 8.265625 
Q 6.984375 17.96875 6.984375 36.375 
Q 6.984375 53.65625 15.1875 63.9375 
Q 23.390625 74.21875 37.203125 74.21875 
Q 40.921875 74.21875 44.703125 73.484375 
Q 48.484375 72.75 52.59375 71.296875 
z
" id="DejaVuSans-54"/>
       </defs>
       <use xlink:href="#DejaVuSans-54"/>
      </g>
     </g>
    </g>
    <g id="xtick_5">
     <g id="line2d_13">
      <path clip-path="url(#pdd723f688d)" d="M 97.755429 298.944 
L 97.755429 3.456 
" style="fill:none;stroke:#b0b0b0;stroke-linecap:square;stroke-width:0.8;"/>
     </g>
     <g id="line2d_14">
      <defs>
       <path d="M 0 0 
L 0 2 
" id="m38aa95a0f1" style="stroke:#000000;stroke-width:0.6;"/>
      </defs>
      <g>
       <use style="stroke:#000000;stroke-width:0.6;" x="97.755429" xlink:href="#m38aa95a0f1" y="298.944"/>
      </g>
     </g>
    </g>
    <g id="xtick_6">
     <g id="line2d_15">
      <path clip-path="url(#pdd723f688d)" d="M 178.066286 298.944 
L 178.066286 3.456 
" style="fill:none;stroke:#b0b0b0;stroke-linecap:square;stroke-width:0.8;"/>
     </g>
     <g id="line2d_16">
      <g>
       <use style="stroke:#000000;stroke-width:0.6;" x="178.066286" xlink:href="#m38aa95a0f1" y="298.944"/>
      </g>
     </g>
    </g>
    <g id="xtick_7">
     <g id="line2d_17">
      <path clip-path="url(#pdd723f688d)" d="M 258.377143 298.944 
L 258.377143 3.456 
" style="fill:none;stroke:#b0b0b0;stroke-linecap:square;stroke-width:0.8;"/>
     </g>
     <g id="line2d_18">
      <g>
       <use style="stroke:#000000;stroke-width:0.6;" x="258.377143" xlink:href="#m38aa95a0f1" y="298.944"/>
      </g>
     </g>
    </g>
    <g id="xtick_8">
     <g id="line2d_19">
      <path clip-path="url(#pdd723f688d)" d="M 338.688 298.944 
L 338.688 3.456 
" style="fill:none;stroke:#b0b0b0;stroke-linecap:square;stroke-width:0.8;"/>
     </g>
     <g id="line2d_20">
      <g>
       <use style="stroke:#000000;stroke-width:0.6;" x="338.688" xlink:href="#m38aa95a0f1" y="298.944"/>
      </g>
     </g>
    </g>
    <g id="text_5">
     <!-- log10(# f-evals / dimension) -->
     <g transform="translate(77.764078 342.217594)scale(0.17 -0.17)">
      <defs>
       <path d="M 9.421875 75.984375 
L 18.40625 75.984375 
L 18.40625 0 
L 9.421875 0 
z
" id="DejaVuSans-108"/>
       <path d="M 30.609375 48.390625 
Q 23.390625 48.390625 19.1875 42.75 
Q 14.984375 37.109375 14.984375 27.296875 
Q 14.984375 17.484375 19.15625 11.84375 
Q 23.34375 6.203125 30.609375 6.203125 
Q 37.796875 6.203125 41.984375 11.859375 
Q 46.1875 17.53125 46.1875 27.296875 
Q 46.1875 37.015625 41.984375 42.703125 
Q 37.796875 48.390625 30.609375 48.390625 
z
M 30.609375 56 
Q 42.328125 56 49.015625 48.375 
Q 55.71875 40.765625 55.71875 27.296875 
Q 55.71875 13.875 49.015625 6.21875 
Q 42.328125 -1.421875 30.609375 -1.421875 
Q 18.84375 -1.421875 12.171875 6.21875 
Q 5.515625 13.875 5.515625 27.296875 
Q 5.515625 40.765625 12.171875 48.375 
Q 18.84375 56 30.609375 56 
z
" id="DejaVuSans-111"/>
       <path d="M 45.40625 27.984375 
Q 45.40625 37.75 41.375 43.109375 
Q 37.359375 48.484375 30.078125 48.484375 
Q 22.859375 48.484375 18.828125 43.109375 
Q 14.796875 37.75 14.796875 27.984375 
Q 14.796875 18.265625 18.828125 12.890625 
Q 22.859375 7.515625 30.078125 7.515625 
Q 37.359375 7.515625 41.375 12.890625 
Q 45.40625 18.265625 45.40625 27.984375 
z
M 54.390625 6.78125 
Q 54.390625 -7.171875 48.1875 -13.984375 
Q 42 -20.796875 29.203125 -20.796875 
Q 24.46875 -20.796875 20.265625 -20.09375 
Q 16.0625 -19.390625 12.109375 -17.921875 
L 12.109375 -9.1875 
Q 16.0625 -11.328125 19.921875 -12.34375 
Q 23.78125 -13.375 27.78125 -13.375 
Q 36.625 -13.375 41.015625 -8.765625 
Q 45.40625 -4.15625 45.40625 5.171875 
L 45.40625 9.625 
Q 42.625 4.78125 38.28125 2.390625 
Q 33.9375 0 27.875 0 
Q 17.828125 0 11.671875 7.65625 
Q 5.515625 15.328125 5.515625 27.984375 
Q 5.515625 40.671875 11.671875 48.328125 
Q 17.828125 56 27.875 56 
Q 33.9375 56 38.28125 53.609375 
Q 42.625 51.21875 45.40625 46.390625 
L 45.40625 54.6875 
L 54.390625 54.6875 
z
" id="DejaVuSans-103"/>
       <path d="M 12.40625 8.296875 
L 28.515625 8.296875 
L 28.515625 63.921875 
L 10.984375 60.40625 
L 10.984375 69.390625 
L 28.421875 72.90625 
L 38.28125 72.90625 
L 38.28125 8.296875 
L 54.390625 8.296875 
L 54.390625 0 
L 12.40625 0 
z
" id="DejaVuSans-49"/>
       <path d="M 31 75.875 
Q 24.46875 64.65625 21.28125 53.65625 
Q 18.109375 42.671875 18.109375 31.390625 
Q 18.109375 20.125 21.3125 9.0625 
Q 24.515625 -2 31 -13.1875 
L 23.1875 -13.1875 
Q 15.875 -1.703125 12.234375 9.375 
Q 8.59375 20.453125 8.59375 31.390625 
Q 8.59375 42.28125 12.203125 53.3125 
Q 15.828125 64.359375 23.1875 75.875 
z
" id="DejaVuSans-40"/>
       <path d="M 51.125 44 
L 36.921875 44 
L 32.8125 27.6875 
L 47.125 27.6875 
z
M 43.796875 71.78125 
L 38.71875 51.515625 
L 52.984375 51.515625 
L 58.109375 71.78125 
L 65.921875 71.78125 
L 60.890625 51.515625 
L 76.125 51.515625 
L 76.125 44 
L 58.984375 44 
L 54.984375 27.6875 
L 70.515625 27.6875 
L 70.515625 20.21875 
L 53.078125 20.21875 
L 48 0 
L 40.1875 0 
L 45.21875 20.21875 
L 30.90625 20.21875 
L 25.875 0 
L 18.015625 0 
L 23.09375 20.21875 
L 7.71875 20.21875 
L 7.71875 27.6875 
L 24.90625 27.6875 
L 29 44 
L 13.28125 44 
L 13.28125 51.515625 
L 30.90625 51.515625 
L 35.890625 71.78125 
z
" id="DejaVuSans-35"/>
       <path id="DejaVuSans-32"/>
       <path d="M 37.109375 75.984375 
L 37.109375 68.5 
L 28.515625 68.5 
Q 23.6875 68.5 21.796875 66.546875 
Q 19.921875 64.59375 19.921875 59.515625 
L 19.921875 54.6875 
L 34.71875 54.6875 
L 34.71875 47.703125 
L 19.921875 47.703125 
L 19.921875 0 
L 10.890625 0 
L 10.890625 47.703125 
L 2.296875 47.703125 
L 2.296875 54.6875 
L 10.890625 54.6875 
L 10.890625 58.5 
Q 10.890625 67.625 15.140625 71.796875 
Q 19.390625 75.984375 28.609375 75.984375 
z
" id="DejaVuSans-102"/>
       <path d="M 4.890625 31.390625 
L 31.203125 31.390625 
L 31.203125 23.390625 
L 4.890625 23.390625 
z
" id="DejaVuSans-45"/>
       <path d="M 56.203125 29.59375 
L 56.203125 25.203125 
L 14.890625 25.203125 
Q 15.484375 15.921875 20.484375 11.0625 
Q 25.484375 6.203125 34.421875 6.203125 
Q 39.59375 6.203125 44.453125 7.46875 
Q 49.3125 8.734375 54.109375 11.28125 
L 54.109375 2.78125 
Q 49.265625 0.734375 44.1875 -0.34375 
Q 39.109375 -1.421875 33.890625 -1.421875 
Q 20.796875 -1.421875 13.15625 6.1875 
Q 5.515625 13.8125 5.515625 26.8125 
Q 5.515625 40.234375 12.765625 48.109375 
Q 20.015625 56 32.328125 56 
Q 43.359375 56 49.78125 48.890625 
Q 56.203125 41.796875 56.203125 29.59375 
z
M 47.21875 32.234375 
Q 47.125 39.59375 43.09375 43.984375 
Q 39.0625 48.390625 32.421875 48.390625 
Q 24.90625 48.390625 20.390625 44.140625 
Q 15.875 39.890625 15.1875 32.171875 
z
" id="DejaVuSans-101"/>
       <path d="M 2.984375 54.6875 
L 12.5 54.6875 
L 29.59375 8.796875 
L 46.6875 54.6875 
L 56.203125 54.6875 
L 35.6875 0 
L 23.484375 0 
z
" id="DejaVuSans-118"/>
       <path d="M 34.28125 27.484375 
Q 23.390625 27.484375 19.1875 25 
Q 14.984375 22.515625 14.984375 16.5 
Q 14.984375 11.71875 18.140625 8.90625 
Q 21.296875 6.109375 26.703125 6.109375 
Q 34.1875 6.109375 38.703125 11.40625 
Q 43.21875 16.703125 43.21875 25.484375 
L 43.21875 27.484375 
z
M 52.203125 31.203125 
L 52.203125 0 
L 43.21875 0 
L 43.21875 8.296875 
Q 40.140625 3.328125 35.546875 0.953125 
Q 30.953125 -1.421875 24.3125 -1.421875 
Q 15.921875 -1.421875 10.953125 3.296875 
Q 6 8.015625 6 15.921875 
Q 6 25.140625 12.171875 29.828125 
Q 18.359375 34.515625 30.609375 34.515625 
L 43.21875 34.515625 
L 43.21875 35.40625 
Q 43.21875 41.609375 39.140625 45 
Q 35.0625 48.390625 27.6875 48.390625 
Q 23 48.390625 18.546875 47.265625 
Q 14.109375 46.140625 10.015625 43.890625 
L 10.015625 52.203125 
Q 14.9375 54.109375 19.578125 55.046875 
Q 24.21875 56 28.609375 56 
Q 40.484375 56 46.34375 49.84375 
Q 52.203125 43.703125 52.203125 31.203125 
z
" id="DejaVuSans-97"/>
       <path d="M 44.28125 53.078125 
L 44.28125 44.578125 
Q 40.484375 46.53125 36.375 47.5 
Q 32.28125 48.484375 27.875 48.484375 
Q 21.1875 48.484375 17.84375 46.4375 
Q 14.5 44.390625 14.5 40.28125 
Q 14.5 37.15625 16.890625 35.375 
Q 19.28125 33.59375 26.515625 31.984375 
L 29.59375 31.296875 
Q 39.15625 29.25 43.1875 25.515625 
Q 47.21875 21.78125 47.21875 15.09375 
Q 47.21875 7.46875 41.1875 3.015625 
Q 35.15625 -1.421875 24.609375 -1.421875 
Q 20.21875 -1.421875 15.453125 -0.5625 
Q 10.6875 0.296875 5.421875 2 
L 5.421875 11.28125 
Q 10.40625 8.6875 15.234375 7.390625 
Q 20.0625 6.109375 24.8125 6.109375 
Q 31.15625 6.109375 34.5625 8.28125 
Q 37.984375 10.453125 37.984375 14.40625 
Q 37.984375 18.0625 35.515625 20.015625 
Q 33.0625 21.96875 24.703125 23.78125 
L 21.578125 24.515625 
Q 13.234375 26.265625 9.515625 29.90625 
Q 5.8125 33.546875 5.8125 39.890625 
Q 5.8125 47.609375 11.28125 51.796875 
Q 16.75 56 26.8125 56 
Q 31.78125 56 36.171875 55.265625 
Q 40.578125 54.546875 44.28125 53.078125 
z
" id="DejaVuSans-115"/>
       <path d="M 25.390625 72.90625 
L 33.6875 72.90625 
L 8.296875 -9.28125 
L 0 -9.28125 
z
" id="DejaVuSans-47"/>
       <path d="M 45.40625 46.390625 
L 45.40625 75.984375 
L 54.390625 75.984375 
L 54.390625 0 
L 45.40625 0 
L 45.40625 8.203125 
Q 42.578125 3.328125 38.25 0.953125 
Q 33.9375 -1.421875 27.875 -1.421875 
Q 17.96875 -1.421875 11.734375 6.484375 
Q 5.515625 14.40625 5.515625 27.296875 
Q 5.515625 40.1875 11.734375 48.09375 
Q 17.96875 56 27.875 56 
Q 33.9375 56 38.25 53.625 
Q 42.578125 51.265625 45.40625 46.390625 
z
M 14.796875 27.296875 
Q 14.796875 17.390625 18.875 11.75 
Q 22.953125 6.109375 30.078125 6.109375 
Q 37.203125 6.109375 41.296875 11.75 
Q 45.40625 17.390625 45.40625 27.296875 
Q 45.40625 37.203125 41.296875 42.84375 
Q 37.203125 48.484375 30.078125 48.484375 
Q 22.953125 48.484375 18.875 42.84375 
Q 14.796875 37.203125 14.796875 27.296875 
z
" id="DejaVuSans-100"/>
       <path d="M 9.421875 54.6875 
L 18.40625 54.6875 
L 18.40625 0 
L 9.421875 0 
z
M 9.421875 75.984375 
L 18.40625 75.984375 
L 18.40625 64.59375 
L 9.421875 64.59375 
z
" id="DejaVuSans-105"/>
       <path d="M 52 44.1875 
Q 55.375 50.25 60.0625 53.125 
Q 64.75 56 71.09375 56 
Q 79.640625 56 84.28125 50.015625 
Q 88.921875 44.046875 88.921875 33.015625 
L 88.921875 0 
L 79.890625 0 
L 79.890625 32.71875 
Q 79.890625 40.578125 77.09375 44.375 
Q 74.3125 48.1875 68.609375 48.1875 
Q 61.625 48.1875 57.5625 43.546875 
Q 53.515625 38.921875 53.515625 30.90625 
L 53.515625 0 
L 44.484375 0 
L 44.484375 32.71875 
Q 44.484375 40.625 41.703125 44.40625 
Q 38.921875 48.1875 33.109375 48.1875 
Q 26.21875 48.1875 22.15625 43.53125 
Q 18.109375 38.875 18.109375 30.90625 
L 18.109375 0 
L 9.078125 0 
L 9.078125 54.6875 
L 18.109375 54.6875 
L 18.109375 46.1875 
Q 21.1875 51.21875 25.484375 53.609375 
Q 29.78125 56 35.6875 56 
Q 41.65625 56 45.828125 52.96875 
Q 50 49.953125 52 44.1875 
z
" id="DejaVuSans-109"/>
       <path d="M 54.890625 33.015625 
L 54.890625 0 
L 45.90625 0 
L 45.90625 32.71875 
Q 45.90625 40.484375 42.875 44.328125 
Q 39.84375 48.1875 33.796875 48.1875 
Q 26.515625 48.1875 22.3125 43.546875 
Q 18.109375 38.921875 18.109375 30.90625 
L 18.109375 0 
L 9.078125 0 
L 9.078125 54.6875 
L 18.109375 54.6875 
L 18.109375 46.1875 
Q 21.34375 51.125 25.703125 53.5625 
Q 30.078125 56 35.796875 56 
Q 45.21875 56 50.046875 50.171875 
Q 54.890625 44.34375 54.890625 33.015625 
z
" id="DejaVuSans-110"/>
       <path d="M 8.015625 75.875 
L 15.828125 75.875 
Q 23.140625 64.359375 26.78125 53.3125 
Q 30.421875 42.28125 30.421875 31.390625 
Q 30.421875 20.453125 26.78125 9.375 
Q 23.140625 -1.703125 15.828125 -13.1875 
L 8.015625 -13.1875 
Q 14.5 -2 17.703125 9.0625 
Q 20.90625 20.125 20.90625 31.390625 
Q 20.90625 42.671875 17.703125 53.65625 
Q 14.5 64.65625 8.015625 75.875 
z
" id="DejaVuSans-41"/>
      </defs>
      <use xlink:href="#DejaVuSans-108"/>
      <use x="27.783203" xlink:href="#DejaVuSans-111"/>
      <use x="88.964844" xlink:href="#DejaVuSans-103"/>
      <use x="152.441406" xlink:href="#DejaVuSans-49"/>
      <use x="216.064453" xlink:href="#DejaVuSans-48"/>
      <use x="279.6875" xlink:href="#DejaVuSans-40"/>
      <use x="318.701172" xlink:href="#DejaVuSans-35"/>
      <use x="402.490234" xlink:href="#DejaVuSans-32"/>
      <use x="434.277344" xlink:href="#DejaVuSans-102"/>
      <use x="463.982422" xlink:href="#DejaVuSans-45"/>
      <use x="500.066406" xlink:href="#DejaVuSans-101"/>
      <use x="561.589844" xlink:href="#DejaVuSans-118"/>
      <use x="620.769531" xlink:href="#DejaVuSans-97"/>
      <use x="682.048828" xlink:href="#DejaVuSans-108"/>
      <use x="709.832031" xlink:href="#DejaVuSans-115"/>
      <use x="761.931641" xlink:href="#DejaVuSans-32"/>
      <use x="793.71875" xlink:href="#DejaVuSans-47"/>
      <use x="827.410156" xlink:href="#DejaVuSans-32"/>
      <use x="859.197266" xlink:href="#DejaVuSans-100"/>
      <use x="922.673828" xlink:href="#DejaVuSans-105"/>
      <use x="950.457031" xlink:href="#DejaVuSans-109"/>
      <use x="1047.869141" xlink:href="#DejaVuSans-101"/>
      <use x="1109.392578" xlink:href="#DejaVuSans-110"/>
      <use x="1172.771484" xlink:href="#DejaVuSans-115"/>
      <use x="1224.871094" xlink:href="#DejaVuSans-105"/>
      <use x="1252.654297" xlink:href="#DejaVuSans-111"/>
      <use x="1313.835938" xlink:href="#DejaVuSans-110"/>
      <use x="1377.214844" xlink:href="#DejaVuSans-41"/>
     </g>
    </g>
   </g>
   <g id="matplotlib.axis_2">
    <g id="ytick_1">
     <g id="line2d_21">
      <path clip-path="url(#pdd723f688d)" d="M 57.6 298.944 
L 338.688 298.944 
" style="fill:none;stroke:#b0b0b0;stroke-linecap:square;stroke-width:0.8;"/>
     </g>
     <g id="line2d_22">
      <defs>
       <path d="M 0 0 
L -3.5 0 
" id="me4fde27328" style="stroke:#000000;stroke-width:0.8;"/>
      </defs>
      <g>
       <use style="stroke:#000000;stroke-width:0.8;" x="57.6" xlink:href="#me4fde27328" y="298.944"/>
      </g>
     </g>
     <g id="text_6">
      <!-- 0.0 -->
      <g transform="translate(25.155 305.02275)scale(0.16 -0.16)">
       <defs>
        <path d="M 10.6875 12.40625 
L 21 12.40625 
L 21 0 
L 10.6875 0 
z
" id="DejaVuSans-46"/>
       </defs>
       <use xlink:href="#DejaVuSans-48"/>
       <use x="63.623047" xlink:href="#DejaVuSans-46"/>
       <use x="95.410156" xlink:href="#DejaVuSans-48"/>
      </g>
     </g>
    </g>
    <g id="ytick_2">
     <g id="line2d_23">
      <path clip-path="url(#pdd723f688d)" d="M 57.6 240.431525 
L 338.688 240.431525 
" style="fill:none;stroke:#b0b0b0;stroke-linecap:square;stroke-width:0.8;"/>
     </g>
     <g id="line2d_24">
      <g>
       <use style="stroke:#000000;stroke-width:0.8;" x="57.6" xlink:href="#me4fde27328" y="240.431525"/>
      </g>
     </g>
     <g id="text_7">
      <!-- 0.2 -->
      <g transform="translate(25.155 246.510275)scale(0.16 -0.16)">
       <use xlink:href="#DejaVuSans-48"/>
       <use x="63.623047" xlink:href="#DejaVuSans-46"/>
       <use x="95.410156" xlink:href="#DejaVuSans-50"/>
      </g>
     </g>
    </g>
    <g id="ytick_3">
     <g id="line2d_25">
      <path clip-path="url(#pdd723f688d)" d="M 57.6 181.91905 
L 338.688 181.91905 
" style="fill:none;stroke:#b0b0b0;stroke-linecap:square;stroke-width:0.8;"/>
     </g>
     <g id="line2d_26">
      <g>
       <use style="stroke:#000000;stroke-width:0.8;" x="57.6" xlink:href="#me4fde27328" y="181.91905"/>
      </g>
     </g>
     <g id="text_8">
      <!-- 0.4 -->
      <g transform="translate(25.155 187.9978)scale(0.16 -0.16)">
       <use xlink:href="#DejaVuSans-48"/>
       <use x="63.623047" xlink:href="#DejaVuSans-46"/>
       <use x="95.410156" xlink:href="#DejaVuSans-52"/>
      </g>
     </g>
    </g>
    <g id="ytick_4">
     <g id="line2d_27">
      <path clip-path="url(#pdd723f688d)" d="M 57.6 123.406574 
L 338.688 123.406574 
" style="fill:none;stroke:#b0b0b0;stroke-linecap:square;stroke-width:0.8;"/>
     </g>
     <g id="line2d_28">
      <g>
       <use style="stroke:#000000;stroke-width:0.8;" x="57.6" xlink:href="#me4fde27328" y="123.406574"/>
      </g>
     </g>
     <g id="text_9">
      <!-- 0.6 -->
      <g transform="translate(25.155 129.485324)scale(0.16 -0.16)">
       <use xlink:href="#DejaVuSans-48"/>
       <use x="63.623047" xlink:href="#DejaVuSans-46"/>
       <use x="95.410156" xlink:href="#DejaVuSans-54"/>
      </g>
     </g>
    </g>
    <g id="ytick_5">
     <g id="line2d_29">
      <path clip-path="url(#pdd723f688d)" d="M 57.6 64.894099 
L 338.688 64.894099 
" style="fill:none;stroke:#b0b0b0;stroke-linecap:square;stroke-width:0.8;"/>
     </g>
     <g id="line2d_30">
      <g>
       <use style="stroke:#000000;stroke-width:0.8;" x="57.6" xlink:href="#me4fde27328" y="64.894099"/>
      </g>
     </g>
     <g id="text_10">
      <!-- 0.8 -->
      <g transform="translate(25.155 70.972849)scale(0.16 -0.16)">
       <defs>
        <path d="M 31.78125 34.625 
Q 24.75 34.625 20.71875 30.859375 
Q 16.703125 27.09375 16.703125 20.515625 
Q 16.703125 13.921875 20.71875 10.15625 
Q 24.75 6.390625 31.78125 6.390625 
Q 38.8125 6.390625 42.859375 10.171875 
Q 46.921875 13.96875 46.921875 20.515625 
Q 46.921875 27.09375 42.890625 30.859375 
Q 38.875 34.625 31.78125 34.625 
z
M 21.921875 38.8125 
Q 15.578125 40.375 12.03125 44.71875 
Q 8.5 49.078125 8.5 55.328125 
Q 8.5 64.0625 14.71875 69.140625 
Q 20.953125 74.21875 31.78125 74.21875 
Q 42.671875 74.21875 48.875 69.140625 
Q 55.078125 64.0625 55.078125 55.328125 
Q 55.078125 49.078125 51.53125 44.71875 
Q 48 40.375 41.703125 38.8125 
Q 48.828125 37.15625 52.796875 32.3125 
Q 56.78125 27.484375 56.78125 20.515625 
Q 56.78125 9.90625 50.3125 4.234375 
Q 43.84375 -1.421875 31.78125 -1.421875 
Q 19.734375 -1.421875 13.25 4.234375 
Q 6.78125 9.90625 6.78125 20.515625 
Q 6.78125 27.484375 10.78125 32.3125 
Q 14.796875 37.15625 21.921875 38.8125 
z
M 18.3125 54.390625 
Q 18.3125 48.734375 21.84375 45.5625 
Q 25.390625 42.390625 31.78125 42.390625 
Q 38.140625 42.390625 41.71875 45.5625 
Q 45.3125 48.734375 45.3125 54.390625 
Q 45.3125 60.0625 41.71875 63.234375 
Q 38.140625 66.40625 31.78125 66.40625 
Q 25.390625 66.40625 21.84375 63.234375 
Q 18.3125 60.0625 18.3125 54.390625 
z
" id="DejaVuSans-56"/>
       </defs>
       <use xlink:href="#DejaVuSans-48"/>
       <use x="63.623047" xlink:href="#DejaVuSans-46"/>
       <use x="95.410156" xlink:href="#DejaVuSans-56"/>
      </g>
     </g>
    </g>
    <g id="ytick_6">
     <g id="line2d_31">
      <path clip-path="url(#pdd723f688d)" d="M 57.6 6.381624 
L 338.688 6.381624 
" style="fill:none;stroke:#b0b0b0;stroke-linecap:square;stroke-width:0.8;"/>
     </g>
     <g id="line2d_32">
      <g>
       <use style="stroke:#000000;stroke-width:0.8;" x="57.6" xlink:href="#me4fde27328" y="6.381624"/>
      </g>
     </g>
     <g id="text_11">
      <!-- 1.0 -->
      <g transform="translate(25.155 12.460374)scale(0.16 -0.16)">
       <use xlink:href="#DejaVuSans-49"/>
       <use x="63.623047" xlink:href="#DejaVuSans-46"/>
       <use x="95.410156" xlink:href="#DejaVuSans-48"/>
      </g>
     </g>
    </g>
    <g id="text_12">
     <!-- Fraction of function,target pairs -->
     <g transform="translate(17.619531 285.585)rotate(-90)scale(0.17 -0.17)">
      <defs>
       <path d="M 9.8125 72.90625 
L 51.703125 72.90625 
L 51.703125 64.59375 
L 19.671875 64.59375 
L 19.671875 43.109375 
L 48.578125 43.109375 
L 48.578125 34.8125 
L 19.671875 34.8125 
L 19.671875 0 
L 9.8125 0 
z
" id="DejaVuSans-70"/>
       <path d="M 41.109375 46.296875 
Q 39.59375 47.171875 37.8125 47.578125 
Q 36.03125 48 33.890625 48 
Q 26.265625 48 22.1875 43.046875 
Q 18.109375 38.09375 18.109375 28.8125 
L 18.109375 0 
L 9.078125 0 
L 9.078125 54.6875 
L 18.109375 54.6875 
L 18.109375 46.1875 
Q 20.953125 51.171875 25.484375 53.578125 
Q 30.03125 56 36.53125 56 
Q 37.453125 56 38.578125 55.875 
Q 39.703125 55.765625 41.0625 55.515625 
z
" id="DejaVuSans-114"/>
       <path d="M 48.78125 52.59375 
L 48.78125 44.1875 
Q 44.96875 46.296875 41.140625 47.34375 
Q 37.3125 48.390625 33.40625 48.390625 
Q 24.65625 48.390625 19.8125 42.84375 
Q 14.984375 37.3125 14.984375 27.296875 
Q 14.984375 17.28125 19.8125 11.734375 
Q 24.65625 6.203125 33.40625 6.203125 
Q 37.3125 6.203125 41.140625 7.25 
Q 44.96875 8.296875 48.78125 10.40625 
L 48.78125 2.09375 
Q 45.015625 0.34375 40.984375 -0.53125 
Q 36.96875 -1.421875 32.421875 -1.421875 
Q 20.0625 -1.421875 12.78125 6.34375 
Q 5.515625 14.109375 5.515625 27.296875 
Q 5.515625 40.671875 12.859375 48.328125 
Q 20.21875 56 33.015625 56 
Q 37.15625 56 41.109375 55.140625 
Q 45.0625 54.296875 48.78125 52.59375 
z
" id="DejaVuSans-99"/>
       <path d="M 18.3125 70.21875 
L 18.3125 54.6875 
L 36.8125 54.6875 
L 36.8125 47.703125 
L 18.3125 47.703125 
L 18.3125 18.015625 
Q 18.3125 11.328125 20.140625 9.421875 
Q 21.96875 7.515625 27.59375 7.515625 
L 36.8125 7.515625 
L 36.8125 0 
L 27.59375 0 
Q 17.1875 0 13.234375 3.875 
Q 9.28125 7.765625 9.28125 18.015625 
L 9.28125 47.703125 
L 2.6875 47.703125 
L 2.6875 54.6875 
L 9.28125 54.6875 
L 9.28125 70.21875 
z
" id="DejaVuSans-116"/>
       <path d="M 8.5 21.578125 
L 8.5 54.6875 
L 17.484375 54.6875 
L 17.484375 21.921875 
Q 17.484375 14.15625 20.5 10.265625 
Q 23.53125 6.390625 29.59375 6.390625 
Q 36.859375 6.390625 41.078125 11.03125 
Q 45.3125 15.671875 45.3125 23.6875 
L 45.3125 54.6875 
L 54.296875 54.6875 
L 54.296875 0 
L 45.3125 0 
L 45.3125 8.40625 
Q 42.046875 3.421875 37.71875 1 
Q 33.40625 -1.421875 27.6875 -1.421875 
Q 18.265625 -1.421875 13.375 4.4375 
Q 8.5 10.296875 8.5 21.578125 
z
M 31.109375 56 
z
" id="DejaVuSans-117"/>
       <path d="M 11.71875 12.40625 
L 22.015625 12.40625 
L 22.015625 4 
L 14.015625 -11.625 
L 7.71875 -11.625 
L 11.71875 4 
z
" id="DejaVuSans-44"/>
       <path d="M 18.109375 8.203125 
L 18.109375 -20.796875 
L 9.078125 -20.796875 
L 9.078125 54.6875 
L 18.109375 54.6875 
L 18.109375 46.390625 
Q 20.953125 51.265625 25.265625 53.625 
Q 29.59375 56 35.59375 56 
Q 45.5625 56 51.78125 48.09375 
Q 58.015625 40.1875 58.015625 27.296875 
Q 58.015625 14.40625 51.78125 6.484375 
Q 45.5625 -1.421875 35.59375 -1.421875 
Q 29.59375 -1.421875 25.265625 0.953125 
Q 20.953125 3.328125 18.109375 8.203125 
z
M 48.6875 27.296875 
Q 48.6875 37.203125 44.609375 42.84375 
Q 40.53125 48.484375 33.40625 48.484375 
Q 26.265625 48.484375 22.1875 42.84375 
Q 18.109375 37.203125 18.109375 27.296875 
Q 18.109375 17.390625 22.1875 11.75 
Q 26.265625 6.109375 33.40625 6.109375 
Q 40.53125 6.109375 44.609375 11.75 
Q 48.6875 17.390625 48.6875 27.296875 
z
" id="DejaVuSans-112"/>
      </defs>
      <use xlink:href="#DejaVuSans-70"/>
      <use x="50.269531" xlink:href="#DejaVuSans-114"/>
      <use x="91.382812" xlink:href="#DejaVuSans-97"/>
      <use x="152.662109" xlink:href="#DejaVuSans-99"/>
      <use x="207.642578" xlink:href="#DejaVuSans-116"/>
      <use x="246.851562" xlink:href="#DejaVuSans-105"/>
      <use x="274.634766" xlink:href="#DejaVuSans-111"/>
      <use x="335.816406" xlink:href="#DejaVuSans-110"/>
      <use x="399.195312" xlink:href="#DejaVuSans-32"/>
      <use x="430.982422" xlink:href="#DejaVuSans-111"/>
      <use x="492.164062" xlink:href="#DejaVuSans-102"/>
      <use x="527.369141" xlink:href="#DejaVuSans-32"/>
      <use x="559.15625" xlink:href="#DejaVuSans-102"/>
      <use x="594.361328" xlink:href="#DejaVuSans-117"/>
      <use x="657.740234" xlink:href="#DejaVuSans-110"/>
      <use x="721.119141" xlink:href="#DejaVuSans-99"/>
      <use x="776.099609" xlink:href="#DejaVuSans-116"/>
      <use x="815.308594" xlink:href="#DejaVuSans-105"/>
      <use x="843.091797" xlink:href="#DejaVuSans-111"/>
      <use x="904.273438" xlink:href="#DejaVuSans-110"/>
      <use x="967.652344" xlink:href="#DejaVuSans-44"/>
      <use x="999.439453" xlink:href="#DejaVuSans-116"/>
      <use x="1038.648438" xlink:href="#DejaVuSans-97"/>
      <use x="1099.927734" xlink:href="#DejaVuSans-114"/>
      <use x="1139.291016" xlink:href="#DejaVuSans-103"/>
      <use x="1202.767578" xlink:href="#DejaVuSans-101"/>
      <use x="1264.291016" xlink:href="#DejaVuSans-116"/>
      <use x="1303.5" xlink:href="#DejaVuSans-32"/>
      <use x="1335.287109" xlink:href="#DejaVuSans-112"/>
      <use x="1398.763672" xlink:href="#DejaVuSans-97"/>
      <use x="1460.042969" xlink:href="#DejaVuSans-105"/>
      <use x="1487.826172" xlink:href="#DejaVuSans-114"/>
      <use x="1528.939453" xlink:href="#DejaVuSans-115"/>
     </g>
    </g>
   </g>
   <g id="line2d_33">
    <defs>
     <path d="M 0 1.5 
C 0.397805 1.5 0.77937 1.341951 1.06066 1.06066 
C 1.341951 0.77937 1.5 0.397805 1.5 0 
C 1.5 -0.397805 1.341951 -0.77937 1.06066 -1.06066 
C 0.77937 -1.341951 0.397805 -1.5 0 -1.5 
C -0.397805 -1.5 -0.77937 -1.341951 -1.06066 -1.06066 
C -1.341951 -0.77937 -1.5 -0.397805 -1.5 0 
C -1.5 0.397805 -1.341951 0.77937 -1.06066 1.06066 
C -0.77937 1.341951 -0.397805 1.5 0 1.5 
z
" id="me2ad12df5a" style="stroke:#f5deb3;"/>
    </defs>
    <g>
     <use style="fill:#f5deb3;stroke:#f5deb3;" x="298.511684" xlink:href="#me2ad12df5a" y="186.711019"/>
     <use style="fill:#f5deb3;stroke:#f5deb3;" x="298.511684" xlink:href="#me2ad12df5a" y="186.711019"/>
    </g>
   </g>
   <g id="line2d_34">
    <defs>
     <path d="M 0 1.5 
C 0.397805 1.5 0.77937 1.341951 1.06066 1.06066 
C 1.341951 0.77937 1.5 0.397805 1.5 0 
C 1.5 -0.397805 1.341951 -0.77937 1.06066 -1.06066 
C 0.77937 -1.341951 0.397805 -1.5 0 -1.5 
C -0.397805 -1.5 -0.77937 -1.341951 -1.06066 -1.06066 
C -1.341951 -0.77937 -1.5 -0.397805 -1.5 0 
C -1.5 0.397805 -1.341951 0.77937 -1.06066 1.06066 
C -0.77937 1.341951 -0.397805 1.5 0 1.5 
z
" id="mc8603b883a" style="stroke:#ff7500;"/>
    </defs>
    <g>
     <use style="fill:#ff7500;stroke:#ff7500;" x="258.259674" xlink:href="#mc8603b883a" y="217.480511"/>
     <use style="fill:#ff7500;stroke:#ff7500;" x="258.259674" xlink:href="#mc8603b883a" y="217.480511"/>
    </g>
   </g>
   <g id="line2d_35">
    <path d="M 135.883489 298.944 
L 135.883489 298.817896 
L 136.246972 298.817896 
L 136.246972 298.691791 
L 136.635898 298.691791 
L 136.687417 298.313478 
L 137.135254 298.313478 
L 137.217107 297.935164 
L 137.37967 297.935164 
L 137.37967 297.80906 
L 137.567432 297.80906 
L 137.629572 297.556851 
L 137.76199 297.556851 
L 137.810292 297.178537 
L 137.893409 297.178537 
L 137.893409 297.052433 
L 138.118883 297.052433 
L 138.20912 296.800224 
L 138.426341 296.800224 
L 138.464395 296.295806 
L 138.590646 296.295806 
L 138.590646 296.169702 
L 138.70766 296.169702 
L 138.70766 296.043597 
L 138.836303 296.043597 
L 138.840437 295.791388 
L 138.955793 295.791388 
L 139.004998 295.539179 
L 139.135538 295.539179 
L 139.212587 295.160866 
L 139.281238 295.160866 
L 139.389719 294.656448 
L 139.569034 294.656448 
L 139.663921 294.025926 
L 139.691499 294.025926 
L 139.797465 293.521508 
L 139.980403 293.521508 
L 139.992015 293.269299 
L 140.176763 293.269299 
L 140.176763 293.143194 
L 140.412536 293.143194 
L 140.46157 292.512672 
L 140.596643 292.512672 
L 140.622786 292.134358 
L 140.734386 292.134358 
L 140.801004 291.756045 
L 140.852644 291.756045 
L 140.896784 291.503836 
L 140.973763 291.503836 
L 140.973763 291.377732 
L 141.213507 291.377732 
L 141.242344 291.125523 
L 141.503304 291.125523 
L 141.612952 290.368896 
L 141.620002 290.368896 
L 141.62705 290.116687 
L 141.756919 290.116687 
L 141.864989 289.612269 
L 142.07914 289.612269 
L 142.185237 289.36006 
L 142.266936 289.36006 
L 142.355014 288.855642 
L 142.378651 288.855642 
L 142.459451 288.603433 
L 142.526499 288.603433 
L 142.623264 288.099015 
L 142.676423 288.099015 
L 142.709564 287.720702 
L 142.848077 287.720702 
L 142.920194 287.09018 
L 143.218586 287.09018 
L 143.27958 286.585762 
L 143.333972 286.585762 
L 143.365889 286.207448 
L 143.451774 286.207448 
L 143.451774 286.081344 
L 143.60342 286.081344 
L 143.60342 285.955239 
L 143.784918 285.955239 
L 143.87806 285.450821 
L 143.93988 285.450821 
L 143.93988 285.324717 
L 144.093477 285.324717 
L 144.114873 285.072508 
L 144.327402 285.072508 
L 144.327402 284.946404 
L 144.462672 284.946404 
L 144.510517 284.694195 
L 144.700592 284.694195 
L 144.756625 284.441986 
L 144.830078 284.441986 
L 144.830078 284.315881 
L 144.984783 284.315881 
L 145.091978 283.685359 
L 145.103527 283.685359 
L 145.103527 283.43315 
L 145.301556 283.43315 
L 145.315819 283.180941 
L 145.418169 283.180941 
L 145.418169 282.802628 
L 145.584621 282.802628 
L 145.635089 282.550419 
L 145.896294 282.550419 
L 145.981585 281.793792 
L 146.036391 281.793792 
L 146.118279 281.541583 
L 146.150926 281.541583 
L 146.226867 281.163269 
L 146.299784 281.163269 
L 146.337473 280.658851 
L 146.442037 280.658851 
L 146.548634 280.280538 
L 146.609634 280.280538 
L 146.715215 279.77612 
L 146.725738 279.77612 
L 146.778258 279.145598 
L 146.94267 279.145598 
L 147.004898 278.893389 
L 147.079795 278.893389 
L 147.185137 278.136762 
L 147.241401 278.136762 
L 147.343237 277.50624 
L 147.426806 277.50624 
L 147.53259 277.001822 
L 147.675136 277.001822 
L 147.769524 276.371299 
L 147.831343 276.371299 
L 147.922436 275.992986 
L 147.954329 275.992986 
L 148.054534 275.110255 
L 148.129918 275.110255 
L 148.197728 274.731941 
L 148.241181 274.731941 
L 148.318166 273.84921 
L 148.437777 273.84921 
L 148.542361 273.470897 
L 148.582601 273.470897 
L 148.681621 272.840374 
L 148.707462 272.840374 
L 148.815112 272.462061 
L 148.87334 272.462061 
L 148.945274 272.083747 
L 149.15016 272.083747 
L 149.220963 271.831538 
L 149.323233 271.831538 
L 149.386567 271.579329 
L 149.45417 271.579329 
L 149.472153 271.327121 
L 149.595289 271.327121 
L 149.702046 270.822703 
L 149.761812 270.822703 
L 149.867558 270.19218 
L 149.915812 270.19218 
L 149.9683 269.939971 
L 150.051085 269.939971 
L 150.053258 269.561658 
L 150.264934 269.561658 
L 150.346326 269.309449 
L 150.590355 269.309449 
L 150.649257 268.931136 
L 150.710054 268.931136 
L 150.785233 268.552822 
L 150.82478 268.552822 
L 150.878752 268.300613 
L 150.940821 268.300613 
L 150.940821 268.174509 
L 151.10322 268.174509 
L 151.166536 267.9223 
L 151.239776 267.9223 
L 151.322815 267.291777 
L 151.371241 267.291777 
L 151.371241 267.165673 
L 151.651075 267.165673 
L 151.678813 266.78736 
L 151.763734 266.78736 
L 151.763734 266.661255 
L 152.058709 266.661255 
L 152.145659 266.409046 
L 152.197622 266.409046 
L 152.197622 266.282942 
L 152.354493 266.282942 
L 152.464604 265.652419 
L 152.498635 265.652419 
L 152.604089 265.274106 
L 152.69584 265.274106 
L 152.794541 265.021897 
L 152.840905 265.021897 
L 152.89084 264.769688 
L 152.997626 264.769688 
L 153.074548 264.517479 
L 153.172952 264.517479 
L 153.25815 263.886957 
L 153.31592 263.886957 
L 153.377091 263.508643 
L 153.670944 263.508643 
L 153.757264 263.13033 
L 153.81691 263.13033 
L 153.897283 262.878121 
L 153.985962 262.878121 
L 154.017153 262.625912 
L 154.216835 262.625912 
L 154.216835 262.499807 
L 154.339635 262.499807 
L 154.432862 262.121494 
L 154.547439 262.121494 
L 154.547439 261.99539 
L 154.679613 261.99539 
L 154.679613 261.869285 
L 154.845497 261.869285 
L 154.942634 261.364867 
L 155.070227 261.364867 
L 155.070227 261.238763 
L 155.28405 261.238763 
L 155.340308 260.860449 
L 155.409178 260.860449 
L 155.49051 260.60824 
L 155.563544 260.60824 
L 155.563544 260.482136 
L 155.700843 260.482136 
L 155.79647 260.103822 
L 155.83395 260.103822 
L 155.90867 259.599405 
L 155.970693 259.599405 
L 156.069473 259.221091 
L 156.269936 259.221091 
L 156.269936 258.968882 
L 156.487665 258.968882 
L 156.487665 258.842778 
L 156.717545 258.842778 
L 156.717545 258.716673 
L 156.832832 258.716673 
L 156.937114 258.212255 
L 157.007263 258.212255 
L 157.007263 257.960046 
L 157.280763 257.960046 
L 157.29655 257.707837 
L 157.501905 257.707837 
L 157.555695 256.951211 
L 157.77619 256.951211 
L 157.77619 256.825106 
L 157.999445 256.825106 
L 158.070946 256.572897 
L 158.335141 256.572897 
L 158.335141 256.446793 
L 158.517992 256.446793 
L 158.517992 256.320688 
L 158.705563 256.320688 
L 158.753132 255.942375 
L 159.121333 255.942375 
L 159.224387 255.690166 
L 159.325559 255.690166 
L 159.345978 255.437957 
L 159.521109 255.437957 
L 159.592935 255.185748 
L 159.758143 255.185748 
L 159.810382 254.807435 
L 159.883503 254.807435 
L 159.883503 254.68133 
L 160.127894 254.68133 
L 160.182687 254.303017 
L 160.289342 254.303017 
L 160.289342 254.176912 
L 160.566247 254.176912 
L 160.607822 253.672494 
L 160.816565 253.672494 
L 160.816565 253.54639 
L 161.23586 253.54639 
L 161.33742 253.294181 
L 161.74452 253.294181 
L 161.74452 253.041972 
L 161.932469 253.041972 
L 161.942363 252.789763 
L 162.382953 252.789763 
L 162.382953 252.663659 
L 162.515329 252.663659 
L 162.515329 252.41145 
L 163.019513 252.41145 
L 163.019513 252.285345 
L 163.239227 252.285345 
L 163.284061 252.033136 
L 163.397666 252.033136 
L 163.470308 251.402614 
L 163.625673 251.402614 
L 163.625673 251.150405 
L 164.490978 251.150405 
L 164.490978 251.0243 
L 164.720216 251.0243 
L 164.818344 250.772091 
L 164.894596 250.772091 
L 164.958502 250.519883 
L 165.510818 250.519883 
L 165.510818 250.393778 
L 166.127634 250.393778 
L 166.127634 250.267674 
L 166.463278 250.267674 
L 166.463278 250.141569 
L 166.893817 250.141569 
L 166.893817 250.015465 
L 167.0068 250.015465 
L 167.0068 249.763256 
L 167.237084 249.763256 
L 167.347872 249.511047 
L 167.509949 249.511047 
L 167.509949 249.258838 
L 167.827302 249.258838 
L 167.928957 249.006629 
L 167.941428 249.006629 
L 167.941428 248.75442 
L 168.343464 248.75442 
L 168.343464 248.628315 
L 168.803309 248.628315 
L 168.803309 248.376107 
L 169.083579 248.376107 
L 169.083579 248.250002 
L 169.250616 248.250002 
L 169.250616 247.997793 
L 169.390992 247.997793 
L 169.390992 247.871689 
L 170.066754 247.871689 
L 170.136278 247.241166 
L 170.186357 247.241166 
L 170.276546 246.862853 
L 170.591263 246.862853 
L 170.591263 246.736748 
L 171.435242 246.736748 
L 171.43588 246.358435 
L 171.936828 246.358435 
L 171.936828 246.23233 
L 172.068306 246.23233 
L 172.149903 245.980122 
L 172.827597 245.980122 
L 172.827597 245.854017 
L 173.324993 245.854017 
L 173.402068 245.601808 
L 173.436783 245.601808 
L 173.436783 245.475704 
L 173.564237 245.475704 
L 173.564237 245.223495 
L 173.677874 245.223495 
L 173.74168 244.592972 
L 175.202811 244.592972 
L 175.202811 244.340763 
L 175.422857 244.340763 
L 175.422857 244.214659 
L 175.999695 244.214659 
L 175.999695 244.088554 
L 176.636795 244.088554 
L 176.636795 243.96245 
L 177.10832 243.96245 
L 177.139153 243.584137 
L 177.844272 243.584137 
L 177.844272 243.458032 
L 178.355974 243.458032 
L 178.355974 243.205823 
L 179.14404 243.205823 
L 179.14404 243.079719 
L 179.901168 243.079719 
L 179.901168 242.82751 
L 181.298807 242.82751 
L 181.298807 242.701405 
L 181.608987 242.701405 
L 181.608987 242.575301 
L 181.752153 242.575301 
L 181.752153 242.449196 
L 182.284617 242.449196 
L 182.335206 242.070883 
L 182.435605 242.070883 
L 182.435605 241.944778 
L 183.158516 241.944778 
L 183.264981 241.566465 
L 185.400675 241.566465 
L 185.400675 241.440361 
L 185.724881 241.440361 
L 185.724881 241.314256 
L 186.72557 241.314256 
L 186.72557 241.188152 
L 187.399128 241.188152 
L 187.399128 241.062047 
L 187.814119 241.062047 
L 187.814119 240.809838 
L 189.003405 240.809838 
L 189.003405 240.683734 
L 189.58912 240.683734 
L 189.58912 240.431525 
L 189.744693 240.431525 
L 189.744693 240.179316 
L 189.91945 240.179316 
L 189.91945 240.053211 
L 190.526952 240.053211 
L 190.603601 239.548793 
L 192.617004 239.548793 
L 192.617004 239.422689 
L 193.833612 239.422689 
L 193.833612 239.296584 
L 194.285958 239.296584 
L 194.285958 239.044376 
L 195.556452 239.044376 
L 195.556452 238.792167 
L 196.51142 238.792167 
L 196.51142 238.539958 
L 196.64114 238.539958 
L 196.64114 238.413853 
L 196.981925 238.413853 
L 197.063083 238.03554 
L 197.369875 238.03554 
L 197.369875 237.909435 
L 197.556242 237.909435 
L 197.556242 237.657226 
L 198.130193 237.657226 
L 198.130193 237.531122 
L 198.379387 237.531122 
L 198.458914 237.278913 
L 199.071293 237.278913 
L 199.123246 237.026704 
L 199.738175 237.026704 
L 199.745597 236.522286 
L 200.184996 236.522286 
L 200.184996 236.396182 
L 200.639782 236.396182 
L 200.639782 236.270077 
L 200.820815 236.270077 
L 200.820815 236.017868 
L 201.080795 236.017868 
L 201.080795 235.765659 
L 202.318176 235.765659 
L 202.318176 235.51345 
L 202.946982 235.51345 
L 202.946982 235.387346 
L 204.10146 235.387346 
L 204.10146 235.261241 
L 204.592195 235.261241 
L 204.592195 235.009032 
L 205.613503 235.009032 
L 205.613503 234.882928 
L 205.762265 234.882928 
L 205.762265 234.756823 
L 206.194483 234.756823 
L 206.201607 234.252406 
L 206.367151 234.252406 
L 206.367151 234.126301 
L 206.941188 234.126301 
L 206.941188 233.874092 
L 208.075417 233.874092 
L 208.075417 233.747988 
L 208.729354 233.747988 
L 208.729354 233.495779 
L 209.580087 233.495779 
L 209.580087 233.24357 
L 210.410904 233.24357 
L 210.410904 232.991361 
L 212.28555 232.991361 
L 212.28555 232.739152 
L 213.247536 232.739152 
L 213.247536 232.613047 
L 213.448177 232.613047 
L 213.448177 232.360839 
L 214.340984 232.360839 
L 214.341746 231.982525 
L 214.637994 231.982525 
L 214.637994 231.730316 
L 215.082639 231.730316 
L 215.181013 231.225898 
L 215.832378 231.225898 
L 215.832378 230.973689 
L 217.092442 230.973689 
L 217.092442 230.847585 
L 218.645401 230.847585 
L 218.645401 230.595376 
L 218.880314 230.595376 
L 218.880314 230.343167 
L 219.860138 230.343167 
L 219.860138 230.217062 
L 220.070562 230.217062 
L 220.107618 229.964854 
L 220.298887 229.964854 
L 220.298887 229.712645 
L 220.61731 229.712645 
L 220.61731 229.58654 
L 221.618126 229.58654 
L 221.618126 229.334331 
L 221.985298 229.334331 
L 221.985298 229.082122 
L 223.229154 229.082122 
L 223.229154 228.829913 
L 223.937634 228.829913 
L 223.937634 228.577704 
L 224.480689 228.577704 
L 224.550586 228.073286 
L 225.609359 228.073286 
L 225.609359 227.821078 
L 225.830694 227.821078 
L 225.830694 227.568869 
L 226.350504 227.568869 
L 226.350504 227.31666 
L 227.016017 227.31666 
L 227.033939 227.064451 
L 229.406027 227.064451 
L 229.424384 226.812242 
L 230.033734 226.812242 
L 230.039668 226.433928 
L 232.228366 226.433928 
L 232.228366 226.181719 
L 233.182369 226.181719 
L 233.182369 225.92951 
L 234.194485 225.92951 
L 234.231083 225.677301 
L 234.41579 225.677301 
L 234.41579 225.425093 
L 235.336451 225.425093 
L 235.336451 225.172884 
L 235.585196 225.172884 
L 235.585196 224.920675 
L 235.951942 224.920675 
L 235.951942 224.668466 
L 236.479748 224.668466 
L 236.479748 224.542361 
L 237.521037 224.542361 
L 237.521037 224.290152 
L 238.128837 224.290152 
L 238.128837 224.164048 
L 238.25893 224.164048 
L 238.25893 224.037943 
L 238.487225 224.037943 
L 238.487225 223.911839 
L 239.19224 223.911839 
L 239.19224 223.785734 
L 239.309213 223.785734 
L 239.309213 223.533525 
L 239.495306 223.533525 
L 239.495306 223.407421 
L 240.484813 223.407421 
L 240.484813 223.155212 
L 240.74469 223.155212 
L 240.74469 223.029108 
L 241.757789 223.029108 
L 241.757789 222.903003 
L 243.298074 222.903003 
L 243.298074 222.650794 
L 244.376271 222.650794 
L 244.376271 222.52469 
L 244.508145 222.52469 
L 244.508145 222.398585 
L 246.277815 222.398585 
L 246.277815 222.146376 
L 246.579649 222.146376 
L 246.624596 221.768063 
L 247.20709 221.768063 
L 247.236747 221.515854 
L 248.092464 221.515854 
L 248.192079 221.13754 
L 248.665152 221.13754 
L 248.665152 221.011436 
L 249.577071 221.011436 
L 249.577288 220.633123 
L 250.232558 220.633123 
L 250.232558 220.380914 
L 250.747524 220.380914 
L 250.747524 220.254809 
L 251.637355 220.254809 
L 251.637355 220.0026 
L 252.757508 220.0026 
L 252.836441 219.624287 
L 253.542953 219.624287 
L 253.542953 219.498182 
L 253.920874 219.498182 
L 253.920874 219.372078 
L 254.280018 219.372078 
L 254.280018 219.119869 
L 255.103693 219.119869 
L 255.103693 218.993764 
L 255.514563 218.993764 
L 255.514563 218.86766 
L 255.683832 218.86766 
L 255.683832 218.741555 
L 255.851092 218.741555 
L 255.851092 218.615451 
L 256.04882 218.615451 
L 256.04882 218.363242 
L 256.881712 218.363242 
L 256.881712 218.237138 
L 257.982503 218.237138 
L 258.008479 217.858824 
L 258.102383 217.858824 
L 258.167131 217.606615 
L 258.259674 217.606615 
L 258.259674 217.480511 
L 338.688 217.480511 
L 338.688 217.480511 
" style="fill:none;stroke:#ff7500;stroke-linecap:square;stroke-width:1.5;"/>
   </g>
   <g id="line2d_36">
    <defs>
     <path d="M 0 -6 
L -1.347084 -1.854102 
L -5.706339 -1.854102 
L -2.179628 0.708204 
L -3.526712 4.854102 
L -0 2.291796 
L 3.526712 4.854102 
L 2.179628 0.708204 
L 5.706339 -1.854102 
L 1.347084 -1.854102 
z
" id="m87eb637880" style="stroke:#ff7500;stroke-linejoin:bevel;stroke-width:1.5;"/>
    </defs>
    <g>
     <use style="fill-opacity:0;stroke:#ff7500;stroke-linejoin:bevel;stroke-width:1.5;" x="173.74168" xlink:href="#m87eb637880" y="244.845181"/>
     <use style="fill-opacity:0;stroke:#ff7500;stroke-linejoin:bevel;stroke-width:1.5;" x="226.350504" xlink:href="#m87eb637880" y="227.568869"/>
     <use style="fill-opacity:0;stroke:#ff7500;stroke-linejoin:bevel;stroke-width:1.5;" x="258.259674" xlink:href="#m87eb637880" y="217.606615"/>
     <use style="fill-opacity:0;stroke:#ff7500;stroke-linejoin:bevel;stroke-width:1.5;" x="258.259674" xlink:href="#m87eb637880" y="217.480511"/>
     <use style="fill-opacity:0;stroke:#ff7500;stroke-linejoin:bevel;stroke-width:1.5;" x="338.688" xlink:href="#m87eb637880" y="217.480511"/>
    </g>
   </g>
   <g id="line2d_37">
    <path style="fill:none;stroke:#ff7500;stroke-linecap:square;stroke-width:1.5;"/>
    <g/>
   </g>
   <g id="line2d_38">
    <path clip-path="url(#pdd723f688d)" d="M 258.377143 217.480511 
" style="fill:none;stroke:#ff7500;stroke-linecap:square;stroke-width:1.5;"/>
    <defs>
     <path d="M -12 12 
L 12 -12 
M -12 -12 
L 12 12 
" id="m82fc6ad101" style="stroke:#ff7500;"/>
    </defs>
    <g clip-path="url(#pdd723f688d)">
     <use style="fill:#ff7500;stroke:#ff7500;" x="258.377143" xlink:href="#m82fc6ad101" y="217.480511"/>
    </g>
   </g>
   <g id="line2d_39">
    <defs>
     <path d="M 0 1.5 
C 0.397805 1.5 0.77937 1.341951 1.06066 1.06066 
C 1.341951 0.77937 1.5 0.397805 1.5 0 
C 1.5 -0.397805 1.341951 -0.77937 1.06066 -1.06066 
C 0.77937 -1.341951 0.397805 -1.5 0 -1.5 
C -0.397805 -1.5 -0.77937 -1.341951 -1.06066 -1.06066 
C -1.341951 -0.77937 -1.5 -0.397805 -1.5 0 
C -1.5 0.397805 -1.341951 0.77937 -1.06066 1.06066 
C -0.77937 1.341951 -0.397805 1.5 0 1.5 
z
" id="m6fb04ed2ec" style="stroke:#6495ed;"/>
    </defs>
    <g>
     <use style="fill:#6495ed;stroke:#6495ed;" x="256.065618" xlink:href="#m6fb04ed2ec" y="263.13033"/>
     <use style="fill:#6495ed;stroke:#6495ed;" x="256.065618" xlink:href="#m6fb04ed2ec" y="263.13033"/>
    </g>
   </g>
   <g id="line2d_40">
    <path d="M -1 292.134358 
L 101.611978 292.134358 
L 101.611978 292.008254 
L 104.295262 292.008254 
L 104.295262 291.88215 
L 108.078518 291.88215 
L 108.078518 291.756045 
L 108.97183 291.756045 
L 108.97183 291.629941 
L 109.491096 291.629941 
L 109.557701 291.377732 
L 109.843417 291.377732 
L 109.843417 291.251627 
L 110.167376 291.251627 
L 110.167376 291.125523 
L 110.61104 291.125523 
L 110.61104 290.999418 
L 111.584648 290.999418 
L 111.584648 290.873314 
L 111.761299 290.873314 
L 111.761299 290.747209 
L 111.878081 290.747209 
L 111.955503 290.495 
L 112.280765 290.495 
L 112.280765 290.368896 
L 112.525465 290.368896 
L 112.525465 290.242791 
L 113.577216 290.242791 
L 113.577216 290.116687 
L 113.752311 290.116687 
L 113.78712 289.864478 
L 114.097313 289.864478 
L 114.097313 289.738374 
L 114.334816 289.738374 
L 114.334816 289.612269 
L 115.269727 289.612269 
L 115.269727 289.486165 
L 115.444518 289.486165 
L 115.554844 288.729538 
L 115.601913 288.729538 
L 115.680082 288.477329 
L 115.726815 288.477329 
L 115.835374 288.22512 
L 116.081002 288.22512 
L 116.081002 288.099015 
L 116.517572 288.099015 
L 116.532432 287.846806 
L 116.636106 287.846806 
L 116.739166 287.468493 
L 116.768501 287.468493 
L 116.768501 287.342389 
L 116.943478 287.342389 
L 116.98695 287.09018 
L 117.087964 287.09018 
L 117.087964 286.964075 
L 117.245527 286.964075 
L 117.245527 286.837971 
L 117.40168 286.837971 
L 117.40168 286.711866 
L 117.737599 286.711866 
L 117.84815 286.459657 
L 118.06717 286.459657 
L 118.06717 286.333553 
L 118.443959 286.333553 
L 118.510395 286.081344 
L 118.942633 286.081344 
L 118.942633 285.955239 
L 119.097192 285.955239 
L 119.097192 285.829135 
L 119.250393 285.829135 
L 119.351785 285.576926 
L 119.640044 285.576926 
L 119.714465 285.324717 
L 120.057624 285.324717 
L 120.057624 285.198612 
L 120.20265 285.198612 
L 120.274713 284.820299 
L 120.560025 284.820299 
L 120.560025 284.694195 
L 121.489881 284.694195 
L 121.579085 284.315881 
L 121.953191 284.315881 
L 121.974949 284.063672 
L 122.083336 284.063672 
L 122.11572 283.811463 
L 122.201787 283.811463 
L 122.244662 283.559254 
L 122.383281 283.559254 
L 122.383281 283.43315 
L 122.594413 283.43315 
L 122.594413 283.307045 
L 123.029641 283.307045 
L 123.029641 283.180941 
L 123.333999 283.180941 
L 123.333999 283.054836 
L 123.672636 283.054836 
L 123.672636 282.928732 
L 124.110955 282.928732 
L 124.110955 282.802628 
L 124.557288 282.802628 
L 124.66012 282.550419 
L 125.120043 282.550419 
L 125.120043 282.424314 
L 126.481679 282.424314 
L 126.481679 282.29821 
L 126.69863 282.29821 
L 126.748314 281.919896 
L 126.921104 281.919896 
L 126.921104 281.793792 
L 127.237527 281.793792 
L 127.237527 281.667687 
L 127.44533 281.667687 
L 127.44533 281.541583 
L 128.023567 281.541583 
L 128.023567 281.415478 
L 128.252633 281.415478 
L 128.252633 281.289374 
L 128.560901 281.289374 
L 128.560901 281.163269 
L 129.247748 281.163269 
L 129.247748 281.037165 
L 129.376241 281.037165 
L 129.454301 280.784956 
L 131.043554 280.784956 
L 131.043554 280.658851 
L 131.376473 280.658851 
L 131.376473 280.532747 
L 131.69693 280.532747 
L 131.69693 280.406643 
L 132.594872 280.406643 
L 132.594872 280.280538 
L 133.589045 280.280538 
L 133.589045 280.154434 
L 135.014985 280.154434 
L 135.014985 280.028329 
L 136.659335 280.028329 
L 136.659335 279.902225 
L 137.03927 279.902225 
L 137.135254 279.650016 
L 138.269019 279.650016 
L 138.269019 279.523911 
L 138.400926 279.523911 
L 138.400926 279.397807 
L 139.151787 279.397807 
L 139.151787 279.271702 
L 139.337571 279.271702 
L 139.337571 279.145598 
L 141.396532 279.145598 
L 141.396532 279.019493 
L 141.795343 279.019493 
L 141.795343 278.893389 
L 142.307643 278.893389 
L 142.307643 278.767284 
L 143.231445 278.767284 
L 143.231445 278.64118 
L 143.936794 278.64118 
L 143.936794 278.515075 
L 144.747789 278.515075 
L 144.747789 278.388971 
L 145.67424 278.388971 
L 145.67424 278.262867 
L 146.224161 278.262867 
L 146.224161 278.136762 
L 147.287301 278.136762 
L 147.381272 277.884553 
L 147.640233 277.884553 
L 147.640233 277.758449 
L 148.378074 277.758449 
L 148.378074 277.632344 
L 148.714503 277.632344 
L 148.714503 277.50624 
L 151.461678 277.50624 
L 151.461678 277.380135 
L 152.710774 277.380135 
L 152.710774 277.254031 
L 152.848312 277.254031 
L 152.848312 277.127926 
L 152.979261 277.127926 
L 152.979261 277.001822 
L 153.715038 277.001822 
L 153.715038 276.875717 
L 157.188629 276.875717 
L 157.188629 276.749613 
L 158.508628 276.749613 
L 158.508628 276.623508 
L 159.117457 276.623508 
L 159.117457 276.497404 
L 160.708377 276.497404 
L 160.708377 276.371299 
L 161.901652 276.371299 
L 161.989557 275.992986 
L 162.104265 275.992986 
L 162.184655 275.740777 
L 162.33144 275.740777 
L 162.33144 275.614673 
L 164.101117 275.614673 
L 164.196988 275.362464 
L 164.475778 275.362464 
L 164.521338 275.110255 
L 167.117422 275.110255 
L 167.117422 274.98415 
L 167.511547 274.98415 
L 167.511547 274.858046 
L 168.169001 274.858046 
L 168.169001 274.731941 
L 169.064596 274.731941 
L 169.070439 274.479732 
L 170.008719 274.479732 
L 170.008719 274.353628 
L 170.241073 274.353628 
L 170.241073 274.227523 
L 171.146547 274.227523 
L 171.146547 274.101419 
L 171.320722 274.101419 
L 171.320722 273.975314 
L 172.938517 273.975314 
L 172.938517 273.84921 
L 173.500343 273.84921 
L 173.500343 273.723105 
L 174.840978 273.723105 
L 174.840978 273.597001 
L 175.071303 273.597001 
L 175.071303 273.470897 
L 175.941188 273.470897 
L 175.941188 273.344792 
L 176.645311 273.344792 
L 176.701979 273.092583 
L 177.241386 273.092583 
L 177.302074 272.840374 
L 179.169023 272.840374 
L 179.169023 272.71427 
L 180.692543 272.71427 
L 180.692543 272.588165 
L 181.716118 272.588165 
L 181.716118 272.462061 
L 182.059645 272.462061 
L 182.059645 272.335956 
L 182.171633 272.335956 
L 182.171633 272.209852 
L 185.441853 272.209852 
L 185.441853 272.083747 
L 185.858696 272.083747 
L 185.858696 271.957643 
L 186.666562 271.957643 
L 186.666562 271.831538 
L 188.114414 271.831538 
L 188.114414 271.579329 
L 188.724074 271.579329 
L 188.724074 271.453225 
L 190.334275 271.453225 
L 190.334275 271.327121 
L 190.689641 271.327121 
L 190.689641 271.201016 
L 190.913342 271.201016 
L 190.913342 270.948807 
L 191.515987 270.948807 
L 191.515987 270.822703 
L 192.005436 270.822703 
L 192.079966 270.570494 
L 193.367224 270.570494 
L 193.367224 270.444389 
L 193.513112 270.444389 
L 193.513112 270.318285 
L 194.511372 270.318285 
L 194.511372 270.19218 
L 195.452353 270.19218 
L 195.452353 270.066076 
L 196.649854 270.066076 
L 196.649854 269.939971 
L 201.760447 269.939971 
L 201.760447 269.813867 
L 203.27282 269.813867 
L 203.27282 269.687762 
L 204.35599 269.687762 
L 204.35599 269.561658 
L 205.985386 269.561658 
L 205.985386 269.435553 
L 206.132156 269.435553 
L 206.132156 269.309449 
L 207.005008 269.309449 
L 207.005008 269.183344 
L 208.433368 269.183344 
L 208.433368 269.05724 
L 208.815175 269.05724 
L 208.815175 268.931136 
L 211.588439 268.931136 
L 211.672548 268.678927 
L 212.434733 268.678927 
L 212.434733 268.426718 
L 213.102309 268.426718 
L 213.102309 268.300613 
L 214.068617 268.300613 
L 214.068617 268.174509 
L 214.904895 268.174509 
L 214.904895 268.048404 
L 216.674944 268.048404 
L 216.674944 267.796195 
L 217.194891 267.796195 
L 217.194891 267.670091 
L 217.90517 267.670091 
L 217.90517 267.543986 
L 219.064107 267.543986 
L 219.064107 267.417882 
L 219.290573 267.417882 
L 219.290573 267.291777 
L 221.23884 267.291777 
L 221.23884 267.165673 
L 224.138093 267.165673 
L 224.138093 267.039568 
L 225.250742 267.039568 
L 225.250742 266.78736 
L 226.328935 266.78736 
L 226.391488 266.409046 
L 226.890602 266.409046 
L 226.890602 266.282942 
L 227.22207 266.282942 
L 227.22207 266.156837 
L 228.815307 266.156837 
L 228.815307 266.030733 
L 229.948304 266.030733 
L 230.00066 265.778524 
L 230.746767 265.778524 
L 230.746767 265.652419 
L 238.47919 265.652419 
L 238.47919 265.526315 
L 239.85647 265.526315 
L 239.85647 265.274106 
L 240.233965 265.274106 
L 240.233965 265.148001 
L 242.618098 265.148001 
L 242.618098 264.895792 
L 244.653018 264.895792 
L 244.653018 264.769688 
L 245.764924 264.769688 
L 245.764924 264.643583 
L 246.057953 264.643583 
L 246.057953 264.517479 
L 247.025191 264.517479 
L 247.025191 264.391375 
L 247.168746 264.391375 
L 247.168746 264.26527 
L 248.900096 264.26527 
L 248.900096 264.013061 
L 249.529628 264.013061 
L 249.529628 263.886957 
L 251.1021 263.886957 
L 251.212151 263.634748 
L 251.252836 263.634748 
L 251.252836 263.508643 
L 254.01749 263.508643 
L 254.01749 263.382539 
L 254.940269 263.382539 
L 254.940269 263.256434 
L 256.065618 263.256434 
L 256.065618 263.13033 
L 338.688 263.13033 
L 338.688 263.13033 
" style="fill:none;stroke:#6495ed;stroke-linecap:square;stroke-width:1.5;"/>
   </g>
   <g id="line2d_41">
    <defs>
     <path d="M -0 6 
L 6 -6 
L -6 -6 
z
" id="m5f635fc579" style="stroke:#6495ed;stroke-linejoin:miter;stroke-width:1.5;"/>
    </defs>
    <g>
     <use style="fill-opacity:0;stroke:#6495ed;stroke-linejoin:miter;stroke-width:1.5;" x="104.295262" xlink:href="#m5f635fc579" y="292.008254"/>
     <use style="fill-opacity:0;stroke:#6495ed;stroke-linejoin:miter;stroke-width:1.5;" x="153.715038" xlink:href="#m5f635fc579" y="277.001822"/>
     <use style="fill-opacity:0;stroke:#6495ed;stroke-linejoin:miter;stroke-width:1.5;" x="256.065618" xlink:href="#m5f635fc579" y="263.256434"/>
     <use style="fill-opacity:0;stroke:#6495ed;stroke-linejoin:miter;stroke-width:1.5;" x="256.065618" xlink:href="#m5f635fc579" y="263.13033"/>
     <use style="fill-opacity:0;stroke:#6495ed;stroke-linejoin:miter;stroke-width:1.5;" x="256.065618" xlink:href="#m5f635fc579" y="263.13033"/>
     <use style="fill-opacity:0;stroke:#6495ed;stroke-linejoin:miter;stroke-width:1.5;" x="338.688" xlink:href="#m5f635fc579" y="263.13033"/>
    </g>
   </g>
   <g id="line2d_42">
    <path style="fill:none;stroke:#6495ed;stroke-linecap:square;stroke-width:1.5;"/>
    <g/>
   </g>
   <g id="line2d_43">
    <path clip-path="url(#pdd723f688d)" d="M 258.377579 263.13033 
" style="fill:none;stroke:#6495ed;stroke-linecap:square;stroke-width:1.5;"/>
    <defs>
     <path d="M -12 12 
L 12 -12 
M -12 -12 
L 12 12 
" id="mb06019c2b6" style="stroke:#6495ed;"/>
    </defs>
    <g clip-path="url(#pdd723f688d)">
     <use style="fill:#6495ed;stroke:#6495ed;" x="258.377579" xlink:href="#mb06019c2b6" y="263.13033"/>
    </g>
   </g>
   <g id="line2d_44">
    <path d="M 338.688 263.13033 
L 369.60768 293.092752 
" style="fill:none;stroke:#6495ed;stroke-linecap:square;stroke-width:1.5;"/>
    <g>
     <use style="fill-opacity:0;stroke:#6495ed;stroke-linejoin:miter;stroke-width:1.5;" x="338.688" xlink:href="#m5f635fc579" y="263.13033"/>
     <use style="fill-opacity:0;stroke:#6495ed;stroke-linejoin:miter;stroke-width:1.5;" x="369.60768" xlink:href="#m5f635fc579" y="293.092752"/>
    </g>
   </g>
   <g id="line2d_45">
    <path d="M 338.688 217.480511 
L 369.60768 152.662812 
" style="fill:none;stroke:#ff7500;stroke-linecap:square;stroke-width:1.5;"/>
    <g>
     <use style="fill-opacity:0;stroke:#ff7500;stroke-linejoin:bevel;stroke-width:1.5;" x="338.688" xlink:href="#m87eb637880" y="217.480511"/>
     <use style="fill-opacity:0;stroke:#ff7500;stroke-linejoin:bevel;stroke-width:1.5;" x="369.60768" xlink:href="#m87eb637880" y="152.662812"/>
    </g>
   </g>
   <g id="line2d_46">
    <path d="M 338.688 298.944 
L 338.688 6.381624 
" style="fill:none;stroke:#000000;stroke-linecap:square;stroke-width:1.5;"/>
   </g>
   <g id="patch_3">
    <path d="M 57.6 298.944 
L 57.6 3.456 
" style="fill:none;stroke:#000000;stroke-linecap:square;stroke-linejoin:miter;stroke-width:0.8;"/>
   </g>
   <g id="patch_4">
    <path d="M 338.688 298.944 
L 338.688 3.456 
" style="fill:none;stroke:#000000;stroke-linecap:square;stroke-linejoin:miter;stroke-width:0.8;"/>
   </g>
   <g id="patch_5">
    <path d="M 57.6 298.944 
L 338.688 298.944 
" style="fill:none;stroke:#000000;stroke-linecap:square;stroke-linejoin:miter;stroke-width:0.8;"/>
   </g>
   <g id="patch_6">
    <path d="M 57.6 3.456 
L 338.688 3.456 
" style="fill:none;stroke:#000000;stroke-linecap:square;stroke-linejoin:miter;stroke-width:0.8;"/>
   </g>
   <g id="text_13">
    <!-- NSGA-II-M -->
    <g transform="translate(375.22944 297.78369)scale(0.17 -0.17)">
     <defs>
      <path d="M 9.8125 72.90625 
L 23.09375 72.90625 
L 55.421875 11.921875 
L 55.421875 72.90625 
L 64.984375 72.90625 
L 64.984375 0 
L 51.703125 0 
L 19.390625 60.984375 
L 19.390625 0 
L 9.8125 0 
z
" id="DejaVuSans-78"/>
      <path d="M 53.515625 70.515625 
L 53.515625 60.890625 
Q 47.90625 63.578125 42.921875 64.890625 
Q 37.9375 66.21875 33.296875 66.21875 
Q 25.25 66.21875 20.875 63.09375 
Q 16.5 59.96875 16.5 54.203125 
Q 16.5 49.359375 19.40625 46.890625 
Q 22.3125 44.4375 30.421875 42.921875 
L 36.375 41.703125 
Q 47.40625 39.59375 52.65625 34.296875 
Q 57.90625 29 57.90625 20.125 
Q 57.90625 9.515625 50.796875 4.046875 
Q 43.703125 -1.421875 29.984375 -1.421875 
Q 24.8125 -1.421875 18.96875 -0.25 
Q 13.140625 0.921875 6.890625 3.21875 
L 6.890625 13.375 
Q 12.890625 10.015625 18.65625 8.296875 
Q 24.421875 6.59375 29.984375 6.59375 
Q 38.421875 6.59375 43.015625 9.90625 
Q 47.609375 13.234375 47.609375 19.390625 
Q 47.609375 24.75 44.3125 27.78125 
Q 41.015625 30.8125 33.5 32.328125 
L 27.484375 33.5 
Q 16.453125 35.6875 11.515625 40.375 
Q 6.59375 45.0625 6.59375 53.421875 
Q 6.59375 63.09375 13.40625 68.65625 
Q 20.21875 74.21875 32.171875 74.21875 
Q 37.3125 74.21875 42.625 73.28125 
Q 47.953125 72.359375 53.515625 70.515625 
z
" id="DejaVuSans-83"/>
      <path d="M 59.515625 10.40625 
L 59.515625 29.984375 
L 43.40625 29.984375 
L 43.40625 38.09375 
L 69.28125 38.09375 
L 69.28125 6.78125 
Q 63.578125 2.734375 56.6875 0.65625 
Q 49.8125 -1.421875 42 -1.421875 
Q 24.90625 -1.421875 15.25 8.5625 
Q 5.609375 18.5625 5.609375 36.375 
Q 5.609375 54.25 15.25 64.234375 
Q 24.90625 74.21875 42 74.21875 
Q 49.125 74.21875 55.546875 72.453125 
Q 61.96875 70.703125 67.390625 67.28125 
L 67.390625 56.78125 
Q 61.921875 61.421875 55.765625 63.765625 
Q 49.609375 66.109375 42.828125 66.109375 
Q 29.4375 66.109375 22.71875 58.640625 
Q 16.015625 51.171875 16.015625 36.375 
Q 16.015625 21.625 22.71875 14.15625 
Q 29.4375 6.6875 42.828125 6.6875 
Q 48.046875 6.6875 52.140625 7.59375 
Q 56.25 8.5 59.515625 10.40625 
z
" id="DejaVuSans-71"/>
      <path d="M 34.1875 63.1875 
L 20.796875 26.90625 
L 47.609375 26.90625 
z
M 28.609375 72.90625 
L 39.796875 72.90625 
L 67.578125 0 
L 57.328125 0 
L 50.6875 18.703125 
L 17.828125 18.703125 
L 11.1875 0 
L 0.78125 0 
z
" id="DejaVuSans-65"/>
      <path d="M 9.8125 72.90625 
L 19.671875 72.90625 
L 19.671875 0 
L 9.8125 0 
z
" id="DejaVuSans-73"/>
      <path d="M 9.8125 72.90625 
L 24.515625 72.90625 
L 43.109375 23.296875 
L 61.8125 72.90625 
L 76.515625 72.90625 
L 76.515625 0 
L 66.890625 0 
L 66.890625 64.015625 
L 48.09375 14.015625 
L 38.1875 14.015625 
L 19.390625 64.015625 
L 19.390625 0 
L 9.8125 0 
z
" id="DejaVuSans-77"/>
     </defs>
     <use xlink:href="#DejaVuSans-78"/>
     <use x="74.804688" xlink:href="#DejaVuSans-83"/>
     <use x="138.28125" xlink:href="#DejaVuSans-71"/>
     <use x="215.771484" xlink:href="#DejaVuSans-65"/>
     <use x="281.929688" xlink:href="#DejaVuSans-45"/>
     <use x="318.013672" xlink:href="#DejaVuSans-73"/>
     <use x="347.505859" xlink:href="#DejaVuSans-73"/>
     <use x="376.998047" xlink:href="#DejaVuSans-45"/>
     <use x="413.082031" xlink:href="#DejaVuSans-77"/>
    </g>
   </g>
   <g id="text_14">
    <!-- RM-MEDA A -->
    <g transform="translate(375.22944 157.353749)scale(0.17 -0.17)">
     <defs>
      <path d="M 44.390625 34.1875 
Q 47.5625 33.109375 50.5625 29.59375 
Q 53.5625 26.078125 56.59375 19.921875 
L 66.609375 0 
L 56 0 
L 46.6875 18.703125 
Q 43.0625 26.03125 39.671875 28.421875 
Q 36.28125 30.8125 30.421875 30.8125 
L 19.671875 30.8125 
L 19.671875 0 
L 9.8125 0 
L 9.8125 72.90625 
L 32.078125 72.90625 
Q 44.578125 72.90625 50.734375 67.671875 
Q 56.890625 62.453125 56.890625 51.90625 
Q 56.890625 45.015625 53.6875 40.46875 
Q 50.484375 35.9375 44.390625 34.1875 
z
M 19.671875 64.796875 
L 19.671875 38.921875 
L 32.078125 38.921875 
Q 39.203125 38.921875 42.84375 42.21875 
Q 46.484375 45.515625 46.484375 51.90625 
Q 46.484375 58.296875 42.84375 61.546875 
Q 39.203125 64.796875 32.078125 64.796875 
z
" id="DejaVuSans-82"/>
      <path d="M 9.8125 72.90625 
L 55.90625 72.90625 
L 55.90625 64.59375 
L 19.671875 64.59375 
L 19.671875 43.015625 
L 54.390625 43.015625 
L 54.390625 34.71875 
L 19.671875 34.71875 
L 19.671875 8.296875 
L 56.78125 8.296875 
L 56.78125 0 
L 9.8125 0 
z
" id="DejaVuSans-69"/>
      <path d="M 19.671875 64.796875 
L 19.671875 8.109375 
L 31.59375 8.109375 
Q 46.6875 8.109375 53.6875 14.9375 
Q 60.6875 21.78125 60.6875 36.53125 
Q 60.6875 51.171875 53.6875 57.984375 
Q 46.6875 64.796875 31.59375 64.796875 
z
M 9.8125 72.90625 
L 30.078125 72.90625 
Q 51.265625 72.90625 61.171875 64.09375 
Q 71.09375 55.28125 71.09375 36.53125 
Q 71.09375 17.671875 61.125 8.828125 
Q 51.171875 0 30.078125 0 
L 9.8125 0 
z
" id="DejaVuSans-68"/>
     </defs>
     <use xlink:href="#DejaVuSans-82"/>
     <use x="69.482422" xlink:href="#DejaVuSans-77"/>
     <use x="155.761719" xlink:href="#DejaVuSans-45"/>
     <use x="191.845703" xlink:href="#DejaVuSans-77"/>
     <use x="278.125" xlink:href="#DejaVuSans-69"/>
     <use x="341.308594" xlink:href="#DejaVuSans-68"/>
     <use x="416.560547" xlink:href="#DejaVuSans-65"/>
     <use x="484.96875" xlink:href="#DejaVuSans-32"/>
     <use x="516.755859" xlink:href="#DejaVuSans-65"/>
    </g>
   </g>
   <g id="text_15">
    <!-- best 2016 -->
    <g transform="translate(375.22944 16.923809)scale(0.17 -0.17)">
     <defs>
      <path d="M 48.6875 27.296875 
Q 48.6875 37.203125 44.609375 42.84375 
Q 40.53125 48.484375 33.40625 48.484375 
Q 26.265625 48.484375 22.1875 42.84375 
Q 18.109375 37.203125 18.109375 27.296875 
Q 18.109375 17.390625 22.1875 11.75 
Q 26.265625 6.109375 33.40625 6.109375 
Q 40.53125 6.109375 44.609375 11.75 
Q 48.6875 17.390625 48.6875 27.296875 
z
M 18.109375 46.390625 
Q 20.953125 51.265625 25.265625 53.625 
Q 29.59375 56 35.59375 56 
Q 45.5625 56 51.78125 48.09375 
Q 58.015625 40.1875 58.015625 27.296875 
Q 58.015625 14.40625 51.78125 6.484375 
Q 45.5625 -1.421875 35.59375 -1.421875 
Q 29.59375 -1.421875 25.265625 0.953125 
Q 20.953125 3.328125 18.109375 8.203125 
L 18.109375 0 
L 9.078125 0 
L 9.078125 75.984375 
L 18.109375 75.984375 
z
" id="DejaVuSans-98"/>
     </defs>
     <use xlink:href="#DejaVuSans-98"/>
     <use x="63.476562" xlink:href="#DejaVuSans-101"/>
     <use x="125" xlink:href="#DejaVuSans-115"/>
     <use x="177.099609" xlink:href="#DejaVuSans-116"/>
     <use x="216.308594" xlink:href="#DejaVuSans-32"/>
     <use x="248.095703" xlink:href="#DejaVuSans-50"/>
     <use x="311.71875" xlink:href="#DejaVuSans-48"/>
     <use x="375.341797" xlink:href="#DejaVuSans-49"/>
     <use x="438.964844" xlink:href="#DejaVuSans-54"/>
    </g>
   </g>
   <g id="text_16">
    <!-- bbob-biobj f7, f8, f16, f17, 40-D -->
    <g transform="translate(60.41088 14.161286)scale(0.102 -0.102)">
     <defs>
      <path d="M 9.421875 54.6875 
L 18.40625 54.6875 
L 18.40625 -0.984375 
Q 18.40625 -11.421875 14.421875 -16.109375 
Q 10.453125 -20.796875 1.609375 -20.796875 
L -1.8125 -20.796875 
L -1.8125 -13.1875 
L 0.59375 -13.1875 
Q 5.71875 -13.1875 7.5625 -10.8125 
Q 9.421875 -8.453125 9.421875 -0.984375 
z
M 9.421875 75.984375 
L 18.40625 75.984375 
L 18.40625 64.59375 
L 9.421875 64.59375 
z
" id="DejaVuSans-106"/>
      <path d="M 8.203125 72.90625 
L 55.078125 72.90625 
L 55.078125 68.703125 
L 28.609375 0 
L 18.3125 0 
L 43.21875 64.59375 
L 8.203125 64.59375 
z
" id="DejaVuSans-55"/>
     </defs>
     <use xlink:href="#DejaVuSans-98"/>
     <use x="63.476562" xlink:href="#DejaVuSans-98"/>
     <use x="126.953125" xlink:href="#DejaVuSans-111"/>
     <use x="188.134766" xlink:href="#DejaVuSans-98"/>
     <use x="251.611328" xlink:href="#DejaVuSans-45"/>
     <use x="287.695312" xlink:href="#DejaVuSans-98"/>
     <use x="351.171875" xlink:href="#DejaVuSans-105"/>
     <use x="378.955078" xlink:href="#DejaVuSans-111"/>
     <use x="440.136719" xlink:href="#DejaVuSans-98"/>
     <use x="503.613281" xlink:href="#DejaVuSans-106"/>
     <use x="531.396484" xlink:href="#DejaVuSans-32"/>
     <use x="563.183594" xlink:href="#DejaVuSans-102"/>
     <use x="598.388672" xlink:href="#DejaVuSans-55"/>
     <use x="662.011719" xlink:href="#DejaVuSans-44"/>
     <use x="693.798828" xlink:href="#DejaVuSans-32"/>
     <use x="725.585938" xlink:href="#DejaVuSans-102"/>
     <use x="760.791016" xlink:href="#DejaVuSans-56"/>
     <use x="824.414062" xlink:href="#DejaVuSans-44"/>
     <use x="856.201172" xlink:href="#DejaVuSans-32"/>
     <use x="887.988281" xlink:href="#DejaVuSans-102"/>
     <use x="923.193359" xlink:href="#DejaVuSans-49"/>
     <use x="986.816406" xlink:href="#DejaVuSans-54"/>
     <use x="1050.439453" xlink:href="#DejaVuSans-44"/>
     <use x="1082.226562" xlink:href="#DejaVuSans-32"/>
     <use x="1114.013672" xlink:href="#DejaVuSans-102"/>
     <use x="1149.21875" xlink:href="#DejaVuSans-49"/>
     <use x="1212.841797" xlink:href="#DejaVuSans-55"/>
     <use x="1276.464844" xlink:href="#DejaVuSans-44"/>
     <use x="1308.251953" xlink:href="#DejaVuSans-32"/>
     <use x="1340.039062" xlink:href="#DejaVuSans-52"/>
     <use x="1403.662109" xlink:href="#DejaVuSans-48"/>
     <use x="1467.285156" xlink:href="#DejaVuSans-45"/>
     <use x="1503.369141" xlink:href="#DejaVuSans-68"/>
    </g>
    <!-- 58 targets: 1..-1.0e-4 -->
    <g transform="translate(60.41088 25.583055)scale(0.102 -0.102)">
     <defs>
      <path d="M 10.796875 72.90625 
L 49.515625 72.90625 
L 49.515625 64.59375 
L 19.828125 64.59375 
L 19.828125 46.734375 
Q 21.96875 47.46875 24.109375 47.828125 
Q 26.265625 48.1875 28.421875 48.1875 
Q 40.625 48.1875 47.75 41.5 
Q 54.890625 34.8125 54.890625 23.390625 
Q 54.890625 11.625 47.5625 5.09375 
Q 40.234375 -1.421875 26.90625 -1.421875 
Q 22.3125 -1.421875 17.546875 -0.640625 
Q 12.796875 0.140625 7.71875 1.703125 
L 7.71875 11.625 
Q 12.109375 9.234375 16.796875 8.0625 
Q 21.484375 6.890625 26.703125 6.890625 
Q 35.15625 6.890625 40.078125 11.328125 
Q 45.015625 15.765625 45.015625 23.390625 
Q 45.015625 31 40.078125 35.4375 
Q 35.15625 39.890625 26.703125 39.890625 
Q 22.75 39.890625 18.8125 39.015625 
Q 14.890625 38.140625 10.796875 36.28125 
z
" id="DejaVuSans-53"/>
      <path d="M 11.71875 12.40625 
L 22.015625 12.40625 
L 22.015625 0 
L 11.71875 0 
z
M 11.71875 51.703125 
L 22.015625 51.703125 
L 22.015625 39.3125 
L 11.71875 39.3125 
z
" id="DejaVuSans-58"/>
     </defs>
     <use xlink:href="#DejaVuSans-53"/>
     <use x="63.623047" xlink:href="#DejaVuSans-56"/>
     <use x="127.246094" xlink:href="#DejaVuSans-32"/>
     <use x="159.033203" xlink:href="#DejaVuSans-116"/>
     <use x="198.242188" xlink:href="#DejaVuSans-97"/>
     <use x="259.521484" xlink:href="#DejaVuSans-114"/>
     <use x="298.884766" xlink:href="#DejaVuSans-103"/>
     <use x="362.361328" xlink:href="#DejaVuSans-101"/>
     <use x="423.884766" xlink:href="#DejaVuSans-116"/>
     <use x="463.09375" xlink:href="#DejaVuSans-115"/>
     <use x="515.193359" xlink:href="#DejaVuSans-58"/>
     <use x="548.884766" xlink:href="#DejaVuSans-32"/>
     <use x="580.671875" xlink:href="#DejaVuSans-49"/>
     <use x="644.294922" xlink:href="#DejaVuSans-46"/>
     <use x="676.082031" xlink:href="#DejaVuSans-46"/>
     <use x="707.869141" xlink:href="#DejaVuSans-45"/>
     <use x="743.953125" xlink:href="#DejaVuSans-49"/>
     <use x="807.576172" xlink:href="#DejaVuSans-46"/>
     <use x="839.363281" xlink:href="#DejaVuSans-48"/>
     <use x="902.986328" xlink:href="#DejaVuSans-101"/>
     <use x="964.509766" xlink:href="#DejaVuSans-45"/>
     <use x="1000.59375" xlink:href="#DejaVuSans-52"/>
    </g>
    <!-- 10 instances -->
    <g transform="translate(60.41088 37.004824)scale(0.102 -0.102)">
     <use xlink:href="#DejaVuSans-49"/>
     <use x="63.623047" xlink:href="#DejaVuSans-48"/>
     <use x="127.246094" xlink:href="#DejaVuSans-32"/>
     <use x="159.033203" xlink:href="#DejaVuSans-105"/>
     <use x="186.816406" xlink:href="#DejaVuSans-110"/>
     <use x="250.195312" xlink:href="#DejaVuSans-115"/>
     <use x="302.294922" xlink:href="#DejaVuSans-116"/>
     <use x="341.503906" xlink:href="#DejaVuSans-97"/>
     <use x="402.783203" xlink:href="#DejaVuSans-110"/>
     <use x="466.162109" xlink:href="#DejaVuSans-99"/>
     <use x="521.142578" xlink:href="#DejaVuSans-101"/>
     <use x="582.666016" xlink:href="#DejaVuSans-115"/>
    </g>
   </g>
   <g id="text_17">
    <!-- v2.4, hv-hash=ff0e71e8cd978373 -->
    <g style="fill:#808080;" transform="translate(112.648687 293.909432)scale(0.1 -0.1)">
     <defs>
      <path d="M 54.890625 33.015625 
L 54.890625 0 
L 45.90625 0 
L 45.90625 32.71875 
Q 45.90625 40.484375 42.875 44.328125 
Q 39.84375 48.1875 33.796875 48.1875 
Q 26.515625 48.1875 22.3125 43.546875 
Q 18.109375 38.921875 18.109375 30.90625 
L 18.109375 0 
L 9.078125 0 
L 9.078125 75.984375 
L 18.109375 75.984375 
L 18.109375 46.1875 
Q 21.34375 51.125 25.703125 53.5625 
Q 30.078125 56 35.796875 56 
Q 45.21875 56 50.046875 50.171875 
Q 54.890625 44.34375 54.890625 33.015625 
z
" id="DejaVuSans-104"/>
      <path d="M 10.59375 45.40625 
L 73.1875 45.40625 
L 73.1875 37.203125 
L 10.59375 37.203125 
z
M 10.59375 25.484375 
L 73.1875 25.484375 
L 73.1875 17.1875 
L 10.59375 17.1875 
z
" id="DejaVuSans-61"/>
      <path d="M 10.984375 1.515625 
L 10.984375 10.5 
Q 14.703125 8.734375 18.5 7.8125 
Q 22.3125 6.890625 25.984375 6.890625 
Q 35.75 6.890625 40.890625 13.453125 
Q 46.046875 20.015625 46.78125 33.40625 
Q 43.953125 29.203125 39.59375 26.953125 
Q 35.25 24.703125 29.984375 24.703125 
Q 19.046875 24.703125 12.671875 31.3125 
Q 6.296875 37.9375 6.296875 49.421875 
Q 6.296875 60.640625 12.9375 67.421875 
Q 19.578125 74.21875 30.609375 74.21875 
Q 43.265625 74.21875 49.921875 64.515625 
Q 56.59375 54.828125 56.59375 36.375 
Q 56.59375 19.140625 48.40625 8.859375 
Q 40.234375 -1.421875 26.421875 -1.421875 
Q 22.703125 -1.421875 18.890625 -0.6875 
Q 15.09375 0.046875 10.984375 1.515625 
z
M 30.609375 32.421875 
Q 37.25 32.421875 41.125 36.953125 
Q 45.015625 41.5 45.015625 49.421875 
Q 45.015625 57.28125 41.125 61.84375 
Q 37.25 66.40625 30.609375 66.40625 
Q 23.96875 66.40625 20.09375 61.84375 
Q 16.21875 57.28125 16.21875 49.421875 
Q 16.21875 41.5 20.09375 36.953125 
Q 23.96875 32.421875 30.609375 32.421875 
z
" id="DejaVuSans-57"/>
      <path d="M 40.578125 39.3125 
Q 47.65625 37.796875 51.625 33 
Q 55.609375 28.21875 55.609375 21.1875 
Q 55.609375 10.40625 48.1875 4.484375 
Q 40.765625 -1.421875 27.09375 -1.421875 
Q 22.515625 -1.421875 17.65625 -0.515625 
Q 12.796875 0.390625 7.625 2.203125 
L 7.625 11.71875 
Q 11.71875 9.328125 16.59375 8.109375 
Q 21.484375 6.890625 26.8125 6.890625 
Q 36.078125 6.890625 40.9375 10.546875 
Q 45.796875 14.203125 45.796875 21.1875 
Q 45.796875 27.640625 41.28125 31.265625 
Q 36.765625 34.90625 28.71875 34.90625 
L 20.21875 34.90625 
L 20.21875 43.015625 
L 29.109375 43.015625 
Q 36.375 43.015625 40.234375 45.921875 
Q 44.09375 48.828125 44.09375 54.296875 
Q 44.09375 59.90625 40.109375 62.90625 
Q 36.140625 65.921875 28.71875 65.921875 
Q 24.65625 65.921875 20.015625 65.03125 
Q 15.375 64.15625 9.8125 62.3125 
L 9.8125 71.09375 
Q 15.4375 72.65625 20.34375 73.4375 
Q 25.25 74.21875 29.59375 74.21875 
Q 40.828125 74.21875 47.359375 69.109375 
Q 53.90625 64.015625 53.90625 55.328125 
Q 53.90625 49.265625 50.4375 45.09375 
Q 46.96875 40.921875 40.578125 39.3125 
z
" id="DejaVuSans-51"/>
     </defs>
     <use xlink:href="#DejaVuSans-118"/>
     <use x="59.179688" xlink:href="#DejaVuSans-50"/>
     <use x="122.802734" xlink:href="#DejaVuSans-46"/>
     <use x="154.589844" xlink:href="#DejaVuSans-52"/>
     <use x="218.212891" xlink:href="#DejaVuSans-44"/>
     <use x="250" xlink:href="#DejaVuSans-32"/>
     <use x="281.787109" xlink:href="#DejaVuSans-104"/>
     <use x="345.166016" xlink:href="#DejaVuSans-118"/>
     <use x="401.720703" xlink:href="#DejaVuSans-45"/>
     <use x="437.804688" xlink:href="#DejaVuSans-104"/>
     <use x="501.183594" xlink:href="#DejaVuSans-97"/>
     <use x="562.462891" xlink:href="#DejaVuSans-115"/>
     <use x="614.5625" xlink:href="#DejaVuSans-104"/>
     <use x="677.941406" xlink:href="#DejaVuSans-61"/>
     <use x="761.730469" xlink:href="#DejaVuSans-102"/>
     <use x="796.935547" xlink:href="#DejaVuSans-102"/>
     <use x="832.140625" xlink:href="#DejaVuSans-48"/>
     <use x="895.763672" xlink:href="#DejaVuSans-101"/>
     <use x="957.287109" xlink:href="#DejaVuSans-55"/>
     <use x="1020.910156" xlink:href="#DejaVuSans-49"/>
     <use x="1084.533203" xlink:href="#DejaVuSans-101"/>
     <use x="1146.056641" xlink:href="#DejaVuSans-56"/>
     <use x="1209.679688" xlink:href="#DejaVuSans-99"/>
     <use x="1264.660156" xlink:href="#DejaVuSans-100"/>
     <use x="1328.136719" xlink:href="#DejaVuSans-57"/>
     <use x="1391.759766" xlink:href="#DejaVuSans-55"/>
     <use x="1455.382812" xlink:href="#DejaVuSans-56"/>
     <use x="1519.005859" xlink:href="#DejaVuSans-51"/>
     <use x="1582.628906" xlink:href="#DejaVuSans-55"/>
     <use x="1646.251953" xlink:href="#DejaVuSans-51"/>
    </g>
   </g>
  </g>
 </g>
 <defs>
  <clipPath id="pdd723f688d">
   <rect height="295.488" width="281.088" x="57.6" y="3.456"/>
  </clipPath>
 </defs>
</svg>
