<?xml version="1.0" encoding="utf-8" standalone="no"?>
<!DOCTYPE svg PUBLIC "-//W3C//DTD SVG 1.1//EN"
  "http://www.w3.org/Graphics/SVG/1.1/DTD/svg11.dtd">
<!-- Created with matplotlib (https://matplotlib.org/) -->
<svg height="345.6pt" version="1.1" viewBox="0 0 460.8 345.6" width="460.8pt" xmlns="http://www.w3.org/2000/svg" xmlns:xlink="http://www.w3.org/1999/xlink">
 <metadata>
  <rdf:RDF xmlns:cc="http://creativecommons.org/ns#" xmlns:dc="http://purl.org/dc/elements/1.1/" xmlns:rdf="http://www.w3.org/1999/02/22-rdf-syntax-ns#">
   <cc:Work>
    <dc:type rdf:resource="http://purl.org/dc/dcmitype/StillImage"/>
    <dc:date>2021-03-30T18:25:30.024440</dc:date>
    <dc:format>image/svg+xml</dc:format>
    <dc:creator>
     <cc:Agent>
      <dc:title>Matplotlib v3.3.4, https://matplotlib.org/</dc:title>
     </cc:Agent>
    </dc:creator>
   </cc:Work>
  </rdf:RDF>
 </metadata>
 <defs>
  <style type="text/css">*{stroke-linecap:butt;stroke-linejoin:round;}</style>
 </defs>
 <g id="figure_1">
  <g id="patch_1">
   <path d="M 0 345.6 
L 460.8 345.6 
L 460.8 0 
L 0 0 
z
" style="fill:#ffffff;"/>
  </g>
  <g id="axes_1">
   <g id="patch_2">
    <path d="M 57.6 298.944 
L 338.688 298.944 
L 338.688 3.456 
L 57.6 3.456 
z
" style="fill:#ffffff;"/>
   </g>
   <g id="line2d_1">
    <path d="M -1 297.682955 
L 21.336035 297.682955 
L 21.336035 296.421911 
L 31.586611 296.421911 
L 31.586611 295.160866 
L 59.654051 295.160866 
L 59.654051 293.899821 
L 110.274038 293.899821 
L 110.274038 291.377732 
L 117.345058 291.377732 
L 117.345058 288.855642 
L 127.100304 288.855642 
L 127.100304 286.333553 
L 134.279041 286.333553 
L 134.279041 283.811463 
L 141.126708 283.811463 
L 141.126708 281.289374 
L 141.521035 281.289374 
L 141.521035 278.767284 
L 143.442252 278.767284 
L 143.442252 277.50624 
L 143.713171 277.50624 
L 143.713171 274.98415 
L 145.375596 274.98415 
L 145.375596 273.723105 
L 145.763401 273.723105 
L 145.763401 269.939971 
L 147.185137 269.939971 
L 147.185137 266.156837 
L 147.816526 266.156837 
L 147.816526 263.634748 
L 148.845415 263.634748 
L 148.845415 261.112658 
L 149.959563 261.112658 
L 149.959563 259.851614 
L 150.484675 259.851614 
L 150.484675 258.590569 
L 150.963525 258.590569 
L 150.963525 256.068479 
L 152.251347 256.068479 
L 152.251347 253.54639 
L 152.558973 253.54639 
L 152.558973 251.0243 
L 154.48856 251.0243 
L 154.48856 247.241166 
L 154.518866 247.241166 
L 154.518866 245.980122 
L 155.292098 245.980122 
L 155.292098 242.196987 
L 156.893127 242.196987 
L 156.893127 239.674898 
L 157.917963 239.674898 
L 157.917963 235.891764 
L 159.189675 235.891764 
L 159.189675 233.369674 
L 159.542562 233.369674 
L 159.542562 230.847585 
L 161.636364 230.847585 
L 161.636364 228.325495 
L 162.719386 228.325495 
L 162.719386 225.803406 
L 164.097233 225.803406 
L 164.097233 224.542361 
L 164.454856 224.542361 
L 164.454856 222.020272 
L 165.847888 222.020272 
L 165.847888 220.759227 
L 166.70164 220.759227 
L 166.70164 219.498182 
L 169.995566 219.498182 
L 169.995566 216.976093 
L 170.505381 216.976093 
L 170.505381 213.192959 
L 171.354709 213.192959 
L 171.354709 210.670869 
L 172.96307 210.670869 
L 172.96307 206.887735 
L 174.49022 206.887735 
L 174.49022 203.104601 
L 175.742576 203.104601 
L 175.742576 200.582511 
L 180.290026 200.582511 
L 180.290026 199.321467 
L 181.742975 199.321467 
L 181.742975 196.799377 
L 181.902903 196.799377 
L 181.902903 195.538333 
L 184.283737 195.538333 
L 184.283737 193.016243 
L 187.59789 193.016243 
L 187.59789 189.233109 
L 189.557116 189.233109 
L 189.557116 187.972064 
L 191.975809 187.972064 
L 191.975809 185.449975 
L 205.271944 185.449975 
L 205.271944 181.666841 
L 212.895081 181.666841 
L 212.895081 179.144751 
L 217.148587 179.144751 
L 217.148587 176.622662 
L 238.132888 176.622662 
L 238.132888 175.361617 
L 245.756287 175.361617 
L 245.756287 172.839527 
L 246.327096 172.839527 
L 246.327096 170.317438 
L 246.927045 170.317438 
L 246.927045 166.534304 
L 256.038109 166.534304 
L 256.038109 165.273259 
L 262.460022 165.273259 
L 262.460022 161.490125 
L 264.404077 161.490125 
L 264.404077 158.968036 
L 269.67198 158.968036 
L 269.67198 157.706991 
L 275.999967 157.706991 
L 275.999967 153.923857 
L 277.281096 153.923857 
L 277.281096 151.401767 
L 297.236328 151.401767 
L 297.236328 147.618633 
L 297.838114 147.618633 
L 297.838114 146.357588 
L 338.688 146.357588 
" style="fill:none;stroke:#f5deb3;stroke-linecap:square;stroke-width:4;"/>
   </g>
   <g id="line2d_2">
    <defs>
     <path d="M -0 7.778175 
L 7.778175 0 
L 0 -7.778175 
L -7.778175 -0 
z
" id="m9dabe68e5d" style="stroke:#f5deb3;stroke-linejoin:miter;stroke-width:1.5;"/>
    </defs>
    <g>
     <use style="fill:#f5deb3;stroke:#f5deb3;stroke-linejoin:miter;stroke-width:1.5;" x="134.279041" xlink:href="#m9dabe68e5d" y="283.811463"/>
     <use style="fill:#f5deb3;stroke:#f5deb3;stroke-linejoin:miter;stroke-width:1.5;" x="172.96307" xlink:href="#m9dabe68e5d" y="210.670869"/>
     <use style="fill:#f5deb3;stroke:#f5deb3;stroke-linejoin:miter;stroke-width:1.5;" x="217.148587" xlink:href="#m9dabe68e5d" y="176.622662"/>
     <use style="fill:#f5deb3;stroke:#f5deb3;stroke-linejoin:miter;stroke-width:1.5;" x="297.838114" xlink:href="#m9dabe68e5d" y="146.357588"/>
     <use style="fill:#f5deb3;stroke:#f5deb3;stroke-linejoin:miter;stroke-width:1.5;" x="297.838114" xlink:href="#m9dabe68e5d" y="146.357588"/>
     <use style="fill:#f5deb3;stroke:#f5deb3;stroke-linejoin:miter;stroke-width:1.5;" x="338.688" xlink:href="#m9dabe68e5d" y="146.357588"/>
    </g>
   </g>
   <g id="line2d_3">
    <path style="fill:none;stroke:#f5deb3;stroke-linecap:square;stroke-width:4;"/>
    <g/>
   </g>
   <g id="line2d_4">
    <path d="M 338.688 146.357588 
L 369.60768 12.232871 
" style="fill:none;stroke:#f5deb3;stroke-linecap:square;stroke-width:4;"/>
    <g>
     <use style="fill:#f5deb3;stroke:#f5deb3;stroke-linejoin:miter;stroke-width:1.5;" x="338.688" xlink:href="#m9dabe68e5d" y="146.357588"/>
     <use style="fill:#f5deb3;stroke:#f5deb3;stroke-linejoin:miter;stroke-width:1.5;" x="369.60768" xlink:href="#m9dabe68e5d" y="12.232871"/>
    </g>
   </g>
   <g id="matplotlib.axis_1">
    <g id="xtick_1">
     <g id="line2d_5">
      <path clip-path="url(#pb3e81ab73e)" d="M 57.6 298.944 
L 57.6 3.456 
" style="fill:none;stroke:#b0b0b0;stroke-linecap:square;stroke-width:0.8;"/>
     </g>
     <g id="line2d_6">
      <defs>
       <path d="M 0 0 
L 0 3.5 
" id="m70457b4a08" style="stroke:#000000;stroke-width:0.8;"/>
      </defs>
      <g>
       <use style="stroke:#000000;stroke-width:0.8;" x="57.6" xlink:href="#m70457b4a08" y="298.944"/>
      </g>
     </g>
     <g id="text_1">
      <!-- 0 -->
      <g transform="translate(51.2375 321.140875)scale(0.2 -0.2)">
       <defs>
        <path d="M 31.78125 66.40625 
Q 24.171875 66.40625 20.328125 58.90625 
Q 16.5 51.421875 16.5 36.375 
Q 16.5 21.390625 20.328125 13.890625 
Q 24.171875 6.390625 31.78125 6.390625 
Q 39.453125 6.390625 43.28125 13.890625 
Q 47.125 21.390625 47.125 36.375 
Q 47.125 51.421875 43.28125 58.90625 
Q 39.453125 66.40625 31.78125 66.40625 
z
M 31.78125 74.21875 
Q 44.046875 74.21875 50.515625 64.515625 
Q 56.984375 54.828125 56.984375 36.375 
Q 56.984375 17.96875 50.515625 8.265625 
Q 44.046875 -1.421875 31.78125 -1.421875 
Q 19.53125 -1.421875 13.0625 8.265625 
Q 6.59375 17.96875 6.59375 36.375 
Q 6.59375 54.828125 13.0625 64.515625 
Q 19.53125 74.21875 31.78125 74.21875 
z
" id="DejaVuSans-48"/>
       </defs>
       <use xlink:href="#DejaVuSans-48"/>
      </g>
     </g>
    </g>
    <g id="xtick_2">
     <g id="line2d_7">
      <path clip-path="url(#pb3e81ab73e)" d="M 137.910857 298.944 
L 137.910857 3.456 
" style="fill:none;stroke:#b0b0b0;stroke-linecap:square;stroke-width:0.8;"/>
     </g>
     <g id="line2d_8">
      <g>
       <use style="stroke:#000000;stroke-width:0.8;" x="137.910857" xlink:href="#m70457b4a08" y="298.944"/>
      </g>
     </g>
     <g id="text_2">
      <!-- 2 -->
      <g transform="translate(131.548357 321.140875)scale(0.2 -0.2)">
       <defs>
        <path d="M 19.1875 8.296875 
L 53.609375 8.296875 
L 53.609375 0 
L 7.328125 0 
L 7.328125 8.296875 
Q 12.9375 14.109375 22.625 23.890625 
Q 32.328125 33.6875 34.8125 36.53125 
Q 39.546875 41.84375 41.421875 45.53125 
Q 43.3125 49.21875 43.3125 52.78125 
Q 43.3125 58.59375 39.234375 62.25 
Q 35.15625 65.921875 28.609375 65.921875 
Q 23.96875 65.921875 18.8125 64.3125 
Q 13.671875 62.703125 7.8125 59.421875 
L 7.8125 69.390625 
Q 13.765625 71.78125 18.9375 73 
Q 24.125 74.21875 28.421875 74.21875 
Q 39.75 74.21875 46.484375 68.546875 
Q 53.21875 62.890625 53.21875 53.421875 
Q 53.21875 48.921875 51.53125 44.890625 
Q 49.859375 40.875 45.40625 35.40625 
Q 44.1875 33.984375 37.640625 27.21875 
Q 31.109375 20.453125 19.1875 8.296875 
z
" id="DejaVuSans-50"/>
       </defs>
       <use xlink:href="#DejaVuSans-50"/>
      </g>
     </g>
    </g>
    <g id="xtick_3">
     <g id="line2d_9">
      <path clip-path="url(#pb3e81ab73e)" d="M 218.221714 298.944 
L 218.221714 3.456 
" style="fill:none;stroke:#b0b0b0;stroke-linecap:square;stroke-width:0.8;"/>
     </g>
     <g id="line2d_10">
      <g>
       <use style="stroke:#000000;stroke-width:0.8;" x="218.221714" xlink:href="#m70457b4a08" y="298.944"/>
      </g>
     </g>
     <g id="text_3">
      <!-- 4 -->
      <g transform="translate(211.859214 321.140875)scale(0.2 -0.2)">
       <defs>
        <path d="M 37.796875 64.3125 
L 12.890625 25.390625 
L 37.796875 25.390625 
z
M 35.203125 72.90625 
L 47.609375 72.90625 
L 47.609375 25.390625 
L 58.015625 25.390625 
L 58.015625 17.1875 
L 47.609375 17.1875 
L 47.609375 0 
L 37.796875 0 
L 37.796875 17.1875 
L 4.890625 17.1875 
L 4.890625 26.703125 
z
" id="DejaVuSans-52"/>
       </defs>
       <use xlink:href="#DejaVuSans-52"/>
      </g>
     </g>
    </g>
    <g id="xtick_4">
     <g id="line2d_11">
      <path clip-path="url(#pb3e81ab73e)" d="M 298.532571 298.944 
L 298.532571 3.456 
" style="fill:none;stroke:#b0b0b0;stroke-linecap:square;stroke-width:0.8;"/>
     </g>
     <g id="line2d_12">
      <g>
       <use style="stroke:#000000;stroke-width:0.8;" x="298.532571" xlink:href="#m70457b4a08" y="298.944"/>
      </g>
     </g>
     <g id="text_4">
      <!-- 6 -->
      <g transform="translate(292.170071 321.140875)scale(0.2 -0.2)">
       <defs>
        <path d="M 33.015625 40.375 
Q 26.375 40.375 22.484375 35.828125 
Q 18.609375 31.296875 18.609375 23.390625 
Q 18.609375 15.53125 22.484375 10.953125 
Q 26.375 6.390625 33.015625 6.390625 
Q 39.65625 6.390625 43.53125 10.953125 
Q 47.40625 15.53125 47.40625 23.390625 
Q 47.40625 31.296875 43.53125 35.828125 
Q 39.65625 40.375 33.015625 40.375 
z
M 52.59375 71.296875 
L 52.59375 62.3125 
Q 48.875 64.0625 45.09375 64.984375 
Q 41.3125 65.921875 37.59375 65.921875 
Q 27.828125 65.921875 22.671875 59.328125 
Q 17.53125 52.734375 16.796875 39.40625 
Q 19.671875 43.65625 24.015625 45.921875 
Q 28.375 48.1875 33.59375 48.1875 
Q 44.578125 48.1875 50.953125 41.515625 
Q 57.328125 34.859375 57.328125 23.390625 
Q 57.328125 12.15625 50.6875 5.359375 
Q 44.046875 -1.421875 33.015625 -1.421875 
Q 20.359375 -1.421875 13.671875 8.265625 
Q 6.984375 17.96875 6.984375 36.375 
Q 6.984375 53.65625 15.1875 63.9375 
Q 23.390625 74.21875 37.203125 74.21875 
Q 40.921875 74.21875 44.703125 73.484375 
Q 48.484375 72.75 52.59375 71.296875 
z
" id="DejaVuSans-54"/>
       </defs>
       <use xlink:href="#DejaVuSans-54"/>
      </g>
     </g>
    </g>
    <g id="xtick_5">
     <g id="line2d_13">
      <path clip-path="url(#pb3e81ab73e)" d="M 97.755429 298.944 
L 97.755429 3.456 
" style="fill:none;stroke:#b0b0b0;stroke-linecap:square;stroke-width:0.8;"/>
     </g>
     <g id="line2d_14">
      <defs>
       <path d="M 0 0 
L 0 2 
" id="mab79c11926" style="stroke:#000000;stroke-width:0.6;"/>
      </defs>
      <g>
       <use style="stroke:#000000;stroke-width:0.6;" x="97.755429" xlink:href="#mab79c11926" y="298.944"/>
      </g>
     </g>
    </g>
    <g id="xtick_6">
     <g id="line2d_15">
      <path clip-path="url(#pb3e81ab73e)" d="M 178.066286 298.944 
L 178.066286 3.456 
" style="fill:none;stroke:#b0b0b0;stroke-linecap:square;stroke-width:0.8;"/>
     </g>
     <g id="line2d_16">
      <g>
       <use style="stroke:#000000;stroke-width:0.6;" x="178.066286" xlink:href="#mab79c11926" y="298.944"/>
      </g>
     </g>
    </g>
    <g id="xtick_7">
     <g id="line2d_17">
      <path clip-path="url(#pb3e81ab73e)" d="M 258.377143 298.944 
L 258.377143 3.456 
" style="fill:none;stroke:#b0b0b0;stroke-linecap:square;stroke-width:0.8;"/>
     </g>
     <g id="line2d_18">
      <g>
       <use style="stroke:#000000;stroke-width:0.6;" x="258.377143" xlink:href="#mab79c11926" y="298.944"/>
      </g>
     </g>
    </g>
    <g id="xtick_8">
     <g id="line2d_19">
      <path clip-path="url(#pb3e81ab73e)" d="M 338.688 298.944 
L 338.688 3.456 
" style="fill:none;stroke:#b0b0b0;stroke-linecap:square;stroke-width:0.8;"/>
     </g>
     <g id="line2d_20">
      <g>
       <use style="stroke:#000000;stroke-width:0.6;" x="338.688" xlink:href="#mab79c11926" y="298.944"/>
      </g>
     </g>
    </g>
    <g id="text_5">
     <!-- log10(# f-evals / dimension) -->
     <g transform="translate(77.764078 342.217594)scale(0.17 -0.17)">
      <defs>
       <path d="M 9.421875 75.984375 
L 18.40625 75.984375 
L 18.40625 0 
L 9.421875 0 
z
" id="DejaVuSans-108"/>
       <path d="M 30.609375 48.390625 
Q 23.390625 48.390625 19.1875 42.75 
Q 14.984375 37.109375 14.984375 27.296875 
Q 14.984375 17.484375 19.15625 11.84375 
Q 23.34375 6.203125 30.609375 6.203125 
Q 37.796875 6.203125 41.984375 11.859375 
Q 46.1875 17.53125 46.1875 27.296875 
Q 46.1875 37.015625 41.984375 42.703125 
Q 37.796875 48.390625 30.609375 48.390625 
z
M 30.609375 56 
Q 42.328125 56 49.015625 48.375 
Q 55.71875 40.765625 55.71875 27.296875 
Q 55.71875 13.875 49.015625 6.21875 
Q 42.328125 -1.421875 30.609375 -1.421875 
Q 18.84375 -1.421875 12.171875 6.21875 
Q 5.515625 13.875 5.515625 27.296875 
Q 5.515625 40.765625 12.171875 48.375 
Q 18.84375 56 30.609375 56 
z
" id="DejaVuSans-111"/>
       <path d="M 45.40625 27.984375 
Q 45.40625 37.75 41.375 43.109375 
Q 37.359375 48.484375 30.078125 48.484375 
Q 22.859375 48.484375 18.828125 43.109375 
Q 14.796875 37.75 14.796875 27.984375 
Q 14.796875 18.265625 18.828125 12.890625 
Q 22.859375 7.515625 30.078125 7.515625 
Q 37.359375 7.515625 41.375 12.890625 
Q 45.40625 18.265625 45.40625 27.984375 
z
M 54.390625 6.78125 
Q 54.390625 -7.171875 48.1875 -13.984375 
Q 42 -20.796875 29.203125 -20.796875 
Q 24.46875 -20.796875 20.265625 -20.09375 
Q 16.0625 -19.390625 12.109375 -17.921875 
L 12.109375 -9.1875 
Q 16.0625 -11.328125 19.921875 -12.34375 
Q 23.78125 -13.375 27.78125 -13.375 
Q 36.625 -13.375 41.015625 -8.765625 
Q 45.40625 -4.15625 45.40625 5.171875 
L 45.40625 9.625 
Q 42.625 4.78125 38.28125 2.390625 
Q 33.9375 0 27.875 0 
Q 17.828125 0 11.671875 7.65625 
Q 5.515625 15.328125 5.515625 27.984375 
Q 5.515625 40.671875 11.671875 48.328125 
Q 17.828125 56 27.875 56 
Q 33.9375 56 38.28125 53.609375 
Q 42.625 51.21875 45.40625 46.390625 
L 45.40625 54.6875 
L 54.390625 54.6875 
z
" id="DejaVuSans-103"/>
       <path d="M 12.40625 8.296875 
L 28.515625 8.296875 
L 28.515625 63.921875 
L 10.984375 60.40625 
L 10.984375 69.390625 
L 28.421875 72.90625 
L 38.28125 72.90625 
L 38.28125 8.296875 
L 54.390625 8.296875 
L 54.390625 0 
L 12.40625 0 
z
" id="DejaVuSans-49"/>
       <path d="M 31 75.875 
Q 24.46875 64.65625 21.28125 53.65625 
Q 18.109375 42.671875 18.109375 31.390625 
Q 18.109375 20.125 21.3125 9.0625 
Q 24.515625 -2 31 -13.1875 
L 23.1875 -13.1875 
Q 15.875 -1.703125 12.234375 9.375 
Q 8.59375 20.453125 8.59375 31.390625 
Q 8.59375 42.28125 12.203125 53.3125 
Q 15.828125 64.359375 23.1875 75.875 
z
" id="DejaVuSans-40"/>
       <path d="M 51.125 44 
L 36.921875 44 
L 32.8125 27.6875 
L 47.125 27.6875 
z
M 43.796875 71.78125 
L 38.71875 51.515625 
L 52.984375 51.515625 
L 58.109375 71.78125 
L 65.921875 71.78125 
L 60.890625 51.515625 
L 76.125 51.515625 
L 76.125 44 
L 58.984375 44 
L 54.984375 27.6875 
L 70.515625 27.6875 
L 70.515625 20.21875 
L 53.078125 20.21875 
L 48 0 
L 40.1875 0 
L 45.21875 20.21875 
L 30.90625 20.21875 
L 25.875 0 
L 18.015625 0 
L 23.09375 20.21875 
L 7.71875 20.21875 
L 7.71875 27.6875 
L 24.90625 27.6875 
L 29 44 
L 13.28125 44 
L 13.28125 51.515625 
L 30.90625 51.515625 
L 35.890625 71.78125 
z
" id="DejaVuSans-35"/>
       <path id="DejaVuSans-32"/>
       <path d="M 37.109375 75.984375 
L 37.109375 68.5 
L 28.515625 68.5 
Q 23.6875 68.5 21.796875 66.546875 
Q 19.921875 64.59375 19.921875 59.515625 
L 19.921875 54.6875 
L 34.71875 54.6875 
L 34.71875 47.703125 
L 19.921875 47.703125 
L 19.921875 0 
L 10.890625 0 
L 10.890625 47.703125 
L 2.296875 47.703125 
L 2.296875 54.6875 
L 10.890625 54.6875 
L 10.890625 58.5 
Q 10.890625 67.625 15.140625 71.796875 
Q 19.390625 75.984375 28.609375 75.984375 
z
" id="DejaVuSans-102"/>
       <path d="M 4.890625 31.390625 
L 31.203125 31.390625 
L 31.203125 23.390625 
L 4.890625 23.390625 
z
" id="DejaVuSans-45"/>
       <path d="M 56.203125 29.59375 
L 56.203125 25.203125 
L 14.890625 25.203125 
Q 15.484375 15.921875 20.484375 11.0625 
Q 25.484375 6.203125 34.421875 6.203125 
Q 39.59375 6.203125 44.453125 7.46875 
Q 49.3125 8.734375 54.109375 11.28125 
L 54.109375 2.78125 
Q 49.265625 0.734375 44.1875 -0.34375 
Q 39.109375 -1.421875 33.890625 -1.421875 
Q 20.796875 -1.421875 13.15625 6.1875 
Q 5.515625 13.8125 5.515625 26.8125 
Q 5.515625 40.234375 12.765625 48.109375 
Q 20.015625 56 32.328125 56 
Q 43.359375 56 49.78125 48.890625 
Q 56.203125 41.796875 56.203125 29.59375 
z
M 47.21875 32.234375 
Q 47.125 39.59375 43.09375 43.984375 
Q 39.0625 48.390625 32.421875 48.390625 
Q 24.90625 48.390625 20.390625 44.140625 
Q 15.875 39.890625 15.1875 32.171875 
z
" id="DejaVuSans-101"/>
       <path d="M 2.984375 54.6875 
L 12.5 54.6875 
L 29.59375 8.796875 
L 46.6875 54.6875 
L 56.203125 54.6875 
L 35.6875 0 
L 23.484375 0 
z
" id="DejaVuSans-118"/>
       <path d="M 34.28125 27.484375 
Q 23.390625 27.484375 19.1875 25 
Q 14.984375 22.515625 14.984375 16.5 
Q 14.984375 11.71875 18.140625 8.90625 
Q 21.296875 6.109375 26.703125 6.109375 
Q 34.1875 6.109375 38.703125 11.40625 
Q 43.21875 16.703125 43.21875 25.484375 
L 43.21875 27.484375 
z
M 52.203125 31.203125 
L 52.203125 0 
L 43.21875 0 
L 43.21875 8.296875 
Q 40.140625 3.328125 35.546875 0.953125 
Q 30.953125 -1.421875 24.3125 -1.421875 
Q 15.921875 -1.421875 10.953125 3.296875 
Q 6 8.015625 6 15.921875 
Q 6 25.140625 12.171875 29.828125 
Q 18.359375 34.515625 30.609375 34.515625 
L 43.21875 34.515625 
L 43.21875 35.40625 
Q 43.21875 41.609375 39.140625 45 
Q 35.0625 48.390625 27.6875 48.390625 
Q 23 48.390625 18.546875 47.265625 
Q 14.109375 46.140625 10.015625 43.890625 
L 10.015625 52.203125 
Q 14.9375 54.109375 19.578125 55.046875 
Q 24.21875 56 28.609375 56 
Q 40.484375 56 46.34375 49.84375 
Q 52.203125 43.703125 52.203125 31.203125 
z
" id="DejaVuSans-97"/>
       <path d="M 44.28125 53.078125 
L 44.28125 44.578125 
Q 40.484375 46.53125 36.375 47.5 
Q 32.28125 48.484375 27.875 48.484375 
Q 21.1875 48.484375 17.84375 46.4375 
Q 14.5 44.390625 14.5 40.28125 
Q 14.5 37.15625 16.890625 35.375 
Q 19.28125 33.59375 26.515625 31.984375 
L 29.59375 31.296875 
Q 39.15625 29.25 43.1875 25.515625 
Q 47.21875 21.78125 47.21875 15.09375 
Q 47.21875 7.46875 41.1875 3.015625 
Q 35.15625 -1.421875 24.609375 -1.421875 
Q 20.21875 -1.421875 15.453125 -0.5625 
Q 10.6875 0.296875 5.421875 2 
L 5.421875 11.28125 
Q 10.40625 8.6875 15.234375 7.390625 
Q 20.0625 6.109375 24.8125 6.109375 
Q 31.15625 6.109375 34.5625 8.28125 
Q 37.984375 10.453125 37.984375 14.40625 
Q 37.984375 18.0625 35.515625 20.015625 
Q 33.0625 21.96875 24.703125 23.78125 
L 21.578125 24.515625 
Q 13.234375 26.265625 9.515625 29.90625 
Q 5.8125 33.546875 5.8125 39.890625 
Q 5.8125 47.609375 11.28125 51.796875 
Q 16.75 56 26.8125 56 
Q 31.78125 56 36.171875 55.265625 
Q 40.578125 54.546875 44.28125 53.078125 
z
" id="DejaVuSans-115"/>
       <path d="M 25.390625 72.90625 
L 33.6875 72.90625 
L 8.296875 -9.28125 
L 0 -9.28125 
z
" id="DejaVuSans-47"/>
       <path d="M 45.40625 46.390625 
L 45.40625 75.984375 
L 54.390625 75.984375 
L 54.390625 0 
L 45.40625 0 
L 45.40625 8.203125 
Q 42.578125 3.328125 38.25 0.953125 
Q 33.9375 -1.421875 27.875 -1.421875 
Q 17.96875 -1.421875 11.734375 6.484375 
Q 5.515625 14.40625 5.515625 27.296875 
Q 5.515625 40.1875 11.734375 48.09375 
Q 17.96875 56 27.875 56 
Q 33.9375 56 38.25 53.625 
Q 42.578125 51.265625 45.40625 46.390625 
z
M 14.796875 27.296875 
Q 14.796875 17.390625 18.875 11.75 
Q 22.953125 6.109375 30.078125 6.109375 
Q 37.203125 6.109375 41.296875 11.75 
Q 45.40625 17.390625 45.40625 27.296875 
Q 45.40625 37.203125 41.296875 42.84375 
Q 37.203125 48.484375 30.078125 48.484375 
Q 22.953125 48.484375 18.875 42.84375 
Q 14.796875 37.203125 14.796875 27.296875 
z
" id="DejaVuSans-100"/>
       <path d="M 9.421875 54.6875 
L 18.40625 54.6875 
L 18.40625 0 
L 9.421875 0 
z
M 9.421875 75.984375 
L 18.40625 75.984375 
L 18.40625 64.59375 
L 9.421875 64.59375 
z
" id="DejaVuSans-105"/>
       <path d="M 52 44.1875 
Q 55.375 50.25 60.0625 53.125 
Q 64.75 56 71.09375 56 
Q 79.640625 56 84.28125 50.015625 
Q 88.921875 44.046875 88.921875 33.015625 
L 88.921875 0 
L 79.890625 0 
L 79.890625 32.71875 
Q 79.890625 40.578125 77.09375 44.375 
Q 74.3125 48.1875 68.609375 48.1875 
Q 61.625 48.1875 57.5625 43.546875 
Q 53.515625 38.921875 53.515625 30.90625 
L 53.515625 0 
L 44.484375 0 
L 44.484375 32.71875 
Q 44.484375 40.625 41.703125 44.40625 
Q 38.921875 48.1875 33.109375 48.1875 
Q 26.21875 48.1875 22.15625 43.53125 
Q 18.109375 38.875 18.109375 30.90625 
L 18.109375 0 
L 9.078125 0 
L 9.078125 54.6875 
L 18.109375 54.6875 
L 18.109375 46.1875 
Q 21.1875 51.21875 25.484375 53.609375 
Q 29.78125 56 35.6875 56 
Q 41.65625 56 45.828125 52.96875 
Q 50 49.953125 52 44.1875 
z
" id="DejaVuSans-109"/>
       <path d="M 54.890625 33.015625 
L 54.890625 0 
L 45.90625 0 
L 45.90625 32.71875 
Q 45.90625 40.484375 42.875 44.328125 
Q 39.84375 48.1875 33.796875 48.1875 
Q 26.515625 48.1875 22.3125 43.546875 
Q 18.109375 38.921875 18.109375 30.90625 
L 18.109375 0 
L 9.078125 0 
L 9.078125 54.6875 
L 18.109375 54.6875 
L 18.109375 46.1875 
Q 21.34375 51.125 25.703125 53.5625 
Q 30.078125 56 35.796875 56 
Q 45.21875 56 50.046875 50.171875 
Q 54.890625 44.34375 54.890625 33.015625 
z
" id="DejaVuSans-110"/>
       <path d="M 8.015625 75.875 
L 15.828125 75.875 
Q 23.140625 64.359375 26.78125 53.3125 
Q 30.421875 42.28125 30.421875 31.390625 
Q 30.421875 20.453125 26.78125 9.375 
Q 23.140625 -1.703125 15.828125 -13.1875 
L 8.015625 -13.1875 
Q 14.5 -2 17.703125 9.0625 
Q 20.90625 20.125 20.90625 31.390625 
Q 20.90625 42.671875 17.703125 53.65625 
Q 14.5 64.65625 8.015625 75.875 
z
" id="DejaVuSans-41"/>
      </defs>
      <use xlink:href="#DejaVuSans-108"/>
      <use x="27.783203" xlink:href="#DejaVuSans-111"/>
      <use x="88.964844" xlink:href="#DejaVuSans-103"/>
      <use x="152.441406" xlink:href="#DejaVuSans-49"/>
      <use x="216.064453" xlink:href="#DejaVuSans-48"/>
      <use x="279.6875" xlink:href="#DejaVuSans-40"/>
      <use x="318.701172" xlink:href="#DejaVuSans-35"/>
      <use x="402.490234" xlink:href="#DejaVuSans-32"/>
      <use x="434.277344" xlink:href="#DejaVuSans-102"/>
      <use x="463.982422" xlink:href="#DejaVuSans-45"/>
      <use x="500.066406" xlink:href="#DejaVuSans-101"/>
      <use x="561.589844" xlink:href="#DejaVuSans-118"/>
      <use x="620.769531" xlink:href="#DejaVuSans-97"/>
      <use x="682.048828" xlink:href="#DejaVuSans-108"/>
      <use x="709.832031" xlink:href="#DejaVuSans-115"/>
      <use x="761.931641" xlink:href="#DejaVuSans-32"/>
      <use x="793.71875" xlink:href="#DejaVuSans-47"/>
      <use x="827.410156" xlink:href="#DejaVuSans-32"/>
      <use x="859.197266" xlink:href="#DejaVuSans-100"/>
      <use x="922.673828" xlink:href="#DejaVuSans-105"/>
      <use x="950.457031" xlink:href="#DejaVuSans-109"/>
      <use x="1047.869141" xlink:href="#DejaVuSans-101"/>
      <use x="1109.392578" xlink:href="#DejaVuSans-110"/>
      <use x="1172.771484" xlink:href="#DejaVuSans-115"/>
      <use x="1224.871094" xlink:href="#DejaVuSans-105"/>
      <use x="1252.654297" xlink:href="#DejaVuSans-111"/>
      <use x="1313.835938" xlink:href="#DejaVuSans-110"/>
      <use x="1377.214844" xlink:href="#DejaVuSans-41"/>
     </g>
    </g>
   </g>
   <g id="matplotlib.axis_2">
    <g id="ytick_1">
     <g id="line2d_21">
      <path clip-path="url(#pb3e81ab73e)" d="M 57.6 298.944 
L 338.688 298.944 
" style="fill:none;stroke:#b0b0b0;stroke-linecap:square;stroke-width:0.8;"/>
     </g>
     <g id="line2d_22">
      <defs>
       <path d="M 0 0 
L -3.5 0 
" id="m9b83cdb5c1" style="stroke:#000000;stroke-width:0.8;"/>
      </defs>
      <g>
       <use style="stroke:#000000;stroke-width:0.8;" x="57.6" xlink:href="#m9b83cdb5c1" y="298.944"/>
      </g>
     </g>
     <g id="text_6">
      <!-- 0.0 -->
      <g transform="translate(25.155 305.02275)scale(0.16 -0.16)">
       <defs>
        <path d="M 10.6875 12.40625 
L 21 12.40625 
L 21 0 
L 10.6875 0 
z
" id="DejaVuSans-46"/>
       </defs>
       <use xlink:href="#DejaVuSans-48"/>
       <use x="63.623047" xlink:href="#DejaVuSans-46"/>
       <use x="95.410156" xlink:href="#DejaVuSans-48"/>
      </g>
     </g>
    </g>
    <g id="ytick_2">
     <g id="line2d_23">
      <path clip-path="url(#pb3e81ab73e)" d="M 57.6 240.431525 
L 338.688 240.431525 
" style="fill:none;stroke:#b0b0b0;stroke-linecap:square;stroke-width:0.8;"/>
     </g>
     <g id="line2d_24">
      <g>
       <use style="stroke:#000000;stroke-width:0.8;" x="57.6" xlink:href="#m9b83cdb5c1" y="240.431525"/>
      </g>
     </g>
     <g id="text_7">
      <!-- 0.2 -->
      <g transform="translate(25.155 246.510275)scale(0.16 -0.16)">
       <use xlink:href="#DejaVuSans-48"/>
       <use x="63.623047" xlink:href="#DejaVuSans-46"/>
       <use x="95.410156" xlink:href="#DejaVuSans-50"/>
      </g>
     </g>
    </g>
    <g id="ytick_3">
     <g id="line2d_25">
      <path clip-path="url(#pb3e81ab73e)" d="M 57.6 181.91905 
L 338.688 181.91905 
" style="fill:none;stroke:#b0b0b0;stroke-linecap:square;stroke-width:0.8;"/>
     </g>
     <g id="line2d_26">
      <g>
       <use style="stroke:#000000;stroke-width:0.8;" x="57.6" xlink:href="#m9b83cdb5c1" y="181.91905"/>
      </g>
     </g>
     <g id="text_8">
      <!-- 0.4 -->
      <g transform="translate(25.155 187.9978)scale(0.16 -0.16)">
       <use xlink:href="#DejaVuSans-48"/>
       <use x="63.623047" xlink:href="#DejaVuSans-46"/>
       <use x="95.410156" xlink:href="#DejaVuSans-52"/>
      </g>
     </g>
    </g>
    <g id="ytick_4">
     <g id="line2d_27">
      <path clip-path="url(#pb3e81ab73e)" d="M 57.6 123.406574 
L 338.688 123.406574 
" style="fill:none;stroke:#b0b0b0;stroke-linecap:square;stroke-width:0.8;"/>
     </g>
     <g id="line2d_28">
      <g>
       <use style="stroke:#000000;stroke-width:0.8;" x="57.6" xlink:href="#m9b83cdb5c1" y="123.406574"/>
      </g>
     </g>
     <g id="text_9">
      <!-- 0.6 -->
      <g transform="translate(25.155 129.485324)scale(0.16 -0.16)">
       <use xlink:href="#DejaVuSans-48"/>
       <use x="63.623047" xlink:href="#DejaVuSans-46"/>
       <use x="95.410156" xlink:href="#DejaVuSans-54"/>
      </g>
     </g>
    </g>
    <g id="ytick_5">
     <g id="line2d_29">
      <path clip-path="url(#pb3e81ab73e)" d="M 57.6 64.894099 
L 338.688 64.894099 
" style="fill:none;stroke:#b0b0b0;stroke-linecap:square;stroke-width:0.8;"/>
     </g>
     <g id="line2d_30">
      <g>
       <use style="stroke:#000000;stroke-width:0.8;" x="57.6" xlink:href="#m9b83cdb5c1" y="64.894099"/>
      </g>
     </g>
     <g id="text_10">
      <!-- 0.8 -->
      <g transform="translate(25.155 70.972849)scale(0.16 -0.16)">
       <defs>
        <path d="M 31.78125 34.625 
Q 24.75 34.625 20.71875 30.859375 
Q 16.703125 27.09375 16.703125 20.515625 
Q 16.703125 13.921875 20.71875 10.15625 
Q 24.75 6.390625 31.78125 6.390625 
Q 38.8125 6.390625 42.859375 10.171875 
Q 46.921875 13.96875 46.921875 20.515625 
Q 46.921875 27.09375 42.890625 30.859375 
Q 38.875 34.625 31.78125 34.625 
z
M 21.921875 38.8125 
Q 15.578125 40.375 12.03125 44.71875 
Q 8.5 49.078125 8.5 55.328125 
Q 8.5 64.0625 14.71875 69.140625 
Q 20.953125 74.21875 31.78125 74.21875 
Q 42.671875 74.21875 48.875 69.140625 
Q 55.078125 64.0625 55.078125 55.328125 
Q 55.078125 49.078125 51.53125 44.71875 
Q 48 40.375 41.703125 38.8125 
Q 48.828125 37.15625 52.796875 32.3125 
Q 56.78125 27.484375 56.78125 20.515625 
Q 56.78125 9.90625 50.3125 4.234375 
Q 43.84375 -1.421875 31.78125 -1.421875 
Q 19.734375 -1.421875 13.25 4.234375 
Q 6.78125 9.90625 6.78125 20.515625 
Q 6.78125 27.484375 10.78125 32.3125 
Q 14.796875 37.15625 21.921875 38.8125 
z
M 18.3125 54.390625 
Q 18.3125 48.734375 21.84375 45.5625 
Q 25.390625 42.390625 31.78125 42.390625 
Q 38.140625 42.390625 41.71875 45.5625 
Q 45.3125 48.734375 45.3125 54.390625 
Q 45.3125 60.0625 41.71875 63.234375 
Q 38.140625 66.40625 31.78125 66.40625 
Q 25.390625 66.40625 21.84375 63.234375 
Q 18.3125 60.0625 18.3125 54.390625 
z
" id="DejaVuSans-56"/>
       </defs>
       <use xlink:href="#DejaVuSans-48"/>
       <use x="63.623047" xlink:href="#DejaVuSans-46"/>
       <use x="95.410156" xlink:href="#DejaVuSans-56"/>
      </g>
     </g>
    </g>
    <g id="ytick_6">
     <g id="line2d_31">
      <path clip-path="url(#pb3e81ab73e)" d="M 57.6 6.381624 
L 338.688 6.381624 
" style="fill:none;stroke:#b0b0b0;stroke-linecap:square;stroke-width:0.8;"/>
     </g>
     <g id="line2d_32">
      <g>
       <use style="stroke:#000000;stroke-width:0.8;" x="57.6" xlink:href="#m9b83cdb5c1" y="6.381624"/>
      </g>
     </g>
     <g id="text_11">
      <!-- 1.0 -->
      <g transform="translate(25.155 12.460374)scale(0.16 -0.16)">
       <use xlink:href="#DejaVuSans-49"/>
       <use x="63.623047" xlink:href="#DejaVuSans-46"/>
       <use x="95.410156" xlink:href="#DejaVuSans-48"/>
      </g>
     </g>
    </g>
    <g id="text_12">
     <!-- Fraction of function,target pairs -->
     <g transform="translate(17.619531 285.585)rotate(-90)scale(0.17 -0.17)">
      <defs>
       <path d="M 9.8125 72.90625 
L 51.703125 72.90625 
L 51.703125 64.59375 
L 19.671875 64.59375 
L 19.671875 43.109375 
L 48.578125 43.109375 
L 48.578125 34.8125 
L 19.671875 34.8125 
L 19.671875 0 
L 9.8125 0 
z
" id="DejaVuSans-70"/>
       <path d="M 41.109375 46.296875 
Q 39.59375 47.171875 37.8125 47.578125 
Q 36.03125 48 33.890625 48 
Q 26.265625 48 22.1875 43.046875 
Q 18.109375 38.09375 18.109375 28.8125 
L 18.109375 0 
L 9.078125 0 
L 9.078125 54.6875 
L 18.109375 54.6875 
L 18.109375 46.1875 
Q 20.953125 51.171875 25.484375 53.578125 
Q 30.03125 56 36.53125 56 
Q 37.453125 56 38.578125 55.875 
Q 39.703125 55.765625 41.0625 55.515625 
z
" id="DejaVuSans-114"/>
       <path d="M 48.78125 52.59375 
L 48.78125 44.1875 
Q 44.96875 46.296875 41.140625 47.34375 
Q 37.3125 48.390625 33.40625 48.390625 
Q 24.65625 48.390625 19.8125 42.84375 
Q 14.984375 37.3125 14.984375 27.296875 
Q 14.984375 17.28125 19.8125 11.734375 
Q 24.65625 6.203125 33.40625 6.203125 
Q 37.3125 6.203125 41.140625 7.25 
Q 44.96875 8.296875 48.78125 10.40625 
L 48.78125 2.09375 
Q 45.015625 0.34375 40.984375 -0.53125 
Q 36.96875 -1.421875 32.421875 -1.421875 
Q 20.0625 -1.421875 12.78125 6.34375 
Q 5.515625 14.109375 5.515625 27.296875 
Q 5.515625 40.671875 12.859375 48.328125 
Q 20.21875 56 33.015625 56 
Q 37.15625 56 41.109375 55.140625 
Q 45.0625 54.296875 48.78125 52.59375 
z
" id="DejaVuSans-99"/>
       <path d="M 18.3125 70.21875 
L 18.3125 54.6875 
L 36.8125 54.6875 
L 36.8125 47.703125 
L 18.3125 47.703125 
L 18.3125 18.015625 
Q 18.3125 11.328125 20.140625 9.421875 
Q 21.96875 7.515625 27.59375 7.515625 
L 36.8125 7.515625 
L 36.8125 0 
L 27.59375 0 
Q 17.1875 0 13.234375 3.875 
Q 9.28125 7.765625 9.28125 18.015625 
L 9.28125 47.703125 
L 2.6875 47.703125 
L 2.6875 54.6875 
L 9.28125 54.6875 
L 9.28125 70.21875 
z
" id="DejaVuSans-116"/>
       <path d="M 8.5 21.578125 
L 8.5 54.6875 
L 17.484375 54.6875 
L 17.484375 21.921875 
Q 17.484375 14.15625 20.5 10.265625 
Q 23.53125 6.390625 29.59375 6.390625 
Q 36.859375 6.390625 41.078125 11.03125 
Q 45.3125 15.671875 45.3125 23.6875 
L 45.3125 54.6875 
L 54.296875 54.6875 
L 54.296875 0 
L 45.3125 0 
L 45.3125 8.40625 
Q 42.046875 3.421875 37.71875 1 
Q 33.40625 -1.421875 27.6875 -1.421875 
Q 18.265625 -1.421875 13.375 4.4375 
Q 8.5 10.296875 8.5 21.578125 
z
M 31.109375 56 
z
" id="DejaVuSans-117"/>
       <path d="M 11.71875 12.40625 
L 22.015625 12.40625 
L 22.015625 4 
L 14.015625 -11.625 
L 7.71875 -11.625 
L 11.71875 4 
z
" id="DejaVuSans-44"/>
       <path d="M 18.109375 8.203125 
L 18.109375 -20.796875 
L 9.078125 -20.796875 
L 9.078125 54.6875 
L 18.109375 54.6875 
L 18.109375 46.390625 
Q 20.953125 51.265625 25.265625 53.625 
Q 29.59375 56 35.59375 56 
Q 45.5625 56 51.78125 48.09375 
Q 58.015625 40.1875 58.015625 27.296875 
Q 58.015625 14.40625 51.78125 6.484375 
Q 45.5625 -1.421875 35.59375 -1.421875 
Q 29.59375 -1.421875 25.265625 0.953125 
Q 20.953125 3.328125 18.109375 8.203125 
z
M 48.6875 27.296875 
Q 48.6875 37.203125 44.609375 42.84375 
Q 40.53125 48.484375 33.40625 48.484375 
Q 26.265625 48.484375 22.1875 42.84375 
Q 18.109375 37.203125 18.109375 27.296875 
Q 18.109375 17.390625 22.1875 11.75 
Q 26.265625 6.109375 33.40625 6.109375 
Q 40.53125 6.109375 44.609375 11.75 
Q 48.6875 17.390625 48.6875 27.296875 
z
" id="DejaVuSans-112"/>
      </defs>
      <use xlink:href="#DejaVuSans-70"/>
      <use x="50.269531" xlink:href="#DejaVuSans-114"/>
      <use x="91.382812" xlink:href="#DejaVuSans-97"/>
      <use x="152.662109" xlink:href="#DejaVuSans-99"/>
      <use x="207.642578" xlink:href="#DejaVuSans-116"/>
      <use x="246.851562" xlink:href="#DejaVuSans-105"/>
      <use x="274.634766" xlink:href="#DejaVuSans-111"/>
      <use x="335.816406" xlink:href="#DejaVuSans-110"/>
      <use x="399.195312" xlink:href="#DejaVuSans-32"/>
      <use x="430.982422" xlink:href="#DejaVuSans-111"/>
      <use x="492.164062" xlink:href="#DejaVuSans-102"/>
      <use x="527.369141" xlink:href="#DejaVuSans-32"/>
      <use x="559.15625" xlink:href="#DejaVuSans-102"/>
      <use x="594.361328" xlink:href="#DejaVuSans-117"/>
      <use x="657.740234" xlink:href="#DejaVuSans-110"/>
      <use x="721.119141" xlink:href="#DejaVuSans-99"/>
      <use x="776.099609" xlink:href="#DejaVuSans-116"/>
      <use x="815.308594" xlink:href="#DejaVuSans-105"/>
      <use x="843.091797" xlink:href="#DejaVuSans-111"/>
      <use x="904.273438" xlink:href="#DejaVuSans-110"/>
      <use x="967.652344" xlink:href="#DejaVuSans-44"/>
      <use x="999.439453" xlink:href="#DejaVuSans-116"/>
      <use x="1038.648438" xlink:href="#DejaVuSans-97"/>
      <use x="1099.927734" xlink:href="#DejaVuSans-114"/>
      <use x="1139.291016" xlink:href="#DejaVuSans-103"/>
      <use x="1202.767578" xlink:href="#DejaVuSans-101"/>
      <use x="1264.291016" xlink:href="#DejaVuSans-116"/>
      <use x="1303.5" xlink:href="#DejaVuSans-32"/>
      <use x="1335.287109" xlink:href="#DejaVuSans-112"/>
      <use x="1398.763672" xlink:href="#DejaVuSans-97"/>
      <use x="1460.042969" xlink:href="#DejaVuSans-105"/>
      <use x="1487.826172" xlink:href="#DejaVuSans-114"/>
      <use x="1528.939453" xlink:href="#DejaVuSans-115"/>
     </g>
    </g>
   </g>
   <g id="line2d_33">
    <defs>
     <path d="M 0 1.5 
C 0.397805 1.5 0.77937 1.341951 1.06066 1.06066 
C 1.341951 0.77937 1.5 0.397805 1.5 0 
C 1.5 -0.397805 1.341951 -0.77937 1.06066 -1.06066 
C 0.77937 -1.341951 0.397805 -1.5 0 -1.5 
C -0.397805 -1.5 -0.77937 -1.341951 -1.06066 -1.06066 
C -1.341951 -0.77937 -1.5 -0.397805 -1.5 0 
C -1.5 0.397805 -1.341951 0.77937 -1.06066 1.06066 
C -0.77937 1.341951 -0.397805 1.5 0 1.5 
z
" id="mb0c275926e" style="stroke:#f5deb3;"/>
    </defs>
    <g>
     <use style="fill:#f5deb3;stroke:#f5deb3;" x="297.838114" xlink:href="#mb0c275926e" y="146.357588"/>
     <use style="fill:#f5deb3;stroke:#f5deb3;" x="297.838114" xlink:href="#mb0c275926e" y="146.357588"/>
    </g>
   </g>
   <g id="line2d_34">
    <defs>
     <path d="M 0 1.5 
C 0.397805 1.5 0.77937 1.341951 1.06066 1.06066 
C 1.341951 0.77937 1.5 0.397805 1.5 0 
C 1.5 -0.397805 1.341951 -0.77937 1.06066 -1.06066 
C 0.77937 -1.341951 0.397805 -1.5 0 -1.5 
C -0.397805 -1.5 -0.77937 -1.341951 -1.06066 -1.06066 
C -1.341951 -0.77937 -1.5 -0.397805 -1.5 0 
C -1.5 0.397805 -1.341951 0.77937 -1.06066 1.06066 
C -0.77937 1.341951 -0.397805 1.5 0 1.5 
z
" id="m8967c54f95" style="stroke:#ff7500;"/>
    </defs>
    <g>
     <use style="fill:#ff7500;stroke:#ff7500;" x="257.916474" xlink:href="#m8967c54f95" y="159.724662"/>
     <use style="fill:#ff7500;stroke:#ff7500;" x="257.916474" xlink:href="#m8967c54f95" y="159.724662"/>
    </g>
   </g>
   <g id="line2d_35">
    <path d="M 133.953874 298.944 
L 133.953874 298.817896 
L 134.182126 298.817896 
L 134.182126 298.691791 
L 134.561313 298.691791 
L 134.661403 298.439582 
L 135.22476 298.439582 
L 135.265399 298.061269 
L 135.376671 298.061269 
L 135.427015 297.682955 
L 135.552244 297.682955 
L 135.552244 297.556851 
L 136.092812 297.556851 
L 136.092812 297.430746 
L 136.218171 297.430746 
L 136.318768 297.052433 
L 136.565398 297.052433 
L 136.61243 296.800224 
L 137.126135 296.800224 
L 137.217107 296.421911 
L 137.496142 296.421911 
L 137.496142 296.295806 
L 137.731182 296.295806 
L 137.827823 295.917493 
L 137.915216 295.917493 
L 137.989158 295.160866 
L 138.093015 295.160866 
L 138.093015 295.034761 
L 138.383962 295.034761 
L 138.383962 294.908657 
L 138.794909 294.908657 
L 138.794909 294.782552 
L 138.980413 294.782552 
L 138.980413 294.656448 
L 139.176133 294.656448 
L 139.281238 294.404239 
L 139.317473 294.404239 
L 139.37369 294.15203 
L 139.529345 294.15203 
L 139.628399 293.773717 
L 139.648142 293.773717 
L 139.691499 293.521508 
L 139.968784 293.521508 
L 140.057671 293.143194 
L 140.203543 293.143194 
L 140.272217 292.890985 
L 140.355786 292.890985 
L 140.465336 292.134358 
L 140.53674 292.134358 
L 140.604116 291.88215 
L 140.75662 291.88215 
L 140.793615 291.503836 
L 140.896784 291.503836 
L 140.97742 291.125523 
L 141.0103 291.125523 
L 141.115828 290.873314 
L 141.152069 290.873314 
L 141.220721 290.368896 
L 141.496206 290.368896 
L 141.574123 289.36006 
L 141.612952 289.36006 
L 141.679816 288.981747 
L 141.788363 288.981747 
L 141.889299 288.603433 
L 141.906643 288.603433 
L 141.906643 288.477329 
L 142.168169 288.477329 
L 142.277122 287.846806 
L 142.283909 287.846806 
L 142.351634 287.342389 
L 142.516459 287.342389 
L 142.619936 287.09018 
L 142.653186 287.09018 
L 142.719495 286.585762 
L 142.782256 286.585762 
L 142.877616 286.081344 
L 142.933275 286.081344 
L 143.008296 285.829135 
L 143.050558 285.829135 
L 143.154151 285.450821 
L 143.565632 285.450821 
L 143.67562 284.694195 
L 143.713171 284.694195 
L 143.803587 284.441986 
L 143.87806 284.441986 
L 143.905906 283.937568 
L 143.992255 283.937568 
L 144.093477 283.559254 
L 144.108762 283.559254 
L 144.178904 282.928732 
L 144.233601 282.928732 
L 144.276025 282.424314 
L 144.35454 282.424314 
L 144.399676 281.919896 
L 144.531407 281.919896 
L 144.635487 281.667687 
L 144.712404 281.667687 
L 144.80367 281.163269 
L 144.847661 281.163269 
L 144.946964 280.658851 
L 145.152526 280.658851 
L 145.24725 279.902225 
L 145.290137 279.902225 
L 145.401152 279.271702 
L 145.421003 279.271702 
L 145.494539 278.893389 
L 145.632289 278.893389 
L 145.713304 278.515075 
L 145.771737 278.515075 
L 145.863165 277.380135 
L 145.888018 277.380135 
L 145.888018 277.254031 
L 146.050066 277.254031 
L 146.093753 276.749613 
L 146.19165 276.749613 
L 146.272814 275.866882 
L 146.417963 275.866882 
L 146.527367 275.362464 
L 146.538004 275.362464 
L 146.538004 275.236359 
L 146.657225 275.236359 
L 146.762519 274.227523 
L 146.814928 274.227523 
L 146.908871 273.597001 
L 146.94267 273.597001 
L 147.048842 272.840374 
L 147.19538 272.840374 
L 147.294939 272.335956 
L 147.307662 272.335956 
L 147.376206 271.831538 
L 147.431857 271.831538 
L 147.492367 271.327121 
L 147.570215 271.327121 
L 147.680117 270.822703 
L 147.707484 270.822703 
L 147.806642 270.066076 
L 147.888024 270.066076 
L 147.981269 269.561658 
L 148.013055 269.561658 
L 148.103206 268.426718 
L 148.163856 268.426718 
L 148.258051 267.796195 
L 148.409145 267.796195 
L 148.502028 267.039568 
L 148.528136 267.039568 
L 148.596781 266.661255 
L 148.686322 266.661255 
L 148.773067 265.778524 
L 148.808112 265.778524 
L 148.917464 265.40021 
L 148.961476 265.40021 
L 149.060675 264.517479 
L 149.108916 264.517479 
L 149.147871 264.26527 
L 149.359452 264.26527 
L 149.42716 263.634748 
L 149.548376 263.634748 
L 149.60644 263.13033 
L 149.841182 263.13033 
L 149.935513 262.625912 
L 149.970484 262.625912 
L 149.970484 262.499807 
L 150.092331 262.499807 
L 150.181003 262.247598 
L 150.211179 262.247598 
L 150.309961 261.743181 
L 150.437972 261.743181 
L 150.54816 261.112658 
L 150.573489 261.112658 
L 150.573489 260.860449 
L 150.684923 260.860449 
L 150.77898 259.851614 
L 150.806058 259.851614 
L 150.806058 259.599405 
L 151.035567 259.599405 
L 151.133886 258.716673 
L 151.162458 258.716673 
L 151.270202 257.833942 
L 151.282358 257.833942 
L 151.38534 257.329524 
L 151.395404 257.329524 
L 151.483714 256.825106 
L 151.523708 256.825106 
L 151.627265 256.068479 
L 151.660987 256.068479 
L 151.678813 255.690166 
L 151.816845 255.690166 
L 151.903052 255.437957 
L 152.114793 255.437957 
L 152.199544 254.807435 
L 152.23026 254.807435 
L 152.23026 254.68133 
L 152.358301 254.68133 
L 152.439984 254.176912 
L 152.489189 254.176912 
L 152.564618 253.672494 
L 152.667804 253.672494 
L 152.718236 253.294181 
L 152.787111 253.294181 
L 152.818666 252.789763 
L 152.931422 252.789763 
L 152.982936 251.780927 
L 153.081856 251.780927 
L 153.192929 250.645987 
L 153.203816 250.645987 
L 153.306906 249.637151 
L 153.404011 249.637151 
L 153.498795 248.75442 
L 153.537988 248.75442 
L 153.640896 247.997793 
L 153.771317 247.997793 
L 153.834414 247.241166 
L 153.946025 247.241166 
L 153.946025 247.115062 
L 154.065562 247.115062 
L 154.172277 246.484539 
L 154.252741 246.484539 
L 154.348131 246.106226 
L 154.392243 246.106226 
L 154.485189 245.475704 
L 154.674612 245.475704 
L 154.746156 245.09739 
L 154.797553 245.09739 
L 154.90154 244.466868 
L 154.922921 244.466868 
L 155.011454 244.214659 
L 155.081632 244.214659 
L 155.19042 243.96245 
L 155.235683 243.96245 
L 155.235683 243.836346 
L 155.380382 243.836346 
L 155.439522 243.458032 
L 155.509592 243.458032 
L 155.595203 242.701405 
L 155.669376 242.701405 
L 155.751073 242.196987 
L 155.808972 242.196987 
L 155.911776 241.692569 
L 155.976883 241.692569 
L 156.080243 241.062047 
L 156.100228 241.062047 
L 156.100228 240.809838 
L 156.215076 240.809838 
L 156.289704 240.053211 
L 156.391232 240.053211 
L 156.495176 239.674898 
L 156.549163 239.674898 
L 156.601491 239.17048 
L 156.742737 239.17048 
L 156.787104 238.413853 
L 157.036408 238.413853 
L 157.100358 238.03554 
L 157.252023 238.03554 
L 157.358125 237.531122 
L 157.517493 237.531122 
L 157.550041 237.152808 
L 157.689448 237.152808 
L 157.781772 236.143973 
L 157.822184 236.143973 
L 157.890255 235.387346 
L 157.937332 235.387346 
L 158.046229 234.37851 
L 158.072318 234.37851 
L 158.162642 234.000197 
L 158.242991 234.000197 
L 158.341898 233.495779 
L 158.45636 233.495779 
L 158.507289 233.24357 
L 158.637951 233.24357 
L 158.726721 232.486943 
L 158.918609 232.486943 
L 158.918609 232.234734 
L 159.176801 232.234734 
L 159.255185 231.856421 
L 159.399465 231.856421 
L 159.492042 231.604212 
L 159.540039 231.604212 
L 159.643163 231.225898 
L 159.695748 231.225898 
L 159.734459 230.847585 
L 159.817832 230.847585 
L 159.890922 229.838749 
L 159.985851 229.838749 
L 159.985851 229.712645 
L 160.249422 229.712645 
L 160.249422 229.58654 
L 160.433737 229.58654 
L 160.541255 228.829913 
L 160.546018 228.829913 
L 160.644562 228.4516 
L 160.708377 228.4516 
L 160.774311 227.821078 
L 160.946208 227.821078 
L 160.946208 227.694973 
L 161.099134 227.694973 
L 161.115276 227.442764 
L 161.238149 227.442764 
L 161.307812 226.938346 
L 161.445179 226.938346 
L 161.529784 226.686137 
L 161.671003 226.686137 
L 161.751188 225.677301 
L 161.793361 225.677301 
L 161.793361 225.551197 
L 161.951153 225.551197 
L 162.024596 225.046779 
L 162.127116 225.046779 
L 162.204154 224.542361 
L 162.318538 224.542361 
L 162.415072 224.037943 
L 162.454604 224.037943 
L 162.480198 223.65963 
L 162.690982 223.65963 
L 162.763477 223.281316 
L 162.876347 223.281316 
L 162.90653 223.029108 
L 163.01228 223.029108 
L 163.01228 222.903003 
L 163.174832 222.903003 
L 163.250446 222.398585 
L 163.510535 222.398585 
L 163.552673 221.894167 
L 163.680471 221.894167 
L 163.680471 221.768063 
L 163.804376 221.768063 
L 163.804376 221.641958 
L 163.922502 221.641958 
L 163.973442 221.13754 
L 164.122468 221.13754 
L 164.221115 220.759227 
L 164.252911 220.759227 
L 164.321126 220.0026 
L 164.413891 220.0026 
L 164.413891 219.876496 
L 164.652607 219.876496 
L 164.747373 219.245973 
L 164.916851 219.245973 
L 164.916851 218.993764 
L 165.034144 218.993764 
L 165.034144 218.741555 
L 165.174411 218.741555 
L 165.26094 217.984929 
L 165.33438 217.984929 
L 165.358792 217.354406 
L 165.619747 217.354406 
L 165.704986 216.976093 
L 165.744799 216.976093 
L 165.781875 216.597779 
L 165.932022 216.597779 
L 166.015751 216.219466 
L 166.070481 216.219466 
L 166.070481 216.093362 
L 166.295407 216.093362 
L 166.391045 215.588944 
L 166.495475 215.588944 
L 166.550409 214.958421 
L 166.652214 214.958421 
L 166.698293 214.706212 
L 166.846593 214.706212 
L 166.846593 214.454003 
L 166.981298 214.454003 
L 167.044572 214.07569 
L 167.272742 214.07569 
L 167.273552 213.823481 
L 167.396975 213.823481 
L 167.481974 213.319063 
L 167.780184 213.319063 
L 167.8069 212.814645 
L 167.988113 212.814645 
L 168.017616 212.436332 
L 168.104282 212.436332 
L 168.145145 211.679705 
L 168.228882 211.679705 
L 168.300775 211.301392 
L 168.573399 211.301392 
L 168.573399 211.175287 
L 168.693211 211.175287 
L 168.798859 210.670869 
L 168.869922 210.670869 
L 168.889856 210.41866 
L 168.990655 210.41866 
L 168.990655 210.292556 
L 169.156401 210.292556 
L 169.243387 209.535929 
L 169.300417 209.535929 
L 169.372341 209.28372 
L 169.532381 209.28372 
L 169.599814 208.905407 
L 169.683917 208.905407 
L 169.683917 208.779302 
L 169.802665 208.779302 
L 169.829254 208.527093 
L 169.956045 208.527093 
L 169.956045 208.400989 
L 170.167166 208.400989 
L 170.176764 208.14878 
L 170.347956 208.14878 
L 170.358133 207.644362 
L 170.512778 207.644362 
L 170.575862 207.392153 
L 170.64339 207.392153 
L 170.64339 207.266048 
L 170.820656 207.266048 
L 170.837162 207.01384 
L 171.0575 207.01384 
L 171.0575 206.887735 
L 171.322648 206.887735 
L 171.421208 206.509422 
L 171.476642 206.509422 
L 171.525559 206.257213 
L 171.601519 206.257213 
L 171.658273 205.878899 
L 171.748698 205.878899 
L 171.806849 205.62669 
L 171.949835 205.62669 
L 172.042459 205.374481 
L 172.31196 205.374481 
L 172.31196 205.248377 
L 172.562422 205.248377 
L 172.620905 204.996168 
L 172.940272 204.996168 
L 172.940272 204.870064 
L 173.064425 204.870064 
L 173.133983 204.113437 
L 173.250449 204.113437 
L 173.291774 203.735123 
L 173.401498 203.735123 
L 173.408333 203.35681 
L 173.545602 203.35681 
L 173.550686 203.104601 
L 174.112037 203.104601 
L 174.161193 202.726287 
L 174.24824 202.726287 
L 174.264513 202.474079 
L 174.591083 202.474079 
L 174.591083 202.22187 
L 174.726777 202.22187 
L 174.726777 202.095765 
L 174.880275 202.095765 
L 174.880275 201.969661 
L 175.006993 201.969661 
L 175.095616 201.717452 
L 175.327216 201.717452 
L 175.327216 201.465243 
L 175.743074 201.465243 
L 175.743074 201.339138 
L 175.897796 201.339138 
L 175.945128 200.582511 
L 176.05605 200.582511 
L 176.101491 200.078094 
L 176.193475 200.078094 
L 176.193475 199.951989 
L 176.395205 199.951989 
L 176.395205 199.69978 
L 176.516657 199.69978 
L 176.516657 199.447571 
L 176.754232 199.447571 
L 176.781943 199.069258 
L 177.078817 199.069258 
L 177.078817 198.943153 
L 177.480629 198.943153 
L 177.480629 198.690944 
L 177.595672 198.690944 
L 177.6185 198.312631 
L 177.753071 198.312631 
L 177.753071 198.060422 
L 178.019573 198.060422 
L 178.019573 197.934318 
L 178.569067 197.934318 
L 178.56949 197.556004 
L 179.357897 197.556004 
L 179.418117 196.925482 
L 179.486169 196.925482 
L 179.486169 196.673273 
L 179.686363 196.673273 
L 179.726445 196.168855 
L 179.838659 196.168855 
L 179.85952 195.790541 
L 180.1517 195.790541 
L 180.155954 195.412228 
L 180.472898 195.412228 
L 180.472898 195.286124 
L 180.693293 195.286124 
L 180.693293 195.033915 
L 180.829639 195.033915 
L 180.918714 194.529497 
L 181.285399 194.529497 
L 181.347999 194.151183 
L 181.606852 194.151183 
L 181.606852 193.898974 
L 181.848938 193.898974 
L 181.848938 193.77287 
L 181.980405 193.77287 
L 181.980405 193.520661 
L 182.147844 193.520661 
L 182.147844 193.268452 
L 182.41693 193.268452 
L 182.506725 192.764034 
L 182.568129 192.764034 
L 182.568129 192.511825 
L 182.753719 192.511825 
L 182.803963 192.007407 
L 182.970626 192.007407 
L 183.0337 191.629094 
L 183.613864 191.629094 
L 183.704976 191.124676 
L 183.745632 191.124676 
L 183.745632 190.872467 
L 183.937233 190.872467 
L 184.019859 190.494154 
L 184.234525 190.494154 
L 184.297162 189.737527 
L 184.424491 189.737527 
L 184.424491 189.611422 
L 184.757084 189.611422 
L 184.816987 189.233109 
L 184.899093 189.233109 
L 184.899093 189.107004 
L 185.010996 189.107004 
L 185.010996 188.9809 
L 185.49803 188.9809 
L 185.564808 188.728691 
L 185.759413 188.728691 
L 185.77287 188.224273 
L 186.285413 188.224273 
L 186.364425 187.719855 
L 186.474337 187.719855 
L 186.474337 187.467646 
L 186.614298 187.467646 
L 186.688381 186.963228 
L 187.218464 186.963228 
L 187.317496 186.332706 
L 187.458257 186.332706 
L 187.47072 186.080497 
L 187.667919 186.080497 
L 187.667919 185.828288 
L 187.830565 185.828288 
L 187.830565 185.702184 
L 188.031146 185.702184 
L 188.031146 185.449975 
L 188.327759 185.449975 
L 188.396128 185.071661 
L 188.476714 185.071661 
L 188.551435 184.567243 
L 188.794681 184.567243 
L 188.794681 184.441139 
L 188.969841 184.441139 
L 189.042947 183.936721 
L 189.293684 183.936721 
L 189.293684 183.684512 
L 189.441233 183.684512 
L 189.441233 183.558408 
L 189.838396 183.558408 
L 189.928506 183.05399 
L 190.022547 183.05399 
L 190.022547 182.801781 
L 190.72723 182.801781 
L 190.796283 182.423467 
L 190.912507 182.423467 
L 190.912507 182.297363 
L 191.353943 182.297363 
L 191.353943 182.045154 
L 191.690518 182.045154 
L 191.690518 181.792945 
L 191.841367 181.792945 
L 191.90162 181.288527 
L 192.355165 181.288527 
L 192.355165 181.162423 
L 192.715154 181.162423 
L 192.715154 181.036318 
L 193.197418 181.036318 
L 193.197418 180.784109 
L 193.310381 180.784109 
L 193.310381 180.658005 
L 193.602782 180.658005 
L 193.630486 180.279691 
L 193.798978 180.279691 
L 193.798978 180.153587 
L 193.959374 180.153587 
L 193.959374 179.901378 
L 194.423194 179.901378 
L 194.423194 179.775273 
L 194.826539 179.775273 
L 194.826539 179.523065 
L 195.110536 179.523065 
L 195.110536 179.270856 
L 195.278382 179.270856 
L 195.278382 179.018647 
L 195.424821 179.018647 
L 195.424821 178.892542 
L 195.606755 178.892542 
L 195.606755 178.640333 
L 195.74383 178.640333 
L 195.74383 178.388124 
L 195.919194 178.388124 
L 195.919194 178.26202 
L 196.094983 178.26202 
L 196.094983 178.009811 
L 196.400242 178.009811 
L 196.400242 177.757602 
L 196.850864 177.757602 
L 196.919919 177.12708 
L 197.135834 177.12708 
L 197.135834 176.874871 
L 197.777565 176.874871 
L 197.837161 176.622662 
L 198.239405 176.622662 
L 198.239405 176.496557 
L 199.381999 176.496557 
L 199.381999 176.244348 
L 199.902107 176.244348 
L 199.902107 175.992139 
L 200.126028 175.992139 
L 200.126028 175.73993 
L 200.531912 175.73993 
L 200.531912 175.613826 
L 200.668912 175.613826 
L 200.668912 175.361617 
L 200.909044 175.361617 
L 200.968359 174.857199 
L 201.984555 174.857199 
L 201.988537 174.60499 
L 202.856515 174.60499 
L 202.856515 174.478886 
L 203.395472 174.478886 
L 203.395472 174.352781 
L 203.888344 174.352781 
L 203.888344 174.226677 
L 204.067037 174.226677 
L 204.067037 174.100572 
L 206.52321 174.100572 
L 206.52321 173.974468 
L 206.643961 173.974468 
L 206.643961 173.848363 
L 206.836729 173.848363 
L 206.836729 173.722259 
L 207.899402 173.722259 
L 207.899402 173.596154 
L 208.099116 173.596154 
L 208.099116 173.47005 
L 208.774453 173.47005 
L 208.774453 173.343945 
L 211.437917 173.343945 
L 211.444799 172.965632 
L 212.070681 172.965632 
L 212.070681 172.839527 
L 212.224227 172.839527 
L 212.224227 172.713423 
L 212.824464 172.713423 
L 212.824464 172.587319 
L 213.425117 172.587319 
L 213.439806 172.33511 
L 216.156744 172.33511 
L 216.156744 172.209005 
L 216.450302 172.209005 
L 216.450302 171.956796 
L 217.81307 171.956796 
L 217.81307 171.704587 
L 218.668789 171.704587 
L 218.680726 171.326274 
L 218.782642 171.326274 
L 218.782642 171.200169 
L 219.229325 171.200169 
L 219.229325 171.074065 
L 219.602248 171.074065 
L 219.602248 170.94796 
L 220.000899 170.94796 
L 220.000899 170.821856 
L 220.964479 170.821856 
L 220.996561 170.569647 
L 221.251744 170.569647 
L 221.251744 170.443543 
L 221.457096 170.443543 
L 221.457096 170.317438 
L 221.570804 170.317438 
L 221.570804 170.191334 
L 221.994326 170.191334 
L 221.994326 170.065229 
L 222.29751 170.065229 
L 222.29751 169.939125 
L 222.513045 169.939125 
L 222.513045 169.81302 
L 224.072381 169.81302 
L 224.072381 169.560811 
L 224.19514 169.560811 
L 224.19514 169.308602 
L 224.681027 169.308602 
L 224.681027 169.182498 
L 224.913641 169.182498 
L 224.913641 169.056393 
L 225.399166 169.056393 
L 225.399166 168.930289 
L 227.492151 168.930289 
L 227.601876 168.551975 
L 228.170613 168.551975 
L 228.229585 168.299766 
L 228.394489 168.299766 
L 228.394489 168.047558 
L 228.969635 168.047558 
L 228.969635 167.795349 
L 229.128372 167.795349 
L 229.128372 167.669244 
L 230.633383 167.669244 
L 230.633383 167.417035 
L 231.176816 167.417035 
L 231.176816 167.164826 
L 231.316799 167.164826 
L 231.316799 167.038722 
L 232.646504 167.038722 
L 232.646504 166.786513 
L 234.284535 166.786513 
L 234.286653 166.408199 
L 235.080277 166.408199 
L 235.080277 166.282095 
L 235.560693 166.282095 
L 235.560693 166.15599 
L 236.016997 166.15599 
L 236.016997 165.903781 
L 236.317979 165.903781 
L 236.40417 165.651573 
L 237.020867 165.651573 
L 237.020867 165.399364 
L 237.39885 165.399364 
L 237.39885 165.273259 
L 237.531226 165.273259 
L 237.531226 165.147155 
L 238.321211 165.147155 
L 238.321211 164.894946 
L 238.789685 164.894946 
L 238.789685 164.768841 
L 239.761199 164.768841 
L 239.761199 164.642737 
L 241.446806 164.642737 
L 241.446806 164.516632 
L 241.700539 164.516632 
L 241.700539 164.264423 
L 241.978477 164.264423 
L 242.010981 163.760005 
L 242.179706 163.760005 
L 242.179706 163.633901 
L 243.087624 163.633901 
L 243.087624 163.507797 
L 243.506669 163.507797 
L 243.506669 163.381692 
L 244.049266 163.381692 
L 244.049266 163.255588 
L 244.949045 163.255588 
L 244.949045 163.003379 
L 245.268046 163.003379 
L 245.268046 162.877274 
L 246.025371 162.877274 
L 246.025371 162.75117 
L 246.14099 162.75117 
L 246.176307 162.372856 
L 246.711718 162.372856 
L 246.746272 162.120647 
L 248.231618 162.120647 
L 248.231618 161.994543 
L 248.905681 161.994543 
L 248.967463 161.742334 
L 249.252959 161.742334 
L 249.252959 161.616229 
L 249.528665 161.616229 
L 249.528665 161.490125 
L 250.625341 161.490125 
L 250.698303 161.237916 
L 252.331224 161.237916 
L 252.363814 160.985707 
L 253.282536 160.985707 
L 253.282536 160.859603 
L 253.902485 160.859603 
L 253.902485 160.733498 
L 254.305586 160.733498 
L 254.305586 160.607394 
L 254.520388 160.607394 
L 254.520388 160.481289 
L 255.010431 160.481289 
L 255.010431 160.355185 
L 255.361259 160.355185 
L 255.361259 160.22908 
L 256.626508 160.22908 
L 256.626508 160.102976 
L 257.436432 160.102976 
L 257.436432 159.976871 
L 257.916474 159.976871 
L 257.916474 159.724662 
L 338.688 159.724662 
L 338.688 159.724662 
" style="fill:none;stroke:#ff7500;stroke-linecap:square;stroke-width:1.5;"/>
   </g>
   <g id="line2d_36">
    <defs>
     <path d="M 0 -6 
L -1.347084 -1.854102 
L -5.706339 -1.854102 
L -2.179628 0.708204 
L -3.526712 4.854102 
L -0 2.291796 
L 3.526712 4.854102 
L 2.179628 0.708204 
L 5.706339 -1.854102 
L 1.347084 -1.854102 
z
" id="m0cbda0a9fa" style="stroke:#ff7500;stroke-linejoin:bevel;stroke-width:1.5;"/>
    </defs>
    <g>
     <use style="fill-opacity:0;stroke:#ff7500;stroke-linejoin:bevel;stroke-width:1.5;" x="159.399465" xlink:href="#m0cbda0a9fa" y="231.856421"/>
     <use style="fill-opacity:0;stroke:#ff7500;stroke-linejoin:bevel;stroke-width:1.5;" x="194.423194" xlink:href="#m0cbda0a9fa" y="179.775273"/>
     <use style="fill-opacity:0;stroke:#ff7500;stroke-linejoin:bevel;stroke-width:1.5;" x="257.916474" xlink:href="#m0cbda0a9fa" y="159.976871"/>
     <use style="fill-opacity:0;stroke:#ff7500;stroke-linejoin:bevel;stroke-width:1.5;" x="257.916474" xlink:href="#m0cbda0a9fa" y="159.724662"/>
     <use style="fill-opacity:0;stroke:#ff7500;stroke-linejoin:bevel;stroke-width:1.5;" x="338.688" xlink:href="#m0cbda0a9fa" y="159.724662"/>
    </g>
   </g>
   <g id="line2d_37">
    <path style="fill:none;stroke:#ff7500;stroke-linecap:square;stroke-width:1.5;"/>
    <g/>
   </g>
   <g id="line2d_38">
    <path clip-path="url(#pb3e81ab73e)" d="M 258.377143 159.724662 
" style="fill:none;stroke:#ff7500;stroke-linecap:square;stroke-width:1.5;"/>
    <defs>
     <path d="M -12 12 
L 12 -12 
M -12 -12 
L 12 12 
" id="m065be51e83" style="stroke:#ff7500;"/>
    </defs>
    <g clip-path="url(#pb3e81ab73e)">
     <use style="fill:#ff7500;stroke:#ff7500;" x="258.377143" xlink:href="#m065be51e83" y="159.724662"/>
    </g>
   </g>
   <g id="line2d_39">
    <defs>
     <path d="M 0 1.5 
C 0.397805 1.5 0.77937 1.341951 1.06066 1.06066 
C 1.341951 0.77937 1.5 0.397805 1.5 0 
C 1.5 -0.397805 1.341951 -0.77937 1.06066 -1.06066 
C 0.77937 -1.341951 0.397805 -1.5 0 -1.5 
C -0.397805 -1.5 -0.77937 -1.341951 -1.06066 -1.06066 
C -1.341951 -0.77937 -1.5 -0.397805 -1.5 0 
C -1.5 0.397805 -1.341951 0.77937 -1.06066 1.06066 
C -0.77937 1.341951 -0.397805 1.5 0 1.5 
z
" id="m4f41948d9f" style="stroke:#6495ed;"/>
    </defs>
    <g>
     <use style="fill:#6495ed;stroke:#6495ed;" x="257.016074" xlink:href="#m4f41948d9f" y="258.086151"/>
     <use style="fill:#6495ed;stroke:#6495ed;" x="257.016074" xlink:href="#m4f41948d9f" y="258.086151"/>
    </g>
   </g>
   <g id="line2d_40">
    <path d="M -1 290.873314 
L 97.088878 290.873314 
L 97.088878 290.747209 
L 101.506816 290.747209 
L 101.506816 290.621105 
L 104.680512 290.621105 
L 104.680512 290.495 
L 105.594071 290.495 
L 105.594071 290.368896 
L 108.483824 290.368896 
L 108.483824 290.242791 
L 109.624052 290.242791 
L 109.624052 290.116687 
L 110.358901 290.116687 
L 110.358901 289.990582 
L 111.286193 289.990582 
L 111.286193 289.864478 
L 111.974805 289.864478 
L 111.974805 289.738374 
L 112.242812 289.738374 
L 112.33754 289.486165 
L 113.185706 289.486165 
L 113.185706 289.36006 
L 113.577216 289.36006 
L 113.577216 289.233956 
L 113.804498 289.233956 
L 113.891132 288.981747 
L 113.96013 288.981747 
L 114.063118 288.477329 
L 114.435622 288.477329 
L 114.435622 288.351224 
L 114.931089 288.351224 
L 114.931089 288.22512 
L 115.4287 288.22512 
L 115.507647 287.972911 
L 115.680082 287.972911 
L 115.680082 287.846806 
L 115.835374 287.846806 
L 115.943263 287.342389 
L 116.081002 287.342389 
L 116.111464 287.09018 
L 116.98695 287.09018 
L 117.087964 286.711866 
L 117.116718 286.711866 
L 117.116718 286.585762 
L 117.245527 286.585762 
L 117.245527 286.459657 
L 117.612386 286.459657 
L 117.612386 286.333553 
L 117.723731 286.333553 
L 117.723731 286.207448 
L 118.350522 286.207448 
L 118.403976 285.955239 
L 118.536898 285.955239 
L 118.576578 285.70303 
L 118.91674 285.70303 
L 118.91674 285.576926 
L 119.250393 285.576926 
L 119.301163 285.324717 
L 119.65247 285.324717 
L 119.751557 284.694195 
L 120.166507 284.694195 
L 120.166507 284.56809 
L 120.394161 284.56809 
L 120.394161 284.441986 
L 120.852343 284.441986 
L 120.852343 284.315881 
L 121.02541 284.315881 
L 121.02541 284.189777 
L 121.162638 284.189777 
L 121.242192 283.937568 
L 122.072527 283.937568 
L 122.104932 283.685359 
L 122.520808 283.685359 
L 122.520808 283.559254 
L 122.66771 283.559254 
L 122.688595 283.307045 
L 123.202762 283.307045 
L 123.202762 283.180941 
L 123.42428 283.180941 
L 123.494177 282.676523 
L 123.81997 282.676523 
L 123.81997 282.550419 
L 124.053145 282.550419 
L 124.130182 282.172105 
L 124.613453 282.172105 
L 124.613453 282.046001 
L 124.937527 282.046001 
L 125.038147 281.667687 
L 125.752972 281.667687 
L 125.840299 281.415478 
L 125.927192 281.415478 
L 125.944518 281.163269 
L 126.116845 281.163269 
L 126.151107 280.91106 
L 126.756581 280.91106 
L 126.847261 280.532747 
L 127.027217 280.532747 
L 127.027217 280.406643 
L 127.814803 280.406643 
L 127.814803 280.280538 
L 128.084946 280.280538 
L 128.084946 280.154434 
L 128.426234 280.154434 
L 128.426234 280.028329 
L 128.568352 280.028329 
L 128.568352 279.902225 
L 130.418423 279.902225 
L 130.52529 279.650016 
L 131.037089 279.650016 
L 131.127382 279.397807 
L 131.950349 279.397807 
L 131.950349 279.271702 
L 134.024843 279.271702 
L 134.024843 279.145598 
L 135.061249 279.145598 
L 135.061249 279.019493 
L 135.507265 279.019493 
L 135.507265 278.893389 
L 136.470953 278.893389 
L 136.470953 278.767284 
L 137.810292 278.767284 
L 137.810292 278.64118 
L 139.489566 278.64118 
L 139.533318 278.388971 
L 140.36715 278.388971 
L 140.36715 278.262867 
L 141.0103 278.262867 
L 141.0103 278.136762 
L 141.920506 278.136762 
L 141.920506 278.010658 
L 143.147695 278.010658 
L 143.147695 277.884553 
L 143.285988 277.884553 
L 143.285988 277.758449 
L 143.67562 277.758449 
L 143.67562 277.632344 
L 146.350914 277.632344 
L 146.350914 277.50624 
L 146.791364 277.50624 
L 146.791364 277.380135 
L 149.790515 277.380135 
L 149.790515 277.254031 
L 151.025293 277.254031 
L 151.025293 277.127926 
L 151.635205 277.127926 
L 151.635205 277.001822 
L 151.822737 277.001822 
L 151.822737 276.875717 
L 153.823913 276.875717 
L 153.823913 276.749613 
L 154.817408 276.749613 
L 154.817408 276.623508 
L 155.053921 276.623508 
L 155.053921 276.497404 
L 155.303359 276.497404 
L 155.303359 276.371299 
L 155.755775 276.371299 
L 155.755775 276.245195 
L 156.832832 276.245195 
L 156.832832 276.11909 
L 157.247708 276.11909 
L 157.247708 275.992986 
L 157.415209 275.992986 
L 157.415209 275.866882 
L 158.441589 275.866882 
L 158.441589 275.740777 
L 158.582073 275.740777 
L 158.582073 275.614673 
L 158.717468 275.614673 
L 158.717468 275.488568 
L 160.118135 275.488568 
L 160.118135 275.362464 
L 162.324991 275.362464 
L 162.402232 275.110255 
L 162.438588 275.110255 
L 162.438588 274.98415 
L 163.362243 274.98415 
L 163.391598 274.605837 
L 163.489428 274.605837 
L 163.489428 274.479732 
L 163.678481 274.479732 
L 163.678481 274.353628 
L 164.802494 274.353628 
L 164.802494 274.227523 
L 165.080107 274.227523 
L 165.080107 274.101419 
L 165.396698 274.101419 
L 165.492896 273.84921 
L 168.352598 273.84921 
L 168.370852 273.597001 
L 171.465188 273.597001 
L 171.510962 273.344792 
L 171.67086 273.344792 
L 171.67086 273.218688 
L 173.375844 273.218688 
L 173.375844 273.092583 
L 173.907932 273.092583 
L 173.918996 272.840374 
L 174.43608 272.840374 
L 174.49022 272.588165 
L 175.86617 272.588165 
L 175.86617 272.462061 
L 176.128796 272.462061 
L 176.128796 272.335956 
L 176.750001 272.335956 
L 176.750001 272.209852 
L 178.632912 272.209852 
L 178.632912 271.957643 
L 179.450767 271.957643 
L 179.450767 271.831538 
L 180.056276 271.831538 
L 180.056276 271.705434 
L 181.112359 271.705434 
L 181.112359 271.579329 
L 182.091171 271.579329 
L 182.091171 271.327121 
L 182.33111 271.327121 
L 182.33111 271.201016 
L 182.468153 271.201016 
L 182.468153 271.074912 
L 183.775513 271.074912 
L 183.775513 270.948807 
L 184.115353 270.948807 
L 184.124904 270.696598 
L 185.483504 270.696598 
L 185.483504 270.444389 
L 186.118066 270.444389 
L 186.118066 270.318285 
L 186.927917 270.318285 
L 186.927917 270.19218 
L 187.772437 270.19218 
L 187.841769 269.939971 
L 188.325338 269.939971 
L 188.412516 269.687762 
L 188.543786 269.687762 
L 188.543786 269.561658 
L 189.077299 269.561658 
L 189.077299 269.435553 
L 190.13639 269.435553 
L 190.13639 269.309449 
L 190.854597 269.309449 
L 190.854597 269.05724 
L 191.003063 269.05724 
L 191.003063 268.931136 
L 191.375297 268.931136 
L 191.375297 268.805031 
L 191.858971 268.805031 
L 191.858971 268.678927 
L 192.050466 268.678927 
L 192.050466 268.552822 
L 192.362849 268.552822 
L 192.362849 268.426718 
L 193.172134 268.426718 
L 193.172134 268.300613 
L 193.428762 268.300613 
L 193.428762 268.174509 
L 193.895639 268.174509 
L 193.89599 267.9223 
L 194.059857 267.9223 
L 194.059857 267.796195 
L 195.341639 267.796195 
L 195.341639 267.543986 
L 195.882504 267.543986 
L 195.93125 267.291777 
L 197.235464 267.291777 
L 197.235464 267.165673 
L 197.753754 267.165673 
L 197.753754 267.039568 
L 198.331169 267.039568 
L 198.331169 266.913464 
L 198.859801 266.913464 
L 198.859801 266.78736 
L 199.240678 266.78736 
L 199.240678 266.661255 
L 199.437901 266.661255 
L 199.533901 266.409046 
L 200.197991 266.409046 
L 200.197991 266.282942 
L 201.508203 266.282942 
L 201.508203 266.156837 
L 202.041982 266.156837 
L 202.10021 265.778524 
L 203.079317 265.778524 
L 203.079317 265.652419 
L 203.371072 265.652419 
L 203.371072 265.526315 
L 203.516558 265.526315 
L 203.516558 265.40021 
L 203.684437 265.40021 
L 203.684437 265.274106 
L 203.91431 265.274106 
L 203.91431 265.148001 
L 204.188731 265.148001 
L 204.188731 265.021897 
L 205.631191 265.021897 
L 205.695063 264.643583 
L 207.212956 264.643583 
L 207.25904 264.391375 
L 207.379284 264.391375 
L 207.379284 264.26527 
L 207.495721 264.26527 
L 207.495721 264.139166 
L 208.447348 264.139166 
L 208.447348 264.013061 
L 209.606544 264.013061 
L 209.606544 263.886957 
L 211.995829 263.886957 
L 211.995829 263.760852 
L 212.354656 263.760852 
L 212.354656 263.634748 
L 214.514782 263.634748 
L 214.514782 263.508643 
L 214.752736 263.508643 
L 214.752736 263.382539 
L 215.105956 263.382539 
L 215.105956 263.256434 
L 217.659172 263.256434 
L 217.659172 263.13033 
L 219.354099 263.13033 
L 219.354099 263.004225 
L 221.229927 263.004225 
L 221.311117 262.752016 
L 221.970676 262.752016 
L 221.970676 262.625912 
L 224.386219 262.625912 
L 224.386219 262.499807 
L 226.454008 262.499807 
L 226.454008 262.247598 
L 226.763583 262.247598 
L 226.763583 262.121494 
L 227.011119 262.121494 
L 227.011119 261.869285 
L 227.240899 261.869285 
L 227.240899 261.617076 
L 230.907975 261.617076 
L 230.907975 261.490972 
L 232.552066 261.490972 
L 232.558947 261.238763 
L 237.390283 261.238763 
L 237.390283 261.112658 
L 237.995354 261.112658 
L 237.995354 260.860449 
L 238.223628 260.860449 
L 238.223628 260.734345 
L 240.454269 260.734345 
L 240.454269 260.60824 
L 241.811538 260.60824 
L 241.843207 260.356031 
L 244.605545 260.356031 
L 244.605545 260.229927 
L 245.510014 260.229927 
L 245.510014 260.103822 
L 246.156189 260.103822 
L 246.156189 259.977718 
L 246.437341 259.977718 
L 246.437341 259.851614 
L 247.127368 259.851614 
L 247.127368 259.725509 
L 251.094204 259.725509 
L 251.094204 259.599405 
L 252.552641 259.599405 
L 252.552641 259.347196 
L 253.041282 259.347196 
L 253.041282 259.094987 
L 253.887563 259.094987 
L 253.887563 258.968882 
L 254.330771 258.968882 
L 254.330771 258.716673 
L 255.972125 258.716673 
L 255.972125 258.590569 
L 256.499599 258.590569 
L 256.499599 258.33836 
L 256.964619 258.33836 
L 257.016074 258.086151 
L 338.688 258.086151 
L 338.688 258.086151 
" style="fill:none;stroke:#6495ed;stroke-linecap:square;stroke-width:1.5;"/>
   </g>
   <g id="line2d_41">
    <defs>
     <path d="M -0 6 
L 6 -6 
L -6 -6 
z
" id="m5b7abe56fc" style="stroke:#6495ed;stroke-linejoin:miter;stroke-width:1.5;"/>
    </defs>
    <g>
     <use style="fill-opacity:0;stroke:#6495ed;stroke-linejoin:miter;stroke-width:1.5;" x="131.950349" xlink:href="#m5b7abe56fc" y="279.271702"/>
     <use style="fill-opacity:0;stroke:#6495ed;stroke-linejoin:miter;stroke-width:1.5;" x="207.495721" xlink:href="#m5b7abe56fc" y="264.26527"/>
     <use style="fill-opacity:0;stroke:#6495ed;stroke-linejoin:miter;stroke-width:1.5;" x="257.016074" xlink:href="#m5b7abe56fc" y="258.212255"/>
     <use style="fill-opacity:0;stroke:#6495ed;stroke-linejoin:miter;stroke-width:1.5;" x="257.016074" xlink:href="#m5b7abe56fc" y="258.086151"/>
     <use style="fill-opacity:0;stroke:#6495ed;stroke-linejoin:miter;stroke-width:1.5;" x="338.688" xlink:href="#m5b7abe56fc" y="258.086151"/>
    </g>
   </g>
   <g id="line2d_42">
    <path style="fill:none;stroke:#6495ed;stroke-linecap:square;stroke-width:1.5;"/>
    <g/>
   </g>
   <g id="line2d_43">
    <path clip-path="url(#pb3e81ab73e)" d="M 258.377718 258.086151 
" style="fill:none;stroke:#6495ed;stroke-linecap:square;stroke-width:1.5;"/>
    <defs>
     <path d="M -12 12 
L 12 -12 
M -12 -12 
L 12 12 
" id="me6dfd0cb88" style="stroke:#6495ed;"/>
    </defs>
    <g clip-path="url(#pb3e81ab73e)">
     <use style="fill:#6495ed;stroke:#6495ed;" x="258.377718" xlink:href="#me6dfd0cb88" y="258.086151"/>
    </g>
   </g>
   <g id="line2d_44">
    <path d="M 338.688 258.086151 
L 369.60768 293.092752 
" style="fill:none;stroke:#6495ed;stroke-linecap:square;stroke-width:1.5;"/>
    <g>
     <use style="fill-opacity:0;stroke:#6495ed;stroke-linejoin:miter;stroke-width:1.5;" x="338.688" xlink:href="#m5b7abe56fc" y="258.086151"/>
     <use style="fill-opacity:0;stroke:#6495ed;stroke-linejoin:miter;stroke-width:1.5;" x="369.60768" xlink:href="#m5b7abe56fc" y="293.092752"/>
    </g>
   </g>
   <g id="line2d_45">
    <path d="M 338.688 159.724662 
L 369.60768 152.662812 
" style="fill:none;stroke:#ff7500;stroke-linecap:square;stroke-width:1.5;"/>
    <g>
     <use style="fill-opacity:0;stroke:#ff7500;stroke-linejoin:bevel;stroke-width:1.5;" x="338.688" xlink:href="#m0cbda0a9fa" y="159.724662"/>
     <use style="fill-opacity:0;stroke:#ff7500;stroke-linejoin:bevel;stroke-width:1.5;" x="369.60768" xlink:href="#m0cbda0a9fa" y="152.662812"/>
    </g>
   </g>
   <g id="line2d_46">
    <path d="M 338.688 298.944 
L 338.688 6.381624 
" style="fill:none;stroke:#000000;stroke-linecap:square;stroke-width:1.5;"/>
   </g>
   <g id="patch_3">
    <path d="M 57.6 298.944 
L 57.6 3.456 
" style="fill:none;stroke:#000000;stroke-linecap:square;stroke-linejoin:miter;stroke-width:0.8;"/>
   </g>
   <g id="patch_4">
    <path d="M 338.688 298.944 
L 338.688 3.456 
" style="fill:none;stroke:#000000;stroke-linecap:square;stroke-linejoin:miter;stroke-width:0.8;"/>
   </g>
   <g id="patch_5">
    <path d="M 57.6 298.944 
L 338.688 298.944 
" style="fill:none;stroke:#000000;stroke-linecap:square;stroke-linejoin:miter;stroke-width:0.8;"/>
   </g>
   <g id="patch_6">
    <path d="M 57.6 3.456 
L 338.688 3.456 
" style="fill:none;stroke:#000000;stroke-linecap:square;stroke-linejoin:miter;stroke-width:0.8;"/>
   </g>
   <g id="text_13">
    <!-- NSGA-II-M -->
    <g transform="translate(375.22944 297.78369)scale(0.17 -0.17)">
     <defs>
      <path d="M 9.8125 72.90625 
L 23.09375 72.90625 
L 55.421875 11.921875 
L 55.421875 72.90625 
L 64.984375 72.90625 
L 64.984375 0 
L 51.703125 0 
L 19.390625 60.984375 
L 19.390625 0 
L 9.8125 0 
z
" id="DejaVuSans-78"/>
      <path d="M 53.515625 70.515625 
L 53.515625 60.890625 
Q 47.90625 63.578125 42.921875 64.890625 
Q 37.9375 66.21875 33.296875 66.21875 
Q 25.25 66.21875 20.875 63.09375 
Q 16.5 59.96875 16.5 54.203125 
Q 16.5 49.359375 19.40625 46.890625 
Q 22.3125 44.4375 30.421875 42.921875 
L 36.375 41.703125 
Q 47.40625 39.59375 52.65625 34.296875 
Q 57.90625 29 57.90625 20.125 
Q 57.90625 9.515625 50.796875 4.046875 
Q 43.703125 -1.421875 29.984375 -1.421875 
Q 24.8125 -1.421875 18.96875 -0.25 
Q 13.140625 0.921875 6.890625 3.21875 
L 6.890625 13.375 
Q 12.890625 10.015625 18.65625 8.296875 
Q 24.421875 6.59375 29.984375 6.59375 
Q 38.421875 6.59375 43.015625 9.90625 
Q 47.609375 13.234375 47.609375 19.390625 
Q 47.609375 24.75 44.3125 27.78125 
Q 41.015625 30.8125 33.5 32.328125 
L 27.484375 33.5 
Q 16.453125 35.6875 11.515625 40.375 
Q 6.59375 45.0625 6.59375 53.421875 
Q 6.59375 63.09375 13.40625 68.65625 
Q 20.21875 74.21875 32.171875 74.21875 
Q 37.3125 74.21875 42.625 73.28125 
Q 47.953125 72.359375 53.515625 70.515625 
z
" id="DejaVuSans-83"/>
      <path d="M 59.515625 10.40625 
L 59.515625 29.984375 
L 43.40625 29.984375 
L 43.40625 38.09375 
L 69.28125 38.09375 
L 69.28125 6.78125 
Q 63.578125 2.734375 56.6875 0.65625 
Q 49.8125 -1.421875 42 -1.421875 
Q 24.90625 -1.421875 15.25 8.5625 
Q 5.609375 18.5625 5.609375 36.375 
Q 5.609375 54.25 15.25 64.234375 
Q 24.90625 74.21875 42 74.21875 
Q 49.125 74.21875 55.546875 72.453125 
Q 61.96875 70.703125 67.390625 67.28125 
L 67.390625 56.78125 
Q 61.921875 61.421875 55.765625 63.765625 
Q 49.609375 66.109375 42.828125 66.109375 
Q 29.4375 66.109375 22.71875 58.640625 
Q 16.015625 51.171875 16.015625 36.375 
Q 16.015625 21.625 22.71875 14.15625 
Q 29.4375 6.6875 42.828125 6.6875 
Q 48.046875 6.6875 52.140625 7.59375 
Q 56.25 8.5 59.515625 10.40625 
z
" id="DejaVuSans-71"/>
      <path d="M 34.1875 63.1875 
L 20.796875 26.90625 
L 47.609375 26.90625 
z
M 28.609375 72.90625 
L 39.796875 72.90625 
L 67.578125 0 
L 57.328125 0 
L 50.6875 18.703125 
L 17.828125 18.703125 
L 11.1875 0 
L 0.78125 0 
z
" id="DejaVuSans-65"/>
      <path d="M 9.8125 72.90625 
L 19.671875 72.90625 
L 19.671875 0 
L 9.8125 0 
z
" id="DejaVuSans-73"/>
      <path d="M 9.8125 72.90625 
L 24.515625 72.90625 
L 43.109375 23.296875 
L 61.8125 72.90625 
L 76.515625 72.90625 
L 76.515625 0 
L 66.890625 0 
L 66.890625 64.015625 
L 48.09375 14.015625 
L 38.1875 14.015625 
L 19.390625 64.015625 
L 19.390625 0 
L 9.8125 0 
z
" id="DejaVuSans-77"/>
     </defs>
     <use xlink:href="#DejaVuSans-78"/>
     <use x="74.804688" xlink:href="#DejaVuSans-83"/>
     <use x="138.28125" xlink:href="#DejaVuSans-71"/>
     <use x="215.771484" xlink:href="#DejaVuSans-65"/>
     <use x="281.929688" xlink:href="#DejaVuSans-45"/>
     <use x="318.013672" xlink:href="#DejaVuSans-73"/>
     <use x="347.505859" xlink:href="#DejaVuSans-73"/>
     <use x="376.998047" xlink:href="#DejaVuSans-45"/>
     <use x="413.082031" xlink:href="#DejaVuSans-77"/>
    </g>
   </g>
   <g id="text_14">
    <!-- RM-MEDA A -->
    <g transform="translate(375.22944 157.353749)scale(0.17 -0.17)">
     <defs>
      <path d="M 44.390625 34.1875 
Q 47.5625 33.109375 50.5625 29.59375 
Q 53.5625 26.078125 56.59375 19.921875 
L 66.609375 0 
L 56 0 
L 46.6875 18.703125 
Q 43.0625 26.03125 39.671875 28.421875 
Q 36.28125 30.8125 30.421875 30.8125 
L 19.671875 30.8125 
L 19.671875 0 
L 9.8125 0 
L 9.8125 72.90625 
L 32.078125 72.90625 
Q 44.578125 72.90625 50.734375 67.671875 
Q 56.890625 62.453125 56.890625 51.90625 
Q 56.890625 45.015625 53.6875 40.46875 
Q 50.484375 35.9375 44.390625 34.1875 
z
M 19.671875 64.796875 
L 19.671875 38.921875 
L 32.078125 38.921875 
Q 39.203125 38.921875 42.84375 42.21875 
Q 46.484375 45.515625 46.484375 51.90625 
Q 46.484375 58.296875 42.84375 61.546875 
Q 39.203125 64.796875 32.078125 64.796875 
z
" id="DejaVuSans-82"/>
      <path d="M 9.8125 72.90625 
L 55.90625 72.90625 
L 55.90625 64.59375 
L 19.671875 64.59375 
L 19.671875 43.015625 
L 54.390625 43.015625 
L 54.390625 34.71875 
L 19.671875 34.71875 
L 19.671875 8.296875 
L 56.78125 8.296875 
L 56.78125 0 
L 9.8125 0 
z
" id="DejaVuSans-69"/>
      <path d="M 19.671875 64.796875 
L 19.671875 8.109375 
L 31.59375 8.109375 
Q 46.6875 8.109375 53.6875 14.9375 
Q 60.6875 21.78125 60.6875 36.53125 
Q 60.6875 51.171875 53.6875 57.984375 
Q 46.6875 64.796875 31.59375 64.796875 
z
M 9.8125 72.90625 
L 30.078125 72.90625 
Q 51.265625 72.90625 61.171875 64.09375 
Q 71.09375 55.28125 71.09375 36.53125 
Q 71.09375 17.671875 61.125 8.828125 
Q 51.171875 0 30.078125 0 
L 9.8125 0 
z
" id="DejaVuSans-68"/>
     </defs>
     <use xlink:href="#DejaVuSans-82"/>
     <use x="69.482422" xlink:href="#DejaVuSans-77"/>
     <use x="155.761719" xlink:href="#DejaVuSans-45"/>
     <use x="191.845703" xlink:href="#DejaVuSans-77"/>
     <use x="278.125" xlink:href="#DejaVuSans-69"/>
     <use x="341.308594" xlink:href="#DejaVuSans-68"/>
     <use x="416.560547" xlink:href="#DejaVuSans-65"/>
     <use x="484.96875" xlink:href="#DejaVuSans-32"/>
     <use x="516.755859" xlink:href="#DejaVuSans-65"/>
    </g>
   </g>
   <g id="text_15">
    <!-- best 2016 -->
    <g transform="translate(375.22944 16.923809)scale(0.17 -0.17)">
     <defs>
      <path d="M 48.6875 27.296875 
Q 48.6875 37.203125 44.609375 42.84375 
Q 40.53125 48.484375 33.40625 48.484375 
Q 26.265625 48.484375 22.1875 42.84375 
Q 18.109375 37.203125 18.109375 27.296875 
Q 18.109375 17.390625 22.1875 11.75 
Q 26.265625 6.109375 33.40625 6.109375 
Q 40.53125 6.109375 44.609375 11.75 
Q 48.6875 17.390625 48.6875 27.296875 
z
M 18.109375 46.390625 
Q 20.953125 51.265625 25.265625 53.625 
Q 29.59375 56 35.59375 56 
Q 45.5625 56 51.78125 48.09375 
Q 58.015625 40.1875 58.015625 27.296875 
Q 58.015625 14.40625 51.78125 6.484375 
Q 45.5625 -1.421875 35.59375 -1.421875 
Q 29.59375 -1.421875 25.265625 0.953125 
Q 20.953125 3.328125 18.109375 8.203125 
L 18.109375 0 
L 9.078125 0 
L 9.078125 75.984375 
L 18.109375 75.984375 
z
" id="DejaVuSans-98"/>
     </defs>
     <use xlink:href="#DejaVuSans-98"/>
     <use x="63.476562" xlink:href="#DejaVuSans-101"/>
     <use x="125" xlink:href="#DejaVuSans-115"/>
     <use x="177.099609" xlink:href="#DejaVuSans-116"/>
     <use x="216.308594" xlink:href="#DejaVuSans-32"/>
     <use x="248.095703" xlink:href="#DejaVuSans-50"/>
     <use x="311.71875" xlink:href="#DejaVuSans-48"/>
     <use x="375.341797" xlink:href="#DejaVuSans-49"/>
     <use x="438.964844" xlink:href="#DejaVuSans-54"/>
    </g>
   </g>
   <g id="text_16">
    <!-- bbob-biobj f5, f6, f14, f15, 40-D -->
    <g transform="translate(60.41088 14.161286)scale(0.102 -0.102)">
     <defs>
      <path d="M 9.421875 54.6875 
L 18.40625 54.6875 
L 18.40625 -0.984375 
Q 18.40625 -11.421875 14.421875 -16.109375 
Q 10.453125 -20.796875 1.609375 -20.796875 
L -1.8125 -20.796875 
L -1.8125 -13.1875 
L 0.59375 -13.1875 
Q 5.71875 -13.1875 7.5625 -10.8125 
Q 9.421875 -8.453125 9.421875 -0.984375 
z
M 9.421875 75.984375 
L 18.40625 75.984375 
L 18.40625 64.59375 
L 9.421875 64.59375 
z
" id="DejaVuSans-106"/>
      <path d="M 10.796875 72.90625 
L 49.515625 72.90625 
L 49.515625 64.59375 
L 19.828125 64.59375 
L 19.828125 46.734375 
Q 21.96875 47.46875 24.109375 47.828125 
Q 26.265625 48.1875 28.421875 48.1875 
Q 40.625 48.1875 47.75 41.5 
Q 54.890625 34.8125 54.890625 23.390625 
Q 54.890625 11.625 47.5625 5.09375 
Q 40.234375 -1.421875 26.90625 -1.421875 
Q 22.3125 -1.421875 17.546875 -0.640625 
Q 12.796875 0.140625 7.71875 1.703125 
L 7.71875 11.625 
Q 12.109375 9.234375 16.796875 8.0625 
Q 21.484375 6.890625 26.703125 6.890625 
Q 35.15625 6.890625 40.078125 11.328125 
Q 45.015625 15.765625 45.015625 23.390625 
Q 45.015625 31 40.078125 35.4375 
Q 35.15625 39.890625 26.703125 39.890625 
Q 22.75 39.890625 18.8125 39.015625 
Q 14.890625 38.140625 10.796875 36.28125 
z
" id="DejaVuSans-53"/>
     </defs>
     <use xlink:href="#DejaVuSans-98"/>
     <use x="63.476562" xlink:href="#DejaVuSans-98"/>
     <use x="126.953125" xlink:href="#DejaVuSans-111"/>
     <use x="188.134766" xlink:href="#DejaVuSans-98"/>
     <use x="251.611328" xlink:href="#DejaVuSans-45"/>
     <use x="287.695312" xlink:href="#DejaVuSans-98"/>
     <use x="351.171875" xlink:href="#DejaVuSans-105"/>
     <use x="378.955078" xlink:href="#DejaVuSans-111"/>
     <use x="440.136719" xlink:href="#DejaVuSans-98"/>
     <use x="503.613281" xlink:href="#DejaVuSans-106"/>
     <use x="531.396484" xlink:href="#DejaVuSans-32"/>
     <use x="563.183594" xlink:href="#DejaVuSans-102"/>
     <use x="598.388672" xlink:href="#DejaVuSans-53"/>
     <use x="662.011719" xlink:href="#DejaVuSans-44"/>
     <use x="693.798828" xlink:href="#DejaVuSans-32"/>
     <use x="725.585938" xlink:href="#DejaVuSans-102"/>
     <use x="760.791016" xlink:href="#DejaVuSans-54"/>
     <use x="824.414062" xlink:href="#DejaVuSans-44"/>
     <use x="856.201172" xlink:href="#DejaVuSans-32"/>
     <use x="887.988281" xlink:href="#DejaVuSans-102"/>
     <use x="923.193359" xlink:href="#DejaVuSans-49"/>
     <use x="986.816406" xlink:href="#DejaVuSans-52"/>
     <use x="1050.439453" xlink:href="#DejaVuSans-44"/>
     <use x="1082.226562" xlink:href="#DejaVuSans-32"/>
     <use x="1114.013672" xlink:href="#DejaVuSans-102"/>
     <use x="1149.21875" xlink:href="#DejaVuSans-49"/>
     <use x="1212.841797" xlink:href="#DejaVuSans-53"/>
     <use x="1276.464844" xlink:href="#DejaVuSans-44"/>
     <use x="1308.251953" xlink:href="#DejaVuSans-32"/>
     <use x="1340.039062" xlink:href="#DejaVuSans-52"/>
     <use x="1403.662109" xlink:href="#DejaVuSans-48"/>
     <use x="1467.285156" xlink:href="#DejaVuSans-45"/>
     <use x="1503.369141" xlink:href="#DejaVuSans-68"/>
    </g>
    <!-- 58 targets: 1..-1.0e-4 -->
    <g transform="translate(60.41088 25.583055)scale(0.102 -0.102)">
     <defs>
      <path d="M 11.71875 12.40625 
L 22.015625 12.40625 
L 22.015625 0 
L 11.71875 0 
z
M 11.71875 51.703125 
L 22.015625 51.703125 
L 22.015625 39.3125 
L 11.71875 39.3125 
z
" id="DejaVuSans-58"/>
     </defs>
     <use xlink:href="#DejaVuSans-53"/>
     <use x="63.623047" xlink:href="#DejaVuSans-56"/>
     <use x="127.246094" xlink:href="#DejaVuSans-32"/>
     <use x="159.033203" xlink:href="#DejaVuSans-116"/>
     <use x="198.242188" xlink:href="#DejaVuSans-97"/>
     <use x="259.521484" xlink:href="#DejaVuSans-114"/>
     <use x="298.884766" xlink:href="#DejaVuSans-103"/>
     <use x="362.361328" xlink:href="#DejaVuSans-101"/>
     <use x="423.884766" xlink:href="#DejaVuSans-116"/>
     <use x="463.09375" xlink:href="#DejaVuSans-115"/>
     <use x="515.193359" xlink:href="#DejaVuSans-58"/>
     <use x="548.884766" xlink:href="#DejaVuSans-32"/>
     <use x="580.671875" xlink:href="#DejaVuSans-49"/>
     <use x="644.294922" xlink:href="#DejaVuSans-46"/>
     <use x="676.082031" xlink:href="#DejaVuSans-46"/>
     <use x="707.869141" xlink:href="#DejaVuSans-45"/>
     <use x="743.953125" xlink:href="#DejaVuSans-49"/>
     <use x="807.576172" xlink:href="#DejaVuSans-46"/>
     <use x="839.363281" xlink:href="#DejaVuSans-48"/>
     <use x="902.986328" xlink:href="#DejaVuSans-101"/>
     <use x="964.509766" xlink:href="#DejaVuSans-45"/>
     <use x="1000.59375" xlink:href="#DejaVuSans-52"/>
    </g>
    <!-- 10 instances -->
    <g transform="translate(60.41088 37.004824)scale(0.102 -0.102)">
     <use xlink:href="#DejaVuSans-49"/>
     <use x="63.623047" xlink:href="#DejaVuSans-48"/>
     <use x="127.246094" xlink:href="#DejaVuSans-32"/>
     <use x="159.033203" xlink:href="#DejaVuSans-105"/>
     <use x="186.816406" xlink:href="#DejaVuSans-110"/>
     <use x="250.195312" xlink:href="#DejaVuSans-115"/>
     <use x="302.294922" xlink:href="#DejaVuSans-116"/>
     <use x="341.503906" xlink:href="#DejaVuSans-97"/>
     <use x="402.783203" xlink:href="#DejaVuSans-110"/>
     <use x="466.162109" xlink:href="#DejaVuSans-99"/>
     <use x="521.142578" xlink:href="#DejaVuSans-101"/>
     <use x="582.666016" xlink:href="#DejaVuSans-115"/>
    </g>
   </g>
   <g id="text_17">
    <!-- v2.4, hv-hash=ff0e71e8cd978373 -->
    <g style="fill:#808080;" transform="translate(112.648687 293.909432)scale(0.1 -0.1)">
     <defs>
      <path d="M 54.890625 33.015625 
L 54.890625 0 
L 45.90625 0 
L 45.90625 32.71875 
Q 45.90625 40.484375 42.875 44.328125 
Q 39.84375 48.1875 33.796875 48.1875 
Q 26.515625 48.1875 22.3125 43.546875 
Q 18.109375 38.921875 18.109375 30.90625 
L 18.109375 0 
L 9.078125 0 
L 9.078125 75.984375 
L 18.109375 75.984375 
L 18.109375 46.1875 
Q 21.34375 51.125 25.703125 53.5625 
Q 30.078125 56 35.796875 56 
Q 45.21875 56 50.046875 50.171875 
Q 54.890625 44.34375 54.890625 33.015625 
z
" id="DejaVuSans-104"/>
      <path d="M 10.59375 45.40625 
L 73.1875 45.40625 
L 73.1875 37.203125 
L 10.59375 37.203125 
z
M 10.59375 25.484375 
L 73.1875 25.484375 
L 73.1875 17.1875 
L 10.59375 17.1875 
z
" id="DejaVuSans-61"/>
      <path d="M 8.203125 72.90625 
L 55.078125 72.90625 
L 55.078125 68.703125 
L 28.609375 0 
L 18.3125 0 
L 43.21875 64.59375 
L 8.203125 64.59375 
z
" id="DejaVuSans-55"/>
      <path d="M 10.984375 1.515625 
L 10.984375 10.5 
Q 14.703125 8.734375 18.5 7.8125 
Q 22.3125 6.890625 25.984375 6.890625 
Q 35.75 6.890625 40.890625 13.453125 
Q 46.046875 20.015625 46.78125 33.40625 
Q 43.953125 29.203125 39.59375 26.953125 
Q 35.25 24.703125 29.984375 24.703125 
Q 19.046875 24.703125 12.671875 31.3125 
Q 6.296875 37.9375 6.296875 49.421875 
Q 6.296875 60.640625 12.9375 67.421875 
Q 19.578125 74.21875 30.609375 74.21875 
Q 43.265625 74.21875 49.921875 64.515625 
Q 56.59375 54.828125 56.59375 36.375 
Q 56.59375 19.140625 48.40625 8.859375 
Q 40.234375 -1.421875 26.421875 -1.421875 
Q 22.703125 -1.421875 18.890625 -0.6875 
Q 15.09375 0.046875 10.984375 1.515625 
z
M 30.609375 32.421875 
Q 37.25 32.421875 41.125 36.953125 
Q 45.015625 41.5 45.015625 49.421875 
Q 45.015625 57.28125 41.125 61.84375 
Q 37.25 66.40625 30.609375 66.40625 
Q 23.96875 66.40625 20.09375 61.84375 
Q 16.21875 57.28125 16.21875 49.421875 
Q 16.21875 41.5 20.09375 36.953125 
Q 23.96875 32.421875 30.609375 32.421875 
z
" id="DejaVuSans-57"/>
      <path d="M 40.578125 39.3125 
Q 47.65625 37.796875 51.625 33 
Q 55.609375 28.21875 55.609375 21.1875 
Q 55.609375 10.40625 48.1875 4.484375 
Q 40.765625 -1.421875 27.09375 -1.421875 
Q 22.515625 -1.421875 17.65625 -0.515625 
Q 12.796875 0.390625 7.625 2.203125 
L 7.625 11.71875 
Q 11.71875 9.328125 16.59375 8.109375 
Q 21.484375 6.890625 26.8125 6.890625 
Q 36.078125 6.890625 40.9375 10.546875 
Q 45.796875 14.203125 45.796875 21.1875 
Q 45.796875 27.640625 41.28125 31.265625 
Q 36.765625 34.90625 28.71875 34.90625 
L 20.21875 34.90625 
L 20.21875 43.015625 
L 29.109375 43.015625 
Q 36.375 43.015625 40.234375 45.921875 
Q 44.09375 48.828125 44.09375 54.296875 
Q 44.09375 59.90625 40.109375 62.90625 
Q 36.140625 65.921875 28.71875 65.921875 
Q 24.65625 65.921875 20.015625 65.03125 
Q 15.375 64.15625 9.8125 62.3125 
L 9.8125 71.09375 
Q 15.4375 72.65625 20.34375 73.4375 
Q 25.25 74.21875 29.59375 74.21875 
Q 40.828125 74.21875 47.359375 69.109375 
Q 53.90625 64.015625 53.90625 55.328125 
Q 53.90625 49.265625 50.4375 45.09375 
Q 46.96875 40.921875 40.578125 39.3125 
z
" id="DejaVuSans-51"/>
     </defs>
     <use xlink:href="#DejaVuSans-118"/>
     <use x="59.179688" xlink:href="#DejaVuSans-50"/>
     <use x="122.802734" xlink:href="#DejaVuSans-46"/>
     <use x="154.589844" xlink:href="#DejaVuSans-52"/>
     <use x="218.212891" xlink:href="#DejaVuSans-44"/>
     <use x="250" xlink:href="#DejaVuSans-32"/>
     <use x="281.787109" xlink:href="#DejaVuSans-104"/>
     <use x="345.166016" xlink:href="#DejaVuSans-118"/>
     <use x="401.720703" xlink:href="#DejaVuSans-45"/>
     <use x="437.804688" xlink:href="#DejaVuSans-104"/>
     <use x="501.183594" xlink:href="#DejaVuSans-97"/>
     <use x="562.462891" xlink:href="#DejaVuSans-115"/>
     <use x="614.5625" xlink:href="#DejaVuSans-104"/>
     <use x="677.941406" xlink:href="#DejaVuSans-61"/>
     <use x="761.730469" xlink:href="#DejaVuSans-102"/>
     <use x="796.935547" xlink:href="#DejaVuSans-102"/>
     <use x="832.140625" xlink:href="#DejaVuSans-48"/>
     <use x="895.763672" xlink:href="#DejaVuSans-101"/>
     <use x="957.287109" xlink:href="#DejaVuSans-55"/>
     <use x="1020.910156" xlink:href="#DejaVuSans-49"/>
     <use x="1084.533203" xlink:href="#DejaVuSans-101"/>
     <use x="1146.056641" xlink:href="#DejaVuSans-56"/>
     <use x="1209.679688" xlink:href="#DejaVuSans-99"/>
     <use x="1264.660156" xlink:href="#DejaVuSans-100"/>
     <use x="1328.136719" xlink:href="#DejaVuSans-57"/>
     <use x="1391.759766" xlink:href="#DejaVuSans-55"/>
     <use x="1455.382812" xlink:href="#DejaVuSans-56"/>
     <use x="1519.005859" xlink:href="#DejaVuSans-51"/>
     <use x="1582.628906" xlink:href="#DejaVuSans-55"/>
     <use x="1646.251953" xlink:href="#DejaVuSans-51"/>
    </g>
   </g>
  </g>
 </g>
 <defs>
  <clipPath id="pb3e81ab73e">
   <rect height="295.488" width="281.088" x="57.6" y="3.456"/>
  </clipPath>
 </defs>
</svg>
