<?xml version="1.0" encoding="utf-8" standalone="no"?>
<!DOCTYPE svg PUBLIC "-//W3C//DTD SVG 1.1//EN"
  "http://www.w3.org/Graphics/SVG/1.1/DTD/svg11.dtd">
<!-- Created with matplotlib (https://matplotlib.org/) -->
<svg height="345.6pt" version="1.1" viewBox="0 0 460.8 345.6" width="460.8pt" xmlns="http://www.w3.org/2000/svg" xmlns:xlink="http://www.w3.org/1999/xlink">
 <metadata>
  <rdf:RDF xmlns:cc="http://creativecommons.org/ns#" xmlns:dc="http://purl.org/dc/elements/1.1/" xmlns:rdf="http://www.w3.org/1999/02/22-rdf-syntax-ns#">
   <cc:Work>
    <dc:type rdf:resource="http://purl.org/dc/dcmitype/StillImage"/>
    <dc:date>2021-03-30T16:53:13.976914</dc:date>
    <dc:format>image/svg+xml</dc:format>
    <dc:creator>
     <cc:Agent>
      <dc:title>Matplotlib v3.3.4, https://matplotlib.org/</dc:title>
     </cc:Agent>
    </dc:creator>
   </cc:Work>
  </rdf:RDF>
 </metadata>
 <defs>
  <style type="text/css">*{stroke-linecap:butt;stroke-linejoin:round;}</style>
 </defs>
 <g id="figure_1">
  <g id="patch_1">
   <path d="M 0 345.6 
L 460.8 345.6 
L 460.8 0 
L 0 0 
z
" style="fill:#ffffff;"/>
  </g>
  <g id="axes_1">
   <g id="patch_2">
    <path d="M 22.78 315.44 
L 453.192 315.44 
L 453.192 27.72 
L 22.78 27.72 
z
" style="fill:#ffffff;"/>
   </g>
   <g id="line2d_1">
    <path clip-path="url(#p220d16174d)" d="M 36.868282 106.492048 
L 91.085051 102.167838 
L 159.390103 83.085979 
L 252.074282 90.628662 
L 344.758461 100.522167 
" style="fill:none;stroke:#f5deb3;stroke-linecap:square;stroke-width:10;"/>
    <defs>
     <path d="M -0 17.67767 
L 10.606602 0 
L 0 -17.67767 
L -10.606602 -0 
z
" id="mf0c834cdf1" style="stroke:#000000;stroke-linejoin:miter;"/>
    </defs>
    <g clip-path="url(#p220d16174d)">
     <use style="fill:#f5deb3;stroke:#000000;stroke-linejoin:miter;" x="36.868282" xlink:href="#mf0c834cdf1" y="106.492048"/>
     <use style="fill:#f5deb3;stroke:#000000;stroke-linejoin:miter;" x="91.085051" xlink:href="#mf0c834cdf1" y="102.167838"/>
     <use style="fill:#f5deb3;stroke:#000000;stroke-linejoin:miter;" x="159.390103" xlink:href="#mf0c834cdf1" y="83.085979"/>
     <use style="fill:#f5deb3;stroke:#000000;stroke-linejoin:miter;" x="252.074282" xlink:href="#mf0c834cdf1" y="90.628662"/>
     <use style="fill:#f5deb3;stroke:#000000;stroke-linejoin:miter;" x="344.758461" xlink:href="#mf0c834cdf1" y="100.522167"/>
    </g>
   </g>
   <g id="line2d_2">
    <defs>
     <path d="M -15 0 
L 15 0 
M 0 15 
L 0 -15 
" id="m4718a50844" style="stroke:#ff0000;stroke-width:5;"/>
    </defs>
    <g clip-path="url(#p220d16174d)">
     <use style="fill:#ff0000;stroke:#ff0000;stroke-width:5;" x="36.868282" xlink:href="#m4718a50844" y="126.788807"/>
    </g>
   </g>
   <g id="line2d_3">
    <g clip-path="url(#p220d16174d)">
     <use style="fill:#ff0000;stroke:#ff0000;stroke-width:5;" x="91.085051" xlink:href="#m4718a50844" y="130.198611"/>
    </g>
   </g>
   <g id="line2d_4">
    <g clip-path="url(#p220d16174d)">
     <use style="fill:#ff0000;stroke:#ff0000;stroke-width:5;" x="159.390103" xlink:href="#m4718a50844" y="125.311954"/>
    </g>
   </g>
   <g id="line2d_5">
    <g clip-path="url(#p220d16174d)">
     <use style="fill:#ff0000;stroke:#ff0000;stroke-width:5;" x="252.074282" xlink:href="#m4718a50844" y="122.558545"/>
    </g>
   </g>
   <g id="line2d_6">
    <g clip-path="url(#p220d16174d)">
     <use style="fill:#ff0000;stroke:#ff0000;stroke-width:5;" x="344.758461" xlink:href="#m4718a50844" y="119.926836"/>
    </g>
   </g>
   <g id="matplotlib.axis_1">
    <g id="xtick_1">
     <g id="line2d_7">
      <defs>
       <path d="M 0 0 
L 0 3.5 
" id="m97ceda0e6f" style="stroke:#000000;stroke-width:0.8;"/>
      </defs>
      <g>
       <use style="stroke:#000000;stroke-width:0.8;" x="36.868282" xlink:href="#m97ceda0e6f" y="315.44"/>
      </g>
     </g>
     <g id="text_1">
      <!-- 2 -->
      <g transform="translate(30.505782 337.636875)scale(0.2 -0.2)">
       <defs>
        <path d="M 19.1875 8.296875 
L 53.609375 8.296875 
L 53.609375 0 
L 7.328125 0 
L 7.328125 8.296875 
Q 12.9375 14.109375 22.625 23.890625 
Q 32.328125 33.6875 34.8125 36.53125 
Q 39.546875 41.84375 41.421875 45.53125 
Q 43.3125 49.21875 43.3125 52.78125 
Q 43.3125 58.59375 39.234375 62.25 
Q 35.15625 65.921875 28.609375 65.921875 
Q 23.96875 65.921875 18.8125 64.3125 
Q 13.671875 62.703125 7.8125 59.421875 
L 7.8125 69.390625 
Q 13.765625 71.78125 18.9375 73 
Q 24.125 74.21875 28.421875 74.21875 
Q 39.75 74.21875 46.484375 68.546875 
Q 53.21875 62.890625 53.21875 53.421875 
Q 53.21875 48.921875 51.53125 44.890625 
Q 49.859375 40.875 45.40625 35.40625 
Q 44.1875 33.984375 37.640625 27.21875 
Q 31.109375 20.453125 19.1875 8.296875 
z
" id="DejaVuSans-50"/>
       </defs>
       <use xlink:href="#DejaVuSans-50"/>
      </g>
     </g>
    </g>
    <g id="xtick_2">
     <g id="line2d_8">
      <g>
       <use style="stroke:#000000;stroke-width:0.8;" x="91.085051" xlink:href="#m97ceda0e6f" y="315.44"/>
      </g>
     </g>
     <g id="text_2">
      <!-- 3 -->
      <g transform="translate(84.722551 337.636875)scale(0.2 -0.2)">
       <defs>
        <path d="M 40.578125 39.3125 
Q 47.65625 37.796875 51.625 33 
Q 55.609375 28.21875 55.609375 21.1875 
Q 55.609375 10.40625 48.1875 4.484375 
Q 40.765625 -1.421875 27.09375 -1.421875 
Q 22.515625 -1.421875 17.65625 -0.515625 
Q 12.796875 0.390625 7.625 2.203125 
L 7.625 11.71875 
Q 11.71875 9.328125 16.59375 8.109375 
Q 21.484375 6.890625 26.8125 6.890625 
Q 36.078125 6.890625 40.9375 10.546875 
Q 45.796875 14.203125 45.796875 21.1875 
Q 45.796875 27.640625 41.28125 31.265625 
Q 36.765625 34.90625 28.71875 34.90625 
L 20.21875 34.90625 
L 20.21875 43.015625 
L 29.109375 43.015625 
Q 36.375 43.015625 40.234375 45.921875 
Q 44.09375 48.828125 44.09375 54.296875 
Q 44.09375 59.90625 40.109375 62.90625 
Q 36.140625 65.921875 28.71875 65.921875 
Q 24.65625 65.921875 20.015625 65.03125 
Q 15.375 64.15625 9.8125 62.3125 
L 9.8125 71.09375 
Q 15.4375 72.65625 20.34375 73.4375 
Q 25.25 74.21875 29.59375 74.21875 
Q 40.828125 74.21875 47.359375 69.109375 
Q 53.90625 64.015625 53.90625 55.328125 
Q 53.90625 49.265625 50.4375 45.09375 
Q 46.96875 40.921875 40.578125 39.3125 
z
" id="DejaVuSans-51"/>
       </defs>
       <use xlink:href="#DejaVuSans-51"/>
      </g>
     </g>
    </g>
    <g id="xtick_3">
     <g id="line2d_9">
      <g>
       <use style="stroke:#000000;stroke-width:0.8;" x="159.390103" xlink:href="#m97ceda0e6f" y="315.44"/>
      </g>
     </g>
     <g id="text_3">
      <!-- 5 -->
      <g transform="translate(153.027603 337.636875)scale(0.2 -0.2)">
       <defs>
        <path d="M 10.796875 72.90625 
L 49.515625 72.90625 
L 49.515625 64.59375 
L 19.828125 64.59375 
L 19.828125 46.734375 
Q 21.96875 47.46875 24.109375 47.828125 
Q 26.265625 48.1875 28.421875 48.1875 
Q 40.625 48.1875 47.75 41.5 
Q 54.890625 34.8125 54.890625 23.390625 
Q 54.890625 11.625 47.5625 5.09375 
Q 40.234375 -1.421875 26.90625 -1.421875 
Q 22.3125 -1.421875 17.546875 -0.640625 
Q 12.796875 0.140625 7.71875 1.703125 
L 7.71875 11.625 
Q 12.109375 9.234375 16.796875 8.0625 
Q 21.484375 6.890625 26.703125 6.890625 
Q 35.15625 6.890625 40.078125 11.328125 
Q 45.015625 15.765625 45.015625 23.390625 
Q 45.015625 31 40.078125 35.4375 
Q 35.15625 39.890625 26.703125 39.890625 
Q 22.75 39.890625 18.8125 39.015625 
Q 14.890625 38.140625 10.796875 36.28125 
z
" id="DejaVuSans-53"/>
       </defs>
       <use xlink:href="#DejaVuSans-53"/>
      </g>
     </g>
    </g>
    <g id="xtick_4">
     <g id="line2d_10">
      <g>
       <use style="stroke:#000000;stroke-width:0.8;" x="252.074282" xlink:href="#m97ceda0e6f" y="315.44"/>
      </g>
     </g>
     <g id="text_4">
      <!-- 10 -->
      <g transform="translate(239.349282 337.636875)scale(0.2 -0.2)">
       <defs>
        <path d="M 12.40625 8.296875 
L 28.515625 8.296875 
L 28.515625 63.921875 
L 10.984375 60.40625 
L 10.984375 69.390625 
L 28.421875 72.90625 
L 38.28125 72.90625 
L 38.28125 8.296875 
L 54.390625 8.296875 
L 54.390625 0 
L 12.40625 0 
z
" id="DejaVuSans-49"/>
        <path d="M 31.78125 66.40625 
Q 24.171875 66.40625 20.328125 58.90625 
Q 16.5 51.421875 16.5 36.375 
Q 16.5 21.390625 20.328125 13.890625 
Q 24.171875 6.390625 31.78125 6.390625 
Q 39.453125 6.390625 43.28125 13.890625 
Q 47.125 21.390625 47.125 36.375 
Q 47.125 51.421875 43.28125 58.90625 
Q 39.453125 66.40625 31.78125 66.40625 
z
M 31.78125 74.21875 
Q 44.046875 74.21875 50.515625 64.515625 
Q 56.984375 54.828125 56.984375 36.375 
Q 56.984375 17.96875 50.515625 8.265625 
Q 44.046875 -1.421875 31.78125 -1.421875 
Q 19.53125 -1.421875 13.0625 8.265625 
Q 6.59375 17.96875 6.59375 36.375 
Q 6.59375 54.828125 13.0625 64.515625 
Q 19.53125 74.21875 31.78125 74.21875 
z
" id="DejaVuSans-48"/>
       </defs>
       <use xlink:href="#DejaVuSans-49"/>
       <use x="63.623047" xlink:href="#DejaVuSans-48"/>
      </g>
     </g>
    </g>
    <g id="xtick_5">
     <g id="line2d_11">
      <g>
       <use style="stroke:#000000;stroke-width:0.8;" x="344.758461" xlink:href="#m97ceda0e6f" y="315.44"/>
      </g>
     </g>
     <g id="text_5">
      <!-- 20 -->
      <g transform="translate(332.033461 337.636875)scale(0.2 -0.2)">
       <use xlink:href="#DejaVuSans-50"/>
       <use x="63.623047" xlink:href="#DejaVuSans-48"/>
      </g>
     </g>
    </g>
    <g id="xtick_6">
     <g id="line2d_12">
      <g>
       <use style="stroke:#000000;stroke-width:0.8;" x="437.442641" xlink:href="#m97ceda0e6f" y="315.44"/>
      </g>
     </g>
     <g id="text_6">
      <!-- 40 -->
      <g transform="translate(424.717641 337.636875)scale(0.2 -0.2)">
       <defs>
        <path d="M 37.796875 64.3125 
L 12.890625 25.390625 
L 37.796875 25.390625 
z
M 35.203125 72.90625 
L 47.609375 72.90625 
L 47.609375 25.390625 
L 58.015625 25.390625 
L 58.015625 17.1875 
L 47.609375 17.1875 
L 47.609375 0 
L 37.796875 0 
L 37.796875 17.1875 
L 4.890625 17.1875 
L 4.890625 26.703125 
z
" id="DejaVuSans-52"/>
       </defs>
       <use xlink:href="#DejaVuSans-52"/>
       <use x="63.623047" xlink:href="#DejaVuSans-48"/>
      </g>
     </g>
    </g>
    <g id="xtick_7">
     <g id="line2d_13">
      <defs>
       <path d="M 0 0 
L 0 2 
" id="m77249bceff" style="stroke:#000000;stroke-width:0.6;"/>
      </defs>
      <g>
       <use style="stroke:#000000;stroke-width:0.6;" x="129.552461" xlink:href="#m77249bceff" y="315.44"/>
      </g>
     </g>
    </g>
    <g id="xtick_8">
     <g id="line2d_14">
      <g>
       <use style="stroke:#000000;stroke-width:0.6;" x="183.769231" xlink:href="#m77249bceff" y="315.44"/>
      </g>
     </g>
    </g>
    <g id="xtick_9">
     <g id="line2d_15">
      <g>
       <use style="stroke:#000000;stroke-width:0.6;" x="204.38149" xlink:href="#m77249bceff" y="315.44"/>
      </g>
     </g>
    </g>
    <g id="xtick_10">
     <g id="line2d_16">
      <g>
       <use style="stroke:#000000;stroke-width:0.6;" x="222.236641" xlink:href="#m77249bceff" y="315.44"/>
      </g>
     </g>
    </g>
    <g id="xtick_11">
     <g id="line2d_17">
      <g>
       <use style="stroke:#000000;stroke-width:0.6;" x="237.986" xlink:href="#m77249bceff" y="315.44"/>
      </g>
     </g>
    </g>
    <g id="xtick_12">
     <g id="line2d_18">
      <g>
       <use style="stroke:#000000;stroke-width:0.6;" x="398.975231" xlink:href="#m77249bceff" y="315.44"/>
      </g>
     </g>
    </g>
   </g>
   <g id="matplotlib.axis_2">
    <g id="ytick_1">
     <g id="line2d_19">
      <path clip-path="url(#p220d16174d)" d="M 22.78 307.447778 
L 453.192 307.447778 
" style="fill:none;stroke:#b0b0b0;stroke-linecap:square;stroke-width:0.8;"/>
     </g>
     <g id="line2d_20">
      <defs>
       <path d="M 0 0 
L -3.5 0 
" id="md09a79b330" style="stroke:#000000;stroke-width:0.8;"/>
      </defs>
      <g>
       <use style="stroke:#000000;stroke-width:0.8;" x="22.78" xlink:href="#md09a79b330" y="307.447778"/>
      </g>
     </g>
     <g id="text_7">
      <!-- 0 -->
      <g transform="translate(3.055 315.046216)scale(0.2 -0.2)">
       <use xlink:href="#DejaVuSans-48"/>
      </g>
     </g>
    </g>
    <g id="ytick_2">
     <g id="line2d_21">
      <path clip-path="url(#p220d16174d)" d="M 22.78 267.48667 
L 453.192 267.48667 
" style="fill:none;stroke:#b0b0b0;stroke-linecap:square;stroke-width:0.8;"/>
     </g>
     <g id="line2d_22">
      <g>
       <use style="stroke:#000000;stroke-width:0.8;" x="22.78" xlink:href="#md09a79b330" y="267.48667"/>
      </g>
     </g>
     <g id="text_8">
      <!-- 1 -->
      <g transform="translate(3.055 275.085107)scale(0.2 -0.2)">
       <use xlink:href="#DejaVuSans-49"/>
      </g>
     </g>
    </g>
    <g id="ytick_3">
     <g id="line2d_23">
      <path clip-path="url(#p220d16174d)" d="M 22.78 227.525561 
L 453.192 227.525561 
" style="fill:none;stroke:#b0b0b0;stroke-linecap:square;stroke-width:0.8;"/>
     </g>
     <g id="line2d_24">
      <g>
       <use style="stroke:#000000;stroke-width:0.8;" x="22.78" xlink:href="#md09a79b330" y="227.525561"/>
      </g>
     </g>
     <g id="text_9">
      <!-- 2 -->
      <g transform="translate(3.055 235.123998)scale(0.2 -0.2)">
       <use xlink:href="#DejaVuSans-50"/>
      </g>
     </g>
    </g>
    <g id="ytick_4">
     <g id="line2d_25">
      <path clip-path="url(#p220d16174d)" d="M 22.78 187.564452 
L 453.192 187.564452 
" style="fill:none;stroke:#b0b0b0;stroke-linecap:square;stroke-width:0.8;"/>
     </g>
     <g id="line2d_26">
      <g>
       <use style="stroke:#000000;stroke-width:0.8;" x="22.78" xlink:href="#md09a79b330" y="187.564452"/>
      </g>
     </g>
     <g id="text_10">
      <!-- 3 -->
      <g transform="translate(3.055 195.16289)scale(0.2 -0.2)">
       <use xlink:href="#DejaVuSans-51"/>
      </g>
     </g>
    </g>
    <g id="ytick_5">
     <g id="line2d_27">
      <path clip-path="url(#p220d16174d)" d="M 22.78 147.603343 
L 453.192 147.603343 
" style="fill:none;stroke:#b0b0b0;stroke-linecap:square;stroke-width:0.8;"/>
     </g>
     <g id="line2d_28">
      <g>
       <use style="stroke:#000000;stroke-width:0.8;" x="22.78" xlink:href="#md09a79b330" y="147.603343"/>
      </g>
     </g>
     <g id="text_11">
      <!-- 4 -->
      <g transform="translate(3.055 155.201781)scale(0.2 -0.2)">
       <use xlink:href="#DejaVuSans-52"/>
      </g>
     </g>
    </g>
    <g id="ytick_6">
     <g id="line2d_29">
      <path clip-path="url(#p220d16174d)" d="M 22.78 107.642235 
L 453.192 107.642235 
" style="fill:none;stroke:#b0b0b0;stroke-linecap:square;stroke-width:0.8;"/>
     </g>
     <g id="line2d_30">
      <g>
       <use style="stroke:#000000;stroke-width:0.8;" x="22.78" xlink:href="#md09a79b330" y="107.642235"/>
      </g>
     </g>
     <g id="text_12">
      <!-- 5 -->
      <g transform="translate(3.055 115.240672)scale(0.2 -0.2)">
       <use xlink:href="#DejaVuSans-53"/>
      </g>
     </g>
    </g>
    <g id="ytick_7">
     <g id="line2d_31">
      <path clip-path="url(#p220d16174d)" d="M 22.78 67.681126 
L 453.192 67.681126 
" style="fill:none;stroke:#b0b0b0;stroke-linecap:square;stroke-width:0.8;"/>
     </g>
     <g id="line2d_32">
      <g>
       <use style="stroke:#000000;stroke-width:0.8;" x="22.78" xlink:href="#md09a79b330" y="67.681126"/>
      </g>
     </g>
     <g id="text_13">
      <!-- 6 -->
      <g transform="translate(3.055 75.279564)scale(0.2 -0.2)">
       <defs>
        <path d="M 33.015625 40.375 
Q 26.375 40.375 22.484375 35.828125 
Q 18.609375 31.296875 18.609375 23.390625 
Q 18.609375 15.53125 22.484375 10.953125 
Q 26.375 6.390625 33.015625 6.390625 
Q 39.65625 6.390625 43.53125 10.953125 
Q 47.40625 15.53125 47.40625 23.390625 
Q 47.40625 31.296875 43.53125 35.828125 
Q 39.65625 40.375 33.015625 40.375 
z
M 52.59375 71.296875 
L 52.59375 62.3125 
Q 48.875 64.0625 45.09375 64.984375 
Q 41.3125 65.921875 37.59375 65.921875 
Q 27.828125 65.921875 22.671875 59.328125 
Q 17.53125 52.734375 16.796875 39.40625 
Q 19.671875 43.65625 24.015625 45.921875 
Q 28.375 48.1875 33.59375 48.1875 
Q 44.578125 48.1875 50.953125 41.515625 
Q 57.328125 34.859375 57.328125 23.390625 
Q 57.328125 12.15625 50.6875 5.359375 
Q 44.046875 -1.421875 33.015625 -1.421875 
Q 20.359375 -1.421875 13.671875 8.265625 
Q 6.984375 17.96875 6.984375 36.375 
Q 6.984375 53.65625 15.1875 63.9375 
Q 23.390625 74.21875 37.203125 74.21875 
Q 40.921875 74.21875 44.703125 73.484375 
Q 48.484375 72.75 52.59375 71.296875 
z
" id="DejaVuSans-54"/>
       </defs>
       <use xlink:href="#DejaVuSans-54"/>
      </g>
     </g>
    </g>
    <g id="ytick_8">
     <g id="line2d_33">
      <path clip-path="url(#p220d16174d)" d="M 22.78 27.720017 
L 453.192 27.720017 
" style="fill:none;stroke:#b0b0b0;stroke-linecap:square;stroke-width:0.8;"/>
     </g>
     <g id="line2d_34">
      <g>
       <use style="stroke:#000000;stroke-width:0.8;" x="22.78" xlink:href="#md09a79b330" y="27.720017"/>
      </g>
     </g>
     <g id="text_14">
      <!-- 7 -->
      <g transform="translate(3.055 35.318455)scale(0.2 -0.2)">
       <defs>
        <path d="M 8.203125 72.90625 
L 55.078125 72.90625 
L 55.078125 68.703125 
L 28.609375 0 
L 18.3125 0 
L 43.21875 64.59375 
L 8.203125 64.59375 
z
" id="DejaVuSans-55"/>
       </defs>
       <use xlink:href="#DejaVuSans-55"/>
      </g>
     </g>
    </g>
   </g>
   <g id="line2d_35">
    <path clip-path="url(#p220d16174d)" d="M 33.682182 220.604846 
L 35.912452 201.57742 
L 33.682182 163.769965 
L 40.054382 163.769965 
L 37.824112 201.57742 
L 40.054382 220.604846 
L 33.682182 220.604846 
" style="fill:none;stroke:#00bfbf;stroke-linecap:square;"/>
   </g>
   <g id="line2d_36">
    <path clip-path="url(#p220d16174d)" d="M 33.682182 220.604846 
L 40.054382 220.604846 
L 40.054382 163.769965 
L 33.682182 163.769965 
L 33.682182 220.604846 
" style="fill:none;"/>
    <defs>
     <path d="M -0 3 
L 3 -3 
L -3 -3 
z
" id="mff1a622dc8" style="stroke:#00bfbf;stroke-linejoin:miter;stroke-width:2;"/>
    </defs>
    <g clip-path="url(#p220d16174d)">
     <use style="fill:#00bfbf;stroke:#00bfbf;stroke-linejoin:miter;stroke-width:2;" x="33.682182" xlink:href="#mff1a622dc8" y="220.604846"/>
     <use style="fill:#00bfbf;stroke:#00bfbf;stroke-linejoin:miter;stroke-width:2;" x="40.054382" xlink:href="#mff1a622dc8" y="220.604846"/>
     <use style="fill:#00bfbf;stroke:#00bfbf;stroke-linejoin:miter;stroke-width:2;" x="40.054382" xlink:href="#mff1a622dc8" y="163.769965"/>
     <use style="fill:#00bfbf;stroke:#00bfbf;stroke-linejoin:miter;stroke-width:2;" x="33.682182" xlink:href="#mff1a622dc8" y="163.769965"/>
     <use style="fill:#00bfbf;stroke:#00bfbf;stroke-linejoin:miter;stroke-width:2;" x="33.682182" xlink:href="#mff1a622dc8" y="220.604846"/>
    </g>
   </g>
   <g id="line2d_37">
    <path clip-path="url(#p220d16174d)" d="M 33.682182 201.57742 
L 40.054382 201.57742 
" style="fill:none;stroke:#00bfbf;stroke-linecap:square;stroke-width:2;"/>
   </g>
   <g id="line2d_38">
    <path clip-path="url(#p220d16174d)" d="M 87.898951 200.134493 
L 90.129221 198.577237 
L 87.898951 188.83013 
L 94.271152 188.83013 
L 92.040881 198.577237 
L 94.271152 200.134493 
L 87.898951 200.134493 
" style="fill:none;stroke:#00bfbf;stroke-linecap:square;"/>
   </g>
   <g id="line2d_39">
    <path clip-path="url(#p220d16174d)" d="M 87.898951 200.134493 
L 94.271152 200.134493 
L 94.271152 188.83013 
L 87.898951 188.83013 
L 87.898951 200.134493 
" style="fill:none;"/>
    <g clip-path="url(#p220d16174d)">
     <use style="fill:#00bfbf;stroke:#00bfbf;stroke-linejoin:miter;stroke-width:2;" x="87.898951" xlink:href="#mff1a622dc8" y="200.134493"/>
     <use style="fill:#00bfbf;stroke:#00bfbf;stroke-linejoin:miter;stroke-width:2;" x="94.271152" xlink:href="#mff1a622dc8" y="200.134493"/>
     <use style="fill:#00bfbf;stroke:#00bfbf;stroke-linejoin:miter;stroke-width:2;" x="94.271152" xlink:href="#mff1a622dc8" y="188.83013"/>
     <use style="fill:#00bfbf;stroke:#00bfbf;stroke-linejoin:miter;stroke-width:2;" x="87.898951" xlink:href="#mff1a622dc8" y="188.83013"/>
     <use style="fill:#00bfbf;stroke:#00bfbf;stroke-linejoin:miter;stroke-width:2;" x="87.898951" xlink:href="#mff1a622dc8" y="200.134493"/>
    </g>
   </g>
   <g id="line2d_40">
    <path clip-path="url(#p220d16174d)" d="M 87.898951 198.577237 
L 94.271152 198.577237 
" style="fill:none;stroke:#00bfbf;stroke-linecap:square;stroke-width:2;"/>
   </g>
   <g id="line2d_41">
    <path clip-path="url(#p220d16174d)" d="M 156.204002 183.37812 
L 158.434273 179.32967 
L 156.204002 165.279117 
L 162.576203 165.279117 
L 160.345933 179.32967 
L 162.576203 183.37812 
L 156.204002 183.37812 
" style="fill:none;stroke:#00bfbf;stroke-linecap:square;"/>
   </g>
   <g id="line2d_42">
    <path clip-path="url(#p220d16174d)" d="M 156.204002 183.37812 
L 162.576203 183.37812 
L 162.576203 165.279117 
L 156.204002 165.279117 
L 156.204002 183.37812 
" style="fill:none;"/>
    <g clip-path="url(#p220d16174d)">
     <use style="fill:#00bfbf;stroke:#00bfbf;stroke-linejoin:miter;stroke-width:2;" x="156.204002" xlink:href="#mff1a622dc8" y="183.37812"/>
     <use style="fill:#00bfbf;stroke:#00bfbf;stroke-linejoin:miter;stroke-width:2;" x="162.576203" xlink:href="#mff1a622dc8" y="183.37812"/>
     <use style="fill:#00bfbf;stroke:#00bfbf;stroke-linejoin:miter;stroke-width:2;" x="162.576203" xlink:href="#mff1a622dc8" y="165.279117"/>
     <use style="fill:#00bfbf;stroke:#00bfbf;stroke-linejoin:miter;stroke-width:2;" x="156.204002" xlink:href="#mff1a622dc8" y="165.279117"/>
     <use style="fill:#00bfbf;stroke:#00bfbf;stroke-linejoin:miter;stroke-width:2;" x="156.204002" xlink:href="#mff1a622dc8" y="183.37812"/>
    </g>
   </g>
   <g id="line2d_43">
    <path clip-path="url(#p220d16174d)" d="M 156.204002 179.32967 
L 162.576203 179.32967 
" style="fill:none;stroke:#00bfbf;stroke-linecap:square;stroke-width:2;"/>
   </g>
   <g id="line2d_44">
    <path clip-path="url(#p220d16174d)" d="M 248.888182 182.149151 
L 251.118452 172.743925 
L 248.888182 163.668937 
L 255.260382 163.668937 
L 253.030112 172.743925 
L 255.260382 182.149151 
L 248.888182 182.149151 
" style="fill:none;stroke:#00bfbf;stroke-linecap:square;"/>
   </g>
   <g id="line2d_45">
    <path clip-path="url(#p220d16174d)" d="M 248.888182 182.149151 
L 255.260382 182.149151 
L 255.260382 163.668937 
L 248.888182 163.668937 
L 248.888182 182.149151 
" style="fill:none;"/>
    <g clip-path="url(#p220d16174d)">
     <use style="fill:#00bfbf;stroke:#00bfbf;stroke-linejoin:miter;stroke-width:2;" x="248.888182" xlink:href="#mff1a622dc8" y="182.149151"/>
     <use style="fill:#00bfbf;stroke:#00bfbf;stroke-linejoin:miter;stroke-width:2;" x="255.260382" xlink:href="#mff1a622dc8" y="182.149151"/>
     <use style="fill:#00bfbf;stroke:#00bfbf;stroke-linejoin:miter;stroke-width:2;" x="255.260382" xlink:href="#mff1a622dc8" y="163.668937"/>
     <use style="fill:#00bfbf;stroke:#00bfbf;stroke-linejoin:miter;stroke-width:2;" x="248.888182" xlink:href="#mff1a622dc8" y="163.668937"/>
     <use style="fill:#00bfbf;stroke:#00bfbf;stroke-linejoin:miter;stroke-width:2;" x="248.888182" xlink:href="#mff1a622dc8" y="182.149151"/>
    </g>
   </g>
   <g id="line2d_46">
    <path clip-path="url(#p220d16174d)" d="M 248.888182 172.743925 
L 255.260382 172.743925 
" style="fill:none;stroke:#00bfbf;stroke-linecap:square;stroke-width:2;"/>
   </g>
   <g id="line2d_47">
    <path clip-path="url(#p220d16174d)" d="M 341.572361 186.818822 
L 343.802631 173.519604 
L 341.572361 169.44049 
L 347.944562 169.44049 
L 345.714291 173.519604 
L 347.944562 186.818822 
L 341.572361 186.818822 
" style="fill:none;stroke:#00bfbf;stroke-linecap:square;"/>
   </g>
   <g id="line2d_48">
    <path clip-path="url(#p220d16174d)" d="M 341.572361 186.818822 
L 347.944562 186.818822 
L 347.944562 169.44049 
L 341.572361 169.44049 
L 341.572361 186.818822 
" style="fill:none;"/>
    <g clip-path="url(#p220d16174d)">
     <use style="fill:#00bfbf;stroke:#00bfbf;stroke-linejoin:miter;stroke-width:2;" x="341.572361" xlink:href="#mff1a622dc8" y="186.818822"/>
     <use style="fill:#00bfbf;stroke:#00bfbf;stroke-linejoin:miter;stroke-width:2;" x="347.944562" xlink:href="#mff1a622dc8" y="186.818822"/>
     <use style="fill:#00bfbf;stroke:#00bfbf;stroke-linejoin:miter;stroke-width:2;" x="347.944562" xlink:href="#mff1a622dc8" y="169.44049"/>
     <use style="fill:#00bfbf;stroke:#00bfbf;stroke-linejoin:miter;stroke-width:2;" x="341.572361" xlink:href="#mff1a622dc8" y="169.44049"/>
     <use style="fill:#00bfbf;stroke:#00bfbf;stroke-linejoin:miter;stroke-width:2;" x="341.572361" xlink:href="#mff1a622dc8" y="186.818822"/>
    </g>
   </g>
   <g id="line2d_49">
    <path clip-path="url(#p220d16174d)" d="M 341.572361 173.519604 
L 347.944562 173.519604 
" style="fill:none;stroke:#00bfbf;stroke-linecap:square;stroke-width:2;"/>
   </g>
   <g id="line2d_50">
    <path clip-path="url(#p220d16174d)" d="M 36.868282 137.476663 
L 91.085051 193.095304 
" style="fill:none;stroke:#00bfbf;stroke-linecap:square;stroke-width:4;"/>
   </g>
   <g id="line2d_51">
    <path clip-path="url(#p220d16174d)" d="M 91.085051 193.095304 
L 159.390103 174.33401 
" style="fill:none;stroke:#00bfbf;stroke-linecap:square;stroke-width:4;"/>
   </g>
   <g id="line2d_52">
    <path clip-path="url(#p220d16174d)" d="M 159.390103 174.33401 
L 252.074282 170.281934 
" style="fill:none;stroke:#00bfbf;stroke-linecap:square;stroke-width:4;"/>
   </g>
   <g id="line2d_53">
    <path clip-path="url(#p220d16174d)" d="M 252.074282 170.281934 
L 344.758461 172.823644 
" style="fill:none;stroke:#00bfbf;stroke-linecap:square;stroke-width:4;"/>
   </g>
   <g id="line2d_54">
    <path clip-path="url(#p220d16174d)" d="M 36.868282 137.476663 
L 91.085051 193.095304 
L 159.390103 174.33401 
L 252.074282 170.281934 
L 344.758461 172.823644 
" style="fill:none;"/>
    <defs>
     <path d="M -0 10 
L 10 -10 
L -10 -10 
z
" id="m284e17d33d" style="stroke:#000000;stroke-linejoin:miter;stroke-width:2;"/>
    </defs>
    <g clip-path="url(#p220d16174d)">
     <use style="fill:#00bfbf;stroke:#000000;stroke-linejoin:miter;stroke-width:2;" x="36.868282" xlink:href="#m284e17d33d" y="137.476663"/>
     <use style="fill:#00bfbf;stroke:#000000;stroke-linejoin:miter;stroke-width:2;" x="91.085051" xlink:href="#m284e17d33d" y="193.095304"/>
     <use style="fill:#00bfbf;stroke:#000000;stroke-linejoin:miter;stroke-width:2;" x="159.390103" xlink:href="#m284e17d33d" y="174.33401"/>
     <use style="fill:#00bfbf;stroke:#000000;stroke-linejoin:miter;stroke-width:2;" x="252.074282" xlink:href="#m284e17d33d" y="170.281934"/>
     <use style="fill:#00bfbf;stroke:#000000;stroke-linejoin:miter;stroke-width:2;" x="344.758461" xlink:href="#m284e17d33d" y="172.823644"/>
    </g>
   </g>
   <g id="line2d_55">
    <path clip-path="url(#p220d16174d)" d="M 32.620148 180.138665 
L 35.593842 128.932882 
L 32.620148 112.031745 
L 41.116416 112.031745 
L 38.142722 128.932882 
L 41.116416 180.138665 
L 32.620148 180.138665 
" style="fill:none;stroke:#008000;stroke-linecap:square;"/>
   </g>
   <g id="line2d_56">
    <path clip-path="url(#p220d16174d)" d="M 32.620148 180.138665 
L 41.116416 180.138665 
L 41.116416 112.031745 
L 32.620148 112.031745 
L 32.620148 180.138665 
" style="fill:none;"/>
    <defs>
     <path d="M 0 1.5 
C 0.397805 1.5 0.77937 1.341951 1.06066 1.06066 
C 1.341951 0.77937 1.5 0.397805 1.5 0 
C 1.5 -0.397805 1.341951 -0.77937 1.06066 -1.06066 
C 0.77937 -1.341951 0.397805 -1.5 0 -1.5 
C -0.397805 -1.5 -0.77937 -1.341951 -1.06066 -1.06066 
C -1.341951 -0.77937 -1.5 -0.397805 -1.5 0 
C -1.5 0.397805 -1.341951 0.77937 -1.06066 1.06066 
C -0.77937 1.341951 -0.397805 1.5 0 1.5 
z
" id="m78f572d226" style="stroke:#008000;"/>
    </defs>
    <g clip-path="url(#p220d16174d)">
     <use style="fill:#008000;stroke:#008000;" x="32.620148" xlink:href="#m78f572d226" y="180.138665"/>
     <use style="fill:#008000;stroke:#008000;" x="41.116416" xlink:href="#m78f572d226" y="180.138665"/>
     <use style="fill:#008000;stroke:#008000;" x="41.116416" xlink:href="#m78f572d226" y="112.031745"/>
     <use style="fill:#008000;stroke:#008000;" x="32.620148" xlink:href="#m78f572d226" y="112.031745"/>
     <use style="fill:#008000;stroke:#008000;" x="32.620148" xlink:href="#m78f572d226" y="180.138665"/>
    </g>
   </g>
   <g id="line2d_57">
    <path clip-path="url(#p220d16174d)" d="M 32.620148 128.932882 
L 41.116416 128.932882 
" style="fill:none;stroke:#008000;stroke-linecap:square;stroke-width:2;"/>
   </g>
   <g id="line2d_58">
    <path clip-path="url(#p220d16174d)" d="M 86.836918 174.715781 
L 89.810611 167.445117 
L 86.836918 132.912721 
L 95.333185 132.912721 
L 92.359491 167.445117 
L 95.333185 174.715781 
L 86.836918 174.715781 
" style="fill:none;stroke:#008000;stroke-linecap:square;"/>
   </g>
   <g id="line2d_59">
    <path clip-path="url(#p220d16174d)" d="M 86.836918 174.715781 
L 95.333185 174.715781 
L 95.333185 132.912721 
L 86.836918 132.912721 
L 86.836918 174.715781 
" style="fill:none;"/>
    <g clip-path="url(#p220d16174d)">
     <use style="fill:#008000;stroke:#008000;" x="86.836918" xlink:href="#m78f572d226" y="174.715781"/>
     <use style="fill:#008000;stroke:#008000;" x="95.333185" xlink:href="#m78f572d226" y="174.715781"/>
     <use style="fill:#008000;stroke:#008000;" x="95.333185" xlink:href="#m78f572d226" y="132.912721"/>
     <use style="fill:#008000;stroke:#008000;" x="86.836918" xlink:href="#m78f572d226" y="132.912721"/>
     <use style="fill:#008000;stroke:#008000;" x="86.836918" xlink:href="#m78f572d226" y="174.715781"/>
    </g>
   </g>
   <g id="line2d_60">
    <path clip-path="url(#p220d16174d)" d="M 86.836918 167.445117 
L 95.333185 167.445117 
" style="fill:none;stroke:#008000;stroke-linecap:square;stroke-width:2;"/>
   </g>
   <g id="line2d_61">
    <path clip-path="url(#p220d16174d)" d="M 155.141969 160.754746 
L 158.115662 156.437743 
L 155.141969 154.154136 
L 163.638236 154.154136 
L 160.664543 156.437743 
L 163.638236 160.754746 
L 155.141969 160.754746 
" style="fill:none;stroke:#008000;stroke-linecap:square;"/>
   </g>
   <g id="line2d_62">
    <path clip-path="url(#p220d16174d)" d="M 155.141969 160.754746 
L 163.638236 160.754746 
L 163.638236 154.154136 
L 155.141969 154.154136 
L 155.141969 160.754746 
" style="fill:none;"/>
    <g clip-path="url(#p220d16174d)">
     <use style="fill:#008000;stroke:#008000;" x="155.141969" xlink:href="#m78f572d226" y="160.754746"/>
     <use style="fill:#008000;stroke:#008000;" x="163.638236" xlink:href="#m78f572d226" y="160.754746"/>
     <use style="fill:#008000;stroke:#008000;" x="163.638236" xlink:href="#m78f572d226" y="154.154136"/>
     <use style="fill:#008000;stroke:#008000;" x="155.141969" xlink:href="#m78f572d226" y="154.154136"/>
     <use style="fill:#008000;stroke:#008000;" x="155.141969" xlink:href="#m78f572d226" y="160.754746"/>
    </g>
   </g>
   <g id="line2d_63">
    <path clip-path="url(#p220d16174d)" d="M 155.141969 156.437743 
L 163.638236 156.437743 
" style="fill:none;stroke:#008000;stroke-linecap:square;stroke-width:2;"/>
   </g>
   <g id="line2d_64">
    <path clip-path="url(#p220d16174d)" d="M 247.826148 156.58417 
L 250.799842 152.632286 
L 247.826148 147.387581 
L 256.322416 147.387581 
L 253.348722 152.632286 
L 256.322416 156.58417 
L 247.826148 156.58417 
" style="fill:none;stroke:#008000;stroke-linecap:square;"/>
   </g>
   <g id="line2d_65">
    <path clip-path="url(#p220d16174d)" d="M 247.826148 156.58417 
L 256.322416 156.58417 
L 256.322416 147.387581 
L 247.826148 147.387581 
L 247.826148 156.58417 
" style="fill:none;"/>
    <g clip-path="url(#p220d16174d)">
     <use style="fill:#008000;stroke:#008000;" x="247.826148" xlink:href="#m78f572d226" y="156.58417"/>
     <use style="fill:#008000;stroke:#008000;" x="256.322416" xlink:href="#m78f572d226" y="156.58417"/>
     <use style="fill:#008000;stroke:#008000;" x="256.322416" xlink:href="#m78f572d226" y="147.387581"/>
     <use style="fill:#008000;stroke:#008000;" x="247.826148" xlink:href="#m78f572d226" y="147.387581"/>
     <use style="fill:#008000;stroke:#008000;" x="247.826148" xlink:href="#m78f572d226" y="156.58417"/>
    </g>
   </g>
   <g id="line2d_66">
    <path clip-path="url(#p220d16174d)" d="M 247.826148 152.632286 
L 256.322416 152.632286 
" style="fill:none;stroke:#008000;stroke-linecap:square;stroke-width:2;"/>
   </g>
   <g id="line2d_67">
    <path clip-path="url(#p220d16174d)" d="M 340.510328 155.341964 
L 343.484021 151.485631 
L 340.510328 146.13108 
L 349.006595 146.13108 
L 346.032901 151.485631 
L 349.006595 155.341964 
L 340.510328 155.341964 
" style="fill:none;stroke:#008000;stroke-linecap:square;"/>
   </g>
   <g id="line2d_68">
    <path clip-path="url(#p220d16174d)" d="M 340.510328 155.341964 
L 349.006595 155.341964 
L 349.006595 146.13108 
L 340.510328 146.13108 
L 340.510328 155.341964 
" style="fill:none;"/>
    <g clip-path="url(#p220d16174d)">
     <use style="fill:#008000;stroke:#008000;" x="340.510328" xlink:href="#m78f572d226" y="155.341964"/>
     <use style="fill:#008000;stroke:#008000;" x="349.006595" xlink:href="#m78f572d226" y="155.341964"/>
     <use style="fill:#008000;stroke:#008000;" x="349.006595" xlink:href="#m78f572d226" y="146.13108"/>
     <use style="fill:#008000;stroke:#008000;" x="340.510328" xlink:href="#m78f572d226" y="146.13108"/>
     <use style="fill:#008000;stroke:#008000;" x="340.510328" xlink:href="#m78f572d226" y="155.341964"/>
    </g>
   </g>
   <g id="line2d_69">
    <path clip-path="url(#p220d16174d)" d="M 340.510328 151.485631 
L 349.006595 151.485631 
" style="fill:none;stroke:#008000;stroke-linecap:square;stroke-width:2;"/>
   </g>
   <g id="line2d_70">
    <path clip-path="url(#p220d16174d)" d="M 36.868282 119.749303 
L 91.085051 136.493057 
" style="fill:none;stroke:#008000;stroke-linecap:square;stroke-width:4;"/>
   </g>
   <g id="line2d_71">
    <path clip-path="url(#p220d16174d)" d="M 91.085051 136.493057 
L 159.390103 138.596865 
" style="fill:none;stroke:#008000;stroke-linecap:square;stroke-width:4;"/>
   </g>
   <g id="line2d_72">
    <path clip-path="url(#p220d16174d)" d="M 159.390103 138.596865 
L 252.074282 150.277353 
" style="fill:none;stroke:#008000;stroke-linecap:square;stroke-width:4;"/>
   </g>
   <g id="line2d_73">
    <path clip-path="url(#p220d16174d)" d="M 252.074282 150.277353 
L 344.758461 149.903737 
" style="fill:none;stroke:#008000;stroke-linecap:square;stroke-width:4;"/>
   </g>
   <g id="line2d_74">
    <path clip-path="url(#p220d16174d)" d="M 36.868282 119.749303 
L 91.085051 136.493057 
L 159.390103 138.596865 
L 252.074282 150.277353 
L 344.758461 149.903737 
" style="fill:none;"/>
    <defs>
     <path d="M 0 5 
C 1.326016 5 2.597899 4.473168 3.535534 3.535534 
C 4.473168 2.597899 5 1.326016 5 0 
C 5 -1.326016 4.473168 -2.597899 3.535534 -3.535534 
C 2.597899 -4.473168 1.326016 -5 0 -5 
C -1.326016 -5 -2.597899 -4.473168 -3.535534 -3.535534 
C -4.473168 -2.597899 -5 -1.326016 -5 0 
C -5 1.326016 -4.473168 2.597899 -3.535534 3.535534 
C -2.597899 4.473168 -1.326016 5 0 5 
z
" id="md1463daeef" style="stroke:#008000;"/>
    </defs>
    <g clip-path="url(#p220d16174d)">
     <use style="fill:#008000;stroke:#008000;" x="36.868282" xlink:href="#md1463daeef" y="119.749303"/>
     <use style="fill:#008000;stroke:#008000;" x="91.085051" xlink:href="#md1463daeef" y="136.493057"/>
     <use style="fill:#008000;stroke:#008000;" x="159.390103" xlink:href="#md1463daeef" y="138.596865"/>
     <use style="fill:#008000;stroke:#008000;" x="252.074282" xlink:href="#md1463daeef" y="150.277353"/>
     <use style="fill:#008000;stroke:#008000;" x="344.758461" xlink:href="#md1463daeef" y="149.903737"/>
    </g>
   </g>
   <g id="line2d_75">
    <path clip-path="url(#p220d16174d)" d="M 31.558115 128.568606 
L 35.275232 104.713841 
L 31.558115 88.18605 
L 42.178449 88.18605 
L 38.461332 104.713841 
L 42.178449 128.568606 
L 31.558115 128.568606 
" style="fill:none;stroke:#bfbf00;stroke-linecap:square;"/>
   </g>
   <g id="line2d_76">
    <path clip-path="url(#p220d16174d)" d="M 31.558115 128.568606 
L 42.178449 128.568606 
L 42.178449 88.18605 
L 31.558115 88.18605 
L 31.558115 128.568606 
" style="fill:none;"/>
    <defs>
     <path d="M 0 -3 
L -3 3 
L 3 3 
z
" id="maf566fff0c" style="stroke:#bfbf00;stroke-linejoin:miter;stroke-width:2;"/>
    </defs>
    <g clip-path="url(#p220d16174d)">
     <use style="fill:#bfbf00;stroke:#bfbf00;stroke-linejoin:miter;stroke-width:2;" x="31.558115" xlink:href="#maf566fff0c" y="128.568606"/>
     <use style="fill:#bfbf00;stroke:#bfbf00;stroke-linejoin:miter;stroke-width:2;" x="42.178449" xlink:href="#maf566fff0c" y="128.568606"/>
     <use style="fill:#bfbf00;stroke:#bfbf00;stroke-linejoin:miter;stroke-width:2;" x="42.178449" xlink:href="#maf566fff0c" y="88.18605"/>
     <use style="fill:#bfbf00;stroke:#bfbf00;stroke-linejoin:miter;stroke-width:2;" x="31.558115" xlink:href="#maf566fff0c" y="88.18605"/>
     <use style="fill:#bfbf00;stroke:#bfbf00;stroke-linejoin:miter;stroke-width:2;" x="31.558115" xlink:href="#maf566fff0c" y="128.568606"/>
    </g>
   </g>
   <g id="line2d_77">
    <path clip-path="url(#p220d16174d)" d="M 31.558115 104.713841 
L 42.178449 104.713841 
" style="fill:none;stroke:#bfbf00;stroke-linecap:square;stroke-width:2;"/>
   </g>
   <g id="line2d_78">
    <path clip-path="url(#p220d16174d)" d="M 85.774884 149.769366 
L 89.492001 114.918838 
L 85.774884 102.658441 
L 96.395219 102.658441 
L 92.678101 114.918838 
L 96.395219 149.769366 
L 85.774884 149.769366 
" style="fill:none;stroke:#bfbf00;stroke-linecap:square;"/>
   </g>
   <g id="line2d_79">
    <path clip-path="url(#p220d16174d)" d="M 85.774884 149.769366 
L 96.395219 149.769366 
L 96.395219 102.658441 
L 85.774884 102.658441 
L 85.774884 149.769366 
" style="fill:none;"/>
    <g clip-path="url(#p220d16174d)">
     <use style="fill:#bfbf00;stroke:#bfbf00;stroke-linejoin:miter;stroke-width:2;" x="85.774884" xlink:href="#maf566fff0c" y="149.769366"/>
     <use style="fill:#bfbf00;stroke:#bfbf00;stroke-linejoin:miter;stroke-width:2;" x="96.395219" xlink:href="#maf566fff0c" y="149.769366"/>
     <use style="fill:#bfbf00;stroke:#bfbf00;stroke-linejoin:miter;stroke-width:2;" x="96.395219" xlink:href="#maf566fff0c" y="102.658441"/>
     <use style="fill:#bfbf00;stroke:#bfbf00;stroke-linejoin:miter;stroke-width:2;" x="85.774884" xlink:href="#maf566fff0c" y="102.658441"/>
     <use style="fill:#bfbf00;stroke:#bfbf00;stroke-linejoin:miter;stroke-width:2;" x="85.774884" xlink:href="#maf566fff0c" y="149.769366"/>
    </g>
   </g>
   <g id="line2d_80">
    <path clip-path="url(#p220d16174d)" d="M 85.774884 114.918838 
L 96.395219 114.918838 
" style="fill:none;stroke:#bfbf00;stroke-linecap:square;stroke-width:2;"/>
   </g>
   <g id="line2d_81">
    <path clip-path="url(#p220d16174d)" d="M 154.079935 138.63303 
L 157.797052 115.388881 
L 154.079935 94.215511 
L 164.70027 94.215511 
L 160.983153 115.388881 
L 164.70027 138.63303 
L 154.079935 138.63303 
" style="fill:none;stroke:#bfbf00;stroke-linecap:square;"/>
   </g>
   <g id="line2d_82">
    <path clip-path="url(#p220d16174d)" d="M 154.079935 138.63303 
L 164.70027 138.63303 
L 164.70027 94.215511 
L 154.079935 94.215511 
L 154.079935 138.63303 
" style="fill:none;"/>
    <g clip-path="url(#p220d16174d)">
     <use style="fill:#bfbf00;stroke:#bfbf00;stroke-linejoin:miter;stroke-width:2;" x="154.079935" xlink:href="#maf566fff0c" y="138.63303"/>
     <use style="fill:#bfbf00;stroke:#bfbf00;stroke-linejoin:miter;stroke-width:2;" x="164.70027" xlink:href="#maf566fff0c" y="138.63303"/>
     <use style="fill:#bfbf00;stroke:#bfbf00;stroke-linejoin:miter;stroke-width:2;" x="164.70027" xlink:href="#maf566fff0c" y="94.215511"/>
     <use style="fill:#bfbf00;stroke:#bfbf00;stroke-linejoin:miter;stroke-width:2;" x="154.079935" xlink:href="#maf566fff0c" y="94.215511"/>
     <use style="fill:#bfbf00;stroke:#bfbf00;stroke-linejoin:miter;stroke-width:2;" x="154.079935" xlink:href="#maf566fff0c" y="138.63303"/>
    </g>
   </g>
   <g id="line2d_83">
    <path clip-path="url(#p220d16174d)" d="M 154.079935 115.388881 
L 164.70027 115.388881 
" style="fill:none;stroke:#bfbf00;stroke-linecap:square;stroke-width:2;"/>
   </g>
   <g id="line2d_84">
    <path clip-path="url(#p220d16174d)" d="M 246.764115 138.816887 
L 250.481232 134.407146 
L 246.764115 124.512638 
L 257.384449 124.512638 
L 253.667332 134.407146 
L 257.384449 138.816887 
L 246.764115 138.816887 
" style="fill:none;stroke:#bfbf00;stroke-linecap:square;"/>
   </g>
   <g id="line2d_85">
    <path clip-path="url(#p220d16174d)" d="M 246.764115 138.816887 
L 257.384449 138.816887 
L 257.384449 124.512638 
L 246.764115 124.512638 
L 246.764115 138.816887 
" style="fill:none;"/>
    <g clip-path="url(#p220d16174d)">
     <use style="fill:#bfbf00;stroke:#bfbf00;stroke-linejoin:miter;stroke-width:2;" x="246.764115" xlink:href="#maf566fff0c" y="138.816887"/>
     <use style="fill:#bfbf00;stroke:#bfbf00;stroke-linejoin:miter;stroke-width:2;" x="257.384449" xlink:href="#maf566fff0c" y="138.816887"/>
     <use style="fill:#bfbf00;stroke:#bfbf00;stroke-linejoin:miter;stroke-width:2;" x="257.384449" xlink:href="#maf566fff0c" y="124.512638"/>
     <use style="fill:#bfbf00;stroke:#bfbf00;stroke-linejoin:miter;stroke-width:2;" x="246.764115" xlink:href="#maf566fff0c" y="124.512638"/>
     <use style="fill:#bfbf00;stroke:#bfbf00;stroke-linejoin:miter;stroke-width:2;" x="246.764115" xlink:href="#maf566fff0c" y="138.816887"/>
    </g>
   </g>
   <g id="line2d_86">
    <path clip-path="url(#p220d16174d)" d="M 246.764115 134.407146 
L 257.384449 134.407146 
" style="fill:none;stroke:#bfbf00;stroke-linecap:square;stroke-width:2;"/>
   </g>
   <g id="line2d_87">
    <path clip-path="url(#p220d16174d)" d="M 339.448294 137.200116 
L 343.165411 136.351032 
L 339.448294 132.724509 
L 350.068629 132.724509 
L 346.351511 136.351032 
L 350.068629 137.200116 
L 339.448294 137.200116 
" style="fill:none;stroke:#bfbf00;stroke-linecap:square;"/>
   </g>
   <g id="line2d_88">
    <path clip-path="url(#p220d16174d)" d="M 339.448294 137.200116 
L 350.068629 137.200116 
L 350.068629 132.724509 
L 339.448294 132.724509 
L 339.448294 137.200116 
" style="fill:none;"/>
    <g clip-path="url(#p220d16174d)">
     <use style="fill:#bfbf00;stroke:#bfbf00;stroke-linejoin:miter;stroke-width:2;" x="339.448294" xlink:href="#maf566fff0c" y="137.200116"/>
     <use style="fill:#bfbf00;stroke:#bfbf00;stroke-linejoin:miter;stroke-width:2;" x="350.068629" xlink:href="#maf566fff0c" y="137.200116"/>
     <use style="fill:#bfbf00;stroke:#bfbf00;stroke-linejoin:miter;stroke-width:2;" x="350.068629" xlink:href="#maf566fff0c" y="132.724509"/>
     <use style="fill:#bfbf00;stroke:#bfbf00;stroke-linejoin:miter;stroke-width:2;" x="339.448294" xlink:href="#maf566fff0c" y="132.724509"/>
     <use style="fill:#bfbf00;stroke:#bfbf00;stroke-linejoin:miter;stroke-width:2;" x="339.448294" xlink:href="#maf566fff0c" y="137.200116"/>
    </g>
   </g>
   <g id="line2d_89">
    <path clip-path="url(#p220d16174d)" d="M 339.448294 136.351032 
L 350.068629 136.351032 
" style="fill:none;stroke:#bfbf00;stroke-linecap:square;stroke-width:2;"/>
   </g>
   <g id="line2d_90">
    <path clip-path="url(#p220d16174d)" d="M 36.868282 92.012769 
L 91.085051 108.146744 
" style="fill:none;stroke:#bfbf00;stroke-linecap:square;stroke-width:4;"/>
   </g>
   <g id="line2d_91">
    <path clip-path="url(#p220d16174d)" d="M 91.085051 108.146744 
L 159.390103 105.181175 
" style="fill:none;stroke:#bfbf00;stroke-linecap:square;stroke-width:4;"/>
   </g>
   <g id="line2d_92">
    <path clip-path="url(#p220d16174d)" d="M 159.390103 105.181175 
L 252.074282 120.99214 
" style="fill:none;stroke:#bfbf00;stroke-linecap:square;stroke-width:4;"/>
   </g>
   <g id="line2d_93">
    <path clip-path="url(#p220d16174d)" d="M 252.074282 120.99214 
L 344.758461 135.319402 
" style="fill:none;stroke:#bfbf00;stroke-linecap:square;stroke-width:4;"/>
   </g>
   <g id="line2d_94">
    <path clip-path="url(#p220d16174d)" d="M 36.868282 92.012769 
L 91.085051 108.146744 
L 159.390103 105.181175 
L 252.074282 120.99214 
L 344.758461 135.319402 
" style="fill:none;"/>
    <defs>
     <path d="M 0 -10 
L -10 10 
L 10 10 
z
" id="m6a9d0bf6a6" style="stroke:#000000;stroke-linejoin:miter;stroke-width:2;"/>
    </defs>
    <g clip-path="url(#p220d16174d)">
     <use style="fill:#bfbf00;stroke:#000000;stroke-linejoin:miter;stroke-width:2;" x="36.868282" xlink:href="#m6a9d0bf6a6" y="92.012769"/>
     <use style="fill:#bfbf00;stroke:#000000;stroke-linejoin:miter;stroke-width:2;" x="91.085051" xlink:href="#m6a9d0bf6a6" y="108.146744"/>
     <use style="fill:#bfbf00;stroke:#000000;stroke-linejoin:miter;stroke-width:2;" x="159.390103" xlink:href="#m6a9d0bf6a6" y="105.181175"/>
     <use style="fill:#bfbf00;stroke:#000000;stroke-linejoin:miter;stroke-width:2;" x="252.074282" xlink:href="#m6a9d0bf6a6" y="120.99214"/>
     <use style="fill:#bfbf00;stroke:#000000;stroke-linejoin:miter;stroke-width:2;" x="344.758461" xlink:href="#m6a9d0bf6a6" y="135.319402"/>
    </g>
   </g>
   <g id="line2d_95">
    <path clip-path="url(#p220d16174d)" d="M 30.496081 106.874839 
L 34.956622 88.090606 
L 30.496081 83.388197 
L 43.240483 83.388197 
L 38.779942 88.090606 
L 43.240483 106.874839 
L 30.496081 106.874839 
" style="fill:none;stroke:#bf00bf;stroke-linecap:square;"/>
   </g>
   <g id="line2d_96">
    <path clip-path="url(#p220d16174d)" d="M 30.496081 106.874839 
L 43.240483 106.874839 
L 43.240483 83.388197 
L 30.496081 83.388197 
L 30.496081 106.874839 
" style="fill:none;"/>
    <defs>
     <path d="M 0 1.5 
C 0.397805 1.5 0.77937 1.341951 1.06066 1.06066 
C 1.341951 0.77937 1.5 0.397805 1.5 0 
C 1.5 -0.397805 1.341951 -0.77937 1.06066 -1.06066 
C 0.77937 -1.341951 0.397805 -1.5 0 -1.5 
C -0.397805 -1.5 -0.77937 -1.341951 -1.06066 -1.06066 
C -1.341951 -0.77937 -1.5 -0.397805 -1.5 0 
C -1.5 0.397805 -1.341951 0.77937 -1.06066 1.06066 
C -0.77937 1.341951 -0.397805 1.5 0 1.5 
z
" id="m9fc488c9b7" style="stroke:#bf00bf;"/>
    </defs>
    <g clip-path="url(#p220d16174d)">
     <use style="fill:#bf00bf;stroke:#bf00bf;" x="30.496081" xlink:href="#m9fc488c9b7" y="106.874839"/>
     <use style="fill:#bf00bf;stroke:#bf00bf;" x="43.240483" xlink:href="#m9fc488c9b7" y="106.874839"/>
     <use style="fill:#bf00bf;stroke:#bf00bf;" x="43.240483" xlink:href="#m9fc488c9b7" y="83.388197"/>
     <use style="fill:#bf00bf;stroke:#bf00bf;" x="30.496081" xlink:href="#m9fc488c9b7" y="83.388197"/>
     <use style="fill:#bf00bf;stroke:#bf00bf;" x="30.496081" xlink:href="#m9fc488c9b7" y="106.874839"/>
    </g>
   </g>
   <g id="line2d_97">
    <path clip-path="url(#p220d16174d)" d="M 30.496081 88.090606 
L 43.240483 88.090606 
" style="fill:none;stroke:#bf00bf;stroke-linecap:square;stroke-width:2;"/>
   </g>
   <g id="line2d_98">
    <path clip-path="url(#p220d16174d)" d="M 84.712851 129.037062 
L 89.173391 98.336409 
L 84.712851 93.251597 
L 97.457252 93.251597 
L 92.996711 98.336409 
L 97.457252 129.037062 
L 84.712851 129.037062 
" style="fill:none;stroke:#bf00bf;stroke-linecap:square;"/>
   </g>
   <g id="line2d_99">
    <path clip-path="url(#p220d16174d)" d="M 84.712851 129.037062 
L 97.457252 129.037062 
L 97.457252 93.251597 
L 84.712851 93.251597 
L 84.712851 129.037062 
" style="fill:none;"/>
    <g clip-path="url(#p220d16174d)">
     <use style="fill:#bf00bf;stroke:#bf00bf;" x="84.712851" xlink:href="#m9fc488c9b7" y="129.037062"/>
     <use style="fill:#bf00bf;stroke:#bf00bf;" x="97.457252" xlink:href="#m9fc488c9b7" y="129.037062"/>
     <use style="fill:#bf00bf;stroke:#bf00bf;" x="97.457252" xlink:href="#m9fc488c9b7" y="93.251597"/>
     <use style="fill:#bf00bf;stroke:#bf00bf;" x="84.712851" xlink:href="#m9fc488c9b7" y="93.251597"/>
     <use style="fill:#bf00bf;stroke:#bf00bf;" x="84.712851" xlink:href="#m9fc488c9b7" y="129.037062"/>
    </g>
   </g>
   <g id="line2d_100">
    <path clip-path="url(#p220d16174d)" d="M 84.712851 98.336409 
L 97.457252 98.336409 
" style="fill:none;stroke:#bf00bf;stroke-linecap:square;stroke-width:2;"/>
   </g>
   <g id="line2d_101">
    <path clip-path="url(#p220d16174d)" d="M 153.017902 103.829351 
L 157.478442 90.010253 
L 153.017902 73.272461 
L 165.762303 73.272461 
L 161.301763 90.010253 
L 165.762303 103.829351 
L 153.017902 103.829351 
" style="fill:none;stroke:#bf00bf;stroke-linecap:square;"/>
   </g>
   <g id="line2d_102">
    <path clip-path="url(#p220d16174d)" d="M 153.017902 103.829351 
L 165.762303 103.829351 
L 165.762303 73.272461 
L 153.017902 73.272461 
L 153.017902 103.829351 
" style="fill:none;"/>
    <g clip-path="url(#p220d16174d)">
     <use style="fill:#bf00bf;stroke:#bf00bf;" x="153.017902" xlink:href="#m9fc488c9b7" y="103.829351"/>
     <use style="fill:#bf00bf;stroke:#bf00bf;" x="165.762303" xlink:href="#m9fc488c9b7" y="103.829351"/>
     <use style="fill:#bf00bf;stroke:#bf00bf;" x="165.762303" xlink:href="#m9fc488c9b7" y="73.272461"/>
     <use style="fill:#bf00bf;stroke:#bf00bf;" x="153.017902" xlink:href="#m9fc488c9b7" y="73.272461"/>
     <use style="fill:#bf00bf;stroke:#bf00bf;" x="153.017902" xlink:href="#m9fc488c9b7" y="103.829351"/>
    </g>
   </g>
   <g id="line2d_103">
    <path clip-path="url(#p220d16174d)" d="M 153.017902 90.010253 
L 165.762303 90.010253 
" style="fill:none;stroke:#bf00bf;stroke-linecap:square;stroke-width:2;"/>
   </g>
   <g id="line2d_104">
    <path clip-path="url(#p220d16174d)" d="M 245.702081 125.015978 
L 250.162622 122.180951 
L 245.702081 102.210682 
L 258.446483 102.210682 
L 253.985942 122.180951 
L 258.446483 125.015978 
L 245.702081 125.015978 
" style="fill:none;stroke:#bf00bf;stroke-linecap:square;"/>
   </g>
   <g id="line2d_105">
    <path clip-path="url(#p220d16174d)" d="M 245.702081 125.015978 
L 258.446483 125.015978 
L 258.446483 102.210682 
L 245.702081 102.210682 
L 245.702081 125.015978 
" style="fill:none;"/>
    <g clip-path="url(#p220d16174d)">
     <use style="fill:#bf00bf;stroke:#bf00bf;" x="245.702081" xlink:href="#m9fc488c9b7" y="125.015978"/>
     <use style="fill:#bf00bf;stroke:#bf00bf;" x="258.446483" xlink:href="#m9fc488c9b7" y="125.015978"/>
     <use style="fill:#bf00bf;stroke:#bf00bf;" x="258.446483" xlink:href="#m9fc488c9b7" y="102.210682"/>
     <use style="fill:#bf00bf;stroke:#bf00bf;" x="245.702081" xlink:href="#m9fc488c9b7" y="102.210682"/>
     <use style="fill:#bf00bf;stroke:#bf00bf;" x="245.702081" xlink:href="#m9fc488c9b7" y="125.015978"/>
    </g>
   </g>
   <g id="line2d_106">
    <path clip-path="url(#p220d16174d)" d="M 245.702081 122.180951 
L 258.446483 122.180951 
" style="fill:none;stroke:#bf00bf;stroke-linecap:square;stroke-width:2;"/>
   </g>
   <g id="line2d_107">
    <path clip-path="url(#p220d16174d)" d="M 338.386261 122.560226 
L 342.846801 119.751142 
L 338.386261 117.249525 
L 351.130662 117.249525 
L 346.670122 119.751142 
L 351.130662 122.560226 
L 338.386261 122.560226 
" style="fill:none;stroke:#bf00bf;stroke-linecap:square;"/>
   </g>
   <g id="line2d_108">
    <path clip-path="url(#p220d16174d)" d="M 338.386261 122.560226 
L 351.130662 122.560226 
L 351.130662 117.249525 
L 338.386261 117.249525 
L 338.386261 122.560226 
" style="fill:none;"/>
    <g clip-path="url(#p220d16174d)">
     <use style="fill:#bf00bf;stroke:#bf00bf;" x="338.386261" xlink:href="#m9fc488c9b7" y="122.560226"/>
     <use style="fill:#bf00bf;stroke:#bf00bf;" x="351.130662" xlink:href="#m9fc488c9b7" y="122.560226"/>
     <use style="fill:#bf00bf;stroke:#bf00bf;" x="351.130662" xlink:href="#m9fc488c9b7" y="117.249525"/>
     <use style="fill:#bf00bf;stroke:#bf00bf;" x="338.386261" xlink:href="#m9fc488c9b7" y="117.249525"/>
     <use style="fill:#bf00bf;stroke:#bf00bf;" x="338.386261" xlink:href="#m9fc488c9b7" y="122.560226"/>
    </g>
   </g>
   <g id="line2d_109">
    <path clip-path="url(#p220d16174d)" d="M 338.386261 119.751142 
L 351.130662 119.751142 
" style="fill:none;stroke:#bf00bf;stroke-linecap:square;stroke-width:2;"/>
   </g>
   <g id="line2d_110">
    <path clip-path="url(#p220d16174d)" d="M 36.868282 83.217983 
L 91.085051 91.597249 
" style="fill:none;stroke:#bf00bf;stroke-linecap:square;stroke-width:4;"/>
   </g>
   <g id="line2d_111">
    <path clip-path="url(#p220d16174d)" d="M 91.085051 91.597249 
L 159.390103 82.482057 
" style="fill:none;stroke:#bf00bf;stroke-linecap:square;stroke-width:4;"/>
   </g>
   <g id="line2d_112">
    <path clip-path="url(#p220d16174d)" d="M 159.390103 82.482057 
L 252.074282 106.956333 
" style="fill:none;stroke:#bf00bf;stroke-linecap:square;stroke-width:4;"/>
   </g>
   <g id="line2d_113">
    <path clip-path="url(#p220d16174d)" d="M 252.074282 106.956333 
L 344.758461 113.311212 
" style="fill:none;stroke:#bf00bf;stroke-linecap:square;stroke-width:4;"/>
   </g>
   <g id="line2d_114">
    <path clip-path="url(#p220d16174d)" d="M 36.868282 83.217983 
L 91.085051 91.597249 
L 159.390103 82.482057 
L 252.074282 106.956333 
L 344.758461 113.311212 
" style="fill:none;"/>
    <defs>
     <path d="M 0 5 
C 1.326016 5 2.597899 4.473168 3.535534 3.535534 
C 4.473168 2.597899 5 1.326016 5 0 
C 5 -1.326016 4.473168 -2.597899 3.535534 -3.535534 
C 2.597899 -4.473168 1.326016 -5 0 -5 
C -1.326016 -5 -2.597899 -4.473168 -3.535534 -3.535534 
C -4.473168 -2.597899 -5 -1.326016 -5 0 
C -5 1.326016 -4.473168 2.597899 -3.535534 3.535534 
C -2.597899 4.473168 -1.326016 5 0 5 
z
" id="mde40124f6d" style="stroke:#bf00bf;"/>
    </defs>
    <g clip-path="url(#p220d16174d)">
     <use style="fill:#bf00bf;stroke:#bf00bf;" x="36.868282" xlink:href="#mde40124f6d" y="83.217983"/>
     <use style="fill:#bf00bf;stroke:#bf00bf;" x="91.085051" xlink:href="#mde40124f6d" y="91.597249"/>
     <use style="fill:#bf00bf;stroke:#bf00bf;" x="159.390103" xlink:href="#mde40124f6d" y="82.482057"/>
     <use style="fill:#bf00bf;stroke:#bf00bf;" x="252.074282" xlink:href="#mde40124f6d" y="106.956333"/>
     <use style="fill:#bf00bf;stroke:#bf00bf;" x="344.758461" xlink:href="#mde40124f6d" y="113.311212"/>
    </g>
   </g>
   <g id="line2d_115">
    <path clip-path="url(#p220d16174d)" d="M 29.434048 86.755432 
L 34.638012 71.922546 
L 29.434048 64.043614 
L 44.302516 64.043614 
L 39.098552 71.922546 
L 44.302516 86.755432 
L 29.434048 86.755432 
" style="fill:none;stroke:#ff0000;stroke-linecap:square;"/>
   </g>
   <g id="line2d_116">
    <path clip-path="url(#p220d16174d)" d="M 29.434048 86.755432 
L 44.302516 86.755432 
L 44.302516 64.043614 
L 29.434048 64.043614 
L 29.434048 86.755432 
" style="fill:none;"/>
    <defs>
     <path d="M 0 3 
C 0.795609 3 1.55874 2.683901 2.12132 2.12132 
C 2.683901 1.55874 3 0.795609 3 0 
C 3 -0.795609 2.683901 -1.55874 2.12132 -2.12132 
C 1.55874 -2.683901 0.795609 -3 0 -3 
C -0.795609 -3 -1.55874 -2.683901 -2.12132 -2.12132 
C -2.683901 -1.55874 -3 -0.795609 -3 0 
C -3 0.795609 -2.683901 1.55874 -2.12132 2.12132 
C -1.55874 2.683901 -0.795609 3 0 3 
z
" id="m791ca02871" style="stroke:#ff0000;stroke-width:2;"/>
    </defs>
    <g clip-path="url(#p220d16174d)">
     <use style="fill:#ff0000;stroke:#ff0000;stroke-width:2;" x="29.434048" xlink:href="#m791ca02871" y="86.755432"/>
     <use style="fill:#ff0000;stroke:#ff0000;stroke-width:2;" x="44.302516" xlink:href="#m791ca02871" y="86.755432"/>
     <use style="fill:#ff0000;stroke:#ff0000;stroke-width:2;" x="44.302516" xlink:href="#m791ca02871" y="64.043614"/>
     <use style="fill:#ff0000;stroke:#ff0000;stroke-width:2;" x="29.434048" xlink:href="#m791ca02871" y="64.043614"/>
     <use style="fill:#ff0000;stroke:#ff0000;stroke-width:2;" x="29.434048" xlink:href="#m791ca02871" y="86.755432"/>
    </g>
   </g>
   <g id="line2d_117">
    <path clip-path="url(#p220d16174d)" d="M 29.434048 71.922546 
L 44.302516 71.922546 
" style="fill:none;stroke:#ff0000;stroke-linecap:square;stroke-width:2;"/>
   </g>
   <g id="line2d_118">
    <path clip-path="url(#p220d16174d)" d="M 83.650817 127.632182 
L 88.854781 89.808463 
L 83.650817 82.439033 
L 98.519285 82.439033 
L 93.315322 89.808463 
L 98.519285 127.632182 
L 83.650817 127.632182 
" style="fill:none;stroke:#ff0000;stroke-linecap:square;"/>
   </g>
   <g id="line2d_119">
    <path clip-path="url(#p220d16174d)" d="M 83.650817 127.632182 
L 98.519285 127.632182 
L 98.519285 82.439033 
L 83.650817 82.439033 
L 83.650817 127.632182 
" style="fill:none;"/>
    <g clip-path="url(#p220d16174d)">
     <use style="fill:#ff0000;stroke:#ff0000;stroke-width:2;" x="83.650817" xlink:href="#m791ca02871" y="127.632182"/>
     <use style="fill:#ff0000;stroke:#ff0000;stroke-width:2;" x="98.519285" xlink:href="#m791ca02871" y="127.632182"/>
     <use style="fill:#ff0000;stroke:#ff0000;stroke-width:2;" x="98.519285" xlink:href="#m791ca02871" y="82.439033"/>
     <use style="fill:#ff0000;stroke:#ff0000;stroke-width:2;" x="83.650817" xlink:href="#m791ca02871" y="82.439033"/>
     <use style="fill:#ff0000;stroke:#ff0000;stroke-width:2;" x="83.650817" xlink:href="#m791ca02871" y="127.632182"/>
    </g>
   </g>
   <g id="line2d_120">
    <path clip-path="url(#p220d16174d)" d="M 83.650817 89.808463 
L 98.519285 89.808463 
" style="fill:none;stroke:#ff0000;stroke-linecap:square;stroke-width:2;"/>
   </g>
   <g id="line2d_121">
    <path clip-path="url(#p220d16174d)" d="M 151.955869 102.289724 
L 157.159832 82.082607 
L 151.955869 70.787222 
L 166.824337 70.787222 
L 161.620373 82.082607 
L 166.824337 102.289724 
L 151.955869 102.289724 
" style="fill:none;stroke:#ff0000;stroke-linecap:square;"/>
   </g>
   <g id="line2d_122">
    <path clip-path="url(#p220d16174d)" d="M 151.955869 102.289724 
L 166.824337 102.289724 
L 166.824337 70.787222 
L 151.955869 70.787222 
L 151.955869 102.289724 
" style="fill:none;"/>
    <g clip-path="url(#p220d16174d)">
     <use style="fill:#ff0000;stroke:#ff0000;stroke-width:2;" x="151.955869" xlink:href="#m791ca02871" y="102.289724"/>
     <use style="fill:#ff0000;stroke:#ff0000;stroke-width:2;" x="166.824337" xlink:href="#m791ca02871" y="102.289724"/>
     <use style="fill:#ff0000;stroke:#ff0000;stroke-width:2;" x="166.824337" xlink:href="#m791ca02871" y="70.787222"/>
     <use style="fill:#ff0000;stroke:#ff0000;stroke-width:2;" x="151.955869" xlink:href="#m791ca02871" y="70.787222"/>
     <use style="fill:#ff0000;stroke:#ff0000;stroke-width:2;" x="151.955869" xlink:href="#m791ca02871" y="102.289724"/>
    </g>
   </g>
   <g id="line2d_123">
    <path clip-path="url(#p220d16174d)" d="M 151.955869 82.082607 
L 166.824337 82.082607 
" style="fill:none;stroke:#ff0000;stroke-linecap:square;stroke-width:2;"/>
   </g>
   <g id="line2d_124">
    <path clip-path="url(#p220d16174d)" d="M 244.640048 117.47761 
L 249.844012 95.66039 
L 244.640048 86.293589 
L 259.508516 86.293589 
L 254.304552 95.66039 
L 259.508516 117.47761 
L 244.640048 117.47761 
" style="fill:none;stroke:#ff0000;stroke-linecap:square;"/>
   </g>
   <g id="line2d_125">
    <path clip-path="url(#p220d16174d)" d="M 244.640048 117.47761 
L 259.508516 117.47761 
L 259.508516 86.293589 
L 244.640048 86.293589 
L 244.640048 117.47761 
" style="fill:none;"/>
    <g clip-path="url(#p220d16174d)">
     <use style="fill:#ff0000;stroke:#ff0000;stroke-width:2;" x="244.640048" xlink:href="#m791ca02871" y="117.47761"/>
     <use style="fill:#ff0000;stroke:#ff0000;stroke-width:2;" x="259.508516" xlink:href="#m791ca02871" y="117.47761"/>
     <use style="fill:#ff0000;stroke:#ff0000;stroke-width:2;" x="259.508516" xlink:href="#m791ca02871" y="86.293589"/>
     <use style="fill:#ff0000;stroke:#ff0000;stroke-width:2;" x="244.640048" xlink:href="#m791ca02871" y="86.293589"/>
     <use style="fill:#ff0000;stroke:#ff0000;stroke-width:2;" x="244.640048" xlink:href="#m791ca02871" y="117.47761"/>
    </g>
   </g>
   <g id="line2d_126">
    <path clip-path="url(#p220d16174d)" d="M 244.640048 95.66039 
L 259.508516 95.66039 
" style="fill:none;stroke:#ff0000;stroke-linecap:square;stroke-width:2;"/>
   </g>
   <g id="line2d_127">
    <path clip-path="url(#p220d16174d)" d="M 337.324227 119.926836 
L 342.528191 106.999607 
L 337.324227 99.094487 
L 352.192695 99.094487 
L 346.988732 106.999607 
L 352.192695 119.926836 
L 337.324227 119.926836 
" style="fill:none;stroke:#ff0000;stroke-linecap:square;"/>
   </g>
   <g id="line2d_128">
    <path clip-path="url(#p220d16174d)" d="M 337.324227 119.926836 
L 352.192695 119.926836 
L 352.192695 99.094487 
L 337.324227 99.094487 
L 337.324227 119.926836 
" style="fill:none;"/>
    <g clip-path="url(#p220d16174d)">
     <use style="fill:#ff0000;stroke:#ff0000;stroke-width:2;" x="337.324227" xlink:href="#m791ca02871" y="119.926836"/>
     <use style="fill:#ff0000;stroke:#ff0000;stroke-width:2;" x="352.192695" xlink:href="#m791ca02871" y="119.926836"/>
     <use style="fill:#ff0000;stroke:#ff0000;stroke-width:2;" x="352.192695" xlink:href="#m791ca02871" y="99.094487"/>
     <use style="fill:#ff0000;stroke:#ff0000;stroke-width:2;" x="337.324227" xlink:href="#m791ca02871" y="99.094487"/>
     <use style="fill:#ff0000;stroke:#ff0000;stroke-width:2;" x="337.324227" xlink:href="#m791ca02871" y="119.926836"/>
    </g>
   </g>
   <g id="line2d_129">
    <path clip-path="url(#p220d16174d)" d="M 337.324227 106.999607 
L 352.192695 106.999607 
" style="fill:none;stroke:#ff0000;stroke-linecap:square;stroke-width:2;"/>
   </g>
   <g id="line2d_130">
    <path clip-path="url(#p220d16174d)" d="M 36.868282 68.88135 
L 91.085051 90.928991 
" style="fill:none;stroke:#ff0000;stroke-linecap:square;stroke-width:4;"/>
   </g>
   <g id="line2d_131">
    <path clip-path="url(#p220d16174d)" d="M 91.085051 90.928991 
L 159.390103 68.826628 
" style="fill:none;stroke:#ff0000;stroke-linecap:square;stroke-width:4;"/>
   </g>
   <g id="line2d_132">
    <path clip-path="url(#p220d16174d)" d="M 159.390103 68.826628 
L 252.074282 89.747679 
" style="fill:none;stroke:#ff0000;stroke-linecap:square;stroke-width:4;"/>
   </g>
   <g id="line2d_133">
    <path clip-path="url(#p220d16174d)" d="M 252.074282 89.747679 
L 344.758461 100.653751 
" style="fill:none;stroke:#ff0000;stroke-linecap:square;stroke-width:4;"/>
   </g>
   <g id="line2d_134">
    <path clip-path="url(#p220d16174d)" d="M 36.868282 68.88135 
L 91.085051 90.928991 
L 159.390103 68.826628 
L 252.074282 89.747679 
L 344.758461 100.653751 
" style="fill:none;"/>
    <defs>
     <path d="M 0 10 
C 2.652031 10 5.195799 8.946337 7.071068 7.071068 
C 8.946337 5.195799 10 2.652031 10 0 
C 10 -2.652031 8.946337 -5.195799 7.071068 -7.071068 
C 5.195799 -8.946337 2.652031 -10 0 -10 
C -2.652031 -10 -5.195799 -8.946337 -7.071068 -7.071068 
C -8.946337 -5.195799 -10 -2.652031 -10 0 
C -10 2.652031 -8.946337 5.195799 -7.071068 7.071068 
C -5.195799 8.946337 -2.652031 10 0 10 
z
" id="m9e84865092" style="stroke:#000000;stroke-width:2;"/>
    </defs>
    <g clip-path="url(#p220d16174d)">
     <use style="fill:#ff0000;stroke:#000000;stroke-width:2;" x="36.868282" xlink:href="#m9e84865092" y="68.88135"/>
     <use style="fill:#ff0000;stroke:#000000;stroke-width:2;" x="91.085051" xlink:href="#m9e84865092" y="90.928991"/>
     <use style="fill:#ff0000;stroke:#000000;stroke-width:2;" x="159.390103" xlink:href="#m9e84865092" y="68.826628"/>
     <use style="fill:#ff0000;stroke:#000000;stroke-width:2;" x="252.074282" xlink:href="#m9e84865092" y="89.747679"/>
     <use style="fill:#ff0000;stroke:#000000;stroke-width:2;" x="344.758461" xlink:href="#m9e84865092" y="100.653751"/>
    </g>
   </g>
   <g id="line2d_135"/>
   <g id="line2d_136"/>
   <g id="line2d_137"/>
   <g id="line2d_138"/>
   <g id="line2d_139"/>
   <g id="line2d_140">
    <defs>
     <path d="M -10 10 
L 10 -10 
M -10 -10 
L 10 10 
" id="mbad6602f65" style="stroke:#ff0000;"/>
    </defs>
    <g clip-path="url(#p220d16174d)">
     <use style="fill:#ff0000;stroke:#ff0000;" x="36.868282" xlink:href="#mbad6602f65" y="107.642235"/>
     <use style="fill:#ff0000;stroke:#ff0000;" x="91.085051" xlink:href="#mbad6602f65" y="107.642235"/>
     <use style="fill:#ff0000;stroke:#ff0000;" x="159.390103" xlink:href="#mbad6602f65" y="107.642235"/>
     <use style="fill:#ff0000;stroke:#ff0000;" x="252.074282" xlink:href="#mbad6602f65" y="107.642235"/>
     <use style="fill:#ff0000;stroke:#ff0000;" x="344.758461" xlink:href="#mbad6602f65" y="107.642235"/>
    </g>
   </g>
   <g id="line2d_141">
    <path clip-path="url(#p220d16174d)" d="M 43.10055 346.6 
L 461.8 292.256941 
" style="fill:none;stroke:#000000;stroke-dasharray:0.5,0.825;stroke-dashoffset:0;stroke-width:0.5;"/>
   </g>
   <g id="line2d_142">
    <path clip-path="url(#p220d16174d)" d="M -1 272.401599 
L 461.8 212.334723 
" style="fill:none;stroke:#000000;stroke-dasharray:0.5,0.825;stroke-dashoffset:0;stroke-width:0.5;"/>
   </g>
   <g id="line2d_143">
    <path clip-path="url(#p220d16174d)" d="M -1 192.479382 
L 461.8 132.412506 
" style="fill:none;stroke:#000000;stroke-dasharray:0.5,0.825;stroke-dashoffset:0;stroke-width:0.5;"/>
   </g>
   <g id="line2d_144">
    <path clip-path="url(#p220d16174d)" d="M -1 112.557164 
L 461.8 52.490289 
" style="fill:none;stroke:#000000;stroke-dasharray:0.5,0.825;stroke-dashoffset:0;stroke-width:0.5;"/>
   </g>
   <g id="line2d_145">
    <path clip-path="url(#p220d16174d)" d="M -1 32.634947 
L 258.148711 -1 
" style="fill:none;stroke:#000000;stroke-dasharray:0.5,0.825;stroke-dashoffset:0;stroke-width:0.5;"/>
   </g>
   <g id="patch_3">
    <path d="M 22.78 315.44 
L 22.78 27.72 
" style="fill:none;stroke:#000000;stroke-linecap:square;stroke-linejoin:miter;stroke-width:0.8;"/>
   </g>
   <g id="patch_4">
    <path d="M 453.192 315.44 
L 453.192 27.72 
" style="fill:none;stroke:#000000;stroke-linecap:square;stroke-linejoin:miter;stroke-width:0.8;"/>
   </g>
   <g id="patch_5">
    <path d="M 22.78 315.44 
L 453.192 315.44 
" style="fill:none;stroke:#000000;stroke-linecap:square;stroke-linejoin:miter;stroke-width:0.8;"/>
   </g>
   <g id="patch_6">
    <path d="M 22.78 27.72 
L 453.192 27.72 
" style="fill:none;stroke:#000000;stroke-linecap:square;stroke-linejoin:miter;stroke-width:0.8;"/>
   </g>
   <g id="text_15">
    <!-- 1 -->
    <g transform="translate(31.460157 58.30908)scale(0.17 -0.17)">
     <use xlink:href="#DejaVuSans-49"/>
    </g>
   </g>
   <g id="text_16">
    <!-- 3 -->
    <g transform="translate(85.676926 80.35672)scale(0.17 -0.17)">
     <use xlink:href="#DejaVuSans-51"/>
    </g>
   </g>
   <g id="text_17">
    <!-- 1 -->
    <g transform="translate(153.981978 58.254357)scale(0.17 -0.17)">
     <use xlink:href="#DejaVuSans-49"/>
    </g>
   </g>
   <g id="text_18">
    <!-- 3 -->
    <g transform="translate(246.666157 79.175408)scale(0.17 -0.17)">
     <use xlink:href="#DejaVuSans-51"/>
    </g>
   </g>
   <g id="text_19">
    <!-- 5 -->
    <g transform="translate(339.350336 90.081481)scale(0.17 -0.17)">
     <use xlink:href="#DejaVuSans-53"/>
    </g>
   </g>
   <g id="text_20">
    <!-- 10 instances -->
    <g transform="translate(22.78 296.8515)scale(0.14 -0.14)">
     <defs>
      <path id="DejaVuSans-32"/>
      <path d="M 9.421875 54.6875 
L 18.40625 54.6875 
L 18.40625 0 
L 9.421875 0 
z
M 9.421875 75.984375 
L 18.40625 75.984375 
L 18.40625 64.59375 
L 9.421875 64.59375 
z
" id="DejaVuSans-105"/>
      <path d="M 54.890625 33.015625 
L 54.890625 0 
L 45.90625 0 
L 45.90625 32.71875 
Q 45.90625 40.484375 42.875 44.328125 
Q 39.84375 48.1875 33.796875 48.1875 
Q 26.515625 48.1875 22.3125 43.546875 
Q 18.109375 38.921875 18.109375 30.90625 
L 18.109375 0 
L 9.078125 0 
L 9.078125 54.6875 
L 18.109375 54.6875 
L 18.109375 46.1875 
Q 21.34375 51.125 25.703125 53.5625 
Q 30.078125 56 35.796875 56 
Q 45.21875 56 50.046875 50.171875 
Q 54.890625 44.34375 54.890625 33.015625 
z
" id="DejaVuSans-110"/>
      <path d="M 44.28125 53.078125 
L 44.28125 44.578125 
Q 40.484375 46.53125 36.375 47.5 
Q 32.28125 48.484375 27.875 48.484375 
Q 21.1875 48.484375 17.84375 46.4375 
Q 14.5 44.390625 14.5 40.28125 
Q 14.5 37.15625 16.890625 35.375 
Q 19.28125 33.59375 26.515625 31.984375 
L 29.59375 31.296875 
Q 39.15625 29.25 43.1875 25.515625 
Q 47.21875 21.78125 47.21875 15.09375 
Q 47.21875 7.46875 41.1875 3.015625 
Q 35.15625 -1.421875 24.609375 -1.421875 
Q 20.21875 -1.421875 15.453125 -0.5625 
Q 10.6875 0.296875 5.421875 2 
L 5.421875 11.28125 
Q 10.40625 8.6875 15.234375 7.390625 
Q 20.0625 6.109375 24.8125 6.109375 
Q 31.15625 6.109375 34.5625 8.28125 
Q 37.984375 10.453125 37.984375 14.40625 
Q 37.984375 18.0625 35.515625 20.015625 
Q 33.0625 21.96875 24.703125 23.78125 
L 21.578125 24.515625 
Q 13.234375 26.265625 9.515625 29.90625 
Q 5.8125 33.546875 5.8125 39.890625 
Q 5.8125 47.609375 11.28125 51.796875 
Q 16.75 56 26.8125 56 
Q 31.78125 56 36.171875 55.265625 
Q 40.578125 54.546875 44.28125 53.078125 
z
" id="DejaVuSans-115"/>
      <path d="M 18.3125 70.21875 
L 18.3125 54.6875 
L 36.8125 54.6875 
L 36.8125 47.703125 
L 18.3125 47.703125 
L 18.3125 18.015625 
Q 18.3125 11.328125 20.140625 9.421875 
Q 21.96875 7.515625 27.59375 7.515625 
L 36.8125 7.515625 
L 36.8125 0 
L 27.59375 0 
Q 17.1875 0 13.234375 3.875 
Q 9.28125 7.765625 9.28125 18.015625 
L 9.28125 47.703125 
L 2.6875 47.703125 
L 2.6875 54.6875 
L 9.28125 54.6875 
L 9.28125 70.21875 
z
" id="DejaVuSans-116"/>
      <path d="M 34.28125 27.484375 
Q 23.390625 27.484375 19.1875 25 
Q 14.984375 22.515625 14.984375 16.5 
Q 14.984375 11.71875 18.140625 8.90625 
Q 21.296875 6.109375 26.703125 6.109375 
Q 34.1875 6.109375 38.703125 11.40625 
Q 43.21875 16.703125 43.21875 25.484375 
L 43.21875 27.484375 
z
M 52.203125 31.203125 
L 52.203125 0 
L 43.21875 0 
L 43.21875 8.296875 
Q 40.140625 3.328125 35.546875 0.953125 
Q 30.953125 -1.421875 24.3125 -1.421875 
Q 15.921875 -1.421875 10.953125 3.296875 
Q 6 8.015625 6 15.921875 
Q 6 25.140625 12.171875 29.828125 
Q 18.359375 34.515625 30.609375 34.515625 
L 43.21875 34.515625 
L 43.21875 35.40625 
Q 43.21875 41.609375 39.140625 45 
Q 35.0625 48.390625 27.6875 48.390625 
Q 23 48.390625 18.546875 47.265625 
Q 14.109375 46.140625 10.015625 43.890625 
L 10.015625 52.203125 
Q 14.9375 54.109375 19.578125 55.046875 
Q 24.21875 56 28.609375 56 
Q 40.484375 56 46.34375 49.84375 
Q 52.203125 43.703125 52.203125 31.203125 
z
" id="DejaVuSans-97"/>
      <path d="M 48.78125 52.59375 
L 48.78125 44.1875 
Q 44.96875 46.296875 41.140625 47.34375 
Q 37.3125 48.390625 33.40625 48.390625 
Q 24.65625 48.390625 19.8125 42.84375 
Q 14.984375 37.3125 14.984375 27.296875 
Q 14.984375 17.28125 19.8125 11.734375 
Q 24.65625 6.203125 33.40625 6.203125 
Q 37.3125 6.203125 41.140625 7.25 
Q 44.96875 8.296875 48.78125 10.40625 
L 48.78125 2.09375 
Q 45.015625 0.34375 40.984375 -0.53125 
Q 36.96875 -1.421875 32.421875 -1.421875 
Q 20.0625 -1.421875 12.78125 6.34375 
Q 5.515625 14.109375 5.515625 27.296875 
Q 5.515625 40.671875 12.859375 48.328125 
Q 20.21875 56 33.015625 56 
Q 37.15625 56 41.109375 55.140625 
Q 45.0625 54.296875 48.78125 52.59375 
z
" id="DejaVuSans-99"/>
      <path d="M 56.203125 29.59375 
L 56.203125 25.203125 
L 14.890625 25.203125 
Q 15.484375 15.921875 20.484375 11.0625 
Q 25.484375 6.203125 34.421875 6.203125 
Q 39.59375 6.203125 44.453125 7.46875 
Q 49.3125 8.734375 54.109375 11.28125 
L 54.109375 2.78125 
Q 49.265625 0.734375 44.1875 -0.34375 
Q 39.109375 -1.421875 33.890625 -1.421875 
Q 20.796875 -1.421875 13.15625 6.1875 
Q 5.515625 13.8125 5.515625 26.8125 
Q 5.515625 40.234375 12.765625 48.109375 
Q 20.015625 56 32.328125 56 
Q 43.359375 56 49.78125 48.890625 
Q 56.203125 41.796875 56.203125 29.59375 
z
M 47.21875 32.234375 
Q 47.125 39.59375 43.09375 43.984375 
Q 39.0625 48.390625 32.421875 48.390625 
Q 24.90625 48.390625 20.390625 44.140625 
Q 15.875 39.890625 15.1875 32.171875 
z
" id="DejaVuSans-101"/>
     </defs>
     <use xlink:href="#DejaVuSans-49"/>
     <use x="63.623047" xlink:href="#DejaVuSans-48"/>
     <use x="127.246094" xlink:href="#DejaVuSans-32"/>
     <use x="159.033203" xlink:href="#DejaVuSans-105"/>
     <use x="186.816406" xlink:href="#DejaVuSans-110"/>
     <use x="250.195312" xlink:href="#DejaVuSans-115"/>
     <use x="302.294922" xlink:href="#DejaVuSans-116"/>
     <use x="341.503906" xlink:href="#DejaVuSans-97"/>
     <use x="402.783203" xlink:href="#DejaVuSans-110"/>
     <use x="466.162109" xlink:href="#DejaVuSans-99"/>
     <use x="521.142578" xlink:href="#DejaVuSans-101"/>
     <use x="582.666016" xlink:href="#DejaVuSans-115"/>
    </g>
    <!-- absolute targets -->
    <g transform="translate(22.78 312.528437)scale(0.14 -0.14)">
     <defs>
      <path d="M 48.6875 27.296875 
Q 48.6875 37.203125 44.609375 42.84375 
Q 40.53125 48.484375 33.40625 48.484375 
Q 26.265625 48.484375 22.1875 42.84375 
Q 18.109375 37.203125 18.109375 27.296875 
Q 18.109375 17.390625 22.1875 11.75 
Q 26.265625 6.109375 33.40625 6.109375 
Q 40.53125 6.109375 44.609375 11.75 
Q 48.6875 17.390625 48.6875 27.296875 
z
M 18.109375 46.390625 
Q 20.953125 51.265625 25.265625 53.625 
Q 29.59375 56 35.59375 56 
Q 45.5625 56 51.78125 48.09375 
Q 58.015625 40.1875 58.015625 27.296875 
Q 58.015625 14.40625 51.78125 6.484375 
Q 45.5625 -1.421875 35.59375 -1.421875 
Q 29.59375 -1.421875 25.265625 0.953125 
Q 20.953125 3.328125 18.109375 8.203125 
L 18.109375 0 
L 9.078125 0 
L 9.078125 75.984375 
L 18.109375 75.984375 
z
" id="DejaVuSans-98"/>
      <path d="M 30.609375 48.390625 
Q 23.390625 48.390625 19.1875 42.75 
Q 14.984375 37.109375 14.984375 27.296875 
Q 14.984375 17.484375 19.15625 11.84375 
Q 23.34375 6.203125 30.609375 6.203125 
Q 37.796875 6.203125 41.984375 11.859375 
Q 46.1875 17.53125 46.1875 27.296875 
Q 46.1875 37.015625 41.984375 42.703125 
Q 37.796875 48.390625 30.609375 48.390625 
z
M 30.609375 56 
Q 42.328125 56 49.015625 48.375 
Q 55.71875 40.765625 55.71875 27.296875 
Q 55.71875 13.875 49.015625 6.21875 
Q 42.328125 -1.421875 30.609375 -1.421875 
Q 18.84375 -1.421875 12.171875 6.21875 
Q 5.515625 13.875 5.515625 27.296875 
Q 5.515625 40.765625 12.171875 48.375 
Q 18.84375 56 30.609375 56 
z
" id="DejaVuSans-111"/>
      <path d="M 9.421875 75.984375 
L 18.40625 75.984375 
L 18.40625 0 
L 9.421875 0 
z
" id="DejaVuSans-108"/>
      <path d="M 8.5 21.578125 
L 8.5 54.6875 
L 17.484375 54.6875 
L 17.484375 21.921875 
Q 17.484375 14.15625 20.5 10.265625 
Q 23.53125 6.390625 29.59375 6.390625 
Q 36.859375 6.390625 41.078125 11.03125 
Q 45.3125 15.671875 45.3125 23.6875 
L 45.3125 54.6875 
L 54.296875 54.6875 
L 54.296875 0 
L 45.3125 0 
L 45.3125 8.40625 
Q 42.046875 3.421875 37.71875 1 
Q 33.40625 -1.421875 27.6875 -1.421875 
Q 18.265625 -1.421875 13.375 4.4375 
Q 8.5 10.296875 8.5 21.578125 
z
M 31.109375 56 
z
" id="DejaVuSans-117"/>
      <path d="M 41.109375 46.296875 
Q 39.59375 47.171875 37.8125 47.578125 
Q 36.03125 48 33.890625 48 
Q 26.265625 48 22.1875 43.046875 
Q 18.109375 38.09375 18.109375 28.8125 
L 18.109375 0 
L 9.078125 0 
L 9.078125 54.6875 
L 18.109375 54.6875 
L 18.109375 46.1875 
Q 20.953125 51.171875 25.484375 53.578125 
Q 30.03125 56 36.53125 56 
Q 37.453125 56 38.578125 55.875 
Q 39.703125 55.765625 41.0625 55.515625 
z
" id="DejaVuSans-114"/>
      <path d="M 45.40625 27.984375 
Q 45.40625 37.75 41.375 43.109375 
Q 37.359375 48.484375 30.078125 48.484375 
Q 22.859375 48.484375 18.828125 43.109375 
Q 14.796875 37.75 14.796875 27.984375 
Q 14.796875 18.265625 18.828125 12.890625 
Q 22.859375 7.515625 30.078125 7.515625 
Q 37.359375 7.515625 41.375 12.890625 
Q 45.40625 18.265625 45.40625 27.984375 
z
M 54.390625 6.78125 
Q 54.390625 -7.171875 48.1875 -13.984375 
Q 42 -20.796875 29.203125 -20.796875 
Q 24.46875 -20.796875 20.265625 -20.09375 
Q 16.0625 -19.390625 12.109375 -17.921875 
L 12.109375 -9.1875 
Q 16.0625 -11.328125 19.921875 -12.34375 
Q 23.78125 -13.375 27.78125 -13.375 
Q 36.625 -13.375 41.015625 -8.765625 
Q 45.40625 -4.15625 45.40625 5.171875 
L 45.40625 9.625 
Q 42.625 4.78125 38.28125 2.390625 
Q 33.9375 0 27.875 0 
Q 17.828125 0 11.671875 7.65625 
Q 5.515625 15.328125 5.515625 27.984375 
Q 5.515625 40.671875 11.671875 48.328125 
Q 17.828125 56 27.875 56 
Q 33.9375 56 38.28125 53.609375 
Q 42.625 51.21875 45.40625 46.390625 
L 45.40625 54.6875 
L 54.390625 54.6875 
z
" id="DejaVuSans-103"/>
     </defs>
     <use xlink:href="#DejaVuSans-97"/>
     <use x="61.279297" xlink:href="#DejaVuSans-98"/>
     <use x="124.755859" xlink:href="#DejaVuSans-115"/>
     <use x="176.855469" xlink:href="#DejaVuSans-111"/>
     <use x="238.037109" xlink:href="#DejaVuSans-108"/>
     <use x="265.820312" xlink:href="#DejaVuSans-117"/>
     <use x="329.199219" xlink:href="#DejaVuSans-116"/>
     <use x="368.408203" xlink:href="#DejaVuSans-101"/>
     <use x="429.931641" xlink:href="#DejaVuSans-32"/>
     <use x="461.71875" xlink:href="#DejaVuSans-116"/>
     <use x="500.927734" xlink:href="#DejaVuSans-97"/>
     <use x="562.207031" xlink:href="#DejaVuSans-114"/>
     <use x="601.570312" xlink:href="#DejaVuSans-103"/>
     <use x="665.046875" xlink:href="#DejaVuSans-101"/>
     <use x="726.570312" xlink:href="#DejaVuSans-116"/>
     <use x="765.779297" xlink:href="#DejaVuSans-115"/>
    </g>
   </g>
   <g id="text_21">
    <!-- v2.4, hv-hash=ff0e71e8cd978373 -->
    <g style="fill:#808080;" transform="translate(152.490688 310.483113)scale(0.1 -0.1)">
     <defs>
      <path d="M 2.984375 54.6875 
L 12.5 54.6875 
L 29.59375 8.796875 
L 46.6875 54.6875 
L 56.203125 54.6875 
L 35.6875 0 
L 23.484375 0 
z
" id="DejaVuSans-118"/>
      <path d="M 10.6875 12.40625 
L 21 12.40625 
L 21 0 
L 10.6875 0 
z
" id="DejaVuSans-46"/>
      <path d="M 11.71875 12.40625 
L 22.015625 12.40625 
L 22.015625 4 
L 14.015625 -11.625 
L 7.71875 -11.625 
L 11.71875 4 
z
" id="DejaVuSans-44"/>
      <path d="M 54.890625 33.015625 
L 54.890625 0 
L 45.90625 0 
L 45.90625 32.71875 
Q 45.90625 40.484375 42.875 44.328125 
Q 39.84375 48.1875 33.796875 48.1875 
Q 26.515625 48.1875 22.3125 43.546875 
Q 18.109375 38.921875 18.109375 30.90625 
L 18.109375 0 
L 9.078125 0 
L 9.078125 75.984375 
L 18.109375 75.984375 
L 18.109375 46.1875 
Q 21.34375 51.125 25.703125 53.5625 
Q 30.078125 56 35.796875 56 
Q 45.21875 56 50.046875 50.171875 
Q 54.890625 44.34375 54.890625 33.015625 
z
" id="DejaVuSans-104"/>
      <path d="M 4.890625 31.390625 
L 31.203125 31.390625 
L 31.203125 23.390625 
L 4.890625 23.390625 
z
" id="DejaVuSans-45"/>
      <path d="M 10.59375 45.40625 
L 73.1875 45.40625 
L 73.1875 37.203125 
L 10.59375 37.203125 
z
M 10.59375 25.484375 
L 73.1875 25.484375 
L 73.1875 17.1875 
L 10.59375 17.1875 
z
" id="DejaVuSans-61"/>
      <path d="M 37.109375 75.984375 
L 37.109375 68.5 
L 28.515625 68.5 
Q 23.6875 68.5 21.796875 66.546875 
Q 19.921875 64.59375 19.921875 59.515625 
L 19.921875 54.6875 
L 34.71875 54.6875 
L 34.71875 47.703125 
L 19.921875 47.703125 
L 19.921875 0 
L 10.890625 0 
L 10.890625 47.703125 
L 2.296875 47.703125 
L 2.296875 54.6875 
L 10.890625 54.6875 
L 10.890625 58.5 
Q 10.890625 67.625 15.140625 71.796875 
Q 19.390625 75.984375 28.609375 75.984375 
z
" id="DejaVuSans-102"/>
      <path d="M 31.78125 34.625 
Q 24.75 34.625 20.71875 30.859375 
Q 16.703125 27.09375 16.703125 20.515625 
Q 16.703125 13.921875 20.71875 10.15625 
Q 24.75 6.390625 31.78125 6.390625 
Q 38.8125 6.390625 42.859375 10.171875 
Q 46.921875 13.96875 46.921875 20.515625 
Q 46.921875 27.09375 42.890625 30.859375 
Q 38.875 34.625 31.78125 34.625 
z
M 21.921875 38.8125 
Q 15.578125 40.375 12.03125 44.71875 
Q 8.5 49.078125 8.5 55.328125 
Q 8.5 64.0625 14.71875 69.140625 
Q 20.953125 74.21875 31.78125 74.21875 
Q 42.671875 74.21875 48.875 69.140625 
Q 55.078125 64.0625 55.078125 55.328125 
Q 55.078125 49.078125 51.53125 44.71875 
Q 48 40.375 41.703125 38.8125 
Q 48.828125 37.15625 52.796875 32.3125 
Q 56.78125 27.484375 56.78125 20.515625 
Q 56.78125 9.90625 50.3125 4.234375 
Q 43.84375 -1.421875 31.78125 -1.421875 
Q 19.734375 -1.421875 13.25 4.234375 
Q 6.78125 9.90625 6.78125 20.515625 
Q 6.78125 27.484375 10.78125 32.3125 
Q 14.796875 37.15625 21.921875 38.8125 
z
M 18.3125 54.390625 
Q 18.3125 48.734375 21.84375 45.5625 
Q 25.390625 42.390625 31.78125 42.390625 
Q 38.140625 42.390625 41.71875 45.5625 
Q 45.3125 48.734375 45.3125 54.390625 
Q 45.3125 60.0625 41.71875 63.234375 
Q 38.140625 66.40625 31.78125 66.40625 
Q 25.390625 66.40625 21.84375 63.234375 
Q 18.3125 60.0625 18.3125 54.390625 
z
" id="DejaVuSans-56"/>
      <path d="M 45.40625 46.390625 
L 45.40625 75.984375 
L 54.390625 75.984375 
L 54.390625 0 
L 45.40625 0 
L 45.40625 8.203125 
Q 42.578125 3.328125 38.25 0.953125 
Q 33.9375 -1.421875 27.875 -1.421875 
Q 17.96875 -1.421875 11.734375 6.484375 
Q 5.515625 14.40625 5.515625 27.296875 
Q 5.515625 40.1875 11.734375 48.09375 
Q 17.96875 56 27.875 56 
Q 33.9375 56 38.25 53.625 
Q 42.578125 51.265625 45.40625 46.390625 
z
M 14.796875 27.296875 
Q 14.796875 17.390625 18.875 11.75 
Q 22.953125 6.109375 30.078125 6.109375 
Q 37.203125 6.109375 41.296875 11.75 
Q 45.40625 17.390625 45.40625 27.296875 
Q 45.40625 37.203125 41.296875 42.84375 
Q 37.203125 48.484375 30.078125 48.484375 
Q 22.953125 48.484375 18.875 42.84375 
Q 14.796875 37.203125 14.796875 27.296875 
z
" id="DejaVuSans-100"/>
      <path d="M 10.984375 1.515625 
L 10.984375 10.5 
Q 14.703125 8.734375 18.5 7.8125 
Q 22.3125 6.890625 25.984375 6.890625 
Q 35.75 6.890625 40.890625 13.453125 
Q 46.046875 20.015625 46.78125 33.40625 
Q 43.953125 29.203125 39.59375 26.953125 
Q 35.25 24.703125 29.984375 24.703125 
Q 19.046875 24.703125 12.671875 31.3125 
Q 6.296875 37.9375 6.296875 49.421875 
Q 6.296875 60.640625 12.9375 67.421875 
Q 19.578125 74.21875 30.609375 74.21875 
Q 43.265625 74.21875 49.921875 64.515625 
Q 56.59375 54.828125 56.59375 36.375 
Q 56.59375 19.140625 48.40625 8.859375 
Q 40.234375 -1.421875 26.421875 -1.421875 
Q 22.703125 -1.421875 18.890625 -0.6875 
Q 15.09375 0.046875 10.984375 1.515625 
z
M 30.609375 32.421875 
Q 37.25 32.421875 41.125 36.953125 
Q 45.015625 41.5 45.015625 49.421875 
Q 45.015625 57.28125 41.125 61.84375 
Q 37.25 66.40625 30.609375 66.40625 
Q 23.96875 66.40625 20.09375 61.84375 
Q 16.21875 57.28125 16.21875 49.421875 
Q 16.21875 41.5 20.09375 36.953125 
Q 23.96875 32.421875 30.609375 32.421875 
z
" id="DejaVuSans-57"/>
     </defs>
     <use xlink:href="#DejaVuSans-118"/>
     <use x="59.179688" xlink:href="#DejaVuSans-50"/>
     <use x="122.802734" xlink:href="#DejaVuSans-46"/>
     <use x="154.589844" xlink:href="#DejaVuSans-52"/>
     <use x="218.212891" xlink:href="#DejaVuSans-44"/>
     <use x="250" xlink:href="#DejaVuSans-32"/>
     <use x="281.787109" xlink:href="#DejaVuSans-104"/>
     <use x="345.166016" xlink:href="#DejaVuSans-118"/>
     <use x="401.720703" xlink:href="#DejaVuSans-45"/>
     <use x="437.804688" xlink:href="#DejaVuSans-104"/>
     <use x="501.183594" xlink:href="#DejaVuSans-97"/>
     <use x="562.462891" xlink:href="#DejaVuSans-115"/>
     <use x="614.5625" xlink:href="#DejaVuSans-104"/>
     <use x="677.941406" xlink:href="#DejaVuSans-61"/>
     <use x="761.730469" xlink:href="#DejaVuSans-102"/>
     <use x="796.935547" xlink:href="#DejaVuSans-102"/>
     <use x="832.140625" xlink:href="#DejaVuSans-48"/>
     <use x="895.763672" xlink:href="#DejaVuSans-101"/>
     <use x="957.287109" xlink:href="#DejaVuSans-55"/>
     <use x="1020.910156" xlink:href="#DejaVuSans-49"/>
     <use x="1084.533203" xlink:href="#DejaVuSans-101"/>
     <use x="1146.056641" xlink:href="#DejaVuSans-56"/>
     <use x="1209.679688" xlink:href="#DejaVuSans-99"/>
     <use x="1264.660156" xlink:href="#DejaVuSans-100"/>
     <use x="1328.136719" xlink:href="#DejaVuSans-57"/>
     <use x="1391.759766" xlink:href="#DejaVuSans-55"/>
     <use x="1455.382812" xlink:href="#DejaVuSans-56"/>
     <use x="1519.005859" xlink:href="#DejaVuSans-51"/>
     <use x="1582.628906" xlink:href="#DejaVuSans-55"/>
     <use x="1646.251953" xlink:href="#DejaVuSans-51"/>
    </g>
   </g>
   <g id="text_22">
    <!-- 35 Sharp ridge/Sharp ridge -->
    <g transform="translate(75.20225 21.72)scale(0.24 -0.24)">
     <defs>
      <path d="M 53.515625 70.515625 
L 53.515625 60.890625 
Q 47.90625 63.578125 42.921875 64.890625 
Q 37.9375 66.21875 33.296875 66.21875 
Q 25.25 66.21875 20.875 63.09375 
Q 16.5 59.96875 16.5 54.203125 
Q 16.5 49.359375 19.40625 46.890625 
Q 22.3125 44.4375 30.421875 42.921875 
L 36.375 41.703125 
Q 47.40625 39.59375 52.65625 34.296875 
Q 57.90625 29 57.90625 20.125 
Q 57.90625 9.515625 50.796875 4.046875 
Q 43.703125 -1.421875 29.984375 -1.421875 
Q 24.8125 -1.421875 18.96875 -0.25 
Q 13.140625 0.921875 6.890625 3.21875 
L 6.890625 13.375 
Q 12.890625 10.015625 18.65625 8.296875 
Q 24.421875 6.59375 29.984375 6.59375 
Q 38.421875 6.59375 43.015625 9.90625 
Q 47.609375 13.234375 47.609375 19.390625 
Q 47.609375 24.75 44.3125 27.78125 
Q 41.015625 30.8125 33.5 32.328125 
L 27.484375 33.5 
Q 16.453125 35.6875 11.515625 40.375 
Q 6.59375 45.0625 6.59375 53.421875 
Q 6.59375 63.09375 13.40625 68.65625 
Q 20.21875 74.21875 32.171875 74.21875 
Q 37.3125 74.21875 42.625 73.28125 
Q 47.953125 72.359375 53.515625 70.515625 
z
" id="DejaVuSans-83"/>
      <path d="M 18.109375 8.203125 
L 18.109375 -20.796875 
L 9.078125 -20.796875 
L 9.078125 54.6875 
L 18.109375 54.6875 
L 18.109375 46.390625 
Q 20.953125 51.265625 25.265625 53.625 
Q 29.59375 56 35.59375 56 
Q 45.5625 56 51.78125 48.09375 
Q 58.015625 40.1875 58.015625 27.296875 
Q 58.015625 14.40625 51.78125 6.484375 
Q 45.5625 -1.421875 35.59375 -1.421875 
Q 29.59375 -1.421875 25.265625 0.953125 
Q 20.953125 3.328125 18.109375 8.203125 
z
M 48.6875 27.296875 
Q 48.6875 37.203125 44.609375 42.84375 
Q 40.53125 48.484375 33.40625 48.484375 
Q 26.265625 48.484375 22.1875 42.84375 
Q 18.109375 37.203125 18.109375 27.296875 
Q 18.109375 17.390625 22.1875 11.75 
Q 26.265625 6.109375 33.40625 6.109375 
Q 40.53125 6.109375 44.609375 11.75 
Q 48.6875 17.390625 48.6875 27.296875 
z
" id="DejaVuSans-112"/>
      <path d="M 25.390625 72.90625 
L 33.6875 72.90625 
L 8.296875 -9.28125 
L 0 -9.28125 
z
" id="DejaVuSans-47"/>
     </defs>
     <use xlink:href="#DejaVuSans-51"/>
     <use x="63.623047" xlink:href="#DejaVuSans-53"/>
     <use x="127.246094" xlink:href="#DejaVuSans-32"/>
     <use x="159.033203" xlink:href="#DejaVuSans-83"/>
     <use x="222.509766" xlink:href="#DejaVuSans-104"/>
     <use x="285.888672" xlink:href="#DejaVuSans-97"/>
     <use x="347.167969" xlink:href="#DejaVuSans-114"/>
     <use x="388.28125" xlink:href="#DejaVuSans-112"/>
     <use x="451.757812" xlink:href="#DejaVuSans-32"/>
     <use x="483.544922" xlink:href="#DejaVuSans-114"/>
     <use x="524.658203" xlink:href="#DejaVuSans-105"/>
     <use x="552.441406" xlink:href="#DejaVuSans-100"/>
     <use x="615.917969" xlink:href="#DejaVuSans-103"/>
     <use x="679.394531" xlink:href="#DejaVuSans-101"/>
     <use x="740.917969" xlink:href="#DejaVuSans-47"/>
     <use x="774.609375" xlink:href="#DejaVuSans-83"/>
     <use x="838.085938" xlink:href="#DejaVuSans-104"/>
     <use x="901.464844" xlink:href="#DejaVuSans-97"/>
     <use x="962.744141" xlink:href="#DejaVuSans-114"/>
     <use x="1003.857422" xlink:href="#DejaVuSans-112"/>
     <use x="1067.333984" xlink:href="#DejaVuSans-32"/>
     <use x="1099.121094" xlink:href="#DejaVuSans-114"/>
     <use x="1140.234375" xlink:href="#DejaVuSans-105"/>
     <use x="1168.017578" xlink:href="#DejaVuSans-100"/>
     <use x="1231.494141" xlink:href="#DejaVuSans-103"/>
     <use x="1294.970703" xlink:href="#DejaVuSans-101"/>
    </g>
   </g>
  </g>
 </g>
 <defs>
  <clipPath id="p220d16174d">
   <rect height="287.72" width="430.412" x="22.78" y="27.72"/>
  </clipPath>
 </defs>
</svg>
