<?xml version="1.0" encoding="utf-8" standalone="no"?>
<!DOCTYPE svg PUBLIC "-//W3C//DTD SVG 1.1//EN"
  "http://www.w3.org/Graphics/SVG/1.1/DTD/svg11.dtd">
<!-- Created with matplotlib (https://matplotlib.org/) -->
<svg height="345.6pt" version="1.1" viewBox="0 0 460.8 345.6" width="460.8pt" xmlns="http://www.w3.org/2000/svg" xmlns:xlink="http://www.w3.org/1999/xlink">
 <metadata>
  <rdf:RDF xmlns:cc="http://creativecommons.org/ns#" xmlns:dc="http://purl.org/dc/elements/1.1/" xmlns:rdf="http://www.w3.org/1999/02/22-rdf-syntax-ns#">
   <cc:Work>
    <dc:type rdf:resource="http://purl.org/dc/dcmitype/StillImage"/>
    <dc:date>2021-03-30T16:53:40.124687</dc:date>
    <dc:format>image/svg+xml</dc:format>
    <dc:creator>
     <cc:Agent>
      <dc:title>Matplotlib v3.3.4, https://matplotlib.org/</dc:title>
     </cc:Agent>
    </dc:creator>
   </cc:Work>
  </rdf:RDF>
 </metadata>
 <defs>
  <style type="text/css">*{stroke-linecap:butt;stroke-linejoin:round;}</style>
 </defs>
 <g id="figure_1">
  <g id="patch_1">
   <path d="M 0 345.6 
L 460.8 345.6 
L 460.8 0 
L 0 0 
z
" style="fill:#ffffff;"/>
  </g>
  <g id="axes_1">
   <g id="patch_2">
    <path d="M 0 293.76 
L 460.8 293.76 
L 460.8 3.456 
L 0 3.456 
z
" style="fill:#ffffff;"/>
   </g>
   <g id="matplotlib.axis_1">
    <g id="xtick_1">
     <g id="line2d_1">
      <path clip-path="url(#p2124a23c03)" d="M 110.107559 293.76 
L 110.107559 3.456 
" style="fill:none;stroke:#b0b0b0;stroke-linecap:square;stroke-width:0.8;"/>
     </g>
     <g id="line2d_2">
      <defs>
       <path d="M 0 0 
L 0 3.5 
" id="m27777e751d" style="stroke:#000000;stroke-width:0.8;"/>
      </defs>
      <g>
       <use style="stroke:#000000;stroke-width:0.8;" x="110.107559" xlink:href="#m27777e751d" y="293.76"/>
      </g>
     </g>
     <g id="text_1">
      <!-- -5 -->
      <g transform="translate(100.137247 315.956875)scale(0.2 -0.2)">
       <defs>
        <path d="M 4.890625 31.390625 
L 31.203125 31.390625 
L 31.203125 23.390625 
L 4.890625 23.390625 
z
" id="DejaVuSans-45"/>
        <path d="M 10.796875 72.90625 
L 49.515625 72.90625 
L 49.515625 64.59375 
L 19.828125 64.59375 
L 19.828125 46.734375 
Q 21.96875 47.46875 24.109375 47.828125 
Q 26.265625 48.1875 28.421875 48.1875 
Q 40.625 48.1875 47.75 41.5 
Q 54.890625 34.8125 54.890625 23.390625 
Q 54.890625 11.625 47.5625 5.09375 
Q 40.234375 -1.421875 26.90625 -1.421875 
Q 22.3125 -1.421875 17.546875 -0.640625 
Q 12.796875 0.140625 7.71875 1.703125 
L 7.71875 11.625 
Q 12.109375 9.234375 16.796875 8.0625 
Q 21.484375 6.890625 26.703125 6.890625 
Q 35.15625 6.890625 40.078125 11.328125 
Q 45.015625 15.765625 45.015625 23.390625 
Q 45.015625 31 40.078125 35.4375 
Q 35.15625 39.890625 26.703125 39.890625 
Q 22.75 39.890625 18.8125 39.015625 
Q 14.890625 38.140625 10.796875 36.28125 
z
" id="DejaVuSans-53"/>
       </defs>
       <use xlink:href="#DejaVuSans-45"/>
       <use x="36.083984" xlink:href="#DejaVuSans-53"/>
      </g>
     </g>
    </g>
    <g id="xtick_2">
     <g id="line2d_3">
      <path clip-path="url(#p2124a23c03)" d="M 220.373952 293.76 
L 220.373952 3.456 
" style="fill:none;stroke:#b0b0b0;stroke-linecap:square;stroke-width:0.8;"/>
     </g>
     <g id="line2d_4">
      <g>
       <use style="stroke:#000000;stroke-width:0.8;" x="220.373952" xlink:href="#m27777e751d" y="293.76"/>
      </g>
     </g>
     <g id="text_2">
      <!-- -2 -->
      <g transform="translate(210.40364 315.956875)scale(0.2 -0.2)">
       <defs>
        <path d="M 19.1875 8.296875 
L 53.609375 8.296875 
L 53.609375 0 
L 7.328125 0 
L 7.328125 8.296875 
Q 12.9375 14.109375 22.625 23.890625 
Q 32.328125 33.6875 34.8125 36.53125 
Q 39.546875 41.84375 41.421875 45.53125 
Q 43.3125 49.21875 43.3125 52.78125 
Q 43.3125 58.59375 39.234375 62.25 
Q 35.15625 65.921875 28.609375 65.921875 
Q 23.96875 65.921875 18.8125 64.3125 
Q 13.671875 62.703125 7.8125 59.421875 
L 7.8125 69.390625 
Q 13.765625 71.78125 18.9375 73 
Q 24.125 74.21875 28.421875 74.21875 
Q 39.75 74.21875 46.484375 68.546875 
Q 53.21875 62.890625 53.21875 53.421875 
Q 53.21875 48.921875 51.53125 44.890625 
Q 49.859375 40.875 45.40625 35.40625 
Q 44.1875 33.984375 37.640625 27.21875 
Q 31.109375 20.453125 19.1875 8.296875 
z
" id="DejaVuSans-50"/>
       </defs>
       <use xlink:href="#DejaVuSans-45"/>
       <use x="36.083984" xlink:href="#DejaVuSans-50"/>
      </g>
     </g>
    </g>
    <g id="xtick_3">
     <g id="line2d_5">
      <path clip-path="url(#p2124a23c03)" d="M 330.640346 293.76 
L 330.640346 3.456 
" style="fill:none;stroke:#b0b0b0;stroke-linecap:square;stroke-width:0.8;"/>
     </g>
     <g id="line2d_6">
      <g>
       <use style="stroke:#000000;stroke-width:0.8;" x="330.640346" xlink:href="#m27777e751d" y="293.76"/>
      </g>
     </g>
     <g id="text_3">
      <!-- 1 -->
      <g transform="translate(324.277846 315.956875)scale(0.2 -0.2)">
       <defs>
        <path d="M 12.40625 8.296875 
L 28.515625 8.296875 
L 28.515625 63.921875 
L 10.984375 60.40625 
L 10.984375 69.390625 
L 28.421875 72.90625 
L 38.28125 72.90625 
L 38.28125 8.296875 
L 54.390625 8.296875 
L 54.390625 0 
L 12.40625 0 
z
" id="DejaVuSans-49"/>
       </defs>
       <use xlink:href="#DejaVuSans-49"/>
      </g>
     </g>
    </g>
    <g id="xtick_4">
     <g id="line2d_7">
      <path clip-path="url(#p2124a23c03)" d="M 440.906739 293.76 
L 440.906739 3.456 
" style="fill:none;stroke:#b0b0b0;stroke-linecap:square;stroke-width:0.8;"/>
     </g>
     <g id="line2d_8">
      <g>
       <use style="stroke:#000000;stroke-width:0.8;" x="440.906739" xlink:href="#m27777e751d" y="293.76"/>
      </g>
     </g>
     <g id="text_4">
      <!-- 4 -->
      <g transform="translate(434.544239 315.956875)scale(0.2 -0.2)">
       <defs>
        <path d="M 37.796875 64.3125 
L 12.890625 25.390625 
L 37.796875 25.390625 
z
M 35.203125 72.90625 
L 47.609375 72.90625 
L 47.609375 25.390625 
L 58.015625 25.390625 
L 58.015625 17.1875 
L 47.609375 17.1875 
L 47.609375 0 
L 37.796875 0 
L 37.796875 17.1875 
L 4.890625 17.1875 
L 4.890625 26.703125 
z
" id="DejaVuSans-52"/>
       </defs>
       <use xlink:href="#DejaVuSans-52"/>
      </g>
     </g>
    </g>
    <g id="text_5">
     <!-- log10 of Df -->
     <g transform="translate(175.214063 339.313125)scale(0.2 -0.2)">
      <defs>
       <path d="M 9.421875 75.984375 
L 18.40625 75.984375 
L 18.40625 0 
L 9.421875 0 
z
" id="DejaVuSans-108"/>
       <path d="M 30.609375 48.390625 
Q 23.390625 48.390625 19.1875 42.75 
Q 14.984375 37.109375 14.984375 27.296875 
Q 14.984375 17.484375 19.15625 11.84375 
Q 23.34375 6.203125 30.609375 6.203125 
Q 37.796875 6.203125 41.984375 11.859375 
Q 46.1875 17.53125 46.1875 27.296875 
Q 46.1875 37.015625 41.984375 42.703125 
Q 37.796875 48.390625 30.609375 48.390625 
z
M 30.609375 56 
Q 42.328125 56 49.015625 48.375 
Q 55.71875 40.765625 55.71875 27.296875 
Q 55.71875 13.875 49.015625 6.21875 
Q 42.328125 -1.421875 30.609375 -1.421875 
Q 18.84375 -1.421875 12.171875 6.21875 
Q 5.515625 13.875 5.515625 27.296875 
Q 5.515625 40.765625 12.171875 48.375 
Q 18.84375 56 30.609375 56 
z
" id="DejaVuSans-111"/>
       <path d="M 45.40625 27.984375 
Q 45.40625 37.75 41.375 43.109375 
Q 37.359375 48.484375 30.078125 48.484375 
Q 22.859375 48.484375 18.828125 43.109375 
Q 14.796875 37.75 14.796875 27.984375 
Q 14.796875 18.265625 18.828125 12.890625 
Q 22.859375 7.515625 30.078125 7.515625 
Q 37.359375 7.515625 41.375 12.890625 
Q 45.40625 18.265625 45.40625 27.984375 
z
M 54.390625 6.78125 
Q 54.390625 -7.171875 48.1875 -13.984375 
Q 42 -20.796875 29.203125 -20.796875 
Q 24.46875 -20.796875 20.265625 -20.09375 
Q 16.0625 -19.390625 12.109375 -17.921875 
L 12.109375 -9.1875 
Q 16.0625 -11.328125 19.921875 -12.34375 
Q 23.78125 -13.375 27.78125 -13.375 
Q 36.625 -13.375 41.015625 -8.765625 
Q 45.40625 -4.15625 45.40625 5.171875 
L 45.40625 9.625 
Q 42.625 4.78125 38.28125 2.390625 
Q 33.9375 0 27.875 0 
Q 17.828125 0 11.671875 7.65625 
Q 5.515625 15.328125 5.515625 27.984375 
Q 5.515625 40.671875 11.671875 48.328125 
Q 17.828125 56 27.875 56 
Q 33.9375 56 38.28125 53.609375 
Q 42.625 51.21875 45.40625 46.390625 
L 45.40625 54.6875 
L 54.390625 54.6875 
z
" id="DejaVuSans-103"/>
       <path d="M 31.78125 66.40625 
Q 24.171875 66.40625 20.328125 58.90625 
Q 16.5 51.421875 16.5 36.375 
Q 16.5 21.390625 20.328125 13.890625 
Q 24.171875 6.390625 31.78125 6.390625 
Q 39.453125 6.390625 43.28125 13.890625 
Q 47.125 21.390625 47.125 36.375 
Q 47.125 51.421875 43.28125 58.90625 
Q 39.453125 66.40625 31.78125 66.40625 
z
M 31.78125 74.21875 
Q 44.046875 74.21875 50.515625 64.515625 
Q 56.984375 54.828125 56.984375 36.375 
Q 56.984375 17.96875 50.515625 8.265625 
Q 44.046875 -1.421875 31.78125 -1.421875 
Q 19.53125 -1.421875 13.0625 8.265625 
Q 6.59375 17.96875 6.59375 36.375 
Q 6.59375 54.828125 13.0625 64.515625 
Q 19.53125 74.21875 31.78125 74.21875 
z
" id="DejaVuSans-48"/>
       <path id="DejaVuSans-32"/>
       <path d="M 37.109375 75.984375 
L 37.109375 68.5 
L 28.515625 68.5 
Q 23.6875 68.5 21.796875 66.546875 
Q 19.921875 64.59375 19.921875 59.515625 
L 19.921875 54.6875 
L 34.71875 54.6875 
L 34.71875 47.703125 
L 19.921875 47.703125 
L 19.921875 0 
L 10.890625 0 
L 10.890625 47.703125 
L 2.296875 47.703125 
L 2.296875 54.6875 
L 10.890625 54.6875 
L 10.890625 58.5 
Q 10.890625 67.625 15.140625 71.796875 
Q 19.390625 75.984375 28.609375 75.984375 
z
" id="DejaVuSans-102"/>
       <path d="M 19.671875 64.796875 
L 19.671875 8.109375 
L 31.59375 8.109375 
Q 46.6875 8.109375 53.6875 14.9375 
Q 60.6875 21.78125 60.6875 36.53125 
Q 60.6875 51.171875 53.6875 57.984375 
Q 46.6875 64.796875 31.59375 64.796875 
z
M 9.8125 72.90625 
L 30.078125 72.90625 
Q 51.265625 72.90625 61.171875 64.09375 
Q 71.09375 55.28125 71.09375 36.53125 
Q 71.09375 17.671875 61.125 8.828125 
Q 51.171875 0 30.078125 0 
L 9.8125 0 
z
" id="DejaVuSans-68"/>
      </defs>
      <use xlink:href="#DejaVuSans-108"/>
      <use x="27.783203" xlink:href="#DejaVuSans-111"/>
      <use x="88.964844" xlink:href="#DejaVuSans-103"/>
      <use x="152.441406" xlink:href="#DejaVuSans-49"/>
      <use x="216.064453" xlink:href="#DejaVuSans-48"/>
      <use x="279.6875" xlink:href="#DejaVuSans-32"/>
      <use x="311.474609" xlink:href="#DejaVuSans-111"/>
      <use x="372.65625" xlink:href="#DejaVuSans-102"/>
      <use x="407.861328" xlink:href="#DejaVuSans-32"/>
      <use x="439.648438" xlink:href="#DejaVuSans-68"/>
      <use x="516.650391" xlink:href="#DejaVuSans-102"/>
     </g>
    </g>
   </g>
   <g id="matplotlib.axis_2">
    <g id="ytick_1">
     <g id="line2d_9">
      <path clip-path="url(#p2124a23c03)" d="M 0 293.76 
L 460.8 293.76 
" style="fill:none;stroke:#b0b0b0;stroke-linecap:square;stroke-width:0.8;"/>
     </g>
     <g id="line2d_10">
      <defs>
       <path d="M 0 0 
L -3.5 0 
" id="m927adf8f9a" style="stroke:#000000;stroke-width:0.8;"/>
      </defs>
      <g>
       <use style="stroke:#000000;stroke-width:0.8;" x="0" xlink:href="#m927adf8f9a" y="293.76"/>
      </g>
     </g>
    </g>
    <g id="ytick_2">
     <g id="line2d_11">
      <path clip-path="url(#p2124a23c03)" d="M 0 236.274059 
L 460.8 236.274059 
" style="fill:none;stroke:#b0b0b0;stroke-linecap:square;stroke-width:0.8;"/>
     </g>
     <g id="line2d_12">
      <g>
       <use style="stroke:#000000;stroke-width:0.8;" x="0" xlink:href="#m927adf8f9a" y="236.274059"/>
      </g>
     </g>
    </g>
    <g id="ytick_3">
     <g id="line2d_13">
      <path clip-path="url(#p2124a23c03)" d="M 0 178.788119 
L 460.8 178.788119 
" style="fill:none;stroke:#b0b0b0;stroke-linecap:square;stroke-width:0.8;"/>
     </g>
     <g id="line2d_14">
      <g>
       <use style="stroke:#000000;stroke-width:0.8;" x="0" xlink:href="#m927adf8f9a" y="178.788119"/>
      </g>
     </g>
    </g>
    <g id="ytick_4">
     <g id="line2d_15">
      <path clip-path="url(#p2124a23c03)" d="M 0 121.302178 
L 460.8 121.302178 
" style="fill:none;stroke:#b0b0b0;stroke-linecap:square;stroke-width:0.8;"/>
     </g>
     <g id="line2d_16">
      <g>
       <use style="stroke:#000000;stroke-width:0.8;" x="0" xlink:href="#m927adf8f9a" y="121.302178"/>
      </g>
     </g>
    </g>
    <g id="ytick_5">
     <g id="line2d_17">
      <path clip-path="url(#p2124a23c03)" d="M 0 63.816238 
L 460.8 63.816238 
" style="fill:none;stroke:#b0b0b0;stroke-linecap:square;stroke-width:0.8;"/>
     </g>
     <g id="line2d_18">
      <g>
       <use style="stroke:#000000;stroke-width:0.8;" x="0" xlink:href="#m927adf8f9a" y="63.816238"/>
      </g>
     </g>
    </g>
    <g id="ytick_6">
     <g id="line2d_19">
      <path clip-path="url(#p2124a23c03)" d="M 0 6.330297 
L 460.8 6.330297 
" style="fill:none;stroke:#b0b0b0;stroke-linecap:square;stroke-width:0.8;"/>
     </g>
     <g id="line2d_20">
      <g>
       <use style="stroke:#000000;stroke-width:0.8;" x="0" xlink:href="#m927adf8f9a" y="6.330297"/>
      </g>
     </g>
    </g>
   </g>
   <g id="line2d_21">
    <path clip-path="url(#p2124a23c03)" d="M 240.099266 293.76 
L 240.099266 286.574257 
L 246.759047 286.574257 
L 246.759047 279.388515 
L 252.228986 279.388515 
L 252.228986 272.202772 
L 253.031297 272.202772 
L 253.031297 265.01703 
L 254.983131 265.01703 
L 254.983131 257.831287 
L 255.544886 257.831287 
L 255.544886 250.645545 
L 257.151447 250.645545 
L 257.151447 243.459802 
L 257.686215 243.459802 
L 257.686215 236.274059 
L 261.072269 236.274059 
L 261.072269 229.088317 
L 261.916801 229.088317 
L 261.916801 221.902574 
L 263.620575 221.902574 
L 263.620575 214.716832 
L 264.107931 214.716832 
L 264.107931 207.531089 
L 266.726838 207.531089 
L 266.726838 200.345347 
L 267.12707 200.345347 
L 267.12707 193.159604 
L 267.306871 193.159604 
L 267.306871 185.973861 
L 270.703682 185.973861 
L 270.703682 178.788119 
L 271.514114 178.788119 
L 271.514114 171.602376 
L 272.223749 171.602376 
L 272.223749 164.416634 
L 272.292245 164.416634 
L 272.292245 157.230891 
L 273.658861 157.230891 
L 273.658861 150.045149 
L 274.654395 150.045149 
L 274.654395 142.859406 
L 274.931412 142.859406 
L 274.931412 135.673663 
L 275.256988 135.673663 
L 275.256988 128.487921 
L 275.680923 128.487921 
L 275.680923 121.302178 
L 276.290938 121.302178 
L 276.290938 114.116436 
L 277.365795 114.116436 
L 277.365795 106.930693 
L 278.039735 106.930693 
L 278.039735 99.74495 
L 278.666448 99.74495 
L 278.666448 92.559208 
L 278.822452 92.559208 
L 278.822452 85.373465 
L 282.802475 85.373465 
L 282.802475 78.187723 
L 285.696999 78.187723 
L 285.696999 71.00198 
L 286.129127 71.00198 
L 286.129127 63.816238 
L 288.201134 63.816238 
L 288.201134 56.630495 
L 288.282565 56.630495 
L 288.282565 49.444752 
L 290.343967 49.444752 
L 290.343967 42.25901 
L 292.606791 42.25901 
L 292.606791 35.073267 
L 293.456436 35.073267 
L 293.456436 27.887525 
L 302.317296 27.887525 
L 302.317296 20.701782 
L 303.317699 20.701782 
L 303.317699 13.51604 
L 317.305898 13.51604 
L 317.305898 6.330297 
L 317.305898 6.330297 
L 317.305898 6.330297 
L 460.8 6.330297 
" style="fill:none;stroke:#ff0000;stroke-linecap:square;stroke-width:3;"/>
   </g>
   <g id="line2d_22">
    <path clip-path="url(#p2124a23c03)" d="M 270.644758 293.76 
L 270.644758 286.574257 
L 284.334465 286.574257 
L 284.334465 279.388515 
L 286.427857 279.388515 
L 286.427857 272.202772 
L 289.985263 272.202772 
L 289.985263 265.01703 
L 291.01217 265.01703 
L 291.01217 257.831287 
L 291.266264 257.831287 
L 291.266264 250.645545 
L 292.908161 250.645545 
L 292.908161 243.459802 
L 293.640648 243.459802 
L 293.640648 236.274059 
L 293.727931 236.274059 
L 293.727931 229.088317 
L 295.528156 229.088317 
L 295.528156 221.902574 
L 295.828018 221.902574 
L 295.828018 214.716832 
L 297.832345 214.716832 
L 297.832345 207.531089 
L 297.863363 207.531089 
L 297.863363 200.345347 
L 299.709287 200.345347 
L 299.709287 193.159604 
L 300.252009 193.159604 
L 300.252009 185.973861 
L 300.785953 185.973861 
L 300.785953 178.788119 
L 301.097894 178.788119 
L 301.097894 171.602376 
L 301.466055 171.602376 
L 301.466055 164.416634 
L 302.729023 164.416634 
L 302.729023 157.230891 
L 306.165359 157.230891 
L 306.165359 150.045149 
L 309.955907 150.045149 
L 309.955907 142.859406 
L 311.253684 142.859406 
L 311.253684 135.673663 
L 312.615354 135.673663 
L 312.615354 128.487921 
L 313.188328 128.487921 
L 313.188328 121.302178 
L 314.979902 121.302178 
L 314.979902 114.116436 
L 314.992568 114.116436 
L 314.992568 106.930693 
L 315.372968 106.930693 
L 315.372968 99.74495 
L 315.441 99.74495 
L 315.441 92.559208 
L 315.521467 92.559208 
L 315.521467 85.373465 
L 317.657759 85.373465 
L 317.657759 78.187723 
L 318.608783 78.187723 
L 318.608783 71.00198 
L 320.096044 71.00198 
L 320.096044 63.816238 
L 322.002635 63.816238 
L 322.002635 56.630495 
L 326.0467 56.630495 
L 326.0467 49.444752 
L 327.190757 49.444752 
L 327.190757 42.25901 
L 328.897008 42.25901 
L 328.897008 35.073267 
L 333.944223 35.073267 
L 333.944223 27.887525 
L 334.123218 27.887525 
L 334.123218 20.701782 
L 343.456101 20.701782 
L 343.456101 13.51604 
L 442.300912 13.51604 
L 442.300912 6.330297 
L 442.300912 6.330297 
L 442.300912 6.330297 
L 460.8 6.330297 
" style="fill:none;stroke:#00bfbf;stroke-linecap:square;stroke-width:1.5;"/>
   </g>
   <g id="line2d_23">
    <path clip-path="url(#p2124a23c03)" d="M 270.644758 293.76 
L 270.644758 286.574257 
L 284.334465 286.574257 
L 284.334465 279.388515 
L 286.427857 279.388515 
L 286.427857 272.202772 
L 289.985263 272.202772 
L 289.985263 265.01703 
L 291.01217 265.01703 
L 291.01217 257.831287 
L 291.266264 257.831287 
L 291.266264 250.645545 
L 292.908161 250.645545 
L 292.908161 243.459802 
L 293.640648 243.459802 
L 293.640648 236.274059 
L 293.727931 236.274059 
L 293.727931 229.088317 
L 295.528156 229.088317 
L 295.528156 221.902574 
L 295.828018 221.902574 
L 295.828018 214.716832 
L 297.832345 214.716832 
L 297.832345 207.531089 
L 297.863363 207.531089 
L 297.863363 200.345347 
L 299.709287 200.345347 
L 299.709287 193.159604 
L 300.252009 193.159604 
L 300.252009 185.973861 
L 300.785953 185.973861 
L 300.785953 178.788119 
L 301.097894 178.788119 
L 301.097894 171.602376 
L 301.466055 171.602376 
L 301.466055 164.416634 
L 302.729023 164.416634 
L 302.729023 157.230891 
L 306.165358 157.230891 
L 306.165358 150.045149 
L 309.955907 150.045149 
L 309.955907 142.859406 
L 311.253684 142.859406 
L 311.253684 135.673663 
L 312.615354 135.673663 
L 312.615354 128.487921 
L 313.188328 128.487921 
L 313.188328 121.302178 
L 314.979902 121.302178 
L 314.979902 114.116436 
L 314.992568 114.116436 
L 314.992568 106.930693 
L 315.372968 106.930693 
L 315.372968 99.74495 
L 315.441 99.74495 
L 315.441 92.559208 
L 315.521467 92.559208 
L 315.521467 85.373465 
L 317.657759 85.373465 
L 317.657759 78.187723 
L 318.608783 78.187723 
L 318.608783 71.00198 
L 320.096044 71.00198 
L 320.096044 63.816238 
L 322.002635 63.816238 
L 322.002635 56.630495 
L 326.0467 56.630495 
L 326.0467 49.444752 
L 327.190756 49.444752 
L 327.190756 42.25901 
L 328.897008 42.25901 
L 328.897008 35.073267 
L 333.944223 35.073267 
L 333.944223 27.887525 
L 334.123218 27.887525 
L 334.123218 20.701782 
L 343.456101 20.701782 
L 343.456101 13.51604 
L 442.300912 13.51604 
L 442.300912 6.330297 
L 442.300912 6.330297 
L 442.300912 6.330297 
L 460.8 6.330297 
" style="fill:none;stroke:#bf00bf;stroke-linecap:square;stroke-width:1.5;"/>
   </g>
   <g id="line2d_24">
    <path clip-path="url(#p2124a23c03)" d="M 270.644281 293.76 
L 270.644281 286.574257 
L 284.334372 286.574257 
L 284.334372 279.388515 
L 286.427802 279.388515 
L 286.427802 272.202772 
L 289.985211 272.202772 
L 289.985211 265.01703 
L 291.012143 265.01703 
L 291.012143 257.831287 
L 291.266186 257.831287 
L 291.266186 250.645545 
L 292.908153 250.645545 
L 292.908153 243.459802 
L 293.640616 243.459802 
L 293.640616 236.274059 
L 293.727907 236.274059 
L 293.727907 229.088317 
L 295.528133 229.088317 
L 295.528133 221.902574 
L 295.827999 221.902574 
L 295.827999 214.716832 
L 297.832318 214.716832 
L 297.832318 207.531089 
L 297.863142 207.531089 
L 297.863142 200.345347 
L 299.709261 200.345347 
L 299.709261 193.159604 
L 300.251984 193.159604 
L 300.251984 185.973861 
L 300.785929 185.973861 
L 300.785929 178.788119 
L 301.097859 178.788119 
L 301.097859 171.602376 
L 301.46598 171.602376 
L 301.46598 164.416634 
L 302.728951 164.416634 
L 302.728951 157.230891 
L 306.16442 157.230891 
L 306.16442 150.045149 
L 309.955756 150.045149 
L 309.955756 142.859406 
L 311.253631 142.859406 
L 311.253631 135.673663 
L 312.615309 135.673663 
L 312.615309 128.487921 
L 313.188251 128.487921 
L 313.188251 121.302178 
L 314.979852 121.302178 
L 314.979852 114.116436 
L 314.99251 114.116436 
L 314.99251 106.930693 
L 315.372904 106.930693 
L 315.372904 99.74495 
L 315.440932 99.74495 
L 315.440932 92.559208 
L 315.521354 92.559208 
L 315.521354 85.373465 
L 317.657722 85.373465 
L 317.657722 78.187723 
L 318.608749 78.187723 
L 318.608749 71.00198 
L 320.095561 71.00198 
L 320.095561 63.816238 
L 322.002615 63.816238 
L 322.002615 56.630495 
L 326.046661 56.630495 
L 326.046661 49.444752 
L 327.190461 49.444752 
L 327.190461 42.25901 
L 328.896921 42.25901 
L 328.896921 35.073267 
L 333.944171 35.073267 
L 333.944171 27.887525 
L 334.123188 27.887525 
L 334.123188 20.701782 
L 343.456066 20.701782 
L 343.456066 13.51604 
L 442.300863 13.51604 
L 442.300863 6.330297 
L 442.300863 6.330297 
L 442.300863 6.330297 
L 460.8 6.330297 
" style="fill:none;stroke:#000000;stroke-linecap:square;stroke-width:1.5;"/>
   </g>
   <g id="line2d_25">
    <path clip-path="url(#p2124a23c03)" d="M 268.838511 293.76 
L 268.838511 286.574257 
L 282.94746 286.574257 
L 282.94746 279.388515 
L 283.932502 279.388515 
L 283.932502 272.202772 
L 289.495149 272.202772 
L 289.495149 265.01703 
L 289.84397 265.01703 
L 289.84397 257.831287 
L 290.025723 257.831287 
L 290.025723 250.645545 
L 292.454355 250.645545 
L 292.454355 243.459802 
L 292.571086 243.459802 
L 292.571086 236.274059 
L 293.160849 236.274059 
L 293.160849 229.088317 
L 295.074597 229.088317 
L 295.074597 221.902574 
L 295.156488 221.902574 
L 295.156488 214.716832 
L 295.212353 214.716832 
L 295.212353 207.531089 
L 296.904332 207.531089 
L 296.904332 200.345347 
L 298.53724 200.345347 
L 298.53724 193.159604 
L 298.719287 193.159604 
L 298.719287 185.973861 
L 299.839463 185.973861 
L 299.839463 178.788119 
L 300.218848 178.788119 
L 300.218848 171.602376 
L 300.532528 171.602376 
L 300.532528 164.416634 
L 301.69083 164.416634 
L 301.69083 157.230891 
L 301.9956 157.230891 
L 301.9956 150.045149 
L 306.173347 150.045149 
L 306.173347 142.859406 
L 309.576105 142.859406 
L 309.576105 135.673663 
L 310.935183 135.673663 
L 310.935183 128.487921 
L 311.896746 128.487921 
L 311.896746 121.302178 
L 312.650259 121.302178 
L 312.650259 114.116436 
L 312.967951 114.116436 
L 312.967951 106.930693 
L 313.085713 106.930693 
L 313.085713 99.74495 
L 313.14093 99.74495 
L 313.14093 92.559208 
L 314.061028 92.559208 
L 314.061028 85.373465 
L 316.826359 85.373465 
L 316.826359 78.187723 
L 317.428418 78.187723 
L 317.428418 71.00198 
L 319.357216 71.00198 
L 319.357216 63.816238 
L 321.690116 63.816238 
L 321.690116 56.630495 
L 324.608095 56.630495 
L 324.608095 49.444752 
L 326.783546 49.444752 
L 326.783546 42.25901 
L 328.102134 42.25901 
L 328.102134 35.073267 
L 332.835063 35.073267 
L 332.835063 27.887525 
L 332.906111 27.887525 
L 332.906111 20.701782 
L 342.126254 20.701782 
L 342.126254 13.51604 
L 440.416938 13.51604 
L 440.416938 6.330297 
L 440.416938 6.330297 
L 440.416938 6.330297 
L 460.8 6.330297 
" style="fill:none;stroke:#00bfbf;stroke-linecap:square;stroke-width:1.5;"/>
   </g>
   <g id="line2d_26">
    <path clip-path="url(#p2124a23c03)" d="M 243.812432 293.76 
L 243.812432 286.574257 
L 263.125552 286.574257 
L 263.125552 279.388515 
L 266.10267 279.388515 
L 266.10267 272.202772 
L 276.02721 272.202772 
L 276.02721 265.01703 
L 278.090709 265.01703 
L 278.090709 257.831287 
L 278.610155 257.831287 
L 278.610155 250.645545 
L 280.350328 250.645545 
L 280.350328 243.459802 
L 280.428957 243.459802 
L 280.428957 236.274059 
L 282.048345 236.274059 
L 282.048345 229.088317 
L 285.475141 229.088317 
L 285.475141 221.902574 
L 285.605774 221.902574 
L 285.605774 214.716832 
L 286.055774 214.716832 
L 286.055774 207.531089 
L 286.753224 207.531089 
L 286.753224 200.345347 
L 286.811047 200.345347 
L 286.811047 193.159604 
L 286.989175 193.159604 
L 286.989175 185.973861 
L 289.121721 185.973861 
L 289.121721 178.788119 
L 289.818645 178.788119 
L 289.818645 171.602376 
L 290.531884 171.602376 
L 290.531884 164.416634 
L 291.695411 164.416634 
L 291.695411 157.230891 
L 292.195877 157.230891 
L 292.195877 150.045149 
L 292.431585 150.045149 
L 292.431585 142.859406 
L 294.939225 142.859406 
L 294.939225 135.673663 
L 297.740239 135.673663 
L 297.740239 128.487921 
L 298.603587 128.487921 
L 298.603587 121.302178 
L 299.768304 121.302178 
L 299.768304 114.116436 
L 300.876797 114.116436 
L 300.876797 106.930693 
L 301.240946 106.930693 
L 301.240946 99.74495 
L 302.530355 99.74495 
L 302.530355 92.559208 
L 302.979453 92.559208 
L 302.979453 85.373465 
L 305.220712 85.373465 
L 305.220712 78.187723 
L 305.854134 78.187723 
L 305.854134 71.00198 
L 306.371271 71.00198 
L 306.371271 63.816238 
L 309.028725 63.816238 
L 309.028725 56.630495 
L 309.26 56.630495 
L 309.26 49.444752 
L 312.216037 49.444752 
L 312.216037 42.25901 
L 318.294796 42.25901 
L 318.294796 35.073267 
L 318.772019 35.073267 
L 318.772019 27.887525 
L 321.552841 27.887525 
L 321.552841 20.701782 
L 326.783546 20.701782 
L 326.783546 13.51604 
L 410.853606 13.51604 
L 410.853606 6.330297 
L 410.853606 6.330297 
L 410.853606 6.330297 
L 460.8 6.330297 
" style="fill:none;stroke:#bf00bf;stroke-linecap:square;stroke-width:1.5;"/>
   </g>
   <g id="line2d_27">
    <path clip-path="url(#p2124a23c03)" d="M 243.297075 293.76 
L 243.297075 286.574257 
L 259.55483 286.574257 
L 259.55483 279.388515 
L 264.702328 279.388515 
L 264.702328 272.202772 
L 267.716906 272.202772 
L 267.716906 265.01703 
L 269.950318 265.01703 
L 269.950318 257.831287 
L 271.233324 257.831287 
L 271.233324 250.645545 
L 271.407683 250.645545 
L 271.407683 243.459802 
L 274.566004 243.459802 
L 274.566004 236.274059 
L 274.954971 236.274059 
L 274.954971 229.088317 
L 276.430039 229.088317 
L 276.430039 221.902574 
L 278.265048 221.902574 
L 278.265048 214.716832 
L 280.120505 214.716832 
L 280.120505 207.531089 
L 280.221732 207.531089 
L 280.221732 200.345347 
L 282.025908 200.345347 
L 282.025908 193.159604 
L 282.236596 193.159604 
L 282.236596 185.973861 
L 285.071966 185.973861 
L 285.071966 178.788119 
L 287.204919 178.788119 
L 287.204919 171.602376 
L 288.721698 171.602376 
L 288.721698 164.416634 
L 289.121666 164.416634 
L 289.121666 157.230891 
L 289.218858 157.230891 
L 289.218858 150.045149 
L 289.744732 150.045149 
L 289.744732 142.859406 
L 290.972256 142.859406 
L 290.972256 135.673663 
L 291.106114 135.673663 
L 291.106114 128.487921 
L 291.443763 128.487921 
L 291.443763 121.302178 
L 291.790242 121.302178 
L 291.790242 114.116436 
L 292.431585 114.116436 
L 292.431585 106.930693 
L 292.556068 106.930693 
L 292.556068 99.74495 
L 292.586307 99.74495 
L 292.586307 92.559208 
L 293.707597 92.559208 
L 293.707597 85.373465 
L 294.939225 85.373465 
L 294.939225 78.187723 
L 295.355834 78.187723 
L 295.355834 71.00198 
L 298.500989 71.00198 
L 298.500989 63.816238 
L 300.475448 63.816238 
L 300.475448 56.630495 
L 301.240946 56.630495 
L 301.240946 49.444752 
L 303.04594 49.444752 
L 303.04594 42.25901 
L 304.85216 42.25901 
L 304.85216 35.073267 
L 308.920167 35.073267 
L 308.920167 27.887525 
L 309.831992 27.887525 
L 309.831992 20.701782 
L 318.294796 20.701782 
L 318.294796 13.51604 
L 390.636104 13.51604 
L 390.636104 6.330297 
L 390.636104 6.330297 
L 390.636104 6.330297 
L 460.8 6.330297 
" style="fill:none;stroke:#000000;stroke-linecap:square;stroke-width:1.5;"/>
   </g>
   <g id="line2d_28">
    <path clip-path="url(#p2124a23c03)" d="M 242.170619 293.76 
L 242.170619 286.574257 
L 259.135323 286.574257 
L 259.135323 279.388515 
L 259.547313 279.388515 
L 259.547313 272.202772 
L 267.589722 272.202772 
L 267.589722 265.01703 
L 268.926088 265.01703 
L 268.926088 257.831287 
L 269.490971 257.831287 
L 269.490971 250.645545 
L 269.587039 250.645545 
L 269.587039 243.459802 
L 270.798752 243.459802 
L 270.798752 236.274059 
L 272.889023 236.274059 
L 272.889023 229.088317 
L 274.473511 229.088317 
L 274.473511 221.902574 
L 274.61655 221.902574 
L 274.61655 214.716832 
L 275.680124 214.716832 
L 275.680124 207.531089 
L 277.367159 207.531089 
L 277.367159 200.345347 
L 277.731246 200.345347 
L 277.731246 193.159604 
L 279.860337 193.159604 
L 279.860337 185.973861 
L 280.368961 185.973861 
L 280.368961 178.788119 
L 282.186965 178.788119 
L 282.186965 171.602376 
L 285.015649 171.602376 
L 285.015649 164.416634 
L 285.863647 164.416634 
L 285.863647 157.230891 
L 286.191442 157.230891 
L 286.191442 150.045149 
L 286.778188 150.045149 
L 286.778188 142.859406 
L 287.067033 142.859406 
L 287.067033 135.673663 
L 287.834622 135.673663 
L 287.834622 128.487921 
L 288.788245 128.487921 
L 288.788245 121.302178 
L 288.954095 121.302178 
L 288.954095 114.116436 
L 289.120756 114.116436 
L 289.120756 106.930693 
L 289.374156 106.930693 
L 289.374156 99.74495 
L 289.908908 99.74495 
L 289.908908 92.559208 
L 291.062666 92.559208 
L 291.062666 85.373465 
L 291.092599 85.373465 
L 291.092599 78.187723 
L 291.425274 78.187723 
L 291.425274 71.00198 
L 295.481284 71.00198 
L 295.481284 63.816238 
L 296.903205 63.816238 
L 296.903205 56.630495 
L 297.463295 56.630495 
L 297.463295 49.444752 
L 301.240946 49.444752 
L 301.240946 42.25901 
L 303.716615 42.25901 
L 303.716615 35.073267 
L 306.573655 35.073267 
L 306.573655 27.887525 
L 308.504797 27.887525 
L 308.504797 20.701782 
L 318.294796 20.701782 
L 318.294796 13.51604 
L 356.233857 13.51604 
L 356.233857 6.330297 
L 356.233857 6.330297 
L 356.233857 6.330297 
L 460.8 6.330297 
" style="fill:none;stroke:#00bfbf;stroke-linecap:square;stroke-width:1.5;"/>
   </g>
   <g id="line2d_29">
    <path clip-path="url(#p2124a23c03)" d="M 240.099266 293.76 
L 240.099266 286.574257 
L 246.759047 286.574257 
L 246.759047 279.388515 
L 252.228986 279.388515 
L 252.228986 272.202772 
L 253.031297 272.202772 
L 253.031297 265.01703 
L 254.983131 265.01703 
L 254.983131 257.831287 
L 255.544886 257.831287 
L 255.544886 250.645545 
L 257.151447 250.645545 
L 257.151447 243.459802 
L 257.686215 243.459802 
L 257.686215 236.274059 
L 261.072269 236.274059 
L 261.072269 229.088317 
L 261.916801 229.088317 
L 261.916801 221.902574 
L 263.620575 221.902574 
L 263.620575 214.716832 
L 264.107931 214.716832 
L 264.107931 207.531089 
L 266.726838 207.531089 
L 266.726838 200.345347 
L 267.12707 200.345347 
L 267.12707 193.159604 
L 267.306871 193.159604 
L 267.306871 185.973861 
L 270.703682 185.973861 
L 270.703682 178.788119 
L 271.514114 178.788119 
L 271.514114 171.602376 
L 272.223749 171.602376 
L 272.223749 164.416634 
L 272.292245 164.416634 
L 272.292245 157.230891 
L 273.658861 157.230891 
L 273.658861 150.045149 
L 274.654395 150.045149 
L 274.654395 142.859406 
L 274.931412 142.859406 
L 274.931412 135.673663 
L 275.256988 135.673663 
L 275.256988 128.487921 
L 275.680923 128.487921 
L 275.680923 121.302178 
L 276.290938 121.302178 
L 276.290938 114.116436 
L 277.365795 114.116436 
L 277.365795 106.930693 
L 278.039735 106.930693 
L 278.039735 99.74495 
L 278.666448 99.74495 
L 278.666448 92.559208 
L 278.822452 92.559208 
L 278.822452 85.373465 
L 282.802475 85.373465 
L 282.802475 78.187723 
L 285.696999 78.187723 
L 285.696999 71.00198 
L 286.129127 71.00198 
L 286.129127 63.816238 
L 288.201134 63.816238 
L 288.201134 56.630495 
L 288.282565 56.630495 
L 288.282565 49.444752 
L 290.343967 49.444752 
L 290.343967 42.25901 
L 292.606791 42.25901 
L 292.606791 35.073267 
L 293.456436 35.073267 
L 293.456436 27.887525 
L 302.317296 27.887525 
L 302.317296 20.701782 
L 303.317699 20.701782 
L 303.317699 13.51604 
L 317.305898 13.51604 
L 317.305898 6.330297 
L 317.305898 6.330297 
L 317.305898 6.330297 
L 460.8 6.330297 
" style="fill:none;stroke:#bf00bf;stroke-linecap:square;stroke-width:1.5;"/>
   </g>
   <g id="patch_3">
    <path d="M 0 293.76 
L 0 3.456 
" style="fill:none;stroke:#000000;stroke-linecap:square;stroke-linejoin:miter;stroke-width:0.8;"/>
   </g>
   <g id="patch_4">
    <path d="M 460.8 293.76 
L 460.8 3.456 
" style="fill:none;stroke:#000000;stroke-linecap:square;stroke-linejoin:miter;stroke-width:0.8;"/>
   </g>
   <g id="patch_5">
    <path d="M 0 293.76 
L 460.8 293.76 
" style="fill:none;stroke:#000000;stroke-linecap:square;stroke-linejoin:miter;stroke-width:0.8;"/>
   </g>
   <g id="patch_6">
    <path d="M 0 3.456 
L 460.8 3.456 
" style="fill:none;stroke:#000000;stroke-linecap:square;stroke-linejoin:miter;stroke-width:0.8;"/>
   </g>
   <g id="text_6">
    <!-- {f7, f8, f16, f17}, 5-D -->
    <g transform="translate(235.430875 287.95392)scale(0.2 -0.2)">
     <defs>
      <path d="M 51.125 -9.28125 
L 51.125 -16.3125 
L 48.09375 -16.3125 
Q 35.9375 -16.3125 31.8125 -12.6875 
Q 27.6875 -9.078125 27.6875 1.703125 
L 27.6875 13.375 
Q 27.6875 20.75 25.046875 23.578125 
Q 22.40625 26.421875 15.484375 26.421875 
L 12.5 26.421875 
L 12.5 33.40625 
L 15.484375 33.40625 
Q 22.46875 33.40625 25.078125 36.203125 
Q 27.6875 39.015625 27.6875 46.296875 
L 27.6875 58.015625 
Q 27.6875 68.796875 31.8125 72.390625 
Q 35.9375 75.984375 48.09375 75.984375 
L 51.125 75.984375 
L 51.125 69 
L 47.796875 69 
Q 40.921875 69 38.8125 66.84375 
Q 36.71875 64.703125 36.71875 57.8125 
L 36.71875 45.703125 
Q 36.71875 38.03125 34.5 34.5625 
Q 32.28125 31.109375 26.90625 29.890625 
Q 32.328125 28.5625 34.515625 25.09375 
Q 36.71875 21.625 36.71875 14.015625 
L 36.71875 1.90625 
Q 36.71875 -4.984375 38.8125 -7.125 
Q 40.921875 -9.28125 47.796875 -9.28125 
z
" id="DejaVuSans-123"/>
      <path d="M 8.203125 72.90625 
L 55.078125 72.90625 
L 55.078125 68.703125 
L 28.609375 0 
L 18.3125 0 
L 43.21875 64.59375 
L 8.203125 64.59375 
z
" id="DejaVuSans-55"/>
      <path d="M 11.71875 12.40625 
L 22.015625 12.40625 
L 22.015625 4 
L 14.015625 -11.625 
L 7.71875 -11.625 
L 11.71875 4 
z
" id="DejaVuSans-44"/>
      <path d="M 31.78125 34.625 
Q 24.75 34.625 20.71875 30.859375 
Q 16.703125 27.09375 16.703125 20.515625 
Q 16.703125 13.921875 20.71875 10.15625 
Q 24.75 6.390625 31.78125 6.390625 
Q 38.8125 6.390625 42.859375 10.171875 
Q 46.921875 13.96875 46.921875 20.515625 
Q 46.921875 27.09375 42.890625 30.859375 
Q 38.875 34.625 31.78125 34.625 
z
M 21.921875 38.8125 
Q 15.578125 40.375 12.03125 44.71875 
Q 8.5 49.078125 8.5 55.328125 
Q 8.5 64.0625 14.71875 69.140625 
Q 20.953125 74.21875 31.78125 74.21875 
Q 42.671875 74.21875 48.875 69.140625 
Q 55.078125 64.0625 55.078125 55.328125 
Q 55.078125 49.078125 51.53125 44.71875 
Q 48 40.375 41.703125 38.8125 
Q 48.828125 37.15625 52.796875 32.3125 
Q 56.78125 27.484375 56.78125 20.515625 
Q 56.78125 9.90625 50.3125 4.234375 
Q 43.84375 -1.421875 31.78125 -1.421875 
Q 19.734375 -1.421875 13.25 4.234375 
Q 6.78125 9.90625 6.78125 20.515625 
Q 6.78125 27.484375 10.78125 32.3125 
Q 14.796875 37.15625 21.921875 38.8125 
z
M 18.3125 54.390625 
Q 18.3125 48.734375 21.84375 45.5625 
Q 25.390625 42.390625 31.78125 42.390625 
Q 38.140625 42.390625 41.71875 45.5625 
Q 45.3125 48.734375 45.3125 54.390625 
Q 45.3125 60.0625 41.71875 63.234375 
Q 38.140625 66.40625 31.78125 66.40625 
Q 25.390625 66.40625 21.84375 63.234375 
Q 18.3125 60.0625 18.3125 54.390625 
z
" id="DejaVuSans-56"/>
      <path d="M 33.015625 40.375 
Q 26.375 40.375 22.484375 35.828125 
Q 18.609375 31.296875 18.609375 23.390625 
Q 18.609375 15.53125 22.484375 10.953125 
Q 26.375 6.390625 33.015625 6.390625 
Q 39.65625 6.390625 43.53125 10.953125 
Q 47.40625 15.53125 47.40625 23.390625 
Q 47.40625 31.296875 43.53125 35.828125 
Q 39.65625 40.375 33.015625 40.375 
z
M 52.59375 71.296875 
L 52.59375 62.3125 
Q 48.875 64.0625 45.09375 64.984375 
Q 41.3125 65.921875 37.59375 65.921875 
Q 27.828125 65.921875 22.671875 59.328125 
Q 17.53125 52.734375 16.796875 39.40625 
Q 19.671875 43.65625 24.015625 45.921875 
Q 28.375 48.1875 33.59375 48.1875 
Q 44.578125 48.1875 50.953125 41.515625 
Q 57.328125 34.859375 57.328125 23.390625 
Q 57.328125 12.15625 50.6875 5.359375 
Q 44.046875 -1.421875 33.015625 -1.421875 
Q 20.359375 -1.421875 13.671875 8.265625 
Q 6.984375 17.96875 6.984375 36.375 
Q 6.984375 53.65625 15.1875 63.9375 
Q 23.390625 74.21875 37.203125 74.21875 
Q 40.921875 74.21875 44.703125 73.484375 
Q 48.484375 72.75 52.59375 71.296875 
z
" id="DejaVuSans-54"/>
      <path d="M 12.5 -9.28125 
L 15.921875 -9.28125 
Q 22.75 -9.28125 24.828125 -7.171875 
Q 26.90625 -5.078125 26.90625 1.90625 
L 26.90625 14.015625 
Q 26.90625 21.625 29.09375 25.09375 
Q 31.296875 28.5625 36.71875 29.890625 
Q 31.296875 31.109375 29.09375 34.5625 
Q 26.90625 38.03125 26.90625 45.703125 
L 26.90625 57.8125 
Q 26.90625 64.75 24.828125 66.875 
Q 22.75 69 15.921875 69 
L 12.5 69 
L 12.5 75.984375 
L 15.578125 75.984375 
Q 27.734375 75.984375 31.8125 72.390625 
Q 35.890625 68.796875 35.890625 58.015625 
L 35.890625 46.296875 
Q 35.890625 39.015625 38.515625 36.203125 
Q 41.15625 33.40625 48.09375 33.40625 
L 51.125 33.40625 
L 51.125 26.421875 
L 48.09375 26.421875 
Q 41.15625 26.421875 38.515625 23.578125 
Q 35.890625 20.75 35.890625 13.375 
L 35.890625 1.703125 
Q 35.890625 -9.078125 31.8125 -12.6875 
Q 27.734375 -16.3125 15.578125 -16.3125 
L 12.5 -16.3125 
z
" id="DejaVuSans-125"/>
     </defs>
     <use xlink:href="#DejaVuSans-123"/>
     <use x="63.623047" xlink:href="#DejaVuSans-102"/>
     <use x="98.828125" xlink:href="#DejaVuSans-55"/>
     <use x="162.451172" xlink:href="#DejaVuSans-44"/>
     <use x="194.238281" xlink:href="#DejaVuSans-32"/>
     <use x="226.025391" xlink:href="#DejaVuSans-102"/>
     <use x="261.230469" xlink:href="#DejaVuSans-56"/>
     <use x="324.853516" xlink:href="#DejaVuSans-44"/>
     <use x="356.640625" xlink:href="#DejaVuSans-32"/>
     <use x="388.427734" xlink:href="#DejaVuSans-102"/>
     <use x="423.632812" xlink:href="#DejaVuSans-49"/>
     <use x="487.255859" xlink:href="#DejaVuSans-54"/>
     <use x="550.878906" xlink:href="#DejaVuSans-44"/>
     <use x="582.666016" xlink:href="#DejaVuSans-32"/>
     <use x="614.453125" xlink:href="#DejaVuSans-102"/>
     <use x="649.658203" xlink:href="#DejaVuSans-49"/>
     <use x="713.28125" xlink:href="#DejaVuSans-55"/>
     <use x="776.904297" xlink:href="#DejaVuSans-125"/>
     <use x="840.527344" xlink:href="#DejaVuSans-44"/>
     <use x="872.314453" xlink:href="#DejaVuSans-32"/>
     <use x="904.101562" xlink:href="#DejaVuSans-53"/>
     <use x="967.724609" xlink:href="#DejaVuSans-45"/>
     <use x="1003.808594" xlink:href="#DejaVuSans-68"/>
    </g>
   </g>
   <g id="text_7">
    <!-- v2.4, hv-hash=ff0e71e8cd978373 -->
    <g style="fill:#808080;" transform="translate(144.904687 288.777272)scale(0.1 -0.1)">
     <defs>
      <path d="M 2.984375 54.6875 
L 12.5 54.6875 
L 29.59375 8.796875 
L 46.6875 54.6875 
L 56.203125 54.6875 
L 35.6875 0 
L 23.484375 0 
z
" id="DejaVuSans-118"/>
      <path d="M 10.6875 12.40625 
L 21 12.40625 
L 21 0 
L 10.6875 0 
z
" id="DejaVuSans-46"/>
      <path d="M 54.890625 33.015625 
L 54.890625 0 
L 45.90625 0 
L 45.90625 32.71875 
Q 45.90625 40.484375 42.875 44.328125 
Q 39.84375 48.1875 33.796875 48.1875 
Q 26.515625 48.1875 22.3125 43.546875 
Q 18.109375 38.921875 18.109375 30.90625 
L 18.109375 0 
L 9.078125 0 
L 9.078125 75.984375 
L 18.109375 75.984375 
L 18.109375 46.1875 
Q 21.34375 51.125 25.703125 53.5625 
Q 30.078125 56 35.796875 56 
Q 45.21875 56 50.046875 50.171875 
Q 54.890625 44.34375 54.890625 33.015625 
z
" id="DejaVuSans-104"/>
      <path d="M 34.28125 27.484375 
Q 23.390625 27.484375 19.1875 25 
Q 14.984375 22.515625 14.984375 16.5 
Q 14.984375 11.71875 18.140625 8.90625 
Q 21.296875 6.109375 26.703125 6.109375 
Q 34.1875 6.109375 38.703125 11.40625 
Q 43.21875 16.703125 43.21875 25.484375 
L 43.21875 27.484375 
z
M 52.203125 31.203125 
L 52.203125 0 
L 43.21875 0 
L 43.21875 8.296875 
Q 40.140625 3.328125 35.546875 0.953125 
Q 30.953125 -1.421875 24.3125 -1.421875 
Q 15.921875 -1.421875 10.953125 3.296875 
Q 6 8.015625 6 15.921875 
Q 6 25.140625 12.171875 29.828125 
Q 18.359375 34.515625 30.609375 34.515625 
L 43.21875 34.515625 
L 43.21875 35.40625 
Q 43.21875 41.609375 39.140625 45 
Q 35.0625 48.390625 27.6875 48.390625 
Q 23 48.390625 18.546875 47.265625 
Q 14.109375 46.140625 10.015625 43.890625 
L 10.015625 52.203125 
Q 14.9375 54.109375 19.578125 55.046875 
Q 24.21875 56 28.609375 56 
Q 40.484375 56 46.34375 49.84375 
Q 52.203125 43.703125 52.203125 31.203125 
z
" id="DejaVuSans-97"/>
      <path d="M 44.28125 53.078125 
L 44.28125 44.578125 
Q 40.484375 46.53125 36.375 47.5 
Q 32.28125 48.484375 27.875 48.484375 
Q 21.1875 48.484375 17.84375 46.4375 
Q 14.5 44.390625 14.5 40.28125 
Q 14.5 37.15625 16.890625 35.375 
Q 19.28125 33.59375 26.515625 31.984375 
L 29.59375 31.296875 
Q 39.15625 29.25 43.1875 25.515625 
Q 47.21875 21.78125 47.21875 15.09375 
Q 47.21875 7.46875 41.1875 3.015625 
Q 35.15625 -1.421875 24.609375 -1.421875 
Q 20.21875 -1.421875 15.453125 -0.5625 
Q 10.6875 0.296875 5.421875 2 
L 5.421875 11.28125 
Q 10.40625 8.6875 15.234375 7.390625 
Q 20.0625 6.109375 24.8125 6.109375 
Q 31.15625 6.109375 34.5625 8.28125 
Q 37.984375 10.453125 37.984375 14.40625 
Q 37.984375 18.0625 35.515625 20.015625 
Q 33.0625 21.96875 24.703125 23.78125 
L 21.578125 24.515625 
Q 13.234375 26.265625 9.515625 29.90625 
Q 5.8125 33.546875 5.8125 39.890625 
Q 5.8125 47.609375 11.28125 51.796875 
Q 16.75 56 26.8125 56 
Q 31.78125 56 36.171875 55.265625 
Q 40.578125 54.546875 44.28125 53.078125 
z
" id="DejaVuSans-115"/>
      <path d="M 10.59375 45.40625 
L 73.1875 45.40625 
L 73.1875 37.203125 
L 10.59375 37.203125 
z
M 10.59375 25.484375 
L 73.1875 25.484375 
L 73.1875 17.1875 
L 10.59375 17.1875 
z
" id="DejaVuSans-61"/>
      <path d="M 56.203125 29.59375 
L 56.203125 25.203125 
L 14.890625 25.203125 
Q 15.484375 15.921875 20.484375 11.0625 
Q 25.484375 6.203125 34.421875 6.203125 
Q 39.59375 6.203125 44.453125 7.46875 
Q 49.3125 8.734375 54.109375 11.28125 
L 54.109375 2.78125 
Q 49.265625 0.734375 44.1875 -0.34375 
Q 39.109375 -1.421875 33.890625 -1.421875 
Q 20.796875 -1.421875 13.15625 6.1875 
Q 5.515625 13.8125 5.515625 26.8125 
Q 5.515625 40.234375 12.765625 48.109375 
Q 20.015625 56 32.328125 56 
Q 43.359375 56 49.78125 48.890625 
Q 56.203125 41.796875 56.203125 29.59375 
z
M 47.21875 32.234375 
Q 47.125 39.59375 43.09375 43.984375 
Q 39.0625 48.390625 32.421875 48.390625 
Q 24.90625 48.390625 20.390625 44.140625 
Q 15.875 39.890625 15.1875 32.171875 
z
" id="DejaVuSans-101"/>
      <path d="M 48.78125 52.59375 
L 48.78125 44.1875 
Q 44.96875 46.296875 41.140625 47.34375 
Q 37.3125 48.390625 33.40625 48.390625 
Q 24.65625 48.390625 19.8125 42.84375 
Q 14.984375 37.3125 14.984375 27.296875 
Q 14.984375 17.28125 19.8125 11.734375 
Q 24.65625 6.203125 33.40625 6.203125 
Q 37.3125 6.203125 41.140625 7.25 
Q 44.96875 8.296875 48.78125 10.40625 
L 48.78125 2.09375 
Q 45.015625 0.34375 40.984375 -0.53125 
Q 36.96875 -1.421875 32.421875 -1.421875 
Q 20.0625 -1.421875 12.78125 6.34375 
Q 5.515625 14.109375 5.515625 27.296875 
Q 5.515625 40.671875 12.859375 48.328125 
Q 20.21875 56 33.015625 56 
Q 37.15625 56 41.109375 55.140625 
Q 45.0625 54.296875 48.78125 52.59375 
z
" id="DejaVuSans-99"/>
      <path d="M 45.40625 46.390625 
L 45.40625 75.984375 
L 54.390625 75.984375 
L 54.390625 0 
L 45.40625 0 
L 45.40625 8.203125 
Q 42.578125 3.328125 38.25 0.953125 
Q 33.9375 -1.421875 27.875 -1.421875 
Q 17.96875 -1.421875 11.734375 6.484375 
Q 5.515625 14.40625 5.515625 27.296875 
Q 5.515625 40.1875 11.734375 48.09375 
Q 17.96875 56 27.875 56 
Q 33.9375 56 38.25 53.625 
Q 42.578125 51.265625 45.40625 46.390625 
z
M 14.796875 27.296875 
Q 14.796875 17.390625 18.875 11.75 
Q 22.953125 6.109375 30.078125 6.109375 
Q 37.203125 6.109375 41.296875 11.75 
Q 45.40625 17.390625 45.40625 27.296875 
Q 45.40625 37.203125 41.296875 42.84375 
Q 37.203125 48.484375 30.078125 48.484375 
Q 22.953125 48.484375 18.875 42.84375 
Q 14.796875 37.203125 14.796875 27.296875 
z
" id="DejaVuSans-100"/>
      <path d="M 10.984375 1.515625 
L 10.984375 10.5 
Q 14.703125 8.734375 18.5 7.8125 
Q 22.3125 6.890625 25.984375 6.890625 
Q 35.75 6.890625 40.890625 13.453125 
Q 46.046875 20.015625 46.78125 33.40625 
Q 43.953125 29.203125 39.59375 26.953125 
Q 35.25 24.703125 29.984375 24.703125 
Q 19.046875 24.703125 12.671875 31.3125 
Q 6.296875 37.9375 6.296875 49.421875 
Q 6.296875 60.640625 12.9375 67.421875 
Q 19.578125 74.21875 30.609375 74.21875 
Q 43.265625 74.21875 49.921875 64.515625 
Q 56.59375 54.828125 56.59375 36.375 
Q 56.59375 19.140625 48.40625 8.859375 
Q 40.234375 -1.421875 26.421875 -1.421875 
Q 22.703125 -1.421875 18.890625 -0.6875 
Q 15.09375 0.046875 10.984375 1.515625 
z
M 30.609375 32.421875 
Q 37.25 32.421875 41.125 36.953125 
Q 45.015625 41.5 45.015625 49.421875 
Q 45.015625 57.28125 41.125 61.84375 
Q 37.25 66.40625 30.609375 66.40625 
Q 23.96875 66.40625 20.09375 61.84375 
Q 16.21875 57.28125 16.21875 49.421875 
Q 16.21875 41.5 20.09375 36.953125 
Q 23.96875 32.421875 30.609375 32.421875 
z
" id="DejaVuSans-57"/>
      <path d="M 40.578125 39.3125 
Q 47.65625 37.796875 51.625 33 
Q 55.609375 28.21875 55.609375 21.1875 
Q 55.609375 10.40625 48.1875 4.484375 
Q 40.765625 -1.421875 27.09375 -1.421875 
Q 22.515625 -1.421875 17.65625 -0.515625 
Q 12.796875 0.390625 7.625 2.203125 
L 7.625 11.71875 
Q 11.71875 9.328125 16.59375 8.109375 
Q 21.484375 6.890625 26.8125 6.890625 
Q 36.078125 6.890625 40.9375 10.546875 
Q 45.796875 14.203125 45.796875 21.1875 
Q 45.796875 27.640625 41.28125 31.265625 
Q 36.765625 34.90625 28.71875 34.90625 
L 20.21875 34.90625 
L 20.21875 43.015625 
L 29.109375 43.015625 
Q 36.375 43.015625 40.234375 45.921875 
Q 44.09375 48.828125 44.09375 54.296875 
Q 44.09375 59.90625 40.109375 62.90625 
Q 36.140625 65.921875 28.71875 65.921875 
Q 24.65625 65.921875 20.015625 65.03125 
Q 15.375 64.15625 9.8125 62.3125 
L 9.8125 71.09375 
Q 15.4375 72.65625 20.34375 73.4375 
Q 25.25 74.21875 29.59375 74.21875 
Q 40.828125 74.21875 47.359375 69.109375 
Q 53.90625 64.015625 53.90625 55.328125 
Q 53.90625 49.265625 50.4375 45.09375 
Q 46.96875 40.921875 40.578125 39.3125 
z
" id="DejaVuSans-51"/>
     </defs>
     <use xlink:href="#DejaVuSans-118"/>
     <use x="59.179688" xlink:href="#DejaVuSans-50"/>
     <use x="122.802734" xlink:href="#DejaVuSans-46"/>
     <use x="154.589844" xlink:href="#DejaVuSans-52"/>
     <use x="218.212891" xlink:href="#DejaVuSans-44"/>
     <use x="250" xlink:href="#DejaVuSans-32"/>
     <use x="281.787109" xlink:href="#DejaVuSans-104"/>
     <use x="345.166016" xlink:href="#DejaVuSans-118"/>
     <use x="401.720703" xlink:href="#DejaVuSans-45"/>
     <use x="437.804688" xlink:href="#DejaVuSans-104"/>
     <use x="501.183594" xlink:href="#DejaVuSans-97"/>
     <use x="562.462891" xlink:href="#DejaVuSans-115"/>
     <use x="614.5625" xlink:href="#DejaVuSans-104"/>
     <use x="677.941406" xlink:href="#DejaVuSans-61"/>
     <use x="761.730469" xlink:href="#DejaVuSans-102"/>
     <use x="796.935547" xlink:href="#DejaVuSans-102"/>
     <use x="832.140625" xlink:href="#DejaVuSans-48"/>
     <use x="895.763672" xlink:href="#DejaVuSans-101"/>
     <use x="957.287109" xlink:href="#DejaVuSans-55"/>
     <use x="1020.910156" xlink:href="#DejaVuSans-49"/>
     <use x="1084.533203" xlink:href="#DejaVuSans-101"/>
     <use x="1146.056641" xlink:href="#DejaVuSans-56"/>
     <use x="1209.679688" xlink:href="#DejaVuSans-99"/>
     <use x="1264.660156" xlink:href="#DejaVuSans-100"/>
     <use x="1328.136719" xlink:href="#DejaVuSans-57"/>
     <use x="1391.759766" xlink:href="#DejaVuSans-55"/>
     <use x="1455.382812" xlink:href="#DejaVuSans-56"/>
     <use x="1519.005859" xlink:href="#DejaVuSans-51"/>
     <use x="1582.628906" xlink:href="#DejaVuSans-55"/>
     <use x="1646.251953" xlink:href="#DejaVuSans-51"/>
    </g>
   </g>
  </g>
 </g>
 <defs>
  <clipPath id="p2124a23c03">
   <rect height="290.304" width="460.8" x="0" y="3.456"/>
  </clipPath>
 </defs>
</svg>
