<?xml version="1.0" encoding="utf-8" standalone="no"?>
<!DOCTYPE svg PUBLIC "-//W3C//DTD SVG 1.1//EN"
  "http://www.w3.org/Graphics/SVG/1.1/DTD/svg11.dtd">
<!-- Created with matplotlib (https://matplotlib.org/) -->
<svg height="345.6pt" version="1.1" viewBox="0 0 460.8 345.6" width="460.8pt" xmlns="http://www.w3.org/2000/svg" xmlns:xlink="http://www.w3.org/1999/xlink">
 <metadata>
  <rdf:RDF xmlns:cc="http://creativecommons.org/ns#" xmlns:dc="http://purl.org/dc/elements/1.1/" xmlns:rdf="http://www.w3.org/1999/02/22-rdf-syntax-ns#">
   <cc:Work>
    <dc:type rdf:resource="http://purl.org/dc/dcmitype/StillImage"/>
    <dc:date>2021-03-30T16:53:51.246940</dc:date>
    <dc:format>image/svg+xml</dc:format>
    <dc:creator>
     <cc:Agent>
      <dc:title>Matplotlib v3.3.4, https://matplotlib.org/</dc:title>
     </cc:Agent>
    </dc:creator>
   </cc:Work>
  </rdf:RDF>
 </metadata>
 <defs>
  <style type="text/css">*{stroke-linecap:butt;stroke-linejoin:round;}</style>
 </defs>
 <g id="figure_1">
  <g id="patch_1">
   <path d="M 0 345.6 
L 460.8 345.6 
L 460.8 0 
L 0 0 
z
" style="fill:#ffffff;"/>
  </g>
  <g id="axes_1">
   <g id="patch_2">
    <path d="M 0 293.76 
L 460.8 293.76 
L 460.8 3.456 
L 0 3.456 
z
" style="fill:#ffffff;"/>
   </g>
   <g id="matplotlib.axis_1">
    <g id="xtick_1">
     <g id="line2d_1">
      <path clip-path="url(#p8d605c2bfc)" d="M 93.931861 293.76 
L 93.931861 3.456 
" style="fill:none;stroke:#b0b0b0;stroke-linecap:square;stroke-width:0.8;"/>
     </g>
     <g id="line2d_2">
      <defs>
       <path d="M 0 0 
L 0 3.5 
" id="mb8105041e7" style="stroke:#000000;stroke-width:0.8;"/>
      </defs>
      <g>
       <use style="stroke:#000000;stroke-width:0.8;" x="93.931861" xlink:href="#mb8105041e7" y="293.76"/>
      </g>
     </g>
     <g id="text_1">
      <!-- -6 -->
      <g transform="translate(83.961548 315.956875)scale(0.2 -0.2)">
       <defs>
        <path d="M 4.890625 31.390625 
L 31.203125 31.390625 
L 31.203125 23.390625 
L 4.890625 23.390625 
z
" id="DejaVuSans-45"/>
        <path d="M 33.015625 40.375 
Q 26.375 40.375 22.484375 35.828125 
Q 18.609375 31.296875 18.609375 23.390625 
Q 18.609375 15.53125 22.484375 10.953125 
Q 26.375 6.390625 33.015625 6.390625 
Q 39.65625 6.390625 43.53125 10.953125 
Q 47.40625 15.53125 47.40625 23.390625 
Q 47.40625 31.296875 43.53125 35.828125 
Q 39.65625 40.375 33.015625 40.375 
z
M 52.59375 71.296875 
L 52.59375 62.3125 
Q 48.875 64.0625 45.09375 64.984375 
Q 41.3125 65.921875 37.59375 65.921875 
Q 27.828125 65.921875 22.671875 59.328125 
Q 17.53125 52.734375 16.796875 39.40625 
Q 19.671875 43.65625 24.015625 45.921875 
Q 28.375 48.1875 33.59375 48.1875 
Q 44.578125 48.1875 50.953125 41.515625 
Q 57.328125 34.859375 57.328125 23.390625 
Q 57.328125 12.15625 50.6875 5.359375 
Q 44.046875 -1.421875 33.015625 -1.421875 
Q 20.359375 -1.421875 13.671875 8.265625 
Q 6.984375 17.96875 6.984375 36.375 
Q 6.984375 53.65625 15.1875 63.9375 
Q 23.390625 74.21875 37.203125 74.21875 
Q 40.921875 74.21875 44.703125 73.484375 
Q 48.484375 72.75 52.59375 71.296875 
z
" id="DejaVuSans-54"/>
       </defs>
       <use xlink:href="#DejaVuSans-45"/>
       <use x="36.083984" xlink:href="#DejaVuSans-54"/>
      </g>
     </g>
    </g>
    <g id="xtick_2">
     <g id="line2d_3">
      <path clip-path="url(#p8d605c2bfc)" d="M 188.067118 293.76 
L 188.067118 3.456 
" style="fill:none;stroke:#b0b0b0;stroke-linecap:square;stroke-width:0.8;"/>
     </g>
     <g id="line2d_4">
      <g>
       <use style="stroke:#000000;stroke-width:0.8;" x="188.067118" xlink:href="#mb8105041e7" y="293.76"/>
      </g>
     </g>
     <g id="text_2">
      <!-- -4 -->
      <g transform="translate(178.096805 315.956875)scale(0.2 -0.2)">
       <defs>
        <path d="M 37.796875 64.3125 
L 12.890625 25.390625 
L 37.796875 25.390625 
z
M 35.203125 72.90625 
L 47.609375 72.90625 
L 47.609375 25.390625 
L 58.015625 25.390625 
L 58.015625 17.1875 
L 47.609375 17.1875 
L 47.609375 0 
L 37.796875 0 
L 37.796875 17.1875 
L 4.890625 17.1875 
L 4.890625 26.703125 
z
" id="DejaVuSans-52"/>
       </defs>
       <use xlink:href="#DejaVuSans-45"/>
       <use x="36.083984" xlink:href="#DejaVuSans-52"/>
      </g>
     </g>
    </g>
    <g id="xtick_3">
     <g id="line2d_5">
      <path clip-path="url(#p8d605c2bfc)" d="M 282.202375 293.76 
L 282.202375 3.456 
" style="fill:none;stroke:#b0b0b0;stroke-linecap:square;stroke-width:0.8;"/>
     </g>
     <g id="line2d_6">
      <g>
       <use style="stroke:#000000;stroke-width:0.8;" x="282.202375" xlink:href="#mb8105041e7" y="293.76"/>
      </g>
     </g>
     <g id="text_3">
      <!-- -2 -->
      <g transform="translate(272.232063 315.956875)scale(0.2 -0.2)">
       <defs>
        <path d="M 19.1875 8.296875 
L 53.609375 8.296875 
L 53.609375 0 
L 7.328125 0 
L 7.328125 8.296875 
Q 12.9375 14.109375 22.625 23.890625 
Q 32.328125 33.6875 34.8125 36.53125 
Q 39.546875 41.84375 41.421875 45.53125 
Q 43.3125 49.21875 43.3125 52.78125 
Q 43.3125 58.59375 39.234375 62.25 
Q 35.15625 65.921875 28.609375 65.921875 
Q 23.96875 65.921875 18.8125 64.3125 
Q 13.671875 62.703125 7.8125 59.421875 
L 7.8125 69.390625 
Q 13.765625 71.78125 18.9375 73 
Q 24.125 74.21875 28.421875 74.21875 
Q 39.75 74.21875 46.484375 68.546875 
Q 53.21875 62.890625 53.21875 53.421875 
Q 53.21875 48.921875 51.53125 44.890625 
Q 49.859375 40.875 45.40625 35.40625 
Q 44.1875 33.984375 37.640625 27.21875 
Q 31.109375 20.453125 19.1875 8.296875 
z
" id="DejaVuSans-50"/>
       </defs>
       <use xlink:href="#DejaVuSans-45"/>
       <use x="36.083984" xlink:href="#DejaVuSans-50"/>
      </g>
     </g>
    </g>
    <g id="xtick_4">
     <g id="line2d_7">
      <path clip-path="url(#p8d605c2bfc)" d="M 376.337633 293.76 
L 376.337633 3.456 
" style="fill:none;stroke:#b0b0b0;stroke-linecap:square;stroke-width:0.8;"/>
     </g>
     <g id="line2d_8">
      <g>
       <use style="stroke:#000000;stroke-width:0.8;" x="376.337633" xlink:href="#mb8105041e7" y="293.76"/>
      </g>
     </g>
     <g id="text_4">
      <!-- 0 -->
      <g transform="translate(369.975133 315.956875)scale(0.2 -0.2)">
       <defs>
        <path d="M 31.78125 66.40625 
Q 24.171875 66.40625 20.328125 58.90625 
Q 16.5 51.421875 16.5 36.375 
Q 16.5 21.390625 20.328125 13.890625 
Q 24.171875 6.390625 31.78125 6.390625 
Q 39.453125 6.390625 43.28125 13.890625 
Q 47.125 21.390625 47.125 36.375 
Q 47.125 51.421875 43.28125 58.90625 
Q 39.453125 66.40625 31.78125 66.40625 
z
M 31.78125 74.21875 
Q 44.046875 74.21875 50.515625 64.515625 
Q 56.984375 54.828125 56.984375 36.375 
Q 56.984375 17.96875 50.515625 8.265625 
Q 44.046875 -1.421875 31.78125 -1.421875 
Q 19.53125 -1.421875 13.0625 8.265625 
Q 6.59375 17.96875 6.59375 36.375 
Q 6.59375 54.828125 13.0625 64.515625 
Q 19.53125 74.21875 31.78125 74.21875 
z
" id="DejaVuSans-48"/>
       </defs>
       <use xlink:href="#DejaVuSans-48"/>
      </g>
     </g>
    </g>
    <g id="text_5">
     <!-- log10 of Df -->
     <g transform="translate(175.214063 339.313125)scale(0.2 -0.2)">
      <defs>
       <path d="M 9.421875 75.984375 
L 18.40625 75.984375 
L 18.40625 0 
L 9.421875 0 
z
" id="DejaVuSans-108"/>
       <path d="M 30.609375 48.390625 
Q 23.390625 48.390625 19.1875 42.75 
Q 14.984375 37.109375 14.984375 27.296875 
Q 14.984375 17.484375 19.15625 11.84375 
Q 23.34375 6.203125 30.609375 6.203125 
Q 37.796875 6.203125 41.984375 11.859375 
Q 46.1875 17.53125 46.1875 27.296875 
Q 46.1875 37.015625 41.984375 42.703125 
Q 37.796875 48.390625 30.609375 48.390625 
z
M 30.609375 56 
Q 42.328125 56 49.015625 48.375 
Q 55.71875 40.765625 55.71875 27.296875 
Q 55.71875 13.875 49.015625 6.21875 
Q 42.328125 -1.421875 30.609375 -1.421875 
Q 18.84375 -1.421875 12.171875 6.21875 
Q 5.515625 13.875 5.515625 27.296875 
Q 5.515625 40.765625 12.171875 48.375 
Q 18.84375 56 30.609375 56 
z
" id="DejaVuSans-111"/>
       <path d="M 45.40625 27.984375 
Q 45.40625 37.75 41.375 43.109375 
Q 37.359375 48.484375 30.078125 48.484375 
Q 22.859375 48.484375 18.828125 43.109375 
Q 14.796875 37.75 14.796875 27.984375 
Q 14.796875 18.265625 18.828125 12.890625 
Q 22.859375 7.515625 30.078125 7.515625 
Q 37.359375 7.515625 41.375 12.890625 
Q 45.40625 18.265625 45.40625 27.984375 
z
M 54.390625 6.78125 
Q 54.390625 -7.171875 48.1875 -13.984375 
Q 42 -20.796875 29.203125 -20.796875 
Q 24.46875 -20.796875 20.265625 -20.09375 
Q 16.0625 -19.390625 12.109375 -17.921875 
L 12.109375 -9.1875 
Q 16.0625 -11.328125 19.921875 -12.34375 
Q 23.78125 -13.375 27.78125 -13.375 
Q 36.625 -13.375 41.015625 -8.765625 
Q 45.40625 -4.15625 45.40625 5.171875 
L 45.40625 9.625 
Q 42.625 4.78125 38.28125 2.390625 
Q 33.9375 0 27.875 0 
Q 17.828125 0 11.671875 7.65625 
Q 5.515625 15.328125 5.515625 27.984375 
Q 5.515625 40.671875 11.671875 48.328125 
Q 17.828125 56 27.875 56 
Q 33.9375 56 38.28125 53.609375 
Q 42.625 51.21875 45.40625 46.390625 
L 45.40625 54.6875 
L 54.390625 54.6875 
z
" id="DejaVuSans-103"/>
       <path d="M 12.40625 8.296875 
L 28.515625 8.296875 
L 28.515625 63.921875 
L 10.984375 60.40625 
L 10.984375 69.390625 
L 28.421875 72.90625 
L 38.28125 72.90625 
L 38.28125 8.296875 
L 54.390625 8.296875 
L 54.390625 0 
L 12.40625 0 
z
" id="DejaVuSans-49"/>
       <path id="DejaVuSans-32"/>
       <path d="M 37.109375 75.984375 
L 37.109375 68.5 
L 28.515625 68.5 
Q 23.6875 68.5 21.796875 66.546875 
Q 19.921875 64.59375 19.921875 59.515625 
L 19.921875 54.6875 
L 34.71875 54.6875 
L 34.71875 47.703125 
L 19.921875 47.703125 
L 19.921875 0 
L 10.890625 0 
L 10.890625 47.703125 
L 2.296875 47.703125 
L 2.296875 54.6875 
L 10.890625 54.6875 
L 10.890625 58.5 
Q 10.890625 67.625 15.140625 71.796875 
Q 19.390625 75.984375 28.609375 75.984375 
z
" id="DejaVuSans-102"/>
       <path d="M 19.671875 64.796875 
L 19.671875 8.109375 
L 31.59375 8.109375 
Q 46.6875 8.109375 53.6875 14.9375 
Q 60.6875 21.78125 60.6875 36.53125 
Q 60.6875 51.171875 53.6875 57.984375 
Q 46.6875 64.796875 31.59375 64.796875 
z
M 9.8125 72.90625 
L 30.078125 72.90625 
Q 51.265625 72.90625 61.171875 64.09375 
Q 71.09375 55.28125 71.09375 36.53125 
Q 71.09375 17.671875 61.125 8.828125 
Q 51.171875 0 30.078125 0 
L 9.8125 0 
z
" id="DejaVuSans-68"/>
      </defs>
      <use xlink:href="#DejaVuSans-108"/>
      <use x="27.783203" xlink:href="#DejaVuSans-111"/>
      <use x="88.964844" xlink:href="#DejaVuSans-103"/>
      <use x="152.441406" xlink:href="#DejaVuSans-49"/>
      <use x="216.064453" xlink:href="#DejaVuSans-48"/>
      <use x="279.6875" xlink:href="#DejaVuSans-32"/>
      <use x="311.474609" xlink:href="#DejaVuSans-111"/>
      <use x="372.65625" xlink:href="#DejaVuSans-102"/>
      <use x="407.861328" xlink:href="#DejaVuSans-32"/>
      <use x="439.648438" xlink:href="#DejaVuSans-68"/>
      <use x="516.650391" xlink:href="#DejaVuSans-102"/>
     </g>
    </g>
   </g>
   <g id="matplotlib.axis_2">
    <g id="ytick_1">
     <g id="line2d_9">
      <path clip-path="url(#p8d605c2bfc)" d="M 0 293.76 
L 460.8 293.76 
" style="fill:none;stroke:#b0b0b0;stroke-linecap:square;stroke-width:0.8;"/>
     </g>
     <g id="line2d_10">
      <defs>
       <path d="M 0 0 
L -3.5 0 
" id="mdcc198f83d" style="stroke:#000000;stroke-width:0.8;"/>
      </defs>
      <g>
       <use style="stroke:#000000;stroke-width:0.8;" x="0" xlink:href="#mdcc198f83d" y="293.76"/>
      </g>
     </g>
    </g>
    <g id="ytick_2">
     <g id="line2d_11">
      <path clip-path="url(#p8d605c2bfc)" d="M 0 236.274059 
L 460.8 236.274059 
" style="fill:none;stroke:#b0b0b0;stroke-linecap:square;stroke-width:0.8;"/>
     </g>
     <g id="line2d_12">
      <g>
       <use style="stroke:#000000;stroke-width:0.8;" x="0" xlink:href="#mdcc198f83d" y="236.274059"/>
      </g>
     </g>
    </g>
    <g id="ytick_3">
     <g id="line2d_13">
      <path clip-path="url(#p8d605c2bfc)" d="M 0 178.788119 
L 460.8 178.788119 
" style="fill:none;stroke:#b0b0b0;stroke-linecap:square;stroke-width:0.8;"/>
     </g>
     <g id="line2d_14">
      <g>
       <use style="stroke:#000000;stroke-width:0.8;" x="0" xlink:href="#mdcc198f83d" y="178.788119"/>
      </g>
     </g>
    </g>
    <g id="ytick_4">
     <g id="line2d_15">
      <path clip-path="url(#p8d605c2bfc)" d="M 0 121.302178 
L 460.8 121.302178 
" style="fill:none;stroke:#b0b0b0;stroke-linecap:square;stroke-width:0.8;"/>
     </g>
     <g id="line2d_16">
      <g>
       <use style="stroke:#000000;stroke-width:0.8;" x="0" xlink:href="#mdcc198f83d" y="121.302178"/>
      </g>
     </g>
    </g>
    <g id="ytick_5">
     <g id="line2d_17">
      <path clip-path="url(#p8d605c2bfc)" d="M 0 63.816238 
L 460.8 63.816238 
" style="fill:none;stroke:#b0b0b0;stroke-linecap:square;stroke-width:0.8;"/>
     </g>
     <g id="line2d_18">
      <g>
       <use style="stroke:#000000;stroke-width:0.8;" x="0" xlink:href="#mdcc198f83d" y="63.816238"/>
      </g>
     </g>
    </g>
    <g id="ytick_6">
     <g id="line2d_19">
      <path clip-path="url(#p8d605c2bfc)" d="M 0 6.330297 
L 460.8 6.330297 
" style="fill:none;stroke:#b0b0b0;stroke-linecap:square;stroke-width:0.8;"/>
     </g>
     <g id="line2d_20">
      <g>
       <use style="stroke:#000000;stroke-width:0.8;" x="0" xlink:href="#mdcc198f83d" y="6.330297"/>
      </g>
     </g>
    </g>
   </g>
   <g id="line2d_21">
    <path clip-path="url(#p8d605c2bfc)" d="M 138.272957 293.76 
L 138.272957 286.574257 
L 139.117813 286.574257 
L 139.117813 279.388515 
L 139.124911 279.388515 
L 139.124911 272.202772 
L 139.380665 272.202772 
L 139.380665 265.01703 
L 139.453051 265.01703 
L 139.453051 257.831287 
L 139.918779 257.831287 
L 139.918779 250.645545 
L 139.999431 250.645545 
L 139.999431 243.459802 
L 145.498008 243.459802 
L 145.498008 236.274059 
L 160.517692 236.274059 
L 160.517692 229.088317 
L 162.933555 229.088317 
L 162.933555 221.902574 
L 163.830348 221.902574 
L 163.830348 214.716832 
L 167.140864 214.716832 
L 167.140864 207.531089 
L 171.11981 207.531089 
L 171.11981 200.345347 
L 172.330974 200.345347 
L 172.330974 193.159604 
L 172.41507 193.159604 
L 172.41507 185.973861 
L 172.436796 185.973861 
L 172.436796 178.788119 
L 174.246279 178.788119 
L 174.246279 171.602376 
L 209.188268 171.602376 
L 209.188268 164.416634 
L 221.188762 164.416634 
L 221.188762 157.230891 
L 234.864245 157.230891 
L 234.864245 150.045149 
L 268.251544 150.045149 
L 268.251544 142.859406 
L 283.143544 142.859406 
L 283.143544 135.673663 
L 286.696537 135.673663 
L 286.696537 128.487921 
L 288.034061 128.487921 
L 288.034061 121.302178 
L 288.53874 121.302178 
L 288.53874 114.116436 
L 288.806634 114.116436 
L 288.806634 106.930693 
L 289.269501 106.930693 
L 289.269501 99.74495 
L 291.211745 99.74495 
L 291.211745 92.559208 
L 297.446761 92.559208 
L 297.446761 85.373465 
L 304.004046 85.373465 
L 304.004046 78.187723 
L 304.152649 78.187723 
L 304.152649 71.00198 
L 304.511631 71.00198 
L 304.511631 63.816238 
L 305.868865 63.816238 
L 305.868865 56.630495 
L 307.670115 56.630495 
L 307.670115 49.444752 
L 308.834318 49.444752 
L 308.834318 42.25901 
L 309.096907 42.25901 
L 309.096907 35.073267 
L 311.61348 35.073267 
L 311.61348 27.887525 
L 318.823223 27.887525 
L 318.823223 20.701782 
L 319.57446 20.701782 
L 319.57446 13.51604 
L 319.709091 13.51604 
L 319.709091 6.330297 
L 319.709091 6.330297 
L 319.709091 6.330297 
L 460.8 6.330297 
" style="fill:none;stroke:#ff0000;stroke-linecap:square;stroke-width:3;"/>
   </g>
   <g id="line2d_22">
    <path clip-path="url(#p8d605c2bfc)" d="M 368.935755 293.76 
L 368.935755 286.574257 
L 372.103226 286.574257 
L 372.103226 279.388515 
L 372.631788 279.388515 
L 372.631788 272.202772 
L 373.708523 272.202772 
L 373.708523 265.01703 
L 374.26074 265.01703 
L 374.26074 257.831287 
L 374.878839 257.831287 
L 374.878839 250.645545 
L 375.238151 250.645545 
L 375.238151 243.459802 
L 375.321022 243.459802 
L 375.321022 236.274059 
L 376.165325 236.274059 
L 376.165325 229.088317 
L 376.328763 229.088317 
L 376.328763 221.902574 
L 377.144097 221.902574 
L 377.144097 214.716832 
L 378.149052 214.716832 
L 378.149052 207.531089 
L 378.211895 207.531089 
L 378.211895 200.345347 
L 378.663653 200.345347 
L 378.663653 193.159604 
L 378.675094 193.159604 
L 378.675094 185.973861 
L 379.483603 185.973861 
L 379.483603 178.788119 
L 379.492945 178.788119 
L 379.492945 171.602376 
L 379.495562 171.602376 
L 379.495562 164.416634 
L 380.077188 164.416634 
L 380.077188 157.230891 
L 380.316515 157.230891 
L 380.316515 150.045149 
L 381.518142 150.045149 
L 381.518142 142.859406 
L 381.946164 142.859406 
L 381.946164 135.673663 
L 382.6771 135.673663 
L 382.6771 128.487921 
L 383.442983 128.487921 
L 383.442983 121.302178 
L 386.155358 121.302178 
L 386.155358 114.116436 
L 386.236171 114.116436 
L 386.236171 106.930693 
L 386.987771 106.930693 
L 386.987771 99.74495 
L 388.676389 99.74495 
L 388.676389 92.559208 
L 390.723478 92.559208 
L 390.723478 85.373465 
L 390.919915 85.373465 
L 390.919915 78.187723 
L 391.249275 78.187723 
L 391.249275 71.00198 
L 391.470647 71.00198 
L 391.470647 63.816238 
L 392.447595 63.816238 
L 392.447595 56.630495 
L 394.788339 56.630495 
L 394.788339 49.444752 
L 399.810448 49.444752 
L 399.810448 42.25901 
L 401.462962 42.25901 
L 401.462962 35.073267 
L 405.662114 35.073267 
L 405.662114 27.887525 
L 408.214807 27.887525 
L 408.214807 20.701782 
L 408.936346 20.701782 
L 408.936346 13.51604 
L 410.715446 13.51604 
L 410.715446 6.330297 
L 410.715446 6.330297 
L 410.715446 6.330297 
L 460.8 6.330297 
" style="fill:none;stroke:#00bfbf;stroke-linecap:square;stroke-width:1.5;"/>
   </g>
   <g id="line2d_23">
    <path clip-path="url(#p8d605c2bfc)" d="M 368.935755 293.76 
L 368.935755 286.574257 
L 372.103226 286.574257 
L 372.103226 279.388515 
L 372.631788 279.388515 
L 372.631788 272.202772 
L 373.708523 272.202772 
L 373.708523 265.01703 
L 374.26074 265.01703 
L 374.26074 257.831287 
L 374.878839 257.831287 
L 374.878839 250.645545 
L 375.238151 250.645545 
L 375.238151 243.459802 
L 375.321022 243.459802 
L 375.321022 236.274059 
L 376.165325 236.274059 
L 376.165325 229.088317 
L 376.328763 229.088317 
L 376.328763 221.902574 
L 377.144097 221.902574 
L 377.144097 214.716832 
L 378.149052 214.716832 
L 378.149052 207.531089 
L 378.211895 207.531089 
L 378.211895 200.345347 
L 378.663653 200.345347 
L 378.663653 193.159604 
L 378.675094 193.159604 
L 378.675094 185.973861 
L 379.483603 185.973861 
L 379.483603 178.788119 
L 379.492945 178.788119 
L 379.492945 171.602376 
L 379.495562 171.602376 
L 379.495562 164.416634 
L 380.077188 164.416634 
L 380.077188 157.230891 
L 380.316515 157.230891 
L 380.316515 150.045149 
L 381.518142 150.045149 
L 381.518142 142.859406 
L 381.946164 142.859406 
L 381.946164 135.673663 
L 382.6771 135.673663 
L 382.6771 128.487921 
L 383.442983 128.487921 
L 383.442983 121.302178 
L 386.155358 121.302178 
L 386.155358 114.116436 
L 386.236171 114.116436 
L 386.236171 106.930693 
L 386.987771 106.930693 
L 386.987771 99.74495 
L 388.676389 99.74495 
L 388.676389 92.559208 
L 390.723478 92.559208 
L 390.723478 85.373465 
L 390.919915 85.373465 
L 390.919915 78.187723 
L 391.249275 78.187723 
L 391.249275 71.00198 
L 391.470647 71.00198 
L 391.470647 63.816238 
L 392.447595 63.816238 
L 392.447595 56.630495 
L 394.788339 56.630495 
L 394.788339 49.444752 
L 399.810448 49.444752 
L 399.810448 42.25901 
L 401.462962 42.25901 
L 401.462962 35.073267 
L 405.662114 35.073267 
L 405.662114 27.887525 
L 408.214807 27.887525 
L 408.214807 20.701782 
L 408.936346 20.701782 
L 408.936346 13.51604 
L 410.715446 13.51604 
L 410.715446 6.330297 
L 410.715446 6.330297 
L 410.715446 6.330297 
L 460.8 6.330297 
" style="fill:none;stroke:#bf00bf;stroke-linecap:square;stroke-width:1.5;"/>
   </g>
   <g id="line2d_24">
    <path clip-path="url(#p8d605c2bfc)" d="M 368.924071 293.76 
L 368.924071 286.574257 
L 372.077155 286.574257 
L 372.077155 279.388515 
L 372.597733 279.388515 
L 372.597733 272.202772 
L 373.692563 272.202772 
L 373.692563 265.01703 
L 374.245425 265.01703 
L 374.245425 257.831287 
L 374.836352 257.831287 
L 374.836352 250.645545 
L 375.20384 250.645545 
L 375.20384 243.459802 
L 375.291431 243.459802 
L 375.291431 236.274059 
L 376.125084 236.274059 
L 376.125084 229.088317 
L 376.285829 229.088317 
L 376.285829 221.902574 
L 377.105664 221.902574 
L 377.105664 214.716832 
L 378.122904 214.716832 
L 378.122904 207.531089 
L 378.186261 207.531089 
L 378.186261 200.345347 
L 378.623542 200.345347 
L 378.623542 193.159604 
L 378.657369 193.159604 
L 378.657369 185.973861 
L 379.434462 185.973861 
L 379.434462 178.788119 
L 379.436082 178.788119 
L 379.436082 171.602376 
L 379.477446 171.602376 
L 379.477446 164.416634 
L 380.038894 164.416634 
L 380.038894 157.230891 
L 380.214324 157.230891 
L 380.214324 150.045149 
L 381.482215 150.045149 
L 381.482215 142.859406 
L 381.915588 142.859406 
L 381.915588 135.673663 
L 382.596145 135.673663 
L 382.596145 128.487921 
L 383.409899 128.487921 
L 383.409899 121.302178 
L 386.119143 121.302178 
L 386.119143 114.116436 
L 386.168227 114.116436 
L 386.168227 106.930693 
L 386.935315 106.930693 
L 386.935315 99.74495 
L 388.637863 99.74495 
L 388.637863 92.559208 
L 390.588876 92.559208 
L 390.588876 85.373465 
L 390.843103 85.373465 
L 390.843103 78.187723 
L 391.143535 78.187723 
L 391.143535 71.00198 
L 391.435463 71.00198 
L 391.435463 63.816238 
L 392.394678 63.816238 
L 392.394678 56.630495 
L 394.685792 56.630495 
L 394.685792 49.444752 
L 399.737044 49.444752 
L 399.737044 42.25901 
L 401.383169 42.25901 
L 401.383169 35.073267 
L 405.527612 35.073267 
L 405.527612 27.887525 
L 408.139965 27.887525 
L 408.139965 20.701782 
L 408.871406 20.701782 
L 408.871406 13.51604 
L 410.616383 13.51604 
L 410.616383 6.330297 
L 410.616383 6.330297 
L 410.616383 6.330297 
L 460.8 6.330297 
" style="fill:none;stroke:#000000;stroke-linecap:square;stroke-width:1.5;"/>
   </g>
   <g id="line2d_25">
    <path clip-path="url(#p8d605c2bfc)" d="M 367.553157 293.76 
L 367.553157 286.574257 
L 369.061847 286.574257 
L 369.061847 279.388515 
L 369.52606 279.388515 
L 369.52606 272.202772 
L 370.199911 272.202772 
L 370.199911 265.01703 
L 370.544911 265.01703 
L 370.544911 257.831287 
L 371.615452 257.831287 
L 371.615452 250.645545 
L 372.406258 250.645545 
L 372.406258 243.459802 
L 372.655027 243.459802 
L 372.655027 236.274059 
L 373.780837 236.274059 
L 373.780837 229.088317 
L 374.043227 229.088317 
L 374.043227 221.902574 
L 374.052954 221.902574 
L 374.052954 214.716832 
L 374.347528 214.716832 
L 374.347528 207.531089 
L 374.80118 207.531089 
L 374.80118 200.345347 
L 374.934868 200.345347 
L 374.934868 193.159604 
L 375.616705 193.159604 
L 375.616705 185.973861 
L 375.746342 185.973861 
L 375.746342 178.788119 
L 375.815782 178.788119 
L 375.815782 171.602376 
L 376.781001 171.602376 
L 376.781001 164.416634 
L 377.068742 164.416634 
L 377.068742 157.230891 
L 377.383454 157.230891 
L 377.383454 150.045149 
L 377.843047 150.045149 
L 377.843047 142.859406 
L 378.192291 142.859406 
L 378.192291 135.673663 
L 378.372418 135.673663 
L 378.372418 128.487921 
L 379.108836 128.487921 
L 379.108836 121.302178 
L 379.168084 121.302178 
L 379.168084 114.116436 
L 380.435946 114.116436 
L 380.435946 106.930693 
L 380.929945 106.930693 
L 380.929945 99.74495 
L 381.517043 99.74495 
L 381.517043 92.559208 
L 382.81059 92.559208 
L 382.81059 85.373465 
L 383.663347 85.373465 
L 383.663347 78.187723 
L 385.724594 78.187723 
L 385.724594 71.00198 
L 385.861432 71.00198 
L 385.861432 63.816238 
L 387.506777 63.816238 
L 387.506777 56.630495 
L 388.214419 56.630495 
L 388.214419 49.444752 
L 393.286579 49.444752 
L 393.286579 42.25901 
L 394.551795 42.25901 
L 394.551795 35.073267 
L 395.059378 35.073267 
L 395.059378 27.887525 
L 401.512518 27.887525 
L 401.512518 20.701782 
L 401.935858 20.701782 
L 401.935858 13.51604 
L 402.940174 13.51604 
L 402.940174 6.330297 
L 402.940174 6.330297 
L 402.940174 6.330297 
L 460.8 6.330297 
" style="fill:none;stroke:#00bfbf;stroke-linecap:square;stroke-width:1.5;"/>
   </g>
   <g id="line2d_26">
    <path clip-path="url(#p8d605c2bfc)" d="M 322.321263 293.76 
L 322.321263 286.574257 
L 324.415991 286.574257 
L 324.415991 279.388515 
L 327.28193 279.388515 
L 327.28193 272.202772 
L 331.542163 272.202772 
L 331.542163 265.01703 
L 334.189346 265.01703 
L 334.189346 257.831287 
L 334.239536 257.831287 
L 334.239536 250.645545 
L 338.265446 250.645545 
L 338.265446 243.459802 
L 339.821265 243.459802 
L 339.821265 236.274059 
L 342.458255 236.274059 
L 342.458255 229.088317 
L 343.283323 229.088317 
L 343.283323 221.902574 
L 343.37018 221.902574 
L 343.37018 214.716832 
L 343.864865 214.716832 
L 343.864865 207.531089 
L 344.487958 207.531089 
L 344.487958 200.345347 
L 345.021837 200.345347 
L 345.021837 193.159604 
L 345.330966 193.159604 
L 345.330966 185.973861 
L 347.643974 185.973861 
L 347.643974 178.788119 
L 348.026951 178.788119 
L 348.026951 171.602376 
L 348.324995 171.602376 
L 348.324995 164.416634 
L 350.020461 164.416634 
L 350.020461 157.230891 
L 350.073877 157.230891 
L 350.073877 150.045149 
L 350.305654 150.045149 
L 350.305654 142.859406 
L 350.465043 142.859406 
L 350.465043 135.673663 
L 350.79551 135.673663 
L 350.79551 128.487921 
L 350.911111 128.487921 
L 350.911111 121.302178 
L 350.927456 121.302178 
L 350.927456 114.116436 
L 351.002632 114.116436 
L 351.002632 106.930693 
L 351.637795 106.930693 
L 351.637795 99.74495 
L 351.866919 99.74495 
L 351.866919 92.559208 
L 351.907568 92.559208 
L 351.907568 85.373465 
L 352.043342 85.373465 
L 352.043342 78.187723 
L 352.093733 78.187723 
L 352.093733 71.00198 
L 352.146231 71.00198 
L 352.146231 63.816238 
L 352.450596 63.816238 
L 352.450596 56.630495 
L 353.635361 56.630495 
L 353.635361 49.444752 
L 353.984211 49.444752 
L 353.984211 42.25901 
L 354.736 42.25901 
L 354.736 35.073267 
L 355.591246 35.073267 
L 355.591246 27.887525 
L 355.763618 27.887525 
L 355.763618 20.701782 
L 355.820935 20.701782 
L 355.820935 13.51604 
L 356.519471 13.51604 
L 356.519471 6.330297 
L 356.519471 6.330297 
L 356.519471 6.330297 
L 460.8 6.330297 
" style="fill:none;stroke:#bf00bf;stroke-linecap:square;stroke-width:1.5;"/>
   </g>
   <g id="line2d_27">
    <path clip-path="url(#p8d605c2bfc)" d="M 295.504473 293.76 
L 295.504473 286.574257 
L 297.210995 286.574257 
L 297.210995 279.388515 
L 299.817423 279.388515 
L 299.817423 272.202772 
L 305.455189 272.202772 
L 305.455189 265.01703 
L 306.001234 265.01703 
L 306.001234 257.831287 
L 306.185606 257.831287 
L 306.185606 250.645545 
L 310.238537 250.645545 
L 310.238537 243.459802 
L 311.674709 243.459802 
L 311.674709 236.274059 
L 311.966802 236.274059 
L 311.966802 229.088317 
L 312.601742 229.088317 
L 312.601742 221.902574 
L 313.00988 221.902574 
L 313.00988 214.716832 
L 313.819216 214.716832 
L 313.819216 207.531089 
L 317.475176 207.531089 
L 317.475176 200.345347 
L 318.035194 200.345347 
L 318.035194 193.159604 
L 318.070632 193.159604 
L 318.070632 185.973861 
L 321.373503 185.973861 
L 321.373503 178.788119 
L 322.552564 178.788119 
L 322.552564 171.602376 
L 325.649738 171.602376 
L 325.649738 164.416634 
L 325.681679 164.416634 
L 325.681679 157.230891 
L 326.450374 157.230891 
L 326.450374 150.045149 
L 327.403008 150.045149 
L 327.403008 142.859406 
L 327.740941 142.859406 
L 327.740941 135.673663 
L 328.125697 135.673663 
L 328.125697 128.487921 
L 329.591103 128.487921 
L 329.591103 121.302178 
L 330.021721 121.302178 
L 330.021721 114.116436 
L 331.026168 114.116436 
L 331.026168 106.930693 
L 334.203668 106.930693 
L 334.203668 99.74495 
L 335.353705 99.74495 
L 335.353705 92.559208 
L 337.098808 92.559208 
L 337.098808 85.373465 
L 337.161603 85.373465 
L 337.161603 78.187723 
L 338.909345 78.187723 
L 338.909345 71.00198 
L 341.272515 71.00198 
L 341.272515 63.816238 
L 341.656873 63.816238 
L 341.656873 56.630495 
L 341.865728 56.630495 
L 341.865728 49.444752 
L 342.532528 49.444752 
L 342.532528 42.25901 
L 343.341598 42.25901 
L 343.341598 35.073267 
L 344.290329 35.073267 
L 344.290329 27.887525 
L 344.716243 27.887525 
L 344.716243 20.701782 
L 350.315126 20.701782 
L 350.315126 13.51604 
L 350.491905 13.51604 
L 350.491905 6.330297 
L 350.491905 6.330297 
L 350.491905 6.330297 
L 460.8 6.330297 
" style="fill:none;stroke:#000000;stroke-linecap:square;stroke-width:1.5;"/>
   </g>
   <g id="line2d_28">
    <path clip-path="url(#p8d605c2bfc)" d="M 231.388219 293.76 
L 231.388219 286.574257 
L 233.038016 286.574257 
L 233.038016 279.388515 
L 234.13875 279.388515 
L 234.13875 272.202772 
L 235.019336 272.202772 
L 235.019336 265.01703 
L 235.257006 265.01703 
L 235.257006 257.831287 
L 236.112903 257.831287 
L 236.112903 250.645545 
L 238.18784 250.645545 
L 238.18784 243.459802 
L 242.60728 243.459802 
L 242.60728 236.274059 
L 242.68778 236.274059 
L 242.68778 229.088317 
L 261.371383 229.088317 
L 261.371383 221.902574 
L 264.351691 221.902574 
L 264.351691 214.716832 
L 266.404247 214.716832 
L 266.404247 207.531089 
L 267.219481 207.531089 
L 267.219481 200.345347 
L 269.348368 200.345347 
L 269.348368 193.159604 
L 269.637295 193.159604 
L 269.637295 185.973861 
L 270.022711 185.973861 
L 270.022711 178.788119 
L 270.363688 178.788119 
L 270.363688 171.602376 
L 270.449204 171.602376 
L 270.449204 164.416634 
L 275.60026 164.416634 
L 275.60026 157.230891 
L 278.227489 157.230891 
L 278.227489 150.045149 
L 311.141686 150.045149 
L 311.141686 142.859406 
L 313.789742 142.859406 
L 313.789742 135.673663 
L 318.973901 135.673663 
L 318.973901 128.487921 
L 325.64826 128.487921 
L 325.64826 121.302178 
L 325.656609 121.302178 
L 325.656609 114.116436 
L 326.293269 114.116436 
L 326.293269 106.930693 
L 326.456499 106.930693 
L 326.456499 99.74495 
L 327.690443 99.74495 
L 327.690443 92.559208 
L 330.482024 92.559208 
L 330.482024 85.373465 
L 332.995734 85.373465 
L 332.995734 78.187723 
L 335.121282 78.187723 
L 335.121282 71.00198 
L 337.210969 71.00198 
L 337.210969 63.816238 
L 337.775179 63.816238 
L 337.775179 56.630495 
L 341.14044 56.630495 
L 341.14044 49.444752 
L 341.169587 49.444752 
L 341.169587 42.25901 
L 342.257973 42.25901 
L 342.257973 35.073267 
L 343.222418 35.073267 
L 343.222418 27.887525 
L 343.983129 27.887525 
L 343.983129 20.701782 
L 344.483849 20.701782 
L 344.483849 13.51604 
L 350.21058 13.51604 
L 350.21058 6.330297 
L 350.21058 6.330297 
L 350.21058 6.330297 
L 460.8 6.330297 
" style="fill:none;stroke:#00bfbf;stroke-linecap:square;stroke-width:1.5;"/>
   </g>
   <g id="line2d_29">
    <path clip-path="url(#p8d605c2bfc)" d="M 138.272957 293.76 
L 138.272957 286.574257 
L 139.117813 286.574257 
L 139.117813 279.388515 
L 139.124911 279.388515 
L 139.124911 272.202772 
L 139.380665 272.202772 
L 139.380665 265.01703 
L 139.453051 265.01703 
L 139.453051 257.831287 
L 139.918779 257.831287 
L 139.918779 250.645545 
L 139.999431 250.645545 
L 139.999431 243.459802 
L 145.498008 243.459802 
L 145.498008 236.274059 
L 160.517692 236.274059 
L 160.517692 229.088317 
L 162.933555 229.088317 
L 162.933555 221.902574 
L 163.830348 221.902574 
L 163.830348 214.716832 
L 167.140864 214.716832 
L 167.140864 207.531089 
L 171.11981 207.531089 
L 171.11981 200.345347 
L 172.330974 200.345347 
L 172.330974 193.159604 
L 172.41507 193.159604 
L 172.41507 185.973861 
L 172.436796 185.973861 
L 172.436796 178.788119 
L 174.246279 178.788119 
L 174.246279 171.602376 
L 209.188268 171.602376 
L 209.188268 164.416634 
L 221.188762 164.416634 
L 221.188762 157.230891 
L 234.864245 157.230891 
L 234.864245 150.045149 
L 268.251544 150.045149 
L 268.251544 142.859406 
L 283.143544 142.859406 
L 283.143544 135.673663 
L 286.696537 135.673663 
L 286.696537 128.487921 
L 288.034061 128.487921 
L 288.034061 121.302178 
L 288.53874 121.302178 
L 288.53874 114.116436 
L 288.806634 114.116436 
L 288.806634 106.930693 
L 289.269501 106.930693 
L 289.269501 99.74495 
L 291.211745 99.74495 
L 291.211745 92.559208 
L 297.446761 92.559208 
L 297.446761 85.373465 
L 304.004046 85.373465 
L 304.004046 78.187723 
L 304.152649 78.187723 
L 304.152649 71.00198 
L 304.511631 71.00198 
L 304.511631 63.816238 
L 305.868865 63.816238 
L 305.868865 56.630495 
L 307.670115 56.630495 
L 307.670115 49.444752 
L 308.834318 49.444752 
L 308.834318 42.25901 
L 309.096907 42.25901 
L 309.096907 35.073267 
L 311.61348 35.073267 
L 311.61348 27.887525 
L 318.823223 27.887525 
L 318.823223 20.701782 
L 319.57446 20.701782 
L 319.57446 13.51604 
L 319.709091 13.51604 
L 319.709091 6.330297 
L 319.709091 6.330297 
L 319.709091 6.330297 
L 460.8 6.330297 
" style="fill:none;stroke:#bf00bf;stroke-linecap:square;stroke-width:1.5;"/>
   </g>
   <g id="patch_3">
    <path d="M 0 293.76 
L 0 3.456 
" style="fill:none;stroke:#000000;stroke-linecap:square;stroke-linejoin:miter;stroke-width:0.8;"/>
   </g>
   <g id="patch_4">
    <path d="M 460.8 293.76 
L 460.8 3.456 
" style="fill:none;stroke:#000000;stroke-linecap:square;stroke-linejoin:miter;stroke-width:0.8;"/>
   </g>
   <g id="patch_5">
    <path d="M -0 293.76 
L 460.8 293.76 
" style="fill:none;stroke:#000000;stroke-linecap:square;stroke-linejoin:miter;stroke-width:0.8;"/>
   </g>
   <g id="patch_6">
    <path d="M -0 3.456 
L 460.8 3.456 
" style="fill:none;stroke:#000000;stroke-linecap:square;stroke-linejoin:miter;stroke-width:0.8;"/>
   </g>
   <g id="text_6">
    <!-- {f5, f6, f14, f15}, 20-D -->
    <g transform="translate(222.705875 287.95392)scale(0.2 -0.2)">
     <defs>
      <path d="M 51.125 -9.28125 
L 51.125 -16.3125 
L 48.09375 -16.3125 
Q 35.9375 -16.3125 31.8125 -12.6875 
Q 27.6875 -9.078125 27.6875 1.703125 
L 27.6875 13.375 
Q 27.6875 20.75 25.046875 23.578125 
Q 22.40625 26.421875 15.484375 26.421875 
L 12.5 26.421875 
L 12.5 33.40625 
L 15.484375 33.40625 
Q 22.46875 33.40625 25.078125 36.203125 
Q 27.6875 39.015625 27.6875 46.296875 
L 27.6875 58.015625 
Q 27.6875 68.796875 31.8125 72.390625 
Q 35.9375 75.984375 48.09375 75.984375 
L 51.125 75.984375 
L 51.125 69 
L 47.796875 69 
Q 40.921875 69 38.8125 66.84375 
Q 36.71875 64.703125 36.71875 57.8125 
L 36.71875 45.703125 
Q 36.71875 38.03125 34.5 34.5625 
Q 32.28125 31.109375 26.90625 29.890625 
Q 32.328125 28.5625 34.515625 25.09375 
Q 36.71875 21.625 36.71875 14.015625 
L 36.71875 1.90625 
Q 36.71875 -4.984375 38.8125 -7.125 
Q 40.921875 -9.28125 47.796875 -9.28125 
z
" id="DejaVuSans-123"/>
      <path d="M 10.796875 72.90625 
L 49.515625 72.90625 
L 49.515625 64.59375 
L 19.828125 64.59375 
L 19.828125 46.734375 
Q 21.96875 47.46875 24.109375 47.828125 
Q 26.265625 48.1875 28.421875 48.1875 
Q 40.625 48.1875 47.75 41.5 
Q 54.890625 34.8125 54.890625 23.390625 
Q 54.890625 11.625 47.5625 5.09375 
Q 40.234375 -1.421875 26.90625 -1.421875 
Q 22.3125 -1.421875 17.546875 -0.640625 
Q 12.796875 0.140625 7.71875 1.703125 
L 7.71875 11.625 
Q 12.109375 9.234375 16.796875 8.0625 
Q 21.484375 6.890625 26.703125 6.890625 
Q 35.15625 6.890625 40.078125 11.328125 
Q 45.015625 15.765625 45.015625 23.390625 
Q 45.015625 31 40.078125 35.4375 
Q 35.15625 39.890625 26.703125 39.890625 
Q 22.75 39.890625 18.8125 39.015625 
Q 14.890625 38.140625 10.796875 36.28125 
z
" id="DejaVuSans-53"/>
      <path d="M 11.71875 12.40625 
L 22.015625 12.40625 
L 22.015625 4 
L 14.015625 -11.625 
L 7.71875 -11.625 
L 11.71875 4 
z
" id="DejaVuSans-44"/>
      <path d="M 12.5 -9.28125 
L 15.921875 -9.28125 
Q 22.75 -9.28125 24.828125 -7.171875 
Q 26.90625 -5.078125 26.90625 1.90625 
L 26.90625 14.015625 
Q 26.90625 21.625 29.09375 25.09375 
Q 31.296875 28.5625 36.71875 29.890625 
Q 31.296875 31.109375 29.09375 34.5625 
Q 26.90625 38.03125 26.90625 45.703125 
L 26.90625 57.8125 
Q 26.90625 64.75 24.828125 66.875 
Q 22.75 69 15.921875 69 
L 12.5 69 
L 12.5 75.984375 
L 15.578125 75.984375 
Q 27.734375 75.984375 31.8125 72.390625 
Q 35.890625 68.796875 35.890625 58.015625 
L 35.890625 46.296875 
Q 35.890625 39.015625 38.515625 36.203125 
Q 41.15625 33.40625 48.09375 33.40625 
L 51.125 33.40625 
L 51.125 26.421875 
L 48.09375 26.421875 
Q 41.15625 26.421875 38.515625 23.578125 
Q 35.890625 20.75 35.890625 13.375 
L 35.890625 1.703125 
Q 35.890625 -9.078125 31.8125 -12.6875 
Q 27.734375 -16.3125 15.578125 -16.3125 
L 12.5 -16.3125 
z
" id="DejaVuSans-125"/>
     </defs>
     <use xlink:href="#DejaVuSans-123"/>
     <use x="63.623047" xlink:href="#DejaVuSans-102"/>
     <use x="98.828125" xlink:href="#DejaVuSans-53"/>
     <use x="162.451172" xlink:href="#DejaVuSans-44"/>
     <use x="194.238281" xlink:href="#DejaVuSans-32"/>
     <use x="226.025391" xlink:href="#DejaVuSans-102"/>
     <use x="261.230469" xlink:href="#DejaVuSans-54"/>
     <use x="324.853516" xlink:href="#DejaVuSans-44"/>
     <use x="356.640625" xlink:href="#DejaVuSans-32"/>
     <use x="388.427734" xlink:href="#DejaVuSans-102"/>
     <use x="423.632812" xlink:href="#DejaVuSans-49"/>
     <use x="487.255859" xlink:href="#DejaVuSans-52"/>
     <use x="550.878906" xlink:href="#DejaVuSans-44"/>
     <use x="582.666016" xlink:href="#DejaVuSans-32"/>
     <use x="614.453125" xlink:href="#DejaVuSans-102"/>
     <use x="649.658203" xlink:href="#DejaVuSans-49"/>
     <use x="713.28125" xlink:href="#DejaVuSans-53"/>
     <use x="776.904297" xlink:href="#DejaVuSans-125"/>
     <use x="840.527344" xlink:href="#DejaVuSans-44"/>
     <use x="872.314453" xlink:href="#DejaVuSans-32"/>
     <use x="904.101562" xlink:href="#DejaVuSans-50"/>
     <use x="967.724609" xlink:href="#DejaVuSans-48"/>
     <use x="1031.347656" xlink:href="#DejaVuSans-45"/>
     <use x="1067.431641" xlink:href="#DejaVuSans-68"/>
    </g>
   </g>
   <g id="text_7">
    <!-- v2.4, hv-hash=ff0e71e8cd978373 -->
    <g style="fill:#808080;" transform="translate(144.904687 288.777272)scale(0.1 -0.1)">
     <defs>
      <path d="M 2.984375 54.6875 
L 12.5 54.6875 
L 29.59375 8.796875 
L 46.6875 54.6875 
L 56.203125 54.6875 
L 35.6875 0 
L 23.484375 0 
z
" id="DejaVuSans-118"/>
      <path d="M 10.6875 12.40625 
L 21 12.40625 
L 21 0 
L 10.6875 0 
z
" id="DejaVuSans-46"/>
      <path d="M 54.890625 33.015625 
L 54.890625 0 
L 45.90625 0 
L 45.90625 32.71875 
Q 45.90625 40.484375 42.875 44.328125 
Q 39.84375 48.1875 33.796875 48.1875 
Q 26.515625 48.1875 22.3125 43.546875 
Q 18.109375 38.921875 18.109375 30.90625 
L 18.109375 0 
L 9.078125 0 
L 9.078125 75.984375 
L 18.109375 75.984375 
L 18.109375 46.1875 
Q 21.34375 51.125 25.703125 53.5625 
Q 30.078125 56 35.796875 56 
Q 45.21875 56 50.046875 50.171875 
Q 54.890625 44.34375 54.890625 33.015625 
z
" id="DejaVuSans-104"/>
      <path d="M 34.28125 27.484375 
Q 23.390625 27.484375 19.1875 25 
Q 14.984375 22.515625 14.984375 16.5 
Q 14.984375 11.71875 18.140625 8.90625 
Q 21.296875 6.109375 26.703125 6.109375 
Q 34.1875 6.109375 38.703125 11.40625 
Q 43.21875 16.703125 43.21875 25.484375 
L 43.21875 27.484375 
z
M 52.203125 31.203125 
L 52.203125 0 
L 43.21875 0 
L 43.21875 8.296875 
Q 40.140625 3.328125 35.546875 0.953125 
Q 30.953125 -1.421875 24.3125 -1.421875 
Q 15.921875 -1.421875 10.953125 3.296875 
Q 6 8.015625 6 15.921875 
Q 6 25.140625 12.171875 29.828125 
Q 18.359375 34.515625 30.609375 34.515625 
L 43.21875 34.515625 
L 43.21875 35.40625 
Q 43.21875 41.609375 39.140625 45 
Q 35.0625 48.390625 27.6875 48.390625 
Q 23 48.390625 18.546875 47.265625 
Q 14.109375 46.140625 10.015625 43.890625 
L 10.015625 52.203125 
Q 14.9375 54.109375 19.578125 55.046875 
Q 24.21875 56 28.609375 56 
Q 40.484375 56 46.34375 49.84375 
Q 52.203125 43.703125 52.203125 31.203125 
z
" id="DejaVuSans-97"/>
      <path d="M 44.28125 53.078125 
L 44.28125 44.578125 
Q 40.484375 46.53125 36.375 47.5 
Q 32.28125 48.484375 27.875 48.484375 
Q 21.1875 48.484375 17.84375 46.4375 
Q 14.5 44.390625 14.5 40.28125 
Q 14.5 37.15625 16.890625 35.375 
Q 19.28125 33.59375 26.515625 31.984375 
L 29.59375 31.296875 
Q 39.15625 29.25 43.1875 25.515625 
Q 47.21875 21.78125 47.21875 15.09375 
Q 47.21875 7.46875 41.1875 3.015625 
Q 35.15625 -1.421875 24.609375 -1.421875 
Q 20.21875 -1.421875 15.453125 -0.5625 
Q 10.6875 0.296875 5.421875 2 
L 5.421875 11.28125 
Q 10.40625 8.6875 15.234375 7.390625 
Q 20.0625 6.109375 24.8125 6.109375 
Q 31.15625 6.109375 34.5625 8.28125 
Q 37.984375 10.453125 37.984375 14.40625 
Q 37.984375 18.0625 35.515625 20.015625 
Q 33.0625 21.96875 24.703125 23.78125 
L 21.578125 24.515625 
Q 13.234375 26.265625 9.515625 29.90625 
Q 5.8125 33.546875 5.8125 39.890625 
Q 5.8125 47.609375 11.28125 51.796875 
Q 16.75 56 26.8125 56 
Q 31.78125 56 36.171875 55.265625 
Q 40.578125 54.546875 44.28125 53.078125 
z
" id="DejaVuSans-115"/>
      <path d="M 10.59375 45.40625 
L 73.1875 45.40625 
L 73.1875 37.203125 
L 10.59375 37.203125 
z
M 10.59375 25.484375 
L 73.1875 25.484375 
L 73.1875 17.1875 
L 10.59375 17.1875 
z
" id="DejaVuSans-61"/>
      <path d="M 56.203125 29.59375 
L 56.203125 25.203125 
L 14.890625 25.203125 
Q 15.484375 15.921875 20.484375 11.0625 
Q 25.484375 6.203125 34.421875 6.203125 
Q 39.59375 6.203125 44.453125 7.46875 
Q 49.3125 8.734375 54.109375 11.28125 
L 54.109375 2.78125 
Q 49.265625 0.734375 44.1875 -0.34375 
Q 39.109375 -1.421875 33.890625 -1.421875 
Q 20.796875 -1.421875 13.15625 6.1875 
Q 5.515625 13.8125 5.515625 26.8125 
Q 5.515625 40.234375 12.765625 48.109375 
Q 20.015625 56 32.328125 56 
Q 43.359375 56 49.78125 48.890625 
Q 56.203125 41.796875 56.203125 29.59375 
z
M 47.21875 32.234375 
Q 47.125 39.59375 43.09375 43.984375 
Q 39.0625 48.390625 32.421875 48.390625 
Q 24.90625 48.390625 20.390625 44.140625 
Q 15.875 39.890625 15.1875 32.171875 
z
" id="DejaVuSans-101"/>
      <path d="M 8.203125 72.90625 
L 55.078125 72.90625 
L 55.078125 68.703125 
L 28.609375 0 
L 18.3125 0 
L 43.21875 64.59375 
L 8.203125 64.59375 
z
" id="DejaVuSans-55"/>
      <path d="M 31.78125 34.625 
Q 24.75 34.625 20.71875 30.859375 
Q 16.703125 27.09375 16.703125 20.515625 
Q 16.703125 13.921875 20.71875 10.15625 
Q 24.75 6.390625 31.78125 6.390625 
Q 38.8125 6.390625 42.859375 10.171875 
Q 46.921875 13.96875 46.921875 20.515625 
Q 46.921875 27.09375 42.890625 30.859375 
Q 38.875 34.625 31.78125 34.625 
z
M 21.921875 38.8125 
Q 15.578125 40.375 12.03125 44.71875 
Q 8.5 49.078125 8.5 55.328125 
Q 8.5 64.0625 14.71875 69.140625 
Q 20.953125 74.21875 31.78125 74.21875 
Q 42.671875 74.21875 48.875 69.140625 
Q 55.078125 64.0625 55.078125 55.328125 
Q 55.078125 49.078125 51.53125 44.71875 
Q 48 40.375 41.703125 38.8125 
Q 48.828125 37.15625 52.796875 32.3125 
Q 56.78125 27.484375 56.78125 20.515625 
Q 56.78125 9.90625 50.3125 4.234375 
Q 43.84375 -1.421875 31.78125 -1.421875 
Q 19.734375 -1.421875 13.25 4.234375 
Q 6.78125 9.90625 6.78125 20.515625 
Q 6.78125 27.484375 10.78125 32.3125 
Q 14.796875 37.15625 21.921875 38.8125 
z
M 18.3125 54.390625 
Q 18.3125 48.734375 21.84375 45.5625 
Q 25.390625 42.390625 31.78125 42.390625 
Q 38.140625 42.390625 41.71875 45.5625 
Q 45.3125 48.734375 45.3125 54.390625 
Q 45.3125 60.0625 41.71875 63.234375 
Q 38.140625 66.40625 31.78125 66.40625 
Q 25.390625 66.40625 21.84375 63.234375 
Q 18.3125 60.0625 18.3125 54.390625 
z
" id="DejaVuSans-56"/>
      <path d="M 48.78125 52.59375 
L 48.78125 44.1875 
Q 44.96875 46.296875 41.140625 47.34375 
Q 37.3125 48.390625 33.40625 48.390625 
Q 24.65625 48.390625 19.8125 42.84375 
Q 14.984375 37.3125 14.984375 27.296875 
Q 14.984375 17.28125 19.8125 11.734375 
Q 24.65625 6.203125 33.40625 6.203125 
Q 37.3125 6.203125 41.140625 7.25 
Q 44.96875 8.296875 48.78125 10.40625 
L 48.78125 2.09375 
Q 45.015625 0.34375 40.984375 -0.53125 
Q 36.96875 -1.421875 32.421875 -1.421875 
Q 20.0625 -1.421875 12.78125 6.34375 
Q 5.515625 14.109375 5.515625 27.296875 
Q 5.515625 40.671875 12.859375 48.328125 
Q 20.21875 56 33.015625 56 
Q 37.15625 56 41.109375 55.140625 
Q 45.0625 54.296875 48.78125 52.59375 
z
" id="DejaVuSans-99"/>
      <path d="M 45.40625 46.390625 
L 45.40625 75.984375 
L 54.390625 75.984375 
L 54.390625 0 
L 45.40625 0 
L 45.40625 8.203125 
Q 42.578125 3.328125 38.25 0.953125 
Q 33.9375 -1.421875 27.875 -1.421875 
Q 17.96875 -1.421875 11.734375 6.484375 
Q 5.515625 14.40625 5.515625 27.296875 
Q 5.515625 40.1875 11.734375 48.09375 
Q 17.96875 56 27.875 56 
Q 33.9375 56 38.25 53.625 
Q 42.578125 51.265625 45.40625 46.390625 
z
M 14.796875 27.296875 
Q 14.796875 17.390625 18.875 11.75 
Q 22.953125 6.109375 30.078125 6.109375 
Q 37.203125 6.109375 41.296875 11.75 
Q 45.40625 17.390625 45.40625 27.296875 
Q 45.40625 37.203125 41.296875 42.84375 
Q 37.203125 48.484375 30.078125 48.484375 
Q 22.953125 48.484375 18.875 42.84375 
Q 14.796875 37.203125 14.796875 27.296875 
z
" id="DejaVuSans-100"/>
      <path d="M 10.984375 1.515625 
L 10.984375 10.5 
Q 14.703125 8.734375 18.5 7.8125 
Q 22.3125 6.890625 25.984375 6.890625 
Q 35.75 6.890625 40.890625 13.453125 
Q 46.046875 20.015625 46.78125 33.40625 
Q 43.953125 29.203125 39.59375 26.953125 
Q 35.25 24.703125 29.984375 24.703125 
Q 19.046875 24.703125 12.671875 31.3125 
Q 6.296875 37.9375 6.296875 49.421875 
Q 6.296875 60.640625 12.9375 67.421875 
Q 19.578125 74.21875 30.609375 74.21875 
Q 43.265625 74.21875 49.921875 64.515625 
Q 56.59375 54.828125 56.59375 36.375 
Q 56.59375 19.140625 48.40625 8.859375 
Q 40.234375 -1.421875 26.421875 -1.421875 
Q 22.703125 -1.421875 18.890625 -0.6875 
Q 15.09375 0.046875 10.984375 1.515625 
z
M 30.609375 32.421875 
Q 37.25 32.421875 41.125 36.953125 
Q 45.015625 41.5 45.015625 49.421875 
Q 45.015625 57.28125 41.125 61.84375 
Q 37.25 66.40625 30.609375 66.40625 
Q 23.96875 66.40625 20.09375 61.84375 
Q 16.21875 57.28125 16.21875 49.421875 
Q 16.21875 41.5 20.09375 36.953125 
Q 23.96875 32.421875 30.609375 32.421875 
z
" id="DejaVuSans-57"/>
      <path d="M 40.578125 39.3125 
Q 47.65625 37.796875 51.625 33 
Q 55.609375 28.21875 55.609375 21.1875 
Q 55.609375 10.40625 48.1875 4.484375 
Q 40.765625 -1.421875 27.09375 -1.421875 
Q 22.515625 -1.421875 17.65625 -0.515625 
Q 12.796875 0.390625 7.625 2.203125 
L 7.625 11.71875 
Q 11.71875 9.328125 16.59375 8.109375 
Q 21.484375 6.890625 26.8125 6.890625 
Q 36.078125 6.890625 40.9375 10.546875 
Q 45.796875 14.203125 45.796875 21.1875 
Q 45.796875 27.640625 41.28125 31.265625 
Q 36.765625 34.90625 28.71875 34.90625 
L 20.21875 34.90625 
L 20.21875 43.015625 
L 29.109375 43.015625 
Q 36.375 43.015625 40.234375 45.921875 
Q 44.09375 48.828125 44.09375 54.296875 
Q 44.09375 59.90625 40.109375 62.90625 
Q 36.140625 65.921875 28.71875 65.921875 
Q 24.65625 65.921875 20.015625 65.03125 
Q 15.375 64.15625 9.8125 62.3125 
L 9.8125 71.09375 
Q 15.4375 72.65625 20.34375 73.4375 
Q 25.25 74.21875 29.59375 74.21875 
Q 40.828125 74.21875 47.359375 69.109375 
Q 53.90625 64.015625 53.90625 55.328125 
Q 53.90625 49.265625 50.4375 45.09375 
Q 46.96875 40.921875 40.578125 39.3125 
z
" id="DejaVuSans-51"/>
     </defs>
     <use xlink:href="#DejaVuSans-118"/>
     <use x="59.179688" xlink:href="#DejaVuSans-50"/>
     <use x="122.802734" xlink:href="#DejaVuSans-46"/>
     <use x="154.589844" xlink:href="#DejaVuSans-52"/>
     <use x="218.212891" xlink:href="#DejaVuSans-44"/>
     <use x="250" xlink:href="#DejaVuSans-32"/>
     <use x="281.787109" xlink:href="#DejaVuSans-104"/>
     <use x="345.166016" xlink:href="#DejaVuSans-118"/>
     <use x="401.720703" xlink:href="#DejaVuSans-45"/>
     <use x="437.804688" xlink:href="#DejaVuSans-104"/>
     <use x="501.183594" xlink:href="#DejaVuSans-97"/>
     <use x="562.462891" xlink:href="#DejaVuSans-115"/>
     <use x="614.5625" xlink:href="#DejaVuSans-104"/>
     <use x="677.941406" xlink:href="#DejaVuSans-61"/>
     <use x="761.730469" xlink:href="#DejaVuSans-102"/>
     <use x="796.935547" xlink:href="#DejaVuSans-102"/>
     <use x="832.140625" xlink:href="#DejaVuSans-48"/>
     <use x="895.763672" xlink:href="#DejaVuSans-101"/>
     <use x="957.287109" xlink:href="#DejaVuSans-55"/>
     <use x="1020.910156" xlink:href="#DejaVuSans-49"/>
     <use x="1084.533203" xlink:href="#DejaVuSans-101"/>
     <use x="1146.056641" xlink:href="#DejaVuSans-56"/>
     <use x="1209.679688" xlink:href="#DejaVuSans-99"/>
     <use x="1264.660156" xlink:href="#DejaVuSans-100"/>
     <use x="1328.136719" xlink:href="#DejaVuSans-57"/>
     <use x="1391.759766" xlink:href="#DejaVuSans-55"/>
     <use x="1455.382812" xlink:href="#DejaVuSans-56"/>
     <use x="1519.005859" xlink:href="#DejaVuSans-51"/>
     <use x="1582.628906" xlink:href="#DejaVuSans-55"/>
     <use x="1646.251953" xlink:href="#DejaVuSans-51"/>
    </g>
   </g>
  </g>
 </g>
 <defs>
  <clipPath id="p8d605c2bfc">
   <rect height="290.304" width="460.8" x="0" y="3.456"/>
  </clipPath>
 </defs>
</svg>
