<?xml version="1.0" encoding="utf-8" standalone="no"?>
<!DOCTYPE svg PUBLIC "-//W3C//DTD SVG 1.1//EN"
  "http://www.w3.org/Graphics/SVG/1.1/DTD/svg11.dtd">
<!-- Created with matplotlib (https://matplotlib.org/) -->
<svg height="345.6pt" version="1.1" viewBox="0 0 460.8 345.6" width="460.8pt" xmlns="http://www.w3.org/2000/svg" xmlns:xlink="http://www.w3.org/1999/xlink">
 <metadata>
  <rdf:RDF xmlns:cc="http://creativecommons.org/ns#" xmlns:dc="http://purl.org/dc/elements/1.1/" xmlns:rdf="http://www.w3.org/1999/02/22-rdf-syntax-ns#">
   <cc:Work>
    <dc:type rdf:resource="http://purl.org/dc/dcmitype/StillImage"/>
    <dc:date>2021-03-30T16:53:47.495034</dc:date>
    <dc:format>image/svg+xml</dc:format>
    <dc:creator>
     <cc:Agent>
      <dc:title>Matplotlib v3.3.4, https://matplotlib.org/</dc:title>
     </cc:Agent>
    </dc:creator>
   </cc:Work>
  </rdf:RDF>
 </metadata>
 <defs>
  <style type="text/css">*{stroke-linecap:butt;stroke-linejoin:round;}</style>
 </defs>
 <g id="figure_1">
  <g id="patch_1">
   <path d="M 0 345.6 
L 460.8 345.6 
L 460.8 0 
L 0 0 
z
" style="fill:#ffffff;"/>
  </g>
  <g id="axes_1">
   <g id="patch_2">
    <path d="M 62.208 293.76 
L 460.8 293.76 
L 460.8 3.456 
L 62.208 3.456 
z
" style="fill:#ffffff;"/>
   </g>
   <g id="matplotlib.axis_1">
    <g id="xtick_1">
     <g id="line2d_1">
      <path clip-path="url(#p05f7bc1579)" d="M 62.208 293.76 
L 62.208 3.456 
" style="fill:none;stroke:#b0b0b0;stroke-linecap:square;stroke-width:0.8;"/>
     </g>
     <g id="line2d_2">
      <defs>
       <path d="M 0 0 
L 0 3.5 
" id="m1d30358d24" style="stroke:#000000;stroke-width:0.8;"/>
      </defs>
      <g>
       <use style="stroke:#000000;stroke-width:0.8;" x="62.208" xlink:href="#m1d30358d24" y="293.76"/>
      </g>
     </g>
     <g id="text_1">
      <!-- 0 -->
      <g transform="translate(55.8455 315.956875)scale(0.2 -0.2)">
       <defs>
        <path d="M 31.78125 66.40625 
Q 24.171875 66.40625 20.328125 58.90625 
Q 16.5 51.421875 16.5 36.375 
Q 16.5 21.390625 20.328125 13.890625 
Q 24.171875 6.390625 31.78125 6.390625 
Q 39.453125 6.390625 43.28125 13.890625 
Q 47.125 21.390625 47.125 36.375 
Q 47.125 51.421875 43.28125 58.90625 
Q 39.453125 66.40625 31.78125 66.40625 
z
M 31.78125 74.21875 
Q 44.046875 74.21875 50.515625 64.515625 
Q 56.984375 54.828125 56.984375 36.375 
Q 56.984375 17.96875 50.515625 8.265625 
Q 44.046875 -1.421875 31.78125 -1.421875 
Q 19.53125 -1.421875 13.0625 8.265625 
Q 6.59375 17.96875 6.59375 36.375 
Q 6.59375 54.828125 13.0625 64.515625 
Q 19.53125 74.21875 31.78125 74.21875 
z
" id="DejaVuSans-48"/>
       </defs>
       <use xlink:href="#DejaVuSans-48"/>
      </g>
     </g>
    </g>
    <g id="xtick_2">
     <g id="line2d_3">
      <path clip-path="url(#p05f7bc1579)" d="M 141.9264 293.76 
L 141.9264 3.456 
" style="fill:none;stroke:#b0b0b0;stroke-linecap:square;stroke-width:0.8;"/>
     </g>
     <g id="line2d_4">
      <g>
       <use style="stroke:#000000;stroke-width:0.8;" x="141.9264" xlink:href="#m1d30358d24" y="293.76"/>
      </g>
     </g>
     <g id="text_2">
      <!-- 1 -->
      <g transform="translate(135.5639 315.956875)scale(0.2 -0.2)">
       <defs>
        <path d="M 12.40625 8.296875 
L 28.515625 8.296875 
L 28.515625 63.921875 
L 10.984375 60.40625 
L 10.984375 69.390625 
L 28.421875 72.90625 
L 38.28125 72.90625 
L 38.28125 8.296875 
L 54.390625 8.296875 
L 54.390625 0 
L 12.40625 0 
z
" id="DejaVuSans-49"/>
       </defs>
       <use xlink:href="#DejaVuSans-49"/>
      </g>
     </g>
    </g>
    <g id="xtick_3">
     <g id="line2d_5">
      <path clip-path="url(#p05f7bc1579)" d="M 221.6448 293.76 
L 221.6448 3.456 
" style="fill:none;stroke:#b0b0b0;stroke-linecap:square;stroke-width:0.8;"/>
     </g>
     <g id="line2d_6">
      <g>
       <use style="stroke:#000000;stroke-width:0.8;" x="221.6448" xlink:href="#m1d30358d24" y="293.76"/>
      </g>
     </g>
     <g id="text_3">
      <!-- 2 -->
      <g transform="translate(215.2823 315.956875)scale(0.2 -0.2)">
       <defs>
        <path d="M 19.1875 8.296875 
L 53.609375 8.296875 
L 53.609375 0 
L 7.328125 0 
L 7.328125 8.296875 
Q 12.9375 14.109375 22.625 23.890625 
Q 32.328125 33.6875 34.8125 36.53125 
Q 39.546875 41.84375 41.421875 45.53125 
Q 43.3125 49.21875 43.3125 52.78125 
Q 43.3125 58.59375 39.234375 62.25 
Q 35.15625 65.921875 28.609375 65.921875 
Q 23.96875 65.921875 18.8125 64.3125 
Q 13.671875 62.703125 7.8125 59.421875 
L 7.8125 69.390625 
Q 13.765625 71.78125 18.9375 73 
Q 24.125 74.21875 28.421875 74.21875 
Q 39.75 74.21875 46.484375 68.546875 
Q 53.21875 62.890625 53.21875 53.421875 
Q 53.21875 48.921875 51.53125 44.890625 
Q 49.859375 40.875 45.40625 35.40625 
Q 44.1875 33.984375 37.640625 27.21875 
Q 31.109375 20.453125 19.1875 8.296875 
z
" id="DejaVuSans-50"/>
       </defs>
       <use xlink:href="#DejaVuSans-50"/>
      </g>
     </g>
    </g>
    <g id="xtick_4">
     <g id="line2d_7">
      <path clip-path="url(#p05f7bc1579)" d="M 301.3632 293.76 
L 301.3632 3.456 
" style="fill:none;stroke:#b0b0b0;stroke-linecap:square;stroke-width:0.8;"/>
     </g>
     <g id="line2d_8">
      <g>
       <use style="stroke:#000000;stroke-width:0.8;" x="301.3632" xlink:href="#m1d30358d24" y="293.76"/>
      </g>
     </g>
     <g id="text_4">
      <!-- 3 -->
      <g transform="translate(295.0007 315.956875)scale(0.2 -0.2)">
       <defs>
        <path d="M 40.578125 39.3125 
Q 47.65625 37.796875 51.625 33 
Q 55.609375 28.21875 55.609375 21.1875 
Q 55.609375 10.40625 48.1875 4.484375 
Q 40.765625 -1.421875 27.09375 -1.421875 
Q 22.515625 -1.421875 17.65625 -0.515625 
Q 12.796875 0.390625 7.625 2.203125 
L 7.625 11.71875 
Q 11.71875 9.328125 16.59375 8.109375 
Q 21.484375 6.890625 26.8125 6.890625 
Q 36.078125 6.890625 40.9375 10.546875 
Q 45.796875 14.203125 45.796875 21.1875 
Q 45.796875 27.640625 41.28125 31.265625 
Q 36.765625 34.90625 28.71875 34.90625 
L 20.21875 34.90625 
L 20.21875 43.015625 
L 29.109375 43.015625 
Q 36.375 43.015625 40.234375 45.921875 
Q 44.09375 48.828125 44.09375 54.296875 
Q 44.09375 59.90625 40.109375 62.90625 
Q 36.140625 65.921875 28.71875 65.921875 
Q 24.65625 65.921875 20.015625 65.03125 
Q 15.375 64.15625 9.8125 62.3125 
L 9.8125 71.09375 
Q 15.4375 72.65625 20.34375 73.4375 
Q 25.25 74.21875 29.59375 74.21875 
Q 40.828125 74.21875 47.359375 69.109375 
Q 53.90625 64.015625 53.90625 55.328125 
Q 53.90625 49.265625 50.4375 45.09375 
Q 46.96875 40.921875 40.578125 39.3125 
z
" id="DejaVuSans-51"/>
       </defs>
       <use xlink:href="#DejaVuSans-51"/>
      </g>
     </g>
    </g>
    <g id="xtick_5">
     <g id="line2d_9">
      <path clip-path="url(#p05f7bc1579)" d="M 381.0816 293.76 
L 381.0816 3.456 
" style="fill:none;stroke:#b0b0b0;stroke-linecap:square;stroke-width:0.8;"/>
     </g>
     <g id="line2d_10">
      <g>
       <use style="stroke:#000000;stroke-width:0.8;" x="381.0816" xlink:href="#m1d30358d24" y="293.76"/>
      </g>
     </g>
     <g id="text_5">
      <!-- 4 -->
      <g transform="translate(374.7191 315.956875)scale(0.2 -0.2)">
       <defs>
        <path d="M 37.796875 64.3125 
L 12.890625 25.390625 
L 37.796875 25.390625 
z
M 35.203125 72.90625 
L 47.609375 72.90625 
L 47.609375 25.390625 
L 58.015625 25.390625 
L 58.015625 17.1875 
L 47.609375 17.1875 
L 47.609375 0 
L 37.796875 0 
L 37.796875 17.1875 
L 4.890625 17.1875 
L 4.890625 26.703125 
z
" id="DejaVuSans-52"/>
       </defs>
       <use xlink:href="#DejaVuSans-52"/>
      </g>
     </g>
    </g>
    <g id="xtick_6">
     <g id="line2d_11">
      <path clip-path="url(#p05f7bc1579)" d="M 460.8 293.76 
L 460.8 3.456 
" style="fill:none;stroke:#b0b0b0;stroke-linecap:square;stroke-width:0.8;"/>
     </g>
     <g id="line2d_12">
      <g>
       <use style="stroke:#000000;stroke-width:0.8;" x="460.8" xlink:href="#m1d30358d24" y="293.76"/>
      </g>
     </g>
     <g id="text_6">
      <!-- 5 -->
      <g transform="translate(454.4375 315.956875)scale(0.2 -0.2)">
       <defs>
        <path d="M 10.796875 72.90625 
L 49.515625 72.90625 
L 49.515625 64.59375 
L 19.828125 64.59375 
L 19.828125 46.734375 
Q 21.96875 47.46875 24.109375 47.828125 
Q 26.265625 48.1875 28.421875 48.1875 
Q 40.625 48.1875 47.75 41.5 
Q 54.890625 34.8125 54.890625 23.390625 
Q 54.890625 11.625 47.5625 5.09375 
Q 40.234375 -1.421875 26.90625 -1.421875 
Q 22.3125 -1.421875 17.546875 -0.640625 
Q 12.796875 0.140625 7.71875 1.703125 
L 7.71875 11.625 
Q 12.109375 9.234375 16.796875 8.0625 
Q 21.484375 6.890625 26.703125 6.890625 
Q 35.15625 6.890625 40.078125 11.328125 
Q 45.015625 15.765625 45.015625 23.390625 
Q 45.015625 31 40.078125 35.4375 
Q 35.15625 39.890625 26.703125 39.890625 
Q 22.75 39.890625 18.8125 39.015625 
Q 14.890625 38.140625 10.796875 36.28125 
z
" id="DejaVuSans-53"/>
       </defs>
       <use xlink:href="#DejaVuSans-53"/>
      </g>
     </g>
    </g>
    <g id="text_7">
     <!-- log10 of FEvals / DIM -->
     <g transform="translate(156.430563 339.313125)scale(0.2 -0.2)">
      <defs>
       <path d="M 9.421875 75.984375 
L 18.40625 75.984375 
L 18.40625 0 
L 9.421875 0 
z
" id="DejaVuSans-108"/>
       <path d="M 30.609375 48.390625 
Q 23.390625 48.390625 19.1875 42.75 
Q 14.984375 37.109375 14.984375 27.296875 
Q 14.984375 17.484375 19.15625 11.84375 
Q 23.34375 6.203125 30.609375 6.203125 
Q 37.796875 6.203125 41.984375 11.859375 
Q 46.1875 17.53125 46.1875 27.296875 
Q 46.1875 37.015625 41.984375 42.703125 
Q 37.796875 48.390625 30.609375 48.390625 
z
M 30.609375 56 
Q 42.328125 56 49.015625 48.375 
Q 55.71875 40.765625 55.71875 27.296875 
Q 55.71875 13.875 49.015625 6.21875 
Q 42.328125 -1.421875 30.609375 -1.421875 
Q 18.84375 -1.421875 12.171875 6.21875 
Q 5.515625 13.875 5.515625 27.296875 
Q 5.515625 40.765625 12.171875 48.375 
Q 18.84375 56 30.609375 56 
z
" id="DejaVuSans-111"/>
       <path d="M 45.40625 27.984375 
Q 45.40625 37.75 41.375 43.109375 
Q 37.359375 48.484375 30.078125 48.484375 
Q 22.859375 48.484375 18.828125 43.109375 
Q 14.796875 37.75 14.796875 27.984375 
Q 14.796875 18.265625 18.828125 12.890625 
Q 22.859375 7.515625 30.078125 7.515625 
Q 37.359375 7.515625 41.375 12.890625 
Q 45.40625 18.265625 45.40625 27.984375 
z
M 54.390625 6.78125 
Q 54.390625 -7.171875 48.1875 -13.984375 
Q 42 -20.796875 29.203125 -20.796875 
Q 24.46875 -20.796875 20.265625 -20.09375 
Q 16.0625 -19.390625 12.109375 -17.921875 
L 12.109375 -9.1875 
Q 16.0625 -11.328125 19.921875 -12.34375 
Q 23.78125 -13.375 27.78125 -13.375 
Q 36.625 -13.375 41.015625 -8.765625 
Q 45.40625 -4.15625 45.40625 5.171875 
L 45.40625 9.625 
Q 42.625 4.78125 38.28125 2.390625 
Q 33.9375 0 27.875 0 
Q 17.828125 0 11.671875 7.65625 
Q 5.515625 15.328125 5.515625 27.984375 
Q 5.515625 40.671875 11.671875 48.328125 
Q 17.828125 56 27.875 56 
Q 33.9375 56 38.28125 53.609375 
Q 42.625 51.21875 45.40625 46.390625 
L 45.40625 54.6875 
L 54.390625 54.6875 
z
" id="DejaVuSans-103"/>
       <path id="DejaVuSans-32"/>
       <path d="M 37.109375 75.984375 
L 37.109375 68.5 
L 28.515625 68.5 
Q 23.6875 68.5 21.796875 66.546875 
Q 19.921875 64.59375 19.921875 59.515625 
L 19.921875 54.6875 
L 34.71875 54.6875 
L 34.71875 47.703125 
L 19.921875 47.703125 
L 19.921875 0 
L 10.890625 0 
L 10.890625 47.703125 
L 2.296875 47.703125 
L 2.296875 54.6875 
L 10.890625 54.6875 
L 10.890625 58.5 
Q 10.890625 67.625 15.140625 71.796875 
Q 19.390625 75.984375 28.609375 75.984375 
z
" id="DejaVuSans-102"/>
       <path d="M 9.8125 72.90625 
L 51.703125 72.90625 
L 51.703125 64.59375 
L 19.671875 64.59375 
L 19.671875 43.109375 
L 48.578125 43.109375 
L 48.578125 34.8125 
L 19.671875 34.8125 
L 19.671875 0 
L 9.8125 0 
z
" id="DejaVuSans-70"/>
       <path d="M 9.8125 72.90625 
L 55.90625 72.90625 
L 55.90625 64.59375 
L 19.671875 64.59375 
L 19.671875 43.015625 
L 54.390625 43.015625 
L 54.390625 34.71875 
L 19.671875 34.71875 
L 19.671875 8.296875 
L 56.78125 8.296875 
L 56.78125 0 
L 9.8125 0 
z
" id="DejaVuSans-69"/>
       <path d="M 2.984375 54.6875 
L 12.5 54.6875 
L 29.59375 8.796875 
L 46.6875 54.6875 
L 56.203125 54.6875 
L 35.6875 0 
L 23.484375 0 
z
" id="DejaVuSans-118"/>
       <path d="M 34.28125 27.484375 
Q 23.390625 27.484375 19.1875 25 
Q 14.984375 22.515625 14.984375 16.5 
Q 14.984375 11.71875 18.140625 8.90625 
Q 21.296875 6.109375 26.703125 6.109375 
Q 34.1875 6.109375 38.703125 11.40625 
Q 43.21875 16.703125 43.21875 25.484375 
L 43.21875 27.484375 
z
M 52.203125 31.203125 
L 52.203125 0 
L 43.21875 0 
L 43.21875 8.296875 
Q 40.140625 3.328125 35.546875 0.953125 
Q 30.953125 -1.421875 24.3125 -1.421875 
Q 15.921875 -1.421875 10.953125 3.296875 
Q 6 8.015625 6 15.921875 
Q 6 25.140625 12.171875 29.828125 
Q 18.359375 34.515625 30.609375 34.515625 
L 43.21875 34.515625 
L 43.21875 35.40625 
Q 43.21875 41.609375 39.140625 45 
Q 35.0625 48.390625 27.6875 48.390625 
Q 23 48.390625 18.546875 47.265625 
Q 14.109375 46.140625 10.015625 43.890625 
L 10.015625 52.203125 
Q 14.9375 54.109375 19.578125 55.046875 
Q 24.21875 56 28.609375 56 
Q 40.484375 56 46.34375 49.84375 
Q 52.203125 43.703125 52.203125 31.203125 
z
" id="DejaVuSans-97"/>
       <path d="M 44.28125 53.078125 
L 44.28125 44.578125 
Q 40.484375 46.53125 36.375 47.5 
Q 32.28125 48.484375 27.875 48.484375 
Q 21.1875 48.484375 17.84375 46.4375 
Q 14.5 44.390625 14.5 40.28125 
Q 14.5 37.15625 16.890625 35.375 
Q 19.28125 33.59375 26.515625 31.984375 
L 29.59375 31.296875 
Q 39.15625 29.25 43.1875 25.515625 
Q 47.21875 21.78125 47.21875 15.09375 
Q 47.21875 7.46875 41.1875 3.015625 
Q 35.15625 -1.421875 24.609375 -1.421875 
Q 20.21875 -1.421875 15.453125 -0.5625 
Q 10.6875 0.296875 5.421875 2 
L 5.421875 11.28125 
Q 10.40625 8.6875 15.234375 7.390625 
Q 20.0625 6.109375 24.8125 6.109375 
Q 31.15625 6.109375 34.5625 8.28125 
Q 37.984375 10.453125 37.984375 14.40625 
Q 37.984375 18.0625 35.515625 20.015625 
Q 33.0625 21.96875 24.703125 23.78125 
L 21.578125 24.515625 
Q 13.234375 26.265625 9.515625 29.90625 
Q 5.8125 33.546875 5.8125 39.890625 
Q 5.8125 47.609375 11.28125 51.796875 
Q 16.75 56 26.8125 56 
Q 31.78125 56 36.171875 55.265625 
Q 40.578125 54.546875 44.28125 53.078125 
z
" id="DejaVuSans-115"/>
       <path d="M 25.390625 72.90625 
L 33.6875 72.90625 
L 8.296875 -9.28125 
L 0 -9.28125 
z
" id="DejaVuSans-47"/>
       <path d="M 19.671875 64.796875 
L 19.671875 8.109375 
L 31.59375 8.109375 
Q 46.6875 8.109375 53.6875 14.9375 
Q 60.6875 21.78125 60.6875 36.53125 
Q 60.6875 51.171875 53.6875 57.984375 
Q 46.6875 64.796875 31.59375 64.796875 
z
M 9.8125 72.90625 
L 30.078125 72.90625 
Q 51.265625 72.90625 61.171875 64.09375 
Q 71.09375 55.28125 71.09375 36.53125 
Q 71.09375 17.671875 61.125 8.828125 
Q 51.171875 0 30.078125 0 
L 9.8125 0 
z
" id="DejaVuSans-68"/>
       <path d="M 9.8125 72.90625 
L 19.671875 72.90625 
L 19.671875 0 
L 9.8125 0 
z
" id="DejaVuSans-73"/>
       <path d="M 9.8125 72.90625 
L 24.515625 72.90625 
L 43.109375 23.296875 
L 61.8125 72.90625 
L 76.515625 72.90625 
L 76.515625 0 
L 66.890625 0 
L 66.890625 64.015625 
L 48.09375 14.015625 
L 38.1875 14.015625 
L 19.390625 64.015625 
L 19.390625 0 
L 9.8125 0 
z
" id="DejaVuSans-77"/>
      </defs>
      <use xlink:href="#DejaVuSans-108"/>
      <use x="27.783203" xlink:href="#DejaVuSans-111"/>
      <use x="88.964844" xlink:href="#DejaVuSans-103"/>
      <use x="152.441406" xlink:href="#DejaVuSans-49"/>
      <use x="216.064453" xlink:href="#DejaVuSans-48"/>
      <use x="279.6875" xlink:href="#DejaVuSans-32"/>
      <use x="311.474609" xlink:href="#DejaVuSans-111"/>
      <use x="372.65625" xlink:href="#DejaVuSans-102"/>
      <use x="407.861328" xlink:href="#DejaVuSans-32"/>
      <use x="439.648438" xlink:href="#DejaVuSans-70"/>
      <use x="497.167969" xlink:href="#DejaVuSans-69"/>
      <use x="560.351562" xlink:href="#DejaVuSans-118"/>
      <use x="619.53125" xlink:href="#DejaVuSans-97"/>
      <use x="680.810547" xlink:href="#DejaVuSans-108"/>
      <use x="708.59375" xlink:href="#DejaVuSans-115"/>
      <use x="760.693359" xlink:href="#DejaVuSans-32"/>
      <use x="792.480469" xlink:href="#DejaVuSans-47"/>
      <use x="826.171875" xlink:href="#DejaVuSans-32"/>
      <use x="857.958984" xlink:href="#DejaVuSans-68"/>
      <use x="934.960938" xlink:href="#DejaVuSans-73"/>
      <use x="964.453125" xlink:href="#DejaVuSans-77"/>
     </g>
    </g>
   </g>
   <g id="matplotlib.axis_2">
    <g id="ytick_1">
     <g id="line2d_13">
      <path clip-path="url(#p05f7bc1579)" d="M 62.208 293.76 
L 460.8 293.76 
" style="fill:none;stroke:#b0b0b0;stroke-linecap:square;stroke-width:0.8;"/>
     </g>
     <g id="line2d_14">
      <defs>
       <path d="M 0 0 
L -3.5 0 
" id="m6d975de5c9" style="stroke:#000000;stroke-width:0.8;"/>
      </defs>
      <g>
       <use style="stroke:#000000;stroke-width:0.8;" x="62.208" xlink:href="#m6d975de5c9" y="293.76"/>
      </g>
     </g>
     <g id="text_8">
      <!-- 0.0 -->
      <g transform="translate(29.763 299.83875)scale(0.16 -0.16)">
       <defs>
        <path d="M 10.6875 12.40625 
L 21 12.40625 
L 21 0 
L 10.6875 0 
z
" id="DejaVuSans-46"/>
       </defs>
       <use xlink:href="#DejaVuSans-48"/>
       <use x="63.623047" xlink:href="#DejaVuSans-46"/>
       <use x="95.410156" xlink:href="#DejaVuSans-48"/>
      </g>
     </g>
    </g>
    <g id="ytick_2">
     <g id="line2d_15">
      <path clip-path="url(#p05f7bc1579)" d="M 62.208 236.274059 
L 460.8 236.274059 
" style="fill:none;stroke:#b0b0b0;stroke-linecap:square;stroke-width:0.8;"/>
     </g>
     <g id="line2d_16">
      <g>
       <use style="stroke:#000000;stroke-width:0.8;" x="62.208" xlink:href="#m6d975de5c9" y="236.274059"/>
      </g>
     </g>
     <g id="text_9">
      <!-- 0.2 -->
      <g transform="translate(29.763 242.352809)scale(0.16 -0.16)">
       <use xlink:href="#DejaVuSans-48"/>
       <use x="63.623047" xlink:href="#DejaVuSans-46"/>
       <use x="95.410156" xlink:href="#DejaVuSans-50"/>
      </g>
     </g>
    </g>
    <g id="ytick_3">
     <g id="line2d_17">
      <path clip-path="url(#p05f7bc1579)" d="M 62.208 178.788119 
L 460.8 178.788119 
" style="fill:none;stroke:#b0b0b0;stroke-linecap:square;stroke-width:0.8;"/>
     </g>
     <g id="line2d_18">
      <g>
       <use style="stroke:#000000;stroke-width:0.8;" x="62.208" xlink:href="#m6d975de5c9" y="178.788119"/>
      </g>
     </g>
     <g id="text_10">
      <!-- 0.4 -->
      <g transform="translate(29.763 184.866869)scale(0.16 -0.16)">
       <use xlink:href="#DejaVuSans-48"/>
       <use x="63.623047" xlink:href="#DejaVuSans-46"/>
       <use x="95.410156" xlink:href="#DejaVuSans-52"/>
      </g>
     </g>
    </g>
    <g id="ytick_4">
     <g id="line2d_19">
      <path clip-path="url(#p05f7bc1579)" d="M 62.208 121.302178 
L 460.8 121.302178 
" style="fill:none;stroke:#b0b0b0;stroke-linecap:square;stroke-width:0.8;"/>
     </g>
     <g id="line2d_20">
      <g>
       <use style="stroke:#000000;stroke-width:0.8;" x="62.208" xlink:href="#m6d975de5c9" y="121.302178"/>
      </g>
     </g>
     <g id="text_11">
      <!-- 0.6 -->
      <g transform="translate(29.763 127.380928)scale(0.16 -0.16)">
       <defs>
        <path d="M 33.015625 40.375 
Q 26.375 40.375 22.484375 35.828125 
Q 18.609375 31.296875 18.609375 23.390625 
Q 18.609375 15.53125 22.484375 10.953125 
Q 26.375 6.390625 33.015625 6.390625 
Q 39.65625 6.390625 43.53125 10.953125 
Q 47.40625 15.53125 47.40625 23.390625 
Q 47.40625 31.296875 43.53125 35.828125 
Q 39.65625 40.375 33.015625 40.375 
z
M 52.59375 71.296875 
L 52.59375 62.3125 
Q 48.875 64.0625 45.09375 64.984375 
Q 41.3125 65.921875 37.59375 65.921875 
Q 27.828125 65.921875 22.671875 59.328125 
Q 17.53125 52.734375 16.796875 39.40625 
Q 19.671875 43.65625 24.015625 45.921875 
Q 28.375 48.1875 33.59375 48.1875 
Q 44.578125 48.1875 50.953125 41.515625 
Q 57.328125 34.859375 57.328125 23.390625 
Q 57.328125 12.15625 50.6875 5.359375 
Q 44.046875 -1.421875 33.015625 -1.421875 
Q 20.359375 -1.421875 13.671875 8.265625 
Q 6.984375 17.96875 6.984375 36.375 
Q 6.984375 53.65625 15.1875 63.9375 
Q 23.390625 74.21875 37.203125 74.21875 
Q 40.921875 74.21875 44.703125 73.484375 
Q 48.484375 72.75 52.59375 71.296875 
z
" id="DejaVuSans-54"/>
       </defs>
       <use xlink:href="#DejaVuSans-48"/>
       <use x="63.623047" xlink:href="#DejaVuSans-46"/>
       <use x="95.410156" xlink:href="#DejaVuSans-54"/>
      </g>
     </g>
    </g>
    <g id="ytick_5">
     <g id="line2d_21">
      <path clip-path="url(#p05f7bc1579)" d="M 62.208 63.816238 
L 460.8 63.816238 
" style="fill:none;stroke:#b0b0b0;stroke-linecap:square;stroke-width:0.8;"/>
     </g>
     <g id="line2d_22">
      <g>
       <use style="stroke:#000000;stroke-width:0.8;" x="62.208" xlink:href="#m6d975de5c9" y="63.816238"/>
      </g>
     </g>
     <g id="text_12">
      <!-- 0.8 -->
      <g transform="translate(29.763 69.894988)scale(0.16 -0.16)">
       <defs>
        <path d="M 31.78125 34.625 
Q 24.75 34.625 20.71875 30.859375 
Q 16.703125 27.09375 16.703125 20.515625 
Q 16.703125 13.921875 20.71875 10.15625 
Q 24.75 6.390625 31.78125 6.390625 
Q 38.8125 6.390625 42.859375 10.171875 
Q 46.921875 13.96875 46.921875 20.515625 
Q 46.921875 27.09375 42.890625 30.859375 
Q 38.875 34.625 31.78125 34.625 
z
M 21.921875 38.8125 
Q 15.578125 40.375 12.03125 44.71875 
Q 8.5 49.078125 8.5 55.328125 
Q 8.5 64.0625 14.71875 69.140625 
Q 20.953125 74.21875 31.78125 74.21875 
Q 42.671875 74.21875 48.875 69.140625 
Q 55.078125 64.0625 55.078125 55.328125 
Q 55.078125 49.078125 51.53125 44.71875 
Q 48 40.375 41.703125 38.8125 
Q 48.828125 37.15625 52.796875 32.3125 
Q 56.78125 27.484375 56.78125 20.515625 
Q 56.78125 9.90625 50.3125 4.234375 
Q 43.84375 -1.421875 31.78125 -1.421875 
Q 19.734375 -1.421875 13.25 4.234375 
Q 6.78125 9.90625 6.78125 20.515625 
Q 6.78125 27.484375 10.78125 32.3125 
Q 14.796875 37.15625 21.921875 38.8125 
z
M 18.3125 54.390625 
Q 18.3125 48.734375 21.84375 45.5625 
Q 25.390625 42.390625 31.78125 42.390625 
Q 38.140625 42.390625 41.71875 45.5625 
Q 45.3125 48.734375 45.3125 54.390625 
Q 45.3125 60.0625 41.71875 63.234375 
Q 38.140625 66.40625 31.78125 66.40625 
Q 25.390625 66.40625 21.84375 63.234375 
Q 18.3125 60.0625 18.3125 54.390625 
z
" id="DejaVuSans-56"/>
       </defs>
       <use xlink:href="#DejaVuSans-48"/>
       <use x="63.623047" xlink:href="#DejaVuSans-46"/>
       <use x="95.410156" xlink:href="#DejaVuSans-56"/>
      </g>
     </g>
    </g>
    <g id="ytick_6">
     <g id="line2d_23">
      <path clip-path="url(#p05f7bc1579)" d="M 62.208 6.330297 
L 460.8 6.330297 
" style="fill:none;stroke:#b0b0b0;stroke-linecap:square;stroke-width:0.8;"/>
     </g>
     <g id="line2d_24">
      <g>
       <use style="stroke:#000000;stroke-width:0.8;" x="62.208" xlink:href="#m6d975de5c9" y="6.330297"/>
      </g>
     </g>
     <g id="text_13">
      <!-- 1.0 -->
      <g transform="translate(29.763 12.409047)scale(0.16 -0.16)">
       <use xlink:href="#DejaVuSans-49"/>
       <use x="63.623047" xlink:href="#DejaVuSans-46"/>
       <use x="95.410156" xlink:href="#DejaVuSans-48"/>
      </g>
     </g>
    </g>
    <g id="text_14">
     <!-- proportion of trials -->
     <g transform="translate(21.603625 241.61425)rotate(-90)scale(0.2 -0.2)">
      <defs>
       <path d="M 18.109375 8.203125 
L 18.109375 -20.796875 
L 9.078125 -20.796875 
L 9.078125 54.6875 
L 18.109375 54.6875 
L 18.109375 46.390625 
Q 20.953125 51.265625 25.265625 53.625 
Q 29.59375 56 35.59375 56 
Q 45.5625 56 51.78125 48.09375 
Q 58.015625 40.1875 58.015625 27.296875 
Q 58.015625 14.40625 51.78125 6.484375 
Q 45.5625 -1.421875 35.59375 -1.421875 
Q 29.59375 -1.421875 25.265625 0.953125 
Q 20.953125 3.328125 18.109375 8.203125 
z
M 48.6875 27.296875 
Q 48.6875 37.203125 44.609375 42.84375 
Q 40.53125 48.484375 33.40625 48.484375 
Q 26.265625 48.484375 22.1875 42.84375 
Q 18.109375 37.203125 18.109375 27.296875 
Q 18.109375 17.390625 22.1875 11.75 
Q 26.265625 6.109375 33.40625 6.109375 
Q 40.53125 6.109375 44.609375 11.75 
Q 48.6875 17.390625 48.6875 27.296875 
z
" id="DejaVuSans-112"/>
       <path d="M 41.109375 46.296875 
Q 39.59375 47.171875 37.8125 47.578125 
Q 36.03125 48 33.890625 48 
Q 26.265625 48 22.1875 43.046875 
Q 18.109375 38.09375 18.109375 28.8125 
L 18.109375 0 
L 9.078125 0 
L 9.078125 54.6875 
L 18.109375 54.6875 
L 18.109375 46.1875 
Q 20.953125 51.171875 25.484375 53.578125 
Q 30.03125 56 36.53125 56 
Q 37.453125 56 38.578125 55.875 
Q 39.703125 55.765625 41.0625 55.515625 
z
" id="DejaVuSans-114"/>
       <path d="M 18.3125 70.21875 
L 18.3125 54.6875 
L 36.8125 54.6875 
L 36.8125 47.703125 
L 18.3125 47.703125 
L 18.3125 18.015625 
Q 18.3125 11.328125 20.140625 9.421875 
Q 21.96875 7.515625 27.59375 7.515625 
L 36.8125 7.515625 
L 36.8125 0 
L 27.59375 0 
Q 17.1875 0 13.234375 3.875 
Q 9.28125 7.765625 9.28125 18.015625 
L 9.28125 47.703125 
L 2.6875 47.703125 
L 2.6875 54.6875 
L 9.28125 54.6875 
L 9.28125 70.21875 
z
" id="DejaVuSans-116"/>
       <path d="M 9.421875 54.6875 
L 18.40625 54.6875 
L 18.40625 0 
L 9.421875 0 
z
M 9.421875 75.984375 
L 18.40625 75.984375 
L 18.40625 64.59375 
L 9.421875 64.59375 
z
" id="DejaVuSans-105"/>
       <path d="M 54.890625 33.015625 
L 54.890625 0 
L 45.90625 0 
L 45.90625 32.71875 
Q 45.90625 40.484375 42.875 44.328125 
Q 39.84375 48.1875 33.796875 48.1875 
Q 26.515625 48.1875 22.3125 43.546875 
Q 18.109375 38.921875 18.109375 30.90625 
L 18.109375 0 
L 9.078125 0 
L 9.078125 54.6875 
L 18.109375 54.6875 
L 18.109375 46.1875 
Q 21.34375 51.125 25.703125 53.5625 
Q 30.078125 56 35.796875 56 
Q 45.21875 56 50.046875 50.171875 
Q 54.890625 44.34375 54.890625 33.015625 
z
" id="DejaVuSans-110"/>
      </defs>
      <use xlink:href="#DejaVuSans-112"/>
      <use x="63.476562" xlink:href="#DejaVuSans-114"/>
      <use x="102.339844" xlink:href="#DejaVuSans-111"/>
      <use x="163.521484" xlink:href="#DejaVuSans-112"/>
      <use x="226.998047" xlink:href="#DejaVuSans-111"/>
      <use x="288.179688" xlink:href="#DejaVuSans-114"/>
      <use x="329.292969" xlink:href="#DejaVuSans-116"/>
      <use x="368.501953" xlink:href="#DejaVuSans-105"/>
      <use x="396.285156" xlink:href="#DejaVuSans-111"/>
      <use x="457.466797" xlink:href="#DejaVuSans-110"/>
      <use x="520.845703" xlink:href="#DejaVuSans-32"/>
      <use x="552.632812" xlink:href="#DejaVuSans-111"/>
      <use x="613.814453" xlink:href="#DejaVuSans-102"/>
      <use x="649.019531" xlink:href="#DejaVuSans-32"/>
      <use x="680.806641" xlink:href="#DejaVuSans-116"/>
      <use x="720.015625" xlink:href="#DejaVuSans-114"/>
      <use x="761.128906" xlink:href="#DejaVuSans-105"/>
      <use x="788.912109" xlink:href="#DejaVuSans-97"/>
      <use x="850.191406" xlink:href="#DejaVuSans-108"/>
      <use x="877.974609" xlink:href="#DejaVuSans-115"/>
     </g>
    </g>
   </g>
   <g id="line2d_25">
    <path clip-path="url(#p05f7bc1579)" d="M 179.555454 293.76 
L 179.555454 293.237401 
L 188.008887 293.237401 
L 188.008887 292.714801 
L 193.221418 292.714801 
L 193.221418 292.192202 
L 194.798005 292.192202 
L 194.798005 291.147003 
L 196.305914 291.147003 
L 196.305914 290.624403 
L 197.750879 290.624403 
L 197.750879 289.056605 
L 199.137944 289.056605 
L 199.137944 288.011406 
L 200.471572 288.011406 
L 200.471572 285.921008 
L 201.755728 285.921008 
L 201.755728 282.785411 
L 202.993952 282.785411 
L 202.993952 281.217613 
L 204.189415 281.217613 
L 204.189415 280.172414 
L 205.344973 280.172414 
L 205.344973 279.649815 
L 207.546446 279.649815 
L 207.546446 277.559417 
L 208.59682 277.559417 
L 208.59682 277.036817 
L 209.616263 277.036817 
L 209.616263 274.42382 
L 210.606545 274.42382 
L 210.606545 273.378621 
L 211.569287 273.378621 
L 211.569287 272.333422 
L 212.50598 272.333422 
L 212.50598 271.288223 
L 213.417996 271.288223 
L 213.417996 270.765624 
L 215.172973 270.765624 
L 215.172973 270.243024 
L 216.01819 270.243024 
L 216.01819 269.197825 
L 216.843263 269.197825 
L 216.843263 267.630027 
L 217.649131 267.630027 
L 217.649131 266.062229 
L 219.95995 266.062229 
L 219.95995 265.01703 
L 221.419027 265.01703 
L 221.419027 263.971831 
L 222.126136 263.971831 
L 222.126136 263.449231 
L 222.819091 263.449231 
L 222.819091 262.926632 
L 223.498449 262.926632 
L 223.498449 261.881433 
L 224.164732 261.881433 
L 224.164732 260.313635 
L 224.818434 260.313635 
L 224.818434 259.791035 
L 225.460021 259.791035 
L 225.460021 259.268436 
L 226.708592 259.268436 
L 226.708592 258.223237 
L 227.316389 258.223237 
L 227.316389 257.700637 
L 229.646179 257.700637 
L 229.646179 256.655438 
L 232.353892 256.655438 
L 232.353892 256.132839 
L 233.882371 256.132839 
L 233.882371 255.610239 
L 235.182685 255.610239 
L 235.182685 255.08764 
L 236.750665 255.08764 
L 236.750665 254.565041 
L 238.100357 254.565041 
L 238.100357 254.042441 
L 238.971779 254.042441 
L 238.971779 253.519842 
L 239.954669 253.519842 
L 239.954669 252.997242 
L 240.65146 252.997242 
L 240.65146 252.474643 
L 241.461698 252.474643 
L 241.461698 251.952043 
L 241.859815 251.952043 
L 241.859815 251.429444 
L 242.253406 251.429444 
L 242.253406 250.906844 
L 243.111322 250.906844 
L 243.139246 249.861645 
L 245.607791 249.861645 
L 245.607791 249.339046 
L 246.716175 249.339046 
L 246.716175 248.816446 
L 247.339849 248.816446 
L 247.339849 248.293847 
L 248.202576 248.293847 
L 248.202576 247.771248 
L 249.942626 247.771248 
L 249.942626 247.248648 
L 250.64635 247.248648 
L 250.64635 246.726049 
L 252.491406 246.726049 
L 252.491406 246.203449 
L 256.427668 246.203449 
L 256.427668 245.68085 
L 264.523895 245.68085 
L 264.523895 245.15825 
L 266.393922 245.15825 
L 266.393922 244.635651 
L 267.122917 244.635651 
L 267.122917 244.113051 
L 267.543863 244.113051 
L 267.543863 243.590452 
L 268.375195 243.590452 
L 268.375195 243.067852 
L 269.187032 243.067852 
L 269.261491 242.022653 
L 269.431706 242.022653 
L 269.431706 241.500054 
L 270.440018 241.500054 
L 270.440018 240.977455 
L 271.047828 240.977455 
L 271.047828 240.454855 
L 271.246706 240.454855 
L 271.312746 239.409656 
L 271.436232 239.409656 
L 271.436232 238.887057 
L 273.034111 238.887057 
L 273.034111 238.364457 
L 273.482402 238.364457 
L 273.482402 237.841858 
L 274.16883 237.841858 
L 274.16883 237.319258 
L 274.875411 237.319258 
L 274.875411 236.796659 
L 275.145934 236.796659 
L 275.145934 236.274059 
L 275.341025 236.274059 
L 275.377712 235.22886 
L 276.357403 235.22886 
L 276.357403 234.706261 
L 277.369032 234.706261 
L 277.369032 234.183662 
L 277.863974 234.183662 
L 277.863974 233.661062 
L 278.179904 233.661062 
L 278.179904 233.138463 
L 278.479569 233.138463 
L 278.586684 231.570664 
L 279.160099 231.570664 
L 279.160099 231.048065 
L 279.288065 231.048065 
L 279.288065 230.525465 
L 279.519821 230.525465 
L 279.519821 230.002866 
L 280.693644 230.002866 
L 280.693644 229.480266 
L 281.68258 229.480266 
L 281.68258 228.957667 
L 281.926221 228.957667 
L 282.005037 227.912468 
L 282.682672 227.912468 
L 282.682672 227.389869 
L 284.167644 227.389869 
L 284.167644 226.867269 
L 284.56361 226.867269 
L 284.56361 226.34467 
L 285.686949 226.34467 
L 285.695116 225.299471 
L 285.801103 225.299471 
L 285.801103 224.776871 
L 286.22452 224.776871 
L 286.22452 224.254272 
L 286.613676 224.254272 
L 286.613676 223.731672 
L 287.199756 223.731672 
L 287.199756 223.209073 
L 287.591049 223.209073 
L 287.591049 222.686473 
L 287.962677 222.686473 
L 287.962677 222.163874 
L 288.32279 222.163874 
L 288.32279 221.641275 
L 290.169826 221.641275 
L 290.169826 221.118675 
L 290.329707 221.118675 
L 290.329707 220.596076 
L 290.917502 220.596076 
L 290.917502 220.073476 
L 291.076305 220.073476 
L 291.076305 219.550877 
L 291.35478 219.550877 
L 291.35478 219.028277 
L 291.90055 219.028277 
L 291.90055 218.505678 
L 292.372824 218.505678 
L 292.372824 217.983078 
L 292.578691 217.983078 
L 292.618826 216.937879 
L 292.90953 216.937879 
L 292.90953 216.41528 
L 293.27443 216.41528 
L 293.322503 215.370081 
L 293.650669 215.370081 
L 293.650669 214.847482 
L 294.253204 214.847482 
L 294.253204 214.324882 
L 294.418612 214.324882 
L 294.418612 213.802283 
L 294.939337 213.802283 
L 294.939337 213.279683 
L 295.068304 213.279683 
L 295.068304 212.757084 
L 295.349527 212.757084 
L 295.349527 212.234484 
L 295.581465 212.234484 
L 295.581465 211.711885 
L 296.499962 211.711885 
L 296.553708 210.666686 
L 296.93548 210.666686 
L 296.953181 209.621487 
L 298.850711 209.621487 
L 298.850711 209.098887 
L 299.034497 209.098887 
L 299.034497 208.576288 
L 299.180458 208.576288 
L 299.180458 208.053689 
L 299.380841 208.053689 
L 299.43762 207.00849 
L 299.819817 207.00849 
L 299.819817 206.48589 
L 300.21574 206.48589 
L 300.280098 205.440691 
L 300.451138 205.440691 
L 300.451138 204.918092 
L 300.931212 204.918092 
L 301.032726 203.872893 
L 301.151364 203.872893 
L 301.151364 203.350293 
L 302.475523 203.350293 
L 302.475523 202.827694 
L 302.850657 202.827694 
L 302.850657 202.305095 
L 303.783196 202.305095 
L 303.783196 201.782495 
L 304.099741 201.782495 
L 304.099741 201.259896 
L 304.303874 201.259896 
L 304.303874 200.737296 
L 305.007452 200.737296 
L 305.007452 200.214697 
L 306.109991 200.214697 
L 306.109991 199.692097 
L 306.326647 199.692097 
L 306.326647 199.169498 
L 308.472541 199.169498 
L 308.472541 198.646898 
L 308.887323 198.646898 
L 308.887323 198.124299 
L 309.304077 198.124299 
L 309.306829 197.0791 
L 309.965211 197.0791 
L 310.059598 196.033901 
L 310.997448 196.033901 
L 310.997448 195.511302 
L 312.902072 195.511302 
L 312.902072 194.988702 
L 313.548459 194.988702 
L 313.548459 194.466103 
L 315.23781 194.466103 
L 315.23781 193.943503 
L 315.555211 193.943503 
L 315.555211 193.420904 
L 316.023088 193.420904 
L 316.023088 192.898304 
L 316.162227 192.898304 
L 316.162227 192.375705 
L 320.251688 192.375705 
L 320.251688 191.853105 
L 321.464103 191.853105 
L 321.464103 191.330506 
L 322.793387 191.330506 
L 322.793387 190.807906 
L 324.192785 190.807906 
L 324.192785 190.285307 
L 327.221041 190.285307 
L 327.221041 189.762707 
L 327.892831 189.762707 
L 327.892831 189.240108 
L 328.279235 189.240108 
L 328.279235 188.717509 
L 330.808332 188.717509 
L 330.808332 188.194909 
L 331.103615 188.194909 
L 331.103615 187.67231 
L 332.25381 187.67231 
L 332.25381 187.14971 
L 335.471453 187.14971 
L 335.471453 186.627111 
L 336.024153 186.627111 
L 336.024153 186.104511 
L 336.23912 186.104511 
L 336.23912 185.581912 
L 337.233619 185.581912 
L 337.233619 185.059312 
L 337.518685 185.059312 
L 337.518685 184.536713 
L 340.22133 184.536713 
L 340.22133 184.014113 
L 341.670794 184.014113 
L 341.670794 183.491514 
L 342.483087 183.491514 
L 342.483087 182.968914 
L 343.556773 182.968914 
L 343.556773 182.446315 
L 343.700268 182.446315 
L 343.700268 181.923716 
L 347.839955 181.923716 
L 347.839955 181.401116 
L 349.427201 181.401116 
L 349.427201 180.878517 
L 353.811967 180.878517 
L 353.811967 180.355917 
L 354.09959 180.355917 
L 354.09959 179.833318 
L 354.434588 179.833318 
L 354.434588 179.310718 
L 355.383851 179.310718 
L 355.383851 178.788119 
L 358.331476 178.788119 
L 358.331476 178.265519 
L 360.070727 178.265519 
L 360.070727 177.74292 
L 365.105402 177.74292 
L 365.105402 177.22032 
L 368.875706 177.22032 
L 368.875706 176.697721 
L 371.906246 176.697721 
L 371.906246 176.175122 
L 372.737364 176.175122 
L 372.737364 175.652522 
L 375.111971 175.652522 
L 375.210148 174.607323 
L 375.96383 174.607323 
L 375.96383 174.084724 
L 376.355547 174.084724 
L 376.355547 173.562124 
L 383.110373 173.562124 
L 383.110373 173.039525 
L 384.033085 173.039525 
L 384.033085 172.516925 
L 385.514096 172.516925 
L 385.514096 171.994326 
L 386.427936 171.994326 
L 386.427936 171.471726 
L 387.108738 171.471726 
L 387.108738 170.949127 
L 389.693331 170.949127 
L 389.693331 170.426527 
L 392.484379 170.426527 
L 392.484379 169.903928 
L 393.135488 169.903928 
L 393.135488 169.381329 
L 395.36311 169.381329 
L 395.36311 168.858729 
L 396.016735 168.858729 
L 396.016735 168.33613 
L 396.329061 168.33613 
L 396.329061 167.81353 
L 396.564957 167.81353 
L 396.564957 167.290931 
L 398.700872 167.290931 
L 398.700872 166.768331 
L 399.035682 166.768331 
L 399.035682 166.245732 
L 400.627305 166.245732 
L 400.627305 165.723132 
L 401.165451 165.723132 
L 401.165451 165.200533 
L 401.940156 165.200533 
L 401.940156 164.677933 
L 402.272986 164.677933 
L 402.272986 164.155334 
L 403.3682 164.155334 
L 403.3682 163.632734 
L 404.762559 163.632734 
L 404.864693 162.587536 
L 404.976599 162.587536 
L 404.976599 162.064936 
L 406.023849 162.064936 
L 406.023849 161.542337 
L 406.158513 161.542337 
L 406.158513 161.019737 
L 408.782639 161.019737 
L 408.782639 160.497138 
L 408.898637 160.497138 
L 408.898637 159.974538 
L 409.130628 159.974538 
L 409.130628 159.451939 
L 410.835065 159.451939 
L 410.835065 158.929339 
L 411.419262 158.929339 
L 411.419262 158.40674 
L 411.984832 158.40674 
L 411.984832 157.88414 
L 412.096182 157.88414 
L 412.096182 157.361541 
L 412.826061 157.361541 
L 412.826061 156.838941 
L 413.587204 156.838941 
L 413.587204 156.316342 
L 413.76216 156.316342 
L 413.76216 155.793743 
L 413.940591 155.793743 
L 413.940591 155.271143 
L 417.624082 155.271143 
L 417.624082 154.748544 
L 420.896019 154.748544 
L 420.896019 154.225944 
L 421.106404 154.225944 
L 421.123397 153.180745 
L 421.280085 153.180745 
L 421.282741 152.135546 
L 421.816409 152.135546 
L 421.816409 151.612947 
L 425.871242 151.612947 
L 425.871242 151.090347 
L 426.355128 151.090347 
L 426.355128 150.567748 
L 427.982548 150.567748 
L 427.982548 150.045149 
L 429.597864 150.045149 
L 429.597864 149.522549 
L 433.514571 149.522549 
L 433.605174 148.47735 
L 434.768391 148.47735 
L 434.768391 147.954751 
L 435.848589 147.954751 
L 435.848589 147.432151 
L 436.54379 147.432151 
L 436.54379 146.909552 
L 437.5109 146.909552 
L 437.5109 146.386952 
L 437.788336 146.386952 
L 437.788336 145.864353 
L 438.424284 145.864353 
L 438.481423 144.296554 
L 440.290866 144.296554 
L 440.290866 143.773955 
L 441.412393 143.773955 
L 441.412393 143.251356 
L 441.782582 143.251356 
L 441.782582 142.728756 
L 446.07676 142.728756 
L 446.07676 142.206157 
L 446.697172 142.206157 
L 446.697172 141.683557 
L 447.9443 141.683557 
L 447.9443 141.160958 
L 448.635136 141.160958 
L 448.635136 140.638358 
L 449.902989 140.638358 
L 449.927335 139.593159 
L 451.541308 139.593159 
L 451.625526 138.54796 
L 452.324291 138.54796 
L 452.324291 138.025361 
L 452.452437 138.025361 
L 452.452437 137.502761 
L 453.367354 137.502761 
L 453.453479 136.457563 
L 453.933136 136.457563 
L 453.933136 135.934963 
L 454.047711 135.934963 
L 454.047711 135.412364 
L 454.367467 135.412364 
L 454.367467 134.889764 
L 455.549505 134.889764 
L 455.549505 134.367165 
L 456.411347 134.367165 
L 456.411347 133.844565 
L 456.832413 133.844565 
L 456.832413 133.321966 
L 457.613794 133.321966 
L 457.61704 132.276767 
L 457.747246 132.276767 
L 457.747246 131.754167 
L 458.476388 131.754167 
L 458.476388 131.231568 
L 459.452751 131.231568 
L 459.452751 130.708968 
L 459.82696 130.708968 
L 459.82696 130.186369 
L 459.971334 130.186369 
L 459.971334 129.66377 
L 459.971334 129.66377 
L 460.8 129.66377 
L 460.8 129.66377 
" style="fill:none;stroke:#000000;stroke-linecap:square;stroke-width:1.5;"/>
   </g>
   <g id="line2d_26">
    <path clip-path="url(#p05f7bc1579)" style="fill:none;stroke:#000000;stroke-linecap:square;stroke-width:1.5;"/>
   </g>
   <g id="line2d_27">
    <path clip-path="url(#p05f7bc1579)" d="M 207.546446 293.76 
L 207.546446 293.237401 
L 213.417996 293.237401 
L 213.417996 292.714801 
L 216.843263 292.714801 
L 216.843263 292.192202 
L 220.697175 292.192202 
L 220.697175 291.669602 
L 221.419027 291.669602 
L 221.419027 291.147003 
L 222.126136 291.147003 
L 222.126136 290.624403 
L 233.380338 290.624403 
L 233.380338 290.101804 
L 240.239118 290.101804 
L 240.239118 289.579204 
L 243.408025 289.579204 
L 243.408025 288.534005 
L 250.163605 288.534005 
L 250.163605 288.011406 
L 252.033881 288.011406 
L 252.033881 287.488806 
L 253.423291 287.488806 
L 253.423291 286.966207 
L 254.350945 286.966207 
L 254.350945 286.443608 
L 254.898486 286.443608 
L 254.898486 285.921008 
L 256.160419 285.921008 
L 256.262472 284.875809 
L 259.47179 284.875809 
L 259.47179 284.35321 
L 261.865828 284.35321 
L 261.865828 283.83061 
L 262.869567 283.83061 
L 262.869567 283.308011 
L 269.178261 283.308011 
L 269.178261 282.785411 
L 272.055212 282.785411 
L 272.055212 282.262812 
L 274.490082 282.262812 
L 274.490082 281.740212 
L 275.027609 281.740212 
L 275.027609 281.217613 
L 280.548679 281.217613 
L 280.548679 280.695014 
L 285.665163 280.695014 
L 285.665163 280.172414 
L 285.784819 280.172414 
L 285.836361 279.127215 
L 287.824743 279.127215 
L 287.824743 278.604616 
L 288.196416 278.604616 
L 288.196416 278.082016 
L 290.443796 278.082016 
L 290.524382 277.036817 
L 292.433369 277.036817 
L 292.433369 276.514218 
L 292.61214 276.514218 
L 292.698958 274.946419 
L 293.533669 274.946419 
L 293.533669 274.42382 
L 293.65932 274.42382 
L 293.65932 273.901221 
L 295.252598 273.901221 
L 295.252598 273.378621 
L 295.575328 273.378621 
L 295.575328 272.856022 
L 296.175723 272.856022 
L 296.175723 272.333422 
L 297.516807 272.333422 
L 297.516807 271.810823 
L 297.661589 271.810823 
L 297.661589 271.288223 
L 298.910223 271.288223 
L 298.910223 270.765624 
L 299.204418 270.765624 
L 299.204418 270.243024 
L 301.128714 270.243024 
L 301.128714 269.720425 
L 301.661386 269.720425 
L 301.661386 269.197825 
L 301.849657 269.197825 
L 301.849657 268.675226 
L 302.05558 268.675226 
L 302.05558 268.152626 
L 303.799334 268.152626 
L 303.805787 267.107428 
L 304.388047 267.107428 
L 304.388047 266.584828 
L 305.471758 266.584828 
L 305.471758 266.062229 
L 305.990553 266.062229 
L 305.990553 265.539629 
L 306.750008 265.539629 
L 306.758897 264.49443 
L 307.406042 264.49443 
L 307.406042 263.971831 
L 308.021323 263.971831 
L 308.021323 263.449231 
L 308.878965 263.449231 
L 308.878965 262.926632 
L 309.772945 262.926632 
L 309.772945 262.404032 
L 310.859564 262.404032 
L 310.859564 261.881433 
L 311.024959 261.881433 
L 311.024959 261.358833 
L 311.453134 261.358833 
L 311.453134 260.836234 
L 311.636316 260.836234 
L 311.636316 260.313635 
L 312.620597 260.313635 
L 312.620597 259.791035 
L 313.081467 259.791035 
L 313.162815 258.745836 
L 314.977105 258.745836 
L 314.977105 258.223237 
L 315.098391 258.223237 
L 315.098391 257.700637 
L 318.001229 257.700637 
L 318.001229 257.178038 
L 319.223369 257.178038 
L 319.223369 256.655438 
L 319.621006 256.655438 
L 319.621006 256.132839 
L 320.156256 256.132839 
L 320.156256 255.610239 
L 321.263011 255.610239 
L 321.263011 255.08764 
L 322.307131 255.08764 
L 322.307131 254.565041 
L 322.990443 254.565041 
L 322.990443 254.042441 
L 324.599507 254.042441 
L 324.599507 253.519842 
L 325.088853 253.519842 
L 325.088853 252.997242 
L 325.663306 252.997242 
L 325.663306 252.474643 
L 329.664848 252.474643 
L 329.664848 251.952043 
L 333.482898 251.952043 
L 333.482898 251.429444 
L 335.199576 251.429444 
L 335.199576 250.906844 
L 335.496004 250.906844 
L 335.496004 250.384245 
L 338.750287 250.384245 
L 338.750287 249.861645 
L 340.187505 249.861645 
L 340.187505 249.339046 
L 340.818499 249.339046 
L 340.818499 248.816446 
L 340.996375 248.816446 
L 340.996375 248.293847 
L 342.049137 248.293847 
L 342.115885 247.248648 
L 345.599973 247.248648 
L 345.599973 246.726049 
L 346.401051 246.726049 
L 346.401051 246.203449 
L 352.327744 246.203449 
L 352.327744 245.68085 
L 353.296721 245.68085 
L 353.296721 245.15825 
L 356.072595 245.15825 
L 356.072595 244.635651 
L 358.597287 244.635651 
L 358.597287 244.113051 
L 359.104579 244.113051 
L 359.104579 243.590452 
L 360.000149 243.590452 
L 360.000149 243.067852 
L 364.056581 243.067852 
L 364.056581 242.545253 
L 364.475512 242.545253 
L 364.475512 242.022653 
L 365.643829 242.022653 
L 365.643829 241.500054 
L 366.281414 241.500054 
L 366.281414 240.977455 
L 368.288804 240.977455 
L 368.288804 240.454855 
L 369.970406 240.454855 
L 369.970406 239.932256 
L 373.32145 239.932256 
L 373.352194 238.887057 
L 373.634103 238.887057 
L 373.634103 238.364457 
L 374.293212 238.364457 
L 374.293212 237.841858 
L 377.71357 237.841858 
L 377.71357 237.319258 
L 378.635126 237.319258 
L 378.635126 236.796659 
L 382.083612 236.796659 
L 382.083612 236.274059 
L 384.018617 236.274059 
L 384.018617 235.75146 
L 387.134618 235.75146 
L 387.134618 235.22886 
L 387.393081 235.22886 
L 387.393081 234.706261 
L 387.779405 234.706261 
L 387.779405 234.183662 
L 388.328678 234.183662 
L 388.328678 233.661062 
L 388.513668 233.661062 
L 388.513668 233.138463 
L 390.455906 233.138463 
L 390.455906 232.615863 
L 390.692381 232.615863 
L 390.692381 232.093264 
L 390.993879 232.093264 
L 390.993879 231.570664 
L 394.03645 231.570664 
L 394.03645 231.048065 
L 394.768677 231.048065 
L 394.768677 230.525465 
L 395.218764 230.525465 
L 395.218764 230.002866 
L 395.460721 230.002866 
L 395.460721 229.480266 
L 395.572527 229.480266 
L 395.572527 228.957667 
L 395.875885 228.957667 
L 395.875885 228.435068 
L 396.915267 228.435068 
L 396.915267 227.912468 
L 397.947119 227.912468 
L 397.947119 227.389869 
L 399.302711 227.389869 
L 399.302711 226.867269 
L 400.808532 226.867269 
L 400.808532 226.34467 
L 401.225291 226.34467 
L 401.323348 225.299471 
L 402.73108 225.299471 
L 402.73108 224.776871 
L 403.798921 224.776871 
L 403.798921 224.254272 
L 404.104284 224.254272 
L 404.111317 223.209073 
L 404.384202 223.209073 
L 404.485784 221.641275 
L 405.61268 221.641275 
L 405.674076 220.596076 
L 405.750902 220.596076 
L 405.805952 219.550877 
L 407.665893 219.550877 
L 407.665893 219.028277 
L 408.219126 219.028277 
L 408.219126 218.505678 
L 408.707897 218.505678 
L 408.707897 217.983078 
L 409.049226 217.983078 
L 409.049226 217.460479 
L 413.823062 217.460479 
L 413.930874 216.41528 
L 414.497215 216.41528 
L 414.497215 215.89268 
L 415.209302 215.89268 
L 415.265584 214.847482 
L 415.675699 214.847482 
L 415.675699 214.324882 
L 415.803882 214.324882 
L 415.803882 213.802283 
L 416.022381 213.802283 
L 416.022381 213.279683 
L 416.760147 213.279683 
L 416.760147 212.757084 
L 418.350017 212.757084 
L 418.350017 212.234484 
L 418.534707 212.234484 
L 418.534707 211.711885 
L 420.170656 211.711885 
L 420.170656 211.189285 
L 420.638213 211.189285 
L 420.638213 210.666686 
L 421.484653 210.666686 
L 421.484653 210.144086 
L 421.61734 210.144086 
L 421.61734 209.621487 
L 422.004467 209.621487 
L 422.004467 209.098887 
L 423.02687 209.098887 
L 423.02687 208.576288 
L 423.25434 208.576288 
L 423.25434 208.053689 
L 423.677037 208.053689 
L 423.677037 207.531089 
L 424.208989 207.531089 
L 424.208989 207.00849 
L 424.953066 207.00849 
L 424.953066 206.48589 
L 425.41996 206.48589 
L 425.480222 205.440691 
L 425.789774 205.440691 
L 425.789774 204.918092 
L 426.166931 204.918092 
L 426.166931 204.395492 
L 428.243707 204.395492 
L 428.243707 203.872893 
L 428.564808 203.872893 
L 428.564808 203.350293 
L 429.171117 203.350293 
L 429.171117 202.827694 
L 432.930549 202.827694 
L 432.930549 202.305095 
L 433.59097 202.305095 
L 433.59097 201.782495 
L 433.904679 201.782495 
L 433.904679 201.259896 
L 434.030144 201.259896 
L 434.030144 200.737296 
L 434.247976 200.737296 
L 434.353519 199.692097 
L 434.49388 199.692097 
L 434.49388 199.169498 
L 434.91871 199.169498 
L 434.91871 198.646898 
L 435.865418 198.646898 
L 435.865418 198.124299 
L 437.389525 198.124299 
L 437.389525 197.601699 
L 438.209475 197.601699 
L 438.209475 197.0791 
L 439.365347 197.0791 
L 439.365347 196.5565 
L 440.525964 196.5565 
L 440.525964 196.033901 
L 443.310034 196.033901 
L 443.310034 195.511302 
L 445.546619 195.511302 
L 445.546619 194.988702 
L 447.322148 194.988702 
L 447.386626 193.943503 
L 447.942593 193.943503 
L 447.942593 193.420904 
L 448.914675 193.420904 
L 448.986339 192.375705 
L 449.685203 192.375705 
L 449.685203 191.853105 
L 449.913493 191.853105 
L 449.913493 191.330506 
L 450.150178 191.330506 
L 450.181173 190.285307 
L 450.689756 190.285307 
L 450.689756 189.762707 
L 451.008487 189.762707 
L 451.008487 189.240108 
L 451.824411 189.240108 
L 451.883094 188.194909 
L 452.035542 188.194909 
L 452.086031 187.14971 
L 452.566522 187.14971 
L 452.566522 186.627111 
L 454.139087 186.627111 
L 454.139087 186.104511 
L 454.424785 186.104511 
L 454.424785 185.581912 
L 455.655348 185.581912 
L 455.655348 185.059312 
L 455.839709 185.059312 
L 455.839709 184.536713 
L 456.507852 184.536713 
L 456.507852 184.014113 
L 456.718351 184.014113 
L 456.718351 183.491514 
L 457.651145 183.491514 
L 457.651145 182.968914 
L 457.958503 182.968914 
L 457.958503 182.446315 
L 458.680421 182.446315 
L 458.680421 181.923716 
L 459.186156 181.923716 
L 459.186156 181.401116 
L 459.817095 181.401116 
L 459.903006 180.355917 
L 460.008334 180.355917 
L 460.008334 179.833318 
L 460.697039 179.833318 
L 460.697039 179.310718 
L 460.8 179.310718 
" style="fill:none;stroke:#00bfbf;stroke-linecap:square;stroke-width:1.5;"/>
   </g>
   <g id="line2d_28">
    <path clip-path="url(#p05f7bc1579)" style="fill:none;stroke:#00bfbf;stroke-linecap:square;stroke-width:1.5;"/>
   </g>
   <g id="line2d_29">
    <path clip-path="url(#p05f7bc1579)" d="M 230.754803 293.76 
L 230.754803 293.237401 
L 231.296081 293.237401 
L 231.296081 292.714801 
L 298.611634 292.714801 
L 298.611634 292.192202 
L 299.287228 292.192202 
L 299.287228 291.669602 
L 300.438695 291.669602 
L 300.438695 291.147003 
L 300.968002 291.147003 
L 300.968002 290.624403 
L 301.41855 290.624403 
L 301.41855 290.101804 
L 302.040305 290.101804 
L 302.040305 289.579204 
L 303.647337 289.579204 
L 303.647337 289.056605 
L 305.995096 289.056605 
L 305.995096 288.534005 
L 310.701307 288.534005 
L 310.701307 288.011406 
L 311.713426 288.011406 
L 311.713426 287.488806 
L 357.935482 287.488806 
L 357.935482 286.966207 
L 376.753083 286.966207 
L 376.753083 286.443608 
L 378.719739 286.443608 
L 378.719739 285.921008 
L 380.204178 285.921008 
L 380.204178 285.398409 
L 380.965598 285.398409 
L 380.965598 284.875809 
L 381.202735 284.875809 
L 381.202735 284.35321 
L 381.944426 284.35321 
L 381.944426 283.83061 
L 384.164613 283.83061 
L 384.164613 283.308011 
L 385.455104 283.308011 
L 385.455104 282.785411 
L 386.074282 282.785411 
L 386.074282 282.262812 
L 389.44719 282.262812 
L 389.44719 281.740212 
L 390.032769 281.740212 
L 390.032769 281.217613 
L 394.696206 281.217613 
L 394.730651 280.172414 
L 395.538681 280.172414 
L 395.538681 279.649815 
L 396.298848 279.649815 
L 396.298848 279.127215 
L 398.931537 279.127215 
L 398.931537 278.604616 
L 399.537642 278.604616 
L 399.537642 278.082016 
L 399.86208 278.082016 
L 399.86208 277.559417 
L 401.834994 277.559417 
L 401.834994 277.036817 
L 402.126346 277.036817 
L 402.126346 276.514218 
L 402.753581 276.514218 
L 402.753581 275.991618 
L 403.503886 275.991618 
L 403.603564 274.42382 
L 404.638126 274.42382 
L 404.638126 273.901221 
L 405.090566 273.901221 
L 405.090566 273.378621 
L 406.6111 273.378621 
L 406.6111 272.856022 
L 409.150333 272.856022 
L 409.150333 272.333422 
L 410.675793 272.333422 
L 410.76338 271.288223 
L 411.460893 271.288223 
L 411.460893 270.765624 
L 413.664967 270.765624 
L 413.664967 270.243024 
L 416.588691 270.243024 
L 416.588691 269.720425 
L 417.410702 269.720425 
L 417.410702 269.197825 
L 418.409315 269.197825 
L 418.409315 268.675226 
L 420.245076 268.675226 
L 420.245076 268.152626 
L 420.817988 268.152626 
L 420.817988 267.630027 
L 421.516271 267.630027 
L 421.516271 267.107428 
L 422.232616 267.107428 
L 422.232616 266.584828 
L 422.63705 266.584828 
L 422.63705 266.062229 
L 423.948552 266.062229 
L 423.948552 265.539629 
L 425.699766 265.539629 
L 425.699766 265.01703 
L 426.07351 265.01703 
L 426.07351 264.49443 
L 426.243197 264.49443 
L 426.243197 263.971831 
L 426.36917 263.971831 
L 426.36917 263.449231 
L 426.953526 263.449231 
L 427.013016 262.404032 
L 427.261639 262.404032 
L 427.261639 261.881433 
L 427.474376 261.881433 
L 427.474376 261.358833 
L 428.318457 261.358833 
L 428.318457 260.836234 
L 429.29975 260.836234 
L 429.29975 260.313635 
L 429.856471 260.313635 
L 429.964328 259.268436 
L 430.147122 259.268436 
L 430.147122 258.745836 
L 430.727272 258.745836 
L 430.800681 257.700637 
L 430.860169 257.700637 
L 430.860169 257.178038 
L 431.663523 257.178038 
L 431.707591 256.132839 
L 432.284592 256.132839 
L 432.284592 255.610239 
L 433.284282 255.610239 
L 433.284282 255.08764 
L 434.52621 255.08764 
L 434.608232 254.042441 
L 434.963099 254.042441 
L 434.963099 253.519842 
L 435.479392 253.519842 
L 435.479392 252.997242 
L 435.792349 252.997242 
L 435.792349 252.474643 
L 436.130084 252.474643 
L 436.196842 251.429444 
L 436.283616 251.429444 
L 436.283616 250.906844 
L 437.392861 250.906844 
L 437.427764 249.861645 
L 437.787192 249.861645 
L 437.787192 249.339046 
L 437.963005 249.339046 
L 437.963005 248.816446 
L 438.671636 248.816446 
L 438.671636 248.293847 
L 439.225336 248.293847 
L 439.225336 247.771248 
L 440.891306 247.771248 
L 440.891306 247.248648 
L 441.145837 247.248648 
L 441.145837 246.726049 
L 441.585003 246.726049 
L 441.585003 246.203449 
L 442.782992 246.203449 
L 442.782992 245.68085 
L 443.021663 245.68085 
L 443.021663 245.15825 
L 443.516948 245.15825 
L 443.516948 244.635651 
L 445.047492 244.635651 
L 445.047492 244.113051 
L 445.189651 244.113051 
L 445.189651 243.590452 
L 446.179291 243.590452 
L 446.179291 243.067852 
L 446.349172 243.067852 
L 446.382423 242.022653 
L 446.572388 242.022653 
L 446.572388 241.500054 
L 447.371857 241.500054 
L 447.371857 240.977455 
L 447.59093 240.977455 
L 447.59093 240.454855 
L 447.9743 240.454855 
L 447.9743 239.932256 
L 448.165651 239.932256 
L 448.165651 239.409656 
L 448.454085 239.409656 
L 448.454085 238.887057 
L 449.440284 238.887057 
L 449.502234 237.841858 
L 450.249421 237.841858 
L 450.249421 237.319258 
L 450.759924 237.319258 
L 450.759924 236.796659 
L 451.232442 236.796659 
L 451.232442 236.274059 
L 452.425043 236.274059 
L 452.497351 235.22886 
L 454.120701 235.22886 
L 454.214711 234.183662 
L 454.528454 234.183662 
L 454.578919 233.138463 
L 454.871894 233.138463 
L 454.871894 232.615863 
L 455.741742 232.615863 
L 455.741742 232.093264 
L 456.081625 232.093264 
L 456.092931 231.048065 
L 457.262475 231.048065 
L 457.262475 230.525465 
L 458.515094 230.525465 
L 458.519957 229.480266 
L 458.688554 229.480266 
L 458.692491 228.435068 
L 459.334359 228.435068 
L 459.334359 227.912468 
L 459.557626 227.912468 
L 459.557626 227.389869 
L 459.825945 227.389869 
L 459.825945 226.867269 
L 460.327043 226.867269 
L 460.327043 226.34467 
L 460.746521 226.34467 
L 460.746521 225.82207 
L 460.8 225.82207 
" style="fill:none;stroke:#bf00bf;stroke-linecap:square;stroke-width:1.5;"/>
   </g>
   <g id="line2d_30">
    <path clip-path="url(#p05f7bc1579)" style="fill:none;stroke:#bf00bf;stroke-linecap:square;stroke-width:1.5;"/>
   </g>
   <g id="line2d_31">
    <path clip-path="url(#p05f7bc1579)" d="M 332.650847 293.76 
L 332.650847 293.237401 
L 332.769146 293.237401 
L 332.769146 292.714801 
L 332.935758 292.714801 
L 332.935758 292.192202 
L 333.47879 292.192202 
L 333.47879 291.669602 
L 333.518476 291.669602 
L 333.518476 291.147003 
L 333.566994 291.147003 
L 333.566994 290.624403 
L 334.752429 290.624403 
L 334.752429 290.101804 
L 334.887444 290.101804 
L 334.887444 289.579204 
L 337.931698 289.579204 
L 337.931698 289.056605 
L 338.532068 289.056605 
L 338.532068 288.534005 
L 418.780351 288.534005 
L 418.780351 288.011406 
L 420.321954 288.011406 
L 420.321954 287.488806 
L 424.4957 287.488806 
L 424.4957 286.966207 
L 424.710119 286.966207 
L 424.710119 286.443608 
L 425.710833 286.443608 
L 425.710833 285.921008 
L 426.476729 285.921008 
L 426.476729 285.398409 
L 429.001519 285.398409 
L 429.001519 284.875809 
L 431.609102 284.875809 
L 431.609102 284.35321 
L 432.297804 284.35321 
L 432.297804 283.83061 
L 436.293455 283.83061 
L 436.293455 283.308011 
L 438.718019 283.308011 
L 438.718019 282.785411 
L 439.119583 282.785411 
L 439.119583 282.262812 
L 439.462948 282.262812 
L 439.462948 281.740212 
L 441.16614 281.740212 
L 441.16614 281.217613 
L 441.196007 281.217613 
L 441.196007 280.695014 
L 444.302806 280.695014 
L 444.302806 280.172414 
L 444.603523 280.172414 
L 444.603523 279.649815 
L 445.141686 279.649815 
L 445.141686 279.127215 
L 445.156186 279.127215 
L 445.156186 278.604616 
L 446.4233 278.604616 
L 446.4233 278.082016 
L 448.052813 278.082016 
L 448.052813 277.559417 
L 455.515322 277.559417 
L 455.515322 277.036817 
L 458.323101 277.036817 
L 458.323101 276.514218 
L 459.291587 276.514218 
L 459.291587 275.991618 
L 459.537739 275.991618 
L 459.537739 275.469019 
L 459.706091 275.469019 
L 459.706091 274.946419 
L 459.706091 274.946419 
L 459.706091 274.946419 
L 460.8 274.946419 
" style="fill:none;stroke:#ff0000;stroke-linecap:square;stroke-width:3;"/>
   </g>
   <g id="line2d_32">
    <path clip-path="url(#p05f7bc1579)" style="fill:none;stroke:#ff0000;stroke-linecap:square;stroke-width:3;"/>
   </g>
   <g id="line2d_33">
    <path clip-path="url(#p05f7bc1579)" d="M 460.8 293.76 
L 460.8 3.456 
" style="fill:none;stroke:#000000;stroke-linecap:square;stroke-width:1.5;"/>
   </g>
   <g id="patch_3">
    <path d="M 62.208 293.76 
L 62.208 3.456 
" style="fill:none;stroke:#000000;stroke-linecap:square;stroke-linejoin:miter;stroke-width:0.8;"/>
   </g>
   <g id="patch_4">
    <path d="M 460.8 293.76 
L 460.8 3.456 
" style="fill:none;stroke:#000000;stroke-linecap:square;stroke-linejoin:miter;stroke-width:0.8;"/>
   </g>
   <g id="patch_5">
    <path d="M 62.208 293.76 
L 460.8 293.76 
" style="fill:none;stroke:#000000;stroke-linecap:square;stroke-linejoin:miter;stroke-width:0.8;"/>
   </g>
   <g id="patch_6">
    <path d="M 62.208 3.456 
L 460.8 3.456 
" style="fill:none;stroke:#000000;stroke-linecap:square;stroke-linejoin:miter;stroke-width:0.8;"/>
   </g>
   <g id="text_15">
    <!-- {f1-f55}, 20-D -->
    <g transform="translate(188.654 24.458955)scale(0.2 -0.2)">
     <defs>
      <path d="M 51.125 -9.28125 
L 51.125 -16.3125 
L 48.09375 -16.3125 
Q 35.9375 -16.3125 31.8125 -12.6875 
Q 27.6875 -9.078125 27.6875 1.703125 
L 27.6875 13.375 
Q 27.6875 20.75 25.046875 23.578125 
Q 22.40625 26.421875 15.484375 26.421875 
L 12.5 26.421875 
L 12.5 33.40625 
L 15.484375 33.40625 
Q 22.46875 33.40625 25.078125 36.203125 
Q 27.6875 39.015625 27.6875 46.296875 
L 27.6875 58.015625 
Q 27.6875 68.796875 31.8125 72.390625 
Q 35.9375 75.984375 48.09375 75.984375 
L 51.125 75.984375 
L 51.125 69 
L 47.796875 69 
Q 40.921875 69 38.8125 66.84375 
Q 36.71875 64.703125 36.71875 57.8125 
L 36.71875 45.703125 
Q 36.71875 38.03125 34.5 34.5625 
Q 32.28125 31.109375 26.90625 29.890625 
Q 32.328125 28.5625 34.515625 25.09375 
Q 36.71875 21.625 36.71875 14.015625 
L 36.71875 1.90625 
Q 36.71875 -4.984375 38.8125 -7.125 
Q 40.921875 -9.28125 47.796875 -9.28125 
z
" id="DejaVuSans-123"/>
      <path d="M 4.890625 31.390625 
L 31.203125 31.390625 
L 31.203125 23.390625 
L 4.890625 23.390625 
z
" id="DejaVuSans-45"/>
      <path d="M 12.5 -9.28125 
L 15.921875 -9.28125 
Q 22.75 -9.28125 24.828125 -7.171875 
Q 26.90625 -5.078125 26.90625 1.90625 
L 26.90625 14.015625 
Q 26.90625 21.625 29.09375 25.09375 
Q 31.296875 28.5625 36.71875 29.890625 
Q 31.296875 31.109375 29.09375 34.5625 
Q 26.90625 38.03125 26.90625 45.703125 
L 26.90625 57.8125 
Q 26.90625 64.75 24.828125 66.875 
Q 22.75 69 15.921875 69 
L 12.5 69 
L 12.5 75.984375 
L 15.578125 75.984375 
Q 27.734375 75.984375 31.8125 72.390625 
Q 35.890625 68.796875 35.890625 58.015625 
L 35.890625 46.296875 
Q 35.890625 39.015625 38.515625 36.203125 
Q 41.15625 33.40625 48.09375 33.40625 
L 51.125 33.40625 
L 51.125 26.421875 
L 48.09375 26.421875 
Q 41.15625 26.421875 38.515625 23.578125 
Q 35.890625 20.75 35.890625 13.375 
L 35.890625 1.703125 
Q 35.890625 -9.078125 31.8125 -12.6875 
Q 27.734375 -16.3125 15.578125 -16.3125 
L 12.5 -16.3125 
z
" id="DejaVuSans-125"/>
      <path d="M 11.71875 12.40625 
L 22.015625 12.40625 
L 22.015625 4 
L 14.015625 -11.625 
L 7.71875 -11.625 
L 11.71875 4 
z
" id="DejaVuSans-44"/>
     </defs>
     <use xlink:href="#DejaVuSans-123"/>
     <use x="63.623047" xlink:href="#DejaVuSans-102"/>
     <use x="98.828125" xlink:href="#DejaVuSans-49"/>
     <use x="162.451172" xlink:href="#DejaVuSans-45"/>
     <use x="198.535156" xlink:href="#DejaVuSans-102"/>
     <use x="233.740234" xlink:href="#DejaVuSans-53"/>
     <use x="297.363281" xlink:href="#DejaVuSans-53"/>
     <use x="360.986328" xlink:href="#DejaVuSans-125"/>
     <use x="424.609375" xlink:href="#DejaVuSans-44"/>
     <use x="456.396484" xlink:href="#DejaVuSans-32"/>
     <use x="488.183594" xlink:href="#DejaVuSans-50"/>
     <use x="551.806641" xlink:href="#DejaVuSans-48"/>
     <use x="615.429688" xlink:href="#DejaVuSans-45"/>
     <use x="651.513672" xlink:href="#DejaVuSans-68"/>
    </g>
   </g>
   <g id="text_16">
    <!-- absolute targets -->
    <g transform="translate(62.208 603.766)scale(0.14 -0.14)">
     <defs>
      <path d="M 48.6875 27.296875 
Q 48.6875 37.203125 44.609375 42.84375 
Q 40.53125 48.484375 33.40625 48.484375 
Q 26.265625 48.484375 22.1875 42.84375 
Q 18.109375 37.203125 18.109375 27.296875 
Q 18.109375 17.390625 22.1875 11.75 
Q 26.265625 6.109375 33.40625 6.109375 
Q 40.53125 6.109375 44.609375 11.75 
Q 48.6875 17.390625 48.6875 27.296875 
z
M 18.109375 46.390625 
Q 20.953125 51.265625 25.265625 53.625 
Q 29.59375 56 35.59375 56 
Q 45.5625 56 51.78125 48.09375 
Q 58.015625 40.1875 58.015625 27.296875 
Q 58.015625 14.40625 51.78125 6.484375 
Q 45.5625 -1.421875 35.59375 -1.421875 
Q 29.59375 -1.421875 25.265625 0.953125 
Q 20.953125 3.328125 18.109375 8.203125 
L 18.109375 0 
L 9.078125 0 
L 9.078125 75.984375 
L 18.109375 75.984375 
z
" id="DejaVuSans-98"/>
      <path d="M 8.5 21.578125 
L 8.5 54.6875 
L 17.484375 54.6875 
L 17.484375 21.921875 
Q 17.484375 14.15625 20.5 10.265625 
Q 23.53125 6.390625 29.59375 6.390625 
Q 36.859375 6.390625 41.078125 11.03125 
Q 45.3125 15.671875 45.3125 23.6875 
L 45.3125 54.6875 
L 54.296875 54.6875 
L 54.296875 0 
L 45.3125 0 
L 45.3125 8.40625 
Q 42.046875 3.421875 37.71875 1 
Q 33.40625 -1.421875 27.6875 -1.421875 
Q 18.265625 -1.421875 13.375 4.4375 
Q 8.5 10.296875 8.5 21.578125 
z
M 31.109375 56 
z
" id="DejaVuSans-117"/>
      <path d="M 56.203125 29.59375 
L 56.203125 25.203125 
L 14.890625 25.203125 
Q 15.484375 15.921875 20.484375 11.0625 
Q 25.484375 6.203125 34.421875 6.203125 
Q 39.59375 6.203125 44.453125 7.46875 
Q 49.3125 8.734375 54.109375 11.28125 
L 54.109375 2.78125 
Q 49.265625 0.734375 44.1875 -0.34375 
Q 39.109375 -1.421875 33.890625 -1.421875 
Q 20.796875 -1.421875 13.15625 6.1875 
Q 5.515625 13.8125 5.515625 26.8125 
Q 5.515625 40.234375 12.765625 48.109375 
Q 20.015625 56 32.328125 56 
Q 43.359375 56 49.78125 48.890625 
Q 56.203125 41.796875 56.203125 29.59375 
z
M 47.21875 32.234375 
Q 47.125 39.59375 43.09375 43.984375 
Q 39.0625 48.390625 32.421875 48.390625 
Q 24.90625 48.390625 20.390625 44.140625 
Q 15.875 39.890625 15.1875 32.171875 
z
" id="DejaVuSans-101"/>
     </defs>
     <use xlink:href="#DejaVuSans-97"/>
     <use x="61.279297" xlink:href="#DejaVuSans-98"/>
     <use x="124.755859" xlink:href="#DejaVuSans-115"/>
     <use x="176.855469" xlink:href="#DejaVuSans-111"/>
     <use x="238.037109" xlink:href="#DejaVuSans-108"/>
     <use x="265.820312" xlink:href="#DejaVuSans-117"/>
     <use x="329.199219" xlink:href="#DejaVuSans-116"/>
     <use x="368.408203" xlink:href="#DejaVuSans-101"/>
     <use x="429.931641" xlink:href="#DejaVuSans-32"/>
     <use x="461.71875" xlink:href="#DejaVuSans-116"/>
     <use x="500.927734" xlink:href="#DejaVuSans-97"/>
     <use x="562.207031" xlink:href="#DejaVuSans-114"/>
     <use x="601.570312" xlink:href="#DejaVuSans-103"/>
     <use x="665.046875" xlink:href="#DejaVuSans-101"/>
     <use x="726.570312" xlink:href="#DejaVuSans-116"/>
     <use x="765.779297" xlink:href="#DejaVuSans-115"/>
    </g>
   </g>
   <g id="text_17">
    <!-- v2.4, hv-hash=ff0e71e8cd978373 -->
    <g style="fill:#808080;" transform="translate(176.008688 288.777272)scale(0.1 -0.1)">
     <defs>
      <path d="M 54.890625 33.015625 
L 54.890625 0 
L 45.90625 0 
L 45.90625 32.71875 
Q 45.90625 40.484375 42.875 44.328125 
Q 39.84375 48.1875 33.796875 48.1875 
Q 26.515625 48.1875 22.3125 43.546875 
Q 18.109375 38.921875 18.109375 30.90625 
L 18.109375 0 
L 9.078125 0 
L 9.078125 75.984375 
L 18.109375 75.984375 
L 18.109375 46.1875 
Q 21.34375 51.125 25.703125 53.5625 
Q 30.078125 56 35.796875 56 
Q 45.21875 56 50.046875 50.171875 
Q 54.890625 44.34375 54.890625 33.015625 
z
" id="DejaVuSans-104"/>
      <path d="M 10.59375 45.40625 
L 73.1875 45.40625 
L 73.1875 37.203125 
L 10.59375 37.203125 
z
M 10.59375 25.484375 
L 73.1875 25.484375 
L 73.1875 17.1875 
L 10.59375 17.1875 
z
" id="DejaVuSans-61"/>
      <path d="M 8.203125 72.90625 
L 55.078125 72.90625 
L 55.078125 68.703125 
L 28.609375 0 
L 18.3125 0 
L 43.21875 64.59375 
L 8.203125 64.59375 
z
" id="DejaVuSans-55"/>
      <path d="M 48.78125 52.59375 
L 48.78125 44.1875 
Q 44.96875 46.296875 41.140625 47.34375 
Q 37.3125 48.390625 33.40625 48.390625 
Q 24.65625 48.390625 19.8125 42.84375 
Q 14.984375 37.3125 14.984375 27.296875 
Q 14.984375 17.28125 19.8125 11.734375 
Q 24.65625 6.203125 33.40625 6.203125 
Q 37.3125 6.203125 41.140625 7.25 
Q 44.96875 8.296875 48.78125 10.40625 
L 48.78125 2.09375 
Q 45.015625 0.34375 40.984375 -0.53125 
Q 36.96875 -1.421875 32.421875 -1.421875 
Q 20.0625 -1.421875 12.78125 6.34375 
Q 5.515625 14.109375 5.515625 27.296875 
Q 5.515625 40.671875 12.859375 48.328125 
Q 20.21875 56 33.015625 56 
Q 37.15625 56 41.109375 55.140625 
Q 45.0625 54.296875 48.78125 52.59375 
z
" id="DejaVuSans-99"/>
      <path d="M 45.40625 46.390625 
L 45.40625 75.984375 
L 54.390625 75.984375 
L 54.390625 0 
L 45.40625 0 
L 45.40625 8.203125 
Q 42.578125 3.328125 38.25 0.953125 
Q 33.9375 -1.421875 27.875 -1.421875 
Q 17.96875 -1.421875 11.734375 6.484375 
Q 5.515625 14.40625 5.515625 27.296875 
Q 5.515625 40.1875 11.734375 48.09375 
Q 17.96875 56 27.875 56 
Q 33.9375 56 38.25 53.625 
Q 42.578125 51.265625 45.40625 46.390625 
z
M 14.796875 27.296875 
Q 14.796875 17.390625 18.875 11.75 
Q 22.953125 6.109375 30.078125 6.109375 
Q 37.203125 6.109375 41.296875 11.75 
Q 45.40625 17.390625 45.40625 27.296875 
Q 45.40625 37.203125 41.296875 42.84375 
Q 37.203125 48.484375 30.078125 48.484375 
Q 22.953125 48.484375 18.875 42.84375 
Q 14.796875 37.203125 14.796875 27.296875 
z
" id="DejaVuSans-100"/>
      <path d="M 10.984375 1.515625 
L 10.984375 10.5 
Q 14.703125 8.734375 18.5 7.8125 
Q 22.3125 6.890625 25.984375 6.890625 
Q 35.75 6.890625 40.890625 13.453125 
Q 46.046875 20.015625 46.78125 33.40625 
Q 43.953125 29.203125 39.59375 26.953125 
Q 35.25 24.703125 29.984375 24.703125 
Q 19.046875 24.703125 12.671875 31.3125 
Q 6.296875 37.9375 6.296875 49.421875 
Q 6.296875 60.640625 12.9375 67.421875 
Q 19.578125 74.21875 30.609375 74.21875 
Q 43.265625 74.21875 49.921875 64.515625 
Q 56.59375 54.828125 56.59375 36.375 
Q 56.59375 19.140625 48.40625 8.859375 
Q 40.234375 -1.421875 26.421875 -1.421875 
Q 22.703125 -1.421875 18.890625 -0.6875 
Q 15.09375 0.046875 10.984375 1.515625 
z
M 30.609375 32.421875 
Q 37.25 32.421875 41.125 36.953125 
Q 45.015625 41.5 45.015625 49.421875 
Q 45.015625 57.28125 41.125 61.84375 
Q 37.25 66.40625 30.609375 66.40625 
Q 23.96875 66.40625 20.09375 61.84375 
Q 16.21875 57.28125 16.21875 49.421875 
Q 16.21875 41.5 20.09375 36.953125 
Q 23.96875 32.421875 30.609375 32.421875 
z
" id="DejaVuSans-57"/>
     </defs>
     <use xlink:href="#DejaVuSans-118"/>
     <use x="59.179688" xlink:href="#DejaVuSans-50"/>
     <use x="122.802734" xlink:href="#DejaVuSans-46"/>
     <use x="154.589844" xlink:href="#DejaVuSans-52"/>
     <use x="218.212891" xlink:href="#DejaVuSans-44"/>
     <use x="250" xlink:href="#DejaVuSans-32"/>
     <use x="281.787109" xlink:href="#DejaVuSans-104"/>
     <use x="345.166016" xlink:href="#DejaVuSans-118"/>
     <use x="401.720703" xlink:href="#DejaVuSans-45"/>
     <use x="437.804688" xlink:href="#DejaVuSans-104"/>
     <use x="501.183594" xlink:href="#DejaVuSans-97"/>
     <use x="562.462891" xlink:href="#DejaVuSans-115"/>
     <use x="614.5625" xlink:href="#DejaVuSans-104"/>
     <use x="677.941406" xlink:href="#DejaVuSans-61"/>
     <use x="761.730469" xlink:href="#DejaVuSans-102"/>
     <use x="796.935547" xlink:href="#DejaVuSans-102"/>
     <use x="832.140625" xlink:href="#DejaVuSans-48"/>
     <use x="895.763672" xlink:href="#DejaVuSans-101"/>
     <use x="957.287109" xlink:href="#DejaVuSans-55"/>
     <use x="1020.910156" xlink:href="#DejaVuSans-49"/>
     <use x="1084.533203" xlink:href="#DejaVuSans-101"/>
     <use x="1146.056641" xlink:href="#DejaVuSans-56"/>
     <use x="1209.679688" xlink:href="#DejaVuSans-99"/>
     <use x="1264.660156" xlink:href="#DejaVuSans-100"/>
     <use x="1328.136719" xlink:href="#DejaVuSans-57"/>
     <use x="1391.759766" xlink:href="#DejaVuSans-55"/>
     <use x="1455.382812" xlink:href="#DejaVuSans-56"/>
     <use x="1519.005859" xlink:href="#DejaVuSans-51"/>
     <use x="1582.628906" xlink:href="#DejaVuSans-55"/>
     <use x="1646.251953" xlink:href="#DejaVuSans-51"/>
    </g>
   </g>
   <g id="legend_1">
    <g id="patch_7">
     <path d="M 292.128125 136.881 
L 446.8 136.881 
Q 450.8 136.881 450.8 132.881 
L 450.8 17.456 
Q 450.8 13.456 446.8 13.456 
L 292.128125 13.456 
Q 288.128125 13.456 288.128125 17.456 
L 288.128125 132.881 
Q 288.128125 136.881 292.128125 136.881 
z
" style="fill:#ffffff;opacity:0.2;stroke:#cccccc;stroke-linejoin:miter;"/>
    </g>
    <g id="line2d_34">
     <path d="M 296.128125 29.652875 
L 336.128125 29.652875 
" style="fill:none;stroke:#000000;stroke-linecap:square;stroke-width:1.5;"/>
    </g>
    <g id="line2d_35"/>
    <g id="text_18">
     <!-- -1: 37/55 -->
     <g transform="translate(352.128125 36.652875)scale(0.2 -0.2)">
      <defs>
       <path d="M 11.71875 12.40625 
L 22.015625 12.40625 
L 22.015625 0 
L 11.71875 0 
z
M 11.71875 51.703125 
L 22.015625 51.703125 
L 22.015625 39.3125 
L 11.71875 39.3125 
z
" id="DejaVuSans-58"/>
      </defs>
      <use xlink:href="#DejaVuSans-45"/>
      <use x="36.083984" xlink:href="#DejaVuSans-49"/>
      <use x="99.707031" xlink:href="#DejaVuSans-58"/>
      <use x="133.398438" xlink:href="#DejaVuSans-32"/>
      <use x="165.185547" xlink:href="#DejaVuSans-51"/>
      <use x="228.808594" xlink:href="#DejaVuSans-55"/>
      <use x="292.431641" xlink:href="#DejaVuSans-47"/>
      <use x="326.123047" xlink:href="#DejaVuSans-53"/>
      <use x="389.746094" xlink:href="#DejaVuSans-53"/>
     </g>
    </g>
    <g id="line2d_36">
     <path d="M 296.128125 59.009125 
L 336.128125 59.009125 
" style="fill:none;stroke:#00bfbf;stroke-linecap:square;stroke-width:1.5;"/>
    </g>
    <g id="line2d_37"/>
    <g id="text_19">
     <!-- -2: 31/55 -->
     <g transform="translate(352.128125 66.009125)scale(0.2 -0.2)">
      <use xlink:href="#DejaVuSans-45"/>
      <use x="36.083984" xlink:href="#DejaVuSans-50"/>
      <use x="99.707031" xlink:href="#DejaVuSans-58"/>
      <use x="133.398438" xlink:href="#DejaVuSans-32"/>
      <use x="165.185547" xlink:href="#DejaVuSans-51"/>
      <use x="228.808594" xlink:href="#DejaVuSans-49"/>
      <use x="292.431641" xlink:href="#DejaVuSans-47"/>
      <use x="326.123047" xlink:href="#DejaVuSans-53"/>
      <use x="389.746094" xlink:href="#DejaVuSans-53"/>
     </g>
    </g>
    <g id="line2d_38">
     <path d="M 296.128125 88.365375 
L 336.128125 88.365375 
" style="fill:none;stroke:#bf00bf;stroke-linecap:square;stroke-width:1.5;"/>
    </g>
    <g id="line2d_39"/>
    <g id="text_20">
     <!-- -3: 25/55 -->
     <g transform="translate(352.128125 95.365375)scale(0.2 -0.2)">
      <use xlink:href="#DejaVuSans-45"/>
      <use x="36.083984" xlink:href="#DejaVuSans-51"/>
      <use x="99.707031" xlink:href="#DejaVuSans-58"/>
      <use x="133.398438" xlink:href="#DejaVuSans-32"/>
      <use x="165.185547" xlink:href="#DejaVuSans-50"/>
      <use x="228.808594" xlink:href="#DejaVuSans-53"/>
      <use x="292.431641" xlink:href="#DejaVuSans-47"/>
      <use x="326.123047" xlink:href="#DejaVuSans-53"/>
      <use x="389.746094" xlink:href="#DejaVuSans-53"/>
     </g>
    </g>
    <g id="line2d_40">
     <path d="M 296.128125 117.721625 
L 336.128125 117.721625 
" style="fill:none;stroke:#ff0000;stroke-linecap:square;stroke-width:3;"/>
    </g>
    <g id="line2d_41"/>
    <g id="text_21">
     <!-- -5: 8/55 -->
     <g transform="translate(352.128125 124.721625)scale(0.2 -0.2)">
      <use xlink:href="#DejaVuSans-45"/>
      <use x="36.083984" xlink:href="#DejaVuSans-53"/>
      <use x="99.707031" xlink:href="#DejaVuSans-58"/>
      <use x="133.398438" xlink:href="#DejaVuSans-32"/>
      <use x="165.185547" xlink:href="#DejaVuSans-56"/>
      <use x="228.808594" xlink:href="#DejaVuSans-47"/>
      <use x="262.5" xlink:href="#DejaVuSans-53"/>
      <use x="326.123047" xlink:href="#DejaVuSans-53"/>
     </g>
    </g>
   </g>
  </g>
 </g>
 <defs>
  <clipPath id="p05f7bc1579">
   <rect height="290.304" width="398.592" x="62.208" y="3.456"/>
  </clipPath>
 </defs>
</svg>
