<?xml version="1.0" encoding="utf-8" standalone="no"?>
<!DOCTYPE svg PUBLIC "-//W3C//DTD SVG 1.1//EN"
  "http://www.w3.org/Graphics/SVG/1.1/DTD/svg11.dtd">
<!-- Created with matplotlib (https://matplotlib.org/) -->
<svg height="345.6pt" version="1.1" viewBox="0 0 460.8 345.6" width="460.8pt" xmlns="http://www.w3.org/2000/svg" xmlns:xlink="http://www.w3.org/1999/xlink">
 <metadata>
  <rdf:RDF xmlns:cc="http://creativecommons.org/ns#" xmlns:dc="http://purl.org/dc/elements/1.1/" xmlns:rdf="http://www.w3.org/1999/02/22-rdf-syntax-ns#">
   <cc:Work>
    <dc:type rdf:resource="http://purl.org/dc/dcmitype/StillImage"/>
    <dc:date>2021-03-30T16:55:01.138652</dc:date>
    <dc:format>image/svg+xml</dc:format>
    <dc:creator>
     <cc:Agent>
      <dc:title>Matplotlib v3.3.4, https://matplotlib.org/</dc:title>
     </cc:Agent>
    </dc:creator>
   </cc:Work>
  </rdf:RDF>
 </metadata>
 <defs>
  <style type="text/css">*{stroke-linecap:butt;stroke-linejoin:round;}</style>
 </defs>
 <g id="figure_1">
  <g id="patch_1">
   <path d="M 0 345.6 
L 460.8 345.6 
L 460.8 0 
L 0 0 
z
" style="fill:#ffffff;"/>
  </g>
  <g id="axes_1">
   <g id="patch_2">
    <path d="M 57.6 298.944 
L 338.688 298.944 
L 338.688 3.456 
L 57.6 3.456 
z
" style="fill:#ffffff;"/>
   </g>
   <g id="matplotlib.axis_1">
    <g id="xtick_1">
     <g id="line2d_1">
      <path clip-path="url(#p6f27e2dade)" d="M 57.6 298.944 
L 57.6 3.456 
" style="fill:none;stroke:#b0b0b0;stroke-linecap:square;stroke-width:0.8;"/>
     </g>
     <g id="line2d_2">
      <defs>
       <path d="M 0 0 
L 0 3.5 
" id="mb63d6ec3b8" style="stroke:#000000;stroke-width:0.8;"/>
      </defs>
      <g>
       <use style="stroke:#000000;stroke-width:0.8;" x="57.6" xlink:href="#mb63d6ec3b8" y="298.944"/>
      </g>
     </g>
     <g id="text_1">
      <!-- 0 -->
      <g transform="translate(51.2375 321.140875)scale(0.2 -0.2)">
       <defs>
        <path d="M 31.78125 66.40625 
Q 24.171875 66.40625 20.328125 58.90625 
Q 16.5 51.421875 16.5 36.375 
Q 16.5 21.390625 20.328125 13.890625 
Q 24.171875 6.390625 31.78125 6.390625 
Q 39.453125 6.390625 43.28125 13.890625 
Q 47.125 21.390625 47.125 36.375 
Q 47.125 51.421875 43.28125 58.90625 
Q 39.453125 66.40625 31.78125 66.40625 
z
M 31.78125 74.21875 
Q 44.046875 74.21875 50.515625 64.515625 
Q 56.984375 54.828125 56.984375 36.375 
Q 56.984375 17.96875 50.515625 8.265625 
Q 44.046875 -1.421875 31.78125 -1.421875 
Q 19.53125 -1.421875 13.0625 8.265625 
Q 6.59375 17.96875 6.59375 36.375 
Q 6.59375 54.828125 13.0625 64.515625 
Q 19.53125 74.21875 31.78125 74.21875 
z
" id="DejaVuSans-48"/>
       </defs>
       <use xlink:href="#DejaVuSans-48"/>
      </g>
     </g>
    </g>
    <g id="xtick_2">
     <g id="line2d_3">
      <path clip-path="url(#p6f27e2dade)" d="M 137.910857 298.944 
L 137.910857 3.456 
" style="fill:none;stroke:#b0b0b0;stroke-linecap:square;stroke-width:0.8;"/>
     </g>
     <g id="line2d_4">
      <g>
       <use style="stroke:#000000;stroke-width:0.8;" x="137.910857" xlink:href="#mb63d6ec3b8" y="298.944"/>
      </g>
     </g>
     <g id="text_2">
      <!-- 2 -->
      <g transform="translate(131.548357 321.140875)scale(0.2 -0.2)">
       <defs>
        <path d="M 19.1875 8.296875 
L 53.609375 8.296875 
L 53.609375 0 
L 7.328125 0 
L 7.328125 8.296875 
Q 12.9375 14.109375 22.625 23.890625 
Q 32.328125 33.6875 34.8125 36.53125 
Q 39.546875 41.84375 41.421875 45.53125 
Q 43.3125 49.21875 43.3125 52.78125 
Q 43.3125 58.59375 39.234375 62.25 
Q 35.15625 65.921875 28.609375 65.921875 
Q 23.96875 65.921875 18.8125 64.3125 
Q 13.671875 62.703125 7.8125 59.421875 
L 7.8125 69.390625 
Q 13.765625 71.78125 18.9375 73 
Q 24.125 74.21875 28.421875 74.21875 
Q 39.75 74.21875 46.484375 68.546875 
Q 53.21875 62.890625 53.21875 53.421875 
Q 53.21875 48.921875 51.53125 44.890625 
Q 49.859375 40.875 45.40625 35.40625 
Q 44.1875 33.984375 37.640625 27.21875 
Q 31.109375 20.453125 19.1875 8.296875 
z
" id="DejaVuSans-50"/>
       </defs>
       <use xlink:href="#DejaVuSans-50"/>
      </g>
     </g>
    </g>
    <g id="xtick_3">
     <g id="line2d_5">
      <path clip-path="url(#p6f27e2dade)" d="M 218.221714 298.944 
L 218.221714 3.456 
" style="fill:none;stroke:#b0b0b0;stroke-linecap:square;stroke-width:0.8;"/>
     </g>
     <g id="line2d_6">
      <g>
       <use style="stroke:#000000;stroke-width:0.8;" x="218.221714" xlink:href="#mb63d6ec3b8" y="298.944"/>
      </g>
     </g>
     <g id="text_3">
      <!-- 4 -->
      <g transform="translate(211.859214 321.140875)scale(0.2 -0.2)">
       <defs>
        <path d="M 37.796875 64.3125 
L 12.890625 25.390625 
L 37.796875 25.390625 
z
M 35.203125 72.90625 
L 47.609375 72.90625 
L 47.609375 25.390625 
L 58.015625 25.390625 
L 58.015625 17.1875 
L 47.609375 17.1875 
L 47.609375 0 
L 37.796875 0 
L 37.796875 17.1875 
L 4.890625 17.1875 
L 4.890625 26.703125 
z
" id="DejaVuSans-52"/>
       </defs>
       <use xlink:href="#DejaVuSans-52"/>
      </g>
     </g>
    </g>
    <g id="xtick_4">
     <g id="line2d_7">
      <path clip-path="url(#p6f27e2dade)" d="M 298.532571 298.944 
L 298.532571 3.456 
" style="fill:none;stroke:#b0b0b0;stroke-linecap:square;stroke-width:0.8;"/>
     </g>
     <g id="line2d_8">
      <g>
       <use style="stroke:#000000;stroke-width:0.8;" x="298.532571" xlink:href="#mb63d6ec3b8" y="298.944"/>
      </g>
     </g>
     <g id="text_4">
      <!-- 6 -->
      <g transform="translate(292.170071 321.140875)scale(0.2 -0.2)">
       <defs>
        <path d="M 33.015625 40.375 
Q 26.375 40.375 22.484375 35.828125 
Q 18.609375 31.296875 18.609375 23.390625 
Q 18.609375 15.53125 22.484375 10.953125 
Q 26.375 6.390625 33.015625 6.390625 
Q 39.65625 6.390625 43.53125 10.953125 
Q 47.40625 15.53125 47.40625 23.390625 
Q 47.40625 31.296875 43.53125 35.828125 
Q 39.65625 40.375 33.015625 40.375 
z
M 52.59375 71.296875 
L 52.59375 62.3125 
Q 48.875 64.0625 45.09375 64.984375 
Q 41.3125 65.921875 37.59375 65.921875 
Q 27.828125 65.921875 22.671875 59.328125 
Q 17.53125 52.734375 16.796875 39.40625 
Q 19.671875 43.65625 24.015625 45.921875 
Q 28.375 48.1875 33.59375 48.1875 
Q 44.578125 48.1875 50.953125 41.515625 
Q 57.328125 34.859375 57.328125 23.390625 
Q 57.328125 12.15625 50.6875 5.359375 
Q 44.046875 -1.421875 33.015625 -1.421875 
Q 20.359375 -1.421875 13.671875 8.265625 
Q 6.984375 17.96875 6.984375 36.375 
Q 6.984375 53.65625 15.1875 63.9375 
Q 23.390625 74.21875 37.203125 74.21875 
Q 40.921875 74.21875 44.703125 73.484375 
Q 48.484375 72.75 52.59375 71.296875 
z
" id="DejaVuSans-54"/>
       </defs>
       <use xlink:href="#DejaVuSans-54"/>
      </g>
     </g>
    </g>
    <g id="xtick_5">
     <g id="line2d_9">
      <path clip-path="url(#p6f27e2dade)" d="M 97.755429 298.944 
L 97.755429 3.456 
" style="fill:none;stroke:#b0b0b0;stroke-linecap:square;stroke-width:0.8;"/>
     </g>
     <g id="line2d_10">
      <defs>
       <path d="M 0 0 
L 0 2 
" id="mb4cefd4ca7" style="stroke:#000000;stroke-width:0.6;"/>
      </defs>
      <g>
       <use style="stroke:#000000;stroke-width:0.6;" x="97.755429" xlink:href="#mb4cefd4ca7" y="298.944"/>
      </g>
     </g>
    </g>
    <g id="xtick_6">
     <g id="line2d_11">
      <path clip-path="url(#p6f27e2dade)" d="M 178.066286 298.944 
L 178.066286 3.456 
" style="fill:none;stroke:#b0b0b0;stroke-linecap:square;stroke-width:0.8;"/>
     </g>
     <g id="line2d_12">
      <g>
       <use style="stroke:#000000;stroke-width:0.6;" x="178.066286" xlink:href="#mb4cefd4ca7" y="298.944"/>
      </g>
     </g>
    </g>
    <g id="xtick_7">
     <g id="line2d_13">
      <path clip-path="url(#p6f27e2dade)" d="M 258.377143 298.944 
L 258.377143 3.456 
" style="fill:none;stroke:#b0b0b0;stroke-linecap:square;stroke-width:0.8;"/>
     </g>
     <g id="line2d_14">
      <g>
       <use style="stroke:#000000;stroke-width:0.6;" x="258.377143" xlink:href="#mb4cefd4ca7" y="298.944"/>
      </g>
     </g>
    </g>
    <g id="xtick_8">
     <g id="line2d_15">
      <path clip-path="url(#p6f27e2dade)" d="M 338.688 298.944 
L 338.688 3.456 
" style="fill:none;stroke:#b0b0b0;stroke-linecap:square;stroke-width:0.8;"/>
     </g>
     <g id="line2d_16">
      <g>
       <use style="stroke:#000000;stroke-width:0.6;" x="338.688" xlink:href="#mb4cefd4ca7" y="298.944"/>
      </g>
     </g>
    </g>
    <g id="text_5">
     <!-- log10(# f-evals / dimension) -->
     <g transform="translate(77.764078 342.217594)scale(0.17 -0.17)">
      <defs>
       <path d="M 9.421875 75.984375 
L 18.40625 75.984375 
L 18.40625 0 
L 9.421875 0 
z
" id="DejaVuSans-108"/>
       <path d="M 30.609375 48.390625 
Q 23.390625 48.390625 19.1875 42.75 
Q 14.984375 37.109375 14.984375 27.296875 
Q 14.984375 17.484375 19.15625 11.84375 
Q 23.34375 6.203125 30.609375 6.203125 
Q 37.796875 6.203125 41.984375 11.859375 
Q 46.1875 17.53125 46.1875 27.296875 
Q 46.1875 37.015625 41.984375 42.703125 
Q 37.796875 48.390625 30.609375 48.390625 
z
M 30.609375 56 
Q 42.328125 56 49.015625 48.375 
Q 55.71875 40.765625 55.71875 27.296875 
Q 55.71875 13.875 49.015625 6.21875 
Q 42.328125 -1.421875 30.609375 -1.421875 
Q 18.84375 -1.421875 12.171875 6.21875 
Q 5.515625 13.875 5.515625 27.296875 
Q 5.515625 40.765625 12.171875 48.375 
Q 18.84375 56 30.609375 56 
z
" id="DejaVuSans-111"/>
       <path d="M 45.40625 27.984375 
Q 45.40625 37.75 41.375 43.109375 
Q 37.359375 48.484375 30.078125 48.484375 
Q 22.859375 48.484375 18.828125 43.109375 
Q 14.796875 37.75 14.796875 27.984375 
Q 14.796875 18.265625 18.828125 12.890625 
Q 22.859375 7.515625 30.078125 7.515625 
Q 37.359375 7.515625 41.375 12.890625 
Q 45.40625 18.265625 45.40625 27.984375 
z
M 54.390625 6.78125 
Q 54.390625 -7.171875 48.1875 -13.984375 
Q 42 -20.796875 29.203125 -20.796875 
Q 24.46875 -20.796875 20.265625 -20.09375 
Q 16.0625 -19.390625 12.109375 -17.921875 
L 12.109375 -9.1875 
Q 16.0625 -11.328125 19.921875 -12.34375 
Q 23.78125 -13.375 27.78125 -13.375 
Q 36.625 -13.375 41.015625 -8.765625 
Q 45.40625 -4.15625 45.40625 5.171875 
L 45.40625 9.625 
Q 42.625 4.78125 38.28125 2.390625 
Q 33.9375 0 27.875 0 
Q 17.828125 0 11.671875 7.65625 
Q 5.515625 15.328125 5.515625 27.984375 
Q 5.515625 40.671875 11.671875 48.328125 
Q 17.828125 56 27.875 56 
Q 33.9375 56 38.28125 53.609375 
Q 42.625 51.21875 45.40625 46.390625 
L 45.40625 54.6875 
L 54.390625 54.6875 
z
" id="DejaVuSans-103"/>
       <path d="M 12.40625 8.296875 
L 28.515625 8.296875 
L 28.515625 63.921875 
L 10.984375 60.40625 
L 10.984375 69.390625 
L 28.421875 72.90625 
L 38.28125 72.90625 
L 38.28125 8.296875 
L 54.390625 8.296875 
L 54.390625 0 
L 12.40625 0 
z
" id="DejaVuSans-49"/>
       <path d="M 31 75.875 
Q 24.46875 64.65625 21.28125 53.65625 
Q 18.109375 42.671875 18.109375 31.390625 
Q 18.109375 20.125 21.3125 9.0625 
Q 24.515625 -2 31 -13.1875 
L 23.1875 -13.1875 
Q 15.875 -1.703125 12.234375 9.375 
Q 8.59375 20.453125 8.59375 31.390625 
Q 8.59375 42.28125 12.203125 53.3125 
Q 15.828125 64.359375 23.1875 75.875 
z
" id="DejaVuSans-40"/>
       <path d="M 51.125 44 
L 36.921875 44 
L 32.8125 27.6875 
L 47.125 27.6875 
z
M 43.796875 71.78125 
L 38.71875 51.515625 
L 52.984375 51.515625 
L 58.109375 71.78125 
L 65.921875 71.78125 
L 60.890625 51.515625 
L 76.125 51.515625 
L 76.125 44 
L 58.984375 44 
L 54.984375 27.6875 
L 70.515625 27.6875 
L 70.515625 20.21875 
L 53.078125 20.21875 
L 48 0 
L 40.1875 0 
L 45.21875 20.21875 
L 30.90625 20.21875 
L 25.875 0 
L 18.015625 0 
L 23.09375 20.21875 
L 7.71875 20.21875 
L 7.71875 27.6875 
L 24.90625 27.6875 
L 29 44 
L 13.28125 44 
L 13.28125 51.515625 
L 30.90625 51.515625 
L 35.890625 71.78125 
z
" id="DejaVuSans-35"/>
       <path id="DejaVuSans-32"/>
       <path d="M 37.109375 75.984375 
L 37.109375 68.5 
L 28.515625 68.5 
Q 23.6875 68.5 21.796875 66.546875 
Q 19.921875 64.59375 19.921875 59.515625 
L 19.921875 54.6875 
L 34.71875 54.6875 
L 34.71875 47.703125 
L 19.921875 47.703125 
L 19.921875 0 
L 10.890625 0 
L 10.890625 47.703125 
L 2.296875 47.703125 
L 2.296875 54.6875 
L 10.890625 54.6875 
L 10.890625 58.5 
Q 10.890625 67.625 15.140625 71.796875 
Q 19.390625 75.984375 28.609375 75.984375 
z
" id="DejaVuSans-102"/>
       <path d="M 4.890625 31.390625 
L 31.203125 31.390625 
L 31.203125 23.390625 
L 4.890625 23.390625 
z
" id="DejaVuSans-45"/>
       <path d="M 56.203125 29.59375 
L 56.203125 25.203125 
L 14.890625 25.203125 
Q 15.484375 15.921875 20.484375 11.0625 
Q 25.484375 6.203125 34.421875 6.203125 
Q 39.59375 6.203125 44.453125 7.46875 
Q 49.3125 8.734375 54.109375 11.28125 
L 54.109375 2.78125 
Q 49.265625 0.734375 44.1875 -0.34375 
Q 39.109375 -1.421875 33.890625 -1.421875 
Q 20.796875 -1.421875 13.15625 6.1875 
Q 5.515625 13.8125 5.515625 26.8125 
Q 5.515625 40.234375 12.765625 48.109375 
Q 20.015625 56 32.328125 56 
Q 43.359375 56 49.78125 48.890625 
Q 56.203125 41.796875 56.203125 29.59375 
z
M 47.21875 32.234375 
Q 47.125 39.59375 43.09375 43.984375 
Q 39.0625 48.390625 32.421875 48.390625 
Q 24.90625 48.390625 20.390625 44.140625 
Q 15.875 39.890625 15.1875 32.171875 
z
" id="DejaVuSans-101"/>
       <path d="M 2.984375 54.6875 
L 12.5 54.6875 
L 29.59375 8.796875 
L 46.6875 54.6875 
L 56.203125 54.6875 
L 35.6875 0 
L 23.484375 0 
z
" id="DejaVuSans-118"/>
       <path d="M 34.28125 27.484375 
Q 23.390625 27.484375 19.1875 25 
Q 14.984375 22.515625 14.984375 16.5 
Q 14.984375 11.71875 18.140625 8.90625 
Q 21.296875 6.109375 26.703125 6.109375 
Q 34.1875 6.109375 38.703125 11.40625 
Q 43.21875 16.703125 43.21875 25.484375 
L 43.21875 27.484375 
z
M 52.203125 31.203125 
L 52.203125 0 
L 43.21875 0 
L 43.21875 8.296875 
Q 40.140625 3.328125 35.546875 0.953125 
Q 30.953125 -1.421875 24.3125 -1.421875 
Q 15.921875 -1.421875 10.953125 3.296875 
Q 6 8.015625 6 15.921875 
Q 6 25.140625 12.171875 29.828125 
Q 18.359375 34.515625 30.609375 34.515625 
L 43.21875 34.515625 
L 43.21875 35.40625 
Q 43.21875 41.609375 39.140625 45 
Q 35.0625 48.390625 27.6875 48.390625 
Q 23 48.390625 18.546875 47.265625 
Q 14.109375 46.140625 10.015625 43.890625 
L 10.015625 52.203125 
Q 14.9375 54.109375 19.578125 55.046875 
Q 24.21875 56 28.609375 56 
Q 40.484375 56 46.34375 49.84375 
Q 52.203125 43.703125 52.203125 31.203125 
z
" id="DejaVuSans-97"/>
       <path d="M 44.28125 53.078125 
L 44.28125 44.578125 
Q 40.484375 46.53125 36.375 47.5 
Q 32.28125 48.484375 27.875 48.484375 
Q 21.1875 48.484375 17.84375 46.4375 
Q 14.5 44.390625 14.5 40.28125 
Q 14.5 37.15625 16.890625 35.375 
Q 19.28125 33.59375 26.515625 31.984375 
L 29.59375 31.296875 
Q 39.15625 29.25 43.1875 25.515625 
Q 47.21875 21.78125 47.21875 15.09375 
Q 47.21875 7.46875 41.1875 3.015625 
Q 35.15625 -1.421875 24.609375 -1.421875 
Q 20.21875 -1.421875 15.453125 -0.5625 
Q 10.6875 0.296875 5.421875 2 
L 5.421875 11.28125 
Q 10.40625 8.6875 15.234375 7.390625 
Q 20.0625 6.109375 24.8125 6.109375 
Q 31.15625 6.109375 34.5625 8.28125 
Q 37.984375 10.453125 37.984375 14.40625 
Q 37.984375 18.0625 35.515625 20.015625 
Q 33.0625 21.96875 24.703125 23.78125 
L 21.578125 24.515625 
Q 13.234375 26.265625 9.515625 29.90625 
Q 5.8125 33.546875 5.8125 39.890625 
Q 5.8125 47.609375 11.28125 51.796875 
Q 16.75 56 26.8125 56 
Q 31.78125 56 36.171875 55.265625 
Q 40.578125 54.546875 44.28125 53.078125 
z
" id="DejaVuSans-115"/>
       <path d="M 25.390625 72.90625 
L 33.6875 72.90625 
L 8.296875 -9.28125 
L 0 -9.28125 
z
" id="DejaVuSans-47"/>
       <path d="M 45.40625 46.390625 
L 45.40625 75.984375 
L 54.390625 75.984375 
L 54.390625 0 
L 45.40625 0 
L 45.40625 8.203125 
Q 42.578125 3.328125 38.25 0.953125 
Q 33.9375 -1.421875 27.875 -1.421875 
Q 17.96875 -1.421875 11.734375 6.484375 
Q 5.515625 14.40625 5.515625 27.296875 
Q 5.515625 40.1875 11.734375 48.09375 
Q 17.96875 56 27.875 56 
Q 33.9375 56 38.25 53.625 
Q 42.578125 51.265625 45.40625 46.390625 
z
M 14.796875 27.296875 
Q 14.796875 17.390625 18.875 11.75 
Q 22.953125 6.109375 30.078125 6.109375 
Q 37.203125 6.109375 41.296875 11.75 
Q 45.40625 17.390625 45.40625 27.296875 
Q 45.40625 37.203125 41.296875 42.84375 
Q 37.203125 48.484375 30.078125 48.484375 
Q 22.953125 48.484375 18.875 42.84375 
Q 14.796875 37.203125 14.796875 27.296875 
z
" id="DejaVuSans-100"/>
       <path d="M 9.421875 54.6875 
L 18.40625 54.6875 
L 18.40625 0 
L 9.421875 0 
z
M 9.421875 75.984375 
L 18.40625 75.984375 
L 18.40625 64.59375 
L 9.421875 64.59375 
z
" id="DejaVuSans-105"/>
       <path d="M 52 44.1875 
Q 55.375 50.25 60.0625 53.125 
Q 64.75 56 71.09375 56 
Q 79.640625 56 84.28125 50.015625 
Q 88.921875 44.046875 88.921875 33.015625 
L 88.921875 0 
L 79.890625 0 
L 79.890625 32.71875 
Q 79.890625 40.578125 77.09375 44.375 
Q 74.3125 48.1875 68.609375 48.1875 
Q 61.625 48.1875 57.5625 43.546875 
Q 53.515625 38.921875 53.515625 30.90625 
L 53.515625 0 
L 44.484375 0 
L 44.484375 32.71875 
Q 44.484375 40.625 41.703125 44.40625 
Q 38.921875 48.1875 33.109375 48.1875 
Q 26.21875 48.1875 22.15625 43.53125 
Q 18.109375 38.875 18.109375 30.90625 
L 18.109375 0 
L 9.078125 0 
L 9.078125 54.6875 
L 18.109375 54.6875 
L 18.109375 46.1875 
Q 21.1875 51.21875 25.484375 53.609375 
Q 29.78125 56 35.6875 56 
Q 41.65625 56 45.828125 52.96875 
Q 50 49.953125 52 44.1875 
z
" id="DejaVuSans-109"/>
       <path d="M 54.890625 33.015625 
L 54.890625 0 
L 45.90625 0 
L 45.90625 32.71875 
Q 45.90625 40.484375 42.875 44.328125 
Q 39.84375 48.1875 33.796875 48.1875 
Q 26.515625 48.1875 22.3125 43.546875 
Q 18.109375 38.921875 18.109375 30.90625 
L 18.109375 0 
L 9.078125 0 
L 9.078125 54.6875 
L 18.109375 54.6875 
L 18.109375 46.1875 
Q 21.34375 51.125 25.703125 53.5625 
Q 30.078125 56 35.796875 56 
Q 45.21875 56 50.046875 50.171875 
Q 54.890625 44.34375 54.890625 33.015625 
z
" id="DejaVuSans-110"/>
       <path d="M 8.015625 75.875 
L 15.828125 75.875 
Q 23.140625 64.359375 26.78125 53.3125 
Q 30.421875 42.28125 30.421875 31.390625 
Q 30.421875 20.453125 26.78125 9.375 
Q 23.140625 -1.703125 15.828125 -13.1875 
L 8.015625 -13.1875 
Q 14.5 -2 17.703125 9.0625 
Q 20.90625 20.125 20.90625 31.390625 
Q 20.90625 42.671875 17.703125 53.65625 
Q 14.5 64.65625 8.015625 75.875 
z
" id="DejaVuSans-41"/>
      </defs>
      <use xlink:href="#DejaVuSans-108"/>
      <use x="27.783203" xlink:href="#DejaVuSans-111"/>
      <use x="88.964844" xlink:href="#DejaVuSans-103"/>
      <use x="152.441406" xlink:href="#DejaVuSans-49"/>
      <use x="216.064453" xlink:href="#DejaVuSans-48"/>
      <use x="279.6875" xlink:href="#DejaVuSans-40"/>
      <use x="318.701172" xlink:href="#DejaVuSans-35"/>
      <use x="402.490234" xlink:href="#DejaVuSans-32"/>
      <use x="434.277344" xlink:href="#DejaVuSans-102"/>
      <use x="463.982422" xlink:href="#DejaVuSans-45"/>
      <use x="500.066406" xlink:href="#DejaVuSans-101"/>
      <use x="561.589844" xlink:href="#DejaVuSans-118"/>
      <use x="620.769531" xlink:href="#DejaVuSans-97"/>
      <use x="682.048828" xlink:href="#DejaVuSans-108"/>
      <use x="709.832031" xlink:href="#DejaVuSans-115"/>
      <use x="761.931641" xlink:href="#DejaVuSans-32"/>
      <use x="793.71875" xlink:href="#DejaVuSans-47"/>
      <use x="827.410156" xlink:href="#DejaVuSans-32"/>
      <use x="859.197266" xlink:href="#DejaVuSans-100"/>
      <use x="922.673828" xlink:href="#DejaVuSans-105"/>
      <use x="950.457031" xlink:href="#DejaVuSans-109"/>
      <use x="1047.869141" xlink:href="#DejaVuSans-101"/>
      <use x="1109.392578" xlink:href="#DejaVuSans-110"/>
      <use x="1172.771484" xlink:href="#DejaVuSans-115"/>
      <use x="1224.871094" xlink:href="#DejaVuSans-105"/>
      <use x="1252.654297" xlink:href="#DejaVuSans-111"/>
      <use x="1313.835938" xlink:href="#DejaVuSans-110"/>
      <use x="1377.214844" xlink:href="#DejaVuSans-41"/>
     </g>
    </g>
   </g>
   <g id="matplotlib.axis_2">
    <g id="ytick_1">
     <g id="line2d_17">
      <path clip-path="url(#p6f27e2dade)" d="M 57.6 298.944 
L 338.688 298.944 
" style="fill:none;stroke:#b0b0b0;stroke-linecap:square;stroke-width:0.8;"/>
     </g>
     <g id="line2d_18">
      <defs>
       <path d="M 0 0 
L -3.5 0 
" id="m6c6ea006bc" style="stroke:#000000;stroke-width:0.8;"/>
      </defs>
      <g>
       <use style="stroke:#000000;stroke-width:0.8;" x="57.6" xlink:href="#m6c6ea006bc" y="298.944"/>
      </g>
     </g>
     <g id="text_6">
      <!-- 0.0 -->
      <g transform="translate(25.155 305.02275)scale(0.16 -0.16)">
       <defs>
        <path d="M 10.6875 12.40625 
L 21 12.40625 
L 21 0 
L 10.6875 0 
z
" id="DejaVuSans-46"/>
       </defs>
       <use xlink:href="#DejaVuSans-48"/>
       <use x="63.623047" xlink:href="#DejaVuSans-46"/>
       <use x="95.410156" xlink:href="#DejaVuSans-48"/>
      </g>
     </g>
    </g>
    <g id="ytick_2">
     <g id="line2d_19">
      <path clip-path="url(#p6f27e2dade)" d="M 57.6 240.431525 
L 338.688 240.431525 
" style="fill:none;stroke:#b0b0b0;stroke-linecap:square;stroke-width:0.8;"/>
     </g>
     <g id="line2d_20">
      <g>
       <use style="stroke:#000000;stroke-width:0.8;" x="57.6" xlink:href="#m6c6ea006bc" y="240.431525"/>
      </g>
     </g>
     <g id="text_7">
      <!-- 0.2 -->
      <g transform="translate(25.155 246.510275)scale(0.16 -0.16)">
       <use xlink:href="#DejaVuSans-48"/>
       <use x="63.623047" xlink:href="#DejaVuSans-46"/>
       <use x="95.410156" xlink:href="#DejaVuSans-50"/>
      </g>
     </g>
    </g>
    <g id="ytick_3">
     <g id="line2d_21">
      <path clip-path="url(#p6f27e2dade)" d="M 57.6 181.91905 
L 338.688 181.91905 
" style="fill:none;stroke:#b0b0b0;stroke-linecap:square;stroke-width:0.8;"/>
     </g>
     <g id="line2d_22">
      <g>
       <use style="stroke:#000000;stroke-width:0.8;" x="57.6" xlink:href="#m6c6ea006bc" y="181.91905"/>
      </g>
     </g>
     <g id="text_8">
      <!-- 0.4 -->
      <g transform="translate(25.155 187.9978)scale(0.16 -0.16)">
       <use xlink:href="#DejaVuSans-48"/>
       <use x="63.623047" xlink:href="#DejaVuSans-46"/>
       <use x="95.410156" xlink:href="#DejaVuSans-52"/>
      </g>
     </g>
    </g>
    <g id="ytick_4">
     <g id="line2d_23">
      <path clip-path="url(#p6f27e2dade)" d="M 57.6 123.406574 
L 338.688 123.406574 
" style="fill:none;stroke:#b0b0b0;stroke-linecap:square;stroke-width:0.8;"/>
     </g>
     <g id="line2d_24">
      <g>
       <use style="stroke:#000000;stroke-width:0.8;" x="57.6" xlink:href="#m6c6ea006bc" y="123.406574"/>
      </g>
     </g>
     <g id="text_9">
      <!-- 0.6 -->
      <g transform="translate(25.155 129.485324)scale(0.16 -0.16)">
       <use xlink:href="#DejaVuSans-48"/>
       <use x="63.623047" xlink:href="#DejaVuSans-46"/>
       <use x="95.410156" xlink:href="#DejaVuSans-54"/>
      </g>
     </g>
    </g>
    <g id="ytick_5">
     <g id="line2d_25">
      <path clip-path="url(#p6f27e2dade)" d="M 57.6 64.894099 
L 338.688 64.894099 
" style="fill:none;stroke:#b0b0b0;stroke-linecap:square;stroke-width:0.8;"/>
     </g>
     <g id="line2d_26">
      <g>
       <use style="stroke:#000000;stroke-width:0.8;" x="57.6" xlink:href="#m6c6ea006bc" y="64.894099"/>
      </g>
     </g>
     <g id="text_10">
      <!-- 0.8 -->
      <g transform="translate(25.155 70.972849)scale(0.16 -0.16)">
       <defs>
        <path d="M 31.78125 34.625 
Q 24.75 34.625 20.71875 30.859375 
Q 16.703125 27.09375 16.703125 20.515625 
Q 16.703125 13.921875 20.71875 10.15625 
Q 24.75 6.390625 31.78125 6.390625 
Q 38.8125 6.390625 42.859375 10.171875 
Q 46.921875 13.96875 46.921875 20.515625 
Q 46.921875 27.09375 42.890625 30.859375 
Q 38.875 34.625 31.78125 34.625 
z
M 21.921875 38.8125 
Q 15.578125 40.375 12.03125 44.71875 
Q 8.5 49.078125 8.5 55.328125 
Q 8.5 64.0625 14.71875 69.140625 
Q 20.953125 74.21875 31.78125 74.21875 
Q 42.671875 74.21875 48.875 69.140625 
Q 55.078125 64.0625 55.078125 55.328125 
Q 55.078125 49.078125 51.53125 44.71875 
Q 48 40.375 41.703125 38.8125 
Q 48.828125 37.15625 52.796875 32.3125 
Q 56.78125 27.484375 56.78125 20.515625 
Q 56.78125 9.90625 50.3125 4.234375 
Q 43.84375 -1.421875 31.78125 -1.421875 
Q 19.734375 -1.421875 13.25 4.234375 
Q 6.78125 9.90625 6.78125 20.515625 
Q 6.78125 27.484375 10.78125 32.3125 
Q 14.796875 37.15625 21.921875 38.8125 
z
M 18.3125 54.390625 
Q 18.3125 48.734375 21.84375 45.5625 
Q 25.390625 42.390625 31.78125 42.390625 
Q 38.140625 42.390625 41.71875 45.5625 
Q 45.3125 48.734375 45.3125 54.390625 
Q 45.3125 60.0625 41.71875 63.234375 
Q 38.140625 66.40625 31.78125 66.40625 
Q 25.390625 66.40625 21.84375 63.234375 
Q 18.3125 60.0625 18.3125 54.390625 
z
" id="DejaVuSans-56"/>
       </defs>
       <use xlink:href="#DejaVuSans-48"/>
       <use x="63.623047" xlink:href="#DejaVuSans-46"/>
       <use x="95.410156" xlink:href="#DejaVuSans-56"/>
      </g>
     </g>
    </g>
    <g id="ytick_6">
     <g id="line2d_27">
      <path clip-path="url(#p6f27e2dade)" d="M 57.6 6.381624 
L 338.688 6.381624 
" style="fill:none;stroke:#b0b0b0;stroke-linecap:square;stroke-width:0.8;"/>
     </g>
     <g id="line2d_28">
      <g>
       <use style="stroke:#000000;stroke-width:0.8;" x="57.6" xlink:href="#m6c6ea006bc" y="6.381624"/>
      </g>
     </g>
     <g id="text_11">
      <!-- 1.0 -->
      <g transform="translate(25.155 12.460374)scale(0.16 -0.16)">
       <use xlink:href="#DejaVuSans-49"/>
       <use x="63.623047" xlink:href="#DejaVuSans-46"/>
       <use x="95.410156" xlink:href="#DejaVuSans-48"/>
      </g>
     </g>
    </g>
    <g id="text_12">
     <!-- Fraction of function,target pairs -->
     <g transform="translate(17.619531 285.585)rotate(-90)scale(0.17 -0.17)">
      <defs>
       <path d="M 9.8125 72.90625 
L 51.703125 72.90625 
L 51.703125 64.59375 
L 19.671875 64.59375 
L 19.671875 43.109375 
L 48.578125 43.109375 
L 48.578125 34.8125 
L 19.671875 34.8125 
L 19.671875 0 
L 9.8125 0 
z
" id="DejaVuSans-70"/>
       <path d="M 41.109375 46.296875 
Q 39.59375 47.171875 37.8125 47.578125 
Q 36.03125 48 33.890625 48 
Q 26.265625 48 22.1875 43.046875 
Q 18.109375 38.09375 18.109375 28.8125 
L 18.109375 0 
L 9.078125 0 
L 9.078125 54.6875 
L 18.109375 54.6875 
L 18.109375 46.1875 
Q 20.953125 51.171875 25.484375 53.578125 
Q 30.03125 56 36.53125 56 
Q 37.453125 56 38.578125 55.875 
Q 39.703125 55.765625 41.0625 55.515625 
z
" id="DejaVuSans-114"/>
       <path d="M 48.78125 52.59375 
L 48.78125 44.1875 
Q 44.96875 46.296875 41.140625 47.34375 
Q 37.3125 48.390625 33.40625 48.390625 
Q 24.65625 48.390625 19.8125 42.84375 
Q 14.984375 37.3125 14.984375 27.296875 
Q 14.984375 17.28125 19.8125 11.734375 
Q 24.65625 6.203125 33.40625 6.203125 
Q 37.3125 6.203125 41.140625 7.25 
Q 44.96875 8.296875 48.78125 10.40625 
L 48.78125 2.09375 
Q 45.015625 0.34375 40.984375 -0.53125 
Q 36.96875 -1.421875 32.421875 -1.421875 
Q 20.0625 -1.421875 12.78125 6.34375 
Q 5.515625 14.109375 5.515625 27.296875 
Q 5.515625 40.671875 12.859375 48.328125 
Q 20.21875 56 33.015625 56 
Q 37.15625 56 41.109375 55.140625 
Q 45.0625 54.296875 48.78125 52.59375 
z
" id="DejaVuSans-99"/>
       <path d="M 18.3125 70.21875 
L 18.3125 54.6875 
L 36.8125 54.6875 
L 36.8125 47.703125 
L 18.3125 47.703125 
L 18.3125 18.015625 
Q 18.3125 11.328125 20.140625 9.421875 
Q 21.96875 7.515625 27.59375 7.515625 
L 36.8125 7.515625 
L 36.8125 0 
L 27.59375 0 
Q 17.1875 0 13.234375 3.875 
Q 9.28125 7.765625 9.28125 18.015625 
L 9.28125 47.703125 
L 2.6875 47.703125 
L 2.6875 54.6875 
L 9.28125 54.6875 
L 9.28125 70.21875 
z
" id="DejaVuSans-116"/>
       <path d="M 8.5 21.578125 
L 8.5 54.6875 
L 17.484375 54.6875 
L 17.484375 21.921875 
Q 17.484375 14.15625 20.5 10.265625 
Q 23.53125 6.390625 29.59375 6.390625 
Q 36.859375 6.390625 41.078125 11.03125 
Q 45.3125 15.671875 45.3125 23.6875 
L 45.3125 54.6875 
L 54.296875 54.6875 
L 54.296875 0 
L 45.3125 0 
L 45.3125 8.40625 
Q 42.046875 3.421875 37.71875 1 
Q 33.40625 -1.421875 27.6875 -1.421875 
Q 18.265625 -1.421875 13.375 4.4375 
Q 8.5 10.296875 8.5 21.578125 
z
M 31.109375 56 
z
" id="DejaVuSans-117"/>
       <path d="M 11.71875 12.40625 
L 22.015625 12.40625 
L 22.015625 4 
L 14.015625 -11.625 
L 7.71875 -11.625 
L 11.71875 4 
z
" id="DejaVuSans-44"/>
       <path d="M 18.109375 8.203125 
L 18.109375 -20.796875 
L 9.078125 -20.796875 
L 9.078125 54.6875 
L 18.109375 54.6875 
L 18.109375 46.390625 
Q 20.953125 51.265625 25.265625 53.625 
Q 29.59375 56 35.59375 56 
Q 45.5625 56 51.78125 48.09375 
Q 58.015625 40.1875 58.015625 27.296875 
Q 58.015625 14.40625 51.78125 6.484375 
Q 45.5625 -1.421875 35.59375 -1.421875 
Q 29.59375 -1.421875 25.265625 0.953125 
Q 20.953125 3.328125 18.109375 8.203125 
z
M 48.6875 27.296875 
Q 48.6875 37.203125 44.609375 42.84375 
Q 40.53125 48.484375 33.40625 48.484375 
Q 26.265625 48.484375 22.1875 42.84375 
Q 18.109375 37.203125 18.109375 27.296875 
Q 18.109375 17.390625 22.1875 11.75 
Q 26.265625 6.109375 33.40625 6.109375 
Q 40.53125 6.109375 44.609375 11.75 
Q 48.6875 17.390625 48.6875 27.296875 
z
" id="DejaVuSans-112"/>
      </defs>
      <use xlink:href="#DejaVuSans-70"/>
      <use x="50.269531" xlink:href="#DejaVuSans-114"/>
      <use x="91.382812" xlink:href="#DejaVuSans-97"/>
      <use x="152.662109" xlink:href="#DejaVuSans-99"/>
      <use x="207.642578" xlink:href="#DejaVuSans-116"/>
      <use x="246.851562" xlink:href="#DejaVuSans-105"/>
      <use x="274.634766" xlink:href="#DejaVuSans-111"/>
      <use x="335.816406" xlink:href="#DejaVuSans-110"/>
      <use x="399.195312" xlink:href="#DejaVuSans-32"/>
      <use x="430.982422" xlink:href="#DejaVuSans-111"/>
      <use x="492.164062" xlink:href="#DejaVuSans-102"/>
      <use x="527.369141" xlink:href="#DejaVuSans-32"/>
      <use x="559.15625" xlink:href="#DejaVuSans-102"/>
      <use x="594.361328" xlink:href="#DejaVuSans-117"/>
      <use x="657.740234" xlink:href="#DejaVuSans-110"/>
      <use x="721.119141" xlink:href="#DejaVuSans-99"/>
      <use x="776.099609" xlink:href="#DejaVuSans-116"/>
      <use x="815.308594" xlink:href="#DejaVuSans-105"/>
      <use x="843.091797" xlink:href="#DejaVuSans-111"/>
      <use x="904.273438" xlink:href="#DejaVuSans-110"/>
      <use x="967.652344" xlink:href="#DejaVuSans-44"/>
      <use x="999.439453" xlink:href="#DejaVuSans-116"/>
      <use x="1038.648438" xlink:href="#DejaVuSans-97"/>
      <use x="1099.927734" xlink:href="#DejaVuSans-114"/>
      <use x="1139.291016" xlink:href="#DejaVuSans-103"/>
      <use x="1202.767578" xlink:href="#DejaVuSans-101"/>
      <use x="1264.291016" xlink:href="#DejaVuSans-116"/>
      <use x="1303.5" xlink:href="#DejaVuSans-32"/>
      <use x="1335.287109" xlink:href="#DejaVuSans-112"/>
      <use x="1398.763672" xlink:href="#DejaVuSans-97"/>
      <use x="1460.042969" xlink:href="#DejaVuSans-105"/>
      <use x="1487.826172" xlink:href="#DejaVuSans-114"/>
      <use x="1528.939453" xlink:href="#DejaVuSans-115"/>
     </g>
    </g>
   </g>
   <g id="line2d_29">
    <defs>
     <path d="M 0 1.5 
C 0.397805 1.5 0.77937 1.341951 1.06066 1.06066 
C 1.341951 0.77937 1.5 0.397805 1.5 0 
C 1.5 -0.397805 1.341951 -0.77937 1.06066 -1.06066 
C 0.77937 -1.341951 0.397805 -1.5 0 -1.5 
C -0.397805 -1.5 -0.77937 -1.341951 -1.06066 -1.06066 
C -1.341951 -0.77937 -1.5 -0.397805 -1.5 0 
C -1.5 0.397805 -1.341951 0.77937 -1.06066 1.06066 
C -0.77937 1.341951 -0.397805 1.5 0 1.5 
z
" id="m84ca901d94" style="stroke:#000080;"/>
    </defs>
    <g>
     <use style="fill:#000080;stroke:#000080;" x="256.992174" xlink:href="#m84ca901d94" y="42.195294"/>
     <use style="fill:#000080;stroke:#000080;" x="256.992174" xlink:href="#m84ca901d94" y="42.195294"/>
    </g>
   </g>
   <g id="line2d_30">
    <path d="M 45.512012 298.944 
L 45.512012 295.413075 
L 106.48859 295.413075 
L 106.48859 294.908657 
L 111.104637 294.908657 
L 111.104637 294.404239 
L 116.323218 294.404239 
L 116.323218 293.395403 
L 117.765302 293.395403 
L 117.765302 292.890985 
L 120.33454 292.890985 
L 120.33454 291.377732 
L 121.489881 291.377732 
L 121.489881 290.368896 
L 122.573415 290.368896 
L 122.573415 289.864478 
L 123.593547 289.864478 
L 123.593547 288.855642 
L 125.470548 288.855642 
L 125.470548 287.342389 
L 126.338353 287.342389 
L 126.338353 285.829135 
L 127.165014 285.829135 
L 127.165014 283.307045 
L 129.433047 283.307045 
L 129.433047 282.802628 
L 130.127931 282.802628 
L 130.127931 282.29821 
L 131.439773 282.29821 
L 131.439773 281.289374 
L 143.840863 281.289374 
L 143.840863 280.784956 
L 151.818809 280.784956 
L 151.818809 280.280538 
L 153.178403 280.280538 
L 153.178403 279.77612 
L 153.925152 279.77612 
L 153.925152 279.271702 
L 154.707925 279.271702 
L 154.707925 278.767284 
L 155.678822 278.767284 
L 155.678822 278.262867 
L 156.478647 278.262867 
L 156.478647 277.254031 
L 157.185742 277.254031 
L 157.272146 275.740777 
L 158.031107 275.740777 
L 158.031107 275.236359 
L 158.784773 275.236359 
L 158.784773 274.227523 
L 159.658204 274.227523 
L 159.658204 272.71427 
L 160.891432 272.71427 
L 160.891432 272.209852 
L 162.021314 272.209852 
L 162.021314 270.696598 
L 162.62347 270.696598 
L 162.62347 270.19218 
L 163.327764 270.19218 
L 163.327764 269.687762 
L 164.024234 269.687762 
L 164.024234 267.670091 
L 164.693955 267.670091 
L 164.693955 266.156837 
L 165.211808 266.156837 
L 165.248216 264.643583 
L 165.356985 264.643583 
L 165.356985 263.13033 
L 165.500963 263.13033 
L 165.500963 262.625912 
L 166.099947 262.625912 
L 166.099947 261.617076 
L 166.237944 261.617076 
L 166.255117 260.103822 
L 166.408919 260.103822 
L 166.408919 259.094987 
L 166.945039 259.094987 
L 166.945039 257.581733 
L 167.190782 257.581733 
L 167.190782 257.077315 
L 167.592812 257.077315 
L 167.592812 255.059644 
L 168.293904 255.059644 
L 168.293904 254.555226 
L 169.403177 254.555226 
L 169.403177 253.54639 
L 169.701534 253.54639 
L 169.701534 253.041972 
L 170.378471 253.041972 
L 170.378471 252.537554 
L 171.569909 252.537554 
L 171.569909 251.528718 
L 172.105778 251.528718 
L 172.105778 250.519883 
L 172.397859 250.519883 
L 172.397859 249.511047 
L 176.199784 249.511047 
L 176.199784 249.006629 
L 177.48108 249.006629 
L 177.48108 248.502211 
L 178.624047 248.502211 
L 178.624047 247.997793 
L 179.033027 247.997793 
L 179.033027 247.493375 
L 182.53408 247.493375 
L 182.53408 246.988957 
L 182.722034 246.988957 
L 182.722034 246.484539 
L 182.907984 246.484539 
L 182.907984 245.980122 
L 183.267569 245.980122 
L 183.267569 244.466868 
L 183.422185 244.466868 
L 183.422185 243.96245 
L 183.569083 243.96245 
L 183.569083 242.953614 
L 183.727364 242.953614 
L 183.727364 241.944778 
L 184.0149 241.944778 
L 184.0149 240.935943 
L 184.132295 240.935943 
L 184.132295 240.431525 
L 184.689818 240.431525 
L 184.689818 239.927107 
L 187.040861 239.927107 
L 187.040861 239.422689 
L 190.005407 239.422689 
L 190.101878 237.909435 
L 190.821479 237.909435 
L 190.821479 237.405017 
L 191.07972 237.405017 
L 191.07972 236.9006 
L 191.236127 236.9006 
L 191.236127 236.396182 
L 191.689121 236.396182 
L 191.689121 235.891764 
L 191.836221 235.891764 
L 191.836221 234.37851 
L 192.076062 234.37851 
L 192.076062 233.369674 
L 192.408691 233.369674 
L 192.408691 232.360839 
L 192.565064 232.360839 
L 192.565064 231.352003 
L 192.697452 231.352003 
L 192.697452 230.847585 
L 192.825103 230.847585 
L 192.825103 229.838749 
L 193.785707 229.838749 
L 193.873989 228.829913 
L 193.923233 228.829913 
L 193.923233 227.821078 
L 194.198532 227.821078 
L 194.198532 227.31666 
L 194.462742 227.31666 
L 194.462742 226.812242 
L 194.584909 226.812242 
L 194.584909 225.803406 
L 194.820034 225.803406 
L 194.820034 224.79457 
L 194.976143 224.79457 
L 195.071774 223.281316 
L 195.157068 223.281316 
L 195.157068 221.768063 
L 199.305162 221.768063 
L 199.305162 221.263645 
L 199.459266 221.263645 
L 199.53581 219.750391 
L 199.596805 219.750391 
L 199.596805 219.245973 
L 199.725714 219.245973 
L 199.783539 217.73272 
L 199.906096 217.73272 
L 199.973261 216.219466 
L 200.027797 216.219466 
L 200.133901 213.697377 
L 200.246698 213.697377 
L 200.246698 213.192959 
L 202.957656 213.192959 
L 202.957656 212.688541 
L 205.970782 212.688541 
L 205.970782 212.184123 
L 208.643712 212.184123 
L 208.643712 211.175287 
L 210.444237 211.175287 
L 210.444237 210.166451 
L 210.68635 210.166451 
L 210.761409 208.653198 
L 210.86808 208.653198 
L 210.86808 208.14878 
L 211.076857 208.14878 
L 211.076857 207.644362 
L 211.711411 207.644362 
L 211.711411 207.139944 
L 212.08234 207.139944 
L 212.08234 206.131108 
L 212.576203 206.131108 
L 212.576203 205.62669 
L 213.134849 205.62669 
L 213.134849 205.122272 
L 214.186879 205.122272 
L 214.186879 204.617855 
L 214.715088 204.617855 
L 214.715088 203.609019 
L 215.442809 203.609019 
L 215.442809 203.104601 
L 215.675424 203.104601 
L 215.687528 202.095765 
L 215.824126 202.095765 
L 215.918913 201.086929 
L 215.985455 201.086929 
L 215.985455 200.582511 
L 216.146287 200.582511 
L 216.210989 199.069258 
L 216.274478 199.069258 
L 216.274478 198.56484 
L 216.430745 198.56484 
L 216.490552 197.556004 
L 216.627715 197.556004 
L 216.732496 193.520661 
L 216.772337 193.520661 
L 216.811143 190.998572 
L 217.099929 190.998572 
L 217.099929 189.989736 
L 217.390414 189.989736 
L 217.390414 189.485318 
L 217.55154 189.485318 
L 217.55154 188.9809 
L 217.761399 188.9809 
L 217.761399 188.476482 
L 218.036752 188.476482 
L 218.036752 187.467646 
L 218.231303 187.467646 
L 218.231303 186.963228 
L 218.402146 186.963228 
L 218.402146 186.458811 
L 218.702455 186.458811 
L 218.702455 185.449975 
L 218.843541 185.449975 
L 218.865404 183.936721 
L 218.973476 183.936721 
L 219.04848 182.927885 
L 219.279785 182.927885 
L 219.279785 182.423467 
L 219.391035 182.423467 
L 219.469952 180.910214 
L 219.524253 180.910214 
L 219.524253 179.901378 
L 219.654855 179.901378 
L 219.698974 178.892542 
L 219.814754 178.892542 
L 219.817937 177.379288 
L 220.13569 177.379288 
L 220.215205 176.370453 
L 220.290486 176.370453 
L 220.356188 174.352781 
L 220.47 174.352781 
L 220.47 173.848363 
L 220.624908 173.848363 
L 220.624908 173.343945 
L 220.880569 173.343945 
L 220.880569 172.839527 
L 221.162027 172.839527 
L 221.221596 171.326274 
L 221.404177 171.326274 
L 221.454235 169.81302 
L 221.597086 169.81302 
L 221.620064 167.290931 
L 221.770819 167.290931 
L 221.777221 165.777677 
L 221.921693 165.777677 
L 222.027164 163.255588 
L 222.104107 163.255588 
L 222.198074 161.742334 
L 222.304652 161.742334 
L 222.406467 160.733498 
L 222.498824 160.733498 
L 222.585263 159.220244 
L 222.724567 159.220244 
L 222.74678 158.211409 
L 222.860763 158.211409 
L 222.929462 157.202573 
L 223.02638 157.202573 
L 223.11025 153.16723 
L 223.15302 153.16723 
L 223.233668 152.158394 
L 223.308084 152.158394 
L 223.308084 151.149558 
L 223.589155 151.149558 
L 223.608373 150.140722 
L 223.790532 150.140722 
L 223.896653 148.627469 
L 224.080203 148.627469 
L 224.163508 147.114215 
L 224.445269 147.114215 
L 224.445269 146.105379 
L 224.749558 146.105379 
L 224.796272 144.592126 
L 224.924391 144.592126 
L 224.924391 144.087708 
L 225.274704 144.087708 
L 225.378557 143.078872 
L 225.391856 143.078872 
L 225.50076 141.565618 
L 225.68759 141.565618 
L 225.765839 139.547947 
L 226.030849 139.547947 
L 226.030849 139.043529 
L 226.206599 139.043529 
L 226.206599 138.539111 
L 226.438937 138.539111 
L 226.438937 138.034693 
L 226.788677 138.034693 
L 226.857897 137.025857 
L 226.968082 137.025857 
L 226.968082 136.017022 
L 227.330243 136.017022 
L 227.330243 135.512604 
L 227.614957 135.512604 
L 227.614957 135.008186 
L 227.800203 135.008186 
L 227.800203 134.503768 
L 228.021821 134.503768 
L 228.021821 133.494932 
L 228.259793 133.494932 
L 228.322935 132.486096 
L 228.439319 132.486096 
L 228.439319 131.47726 
L 228.566981 131.47726 
L 228.566981 130.972843 
L 228.743388 130.972843 
L 228.784358 128.955171 
L 229.603245 128.955171 
L 229.673023 126.433082 
L 229.928441 126.433082 
L 229.928441 125.424246 
L 230.052327 125.424246 
L 230.052327 124.919828 
L 230.198171 124.919828 
L 230.198171 123.910992 
L 230.721173 123.910992 
L 230.812907 122.397738 
L 230.869575 122.397738 
L 230.958434 119.875649 
L 231.168456 119.875649 
L 231.266129 118.362395 
L 231.404663 118.362395 
L 231.494917 113.822634 
L 231.532352 113.822634 
L 231.61831 110.291709 
L 231.708273 110.291709 
L 231.81138 108.274038 
L 231.923025 108.274038 
L 231.986106 106.256366 
L 232.079318 106.256366 
L 232.141446 105.24753 
L 232.210391 105.24753 
L 232.294635 102.725441 
L 232.365304 102.725441 
L 232.404398 100.203351 
L 232.493484 100.203351 
L 232.541885 98.690098 
L 232.617673 98.690098 
L 232.617673 97.681262 
L 232.734156 97.681262 
L 232.826861 95.159172 
L 232.9187 95.159172 
L 233.018646 94.150337 
L 233.055559 94.150337 
L 233.069707 92.132665 
L 233.173233 92.132665 
L 233.173233 91.628247 
L 233.349184 91.628247 
L 233.387598 90.619411 
L 233.490713 90.619411 
L 233.586358 89.106158 
L 233.713075 89.106158 
L 233.713075 88.60174 
L 233.914563 88.60174 
L 233.951399 86.584068 
L 234.506113 86.584068 
L 234.506113 86.07965 
L 234.686147 86.07965 
L 234.732558 83.053143 
L 234.878774 83.053143 
L 234.878774 82.044307 
L 234.993137 82.044307 
L 234.993137 81.539889 
L 235.705003 81.539889 
L 235.783857 79.522218 
L 235.990623 79.522218 
L 235.990623 79.0178 
L 236.107014 79.0178 
L 236.107014 78.513382 
L 236.516162 78.513382 
L 236.592352 77.504546 
L 237.296521 77.504546 
L 237.296521 77.000128 
L 237.421077 77.000128 
L 237.421077 76.49571 
L 237.661547 76.49571 
L 237.676985 74.982457 
L 241.186173 74.982457 
L 241.186173 73.973621 
L 242.454929 73.973621 
L 242.555887 68.929442 
L 242.592141 68.929442 
L 242.676442 67.416188 
L 242.743249 67.416188 
L 242.827037 65.398517 
L 242.976764 65.398517 
L 243.062588 63.885263 
L 243.216763 63.885263 
L 243.310936 61.867592 
L 243.683836 61.867592 
L 243.683836 61.363174 
L 243.808932 61.363174 
L 243.808932 60.354338 
L 244.276864 60.354338 
L 244.276864 59.345502 
L 244.460073 59.345502 
L 244.460073 58.841084 
L 244.775226 58.841084 
L 244.775226 58.336666 
L 244.980579 58.336666 
L 244.980579 57.832249 
L 245.131065 57.832249 
L 245.131065 57.327831 
L 245.768752 57.327831 
L 245.768752 56.318995 
L 246.565631 56.318995 
L 246.565631 55.310159 
L 247.049433 55.310159 
L 247.049433 54.805741 
L 252.160476 54.805741 
L 252.226978 51.779234 
L 252.766189 51.779234 
L 252.768595 49.761562 
L 252.923896 49.761562 
L 252.925922 47.239473 
L 253.53278 47.239473 
L 253.535543 42.699712 
L 256.992174 42.699712 
L 256.992174 42.195294 
L 338.688 42.195294 
L 338.688 42.195294 
" style="fill:none;stroke:#000080;stroke-linecap:square;stroke-width:1.5;"/>
   </g>
   <g id="line2d_31">
    <defs>
     <path d="M 0 6 
C 1.591219 6 3.117479 5.367802 4.242641 4.242641 
C 5.367802 3.117479 6 1.591219 6 0 
C 6 -1.591219 5.367802 -3.117479 4.242641 -4.242641 
C 3.117479 -5.367802 1.591219 -6 0 -6 
C -1.591219 -6 -3.117479 -5.367802 -4.242641 -4.242641 
C -5.367802 -3.117479 -6 -1.591219 -6 0 
C -6 1.591219 -5.367802 3.117479 -4.242641 4.242641 
C -3.117479 5.367802 -1.591219 6 0 6 
z
" id="m52bf1f4b45" style="stroke:#000080;stroke-width:1.5;"/>
    </defs>
    <g>
     <use style="fill-opacity:0;stroke:#000080;stroke-width:1.5;" x="127.165014" xlink:href="#m52bf1f4b45" y="285.829135"/>
     <use style="fill-opacity:0;stroke:#000080;stroke-width:1.5;" x="192.408691" xlink:href="#m52bf1f4b45" y="233.369674"/>
     <use style="fill-opacity:0;stroke:#000080;stroke-width:1.5;" x="221.221596" xlink:href="#m52bf1f4b45" y="171.326274"/>
     <use style="fill-opacity:0;stroke:#000080;stroke-width:1.5;" x="247.049433" xlink:href="#m52bf1f4b45" y="54.805741"/>
     <use style="fill-opacity:0;stroke:#000080;stroke-width:1.5;" x="256.992174" xlink:href="#m52bf1f4b45" y="42.195294"/>
     <use style="fill-opacity:0;stroke:#000080;stroke-width:1.5;" x="338.688" xlink:href="#m52bf1f4b45" y="42.195294"/>
    </g>
   </g>
   <g id="line2d_32">
    <path style="fill:none;stroke:#000080;stroke-linecap:square;stroke-width:1.5;"/>
    <g/>
   </g>
   <g id="line2d_33">
    <path clip-path="url(#p6f27e2dade)" d="M 258.377143 42.195294 
" style="fill:none;stroke:#000080;stroke-linecap:square;stroke-width:1.5;"/>
    <defs>
     <path d="M -12 12 
L 12 -12 
M -12 -12 
L 12 12 
" id="m2ebbd6e3ca" style="stroke:#000080;"/>
    </defs>
    <g clip-path="url(#p6f27e2dade)">
     <use style="fill:#000080;stroke:#000080;" x="258.377143" xlink:href="#m2ebbd6e3ca" y="42.195294"/>
    </g>
   </g>
   <g id="line2d_34">
    <defs>
     <path d="M 0 1.5 
C 0.397805 1.5 0.77937 1.341951 1.06066 1.06066 
C 1.341951 0.77937 1.5 0.397805 1.5 0 
C 1.5 -0.397805 1.341951 -0.77937 1.06066 -1.06066 
C 0.77937 -1.341951 0.397805 -1.5 0 -1.5 
C -0.397805 -1.5 -0.77937 -1.341951 -1.06066 -1.06066 
C -1.341951 -0.77937 -1.5 -0.397805 -1.5 0 
C -1.5 0.397805 -1.341951 0.77937 -1.06066 1.06066 
C -0.77937 1.341951 -0.397805 1.5 0 1.5 
z
" id="m7bede832e7" style="stroke:#ff00ff;"/>
    </defs>
    <g>
     <use style="fill:#ff00ff;stroke:#ff00ff;" x="239.214036" xlink:href="#m7bede832e7" y="52.283652"/>
     <use style="fill:#ff00ff;stroke:#ff00ff;" x="239.214036" xlink:href="#m7bede832e7" y="52.283652"/>
    </g>
   </g>
   <g id="line2d_35">
    <path d="M 45.512012 298.944 
L 45.512012 296.421911 
L 98.606294 296.421911 
L 98.606294 295.917493 
L 103.623262 295.917493 
L 103.623262 294.908657 
L 106.48859 294.908657 
L 106.48859 293.395403 
L 108.948899 293.395403 
L 108.948899 291.88215 
L 111.104637 291.88215 
L 111.104637 291.377732 
L 116.323218 291.377732 
L 116.323218 290.873314 
L 149.557321 290.873314 
L 149.557321 290.368896 
L 150.849711 290.368896 
L 150.849711 289.864478 
L 151.260066 289.864478 
L 151.260066 288.855642 
L 157.500487 288.855642 
L 157.500487 288.351224 
L 158.625992 288.351224 
L 158.652556 286.837971 
L 158.75841 286.837971 
L 158.75841 286.333553 
L 159.149734 286.333553 
L 159.149734 285.829135 
L 159.683242 285.829135 
L 159.683242 285.324717 
L 161.488097 285.324717 
L 161.488097 284.820299 
L 162.474869 284.820299 
L 162.474869 284.315881 
L 162.791763 284.315881 
L 162.791763 283.811463 
L 164.102088 283.811463 
L 164.102088 282.802628 
L 165.608172 282.802628 
L 165.608172 282.29821 
L 166.662278 282.29821 
L 166.662278 281.793792 
L 166.829163 281.793792 
L 166.829163 281.289374 
L 166.994465 281.289374 
L 166.994465 280.784956 
L 168.760989 280.784956 
L 168.760989 280.280538 
L 168.909031 280.280538 
L 168.909031 279.77612 
L 169.055827 279.77612 
L 169.128764 278.767284 
L 169.27373 278.767284 
L 169.27373 278.262867 
L 169.474679 278.262867 
L 169.474679 277.758449 
L 172.154799 277.758449 
L 172.154799 277.254031 
L 173.632396 277.254031 
L 173.632396 276.749613 
L 178.45432 276.749613 
L 178.45432 276.245195 
L 179.768016 276.245195 
L 179.768016 275.236359 
L 180.003686 275.236359 
L 180.05822 273.218688 
L 180.266984 273.218688 
L 180.266984 272.71427 
L 180.450477 272.71427 
L 180.450477 271.201016 
L 180.609464 271.201016 
L 180.609464 270.696598 
L 180.997019 270.696598 
L 180.997019 270.19218 
L 184.485848 270.19218 
L 184.485848 269.687762 
L 184.683853 269.687762 
L 184.683853 269.183344 
L 186.420143 269.183344 
L 186.420143 268.678927 
L 186.666828 268.678927 
L 186.666828 267.670091 
L 186.90482 267.670091 
L 186.957269 265.652419 
L 189.107648 265.652419 
L 189.107648 265.148001 
L 189.305589 265.148001 
L 189.32846 263.634748 
L 191.585005 263.634748 
L 191.585005 263.13033 
L 195.10791 263.13033 
L 195.10791 262.121494 
L 195.468434 262.121494 
L 195.468434 261.617076 
L 195.802743 261.617076 
L 195.802743 261.112658 
L 195.947208 261.112658 
L 196.040783 260.103822 
L 196.136953 260.103822 
L 196.211045 259.094987 
L 196.428407 259.094987 
L 196.428407 258.590569 
L 196.733018 258.590569 
L 196.807602 257.077315 
L 197.16415 257.077315 
L 197.16415 256.572897 
L 197.297807 256.572897 
L 197.297807 256.068479 
L 197.441934 256.068479 
L 197.441934 255.564061 
L 197.675754 255.564061 
L 197.675754 254.555226 
L 197.931619 254.555226 
L 198.001259 251.528718 
L 198.054 251.528718 
L 198.101055 249.511047 
L 198.219512 249.511047 
L 198.219512 249.006629 
L 198.421503 249.006629 
L 198.421503 248.502211 
L 198.607761 248.502211 
L 198.607761 247.997793 
L 198.792051 247.997793 
L 198.855699 245.475704 
L 198.977043 245.475704 
L 199.060962 243.458032 
L 199.128849 243.458032 
L 199.128849 242.449196 
L 199.256078 242.449196 
L 199.318057 239.422689 
L 199.377247 239.422689 
L 199.377247 238.413853 
L 199.500131 238.413853 
L 199.512882 236.9006 
L 199.629754 236.9006 
L 199.710597 232.865256 
L 199.750878 232.865256 
L 199.80862 230.847585 
L 199.866172 230.847585 
L 199.908588 229.334331 
L 200.336899 229.334331 
L 200.336899 228.829913 
L 200.506285 228.829913 
L 200.530349 227.31666 
L 201.011806 227.31666 
L 201.011806 226.812242 
L 201.160881 226.812242 
L 201.160881 225.803406 
L 201.530356 225.803406 
L 201.614172 224.79457 
L 201.74251 224.79457 
L 201.827547 223.281316 
L 202.088997 223.281316 
L 202.172366 221.263645 
L 202.270579 221.263645 
L 202.320563 218.741555 
L 202.415789 218.741555 
L 202.463208 217.228302 
L 203.165641 217.228302 
L 203.165641 216.219466 
L 203.717118 216.219466 
L 203.717118 215.21063 
L 205.383629 215.21063 
L 205.383629 214.706212 
L 206.667825 214.706212 
L 206.667825 213.697377 
L 206.799252 213.697377 
L 206.832792 212.184123 
L 208.161405 212.184123 
L 208.212562 211.175287 
L 208.780598 211.175287 
L 208.780598 210.166451 
L 209.907601 210.166451 
L 209.993071 209.157616 
L 210.022398 209.157616 
L 210.11425 206.635526 
L 210.146146 206.635526 
L 210.208382 204.113437 
L 212.092257 204.113437 
L 212.092257 203.609019 
L 212.62555 203.609019 
L 212.62555 203.104601 
L 212.844119 203.104601 
L 212.900998 202.095765 
L 212.993032 202.095765 
L 212.993032 201.086929 
L 213.221015 201.086929 
L 213.221015 200.582511 
L 213.574009 200.582511 
L 213.574009 200.078094 
L 214.170387 200.078094 
L 214.170387 199.573676 
L 214.558728 199.573676 
L 214.558728 198.56484 
L 214.840444 198.56484 
L 214.840444 198.060422 
L 215.255697 198.060422 
L 215.327901 196.547168 
L 216.049768 196.547168 
L 216.049768 196.04275 
L 216.514609 196.04275 
L 216.591371 195.033915 
L 216.6554 195.033915 
L 216.764755 192.007407 
L 216.788438 192.007407 
L 216.794117 190.998572 
L 216.921408 190.998572 
L 216.983303 186.963228 
L 217.138013 186.963228 
L 217.249003 184.945557 
L 217.30791 184.945557 
L 217.332702 183.936721 
L 217.470708 183.936721 
L 217.49436 182.927885 
L 217.775718 182.927885 
L 217.839116 181.91905 
L 217.921811 181.91905 
L 217.921811 181.414632 
L 218.033227 181.414632 
L 218.137804 179.39696 
L 218.154443 179.39696 
L 218.225202 177.379288 
L 218.279169 177.379288 
L 218.343364 176.370453 
L 218.489091 176.370453 
L 218.506256 174.857199 
L 218.668491 174.857199 
L 218.774408 173.848363 
L 218.839333 173.848363 
L 218.839333 173.343945 
L 219.031008 173.343945 
L 219.031008 172.839527 
L 219.181855 172.839527 
L 219.181855 172.33511 
L 219.651642 172.33511 
L 219.744579 170.821856 
L 219.764544 170.821856 
L 219.866407 168.804184 
L 219.886233 168.804184 
L 219.996056 167.290931 
L 220.032249 167.290931 
L 220.092664 166.282095 
L 220.184066 166.282095 
L 220.264911 162.75117 
L 220.3338 162.75117 
L 220.3338 162.246752 
L 220.484557 162.246752 
L 220.484557 161.742334 
L 220.664369 161.742334 
L 220.664369 160.733498 
L 220.861093 160.733498 
L 220.870084 159.724662 
L 221.02595 159.724662 
L 221.02595 159.220244 
L 221.459305 159.220244 
L 221.566882 157.202573 
L 221.627955 157.202573 
L 221.627955 156.698155 
L 221.817709 156.698155 
L 221.884273 154.680483 
L 222.137575 154.680483 
L 222.137575 153.671648 
L 222.263206 153.671648 
L 222.284632 152.158394 
L 222.39343 152.158394 
L 222.491317 150.64514 
L 222.560125 150.64514 
L 222.622565 149.636305 
L 222.743416 149.636305 
L 222.833341 148.627469 
L 222.873456 148.627469 
L 222.942105 146.609797 
L 223.039615 146.609797 
L 223.039615 145.600961 
L 223.268957 145.600961 
L 223.278747 144.592126 
L 223.450155 144.592126 
L 223.548727 142.574454 
L 223.572482 142.574454 
L 223.679935 140.556783 
L 223.973315 140.556783 
L 223.973315 140.052365 
L 224.089548 140.052365 
L 224.110712 138.539111 
L 224.280333 138.539111 
L 224.375561 137.530275 
L 224.565683 137.530275 
L 224.571743 136.521439 
L 224.81062 136.521439 
L 224.865513 135.008186 
L 224.9949 135.008186 
L 225.089844 133.99935 
L 225.138003 133.99935 
L 225.231006 131.47726 
L 225.261315 131.47726 
L 225.334538 129.964007 
L 225.469138 129.964007 
L 225.568982 126.433082 
L 225.582137 126.433082 
L 225.675651 125.424246 
L 225.729593 125.424246 
L 225.838668 124.41541 
L 225.852185 124.41541 
L 225.939225 122.902156 
L 226.000175 122.902156 
L 226.000175 122.397738 
L 226.113123 122.397738 
L 226.17347 120.380067 
L 226.35436 120.380067 
L 226.35436 119.371231 
L 226.470479 119.371231 
L 226.470479 118.866813 
L 226.582591 118.866813 
L 226.689158 116.344724 
L 226.75824 116.344724 
L 226.820659 115.335888 
L 227.036069 115.335888 
L 227.040277 113.318216 
L 227.18169 113.318216 
L 227.211919 112.309381 
L 227.461635 112.309381 
L 227.461635 111.804963 
L 227.573693 111.804963 
L 227.573693 110.796127 
L 227.877564 110.796127 
L 227.88959 109.282873 
L 228.062536 109.282873 
L 228.11206 107.76962 
L 228.201342 107.76962 
L 228.212654 106.256366 
L 228.357103 106.256366 
L 228.357103 105.24753 
L 228.940209 105.24753 
L 229.03662 102.725441 
L 229.157204 102.725441 
L 229.251036 101.716605 
L 229.313004 101.716605 
L 229.335148 99.698933 
L 229.475201 99.698933 
L 229.475201 99.194516 
L 229.594617 99.194516 
L 229.594617 98.18568 
L 229.777617 98.18568 
L 229.777617 97.176844 
L 229.982722 97.176844 
L 229.982722 96.672426 
L 230.203436 96.672426 
L 230.305778 94.654755 
L 230.571497 94.654755 
L 230.571497 94.150337 
L 230.801467 94.150337 
L 230.842533 92.637083 
L 231.046425 92.637083 
L 231.046425 92.132665 
L 231.438614 92.132665 
L 231.4831 90.619411 
L 231.834965 90.619411 
L 231.834965 90.114994 
L 232.062372 90.114994 
L 232.062372 89.610576 
L 232.317965 89.610576 
L 232.317965 89.106158 
L 232.614999 89.106158 
L 232.614999 88.097322 
L 232.735294 88.097322 
L 232.735294 87.088486 
L 233.393444 87.088486 
L 233.462717 85.070815 
L 233.593944 85.070815 
L 233.593944 84.061979 
L 233.723832 84.061979 
L 233.749622 82.548725 
L 234.219293 82.548725 
L 234.28988 81.539889 
L 234.850906 81.539889 
L 234.953429 80.026636 
L 235.421132 80.026636 
L 235.421132 79.0178 
L 235.87852 79.0178 
L 235.87852 78.513382 
L 236.125765 78.513382 
L 236.149175 77.000128 
L 236.439638 77.000128 
L 236.527459 68.929442 
L 236.691812 68.929442 
L 236.691812 68.425024 
L 238.096535 68.425024 
L 238.157522 63.885263 
L 238.430038 63.885263 
L 238.453285 61.363174 
L 238.544063 61.363174 
L 238.601881 58.841084 
L 238.661399 58.841084 
L 238.70348 57.327831 
L 238.811186 57.327831 
L 238.880933 55.814577 
L 238.944823 55.814577 
L 238.984901 54.805741 
L 239.083772 54.805741 
L 239.173695 52.78807 
L 239.214036 52.78807 
L 239.214036 52.283652 
L 338.688 52.283652 
L 338.688 52.283652 
" style="fill:none;stroke:#ff00ff;stroke-linecap:square;stroke-width:1.5;"/>
   </g>
   <g id="line2d_36">
    <defs>
     <path d="M -0 8.485281 
L 5.091169 0 
L 0 -8.485281 
L -5.091169 -0 
z
" id="mfab0ccff37" style="stroke:#ff00ff;stroke-linejoin:miter;stroke-width:1.5;"/>
    </defs>
    <g>
     <use style="fill-opacity:0;stroke:#ff00ff;stroke-linejoin:miter;stroke-width:1.5;" x="116.323218" xlink:href="#mfab0ccff37" y="290.873314"/>
     <use style="fill-opacity:0;stroke:#ff00ff;stroke-linejoin:miter;stroke-width:1.5;" x="205.383629" xlink:href="#mfab0ccff37" y="215.21063"/>
     <use style="fill-opacity:0;stroke:#ff00ff;stroke-linejoin:miter;stroke-width:1.5;" x="230.571497" xlink:href="#mfab0ccff37" y="94.150337"/>
     <use style="fill-opacity:0;stroke:#ff00ff;stroke-linejoin:miter;stroke-width:1.5;" x="239.214036" xlink:href="#mfab0ccff37" y="52.283652"/>
     <use style="fill-opacity:0;stroke:#ff00ff;stroke-linejoin:miter;stroke-width:1.5;" x="239.214036" xlink:href="#mfab0ccff37" y="52.283652"/>
     <use style="fill-opacity:0;stroke:#ff00ff;stroke-linejoin:miter;stroke-width:1.5;" x="338.688" xlink:href="#mfab0ccff37" y="52.283652"/>
    </g>
   </g>
   <g id="line2d_37">
    <path style="fill:none;stroke:#ff00ff;stroke-linecap:square;stroke-width:1.5;"/>
    <g/>
   </g>
   <g id="line2d_38">
    <path clip-path="url(#p6f27e2dade)" d="M 258.365193 52.283652 
" style="fill:none;stroke:#ff00ff;stroke-linecap:square;stroke-width:1.5;"/>
    <defs>
     <path d="M -12 12 
L 12 -12 
M -12 -12 
L 12 12 
" id="m7ae3f00e70" style="stroke:#ff00ff;"/>
    </defs>
    <g clip-path="url(#p6f27e2dade)">
     <use style="fill:#ff00ff;stroke:#ff00ff;" x="258.365193" xlink:href="#m7ae3f00e70" y="52.283652"/>
    </g>
   </g>
   <g id="line2d_39">
    <defs>
     <path d="M 0 1.5 
C 0.397805 1.5 0.77937 1.341951 1.06066 1.06066 
C 1.341951 0.77937 1.5 0.397805 1.5 0 
C 1.5 -0.397805 1.341951 -0.77937 1.06066 -1.06066 
C 0.77937 -1.341951 0.397805 -1.5 0 -1.5 
C -0.397805 -1.5 -0.77937 -1.341951 -1.06066 -1.06066 
C -1.341951 -0.77937 -1.5 -0.397805 -1.5 0 
C -1.5 0.397805 -1.341951 0.77937 -1.06066 1.06066 
C -0.77937 1.341951 -0.397805 1.5 0 1.5 
z
" id="m955f5816c1" style="stroke:#ff7500;"/>
    </defs>
    <g>
     <use style="fill:#ff7500;stroke:#ff7500;" x="248.930631" xlink:href="#m955f5816c1" y="41.690876"/>
     <use style="fill:#ff7500;stroke:#ff7500;" x="248.930631" xlink:href="#m955f5816c1" y="41.690876"/>
    </g>
   </g>
   <g id="line2d_40">
    <path d="M 45.512012 298.944 
L 45.512012 290.368896 
L 99.41757 290.368896 
L 99.41757 289.864478 
L 106.48859 289.864478 
L 106.48859 289.36006 
L 108.948899 289.36006 
L 108.948899 288.855642 
L 111.104637 288.855642 
L 111.104637 288.351224 
L 113.022974 288.351224 
L 113.022974 287.342389 
L 114.751048 287.342389 
L 114.751048 286.837971 
L 116.323218 286.837971 
L 116.323218 285.829135 
L 117.765302 285.829135 
L 117.765302 284.820299 
L 119.097192 284.820299 
L 119.097192 282.802628 
L 120.33454 282.802628 
L 120.33454 279.271702 
L 121.489881 279.271702 
L 121.489881 277.254031 
L 122.573415 277.254031 
L 122.573415 275.740777 
L 123.593547 275.740777 
L 123.593547 274.731941 
L 124.557288 274.731941 
L 124.557288 274.227523 
L 126.338353 274.227523 
L 126.338353 273.723105 
L 127.165014 273.723105 
L 127.165014 273.218688 
L 128.709321 273.218688 
L 128.709321 272.209852 
L 129.433047 272.209852 
L 129.433047 271.201016 
L 130.127931 271.201016 
L 130.127931 270.696598 
L 130.796184 270.696598 
L 130.796184 269.687762 
L 132.659801 269.687762 
L 132.659801 268.678927 
L 133.800029 268.678927 
L 133.800029 267.670091 
L 134.870259 267.670091 
L 134.870259 266.156837 
L 135.381712 266.156837 
L 135.381712 265.148001 
L 135.878591 265.148001 
L 135.878591 264.643583 
L 136.361705 264.643583 
L 136.361705 264.139166 
L 136.831795 264.139166 
L 136.831795 263.634748 
L 137.735587 263.634748 
L 137.735587 261.112658 
L 139.009092 261.112658 
L 139.009092 260.60824 
L 139.413734 260.60824 
L 139.413734 259.599405 
L 139.8092 259.599405 
L 139.8092 259.094987 
L 140.574203 259.094987 
L 140.574203 255.564061 
L 140.944478 255.564061 
L 140.944478 253.54639 
L 141.307054 253.54639 
L 141.307054 252.537554 
L 141.662245 252.537554 
L 141.662245 251.528718 
L 142.010346 251.528718 
L 142.07914 249.006629 
L 142.215919 249.006629 
L 142.215919 248.502211 
L 143.653678 248.502211 
L 143.653678 247.997793 
L 144.269971 247.997793 
L 144.269971 247.493375 
L 144.865226 247.493375 
L 144.865226 245.980122 
L 145.440832 245.980122 
L 145.440832 243.96245 
L 145.998045 243.96245 
L 145.998045 243.458032 
L 146.270114 243.458032 
L 146.270114 242.449196 
L 146.538004 242.449196 
L 146.538004 241.440361 
L 148.354135 241.440361 
L 148.354135 240.431525 
L 149.012299 240.431525 
L 149.012299 239.422689 
L 149.241465 239.422689 
L 149.332295 237.909435 
L 149.911431 237.909435 
L 149.911431 236.9006 
L 150.129152 236.9006 
L 150.129152 236.396182 
L 151.178764 236.396182 
L 151.178764 235.387346 
L 152.662192 235.387346 
L 152.736878 233.874092 
L 153.105587 233.874092 
L 153.105587 233.369674 
L 153.644434 233.369674 
L 153.644434 232.865256 
L 154.337936 232.865256 
L 154.337936 232.360839 
L 155.004911 232.360839 
L 155.004911 231.352003 
L 155.167744 231.352003 
L 155.167744 230.847585 
L 155.393186 230.847585 
L 155.425155 229.838749 
L 155.584129 229.838749 
L 155.584129 223.785734 
L 155.959855 223.785734 
L 155.959855 223.281316 
L 156.776762 223.281316 
L 156.776762 222.776899 
L 159.046236 222.776899 
L 159.046236 221.768063 
L 161.329454 221.768063 
L 161.329454 220.759227 
L 163.185069 220.759227 
L 163.185069 220.254809 
L 163.649606 220.254809 
L 163.689421 218.741555 
L 164.314412 218.741555 
L 164.314412 218.237138 
L 164.917777 218.237138 
L 164.917777 215.715048 
L 165.320804 215.715048 
L 165.320804 215.21063 
L 165.483031 215.21063 
L 165.483031 212.688541 
L 166.030537 212.688541 
L 166.030537 210.166451 
L 166.945039 210.166451 
L 166.945039 209.662033 
L 167.271933 209.662033 
L 167.320442 208.653198 
L 167.735303 208.653198 
L 167.735303 207.139944 
L 168.248032 207.139944 
L 168.248032 206.131108 
L 168.46108 206.131108 
L 168.566635 204.617855 
L 169.673338 204.617855 
L 169.743743 203.104601 
L 173.699729 203.104601 
L 173.699729 202.095765 
L 173.955458 202.095765 
L 173.955458 199.573676 
L 174.250953 199.573676 
L 174.250953 199.069258 
L 178.522409 199.069258 
L 178.522409 197.051586 
L 179.815406 197.051586 
L 179.815406 196.547168 
L 180.404784 196.547168 
L 180.442869 195.538333 
L 181.584061 195.538333 
L 181.584061 194.529497 
L 183.241666 194.529497 
L 183.241666 194.025079 
L 183.41577 194.025079 
L 183.486206 193.016243 
L 183.752557 193.016243 
L 183.752557 192.007407 
L 184.058243 192.007407 
L 184.058243 191.502989 
L 184.175348 191.502989 
L 184.175348 190.998572 
L 184.382961 190.998572 
L 184.382961 190.494154 
L 184.636058 190.494154 
L 184.737466 188.9809 
L 185.137306 188.9809 
L 185.183749 186.963228 
L 185.32809 186.963228 
L 185.32809 186.458811 
L 185.692252 186.458811 
L 185.709137 184.441139 
L 185.888232 184.441139 
L 185.993706 182.423467 
L 186.065507 182.423467 
L 186.175396 180.910214 
L 186.355212 180.910214 
L 186.366051 179.39696 
L 186.533193 179.39696 
L 186.543922 176.874871 
L 186.704063 176.874871 
L 186.719997 175.866035 
L 186.894312 175.866035 
L 186.894312 174.352781 
L 187.061696 174.352781 
L 187.061696 173.848363 
L 187.386613 173.848363 
L 187.386613 173.343945 
L 187.929906 173.343945 
L 187.929906 172.839527 
L 188.077864 172.839527 
L 188.077864 171.830692 
L 188.586052 171.830692 
L 188.586052 171.326274 
L 188.944859 171.326274 
L 188.944859 170.317438 
L 189.218403 170.317438 
L 189.218403 169.308602 
L 189.33303 169.308602 
L 189.33303 168.299766 
L 189.627582 168.299766 
L 189.627582 167.795349 
L 189.77524 167.795349 
L 189.855258 165.777677 
L 189.921659 165.777677 
L 189.95256 164.768841 
L 190.058093 164.768841 
L 190.058093 162.75117 
L 190.336432 162.75117 
L 190.336432 162.246752 
L 196.718063 162.246752 
L 196.718063 161.742334 
L 197.268838 161.742334 
L 197.268838 161.237916 
L 197.441934 161.237916 
L 197.441934 160.22908 
L 199.372108 160.22908 
L 199.372108 159.220244 
L 201.484882 159.220244 
L 201.484882 158.715827 
L 204.10146 158.715827 
L 204.10146 157.706991 
L 204.462165 157.706991 
L 204.462165 157.202573 
L 204.709913 157.202573 
L 204.811798 154.680483 
L 204.916832 154.680483 
L 204.916832 154.176066 
L 205.215327 154.176066 
L 205.215327 153.671648 
L 205.604337 153.671648 
L 205.604337 152.662812 
L 206.063829 152.662812 
L 206.158124 151.653976 
L 206.276145 151.653976 
L 206.276145 151.149558 
L 206.485907 151.149558 
L 206.485907 150.64514 
L 206.866268 150.64514 
L 206.866268 150.140722 
L 206.979608 150.140722 
L 207.021092 148.123051 
L 207.159762 148.123051 
L 207.159762 147.618633 
L 207.284282 147.618633 
L 207.284282 147.114215 
L 207.414402 147.114215 
L 207.414402 146.609797 
L 207.58212 146.609797 
L 207.58212 145.600961 
L 207.74665 145.600961 
L 207.840201 144.087708 
L 207.923813 144.087708 
L 207.959973 142.574454 
L 208.103867 142.574454 
L 208.203272 140.556783 
L 208.289789 140.556783 
L 208.391207 138.539111 
L 208.490515 138.539111 
L 208.578654 136.017022 
L 208.61197 136.017022 
L 208.61197 134.503768 
L 208.816521 134.503768 
L 208.922363 130.468425 
L 209.130671 130.468425 
L 209.130671 129.964007 
L 209.687099 129.964007 
L 209.687099 128.955171 
L 211.7721 128.955171 
L 211.7721 128.450753 
L 212.026455 128.450753 
L 212.026455 127.946335 
L 213.157013 127.946335 
L 213.221015 126.937499 
L 213.364454 126.937499 
L 213.384027 125.424246 
L 213.487286 125.424246 
L 213.538687 123.406574 
L 215.637038 123.406574 
L 215.637038 122.397738 
L 216.323158 122.397738 
L 216.323158 121.893321 
L 216.623893 121.893321 
L 216.623893 121.388903 
L 217.453403 121.388903 
L 217.453403 120.884485 
L 218.018236 120.884485 
L 218.110622 119.875649 
L 218.17369 119.875649 
L 218.266128 117.857977 
L 218.37278 117.857977 
L 218.37278 117.35356 
L 218.612307 117.35356 
L 218.713479 114.327052 
L 218.746508 114.327052 
L 218.825862 112.309381 
L 218.886401 112.309381 
L 218.982661 110.291709 
L 219.024347 110.291709 
L 219.119023 107.76962 
L 219.137234 107.76962 
L 219.208243 106.760784 
L 219.260078 106.760784 
L 219.303567 104.743112 
L 219.3788 104.743112 
L 219.3788 104.238694 
L 219.568703 104.238694 
L 219.568703 103.734277 
L 219.686952 103.734277 
L 219.792456 101.212187 
L 220.03775 101.212187 
L 220.03775 100.203351 
L 220.208981 100.203351 
L 220.233084 98.690098 
L 220.538848 98.690098 
L 220.538848 98.18568 
L 220.668158 98.18568 
L 220.668158 97.176844 
L 220.821324 97.176844 
L 220.91572 93.645919 
L 221.029662 93.645919 
L 221.029662 93.141501 
L 221.148762 93.141501 
L 221.249472 91.628247 
L 221.497647 91.628247 
L 221.522921 90.619411 
L 221.911111 90.619411 
L 221.944952 89.106158 
L 222.349442 89.106158 
L 222.349442 88.097322 
L 222.882803 88.097322 
L 222.9667 86.584068 
L 223.242824 86.584068 
L 223.330216 85.070815 
L 223.367907 85.070815 
L 223.452739 83.557561 
L 223.576972 83.557561 
L 223.576972 82.548725 
L 223.947589 82.548725 
L 223.947589 82.044307 
L 224.245182 82.044307 
L 224.327705 78.513382 
L 224.59475 78.513382 
L 224.59475 78.008964 
L 224.855979 78.008964 
L 224.855979 77.504546 
L 225.055111 77.504546 
L 225.055111 77.000128 
L 226.481343 77.000128 
L 226.481343 76.49571 
L 227.001845 76.49571 
L 227.069701 74.982457 
L 227.185863 74.982457 
L 227.201501 72.460367 
L 227.742715 72.460367 
L 227.798693 70.442696 
L 227.891593 70.442696 
L 227.891593 69.938278 
L 228.061048 69.938278 
L 228.10563 67.920606 
L 228.623261 67.920606 
L 228.623261 67.416188 
L 228.748157 67.416188 
L 228.748157 66.911771 
L 229.137164 66.911771 
L 229.137164 66.407353 
L 229.409677 66.407353 
L 229.409677 65.902935 
L 229.521332 65.902935 
L 229.626838 63.380845 
L 229.769524 63.380845 
L 229.769524 62.876427 
L 229.941359 62.876427 
L 230.043919 61.867592 
L 230.399718 61.867592 
L 230.483661 60.354338 
L 230.676832 60.354338 
L 230.696885 58.841084 
L 231.020911 58.841084 
L 231.020911 58.336666 
L 231.429621 58.336666 
L 231.429621 57.832249 
L 231.760905 57.832249 
L 231.822177 56.318995 
L 232.314078 56.318995 
L 232.314078 55.814577 
L 232.668397 55.814577 
L 232.668397 55.310159 
L 232.858909 55.310159 
L 232.858909 54.301323 
L 233.556344 54.301323 
L 233.643711 52.283652 
L 234.031883 52.283652 
L 234.031883 51.779234 
L 234.229046 51.779234 
L 234.229046 51.274816 
L 234.44603 51.274816 
L 234.44603 50.770398 
L 234.987803 50.770398 
L 235.005797 48.752727 
L 235.585888 48.752727 
L 235.585888 48.248309 
L 235.746869 48.248309 
L 235.746869 47.239473 
L 235.992827 47.239473 
L 236.039973 44.717383 
L 236.120142 44.717383 
L 236.155412 43.20413 
L 248.182335 43.20413 
L 248.182335 42.195294 
L 248.930631 42.195294 
L 248.930631 41.690876 
L 338.688 41.690876 
L 338.688 41.690876 
" style="fill:none;stroke:#ff7500;stroke-linecap:square;stroke-width:1.5;"/>
   </g>
   <g id="line2d_41">
    <defs>
     <path d="M 0 -6 
L -1.347084 -1.854102 
L -5.706339 -1.854102 
L -2.179628 0.708204 
L -3.526712 4.854102 
L -0 2.291796 
L 3.526712 4.854102 
L 2.179628 0.708204 
L 5.706339 -1.854102 
L 1.347084 -1.854102 
z
" id="m9c60750221" style="stroke:#ff7500;stroke-linejoin:bevel;stroke-width:1.5;"/>
    </defs>
    <g>
     <use style="fill-opacity:0;stroke:#ff7500;stroke-linejoin:bevel;stroke-width:1.5;" x="120.33454" xlink:href="#m9c60750221" y="282.802628"/>
     <use style="fill-opacity:0;stroke:#ff7500;stroke-linejoin:bevel;stroke-width:1.5;" x="179.815406" xlink:href="#m9c60750221" y="196.547168"/>
     <use style="fill-opacity:0;stroke:#ff7500;stroke-linejoin:bevel;stroke-width:1.5;" x="227.742715" xlink:href="#m9c60750221" y="71.451532"/>
     <use style="fill-opacity:0;stroke:#ff7500;stroke-linejoin:bevel;stroke-width:1.5;" x="248.930631" xlink:href="#m9c60750221" y="41.690876"/>
     <use style="fill-opacity:0;stroke:#ff7500;stroke-linejoin:bevel;stroke-width:1.5;" x="248.930631" xlink:href="#m9c60750221" y="41.690876"/>
     <use style="fill-opacity:0;stroke:#ff7500;stroke-linejoin:bevel;stroke-width:1.5;" x="338.688" xlink:href="#m9c60750221" y="41.690876"/>
    </g>
   </g>
   <g id="line2d_42">
    <path style="fill:none;stroke:#ff7500;stroke-linecap:square;stroke-width:1.5;"/>
    <g/>
   </g>
   <g id="line2d_43">
    <path clip-path="url(#p6f27e2dade)" d="M 258.377143 41.690876 
" style="fill:none;stroke:#ff7500;stroke-linecap:square;stroke-width:1.5;"/>
    <defs>
     <path d="M -12 12 
L 12 -12 
M -12 -12 
L 12 12 
" id="m8ba87c4416" style="stroke:#ff7500;"/>
    </defs>
    <g clip-path="url(#p6f27e2dade)">
     <use style="fill:#ff7500;stroke:#ff7500;" x="258.377143" xlink:href="#m8ba87c4416" y="41.690876"/>
    </g>
   </g>
   <g id="line2d_44">
    <defs>
     <path d="M 0 1.5 
C 0.397805 1.5 0.77937 1.341951 1.06066 1.06066 
C 1.341951 0.77937 1.5 0.397805 1.5 0 
C 1.5 -0.397805 1.341951 -0.77937 1.06066 -1.06066 
C 0.77937 -1.341951 0.397805 -1.5 0 -1.5 
C -0.397805 -1.5 -0.77937 -1.341951 -1.06066 -1.06066 
C -1.341951 -0.77937 -1.5 -0.397805 -1.5 0 
C -1.5 0.397805 -1.341951 0.77937 -1.06066 1.06066 
C -0.77937 1.341951 -0.397805 1.5 0 1.5 
z
" id="m742a676ebd" style="stroke:#6495ed;"/>
    </defs>
    <g>
     <use style="fill:#6495ed;stroke:#6495ed;" x="242.536434" xlink:href="#m742a676ebd" y="44.212966"/>
     <use style="fill:#6495ed;stroke:#6495ed;" x="242.536434" xlink:href="#m742a676ebd" y="44.212966"/>
    </g>
   </g>
   <g id="line2d_45">
    <path d="M 45.512012 298.944 
L 45.512012 295.413075 
L 97.755429 295.413075 
L 97.755429 294.908657 
L 99.41757 294.908657 
L 99.41757 294.404239 
L 103.623262 294.404239 
L 103.623262 293.395403 
L 106.48859 293.395403 
L 106.48859 292.890985 
L 113.022974 292.890985 
L 113.022974 292.386567 
L 128.709321 292.386567 
L 128.709321 291.88215 
L 130.127931 291.88215 
L 130.127931 291.377732 
L 132.060454 291.377732 
L 132.060454 290.873314 
L 132.659801 290.873314 
L 132.659801 290.368896 
L 133.239232 290.368896 
L 133.239232 289.864478 
L 133.800029 289.864478 
L 133.800029 289.36006 
L 134.343353 289.36006 
L 134.343353 287.846806 
L 134.870259 287.846806 
L 134.870259 286.333553 
L 138.170504 286.333553 
L 138.170504 285.324717 
L 138.510793 285.324717 
L 138.510793 284.820299 
L 139.887228 284.820299 
L 139.964909 283.307045 
L 140.79731 283.307045 
L 140.79731 282.802628 
L 157.613546 282.802628 
L 157.613546 282.29821 
L 163.327764 282.29821 
L 163.327764 281.793792 
L 163.808326 281.793792 
L 163.808326 281.289374 
L 164.276 281.289374 
L 164.276 280.784956 
L 165.697012 280.784956 
L 165.697012 280.280538 
L 166.459886 280.280538 
L 166.459886 279.77612 
L 168.01684 279.77612 
L 168.01684 279.271702 
L 169.925477 279.271702 
L 169.994873 277.758449 
L 170.063995 277.758449 
L 170.132843 276.245195 
L 172.397859 276.245195 
L 172.397859 275.740777 
L 172.577957 275.740777 
L 172.577957 275.236359 
L 172.696997 275.236359 
L 172.696997 274.227523 
L 173.337576 274.227523 
L 173.337576 273.723105 
L 173.542212 273.723105 
L 173.598631 272.71427 
L 173.654869 272.71427 
L 173.710926 271.705434 
L 174.423728 271.705434 
L 174.423728 271.201016 
L 174.858804 271.201016 
L 174.858804 270.696598 
L 175.098201 270.696598 
L 175.098201 269.687762 
L 176.053603 269.687762 
L 176.053603 269.183344 
L 177.235899 269.183344 
L 177.235899 268.678927 
L 177.517111 268.678927 
L 177.517111 268.174509 
L 177.660498 268.174509 
L 177.749519 267.165673 
L 177.802715 267.165673 
L 177.802715 266.661255 
L 178.334521 266.661255 
L 178.385964 264.643583 
L 179.303155 264.643583 
L 179.400355 263.634748 
L 179.448753 263.634748 
L 179.497017 262.121494 
L 179.593145 262.121494 
L 179.688747 261.112658 
L 182.459683 261.112658 
L 182.459683 260.60824 
L 186.468683 260.60824 
L 186.495591 255.564061 
L 186.682796 255.564061 
L 186.788874 249.511047 
L 188.097498 249.511047 
L 188.097498 249.006629 
L 188.28292 249.006629 
L 188.307171 247.997793 
L 193.664921 247.997793 
L 193.664921 247.493375 
L 194.129246 247.493375 
L 194.129246 246.988957 
L 197.268838 246.988957 
L 197.329617 244.971286 
L 198.285279 244.971286 
L 198.391625 242.953614 
L 198.456748 242.953614 
L 198.521628 240.935943 
L 198.57013 240.935943 
L 198.57013 240.431525 
L 203.161505 240.431525 
L 203.260487 238.413853 
L 203.285145 238.413853 
L 203.285145 237.909435 
L 206.352088 237.909435 
L 206.352088 237.405017 
L 207.231961 237.405017 
L 207.271217 234.882928 
L 207.99449 234.882928 
L 208.010158 233.874092 
L 208.150534 233.874092 
L 208.150534 232.865256 
L 208.498131 232.865256 
L 208.498131 232.360839 
L 209.446474 232.360839 
L 209.481053 225.803406 
L 211.980371 225.803406 
L 211.980371 224.79457 
L 213.691988 224.79457 
L 213.70555 221.263645 
L 220.640096 221.263645 
L 220.730946 212.688541 
L 220.88506 212.688541 
L 220.966453 208.14878 
L 221.015553 208.14878 
L 221.082285 196.547168 
L 221.703819 196.547168 
L 221.732361 194.025079 
L 222.316377 194.025079 
L 222.424978 187.467646 
L 222.468776 187.467646 
L 222.536992 185.449975 
L 222.594766 185.449975 
L 222.669925 184.441139 
L 222.870784 184.441139 
L 222.870784 183.432303 
L 223.192407 183.432303 
L 223.192407 182.423467 
L 223.421056 182.423467 
L 223.421056 181.91905 
L 223.922454 181.91905 
L 224.025278 175.866035 
L 224.048393 175.866035 
L 224.048393 174.857199 
L 224.175288 174.857199 
L 224.222945 173.343945 
L 224.298189 173.343945 
L 224.404334 167.795349 
L 224.420842 167.795349 
L 224.528674 161.742334 
L 224.535354 161.742334 
L 224.646103 153.671648 
L 224.652135 153.671648 
L 224.758551 151.149558 
L 225.020309 151.149558 
L 225.020309 150.140722 
L 225.443224 150.140722 
L 225.54035 142.574454 
L 225.73016 142.574454 
L 225.73016 142.070036 
L 225.85725 142.070036 
L 225.85725 141.0612 
L 226.644027 141.0612 
L 226.673053 136.017022 
L 229.748826 136.017022 
L 229.829232 133.494932 
L 231.12399 133.494932 
L 231.22274 127.946335 
L 231.243415 127.946335 
L 231.352174 123.910992 
L 231.420624 123.910992 
L 231.516086 121.893321 
L 231.577816 121.893321 
L 231.577816 121.388903 
L 231.746457 121.388903 
L 231.780552 119.875649 
L 232.069862 119.875649 
L 232.069862 118.866813 
L 232.60774 118.866813 
L 232.616909 107.76962 
L 232.901047 107.76962 
L 232.913819 103.229859 
L 233.64119 103.229859 
L 233.64119 102.221023 
L 234.886153 102.221023 
L 234.886153 101.716605 
L 235.145785 101.716605 
L 235.249222 95.159172 
L 235.273838 95.159172 
L 235.300056 94.150337 
L 235.394769 94.150337 
L 235.432836 92.132665 
L 235.552351 92.132665 
L 235.661753 84.061979 
L 235.663678 84.061979 
L 235.734096 77.000128 
L 235.780034 77.000128 
L 235.849667 74.982457 
L 235.903213 74.982457 
L 235.903213 74.478039 
L 237.759659 74.478039 
L 237.84081 70.947114 
L 237.899593 70.947114 
L 237.899593 70.442696 
L 241.593805 70.442696 
L 241.615478 68.425024 
L 241.756941 68.425024 
L 241.80324 62.37201 
L 242.002833 62.37201 
L 242.110424 47.239473 
L 242.163972 47.239473 
L 242.269039 45.221801 
L 242.333921 45.221801 
L 242.333921 44.717383 
L 242.536434 44.717383 
L 242.536434 44.212966 
L 338.688 44.212966 
L 338.688 44.212966 
" style="fill:none;stroke:#6495ed;stroke-linecap:square;stroke-width:1.5;"/>
   </g>
   <g id="line2d_46">
    <defs>
     <path d="M -0 6 
L 6 -6 
L -6 -6 
z
" id="m7fbbaf3f90" style="stroke:#6495ed;stroke-linejoin:miter;stroke-width:1.5;"/>
    </defs>
    <g>
     <use style="fill-opacity:0;stroke:#6495ed;stroke-linejoin:miter;stroke-width:1.5;" x="140.79731" xlink:href="#m7fbbaf3f90" y="282.802628"/>
     <use style="fill-opacity:0;stroke:#6495ed;stroke-linejoin:miter;stroke-width:1.5;" x="224.362689" xlink:href="#m7fbbaf3f90" y="170.821856"/>
     <use style="fill-opacity:0;stroke:#6495ed;stroke-linejoin:miter;stroke-width:1.5;" x="237.899593" xlink:href="#m7fbbaf3f90" y="70.442696"/>
     <use style="fill-opacity:0;stroke:#6495ed;stroke-linejoin:miter;stroke-width:1.5;" x="242.536434" xlink:href="#m7fbbaf3f90" y="44.212966"/>
     <use style="fill-opacity:0;stroke:#6495ed;stroke-linejoin:miter;stroke-width:1.5;" x="242.536434" xlink:href="#m7fbbaf3f90" y="44.212966"/>
     <use style="fill-opacity:0;stroke:#6495ed;stroke-linejoin:miter;stroke-width:1.5;" x="338.688" xlink:href="#m7fbbaf3f90" y="44.212966"/>
    </g>
   </g>
   <g id="line2d_47">
    <path style="fill:none;stroke:#6495ed;stroke-linecap:square;stroke-width:1.5;"/>
    <g/>
   </g>
   <g id="line2d_48">
    <path clip-path="url(#p6f27e2dade)" d="M 258.374265 44.212966 
" style="fill:none;stroke:#6495ed;stroke-linecap:square;stroke-width:1.5;"/>
    <defs>
     <path d="M -12 12 
L 12 -12 
M -12 -12 
L 12 12 
" id="m280e39c274" style="stroke:#6495ed;"/>
    </defs>
    <g clip-path="url(#p6f27e2dade)">
     <use style="fill:#6495ed;stroke:#6495ed;" x="258.374265" xlink:href="#m280e39c274" y="44.212966"/>
    </g>
   </g>
   <g id="line2d_49">
    <path d="M 338.688 52.283652 
L 369.60768 293.092752 
" style="fill:none;stroke:#ff00ff;stroke-linecap:square;stroke-width:1.5;"/>
    <g>
     <use style="fill-opacity:0;stroke:#ff00ff;stroke-linejoin:miter;stroke-width:1.5;" x="338.688" xlink:href="#mfab0ccff37" y="52.283652"/>
     <use style="fill-opacity:0;stroke:#ff00ff;stroke-linejoin:miter;stroke-width:1.5;" x="369.60768" xlink:href="#mfab0ccff37" y="293.092752"/>
    </g>
   </g>
   <g id="line2d_50">
    <path d="M 338.688 44.212966 
L 369.60768 199.472792 
" style="fill:none;stroke:#6495ed;stroke-linecap:square;stroke-width:1.5;"/>
    <g>
     <use style="fill-opacity:0;stroke:#6495ed;stroke-linejoin:miter;stroke-width:1.5;" x="338.688" xlink:href="#m7fbbaf3f90" y="44.212966"/>
     <use style="fill-opacity:0;stroke:#6495ed;stroke-linejoin:miter;stroke-width:1.5;" x="369.60768" xlink:href="#m7fbbaf3f90" y="199.472792"/>
    </g>
   </g>
   <g id="line2d_51">
    <path d="M 338.688 42.195294 
L 369.60768 105.852832 
" style="fill:none;stroke:#000080;stroke-linecap:square;stroke-width:1.5;"/>
    <g>
     <use style="fill-opacity:0;stroke:#000080;stroke-width:1.5;" x="338.688" xlink:href="#m52bf1f4b45" y="42.195294"/>
     <use style="fill-opacity:0;stroke:#000080;stroke-width:1.5;" x="369.60768" xlink:href="#m52bf1f4b45" y="105.852832"/>
    </g>
   </g>
   <g id="line2d_52">
    <path d="M 338.688 41.690876 
L 369.60768 12.232871 
" style="fill:none;stroke:#ff7500;stroke-linecap:square;stroke-width:1.5;"/>
    <g>
     <use style="fill-opacity:0;stroke:#ff7500;stroke-linejoin:bevel;stroke-width:1.5;" x="338.688" xlink:href="#m9c60750221" y="41.690876"/>
     <use style="fill-opacity:0;stroke:#ff7500;stroke-linejoin:bevel;stroke-width:1.5;" x="369.60768" xlink:href="#m9c60750221" y="12.232871"/>
    </g>
   </g>
   <g id="line2d_53">
    <path d="M 338.688 298.944 
L 338.688 6.381624 
" style="fill:none;stroke:#000000;stroke-linecap:square;stroke-width:1.5;"/>
   </g>
   <g id="patch_3">
    <path d="M 57.6 298.944 
L 57.6 3.456 
" style="fill:none;stroke:#000000;stroke-linecap:square;stroke-linejoin:miter;stroke-width:0.8;"/>
   </g>
   <g id="patch_4">
    <path d="M 338.688 298.944 
L 338.688 3.456 
" style="fill:none;stroke:#000000;stroke-linecap:square;stroke-linejoin:miter;stroke-width:0.8;"/>
   </g>
   <g id="patch_5">
    <path d="M 57.6 298.944 
L 338.688 298.944 
" style="fill:none;stroke:#000000;stroke-linecap:square;stroke-linejoin:miter;stroke-width:0.8;"/>
   </g>
   <g id="patch_6">
    <path d="M 57.6 3.456 
L 338.688 3.456 
" style="fill:none;stroke:#000000;stroke-linecap:square;stroke-linejoin:miter;stroke-width:0.8;"/>
   </g>
   <g id="text_13">
    <!-- f10 -->
    <g transform="translate(375.22944 297.78369)scale(0.17 -0.17)">
     <use xlink:href="#DejaVuSans-102"/>
     <use x="35.205078" xlink:href="#DejaVuSans-49"/>
     <use x="98.828125" xlink:href="#DejaVuSans-48"/>
    </g>
   </g>
   <g id="text_14">
    <!-- f19 -->
    <g transform="translate(375.22944 204.16373)scale(0.17 -0.17)">
     <defs>
      <path d="M 10.984375 1.515625 
L 10.984375 10.5 
Q 14.703125 8.734375 18.5 7.8125 
Q 22.3125 6.890625 25.984375 6.890625 
Q 35.75 6.890625 40.890625 13.453125 
Q 46.046875 20.015625 46.78125 33.40625 
Q 43.953125 29.203125 39.59375 26.953125 
Q 35.25 24.703125 29.984375 24.703125 
Q 19.046875 24.703125 12.671875 31.3125 
Q 6.296875 37.9375 6.296875 49.421875 
Q 6.296875 60.640625 12.9375 67.421875 
Q 19.578125 74.21875 30.609375 74.21875 
Q 43.265625 74.21875 49.921875 64.515625 
Q 56.59375 54.828125 56.59375 36.375 
Q 56.59375 19.140625 48.40625 8.859375 
Q 40.234375 -1.421875 26.421875 -1.421875 
Q 22.703125 -1.421875 18.890625 -0.6875 
Q 15.09375 0.046875 10.984375 1.515625 
z
M 30.609375 32.421875 
Q 37.25 32.421875 41.125 36.953125 
Q 45.015625 41.5 45.015625 49.421875 
Q 45.015625 57.28125 41.125 61.84375 
Q 37.25 66.40625 30.609375 66.40625 
Q 23.96875 66.40625 20.09375 61.84375 
Q 16.21875 57.28125 16.21875 49.421875 
Q 16.21875 41.5 20.09375 36.953125 
Q 23.96875 32.421875 30.609375 32.421875 
z
" id="DejaVuSans-57"/>
     </defs>
     <use xlink:href="#DejaVuSans-102"/>
     <use x="35.205078" xlink:href="#DejaVuSans-49"/>
     <use x="98.828125" xlink:href="#DejaVuSans-57"/>
    </g>
   </g>
   <g id="text_15">
    <!-- f9 -->
    <g transform="translate(375.22944 110.543769)scale(0.17 -0.17)">
     <use xlink:href="#DejaVuSans-102"/>
     <use x="35.205078" xlink:href="#DejaVuSans-57"/>
    </g>
   </g>
   <g id="text_16">
    <!-- f18 -->
    <g transform="translate(375.22944 16.923809)scale(0.17 -0.17)">
     <use xlink:href="#DejaVuSans-102"/>
     <use x="35.205078" xlink:href="#DejaVuSans-49"/>
     <use x="98.828125" xlink:href="#DejaVuSans-56"/>
    </g>
   </g>
   <g id="text_17">
    <!-- bbob-biobj -->
    <g transform="translate(60.41088 14.161286)scale(0.102 -0.102)">
     <defs>
      <path d="M 48.6875 27.296875 
Q 48.6875 37.203125 44.609375 42.84375 
Q 40.53125 48.484375 33.40625 48.484375 
Q 26.265625 48.484375 22.1875 42.84375 
Q 18.109375 37.203125 18.109375 27.296875 
Q 18.109375 17.390625 22.1875 11.75 
Q 26.265625 6.109375 33.40625 6.109375 
Q 40.53125 6.109375 44.609375 11.75 
Q 48.6875 17.390625 48.6875 27.296875 
z
M 18.109375 46.390625 
Q 20.953125 51.265625 25.265625 53.625 
Q 29.59375 56 35.59375 56 
Q 45.5625 56 51.78125 48.09375 
Q 58.015625 40.1875 58.015625 27.296875 
Q 58.015625 14.40625 51.78125 6.484375 
Q 45.5625 -1.421875 35.59375 -1.421875 
Q 29.59375 -1.421875 25.265625 0.953125 
Q 20.953125 3.328125 18.109375 8.203125 
L 18.109375 0 
L 9.078125 0 
L 9.078125 75.984375 
L 18.109375 75.984375 
z
" id="DejaVuSans-98"/>
      <path d="M 9.421875 54.6875 
L 18.40625 54.6875 
L 18.40625 -0.984375 
Q 18.40625 -11.421875 14.421875 -16.109375 
Q 10.453125 -20.796875 1.609375 -20.796875 
L -1.8125 -20.796875 
L -1.8125 -13.1875 
L 0.59375 -13.1875 
Q 5.71875 -13.1875 7.5625 -10.8125 
Q 9.421875 -8.453125 9.421875 -0.984375 
z
M 9.421875 75.984375 
L 18.40625 75.984375 
L 18.40625 64.59375 
L 9.421875 64.59375 
z
" id="DejaVuSans-106"/>
     </defs>
     <use xlink:href="#DejaVuSans-98"/>
     <use x="63.476562" xlink:href="#DejaVuSans-98"/>
     <use x="126.953125" xlink:href="#DejaVuSans-111"/>
     <use x="188.134766" xlink:href="#DejaVuSans-98"/>
     <use x="251.611328" xlink:href="#DejaVuSans-45"/>
     <use x="287.695312" xlink:href="#DejaVuSans-98"/>
     <use x="351.171875" xlink:href="#DejaVuSans-105"/>
     <use x="378.955078" xlink:href="#DejaVuSans-111"/>
     <use x="440.136719" xlink:href="#DejaVuSans-98"/>
     <use x="503.613281" xlink:href="#DejaVuSans-106"/>
    </g>
    <!-- 1-separable 5-weakly-structured, 2-D -->
    <g transform="translate(60.41088 25.583055)scale(0.102 -0.102)">
     <defs>
      <path d="M 10.796875 72.90625 
L 49.515625 72.90625 
L 49.515625 64.59375 
L 19.828125 64.59375 
L 19.828125 46.734375 
Q 21.96875 47.46875 24.109375 47.828125 
Q 26.265625 48.1875 28.421875 48.1875 
Q 40.625 48.1875 47.75 41.5 
Q 54.890625 34.8125 54.890625 23.390625 
Q 54.890625 11.625 47.5625 5.09375 
Q 40.234375 -1.421875 26.90625 -1.421875 
Q 22.3125 -1.421875 17.546875 -0.640625 
Q 12.796875 0.140625 7.71875 1.703125 
L 7.71875 11.625 
Q 12.109375 9.234375 16.796875 8.0625 
Q 21.484375 6.890625 26.703125 6.890625 
Q 35.15625 6.890625 40.078125 11.328125 
Q 45.015625 15.765625 45.015625 23.390625 
Q 45.015625 31 40.078125 35.4375 
Q 35.15625 39.890625 26.703125 39.890625 
Q 22.75 39.890625 18.8125 39.015625 
Q 14.890625 38.140625 10.796875 36.28125 
z
" id="DejaVuSans-53"/>
      <path d="M 4.203125 54.6875 
L 13.1875 54.6875 
L 24.421875 12.015625 
L 35.59375 54.6875 
L 46.1875 54.6875 
L 57.421875 12.015625 
L 68.609375 54.6875 
L 77.59375 54.6875 
L 63.28125 0 
L 52.6875 0 
L 40.921875 44.828125 
L 29.109375 0 
L 18.5 0 
z
" id="DejaVuSans-119"/>
      <path d="M 9.078125 75.984375 
L 18.109375 75.984375 
L 18.109375 31.109375 
L 44.921875 54.6875 
L 56.390625 54.6875 
L 27.390625 29.109375 
L 57.625 0 
L 45.90625 0 
L 18.109375 26.703125 
L 18.109375 0 
L 9.078125 0 
z
" id="DejaVuSans-107"/>
      <path d="M 32.171875 -5.078125 
Q 28.375 -14.84375 24.75 -17.8125 
Q 21.140625 -20.796875 15.09375 -20.796875 
L 7.90625 -20.796875 
L 7.90625 -13.28125 
L 13.1875 -13.28125 
Q 16.890625 -13.28125 18.9375 -11.515625 
Q 21 -9.765625 23.484375 -3.21875 
L 25.09375 0.875 
L 2.984375 54.6875 
L 12.5 54.6875 
L 29.59375 11.921875 
L 46.6875 54.6875 
L 56.203125 54.6875 
z
" id="DejaVuSans-121"/>
      <path d="M 19.671875 64.796875 
L 19.671875 8.109375 
L 31.59375 8.109375 
Q 46.6875 8.109375 53.6875 14.9375 
Q 60.6875 21.78125 60.6875 36.53125 
Q 60.6875 51.171875 53.6875 57.984375 
Q 46.6875 64.796875 31.59375 64.796875 
z
M 9.8125 72.90625 
L 30.078125 72.90625 
Q 51.265625 72.90625 61.171875 64.09375 
Q 71.09375 55.28125 71.09375 36.53125 
Q 71.09375 17.671875 61.125 8.828125 
Q 51.171875 0 30.078125 0 
L 9.8125 0 
z
" id="DejaVuSans-68"/>
     </defs>
     <use xlink:href="#DejaVuSans-49"/>
     <use x="63.623047" xlink:href="#DejaVuSans-45"/>
     <use x="99.707031" xlink:href="#DejaVuSans-115"/>
     <use x="151.806641" xlink:href="#DejaVuSans-101"/>
     <use x="213.330078" xlink:href="#DejaVuSans-112"/>
     <use x="276.806641" xlink:href="#DejaVuSans-97"/>
     <use x="338.085938" xlink:href="#DejaVuSans-114"/>
     <use x="379.199219" xlink:href="#DejaVuSans-97"/>
     <use x="440.478516" xlink:href="#DejaVuSans-98"/>
     <use x="503.955078" xlink:href="#DejaVuSans-108"/>
     <use x="531.738281" xlink:href="#DejaVuSans-101"/>
     <use x="593.261719" xlink:href="#DejaVuSans-32"/>
     <use x="625.048828" xlink:href="#DejaVuSans-53"/>
     <use x="688.671875" xlink:href="#DejaVuSans-45"/>
     <use x="724.755859" xlink:href="#DejaVuSans-119"/>
     <use x="806.542969" xlink:href="#DejaVuSans-101"/>
     <use x="868.066406" xlink:href="#DejaVuSans-97"/>
     <use x="929.345703" xlink:href="#DejaVuSans-107"/>
     <use x="987.255859" xlink:href="#DejaVuSans-108"/>
     <use x="1015.039062" xlink:href="#DejaVuSans-121"/>
     <use x="1072.46875" xlink:href="#DejaVuSans-45"/>
     <use x="1108.552734" xlink:href="#DejaVuSans-115"/>
     <use x="1160.652344" xlink:href="#DejaVuSans-116"/>
     <use x="1199.861328" xlink:href="#DejaVuSans-114"/>
     <use x="1240.974609" xlink:href="#DejaVuSans-117"/>
     <use x="1304.353516" xlink:href="#DejaVuSans-99"/>
     <use x="1359.333984" xlink:href="#DejaVuSans-116"/>
     <use x="1398.542969" xlink:href="#DejaVuSans-117"/>
     <use x="1461.921875" xlink:href="#DejaVuSans-114"/>
     <use x="1500.785156" xlink:href="#DejaVuSans-101"/>
     <use x="1562.308594" xlink:href="#DejaVuSans-100"/>
     <use x="1625.785156" xlink:href="#DejaVuSans-44"/>
     <use x="1657.572266" xlink:href="#DejaVuSans-32"/>
     <use x="1689.359375" xlink:href="#DejaVuSans-50"/>
     <use x="1752.982422" xlink:href="#DejaVuSans-45"/>
     <use x="1789.066406" xlink:href="#DejaVuSans-68"/>
    </g>
    <!-- 58 targets: 1..-1.0e-4 -->
    <g transform="translate(60.41088 37.004824)scale(0.102 -0.102)">
     <defs>
      <path d="M 11.71875 12.40625 
L 22.015625 12.40625 
L 22.015625 0 
L 11.71875 0 
z
M 11.71875 51.703125 
L 22.015625 51.703125 
L 22.015625 39.3125 
L 11.71875 39.3125 
z
" id="DejaVuSans-58"/>
     </defs>
     <use xlink:href="#DejaVuSans-53"/>
     <use x="63.623047" xlink:href="#DejaVuSans-56"/>
     <use x="127.246094" xlink:href="#DejaVuSans-32"/>
     <use x="159.033203" xlink:href="#DejaVuSans-116"/>
     <use x="198.242188" xlink:href="#DejaVuSans-97"/>
     <use x="259.521484" xlink:href="#DejaVuSans-114"/>
     <use x="298.884766" xlink:href="#DejaVuSans-103"/>
     <use x="362.361328" xlink:href="#DejaVuSans-101"/>
     <use x="423.884766" xlink:href="#DejaVuSans-116"/>
     <use x="463.09375" xlink:href="#DejaVuSans-115"/>
     <use x="515.193359" xlink:href="#DejaVuSans-58"/>
     <use x="548.884766" xlink:href="#DejaVuSans-32"/>
     <use x="580.671875" xlink:href="#DejaVuSans-49"/>
     <use x="644.294922" xlink:href="#DejaVuSans-46"/>
     <use x="676.082031" xlink:href="#DejaVuSans-46"/>
     <use x="707.869141" xlink:href="#DejaVuSans-45"/>
     <use x="743.953125" xlink:href="#DejaVuSans-49"/>
     <use x="807.576172" xlink:href="#DejaVuSans-46"/>
     <use x="839.363281" xlink:href="#DejaVuSans-48"/>
     <use x="902.986328" xlink:href="#DejaVuSans-101"/>
     <use x="964.509766" xlink:href="#DejaVuSans-45"/>
     <use x="1000.59375" xlink:href="#DejaVuSans-52"/>
    </g>
    <!-- 10 instances -->
    <g transform="translate(60.41088 48.426593)scale(0.102 -0.102)">
     <use xlink:href="#DejaVuSans-49"/>
     <use x="63.623047" xlink:href="#DejaVuSans-48"/>
     <use x="127.246094" xlink:href="#DejaVuSans-32"/>
     <use x="159.033203" xlink:href="#DejaVuSans-105"/>
     <use x="186.816406" xlink:href="#DejaVuSans-110"/>
     <use x="250.195312" xlink:href="#DejaVuSans-115"/>
     <use x="302.294922" xlink:href="#DejaVuSans-116"/>
     <use x="341.503906" xlink:href="#DejaVuSans-97"/>
     <use x="402.783203" xlink:href="#DejaVuSans-110"/>
     <use x="466.162109" xlink:href="#DejaVuSans-99"/>
     <use x="521.142578" xlink:href="#DejaVuSans-101"/>
     <use x="582.666016" xlink:href="#DejaVuSans-115"/>
    </g>
   </g>
   <g id="text_18">
    <!-- v2.4, hv-hash=ff0e71e8cd978373 -->
    <g style="fill:#808080;" transform="translate(112.648687 293.909432)scale(0.1 -0.1)">
     <defs>
      <path d="M 54.890625 33.015625 
L 54.890625 0 
L 45.90625 0 
L 45.90625 32.71875 
Q 45.90625 40.484375 42.875 44.328125 
Q 39.84375 48.1875 33.796875 48.1875 
Q 26.515625 48.1875 22.3125 43.546875 
Q 18.109375 38.921875 18.109375 30.90625 
L 18.109375 0 
L 9.078125 0 
L 9.078125 75.984375 
L 18.109375 75.984375 
L 18.109375 46.1875 
Q 21.34375 51.125 25.703125 53.5625 
Q 30.078125 56 35.796875 56 
Q 45.21875 56 50.046875 50.171875 
Q 54.890625 44.34375 54.890625 33.015625 
z
" id="DejaVuSans-104"/>
      <path d="M 10.59375 45.40625 
L 73.1875 45.40625 
L 73.1875 37.203125 
L 10.59375 37.203125 
z
M 10.59375 25.484375 
L 73.1875 25.484375 
L 73.1875 17.1875 
L 10.59375 17.1875 
z
" id="DejaVuSans-61"/>
      <path d="M 8.203125 72.90625 
L 55.078125 72.90625 
L 55.078125 68.703125 
L 28.609375 0 
L 18.3125 0 
L 43.21875 64.59375 
L 8.203125 64.59375 
z
" id="DejaVuSans-55"/>
      <path d="M 40.578125 39.3125 
Q 47.65625 37.796875 51.625 33 
Q 55.609375 28.21875 55.609375 21.1875 
Q 55.609375 10.40625 48.1875 4.484375 
Q 40.765625 -1.421875 27.09375 -1.421875 
Q 22.515625 -1.421875 17.65625 -0.515625 
Q 12.796875 0.390625 7.625 2.203125 
L 7.625 11.71875 
Q 11.71875 9.328125 16.59375 8.109375 
Q 21.484375 6.890625 26.8125 6.890625 
Q 36.078125 6.890625 40.9375 10.546875 
Q 45.796875 14.203125 45.796875 21.1875 
Q 45.796875 27.640625 41.28125 31.265625 
Q 36.765625 34.90625 28.71875 34.90625 
L 20.21875 34.90625 
L 20.21875 43.015625 
L 29.109375 43.015625 
Q 36.375 43.015625 40.234375 45.921875 
Q 44.09375 48.828125 44.09375 54.296875 
Q 44.09375 59.90625 40.109375 62.90625 
Q 36.140625 65.921875 28.71875 65.921875 
Q 24.65625 65.921875 20.015625 65.03125 
Q 15.375 64.15625 9.8125 62.3125 
L 9.8125 71.09375 
Q 15.4375 72.65625 20.34375 73.4375 
Q 25.25 74.21875 29.59375 74.21875 
Q 40.828125 74.21875 47.359375 69.109375 
Q 53.90625 64.015625 53.90625 55.328125 
Q 53.90625 49.265625 50.4375 45.09375 
Q 46.96875 40.921875 40.578125 39.3125 
z
" id="DejaVuSans-51"/>
     </defs>
     <use xlink:href="#DejaVuSans-118"/>
     <use x="59.179688" xlink:href="#DejaVuSans-50"/>
     <use x="122.802734" xlink:href="#DejaVuSans-46"/>
     <use x="154.589844" xlink:href="#DejaVuSans-52"/>
     <use x="218.212891" xlink:href="#DejaVuSans-44"/>
     <use x="250" xlink:href="#DejaVuSans-32"/>
     <use x="281.787109" xlink:href="#DejaVuSans-104"/>
     <use x="345.166016" xlink:href="#DejaVuSans-118"/>
     <use x="401.720703" xlink:href="#DejaVuSans-45"/>
     <use x="437.804688" xlink:href="#DejaVuSans-104"/>
     <use x="501.183594" xlink:href="#DejaVuSans-97"/>
     <use x="562.462891" xlink:href="#DejaVuSans-115"/>
     <use x="614.5625" xlink:href="#DejaVuSans-104"/>
     <use x="677.941406" xlink:href="#DejaVuSans-61"/>
     <use x="761.730469" xlink:href="#DejaVuSans-102"/>
     <use x="796.935547" xlink:href="#DejaVuSans-102"/>
     <use x="832.140625" xlink:href="#DejaVuSans-48"/>
     <use x="895.763672" xlink:href="#DejaVuSans-101"/>
     <use x="957.287109" xlink:href="#DejaVuSans-55"/>
     <use x="1020.910156" xlink:href="#DejaVuSans-49"/>
     <use x="1084.533203" xlink:href="#DejaVuSans-101"/>
     <use x="1146.056641" xlink:href="#DejaVuSans-56"/>
     <use x="1209.679688" xlink:href="#DejaVuSans-99"/>
     <use x="1264.660156" xlink:href="#DejaVuSans-100"/>
     <use x="1328.136719" xlink:href="#DejaVuSans-57"/>
     <use x="1391.759766" xlink:href="#DejaVuSans-55"/>
     <use x="1455.382812" xlink:href="#DejaVuSans-56"/>
     <use x="1519.005859" xlink:href="#DejaVuSans-51"/>
     <use x="1582.628906" xlink:href="#DejaVuSans-55"/>
     <use x="1646.251953" xlink:href="#DejaVuSans-51"/>
    </g>
   </g>
  </g>
 </g>
 <defs>
  <clipPath id="p6f27e2dade">
   <rect height="295.488" width="281.088" x="57.6" y="3.456"/>
  </clipPath>
 </defs>
</svg>
