<?xml version="1.0" encoding="utf-8" standalone="no"?>
<!DOCTYPE svg PUBLIC "-//W3C//DTD SVG 1.1//EN"
  "http://www.w3.org/Graphics/SVG/1.1/DTD/svg11.dtd">
<!-- Created with matplotlib (https://matplotlib.org/) -->
<svg height="345.6pt" version="1.1" viewBox="0 0 460.8 345.6" width="460.8pt" xmlns="http://www.w3.org/2000/svg" xmlns:xlink="http://www.w3.org/1999/xlink">
 <metadata>
  <rdf:RDF xmlns:cc="http://creativecommons.org/ns#" xmlns:dc="http://purl.org/dc/elements/1.1/" xmlns:rdf="http://www.w3.org/1999/02/22-rdf-syntax-ns#">
   <cc:Work>
    <dc:type rdf:resource="http://purl.org/dc/dcmitype/StillImage"/>
    <dc:date>2021-03-30T16:55:03.681329</dc:date>
    <dc:format>image/svg+xml</dc:format>
    <dc:creator>
     <cc:Agent>
      <dc:title>Matplotlib v3.3.4, https://matplotlib.org/</dc:title>
     </cc:Agent>
    </dc:creator>
   </cc:Work>
  </rdf:RDF>
 </metadata>
 <defs>
  <style type="text/css">*{stroke-linecap:butt;stroke-linejoin:round;}</style>
 </defs>
 <g id="figure_1">
  <g id="patch_1">
   <path d="M 0 345.6 
L 460.8 345.6 
L 460.8 0 
L 0 0 
z
" style="fill:#ffffff;"/>
  </g>
  <g id="axes_1">
   <g id="patch_2">
    <path d="M 57.6 298.944 
L 338.688 298.944 
L 338.688 3.456 
L 57.6 3.456 
z
" style="fill:#ffffff;"/>
   </g>
   <g id="matplotlib.axis_1">
    <g id="xtick_1">
     <g id="line2d_1">
      <path clip-path="url(#p4548d448f4)" d="M 57.6 298.944 
L 57.6 3.456 
" style="fill:none;stroke:#b0b0b0;stroke-linecap:square;stroke-width:0.8;"/>
     </g>
     <g id="line2d_2">
      <defs>
       <path d="M 0 0 
L 0 3.5 
" id="m3aaf9486fe" style="stroke:#000000;stroke-width:0.8;"/>
      </defs>
      <g>
       <use style="stroke:#000000;stroke-width:0.8;" x="57.6" xlink:href="#m3aaf9486fe" y="298.944"/>
      </g>
     </g>
     <g id="text_1">
      <!-- 0 -->
      <g transform="translate(51.2375 321.140875)scale(0.2 -0.2)">
       <defs>
        <path d="M 31.78125 66.40625 
Q 24.171875 66.40625 20.328125 58.90625 
Q 16.5 51.421875 16.5 36.375 
Q 16.5 21.390625 20.328125 13.890625 
Q 24.171875 6.390625 31.78125 6.390625 
Q 39.453125 6.390625 43.28125 13.890625 
Q 47.125 21.390625 47.125 36.375 
Q 47.125 51.421875 43.28125 58.90625 
Q 39.453125 66.40625 31.78125 66.40625 
z
M 31.78125 74.21875 
Q 44.046875 74.21875 50.515625 64.515625 
Q 56.984375 54.828125 56.984375 36.375 
Q 56.984375 17.96875 50.515625 8.265625 
Q 44.046875 -1.421875 31.78125 -1.421875 
Q 19.53125 -1.421875 13.0625 8.265625 
Q 6.59375 17.96875 6.59375 36.375 
Q 6.59375 54.828125 13.0625 64.515625 
Q 19.53125 74.21875 31.78125 74.21875 
z
" id="DejaVuSans-48"/>
       </defs>
       <use xlink:href="#DejaVuSans-48"/>
      </g>
     </g>
    </g>
    <g id="xtick_2">
     <g id="line2d_3">
      <path clip-path="url(#p4548d448f4)" d="M 137.910857 298.944 
L 137.910857 3.456 
" style="fill:none;stroke:#b0b0b0;stroke-linecap:square;stroke-width:0.8;"/>
     </g>
     <g id="line2d_4">
      <g>
       <use style="stroke:#000000;stroke-width:0.8;" x="137.910857" xlink:href="#m3aaf9486fe" y="298.944"/>
      </g>
     </g>
     <g id="text_2">
      <!-- 2 -->
      <g transform="translate(131.548357 321.140875)scale(0.2 -0.2)">
       <defs>
        <path d="M 19.1875 8.296875 
L 53.609375 8.296875 
L 53.609375 0 
L 7.328125 0 
L 7.328125 8.296875 
Q 12.9375 14.109375 22.625 23.890625 
Q 32.328125 33.6875 34.8125 36.53125 
Q 39.546875 41.84375 41.421875 45.53125 
Q 43.3125 49.21875 43.3125 52.78125 
Q 43.3125 58.59375 39.234375 62.25 
Q 35.15625 65.921875 28.609375 65.921875 
Q 23.96875 65.921875 18.8125 64.3125 
Q 13.671875 62.703125 7.8125 59.421875 
L 7.8125 69.390625 
Q 13.765625 71.78125 18.9375 73 
Q 24.125 74.21875 28.421875 74.21875 
Q 39.75 74.21875 46.484375 68.546875 
Q 53.21875 62.890625 53.21875 53.421875 
Q 53.21875 48.921875 51.53125 44.890625 
Q 49.859375 40.875 45.40625 35.40625 
Q 44.1875 33.984375 37.640625 27.21875 
Q 31.109375 20.453125 19.1875 8.296875 
z
" id="DejaVuSans-50"/>
       </defs>
       <use xlink:href="#DejaVuSans-50"/>
      </g>
     </g>
    </g>
    <g id="xtick_3">
     <g id="line2d_5">
      <path clip-path="url(#p4548d448f4)" d="M 218.221714 298.944 
L 218.221714 3.456 
" style="fill:none;stroke:#b0b0b0;stroke-linecap:square;stroke-width:0.8;"/>
     </g>
     <g id="line2d_6">
      <g>
       <use style="stroke:#000000;stroke-width:0.8;" x="218.221714" xlink:href="#m3aaf9486fe" y="298.944"/>
      </g>
     </g>
     <g id="text_3">
      <!-- 4 -->
      <g transform="translate(211.859214 321.140875)scale(0.2 -0.2)">
       <defs>
        <path d="M 37.796875 64.3125 
L 12.890625 25.390625 
L 37.796875 25.390625 
z
M 35.203125 72.90625 
L 47.609375 72.90625 
L 47.609375 25.390625 
L 58.015625 25.390625 
L 58.015625 17.1875 
L 47.609375 17.1875 
L 47.609375 0 
L 37.796875 0 
L 37.796875 17.1875 
L 4.890625 17.1875 
L 4.890625 26.703125 
z
" id="DejaVuSans-52"/>
       </defs>
       <use xlink:href="#DejaVuSans-52"/>
      </g>
     </g>
    </g>
    <g id="xtick_4">
     <g id="line2d_7">
      <path clip-path="url(#p4548d448f4)" d="M 298.532571 298.944 
L 298.532571 3.456 
" style="fill:none;stroke:#b0b0b0;stroke-linecap:square;stroke-width:0.8;"/>
     </g>
     <g id="line2d_8">
      <g>
       <use style="stroke:#000000;stroke-width:0.8;" x="298.532571" xlink:href="#m3aaf9486fe" y="298.944"/>
      </g>
     </g>
     <g id="text_4">
      <!-- 6 -->
      <g transform="translate(292.170071 321.140875)scale(0.2 -0.2)">
       <defs>
        <path d="M 33.015625 40.375 
Q 26.375 40.375 22.484375 35.828125 
Q 18.609375 31.296875 18.609375 23.390625 
Q 18.609375 15.53125 22.484375 10.953125 
Q 26.375 6.390625 33.015625 6.390625 
Q 39.65625 6.390625 43.53125 10.953125 
Q 47.40625 15.53125 47.40625 23.390625 
Q 47.40625 31.296875 43.53125 35.828125 
Q 39.65625 40.375 33.015625 40.375 
z
M 52.59375 71.296875 
L 52.59375 62.3125 
Q 48.875 64.0625 45.09375 64.984375 
Q 41.3125 65.921875 37.59375 65.921875 
Q 27.828125 65.921875 22.671875 59.328125 
Q 17.53125 52.734375 16.796875 39.40625 
Q 19.671875 43.65625 24.015625 45.921875 
Q 28.375 48.1875 33.59375 48.1875 
Q 44.578125 48.1875 50.953125 41.515625 
Q 57.328125 34.859375 57.328125 23.390625 
Q 57.328125 12.15625 50.6875 5.359375 
Q 44.046875 -1.421875 33.015625 -1.421875 
Q 20.359375 -1.421875 13.671875 8.265625 
Q 6.984375 17.96875 6.984375 36.375 
Q 6.984375 53.65625 15.1875 63.9375 
Q 23.390625 74.21875 37.203125 74.21875 
Q 40.921875 74.21875 44.703125 73.484375 
Q 48.484375 72.75 52.59375 71.296875 
z
" id="DejaVuSans-54"/>
       </defs>
       <use xlink:href="#DejaVuSans-54"/>
      </g>
     </g>
    </g>
    <g id="xtick_5">
     <g id="line2d_9">
      <path clip-path="url(#p4548d448f4)" d="M 97.755429 298.944 
L 97.755429 3.456 
" style="fill:none;stroke:#b0b0b0;stroke-linecap:square;stroke-width:0.8;"/>
     </g>
     <g id="line2d_10">
      <defs>
       <path d="M 0 0 
L 0 2 
" id="m7a9a876165" style="stroke:#000000;stroke-width:0.6;"/>
      </defs>
      <g>
       <use style="stroke:#000000;stroke-width:0.6;" x="97.755429" xlink:href="#m7a9a876165" y="298.944"/>
      </g>
     </g>
    </g>
    <g id="xtick_6">
     <g id="line2d_11">
      <path clip-path="url(#p4548d448f4)" d="M 178.066286 298.944 
L 178.066286 3.456 
" style="fill:none;stroke:#b0b0b0;stroke-linecap:square;stroke-width:0.8;"/>
     </g>
     <g id="line2d_12">
      <g>
       <use style="stroke:#000000;stroke-width:0.6;" x="178.066286" xlink:href="#m7a9a876165" y="298.944"/>
      </g>
     </g>
    </g>
    <g id="xtick_7">
     <g id="line2d_13">
      <path clip-path="url(#p4548d448f4)" d="M 258.377143 298.944 
L 258.377143 3.456 
" style="fill:none;stroke:#b0b0b0;stroke-linecap:square;stroke-width:0.8;"/>
     </g>
     <g id="line2d_14">
      <g>
       <use style="stroke:#000000;stroke-width:0.6;" x="258.377143" xlink:href="#m7a9a876165" y="298.944"/>
      </g>
     </g>
    </g>
    <g id="xtick_8">
     <g id="line2d_15">
      <path clip-path="url(#p4548d448f4)" d="M 338.688 298.944 
L 338.688 3.456 
" style="fill:none;stroke:#b0b0b0;stroke-linecap:square;stroke-width:0.8;"/>
     </g>
     <g id="line2d_16">
      <g>
       <use style="stroke:#000000;stroke-width:0.6;" x="338.688" xlink:href="#m7a9a876165" y="298.944"/>
      </g>
     </g>
    </g>
    <g id="text_5">
     <!-- log10(# f-evals / dimension) -->
     <g transform="translate(77.764078 342.217594)scale(0.17 -0.17)">
      <defs>
       <path d="M 9.421875 75.984375 
L 18.40625 75.984375 
L 18.40625 0 
L 9.421875 0 
z
" id="DejaVuSans-108"/>
       <path d="M 30.609375 48.390625 
Q 23.390625 48.390625 19.1875 42.75 
Q 14.984375 37.109375 14.984375 27.296875 
Q 14.984375 17.484375 19.15625 11.84375 
Q 23.34375 6.203125 30.609375 6.203125 
Q 37.796875 6.203125 41.984375 11.859375 
Q 46.1875 17.53125 46.1875 27.296875 
Q 46.1875 37.015625 41.984375 42.703125 
Q 37.796875 48.390625 30.609375 48.390625 
z
M 30.609375 56 
Q 42.328125 56 49.015625 48.375 
Q 55.71875 40.765625 55.71875 27.296875 
Q 55.71875 13.875 49.015625 6.21875 
Q 42.328125 -1.421875 30.609375 -1.421875 
Q 18.84375 -1.421875 12.171875 6.21875 
Q 5.515625 13.875 5.515625 27.296875 
Q 5.515625 40.765625 12.171875 48.375 
Q 18.84375 56 30.609375 56 
z
" id="DejaVuSans-111"/>
       <path d="M 45.40625 27.984375 
Q 45.40625 37.75 41.375 43.109375 
Q 37.359375 48.484375 30.078125 48.484375 
Q 22.859375 48.484375 18.828125 43.109375 
Q 14.796875 37.75 14.796875 27.984375 
Q 14.796875 18.265625 18.828125 12.890625 
Q 22.859375 7.515625 30.078125 7.515625 
Q 37.359375 7.515625 41.375 12.890625 
Q 45.40625 18.265625 45.40625 27.984375 
z
M 54.390625 6.78125 
Q 54.390625 -7.171875 48.1875 -13.984375 
Q 42 -20.796875 29.203125 -20.796875 
Q 24.46875 -20.796875 20.265625 -20.09375 
Q 16.0625 -19.390625 12.109375 -17.921875 
L 12.109375 -9.1875 
Q 16.0625 -11.328125 19.921875 -12.34375 
Q 23.78125 -13.375 27.78125 -13.375 
Q 36.625 -13.375 41.015625 -8.765625 
Q 45.40625 -4.15625 45.40625 5.171875 
L 45.40625 9.625 
Q 42.625 4.78125 38.28125 2.390625 
Q 33.9375 0 27.875 0 
Q 17.828125 0 11.671875 7.65625 
Q 5.515625 15.328125 5.515625 27.984375 
Q 5.515625 40.671875 11.671875 48.328125 
Q 17.828125 56 27.875 56 
Q 33.9375 56 38.28125 53.609375 
Q 42.625 51.21875 45.40625 46.390625 
L 45.40625 54.6875 
L 54.390625 54.6875 
z
" id="DejaVuSans-103"/>
       <path d="M 12.40625 8.296875 
L 28.515625 8.296875 
L 28.515625 63.921875 
L 10.984375 60.40625 
L 10.984375 69.390625 
L 28.421875 72.90625 
L 38.28125 72.90625 
L 38.28125 8.296875 
L 54.390625 8.296875 
L 54.390625 0 
L 12.40625 0 
z
" id="DejaVuSans-49"/>
       <path d="M 31 75.875 
Q 24.46875 64.65625 21.28125 53.65625 
Q 18.109375 42.671875 18.109375 31.390625 
Q 18.109375 20.125 21.3125 9.0625 
Q 24.515625 -2 31 -13.1875 
L 23.1875 -13.1875 
Q 15.875 -1.703125 12.234375 9.375 
Q 8.59375 20.453125 8.59375 31.390625 
Q 8.59375 42.28125 12.203125 53.3125 
Q 15.828125 64.359375 23.1875 75.875 
z
" id="DejaVuSans-40"/>
       <path d="M 51.125 44 
L 36.921875 44 
L 32.8125 27.6875 
L 47.125 27.6875 
z
M 43.796875 71.78125 
L 38.71875 51.515625 
L 52.984375 51.515625 
L 58.109375 71.78125 
L 65.921875 71.78125 
L 60.890625 51.515625 
L 76.125 51.515625 
L 76.125 44 
L 58.984375 44 
L 54.984375 27.6875 
L 70.515625 27.6875 
L 70.515625 20.21875 
L 53.078125 20.21875 
L 48 0 
L 40.1875 0 
L 45.21875 20.21875 
L 30.90625 20.21875 
L 25.875 0 
L 18.015625 0 
L 23.09375 20.21875 
L 7.71875 20.21875 
L 7.71875 27.6875 
L 24.90625 27.6875 
L 29 44 
L 13.28125 44 
L 13.28125 51.515625 
L 30.90625 51.515625 
L 35.890625 71.78125 
z
" id="DejaVuSans-35"/>
       <path id="DejaVuSans-32"/>
       <path d="M 37.109375 75.984375 
L 37.109375 68.5 
L 28.515625 68.5 
Q 23.6875 68.5 21.796875 66.546875 
Q 19.921875 64.59375 19.921875 59.515625 
L 19.921875 54.6875 
L 34.71875 54.6875 
L 34.71875 47.703125 
L 19.921875 47.703125 
L 19.921875 0 
L 10.890625 0 
L 10.890625 47.703125 
L 2.296875 47.703125 
L 2.296875 54.6875 
L 10.890625 54.6875 
L 10.890625 58.5 
Q 10.890625 67.625 15.140625 71.796875 
Q 19.390625 75.984375 28.609375 75.984375 
z
" id="DejaVuSans-102"/>
       <path d="M 4.890625 31.390625 
L 31.203125 31.390625 
L 31.203125 23.390625 
L 4.890625 23.390625 
z
" id="DejaVuSans-45"/>
       <path d="M 56.203125 29.59375 
L 56.203125 25.203125 
L 14.890625 25.203125 
Q 15.484375 15.921875 20.484375 11.0625 
Q 25.484375 6.203125 34.421875 6.203125 
Q 39.59375 6.203125 44.453125 7.46875 
Q 49.3125 8.734375 54.109375 11.28125 
L 54.109375 2.78125 
Q 49.265625 0.734375 44.1875 -0.34375 
Q 39.109375 -1.421875 33.890625 -1.421875 
Q 20.796875 -1.421875 13.15625 6.1875 
Q 5.515625 13.8125 5.515625 26.8125 
Q 5.515625 40.234375 12.765625 48.109375 
Q 20.015625 56 32.328125 56 
Q 43.359375 56 49.78125 48.890625 
Q 56.203125 41.796875 56.203125 29.59375 
z
M 47.21875 32.234375 
Q 47.125 39.59375 43.09375 43.984375 
Q 39.0625 48.390625 32.421875 48.390625 
Q 24.90625 48.390625 20.390625 44.140625 
Q 15.875 39.890625 15.1875 32.171875 
z
" id="DejaVuSans-101"/>
       <path d="M 2.984375 54.6875 
L 12.5 54.6875 
L 29.59375 8.796875 
L 46.6875 54.6875 
L 56.203125 54.6875 
L 35.6875 0 
L 23.484375 0 
z
" id="DejaVuSans-118"/>
       <path d="M 34.28125 27.484375 
Q 23.390625 27.484375 19.1875 25 
Q 14.984375 22.515625 14.984375 16.5 
Q 14.984375 11.71875 18.140625 8.90625 
Q 21.296875 6.109375 26.703125 6.109375 
Q 34.1875 6.109375 38.703125 11.40625 
Q 43.21875 16.703125 43.21875 25.484375 
L 43.21875 27.484375 
z
M 52.203125 31.203125 
L 52.203125 0 
L 43.21875 0 
L 43.21875 8.296875 
Q 40.140625 3.328125 35.546875 0.953125 
Q 30.953125 -1.421875 24.3125 -1.421875 
Q 15.921875 -1.421875 10.953125 3.296875 
Q 6 8.015625 6 15.921875 
Q 6 25.140625 12.171875 29.828125 
Q 18.359375 34.515625 30.609375 34.515625 
L 43.21875 34.515625 
L 43.21875 35.40625 
Q 43.21875 41.609375 39.140625 45 
Q 35.0625 48.390625 27.6875 48.390625 
Q 23 48.390625 18.546875 47.265625 
Q 14.109375 46.140625 10.015625 43.890625 
L 10.015625 52.203125 
Q 14.9375 54.109375 19.578125 55.046875 
Q 24.21875 56 28.609375 56 
Q 40.484375 56 46.34375 49.84375 
Q 52.203125 43.703125 52.203125 31.203125 
z
" id="DejaVuSans-97"/>
       <path d="M 44.28125 53.078125 
L 44.28125 44.578125 
Q 40.484375 46.53125 36.375 47.5 
Q 32.28125 48.484375 27.875 48.484375 
Q 21.1875 48.484375 17.84375 46.4375 
Q 14.5 44.390625 14.5 40.28125 
Q 14.5 37.15625 16.890625 35.375 
Q 19.28125 33.59375 26.515625 31.984375 
L 29.59375 31.296875 
Q 39.15625 29.25 43.1875 25.515625 
Q 47.21875 21.78125 47.21875 15.09375 
Q 47.21875 7.46875 41.1875 3.015625 
Q 35.15625 -1.421875 24.609375 -1.421875 
Q 20.21875 -1.421875 15.453125 -0.5625 
Q 10.6875 0.296875 5.421875 2 
L 5.421875 11.28125 
Q 10.40625 8.6875 15.234375 7.390625 
Q 20.0625 6.109375 24.8125 6.109375 
Q 31.15625 6.109375 34.5625 8.28125 
Q 37.984375 10.453125 37.984375 14.40625 
Q 37.984375 18.0625 35.515625 20.015625 
Q 33.0625 21.96875 24.703125 23.78125 
L 21.578125 24.515625 
Q 13.234375 26.265625 9.515625 29.90625 
Q 5.8125 33.546875 5.8125 39.890625 
Q 5.8125 47.609375 11.28125 51.796875 
Q 16.75 56 26.8125 56 
Q 31.78125 56 36.171875 55.265625 
Q 40.578125 54.546875 44.28125 53.078125 
z
" id="DejaVuSans-115"/>
       <path d="M 25.390625 72.90625 
L 33.6875 72.90625 
L 8.296875 -9.28125 
L 0 -9.28125 
z
" id="DejaVuSans-47"/>
       <path d="M 45.40625 46.390625 
L 45.40625 75.984375 
L 54.390625 75.984375 
L 54.390625 0 
L 45.40625 0 
L 45.40625 8.203125 
Q 42.578125 3.328125 38.25 0.953125 
Q 33.9375 -1.421875 27.875 -1.421875 
Q 17.96875 -1.421875 11.734375 6.484375 
Q 5.515625 14.40625 5.515625 27.296875 
Q 5.515625 40.1875 11.734375 48.09375 
Q 17.96875 56 27.875 56 
Q 33.9375 56 38.25 53.625 
Q 42.578125 51.265625 45.40625 46.390625 
z
M 14.796875 27.296875 
Q 14.796875 17.390625 18.875 11.75 
Q 22.953125 6.109375 30.078125 6.109375 
Q 37.203125 6.109375 41.296875 11.75 
Q 45.40625 17.390625 45.40625 27.296875 
Q 45.40625 37.203125 41.296875 42.84375 
Q 37.203125 48.484375 30.078125 48.484375 
Q 22.953125 48.484375 18.875 42.84375 
Q 14.796875 37.203125 14.796875 27.296875 
z
" id="DejaVuSans-100"/>
       <path d="M 9.421875 54.6875 
L 18.40625 54.6875 
L 18.40625 0 
L 9.421875 0 
z
M 9.421875 75.984375 
L 18.40625 75.984375 
L 18.40625 64.59375 
L 9.421875 64.59375 
z
" id="DejaVuSans-105"/>
       <path d="M 52 44.1875 
Q 55.375 50.25 60.0625 53.125 
Q 64.75 56 71.09375 56 
Q 79.640625 56 84.28125 50.015625 
Q 88.921875 44.046875 88.921875 33.015625 
L 88.921875 0 
L 79.890625 0 
L 79.890625 32.71875 
Q 79.890625 40.578125 77.09375 44.375 
Q 74.3125 48.1875 68.609375 48.1875 
Q 61.625 48.1875 57.5625 43.546875 
Q 53.515625 38.921875 53.515625 30.90625 
L 53.515625 0 
L 44.484375 0 
L 44.484375 32.71875 
Q 44.484375 40.625 41.703125 44.40625 
Q 38.921875 48.1875 33.109375 48.1875 
Q 26.21875 48.1875 22.15625 43.53125 
Q 18.109375 38.875 18.109375 30.90625 
L 18.109375 0 
L 9.078125 0 
L 9.078125 54.6875 
L 18.109375 54.6875 
L 18.109375 46.1875 
Q 21.1875 51.21875 25.484375 53.609375 
Q 29.78125 56 35.6875 56 
Q 41.65625 56 45.828125 52.96875 
Q 50 49.953125 52 44.1875 
z
" id="DejaVuSans-109"/>
       <path d="M 54.890625 33.015625 
L 54.890625 0 
L 45.90625 0 
L 45.90625 32.71875 
Q 45.90625 40.484375 42.875 44.328125 
Q 39.84375 48.1875 33.796875 48.1875 
Q 26.515625 48.1875 22.3125 43.546875 
Q 18.109375 38.921875 18.109375 30.90625 
L 18.109375 0 
L 9.078125 0 
L 9.078125 54.6875 
L 18.109375 54.6875 
L 18.109375 46.1875 
Q 21.34375 51.125 25.703125 53.5625 
Q 30.078125 56 35.796875 56 
Q 45.21875 56 50.046875 50.171875 
Q 54.890625 44.34375 54.890625 33.015625 
z
" id="DejaVuSans-110"/>
       <path d="M 8.015625 75.875 
L 15.828125 75.875 
Q 23.140625 64.359375 26.78125 53.3125 
Q 30.421875 42.28125 30.421875 31.390625 
Q 30.421875 20.453125 26.78125 9.375 
Q 23.140625 -1.703125 15.828125 -13.1875 
L 8.015625 -13.1875 
Q 14.5 -2 17.703125 9.0625 
Q 20.90625 20.125 20.90625 31.390625 
Q 20.90625 42.671875 17.703125 53.65625 
Q 14.5 64.65625 8.015625 75.875 
z
" id="DejaVuSans-41"/>
      </defs>
      <use xlink:href="#DejaVuSans-108"/>
      <use x="27.783203" xlink:href="#DejaVuSans-111"/>
      <use x="88.964844" xlink:href="#DejaVuSans-103"/>
      <use x="152.441406" xlink:href="#DejaVuSans-49"/>
      <use x="216.064453" xlink:href="#DejaVuSans-48"/>
      <use x="279.6875" xlink:href="#DejaVuSans-40"/>
      <use x="318.701172" xlink:href="#DejaVuSans-35"/>
      <use x="402.490234" xlink:href="#DejaVuSans-32"/>
      <use x="434.277344" xlink:href="#DejaVuSans-102"/>
      <use x="463.982422" xlink:href="#DejaVuSans-45"/>
      <use x="500.066406" xlink:href="#DejaVuSans-101"/>
      <use x="561.589844" xlink:href="#DejaVuSans-118"/>
      <use x="620.769531" xlink:href="#DejaVuSans-97"/>
      <use x="682.048828" xlink:href="#DejaVuSans-108"/>
      <use x="709.832031" xlink:href="#DejaVuSans-115"/>
      <use x="761.931641" xlink:href="#DejaVuSans-32"/>
      <use x="793.71875" xlink:href="#DejaVuSans-47"/>
      <use x="827.410156" xlink:href="#DejaVuSans-32"/>
      <use x="859.197266" xlink:href="#DejaVuSans-100"/>
      <use x="922.673828" xlink:href="#DejaVuSans-105"/>
      <use x="950.457031" xlink:href="#DejaVuSans-109"/>
      <use x="1047.869141" xlink:href="#DejaVuSans-101"/>
      <use x="1109.392578" xlink:href="#DejaVuSans-110"/>
      <use x="1172.771484" xlink:href="#DejaVuSans-115"/>
      <use x="1224.871094" xlink:href="#DejaVuSans-105"/>
      <use x="1252.654297" xlink:href="#DejaVuSans-111"/>
      <use x="1313.835938" xlink:href="#DejaVuSans-110"/>
      <use x="1377.214844" xlink:href="#DejaVuSans-41"/>
     </g>
    </g>
   </g>
   <g id="matplotlib.axis_2">
    <g id="ytick_1">
     <g id="line2d_17">
      <path clip-path="url(#p4548d448f4)" d="M 57.6 298.944 
L 338.688 298.944 
" style="fill:none;stroke:#b0b0b0;stroke-linecap:square;stroke-width:0.8;"/>
     </g>
     <g id="line2d_18">
      <defs>
       <path d="M 0 0 
L -3.5 0 
" id="m61986520fc" style="stroke:#000000;stroke-width:0.8;"/>
      </defs>
      <g>
       <use style="stroke:#000000;stroke-width:0.8;" x="57.6" xlink:href="#m61986520fc" y="298.944"/>
      </g>
     </g>
     <g id="text_6">
      <!-- 0.0 -->
      <g transform="translate(25.155 305.02275)scale(0.16 -0.16)">
       <defs>
        <path d="M 10.6875 12.40625 
L 21 12.40625 
L 21 0 
L 10.6875 0 
z
" id="DejaVuSans-46"/>
       </defs>
       <use xlink:href="#DejaVuSans-48"/>
       <use x="63.623047" xlink:href="#DejaVuSans-46"/>
       <use x="95.410156" xlink:href="#DejaVuSans-48"/>
      </g>
     </g>
    </g>
    <g id="ytick_2">
     <g id="line2d_19">
      <path clip-path="url(#p4548d448f4)" d="M 57.6 240.431525 
L 338.688 240.431525 
" style="fill:none;stroke:#b0b0b0;stroke-linecap:square;stroke-width:0.8;"/>
     </g>
     <g id="line2d_20">
      <g>
       <use style="stroke:#000000;stroke-width:0.8;" x="57.6" xlink:href="#m61986520fc" y="240.431525"/>
      </g>
     </g>
     <g id="text_7">
      <!-- 0.2 -->
      <g transform="translate(25.155 246.510275)scale(0.16 -0.16)">
       <use xlink:href="#DejaVuSans-48"/>
       <use x="63.623047" xlink:href="#DejaVuSans-46"/>
       <use x="95.410156" xlink:href="#DejaVuSans-50"/>
      </g>
     </g>
    </g>
    <g id="ytick_3">
     <g id="line2d_21">
      <path clip-path="url(#p4548d448f4)" d="M 57.6 181.91905 
L 338.688 181.91905 
" style="fill:none;stroke:#b0b0b0;stroke-linecap:square;stroke-width:0.8;"/>
     </g>
     <g id="line2d_22">
      <g>
       <use style="stroke:#000000;stroke-width:0.8;" x="57.6" xlink:href="#m61986520fc" y="181.91905"/>
      </g>
     </g>
     <g id="text_8">
      <!-- 0.4 -->
      <g transform="translate(25.155 187.9978)scale(0.16 -0.16)">
       <use xlink:href="#DejaVuSans-48"/>
       <use x="63.623047" xlink:href="#DejaVuSans-46"/>
       <use x="95.410156" xlink:href="#DejaVuSans-52"/>
      </g>
     </g>
    </g>
    <g id="ytick_4">
     <g id="line2d_23">
      <path clip-path="url(#p4548d448f4)" d="M 57.6 123.406574 
L 338.688 123.406574 
" style="fill:none;stroke:#b0b0b0;stroke-linecap:square;stroke-width:0.8;"/>
     </g>
     <g id="line2d_24">
      <g>
       <use style="stroke:#000000;stroke-width:0.8;" x="57.6" xlink:href="#m61986520fc" y="123.406574"/>
      </g>
     </g>
     <g id="text_9">
      <!-- 0.6 -->
      <g transform="translate(25.155 129.485324)scale(0.16 -0.16)">
       <use xlink:href="#DejaVuSans-48"/>
       <use x="63.623047" xlink:href="#DejaVuSans-46"/>
       <use x="95.410156" xlink:href="#DejaVuSans-54"/>
      </g>
     </g>
    </g>
    <g id="ytick_5">
     <g id="line2d_25">
      <path clip-path="url(#p4548d448f4)" d="M 57.6 64.894099 
L 338.688 64.894099 
" style="fill:none;stroke:#b0b0b0;stroke-linecap:square;stroke-width:0.8;"/>
     </g>
     <g id="line2d_26">
      <g>
       <use style="stroke:#000000;stroke-width:0.8;" x="57.6" xlink:href="#m61986520fc" y="64.894099"/>
      </g>
     </g>
     <g id="text_10">
      <!-- 0.8 -->
      <g transform="translate(25.155 70.972849)scale(0.16 -0.16)">
       <defs>
        <path d="M 31.78125 34.625 
Q 24.75 34.625 20.71875 30.859375 
Q 16.703125 27.09375 16.703125 20.515625 
Q 16.703125 13.921875 20.71875 10.15625 
Q 24.75 6.390625 31.78125 6.390625 
Q 38.8125 6.390625 42.859375 10.171875 
Q 46.921875 13.96875 46.921875 20.515625 
Q 46.921875 27.09375 42.890625 30.859375 
Q 38.875 34.625 31.78125 34.625 
z
M 21.921875 38.8125 
Q 15.578125 40.375 12.03125 44.71875 
Q 8.5 49.078125 8.5 55.328125 
Q 8.5 64.0625 14.71875 69.140625 
Q 20.953125 74.21875 31.78125 74.21875 
Q 42.671875 74.21875 48.875 69.140625 
Q 55.078125 64.0625 55.078125 55.328125 
Q 55.078125 49.078125 51.53125 44.71875 
Q 48 40.375 41.703125 38.8125 
Q 48.828125 37.15625 52.796875 32.3125 
Q 56.78125 27.484375 56.78125 20.515625 
Q 56.78125 9.90625 50.3125 4.234375 
Q 43.84375 -1.421875 31.78125 -1.421875 
Q 19.734375 -1.421875 13.25 4.234375 
Q 6.78125 9.90625 6.78125 20.515625 
Q 6.78125 27.484375 10.78125 32.3125 
Q 14.796875 37.15625 21.921875 38.8125 
z
M 18.3125 54.390625 
Q 18.3125 48.734375 21.84375 45.5625 
Q 25.390625 42.390625 31.78125 42.390625 
Q 38.140625 42.390625 41.71875 45.5625 
Q 45.3125 48.734375 45.3125 54.390625 
Q 45.3125 60.0625 41.71875 63.234375 
Q 38.140625 66.40625 31.78125 66.40625 
Q 25.390625 66.40625 21.84375 63.234375 
Q 18.3125 60.0625 18.3125 54.390625 
z
" id="DejaVuSans-56"/>
       </defs>
       <use xlink:href="#DejaVuSans-48"/>
       <use x="63.623047" xlink:href="#DejaVuSans-46"/>
       <use x="95.410156" xlink:href="#DejaVuSans-56"/>
      </g>
     </g>
    </g>
    <g id="ytick_6">
     <g id="line2d_27">
      <path clip-path="url(#p4548d448f4)" d="M 57.6 6.381624 
L 338.688 6.381624 
" style="fill:none;stroke:#b0b0b0;stroke-linecap:square;stroke-width:0.8;"/>
     </g>
     <g id="line2d_28">
      <g>
       <use style="stroke:#000000;stroke-width:0.8;" x="57.6" xlink:href="#m61986520fc" y="6.381624"/>
      </g>
     </g>
     <g id="text_11">
      <!-- 1.0 -->
      <g transform="translate(25.155 12.460374)scale(0.16 -0.16)">
       <use xlink:href="#DejaVuSans-49"/>
       <use x="63.623047" xlink:href="#DejaVuSans-46"/>
       <use x="95.410156" xlink:href="#DejaVuSans-48"/>
      </g>
     </g>
    </g>
    <g id="text_12">
     <!-- Fraction of function,target pairs -->
     <g transform="translate(17.619531 285.585)rotate(-90)scale(0.17 -0.17)">
      <defs>
       <path d="M 9.8125 72.90625 
L 51.703125 72.90625 
L 51.703125 64.59375 
L 19.671875 64.59375 
L 19.671875 43.109375 
L 48.578125 43.109375 
L 48.578125 34.8125 
L 19.671875 34.8125 
L 19.671875 0 
L 9.8125 0 
z
" id="DejaVuSans-70"/>
       <path d="M 41.109375 46.296875 
Q 39.59375 47.171875 37.8125 47.578125 
Q 36.03125 48 33.890625 48 
Q 26.265625 48 22.1875 43.046875 
Q 18.109375 38.09375 18.109375 28.8125 
L 18.109375 0 
L 9.078125 0 
L 9.078125 54.6875 
L 18.109375 54.6875 
L 18.109375 46.1875 
Q 20.953125 51.171875 25.484375 53.578125 
Q 30.03125 56 36.53125 56 
Q 37.453125 56 38.578125 55.875 
Q 39.703125 55.765625 41.0625 55.515625 
z
" id="DejaVuSans-114"/>
       <path d="M 48.78125 52.59375 
L 48.78125 44.1875 
Q 44.96875 46.296875 41.140625 47.34375 
Q 37.3125 48.390625 33.40625 48.390625 
Q 24.65625 48.390625 19.8125 42.84375 
Q 14.984375 37.3125 14.984375 27.296875 
Q 14.984375 17.28125 19.8125 11.734375 
Q 24.65625 6.203125 33.40625 6.203125 
Q 37.3125 6.203125 41.140625 7.25 
Q 44.96875 8.296875 48.78125 10.40625 
L 48.78125 2.09375 
Q 45.015625 0.34375 40.984375 -0.53125 
Q 36.96875 -1.421875 32.421875 -1.421875 
Q 20.0625 -1.421875 12.78125 6.34375 
Q 5.515625 14.109375 5.515625 27.296875 
Q 5.515625 40.671875 12.859375 48.328125 
Q 20.21875 56 33.015625 56 
Q 37.15625 56 41.109375 55.140625 
Q 45.0625 54.296875 48.78125 52.59375 
z
" id="DejaVuSans-99"/>
       <path d="M 18.3125 70.21875 
L 18.3125 54.6875 
L 36.8125 54.6875 
L 36.8125 47.703125 
L 18.3125 47.703125 
L 18.3125 18.015625 
Q 18.3125 11.328125 20.140625 9.421875 
Q 21.96875 7.515625 27.59375 7.515625 
L 36.8125 7.515625 
L 36.8125 0 
L 27.59375 0 
Q 17.1875 0 13.234375 3.875 
Q 9.28125 7.765625 9.28125 18.015625 
L 9.28125 47.703125 
L 2.6875 47.703125 
L 2.6875 54.6875 
L 9.28125 54.6875 
L 9.28125 70.21875 
z
" id="DejaVuSans-116"/>
       <path d="M 8.5 21.578125 
L 8.5 54.6875 
L 17.484375 54.6875 
L 17.484375 21.921875 
Q 17.484375 14.15625 20.5 10.265625 
Q 23.53125 6.390625 29.59375 6.390625 
Q 36.859375 6.390625 41.078125 11.03125 
Q 45.3125 15.671875 45.3125 23.6875 
L 45.3125 54.6875 
L 54.296875 54.6875 
L 54.296875 0 
L 45.3125 0 
L 45.3125 8.40625 
Q 42.046875 3.421875 37.71875 1 
Q 33.40625 -1.421875 27.6875 -1.421875 
Q 18.265625 -1.421875 13.375 4.4375 
Q 8.5 10.296875 8.5 21.578125 
z
M 31.109375 56 
z
" id="DejaVuSans-117"/>
       <path d="M 11.71875 12.40625 
L 22.015625 12.40625 
L 22.015625 4 
L 14.015625 -11.625 
L 7.71875 -11.625 
L 11.71875 4 
z
" id="DejaVuSans-44"/>
       <path d="M 18.109375 8.203125 
L 18.109375 -20.796875 
L 9.078125 -20.796875 
L 9.078125 54.6875 
L 18.109375 54.6875 
L 18.109375 46.390625 
Q 20.953125 51.265625 25.265625 53.625 
Q 29.59375 56 35.59375 56 
Q 45.5625 56 51.78125 48.09375 
Q 58.015625 40.1875 58.015625 27.296875 
Q 58.015625 14.40625 51.78125 6.484375 
Q 45.5625 -1.421875 35.59375 -1.421875 
Q 29.59375 -1.421875 25.265625 0.953125 
Q 20.953125 3.328125 18.109375 8.203125 
z
M 48.6875 27.296875 
Q 48.6875 37.203125 44.609375 42.84375 
Q 40.53125 48.484375 33.40625 48.484375 
Q 26.265625 48.484375 22.1875 42.84375 
Q 18.109375 37.203125 18.109375 27.296875 
Q 18.109375 17.390625 22.1875 11.75 
Q 26.265625 6.109375 33.40625 6.109375 
Q 40.53125 6.109375 44.609375 11.75 
Q 48.6875 17.390625 48.6875 27.296875 
z
" id="DejaVuSans-112"/>
      </defs>
      <use xlink:href="#DejaVuSans-70"/>
      <use x="50.269531" xlink:href="#DejaVuSans-114"/>
      <use x="91.382812" xlink:href="#DejaVuSans-97"/>
      <use x="152.662109" xlink:href="#DejaVuSans-99"/>
      <use x="207.642578" xlink:href="#DejaVuSans-116"/>
      <use x="246.851562" xlink:href="#DejaVuSans-105"/>
      <use x="274.634766" xlink:href="#DejaVuSans-111"/>
      <use x="335.816406" xlink:href="#DejaVuSans-110"/>
      <use x="399.195312" xlink:href="#DejaVuSans-32"/>
      <use x="430.982422" xlink:href="#DejaVuSans-111"/>
      <use x="492.164062" xlink:href="#DejaVuSans-102"/>
      <use x="527.369141" xlink:href="#DejaVuSans-32"/>
      <use x="559.15625" xlink:href="#DejaVuSans-102"/>
      <use x="594.361328" xlink:href="#DejaVuSans-117"/>
      <use x="657.740234" xlink:href="#DejaVuSans-110"/>
      <use x="721.119141" xlink:href="#DejaVuSans-99"/>
      <use x="776.099609" xlink:href="#DejaVuSans-116"/>
      <use x="815.308594" xlink:href="#DejaVuSans-105"/>
      <use x="843.091797" xlink:href="#DejaVuSans-111"/>
      <use x="904.273438" xlink:href="#DejaVuSans-110"/>
      <use x="967.652344" xlink:href="#DejaVuSans-44"/>
      <use x="999.439453" xlink:href="#DejaVuSans-116"/>
      <use x="1038.648438" xlink:href="#DejaVuSans-97"/>
      <use x="1099.927734" xlink:href="#DejaVuSans-114"/>
      <use x="1139.291016" xlink:href="#DejaVuSans-103"/>
      <use x="1202.767578" xlink:href="#DejaVuSans-101"/>
      <use x="1264.291016" xlink:href="#DejaVuSans-116"/>
      <use x="1303.5" xlink:href="#DejaVuSans-32"/>
      <use x="1335.287109" xlink:href="#DejaVuSans-112"/>
      <use x="1398.763672" xlink:href="#DejaVuSans-97"/>
      <use x="1460.042969" xlink:href="#DejaVuSans-105"/>
      <use x="1487.826172" xlink:href="#DejaVuSans-114"/>
      <use x="1528.939453" xlink:href="#DejaVuSans-115"/>
     </g>
    </g>
   </g>
   <g id="line2d_29">
    <defs>
     <path d="M 0 1.5 
C 0.397805 1.5 0.77937 1.341951 1.06066 1.06066 
C 1.341951 0.77937 1.5 0.397805 1.5 0 
C 1.5 -0.397805 1.341951 -0.77937 1.06066 -1.06066 
C 0.77937 -1.341951 0.397805 -1.5 0 -1.5 
C -0.397805 -1.5 -0.77937 -1.341951 -1.06066 -1.06066 
C -1.341951 -0.77937 -1.5 -0.397805 -1.5 0 
C -1.5 0.397805 -1.341951 0.77937 -1.06066 1.06066 
C -0.77937 1.341951 -0.397805 1.5 0 1.5 
z
" id="maf44103338" style="stroke:#000080;"/>
    </defs>
    <g>
     <use style="fill:#000080;stroke:#000080;" x="257.533949" xlink:href="#maf44103338" y="157.706991"/>
     <use style="fill:#000080;stroke:#000080;" x="257.533949" xlink:href="#maf44103338" y="157.706991"/>
    </g>
   </g>
   <g id="line2d_30">
    <path d="M 45.512012 298.944 
L 45.512012 289.36006 
L 106.48859 289.36006 
L 106.48859 288.855642 
L 111.104637 288.855642 
L 111.104637 288.351224 
L 117.765302 288.351224 
L 117.765302 287.846806 
L 119.097192 287.846806 
L 119.097192 286.837971 
L 122.573415 286.837971 
L 122.573415 286.333553 
L 124.557288 286.333553 
L 124.557288 285.829135 
L 125.470548 285.829135 
L 125.470548 284.820299 
L 126.338353 284.820299 
L 126.338353 283.811463 
L 127.954256 283.811463 
L 127.954256 283.307045 
L 128.709321 283.307045 
L 128.709321 281.289374 
L 129.433047 281.289374 
L 129.433047 280.280538 
L 130.127931 280.280538 
L 130.127931 277.254031 
L 130.796184 277.254031 
L 130.796184 275.740777 
L 131.439773 275.740777 
L 131.439773 274.227523 
L 132.060454 274.227523 
L 132.060454 273.218688 
L 132.659801 273.218688 
L 132.659801 272.209852 
L 133.239232 272.209852 
L 133.239232 268.174509 
L 133.800029 268.174509 
L 133.800029 267.670091 
L 134.343353 267.670091 
L 134.343353 264.139166 
L 135.878591 264.139166 
L 135.878591 263.634748 
L 136.361705 263.634748 
L 136.361705 263.13033 
L 139.009092 263.13033 
L 139.009092 262.625912 
L 139.413734 262.625912 
L 139.413734 262.121494 
L 140.944478 262.121494 
L 140.944478 261.112658 
L 141.307054 261.112658 
L 141.307054 260.60824 
L 142.686372 260.60824 
L 142.686372 260.103822 
L 143.014805 260.103822 
L 143.014805 259.599405 
L 143.337167 259.599405 
L 143.337167 258.590569 
L 143.653678 258.590569 
L 143.653678 258.086151 
L 143.964547 258.086151 
L 143.964547 257.581733 
L 144.269971 257.581733 
L 144.269971 256.068479 
L 144.570138 256.068479 
L 144.570138 255.564061 
L 144.865226 255.564061 
L 144.865226 253.041972 
L 145.440832 253.041972 
L 145.440832 250.519883 
L 145.721664 250.519883 
L 145.721664 250.015465 
L 147.317833 250.015465 
L 147.317833 249.511047 
L 148.54473 249.511047 
L 148.54473 249.006629 
L 149.241465 249.006629 
L 149.241465 248.502211 
L 151.779487 248.502211 
L 151.779487 247.997793 
L 152.736878 247.997793 
L 152.736878 246.988957 
L 153.178403 246.988957 
L 153.178403 246.484539 
L 153.644434 246.484539 
L 153.644434 245.980122 
L 155.329071 245.980122 
L 155.329071 244.971286 
L 158.465753 244.971286 
L 158.465753 244.466868 
L 160.225184 244.466868 
L 160.225184 243.458032 
L 161.84538 243.458032 
L 161.84538 242.953614 
L 162.791763 242.953614 
L 162.875305 241.944778 
L 163.164589 241.944778 
L 163.164589 241.440361 
L 163.368321 241.440361 
L 163.368321 240.431525 
L 163.946031 240.431525 
L 163.946031 239.927107 
L 164.121498 239.927107 
L 164.19892 238.918271 
L 164.618704 238.918271 
L 164.618704 237.909435 
L 164.768882 237.909435 
L 164.768882 237.405017 
L 165.211808 237.405017 
L 165.211808 236.9006 
L 165.393091 236.9006 
L 165.393091 235.891764 
L 165.960849 235.891764 
L 165.960849 234.882928 
L 166.561376 234.882928 
L 166.561376 233.874092 
L 166.7626 233.874092 
L 166.7626 232.360839 
L 167.320442 232.360839 
L 167.320442 231.352003 
L 167.481174 231.352003 
L 167.481174 230.847585 
L 167.84533 230.847585 
L 167.84533 229.838749 
L 168.400474 229.838749 
L 168.400474 228.829913 
L 170.951613 228.829913 
L 170.951613 228.325495 
L 172.97942 228.325495 
L 172.97942 227.821078 
L 174.010558 227.821078 
L 174.010558 227.31666 
L 179.456806 227.31666 
L 179.456806 226.307824 
L 179.854799 226.307824 
L 179.854799 225.803406 
L 180.120337 225.803406 
L 180.120337 224.79457 
L 180.549068 224.79457 
L 180.549068 224.290152 
L 180.967511 224.290152 
L 180.967511 223.785734 
L 181.404974 223.785734 
L 181.404974 223.281316 
L 182.027367 223.281316 
L 182.027367 222.272481 
L 182.65514 222.272481 
L 182.65514 221.263645 
L 183.046156 221.263645 
L 183.131146 220.254809 
L 183.280506 220.254809 
L 183.280506 219.750391 
L 183.581799 219.750391 
L 183.581799 218.741555 
L 183.809106 218.741555 
L 183.809106 218.237138 
L 184.101478 218.237138 
L 184.101478 217.73272 
L 185.090739 217.73272 
L 185.090739 217.228302 
L 185.528183 217.228302 
L 185.556581 215.21063 
L 185.680986 215.21063 
L 185.680986 214.201794 
L 186.682796 214.201794 
L 186.682796 213.697377 
L 186.988663 213.697377 
L 186.988663 213.192959 
L 187.437635 213.192959 
L 187.437635 212.688541 
L 187.890237 212.688541 
L 187.890237 212.184123 
L 188.690678 212.184123 
L 188.690678 211.679705 
L 189.163114 211.679705 
L 189.163114 210.670869 
L 190.001009 210.670869 
L 190.001009 210.166451 
L 190.21086 210.166451 
L 190.21086 209.662033 
L 191.427657 209.662033 
L 191.427657 208.653198 
L 192.404859 208.653198 
L 192.404859 208.14878 
L 193.446098 208.14878 
L 193.446098 207.644362 
L 195.358793 207.644362 
L 195.358793 206.635526 
L 195.912771 206.635526 
L 195.912771 206.131108 
L 196.174038 206.131108 
L 196.174038 205.62669 
L 196.908528 205.62669 
L 196.908528 205.122272 
L 199.502682 205.122272 
L 199.502682 204.617855 
L 200.882669 204.617855 
L 200.882669 203.609019 
L 201.281073 203.609019 
L 201.281073 203.104601 
L 201.697587 203.104601 
L 201.798502 201.591347 
L 201.876591 201.591347 
L 201.976478 200.582511 
L 202.06479 200.582511 
L 202.06479 200.078094 
L 202.272755 200.078094 
L 202.272755 199.069258 
L 202.999452 199.069258 
L 202.999452 198.56484 
L 203.838883 198.56484 
L 203.910348 196.04275 
L 204.377508 196.04275 
L 204.377508 195.033915 
L 204.759043 195.033915 
L 204.759043 194.529497 
L 209.343775 194.529497 
L 209.343775 194.025079 
L 211.537023 194.025079 
L 211.537023 193.016243 
L 212.633961 193.016243 
L 212.633961 192.007407 
L 213.252348 192.007407 
L 213.252348 191.502989 
L 215.735861 191.502989 
L 215.735861 190.998572 
L 216.203159 190.998572 
L 216.212946 189.485318 
L 218.754967 189.485318 
L 218.754967 188.9809 
L 219.573545 188.9809 
L 219.573545 187.972064 
L 219.92819 187.972064 
L 219.92819 187.467646 
L 220.327619 187.467646 
L 220.327619 186.963228 
L 220.65072 186.963228 
L 220.65072 186.458811 
L 221.423782 186.458811 
L 221.423782 185.954393 
L 222.1062 185.954393 
L 222.1062 184.945557 
L 223.365311 184.945557 
L 223.449509 183.936721 
L 224.039026 183.936721 
L 224.039026 182.927885 
L 225.123921 182.927885 
L 225.123921 182.423467 
L 226.848329 182.423467 
L 226.848329 181.91905 
L 228.229364 181.91905 
L 228.229364 181.414632 
L 230.401453 181.414632 
L 230.401453 180.910214 
L 232.247103 180.910214 
L 232.247103 179.901378 
L 234.659328 179.901378 
L 234.659328 178.892542 
L 236.182519 178.892542 
L 236.182519 177.883706 
L 236.4203 177.883706 
L 236.4203 176.874871 
L 237.34377 176.874871 
L 237.364729 174.857199 
L 238.01909 174.857199 
L 238.01909 174.352781 
L 238.938445 174.352781 
L 238.953324 172.33511 
L 239.137466 172.33511 
L 239.137466 171.830692 
L 239.557322 171.830692 
L 239.557322 171.326274 
L 240.587628 171.326274 
L 240.587628 170.317438 
L 242.486622 170.317438 
L 242.486622 169.81302 
L 246.198234 169.81302 
L 246.198234 168.804184 
L 247.467443 168.804184 
L 247.467443 168.299766 
L 247.871686 168.299766 
L 247.88681 164.768841 
L 248.589178 164.768841 
L 248.589178 163.760005 
L 252.055421 163.760005 
L 252.055421 162.75117 
L 253.892469 162.75117 
L 253.966288 160.733498 
L 255.289042 160.733498 
L 255.293725 159.724662 
L 255.437256 159.724662 
L 255.437256 158.715827 
L 257.145564 158.715827 
L 257.145564 158.211409 
L 257.533949 158.211409 
L 257.533949 157.706991 
L 338.688 157.706991 
L 338.688 157.706991 
" style="fill:none;stroke:#000080;stroke-linecap:square;stroke-width:1.5;"/>
   </g>
   <g id="line2d_31">
    <defs>
     <path d="M 0 6 
C 1.591219 6 3.117479 5.367802 4.242641 4.242641 
C 5.367802 3.117479 6 1.591219 6 0 
C 6 -1.591219 5.367802 -3.117479 4.242641 -4.242641 
C 3.117479 -5.367802 1.591219 -6 0 -6 
C -1.591219 -6 -3.117479 -5.367802 -4.242641 -4.242641 
C -5.367802 -3.117479 -6 -1.591219 -6 0 
C -6 1.591219 -5.367802 3.117479 -4.242641 4.242641 
C -3.117479 5.367802 -1.591219 6 0 6 
z
" id="mbc9ab53c99" style="stroke:#000080;stroke-width:1.5;"/>
    </defs>
    <g>
     <use style="fill-opacity:0;stroke:#000080;stroke-width:1.5;" x="140.944478" xlink:href="#mbc9ab53c99" y="261.112658"/>
     <use style="fill-opacity:0;stroke:#000080;stroke-width:1.5;" x="166.7626" xlink:href="#mbc9ab53c99" y="233.874092"/>
     <use style="fill-opacity:0;stroke:#000080;stroke-width:1.5;" x="225.123921" xlink:href="#mbc9ab53c99" y="182.927885"/>
     <use style="fill-opacity:0;stroke:#000080;stroke-width:1.5;" x="257.533949" xlink:href="#mbc9ab53c99" y="158.211409"/>
     <use style="fill-opacity:0;stroke:#000080;stroke-width:1.5;" x="257.533949" xlink:href="#mbc9ab53c99" y="157.706991"/>
     <use style="fill-opacity:0;stroke:#000080;stroke-width:1.5;" x="338.688" xlink:href="#mbc9ab53c99" y="157.706991"/>
    </g>
   </g>
   <g id="line2d_32">
    <path style="fill:none;stroke:#000080;stroke-linecap:square;stroke-width:1.5;"/>
    <g/>
   </g>
   <g id="line2d_33">
    <path clip-path="url(#p4548d448f4)" d="M 258.377143 157.706991 
" style="fill:none;stroke:#000080;stroke-linecap:square;stroke-width:1.5;"/>
    <defs>
     <path d="M -12 12 
L 12 -12 
M -12 -12 
L 12 12 
" id="m2ed20b200d" style="stroke:#000080;"/>
    </defs>
    <g clip-path="url(#p4548d448f4)">
     <use style="fill:#000080;stroke:#000080;" x="258.377143" xlink:href="#m2ed20b200d" y="157.706991"/>
    </g>
   </g>
   <g id="line2d_34">
    <defs>
     <path d="M 0 1.5 
C 0.397805 1.5 0.77937 1.341951 1.06066 1.06066 
C 1.341951 0.77937 1.5 0.397805 1.5 0 
C 1.5 -0.397805 1.341951 -0.77937 1.06066 -1.06066 
C 0.77937 -1.341951 0.397805 -1.5 0 -1.5 
C -0.397805 -1.5 -0.77937 -1.341951 -1.06066 -1.06066 
C -1.341951 -0.77937 -1.5 -0.397805 -1.5 0 
C -1.5 0.397805 -1.341951 0.77937 -1.06066 1.06066 
C -0.77937 1.341951 -0.397805 1.5 0 1.5 
z
" id="m7da4d80b80" style="stroke:#ff00ff;"/>
    </defs>
    <g>
     <use style="fill:#ff00ff;stroke:#ff00ff;" x="258.208565" xlink:href="#m7da4d80b80" y="112.309381"/>
     <use style="fill:#ff00ff;stroke:#ff00ff;" x="258.208565" xlink:href="#m7da4d80b80" y="112.309381"/>
    </g>
   </g>
   <g id="line2d_35">
    <path d="M 45.512012 298.944 
L 45.512012 291.377732 
L 106.48859 291.377732 
L 106.48859 290.873314 
L 108.948899 290.873314 
L 108.948899 290.368896 
L 113.022974 290.368896 
L 113.022974 289.864478 
L 114.751048 289.864478 
L 114.751048 288.855642 
L 117.765302 288.855642 
L 117.765302 287.846806 
L 119.097192 287.846806 
L 119.097192 287.342389 
L 121.489881 287.342389 
L 121.489881 286.333553 
L 122.573415 286.333553 
L 122.573415 284.820299 
L 124.557288 284.820299 
L 124.557288 284.315881 
L 126.338353 284.315881 
L 126.338353 283.811463 
L 127.165014 283.811463 
L 127.165014 283.307045 
L 127.954256 283.307045 
L 127.954256 282.802628 
L 128.709321 282.802628 
L 128.709321 282.29821 
L 129.433047 282.29821 
L 129.433047 281.793792 
L 130.127931 281.793792 
L 130.127931 281.289374 
L 130.796184 281.289374 
L 130.796184 279.77612 
L 132.060454 279.77612 
L 132.060454 278.767284 
L 133.800029 278.767284 
L 133.800029 278.262867 
L 134.343353 278.262867 
L 134.343353 277.758449 
L 134.870259 277.758449 
L 134.870259 277.254031 
L 135.878591 277.254031 
L 135.878591 275.740777 
L 136.831795 275.740777 
L 136.831795 275.236359 
L 137.289545 275.236359 
L 137.289545 274.227523 
L 137.735587 274.227523 
L 137.735587 273.723105 
L 140.195896 273.723105 
L 140.195896 273.218688 
L 140.574203 273.218688 
L 140.574203 272.209852 
L 140.944478 272.209852 
L 140.944478 270.696598 
L 141.591783 270.696598 
L 141.591783 270.19218 
L 142.686372 270.19218 
L 142.686372 268.678927 
L 143.716296 268.678927 
L 143.716296 268.174509 
L 144.026061 268.174509 
L 144.026061 267.670091 
L 144.629556 267.670091 
L 144.629556 267.165673 
L 144.865226 267.165673 
L 144.923649 266.156837 
L 145.212864 266.156837 
L 145.212864 265.652419 
L 145.777292 265.652419 
L 145.777292 264.643583 
L 147.570215 264.643583 
L 147.570215 263.634748 
L 148.497276 263.634748 
L 148.497276 263.13033 
L 150.215485 263.13033 
L 150.215485 262.625912 
L 151.421542 262.625912 
L 151.421542 262.121494 
L 151.541675 262.121494 
L 151.541675 261.617076 
L 152.736878 261.617076 
L 152.811246 260.103822 
L 153.214697 260.103822 
L 153.214697 259.599405 
L 153.715038 259.599405 
L 153.715038 259.094987 
L 153.959927 259.094987 
L 154.029268 256.572897 
L 155.200129 256.572897 
L 155.200129 256.068479 
L 156.236431 256.068479 
L 156.236431 255.059644 
L 158.058592 255.059644 
L 158.168101 254.050808 
L 158.465753 254.050808 
L 158.465753 253.54639 
L 158.968208 253.54639 
L 158.968208 253.041972 
L 159.303838 253.041972 
L 159.354904 251.0243 
L 160.346039 251.0243 
L 160.346039 250.015465 
L 160.727241 250.015465 
L 160.797798 248.502211 
L 161.306672 248.502211 
L 161.329454 246.988957 
L 161.465522 246.988957 
L 161.465522 245.980122 
L 161.64531 245.980122 
L 161.64531 244.971286 
L 162.021314 244.971286 
L 162.021314 244.466868 
L 162.517456 244.466868 
L 162.517456 242.953614 
L 163.123555 242.953614 
L 163.123555 241.944778 
L 163.629664 241.944778 
L 163.629664 241.440361 
L 164.004716 241.440361 
L 164.082658 239.927107 
L 164.140886 239.927107 
L 164.140886 239.422689 
L 164.599841 239.422689 
L 164.599841 238.918271 
L 166.099947 238.918271 
L 166.099947 238.413853 
L 166.374858 238.413853 
L 166.374858 237.405017 
L 166.662278 237.405017 
L 166.662278 236.9006 
L 167.970232 236.9006 
L 167.970232 236.396182 
L 168.293904 236.396182 
L 168.400474 234.37851 
L 169.460402 234.37851 
L 169.460402 233.369674 
L 170.392016 233.369674 
L 170.499999 232.360839 
L 170.767069 232.360839 
L 170.767069 231.352003 
L 171.121244 231.352003 
L 171.121244 230.343167 
L 171.302098 230.343167 
L 171.302098 229.838749 
L 171.557249 229.838749 
L 171.557249 229.334331 
L 171.746192 229.334331 
L 171.746192 228.829913 
L 171.945501 228.829913 
L 171.945501 228.325495 
L 172.530112 228.325495 
L 172.554051 226.307824 
L 172.932666 226.307824 
L 172.932666 225.803406 
L 173.280304 225.803406 
L 173.326137 223.281316 
L 173.576085 223.281316 
L 173.632396 221.263645 
L 173.699729 221.263645 
L 173.699729 220.759227 
L 173.889107 220.759227 
L 173.889107 219.245973 
L 174.021557 219.245973 
L 174.021557 218.237138 
L 174.196608 218.237138 
L 174.196608 217.228302 
L 174.359138 217.228302 
L 174.412979 215.21063 
L 174.869281 215.21063 
L 174.900675 214.201794 
L 175.364924 214.201794 
L 175.364924 213.192959 
L 176.296562 213.192959 
L 176.296562 212.688541 
L 178.44579 212.688541 
L 178.44579 211.679705 
L 180.135832 211.679705 
L 180.135832 210.670869 
L 184.297772 210.670869 
L 184.297772 209.662033 
L 188.190455 209.662033 
L 188.190455 209.157616 
L 190.516707 209.157616 
L 190.516707 208.653198 
L 193.118145 208.653198 
L 193.118145 208.14878 
L 193.282892 208.14878 
L 193.391865 206.635526 
L 193.65779 206.635526 
L 193.65779 206.131108 
L 194.537502 206.131108 
L 194.537502 205.122272 
L 194.793323 205.122272 
L 194.793323 204.617855 
L 195.73006 204.617855 
L 195.73006 203.609019 
L 196.090485 203.609019 
L 196.090485 202.600183 
L 196.555724 202.600183 
L 196.555724 202.095765 
L 197.239821 202.095765 
L 197.239821 201.591347 
L 197.601955 201.591347 
L 197.601955 201.086929 
L 197.788685 201.086929 
L 197.788685 200.582511 
L 198.459456 200.582511 
L 198.459456 200.078094 
L 198.656025 200.078094 
L 198.656025 199.573676 
L 199.045258 199.573676 
L 199.045258 198.56484 
L 199.530718 198.56484 
L 199.548535 197.556004 
L 199.695468 197.556004 
L 199.695468 196.547168 
L 200.175672 196.547168 
L 200.175672 196.04275 
L 200.465299 196.04275 
L 200.465299 195.538333 
L 201.648037 195.538333 
L 201.648037 195.033915 
L 201.789556 195.033915 
L 201.789556 194.529497 
L 203.608612 194.529497 
L 203.608612 193.520661 
L 205.099132 193.520661 
L 205.099132 193.016243 
L 205.274051 193.016243 
L 205.274051 192.511825 
L 206.046311 192.511825 
L 206.156382 189.485318 
L 206.243249 189.485318 
L 206.338305 186.963228 
L 206.424272 186.963228 
L 206.424272 185.954393 
L 207.156473 185.954393 
L 207.156473 185.449975 
L 207.643001 185.449975 
L 207.643001 184.441139 
L 207.996058 184.441139 
L 207.996058 183.936721 
L 209.353927 183.936721 
L 209.353927 183.432303 
L 209.529922 183.432303 
L 209.529922 182.423467 
L 209.938475 182.423467 
L 209.938475 181.414632 
L 210.317107 181.414632 
L 210.317107 180.910214 
L 210.976745 180.910214 
L 210.976745 180.405796 
L 211.92791 180.405796 
L 212.026455 178.388124 
L 212.07614 178.388124 
L 212.07614 177.883706 
L 212.339574 177.883706 
L 212.339574 177.379288 
L 212.52309 177.379288 
L 212.591865 175.866035 
L 212.936453 175.866035 
L 212.936453 175.361617 
L 213.499865 175.361617 
L 213.499865 174.857199 
L 213.72023 174.857199 
L 213.72023 174.352781 
L 214.236262 174.352781 
L 214.236262 173.848363 
L 215.211194 173.848363 
L 215.211194 173.343945 
L 216.451025 173.343945 
L 216.520378 171.830692 
L 216.940187 171.830692 
L 216.940187 171.326274 
L 217.193596 171.326274 
L 217.193596 170.821856 
L 218.667642 170.821856 
L 218.667642 170.317438 
L 218.810695 170.317438 
L 218.810695 169.308602 
L 221.84819 169.308602 
L 221.852439 167.795349 
L 223.47856 167.795349 
L 223.47856 166.786513 
L 224.091417 166.786513 
L 224.091417 165.777677 
L 225.580422 165.777677 
L 225.580422 165.273259 
L 227.345752 165.273259 
L 227.345752 164.264423 
L 229.30654 164.264423 
L 229.30654 163.760005 
L 231.239282 163.760005 
L 231.239282 163.255588 
L 232.301248 163.255588 
L 232.301248 162.75117 
L 235.453948 162.75117 
L 235.453948 161.742334 
L 235.728665 161.742334 
L 235.728665 160.733498 
L 235.986216 160.733498 
L 235.986216 160.22908 
L 237.029292 160.22908 
L 237.029292 159.724662 
L 237.998061 159.724662 
L 237.998061 158.715827 
L 238.310578 158.715827 
L 238.310578 157.706991 
L 241.589239 157.706991 
L 241.688964 152.662812 
L 242.342452 152.662812 
L 242.342452 152.158394 
L 242.503531 152.158394 
L 242.503531 151.653976 
L 242.734056 151.653976 
L 242.734056 151.149558 
L 243.03949 151.149558 
L 243.060279 149.131887 
L 243.173448 149.131887 
L 243.187204 147.618633 
L 243.453094 147.618633 
L 243.453094 145.600961 
L 243.784186 145.600961 
L 243.788212 144.087708 
L 243.934534 144.087708 
L 243.934534 143.58329 
L 244.054877 143.58329 
L 244.054877 143.078872 
L 244.346402 143.078872 
L 244.346792 141.565618 
L 244.563961 141.565618 
L 244.567811 140.052365 
L 244.687701 140.052365 
L 244.727609 138.539111 
L 245.031073 138.539111 
L 245.031073 138.034693 
L 245.196543 138.034693 
L 245.196543 137.530275 
L 245.670553 137.530275 
L 245.670553 136.521439 
L 245.832241 136.521439 
L 245.933452 135.008186 
L 245.987831 135.008186 
L 245.997942 133.99935 
L 246.114764 133.99935 
L 246.114764 132.990514 
L 246.330785 132.990514 
L 246.330785 132.486096 
L 247.752308 132.486096 
L 247.752308 131.981678 
L 247.894764 131.981678 
L 247.894764 131.47726 
L 248.638325 131.47726 
L 248.655844 129.459589 
L 248.937824 129.459589 
L 248.937824 128.955171 
L 250.122483 128.955171 
L 250.19986 122.902156 
L 251.253289 122.902156 
L 251.253289 122.397738 
L 252.172303 122.397738 
L 252.172303 121.893321 
L 254.957829 121.893321 
L 254.959951 120.380067 
L 256.345465 120.380067 
L 256.345465 119.371231 
L 256.526259 119.371231 
L 256.534983 116.849142 
L 256.691085 116.849142 
L 256.691085 116.344724 
L 256.898273 116.344724 
L 256.898273 115.840306 
L 257.233491 115.840306 
L 257.233491 115.335888 
L 257.756644 115.335888 
L 257.756644 114.327052 
L 257.92184 114.327052 
L 257.92184 113.318216 
L 258.079811 113.318216 
L 258.079811 112.813799 
L 258.208565 112.813799 
L 258.208565 112.309381 
L 338.688 112.309381 
L 338.688 112.309381 
" style="fill:none;stroke:#ff00ff;stroke-linecap:square;stroke-width:1.5;"/>
   </g>
   <g id="line2d_36">
    <defs>
     <path d="M -0 8.485281 
L 5.091169 0 
L 0 -8.485281 
L -5.091169 -0 
z
" id="mbce02d8932" style="stroke:#ff00ff;stroke-linejoin:miter;stroke-width:1.5;"/>
    </defs>
    <g>
     <use style="fill-opacity:0;stroke:#ff00ff;stroke-linejoin:miter;stroke-width:1.5;" x="151.541675" xlink:href="#mbce02d8932" y="262.121494"/>
     <use style="fill-opacity:0;stroke:#ff00ff;stroke-linejoin:miter;stroke-width:1.5;" x="221.852439" xlink:href="#mbce02d8932" y="168.804184"/>
     <use style="fill-opacity:0;stroke:#ff00ff;stroke-linejoin:miter;stroke-width:1.5;" x="258.208565" xlink:href="#mbce02d8932" y="112.813799"/>
     <use style="fill-opacity:0;stroke:#ff00ff;stroke-linejoin:miter;stroke-width:1.5;" x="258.208565" xlink:href="#mbce02d8932" y="112.309381"/>
     <use style="fill-opacity:0;stroke:#ff00ff;stroke-linejoin:miter;stroke-width:1.5;" x="338.688" xlink:href="#mbce02d8932" y="112.309381"/>
    </g>
   </g>
   <g id="line2d_37">
    <path style="fill:none;stroke:#ff00ff;stroke-linecap:square;stroke-width:1.5;"/>
    <g/>
   </g>
   <g id="line2d_38">
    <path clip-path="url(#p4548d448f4)" d="M 258.377143 112.309381 
" style="fill:none;stroke:#ff00ff;stroke-linecap:square;stroke-width:1.5;"/>
    <defs>
     <path d="M -12 12 
L 12 -12 
M -12 -12 
L 12 12 
" id="maf611518b0" style="stroke:#ff00ff;"/>
    </defs>
    <g clip-path="url(#p4548d448f4)">
     <use style="fill:#ff00ff;stroke:#ff00ff;" x="258.377143" xlink:href="#maf611518b0" y="112.309381"/>
    </g>
   </g>
   <g id="line2d_39">
    <defs>
     <path d="M 0 1.5 
C 0.397805 1.5 0.77937 1.341951 1.06066 1.06066 
C 1.341951 0.77937 1.5 0.397805 1.5 0 
C 1.5 -0.397805 1.341951 -0.77937 1.06066 -1.06066 
C 0.77937 -1.341951 0.397805 -1.5 0 -1.5 
C -0.397805 -1.5 -0.77937 -1.341951 -1.06066 -1.06066 
C -1.341951 -0.77937 -1.5 -0.397805 -1.5 0 
C -1.5 0.397805 -1.341951 0.77937 -1.06066 1.06066 
C -0.77937 1.341951 -0.397805 1.5 0 1.5 
z
" id="m532b2ae74f" style="stroke:#ff7500;"/>
    </defs>
    <g>
     <use style="fill:#ff7500;stroke:#ff7500;" x="258.146118" xlink:href="#m532b2ae74f" y="42.195294"/>
     <use style="fill:#ff7500;stroke:#ff7500;" x="258.146118" xlink:href="#m532b2ae74f" y="42.195294"/>
    </g>
   </g>
   <g id="line2d_40">
    <path d="M 45.512012 298.944 
L 45.512012 294.908657 
L 103.623262 294.908657 
L 103.623262 294.404239 
L 106.48859 294.404239 
L 106.48859 293.899821 
L 108.948899 293.899821 
L 108.948899 293.395403 
L 111.104637 293.395403 
L 111.104637 292.890985 
L 116.323218 292.890985 
L 116.323218 292.386567 
L 117.765302 292.386567 
L 117.765302 291.377732 
L 122.573415 291.377732 
L 122.573415 290.368896 
L 124.557288 290.368896 
L 124.557288 289.864478 
L 126.338353 289.864478 
L 126.338353 288.855642 
L 127.165014 288.855642 
L 127.165014 288.351224 
L 128.709321 288.351224 
L 128.709321 287.846806 
L 132.659801 287.846806 
L 132.659801 287.342389 
L 133.239232 287.342389 
L 133.239232 286.837971 
L 133.800029 286.837971 
L 133.800029 286.333553 
L 134.343353 286.333553 
L 134.343353 285.324717 
L 134.870259 285.324717 
L 134.870259 284.820299 
L 135.878591 284.820299 
L 135.878591 284.315881 
L 136.361705 284.315881 
L 136.361705 282.802628 
L 137.735587 282.802628 
L 137.735587 281.289374 
L 138.170504 281.289374 
L 138.170504 280.784956 
L 138.594838 280.784956 
L 138.594838 280.280538 
L 139.009092 280.280538 
L 139.009092 279.77612 
L 139.413734 279.77612 
L 139.413734 279.271702 
L 139.8092 279.271702 
L 139.8092 278.767284 
L 140.195896 278.767284 
L 140.195896 278.262867 
L 140.574203 278.262867 
L 140.574203 277.758449 
L 142.010346 277.758449 
L 142.010346 277.254031 
L 144.510517 277.254031 
L 144.510517 276.749613 
L 145.665858 276.749613 
L 145.665858 275.740777 
L 147.96658 275.740777 
L 147.96658 275.236359 
L 149.467659 275.236359 
L 149.467659 274.731941 
L 149.690956 274.731941 
L 149.690956 274.227523 
L 151.975216 274.227523 
L 152.0141 273.218688 
L 152.848312 273.218688 
L 152.848312 272.71427 
L 153.142033 272.71427 
L 153.142033 271.705434 
L 153.855395 271.705434 
L 153.959927 270.696598 
L 154.607795 270.696598 
L 154.607795 270.19218 
L 154.77436 270.19218 
L 154.840544 269.183344 
L 155.741666 269.183344 
L 155.741666 268.678927 
L 156.508689 268.678927 
L 156.508689 268.174509 
L 156.776762 268.174509 
L 156.776762 267.165673 
L 157.040776 267.165673 
L 157.040776 266.661255 
L 157.613546 266.661255 
L 157.641697 265.148001 
L 157.753847 265.148001 
L 157.753847 264.643583 
L 158.784773 264.643583 
L 158.784773 264.139166 
L 159.582872 264.139166 
L 159.582872 263.634748 
L 159.783038 263.634748 
L 159.783038 263.13033 
L 160.418152 263.13033 
L 160.418152 262.121494 
L 161.030947 262.121494 
L 161.030947 261.617076 
L 161.26102 261.617076 
L 161.26102 261.112658 
L 161.374928 261.112658 
L 161.374928 260.60824 
L 162.281931 260.60824 
L 162.281931 259.599405 
L 162.62347 259.599405 
L 162.62347 259.094987 
L 162.791763 259.094987 
L 162.812686 257.581733 
L 163.327764 257.581733 
L 163.408783 256.068479 
L 163.449152 256.068479 
L 163.449152 255.564061 
L 164.063205 255.564061 
L 164.082658 254.555226 
L 164.295217 254.555226 
L 164.295217 254.050808 
L 164.675172 254.050808 
L 164.693955 253.041972 
L 165.284547 253.041972 
L 165.284547 252.537554 
L 165.59035 252.537554 
L 165.59035 251.528718 
L 165.873346 251.528718 
L 165.9084 249.511047 
L 166.34073 249.511047 
L 166.34073 248.502211 
L 167.076532 248.502211 
L 167.141909 246.484539 
L 167.207042 246.484539 
L 167.207042 245.475704 
L 167.923499 245.475704 
L 167.923499 244.971286 
L 168.46108 244.971286 
L 168.46108 243.96245 
L 176.650041 243.96245 
L 176.650041 243.458032 
L 177.740637 243.458032 
L 177.740637 242.953614 
L 178.808858 242.953614 
L 178.808858 242.449196 
L 179.351823 242.449196 
L 179.351823 241.440361 
L 179.593145 241.440361 
L 179.593145 240.935943 
L 180.328363 240.935943 
L 180.328363 240.431525 
L 180.549068 240.431525 
L 180.549068 239.927107 
L 181.491165 239.927107 
L 181.491165 238.918271 
L 181.971695 238.918271 
L 181.971695 237.909435 
L 182.172666 237.909435 
L 182.172666 237.405017 
L 199.495029 237.405017 
L 199.495029 236.9006 
L 200.244254 236.9006 
L 200.244254 236.396182 
L 200.712159 236.396182 
L 200.712159 235.387346 
L 200.99074 235.387346 
L 200.99074 234.882928 
L 201.264941 234.882928 
L 201.264941 234.37851 
L 201.491711 234.37851 
L 201.491711 233.874092 
L 201.840936 233.874092 
L 201.840936 232.865256 
L 202.115367 232.865256 
L 202.115367 231.856421 
L 202.255337 231.856421 
L 202.255337 231.352003 
L 202.394193 231.352003 
L 202.394193 230.343167 
L 202.538382 230.343167 
L 202.613233 228.829913 
L 202.696263 228.829913 
L 202.781012 227.821078 
L 202.901073 227.821078 
L 202.901073 226.812242 
L 209.410381 226.812242 
L 209.410381 225.803406 
L 209.782143 225.803406 
L 209.782143 224.79457 
L 210.092027 224.79457 
L 210.092027 224.290152 
L 210.464655 224.290152 
L 210.464655 223.785734 
L 210.588017 223.785734 
L 210.691722 222.272481 
L 210.792144 222.272481 
L 210.857442 221.263645 
L 210.921172 221.263645 
L 210.921172 220.759227 
L 211.068975 220.759227 
L 211.163333 218.741555 
L 211.236372 218.741555 
L 211.236372 218.237138 
L 211.362166 218.237138 
L 211.362166 217.228302 
L 211.492191 217.228302 
L 211.498602 215.715048 
L 211.726603 215.715048 
L 211.818738 214.706212 
L 211.946664 214.706212 
L 211.992838 212.688541 
L 212.071178 212.688541 
L 212.087299 211.175287 
L 212.188648 211.175287 
L 212.188648 210.166451 
L 212.33102 210.166451 
L 212.400555 208.653198 
L 212.510996 208.653198 
L 212.510996 207.644362 
L 212.890347 207.644362 
L 212.890347 207.139944 
L 213.611531 207.139944 
L 213.611531 206.131108 
L 213.801312 206.131108 
L 213.801312 205.62669 
L 214.203356 205.62669 
L 214.203356 204.617855 
L 216.003288 204.617855 
L 216.003288 204.113437 
L 217.33362 204.113437 
L 217.33362 203.104601 
L 217.73183 203.104601 
L 217.73183 202.095765 
L 218.037634 202.095765 
L 218.114132 200.582511 
L 218.150942 200.582511 
L 218.157944 199.069258 
L 218.333836 199.069258 
L 218.333836 198.56484 
L 218.701606 198.56484 
L 218.701606 198.060422 
L 219.065104 198.060422 
L 219.065104 197.556004 
L 219.544472 197.556004 
L 219.544472 196.547168 
L 220.163796 196.547168 
L 220.186403 195.538333 
L 220.348471 195.538333 
L 220.348471 194.529497 
L 220.881318 194.529497 
L 220.963473 193.520661 
L 221.014067 193.520661 
L 221.102994 190.998572 
L 221.126631 190.998572 
L 221.228202 187.972064 
L 222.705698 187.972064 
L 222.705698 187.467646 
L 222.858758 187.467646 
L 222.858758 186.963228 
L 223.686947 186.963228 
L 223.760092 185.449975 
L 223.801933 185.449975 
L 223.891614 180.910214 
L 223.93754 180.910214 
L 223.948217 179.39696 
L 224.080203 179.39696 
L 224.123149 178.388124 
L 224.428785 178.388124 
L 224.428785 177.379288 
L 224.658767 177.379288 
L 224.658767 176.874871 
L 224.955237 176.874871 
L 225.0557 175.361617 
L 225.320615 175.361617 
L 225.320615 174.857199 
L 225.436883 174.857199 
L 225.526016 173.848363 
L 225.831343 173.848363 
L 225.915122 172.33511 
L 225.996268 172.33511 
L 225.996268 171.326274 
L 226.257826 171.326274 
L 226.257826 170.821856 
L 226.479714 170.821856 
L 226.551791 169.81302 
L 226.710608 169.81302 
L 226.710608 169.308602 
L 226.983389 169.308602 
L 226.983389 168.804184 
L 227.343168 168.804184 
L 227.343168 168.299766 
L 227.802217 168.299766 
L 227.83541 166.282095 
L 228.074434 166.282095 
L 228.074434 165.777677 
L 228.364416 165.777677 
L 228.364416 165.273259 
L 228.499881 165.273259 
L 228.499881 164.768841 
L 228.684624 164.768841 
L 228.684624 164.264423 
L 228.930302 164.264423 
L 229.039433 161.237916 
L 229.124103 161.237916 
L 229.166517 159.724662 
L 229.322234 159.724662 
L 229.378892 158.715827 
L 229.437199 158.715827 
L 229.437199 158.211409 
L 229.552778 158.211409 
L 229.651757 156.193737 
L 229.825646 156.193737 
L 229.847597 155.184901 
L 229.995156 155.184901 
L 229.995156 154.680483 
L 230.159516 154.680483 
L 230.184564 153.16723 
L 230.443471 153.16723 
L 230.530648 151.653976 
L 230.673843 151.653976 
L 230.687928 150.140722 
L 230.977327 150.140722 
L 231.08817 147.618633 
L 231.160153 147.618633 
L 231.160153 146.609797 
L 231.544541 146.609797 
L 231.544541 145.600961 
L 231.87367 145.600961 
L 231.965501 143.58329 
L 232.230319 143.58329 
L 232.31369 142.574454 
L 232.701877 142.574454 
L 232.80647 140.556783 
L 232.920202 140.556783 
L 233.016033 139.043529 
L 233.033569 139.043529 
L 233.134714 136.521439 
L 233.407686 136.521439 
L 233.407686 136.017022 
L 233.781807 136.017022 
L 233.872674 134.503768 
L 233.916336 134.503768 
L 233.964132 133.494932 
L 234.061091 133.494932 
L 234.098671 132.486096 
L 234.180575 132.486096 
L 234.180575 131.981678 
L 234.387465 131.981678 
L 234.464936 130.468425 
L 234.603862 130.468425 
L 234.701405 128.955171 
L 234.971125 128.955171 
L 235.029429 127.946335 
L 235.233778 127.946335 
L 235.325581 126.433082 
L 235.353028 126.433082 
L 235.401608 123.910992 
L 235.493506 123.910992 
L 235.545249 121.893321 
L 235.695081 121.893321 
L 235.778441 120.380067 
L 235.844272 120.380067 
L 235.844272 119.875649 
L 236.017987 119.875649 
L 236.017987 119.371231 
L 236.155412 119.371231 
L 236.155412 118.866813 
L 236.288978 118.866813 
L 236.307843 117.857977 
L 236.498438 117.857977 
L 236.538444 116.344724 
L 236.702693 116.344724 
L 236.778075 113.318216 
L 236.881868 113.318216 
L 236.881868 112.813799 
L 236.998718 112.813799 
L 236.998718 112.309381 
L 237.248264 112.309381 
L 237.288049 111.300545 
L 237.384791 111.300545 
L 237.410635 109.282873 
L 237.724357 109.282873 
L 237.724357 108.778455 
L 237.860898 108.778455 
L 237.887457 107.76962 
L 238.01909 107.76962 
L 238.057436 106.256366 
L 238.318567 106.256366 
L 238.357636 104.743112 
L 238.593207 104.743112 
L 238.702672 103.734277 
L 239.130895 103.734277 
L 239.238091 102.221023 
L 239.268374 102.221023 
L 239.298605 101.212187 
L 239.676721 101.212187 
L 239.676721 100.707769 
L 239.846607 100.707769 
L 239.949757 97.681262 
L 240.020601 97.681262 
L 240.131668 95.159172 
L 240.282687 95.159172 
L 240.282687 94.654755 
L 240.438995 94.654755 
L 240.481382 93.141501 
L 240.593431 93.141501 
L 240.593431 92.132665 
L 240.730209 92.132665 
L 240.819449 90.114994 
L 240.854256 90.114994 
L 240.913458 87.088486 
L 241.024424 87.088486 
L 241.024424 86.584068 
L 241.333928 86.584068 
L 241.333928 86.07965 
L 241.453078 86.07965 
L 241.549692 84.566397 
L 241.56639 84.566397 
L 241.56639 83.557561 
L 241.966225 83.557561 
L 242.045371 80.531054 
L 242.118843 80.531054 
L 242.173028 79.0178 
L 242.276724 79.0178 
L 242.276724 78.513382 
L 242.429271 78.513382 
L 242.474907 77.000128 
L 242.561935 77.000128 
L 242.668717 75.486875 
L 243.089636 75.486875 
L 243.093406 74.478039 
L 243.240458 74.478039 
L 243.240458 73.973621 
L 243.51168 73.973621 
L 243.575165 72.964785 
L 243.628874 72.964785 
L 243.628874 72.460367 
L 243.775325 72.460367 
L 243.775325 71.955949 
L 243.951093 71.955949 
L 243.951093 71.451532 
L 244.073105 71.451532 
L 244.157653 69.938278 
L 244.495093 69.938278 
L 244.518659 67.920606 
L 244.950099 67.920606 
L 245.049619 66.911771 
L 245.323633 66.911771 
L 245.323633 65.902935 
L 245.581789 65.902935 
L 245.666577 63.885263 
L 246.068553 63.885263 
L 246.068553 62.876427 
L 246.183326 62.876427 
L 246.261404 61.363174 
L 246.479249 61.363174 
L 246.479249 60.858756 
L 246.873076 60.858756 
L 246.873076 59.84992 
L 247.272387 59.84992 
L 247.340002 58.336666 
L 247.458802 58.336666 
L 247.510584 56.823413 
L 248.198911 56.823413 
L 248.284045 55.814577 
L 248.571898 55.814577 
L 248.571898 55.310159 
L 248.879447 55.310159 
L 248.905583 54.301323 
L 249.896639 54.301323 
L 249.896639 53.292488 
L 250.301297 53.292488 
L 250.321237 51.274816 
L 251.070636 51.274816 
L 251.158311 49.761562 
L 251.515786 49.761562 
L 251.515786 48.752727 
L 252.420316 48.752727 
L 252.481925 47.239473 
L 252.689154 47.239473 
L 252.689154 46.230637 
L 253.323513 46.230637 
L 253.323513 45.726219 
L 253.747299 45.726219 
L 253.747299 45.221801 
L 254.210597 45.221801 
L 254.210597 44.717383 
L 254.932032 44.717383 
L 254.932032 44.212966 
L 256.100095 44.212966 
L 256.100095 43.20413 
L 258.146118 43.20413 
L 258.146118 42.195294 
L 338.688 42.195294 
L 338.688 42.195294 
" style="fill:none;stroke:#ff7500;stroke-linecap:square;stroke-width:1.5;"/>
   </g>
   <g id="line2d_41">
    <defs>
     <path d="M 0 -6 
L -1.347084 -1.854102 
L -5.706339 -1.854102 
L -2.179628 0.708204 
L -3.526712 4.854102 
L -0 2.291796 
L 3.526712 4.854102 
L 2.179628 0.708204 
L 5.706339 -1.854102 
L 1.347084 -1.854102 
z
" id="m5a6027fcb8" style="stroke:#ff7500;stroke-linejoin:bevel;stroke-width:1.5;"/>
    </defs>
    <g>
     <use style="fill-opacity:0;stroke:#ff7500;stroke-linejoin:bevel;stroke-width:1.5;" x="134.870259" xlink:href="#m5a6027fcb8" y="285.324717"/>
     <use style="fill-opacity:0;stroke:#ff7500;stroke-linejoin:bevel;stroke-width:1.5;" x="209.410381" xlink:href="#m5a6027fcb8" y="226.812242"/>
     <use style="fill-opacity:0;stroke:#ff7500;stroke-linejoin:bevel;stroke-width:1.5;" x="233.964132" xlink:href="#m5a6027fcb8" y="133.99935"/>
     <use style="fill-opacity:0;stroke:#ff7500;stroke-linejoin:bevel;stroke-width:1.5;" x="258.146118" xlink:href="#m5a6027fcb8" y="43.20413"/>
     <use style="fill-opacity:0;stroke:#ff7500;stroke-linejoin:bevel;stroke-width:1.5;" x="258.146118" xlink:href="#m5a6027fcb8" y="42.195294"/>
     <use style="fill-opacity:0;stroke:#ff7500;stroke-linejoin:bevel;stroke-width:1.5;" x="338.688" xlink:href="#m5a6027fcb8" y="42.195294"/>
    </g>
   </g>
   <g id="line2d_42">
    <path style="fill:none;stroke:#ff7500;stroke-linecap:square;stroke-width:1.5;"/>
    <g/>
   </g>
   <g id="line2d_43">
    <path clip-path="url(#p4548d448f4)" d="M 258.377143 42.195294 
" style="fill:none;stroke:#ff7500;stroke-linecap:square;stroke-width:1.5;"/>
    <defs>
     <path d="M -12 12 
L 12 -12 
M -12 -12 
L 12 12 
" id="m4d01cfef7d" style="stroke:#ff7500;"/>
    </defs>
    <g clip-path="url(#p4548d448f4)">
     <use style="fill:#ff7500;stroke:#ff7500;" x="258.377143" xlink:href="#m4d01cfef7d" y="42.195294"/>
    </g>
   </g>
   <g id="line2d_44">
    <path d="M 338.688 157.706991 
L 369.60768 293.092752 
" style="fill:none;stroke:#000080;stroke-linecap:square;stroke-width:1.5;"/>
    <g>
     <use style="fill-opacity:0;stroke:#000080;stroke-width:1.5;" x="338.688" xlink:href="#mbc9ab53c99" y="157.706991"/>
     <use style="fill-opacity:0;stroke:#000080;stroke-width:1.5;" x="369.60768" xlink:href="#mbc9ab53c99" y="293.092752"/>
    </g>
   </g>
   <g id="line2d_45">
    <path d="M 338.688 112.309381 
L 369.60768 152.662812 
" style="fill:none;stroke:#ff00ff;stroke-linecap:square;stroke-width:1.5;"/>
    <g>
     <use style="fill-opacity:0;stroke:#ff00ff;stroke-linejoin:miter;stroke-width:1.5;" x="338.688" xlink:href="#mbce02d8932" y="112.309381"/>
     <use style="fill-opacity:0;stroke:#ff00ff;stroke-linejoin:miter;stroke-width:1.5;" x="369.60768" xlink:href="#mbce02d8932" y="152.662812"/>
    </g>
   </g>
   <g id="line2d_46">
    <path d="M 338.688 42.195294 
L 369.60768 12.232871 
" style="fill:none;stroke:#ff7500;stroke-linecap:square;stroke-width:1.5;"/>
    <g>
     <use style="fill-opacity:0;stroke:#ff7500;stroke-linejoin:bevel;stroke-width:1.5;" x="338.688" xlink:href="#m5a6027fcb8" y="42.195294"/>
     <use style="fill-opacity:0;stroke:#ff7500;stroke-linejoin:bevel;stroke-width:1.5;" x="369.60768" xlink:href="#m5a6027fcb8" y="12.232871"/>
    </g>
   </g>
   <g id="line2d_47">
    <path d="M 338.688 298.944 
L 338.688 6.381624 
" style="fill:none;stroke:#000000;stroke-linecap:square;stroke-width:1.5;"/>
   </g>
   <g id="patch_3">
    <path d="M 57.6 298.944 
L 57.6 3.456 
" style="fill:none;stroke:#000000;stroke-linecap:square;stroke-linejoin:miter;stroke-width:0.8;"/>
   </g>
   <g id="patch_4">
    <path d="M 338.688 298.944 
L 338.688 3.456 
" style="fill:none;stroke:#000000;stroke-linecap:square;stroke-linejoin:miter;stroke-width:0.8;"/>
   </g>
   <g id="patch_5">
    <path d="M 57.6 298.944 
L 338.688 298.944 
" style="fill:none;stroke:#000000;stroke-linecap:square;stroke-linejoin:miter;stroke-width:0.8;"/>
   </g>
   <g id="patch_6">
    <path d="M 57.6 3.456 
L 338.688 3.456 
" style="fill:none;stroke:#000000;stroke-linecap:square;stroke-linejoin:miter;stroke-width:0.8;"/>
   </g>
   <g id="text_13">
    <!-- f35 -->
    <g transform="translate(375.22944 297.78369)scale(0.17 -0.17)">
     <defs>
      <path d="M 40.578125 39.3125 
Q 47.65625 37.796875 51.625 33 
Q 55.609375 28.21875 55.609375 21.1875 
Q 55.609375 10.40625 48.1875 4.484375 
Q 40.765625 -1.421875 27.09375 -1.421875 
Q 22.515625 -1.421875 17.65625 -0.515625 
Q 12.796875 0.390625 7.625 2.203125 
L 7.625 11.71875 
Q 11.71875 9.328125 16.59375 8.109375 
Q 21.484375 6.890625 26.8125 6.890625 
Q 36.078125 6.890625 40.9375 10.546875 
Q 45.796875 14.203125 45.796875 21.1875 
Q 45.796875 27.640625 41.28125 31.265625 
Q 36.765625 34.90625 28.71875 34.90625 
L 20.21875 34.90625 
L 20.21875 43.015625 
L 29.109375 43.015625 
Q 36.375 43.015625 40.234375 45.921875 
Q 44.09375 48.828125 44.09375 54.296875 
Q 44.09375 59.90625 40.109375 62.90625 
Q 36.140625 65.921875 28.71875 65.921875 
Q 24.65625 65.921875 20.015625 65.03125 
Q 15.375 64.15625 9.8125 62.3125 
L 9.8125 71.09375 
Q 15.4375 72.65625 20.34375 73.4375 
Q 25.25 74.21875 29.59375 74.21875 
Q 40.828125 74.21875 47.359375 69.109375 
Q 53.90625 64.015625 53.90625 55.328125 
Q 53.90625 49.265625 50.4375 45.09375 
Q 46.96875 40.921875 40.578125 39.3125 
z
" id="DejaVuSans-51"/>
      <path d="M 10.796875 72.90625 
L 49.515625 72.90625 
L 49.515625 64.59375 
L 19.828125 64.59375 
L 19.828125 46.734375 
Q 21.96875 47.46875 24.109375 47.828125 
Q 26.265625 48.1875 28.421875 48.1875 
Q 40.625 48.1875 47.75 41.5 
Q 54.890625 34.8125 54.890625 23.390625 
Q 54.890625 11.625 47.5625 5.09375 
Q 40.234375 -1.421875 26.90625 -1.421875 
Q 22.3125 -1.421875 17.546875 -0.640625 
Q 12.796875 0.140625 7.71875 1.703125 
L 7.71875 11.625 
Q 12.109375 9.234375 16.796875 8.0625 
Q 21.484375 6.890625 26.703125 6.890625 
Q 35.15625 6.890625 40.078125 11.328125 
Q 45.015625 15.765625 45.015625 23.390625 
Q 45.015625 31 40.078125 35.4375 
Q 35.15625 39.890625 26.703125 39.890625 
Q 22.75 39.890625 18.8125 39.015625 
Q 14.890625 38.140625 10.796875 36.28125 
z
" id="DejaVuSans-53"/>
     </defs>
     <use xlink:href="#DejaVuSans-102"/>
     <use x="35.205078" xlink:href="#DejaVuSans-51"/>
     <use x="98.828125" xlink:href="#DejaVuSans-53"/>
    </g>
   </g>
   <g id="text_14">
    <!-- f36 -->
    <g transform="translate(375.22944 157.353749)scale(0.17 -0.17)">
     <use xlink:href="#DejaVuSans-102"/>
     <use x="35.205078" xlink:href="#DejaVuSans-51"/>
     <use x="98.828125" xlink:href="#DejaVuSans-54"/>
    </g>
   </g>
   <g id="text_15">
    <!-- f41 -->
    <g transform="translate(375.22944 16.923809)scale(0.17 -0.17)">
     <use xlink:href="#DejaVuSans-102"/>
     <use x="35.205078" xlink:href="#DejaVuSans-52"/>
     <use x="98.828125" xlink:href="#DejaVuSans-49"/>
    </g>
   </g>
   <g id="text_16">
    <!-- bbob-biobj -->
    <g transform="translate(60.41088 14.161286)scale(0.102 -0.102)">
     <defs>
      <path d="M 48.6875 27.296875 
Q 48.6875 37.203125 44.609375 42.84375 
Q 40.53125 48.484375 33.40625 48.484375 
Q 26.265625 48.484375 22.1875 42.84375 
Q 18.109375 37.203125 18.109375 27.296875 
Q 18.109375 17.390625 22.1875 11.75 
Q 26.265625 6.109375 33.40625 6.109375 
Q 40.53125 6.109375 44.609375 11.75 
Q 48.6875 17.390625 48.6875 27.296875 
z
M 18.109375 46.390625 
Q 20.953125 51.265625 25.265625 53.625 
Q 29.59375 56 35.59375 56 
Q 45.5625 56 51.78125 48.09375 
Q 58.015625 40.1875 58.015625 27.296875 
Q 58.015625 14.40625 51.78125 6.484375 
Q 45.5625 -1.421875 35.59375 -1.421875 
Q 29.59375 -1.421875 25.265625 0.953125 
Q 20.953125 3.328125 18.109375 8.203125 
L 18.109375 0 
L 9.078125 0 
L 9.078125 75.984375 
L 18.109375 75.984375 
z
" id="DejaVuSans-98"/>
      <path d="M 9.421875 54.6875 
L 18.40625 54.6875 
L 18.40625 -0.984375 
Q 18.40625 -11.421875 14.421875 -16.109375 
Q 10.453125 -20.796875 1.609375 -20.796875 
L -1.8125 -20.796875 
L -1.8125 -13.1875 
L 0.59375 -13.1875 
Q 5.71875 -13.1875 7.5625 -10.8125 
Q 9.421875 -8.453125 9.421875 -0.984375 
z
M 9.421875 75.984375 
L 18.40625 75.984375 
L 18.40625 64.59375 
L 9.421875 64.59375 
z
" id="DejaVuSans-106"/>
     </defs>
     <use xlink:href="#DejaVuSans-98"/>
     <use x="63.476562" xlink:href="#DejaVuSans-98"/>
     <use x="126.953125" xlink:href="#DejaVuSans-111"/>
     <use x="188.134766" xlink:href="#DejaVuSans-98"/>
     <use x="251.611328" xlink:href="#DejaVuSans-45"/>
     <use x="287.695312" xlink:href="#DejaVuSans-98"/>
     <use x="351.171875" xlink:href="#DejaVuSans-105"/>
     <use x="378.955078" xlink:href="#DejaVuSans-111"/>
     <use x="440.136719" xlink:href="#DejaVuSans-98"/>
     <use x="503.613281" xlink:href="#DejaVuSans-106"/>
    </g>
    <!-- 3-ill-conditioned 3-ill-conditioned, 2-D -->
    <g transform="translate(60.41088 25.583055)scale(0.102 -0.102)">
     <defs>
      <path d="M 19.671875 64.796875 
L 19.671875 8.109375 
L 31.59375 8.109375 
Q 46.6875 8.109375 53.6875 14.9375 
Q 60.6875 21.78125 60.6875 36.53125 
Q 60.6875 51.171875 53.6875 57.984375 
Q 46.6875 64.796875 31.59375 64.796875 
z
M 9.8125 72.90625 
L 30.078125 72.90625 
Q 51.265625 72.90625 61.171875 64.09375 
Q 71.09375 55.28125 71.09375 36.53125 
Q 71.09375 17.671875 61.125 8.828125 
Q 51.171875 0 30.078125 0 
L 9.8125 0 
z
" id="DejaVuSans-68"/>
     </defs>
     <use xlink:href="#DejaVuSans-51"/>
     <use x="63.623047" xlink:href="#DejaVuSans-45"/>
     <use x="99.707031" xlink:href="#DejaVuSans-105"/>
     <use x="127.490234" xlink:href="#DejaVuSans-108"/>
     <use x="155.273438" xlink:href="#DejaVuSans-108"/>
     <use x="183.056641" xlink:href="#DejaVuSans-45"/>
     <use x="219.140625" xlink:href="#DejaVuSans-99"/>
     <use x="274.121094" xlink:href="#DejaVuSans-111"/>
     <use x="335.302734" xlink:href="#DejaVuSans-110"/>
     <use x="398.681641" xlink:href="#DejaVuSans-100"/>
     <use x="462.158203" xlink:href="#DejaVuSans-105"/>
     <use x="489.941406" xlink:href="#DejaVuSans-116"/>
     <use x="529.150391" xlink:href="#DejaVuSans-105"/>
     <use x="556.933594" xlink:href="#DejaVuSans-111"/>
     <use x="618.115234" xlink:href="#DejaVuSans-110"/>
     <use x="681.494141" xlink:href="#DejaVuSans-101"/>
     <use x="743.017578" xlink:href="#DejaVuSans-100"/>
     <use x="806.494141" xlink:href="#DejaVuSans-32"/>
     <use x="838.28125" xlink:href="#DejaVuSans-51"/>
     <use x="901.904297" xlink:href="#DejaVuSans-45"/>
     <use x="937.988281" xlink:href="#DejaVuSans-105"/>
     <use x="965.771484" xlink:href="#DejaVuSans-108"/>
     <use x="993.554688" xlink:href="#DejaVuSans-108"/>
     <use x="1021.337891" xlink:href="#DejaVuSans-45"/>
     <use x="1057.421875" xlink:href="#DejaVuSans-99"/>
     <use x="1112.402344" xlink:href="#DejaVuSans-111"/>
     <use x="1173.583984" xlink:href="#DejaVuSans-110"/>
     <use x="1236.962891" xlink:href="#DejaVuSans-100"/>
     <use x="1300.439453" xlink:href="#DejaVuSans-105"/>
     <use x="1328.222656" xlink:href="#DejaVuSans-116"/>
     <use x="1367.431641" xlink:href="#DejaVuSans-105"/>
     <use x="1395.214844" xlink:href="#DejaVuSans-111"/>
     <use x="1456.396484" xlink:href="#DejaVuSans-110"/>
     <use x="1519.775391" xlink:href="#DejaVuSans-101"/>
     <use x="1581.298828" xlink:href="#DejaVuSans-100"/>
     <use x="1644.775391" xlink:href="#DejaVuSans-44"/>
     <use x="1676.5625" xlink:href="#DejaVuSans-32"/>
     <use x="1708.349609" xlink:href="#DejaVuSans-50"/>
     <use x="1771.972656" xlink:href="#DejaVuSans-45"/>
     <use x="1808.056641" xlink:href="#DejaVuSans-68"/>
    </g>
    <!-- 58 targets: 1..-1.0e-4 -->
    <g transform="translate(60.41088 37.004824)scale(0.102 -0.102)">
     <defs>
      <path d="M 11.71875 12.40625 
L 22.015625 12.40625 
L 22.015625 0 
L 11.71875 0 
z
M 11.71875 51.703125 
L 22.015625 51.703125 
L 22.015625 39.3125 
L 11.71875 39.3125 
z
" id="DejaVuSans-58"/>
     </defs>
     <use xlink:href="#DejaVuSans-53"/>
     <use x="63.623047" xlink:href="#DejaVuSans-56"/>
     <use x="127.246094" xlink:href="#DejaVuSans-32"/>
     <use x="159.033203" xlink:href="#DejaVuSans-116"/>
     <use x="198.242188" xlink:href="#DejaVuSans-97"/>
     <use x="259.521484" xlink:href="#DejaVuSans-114"/>
     <use x="298.884766" xlink:href="#DejaVuSans-103"/>
     <use x="362.361328" xlink:href="#DejaVuSans-101"/>
     <use x="423.884766" xlink:href="#DejaVuSans-116"/>
     <use x="463.09375" xlink:href="#DejaVuSans-115"/>
     <use x="515.193359" xlink:href="#DejaVuSans-58"/>
     <use x="548.884766" xlink:href="#DejaVuSans-32"/>
     <use x="580.671875" xlink:href="#DejaVuSans-49"/>
     <use x="644.294922" xlink:href="#DejaVuSans-46"/>
     <use x="676.082031" xlink:href="#DejaVuSans-46"/>
     <use x="707.869141" xlink:href="#DejaVuSans-45"/>
     <use x="743.953125" xlink:href="#DejaVuSans-49"/>
     <use x="807.576172" xlink:href="#DejaVuSans-46"/>
     <use x="839.363281" xlink:href="#DejaVuSans-48"/>
     <use x="902.986328" xlink:href="#DejaVuSans-101"/>
     <use x="964.509766" xlink:href="#DejaVuSans-45"/>
     <use x="1000.59375" xlink:href="#DejaVuSans-52"/>
    </g>
    <!-- 10 instances -->
    <g transform="translate(60.41088 48.426593)scale(0.102 -0.102)">
     <use xlink:href="#DejaVuSans-49"/>
     <use x="63.623047" xlink:href="#DejaVuSans-48"/>
     <use x="127.246094" xlink:href="#DejaVuSans-32"/>
     <use x="159.033203" xlink:href="#DejaVuSans-105"/>
     <use x="186.816406" xlink:href="#DejaVuSans-110"/>
     <use x="250.195312" xlink:href="#DejaVuSans-115"/>
     <use x="302.294922" xlink:href="#DejaVuSans-116"/>
     <use x="341.503906" xlink:href="#DejaVuSans-97"/>
     <use x="402.783203" xlink:href="#DejaVuSans-110"/>
     <use x="466.162109" xlink:href="#DejaVuSans-99"/>
     <use x="521.142578" xlink:href="#DejaVuSans-101"/>
     <use x="582.666016" xlink:href="#DejaVuSans-115"/>
    </g>
   </g>
   <g id="text_17">
    <!-- v2.4, hv-hash=ff0e71e8cd978373 -->
    <g style="fill:#808080;" transform="translate(112.648687 293.909432)scale(0.1 -0.1)">
     <defs>
      <path d="M 54.890625 33.015625 
L 54.890625 0 
L 45.90625 0 
L 45.90625 32.71875 
Q 45.90625 40.484375 42.875 44.328125 
Q 39.84375 48.1875 33.796875 48.1875 
Q 26.515625 48.1875 22.3125 43.546875 
Q 18.109375 38.921875 18.109375 30.90625 
L 18.109375 0 
L 9.078125 0 
L 9.078125 75.984375 
L 18.109375 75.984375 
L 18.109375 46.1875 
Q 21.34375 51.125 25.703125 53.5625 
Q 30.078125 56 35.796875 56 
Q 45.21875 56 50.046875 50.171875 
Q 54.890625 44.34375 54.890625 33.015625 
z
" id="DejaVuSans-104"/>
      <path d="M 10.59375 45.40625 
L 73.1875 45.40625 
L 73.1875 37.203125 
L 10.59375 37.203125 
z
M 10.59375 25.484375 
L 73.1875 25.484375 
L 73.1875 17.1875 
L 10.59375 17.1875 
z
" id="DejaVuSans-61"/>
      <path d="M 8.203125 72.90625 
L 55.078125 72.90625 
L 55.078125 68.703125 
L 28.609375 0 
L 18.3125 0 
L 43.21875 64.59375 
L 8.203125 64.59375 
z
" id="DejaVuSans-55"/>
      <path d="M 10.984375 1.515625 
L 10.984375 10.5 
Q 14.703125 8.734375 18.5 7.8125 
Q 22.3125 6.890625 25.984375 6.890625 
Q 35.75 6.890625 40.890625 13.453125 
Q 46.046875 20.015625 46.78125 33.40625 
Q 43.953125 29.203125 39.59375 26.953125 
Q 35.25 24.703125 29.984375 24.703125 
Q 19.046875 24.703125 12.671875 31.3125 
Q 6.296875 37.9375 6.296875 49.421875 
Q 6.296875 60.640625 12.9375 67.421875 
Q 19.578125 74.21875 30.609375 74.21875 
Q 43.265625 74.21875 49.921875 64.515625 
Q 56.59375 54.828125 56.59375 36.375 
Q 56.59375 19.140625 48.40625 8.859375 
Q 40.234375 -1.421875 26.421875 -1.421875 
Q 22.703125 -1.421875 18.890625 -0.6875 
Q 15.09375 0.046875 10.984375 1.515625 
z
M 30.609375 32.421875 
Q 37.25 32.421875 41.125 36.953125 
Q 45.015625 41.5 45.015625 49.421875 
Q 45.015625 57.28125 41.125 61.84375 
Q 37.25 66.40625 30.609375 66.40625 
Q 23.96875 66.40625 20.09375 61.84375 
Q 16.21875 57.28125 16.21875 49.421875 
Q 16.21875 41.5 20.09375 36.953125 
Q 23.96875 32.421875 30.609375 32.421875 
z
" id="DejaVuSans-57"/>
     </defs>
     <use xlink:href="#DejaVuSans-118"/>
     <use x="59.179688" xlink:href="#DejaVuSans-50"/>
     <use x="122.802734" xlink:href="#DejaVuSans-46"/>
     <use x="154.589844" xlink:href="#DejaVuSans-52"/>
     <use x="218.212891" xlink:href="#DejaVuSans-44"/>
     <use x="250" xlink:href="#DejaVuSans-32"/>
     <use x="281.787109" xlink:href="#DejaVuSans-104"/>
     <use x="345.166016" xlink:href="#DejaVuSans-118"/>
     <use x="401.720703" xlink:href="#DejaVuSans-45"/>
     <use x="437.804688" xlink:href="#DejaVuSans-104"/>
     <use x="501.183594" xlink:href="#DejaVuSans-97"/>
     <use x="562.462891" xlink:href="#DejaVuSans-115"/>
     <use x="614.5625" xlink:href="#DejaVuSans-104"/>
     <use x="677.941406" xlink:href="#DejaVuSans-61"/>
     <use x="761.730469" xlink:href="#DejaVuSans-102"/>
     <use x="796.935547" xlink:href="#DejaVuSans-102"/>
     <use x="832.140625" xlink:href="#DejaVuSans-48"/>
     <use x="895.763672" xlink:href="#DejaVuSans-101"/>
     <use x="957.287109" xlink:href="#DejaVuSans-55"/>
     <use x="1020.910156" xlink:href="#DejaVuSans-49"/>
     <use x="1084.533203" xlink:href="#DejaVuSans-101"/>
     <use x="1146.056641" xlink:href="#DejaVuSans-56"/>
     <use x="1209.679688" xlink:href="#DejaVuSans-99"/>
     <use x="1264.660156" xlink:href="#DejaVuSans-100"/>
     <use x="1328.136719" xlink:href="#DejaVuSans-57"/>
     <use x="1391.759766" xlink:href="#DejaVuSans-55"/>
     <use x="1455.382812" xlink:href="#DejaVuSans-56"/>
     <use x="1519.005859" xlink:href="#DejaVuSans-51"/>
     <use x="1582.628906" xlink:href="#DejaVuSans-55"/>
     <use x="1646.251953" xlink:href="#DejaVuSans-51"/>
    </g>
   </g>
  </g>
 </g>
 <defs>
  <clipPath id="p4548d448f4">
   <rect height="295.488" width="281.088" x="57.6" y="3.456"/>
  </clipPath>
 </defs>
</svg>
