<?xml version="1.0" encoding="utf-8" standalone="no"?>
<!DOCTYPE svg PUBLIC "-//W3C//DTD SVG 1.1//EN"
  "http://www.w3.org/Graphics/SVG/1.1/DTD/svg11.dtd">
<!-- Created with matplotlib (https://matplotlib.org/) -->
<svg height="345.6pt" version="1.1" viewBox="0 0 460.8 345.6" width="460.8pt" xmlns="http://www.w3.org/2000/svg" xmlns:xlink="http://www.w3.org/1999/xlink">
 <metadata>
  <rdf:RDF xmlns:cc="http://creativecommons.org/ns#" xmlns:dc="http://purl.org/dc/elements/1.1/" xmlns:rdf="http://www.w3.org/1999/02/22-rdf-syntax-ns#">
   <cc:Work>
    <dc:type rdf:resource="http://purl.org/dc/dcmitype/StillImage"/>
    <dc:date>2021-03-30T16:55:04.603649</dc:date>
    <dc:format>image/svg+xml</dc:format>
    <dc:creator>
     <cc:Agent>
      <dc:title>Matplotlib v3.3.4, https://matplotlib.org/</dc:title>
     </cc:Agent>
    </dc:creator>
   </cc:Work>
  </rdf:RDF>
 </metadata>
 <defs>
  <style type="text/css">*{stroke-linecap:butt;stroke-linejoin:round;}</style>
 </defs>
 <g id="figure_1">
  <g id="patch_1">
   <path d="M 0 345.6 
L 460.8 345.6 
L 460.8 0 
L 0 0 
z
" style="fill:#ffffff;"/>
  </g>
  <g id="axes_1">
   <g id="patch_2">
    <path d="M 57.6 298.944 
L 338.688 298.944 
L 338.688 3.456 
L 57.6 3.456 
z
" style="fill:#ffffff;"/>
   </g>
   <g id="matplotlib.axis_1">
    <g id="xtick_1">
     <g id="line2d_1">
      <path clip-path="url(#p46120dd6b6)" d="M 57.6 298.944 
L 57.6 3.456 
" style="fill:none;stroke:#b0b0b0;stroke-linecap:square;stroke-width:0.8;"/>
     </g>
     <g id="line2d_2">
      <defs>
       <path d="M 0 0 
L 0 3.5 
" id="m58c7594a51" style="stroke:#000000;stroke-width:0.8;"/>
      </defs>
      <g>
       <use style="stroke:#000000;stroke-width:0.8;" x="57.6" xlink:href="#m58c7594a51" y="298.944"/>
      </g>
     </g>
     <g id="text_1">
      <!-- 0 -->
      <g transform="translate(51.2375 321.140875)scale(0.2 -0.2)">
       <defs>
        <path d="M 31.78125 66.40625 
Q 24.171875 66.40625 20.328125 58.90625 
Q 16.5 51.421875 16.5 36.375 
Q 16.5 21.390625 20.328125 13.890625 
Q 24.171875 6.390625 31.78125 6.390625 
Q 39.453125 6.390625 43.28125 13.890625 
Q 47.125 21.390625 47.125 36.375 
Q 47.125 51.421875 43.28125 58.90625 
Q 39.453125 66.40625 31.78125 66.40625 
z
M 31.78125 74.21875 
Q 44.046875 74.21875 50.515625 64.515625 
Q 56.984375 54.828125 56.984375 36.375 
Q 56.984375 17.96875 50.515625 8.265625 
Q 44.046875 -1.421875 31.78125 -1.421875 
Q 19.53125 -1.421875 13.0625 8.265625 
Q 6.59375 17.96875 6.59375 36.375 
Q 6.59375 54.828125 13.0625 64.515625 
Q 19.53125 74.21875 31.78125 74.21875 
z
" id="DejaVuSans-48"/>
       </defs>
       <use xlink:href="#DejaVuSans-48"/>
      </g>
     </g>
    </g>
    <g id="xtick_2">
     <g id="line2d_3">
      <path clip-path="url(#p46120dd6b6)" d="M 137.910857 298.944 
L 137.910857 3.456 
" style="fill:none;stroke:#b0b0b0;stroke-linecap:square;stroke-width:0.8;"/>
     </g>
     <g id="line2d_4">
      <g>
       <use style="stroke:#000000;stroke-width:0.8;" x="137.910857" xlink:href="#m58c7594a51" y="298.944"/>
      </g>
     </g>
     <g id="text_2">
      <!-- 2 -->
      <g transform="translate(131.548357 321.140875)scale(0.2 -0.2)">
       <defs>
        <path d="M 19.1875 8.296875 
L 53.609375 8.296875 
L 53.609375 0 
L 7.328125 0 
L 7.328125 8.296875 
Q 12.9375 14.109375 22.625 23.890625 
Q 32.328125 33.6875 34.8125 36.53125 
Q 39.546875 41.84375 41.421875 45.53125 
Q 43.3125 49.21875 43.3125 52.78125 
Q 43.3125 58.59375 39.234375 62.25 
Q 35.15625 65.921875 28.609375 65.921875 
Q 23.96875 65.921875 18.8125 64.3125 
Q 13.671875 62.703125 7.8125 59.421875 
L 7.8125 69.390625 
Q 13.765625 71.78125 18.9375 73 
Q 24.125 74.21875 28.421875 74.21875 
Q 39.75 74.21875 46.484375 68.546875 
Q 53.21875 62.890625 53.21875 53.421875 
Q 53.21875 48.921875 51.53125 44.890625 
Q 49.859375 40.875 45.40625 35.40625 
Q 44.1875 33.984375 37.640625 27.21875 
Q 31.109375 20.453125 19.1875 8.296875 
z
" id="DejaVuSans-50"/>
       </defs>
       <use xlink:href="#DejaVuSans-50"/>
      </g>
     </g>
    </g>
    <g id="xtick_3">
     <g id="line2d_5">
      <path clip-path="url(#p46120dd6b6)" d="M 218.221714 298.944 
L 218.221714 3.456 
" style="fill:none;stroke:#b0b0b0;stroke-linecap:square;stroke-width:0.8;"/>
     </g>
     <g id="line2d_6">
      <g>
       <use style="stroke:#000000;stroke-width:0.8;" x="218.221714" xlink:href="#m58c7594a51" y="298.944"/>
      </g>
     </g>
     <g id="text_3">
      <!-- 4 -->
      <g transform="translate(211.859214 321.140875)scale(0.2 -0.2)">
       <defs>
        <path d="M 37.796875 64.3125 
L 12.890625 25.390625 
L 37.796875 25.390625 
z
M 35.203125 72.90625 
L 47.609375 72.90625 
L 47.609375 25.390625 
L 58.015625 25.390625 
L 58.015625 17.1875 
L 47.609375 17.1875 
L 47.609375 0 
L 37.796875 0 
L 37.796875 17.1875 
L 4.890625 17.1875 
L 4.890625 26.703125 
z
" id="DejaVuSans-52"/>
       </defs>
       <use xlink:href="#DejaVuSans-52"/>
      </g>
     </g>
    </g>
    <g id="xtick_4">
     <g id="line2d_7">
      <path clip-path="url(#p46120dd6b6)" d="M 298.532571 298.944 
L 298.532571 3.456 
" style="fill:none;stroke:#b0b0b0;stroke-linecap:square;stroke-width:0.8;"/>
     </g>
     <g id="line2d_8">
      <g>
       <use style="stroke:#000000;stroke-width:0.8;" x="298.532571" xlink:href="#m58c7594a51" y="298.944"/>
      </g>
     </g>
     <g id="text_4">
      <!-- 6 -->
      <g transform="translate(292.170071 321.140875)scale(0.2 -0.2)">
       <defs>
        <path d="M 33.015625 40.375 
Q 26.375 40.375 22.484375 35.828125 
Q 18.609375 31.296875 18.609375 23.390625 
Q 18.609375 15.53125 22.484375 10.953125 
Q 26.375 6.390625 33.015625 6.390625 
Q 39.65625 6.390625 43.53125 10.953125 
Q 47.40625 15.53125 47.40625 23.390625 
Q 47.40625 31.296875 43.53125 35.828125 
Q 39.65625 40.375 33.015625 40.375 
z
M 52.59375 71.296875 
L 52.59375 62.3125 
Q 48.875 64.0625 45.09375 64.984375 
Q 41.3125 65.921875 37.59375 65.921875 
Q 27.828125 65.921875 22.671875 59.328125 
Q 17.53125 52.734375 16.796875 39.40625 
Q 19.671875 43.65625 24.015625 45.921875 
Q 28.375 48.1875 33.59375 48.1875 
Q 44.578125 48.1875 50.953125 41.515625 
Q 57.328125 34.859375 57.328125 23.390625 
Q 57.328125 12.15625 50.6875 5.359375 
Q 44.046875 -1.421875 33.015625 -1.421875 
Q 20.359375 -1.421875 13.671875 8.265625 
Q 6.984375 17.96875 6.984375 36.375 
Q 6.984375 53.65625 15.1875 63.9375 
Q 23.390625 74.21875 37.203125 74.21875 
Q 40.921875 74.21875 44.703125 73.484375 
Q 48.484375 72.75 52.59375 71.296875 
z
" id="DejaVuSans-54"/>
       </defs>
       <use xlink:href="#DejaVuSans-54"/>
      </g>
     </g>
    </g>
    <g id="xtick_5">
     <g id="line2d_9">
      <path clip-path="url(#p46120dd6b6)" d="M 97.755429 298.944 
L 97.755429 3.456 
" style="fill:none;stroke:#b0b0b0;stroke-linecap:square;stroke-width:0.8;"/>
     </g>
     <g id="line2d_10">
      <defs>
       <path d="M 0 0 
L 0 2 
" id="mcc7c8495a2" style="stroke:#000000;stroke-width:0.6;"/>
      </defs>
      <g>
       <use style="stroke:#000000;stroke-width:0.6;" x="97.755429" xlink:href="#mcc7c8495a2" y="298.944"/>
      </g>
     </g>
    </g>
    <g id="xtick_6">
     <g id="line2d_11">
      <path clip-path="url(#p46120dd6b6)" d="M 178.066286 298.944 
L 178.066286 3.456 
" style="fill:none;stroke:#b0b0b0;stroke-linecap:square;stroke-width:0.8;"/>
     </g>
     <g id="line2d_12">
      <g>
       <use style="stroke:#000000;stroke-width:0.6;" x="178.066286" xlink:href="#mcc7c8495a2" y="298.944"/>
      </g>
     </g>
    </g>
    <g id="xtick_7">
     <g id="line2d_13">
      <path clip-path="url(#p46120dd6b6)" d="M 258.377143 298.944 
L 258.377143 3.456 
" style="fill:none;stroke:#b0b0b0;stroke-linecap:square;stroke-width:0.8;"/>
     </g>
     <g id="line2d_14">
      <g>
       <use style="stroke:#000000;stroke-width:0.6;" x="258.377143" xlink:href="#mcc7c8495a2" y="298.944"/>
      </g>
     </g>
    </g>
    <g id="xtick_8">
     <g id="line2d_15">
      <path clip-path="url(#p46120dd6b6)" d="M 338.688 298.944 
L 338.688 3.456 
" style="fill:none;stroke:#b0b0b0;stroke-linecap:square;stroke-width:0.8;"/>
     </g>
     <g id="line2d_16">
      <g>
       <use style="stroke:#000000;stroke-width:0.6;" x="338.688" xlink:href="#mcc7c8495a2" y="298.944"/>
      </g>
     </g>
    </g>
    <g id="text_5">
     <!-- log10(# f-evals / dimension) -->
     <g transform="translate(77.764078 342.217594)scale(0.17 -0.17)">
      <defs>
       <path d="M 9.421875 75.984375 
L 18.40625 75.984375 
L 18.40625 0 
L 9.421875 0 
z
" id="DejaVuSans-108"/>
       <path d="M 30.609375 48.390625 
Q 23.390625 48.390625 19.1875 42.75 
Q 14.984375 37.109375 14.984375 27.296875 
Q 14.984375 17.484375 19.15625 11.84375 
Q 23.34375 6.203125 30.609375 6.203125 
Q 37.796875 6.203125 41.984375 11.859375 
Q 46.1875 17.53125 46.1875 27.296875 
Q 46.1875 37.015625 41.984375 42.703125 
Q 37.796875 48.390625 30.609375 48.390625 
z
M 30.609375 56 
Q 42.328125 56 49.015625 48.375 
Q 55.71875 40.765625 55.71875 27.296875 
Q 55.71875 13.875 49.015625 6.21875 
Q 42.328125 -1.421875 30.609375 -1.421875 
Q 18.84375 -1.421875 12.171875 6.21875 
Q 5.515625 13.875 5.515625 27.296875 
Q 5.515625 40.765625 12.171875 48.375 
Q 18.84375 56 30.609375 56 
z
" id="DejaVuSans-111"/>
       <path d="M 45.40625 27.984375 
Q 45.40625 37.75 41.375 43.109375 
Q 37.359375 48.484375 30.078125 48.484375 
Q 22.859375 48.484375 18.828125 43.109375 
Q 14.796875 37.75 14.796875 27.984375 
Q 14.796875 18.265625 18.828125 12.890625 
Q 22.859375 7.515625 30.078125 7.515625 
Q 37.359375 7.515625 41.375 12.890625 
Q 45.40625 18.265625 45.40625 27.984375 
z
M 54.390625 6.78125 
Q 54.390625 -7.171875 48.1875 -13.984375 
Q 42 -20.796875 29.203125 -20.796875 
Q 24.46875 -20.796875 20.265625 -20.09375 
Q 16.0625 -19.390625 12.109375 -17.921875 
L 12.109375 -9.1875 
Q 16.0625 -11.328125 19.921875 -12.34375 
Q 23.78125 -13.375 27.78125 -13.375 
Q 36.625 -13.375 41.015625 -8.765625 
Q 45.40625 -4.15625 45.40625 5.171875 
L 45.40625 9.625 
Q 42.625 4.78125 38.28125 2.390625 
Q 33.9375 0 27.875 0 
Q 17.828125 0 11.671875 7.65625 
Q 5.515625 15.328125 5.515625 27.984375 
Q 5.515625 40.671875 11.671875 48.328125 
Q 17.828125 56 27.875 56 
Q 33.9375 56 38.28125 53.609375 
Q 42.625 51.21875 45.40625 46.390625 
L 45.40625 54.6875 
L 54.390625 54.6875 
z
" id="DejaVuSans-103"/>
       <path d="M 12.40625 8.296875 
L 28.515625 8.296875 
L 28.515625 63.921875 
L 10.984375 60.40625 
L 10.984375 69.390625 
L 28.421875 72.90625 
L 38.28125 72.90625 
L 38.28125 8.296875 
L 54.390625 8.296875 
L 54.390625 0 
L 12.40625 0 
z
" id="DejaVuSans-49"/>
       <path d="M 31 75.875 
Q 24.46875 64.65625 21.28125 53.65625 
Q 18.109375 42.671875 18.109375 31.390625 
Q 18.109375 20.125 21.3125 9.0625 
Q 24.515625 -2 31 -13.1875 
L 23.1875 -13.1875 
Q 15.875 -1.703125 12.234375 9.375 
Q 8.59375 20.453125 8.59375 31.390625 
Q 8.59375 42.28125 12.203125 53.3125 
Q 15.828125 64.359375 23.1875 75.875 
z
" id="DejaVuSans-40"/>
       <path d="M 51.125 44 
L 36.921875 44 
L 32.8125 27.6875 
L 47.125 27.6875 
z
M 43.796875 71.78125 
L 38.71875 51.515625 
L 52.984375 51.515625 
L 58.109375 71.78125 
L 65.921875 71.78125 
L 60.890625 51.515625 
L 76.125 51.515625 
L 76.125 44 
L 58.984375 44 
L 54.984375 27.6875 
L 70.515625 27.6875 
L 70.515625 20.21875 
L 53.078125 20.21875 
L 48 0 
L 40.1875 0 
L 45.21875 20.21875 
L 30.90625 20.21875 
L 25.875 0 
L 18.015625 0 
L 23.09375 20.21875 
L 7.71875 20.21875 
L 7.71875 27.6875 
L 24.90625 27.6875 
L 29 44 
L 13.28125 44 
L 13.28125 51.515625 
L 30.90625 51.515625 
L 35.890625 71.78125 
z
" id="DejaVuSans-35"/>
       <path id="DejaVuSans-32"/>
       <path d="M 37.109375 75.984375 
L 37.109375 68.5 
L 28.515625 68.5 
Q 23.6875 68.5 21.796875 66.546875 
Q 19.921875 64.59375 19.921875 59.515625 
L 19.921875 54.6875 
L 34.71875 54.6875 
L 34.71875 47.703125 
L 19.921875 47.703125 
L 19.921875 0 
L 10.890625 0 
L 10.890625 47.703125 
L 2.296875 47.703125 
L 2.296875 54.6875 
L 10.890625 54.6875 
L 10.890625 58.5 
Q 10.890625 67.625 15.140625 71.796875 
Q 19.390625 75.984375 28.609375 75.984375 
z
" id="DejaVuSans-102"/>
       <path d="M 4.890625 31.390625 
L 31.203125 31.390625 
L 31.203125 23.390625 
L 4.890625 23.390625 
z
" id="DejaVuSans-45"/>
       <path d="M 56.203125 29.59375 
L 56.203125 25.203125 
L 14.890625 25.203125 
Q 15.484375 15.921875 20.484375 11.0625 
Q 25.484375 6.203125 34.421875 6.203125 
Q 39.59375 6.203125 44.453125 7.46875 
Q 49.3125 8.734375 54.109375 11.28125 
L 54.109375 2.78125 
Q 49.265625 0.734375 44.1875 -0.34375 
Q 39.109375 -1.421875 33.890625 -1.421875 
Q 20.796875 -1.421875 13.15625 6.1875 
Q 5.515625 13.8125 5.515625 26.8125 
Q 5.515625 40.234375 12.765625 48.109375 
Q 20.015625 56 32.328125 56 
Q 43.359375 56 49.78125 48.890625 
Q 56.203125 41.796875 56.203125 29.59375 
z
M 47.21875 32.234375 
Q 47.125 39.59375 43.09375 43.984375 
Q 39.0625 48.390625 32.421875 48.390625 
Q 24.90625 48.390625 20.390625 44.140625 
Q 15.875 39.890625 15.1875 32.171875 
z
" id="DejaVuSans-101"/>
       <path d="M 2.984375 54.6875 
L 12.5 54.6875 
L 29.59375 8.796875 
L 46.6875 54.6875 
L 56.203125 54.6875 
L 35.6875 0 
L 23.484375 0 
z
" id="DejaVuSans-118"/>
       <path d="M 34.28125 27.484375 
Q 23.390625 27.484375 19.1875 25 
Q 14.984375 22.515625 14.984375 16.5 
Q 14.984375 11.71875 18.140625 8.90625 
Q 21.296875 6.109375 26.703125 6.109375 
Q 34.1875 6.109375 38.703125 11.40625 
Q 43.21875 16.703125 43.21875 25.484375 
L 43.21875 27.484375 
z
M 52.203125 31.203125 
L 52.203125 0 
L 43.21875 0 
L 43.21875 8.296875 
Q 40.140625 3.328125 35.546875 0.953125 
Q 30.953125 -1.421875 24.3125 -1.421875 
Q 15.921875 -1.421875 10.953125 3.296875 
Q 6 8.015625 6 15.921875 
Q 6 25.140625 12.171875 29.828125 
Q 18.359375 34.515625 30.609375 34.515625 
L 43.21875 34.515625 
L 43.21875 35.40625 
Q 43.21875 41.609375 39.140625 45 
Q 35.0625 48.390625 27.6875 48.390625 
Q 23 48.390625 18.546875 47.265625 
Q 14.109375 46.140625 10.015625 43.890625 
L 10.015625 52.203125 
Q 14.9375 54.109375 19.578125 55.046875 
Q 24.21875 56 28.609375 56 
Q 40.484375 56 46.34375 49.84375 
Q 52.203125 43.703125 52.203125 31.203125 
z
" id="DejaVuSans-97"/>
       <path d="M 44.28125 53.078125 
L 44.28125 44.578125 
Q 40.484375 46.53125 36.375 47.5 
Q 32.28125 48.484375 27.875 48.484375 
Q 21.1875 48.484375 17.84375 46.4375 
Q 14.5 44.390625 14.5 40.28125 
Q 14.5 37.15625 16.890625 35.375 
Q 19.28125 33.59375 26.515625 31.984375 
L 29.59375 31.296875 
Q 39.15625 29.25 43.1875 25.515625 
Q 47.21875 21.78125 47.21875 15.09375 
Q 47.21875 7.46875 41.1875 3.015625 
Q 35.15625 -1.421875 24.609375 -1.421875 
Q 20.21875 -1.421875 15.453125 -0.5625 
Q 10.6875 0.296875 5.421875 2 
L 5.421875 11.28125 
Q 10.40625 8.6875 15.234375 7.390625 
Q 20.0625 6.109375 24.8125 6.109375 
Q 31.15625 6.109375 34.5625 8.28125 
Q 37.984375 10.453125 37.984375 14.40625 
Q 37.984375 18.0625 35.515625 20.015625 
Q 33.0625 21.96875 24.703125 23.78125 
L 21.578125 24.515625 
Q 13.234375 26.265625 9.515625 29.90625 
Q 5.8125 33.546875 5.8125 39.890625 
Q 5.8125 47.609375 11.28125 51.796875 
Q 16.75 56 26.8125 56 
Q 31.78125 56 36.171875 55.265625 
Q 40.578125 54.546875 44.28125 53.078125 
z
" id="DejaVuSans-115"/>
       <path d="M 25.390625 72.90625 
L 33.6875 72.90625 
L 8.296875 -9.28125 
L 0 -9.28125 
z
" id="DejaVuSans-47"/>
       <path d="M 45.40625 46.390625 
L 45.40625 75.984375 
L 54.390625 75.984375 
L 54.390625 0 
L 45.40625 0 
L 45.40625 8.203125 
Q 42.578125 3.328125 38.25 0.953125 
Q 33.9375 -1.421875 27.875 -1.421875 
Q 17.96875 -1.421875 11.734375 6.484375 
Q 5.515625 14.40625 5.515625 27.296875 
Q 5.515625 40.1875 11.734375 48.09375 
Q 17.96875 56 27.875 56 
Q 33.9375 56 38.25 53.625 
Q 42.578125 51.265625 45.40625 46.390625 
z
M 14.796875 27.296875 
Q 14.796875 17.390625 18.875 11.75 
Q 22.953125 6.109375 30.078125 6.109375 
Q 37.203125 6.109375 41.296875 11.75 
Q 45.40625 17.390625 45.40625 27.296875 
Q 45.40625 37.203125 41.296875 42.84375 
Q 37.203125 48.484375 30.078125 48.484375 
Q 22.953125 48.484375 18.875 42.84375 
Q 14.796875 37.203125 14.796875 27.296875 
z
" id="DejaVuSans-100"/>
       <path d="M 9.421875 54.6875 
L 18.40625 54.6875 
L 18.40625 0 
L 9.421875 0 
z
M 9.421875 75.984375 
L 18.40625 75.984375 
L 18.40625 64.59375 
L 9.421875 64.59375 
z
" id="DejaVuSans-105"/>
       <path d="M 52 44.1875 
Q 55.375 50.25 60.0625 53.125 
Q 64.75 56 71.09375 56 
Q 79.640625 56 84.28125 50.015625 
Q 88.921875 44.046875 88.921875 33.015625 
L 88.921875 0 
L 79.890625 0 
L 79.890625 32.71875 
Q 79.890625 40.578125 77.09375 44.375 
Q 74.3125 48.1875 68.609375 48.1875 
Q 61.625 48.1875 57.5625 43.546875 
Q 53.515625 38.921875 53.515625 30.90625 
L 53.515625 0 
L 44.484375 0 
L 44.484375 32.71875 
Q 44.484375 40.625 41.703125 44.40625 
Q 38.921875 48.1875 33.109375 48.1875 
Q 26.21875 48.1875 22.15625 43.53125 
Q 18.109375 38.875 18.109375 30.90625 
L 18.109375 0 
L 9.078125 0 
L 9.078125 54.6875 
L 18.109375 54.6875 
L 18.109375 46.1875 
Q 21.1875 51.21875 25.484375 53.609375 
Q 29.78125 56 35.6875 56 
Q 41.65625 56 45.828125 52.96875 
Q 50 49.953125 52 44.1875 
z
" id="DejaVuSans-109"/>
       <path d="M 54.890625 33.015625 
L 54.890625 0 
L 45.90625 0 
L 45.90625 32.71875 
Q 45.90625 40.484375 42.875 44.328125 
Q 39.84375 48.1875 33.796875 48.1875 
Q 26.515625 48.1875 22.3125 43.546875 
Q 18.109375 38.921875 18.109375 30.90625 
L 18.109375 0 
L 9.078125 0 
L 9.078125 54.6875 
L 18.109375 54.6875 
L 18.109375 46.1875 
Q 21.34375 51.125 25.703125 53.5625 
Q 30.078125 56 35.796875 56 
Q 45.21875 56 50.046875 50.171875 
Q 54.890625 44.34375 54.890625 33.015625 
z
" id="DejaVuSans-110"/>
       <path d="M 8.015625 75.875 
L 15.828125 75.875 
Q 23.140625 64.359375 26.78125 53.3125 
Q 30.421875 42.28125 30.421875 31.390625 
Q 30.421875 20.453125 26.78125 9.375 
Q 23.140625 -1.703125 15.828125 -13.1875 
L 8.015625 -13.1875 
Q 14.5 -2 17.703125 9.0625 
Q 20.90625 20.125 20.90625 31.390625 
Q 20.90625 42.671875 17.703125 53.65625 
Q 14.5 64.65625 8.015625 75.875 
z
" id="DejaVuSans-41"/>
      </defs>
      <use xlink:href="#DejaVuSans-108"/>
      <use x="27.783203" xlink:href="#DejaVuSans-111"/>
      <use x="88.964844" xlink:href="#DejaVuSans-103"/>
      <use x="152.441406" xlink:href="#DejaVuSans-49"/>
      <use x="216.064453" xlink:href="#DejaVuSans-48"/>
      <use x="279.6875" xlink:href="#DejaVuSans-40"/>
      <use x="318.701172" xlink:href="#DejaVuSans-35"/>
      <use x="402.490234" xlink:href="#DejaVuSans-32"/>
      <use x="434.277344" xlink:href="#DejaVuSans-102"/>
      <use x="463.982422" xlink:href="#DejaVuSans-45"/>
      <use x="500.066406" xlink:href="#DejaVuSans-101"/>
      <use x="561.589844" xlink:href="#DejaVuSans-118"/>
      <use x="620.769531" xlink:href="#DejaVuSans-97"/>
      <use x="682.048828" xlink:href="#DejaVuSans-108"/>
      <use x="709.832031" xlink:href="#DejaVuSans-115"/>
      <use x="761.931641" xlink:href="#DejaVuSans-32"/>
      <use x="793.71875" xlink:href="#DejaVuSans-47"/>
      <use x="827.410156" xlink:href="#DejaVuSans-32"/>
      <use x="859.197266" xlink:href="#DejaVuSans-100"/>
      <use x="922.673828" xlink:href="#DejaVuSans-105"/>
      <use x="950.457031" xlink:href="#DejaVuSans-109"/>
      <use x="1047.869141" xlink:href="#DejaVuSans-101"/>
      <use x="1109.392578" xlink:href="#DejaVuSans-110"/>
      <use x="1172.771484" xlink:href="#DejaVuSans-115"/>
      <use x="1224.871094" xlink:href="#DejaVuSans-105"/>
      <use x="1252.654297" xlink:href="#DejaVuSans-111"/>
      <use x="1313.835938" xlink:href="#DejaVuSans-110"/>
      <use x="1377.214844" xlink:href="#DejaVuSans-41"/>
     </g>
    </g>
   </g>
   <g id="matplotlib.axis_2">
    <g id="ytick_1">
     <g id="line2d_17">
      <path clip-path="url(#p46120dd6b6)" d="M 57.6 298.944 
L 338.688 298.944 
" style="fill:none;stroke:#b0b0b0;stroke-linecap:square;stroke-width:0.8;"/>
     </g>
     <g id="line2d_18">
      <defs>
       <path d="M 0 0 
L -3.5 0 
" id="m6099a51d01" style="stroke:#000000;stroke-width:0.8;"/>
      </defs>
      <g>
       <use style="stroke:#000000;stroke-width:0.8;" x="57.6" xlink:href="#m6099a51d01" y="298.944"/>
      </g>
     </g>
     <g id="text_6">
      <!-- 0.0 -->
      <g transform="translate(25.155 305.02275)scale(0.16 -0.16)">
       <defs>
        <path d="M 10.6875 12.40625 
L 21 12.40625 
L 21 0 
L 10.6875 0 
z
" id="DejaVuSans-46"/>
       </defs>
       <use xlink:href="#DejaVuSans-48"/>
       <use x="63.623047" xlink:href="#DejaVuSans-46"/>
       <use x="95.410156" xlink:href="#DejaVuSans-48"/>
      </g>
     </g>
    </g>
    <g id="ytick_2">
     <g id="line2d_19">
      <path clip-path="url(#p46120dd6b6)" d="M 57.6 240.431525 
L 338.688 240.431525 
" style="fill:none;stroke:#b0b0b0;stroke-linecap:square;stroke-width:0.8;"/>
     </g>
     <g id="line2d_20">
      <g>
       <use style="stroke:#000000;stroke-width:0.8;" x="57.6" xlink:href="#m6099a51d01" y="240.431525"/>
      </g>
     </g>
     <g id="text_7">
      <!-- 0.2 -->
      <g transform="translate(25.155 246.510275)scale(0.16 -0.16)">
       <use xlink:href="#DejaVuSans-48"/>
       <use x="63.623047" xlink:href="#DejaVuSans-46"/>
       <use x="95.410156" xlink:href="#DejaVuSans-50"/>
      </g>
     </g>
    </g>
    <g id="ytick_3">
     <g id="line2d_21">
      <path clip-path="url(#p46120dd6b6)" d="M 57.6 181.91905 
L 338.688 181.91905 
" style="fill:none;stroke:#b0b0b0;stroke-linecap:square;stroke-width:0.8;"/>
     </g>
     <g id="line2d_22">
      <g>
       <use style="stroke:#000000;stroke-width:0.8;" x="57.6" xlink:href="#m6099a51d01" y="181.91905"/>
      </g>
     </g>
     <g id="text_8">
      <!-- 0.4 -->
      <g transform="translate(25.155 187.9978)scale(0.16 -0.16)">
       <use xlink:href="#DejaVuSans-48"/>
       <use x="63.623047" xlink:href="#DejaVuSans-46"/>
       <use x="95.410156" xlink:href="#DejaVuSans-52"/>
      </g>
     </g>
    </g>
    <g id="ytick_4">
     <g id="line2d_23">
      <path clip-path="url(#p46120dd6b6)" d="M 57.6 123.406574 
L 338.688 123.406574 
" style="fill:none;stroke:#b0b0b0;stroke-linecap:square;stroke-width:0.8;"/>
     </g>
     <g id="line2d_24">
      <g>
       <use style="stroke:#000000;stroke-width:0.8;" x="57.6" xlink:href="#m6099a51d01" y="123.406574"/>
      </g>
     </g>
     <g id="text_9">
      <!-- 0.6 -->
      <g transform="translate(25.155 129.485324)scale(0.16 -0.16)">
       <use xlink:href="#DejaVuSans-48"/>
       <use x="63.623047" xlink:href="#DejaVuSans-46"/>
       <use x="95.410156" xlink:href="#DejaVuSans-54"/>
      </g>
     </g>
    </g>
    <g id="ytick_5">
     <g id="line2d_25">
      <path clip-path="url(#p46120dd6b6)" d="M 57.6 64.894099 
L 338.688 64.894099 
" style="fill:none;stroke:#b0b0b0;stroke-linecap:square;stroke-width:0.8;"/>
     </g>
     <g id="line2d_26">
      <g>
       <use style="stroke:#000000;stroke-width:0.8;" x="57.6" xlink:href="#m6099a51d01" y="64.894099"/>
      </g>
     </g>
     <g id="text_10">
      <!-- 0.8 -->
      <g transform="translate(25.155 70.972849)scale(0.16 -0.16)">
       <defs>
        <path d="M 31.78125 34.625 
Q 24.75 34.625 20.71875 30.859375 
Q 16.703125 27.09375 16.703125 20.515625 
Q 16.703125 13.921875 20.71875 10.15625 
Q 24.75 6.390625 31.78125 6.390625 
Q 38.8125 6.390625 42.859375 10.171875 
Q 46.921875 13.96875 46.921875 20.515625 
Q 46.921875 27.09375 42.890625 30.859375 
Q 38.875 34.625 31.78125 34.625 
z
M 21.921875 38.8125 
Q 15.578125 40.375 12.03125 44.71875 
Q 8.5 49.078125 8.5 55.328125 
Q 8.5 64.0625 14.71875 69.140625 
Q 20.953125 74.21875 31.78125 74.21875 
Q 42.671875 74.21875 48.875 69.140625 
Q 55.078125 64.0625 55.078125 55.328125 
Q 55.078125 49.078125 51.53125 44.71875 
Q 48 40.375 41.703125 38.8125 
Q 48.828125 37.15625 52.796875 32.3125 
Q 56.78125 27.484375 56.78125 20.515625 
Q 56.78125 9.90625 50.3125 4.234375 
Q 43.84375 -1.421875 31.78125 -1.421875 
Q 19.734375 -1.421875 13.25 4.234375 
Q 6.78125 9.90625 6.78125 20.515625 
Q 6.78125 27.484375 10.78125 32.3125 
Q 14.796875 37.15625 21.921875 38.8125 
z
M 18.3125 54.390625 
Q 18.3125 48.734375 21.84375 45.5625 
Q 25.390625 42.390625 31.78125 42.390625 
Q 38.140625 42.390625 41.71875 45.5625 
Q 45.3125 48.734375 45.3125 54.390625 
Q 45.3125 60.0625 41.71875 63.234375 
Q 38.140625 66.40625 31.78125 66.40625 
Q 25.390625 66.40625 21.84375 63.234375 
Q 18.3125 60.0625 18.3125 54.390625 
z
" id="DejaVuSans-56"/>
       </defs>
       <use xlink:href="#DejaVuSans-48"/>
       <use x="63.623047" xlink:href="#DejaVuSans-46"/>
       <use x="95.410156" xlink:href="#DejaVuSans-56"/>
      </g>
     </g>
    </g>
    <g id="ytick_6">
     <g id="line2d_27">
      <path clip-path="url(#p46120dd6b6)" d="M 57.6 6.381624 
L 338.688 6.381624 
" style="fill:none;stroke:#b0b0b0;stroke-linecap:square;stroke-width:0.8;"/>
     </g>
     <g id="line2d_28">
      <g>
       <use style="stroke:#000000;stroke-width:0.8;" x="57.6" xlink:href="#m6099a51d01" y="6.381624"/>
      </g>
     </g>
     <g id="text_11">
      <!-- 1.0 -->
      <g transform="translate(25.155 12.460374)scale(0.16 -0.16)">
       <use xlink:href="#DejaVuSans-49"/>
       <use x="63.623047" xlink:href="#DejaVuSans-46"/>
       <use x="95.410156" xlink:href="#DejaVuSans-48"/>
      </g>
     </g>
    </g>
    <g id="text_12">
     <!-- Fraction of function,target pairs -->
     <g transform="translate(17.619531 285.585)rotate(-90)scale(0.17 -0.17)">
      <defs>
       <path d="M 9.8125 72.90625 
L 51.703125 72.90625 
L 51.703125 64.59375 
L 19.671875 64.59375 
L 19.671875 43.109375 
L 48.578125 43.109375 
L 48.578125 34.8125 
L 19.671875 34.8125 
L 19.671875 0 
L 9.8125 0 
z
" id="DejaVuSans-70"/>
       <path d="M 41.109375 46.296875 
Q 39.59375 47.171875 37.8125 47.578125 
Q 36.03125 48 33.890625 48 
Q 26.265625 48 22.1875 43.046875 
Q 18.109375 38.09375 18.109375 28.8125 
L 18.109375 0 
L 9.078125 0 
L 9.078125 54.6875 
L 18.109375 54.6875 
L 18.109375 46.1875 
Q 20.953125 51.171875 25.484375 53.578125 
Q 30.03125 56 36.53125 56 
Q 37.453125 56 38.578125 55.875 
Q 39.703125 55.765625 41.0625 55.515625 
z
" id="DejaVuSans-114"/>
       <path d="M 48.78125 52.59375 
L 48.78125 44.1875 
Q 44.96875 46.296875 41.140625 47.34375 
Q 37.3125 48.390625 33.40625 48.390625 
Q 24.65625 48.390625 19.8125 42.84375 
Q 14.984375 37.3125 14.984375 27.296875 
Q 14.984375 17.28125 19.8125 11.734375 
Q 24.65625 6.203125 33.40625 6.203125 
Q 37.3125 6.203125 41.140625 7.25 
Q 44.96875 8.296875 48.78125 10.40625 
L 48.78125 2.09375 
Q 45.015625 0.34375 40.984375 -0.53125 
Q 36.96875 -1.421875 32.421875 -1.421875 
Q 20.0625 -1.421875 12.78125 6.34375 
Q 5.515625 14.109375 5.515625 27.296875 
Q 5.515625 40.671875 12.859375 48.328125 
Q 20.21875 56 33.015625 56 
Q 37.15625 56 41.109375 55.140625 
Q 45.0625 54.296875 48.78125 52.59375 
z
" id="DejaVuSans-99"/>
       <path d="M 18.3125 70.21875 
L 18.3125 54.6875 
L 36.8125 54.6875 
L 36.8125 47.703125 
L 18.3125 47.703125 
L 18.3125 18.015625 
Q 18.3125 11.328125 20.140625 9.421875 
Q 21.96875 7.515625 27.59375 7.515625 
L 36.8125 7.515625 
L 36.8125 0 
L 27.59375 0 
Q 17.1875 0 13.234375 3.875 
Q 9.28125 7.765625 9.28125 18.015625 
L 9.28125 47.703125 
L 2.6875 47.703125 
L 2.6875 54.6875 
L 9.28125 54.6875 
L 9.28125 70.21875 
z
" id="DejaVuSans-116"/>
       <path d="M 8.5 21.578125 
L 8.5 54.6875 
L 17.484375 54.6875 
L 17.484375 21.921875 
Q 17.484375 14.15625 20.5 10.265625 
Q 23.53125 6.390625 29.59375 6.390625 
Q 36.859375 6.390625 41.078125 11.03125 
Q 45.3125 15.671875 45.3125 23.6875 
L 45.3125 54.6875 
L 54.296875 54.6875 
L 54.296875 0 
L 45.3125 0 
L 45.3125 8.40625 
Q 42.046875 3.421875 37.71875 1 
Q 33.40625 -1.421875 27.6875 -1.421875 
Q 18.265625 -1.421875 13.375 4.4375 
Q 8.5 10.296875 8.5 21.578125 
z
M 31.109375 56 
z
" id="DejaVuSans-117"/>
       <path d="M 11.71875 12.40625 
L 22.015625 12.40625 
L 22.015625 4 
L 14.015625 -11.625 
L 7.71875 -11.625 
L 11.71875 4 
z
" id="DejaVuSans-44"/>
       <path d="M 18.109375 8.203125 
L 18.109375 -20.796875 
L 9.078125 -20.796875 
L 9.078125 54.6875 
L 18.109375 54.6875 
L 18.109375 46.390625 
Q 20.953125 51.265625 25.265625 53.625 
Q 29.59375 56 35.59375 56 
Q 45.5625 56 51.78125 48.09375 
Q 58.015625 40.1875 58.015625 27.296875 
Q 58.015625 14.40625 51.78125 6.484375 
Q 45.5625 -1.421875 35.59375 -1.421875 
Q 29.59375 -1.421875 25.265625 0.953125 
Q 20.953125 3.328125 18.109375 8.203125 
z
M 48.6875 27.296875 
Q 48.6875 37.203125 44.609375 42.84375 
Q 40.53125 48.484375 33.40625 48.484375 
Q 26.265625 48.484375 22.1875 42.84375 
Q 18.109375 37.203125 18.109375 27.296875 
Q 18.109375 17.390625 22.1875 11.75 
Q 26.265625 6.109375 33.40625 6.109375 
Q 40.53125 6.109375 44.609375 11.75 
Q 48.6875 17.390625 48.6875 27.296875 
z
" id="DejaVuSans-112"/>
      </defs>
      <use xlink:href="#DejaVuSans-70"/>
      <use x="50.269531" xlink:href="#DejaVuSans-114"/>
      <use x="91.382812" xlink:href="#DejaVuSans-97"/>
      <use x="152.662109" xlink:href="#DejaVuSans-99"/>
      <use x="207.642578" xlink:href="#DejaVuSans-116"/>
      <use x="246.851562" xlink:href="#DejaVuSans-105"/>
      <use x="274.634766" xlink:href="#DejaVuSans-111"/>
      <use x="335.816406" xlink:href="#DejaVuSans-110"/>
      <use x="399.195312" xlink:href="#DejaVuSans-32"/>
      <use x="430.982422" xlink:href="#DejaVuSans-111"/>
      <use x="492.164062" xlink:href="#DejaVuSans-102"/>
      <use x="527.369141" xlink:href="#DejaVuSans-32"/>
      <use x="559.15625" xlink:href="#DejaVuSans-102"/>
      <use x="594.361328" xlink:href="#DejaVuSans-117"/>
      <use x="657.740234" xlink:href="#DejaVuSans-110"/>
      <use x="721.119141" xlink:href="#DejaVuSans-99"/>
      <use x="776.099609" xlink:href="#DejaVuSans-116"/>
      <use x="815.308594" xlink:href="#DejaVuSans-105"/>
      <use x="843.091797" xlink:href="#DejaVuSans-111"/>
      <use x="904.273438" xlink:href="#DejaVuSans-110"/>
      <use x="967.652344" xlink:href="#DejaVuSans-44"/>
      <use x="999.439453" xlink:href="#DejaVuSans-116"/>
      <use x="1038.648438" xlink:href="#DejaVuSans-97"/>
      <use x="1099.927734" xlink:href="#DejaVuSans-114"/>
      <use x="1139.291016" xlink:href="#DejaVuSans-103"/>
      <use x="1202.767578" xlink:href="#DejaVuSans-101"/>
      <use x="1264.291016" xlink:href="#DejaVuSans-116"/>
      <use x="1303.5" xlink:href="#DejaVuSans-32"/>
      <use x="1335.287109" xlink:href="#DejaVuSans-112"/>
      <use x="1398.763672" xlink:href="#DejaVuSans-97"/>
      <use x="1460.042969" xlink:href="#DejaVuSans-105"/>
      <use x="1487.826172" xlink:href="#DejaVuSans-114"/>
      <use x="1528.939453" xlink:href="#DejaVuSans-115"/>
     </g>
    </g>
   </g>
   <g id="line2d_29">
    <defs>
     <path d="M 0 1.5 
C 0.397805 1.5 0.77937 1.341951 1.06066 1.06066 
C 1.341951 0.77937 1.5 0.397805 1.5 0 
C 1.5 -0.397805 1.341951 -0.77937 1.06066 -1.06066 
C 0.77937 -1.341951 0.397805 -1.5 0 -1.5 
C -0.397805 -1.5 -0.77937 -1.341951 -1.06066 -1.06066 
C -1.341951 -0.77937 -1.5 -0.397805 -1.5 0 
C -1.5 0.397805 -1.341951 0.77937 -1.06066 1.06066 
C -0.77937 1.341951 -0.397805 1.5 0 1.5 
z
" id="m10a5a46261" style="stroke:#000080;"/>
    </defs>
    <g>
     <use style="fill:#000080;stroke:#000080;" x="257.966892" xlink:href="#m10a5a46261" y="129.459589"/>
     <use style="fill:#000080;stroke:#000080;" x="257.966892" xlink:href="#m10a5a46261" y="129.459589"/>
    </g>
   </g>
   <g id="line2d_30">
    <path d="M 45.512012 298.944 
L 45.512012 296.421911 
L 108.948899 296.421911 
L 108.948899 293.395403 
L 111.104637 293.395403 
L 111.104637 290.368896 
L 113.022974 290.368896 
L 113.022974 289.864478 
L 116.323218 289.864478 
L 116.323218 289.36006 
L 117.765302 289.36006 
L 117.765302 288.855642 
L 119.097192 288.855642 
L 119.097192 287.846806 
L 120.33454 287.846806 
L 120.33454 287.342389 
L 121.489881 287.342389 
L 121.489881 286.333553 
L 122.573415 286.333553 
L 122.573415 284.820299 
L 123.593547 284.820299 
L 123.593547 284.315881 
L 125.470548 284.315881 
L 125.470548 283.811463 
L 126.338353 283.811463 
L 126.338353 282.802628 
L 127.165014 282.802628 
L 127.165014 281.793792 
L 127.954256 281.793792 
L 127.954256 280.784956 
L 128.709321 280.784956 
L 128.709321 279.271702 
L 129.433047 279.271702 
L 129.433047 278.767284 
L 130.127931 278.767284 
L 130.127931 278.262867 
L 130.796184 278.262867 
L 130.796184 277.254031 
L 131.439773 277.254031 
L 131.439773 276.749613 
L 132.060454 276.749613 
L 132.060454 275.740777 
L 133.239232 275.740777 
L 133.239232 274.731941 
L 133.800029 274.731941 
L 133.800029 274.227523 
L 134.343353 274.227523 
L 134.343353 273.218688 
L 134.870259 273.218688 
L 134.870259 270.696598 
L 135.381712 270.696598 
L 135.381712 269.183344 
L 135.878591 269.183344 
L 135.878591 268.678927 
L 136.831795 268.678927 
L 136.831795 267.670091 
L 138.594838 267.670091 
L 138.67848 265.148001 
L 139.413734 265.148001 
L 139.413734 264.643583 
L 140.195896 264.643583 
L 140.195896 264.139166 
L 142.010346 264.139166 
L 142.010346 263.634748 
L 142.686372 263.634748 
L 142.686372 262.625912 
L 143.014805 262.625912 
L 143.014805 262.121494 
L 143.337167 262.121494 
L 143.337167 261.617076 
L 143.653678 261.617076 
L 143.653678 260.60824 
L 145.155404 260.60824 
L 145.155404 260.103822 
L 145.998045 260.103822 
L 146.107383 259.094987 
L 147.061745 259.094987 
L 147.061745 258.590569 
L 148.064279 258.590569 
L 148.064279 258.086151 
L 149.241465 258.086151 
L 149.241465 257.077315 
L 150.429467 257.077315 
L 150.429467 256.068479 
L 152.995791 256.068479 
L 152.995791 255.564061 
L 155.004911 255.564061 
L 155.004911 254.555226 
L 155.83551 254.555226 
L 155.83551 254.050808 
L 157.669802 254.050808 
L 157.669802 253.041972 
L 157.837488 253.041972 
L 157.837488 252.033136 
L 158.086033 252.033136 
L 158.086033 251.528718 
L 158.438903 251.528718 
L 158.492562 250.519883 
L 158.625992 250.519883 
L 158.625992 250.015465 
L 159.201253 250.015465 
L 159.201253 249.006629 
L 159.733212 249.006629 
L 159.733212 248.502211 
L 160.297798 248.502211 
L 160.297798 247.997793 
L 161.238149 247.997793 
L 161.238149 246.988957 
L 162.043181 246.988957 
L 162.043181 246.484539 
L 162.238764 246.484539 
L 162.238764 245.980122 
L 163.041197 245.980122 
L 163.041197 245.475704 
L 163.52961 245.475704 
L 163.52961 244.466868 
L 164.024234 244.466868 
L 164.024234 243.458032 
L 164.505216 243.458032 
L 164.505216 242.953614 
L 164.973287 242.953614 
L 164.973287 241.944778 
L 165.429123 241.944778 
L 165.429123 240.431525 
L 165.873346 240.431525 
L 165.873346 239.422689 
L 166.306535 239.422689 
L 166.306535 237.909435 
L 166.795913 237.909435 
L 166.795913 237.405017 
L 166.96153 237.405017 
L 166.96153 236.396182 
L 167.0929 236.396182 
L 167.0929 235.387346 
L 167.368818 235.387346 
L 167.368818 234.882928 
L 168.001318 234.882928 
L 168.001318 233.874092 
L 168.611679 233.874092 
L 168.611679 232.865256 
L 169.055827 232.865256 
L 169.055827 232.360839 
L 169.345764 232.360839 
L 169.345764 231.856421 
L 173.14208 231.856421 
L 173.14208 231.352003 
L 173.587362 231.352003 
L 173.643636 229.838749 
L 175.180705 229.838749 
L 175.180705 228.829913 
L 175.78735 228.829913 
L 175.78735 228.325495 
L 176.564717 228.325495 
L 176.564717 227.821078 
L 177.802715 227.821078 
L 177.838089 226.812242 
L 177.934998 226.812242 
L 177.934998 226.307824 
L 178.10983 226.307824 
L 178.10983 225.803406 
L 178.282926 225.803406 
L 178.282926 224.79457 
L 178.45432 224.79457 
L 178.45432 224.290152 
L 178.624047 224.290152 
L 178.624047 223.785734 
L 178.792138 223.785734 
L 178.792138 223.281316 
L 179.164521 223.281316 
L 179.164521 222.272481 
L 179.521099 222.272481 
L 179.521099 221.768063 
L 181.026478 221.768063 
L 181.026478 221.263645 
L 181.534102 221.263645 
L 181.569801 219.750391 
L 182.179555 219.750391 
L 182.179555 218.741555 
L 182.762047 218.741555 
L 182.762047 218.237138 
L 184.659972 218.237138 
L 184.659972 217.228302 
L 184.926769 217.228302 
L 184.926769 216.723884 
L 185.550905 216.723884 
L 185.647145 215.21063 
L 185.680986 215.21063 
L 185.680986 214.706212 
L 195.815353 214.706212 
L 195.909637 209.662033 
L 196.003413 209.662033 
L 196.081177 207.644362 
L 196.765874 207.644362 
L 196.765874 207.139944 
L 197.079358 207.139944 
L 197.079358 206.131108 
L 199.110598 206.131108 
L 199.110598 203.609019 
L 208.798569 203.609019 
L 208.798569 203.104601 
L 208.926821 203.104601 
L 208.926821 202.095765 
L 209.077722 202.095765 
L 209.077722 201.591347 
L 209.313283 201.591347 
L 209.313283 201.086929 
L 210.078124 201.086929 
L 210.078124 200.582511 
L 210.50542 200.582511 
L 210.609617 198.56484 
L 210.774779 198.56484 
L 210.864092 195.538333 
L 210.913218 195.538333 
L 210.913218 195.033915 
L 211.099172 195.033915 
L 211.118839 193.520661 
L 211.289653 193.520661 
L 211.289653 193.016243 
L 211.443384 193.016243 
L 211.443384 192.511825 
L 212.266115 192.511825 
L 212.266115 192.007407 
L 213.335629 192.007407 
L 213.335629 190.998572 
L 213.916652 190.998572 
L 213.966805 188.9809 
L 214.282227 188.9809 
L 214.282227 187.972064 
L 214.986962 187.972064 
L 214.986962 187.467646 
L 215.325842 187.467646 
L 215.325842 186.963228 
L 219.200825 186.963228 
L 219.200825 185.954393 
L 219.793253 185.954393 
L 219.793253 185.449975 
L 220.092664 185.449975 
L 220.092664 184.945557 
L 222.102013 184.945557 
L 222.102013 183.936721 
L 222.591373 183.936721 
L 222.63137 181.91905 
L 224.380462 181.91905 
L 224.435502 179.39696 
L 225.662567 179.39696 
L 225.662567 178.892542 
L 225.900532 178.892542 
L 225.980069 175.361617 
L 226.029178 175.361617 
L 226.07537 174.352781 
L 226.165731 174.352781 
L 226.237463 171.830692 
L 226.30232 171.830692 
L 226.393153 170.317438 
L 229.509925 170.317438 
L 229.509925 169.308602 
L 230.351507 169.308602 
L 230.351507 168.299766 
L 231.90871 168.299766 
L 231.90871 167.795349 
L 232.629509 167.795349 
L 232.629509 166.786513 
L 232.821954 166.786513 
L 232.838933 165.273259 
L 234.5448 165.273259 
L 234.5448 164.768841 
L 235.103774 164.768841 
L 235.103774 164.264423 
L 235.271542 164.264423 
L 235.271542 163.760005 
L 235.44031 163.760005 
L 235.44031 162.75117 
L 235.551706 162.75117 
L 235.551706 162.246752 
L 235.867111 162.246752 
L 235.867111 161.742334 
L 236.561002 161.742334 
L 236.561002 160.733498 
L 236.845041 160.733498 
L 236.925778 159.220244 
L 237.384791 159.220244 
L 237.406572 157.706991 
L 238.527197 157.706991 
L 238.527197 157.202573 
L 239.156902 157.202573 
L 239.156902 156.698155 
L 239.520339 156.698155 
L 239.520339 156.193737 
L 239.68742 156.193737 
L 239.781891 154.176066 
L 239.841307 154.176066 
L 239.841307 152.662812 
L 240.851159 152.662812 
L 240.907523 151.149558 
L 241.285435 151.149558 
L 241.285435 150.140722 
L 242.071599 150.140722 
L 242.125708 148.627469 
L 243.090683 148.627469 
L 243.090683 148.123051 
L 243.261839 148.123051 
L 243.261839 147.618633 
L 243.440368 147.618633 
L 243.440368 147.114215 
L 244.17538 147.114215 
L 244.17538 146.609797 
L 244.302875 146.609797 
L 244.302875 145.600961 
L 245.282481 145.600961 
L 245.282481 145.096544 
L 245.494397 145.096544 
L 245.494397 144.087708 
L 246.117406 144.087708 
L 246.117406 143.58329 
L 247.314533 143.58329 
L 247.36199 142.070036 
L 247.862287 142.070036 
L 247.942891 141.0612 
L 248.965369 141.0612 
L 249.014364 139.043529 
L 249.478736 139.043529 
L 249.532249 138.034693 
L 249.59671 138.034693 
L 249.640799 135.512604 
L 249.792527 135.512604 
L 249.858593 134.503768 
L 250.924995 134.503768 
L 250.924995 133.99935 
L 251.351406 133.99935 
L 251.351406 132.990514 
L 252.290633 132.990514 
L 252.290633 131.981678 
L 254.632639 131.981678 
L 254.632639 131.47726 
L 255.861198 131.47726 
L 255.865932 130.468425 
L 256.571384 130.468425 
L 256.571384 129.964007 
L 257.966892 129.964007 
L 257.966892 129.459589 
L 338.688 129.459589 
L 338.688 129.459589 
" style="fill:none;stroke:#000080;stroke-linecap:square;stroke-width:1.5;"/>
   </g>
   <g id="line2d_31">
    <defs>
     <path d="M 0 6 
C 1.591219 6 3.117479 5.367802 4.242641 4.242641 
C 5.367802 3.117479 6 1.591219 6 0 
C 6 -1.591219 5.367802 -3.117479 4.242641 -4.242641 
C 3.117479 -5.367802 1.591219 -6 0 -6 
C -1.591219 -6 -3.117479 -5.367802 -4.242641 -4.242641 
C -5.367802 -3.117479 -6 -1.591219 -6 0 
C -6 1.591219 -5.367802 3.117479 -4.242641 4.242641 
C -3.117479 5.367802 -1.591219 6 0 6 
z
" id="md0bf19b0e2" style="stroke:#000080;stroke-width:1.5;"/>
    </defs>
    <g>
     <use style="fill-opacity:0;stroke:#000080;stroke-width:1.5;" x="142.686372" xlink:href="#md0bf19b0e2" y="263.634748"/>
     <use style="fill-opacity:0;stroke:#000080;stroke-width:1.5;" x="181.026478" xlink:href="#md0bf19b0e2" y="221.263645"/>
     <use style="fill-opacity:0;stroke:#000080;stroke-width:1.5;" x="239.68742" xlink:href="#md0bf19b0e2" y="155.184901"/>
     <use style="fill-opacity:0;stroke:#000080;stroke-width:1.5;" x="257.966892" xlink:href="#md0bf19b0e2" y="129.459589"/>
     <use style="fill-opacity:0;stroke:#000080;stroke-width:1.5;" x="257.966892" xlink:href="#md0bf19b0e2" y="129.459589"/>
     <use style="fill-opacity:0;stroke:#000080;stroke-width:1.5;" x="338.688" xlink:href="#md0bf19b0e2" y="129.459589"/>
    </g>
   </g>
   <g id="line2d_32">
    <path style="fill:none;stroke:#000080;stroke-linecap:square;stroke-width:1.5;"/>
    <g/>
   </g>
   <g id="line2d_33">
    <path clip-path="url(#p46120dd6b6)" d="M 258.377143 129.459589 
" style="fill:none;stroke:#000080;stroke-linecap:square;stroke-width:1.5;"/>
    <defs>
     <path d="M -12 12 
L 12 -12 
M -12 -12 
L 12 12 
" id="mce966dbb33" style="stroke:#000080;"/>
    </defs>
    <g clip-path="url(#p46120dd6b6)">
     <use style="fill:#000080;stroke:#000080;" x="258.377143" xlink:href="#mce966dbb33" y="129.459589"/>
    </g>
   </g>
   <g id="line2d_34">
    <defs>
     <path d="M 0 1.5 
C 0.397805 1.5 0.77937 1.341951 1.06066 1.06066 
C 1.341951 0.77937 1.5 0.397805 1.5 0 
C 1.5 -0.397805 1.341951 -0.77937 1.06066 -1.06066 
C 0.77937 -1.341951 0.397805 -1.5 0 -1.5 
C -0.397805 -1.5 -0.77937 -1.341951 -1.06066 -1.06066 
C -1.341951 -0.77937 -1.5 -0.397805 -1.5 0 
C -1.5 0.397805 -1.341951 0.77937 -1.06066 1.06066 
C -0.77937 1.341951 -0.397805 1.5 0 1.5 
z
" id="mf60e4a00c2" style="stroke:#ff00ff;"/>
    </defs>
    <g>
     <use style="fill:#ff00ff;stroke:#ff00ff;" x="257.541177" xlink:href="#mf60e4a00c2" y="119.875649"/>
     <use style="fill:#ff00ff;stroke:#ff00ff;" x="257.541177" xlink:href="#mf60e4a00c2" y="119.875649"/>
    </g>
   </g>
   <g id="line2d_35">
    <path d="M 45.512012 298.944 
L 45.512012 297.430746 
L 100.192776 297.430746 
L 100.192776 296.421911 
L 106.48859 296.421911 
L 106.48859 295.413075 
L 108.006005 295.413075 
L 108.006005 294.908657 
L 114.751048 294.908657 
L 114.751048 294.404239 
L 117.765302 294.404239 
L 117.765302 293.899821 
L 120.33454 293.899821 
L 120.33454 293.395403 
L 121.489881 293.395403 
L 121.489881 292.890985 
L 123.593547 292.890985 
L 123.593547 291.88215 
L 124.557288 291.88215 
L 124.557288 291.377732 
L 125.470548 291.377732 
L 125.470548 290.873314 
L 127.165014 290.873314 
L 127.165014 290.368896 
L 129.433047 290.368896 
L 129.433047 289.864478 
L 130.127931 289.864478 
L 130.127931 289.36006 
L 135.97629 289.36006 
L 135.97629 288.855642 
L 137.558536 288.855642 
L 137.558536 288.351224 
L 138.594838 288.351224 
L 138.594838 287.342389 
L 141.732423 287.342389 
L 141.732423 286.837971 
L 146.216039 286.837971 
L 146.216039 285.829135 
L 147.917524 285.829135 
L 147.917524 285.324717 
L 150.556607 285.324717 
L 150.556607 284.820299 
L 151.178764 284.820299 
L 151.178764 284.315881 
L 151.581536 284.315881 
L 151.581536 283.307045 
L 151.975216 283.307045 
L 151.975216 282.802628 
L 152.245598 282.802628 
L 152.245598 282.29821 
L 152.360205 282.29821 
L 152.360205 281.793792 
L 152.474064 281.793792 
L 152.474064 281.289374 
L 152.736878 281.289374 
L 152.736878 280.784956 
L 153.032466 280.784956 
L 153.032466 280.280538 
L 156.478647 280.280538 
L 156.478647 279.77612 
L 157.613546 279.77612 
L 157.613546 279.271702 
L 158.304027 279.271702 
L 158.304027 278.262867 
L 161.077205 278.262867 
L 161.077205 277.758449 
L 161.465522 277.758449 
L 161.465522 277.254031 
L 170.819995 277.254031 
L 170.819995 276.749613 
L 171.54458 276.749613 
L 171.54458 276.245195 
L 172.044307 276.245195 
L 172.044307 275.740777 
L 172.791647 275.740777 
L 172.791647 275.236359 
L 173.037687 275.236359 
L 173.09576 273.723105 
L 173.15364 273.723105 
L 173.257343 272.71427 
L 173.508272 272.71427 
L 173.508272 272.209852 
L 173.955458 272.209852 
L 173.955458 271.705434 
L 174.283479 271.705434 
L 174.283479 271.201016 
L 176.950079 271.201016 
L 176.950079 270.696598 
L 177.571019 270.696598 
L 177.571019 269.687762 
L 177.829252 269.687762 
L 177.829252 269.183344 
L 179.01652 269.183344 
L 179.082454 268.174509 
L 179.577161 268.174509 
L 179.577161 267.165673 
L 181.569801 267.165673 
L 181.569801 266.156837 
L 181.697718 266.156837 
L 181.74015 264.643583 
L 182.405376 264.643583 
L 182.405376 263.634748 
L 184.119975 263.634748 
L 184.119975 263.13033 
L 184.576129 263.13033 
L 184.576129 262.625912 
L 186.75182 262.625912 
L 186.75182 262.121494 
L 186.889055 262.121494 
L 186.889055 261.617076 
L 190.716258 261.617076 
L 190.737353 260.103822 
L 196.555724 260.103822 
L 196.555724 259.599405 
L 197.819613 259.599405 
L 197.833653 257.581733 
L 198.219512 257.581733 
L 198.290749 256.068479 
L 198.682781 256.068479 
L 198.744163 254.555226 
L 198.807985 254.555226 
L 198.871574 252.537554 
L 198.934932 252.537554 
L 198.995435 250.519883 
L 199.307742 250.519883 
L 199.413178 246.484539 
L 199.425992 246.484539 
L 199.425992 245.980122 
L 201.20952 245.980122 
L 201.239561 244.466868 
L 201.336268 244.466868 
L 201.34545 243.458032 
L 201.480328 243.458032 
L 201.480328 242.953614 
L 202.617501 242.953614 
L 202.617501 241.944778 
L 204.894378 241.944778 
L 204.941125 240.431525 
L 206.642436 240.431525 
L 206.642436 239.927107 
L 208.531601 239.927107 
L 208.531601 239.422689 
L 210.386938 239.422689 
L 210.386938 238.918271 
L 210.713194 238.918271 
L 210.804156 234.882928 
L 211.989099 234.882928 
L 211.989099 234.37851 
L 212.323684 234.37851 
L 212.383502 232.865256 
L 213.522712 232.865256 
L 213.522712 232.360839 
L 214.002382 232.360839 
L 214.002382 231.352003 
L 214.589898 231.352003 
L 214.589898 230.847585 
L 214.985912 230.847585 
L 214.985912 230.343167 
L 215.437695 230.343167 
L 215.503037 226.812242 
L 216.083315 226.812242 
L 216.083315 226.307824 
L 217.147289 226.307824 
L 217.147289 225.298988 
L 217.301477 225.298988 
L 217.301477 224.79457 
L 223.018435 224.79457 
L 223.122763 222.272481 
L 223.146447 222.272481 
L 223.160248 220.759227 
L 223.692046 220.759227 
L 223.730871 213.192959 
L 223.979584 213.192959 
L 223.979584 212.688541 
L 224.528067 212.688541 
L 224.632826 207.644362 
L 224.653944 207.644362 
L 224.696704 206.635526 
L 225.008495 206.635526 
L 225.008495 206.131108 
L 225.404568 206.131108 
L 225.444376 204.113437 
L 225.563832 204.113437 
L 225.584424 203.104601 
L 225.683043 203.104601 
L 225.698384 201.086929 
L 225.915683 201.086929 
L 226.024719 199.573676 
L 226.275967 199.573676 
L 226.275967 199.069258 
L 226.555036 199.069258 
L 226.576651 197.051586 
L 226.681644 197.051586 
L 226.681644 196.547168 
L 226.899298 196.547168 
L 226.899298 195.538333 
L 227.388074 195.538333 
L 227.424122 194.529497 
L 228.005409 194.529497 
L 228.110576 188.476482 
L 228.192483 188.476482 
L 228.209704 182.423467 
L 228.485366 182.423467 
L 228.485366 181.414632 
L 228.620859 181.414632 
L 228.670262 179.901378 
L 228.733847 179.901378 
L 228.741481 178.388124 
L 228.847055 178.388124 
L 228.94068 176.874871 
L 229.319465 176.874871 
L 229.420691 171.326274 
L 229.468797 171.326274 
L 229.570981 169.308602 
L 231.6966 169.308602 
L 231.6966 168.804184 
L 232.029615 168.804184 
L 232.029615 168.299766 
L 232.323403 168.299766 
L 232.355226 165.777677 
L 235.245937 165.777677 
L 235.245937 164.768841 
L 237.994975 164.768841 
L 237.994975 164.264423 
L 238.464761 164.264423 
L 238.464761 163.255588 
L 240.24228 163.255588 
L 240.24228 162.75117 
L 240.572386 162.75117 
L 240.572386 161.742334 
L 241.900406 161.742334 
L 241.900406 160.733498 
L 243.000365 160.733498 
L 243.084187 156.193737 
L 243.743066 156.193737 
L 243.743066 155.689319 
L 244.204295 155.689319 
L 244.204295 155.184901 
L 245.955864 155.184901 
L 246.059014 151.149558 
L 246.090263 151.149558 
L 246.193149 148.123051 
L 246.22976 148.123051 
L 246.331828 145.600961 
L 246.550176 145.600961 
L 246.550176 145.096544 
L 246.749525 145.096544 
L 246.749525 144.087708 
L 246.863798 144.087708 
L 246.863798 142.574454 
L 247.579227 142.574454 
L 247.579227 141.565618 
L 249.411941 141.565618 
L 249.411941 141.0612 
L 249.971069 141.0612 
L 250.021827 139.547947 
L 254.567452 139.547947 
L 254.567452 139.043529 
L 255.100353 139.043529 
L 255.100353 138.539111 
L 255.301216 138.539111 
L 255.330316 135.512604 
L 256.0324 135.512604 
L 256.0324 134.503768 
L 256.692718 134.503768 
L 256.783048 125.928664 
L 256.813404 125.928664 
L 256.893052 123.406574 
L 256.931745 123.406574 
L 257.036769 121.893321 
L 257.217842 121.893321 
L 257.217842 120.884485 
L 257.541177 120.884485 
L 257.541177 119.875649 
L 338.688 119.875649 
L 338.688 119.875649 
" style="fill:none;stroke:#ff00ff;stroke-linecap:square;stroke-width:1.5;"/>
   </g>
   <g id="line2d_36">
    <defs>
     <path d="M -0 8.485281 
L 5.091169 0 
L 0 -8.485281 
L -5.091169 -0 
z
" id="maf6d6f378e" style="stroke:#ff00ff;stroke-linejoin:miter;stroke-width:1.5;"/>
    </defs>
    <g>
     <use style="fill-opacity:0;stroke:#ff00ff;stroke-linejoin:miter;stroke-width:1.5;" x="146.216039" xlink:href="#maf6d6f378e" y="286.837971"/>
     <use style="fill-opacity:0;stroke:#ff00ff;stroke-linejoin:miter;stroke-width:1.5;" x="217.301477" xlink:href="#maf6d6f378e" y="225.298988"/>
     <use style="fill-opacity:0;stroke:#ff00ff;stroke-linejoin:miter;stroke-width:1.5;" x="256.83866" xlink:href="#maf6d6f378e" y="125.424246"/>
     <use style="fill-opacity:0;stroke:#ff00ff;stroke-linejoin:miter;stroke-width:1.5;" x="257.541177" xlink:href="#maf6d6f378e" y="119.875649"/>
     <use style="fill-opacity:0;stroke:#ff00ff;stroke-linejoin:miter;stroke-width:1.5;" x="257.541177" xlink:href="#maf6d6f378e" y="119.875649"/>
     <use style="fill-opacity:0;stroke:#ff00ff;stroke-linejoin:miter;stroke-width:1.5;" x="338.688" xlink:href="#maf6d6f378e" y="119.875649"/>
    </g>
   </g>
   <g id="line2d_37">
    <path style="fill:none;stroke:#ff00ff;stroke-linecap:square;stroke-width:1.5;"/>
    <g/>
   </g>
   <g id="line2d_38">
    <path clip-path="url(#p46120dd6b6)" d="M 257.831207 119.875649 
" style="fill:none;stroke:#ff00ff;stroke-linecap:square;stroke-width:1.5;"/>
    <defs>
     <path d="M -12 12 
L 12 -12 
M -12 -12 
L 12 12 
" id="m923cf9a2c1" style="stroke:#ff00ff;"/>
    </defs>
    <g clip-path="url(#p46120dd6b6)">
     <use style="fill:#ff00ff;stroke:#ff00ff;" x="257.831207" xlink:href="#m923cf9a2c1" y="119.875649"/>
    </g>
   </g>
   <g id="line2d_39">
    <defs>
     <path d="M 0 1.5 
C 0.397805 1.5 0.77937 1.341951 1.06066 1.06066 
C 1.341951 0.77937 1.5 0.397805 1.5 0 
C 1.5 -0.397805 1.341951 -0.77937 1.06066 -1.06066 
C 0.77937 -1.341951 0.397805 -1.5 0 -1.5 
C -0.397805 -1.5 -0.77937 -1.341951 -1.06066 -1.06066 
C -1.341951 -0.77937 -1.5 -0.397805 -1.5 0 
C -1.5 0.397805 -1.341951 0.77937 -1.06066 1.06066 
C -0.77937 1.341951 -0.397805 1.5 0 1.5 
z
" id="me64acdf373" style="stroke:#ff7500;"/>
    </defs>
    <g>
     <use style="fill:#ff7500;stroke:#ff7500;" x="245.030323" xlink:href="#me64acdf373" y="44.212966"/>
     <use style="fill:#ff7500;stroke:#ff7500;" x="245.030323" xlink:href="#me64acdf373" y="44.212966"/>
    </g>
   </g>
   <g id="line2d_40">
    <path d="M 45.512012 298.944 
L 45.512012 296.421911 
L 103.623262 296.421911 
L 103.623262 295.917493 
L 108.948899 295.917493 
L 108.948899 295.413075 
L 117.765302 295.413075 
L 117.765302 294.404239 
L 119.097192 294.404239 
L 119.097192 293.899821 
L 120.33454 293.899821 
L 120.33454 293.395403 
L 121.489881 293.395403 
L 121.489881 292.890985 
L 122.573415 292.890985 
L 122.573415 292.386567 
L 123.593547 292.386567 
L 123.593547 291.88215 
L 129.433047 291.88215 
L 129.433047 291.377732 
L 132.659801 291.377732 
L 132.659801 290.368896 
L 134.343353 290.368896 
L 134.343353 288.855642 
L 134.870259 288.855642 
L 134.870259 288.351224 
L 135.381712 288.351224 
L 135.381712 287.342389 
L 136.361705 287.342389 
L 136.361705 284.315881 
L 136.831795 284.315881 
L 136.831795 283.307045 
L 137.289545 283.307045 
L 137.289545 282.29821 
L 138.170504 282.29821 
L 138.170504 280.784956 
L 138.594838 280.784956 
L 138.594838 280.280538 
L 139.8092 280.280538 
L 139.8092 279.77612 
L 140.944478 279.77612 
L 140.944478 278.767284 
L 142.351634 278.767284 
L 142.351634 277.758449 
L 142.686372 277.758449 
L 142.686372 277.254031 
L 147.061745 277.254031 
L 147.061745 276.749613 
L 169.172381 276.749613 
L 169.172381 276.245195 
L 177.838089 276.245195 
L 177.838089 275.740777 
L 178.300141 275.740777 
L 178.300141 275.236359 
L 178.428718 275.236359 
L 178.428718 274.227523 
L 179.123536 274.227523 
L 179.123536 273.723105 
L 179.456806 273.723105 
L 179.456806 272.71427 
L 179.775924 272.71427 
L 179.775924 272.209852 
L 180.05044 272.209852 
L 180.05044 271.705434 
L 180.2977 271.705434 
L 180.313038 270.19218 
L 180.819217 270.19218 
L 180.819217 269.183344 
L 181.303877 269.183344 
L 181.303877 268.174509 
L 181.534102 268.174509 
L 181.534102 267.670091 
L 181.76838 267.670091 
L 181.76838 266.661255 
L 182.110543 266.661255 
L 182.110543 265.148001 
L 182.405376 265.148001 
L 182.405376 264.139166 
L 182.675235 264.139166 
L 182.675235 262.121494 
L 182.947573 262.121494 
L 182.947573 261.617076 
L 185.333839 261.617076 
L 185.333839 261.112658 
L 194.67934 261.112658 
L 194.67934 260.60824 
L 195.035562 260.60824 
L 195.035562 260.103822 
L 196.507332 260.103822 
L 196.507332 259.599405 
L 197.21948 259.599405 
L 197.21948 259.094987 
L 197.467751 259.094987 
L 197.467751 258.590569 
L 199.302583 258.590569 
L 199.302583 258.086151 
L 200.280883 258.086151 
L 200.280883 257.581733 
L 200.621491 257.581733 
L 200.621491 257.077315 
L 201.137672 257.077315 
L 201.137672 256.572897 
L 201.253409 256.572897 
L 201.253409 255.564061 
L 201.441572 255.564061 
L 201.448418 254.555226 
L 201.629984 254.555226 
L 201.724555 253.54639 
L 201.780604 253.54639 
L 201.780604 253.041972 
L 202.086798 253.041972 
L 202.086798 252.033136 
L 202.638823 252.033136 
L 202.638823 251.0243 
L 203.036983 251.0243 
L 203.036983 250.519883 
L 203.759134 250.519883 
L 203.759134 249.511047 
L 204.261401 249.511047 
L 204.261401 248.502211 
L 204.498595 248.502211 
L 204.498595 247.997793 
L 204.632157 247.997793 
L 204.721263 246.484539 
L 204.772247 246.484539 
L 204.772247 245.980122 
L 204.93739 245.980122 
L 205.01566 243.96245 
L 205.13795 243.96245 
L 205.13795 242.953614 
L 205.261222 242.953614 
L 205.319793 241.944778 
L 205.38545 241.944778 
L 205.38545 241.440361 
L 205.595346 241.440361 
L 205.668934 239.927107 
L 205.717224 239.927107 
L 205.717224 239.422689 
L 206.084827 239.422689 
L 206.084827 238.413853 
L 206.208554 238.413853 
L 206.293434 235.387346 
L 206.405395 235.387346 
L 206.467097 233.874092 
L 206.598342 233.874092 
L 206.659366 231.856421 
L 206.718491 231.856421 
L 206.777416 229.838749 
L 206.842842 229.838749 
L 206.842842 229.334331 
L 207.435456 229.334331 
L 207.435456 228.325495 
L 207.60778 228.325495 
L 207.654193 226.307824 
L 208.495085 226.307824 
L 208.495085 223.785734 
L 208.971339 223.785734 
L 208.971339 223.281316 
L 209.111569 223.281316 
L 209.208332 221.768063 
L 209.25068 221.768063 
L 209.330713 217.73272 
L 209.432046 217.73272 
L 209.491125 216.219466 
L 209.560038 216.219466 
L 209.600112 214.201794 
L 209.671445 214.201794 
L 209.743904 212.688541 
L 209.784973 212.688541 
L 209.880894 208.653198 
L 209.91041 208.653198 
L 210.009836 204.617855 
L 210.061425 204.617855 
L 210.104531 202.600183 
L 210.213904 202.600183 
L 210.319851 200.078094 
L 210.341785 200.078094 
L 210.449684 195.033915 
L 210.479614 195.033915 
L 210.543382 193.520661 
L 211.241577 193.520661 
L 211.241577 193.016243 
L 213.691988 193.016243 
L 213.783326 191.502989 
L 213.827134 191.502989 
L 213.827134 190.998572 
L 215.89103 190.998572 
L 215.89103 189.989736 
L 216.887554 189.989736 
L 216.887554 189.485318 
L 219.636372 189.485318 
L 219.636372 188.476482 
L 219.810774 188.476482 
L 219.810774 187.972064 
L 220.033821 187.972064 
L 220.033821 187.467646 
L 220.704497 187.467646 
L 220.704497 186.963228 
L 221.180435 186.963228 
L 221.180435 185.954393 
L 221.474507 185.954393 
L 221.474507 185.449975 
L 221.613604 185.449975 
L 221.613604 184.441139 
L 221.751601 184.441139 
L 221.792148 183.432303 
L 222.040479 183.432303 
L 222.040479 182.927885 
L 222.345312 182.927885 
L 222.372824 181.91905 
L 222.751488 181.91905 
L 222.778368 178.388124 
L 222.975997 178.388124 
L 222.975997 177.883706 
L 223.289184 177.883706 
L 223.289184 176.874871 
L 223.695231 176.874871 
L 223.76961 175.361617 
L 223.883423 175.361617 
L 223.993994 170.821856 
L 224.00714 170.821856 
L 224.091417 167.795349 
L 224.462348 167.795349 
L 224.462348 167.290931 
L 224.775326 167.290931 
L 224.778918 165.777677 
L 225.013812 165.777677 
L 225.013812 164.768841 
L 225.139176 164.768841 
L 225.139176 164.264423 
L 225.385497 164.264423 
L 225.414384 162.246752 
L 225.547226 162.246752 
L 225.598138 157.202573 
L 225.712009 157.202573 
L 225.740928 156.193737 
L 225.854436 156.193737 
L 225.917926 154.680483 
L 226.044774 154.680483 
L 226.141385 152.158394 
L 226.165731 152.158394 
L 226.165731 151.653976 
L 226.360376 151.653976 
L 226.360376 151.149558 
L 226.555036 151.149558 
L 226.597701 149.636305 
L 226.740059 149.636305 
L 226.840352 147.618633 
L 227.007115 147.618633 
L 227.007115 147.114215 
L 227.192119 147.114215 
L 227.192119 146.609797 
L 227.305399 146.609797 
L 227.41383 143.078872 
L 227.547151 143.078872 
L 227.62208 140.556783 
L 227.6612 140.556783 
L 227.721487 139.547947 
L 227.869543 139.547947 
L 227.874557 138.539111 
L 228.129854 138.539111 
L 228.201834 135.512604 
L 228.317071 135.512604 
L 228.317071 135.008186 
L 228.456298 135.008186 
L 228.527428 133.99935 
L 228.720002 133.99935 
L 228.720002 133.494932 
L 229.303307 133.494932 
L 229.390385 130.972843 
L 229.430781 130.972843 
L 229.49851 129.459589 
L 229.839984 129.459589 
L 229.839984 128.450753 
L 230.134873 128.450753 
L 230.174901 126.433082 
L 230.344547 126.433082 
L 230.417059 125.424246 
L 230.58781 125.424246 
L 230.58781 124.919828 
L 230.700296 124.919828 
L 230.745853 123.406574 
L 230.823494 123.406574 
L 230.903319 121.893321 
L 231.053529 121.893321 
L 231.111087 120.380067 
L 231.231013 120.380067 
L 231.278919 118.866813 
L 231.436162 118.866813 
L 231.529913 117.35356 
L 231.567273 117.35356 
L 231.567273 116.344724 
L 231.748063 116.344724 
L 231.764516 114.83147 
L 231.965501 114.83147 
L 232.014201 113.822634 
L 232.08562 113.822634 
L 232.166156 112.813799 
L 232.282959 112.813799 
L 232.326511 111.300545 
L 232.537281 111.300545 
L 232.615381 108.778455 
L 232.819312 108.778455 
L 232.819312 107.76962 
L 233.028348 107.76962 
L 233.028348 107.265202 
L 233.566837 107.265202 
L 233.65631 105.24753 
L 234.200119 105.24753 
L 234.200119 104.238694 
L 234.463905 104.238694 
L 234.463905 103.229859 
L 234.577599 103.229859 
L 234.687843 99.698933 
L 234.830059 99.698933 
L 234.914635 98.690098 
L 234.984802 98.690098 
L 234.984802 97.681262 
L 235.188354 97.681262 
L 235.225229 96.168008 
L 235.36282 96.168008 
L 235.426985 93.645919 
L 235.644424 93.645919 
L 235.644424 93.141501 
L 235.788316 93.141501 
L 235.891821 90.114994 
L 235.977713 90.114994 
L 236.000064 86.584068 
L 236.626378 86.584068 
L 236.626378 86.07965 
L 236.863314 86.07965 
L 236.950225 82.044307 
L 237.00941 82.044307 
L 237.079932 79.522218 
L 237.147813 79.522218 
L 237.216312 78.513382 
L 237.384501 78.513382 
L 237.390312 77.504546 
L 237.521412 77.504546 
L 237.598224 75.486875 
L 237.720936 75.486875 
L 237.720936 74.982457 
L 237.835431 74.982457 
L 237.835431 74.478039 
L 237.95171 74.478039 
L 237.95171 73.973621 
L 238.396068 73.973621 
L 238.396068 73.469203 
L 238.589953 73.469203 
L 238.646809 71.451532 
L 238.754327 71.451532 
L 238.754327 70.947114 
L 239.011657 70.947114 
L 239.011657 70.442696 
L 239.161889 70.442696 
L 239.161889 69.43386 
L 239.483536 69.43386 
L 239.58014 67.416188 
L 239.759843 67.416188 
L 239.759843 66.911771 
L 239.966806 66.911771 
L 239.992098 65.398517 
L 240.092403 65.398517 
L 240.092403 64.894099 
L 240.276041 64.894099 
L 240.276041 64.389681 
L 240.420448 64.389681 
L 240.442409 63.380845 
L 240.639786 63.380845 
L 240.639786 62.876427 
L 241.221655 62.876427 
L 241.221655 61.867592 
L 241.708024 61.867592 
L 241.708024 60.858756 
L 241.976724 60.858756 
L 241.976724 60.354338 
L 242.157342 60.354338 
L 242.157342 59.345502 
L 242.404666 59.345502 
L 242.406191 57.327831 
L 242.648745 57.327831 
L 242.648745 56.318995 
L 242.884792 56.318995 
L 242.884792 55.814577 
L 243.141726 55.814577 
L 243.141726 55.310159 
L 243.312177 55.310159 
L 243.312177 54.805741 
L 243.747101 54.805741 
L 243.747101 53.796905 
L 243.943913 53.796905 
L 243.986751 52.283652 
L 244.4891 52.283652 
L 244.4891 51.274816 
L 244.871018 51.274816 
L 244.895592 49.257144 
L 245.026574 49.257144 
L 245.030323 44.212966 
L 338.688 44.212966 
L 338.688 44.212966 
" style="fill:none;stroke:#ff7500;stroke-linecap:square;stroke-width:1.5;"/>
   </g>
   <g id="line2d_41">
    <defs>
     <path d="M 0 -6 
L -1.347084 -1.854102 
L -5.706339 -1.854102 
L -2.179628 0.708204 
L -3.526712 4.854102 
L -0 2.291796 
L 3.526712 4.854102 
L 2.179628 0.708204 
L 5.706339 -1.854102 
L 1.347084 -1.854102 
z
" id="m3cc7d32862" style="stroke:#ff7500;stroke-linejoin:bevel;stroke-width:1.5;"/>
    </defs>
    <g>
     <use style="fill-opacity:0;stroke:#ff7500;stroke-linejoin:bevel;stroke-width:1.5;" x="117.765302" xlink:href="#m3cc7d32862" y="294.404239"/>
     <use style="fill-opacity:0;stroke:#ff7500;stroke-linejoin:bevel;stroke-width:1.5;" x="204.632157" xlink:href="#m3cc7d32862" y="247.997793"/>
     <use style="fill-opacity:0;stroke:#ff7500;stroke-linejoin:bevel;stroke-width:1.5;" x="236.880671" xlink:href="#m3cc7d32862" y="85.575233"/>
     <use style="fill-opacity:0;stroke:#ff7500;stroke-linejoin:bevel;stroke-width:1.5;" x="245.030323" xlink:href="#m3cc7d32862" y="48.752727"/>
     <use style="fill-opacity:0;stroke:#ff7500;stroke-linejoin:bevel;stroke-width:1.5;" x="245.030323" xlink:href="#m3cc7d32862" y="44.212966"/>
     <use style="fill-opacity:0;stroke:#ff7500;stroke-linejoin:bevel;stroke-width:1.5;" x="338.688" xlink:href="#m3cc7d32862" y="44.212966"/>
    </g>
   </g>
   <g id="line2d_42">
    <path style="fill:none;stroke:#ff7500;stroke-linecap:square;stroke-width:1.5;"/>
    <g/>
   </g>
   <g id="line2d_43">
    <path clip-path="url(#p46120dd6b6)" d="M 258.377143 44.212966 
" style="fill:none;stroke:#ff7500;stroke-linecap:square;stroke-width:1.5;"/>
    <defs>
     <path d="M -12 12 
L 12 -12 
M -12 -12 
L 12 12 
" id="m8373b4ce5f" style="stroke:#ff7500;"/>
    </defs>
    <g clip-path="url(#p46120dd6b6)">
     <use style="fill:#ff7500;stroke:#ff7500;" x="258.377143" xlink:href="#m8373b4ce5f" y="44.212966"/>
    </g>
   </g>
   <g id="line2d_44">
    <defs>
     <path d="M 0 1.5 
C 0.397805 1.5 0.77937 1.341951 1.06066 1.06066 
C 1.341951 0.77937 1.5 0.397805 1.5 0 
C 1.5 -0.397805 1.341951 -0.77937 1.06066 -1.06066 
C 0.77937 -1.341951 0.397805 -1.5 0 -1.5 
C -0.397805 -1.5 -0.77937 -1.341951 -1.06066 -1.06066 
C -1.341951 -0.77937 -1.5 -0.397805 -1.5 0 
C -1.5 0.397805 -1.341951 0.77937 -1.06066 1.06066 
C -0.77937 1.341951 -0.397805 1.5 0 1.5 
z
" id="m5794900104" style="stroke:#6495ed;"/>
    </defs>
    <g>
     <use style="fill:#6495ed;stroke:#6495ed;" x="246.572324" xlink:href="#m5794900104" y="58.841084"/>
     <use style="fill:#6495ed;stroke:#6495ed;" x="246.572324" xlink:href="#m5794900104" y="58.841084"/>
    </g>
   </g>
   <g id="line2d_45">
    <path d="M 103.623262 298.944 
L 103.623262 297.935164 
L 108.948899 297.935164 
L 108.948899 296.926328 
L 111.104637 296.926328 
L 111.104637 295.917493 
L 113.022974 295.917493 
L 113.022974 294.908657 
L 119.097192 294.908657 
L 119.097192 294.404239 
L 120.33454 294.404239 
L 120.33454 293.899821 
L 121.489881 293.899821 
L 121.489881 293.395403 
L 122.573415 293.395403 
L 122.573415 292.890985 
L 125.470548 292.890985 
L 125.470548 291.88215 
L 127.165014 291.88215 
L 127.165014 291.377732 
L 127.325746 291.377732 
L 127.325746 290.873314 
L 127.954256 290.873314 
L 127.954256 290.368896 
L 128.856489 290.368896 
L 128.856489 289.864478 
L 130.127931 289.864478 
L 130.127931 289.36006 
L 130.263646 289.36006 
L 130.263646 288.855642 
L 131.439773 288.855642 
L 131.439773 288.351224 
L 131.565689 288.351224 
L 131.565689 287.846806 
L 132.060454 287.846806 
L 132.060454 287.342389 
L 132.777237 287.342389 
L 132.777237 286.837971 
L 134.343353 286.837971 
L 134.450015 285.829135 
L 136.361705 285.829135 
L 136.361705 285.324717 
L 136.831795 285.324717 
L 136.831795 284.820299 
L 150.38688 284.820299 
L 150.38688 284.315881 
L 152.052897 284.315881 
L 152.052897 283.811463 
L 152.922207 283.811463 
L 152.922207 283.307045 
L 153.785358 283.307045 
L 153.785358 282.802628 
L 155.773004 282.802628 
L 155.773004 282.29821 
L 156.568618 282.29821 
L 156.568618 281.793792 
L 156.717545 281.793792 
L 156.747178 280.280538 
L 156.865211 280.280538 
L 156.865211 279.77612 
L 157.069866 279.77612 
L 157.156845 278.262867 
L 157.443681 278.262867 
L 157.443681 277.758449 
L 157.725877 277.758449 
L 157.725877 276.749613 
L 158.732007 276.749613 
L 158.732007 276.245195 
L 161.26102 276.245195 
L 161.26102 275.740777 
L 162.474869 275.740777 
L 162.474869 275.236359 
L 162.770815 275.236359 
L 162.770815 274.227523 
L 162.979172 274.227523 
L 163.082425 273.218688 
L 163.185069 273.218688 
L 163.185069 272.71427 
L 163.388564 272.71427 
L 163.388564 271.705434 
L 164.637547 271.705434 
L 164.65637 270.696598 
L 173.360433 270.696598 
L 173.451559 269.183344 
L 177.490094 269.183344 
L 177.490094 264.643583 
L 177.66942 264.643583 
L 177.66942 264.139166 
L 178.360262 264.139166 
L 178.360262 263.634748 
L 179.400355 263.634748 
L 179.480944 262.625912 
L 179.561161 262.625912 
L 179.561161 262.121494 
L 180.189955 262.121494 
L 180.243911 260.103822 
L 181.238575 260.103822 
L 181.238575 259.599405 
L 181.390568 259.599405 
L 181.390568 259.094987 
L 181.605428 259.094987 
L 181.605428 258.590569 
L 181.726017 258.590569 
L 181.726017 258.086151 
L 182.60816 258.086151 
L 182.60816 257.077315 
L 183.607202 257.077315 
L 183.708446 256.068479 
L 185.038202 256.068479 
L 185.044047 254.555226 
L 186.58142 254.555226 
L 186.58142 254.050808 
L 188.326548 254.050808 
L 188.326548 253.041972 
L 188.662206 253.041972 
L 188.662206 252.537554 
L 189.433283 252.537554 
L 189.433283 252.033136 
L 191.321964 252.033136 
L 191.321964 251.528718 
L 191.887612 251.528718 
L 191.986017 250.015465 
L 193.930257 250.015465 
L 193.930257 249.511047 
L 197.202026 249.511047 
L 197.202026 248.502211 
L 201.932154 248.502211 
L 201.943246 246.988957 
L 202.374733 246.988957 
L 202.439515 244.466868 
L 204.348554 244.466868 
L 204.439118 242.953614 
L 204.529213 242.953614 
L 204.611236 240.431525 
L 213.363302 240.431525 
L 213.363302 239.927107 
L 214.047859 239.927107 
L 214.047859 239.422689 
L 215.445876 239.422689 
L 215.445876 238.918271 
L 215.770017 238.918271 
L 215.770017 238.413853 
L 216.706835 238.413853 
L 216.706835 237.909435 
L 217.992634 237.909435 
L 217.997051 235.891764 
L 218.330371 235.891764 
L 218.436632 230.847585 
L 218.472768 230.847585 
L 218.472768 229.838749 
L 218.753276 229.838749 
L 218.753276 229.334331 
L 218.942547 229.334331 
L 218.942547 228.829913 
L 219.075901 228.829913 
L 219.097475 227.821078 
L 219.19093 227.821078 
L 219.260078 225.803406 
L 219.66449 225.803406 
L 219.714989 224.290152 
L 219.950315 224.290152 
L 219.950315 223.281316 
L 220.418569 223.281316 
L 220.418569 222.776899 
L 220.630226 222.776899 
L 220.630226 222.272481 
L 221.693104 222.272481 
L 221.693104 221.263645 
L 222.18349 221.263645 
L 222.292228 216.723884 
L 222.566243 216.723884 
L 222.569641 215.715048 
L 222.706372 215.715048 
L 222.706372 215.21063 
L 223.065394 215.21063 
L 223.065394 214.201794 
L 224.43306 214.201794 
L 224.43306 213.192959 
L 224.615913 213.192959 
L 224.673229 210.166451 
L 224.751956 210.166451 
L 224.795075 206.635526 
L 225.185444 206.635526 
L 225.185444 206.131108 
L 226.172365 206.131108 
L 226.21432 204.617855 
L 226.349437 204.617855 
L 226.349437 203.609019 
L 226.46124 203.609019 
L 226.46124 203.104601 
L 226.710072 203.104601 
L 226.786543 201.086929 
L 228.186083 201.086929 
L 228.186083 200.078094 
L 229.725849 200.078094 
L 229.759178 196.547168 
L 230.163034 196.547168 
L 230.173143 194.529497 
L 230.274789 194.529497 
L 230.350637 190.494154 
L 230.40709 190.494154 
L 230.40709 189.989736 
L 230.523759 189.989736 
L 230.622531 187.467646 
L 230.716062 187.467646 
L 230.82688 185.954393 
L 230.932371 185.954393 
L 230.951292 184.441139 
L 231.061882 184.441139 
L 231.11525 183.432303 
L 231.313527 183.432303 
L 231.313527 182.927885 
L 231.453319 182.927885 
L 231.453319 182.423467 
L 231.628418 182.423467 
L 231.628418 181.414632 
L 231.848142 181.414632 
L 231.940107 180.405796 
L 232.281402 180.405796 
L 232.281402 179.901378 
L 232.404398 179.901378 
L 232.50156 175.361617 
L 233.127297 175.361617 
L 233.226058 173.848363 
L 233.254804 173.848363 
L 233.330496 171.830692 
L 233.384674 171.830692 
L 233.484899 168.299766 
L 233.510682 168.299766 
L 233.618124 164.768841 
L 233.623172 164.768841 
L 233.66962 163.760005 
L 233.750696 163.760005 
L 233.824983 162.246752 
L 233.869475 162.246752 
L 233.911727 159.220244 
L 234.042446 159.220244 
L 234.13477 155.184901 
L 234.162408 155.184901 
L 234.271826 151.653976 
L 234.291615 151.653976 
L 234.393675 149.636305 
L 234.413671 149.636305 
L 234.524611 148.627469 
L 234.565648 148.627469 
L 234.664084 146.105379 
L 234.679361 146.105379 
L 234.736956 145.096544 
L 234.959775 145.096544 
L 235.031424 141.565618 
L 235.194286 141.565618 
L 235.291212 138.539111 
L 235.31904 138.539111 
L 235.421132 136.017022 
L 235.51875 136.017022 
L 235.537174 133.99935 
L 235.754528 133.99935 
L 235.853792 132.486096 
L 235.867111 132.486096 
L 235.96826 131.47726 
L 236.045622 131.47726 
L 236.12514 129.459589 
L 236.164141 129.459589 
L 236.273809 127.441917 
L 236.299496 127.441917 
L 236.299496 126.937499 
L 236.546983 126.937499 
L 236.612411 125.424246 
L 236.706621 125.424246 
L 236.799724 123.910992 
L 236.919811 123.910992 
L 237.002283 122.397738 
L 237.108297 122.397738 
L 237.195467 118.362395 
L 237.390602 118.362395 
L 237.476376 110.291709 
L 237.502661 110.291709 
L 237.613718 107.76962 
L 237.676985 107.76962 
L 237.762503 105.24753 
L 237.913412 105.24753 
L 237.930037 103.229859 
L 238.088164 103.229859 
L 238.128865 102.221023 
L 238.501323 102.221023 
L 238.501323 101.716605 
L 238.660859 101.716605 
L 238.723137 99.698933 
L 238.822696 99.698933 
L 238.822696 99.194516 
L 239.233387 99.194516 
L 239.333982 98.18568 
L 239.77125 98.18568 
L 239.81529 97.176844 
L 240.090163 97.176844 
L 240.199306 95.66359 
L 240.501809 95.66359 
L 240.602615 94.150337 
L 240.748189 94.150337 
L 240.839006 92.132665 
L 240.865208 92.132665 
L 240.963468 88.60174 
L 241.00531 88.60174 
L 241.074118 87.088486 
L 241.175888 87.088486 
L 241.175888 86.07965 
L 241.326048 86.07965 
L 241.410222 84.566397 
L 241.449396 84.566397 
L 241.449396 83.557561 
L 241.65806 83.557561 
L 241.741556 82.044307 
L 241.786316 82.044307 
L 241.786316 81.539889 
L 242.390496 81.539889 
L 242.390496 81.035471 
L 243.011102 81.035471 
L 243.011102 80.531054 
L 243.580461 80.531054 
L 243.580461 80.026636 
L 244.48968 80.026636 
L 244.48968 79.0178 
L 245.503885 79.0178 
L 245.503885 78.008964 
L 245.634558 78.008964 
L 245.7335 68.929442 
L 245.747177 68.929442 
L 245.852995 65.902935 
L 245.880689 65.902935 
L 245.986234 60.858756 
L 246.053535 60.858756 
L 246.137121 59.345502 
L 246.572324 59.345502 
L 246.572324 58.841084 
L 338.688 58.841084 
L 338.688 58.841084 
" style="fill:none;stroke:#6495ed;stroke-linecap:square;stroke-width:1.5;"/>
   </g>
   <g id="line2d_46">
    <defs>
     <path d="M -0 6 
L 6 -6 
L -6 -6 
z
" id="mc23619eb82" style="stroke:#6495ed;stroke-linejoin:miter;stroke-width:1.5;"/>
    </defs>
    <g>
     <use style="fill-opacity:0;stroke:#6495ed;stroke-linejoin:miter;stroke-width:1.5;" x="158.732007" xlink:href="#mc23619eb82" y="276.245195"/>
     <use style="fill-opacity:0;stroke:#6495ed;stroke-linejoin:miter;stroke-width:1.5;" x="230.317549" xlink:href="#mc23619eb82" y="192.007407"/>
     <use style="fill-opacity:0;stroke:#6495ed;stroke-linejoin:miter;stroke-width:1.5;" x="246.572324" xlink:href="#mc23619eb82" y="59.345502"/>
     <use style="fill-opacity:0;stroke:#6495ed;stroke-linejoin:miter;stroke-width:1.5;" x="246.572324" xlink:href="#mc23619eb82" y="58.841084"/>
     <use style="fill-opacity:0;stroke:#6495ed;stroke-linejoin:miter;stroke-width:1.5;" x="338.688" xlink:href="#mc23619eb82" y="58.841084"/>
    </g>
   </g>
   <g id="line2d_47">
    <path style="fill:none;stroke:#6495ed;stroke-linecap:square;stroke-width:1.5;"/>
    <g/>
   </g>
   <g id="line2d_48">
    <path clip-path="url(#p46120dd6b6)" d="M 258.375137 58.841084 
" style="fill:none;stroke:#6495ed;stroke-linecap:square;stroke-width:1.5;"/>
    <defs>
     <path d="M -12 12 
L 12 -12 
M -12 -12 
L 12 12 
" id="m5f262b2e0e" style="stroke:#6495ed;"/>
    </defs>
    <g clip-path="url(#p46120dd6b6)">
     <use style="fill:#6495ed;stroke:#6495ed;" x="258.375137" xlink:href="#m5f262b2e0e" y="58.841084"/>
    </g>
   </g>
   <g id="line2d_49">
    <path d="M 338.688 129.459589 
L 369.60768 293.092752 
" style="fill:none;stroke:#000080;stroke-linecap:square;stroke-width:1.5;"/>
    <g>
     <use style="fill-opacity:0;stroke:#000080;stroke-width:1.5;" x="338.688" xlink:href="#md0bf19b0e2" y="129.459589"/>
     <use style="fill-opacity:0;stroke:#000080;stroke-width:1.5;" x="369.60768" xlink:href="#md0bf19b0e2" y="293.092752"/>
    </g>
   </g>
   <g id="line2d_50">
    <path d="M 338.688 119.875649 
L 369.60768 199.472792 
" style="fill:none;stroke:#ff00ff;stroke-linecap:square;stroke-width:1.5;"/>
    <g>
     <use style="fill-opacity:0;stroke:#ff00ff;stroke-linejoin:miter;stroke-width:1.5;" x="338.688" xlink:href="#maf6d6f378e" y="119.875649"/>
     <use style="fill-opacity:0;stroke:#ff00ff;stroke-linejoin:miter;stroke-width:1.5;" x="369.60768" xlink:href="#maf6d6f378e" y="199.472792"/>
    </g>
   </g>
   <g id="line2d_51">
    <path d="M 338.688 58.841084 
L 369.60768 105.852832 
" style="fill:none;stroke:#6495ed;stroke-linecap:square;stroke-width:1.5;"/>
    <g>
     <use style="fill-opacity:0;stroke:#6495ed;stroke-linejoin:miter;stroke-width:1.5;" x="338.688" xlink:href="#mc23619eb82" y="58.841084"/>
     <use style="fill-opacity:0;stroke:#6495ed;stroke-linejoin:miter;stroke-width:1.5;" x="369.60768" xlink:href="#mc23619eb82" y="105.852832"/>
    </g>
   </g>
   <g id="line2d_52">
    <path d="M 338.688 44.212966 
L 369.60768 12.232871 
" style="fill:none;stroke:#ff7500;stroke-linecap:square;stroke-width:1.5;"/>
    <g>
     <use style="fill-opacity:0;stroke:#ff7500;stroke-linejoin:bevel;stroke-width:1.5;" x="338.688" xlink:href="#m3cc7d32862" y="44.212966"/>
     <use style="fill-opacity:0;stroke:#ff7500;stroke-linejoin:bevel;stroke-width:1.5;" x="369.60768" xlink:href="#m3cc7d32862" y="12.232871"/>
    </g>
   </g>
   <g id="line2d_53">
    <path d="M 338.688 298.944 
L 338.688 6.381624 
" style="fill:none;stroke:#000000;stroke-linecap:square;stroke-width:1.5;"/>
   </g>
   <g id="patch_3">
    <path d="M 57.6 298.944 
L 57.6 3.456 
" style="fill:none;stroke:#000000;stroke-linecap:square;stroke-linejoin:miter;stroke-width:0.8;"/>
   </g>
   <g id="patch_4">
    <path d="M 338.688 298.944 
L 338.688 3.456 
" style="fill:none;stroke:#000000;stroke-linecap:square;stroke-linejoin:miter;stroke-width:0.8;"/>
   </g>
   <g id="patch_5">
    <path d="M 57.6 298.944 
L 338.688 298.944 
" style="fill:none;stroke:#000000;stroke-linecap:square;stroke-linejoin:miter;stroke-width:0.8;"/>
   </g>
   <g id="patch_6">
    <path d="M 57.6 3.456 
L 338.688 3.456 
" style="fill:none;stroke:#000000;stroke-linecap:square;stroke-linejoin:miter;stroke-width:0.8;"/>
   </g>
   <g id="text_13">
    <!-- f39 -->
    <g transform="translate(375.22944 297.78369)scale(0.17 -0.17)">
     <defs>
      <path d="M 40.578125 39.3125 
Q 47.65625 37.796875 51.625 33 
Q 55.609375 28.21875 55.609375 21.1875 
Q 55.609375 10.40625 48.1875 4.484375 
Q 40.765625 -1.421875 27.09375 -1.421875 
Q 22.515625 -1.421875 17.65625 -0.515625 
Q 12.796875 0.390625 7.625 2.203125 
L 7.625 11.71875 
Q 11.71875 9.328125 16.59375 8.109375 
Q 21.484375 6.890625 26.8125 6.890625 
Q 36.078125 6.890625 40.9375 10.546875 
Q 45.796875 14.203125 45.796875 21.1875 
Q 45.796875 27.640625 41.28125 31.265625 
Q 36.765625 34.90625 28.71875 34.90625 
L 20.21875 34.90625 
L 20.21875 43.015625 
L 29.109375 43.015625 
Q 36.375 43.015625 40.234375 45.921875 
Q 44.09375 48.828125 44.09375 54.296875 
Q 44.09375 59.90625 40.109375 62.90625 
Q 36.140625 65.921875 28.71875 65.921875 
Q 24.65625 65.921875 20.015625 65.03125 
Q 15.375 64.15625 9.8125 62.3125 
L 9.8125 71.09375 
Q 15.4375 72.65625 20.34375 73.4375 
Q 25.25 74.21875 29.59375 74.21875 
Q 40.828125 74.21875 47.359375 69.109375 
Q 53.90625 64.015625 53.90625 55.328125 
Q 53.90625 49.265625 50.4375 45.09375 
Q 46.96875 40.921875 40.578125 39.3125 
z
" id="DejaVuSans-51"/>
      <path d="M 10.984375 1.515625 
L 10.984375 10.5 
Q 14.703125 8.734375 18.5 7.8125 
Q 22.3125 6.890625 25.984375 6.890625 
Q 35.75 6.890625 40.890625 13.453125 
Q 46.046875 20.015625 46.78125 33.40625 
Q 43.953125 29.203125 39.59375 26.953125 
Q 35.25 24.703125 29.984375 24.703125 
Q 19.046875 24.703125 12.671875 31.3125 
Q 6.296875 37.9375 6.296875 49.421875 
Q 6.296875 60.640625 12.9375 67.421875 
Q 19.578125 74.21875 30.609375 74.21875 
Q 43.265625 74.21875 49.921875 64.515625 
Q 56.59375 54.828125 56.59375 36.375 
Q 56.59375 19.140625 48.40625 8.859375 
Q 40.234375 -1.421875 26.421875 -1.421875 
Q 22.703125 -1.421875 18.890625 -0.6875 
Q 15.09375 0.046875 10.984375 1.515625 
z
M 30.609375 32.421875 
Q 37.25 32.421875 41.125 36.953125 
Q 45.015625 41.5 45.015625 49.421875 
Q 45.015625 57.28125 41.125 61.84375 
Q 37.25 66.40625 30.609375 66.40625 
Q 23.96875 66.40625 20.09375 61.84375 
Q 16.21875 57.28125 16.21875 49.421875 
Q 16.21875 41.5 20.09375 36.953125 
Q 23.96875 32.421875 30.609375 32.421875 
z
" id="DejaVuSans-57"/>
     </defs>
     <use xlink:href="#DejaVuSans-102"/>
     <use x="35.205078" xlink:href="#DejaVuSans-51"/>
     <use x="98.828125" xlink:href="#DejaVuSans-57"/>
    </g>
   </g>
   <g id="text_14">
    <!-- f40 -->
    <g transform="translate(375.22944 204.16373)scale(0.17 -0.17)">
     <use xlink:href="#DejaVuSans-102"/>
     <use x="35.205078" xlink:href="#DejaVuSans-52"/>
     <use x="98.828125" xlink:href="#DejaVuSans-48"/>
    </g>
   </g>
   <g id="text_15">
    <!-- f45 -->
    <g transform="translate(375.22944 110.543769)scale(0.17 -0.17)">
     <defs>
      <path d="M 10.796875 72.90625 
L 49.515625 72.90625 
L 49.515625 64.59375 
L 19.828125 64.59375 
L 19.828125 46.734375 
Q 21.96875 47.46875 24.109375 47.828125 
Q 26.265625 48.1875 28.421875 48.1875 
Q 40.625 48.1875 47.75 41.5 
Q 54.890625 34.8125 54.890625 23.390625 
Q 54.890625 11.625 47.5625 5.09375 
Q 40.234375 -1.421875 26.90625 -1.421875 
Q 22.3125 -1.421875 17.546875 -0.640625 
Q 12.796875 0.140625 7.71875 1.703125 
L 7.71875 11.625 
Q 12.109375 9.234375 16.796875 8.0625 
Q 21.484375 6.890625 26.703125 6.890625 
Q 35.15625 6.890625 40.078125 11.328125 
Q 45.015625 15.765625 45.015625 23.390625 
Q 45.015625 31 40.078125 35.4375 
Q 35.15625 39.890625 26.703125 39.890625 
Q 22.75 39.890625 18.8125 39.015625 
Q 14.890625 38.140625 10.796875 36.28125 
z
" id="DejaVuSans-53"/>
     </defs>
     <use xlink:href="#DejaVuSans-102"/>
     <use x="35.205078" xlink:href="#DejaVuSans-52"/>
     <use x="98.828125" xlink:href="#DejaVuSans-53"/>
    </g>
   </g>
   <g id="text_16">
    <!-- f44 -->
    <g transform="translate(375.22944 16.923809)scale(0.17 -0.17)">
     <use xlink:href="#DejaVuSans-102"/>
     <use x="35.205078" xlink:href="#DejaVuSans-52"/>
     <use x="98.828125" xlink:href="#DejaVuSans-52"/>
    </g>
   </g>
   <g id="text_17">
    <!-- bbob-biobj -->
    <g transform="translate(60.41088 14.161286)scale(0.102 -0.102)">
     <defs>
      <path d="M 48.6875 27.296875 
Q 48.6875 37.203125 44.609375 42.84375 
Q 40.53125 48.484375 33.40625 48.484375 
Q 26.265625 48.484375 22.1875 42.84375 
Q 18.109375 37.203125 18.109375 27.296875 
Q 18.109375 17.390625 22.1875 11.75 
Q 26.265625 6.109375 33.40625 6.109375 
Q 40.53125 6.109375 44.609375 11.75 
Q 48.6875 17.390625 48.6875 27.296875 
z
M 18.109375 46.390625 
Q 20.953125 51.265625 25.265625 53.625 
Q 29.59375 56 35.59375 56 
Q 45.5625 56 51.78125 48.09375 
Q 58.015625 40.1875 58.015625 27.296875 
Q 58.015625 14.40625 51.78125 6.484375 
Q 45.5625 -1.421875 35.59375 -1.421875 
Q 29.59375 -1.421875 25.265625 0.953125 
Q 20.953125 3.328125 18.109375 8.203125 
L 18.109375 0 
L 9.078125 0 
L 9.078125 75.984375 
L 18.109375 75.984375 
z
" id="DejaVuSans-98"/>
      <path d="M 9.421875 54.6875 
L 18.40625 54.6875 
L 18.40625 -0.984375 
Q 18.40625 -11.421875 14.421875 -16.109375 
Q 10.453125 -20.796875 1.609375 -20.796875 
L -1.8125 -20.796875 
L -1.8125 -13.1875 
L 0.59375 -13.1875 
Q 5.71875 -13.1875 7.5625 -10.8125 
Q 9.421875 -8.453125 9.421875 -0.984375 
z
M 9.421875 75.984375 
L 18.40625 75.984375 
L 18.40625 64.59375 
L 9.421875 64.59375 
z
" id="DejaVuSans-106"/>
     </defs>
     <use xlink:href="#DejaVuSans-98"/>
     <use x="63.476562" xlink:href="#DejaVuSans-98"/>
     <use x="126.953125" xlink:href="#DejaVuSans-111"/>
     <use x="188.134766" xlink:href="#DejaVuSans-98"/>
     <use x="251.611328" xlink:href="#DejaVuSans-45"/>
     <use x="287.695312" xlink:href="#DejaVuSans-98"/>
     <use x="351.171875" xlink:href="#DejaVuSans-105"/>
     <use x="378.955078" xlink:href="#DejaVuSans-111"/>
     <use x="440.136719" xlink:href="#DejaVuSans-98"/>
     <use x="503.613281" xlink:href="#DejaVuSans-106"/>
    </g>
    <!-- 3-ill-conditioned 5-weakly-structured, 2-D -->
    <g transform="translate(60.41088 25.583055)scale(0.102 -0.102)">
     <defs>
      <path d="M 4.203125 54.6875 
L 13.1875 54.6875 
L 24.421875 12.015625 
L 35.59375 54.6875 
L 46.1875 54.6875 
L 57.421875 12.015625 
L 68.609375 54.6875 
L 77.59375 54.6875 
L 63.28125 0 
L 52.6875 0 
L 40.921875 44.828125 
L 29.109375 0 
L 18.5 0 
z
" id="DejaVuSans-119"/>
      <path d="M 9.078125 75.984375 
L 18.109375 75.984375 
L 18.109375 31.109375 
L 44.921875 54.6875 
L 56.390625 54.6875 
L 27.390625 29.109375 
L 57.625 0 
L 45.90625 0 
L 18.109375 26.703125 
L 18.109375 0 
L 9.078125 0 
z
" id="DejaVuSans-107"/>
      <path d="M 32.171875 -5.078125 
Q 28.375 -14.84375 24.75 -17.8125 
Q 21.140625 -20.796875 15.09375 -20.796875 
L 7.90625 -20.796875 
L 7.90625 -13.28125 
L 13.1875 -13.28125 
Q 16.890625 -13.28125 18.9375 -11.515625 
Q 21 -9.765625 23.484375 -3.21875 
L 25.09375 0.875 
L 2.984375 54.6875 
L 12.5 54.6875 
L 29.59375 11.921875 
L 46.6875 54.6875 
L 56.203125 54.6875 
z
" id="DejaVuSans-121"/>
      <path d="M 19.671875 64.796875 
L 19.671875 8.109375 
L 31.59375 8.109375 
Q 46.6875 8.109375 53.6875 14.9375 
Q 60.6875 21.78125 60.6875 36.53125 
Q 60.6875 51.171875 53.6875 57.984375 
Q 46.6875 64.796875 31.59375 64.796875 
z
M 9.8125 72.90625 
L 30.078125 72.90625 
Q 51.265625 72.90625 61.171875 64.09375 
Q 71.09375 55.28125 71.09375 36.53125 
Q 71.09375 17.671875 61.125 8.828125 
Q 51.171875 0 30.078125 0 
L 9.8125 0 
z
" id="DejaVuSans-68"/>
     </defs>
     <use xlink:href="#DejaVuSans-51"/>
     <use x="63.623047" xlink:href="#DejaVuSans-45"/>
     <use x="99.707031" xlink:href="#DejaVuSans-105"/>
     <use x="127.490234" xlink:href="#DejaVuSans-108"/>
     <use x="155.273438" xlink:href="#DejaVuSans-108"/>
     <use x="183.056641" xlink:href="#DejaVuSans-45"/>
     <use x="219.140625" xlink:href="#DejaVuSans-99"/>
     <use x="274.121094" xlink:href="#DejaVuSans-111"/>
     <use x="335.302734" xlink:href="#DejaVuSans-110"/>
     <use x="398.681641" xlink:href="#DejaVuSans-100"/>
     <use x="462.158203" xlink:href="#DejaVuSans-105"/>
     <use x="489.941406" xlink:href="#DejaVuSans-116"/>
     <use x="529.150391" xlink:href="#DejaVuSans-105"/>
     <use x="556.933594" xlink:href="#DejaVuSans-111"/>
     <use x="618.115234" xlink:href="#DejaVuSans-110"/>
     <use x="681.494141" xlink:href="#DejaVuSans-101"/>
     <use x="743.017578" xlink:href="#DejaVuSans-100"/>
     <use x="806.494141" xlink:href="#DejaVuSans-32"/>
     <use x="838.28125" xlink:href="#DejaVuSans-53"/>
     <use x="901.904297" xlink:href="#DejaVuSans-45"/>
     <use x="937.988281" xlink:href="#DejaVuSans-119"/>
     <use x="1019.775391" xlink:href="#DejaVuSans-101"/>
     <use x="1081.298828" xlink:href="#DejaVuSans-97"/>
     <use x="1142.578125" xlink:href="#DejaVuSans-107"/>
     <use x="1200.488281" xlink:href="#DejaVuSans-108"/>
     <use x="1228.271484" xlink:href="#DejaVuSans-121"/>
     <use x="1285.701172" xlink:href="#DejaVuSans-45"/>
     <use x="1321.785156" xlink:href="#DejaVuSans-115"/>
     <use x="1373.884766" xlink:href="#DejaVuSans-116"/>
     <use x="1413.09375" xlink:href="#DejaVuSans-114"/>
     <use x="1454.207031" xlink:href="#DejaVuSans-117"/>
     <use x="1517.585938" xlink:href="#DejaVuSans-99"/>
     <use x="1572.566406" xlink:href="#DejaVuSans-116"/>
     <use x="1611.775391" xlink:href="#DejaVuSans-117"/>
     <use x="1675.154297" xlink:href="#DejaVuSans-114"/>
     <use x="1714.017578" xlink:href="#DejaVuSans-101"/>
     <use x="1775.541016" xlink:href="#DejaVuSans-100"/>
     <use x="1839.017578" xlink:href="#DejaVuSans-44"/>
     <use x="1870.804688" xlink:href="#DejaVuSans-32"/>
     <use x="1902.591797" xlink:href="#DejaVuSans-50"/>
     <use x="1966.214844" xlink:href="#DejaVuSans-45"/>
     <use x="2002.298828" xlink:href="#DejaVuSans-68"/>
    </g>
    <!-- 58 targets: 1..-1.0e-4 -->
    <g transform="translate(60.41088 37.004824)scale(0.102 -0.102)">
     <defs>
      <path d="M 11.71875 12.40625 
L 22.015625 12.40625 
L 22.015625 0 
L 11.71875 0 
z
M 11.71875 51.703125 
L 22.015625 51.703125 
L 22.015625 39.3125 
L 11.71875 39.3125 
z
" id="DejaVuSans-58"/>
     </defs>
     <use xlink:href="#DejaVuSans-53"/>
     <use x="63.623047" xlink:href="#DejaVuSans-56"/>
     <use x="127.246094" xlink:href="#DejaVuSans-32"/>
     <use x="159.033203" xlink:href="#DejaVuSans-116"/>
     <use x="198.242188" xlink:href="#DejaVuSans-97"/>
     <use x="259.521484" xlink:href="#DejaVuSans-114"/>
     <use x="298.884766" xlink:href="#DejaVuSans-103"/>
     <use x="362.361328" xlink:href="#DejaVuSans-101"/>
     <use x="423.884766" xlink:href="#DejaVuSans-116"/>
     <use x="463.09375" xlink:href="#DejaVuSans-115"/>
     <use x="515.193359" xlink:href="#DejaVuSans-58"/>
     <use x="548.884766" xlink:href="#DejaVuSans-32"/>
     <use x="580.671875" xlink:href="#DejaVuSans-49"/>
     <use x="644.294922" xlink:href="#DejaVuSans-46"/>
     <use x="676.082031" xlink:href="#DejaVuSans-46"/>
     <use x="707.869141" xlink:href="#DejaVuSans-45"/>
     <use x="743.953125" xlink:href="#DejaVuSans-49"/>
     <use x="807.576172" xlink:href="#DejaVuSans-46"/>
     <use x="839.363281" xlink:href="#DejaVuSans-48"/>
     <use x="902.986328" xlink:href="#DejaVuSans-101"/>
     <use x="964.509766" xlink:href="#DejaVuSans-45"/>
     <use x="1000.59375" xlink:href="#DejaVuSans-52"/>
    </g>
    <!-- 10 instances -->
    <g transform="translate(60.41088 48.426593)scale(0.102 -0.102)">
     <use xlink:href="#DejaVuSans-49"/>
     <use x="63.623047" xlink:href="#DejaVuSans-48"/>
     <use x="127.246094" xlink:href="#DejaVuSans-32"/>
     <use x="159.033203" xlink:href="#DejaVuSans-105"/>
     <use x="186.816406" xlink:href="#DejaVuSans-110"/>
     <use x="250.195312" xlink:href="#DejaVuSans-115"/>
     <use x="302.294922" xlink:href="#DejaVuSans-116"/>
     <use x="341.503906" xlink:href="#DejaVuSans-97"/>
     <use x="402.783203" xlink:href="#DejaVuSans-110"/>
     <use x="466.162109" xlink:href="#DejaVuSans-99"/>
     <use x="521.142578" xlink:href="#DejaVuSans-101"/>
     <use x="582.666016" xlink:href="#DejaVuSans-115"/>
    </g>
   </g>
   <g id="text_18">
    <!-- v2.4, hv-hash=ff0e71e8cd978373 -->
    <g style="fill:#808080;" transform="translate(112.648687 293.909432)scale(0.1 -0.1)">
     <defs>
      <path d="M 54.890625 33.015625 
L 54.890625 0 
L 45.90625 0 
L 45.90625 32.71875 
Q 45.90625 40.484375 42.875 44.328125 
Q 39.84375 48.1875 33.796875 48.1875 
Q 26.515625 48.1875 22.3125 43.546875 
Q 18.109375 38.921875 18.109375 30.90625 
L 18.109375 0 
L 9.078125 0 
L 9.078125 75.984375 
L 18.109375 75.984375 
L 18.109375 46.1875 
Q 21.34375 51.125 25.703125 53.5625 
Q 30.078125 56 35.796875 56 
Q 45.21875 56 50.046875 50.171875 
Q 54.890625 44.34375 54.890625 33.015625 
z
" id="DejaVuSans-104"/>
      <path d="M 10.59375 45.40625 
L 73.1875 45.40625 
L 73.1875 37.203125 
L 10.59375 37.203125 
z
M 10.59375 25.484375 
L 73.1875 25.484375 
L 73.1875 17.1875 
L 10.59375 17.1875 
z
" id="DejaVuSans-61"/>
      <path d="M 8.203125 72.90625 
L 55.078125 72.90625 
L 55.078125 68.703125 
L 28.609375 0 
L 18.3125 0 
L 43.21875 64.59375 
L 8.203125 64.59375 
z
" id="DejaVuSans-55"/>
     </defs>
     <use xlink:href="#DejaVuSans-118"/>
     <use x="59.179688" xlink:href="#DejaVuSans-50"/>
     <use x="122.802734" xlink:href="#DejaVuSans-46"/>
     <use x="154.589844" xlink:href="#DejaVuSans-52"/>
     <use x="218.212891" xlink:href="#DejaVuSans-44"/>
     <use x="250" xlink:href="#DejaVuSans-32"/>
     <use x="281.787109" xlink:href="#DejaVuSans-104"/>
     <use x="345.166016" xlink:href="#DejaVuSans-118"/>
     <use x="401.720703" xlink:href="#DejaVuSans-45"/>
     <use x="437.804688" xlink:href="#DejaVuSans-104"/>
     <use x="501.183594" xlink:href="#DejaVuSans-97"/>
     <use x="562.462891" xlink:href="#DejaVuSans-115"/>
     <use x="614.5625" xlink:href="#DejaVuSans-104"/>
     <use x="677.941406" xlink:href="#DejaVuSans-61"/>
     <use x="761.730469" xlink:href="#DejaVuSans-102"/>
     <use x="796.935547" xlink:href="#DejaVuSans-102"/>
     <use x="832.140625" xlink:href="#DejaVuSans-48"/>
     <use x="895.763672" xlink:href="#DejaVuSans-101"/>
     <use x="957.287109" xlink:href="#DejaVuSans-55"/>
     <use x="1020.910156" xlink:href="#DejaVuSans-49"/>
     <use x="1084.533203" xlink:href="#DejaVuSans-101"/>
     <use x="1146.056641" xlink:href="#DejaVuSans-56"/>
     <use x="1209.679688" xlink:href="#DejaVuSans-99"/>
     <use x="1264.660156" xlink:href="#DejaVuSans-100"/>
     <use x="1328.136719" xlink:href="#DejaVuSans-57"/>
     <use x="1391.759766" xlink:href="#DejaVuSans-55"/>
     <use x="1455.382812" xlink:href="#DejaVuSans-56"/>
     <use x="1519.005859" xlink:href="#DejaVuSans-51"/>
     <use x="1582.628906" xlink:href="#DejaVuSans-55"/>
     <use x="1646.251953" xlink:href="#DejaVuSans-51"/>
    </g>
   </g>
  </g>
 </g>
 <defs>
  <clipPath id="p46120dd6b6">
   <rect height="295.488" width="281.088" x="57.6" y="3.456"/>
  </clipPath>
 </defs>
</svg>
