<?xml version="1.0" encoding="utf-8" standalone="no"?>
<!DOCTYPE svg PUBLIC "-//W3C//DTD SVG 1.1//EN"
  "http://www.w3.org/Graphics/SVG/1.1/DTD/svg11.dtd">
<!-- Created with matplotlib (https://matplotlib.org/) -->
<svg height="345.6pt" version="1.1" viewBox="0 0 460.8 345.6" width="460.8pt" xmlns="http://www.w3.org/2000/svg" xmlns:xlink="http://www.w3.org/1999/xlink">
 <metadata>
  <rdf:RDF xmlns:cc="http://creativecommons.org/ns#" xmlns:dc="http://purl.org/dc/elements/1.1/" xmlns:rdf="http://www.w3.org/1999/02/22-rdf-syntax-ns#">
   <cc:Work>
    <dc:type rdf:resource="http://purl.org/dc/dcmitype/StillImage"/>
    <dc:date>2021-03-30T16:54:20.292181</dc:date>
    <dc:format>image/svg+xml</dc:format>
    <dc:creator>
     <cc:Agent>
      <dc:title>Matplotlib v3.3.4, https://matplotlib.org/</dc:title>
     </cc:Agent>
    </dc:creator>
   </cc:Work>
  </rdf:RDF>
 </metadata>
 <defs>
  <style type="text/css">*{stroke-linecap:butt;stroke-linejoin:round;}</style>
 </defs>
 <g id="figure_1">
  <g id="patch_1">
   <path d="M 0 345.6 
L 460.8 345.6 
L 460.8 0 
L 0 0 
z
" style="fill:#ffffff;"/>
  </g>
  <g id="axes_1">
   <g id="patch_2">
    <path d="M 57.6 298.944 
L 338.688 298.944 
L 338.688 27.648 
L 57.6 27.648 
z
" style="fill:#ffffff;"/>
   </g>
   <g id="matplotlib.axis_1">
    <g id="xtick_1">
     <g id="line2d_1">
      <path clip-path="url(#p61aab592ae)" d="M 57.6 298.944 
L 57.6 27.648 
" style="fill:none;stroke:#b0b0b0;stroke-linecap:square;stroke-width:0.8;"/>
     </g>
     <g id="line2d_2">
      <defs>
       <path d="M 0 0 
L 0 3.5 
" id="mdc72a64a30" style="stroke:#000000;stroke-width:0.8;"/>
      </defs>
      <g>
       <use style="stroke:#000000;stroke-width:0.8;" x="57.6" xlink:href="#mdc72a64a30" y="298.944"/>
      </g>
     </g>
     <g id="text_1">
      <!-- 0 -->
      <g transform="translate(51.2375 321.140875)scale(0.2 -0.2)">
       <defs>
        <path d="M 31.78125 66.40625 
Q 24.171875 66.40625 20.328125 58.90625 
Q 16.5 51.421875 16.5 36.375 
Q 16.5 21.390625 20.328125 13.890625 
Q 24.171875 6.390625 31.78125 6.390625 
Q 39.453125 6.390625 43.28125 13.890625 
Q 47.125 21.390625 47.125 36.375 
Q 47.125 51.421875 43.28125 58.90625 
Q 39.453125 66.40625 31.78125 66.40625 
z
M 31.78125 74.21875 
Q 44.046875 74.21875 50.515625 64.515625 
Q 56.984375 54.828125 56.984375 36.375 
Q 56.984375 17.96875 50.515625 8.265625 
Q 44.046875 -1.421875 31.78125 -1.421875 
Q 19.53125 -1.421875 13.0625 8.265625 
Q 6.59375 17.96875 6.59375 36.375 
Q 6.59375 54.828125 13.0625 64.515625 
Q 19.53125 74.21875 31.78125 74.21875 
z
" id="DejaVuSans-48"/>
       </defs>
       <use xlink:href="#DejaVuSans-48"/>
      </g>
     </g>
    </g>
    <g id="xtick_2">
     <g id="line2d_3">
      <path clip-path="url(#p61aab592ae)" d="M 137.910857 298.944 
L 137.910857 27.648 
" style="fill:none;stroke:#b0b0b0;stroke-linecap:square;stroke-width:0.8;"/>
     </g>
     <g id="line2d_4">
      <g>
       <use style="stroke:#000000;stroke-width:0.8;" x="137.910857" xlink:href="#mdc72a64a30" y="298.944"/>
      </g>
     </g>
     <g id="text_2">
      <!-- 2 -->
      <g transform="translate(131.548357 321.140875)scale(0.2 -0.2)">
       <defs>
        <path d="M 19.1875 8.296875 
L 53.609375 8.296875 
L 53.609375 0 
L 7.328125 0 
L 7.328125 8.296875 
Q 12.9375 14.109375 22.625 23.890625 
Q 32.328125 33.6875 34.8125 36.53125 
Q 39.546875 41.84375 41.421875 45.53125 
Q 43.3125 49.21875 43.3125 52.78125 
Q 43.3125 58.59375 39.234375 62.25 
Q 35.15625 65.921875 28.609375 65.921875 
Q 23.96875 65.921875 18.8125 64.3125 
Q 13.671875 62.703125 7.8125 59.421875 
L 7.8125 69.390625 
Q 13.765625 71.78125 18.9375 73 
Q 24.125 74.21875 28.421875 74.21875 
Q 39.75 74.21875 46.484375 68.546875 
Q 53.21875 62.890625 53.21875 53.421875 
Q 53.21875 48.921875 51.53125 44.890625 
Q 49.859375 40.875 45.40625 35.40625 
Q 44.1875 33.984375 37.640625 27.21875 
Q 31.109375 20.453125 19.1875 8.296875 
z
" id="DejaVuSans-50"/>
       </defs>
       <use xlink:href="#DejaVuSans-50"/>
      </g>
     </g>
    </g>
    <g id="xtick_3">
     <g id="line2d_5">
      <path clip-path="url(#p61aab592ae)" d="M 218.221714 298.944 
L 218.221714 27.648 
" style="fill:none;stroke:#b0b0b0;stroke-linecap:square;stroke-width:0.8;"/>
     </g>
     <g id="line2d_6">
      <g>
       <use style="stroke:#000000;stroke-width:0.8;" x="218.221714" xlink:href="#mdc72a64a30" y="298.944"/>
      </g>
     </g>
     <g id="text_3">
      <!-- 4 -->
      <g transform="translate(211.859214 321.140875)scale(0.2 -0.2)">
       <defs>
        <path d="M 37.796875 64.3125 
L 12.890625 25.390625 
L 37.796875 25.390625 
z
M 35.203125 72.90625 
L 47.609375 72.90625 
L 47.609375 25.390625 
L 58.015625 25.390625 
L 58.015625 17.1875 
L 47.609375 17.1875 
L 47.609375 0 
L 37.796875 0 
L 37.796875 17.1875 
L 4.890625 17.1875 
L 4.890625 26.703125 
z
" id="DejaVuSans-52"/>
       </defs>
       <use xlink:href="#DejaVuSans-52"/>
      </g>
     </g>
    </g>
    <g id="xtick_4">
     <g id="line2d_7">
      <path clip-path="url(#p61aab592ae)" d="M 298.532571 298.944 
L 298.532571 27.648 
" style="fill:none;stroke:#b0b0b0;stroke-linecap:square;stroke-width:0.8;"/>
     </g>
     <g id="line2d_8">
      <g>
       <use style="stroke:#000000;stroke-width:0.8;" x="298.532571" xlink:href="#mdc72a64a30" y="298.944"/>
      </g>
     </g>
     <g id="text_4">
      <!-- 6 -->
      <g transform="translate(292.170071 321.140875)scale(0.2 -0.2)">
       <defs>
        <path d="M 33.015625 40.375 
Q 26.375 40.375 22.484375 35.828125 
Q 18.609375 31.296875 18.609375 23.390625 
Q 18.609375 15.53125 22.484375 10.953125 
Q 26.375 6.390625 33.015625 6.390625 
Q 39.65625 6.390625 43.53125 10.953125 
Q 47.40625 15.53125 47.40625 23.390625 
Q 47.40625 31.296875 43.53125 35.828125 
Q 39.65625 40.375 33.015625 40.375 
z
M 52.59375 71.296875 
L 52.59375 62.3125 
Q 48.875 64.0625 45.09375 64.984375 
Q 41.3125 65.921875 37.59375 65.921875 
Q 27.828125 65.921875 22.671875 59.328125 
Q 17.53125 52.734375 16.796875 39.40625 
Q 19.671875 43.65625 24.015625 45.921875 
Q 28.375 48.1875 33.59375 48.1875 
Q 44.578125 48.1875 50.953125 41.515625 
Q 57.328125 34.859375 57.328125 23.390625 
Q 57.328125 12.15625 50.6875 5.359375 
Q 44.046875 -1.421875 33.015625 -1.421875 
Q 20.359375 -1.421875 13.671875 8.265625 
Q 6.984375 17.96875 6.984375 36.375 
Q 6.984375 53.65625 15.1875 63.9375 
Q 23.390625 74.21875 37.203125 74.21875 
Q 40.921875 74.21875 44.703125 73.484375 
Q 48.484375 72.75 52.59375 71.296875 
z
" id="DejaVuSans-54"/>
       </defs>
       <use xlink:href="#DejaVuSans-54"/>
      </g>
     </g>
    </g>
    <g id="xtick_5">
     <g id="line2d_9">
      <path clip-path="url(#p61aab592ae)" d="M 97.755429 298.944 
L 97.755429 27.648 
" style="fill:none;stroke:#b0b0b0;stroke-linecap:square;stroke-width:0.8;"/>
     </g>
     <g id="line2d_10">
      <defs>
       <path d="M 0 0 
L 0 2 
" id="m3339e027c6" style="stroke:#000000;stroke-width:0.6;"/>
      </defs>
      <g>
       <use style="stroke:#000000;stroke-width:0.6;" x="97.755429" xlink:href="#m3339e027c6" y="298.944"/>
      </g>
     </g>
    </g>
    <g id="xtick_6">
     <g id="line2d_11">
      <path clip-path="url(#p61aab592ae)" d="M 178.066286 298.944 
L 178.066286 27.648 
" style="fill:none;stroke:#b0b0b0;stroke-linecap:square;stroke-width:0.8;"/>
     </g>
     <g id="line2d_12">
      <g>
       <use style="stroke:#000000;stroke-width:0.6;" x="178.066286" xlink:href="#m3339e027c6" y="298.944"/>
      </g>
     </g>
    </g>
    <g id="xtick_7">
     <g id="line2d_13">
      <path clip-path="url(#p61aab592ae)" d="M 258.377143 298.944 
L 258.377143 27.648 
" style="fill:none;stroke:#b0b0b0;stroke-linecap:square;stroke-width:0.8;"/>
     </g>
     <g id="line2d_14">
      <g>
       <use style="stroke:#000000;stroke-width:0.6;" x="258.377143" xlink:href="#m3339e027c6" y="298.944"/>
      </g>
     </g>
    </g>
    <g id="xtick_8">
     <g id="line2d_15">
      <path clip-path="url(#p61aab592ae)" d="M 338.688 298.944 
L 338.688 27.648 
" style="fill:none;stroke:#b0b0b0;stroke-linecap:square;stroke-width:0.8;"/>
     </g>
     <g id="line2d_16">
      <g>
       <use style="stroke:#000000;stroke-width:0.6;" x="338.688" xlink:href="#m3339e027c6" y="298.944"/>
      </g>
     </g>
    </g>
    <g id="text_5">
     <!-- log10(# f-evals / dimension) -->
     <g transform="translate(77.764078 342.217594)scale(0.17 -0.17)">
      <defs>
       <path d="M 9.421875 75.984375 
L 18.40625 75.984375 
L 18.40625 0 
L 9.421875 0 
z
" id="DejaVuSans-108"/>
       <path d="M 30.609375 48.390625 
Q 23.390625 48.390625 19.1875 42.75 
Q 14.984375 37.109375 14.984375 27.296875 
Q 14.984375 17.484375 19.15625 11.84375 
Q 23.34375 6.203125 30.609375 6.203125 
Q 37.796875 6.203125 41.984375 11.859375 
Q 46.1875 17.53125 46.1875 27.296875 
Q 46.1875 37.015625 41.984375 42.703125 
Q 37.796875 48.390625 30.609375 48.390625 
z
M 30.609375 56 
Q 42.328125 56 49.015625 48.375 
Q 55.71875 40.765625 55.71875 27.296875 
Q 55.71875 13.875 49.015625 6.21875 
Q 42.328125 -1.421875 30.609375 -1.421875 
Q 18.84375 -1.421875 12.171875 6.21875 
Q 5.515625 13.875 5.515625 27.296875 
Q 5.515625 40.765625 12.171875 48.375 
Q 18.84375 56 30.609375 56 
z
" id="DejaVuSans-111"/>
       <path d="M 45.40625 27.984375 
Q 45.40625 37.75 41.375 43.109375 
Q 37.359375 48.484375 30.078125 48.484375 
Q 22.859375 48.484375 18.828125 43.109375 
Q 14.796875 37.75 14.796875 27.984375 
Q 14.796875 18.265625 18.828125 12.890625 
Q 22.859375 7.515625 30.078125 7.515625 
Q 37.359375 7.515625 41.375 12.890625 
Q 45.40625 18.265625 45.40625 27.984375 
z
M 54.390625 6.78125 
Q 54.390625 -7.171875 48.1875 -13.984375 
Q 42 -20.796875 29.203125 -20.796875 
Q 24.46875 -20.796875 20.265625 -20.09375 
Q 16.0625 -19.390625 12.109375 -17.921875 
L 12.109375 -9.1875 
Q 16.0625 -11.328125 19.921875 -12.34375 
Q 23.78125 -13.375 27.78125 -13.375 
Q 36.625 -13.375 41.015625 -8.765625 
Q 45.40625 -4.15625 45.40625 5.171875 
L 45.40625 9.625 
Q 42.625 4.78125 38.28125 2.390625 
Q 33.9375 0 27.875 0 
Q 17.828125 0 11.671875 7.65625 
Q 5.515625 15.328125 5.515625 27.984375 
Q 5.515625 40.671875 11.671875 48.328125 
Q 17.828125 56 27.875 56 
Q 33.9375 56 38.28125 53.609375 
Q 42.625 51.21875 45.40625 46.390625 
L 45.40625 54.6875 
L 54.390625 54.6875 
z
" id="DejaVuSans-103"/>
       <path d="M 12.40625 8.296875 
L 28.515625 8.296875 
L 28.515625 63.921875 
L 10.984375 60.40625 
L 10.984375 69.390625 
L 28.421875 72.90625 
L 38.28125 72.90625 
L 38.28125 8.296875 
L 54.390625 8.296875 
L 54.390625 0 
L 12.40625 0 
z
" id="DejaVuSans-49"/>
       <path d="M 31 75.875 
Q 24.46875 64.65625 21.28125 53.65625 
Q 18.109375 42.671875 18.109375 31.390625 
Q 18.109375 20.125 21.3125 9.0625 
Q 24.515625 -2 31 -13.1875 
L 23.1875 -13.1875 
Q 15.875 -1.703125 12.234375 9.375 
Q 8.59375 20.453125 8.59375 31.390625 
Q 8.59375 42.28125 12.203125 53.3125 
Q 15.828125 64.359375 23.1875 75.875 
z
" id="DejaVuSans-40"/>
       <path d="M 51.125 44 
L 36.921875 44 
L 32.8125 27.6875 
L 47.125 27.6875 
z
M 43.796875 71.78125 
L 38.71875 51.515625 
L 52.984375 51.515625 
L 58.109375 71.78125 
L 65.921875 71.78125 
L 60.890625 51.515625 
L 76.125 51.515625 
L 76.125 44 
L 58.984375 44 
L 54.984375 27.6875 
L 70.515625 27.6875 
L 70.515625 20.21875 
L 53.078125 20.21875 
L 48 0 
L 40.1875 0 
L 45.21875 20.21875 
L 30.90625 20.21875 
L 25.875 0 
L 18.015625 0 
L 23.09375 20.21875 
L 7.71875 20.21875 
L 7.71875 27.6875 
L 24.90625 27.6875 
L 29 44 
L 13.28125 44 
L 13.28125 51.515625 
L 30.90625 51.515625 
L 35.890625 71.78125 
z
" id="DejaVuSans-35"/>
       <path id="DejaVuSans-32"/>
       <path d="M 37.109375 75.984375 
L 37.109375 68.5 
L 28.515625 68.5 
Q 23.6875 68.5 21.796875 66.546875 
Q 19.921875 64.59375 19.921875 59.515625 
L 19.921875 54.6875 
L 34.71875 54.6875 
L 34.71875 47.703125 
L 19.921875 47.703125 
L 19.921875 0 
L 10.890625 0 
L 10.890625 47.703125 
L 2.296875 47.703125 
L 2.296875 54.6875 
L 10.890625 54.6875 
L 10.890625 58.5 
Q 10.890625 67.625 15.140625 71.796875 
Q 19.390625 75.984375 28.609375 75.984375 
z
" id="DejaVuSans-102"/>
       <path d="M 4.890625 31.390625 
L 31.203125 31.390625 
L 31.203125 23.390625 
L 4.890625 23.390625 
z
" id="DejaVuSans-45"/>
       <path d="M 56.203125 29.59375 
L 56.203125 25.203125 
L 14.890625 25.203125 
Q 15.484375 15.921875 20.484375 11.0625 
Q 25.484375 6.203125 34.421875 6.203125 
Q 39.59375 6.203125 44.453125 7.46875 
Q 49.3125 8.734375 54.109375 11.28125 
L 54.109375 2.78125 
Q 49.265625 0.734375 44.1875 -0.34375 
Q 39.109375 -1.421875 33.890625 -1.421875 
Q 20.796875 -1.421875 13.15625 6.1875 
Q 5.515625 13.8125 5.515625 26.8125 
Q 5.515625 40.234375 12.765625 48.109375 
Q 20.015625 56 32.328125 56 
Q 43.359375 56 49.78125 48.890625 
Q 56.203125 41.796875 56.203125 29.59375 
z
M 47.21875 32.234375 
Q 47.125 39.59375 43.09375 43.984375 
Q 39.0625 48.390625 32.421875 48.390625 
Q 24.90625 48.390625 20.390625 44.140625 
Q 15.875 39.890625 15.1875 32.171875 
z
" id="DejaVuSans-101"/>
       <path d="M 2.984375 54.6875 
L 12.5 54.6875 
L 29.59375 8.796875 
L 46.6875 54.6875 
L 56.203125 54.6875 
L 35.6875 0 
L 23.484375 0 
z
" id="DejaVuSans-118"/>
       <path d="M 34.28125 27.484375 
Q 23.390625 27.484375 19.1875 25 
Q 14.984375 22.515625 14.984375 16.5 
Q 14.984375 11.71875 18.140625 8.90625 
Q 21.296875 6.109375 26.703125 6.109375 
Q 34.1875 6.109375 38.703125 11.40625 
Q 43.21875 16.703125 43.21875 25.484375 
L 43.21875 27.484375 
z
M 52.203125 31.203125 
L 52.203125 0 
L 43.21875 0 
L 43.21875 8.296875 
Q 40.140625 3.328125 35.546875 0.953125 
Q 30.953125 -1.421875 24.3125 -1.421875 
Q 15.921875 -1.421875 10.953125 3.296875 
Q 6 8.015625 6 15.921875 
Q 6 25.140625 12.171875 29.828125 
Q 18.359375 34.515625 30.609375 34.515625 
L 43.21875 34.515625 
L 43.21875 35.40625 
Q 43.21875 41.609375 39.140625 45 
Q 35.0625 48.390625 27.6875 48.390625 
Q 23 48.390625 18.546875 47.265625 
Q 14.109375 46.140625 10.015625 43.890625 
L 10.015625 52.203125 
Q 14.9375 54.109375 19.578125 55.046875 
Q 24.21875 56 28.609375 56 
Q 40.484375 56 46.34375 49.84375 
Q 52.203125 43.703125 52.203125 31.203125 
z
" id="DejaVuSans-97"/>
       <path d="M 44.28125 53.078125 
L 44.28125 44.578125 
Q 40.484375 46.53125 36.375 47.5 
Q 32.28125 48.484375 27.875 48.484375 
Q 21.1875 48.484375 17.84375 46.4375 
Q 14.5 44.390625 14.5 40.28125 
Q 14.5 37.15625 16.890625 35.375 
Q 19.28125 33.59375 26.515625 31.984375 
L 29.59375 31.296875 
Q 39.15625 29.25 43.1875 25.515625 
Q 47.21875 21.78125 47.21875 15.09375 
Q 47.21875 7.46875 41.1875 3.015625 
Q 35.15625 -1.421875 24.609375 -1.421875 
Q 20.21875 -1.421875 15.453125 -0.5625 
Q 10.6875 0.296875 5.421875 2 
L 5.421875 11.28125 
Q 10.40625 8.6875 15.234375 7.390625 
Q 20.0625 6.109375 24.8125 6.109375 
Q 31.15625 6.109375 34.5625 8.28125 
Q 37.984375 10.453125 37.984375 14.40625 
Q 37.984375 18.0625 35.515625 20.015625 
Q 33.0625 21.96875 24.703125 23.78125 
L 21.578125 24.515625 
Q 13.234375 26.265625 9.515625 29.90625 
Q 5.8125 33.546875 5.8125 39.890625 
Q 5.8125 47.609375 11.28125 51.796875 
Q 16.75 56 26.8125 56 
Q 31.78125 56 36.171875 55.265625 
Q 40.578125 54.546875 44.28125 53.078125 
z
" id="DejaVuSans-115"/>
       <path d="M 25.390625 72.90625 
L 33.6875 72.90625 
L 8.296875 -9.28125 
L 0 -9.28125 
z
" id="DejaVuSans-47"/>
       <path d="M 45.40625 46.390625 
L 45.40625 75.984375 
L 54.390625 75.984375 
L 54.390625 0 
L 45.40625 0 
L 45.40625 8.203125 
Q 42.578125 3.328125 38.25 0.953125 
Q 33.9375 -1.421875 27.875 -1.421875 
Q 17.96875 -1.421875 11.734375 6.484375 
Q 5.515625 14.40625 5.515625 27.296875 
Q 5.515625 40.1875 11.734375 48.09375 
Q 17.96875 56 27.875 56 
Q 33.9375 56 38.25 53.625 
Q 42.578125 51.265625 45.40625 46.390625 
z
M 14.796875 27.296875 
Q 14.796875 17.390625 18.875 11.75 
Q 22.953125 6.109375 30.078125 6.109375 
Q 37.203125 6.109375 41.296875 11.75 
Q 45.40625 17.390625 45.40625 27.296875 
Q 45.40625 37.203125 41.296875 42.84375 
Q 37.203125 48.484375 30.078125 48.484375 
Q 22.953125 48.484375 18.875 42.84375 
Q 14.796875 37.203125 14.796875 27.296875 
z
" id="DejaVuSans-100"/>
       <path d="M 9.421875 54.6875 
L 18.40625 54.6875 
L 18.40625 0 
L 9.421875 0 
z
M 9.421875 75.984375 
L 18.40625 75.984375 
L 18.40625 64.59375 
L 9.421875 64.59375 
z
" id="DejaVuSans-105"/>
       <path d="M 52 44.1875 
Q 55.375 50.25 60.0625 53.125 
Q 64.75 56 71.09375 56 
Q 79.640625 56 84.28125 50.015625 
Q 88.921875 44.046875 88.921875 33.015625 
L 88.921875 0 
L 79.890625 0 
L 79.890625 32.71875 
Q 79.890625 40.578125 77.09375 44.375 
Q 74.3125 48.1875 68.609375 48.1875 
Q 61.625 48.1875 57.5625 43.546875 
Q 53.515625 38.921875 53.515625 30.90625 
L 53.515625 0 
L 44.484375 0 
L 44.484375 32.71875 
Q 44.484375 40.625 41.703125 44.40625 
Q 38.921875 48.1875 33.109375 48.1875 
Q 26.21875 48.1875 22.15625 43.53125 
Q 18.109375 38.875 18.109375 30.90625 
L 18.109375 0 
L 9.078125 0 
L 9.078125 54.6875 
L 18.109375 54.6875 
L 18.109375 46.1875 
Q 21.1875 51.21875 25.484375 53.609375 
Q 29.78125 56 35.6875 56 
Q 41.65625 56 45.828125 52.96875 
Q 50 49.953125 52 44.1875 
z
" id="DejaVuSans-109"/>
       <path d="M 54.890625 33.015625 
L 54.890625 0 
L 45.90625 0 
L 45.90625 32.71875 
Q 45.90625 40.484375 42.875 44.328125 
Q 39.84375 48.1875 33.796875 48.1875 
Q 26.515625 48.1875 22.3125 43.546875 
Q 18.109375 38.921875 18.109375 30.90625 
L 18.109375 0 
L 9.078125 0 
L 9.078125 54.6875 
L 18.109375 54.6875 
L 18.109375 46.1875 
Q 21.34375 51.125 25.703125 53.5625 
Q 30.078125 56 35.796875 56 
Q 45.21875 56 50.046875 50.171875 
Q 54.890625 44.34375 54.890625 33.015625 
z
" id="DejaVuSans-110"/>
       <path d="M 8.015625 75.875 
L 15.828125 75.875 
Q 23.140625 64.359375 26.78125 53.3125 
Q 30.421875 42.28125 30.421875 31.390625 
Q 30.421875 20.453125 26.78125 9.375 
Q 23.140625 -1.703125 15.828125 -13.1875 
L 8.015625 -13.1875 
Q 14.5 -2 17.703125 9.0625 
Q 20.90625 20.125 20.90625 31.390625 
Q 20.90625 42.671875 17.703125 53.65625 
Q 14.5 64.65625 8.015625 75.875 
z
" id="DejaVuSans-41"/>
      </defs>
      <use xlink:href="#DejaVuSans-108"/>
      <use x="27.783203" xlink:href="#DejaVuSans-111"/>
      <use x="88.964844" xlink:href="#DejaVuSans-103"/>
      <use x="152.441406" xlink:href="#DejaVuSans-49"/>
      <use x="216.064453" xlink:href="#DejaVuSans-48"/>
      <use x="279.6875" xlink:href="#DejaVuSans-40"/>
      <use x="318.701172" xlink:href="#DejaVuSans-35"/>
      <use x="402.490234" xlink:href="#DejaVuSans-32"/>
      <use x="434.277344" xlink:href="#DejaVuSans-102"/>
      <use x="463.982422" xlink:href="#DejaVuSans-45"/>
      <use x="500.066406" xlink:href="#DejaVuSans-101"/>
      <use x="561.589844" xlink:href="#DejaVuSans-118"/>
      <use x="620.769531" xlink:href="#DejaVuSans-97"/>
      <use x="682.048828" xlink:href="#DejaVuSans-108"/>
      <use x="709.832031" xlink:href="#DejaVuSans-115"/>
      <use x="761.931641" xlink:href="#DejaVuSans-32"/>
      <use x="793.71875" xlink:href="#DejaVuSans-47"/>
      <use x="827.410156" xlink:href="#DejaVuSans-32"/>
      <use x="859.197266" xlink:href="#DejaVuSans-100"/>
      <use x="922.673828" xlink:href="#DejaVuSans-105"/>
      <use x="950.457031" xlink:href="#DejaVuSans-109"/>
      <use x="1047.869141" xlink:href="#DejaVuSans-101"/>
      <use x="1109.392578" xlink:href="#DejaVuSans-110"/>
      <use x="1172.771484" xlink:href="#DejaVuSans-115"/>
      <use x="1224.871094" xlink:href="#DejaVuSans-105"/>
      <use x="1252.654297" xlink:href="#DejaVuSans-111"/>
      <use x="1313.835938" xlink:href="#DejaVuSans-110"/>
      <use x="1377.214844" xlink:href="#DejaVuSans-41"/>
     </g>
    </g>
   </g>
   <g id="matplotlib.axis_2">
    <g id="ytick_1">
     <g id="line2d_17">
      <path clip-path="url(#p61aab592ae)" d="M 57.6 298.944 
L 338.688 298.944 
" style="fill:none;stroke:#b0b0b0;stroke-linecap:square;stroke-width:0.8;"/>
     </g>
     <g id="line2d_18">
      <defs>
       <path d="M 0 0 
L -3.5 0 
" id="mb04fd791fc" style="stroke:#000000;stroke-width:0.8;"/>
      </defs>
      <g>
       <use style="stroke:#000000;stroke-width:0.8;" x="57.6" xlink:href="#mb04fd791fc" y="298.944"/>
      </g>
     </g>
     <g id="text_6">
      <!-- 0.0 -->
      <g transform="translate(25.155 305.02275)scale(0.16 -0.16)">
       <defs>
        <path d="M 10.6875 12.40625 
L 21 12.40625 
L 21 0 
L 10.6875 0 
z
" id="DejaVuSans-46"/>
       </defs>
       <use xlink:href="#DejaVuSans-48"/>
       <use x="63.623047" xlink:href="#DejaVuSans-46"/>
       <use x="95.410156" xlink:href="#DejaVuSans-48"/>
      </g>
     </g>
    </g>
    <g id="ytick_2">
     <g id="line2d_19">
      <path clip-path="url(#p61aab592ae)" d="M 57.6 245.22202 
L 338.688 245.22202 
" style="fill:none;stroke:#b0b0b0;stroke-linecap:square;stroke-width:0.8;"/>
     </g>
     <g id="line2d_20">
      <g>
       <use style="stroke:#000000;stroke-width:0.8;" x="57.6" xlink:href="#mb04fd791fc" y="245.22202"/>
      </g>
     </g>
     <g id="text_7">
      <!-- 0.2 -->
      <g transform="translate(25.155 251.30077)scale(0.16 -0.16)">
       <use xlink:href="#DejaVuSans-48"/>
       <use x="63.623047" xlink:href="#DejaVuSans-46"/>
       <use x="95.410156" xlink:href="#DejaVuSans-50"/>
      </g>
     </g>
    </g>
    <g id="ytick_3">
     <g id="line2d_21">
      <path clip-path="url(#p61aab592ae)" d="M 57.6 191.50004 
L 338.688 191.50004 
" style="fill:none;stroke:#b0b0b0;stroke-linecap:square;stroke-width:0.8;"/>
     </g>
     <g id="line2d_22">
      <g>
       <use style="stroke:#000000;stroke-width:0.8;" x="57.6" xlink:href="#mb04fd791fc" y="191.50004"/>
      </g>
     </g>
     <g id="text_8">
      <!-- 0.4 -->
      <g transform="translate(25.155 197.57879)scale(0.16 -0.16)">
       <use xlink:href="#DejaVuSans-48"/>
       <use x="63.623047" xlink:href="#DejaVuSans-46"/>
       <use x="95.410156" xlink:href="#DejaVuSans-52"/>
      </g>
     </g>
    </g>
    <g id="ytick_4">
     <g id="line2d_23">
      <path clip-path="url(#p61aab592ae)" d="M 57.6 137.778059 
L 338.688 137.778059 
" style="fill:none;stroke:#b0b0b0;stroke-linecap:square;stroke-width:0.8;"/>
     </g>
     <g id="line2d_24">
      <g>
       <use style="stroke:#000000;stroke-width:0.8;" x="57.6" xlink:href="#mb04fd791fc" y="137.778059"/>
      </g>
     </g>
     <g id="text_9">
      <!-- 0.6 -->
      <g transform="translate(25.155 143.856809)scale(0.16 -0.16)">
       <use xlink:href="#DejaVuSans-48"/>
       <use x="63.623047" xlink:href="#DejaVuSans-46"/>
       <use x="95.410156" xlink:href="#DejaVuSans-54"/>
      </g>
     </g>
    </g>
    <g id="ytick_5">
     <g id="line2d_25">
      <path clip-path="url(#p61aab592ae)" d="M 57.6 84.056079 
L 338.688 84.056079 
" style="fill:none;stroke:#b0b0b0;stroke-linecap:square;stroke-width:0.8;"/>
     </g>
     <g id="line2d_26">
      <g>
       <use style="stroke:#000000;stroke-width:0.8;" x="57.6" xlink:href="#mb04fd791fc" y="84.056079"/>
      </g>
     </g>
     <g id="text_10">
      <!-- 0.8 -->
      <g transform="translate(25.155 90.134829)scale(0.16 -0.16)">
       <defs>
        <path d="M 31.78125 34.625 
Q 24.75 34.625 20.71875 30.859375 
Q 16.703125 27.09375 16.703125 20.515625 
Q 16.703125 13.921875 20.71875 10.15625 
Q 24.75 6.390625 31.78125 6.390625 
Q 38.8125 6.390625 42.859375 10.171875 
Q 46.921875 13.96875 46.921875 20.515625 
Q 46.921875 27.09375 42.890625 30.859375 
Q 38.875 34.625 31.78125 34.625 
z
M 21.921875 38.8125 
Q 15.578125 40.375 12.03125 44.71875 
Q 8.5 49.078125 8.5 55.328125 
Q 8.5 64.0625 14.71875 69.140625 
Q 20.953125 74.21875 31.78125 74.21875 
Q 42.671875 74.21875 48.875 69.140625 
Q 55.078125 64.0625 55.078125 55.328125 
Q 55.078125 49.078125 51.53125 44.71875 
Q 48 40.375 41.703125 38.8125 
Q 48.828125 37.15625 52.796875 32.3125 
Q 56.78125 27.484375 56.78125 20.515625 
Q 56.78125 9.90625 50.3125 4.234375 
Q 43.84375 -1.421875 31.78125 -1.421875 
Q 19.734375 -1.421875 13.25 4.234375 
Q 6.78125 9.90625 6.78125 20.515625 
Q 6.78125 27.484375 10.78125 32.3125 
Q 14.796875 37.15625 21.921875 38.8125 
z
M 18.3125 54.390625 
Q 18.3125 48.734375 21.84375 45.5625 
Q 25.390625 42.390625 31.78125 42.390625 
Q 38.140625 42.390625 41.71875 45.5625 
Q 45.3125 48.734375 45.3125 54.390625 
Q 45.3125 60.0625 41.71875 63.234375 
Q 38.140625 66.40625 31.78125 66.40625 
Q 25.390625 66.40625 21.84375 63.234375 
Q 18.3125 60.0625 18.3125 54.390625 
z
" id="DejaVuSans-56"/>
       </defs>
       <use xlink:href="#DejaVuSans-48"/>
       <use x="63.623047" xlink:href="#DejaVuSans-46"/>
       <use x="95.410156" xlink:href="#DejaVuSans-56"/>
      </g>
     </g>
    </g>
    <g id="ytick_6">
     <g id="line2d_27">
      <path clip-path="url(#p61aab592ae)" d="M 57.6 30.334099 
L 338.688 30.334099 
" style="fill:none;stroke:#b0b0b0;stroke-linecap:square;stroke-width:0.8;"/>
     </g>
     <g id="line2d_28">
      <g>
       <use style="stroke:#000000;stroke-width:0.8;" x="57.6" xlink:href="#mb04fd791fc" y="30.334099"/>
      </g>
     </g>
     <g id="text_11">
      <!-- 1.0 -->
      <g transform="translate(25.155 36.412849)scale(0.16 -0.16)">
       <use xlink:href="#DejaVuSans-49"/>
       <use x="63.623047" xlink:href="#DejaVuSans-46"/>
       <use x="95.410156" xlink:href="#DejaVuSans-48"/>
      </g>
     </g>
    </g>
    <g id="text_12">
     <!-- Fraction of function,target pairs -->
     <g transform="translate(17.619531 297.681)rotate(-90)scale(0.17 -0.17)">
      <defs>
       <path d="M 9.8125 72.90625 
L 51.703125 72.90625 
L 51.703125 64.59375 
L 19.671875 64.59375 
L 19.671875 43.109375 
L 48.578125 43.109375 
L 48.578125 34.8125 
L 19.671875 34.8125 
L 19.671875 0 
L 9.8125 0 
z
" id="DejaVuSans-70"/>
       <path d="M 41.109375 46.296875 
Q 39.59375 47.171875 37.8125 47.578125 
Q 36.03125 48 33.890625 48 
Q 26.265625 48 22.1875 43.046875 
Q 18.109375 38.09375 18.109375 28.8125 
L 18.109375 0 
L 9.078125 0 
L 9.078125 54.6875 
L 18.109375 54.6875 
L 18.109375 46.1875 
Q 20.953125 51.171875 25.484375 53.578125 
Q 30.03125 56 36.53125 56 
Q 37.453125 56 38.578125 55.875 
Q 39.703125 55.765625 41.0625 55.515625 
z
" id="DejaVuSans-114"/>
       <path d="M 48.78125 52.59375 
L 48.78125 44.1875 
Q 44.96875 46.296875 41.140625 47.34375 
Q 37.3125 48.390625 33.40625 48.390625 
Q 24.65625 48.390625 19.8125 42.84375 
Q 14.984375 37.3125 14.984375 27.296875 
Q 14.984375 17.28125 19.8125 11.734375 
Q 24.65625 6.203125 33.40625 6.203125 
Q 37.3125 6.203125 41.140625 7.25 
Q 44.96875 8.296875 48.78125 10.40625 
L 48.78125 2.09375 
Q 45.015625 0.34375 40.984375 -0.53125 
Q 36.96875 -1.421875 32.421875 -1.421875 
Q 20.0625 -1.421875 12.78125 6.34375 
Q 5.515625 14.109375 5.515625 27.296875 
Q 5.515625 40.671875 12.859375 48.328125 
Q 20.21875 56 33.015625 56 
Q 37.15625 56 41.109375 55.140625 
Q 45.0625 54.296875 48.78125 52.59375 
z
" id="DejaVuSans-99"/>
       <path d="M 18.3125 70.21875 
L 18.3125 54.6875 
L 36.8125 54.6875 
L 36.8125 47.703125 
L 18.3125 47.703125 
L 18.3125 18.015625 
Q 18.3125 11.328125 20.140625 9.421875 
Q 21.96875 7.515625 27.59375 7.515625 
L 36.8125 7.515625 
L 36.8125 0 
L 27.59375 0 
Q 17.1875 0 13.234375 3.875 
Q 9.28125 7.765625 9.28125 18.015625 
L 9.28125 47.703125 
L 2.6875 47.703125 
L 2.6875 54.6875 
L 9.28125 54.6875 
L 9.28125 70.21875 
z
" id="DejaVuSans-116"/>
       <path d="M 8.5 21.578125 
L 8.5 54.6875 
L 17.484375 54.6875 
L 17.484375 21.921875 
Q 17.484375 14.15625 20.5 10.265625 
Q 23.53125 6.390625 29.59375 6.390625 
Q 36.859375 6.390625 41.078125 11.03125 
Q 45.3125 15.671875 45.3125 23.6875 
L 45.3125 54.6875 
L 54.296875 54.6875 
L 54.296875 0 
L 45.3125 0 
L 45.3125 8.40625 
Q 42.046875 3.421875 37.71875 1 
Q 33.40625 -1.421875 27.6875 -1.421875 
Q 18.265625 -1.421875 13.375 4.4375 
Q 8.5 10.296875 8.5 21.578125 
z
M 31.109375 56 
z
" id="DejaVuSans-117"/>
       <path d="M 11.71875 12.40625 
L 22.015625 12.40625 
L 22.015625 4 
L 14.015625 -11.625 
L 7.71875 -11.625 
L 11.71875 4 
z
" id="DejaVuSans-44"/>
       <path d="M 18.109375 8.203125 
L 18.109375 -20.796875 
L 9.078125 -20.796875 
L 9.078125 54.6875 
L 18.109375 54.6875 
L 18.109375 46.390625 
Q 20.953125 51.265625 25.265625 53.625 
Q 29.59375 56 35.59375 56 
Q 45.5625 56 51.78125 48.09375 
Q 58.015625 40.1875 58.015625 27.296875 
Q 58.015625 14.40625 51.78125 6.484375 
Q 45.5625 -1.421875 35.59375 -1.421875 
Q 29.59375 -1.421875 25.265625 0.953125 
Q 20.953125 3.328125 18.109375 8.203125 
z
M 48.6875 27.296875 
Q 48.6875 37.203125 44.609375 42.84375 
Q 40.53125 48.484375 33.40625 48.484375 
Q 26.265625 48.484375 22.1875 42.84375 
Q 18.109375 37.203125 18.109375 27.296875 
Q 18.109375 17.390625 22.1875 11.75 
Q 26.265625 6.109375 33.40625 6.109375 
Q 40.53125 6.109375 44.609375 11.75 
Q 48.6875 17.390625 48.6875 27.296875 
z
" id="DejaVuSans-112"/>
      </defs>
      <use xlink:href="#DejaVuSans-70"/>
      <use x="50.269531" xlink:href="#DejaVuSans-114"/>
      <use x="91.382812" xlink:href="#DejaVuSans-97"/>
      <use x="152.662109" xlink:href="#DejaVuSans-99"/>
      <use x="207.642578" xlink:href="#DejaVuSans-116"/>
      <use x="246.851562" xlink:href="#DejaVuSans-105"/>
      <use x="274.634766" xlink:href="#DejaVuSans-111"/>
      <use x="335.816406" xlink:href="#DejaVuSans-110"/>
      <use x="399.195312" xlink:href="#DejaVuSans-32"/>
      <use x="430.982422" xlink:href="#DejaVuSans-111"/>
      <use x="492.164062" xlink:href="#DejaVuSans-102"/>
      <use x="527.369141" xlink:href="#DejaVuSans-32"/>
      <use x="559.15625" xlink:href="#DejaVuSans-102"/>
      <use x="594.361328" xlink:href="#DejaVuSans-117"/>
      <use x="657.740234" xlink:href="#DejaVuSans-110"/>
      <use x="721.119141" xlink:href="#DejaVuSans-99"/>
      <use x="776.099609" xlink:href="#DejaVuSans-116"/>
      <use x="815.308594" xlink:href="#DejaVuSans-105"/>
      <use x="843.091797" xlink:href="#DejaVuSans-111"/>
      <use x="904.273438" xlink:href="#DejaVuSans-110"/>
      <use x="967.652344" xlink:href="#DejaVuSans-44"/>
      <use x="999.439453" xlink:href="#DejaVuSans-116"/>
      <use x="1038.648438" xlink:href="#DejaVuSans-97"/>
      <use x="1099.927734" xlink:href="#DejaVuSans-114"/>
      <use x="1139.291016" xlink:href="#DejaVuSans-103"/>
      <use x="1202.767578" xlink:href="#DejaVuSans-101"/>
      <use x="1264.291016" xlink:href="#DejaVuSans-116"/>
      <use x="1303.5" xlink:href="#DejaVuSans-32"/>
      <use x="1335.287109" xlink:href="#DejaVuSans-112"/>
      <use x="1398.763672" xlink:href="#DejaVuSans-97"/>
      <use x="1460.042969" xlink:href="#DejaVuSans-105"/>
      <use x="1487.826172" xlink:href="#DejaVuSans-114"/>
      <use x="1528.939453" xlink:href="#DejaVuSans-115"/>
     </g>
    </g>
   </g>
   <g id="line2d_29">
    <defs>
     <path d="M 0 1.5 
C 0.397805 1.5 0.77937 1.341951 1.06066 1.06066 
C 1.341951 0.77937 1.5 0.397805 1.5 0 
C 1.5 -0.397805 1.341951 -0.77937 1.06066 -1.06066 
C 0.77937 -1.341951 0.397805 -1.5 0 -1.5 
C -0.397805 -1.5 -0.77937 -1.341951 -1.06066 -1.06066 
C -1.341951 -0.77937 -1.5 -0.397805 -1.5 0 
C -1.5 0.397805 -1.341951 0.77937 -1.06066 1.06066 
C -0.77937 1.341951 -0.397805 1.5 0 1.5 
z
" id="m174edd4f0f" style="stroke:#00bfbf;"/>
    </defs>
    <g>
     <use style="fill:#00bfbf;stroke:#00bfbf;" x="230.976488" xlink:href="#m174edd4f0f" y="62.752535"/>
     <use style="fill:#00bfbf;stroke:#00bfbf;" x="230.976488" xlink:href="#m174edd4f0f" y="62.752535"/>
    </g>
   </g>
   <g id="line2d_30">
    <path d="M 99.41757 298.944 
L 99.41757 298.480879 
L 114.751048 298.480879 
L 114.751048 298.017759 
L 116.323218 298.017759 
L 116.323218 297.554638 
L 117.765302 297.554638 
L 117.765302 297.091518 
L 119.097192 297.091518 
L 119.097192 296.628397 
L 120.33454 296.628397 
L 120.33454 296.165277 
L 122.573415 296.165277 
L 122.573415 295.702156 
L 123.593547 295.702156 
L 123.593547 294.775915 
L 125.470548 294.775915 
L 125.470548 294.312795 
L 126.338353 294.312795 
L 126.338353 293.849674 
L 127.954256 293.849674 
L 127.954256 292.460313 
L 129.433047 292.460313 
L 129.433047 291.997192 
L 131.439773 291.997192 
L 131.439773 289.68159 
L 133.239232 289.68159 
L 133.239232 289.218469 
L 134.870259 289.218469 
L 134.870259 288.292228 
L 136.831795 288.292228 
L 136.831795 287.829108 
L 137.735587 287.829108 
L 137.735587 287.365987 
L 139.009092 287.365987 
L 139.009092 286.439746 
L 140.64889 286.439746 
L 140.64889 285.976625 
L 141.307054 285.976625 
L 141.307054 285.513505 
L 141.662245 285.513505 
L 141.662245 282.734782 
L 142.010346 282.734782 
L 142.010346 280.419179 
L 142.351634 280.419179 
L 142.351634 279.029818 
L 142.686372 279.029818 
L 142.686372 276.251095 
L 142.949611 276.251095 
L 143.014805 274.398612 
L 143.527762 274.398612 
L 143.527762 272.54613 
L 143.778691 272.54613 
L 143.778691 272.08301 
L 143.964547 272.08301 
L 143.964547 271.156769 
L 144.269971 271.156769 
L 144.269971 270.693648 
L 144.510517 270.693648 
L 144.570138 268.378046 
L 144.865226 268.378046 
L 144.865226 267.914925 
L 145.155404 267.914925 
L 145.212864 266.525564 
L 145.553708 266.525564 
L 145.553708 261.894358 
L 145.721664 261.894358 
L 145.721664 260.968117 
L 145.888018 260.968117 
L 145.998045 259.578756 
L 146.538004 259.578756 
L 146.538004 258.189394 
L 146.854132 258.189394 
L 146.854132 257.726274 
L 147.010073 257.726274 
L 147.061745 254.02131 
L 147.4697 254.02131 
L 147.570215 253.095069 
L 148.40198 253.095069 
L 148.40198 252.631948 
L 148.966103 252.631948 
L 148.966103 251.705707 
L 149.241465 251.705707 
L 149.241465 250.779466 
L 149.512548 250.779466 
L 149.512548 250.316346 
L 151.056095 250.316346 
L 151.056095 249.390104 
L 154.54072 249.390104 
L 154.54072 248.926984 
L 154.674612 248.926984 
L 154.674612 248.463863 
L 154.873541 248.463863 
L 154.873541 247.537622 
L 155.584129 247.537622 
L 155.584129 244.758899 
L 155.804285 244.758899 
L 155.804285 244.295779 
L 156.052535 244.295779 
L 156.052535 243.832658 
L 156.418408 243.832658 
L 156.418408 242.906417 
L 156.598505 242.906417 
L 156.598505 242.443297 
L 156.717545 242.443297 
L 156.776762 238.275212 
L 157.011638 238.275212 
L 157.011638 236.42273 
L 157.156845 236.42273 
L 157.156845 235.959609 
L 157.272146 235.959609 
L 157.358125 233.644007 
L 157.58535 233.644007 
L 157.58535 233.180886 
L 158.140788 233.180886 
L 158.140788 232.254645 
L 158.276927 232.254645 
L 158.276927 231.791525 
L 158.652556 231.791525 
L 158.652556 230.865284 
L 158.863624 230.865284 
L 158.863624 230.402163 
L 159.175513 230.402163 
L 159.278248 227.62344 
L 159.683242 227.62344 
L 159.708245 224.844717 
L 159.857512 224.844717 
L 159.931669 223.918476 
L 160.394148 223.918476 
L 160.418152 221.139753 
L 160.938061 221.139753 
L 161.030947 218.82415 
L 161.100288 218.82415 
L 161.169354 216.971668 
L 161.397621 216.971668 
L 161.397621 216.508548 
L 161.555647 216.508548 
L 161.555647 215.582307 
L 161.801118 215.582307 
L 161.84538 214.192945 
L 162.10862 214.192945 
L 162.10862 213.729825 
L 162.496175 213.729825 
L 162.53871 211.877342 
L 162.749842 211.877342 
L 162.749842 210.951101 
L 162.875305 210.951101 
L 162.9377 210.02486 
L 163.589711 210.02486 
L 163.589711 209.56174 
L 163.768781 209.56174 
L 163.768781 208.635499 
L 164.121498 208.635499 
L 164.121498 207.709258 
L 164.237502 207.709258 
L 164.237502 207.246137 
L 164.712717 207.246137 
L 164.712717 206.319896 
L 164.9363 206.319896 
L 164.9363 205.393655 
L 165.483031 205.393655 
L 165.483031 204.930535 
L 165.697012 204.930535 
L 165.697012 204.467414 
L 167.970232 204.467414 
L 167.970232 204.004294 
L 168.094245 204.004294 
L 168.094245 203.541173 
L 168.967898 203.541173 
L 168.967898 203.078053 
L 172.779844 203.078053 
L 172.779844 202.614932 
L 173.026049 202.614932 
L 173.09576 201.688691 
L 173.245851 201.688691 
L 173.245851 201.225571 
L 173.383259 201.225571 
L 173.383259 200.76245 
L 173.609893 200.76245 
L 173.677313 198.909968 
L 173.744474 198.909968 
L 173.744474 198.446847 
L 173.878023 198.446847 
L 173.878023 197.520606 
L 174.07645 197.520606 
L 174.142093 196.131245 
L 179.295031 196.131245 
L 179.295031 195.668124 
L 185.408403 195.668124 
L 185.408403 195.205004 
L 187.072105 195.205004 
L 187.072105 194.741883 
L 187.43254 194.741883 
L 187.43254 194.278763 
L 188.874624 194.278763 
L 188.874624 193.815642 
L 189.075212 193.815642 
L 189.13078 192.426281 
L 189.223003 192.426281 
L 189.223003 191.96316 
L 189.492253 191.96316 
L 189.492253 191.50004 
L 189.623088 191.50004 
L 189.69933 189.647558 
L 189.748486 189.647558 
L 189.81974 188.258196 
L 189.872989 188.258196 
L 189.95697 186.405714 
L 190.027379 186.405714 
L 190.027379 185.942593 
L 190.154274 185.942593 
L 190.154274 185.479473 
L 190.379524 185.479473 
L 190.379524 185.016352 
L 190.559356 185.016352 
L 190.559356 184.553232 
L 190.800485 184.553232 
L 190.859203 182.70075 
L 191.149865 182.70075 
L 191.149865 182.237629 
L 191.512559 182.237629 
L 191.585005 180.848268 
L 191.808486 180.848268 
L 191.808486 180.385147 
L 192.500396 180.385147 
L 192.58783 179.458906 
L 192.704987 179.458906 
L 192.704987 178.995786 
L 192.899758 178.995786 
L 192.996333 178.069545 
L 193.011144 178.069545 
L 193.011144 177.143304 
L 193.326563 177.143304 
L 193.326563 176.680183 
L 193.557646 176.680183 
L 193.557646 175.753942 
L 193.672049 175.753942 
L 193.672049 175.290821 
L 194.253763 175.290821 
L 194.356853 173.90146 
L 194.421829 173.90146 
L 194.421829 173.438339 
L 194.574761 173.438339 
L 194.574761 172.512098 
L 194.959602 172.512098 
L 194.959602 172.048978 
L 195.51338 172.048978 
L 195.615682 170.659616 
L 195.717388 170.659616 
L 195.752213 169.733375 
L 195.865701 169.733375 
L 195.865701 168.807134 
L 196.059438 168.807134 
L 196.118381 167.880893 
L 196.34301 167.880893 
L 196.419277 166.491532 
L 196.470949 166.491532 
L 196.576853 164.175929 
L 196.60097 164.175929 
L 196.658113 162.786567 
L 196.741985 162.786567 
L 196.840318 159.081603 
L 196.905568 159.081603 
L 196.979419 157.229121 
L 197.035338 157.229121 
L 197.055894 155.83976 
L 197.14956 155.83976 
L 197.187468 154.450398 
L 197.283328 154.450398 
L 197.381546 152.134795 
L 197.467751 152.134795 
L 197.467751 151.671675 
L 197.658751 151.671675 
L 197.681418 149.819193 
L 197.808373 149.819193 
L 197.808373 148.892952 
L 197.926036 148.892952 
L 197.995698 147.04047 
L 198.106583 147.04047 
L 198.208527 145.651108 
L 198.358972 145.651108 
L 198.435067 144.261747 
L 198.765463 144.261747 
L 198.842458 142.872385 
L 198.966525 142.872385 
L 198.966525 142.409265 
L 199.186087 142.409265 
L 199.186087 141.946144 
L 199.420868 141.946144 
L 199.420868 141.019903 
L 199.540901 141.019903 
L 199.540901 140.093662 
L 199.655058 140.093662 
L 199.655058 139.630541 
L 200.136361 139.630541 
L 200.136361 139.167421 
L 200.273563 139.167421 
L 200.273563 138.24118 
L 200.847284 138.24118 
L 200.948531 136.388698 
L 200.979026 136.388698 
L 200.979026 135.462457 
L 201.361507 135.462457 
L 201.361507 134.999336 
L 201.484882 134.999336 
L 201.521271 133.609975 
L 201.733535 133.609975 
L 201.733535 133.146854 
L 201.925496 133.146854 
L 202.031726 131.757493 
L 202.055979 131.757493 
L 202.055979 131.294372 
L 202.329242 131.294372 
L 202.329242 130.368131 
L 202.512645 130.368131 
L 202.589743 128.97877 
L 202.800024 128.97877 
L 202.907369 127.589408 
L 202.911565 127.589408 
L 202.997365 124.810685 
L 203.140813 124.810685 
L 203.211066 122.495082 
L 203.301564 122.495082 
L 203.332309 121.105721 
L 203.448646 121.105721 
L 203.448646 120.6426 
L 203.588444 120.6426 
L 203.648879 119.253239 
L 203.761132 119.253239 
L 203.76313 117.863877 
L 203.957829 117.863877 
L 203.957829 117.400757 
L 204.228363 117.400757 
L 204.317616 113.695792 
L 204.692874 113.695792 
L 204.692874 113.232672 
L 204.868145 113.232672 
L 204.868145 112.306431 
L 205.056518 112.306431 
L 205.056518 111.84331 
L 205.202455 111.84331 
L 205.220841 110.453949 
L 205.535891 110.453949 
L 205.535891 109.990828 
L 205.70293 109.990828 
L 205.704717 108.601467 
L 206.000681 108.601467 
L 206.000681 108.138346 
L 206.374463 108.138346 
L 206.379622 106.748985 
L 206.650903 106.748985 
L 206.650903 106.285864 
L 206.874627 106.285864 
L 206.874627 105.822744 
L 207.113661 105.822744 
L 207.113661 105.359623 
L 207.377092 105.359623 
L 207.377092 104.433382 
L 207.566063 104.433382 
L 207.644601 102.5809 
L 207.93168 102.5809 
L 207.969393 101.191538 
L 208.246584 101.191538 
L 208.351325 95.634092 
L 208.369743 95.634092 
L 208.45086 93.78161 
L 208.502699 93.78161 
L 208.502699 93.31849 
L 208.664842 93.31849 
L 208.664842 92.855369 
L 208.789585 92.855369 
L 208.898567 91.002887 
L 209.026089 91.002887 
L 209.067408 90.076646 
L 209.237548 90.076646 
L 209.307469 89.150405 
L 209.37711 89.150405 
L 209.440704 87.761043 
L 209.677139 87.761043 
L 209.677139 86.834802 
L 209.966494 86.834802 
L 209.966494 85.908561 
L 210.333563 85.908561 
L 210.354111 84.5192 
L 210.852121 84.5192 
L 210.852121 84.056079 
L 211.169867 84.056079 
L 211.169867 83.592959 
L 211.303921 83.592959 
L 211.337597 82.203597 
L 211.426656 82.203597 
L 211.426656 81.277356 
L 211.658134 81.277356 
L 211.748103 80.351115 
L 211.846409 80.351115 
L 211.905379 79.424874 
L 212.023967 79.424874 
L 212.023967 78.961753 
L 212.853611 78.961753 
L 212.853611 78.498633 
L 213.27668 78.498633 
L 213.27668 78.035512 
L 213.684072 78.035512 
L 213.684072 77.109271 
L 213.796817 77.109271 
L 213.796817 76.646151 
L 214.243931 76.646151 
L 214.243931 76.18303 
L 215.227766 76.18303 
L 215.227766 75.256789 
L 216.096124 75.256789 
L 216.096124 74.330548 
L 216.236412 74.330548 
L 216.236412 73.404307 
L 217.525242 73.404307 
L 217.525242 72.941187 
L 218.049966 72.941187 
L 218.053488 71.088705 
L 219.344495 71.088705 
L 219.344495 70.162464 
L 219.525062 70.162464 
L 219.525062 69.236223 
L 221.465822 69.236223 
L 221.545276 67.383741 
L 221.942134 67.383741 
L 221.942134 66.92062 
L 223.091794 66.92062 
L 223.091794 66.457499 
L 224.311108 66.457499 
L 224.311108 65.531258 
L 224.613496 65.531258 
L 224.613496 65.068138 
L 225.184859 65.068138 
L 225.184859 64.141897 
L 227.772491 64.141897 
L 227.772491 63.678776 
L 228.449023 63.678776 
L 228.449023 63.215656 
L 230.976488 63.215656 
L 230.976488 62.752535 
L 338.688 62.752535 
L 338.688 62.752535 
" style="fill:none;stroke:#00bfbf;stroke-linecap:square;stroke-width:1.5;"/>
   </g>
   <g id="line2d_31">
    <defs>
     <path d="M -6 0 
L 6 0 
M 0 6 
L 0 -6 
" id="m9262b37b7d" style="stroke:#00bfbf;stroke-width:1.5;"/>
    </defs>
    <g>
     <use style="fill-opacity:0;stroke:#00bfbf;stroke-width:1.5;" x="145.212864" xlink:href="#m9262b37b7d" y="266.525564"/>
     <use style="fill-opacity:0;stroke:#00bfbf;stroke-width:1.5;" x="195.865701" xlink:href="#m9262b37b7d" y="168.807134"/>
     <use style="fill-opacity:0;stroke:#00bfbf;stroke-width:1.5;" x="223.091794" xlink:href="#m9262b37b7d" y="66.92062"/>
     <use style="fill-opacity:0;stroke:#00bfbf;stroke-width:1.5;" x="230.976488" xlink:href="#m9262b37b7d" y="62.752535"/>
     <use style="fill-opacity:0;stroke:#00bfbf;stroke-width:1.5;" x="338.688" xlink:href="#m9262b37b7d" y="62.752535"/>
    </g>
   </g>
   <g id="line2d_32">
    <path style="fill:none;stroke:#00bfbf;stroke-linecap:square;stroke-width:1.5;"/>
    <g/>
   </g>
   <g id="line2d_33">
    <path clip-path="url(#p61aab592ae)" d="M 258.377143 62.752535 
" style="fill:none;stroke:#00bfbf;stroke-linecap:square;stroke-width:1.5;"/>
    <defs>
     <path d="M -12 12 
L 12 -12 
M -12 -12 
L 12 12 
" id="m7b27cdeebe" style="stroke:#00bfbf;"/>
    </defs>
    <g clip-path="url(#p61aab592ae)">
     <use style="fill:#00bfbf;stroke:#00bfbf;" x="258.377143" xlink:href="#m7b27cdeebe" y="62.752535"/>
    </g>
   </g>
   <g id="line2d_34">
    <defs>
     <path d="M 0 1.5 
C 0.397805 1.5 0.77937 1.341951 1.06066 1.06066 
C 1.341951 0.77937 1.5 0.397805 1.5 0 
C 1.5 -0.397805 1.341951 -0.77937 1.06066 -1.06066 
C 0.77937 -1.341951 0.397805 -1.5 0 -1.5 
C -0.397805 -1.5 -0.77937 -1.341951 -1.06066 -1.06066 
C -1.341951 -0.77937 -1.5 -0.397805 -1.5 0 
C -1.5 0.397805 -1.341951 0.77937 -1.06066 1.06066 
C -0.77937 1.341951 -0.397805 1.5 0 1.5 
z
" id="m2b3c682902" style="stroke:#008000;"/>
    </defs>
    <g>
     <use style="fill:#008000;stroke:#008000;" x="257.2065" xlink:href="#m2b3c682902" y="62.752535"/>
     <use style="fill:#008000;stroke:#008000;" x="257.2065" xlink:href="#m2b3c682902" y="62.752535"/>
    </g>
   </g>
   <g id="line2d_35">
    <path d="M 38.440992 298.944 
L 38.440992 294.775915 
L 107.680028 294.775915 
L 107.680028 294.312795 
L 111.767808 294.312795 
L 111.767808 293.849674 
L 113.500792 293.849674 
L 113.500792 293.386554 
L 115.077025 293.386554 
L 115.077025 292.923433 
L 116.522527 292.923433 
L 116.522527 292.460313 
L 120.254726 292.460313 
L 120.254726 291.534072 
L 122.362027 291.534072 
L 122.362027 291.070951 
L 123.327293 291.070951 
L 123.327293 290.14471 
L 124.241922 290.14471 
L 124.241922 289.68159 
L 125.938745 289.68159 
L 125.938745 289.218469 
L 126.729009 289.218469 
L 126.729009 288.755349 
L 127.48501 288.755349 
L 127.48501 287.829108 
L 128.209594 287.829108 
L 128.209594 286.439746 
L 128.905271 286.439746 
L 128.905271 284.124143 
L 129.574256 284.124143 
L 129.574256 282.734782 
L 130.218525 282.734782 
L 130.218525 281.808541 
L 130.839837 281.808541 
L 130.839837 279.492938 
L 132.019755 279.492938 
L 132.019755 279.029818 
L 132.581068 279.029818 
L 132.581068 278.103577 
L 133.124876 278.103577 
L 133.124876 277.177336 
L 133.652238 277.177336 
L 133.652238 276.714215 
L 134.661403 276.714215 
L 134.661403 275.787974 
L 136.073445 275.787974 
L 136.073445 275.324854 
L 136.32991 275.324854 
L 136.32991 274.861733 
L 139.360321 274.861733 
L 139.360321 274.398612 
L 140.44901 274.398612 
L 140.44901 273.935492 
L 141.138789 273.935492 
L 141.138789 273.472371 
L 142.441528 273.472371 
L 142.441528 273.009251 
L 143.358447 273.009251 
L 143.358447 272.54613 
L 143.653678 272.54613 
L 143.653678 272.08301 
L 144.787023 272.08301 
L 144.787023 271.156769 
L 145.059213 271.156769 
L 145.059213 270.230528 
L 145.327221 270.230528 
L 145.327221 269.767407 
L 145.591172 269.767407 
L 145.591172 269.304287 
L 146.107383 269.304287 
L 146.107383 268.841166 
L 146.359869 268.841166 
L 146.359869 266.988684 
L 146.608752 266.988684 
L 146.608752 266.525564 
L 146.749392 266.525564 
L 146.749392 266.062443 
L 148.79566 266.062443 
L 148.79566 265.599323 
L 149.527485 265.599323 
L 149.527485 265.136202 
L 150.172372 265.136202 
L 150.172372 264.673082 
L 150.766468 264.673082 
L 150.766468 263.746841 
L 151.871101 263.746841 
L 151.871101 263.28372 
L 152.001148 263.28372 
L 152.027042 261.894358 
L 152.155936 261.894358 
L 152.155936 261.431238 
L 152.309362 261.431238 
L 152.410901 260.504997 
L 152.612222 260.504997 
L 152.612222 259.578756 
L 152.860649 259.578756 
L 152.934492 257.726274 
L 152.983548 257.726274 
L 152.983548 257.263153 
L 153.29909 257.263153 
L 153.29909 256.336912 
L 153.936752 256.336912 
L 153.936752 255.873792 
L 154.303908 255.873792 
L 154.349264 254.48443 
L 154.752243 254.48443 
L 154.752243 254.02131 
L 155.0376 254.02131 
L 155.0376 253.558189 
L 155.167744 253.558189 
L 155.167744 253.095069 
L 155.339773 253.095069 
L 155.382516 251.705707 
L 155.949527 251.705707 
L 156.011405 247.074502 
L 156.418408 247.074502 
L 156.418408 246.611381 
L 156.658127 246.611381 
L 156.677955 244.295779 
L 156.796456 244.295779 
L 156.796456 243.369538 
L 156.914157 243.369538 
L 156.914157 242.906417 
L 157.20498 242.906417 
L 157.300853 240.590815 
L 157.339055 240.590815 
L 157.339055 240.127694 
L 157.566527 240.127694 
L 157.566527 238.275212 
L 157.697862 238.275212 
L 157.697862 237.348971 
L 157.957601 237.348971 
L 157.976006 235.033368 
L 158.195371 235.033368 
L 158.195371 234.107127 
L 158.322071 234.107127 
L 158.358103 232.254645 
L 158.51933 232.254645 
L 158.572743 230.402163 
L 159.201253 230.402163 
L 159.252621 227.62344 
L 159.658204 227.62344 
L 159.758143 226.234079 
L 159.874019 226.234079 
L 159.956318 224.381596 
L 160.136022 224.381596 
L 160.136022 222.992235 
L 160.664283 222.992235 
L 160.758635 221.139753 
L 161.023225 221.139753 
L 161.023225 220.676632 
L 161.495615 220.676632 
L 161.495615 219.750391 
L 161.955547 219.750391 
L 161.955547 218.82415 
L 162.868358 218.82415 
L 162.868358 217.434789 
L 163.225959 217.434789 
L 163.225959 216.508548 
L 163.880593 216.508548 
L 163.880593 215.582307 
L 164.037234 215.582307 
L 164.037234 213.729825 
L 164.886862 213.729825 
L 164.886862 212.803583 
L 165.542734 212.803583 
L 165.542734 211.877342 
L 166.128786 211.877342 
L 166.128786 210.951101 
L 166.884438 210.951101 
L 166.884438 209.56174 
L 167.158215 209.56174 
L 167.158215 208.635499 
L 167.682664 208.635499 
L 167.682664 206.783017 
L 167.881853 206.783017 
L 167.933895 205.393655 
L 168.71633 205.393655 
L 168.71633 204.930535 
L 172.434028 204.930535 
L 172.434028 204.467414 
L 175.422519 204.467414 
L 175.422519 203.541173 
L 179.18634 203.541173 
L 179.18634 203.078053 
L 183.846704 203.078053 
L 183.846704 202.614932 
L 203.639491 202.614932 
L 203.643515 201.225571 
L 204.03471 201.225571 
L 204.03471 200.76245 
L 204.276926 200.76245 
L 204.276926 199.836209 
L 204.440399 199.836209 
L 204.440399 199.373088 
L 204.765332 199.373088 
L 204.765332 198.909968 
L 205.033624 198.909968 
L 205.033624 197.983727 
L 205.225741 197.983727 
L 205.225741 197.520606 
L 205.770725 197.520606 
L 205.770725 196.594365 
L 206.108129 196.594365 
L 206.108129 196.131245 
L 206.334857 196.131245 
L 206.334857 195.668124 
L 206.701056 195.668124 
L 206.701056 195.205004 
L 207.599231 195.205004 
L 207.599231 194.741883 
L 207.903341 194.741883 
L 207.903341 193.815642 
L 208.697993 193.815642 
L 208.771106 192.889401 
L 208.91939 192.889401 
L 208.978748 191.50004 
L 209.332649 191.50004 
L 209.419532 190.110678 
L 209.695631 190.110678 
L 209.695631 189.184437 
L 209.807119 189.184437 
L 209.889801 187.795075 
L 209.940344 187.795075 
L 210.031698 185.942593 
L 210.201018 185.942593 
L 210.309331 184.090111 
L 210.414247 184.090111 
L 210.414247 183.626991 
L 210.620407 183.626991 
L 210.620407 183.16387 
L 210.777897 183.16387 
L 210.888009 182.237629 
L 210.900397 182.237629 
L 210.900397 181.774509 
L 211.06766 181.774509 
L 211.171609 178.532665 
L 211.297437 178.532665 
L 211.297437 178.069545 
L 211.482355 178.069545 
L 211.482355 177.606424 
L 211.594072 177.606424 
L 211.594072 176.680183 
L 211.806146 176.680183 
L 211.89076 175.290821 
L 211.919152 175.290821 
L 211.919152 174.827701 
L 212.216149 174.827701 
L 212.243197 173.438339 
L 212.342832 173.438339 
L 212.359111 172.512098 
L 212.707884 172.512098 
L 212.707884 171.122737 
L 212.885611 171.122737 
L 212.885611 170.659616 
L 213.026343 170.659616 
L 213.026343 170.196496 
L 213.452552 170.196496 
L 213.452552 169.270255 
L 213.60926 169.270255 
L 213.640282 167.880893 
L 214.3048 167.880893 
L 214.3048 166.954652 
L 214.48074 166.954652 
L 214.48074 166.491532 
L 214.664193 166.491532 
L 214.664193 165.565291 
L 215.327901 165.565291 
L 215.417566 164.63905 
L 215.636701 164.63905 
L 215.636701 163.712808 
L 216.403669 163.712808 
L 216.403669 163.249688 
L 217.042802 163.249688 
L 217.095589 162.323447 
L 217.230862 162.323447 
L 217.230862 161.860326 
L 218.269317 161.860326 
L 218.269317 161.397206 
L 218.941432 161.397206 
L 218.941432 160.934085 
L 219.449376 160.934085 
L 219.449376 160.007844 
L 219.812897 160.007844 
L 219.812897 159.081603 
L 221.756111 159.081603 
L 221.756111 158.155362 
L 223.192407 158.155362 
L 223.275702 155.83976 
L 223.711787 155.83976 
L 223.777432 154.913519 
L 223.956169 154.913519 
L 224.043814 153.524157 
L 224.075009 153.524157 
L 224.075009 152.597916 
L 224.359828 152.597916 
L 224.359828 152.134795 
L 224.680656 152.134795 
L 224.697506 151.208554 
L 224.924588 151.208554 
L 224.924588 150.745434 
L 225.719196 150.745434 
L 225.785629 149.819193 
L 226.247005 149.819193 
L 226.247005 148.892952 
L 226.474463 148.892952 
L 226.474463 147.966711 
L 227.574373 147.966711 
L 227.651386 146.577349 
L 227.713562 146.577349 
L 227.713562 146.114229 
L 227.87606 146.114229 
L 227.87606 145.651108 
L 228.024141 145.651108 
L 228.024141 145.187988 
L 229.944921 145.187988 
L 229.944921 144.724867 
L 230.269838 144.724867 
L 230.271877 143.798626 
L 230.800902 143.798626 
L 230.903179 140.556783 
L 230.986136 140.556783 
L 231.094284 138.7043 
L 231.176339 138.7043 
L 231.176339 138.24118 
L 231.363396 138.24118 
L 231.363396 137.778059 
L 231.52517 137.778059 
L 231.52517 136.851818 
L 231.67444 136.851818 
L 231.743379 135.925577 
L 232.183786 135.925577 
L 232.183786 135.462457 
L 232.302156 135.462457 
L 232.302156 134.536216 
L 232.505276 134.536216 
L 232.510401 132.683734 
L 232.79677 132.683734 
L 232.79677 131.757493 
L 233.166572 131.757493 
L 233.260326 130.831252 
L 233.384309 130.831252 
L 233.460413 129.905011 
L 233.51685 129.905011 
L 233.594064 128.515649 
L 233.638308 128.515649 
L 233.638308 128.052529 
L 233.751054 128.052529 
L 233.751054 127.589408 
L 233.903332 127.589408 
L 233.903332 127.126287 
L 234.131502 127.126287 
L 234.131502 126.663167 
L 234.259432 126.663167 
L 234.344277 125.273805 
L 234.462645 125.273805 
L 234.563371 122.958203 
L 234.594316 122.958203 
L 234.668046 121.568841 
L 234.741691 121.568841 
L 234.832975 120.17948 
L 234.921329 120.17948 
L 235.027211 119.253239 
L 235.04583 119.253239 
L 235.04583 118.790118 
L 235.260713 118.790118 
L 235.285422 117.400757 
L 235.407142 117.400757 
L 235.436411 116.011395 
L 235.518965 116.011395 
L 235.540297 114.622033 
L 235.693587 114.622033 
L 235.693587 114.158913 
L 235.836652 114.158913 
L 235.914809 112.769551 
L 235.976033 112.769551 
L 235.976033 112.306431 
L 236.282892 112.306431 
L 236.287637 111.38019 
L 236.501495 111.38019 
L 236.608766 109.990828 
L 236.733086 109.990828 
L 236.733086 109.064587 
L 238.149273 109.064587 
L 238.219404 106.285864 
L 238.280055 106.285864 
L 238.280055 105.359623 
L 238.589773 105.359623 
L 238.689824 104.433382 
L 239.102127 104.433382 
L 239.102127 103.970262 
L 239.250889 103.970262 
L 239.250889 103.507141 
L 239.532676 103.507141 
L 239.532676 103.04402 
L 239.739036 103.04402 
L 239.739036 102.117779 
L 240.082946 102.117779 
L 240.082946 101.654659 
L 240.327501 101.654659 
L 240.327501 101.191538 
L 240.735085 101.191538 
L 240.748349 100.265297 
L 241.02411 100.265297 
L 241.02411 99.802177 
L 241.167547 99.802177 
L 241.167547 98.875936 
L 241.499807 98.875936 
L 241.499807 98.412815 
L 241.944835 98.412815 
L 241.980148 96.560333 
L 242.066712 96.560333 
L 242.160805 94.707851 
L 242.227264 94.707851 
L 242.227264 94.244731 
L 242.339609 94.244731 
L 242.432535 92.855369 
L 242.517898 92.855369 
L 242.607153 91.929128 
L 242.908519 91.929128 
L 242.908519 91.466008 
L 243.05888 91.466008 
L 243.05888 90.539766 
L 243.215585 90.539766 
L 243.319415 88.687284 
L 243.376802 88.687284 
L 243.376802 88.224164 
L 243.49961 88.224164 
L 243.49961 87.761043 
L 243.67283 87.761043 
L 243.67283 86.834802 
L 244.029551 86.834802 
L 244.029551 86.371682 
L 244.328588 86.371682 
L 244.357705 84.98232 
L 245.310726 84.98232 
L 245.310726 84.056079 
L 245.567072 84.056079 
L 245.567072 83.592959 
L 245.730859 83.592959 
L 245.730859 83.129838 
L 245.940037 83.129838 
L 245.940037 82.666718 
L 246.43388 82.666718 
L 246.542385 81.277356 
L 246.580387 81.277356 
L 246.580387 80.351115 
L 246.697984 80.351115 
L 246.773683 78.961753 
L 246.809266 78.961753 
L 246.916253 77.109271 
L 247.043644 77.109271 
L 247.144891 75.256789 
L 247.197502 75.256789 
L 247.291607 74.330548 
L 247.426101 74.330548 
L 247.426101 73.867428 
L 247.748352 73.867428 
L 247.748352 73.404307 
L 247.875349 73.404307 
L 247.921041 72.014946 
L 248.016913 72.014946 
L 248.016913 71.088705 
L 248.561951 71.088705 
L 248.561951 70.162464 
L 248.968361 70.162464 
L 248.968361 69.699343 
L 249.850491 69.699343 
L 249.850491 68.773102 
L 250.228452 68.773102 
L 250.228452 68.309982 
L 250.657953 68.309982 
L 250.657953 67.846861 
L 251.681703 67.846861 
L 251.732916 66.457499 
L 253.321843 66.457499 
L 253.321843 65.531258 
L 255.252955 65.531258 
L 255.252955 64.605017 
L 256.074342 64.605017 
L 256.074342 63.678776 
L 256.653682 63.678776 
L 256.653682 63.215656 
L 257.2065 63.215656 
L 257.2065 62.752535 
L 338.688 62.752535 
L 338.688 62.752535 
" style="fill:none;stroke:#008000;stroke-linecap:square;stroke-width:1.5;"/>
   </g>
   <g id="line2d_36">
    <defs>
     <path d="M -0 6 
L 6 -6 
L -6 -6 
z
" id="mc3814739d7" style="stroke:#008000;stroke-linejoin:miter;stroke-width:1.5;"/>
    </defs>
    <g>
     <use style="fill-opacity:0;stroke:#008000;stroke-linejoin:miter;stroke-width:1.5;" x="157.697862" xlink:href="#mc3814739d7" y="237.348971"/>
     <use style="fill-opacity:0;stroke:#008000;stroke-linejoin:miter;stroke-width:1.5;" x="223.192844" xlink:href="#mc3814739d7" y="156.766001"/>
     <use style="fill-opacity:0;stroke:#008000;stroke-linejoin:miter;stroke-width:1.5;" x="256.074342" xlink:href="#mc3814739d7" y="64.605017"/>
     <use style="fill-opacity:0;stroke:#008000;stroke-linejoin:miter;stroke-width:1.5;" x="257.2065" xlink:href="#mc3814739d7" y="62.752535"/>
     <use style="fill-opacity:0;stroke:#008000;stroke-linejoin:miter;stroke-width:1.5;" x="338.688" xlink:href="#mc3814739d7" y="62.752535"/>
    </g>
   </g>
   <g id="line2d_37">
    <path style="fill:none;stroke:#008000;stroke-linecap:square;stroke-width:1.5;"/>
    <g/>
   </g>
   <g id="line2d_38">
    <path clip-path="url(#p61aab592ae)" d="M 258.377143 62.752535 
" style="fill:none;stroke:#008000;stroke-linecap:square;stroke-width:1.5;"/>
    <defs>
     <path d="M -12 12 
L 12 -12 
M -12 -12 
L 12 12 
" id="m8e8615e36f" style="stroke:#008000;"/>
    </defs>
    <g clip-path="url(#p61aab592ae)">
     <use style="fill:#008000;stroke:#008000;" x="258.377143" xlink:href="#m8e8615e36f" y="62.752535"/>
    </g>
   </g>
   <g id="line2d_39">
    <defs>
     <path d="M 0 1.5 
C 0.397805 1.5 0.77937 1.341951 1.06066 1.06066 
C 1.341951 0.77937 1.5 0.397805 1.5 0 
C 1.5 -0.397805 1.341951 -0.77937 1.06066 -1.06066 
C 0.77937 -1.341951 0.397805 -1.5 0 -1.5 
C -0.397805 -1.5 -0.77937 -1.341951 -1.06066 -1.06066 
C -1.341951 -0.77937 -1.5 -0.397805 -1.5 0 
C -1.5 0.397805 -1.341951 0.77937 -1.06066 1.06066 
C -0.77937 1.341951 -0.397805 1.5 0 1.5 
z
" id="m63aa4b76da" style="stroke:#0000ff;"/>
    </defs>
    <g>
     <use style="fill:#0000ff;stroke:#0000ff;" x="258.339678" xlink:href="#m63aa4b76da" y="169.270255"/>
     <use style="fill:#0000ff;stroke:#0000ff;" x="258.339678" xlink:href="#m63aa4b76da" y="169.270255"/>
    </g>
   </g>
   <g id="line2d_40">
    <path d="M 29.53256 298.944 
L 29.53256 296.628397 
L 93.863965 296.628397 
L 93.863965 296.165277 
L 101.506816 296.165277 
L 101.506816 295.702156 
L 104.355088 295.702156 
L 104.355088 294.775915 
L 106.802819 294.775915 
L 106.802819 293.849674 
L 110.859585 293.849674 
L 110.859585 293.386554 
L 112.58145 293.386554 
L 112.58145 292.923433 
L 115.586238 292.923433 
L 115.586238 292.460313 
L 116.914437 292.460313 
L 116.914437 291.070951 
L 118.148599 291.070951 
L 118.148599 290.607831 
L 119.301163 290.607831 
L 119.301163 289.68159 
L 120.382253 289.68159 
L 120.382253 289.218469 
L 122.362027 289.218469 
L 122.362027 288.755349 
L 123.273551 288.755349 
L 123.273551 287.365987 
L 124.139788 287.365987 
L 124.139788 286.439746 
L 124.965026 286.439746 
L 124.965026 285.513505 
L 125.752972 285.513505 
L 125.752972 285.050384 
L 126.50685 285.050384 
L 126.50685 284.587264 
L 127.923363 284.587264 
L 127.923363 283.197902 
L 128.590686 283.197902 
L 128.590686 282.734782 
L 129.853291 282.734782 
L 129.853291 281.808541 
L 131.030622 281.808541 
L 131.030622 280.8823 
L 132.133473 280.8823 
L 132.133473 280.419179 
L 133.667073 280.419179 
L 133.667073 279.492938 
L 134.149701 279.492938 
L 134.149701 279.029818 
L 135.076644 279.029818 
L 135.076644 278.566697 
L 135.522271 278.566697 
L 135.522271 278.103577 
L 136.380754 278.103577 
L 136.380754 276.714215 
L 137.594091 276.714215 
L 137.594091 276.251095 
L 137.980475 276.251095 
L 137.980475 275.324854 
L 139.090775 275.324854 
L 139.090775 274.861733 
L 139.445704 274.861733 
L 139.445704 274.398612 
L 140.79731 274.398612 
L 140.79731 273.472371 
L 141.119455 273.472371 
L 141.119455 273.009251 
L 141.746425 273.009251 
L 141.746425 272.54613 
L 142.351634 272.54613 
L 142.351634 272.08301 
L 144.050606 272.08301 
L 144.050606 271.619889 
L 148.563676 271.619889 
L 148.563676 271.156769 
L 148.993835 271.156769 
L 148.993835 270.693648 
L 149.788308 270.693648 
L 149.788308 270.230528 
L 149.946449 270.230528 
L 149.946449 269.767407 
L 152.421022 269.767407 
L 152.421022 268.841166 
L 153.236437 268.841166 
L 153.236437 268.378046 
L 154.084543 268.378046 
L 154.084543 267.914925 
L 156.260804 267.914925 
L 156.260804 267.451805 
L 156.918066 267.451805 
L 156.918066 266.988684 
L 157.312322 266.988684 
L 157.312322 266.062443 
L 157.876384 266.062443 
L 157.876384 265.136202 
L 158.336493 265.136202 
L 158.336493 264.209961 
L 159.066985 264.209961 
L 159.07735 262.8206 
L 160.015335 262.8206 
L 160.015335 261.431238 
L 160.336402 261.431238 
L 160.336402 260.968117 
L 160.877419 260.968117 
L 160.942717 260.041876 
L 161.546656 260.041876 
L 161.546656 259.578756 
L 161.902754 259.578756 
L 161.902754 258.652515 
L 162.217141 258.652515 
L 162.217141 258.189394 
L 162.363654 258.189394 
L 162.363654 257.726274 
L 162.929393 257.726274 
L 162.929393 257.263153 
L 163.17688 257.263153 
L 163.17688 256.336912 
L 163.517565 256.336912 
L 163.517565 255.873792 
L 164.125377 255.873792 
L 164.125377 254.947551 
L 164.425332 254.947551 
L 164.516598 253.558189 
L 165.069087 253.558189 
L 165.069087 252.631948 
L 165.55465 252.631948 
L 165.55465 252.168828 
L 165.915403 252.168828 
L 165.915403 251.242587 
L 166.391896 251.242587 
L 166.391896 250.316346 
L 166.875605 250.316346 
L 166.96153 248.926984 
L 167.423481 248.926984 
L 167.423481 248.000743 
L 168.010633 248.000743 
L 168.010633 247.074502 
L 168.572648 247.074502 
L 168.572648 246.148261 
L 170.408256 246.148261 
L 170.408256 245.68514 
L 171.605309 245.68514 
L 171.605309 244.758899 
L 171.999913 244.758899 
L 171.999913 244.295779 
L 172.16214 244.295779 
L 172.264595 242.906417 
L 172.318023 242.906417 
L 172.318023 241.980176 
L 172.6066 241.980176 
L 172.6066 241.517056 
L 173.049317 241.517056 
L 173.151329 239.664574 
L 173.390101 239.664574 
L 173.417442 237.348971 
L 174.166101 237.348971 
L 174.166101 236.42273 
L 174.660652 236.42273 
L 174.660652 235.959609 
L 175.653684 235.959609 
L 175.653684 234.570248 
L 176.217244 234.570248 
L 176.217244 234.107127 
L 176.646257 234.107127 
L 176.646257 233.180886 
L 177.891015 233.180886 
L 177.891015 232.717766 
L 178.301862 232.717766 
L 178.301862 232.254645 
L 178.746913 232.254645 
L 178.746913 231.791525 
L 179.314523 231.791525 
L 179.314523 231.328404 
L 181.622503 231.328404 
L 181.622503 230.402163 
L 183.946572 230.402163 
L 183.946572 229.939043 
L 192.697452 229.939043 
L 192.697452 229.012802 
L 193.317838 229.012802 
L 193.317838 228.549681 
L 194.307446 228.549681 
L 194.307446 227.62344 
L 196.790923 227.62344 
L 196.790923 227.16032 
L 197.412629 227.16032 
L 197.412629 226.234079 
L 197.827477 226.234079 
L 197.827477 225.770958 
L 198.10603 225.770958 
L 198.10603 224.844717 
L 198.674758 224.844717 
L 198.674758 223.918476 
L 200.556301 223.918476 
L 200.556301 223.455355 
L 201.996388 223.455355 
L 201.996388 222.529114 
L 202.209097 222.529114 
L 202.209097 221.602873 
L 203.689052 221.602873 
L 203.689052 221.139753 
L 207.97316 221.139753 
L 207.97316 220.676632 
L 210.848661 220.676632 
L 210.848661 220.213512 
L 223.262036 220.213512 
L 223.362843 218.82415 
L 223.556307 218.82415 
L 223.556307 217.897909 
L 231.368594 217.897909 
L 231.368594 217.434789 
L 234.739256 217.434789 
L 234.843646 215.582307 
L 234.906062 215.582307 
L 234.942869 214.656066 
L 236.664093 214.656066 
L 236.664093 214.192945 
L 237.227868 214.192945 
L 237.227868 213.729825 
L 239.641268 213.729825 
L 239.746042 212.340463 
L 240.391173 212.340463 
L 240.391173 211.414222 
L 242.249703 211.414222 
L 242.249703 210.487981 
L 242.478162 210.487981 
L 242.478162 210.02486 
L 242.695011 210.02486 
L 242.695011 209.56174 
L 243.674884 209.56174 
L 243.741613 207.709258 
L 243.799319 207.709258 
L 243.799319 207.246137 
L 243.949218 207.246137 
L 244.034845 205.856776 
L 244.147758 205.856776 
L 244.147758 205.393655 
L 244.303227 205.393655 
L 244.303227 204.930535 
L 244.634092 204.930535 
L 244.634092 204.467414 
L 244.816073 204.467414 
L 244.816073 203.541173 
L 245.051529 203.541173 
L 245.051529 203.078053 
L 245.327172 203.078053 
L 245.327172 202.614932 
L 245.661624 202.614932 
L 245.661624 202.151812 
L 245.920668 202.151812 
L 245.920668 201.688691 
L 246.297244 201.688691 
L 246.297244 200.76245 
L 247.412327 200.76245 
L 247.412327 199.836209 
L 248.017313 199.836209 
L 248.017313 199.373088 
L 248.930991 199.373088 
L 248.930991 198.909968 
L 249.624271 198.909968 
L 249.624271 198.446847 
L 249.831258 198.446847 
L 249.895532 191.036919 
L 251.051349 191.036919 
L 251.102609 188.721316 
L 251.166434 188.721316 
L 251.273743 186.868834 
L 251.339661 186.868834 
L 251.339661 186.405714 
L 251.527258 186.405714 
L 251.527258 185.942593 
L 251.667565 185.942593 
L 251.667565 185.016352 
L 251.830122 185.016352 
L 251.830122 184.553232 
L 251.968325 184.553232 
L 251.968325 184.090111 
L 252.464628 184.090111 
L 252.482537 182.70075 
L 252.650448 182.70075 
L 252.650448 181.774509 
L 253.386987 181.774509 
L 253.386987 180.848268 
L 253.596897 180.848268 
L 253.596897 180.385147 
L 253.773819 180.385147 
L 253.852933 178.532665 
L 253.93853 178.532665 
L 253.93853 178.069545 
L 254.245022 178.069545 
L 254.335273 176.217062 
L 254.536833 176.217062 
L 254.536833 175.290821 
L 254.787799 175.290821 
L 254.787799 174.827701 
L 255.292601 174.827701 
L 255.292601 174.36458 
L 255.802212 174.36458 
L 255.802212 173.90146 
L 256.325977 173.90146 
L 256.362934 172.512098 
L 256.682381 172.512098 
L 256.682381 171.585857 
L 257.136222 171.585857 
L 257.136222 171.122737 
L 257.797671 171.122737 
L 257.797671 170.196496 
L 258.339678 170.196496 
L 258.339678 169.270255 
L 338.688 169.270255 
L 338.688 169.270255 
" style="fill:none;stroke:#0000ff;stroke-linecap:square;stroke-width:1.5;"/>
   </g>
   <g id="line2d_41">
    <defs>
     <path d="M 0 -6 
L -1.347084 -1.854102 
L -5.706339 -1.854102 
L -2.179628 0.708204 
L -3.526712 4.854102 
L -0 2.291796 
L 3.526712 4.854102 
L 2.179628 0.708204 
L 5.706339 -1.854102 
L 1.347084 -1.854102 
z
" id="m037639d0cc" style="stroke:#0000ff;stroke-linejoin:bevel;stroke-width:1.5;"/>
    </defs>
    <g>
     <use style="fill-opacity:0;stroke:#0000ff;stroke-linejoin:bevel;stroke-width:1.5;" x="124.139788" xlink:href="#m037639d0cc" y="286.439746"/>
     <use style="fill-opacity:0;stroke:#0000ff;stroke-linejoin:bevel;stroke-width:1.5;" x="198.674758" xlink:href="#m037639d0cc" y="223.918476"/>
     <use style="fill-opacity:0;stroke:#0000ff;stroke-linejoin:bevel;stroke-width:1.5;" x="258.339678" xlink:href="#m037639d0cc" y="170.196496"/>
     <use style="fill-opacity:0;stroke:#0000ff;stroke-linejoin:bevel;stroke-width:1.5;" x="258.339678" xlink:href="#m037639d0cc" y="169.270255"/>
     <use style="fill-opacity:0;stroke:#0000ff;stroke-linejoin:bevel;stroke-width:1.5;" x="258.339678" xlink:href="#m037639d0cc" y="169.270255"/>
     <use style="fill-opacity:0;stroke:#0000ff;stroke-linejoin:bevel;stroke-width:1.5;" x="338.688" xlink:href="#m037639d0cc" y="169.270255"/>
    </g>
   </g>
   <g id="line2d_42">
    <path style="fill:none;stroke:#0000ff;stroke-linecap:square;stroke-width:1.5;"/>
    <g/>
   </g>
   <g id="line2d_43">
    <path clip-path="url(#p61aab592ae)" d="M 258.377143 169.270255 
" style="fill:none;stroke:#0000ff;stroke-linecap:square;stroke-width:1.5;"/>
    <defs>
     <path d="M -12 12 
L 12 -12 
M -12 -12 
L 12 12 
" id="m540c1e9477" style="stroke:#0000ff;"/>
    </defs>
    <g clip-path="url(#p61aab592ae)">
     <use style="fill:#0000ff;stroke:#0000ff;" x="258.377143" xlink:href="#m540c1e9477" y="169.270255"/>
    </g>
   </g>
   <g id="line2d_44">
    <defs>
     <path d="M 0 1.5 
C 0.397805 1.5 0.77937 1.341951 1.06066 1.06066 
C 1.341951 0.77937 1.5 0.397805 1.5 0 
C 1.5 -0.397805 1.341951 -0.77937 1.06066 -1.06066 
C 0.77937 -1.341951 0.397805 -1.5 0 -1.5 
C -0.397805 -1.5 -0.77937 -1.341951 -1.06066 -1.06066 
C -1.341951 -0.77937 -1.5 -0.397805 -1.5 0 
C -1.5 0.397805 -1.341951 0.77937 -1.06066 1.06066 
C -0.77937 1.341951 -0.397805 1.5 0 1.5 
z
" id="m343279aaee" style="stroke:#000000;"/>
    </defs>
    <g>
     <use style="stroke:#000000;" x="257.742488" xlink:href="#m343279aaee" y="231.791525"/>
     <use style="stroke:#000000;" x="257.742488" xlink:href="#m343279aaee" y="231.791525"/>
    </g>
   </g>
   <g id="line2d_45">
    <path d="M 17.444571 298.944 
L 17.444571 298.017759 
L 89.135256 298.017759 
L 89.135256 297.091518 
L 104.23523 297.091518 
L 104.23523 296.628397 
L 106.593963 296.628397 
L 106.593963 296.165277 
L 110.527398 296.165277 
L 110.527398 294.312795 
L 112.204777 294.312795 
L 112.204777 293.386554 
L 116.443076 293.386554 
L 116.443076 291.534072 
L 117.654224 291.534072 
L 117.654224 291.070951 
L 118.786692 291.070951 
L 118.786692 289.218469 
L 119.850084 289.218469 
L 119.850084 288.755349 
L 120.852343 288.755349 
L 120.852343 287.829108 
L 121.800118 287.829108 
L 121.800118 286.439746 
L 123.553867 286.439746 
L 123.553867 285.050384 
L 124.368753 285.050384 
L 124.368753 283.661023 
L 125.147256 283.661023 
L 125.147256 282.734782 
L 125.892487 282.734782 
L 125.892487 281.808541 
L 126.607172 281.808541 
L 126.607172 280.419179 
L 127.293718 280.419179 
L 127.293718 279.956059 
L 127.954256 279.956059 
L 127.954256 277.640456 
L 128.590686 277.640456 
L 128.590686 276.251095 
L 129.204706 276.251095 
L 129.204706 275.324854 
L 129.79784 275.324854 
L 129.79784 274.398612 
L 130.371462 274.398612 
L 130.371462 273.935492 
L 130.926816 273.935492 
L 130.926816 273.472371 
L 131.987128 273.472371 
L 131.987128 272.54613 
L 132.494049 272.54613 
L 132.494049 272.08301 
L 132.986651 272.08301 
L 132.986651 270.693648 
L 133.46572 270.693648 
L 133.46572 269.767407 
L 133.931979 269.767407 
L 133.931979 268.841166 
L 134.828688 268.841166 
L 134.828688 268.378046 
L 136.092812 268.378046 
L 136.092812 267.914925 
L 137.647286 267.914925 
L 137.647286 267.451805 
L 138.01518 267.451805 
L 138.01518 266.988684 
L 139.413734 266.988684 
L 139.413734 266.062443 
L 146.937474 266.062443 
L 146.937474 265.599323 
L 158.790041 265.599323 
L 158.790041 264.673082 
L 164.858371 264.673082 
L 164.858371 264.209961 
L 166.213873 264.209961 
L 166.213873 263.746841 
L 167.998212 263.746841 
L 167.998212 263.28372 
L 168.683507 263.28372 
L 168.683507 262.8206 
L 169.491796 262.8206 
L 169.491796 262.357479 
L 170.559106 262.357479 
L 170.559106 261.894358 
L 176.371677 261.894358 
L 176.446471 260.968117 
L 180.892039 260.968117 
L 180.892039 260.504997 
L 181.640982 260.504997 
L 181.640982 259.578756 
L 182.30446 259.578756 
L 182.30446 259.115635 
L 182.897411 259.115635 
L 182.897411 258.652515 
L 183.060568 258.652515 
L 183.060568 258.189394 
L 183.593235 258.189394 
L 183.593235 257.726274 
L 184.215843 257.726274 
L 184.215843 256.800033 
L 184.633664 256.800033 
L 184.633664 255.873792 
L 184.827641 255.873792 
L 184.827641 255.410671 
L 185.258955 255.410671 
L 185.258955 254.48443 
L 185.653919 254.48443 
L 185.653919 253.558189 
L 194.420464 253.558189 
L 194.420464 253.095069 
L 195.581223 253.095069 
L 195.581223 252.631948 
L 196.512177 252.631948 
L 196.59193 251.705707 
L 197.09752 251.705707 
L 197.09752 250.779466 
L 208.199864 250.779466 
L 208.199864 250.316346 
L 208.547401 250.316346 
L 208.547401 249.390104 
L 208.903924 249.390104 
L 208.948204 248.463863 
L 209.082435 248.463863 
L 209.082435 247.537622 
L 209.268756 247.537622 
L 209.268756 247.074502 
L 213.845522 247.074502 
L 213.845522 246.611381 
L 216.706454 246.611381 
L 216.706454 246.148261 
L 217.399008 246.148261 
L 217.399008 245.22202 
L 222.654784 245.22202 
L 222.710687 243.369538 
L 222.817537 243.369538 
L 222.817537 242.906417 
L 223.506661 242.906417 
L 223.506661 241.980176 
L 231.338123 241.980176 
L 231.338123 241.053935 
L 231.460667 241.053935 
L 231.460667 240.590815 
L 232.182611 240.590815 
L 232.182611 239.664574 
L 232.325656 239.664574 
L 232.325656 239.201453 
L 233.967667 239.201453 
L 233.967667 238.738333 
L 240.14487 238.738333 
L 240.14487 237.812091 
L 242.704909 237.812091 
L 242.704909 236.88585 
L 244.40366 236.88585 
L 244.40366 236.42273 
L 247.411837 236.42273 
L 247.411837 235.959609 
L 248.358236 235.959609 
L 248.358236 235.033368 
L 249.360251 235.033368 
L 249.360251 234.570248 
L 249.972904 234.570248 
L 249.972904 233.644007 
L 250.909454 233.644007 
L 250.909454 233.180886 
L 257.012496 233.180886 
L 257.012496 232.717766 
L 257.742488 232.717766 
L 257.742488 231.791525 
L 338.688 231.791525 
L 338.688 231.791525 
" style="fill:none;stroke:#000000;stroke-linecap:square;stroke-width:1.5;"/>
   </g>
   <g id="line2d_46">
    <defs>
     <path d="M 0 6 
C 1.591219 6 3.117479 5.367802 4.242641 4.242641 
C 5.367802 3.117479 6 1.591219 6 0 
C 6 -1.591219 5.367802 -3.117479 4.242641 -4.242641 
C 3.117479 -5.367802 1.591219 -6 0 -6 
C -1.591219 -6 -3.117479 -5.367802 -4.242641 -4.242641 
C -5.367802 -3.117479 -6 -1.591219 -6 0 
C -6 1.591219 -5.367802 3.117479 -4.242641 4.242641 
C -3.117479 5.367802 -1.591219 6 0 6 
z
" id="maaaf58db3e" style="stroke:#000000;stroke-width:1.5;"/>
    </defs>
    <g>
     <use style="fill-opacity:0;stroke:#000000;stroke-width:1.5;" x="120.852343" xlink:href="#maaaf58db3e" y="287.829108"/>
     <use style="fill-opacity:0;stroke:#000000;stroke-width:1.5;" x="197.09752" xlink:href="#maaaf58db3e" y="251.705707"/>
     <use style="fill-opacity:0;stroke:#000000;stroke-width:1.5;" x="257.742488" xlink:href="#maaaf58db3e" y="232.717766"/>
     <use style="fill-opacity:0;stroke:#000000;stroke-width:1.5;" x="257.742488" xlink:href="#maaaf58db3e" y="231.791525"/>
     <use style="fill-opacity:0;stroke:#000000;stroke-width:1.5;" x="338.688" xlink:href="#maaaf58db3e" y="231.791525"/>
    </g>
   </g>
   <g id="line2d_47">
    <path style="fill:none;stroke:#000000;stroke-linecap:square;stroke-width:1.5;"/>
    <g/>
   </g>
   <g id="line2d_48">
    <path clip-path="url(#p61aab592ae)" d="M 258.377143 231.791525 
" style="fill:none;stroke:#000000;stroke-linecap:square;stroke-width:1.5;"/>
    <defs>
     <path d="M -12 12 
L 12 -12 
M -12 -12 
L 12 12 
" id="m5882cae57f" style="stroke:#000000;"/>
    </defs>
    <g clip-path="url(#p61aab592ae)">
     <use style="stroke:#000000;" x="258.377143" xlink:href="#m5882cae57f" y="231.791525"/>
    </g>
   </g>
   <g id="line2d_49">
    <defs>
     <path d="M 0 1.5 
C 0.397805 1.5 0.77937 1.341951 1.06066 1.06066 
C 1.341951 0.77937 1.5 0.397805 1.5 0 
C 1.5 -0.397805 1.341951 -0.77937 1.06066 -1.06066 
C 0.77937 -1.341951 0.397805 -1.5 0 -1.5 
C -0.397805 -1.5 -0.77937 -1.341951 -1.06066 -1.06066 
C -1.341951 -0.77937 -1.5 -0.397805 -1.5 0 
C -1.5 0.397805 -1.341951 0.77937 -1.06066 1.06066 
C -0.77937 1.341951 -0.397805 1.5 0 1.5 
z
" id="m334c6c3abe" style="stroke:#ff0000;"/>
    </defs>
    <g>
     <use style="fill:#ff0000;stroke:#ff0000;" x="256.462119" xlink:href="#m334c6c3abe" y="233.180886"/>
     <use style="fill:#ff0000;stroke:#ff0000;" x="256.462119" xlink:href="#m334c6c3abe" y="233.180886"/>
    </g>
   </g>
   <g id="line2d_50">
    <path d="M 5.356583 298.944 
L 5.356583 298.017759 
L 76.465904 298.017759 
L 76.465904 297.554638 
L 105.171792 297.554638 
L 105.171792 295.239036 
L 109.31223 295.239036 
L 109.31223 294.775915 
L 112.655818 294.775915 
L 112.655818 293.386554 
L 114.114385 293.386554 
L 114.114385 291.997192 
L 115.460322 291.997192 
L 115.460322 291.534072 
L 116.709783 291.534072 
L 116.709783 290.14471 
L 117.875678 290.14471 
L 117.875678 289.68159 
L 118.968488 289.68159 
L 118.968488 289.218469 
L 119.996839 289.218469 
L 119.996839 287.365987 
L 120.967912 287.365987 
L 120.967912 286.439746 
L 122.761498 286.439746 
L 122.761498 285.050384 
L 123.593547 285.050384 
L 123.593547 283.197902 
L 124.387699 283.197902 
L 124.387699 281.808541 
L 125.147256 281.808541 
L 125.147256 281.34542 
L 125.875108 281.34542 
L 125.875108 280.419179 
L 126.573795 280.419179 
L 126.573795 279.029818 
L 127.245565 279.029818 
L 127.245565 278.566697 
L 127.892415 278.566697 
L 127.892415 278.103577 
L 128.516128 278.103577 
L 128.516128 277.177336 
L 129.118302 277.177336 
L 129.118302 275.787974 
L 129.700375 275.787974 
L 129.700375 275.324854 
L 130.263646 275.324854 
L 130.263646 273.935492 
L 130.809292 273.935492 
L 130.809292 273.009251 
L 131.338382 273.009251 
L 131.338382 271.156769 
L 131.851892 271.156769 
L 131.851892 270.230528 
L 132.350712 270.230528 
L 132.350712 268.841166 
L 133.307488 268.841166 
L 133.307488 268.378046 
L 133.766885 268.378046 
L 133.766885 267.451805 
L 134.214491 267.451805 
L 134.214491 266.525564 
L 134.650895 266.525564 
L 134.650895 266.062443 
L 135.076644 266.062443 
L 135.076644 264.673082 
L 135.492247 264.673082 
L 135.492247 263.746841 
L 135.898175 263.746841 
L 135.898175 263.28372 
L 136.294869 263.28372 
L 136.294869 262.8206 
L 137.062172 262.8206 
L 137.062172 262.357479 
L 137.433523 262.357479 
L 137.433523 261.894358 
L 138.502366 261.894358 
L 138.502366 260.504997 
L 138.84457 260.504997 
L 138.84457 260.041876 
L 139.509467 260.041876 
L 139.509467 258.652515 
L 139.832645 258.652515 
L 139.832645 257.263153 
L 141.068601 257.263153 
L 141.068601 256.336912 
L 141.941279 256.336912 
L 141.941279 255.873792 
L 144.324384 255.873792 
L 144.324384 254.947551 
L 147.892944 254.947551 
L 147.892944 254.48443 
L 148.291741 254.48443 
L 148.291741 254.02131 
L 163.483392 254.02131 
L 163.483392 253.558189 
L 167.754214 253.558189 
L 167.754214 253.095069 
L 168.503379 253.095069 
L 168.503379 252.168828 
L 170.931933 252.168828 
L 170.931933 251.705707 
L 171.15627 251.705707 
L 171.15627 251.242587 
L 174.830484 251.242587 
L 174.830484 250.779466 
L 176.966804 250.779466 
L 176.966804 250.316346 
L 181.306049 250.316346 
L 181.306049 249.853225 
L 187.772686 249.853225 
L 187.772686 248.926984 
L 188.693049 248.926984 
L 188.693049 248.463863 
L 193.626378 248.463863 
L 193.626378 248.000743 
L 195.079007 248.000743 
L 195.079007 247.537622 
L 196.598559 247.537622 
L 196.598559 246.611381 
L 197.7066 246.611381 
L 197.746703 245.22202 
L 198.779028 245.22202 
L 198.779028 244.758899 
L 214.664371 244.758899 
L 214.664371 244.295779 
L 218.117728 244.295779 
L 218.117728 243.369538 
L 227.461892 243.369538 
L 227.461892 242.906417 
L 228.790638 242.906417 
L 228.790638 242.443297 
L 229.92951 242.443297 
L 229.92951 241.517056 
L 230.067718 241.517056 
L 230.067718 241.053935 
L 235.624344 241.053935 
L 235.624344 240.590815 
L 236.168939 240.590815 
L 236.168939 240.127694 
L 240.741934 240.127694 
L 240.741934 239.201453 
L 242.66013 239.201453 
L 242.710113 238.275212 
L 243.156926 238.275212 
L 243.156926 237.348971 
L 244.570217 237.348971 
L 244.570217 236.88585 
L 245.384959 236.88585 
L 245.384959 236.42273 
L 247.852867 236.42273 
L 247.852867 235.959609 
L 252.778442 235.959609 
L 252.778442 235.033368 
L 255.136973 235.033368 
L 255.136973 234.570248 
L 256.244548 234.570248 
L 256.244548 233.644007 
L 256.462119 233.644007 
L 256.462119 233.180886 
L 338.688 233.180886 
L 338.688 233.180886 
" style="fill:none;stroke:#ff0000;stroke-linecap:square;stroke-width:1.5;"/>
   </g>
   <g id="line2d_51">
    <defs>
     <path d="M -6 6 
L 6 6 
L 6 -6 
L -6 -6 
z
" id="m26ca681944" style="stroke:#ff0000;stroke-linejoin:miter;stroke-width:1.5;"/>
    </defs>
    <g>
     <use style="fill-opacity:0;stroke:#ff0000;stroke-linejoin:miter;stroke-width:1.5;" x="76.465904" xlink:href="#m26ca681944" y="297.554638"/>
     <use style="fill-opacity:0;stroke:#ff0000;stroke-linejoin:miter;stroke-width:1.5;" x="148.291741" xlink:href="#m26ca681944" y="254.48443"/>
     <use style="fill-opacity:0;stroke:#ff0000;stroke-linejoin:miter;stroke-width:1.5;" x="229.92951" xlink:href="#m26ca681944" y="242.443297"/>
     <use style="fill-opacity:0;stroke:#ff0000;stroke-linejoin:miter;stroke-width:1.5;" x="256.462119" xlink:href="#m26ca681944" y="233.644007"/>
     <use style="fill-opacity:0;stroke:#ff0000;stroke-linejoin:miter;stroke-width:1.5;" x="256.462119" xlink:href="#m26ca681944" y="233.180886"/>
     <use style="fill-opacity:0;stroke:#ff0000;stroke-linejoin:miter;stroke-width:1.5;" x="338.688" xlink:href="#m26ca681944" y="233.180886"/>
    </g>
   </g>
   <g id="line2d_52">
    <path style="fill:none;stroke:#ff0000;stroke-linecap:square;stroke-width:1.5;"/>
    <g/>
   </g>
   <g id="line2d_53">
    <path clip-path="url(#p61aab592ae)" d="M 258.377143 233.180886 
" style="fill:none;stroke:#ff0000;stroke-linecap:square;stroke-width:1.5;"/>
    <defs>
     <path d="M -12 12 
L 12 -12 
M -12 -12 
L 12 12 
" id="ma1ca86d6b9" style="stroke:#ff0000;"/>
    </defs>
    <g clip-path="url(#p61aab592ae)">
     <use style="fill:#ff0000;stroke:#ff0000;" x="258.377143" xlink:href="#ma1ca86d6b9" y="233.180886"/>
    </g>
   </g>
   <g id="line2d_54">
    <path d="M 338.688 233.180886 
L 369.60768 293.571802 
" style="fill:none;stroke:#ff0000;stroke-linecap:square;stroke-width:1.5;"/>
    <g>
     <use style="fill-opacity:0;stroke:#ff0000;stroke-linejoin:miter;stroke-width:1.5;" x="338.688" xlink:href="#m26ca681944" y="233.180886"/>
     <use style="fill-opacity:0;stroke:#ff0000;stroke-linejoin:miter;stroke-width:1.5;" x="369.60768" xlink:href="#m26ca681944" y="293.571802"/>
    </g>
   </g>
   <g id="line2d_55">
    <path d="M 338.688 231.791525 
L 369.60768 229.105426 
" style="fill:none;stroke:#000000;stroke-linecap:square;stroke-width:1.5;"/>
    <g>
     <use style="fill-opacity:0;stroke:#000000;stroke-width:1.5;" x="338.688" xlink:href="#maaaf58db3e" y="231.791525"/>
     <use style="fill-opacity:0;stroke:#000000;stroke-width:1.5;" x="369.60768" xlink:href="#maaaf58db3e" y="229.105426"/>
    </g>
   </g>
   <g id="line2d_56">
    <path d="M 338.688 169.270255 
L 369.60768 164.63905 
" style="fill:none;stroke:#0000ff;stroke-linecap:square;stroke-width:1.5;"/>
    <g>
     <use style="fill-opacity:0;stroke:#0000ff;stroke-linejoin:bevel;stroke-width:1.5;" x="338.688" xlink:href="#m037639d0cc" y="169.270255"/>
     <use style="fill-opacity:0;stroke:#0000ff;stroke-linejoin:bevel;stroke-width:1.5;" x="369.60768" xlink:href="#m037639d0cc" y="164.63905"/>
    </g>
   </g>
   <g id="line2d_57">
    <path d="M 338.688 62.752535 
L 369.60768 100.172673 
" style="fill:none;stroke:#008000;stroke-linecap:square;stroke-width:1.5;"/>
    <g>
     <use style="fill-opacity:0;stroke:#008000;stroke-linejoin:miter;stroke-width:1.5;" x="338.688" xlink:href="#mc3814739d7" y="62.752535"/>
     <use style="fill-opacity:0;stroke:#008000;stroke-linejoin:miter;stroke-width:1.5;" x="369.60768" xlink:href="#mc3814739d7" y="100.172673"/>
    </g>
   </g>
   <g id="line2d_58">
    <path d="M 338.688 62.752535 
L 369.60768 35.706297 
" style="fill:none;stroke:#00bfbf;stroke-linecap:square;stroke-width:1.5;"/>
    <g>
     <use style="fill-opacity:0;stroke:#00bfbf;stroke-width:1.5;" x="338.688" xlink:href="#m9262b37b7d" y="62.752535"/>
     <use style="fill-opacity:0;stroke:#00bfbf;stroke-width:1.5;" x="369.60768" xlink:href="#m9262b37b7d" y="35.706297"/>
    </g>
   </g>
   <g id="line2d_59">
    <path d="M 338.688 298.944 
L 338.688 30.334099 
" style="fill:none;stroke:#000000;stroke-linecap:square;stroke-width:1.5;"/>
   </g>
   <g id="patch_3">
    <path d="M 57.6 298.944 
L 57.6 27.648 
" style="fill:none;stroke:#000000;stroke-linecap:square;stroke-linejoin:miter;stroke-width:0.8;"/>
   </g>
   <g id="patch_4">
    <path d="M 338.688 298.944 
L 338.688 27.648 
" style="fill:none;stroke:#000000;stroke-linecap:square;stroke-linejoin:miter;stroke-width:0.8;"/>
   </g>
   <g id="patch_5">
    <path d="M 57.6 298.944 
L 338.688 298.944 
" style="fill:none;stroke:#000000;stroke-linecap:square;stroke-linejoin:miter;stroke-width:0.8;"/>
   </g>
   <g id="patch_6">
    <path d="M 57.6 27.648 
L 338.688 27.648 
" style="fill:none;stroke:#000000;stroke-linecap:square;stroke-linejoin:miter;stroke-width:0.8;"/>
   </g>
   <g id="text_13">
    <!-- 20-D -->
    <g transform="translate(375.22944 298.262739)scale(0.17 -0.17)">
     <defs>
      <path d="M 19.671875 64.796875 
L 19.671875 8.109375 
L 31.59375 8.109375 
Q 46.6875 8.109375 53.6875 14.9375 
Q 60.6875 21.78125 60.6875 36.53125 
Q 60.6875 51.171875 53.6875 57.984375 
Q 46.6875 64.796875 31.59375 64.796875 
z
M 9.8125 72.90625 
L 30.078125 72.90625 
Q 51.265625 72.90625 61.171875 64.09375 
Q 71.09375 55.28125 71.09375 36.53125 
Q 71.09375 17.671875 61.125 8.828125 
Q 51.171875 0 30.078125 0 
L 9.8125 0 
z
" id="DejaVuSans-68"/>
     </defs>
     <use xlink:href="#DejaVuSans-50"/>
     <use x="63.623047" xlink:href="#DejaVuSans-48"/>
     <use x="127.246094" xlink:href="#DejaVuSans-45"/>
     <use x="163.330078" xlink:href="#DejaVuSans-68"/>
    </g>
   </g>
   <g id="text_14">
    <!-- 10-D -->
    <g transform="translate(375.22944 233.796363)scale(0.17 -0.17)">
     <use xlink:href="#DejaVuSans-49"/>
     <use x="63.623047" xlink:href="#DejaVuSans-48"/>
     <use x="127.246094" xlink:href="#DejaVuSans-45"/>
     <use x="163.330078" xlink:href="#DejaVuSans-68"/>
    </g>
   </g>
   <g id="text_15">
    <!-- 5-D -->
    <g transform="translate(375.22944 169.329987)scale(0.17 -0.17)">
     <defs>
      <path d="M 10.796875 72.90625 
L 49.515625 72.90625 
L 49.515625 64.59375 
L 19.828125 64.59375 
L 19.828125 46.734375 
Q 21.96875 47.46875 24.109375 47.828125 
Q 26.265625 48.1875 28.421875 48.1875 
Q 40.625 48.1875 47.75 41.5 
Q 54.890625 34.8125 54.890625 23.390625 
Q 54.890625 11.625 47.5625 5.09375 
Q 40.234375 -1.421875 26.90625 -1.421875 
Q 22.3125 -1.421875 17.546875 -0.640625 
Q 12.796875 0.140625 7.71875 1.703125 
L 7.71875 11.625 
Q 12.109375 9.234375 16.796875 8.0625 
Q 21.484375 6.890625 26.703125 6.890625 
Q 35.15625 6.890625 40.078125 11.328125 
Q 45.015625 15.765625 45.015625 23.390625 
Q 45.015625 31 40.078125 35.4375 
Q 35.15625 39.890625 26.703125 39.890625 
Q 22.75 39.890625 18.8125 39.015625 
Q 14.890625 38.140625 10.796875 36.28125 
z
" id="DejaVuSans-53"/>
     </defs>
     <use xlink:href="#DejaVuSans-53"/>
     <use x="63.623047" xlink:href="#DejaVuSans-45"/>
     <use x="99.707031" xlink:href="#DejaVuSans-68"/>
    </g>
   </g>
   <g id="text_16">
    <!-- 3-D -->
    <g transform="translate(375.22944 104.863611)scale(0.17 -0.17)">
     <defs>
      <path d="M 40.578125 39.3125 
Q 47.65625 37.796875 51.625 33 
Q 55.609375 28.21875 55.609375 21.1875 
Q 55.609375 10.40625 48.1875 4.484375 
Q 40.765625 -1.421875 27.09375 -1.421875 
Q 22.515625 -1.421875 17.65625 -0.515625 
Q 12.796875 0.390625 7.625 2.203125 
L 7.625 11.71875 
Q 11.71875 9.328125 16.59375 8.109375 
Q 21.484375 6.890625 26.8125 6.890625 
Q 36.078125 6.890625 40.9375 10.546875 
Q 45.796875 14.203125 45.796875 21.1875 
Q 45.796875 27.640625 41.28125 31.265625 
Q 36.765625 34.90625 28.71875 34.90625 
L 20.21875 34.90625 
L 20.21875 43.015625 
L 29.109375 43.015625 
Q 36.375 43.015625 40.234375 45.921875 
Q 44.09375 48.828125 44.09375 54.296875 
Q 44.09375 59.90625 40.109375 62.90625 
Q 36.140625 65.921875 28.71875 65.921875 
Q 24.65625 65.921875 20.015625 65.03125 
Q 15.375 64.15625 9.8125 62.3125 
L 9.8125 71.09375 
Q 15.4375 72.65625 20.34375 73.4375 
Q 25.25 74.21875 29.59375 74.21875 
Q 40.828125 74.21875 47.359375 69.109375 
Q 53.90625 64.015625 53.90625 55.328125 
Q 53.90625 49.265625 50.4375 45.09375 
Q 46.96875 40.921875 40.578125 39.3125 
z
" id="DejaVuSans-51"/>
     </defs>
     <use xlink:href="#DejaVuSans-51"/>
     <use x="63.623047" xlink:href="#DejaVuSans-45"/>
     <use x="99.707031" xlink:href="#DejaVuSans-68"/>
    </g>
   </g>
   <g id="text_17">
    <!-- 2-D -->
    <g transform="translate(375.22944 40.397235)scale(0.17 -0.17)">
     <use xlink:href="#DejaVuSans-50"/>
     <use x="63.623047" xlink:href="#DejaVuSans-45"/>
     <use x="99.707031" xlink:href="#DejaVuSans-68"/>
    </g>
   </g>
   <g id="text_18">
    <!-- bbob-biobj f2 -->
    <g transform="translate(60.41088 38.111366)scale(0.102 -0.102)">
     <defs>
      <path d="M 48.6875 27.296875 
Q 48.6875 37.203125 44.609375 42.84375 
Q 40.53125 48.484375 33.40625 48.484375 
Q 26.265625 48.484375 22.1875 42.84375 
Q 18.109375 37.203125 18.109375 27.296875 
Q 18.109375 17.390625 22.1875 11.75 
Q 26.265625 6.109375 33.40625 6.109375 
Q 40.53125 6.109375 44.609375 11.75 
Q 48.6875 17.390625 48.6875 27.296875 
z
M 18.109375 46.390625 
Q 20.953125 51.265625 25.265625 53.625 
Q 29.59375 56 35.59375 56 
Q 45.5625 56 51.78125 48.09375 
Q 58.015625 40.1875 58.015625 27.296875 
Q 58.015625 14.40625 51.78125 6.484375 
Q 45.5625 -1.421875 35.59375 -1.421875 
Q 29.59375 -1.421875 25.265625 0.953125 
Q 20.953125 3.328125 18.109375 8.203125 
L 18.109375 0 
L 9.078125 0 
L 9.078125 75.984375 
L 18.109375 75.984375 
z
" id="DejaVuSans-98"/>
      <path d="M 9.421875 54.6875 
L 18.40625 54.6875 
L 18.40625 -0.984375 
Q 18.40625 -11.421875 14.421875 -16.109375 
Q 10.453125 -20.796875 1.609375 -20.796875 
L -1.8125 -20.796875 
L -1.8125 -13.1875 
L 0.59375 -13.1875 
Q 5.71875 -13.1875 7.5625 -10.8125 
Q 9.421875 -8.453125 9.421875 -0.984375 
z
M 9.421875 75.984375 
L 18.40625 75.984375 
L 18.40625 64.59375 
L 9.421875 64.59375 
z
" id="DejaVuSans-106"/>
     </defs>
     <use xlink:href="#DejaVuSans-98"/>
     <use x="63.476562" xlink:href="#DejaVuSans-98"/>
     <use x="126.953125" xlink:href="#DejaVuSans-111"/>
     <use x="188.134766" xlink:href="#DejaVuSans-98"/>
     <use x="251.611328" xlink:href="#DejaVuSans-45"/>
     <use x="287.695312" xlink:href="#DejaVuSans-98"/>
     <use x="351.171875" xlink:href="#DejaVuSans-105"/>
     <use x="378.955078" xlink:href="#DejaVuSans-111"/>
     <use x="440.136719" xlink:href="#DejaVuSans-98"/>
     <use x="503.613281" xlink:href="#DejaVuSans-106"/>
     <use x="531.396484" xlink:href="#DejaVuSans-32"/>
     <use x="563.183594" xlink:href="#DejaVuSans-102"/>
     <use x="598.388672" xlink:href="#DejaVuSans-50"/>
    </g>
    <!-- 58 targets: 1..-1.0e-4 -->
    <g transform="translate(60.41088 49.533135)scale(0.102 -0.102)">
     <defs>
      <path d="M 11.71875 12.40625 
L 22.015625 12.40625 
L 22.015625 0 
L 11.71875 0 
z
M 11.71875 51.703125 
L 22.015625 51.703125 
L 22.015625 39.3125 
L 11.71875 39.3125 
z
" id="DejaVuSans-58"/>
     </defs>
     <use xlink:href="#DejaVuSans-53"/>
     <use x="63.623047" xlink:href="#DejaVuSans-56"/>
     <use x="127.246094" xlink:href="#DejaVuSans-32"/>
     <use x="159.033203" xlink:href="#DejaVuSans-116"/>
     <use x="198.242188" xlink:href="#DejaVuSans-97"/>
     <use x="259.521484" xlink:href="#DejaVuSans-114"/>
     <use x="298.884766" xlink:href="#DejaVuSans-103"/>
     <use x="362.361328" xlink:href="#DejaVuSans-101"/>
     <use x="423.884766" xlink:href="#DejaVuSans-116"/>
     <use x="463.09375" xlink:href="#DejaVuSans-115"/>
     <use x="515.193359" xlink:href="#DejaVuSans-58"/>
     <use x="548.884766" xlink:href="#DejaVuSans-32"/>
     <use x="580.671875" xlink:href="#DejaVuSans-49"/>
     <use x="644.294922" xlink:href="#DejaVuSans-46"/>
     <use x="676.082031" xlink:href="#DejaVuSans-46"/>
     <use x="707.869141" xlink:href="#DejaVuSans-45"/>
     <use x="743.953125" xlink:href="#DejaVuSans-49"/>
     <use x="807.576172" xlink:href="#DejaVuSans-46"/>
     <use x="839.363281" xlink:href="#DejaVuSans-48"/>
     <use x="902.986328" xlink:href="#DejaVuSans-101"/>
     <use x="964.509766" xlink:href="#DejaVuSans-45"/>
     <use x="1000.59375" xlink:href="#DejaVuSans-52"/>
    </g>
    <!-- 10 instances -->
    <g transform="translate(60.41088 60.954904)scale(0.102 -0.102)">
     <use xlink:href="#DejaVuSans-49"/>
     <use x="63.623047" xlink:href="#DejaVuSans-48"/>
     <use x="127.246094" xlink:href="#DejaVuSans-32"/>
     <use x="159.033203" xlink:href="#DejaVuSans-105"/>
     <use x="186.816406" xlink:href="#DejaVuSans-110"/>
     <use x="250.195312" xlink:href="#DejaVuSans-115"/>
     <use x="302.294922" xlink:href="#DejaVuSans-116"/>
     <use x="341.503906" xlink:href="#DejaVuSans-97"/>
     <use x="402.783203" xlink:href="#DejaVuSans-110"/>
     <use x="466.162109" xlink:href="#DejaVuSans-99"/>
     <use x="521.142578" xlink:href="#DejaVuSans-101"/>
     <use x="582.666016" xlink:href="#DejaVuSans-115"/>
    </g>
   </g>
   <g id="text_19">
    <!-- v2.4, hv-hash=ff0e71e8cd978373 -->
    <g style="fill:#808080;" transform="translate(112.648687 294.151352)scale(0.1 -0.1)">
     <defs>
      <path d="M 54.890625 33.015625 
L 54.890625 0 
L 45.90625 0 
L 45.90625 32.71875 
Q 45.90625 40.484375 42.875 44.328125 
Q 39.84375 48.1875 33.796875 48.1875 
Q 26.515625 48.1875 22.3125 43.546875 
Q 18.109375 38.921875 18.109375 30.90625 
L 18.109375 0 
L 9.078125 0 
L 9.078125 75.984375 
L 18.109375 75.984375 
L 18.109375 46.1875 
Q 21.34375 51.125 25.703125 53.5625 
Q 30.078125 56 35.796875 56 
Q 45.21875 56 50.046875 50.171875 
Q 54.890625 44.34375 54.890625 33.015625 
z
" id="DejaVuSans-104"/>
      <path d="M 10.59375 45.40625 
L 73.1875 45.40625 
L 73.1875 37.203125 
L 10.59375 37.203125 
z
M 10.59375 25.484375 
L 73.1875 25.484375 
L 73.1875 17.1875 
L 10.59375 17.1875 
z
" id="DejaVuSans-61"/>
      <path d="M 8.203125 72.90625 
L 55.078125 72.90625 
L 55.078125 68.703125 
L 28.609375 0 
L 18.3125 0 
L 43.21875 64.59375 
L 8.203125 64.59375 
z
" id="DejaVuSans-55"/>
      <path d="M 10.984375 1.515625 
L 10.984375 10.5 
Q 14.703125 8.734375 18.5 7.8125 
Q 22.3125 6.890625 25.984375 6.890625 
Q 35.75 6.890625 40.890625 13.453125 
Q 46.046875 20.015625 46.78125 33.40625 
Q 43.953125 29.203125 39.59375 26.953125 
Q 35.25 24.703125 29.984375 24.703125 
Q 19.046875 24.703125 12.671875 31.3125 
Q 6.296875 37.9375 6.296875 49.421875 
Q 6.296875 60.640625 12.9375 67.421875 
Q 19.578125 74.21875 30.609375 74.21875 
Q 43.265625 74.21875 49.921875 64.515625 
Q 56.59375 54.828125 56.59375 36.375 
Q 56.59375 19.140625 48.40625 8.859375 
Q 40.234375 -1.421875 26.421875 -1.421875 
Q 22.703125 -1.421875 18.890625 -0.6875 
Q 15.09375 0.046875 10.984375 1.515625 
z
M 30.609375 32.421875 
Q 37.25 32.421875 41.125 36.953125 
Q 45.015625 41.5 45.015625 49.421875 
Q 45.015625 57.28125 41.125 61.84375 
Q 37.25 66.40625 30.609375 66.40625 
Q 23.96875 66.40625 20.09375 61.84375 
Q 16.21875 57.28125 16.21875 49.421875 
Q 16.21875 41.5 20.09375 36.953125 
Q 23.96875 32.421875 30.609375 32.421875 
z
" id="DejaVuSans-57"/>
     </defs>
     <use xlink:href="#DejaVuSans-118"/>
     <use x="59.179688" xlink:href="#DejaVuSans-50"/>
     <use x="122.802734" xlink:href="#DejaVuSans-46"/>
     <use x="154.589844" xlink:href="#DejaVuSans-52"/>
     <use x="218.212891" xlink:href="#DejaVuSans-44"/>
     <use x="250" xlink:href="#DejaVuSans-32"/>
     <use x="281.787109" xlink:href="#DejaVuSans-104"/>
     <use x="345.166016" xlink:href="#DejaVuSans-118"/>
     <use x="401.720703" xlink:href="#DejaVuSans-45"/>
     <use x="437.804688" xlink:href="#DejaVuSans-104"/>
     <use x="501.183594" xlink:href="#DejaVuSans-97"/>
     <use x="562.462891" xlink:href="#DejaVuSans-115"/>
     <use x="614.5625" xlink:href="#DejaVuSans-104"/>
     <use x="677.941406" xlink:href="#DejaVuSans-61"/>
     <use x="761.730469" xlink:href="#DejaVuSans-102"/>
     <use x="796.935547" xlink:href="#DejaVuSans-102"/>
     <use x="832.140625" xlink:href="#DejaVuSans-48"/>
     <use x="895.763672" xlink:href="#DejaVuSans-101"/>
     <use x="957.287109" xlink:href="#DejaVuSans-55"/>
     <use x="1020.910156" xlink:href="#DejaVuSans-49"/>
     <use x="1084.533203" xlink:href="#DejaVuSans-101"/>
     <use x="1146.056641" xlink:href="#DejaVuSans-56"/>
     <use x="1209.679688" xlink:href="#DejaVuSans-99"/>
     <use x="1264.660156" xlink:href="#DejaVuSans-100"/>
     <use x="1328.136719" xlink:href="#DejaVuSans-57"/>
     <use x="1391.759766" xlink:href="#DejaVuSans-55"/>
     <use x="1455.382812" xlink:href="#DejaVuSans-56"/>
     <use x="1519.005859" xlink:href="#DejaVuSans-51"/>
     <use x="1582.628906" xlink:href="#DejaVuSans-55"/>
     <use x="1646.251953" xlink:href="#DejaVuSans-51"/>
    </g>
   </g>
   <g id="text_20">
    <!-- 2 Sphere/sep. Ellipsoid -->
    <g transform="translate(84.484625 21.648)scale(0.2 -0.2)">
     <defs>
      <path d="M 53.515625 70.515625 
L 53.515625 60.890625 
Q 47.90625 63.578125 42.921875 64.890625 
Q 37.9375 66.21875 33.296875 66.21875 
Q 25.25 66.21875 20.875 63.09375 
Q 16.5 59.96875 16.5 54.203125 
Q 16.5 49.359375 19.40625 46.890625 
Q 22.3125 44.4375 30.421875 42.921875 
L 36.375 41.703125 
Q 47.40625 39.59375 52.65625 34.296875 
Q 57.90625 29 57.90625 20.125 
Q 57.90625 9.515625 50.796875 4.046875 
Q 43.703125 -1.421875 29.984375 -1.421875 
Q 24.8125 -1.421875 18.96875 -0.25 
Q 13.140625 0.921875 6.890625 3.21875 
L 6.890625 13.375 
Q 12.890625 10.015625 18.65625 8.296875 
Q 24.421875 6.59375 29.984375 6.59375 
Q 38.421875 6.59375 43.015625 9.90625 
Q 47.609375 13.234375 47.609375 19.390625 
Q 47.609375 24.75 44.3125 27.78125 
Q 41.015625 30.8125 33.5 32.328125 
L 27.484375 33.5 
Q 16.453125 35.6875 11.515625 40.375 
Q 6.59375 45.0625 6.59375 53.421875 
Q 6.59375 63.09375 13.40625 68.65625 
Q 20.21875 74.21875 32.171875 74.21875 
Q 37.3125 74.21875 42.625 73.28125 
Q 47.953125 72.359375 53.515625 70.515625 
z
" id="DejaVuSans-83"/>
      <path d="M 9.8125 72.90625 
L 55.90625 72.90625 
L 55.90625 64.59375 
L 19.671875 64.59375 
L 19.671875 43.015625 
L 54.390625 43.015625 
L 54.390625 34.71875 
L 19.671875 34.71875 
L 19.671875 8.296875 
L 56.78125 8.296875 
L 56.78125 0 
L 9.8125 0 
z
" id="DejaVuSans-69"/>
     </defs>
     <use xlink:href="#DejaVuSans-50"/>
     <use x="63.623047" xlink:href="#DejaVuSans-32"/>
     <use x="95.410156" xlink:href="#DejaVuSans-83"/>
     <use x="158.886719" xlink:href="#DejaVuSans-112"/>
     <use x="222.363281" xlink:href="#DejaVuSans-104"/>
     <use x="285.742188" xlink:href="#DejaVuSans-101"/>
     <use x="347.265625" xlink:href="#DejaVuSans-114"/>
     <use x="386.128906" xlink:href="#DejaVuSans-101"/>
     <use x="447.652344" xlink:href="#DejaVuSans-47"/>
     <use x="481.34375" xlink:href="#DejaVuSans-115"/>
     <use x="533.443359" xlink:href="#DejaVuSans-101"/>
     <use x="594.966797" xlink:href="#DejaVuSans-112"/>
     <use x="658.443359" xlink:href="#DejaVuSans-46"/>
     <use x="690.230469" xlink:href="#DejaVuSans-32"/>
     <use x="722.017578" xlink:href="#DejaVuSans-69"/>
     <use x="785.201172" xlink:href="#DejaVuSans-108"/>
     <use x="812.984375" xlink:href="#DejaVuSans-108"/>
     <use x="840.767578" xlink:href="#DejaVuSans-105"/>
     <use x="868.550781" xlink:href="#DejaVuSans-112"/>
     <use x="932.027344" xlink:href="#DejaVuSans-115"/>
     <use x="984.126953" xlink:href="#DejaVuSans-111"/>
     <use x="1045.308594" xlink:href="#DejaVuSans-105"/>
     <use x="1073.091797" xlink:href="#DejaVuSans-100"/>
    </g>
   </g>
  </g>
 </g>
 <defs>
  <clipPath id="p61aab592ae">
   <rect height="271.296" width="281.088" x="57.6" y="27.648"/>
  </clipPath>
 </defs>
</svg>
