<?xml version="1.0" encoding="utf-8" standalone="no"?>
<!DOCTYPE svg PUBLIC "-//W3C//DTD SVG 1.1//EN"
  "http://www.w3.org/Graphics/SVG/1.1/DTD/svg11.dtd">
<!-- Created with matplotlib (https://matplotlib.org/) -->
<svg height="345.6pt" version="1.1" viewBox="0 0 460.8 345.6" width="460.8pt" xmlns="http://www.w3.org/2000/svg" xmlns:xlink="http://www.w3.org/1999/xlink">
 <metadata>
  <rdf:RDF xmlns:cc="http://creativecommons.org/ns#" xmlns:dc="http://purl.org/dc/elements/1.1/" xmlns:rdf="http://www.w3.org/1999/02/22-rdf-syntax-ns#">
   <cc:Work>
    <dc:type rdf:resource="http://purl.org/dc/dcmitype/StillImage"/>
    <dc:date>2021-03-30T16:55:27.433265</dc:date>
    <dc:format>image/svg+xml</dc:format>
    <dc:creator>
     <cc:Agent>
      <dc:title>Matplotlib v3.3.4, https://matplotlib.org/</dc:title>
     </cc:Agent>
    </dc:creator>
   </cc:Work>
  </rdf:RDF>
 </metadata>
 <defs>
  <style type="text/css">*{stroke-linecap:butt;stroke-linejoin:round;}</style>
 </defs>
 <g id="figure_1">
  <g id="patch_1">
   <path d="M 0 345.6 
L 460.8 345.6 
L 460.8 0 
L 0 0 
z
" style="fill:#ffffff;"/>
  </g>
  <g id="axes_1">
   <g id="patch_2">
    <path d="M 57.6 298.944 
L 338.688 298.944 
L 338.688 3.456 
L 57.6 3.456 
z
" style="fill:#ffffff;"/>
   </g>
   <g id="matplotlib.axis_1">
    <g id="xtick_1">
     <g id="line2d_1">
      <path clip-path="url(#pa0481560de)" d="M 57.6 298.944 
L 57.6 3.456 
" style="fill:none;stroke:#b0b0b0;stroke-linecap:square;stroke-width:0.8;"/>
     </g>
     <g id="line2d_2">
      <defs>
       <path d="M 0 0 
L 0 3.5 
" id="m6d026d657b" style="stroke:#000000;stroke-width:0.8;"/>
      </defs>
      <g>
       <use style="stroke:#000000;stroke-width:0.8;" x="57.6" xlink:href="#m6d026d657b" y="298.944"/>
      </g>
     </g>
     <g id="text_1">
      <!-- 0 -->
      <g transform="translate(51.2375 321.140875)scale(0.2 -0.2)">
       <defs>
        <path d="M 31.78125 66.40625 
Q 24.171875 66.40625 20.328125 58.90625 
Q 16.5 51.421875 16.5 36.375 
Q 16.5 21.390625 20.328125 13.890625 
Q 24.171875 6.390625 31.78125 6.390625 
Q 39.453125 6.390625 43.28125 13.890625 
Q 47.125 21.390625 47.125 36.375 
Q 47.125 51.421875 43.28125 58.90625 
Q 39.453125 66.40625 31.78125 66.40625 
z
M 31.78125 74.21875 
Q 44.046875 74.21875 50.515625 64.515625 
Q 56.984375 54.828125 56.984375 36.375 
Q 56.984375 17.96875 50.515625 8.265625 
Q 44.046875 -1.421875 31.78125 -1.421875 
Q 19.53125 -1.421875 13.0625 8.265625 
Q 6.59375 17.96875 6.59375 36.375 
Q 6.59375 54.828125 13.0625 64.515625 
Q 19.53125 74.21875 31.78125 74.21875 
z
" id="DejaVuSans-48"/>
       </defs>
       <use xlink:href="#DejaVuSans-48"/>
      </g>
     </g>
    </g>
    <g id="xtick_2">
     <g id="line2d_3">
      <path clip-path="url(#pa0481560de)" d="M 137.910857 298.944 
L 137.910857 3.456 
" style="fill:none;stroke:#b0b0b0;stroke-linecap:square;stroke-width:0.8;"/>
     </g>
     <g id="line2d_4">
      <g>
       <use style="stroke:#000000;stroke-width:0.8;" x="137.910857" xlink:href="#m6d026d657b" y="298.944"/>
      </g>
     </g>
     <g id="text_2">
      <!-- 2 -->
      <g transform="translate(131.548357 321.140875)scale(0.2 -0.2)">
       <defs>
        <path d="M 19.1875 8.296875 
L 53.609375 8.296875 
L 53.609375 0 
L 7.328125 0 
L 7.328125 8.296875 
Q 12.9375 14.109375 22.625 23.890625 
Q 32.328125 33.6875 34.8125 36.53125 
Q 39.546875 41.84375 41.421875 45.53125 
Q 43.3125 49.21875 43.3125 52.78125 
Q 43.3125 58.59375 39.234375 62.25 
Q 35.15625 65.921875 28.609375 65.921875 
Q 23.96875 65.921875 18.8125 64.3125 
Q 13.671875 62.703125 7.8125 59.421875 
L 7.8125 69.390625 
Q 13.765625 71.78125 18.9375 73 
Q 24.125 74.21875 28.421875 74.21875 
Q 39.75 74.21875 46.484375 68.546875 
Q 53.21875 62.890625 53.21875 53.421875 
Q 53.21875 48.921875 51.53125 44.890625 
Q 49.859375 40.875 45.40625 35.40625 
Q 44.1875 33.984375 37.640625 27.21875 
Q 31.109375 20.453125 19.1875 8.296875 
z
" id="DejaVuSans-50"/>
       </defs>
       <use xlink:href="#DejaVuSans-50"/>
      </g>
     </g>
    </g>
    <g id="xtick_3">
     <g id="line2d_5">
      <path clip-path="url(#pa0481560de)" d="M 218.221714 298.944 
L 218.221714 3.456 
" style="fill:none;stroke:#b0b0b0;stroke-linecap:square;stroke-width:0.8;"/>
     </g>
     <g id="line2d_6">
      <g>
       <use style="stroke:#000000;stroke-width:0.8;" x="218.221714" xlink:href="#m6d026d657b" y="298.944"/>
      </g>
     </g>
     <g id="text_3">
      <!-- 4 -->
      <g transform="translate(211.859214 321.140875)scale(0.2 -0.2)">
       <defs>
        <path d="M 37.796875 64.3125 
L 12.890625 25.390625 
L 37.796875 25.390625 
z
M 35.203125 72.90625 
L 47.609375 72.90625 
L 47.609375 25.390625 
L 58.015625 25.390625 
L 58.015625 17.1875 
L 47.609375 17.1875 
L 47.609375 0 
L 37.796875 0 
L 37.796875 17.1875 
L 4.890625 17.1875 
L 4.890625 26.703125 
z
" id="DejaVuSans-52"/>
       </defs>
       <use xlink:href="#DejaVuSans-52"/>
      </g>
     </g>
    </g>
    <g id="xtick_4">
     <g id="line2d_7">
      <path clip-path="url(#pa0481560de)" d="M 298.532571 298.944 
L 298.532571 3.456 
" style="fill:none;stroke:#b0b0b0;stroke-linecap:square;stroke-width:0.8;"/>
     </g>
     <g id="line2d_8">
      <g>
       <use style="stroke:#000000;stroke-width:0.8;" x="298.532571" xlink:href="#m6d026d657b" y="298.944"/>
      </g>
     </g>
     <g id="text_4">
      <!-- 6 -->
      <g transform="translate(292.170071 321.140875)scale(0.2 -0.2)">
       <defs>
        <path d="M 33.015625 40.375 
Q 26.375 40.375 22.484375 35.828125 
Q 18.609375 31.296875 18.609375 23.390625 
Q 18.609375 15.53125 22.484375 10.953125 
Q 26.375 6.390625 33.015625 6.390625 
Q 39.65625 6.390625 43.53125 10.953125 
Q 47.40625 15.53125 47.40625 23.390625 
Q 47.40625 31.296875 43.53125 35.828125 
Q 39.65625 40.375 33.015625 40.375 
z
M 52.59375 71.296875 
L 52.59375 62.3125 
Q 48.875 64.0625 45.09375 64.984375 
Q 41.3125 65.921875 37.59375 65.921875 
Q 27.828125 65.921875 22.671875 59.328125 
Q 17.53125 52.734375 16.796875 39.40625 
Q 19.671875 43.65625 24.015625 45.921875 
Q 28.375 48.1875 33.59375 48.1875 
Q 44.578125 48.1875 50.953125 41.515625 
Q 57.328125 34.859375 57.328125 23.390625 
Q 57.328125 12.15625 50.6875 5.359375 
Q 44.046875 -1.421875 33.015625 -1.421875 
Q 20.359375 -1.421875 13.671875 8.265625 
Q 6.984375 17.96875 6.984375 36.375 
Q 6.984375 53.65625 15.1875 63.9375 
Q 23.390625 74.21875 37.203125 74.21875 
Q 40.921875 74.21875 44.703125 73.484375 
Q 48.484375 72.75 52.59375 71.296875 
z
" id="DejaVuSans-54"/>
       </defs>
       <use xlink:href="#DejaVuSans-54"/>
      </g>
     </g>
    </g>
    <g id="xtick_5">
     <g id="line2d_9">
      <path clip-path="url(#pa0481560de)" d="M 97.755429 298.944 
L 97.755429 3.456 
" style="fill:none;stroke:#b0b0b0;stroke-linecap:square;stroke-width:0.8;"/>
     </g>
     <g id="line2d_10">
      <defs>
       <path d="M 0 0 
L 0 2 
" id="mb62dce3578" style="stroke:#000000;stroke-width:0.6;"/>
      </defs>
      <g>
       <use style="stroke:#000000;stroke-width:0.6;" x="97.755429" xlink:href="#mb62dce3578" y="298.944"/>
      </g>
     </g>
    </g>
    <g id="xtick_6">
     <g id="line2d_11">
      <path clip-path="url(#pa0481560de)" d="M 178.066286 298.944 
L 178.066286 3.456 
" style="fill:none;stroke:#b0b0b0;stroke-linecap:square;stroke-width:0.8;"/>
     </g>
     <g id="line2d_12">
      <g>
       <use style="stroke:#000000;stroke-width:0.6;" x="178.066286" xlink:href="#mb62dce3578" y="298.944"/>
      </g>
     </g>
    </g>
    <g id="xtick_7">
     <g id="line2d_13">
      <path clip-path="url(#pa0481560de)" d="M 258.377143 298.944 
L 258.377143 3.456 
" style="fill:none;stroke:#b0b0b0;stroke-linecap:square;stroke-width:0.8;"/>
     </g>
     <g id="line2d_14">
      <g>
       <use style="stroke:#000000;stroke-width:0.6;" x="258.377143" xlink:href="#mb62dce3578" y="298.944"/>
      </g>
     </g>
    </g>
    <g id="xtick_8">
     <g id="line2d_15">
      <path clip-path="url(#pa0481560de)" d="M 338.688 298.944 
L 338.688 3.456 
" style="fill:none;stroke:#b0b0b0;stroke-linecap:square;stroke-width:0.8;"/>
     </g>
     <g id="line2d_16">
      <g>
       <use style="stroke:#000000;stroke-width:0.6;" x="338.688" xlink:href="#mb62dce3578" y="298.944"/>
      </g>
     </g>
    </g>
    <g id="text_5">
     <!-- log10(# f-evals / dimension) -->
     <g transform="translate(77.764078 342.217594)scale(0.17 -0.17)">
      <defs>
       <path d="M 9.421875 75.984375 
L 18.40625 75.984375 
L 18.40625 0 
L 9.421875 0 
z
" id="DejaVuSans-108"/>
       <path d="M 30.609375 48.390625 
Q 23.390625 48.390625 19.1875 42.75 
Q 14.984375 37.109375 14.984375 27.296875 
Q 14.984375 17.484375 19.15625 11.84375 
Q 23.34375 6.203125 30.609375 6.203125 
Q 37.796875 6.203125 41.984375 11.859375 
Q 46.1875 17.53125 46.1875 27.296875 
Q 46.1875 37.015625 41.984375 42.703125 
Q 37.796875 48.390625 30.609375 48.390625 
z
M 30.609375 56 
Q 42.328125 56 49.015625 48.375 
Q 55.71875 40.765625 55.71875 27.296875 
Q 55.71875 13.875 49.015625 6.21875 
Q 42.328125 -1.421875 30.609375 -1.421875 
Q 18.84375 -1.421875 12.171875 6.21875 
Q 5.515625 13.875 5.515625 27.296875 
Q 5.515625 40.765625 12.171875 48.375 
Q 18.84375 56 30.609375 56 
z
" id="DejaVuSans-111"/>
       <path d="M 45.40625 27.984375 
Q 45.40625 37.75 41.375 43.109375 
Q 37.359375 48.484375 30.078125 48.484375 
Q 22.859375 48.484375 18.828125 43.109375 
Q 14.796875 37.75 14.796875 27.984375 
Q 14.796875 18.265625 18.828125 12.890625 
Q 22.859375 7.515625 30.078125 7.515625 
Q 37.359375 7.515625 41.375 12.890625 
Q 45.40625 18.265625 45.40625 27.984375 
z
M 54.390625 6.78125 
Q 54.390625 -7.171875 48.1875 -13.984375 
Q 42 -20.796875 29.203125 -20.796875 
Q 24.46875 -20.796875 20.265625 -20.09375 
Q 16.0625 -19.390625 12.109375 -17.921875 
L 12.109375 -9.1875 
Q 16.0625 -11.328125 19.921875 -12.34375 
Q 23.78125 -13.375 27.78125 -13.375 
Q 36.625 -13.375 41.015625 -8.765625 
Q 45.40625 -4.15625 45.40625 5.171875 
L 45.40625 9.625 
Q 42.625 4.78125 38.28125 2.390625 
Q 33.9375 0 27.875 0 
Q 17.828125 0 11.671875 7.65625 
Q 5.515625 15.328125 5.515625 27.984375 
Q 5.515625 40.671875 11.671875 48.328125 
Q 17.828125 56 27.875 56 
Q 33.9375 56 38.28125 53.609375 
Q 42.625 51.21875 45.40625 46.390625 
L 45.40625 54.6875 
L 54.390625 54.6875 
z
" id="DejaVuSans-103"/>
       <path d="M 12.40625 8.296875 
L 28.515625 8.296875 
L 28.515625 63.921875 
L 10.984375 60.40625 
L 10.984375 69.390625 
L 28.421875 72.90625 
L 38.28125 72.90625 
L 38.28125 8.296875 
L 54.390625 8.296875 
L 54.390625 0 
L 12.40625 0 
z
" id="DejaVuSans-49"/>
       <path d="M 31 75.875 
Q 24.46875 64.65625 21.28125 53.65625 
Q 18.109375 42.671875 18.109375 31.390625 
Q 18.109375 20.125 21.3125 9.0625 
Q 24.515625 -2 31 -13.1875 
L 23.1875 -13.1875 
Q 15.875 -1.703125 12.234375 9.375 
Q 8.59375 20.453125 8.59375 31.390625 
Q 8.59375 42.28125 12.203125 53.3125 
Q 15.828125 64.359375 23.1875 75.875 
z
" id="DejaVuSans-40"/>
       <path d="M 51.125 44 
L 36.921875 44 
L 32.8125 27.6875 
L 47.125 27.6875 
z
M 43.796875 71.78125 
L 38.71875 51.515625 
L 52.984375 51.515625 
L 58.109375 71.78125 
L 65.921875 71.78125 
L 60.890625 51.515625 
L 76.125 51.515625 
L 76.125 44 
L 58.984375 44 
L 54.984375 27.6875 
L 70.515625 27.6875 
L 70.515625 20.21875 
L 53.078125 20.21875 
L 48 0 
L 40.1875 0 
L 45.21875 20.21875 
L 30.90625 20.21875 
L 25.875 0 
L 18.015625 0 
L 23.09375 20.21875 
L 7.71875 20.21875 
L 7.71875 27.6875 
L 24.90625 27.6875 
L 29 44 
L 13.28125 44 
L 13.28125 51.515625 
L 30.90625 51.515625 
L 35.890625 71.78125 
z
" id="DejaVuSans-35"/>
       <path id="DejaVuSans-32"/>
       <path d="M 37.109375 75.984375 
L 37.109375 68.5 
L 28.515625 68.5 
Q 23.6875 68.5 21.796875 66.546875 
Q 19.921875 64.59375 19.921875 59.515625 
L 19.921875 54.6875 
L 34.71875 54.6875 
L 34.71875 47.703125 
L 19.921875 47.703125 
L 19.921875 0 
L 10.890625 0 
L 10.890625 47.703125 
L 2.296875 47.703125 
L 2.296875 54.6875 
L 10.890625 54.6875 
L 10.890625 58.5 
Q 10.890625 67.625 15.140625 71.796875 
Q 19.390625 75.984375 28.609375 75.984375 
z
" id="DejaVuSans-102"/>
       <path d="M 4.890625 31.390625 
L 31.203125 31.390625 
L 31.203125 23.390625 
L 4.890625 23.390625 
z
" id="DejaVuSans-45"/>
       <path d="M 56.203125 29.59375 
L 56.203125 25.203125 
L 14.890625 25.203125 
Q 15.484375 15.921875 20.484375 11.0625 
Q 25.484375 6.203125 34.421875 6.203125 
Q 39.59375 6.203125 44.453125 7.46875 
Q 49.3125 8.734375 54.109375 11.28125 
L 54.109375 2.78125 
Q 49.265625 0.734375 44.1875 -0.34375 
Q 39.109375 -1.421875 33.890625 -1.421875 
Q 20.796875 -1.421875 13.15625 6.1875 
Q 5.515625 13.8125 5.515625 26.8125 
Q 5.515625 40.234375 12.765625 48.109375 
Q 20.015625 56 32.328125 56 
Q 43.359375 56 49.78125 48.890625 
Q 56.203125 41.796875 56.203125 29.59375 
z
M 47.21875 32.234375 
Q 47.125 39.59375 43.09375 43.984375 
Q 39.0625 48.390625 32.421875 48.390625 
Q 24.90625 48.390625 20.390625 44.140625 
Q 15.875 39.890625 15.1875 32.171875 
z
" id="DejaVuSans-101"/>
       <path d="M 2.984375 54.6875 
L 12.5 54.6875 
L 29.59375 8.796875 
L 46.6875 54.6875 
L 56.203125 54.6875 
L 35.6875 0 
L 23.484375 0 
z
" id="DejaVuSans-118"/>
       <path d="M 34.28125 27.484375 
Q 23.390625 27.484375 19.1875 25 
Q 14.984375 22.515625 14.984375 16.5 
Q 14.984375 11.71875 18.140625 8.90625 
Q 21.296875 6.109375 26.703125 6.109375 
Q 34.1875 6.109375 38.703125 11.40625 
Q 43.21875 16.703125 43.21875 25.484375 
L 43.21875 27.484375 
z
M 52.203125 31.203125 
L 52.203125 0 
L 43.21875 0 
L 43.21875 8.296875 
Q 40.140625 3.328125 35.546875 0.953125 
Q 30.953125 -1.421875 24.3125 -1.421875 
Q 15.921875 -1.421875 10.953125 3.296875 
Q 6 8.015625 6 15.921875 
Q 6 25.140625 12.171875 29.828125 
Q 18.359375 34.515625 30.609375 34.515625 
L 43.21875 34.515625 
L 43.21875 35.40625 
Q 43.21875 41.609375 39.140625 45 
Q 35.0625 48.390625 27.6875 48.390625 
Q 23 48.390625 18.546875 47.265625 
Q 14.109375 46.140625 10.015625 43.890625 
L 10.015625 52.203125 
Q 14.9375 54.109375 19.578125 55.046875 
Q 24.21875 56 28.609375 56 
Q 40.484375 56 46.34375 49.84375 
Q 52.203125 43.703125 52.203125 31.203125 
z
" id="DejaVuSans-97"/>
       <path d="M 44.28125 53.078125 
L 44.28125 44.578125 
Q 40.484375 46.53125 36.375 47.5 
Q 32.28125 48.484375 27.875 48.484375 
Q 21.1875 48.484375 17.84375 46.4375 
Q 14.5 44.390625 14.5 40.28125 
Q 14.5 37.15625 16.890625 35.375 
Q 19.28125 33.59375 26.515625 31.984375 
L 29.59375 31.296875 
Q 39.15625 29.25 43.1875 25.515625 
Q 47.21875 21.78125 47.21875 15.09375 
Q 47.21875 7.46875 41.1875 3.015625 
Q 35.15625 -1.421875 24.609375 -1.421875 
Q 20.21875 -1.421875 15.453125 -0.5625 
Q 10.6875 0.296875 5.421875 2 
L 5.421875 11.28125 
Q 10.40625 8.6875 15.234375 7.390625 
Q 20.0625 6.109375 24.8125 6.109375 
Q 31.15625 6.109375 34.5625 8.28125 
Q 37.984375 10.453125 37.984375 14.40625 
Q 37.984375 18.0625 35.515625 20.015625 
Q 33.0625 21.96875 24.703125 23.78125 
L 21.578125 24.515625 
Q 13.234375 26.265625 9.515625 29.90625 
Q 5.8125 33.546875 5.8125 39.890625 
Q 5.8125 47.609375 11.28125 51.796875 
Q 16.75 56 26.8125 56 
Q 31.78125 56 36.171875 55.265625 
Q 40.578125 54.546875 44.28125 53.078125 
z
" id="DejaVuSans-115"/>
       <path d="M 25.390625 72.90625 
L 33.6875 72.90625 
L 8.296875 -9.28125 
L 0 -9.28125 
z
" id="DejaVuSans-47"/>
       <path d="M 45.40625 46.390625 
L 45.40625 75.984375 
L 54.390625 75.984375 
L 54.390625 0 
L 45.40625 0 
L 45.40625 8.203125 
Q 42.578125 3.328125 38.25 0.953125 
Q 33.9375 -1.421875 27.875 -1.421875 
Q 17.96875 -1.421875 11.734375 6.484375 
Q 5.515625 14.40625 5.515625 27.296875 
Q 5.515625 40.1875 11.734375 48.09375 
Q 17.96875 56 27.875 56 
Q 33.9375 56 38.25 53.625 
Q 42.578125 51.265625 45.40625 46.390625 
z
M 14.796875 27.296875 
Q 14.796875 17.390625 18.875 11.75 
Q 22.953125 6.109375 30.078125 6.109375 
Q 37.203125 6.109375 41.296875 11.75 
Q 45.40625 17.390625 45.40625 27.296875 
Q 45.40625 37.203125 41.296875 42.84375 
Q 37.203125 48.484375 30.078125 48.484375 
Q 22.953125 48.484375 18.875 42.84375 
Q 14.796875 37.203125 14.796875 27.296875 
z
" id="DejaVuSans-100"/>
       <path d="M 9.421875 54.6875 
L 18.40625 54.6875 
L 18.40625 0 
L 9.421875 0 
z
M 9.421875 75.984375 
L 18.40625 75.984375 
L 18.40625 64.59375 
L 9.421875 64.59375 
z
" id="DejaVuSans-105"/>
       <path d="M 52 44.1875 
Q 55.375 50.25 60.0625 53.125 
Q 64.75 56 71.09375 56 
Q 79.640625 56 84.28125 50.015625 
Q 88.921875 44.046875 88.921875 33.015625 
L 88.921875 0 
L 79.890625 0 
L 79.890625 32.71875 
Q 79.890625 40.578125 77.09375 44.375 
Q 74.3125 48.1875 68.609375 48.1875 
Q 61.625 48.1875 57.5625 43.546875 
Q 53.515625 38.921875 53.515625 30.90625 
L 53.515625 0 
L 44.484375 0 
L 44.484375 32.71875 
Q 44.484375 40.625 41.703125 44.40625 
Q 38.921875 48.1875 33.109375 48.1875 
Q 26.21875 48.1875 22.15625 43.53125 
Q 18.109375 38.875 18.109375 30.90625 
L 18.109375 0 
L 9.078125 0 
L 9.078125 54.6875 
L 18.109375 54.6875 
L 18.109375 46.1875 
Q 21.1875 51.21875 25.484375 53.609375 
Q 29.78125 56 35.6875 56 
Q 41.65625 56 45.828125 52.96875 
Q 50 49.953125 52 44.1875 
z
" id="DejaVuSans-109"/>
       <path d="M 54.890625 33.015625 
L 54.890625 0 
L 45.90625 0 
L 45.90625 32.71875 
Q 45.90625 40.484375 42.875 44.328125 
Q 39.84375 48.1875 33.796875 48.1875 
Q 26.515625 48.1875 22.3125 43.546875 
Q 18.109375 38.921875 18.109375 30.90625 
L 18.109375 0 
L 9.078125 0 
L 9.078125 54.6875 
L 18.109375 54.6875 
L 18.109375 46.1875 
Q 21.34375 51.125 25.703125 53.5625 
Q 30.078125 56 35.796875 56 
Q 45.21875 56 50.046875 50.171875 
Q 54.890625 44.34375 54.890625 33.015625 
z
" id="DejaVuSans-110"/>
       <path d="M 8.015625 75.875 
L 15.828125 75.875 
Q 23.140625 64.359375 26.78125 53.3125 
Q 30.421875 42.28125 30.421875 31.390625 
Q 30.421875 20.453125 26.78125 9.375 
Q 23.140625 -1.703125 15.828125 -13.1875 
L 8.015625 -13.1875 
Q 14.5 -2 17.703125 9.0625 
Q 20.90625 20.125 20.90625 31.390625 
Q 20.90625 42.671875 17.703125 53.65625 
Q 14.5 64.65625 8.015625 75.875 
z
" id="DejaVuSans-41"/>
      </defs>
      <use xlink:href="#DejaVuSans-108"/>
      <use x="27.783203" xlink:href="#DejaVuSans-111"/>
      <use x="88.964844" xlink:href="#DejaVuSans-103"/>
      <use x="152.441406" xlink:href="#DejaVuSans-49"/>
      <use x="216.064453" xlink:href="#DejaVuSans-48"/>
      <use x="279.6875" xlink:href="#DejaVuSans-40"/>
      <use x="318.701172" xlink:href="#DejaVuSans-35"/>
      <use x="402.490234" xlink:href="#DejaVuSans-32"/>
      <use x="434.277344" xlink:href="#DejaVuSans-102"/>
      <use x="463.982422" xlink:href="#DejaVuSans-45"/>
      <use x="500.066406" xlink:href="#DejaVuSans-101"/>
      <use x="561.589844" xlink:href="#DejaVuSans-118"/>
      <use x="620.769531" xlink:href="#DejaVuSans-97"/>
      <use x="682.048828" xlink:href="#DejaVuSans-108"/>
      <use x="709.832031" xlink:href="#DejaVuSans-115"/>
      <use x="761.931641" xlink:href="#DejaVuSans-32"/>
      <use x="793.71875" xlink:href="#DejaVuSans-47"/>
      <use x="827.410156" xlink:href="#DejaVuSans-32"/>
      <use x="859.197266" xlink:href="#DejaVuSans-100"/>
      <use x="922.673828" xlink:href="#DejaVuSans-105"/>
      <use x="950.457031" xlink:href="#DejaVuSans-109"/>
      <use x="1047.869141" xlink:href="#DejaVuSans-101"/>
      <use x="1109.392578" xlink:href="#DejaVuSans-110"/>
      <use x="1172.771484" xlink:href="#DejaVuSans-115"/>
      <use x="1224.871094" xlink:href="#DejaVuSans-105"/>
      <use x="1252.654297" xlink:href="#DejaVuSans-111"/>
      <use x="1313.835938" xlink:href="#DejaVuSans-110"/>
      <use x="1377.214844" xlink:href="#DejaVuSans-41"/>
     </g>
    </g>
   </g>
   <g id="matplotlib.axis_2">
    <g id="ytick_1">
     <g id="line2d_17">
      <path clip-path="url(#pa0481560de)" d="M 57.6 298.944 
L 338.688 298.944 
" style="fill:none;stroke:#b0b0b0;stroke-linecap:square;stroke-width:0.8;"/>
     </g>
     <g id="line2d_18">
      <defs>
       <path d="M 0 0 
L -3.5 0 
" id="mf0de2c4476" style="stroke:#000000;stroke-width:0.8;"/>
      </defs>
      <g>
       <use style="stroke:#000000;stroke-width:0.8;" x="57.6" xlink:href="#mf0de2c4476" y="298.944"/>
      </g>
     </g>
     <g id="text_6">
      <!-- 0.0 -->
      <g transform="translate(25.155 305.02275)scale(0.16 -0.16)">
       <defs>
        <path d="M 10.6875 12.40625 
L 21 12.40625 
L 21 0 
L 10.6875 0 
z
" id="DejaVuSans-46"/>
       </defs>
       <use xlink:href="#DejaVuSans-48"/>
       <use x="63.623047" xlink:href="#DejaVuSans-46"/>
       <use x="95.410156" xlink:href="#DejaVuSans-48"/>
      </g>
     </g>
    </g>
    <g id="ytick_2">
     <g id="line2d_19">
      <path clip-path="url(#pa0481560de)" d="M 57.6 240.431525 
L 338.688 240.431525 
" style="fill:none;stroke:#b0b0b0;stroke-linecap:square;stroke-width:0.8;"/>
     </g>
     <g id="line2d_20">
      <g>
       <use style="stroke:#000000;stroke-width:0.8;" x="57.6" xlink:href="#mf0de2c4476" y="240.431525"/>
      </g>
     </g>
     <g id="text_7">
      <!-- 0.2 -->
      <g transform="translate(25.155 246.510275)scale(0.16 -0.16)">
       <use xlink:href="#DejaVuSans-48"/>
       <use x="63.623047" xlink:href="#DejaVuSans-46"/>
       <use x="95.410156" xlink:href="#DejaVuSans-50"/>
      </g>
     </g>
    </g>
    <g id="ytick_3">
     <g id="line2d_21">
      <path clip-path="url(#pa0481560de)" d="M 57.6 181.91905 
L 338.688 181.91905 
" style="fill:none;stroke:#b0b0b0;stroke-linecap:square;stroke-width:0.8;"/>
     </g>
     <g id="line2d_22">
      <g>
       <use style="stroke:#000000;stroke-width:0.8;" x="57.6" xlink:href="#mf0de2c4476" y="181.91905"/>
      </g>
     </g>
     <g id="text_8">
      <!-- 0.4 -->
      <g transform="translate(25.155 187.9978)scale(0.16 -0.16)">
       <use xlink:href="#DejaVuSans-48"/>
       <use x="63.623047" xlink:href="#DejaVuSans-46"/>
       <use x="95.410156" xlink:href="#DejaVuSans-52"/>
      </g>
     </g>
    </g>
    <g id="ytick_4">
     <g id="line2d_23">
      <path clip-path="url(#pa0481560de)" d="M 57.6 123.406574 
L 338.688 123.406574 
" style="fill:none;stroke:#b0b0b0;stroke-linecap:square;stroke-width:0.8;"/>
     </g>
     <g id="line2d_24">
      <g>
       <use style="stroke:#000000;stroke-width:0.8;" x="57.6" xlink:href="#mf0de2c4476" y="123.406574"/>
      </g>
     </g>
     <g id="text_9">
      <!-- 0.6 -->
      <g transform="translate(25.155 129.485324)scale(0.16 -0.16)">
       <use xlink:href="#DejaVuSans-48"/>
       <use x="63.623047" xlink:href="#DejaVuSans-46"/>
       <use x="95.410156" xlink:href="#DejaVuSans-54"/>
      </g>
     </g>
    </g>
    <g id="ytick_5">
     <g id="line2d_25">
      <path clip-path="url(#pa0481560de)" d="M 57.6 64.894099 
L 338.688 64.894099 
" style="fill:none;stroke:#b0b0b0;stroke-linecap:square;stroke-width:0.8;"/>
     </g>
     <g id="line2d_26">
      <g>
       <use style="stroke:#000000;stroke-width:0.8;" x="57.6" xlink:href="#mf0de2c4476" y="64.894099"/>
      </g>
     </g>
     <g id="text_10">
      <!-- 0.8 -->
      <g transform="translate(25.155 70.972849)scale(0.16 -0.16)">
       <defs>
        <path d="M 31.78125 34.625 
Q 24.75 34.625 20.71875 30.859375 
Q 16.703125 27.09375 16.703125 20.515625 
Q 16.703125 13.921875 20.71875 10.15625 
Q 24.75 6.390625 31.78125 6.390625 
Q 38.8125 6.390625 42.859375 10.171875 
Q 46.921875 13.96875 46.921875 20.515625 
Q 46.921875 27.09375 42.890625 30.859375 
Q 38.875 34.625 31.78125 34.625 
z
M 21.921875 38.8125 
Q 15.578125 40.375 12.03125 44.71875 
Q 8.5 49.078125 8.5 55.328125 
Q 8.5 64.0625 14.71875 69.140625 
Q 20.953125 74.21875 31.78125 74.21875 
Q 42.671875 74.21875 48.875 69.140625 
Q 55.078125 64.0625 55.078125 55.328125 
Q 55.078125 49.078125 51.53125 44.71875 
Q 48 40.375 41.703125 38.8125 
Q 48.828125 37.15625 52.796875 32.3125 
Q 56.78125 27.484375 56.78125 20.515625 
Q 56.78125 9.90625 50.3125 4.234375 
Q 43.84375 -1.421875 31.78125 -1.421875 
Q 19.734375 -1.421875 13.25 4.234375 
Q 6.78125 9.90625 6.78125 20.515625 
Q 6.78125 27.484375 10.78125 32.3125 
Q 14.796875 37.15625 21.921875 38.8125 
z
M 18.3125 54.390625 
Q 18.3125 48.734375 21.84375 45.5625 
Q 25.390625 42.390625 31.78125 42.390625 
Q 38.140625 42.390625 41.71875 45.5625 
Q 45.3125 48.734375 45.3125 54.390625 
Q 45.3125 60.0625 41.71875 63.234375 
Q 38.140625 66.40625 31.78125 66.40625 
Q 25.390625 66.40625 21.84375 63.234375 
Q 18.3125 60.0625 18.3125 54.390625 
z
" id="DejaVuSans-56"/>
       </defs>
       <use xlink:href="#DejaVuSans-48"/>
       <use x="63.623047" xlink:href="#DejaVuSans-46"/>
       <use x="95.410156" xlink:href="#DejaVuSans-56"/>
      </g>
     </g>
    </g>
    <g id="ytick_6">
     <g id="line2d_27">
      <path clip-path="url(#pa0481560de)" d="M 57.6 6.381624 
L 338.688 6.381624 
" style="fill:none;stroke:#b0b0b0;stroke-linecap:square;stroke-width:0.8;"/>
     </g>
     <g id="line2d_28">
      <g>
       <use style="stroke:#000000;stroke-width:0.8;" x="57.6" xlink:href="#mf0de2c4476" y="6.381624"/>
      </g>
     </g>
     <g id="text_11">
      <!-- 1.0 -->
      <g transform="translate(25.155 12.460374)scale(0.16 -0.16)">
       <use xlink:href="#DejaVuSans-49"/>
       <use x="63.623047" xlink:href="#DejaVuSans-46"/>
       <use x="95.410156" xlink:href="#DejaVuSans-48"/>
      </g>
     </g>
    </g>
    <g id="text_12">
     <!-- Fraction of function,target pairs -->
     <g transform="translate(17.619531 285.585)rotate(-90)scale(0.17 -0.17)">
      <defs>
       <path d="M 9.8125 72.90625 
L 51.703125 72.90625 
L 51.703125 64.59375 
L 19.671875 64.59375 
L 19.671875 43.109375 
L 48.578125 43.109375 
L 48.578125 34.8125 
L 19.671875 34.8125 
L 19.671875 0 
L 9.8125 0 
z
" id="DejaVuSans-70"/>
       <path d="M 41.109375 46.296875 
Q 39.59375 47.171875 37.8125 47.578125 
Q 36.03125 48 33.890625 48 
Q 26.265625 48 22.1875 43.046875 
Q 18.109375 38.09375 18.109375 28.8125 
L 18.109375 0 
L 9.078125 0 
L 9.078125 54.6875 
L 18.109375 54.6875 
L 18.109375 46.1875 
Q 20.953125 51.171875 25.484375 53.578125 
Q 30.03125 56 36.53125 56 
Q 37.453125 56 38.578125 55.875 
Q 39.703125 55.765625 41.0625 55.515625 
z
" id="DejaVuSans-114"/>
       <path d="M 48.78125 52.59375 
L 48.78125 44.1875 
Q 44.96875 46.296875 41.140625 47.34375 
Q 37.3125 48.390625 33.40625 48.390625 
Q 24.65625 48.390625 19.8125 42.84375 
Q 14.984375 37.3125 14.984375 27.296875 
Q 14.984375 17.28125 19.8125 11.734375 
Q 24.65625 6.203125 33.40625 6.203125 
Q 37.3125 6.203125 41.140625 7.25 
Q 44.96875 8.296875 48.78125 10.40625 
L 48.78125 2.09375 
Q 45.015625 0.34375 40.984375 -0.53125 
Q 36.96875 -1.421875 32.421875 -1.421875 
Q 20.0625 -1.421875 12.78125 6.34375 
Q 5.515625 14.109375 5.515625 27.296875 
Q 5.515625 40.671875 12.859375 48.328125 
Q 20.21875 56 33.015625 56 
Q 37.15625 56 41.109375 55.140625 
Q 45.0625 54.296875 48.78125 52.59375 
z
" id="DejaVuSans-99"/>
       <path d="M 18.3125 70.21875 
L 18.3125 54.6875 
L 36.8125 54.6875 
L 36.8125 47.703125 
L 18.3125 47.703125 
L 18.3125 18.015625 
Q 18.3125 11.328125 20.140625 9.421875 
Q 21.96875 7.515625 27.59375 7.515625 
L 36.8125 7.515625 
L 36.8125 0 
L 27.59375 0 
Q 17.1875 0 13.234375 3.875 
Q 9.28125 7.765625 9.28125 18.015625 
L 9.28125 47.703125 
L 2.6875 47.703125 
L 2.6875 54.6875 
L 9.28125 54.6875 
L 9.28125 70.21875 
z
" id="DejaVuSans-116"/>
       <path d="M 8.5 21.578125 
L 8.5 54.6875 
L 17.484375 54.6875 
L 17.484375 21.921875 
Q 17.484375 14.15625 20.5 10.265625 
Q 23.53125 6.390625 29.59375 6.390625 
Q 36.859375 6.390625 41.078125 11.03125 
Q 45.3125 15.671875 45.3125 23.6875 
L 45.3125 54.6875 
L 54.296875 54.6875 
L 54.296875 0 
L 45.3125 0 
L 45.3125 8.40625 
Q 42.046875 3.421875 37.71875 1 
Q 33.40625 -1.421875 27.6875 -1.421875 
Q 18.265625 -1.421875 13.375 4.4375 
Q 8.5 10.296875 8.5 21.578125 
z
M 31.109375 56 
z
" id="DejaVuSans-117"/>
       <path d="M 11.71875 12.40625 
L 22.015625 12.40625 
L 22.015625 4 
L 14.015625 -11.625 
L 7.71875 -11.625 
L 11.71875 4 
z
" id="DejaVuSans-44"/>
       <path d="M 18.109375 8.203125 
L 18.109375 -20.796875 
L 9.078125 -20.796875 
L 9.078125 54.6875 
L 18.109375 54.6875 
L 18.109375 46.390625 
Q 20.953125 51.265625 25.265625 53.625 
Q 29.59375 56 35.59375 56 
Q 45.5625 56 51.78125 48.09375 
Q 58.015625 40.1875 58.015625 27.296875 
Q 58.015625 14.40625 51.78125 6.484375 
Q 45.5625 -1.421875 35.59375 -1.421875 
Q 29.59375 -1.421875 25.265625 0.953125 
Q 20.953125 3.328125 18.109375 8.203125 
z
M 48.6875 27.296875 
Q 48.6875 37.203125 44.609375 42.84375 
Q 40.53125 48.484375 33.40625 48.484375 
Q 26.265625 48.484375 22.1875 42.84375 
Q 18.109375 37.203125 18.109375 27.296875 
Q 18.109375 17.390625 22.1875 11.75 
Q 26.265625 6.109375 33.40625 6.109375 
Q 40.53125 6.109375 44.609375 11.75 
Q 48.6875 17.390625 48.6875 27.296875 
z
" id="DejaVuSans-112"/>
      </defs>
      <use xlink:href="#DejaVuSans-70"/>
      <use x="50.269531" xlink:href="#DejaVuSans-114"/>
      <use x="91.382812" xlink:href="#DejaVuSans-97"/>
      <use x="152.662109" xlink:href="#DejaVuSans-99"/>
      <use x="207.642578" xlink:href="#DejaVuSans-116"/>
      <use x="246.851562" xlink:href="#DejaVuSans-105"/>
      <use x="274.634766" xlink:href="#DejaVuSans-111"/>
      <use x="335.816406" xlink:href="#DejaVuSans-110"/>
      <use x="399.195312" xlink:href="#DejaVuSans-32"/>
      <use x="430.982422" xlink:href="#DejaVuSans-111"/>
      <use x="492.164062" xlink:href="#DejaVuSans-102"/>
      <use x="527.369141" xlink:href="#DejaVuSans-32"/>
      <use x="559.15625" xlink:href="#DejaVuSans-102"/>
      <use x="594.361328" xlink:href="#DejaVuSans-117"/>
      <use x="657.740234" xlink:href="#DejaVuSans-110"/>
      <use x="721.119141" xlink:href="#DejaVuSans-99"/>
      <use x="776.099609" xlink:href="#DejaVuSans-116"/>
      <use x="815.308594" xlink:href="#DejaVuSans-105"/>
      <use x="843.091797" xlink:href="#DejaVuSans-111"/>
      <use x="904.273438" xlink:href="#DejaVuSans-110"/>
      <use x="967.652344" xlink:href="#DejaVuSans-44"/>
      <use x="999.439453" xlink:href="#DejaVuSans-116"/>
      <use x="1038.648438" xlink:href="#DejaVuSans-97"/>
      <use x="1099.927734" xlink:href="#DejaVuSans-114"/>
      <use x="1139.291016" xlink:href="#DejaVuSans-103"/>
      <use x="1202.767578" xlink:href="#DejaVuSans-101"/>
      <use x="1264.291016" xlink:href="#DejaVuSans-116"/>
      <use x="1303.5" xlink:href="#DejaVuSans-32"/>
      <use x="1335.287109" xlink:href="#DejaVuSans-112"/>
      <use x="1398.763672" xlink:href="#DejaVuSans-97"/>
      <use x="1460.042969" xlink:href="#DejaVuSans-105"/>
      <use x="1487.826172" xlink:href="#DejaVuSans-114"/>
      <use x="1528.939453" xlink:href="#DejaVuSans-115"/>
     </g>
    </g>
   </g>
   <g id="line2d_29">
    <defs>
     <path d="M 0 1.5 
C 0.397805 1.5 0.77937 1.341951 1.06066 1.06066 
C 1.341951 0.77937 1.5 0.397805 1.5 0 
C 1.5 -0.397805 1.341951 -0.77937 1.06066 -1.06066 
C 0.77937 -1.341951 0.397805 -1.5 0 -1.5 
C -0.397805 -1.5 -0.77937 -1.341951 -1.06066 -1.06066 
C -1.341951 -0.77937 -1.5 -0.397805 -1.5 0 
C -1.5 0.397805 -1.341951 0.77937 -1.06066 1.06066 
C -0.77937 1.341951 -0.397805 1.5 0 1.5 
z
" id="mc0c0d183cf" style="stroke:#000080;"/>
    </defs>
    <g>
     <use style="fill:#000080;stroke:#000080;" x="258.340936" xlink:href="#mc0c0d183cf" y="85.070815"/>
     <use style="fill:#000080;stroke:#000080;" x="258.340936" xlink:href="#mc0c0d183cf" y="85.070815"/>
    </g>
   </g>
   <g id="line2d_30">
    <path d="M 17.444571 298.944 
L 17.444571 296.926328 
L 94.294587 296.926328 
L 94.294587 296.421911 
L 104.23523 296.421911 
L 104.23523 295.413075 
L 106.593963 295.413075 
L 106.593963 294.908657 
L 108.671345 294.908657 
L 108.671345 294.404239 
L 115.141496 294.404239 
L 115.141496 293.395403 
L 116.443076 293.395403 
L 116.443076 292.890985 
L 117.654224 292.890985 
L 117.654224 291.377732 
L 118.786692 291.377732 
L 118.786692 290.873314 
L 119.850084 290.873314 
L 119.850084 289.864478 
L 121.800118 289.864478 
L 121.800118 287.846806 
L 122.699028 287.846806 
L 122.699028 287.342389 
L 123.553867 287.342389 
L 123.553867 286.333553 
L 125.147256 286.333553 
L 125.147256 284.820299 
L 125.892487 284.820299 
L 125.892487 283.811463 
L 126.607172 283.811463 
L 126.607172 282.802628 
L 127.293718 282.802628 
L 127.293718 281.289374 
L 127.954256 281.289374 
L 127.954256 280.784956 
L 128.590686 280.784956 
L 128.590686 279.271702 
L 129.204706 279.271702 
L 129.204706 278.262867 
L 130.371462 278.262867 
L 130.371462 277.254031 
L 130.926816 277.254031 
L 130.926816 276.245195 
L 131.465029 276.245195 
L 131.465029 275.740777 
L 131.987128 275.740777 
L 131.987128 275.236359 
L 132.494049 275.236359 
L 132.494049 274.227523 
L 132.986651 274.227523 
L 132.986651 273.723105 
L 133.46572 273.723105 
L 133.46572 272.71427 
L 133.931979 272.71427 
L 133.931979 272.209852 
L 135.260324 272.209852 
L 135.260324 271.201016 
L 136.494612 271.201016 
L 136.494612 270.696598 
L 136.887363 270.696598 
L 136.887363 269.183344 
L 137.647286 269.183344 
L 137.647286 268.678927 
L 138.375473 268.678927 
L 138.375473 268.174509 
L 139.074469 268.174509 
L 139.074469 266.661255 
L 140.073083 266.661255 
L 140.073083 266.156837 
L 140.393639 266.156837 
L 140.393639 265.652419 
L 140.708409 265.652419 
L 140.708409 265.148001 
L 141.321401 265.148001 
L 141.321401 264.139166 
L 142.20229 264.139166 
L 142.20229 262.625912 
L 142.765762 262.625912 
L 142.765762 262.121494 
L 143.578237 262.121494 
L 143.578237 261.617076 
L 144.605813 261.617076 
L 144.605813 261.112658 
L 144.853518 261.112658 
L 144.853518 260.60824 
L 147.995947 260.60824 
L 147.995947 259.599405 
L 154.5944 259.599405 
L 154.5944 259.094987 
L 155.399584 259.094987 
L 155.399584 258.590569 
L 155.760475 258.590569 
L 155.760475 257.581733 
L 156.163105 257.581733 
L 156.163105 257.077315 
L 157.046598 257.077315 
L 157.046598 256.572897 
L 157.369557 256.572897 
L 157.369557 255.564061 
L 158.546057 255.564061 
L 158.546057 255.059644 
L 158.721434 255.059644 
L 158.721434 254.555226 
L 159.139412 254.555226 
L 159.139412 254.050808 
L 159.268002 254.050808 
L 159.268002 253.54639 
L 159.492042 253.54639 
L 159.492042 252.537554 
L 160.494745 252.537554 
L 160.604262 250.015465 
L 160.722527 250.015465 
L 160.722527 249.511047 
L 160.952025 249.511047 
L 160.952025 249.006629 
L 161.461003 249.006629 
L 161.461003 248.502211 
L 162.277619 248.502211 
L 162.277619 247.997793 
L 162.699403 247.997793 
L 162.745644 246.484539 
L 162.9377 246.484539 
L 163.024679 243.96245 
L 163.360217 243.96245 
L 163.441086 242.953614 
L 163.545657 242.953614 
L 163.545657 242.449196 
L 163.89501 242.449196 
L 163.89501 241.440361 
L 164.01643 241.440361 
L 164.01643 240.935943 
L 164.348911 240.935943 
L 164.348911 239.927107 
L 164.490028 239.927107 
L 164.490028 238.918271 
L 164.667654 238.918271 
L 164.667654 237.909435 
L 164.884386 237.909435 
L 164.884386 236.396182 
L 165.328046 236.396182 
L 165.328046 235.387346 
L 165.918903 235.387346 
L 165.943384 233.369674 
L 166.065276 233.369674 
L 166.127634 232.360839 
L 166.46667 232.360839 
L 166.46667 231.856421 
L 166.892162 231.856421 
L 166.892162 231.352003 
L 167.477974 231.352003 
L 167.477974 230.343167 
L 168.088065 230.343167 
L 168.189752 228.829913 
L 168.257216 228.829913 
L 168.257216 227.821078 
L 168.406544 227.821078 
L 168.409578 226.812242 
L 168.870661 226.812242 
L 168.894283 225.298988 
L 169.28239 225.298988 
L 169.28239 224.79457 
L 169.740933 224.79457 
L 169.740933 223.785734 
L 169.903212 223.785734 
L 169.903212 222.776899 
L 170.464978 222.776899 
L 170.464978 222.272481 
L 170.780315 222.272481 
L 170.780315 221.263645 
L 171.577501 221.263645 
L 171.577501 219.750391 
L 171.783736 219.750391 
L 171.783736 218.237138 
L 172.874047 218.237138 
L 172.874047 217.73272 
L 173.928948 217.73272 
L 173.928948 216.723884 
L 174.569252 216.723884 
L 174.569252 216.219466 
L 175.539157 216.219466 
L 175.539157 215.715048 
L 175.833 215.715048 
L 175.833 214.706212 
L 176.151193 214.706212 
L 176.190077 213.697377 
L 176.275317 213.697377 
L 176.275317 212.688541 
L 176.579916 212.688541 
L 176.646257 211.175287 
L 176.847522 211.175287 
L 176.94078 210.166451 
L 177.040942 210.166451 
L 177.040942 209.662033 
L 177.182778 209.662033 
L 177.182778 209.157616 
L 177.343477 209.157616 
L 177.343477 208.653198 
L 177.973612 208.653198 
L 177.973612 207.644362 
L 178.146322 207.644362 
L 178.146322 206.635526 
L 178.503711 206.635526 
L 178.55805 203.609019 
L 178.77875 203.609019 
L 178.865588 201.591347 
L 179.405201 201.591347 
L 179.490589 199.069258 
L 179.551555 199.069258 
L 179.551555 198.56484 
L 179.853225 198.56484 
L 179.936452 197.556004 
L 180.174508 197.556004 
L 180.174508 196.547168 
L 180.603434 196.547168 
L 180.603434 195.538333 
L 180.752071 195.538333 
L 180.752071 195.033915 
L 181.002915 195.033915 
L 181.019118 193.016243 
L 181.971695 193.016243 
L 182.009293 190.998572 
L 182.382244 190.998572 
L 182.382244 189.989736 
L 182.991019 189.989736 
L 182.991019 189.485318 
L 183.947817 189.485318 
L 183.947817 188.476482 
L 185.682113 188.476482 
L 185.682113 187.467646 
L 209.044399 187.467646 
L 209.044399 186.458811 
L 230.789086 186.458811 
L 230.789086 185.954393 
L 231.348642 185.954393 
L 231.348642 185.449975 
L 231.533652 185.449975 
L 231.533652 184.441139 
L 231.738104 184.441139 
L 231.738104 183.936721 
L 232.07593 183.936721 
L 232.07593 183.432303 
L 232.788779 183.432303 
L 232.788779 182.927885 
L 233.368365 182.927885 
L 233.368365 181.91905 
L 233.616825 181.91905 
L 233.616825 181.414632 
L 233.908606 181.414632 
L 233.951328 180.405796 
L 234.309025 180.405796 
L 234.309025 179.901378 
L 234.597453 179.901378 
L 234.615787 178.388124 
L 234.985802 178.388124 
L 234.985802 177.883706 
L 235.449403 177.883706 
L 235.449403 177.379288 
L 236.022324 177.379288 
L 236.022324 176.874871 
L 236.576958 176.874871 
L 236.576958 176.370453 
L 236.844921 176.370453 
L 236.844921 175.361617 
L 237.376188 175.361617 
L 237.376188 174.352781 
L 237.522969 174.352781 
L 237.522969 173.848363 
L 237.943944 173.848363 
L 238.051675 172.839527 
L 238.127863 172.839527 
L 238.127863 172.33511 
L 238.572915 172.33511 
L 238.601177 171.326274 
L 238.713661 171.326274 
L 238.780688 169.81302 
L 238.851465 169.81302 
L 238.851465 169.308602 
L 239.00382 169.308602 
L 239.087409 167.795349 
L 239.318227 167.795349 
L 239.318227 167.290931 
L 239.442782 167.290931 
L 239.442782 166.282095 
L 239.56158 166.282095 
L 239.56158 165.273259 
L 239.793183 165.273259 
L 239.793183 164.768841 
L 240.050903 164.768841 
L 240.101854 163.255588 
L 240.327419 163.255588 
L 240.327419 162.75117 
L 240.753747 162.75117 
L 240.764715 161.742334 
L 241.009229 161.742334 
L 241.112081 160.22908 
L 241.252317 160.22908 
L 241.252317 159.724662 
L 241.612103 159.724662 
L 241.612103 159.220244 
L 241.934287 159.220244 
L 241.934287 158.211409 
L 242.046972 158.211409 
L 242.046972 157.706991 
L 242.202239 157.706991 
L 242.202239 156.698155 
L 242.716343 156.698155 
L 242.716343 156.193737 
L 242.968116 156.193737 
L 243.065483 154.680483 
L 243.190579 154.680483 
L 243.190579 153.671648 
L 243.56901 153.671648 
L 243.56901 153.16723 
L 243.845444 153.16723 
L 243.846687 151.653976 
L 244.070808 151.653976 
L 244.070808 151.149558 
L 244.424167 151.149558 
L 244.511824 148.627469 
L 244.556798 148.627469 
L 244.651418 146.105379 
L 244.725511 146.105379 
L 244.799784 145.096544 
L 244.97144 145.096544 
L 244.97144 144.592126 
L 245.152038 144.592126 
L 245.200665 142.574454 
L 245.334763 142.574454 
L 245.334763 142.070036 
L 245.596385 142.070036 
L 245.596385 141.565618 
L 245.888149 141.565618 
L 245.966597 139.043529 
L 246.190133 139.043529 
L 246.190133 138.539111 
L 246.323685 138.539111 
L 246.407652 136.521439 
L 246.457189 136.521439 
L 246.537561 135.512604 
L 246.657769 135.512604 
L 246.72015 133.99935 
L 246.900645 133.99935 
L 246.900645 133.494932 
L 247.115554 133.494932 
L 247.129254 131.981678 
L 247.39145 131.981678 
L 247.39145 130.972843 
L 247.65544 130.972843 
L 247.733472 129.459589 
L 247.923847 129.459589 
L 248.01646 126.433082 
L 248.101229 126.433082 
L 248.164835 124.41541 
L 248.231173 124.41541 
L 248.332289 122.902156 
L 248.503221 122.902156 
L 248.56143 121.388903 
L 248.720981 121.388903 
L 248.805241 118.866813 
L 249.203635 118.866813 
L 249.232384 117.857977 
L 249.491629 117.857977 
L 249.595642 113.318216 
L 249.631817 113.318216 
L 249.733655 111.300545 
L 249.804506 111.300545 
L 249.872316 109.787291 
L 249.993308 109.787291 
L 249.993308 109.282873 
L 250.180952 109.282873 
L 250.273731 108.274038 
L 250.453647 108.274038 
L 250.453647 107.265202 
L 250.71132 107.265202 
L 250.75711 105.24753 
L 251.369973 105.24753 
L 251.369973 104.238694 
L 251.525062 104.238694 
L 251.525062 103.734277 
L 251.717125 103.734277 
L 251.77113 102.221023 
L 251.98129 102.221023 
L 251.98129 101.212187 
L 252.150709 101.212187 
L 252.168943 99.698933 
L 252.480972 99.698933 
L 252.480972 99.194516 
L 252.724784 99.194516 
L 252.732259 97.681262 
L 252.909036 97.681262 
L 252.909036 97.176844 
L 253.204997 97.176844 
L 253.204997 96.672426 
L 253.49828 96.672426 
L 253.49828 96.168008 
L 254.101766 96.168008 
L 254.101766 95.159172 
L 254.424229 95.159172 
L 254.498841 94.150337 
L 255.023076 94.150337 
L 255.127395 92.132665 
L 256.30089 92.132665 
L 256.30089 91.123829 
L 256.501089 91.123829 
L 256.501089 90.114994 
L 257.186782 90.114994 
L 257.186782 89.610576 
L 257.468282 89.610576 
L 257.468282 88.60174 
L 257.664455 88.60174 
L 257.664455 88.097322 
L 257.883832 88.097322 
L 257.883832 87.592904 
L 258.033664 87.592904 
L 258.033664 86.584068 
L 258.198613 86.584068 
L 258.198613 86.07965 
L 258.321947 86.07965 
L 258.340936 85.070815 
L 338.688 85.070815 
L 338.688 85.070815 
" style="fill:none;stroke:#000080;stroke-linecap:square;stroke-width:1.5;"/>
   </g>
   <g id="line2d_31">
    <defs>
     <path d="M 0 6 
C 1.591219 6 3.117479 5.367802 4.242641 4.242641 
C 5.367802 3.117479 6 1.591219 6 0 
C 6 -1.591219 5.367802 -3.117479 4.242641 -4.242641 
C 3.117479 -5.367802 1.591219 -6 0 -6 
C -1.591219 -6 -3.117479 -5.367802 -4.242641 -4.242641 
C -5.367802 -3.117479 -6 -1.591219 -6 0 
C -6 1.591219 -5.367802 3.117479 -4.242641 4.242641 
C -3.117479 5.367802 -1.591219 6 0 6 
z
" id="m2e58e8f861" style="stroke:#000080;stroke-width:1.5;"/>
    </defs>
    <g>
     <use style="fill-opacity:0;stroke:#000080;stroke-width:1.5;" x="116.443076" xlink:href="#m2e58e8f861" y="292.890985"/>
     <use style="fill-opacity:0;stroke:#000080;stroke-width:1.5;" x="162.745644" xlink:href="#m2e58e8f861" y="246.988957"/>
     <use style="fill-opacity:0;stroke:#000080;stroke-width:1.5;" x="233.368365" xlink:href="#m2e58e8f861" y="182.927885"/>
     <use style="fill-opacity:0;stroke:#000080;stroke-width:1.5;" x="258.340936" xlink:href="#m2e58e8f861" y="85.575233"/>
     <use style="fill-opacity:0;stroke:#000080;stroke-width:1.5;" x="258.340936" xlink:href="#m2e58e8f861" y="85.070815"/>
     <use style="fill-opacity:0;stroke:#000080;stroke-width:1.5;" x="338.688" xlink:href="#m2e58e8f861" y="85.070815"/>
    </g>
   </g>
   <g id="line2d_32">
    <path style="fill:none;stroke:#000080;stroke-linecap:square;stroke-width:1.5;"/>
    <g/>
   </g>
   <g id="line2d_33">
    <path clip-path="url(#pa0481560de)" d="M 258.377143 85.070815 
" style="fill:none;stroke:#000080;stroke-linecap:square;stroke-width:1.5;"/>
    <defs>
     <path d="M -12 12 
L 12 -12 
M -12 -12 
L 12 12 
" id="md570acee01" style="stroke:#000080;"/>
    </defs>
    <g clip-path="url(#pa0481560de)">
     <use style="fill:#000080;stroke:#000080;" x="258.377143" xlink:href="#md570acee01" y="85.070815"/>
    </g>
   </g>
   <g id="line2d_34">
    <defs>
     <path d="M 0 1.5 
C 0.397805 1.5 0.77937 1.341951 1.06066 1.06066 
C 1.341951 0.77937 1.5 0.397805 1.5 0 
C 1.5 -0.397805 1.341951 -0.77937 1.06066 -1.06066 
C 0.77937 -1.341951 0.397805 -1.5 0 -1.5 
C -0.397805 -1.5 -0.77937 -1.341951 -1.06066 -1.06066 
C -1.341951 -0.77937 -1.5 -0.397805 -1.5 0 
C -1.5 0.397805 -1.341951 0.77937 -1.06066 1.06066 
C -0.77937 1.341951 -0.397805 1.5 0 1.5 
z
" id="mff62a06d37" style="stroke:#ff00ff;"/>
    </defs>
    <g>
     <use style="fill:#ff00ff;stroke:#ff00ff;" x="258.017987" xlink:href="#mff62a06d37" y="91.123829"/>
     <use style="fill:#ff00ff;stroke:#ff00ff;" x="258.017987" xlink:href="#mff62a06d37" y="91.123829"/>
    </g>
   </g>
   <g id="line2d_35">
    <path d="M 94.294587 298.944 
L 94.294587 298.439582 
L 101.506816 298.439582 
L 101.506816 297.935164 
L 106.593963 297.935164 
L 106.593963 297.430746 
L 110.527398 297.430746 
L 110.527398 296.926328 
L 112.204777 296.926328 
L 112.204777 295.917493 
L 115.141496 295.917493 
L 115.141496 294.908657 
L 116.443076 294.908657 
L 116.443076 294.404239 
L 117.654224 294.404239 
L 117.654224 293.899821 
L 118.786692 293.899821 
L 118.786692 293.395403 
L 119.850084 293.395403 
L 119.850084 292.386567 
L 120.852343 292.386567 
L 120.852343 291.88215 
L 121.800118 291.88215 
L 121.800118 291.377732 
L 122.699028 291.377732 
L 122.699028 289.36006 
L 123.553867 289.36006 
L 123.553867 288.855642 
L 124.368753 288.855642 
L 124.368753 286.837971 
L 125.147256 286.837971 
L 125.147256 286.333553 
L 125.892487 286.333553 
L 125.892487 285.324717 
L 126.607172 285.324717 
L 126.607172 283.811463 
L 127.293718 283.811463 
L 127.293718 281.793792 
L 127.954256 281.793792 
L 127.954256 280.280538 
L 128.590686 280.280538 
L 128.590686 279.271702 
L 129.204706 279.271702 
L 129.204706 278.262867 
L 129.79784 278.262867 
L 129.79784 276.749613 
L 130.926816 276.749613 
L 130.926816 276.245195 
L 131.465029 276.245195 
L 131.465029 274.731941 
L 131.987128 274.731941 
L 131.987128 274.227523 
L 132.494049 274.227523 
L 132.494049 273.218688 
L 132.986651 273.218688 
L 132.986651 272.71427 
L 133.931979 272.71427 
L 133.931979 272.209852 
L 135.681535 272.209852 
L 135.681535 271.705434 
L 136.092812 271.705434 
L 136.092812 271.201016 
L 145.843812 271.201016 
L 145.843812 270.696598 
L 150.327083 270.696598 
L 150.327083 270.19218 
L 152.751777 270.19218 
L 152.751777 269.687762 
L 153.466662 269.687762 
L 153.466662 268.678927 
L 155.154773 268.678927 
L 155.154773 268.174509 
L 156.260804 268.174509 
L 156.351903 267.165673 
L 156.918066 267.165673 
L 156.918066 266.661255 
L 157.959442 266.661255 
L 157.959442 266.156837 
L 159.216679 266.156837 
L 159.216679 265.652419 
L 159.486982 265.652419 
L 159.522371 264.139166 
L 159.976013 264.139166 
L 159.976013 263.634748 
L 160.675317 263.634748 
L 160.675317 263.13033 
L 161.026314 263.13033 
L 161.026314 262.625912 
L 161.178543 262.625912 
L 161.178543 261.617076 
L 161.492608 261.617076 
L 161.492608 261.112658 
L 161.672119 261.112658 
L 161.672119 260.60824 
L 161.801118 260.60824 
L 161.801118 259.599405 
L 162.457805 259.599405 
L 162.457805 259.094987 
L 162.657259 259.094987 
L 162.657259 258.590569 
L 162.791763 258.590569 
L 162.791763 258.086151 
L 163.649606 258.086151 
L 163.689421 256.572897 
L 163.760861 256.572897 
L 163.760861 255.564061 
L 164.798763 255.564061 
L 164.865808 254.555226 
L 165.08745 254.555226 
L 165.08745 254.050808 
L 165.288176 254.050808 
L 165.288176 253.041972 
L 165.693467 253.041972 
L 165.693467 252.537554 
L 165.943384 252.537554 
L 165.978297 250.519883 
L 166.200103 250.519883 
L 166.268843 249.511047 
L 166.862349 249.511047 
L 166.862349 249.006629 
L 167.047033 249.006629 
L 167.083081 247.493375 
L 167.506754 247.493375 
L 167.548242 245.980122 
L 168.112771 245.980122 
L 168.112771 244.971286 
L 168.60568 244.971286 
L 168.60568 244.466868 
L 168.802567 244.466868 
L 168.861794 241.440361 
L 169.253507 241.440361 
L 169.340012 239.927107 
L 169.633787 239.927107 
L 169.633787 239.422689 
L 169.858596 239.422689 
L 169.967148 237.909435 
L 170.236975 237.909435 
L 170.236975 237.405017 
L 170.37305 237.405017 
L 170.464978 236.396182 
L 170.647393 236.396182 
L 170.647393 235.891764 
L 171.006598 235.891764 
L 171.027499 232.865256 
L 171.276376 232.865256 
L 171.276376 231.856421 
L 171.61541 231.856421 
L 171.61541 231.352003 
L 172.25973 231.352003 
L 172.318023 229.334331 
L 172.503742 229.334331 
L 172.503742 228.829913 
L 172.768032 228.829913 
L 172.855247 226.812242 
L 173.014404 226.812242 
L 173.014404 225.803406 
L 173.183662 225.803406 
L 173.280304 224.79457 
L 173.367284 224.79457 
L 173.367284 224.290152 
L 173.478804 224.290152 
L 173.478804 223.785734 
L 173.625648 223.785734 
L 173.695248 221.768063 
L 173.882457 221.768063 
L 173.882457 221.263645 
L 174.216192 221.263645 
L 174.216192 220.759227 
L 174.406527 220.759227 
L 174.406527 219.750391 
L 174.573514 219.750391 
L 174.573514 218.741555 
L 174.940359 218.741555 
L 174.96746 216.723884 
L 175.170413 216.723884 
L 175.211544 214.706212 
L 175.431987 214.706212 
L 175.466434 213.192959 
L 175.771443 213.192959 
L 175.771443 212.184123 
L 176.02618 212.184123 
L 176.090752 210.670869 
L 176.604586 210.670869 
L 176.604586 209.662033 
L 177.24687 209.662033 
L 177.24687 208.653198 
L 177.509911 208.653198 
L 177.536897 207.139944 
L 177.630126 207.139944 
L 177.65157 205.62669 
L 178.496907 205.62669 
L 178.585156 204.113437 
L 178.69316 204.113437 
L 178.69316 203.104601 
L 178.845586 203.104601 
L 178.845586 202.600183 
L 179.135021 202.600183 
L 179.135021 202.095765 
L 179.350203 202.095765 
L 179.350203 201.591347 
L 180.087753 201.591347 
L 180.087753 201.086929 
L 180.391053 201.086929 
L 180.497567 199.573676 
L 180.85195 199.573676 
L 180.85195 198.56484 
L 181.116019 198.56484 
L 181.116019 198.060422 
L 181.578358 198.060422 
L 181.582635 196.04275 
L 182.010684 196.04275 
L 182.010684 195.538333 
L 182.270235 195.538333 
L 182.359082 193.016243 
L 182.547572 193.016243 
L 182.547572 192.511825 
L 182.847104 192.511825 
L 182.9423 190.494154 
L 183.350202 190.494154 
L 183.350202 188.9809 
L 183.525781 188.9809 
L 183.556359 187.972064 
L 183.666754 187.972064 
L 183.666754 187.467646 
L 185.04054 187.467646 
L 185.04054 186.963228 
L 185.438139 186.963228 
L 185.438139 186.458811 
L 186.037927 186.458811 
L 186.037927 185.449975 
L 186.956222 185.449975 
L 186.956222 184.945557 
L 224.500349 184.945557 
L 224.571864 183.936721 
L 224.701034 183.936721 
L 224.749678 182.423467 
L 224.944565 182.423467 
L 224.995019 180.910214 
L 225.20006 180.910214 
L 225.222604 179.901378 
L 225.562458 179.901378 
L 225.562458 179.39696 
L 226.159426 179.39696 
L 226.159426 178.892542 
L 226.426412 178.892542 
L 226.426412 178.388124 
L 226.740701 178.388124 
L 226.740701 177.379288 
L 227.164259 177.379288 
L 227.164259 176.370453 
L 227.551339 176.370453 
L 227.551339 175.866035 
L 227.784287 175.866035 
L 227.784287 175.361617 
L 228.289679 175.361617 
L 228.289679 174.857199 
L 228.445724 174.857199 
L 228.445724 174.352781 
L 230.30979 174.352781 
L 230.389913 173.343945 
L 231.163557 173.343945 
L 231.163557 172.33511 
L 231.446785 172.33511 
L 231.446785 171.326274 
L 232.608427 171.326274 
L 232.694122 170.317438 
L 233.55287 170.317438 
L 233.55287 169.81302 
L 234.235313 169.81302 
L 234.235313 169.308602 
L 236.161149 169.308602 
L 236.161149 168.804184 
L 236.293928 168.804184 
L 236.293928 168.299766 
L 236.519888 168.299766 
L 236.519888 167.290931 
L 237.949459 167.290931 
L 237.949459 166.282095 
L 238.337012 166.282095 
L 238.337012 165.273259 
L 238.672415 165.273259 
L 238.672415 164.768841 
L 238.982939 164.768841 
L 238.982939 164.264423 
L 239.712815 164.264423 
L 239.712815 163.760005 
L 239.973771 163.760005 
L 239.973771 162.75117 
L 240.40418 162.75117 
L 240.40418 161.742334 
L 241.198787 161.742334 
L 241.198787 160.733498 
L 241.52615 160.733498 
L 241.617393 159.724662 
L 242.169185 159.724662 
L 242.169185 159.220244 
L 242.530291 159.220244 
L 242.584077 157.706991 
L 242.671378 157.706991 
L 242.751795 156.698155 
L 243.07467 156.698155 
L 243.07467 156.193737 
L 243.258851 156.193737 
L 243.270093 154.680483 
L 243.592842 154.680483 
L 243.592842 154.176066 
L 243.814158 154.176066 
L 243.814158 153.671648 
L 244.606688 153.671648 
L 244.606688 153.16723 
L 244.914132 153.16723 
L 244.914132 152.158394 
L 245.257595 152.158394 
L 245.343565 150.64514 
L 246.113461 150.64514 
L 246.113461 150.140722 
L 246.939633 150.140722 
L 247.044824 147.618633 
L 247.078392 147.618633 
L 247.113958 146.609797 
L 247.237374 146.609797 
L 247.339706 144.592126 
L 247.362712 144.592126 
L 247.420697 143.078872 
L 247.48761 143.078872 
L 247.490052 141.565618 
L 247.662114 141.565618 
L 247.720785 140.052365 
L 247.859833 140.052365 
L 247.96635 137.530275 
L 248.124853 137.530275 
L 248.124853 137.025857 
L 248.347174 137.025857 
L 248.347174 136.521439 
L 248.483857 136.521439 
L 248.536122 135.008186 
L 248.987284 135.008186 
L 248.991556 133.494932 
L 249.166176 133.494932 
L 249.26835 131.981678 
L 249.337365 131.981678 
L 249.337365 131.47726 
L 249.467113 131.47726 
L 249.467113 130.972843 
L 249.604123 130.972843 
L 249.604123 130.468425 
L 249.848984 130.468425 
L 249.942721 129.459589 
L 250.295782 129.459589 
L 250.295782 128.955171 
L 250.810883 128.955171 
L 250.810883 128.450753 
L 250.965588 128.450753 
L 250.965588 127.441917 
L 251.098401 127.441917 
L 251.098401 126.937499 
L 251.467101 126.937499 
L 251.467101 125.928664 
L 251.604265 125.928664 
L 251.604265 125.424246 
L 251.940474 125.424246 
L 252.018545 122.902156 
L 252.055797 122.902156 
L 252.165233 117.857977 
L 252.269259 117.857977 
L 252.337322 116.849142 
L 252.424905 116.849142 
L 252.5323 113.822634 
L 252.564699 113.822634 
L 252.617917 112.309381 
L 252.74975 112.309381 
L 252.817789 110.291709 
L 253.192911 110.291709 
L 253.248251 108.778455 
L 253.456452 108.778455 
L 253.456452 107.76962 
L 253.76412 107.76962 
L 253.85282 106.256366 
L 253.879248 106.256366 
L 253.972395 104.238694 
L 254.227065 104.238694 
L 254.325794 102.725441 
L 254.568429 102.725441 
L 254.568429 102.221023 
L 254.858912 102.221023 
L 254.858912 101.212187 
L 255.136154 101.212187 
L 255.136154 100.707769 
L 255.401799 100.707769 
L 255.402896 98.690098 
L 255.813387 98.690098 
L 255.862266 96.672426 
L 256.636618 96.672426 
L 256.689702 94.654755 
L 256.783697 94.654755 
L 256.783697 93.645919 
L 257.339348 93.645919 
L 257.339348 93.141501 
L 257.476731 93.141501 
L 257.476731 92.637083 
L 257.971319 92.637083 
L 258.017987 91.123829 
L 338.688 91.123829 
L 338.688 91.123829 
" style="fill:none;stroke:#ff00ff;stroke-linecap:square;stroke-width:1.5;"/>
   </g>
   <g id="line2d_36">
    <defs>
     <path d="M -0 8.485281 
L 5.091169 0 
L 0 -8.485281 
L -5.091169 -0 
z
" id="m00c61421ea" style="stroke:#ff00ff;stroke-linejoin:miter;stroke-width:1.5;"/>
    </defs>
    <g>
     <use style="fill-opacity:0;stroke:#ff00ff;stroke-linejoin:miter;stroke-width:1.5;" x="157.959442" xlink:href="#m00c61421ea" y="266.156837"/>
     <use style="fill-opacity:0;stroke:#ff00ff;stroke-linejoin:miter;stroke-width:1.5;" x="186.956222" xlink:href="#m00c61421ea" y="184.945557"/>
     <use style="fill-opacity:0;stroke:#ff00ff;stroke-linejoin:miter;stroke-width:1.5;" x="252.056373" xlink:href="#m00c61421ea" y="122.397738"/>
     <use style="fill-opacity:0;stroke:#ff00ff;stroke-linejoin:miter;stroke-width:1.5;" x="258.017987" xlink:href="#m00c61421ea" y="91.123829"/>
     <use style="fill-opacity:0;stroke:#ff00ff;stroke-linejoin:miter;stroke-width:1.5;" x="338.688" xlink:href="#m00c61421ea" y="91.123829"/>
    </g>
   </g>
   <g id="line2d_37">
    <path style="fill:none;stroke:#ff00ff;stroke-linecap:square;stroke-width:1.5;"/>
    <g/>
   </g>
   <g id="line2d_38">
    <path clip-path="url(#pa0481560de)" d="M 258.377143 91.123829 
" style="fill:none;stroke:#ff00ff;stroke-linecap:square;stroke-width:1.5;"/>
    <defs>
     <path d="M -12 12 
L 12 -12 
M -12 -12 
L 12 12 
" id="me920ec65ab" style="stroke:#ff00ff;"/>
    </defs>
    <g clip-path="url(#pa0481560de)">
     <use style="fill:#ff00ff;stroke:#ff00ff;" x="258.377143" xlink:href="#me920ec65ab" y="91.123829"/>
    </g>
   </g>
   <g id="line2d_39">
    <defs>
     <path d="M 0 1.5 
C 0.397805 1.5 0.77937 1.341951 1.06066 1.06066 
C 1.341951 0.77937 1.5 0.397805 1.5 0 
C 1.5 -0.397805 1.341951 -0.77937 1.06066 -1.06066 
C 0.77937 -1.341951 0.397805 -1.5 0 -1.5 
C -0.397805 -1.5 -0.77937 -1.341951 -1.06066 -1.06066 
C -1.341951 -0.77937 -1.5 -0.397805 -1.5 0 
C -1.5 0.397805 -1.341951 0.77937 -1.06066 1.06066 
C -0.77937 1.341951 -0.397805 1.5 0 1.5 
z
" id="m3f0c177c8c" style="stroke:#ff7500;"/>
    </defs>
    <g>
     <use style="fill:#ff7500;stroke:#ff7500;" x="250.17886" xlink:href="#m3f0c177c8c" y="169.308602"/>
     <use style="fill:#ff7500;stroke:#ff7500;" x="250.17886" xlink:href="#m3f0c177c8c" y="169.308602"/>
    </g>
   </g>
   <g id="line2d_40">
    <path d="M 17.444571 298.944 
L 17.444571 295.917493 
L 89.135256 295.917493 
L 89.135256 294.908657 
L 94.294587 294.908657 
L 94.294587 294.404239 
L 101.506816 294.404239 
L 101.506816 292.386567 
L 104.23523 292.386567 
L 104.23523 291.377732 
L 106.593963 291.377732 
L 106.593963 290.873314 
L 108.671345 290.873314 
L 108.671345 289.864478 
L 112.204777 289.864478 
L 112.204777 287.846806 
L 113.73488 287.846806 
L 113.73488 287.342389 
L 115.141496 287.342389 
L 115.141496 286.333553 
L 116.443076 286.333553 
L 116.443076 284.315881 
L 117.654224 284.315881 
L 117.654224 282.802628 
L 118.786692 282.802628 
L 118.786692 281.793792 
L 119.850084 281.793792 
L 119.850084 281.289374 
L 120.852343 281.289374 
L 120.852343 278.767284 
L 121.800118 278.767284 
L 121.800118 276.245195 
L 122.699028 276.245195 
L 122.699028 275.236359 
L 123.553867 275.236359 
L 123.553867 272.209852 
L 125.147256 272.209852 
L 125.147256 271.705434 
L 125.892487 271.705434 
L 125.892487 270.19218 
L 126.607172 270.19218 
L 126.607172 269.183344 
L 127.293718 269.183344 
L 127.293718 267.165673 
L 127.954256 267.165673 
L 127.954256 264.643583 
L 128.590686 264.643583 
L 128.590686 263.634748 
L 129.204706 263.634748 
L 129.204706 262.625912 
L 129.79784 262.625912 
L 129.79784 261.112658 
L 130.371462 261.112658 
L 130.371462 260.60824 
L 130.926816 260.60824 
L 130.926816 259.094987 
L 131.465029 259.094987 
L 131.465029 256.068479 
L 131.987128 256.068479 
L 131.987128 254.050808 
L 132.494049 254.050808 
L 132.494049 253.041972 
L 132.986651 253.041972 
L 132.986651 252.033136 
L 133.46572 252.033136 
L 133.46572 251.528718 
L 133.931979 251.528718 
L 133.931979 247.493375 
L 134.386096 247.493375 
L 134.386096 245.980122 
L 134.828688 245.980122 
L 134.828688 245.475704 
L 135.260324 245.475704 
L 135.260324 244.466868 
L 135.681535 244.466868 
L 135.681535 241.440361 
L 136.092812 241.440361 
L 136.092812 238.413853 
L 136.494612 238.413853 
L 136.494612 236.396182 
L 136.887363 236.396182 
L 136.887363 234.882928 
L 137.647286 234.882928 
L 137.647286 234.37851 
L 138.01518 234.37851 
L 138.01518 232.865256 
L 138.375473 232.865256 
L 138.375473 231.856421 
L 138.728473 231.856421 
L 138.728473 229.838749 
L 139.074469 229.838749 
L 139.074469 228.829913 
L 139.746525 228.829913 
L 139.746525 226.307824 
L 140.073083 226.307824 
L 140.073083 224.290152 
L 140.708409 224.290152 
L 140.708409 223.785734 
L 141.017599 223.785734 
L 141.017599 221.768063 
L 141.913576 221.768063 
L 141.913576 219.750391 
L 142.20229 219.750391 
L 142.20229 218.741555 
L 143.040814 218.741555 
L 143.040814 217.73272 
L 143.578237 217.73272 
L 143.578237 216.219466 
L 143.840863 216.219466 
L 143.840863 215.715048 
L 144.099593 215.715048 
L 144.099593 214.201794 
L 144.35454 214.201794 
L 144.35454 213.697377 
L 144.605813 213.697377 
L 144.605813 213.192959 
L 145.576196 213.192959 
L 145.576196 212.184123 
L 146.495417 212.184123 
L 146.495417 211.175287 
L 146.937474 211.175287 
L 146.937474 210.670869 
L 147.368603 210.670869 
L 147.368603 209.157616 
L 148.40198 209.157616 
L 148.40198 208.14878 
L 148.993835 208.14878 
L 148.993835 207.139944 
L 149.18674 207.139944 
L 149.18674 206.131108 
L 150.120495 206.131108 
L 150.120495 205.122272 
L 150.301393 205.122272 
L 150.301393 204.113437 
L 150.657656 204.113437 
L 150.657656 203.609019 
L 151.006785 203.609019 
L 151.006785 203.104601 
L 151.517715 203.104601 
L 151.517715 202.095765 
L 152.176471 202.095765 
L 152.176471 201.591347 
L 152.337344 201.591347 
L 152.337344 200.078094 
L 153.120174 200.078094 
L 153.120174 198.56484 
L 153.722083 198.56484 
L 153.722083 198.060422 
L 155.141793 198.060422 
L 155.141793 197.556004 
L 156.327657 197.556004 
L 156.327657 196.547168 
L 157.9318 196.547168 
L 158.025604 195.538333 
L 159.252621 195.538333 
L 159.252621 195.033915 
L 159.572803 195.033915 
L 159.572803 194.025079 
L 159.783038 194.025079 
L 159.783038 193.016243 
L 161.955547 193.016243 
L 162.034438 192.007407 
L 163.697374 192.007407 
L 163.697374 191.502989 
L 164.028135 191.502989 
L 164.028135 190.998572 
L 164.6902 190.998572 
L 164.6902 190.494154 
L 165.219096 190.494154 
L 165.219096 189.485318 
L 166.470061 189.485318 
L 166.470061 188.476482 
L 166.987883 188.476482 
L 166.987883 187.467646 
L 167.90477 187.467646 
L 167.90477 186.963228 
L 169.488944 186.963228 
L 169.488944 185.954393 
L 171.074434 185.954393 
L 171.074434 185.449975 
L 172.145006 185.449975 
L 172.145006 184.945557 
L 173.378696 184.945557 
L 173.378696 183.936721 
L 174.177002 183.936721 
L 174.177002 183.432303 
L 174.380694 183.432303 
L 174.380694 182.927885 
L 175.969237 182.927885 
L 175.969237 181.91905 
L 183.157214 181.91905 
L 183.239074 180.405796 
L 183.81287 180.405796 
L 183.81287 179.901378 
L 195.604841 179.901378 
L 195.604841 179.39696 
L 201.846289 179.39696 
L 201.846289 178.892542 
L 202.576062 178.892542 
L 202.576062 178.388124 
L 209.004802 178.388124 
L 209.004802 177.883706 
L 227.355464 177.883706 
L 227.355464 177.379288 
L 233.795235 177.379288 
L 233.795235 176.370453 
L 239.207127 176.370453 
L 239.207127 175.361617 
L 240.228165 175.361617 
L 240.228165 174.352781 
L 241.064896 174.352781 
L 241.064896 173.848363 
L 241.299045 173.848363 
L 241.299045 173.343945 
L 242.448844 173.343945 
L 242.448844 172.839527 
L 242.724988 172.839527 
L 242.754486 171.830692 
L 242.910297 171.830692 
L 242.910297 171.326274 
L 244.55414 171.326274 
L 244.55414 170.317438 
L 249.541282 170.317438 
L 249.541282 169.81302 
L 250.17886 169.81302 
L 250.17886 169.308602 
L 338.688 169.308602 
L 338.688 169.308602 
" style="fill:none;stroke:#ff7500;stroke-linecap:square;stroke-width:1.5;"/>
   </g>
   <g id="line2d_41">
    <defs>
     <path d="M 0 -6 
L -1.347084 -1.854102 
L -5.706339 -1.854102 
L -2.179628 0.708204 
L -3.526712 4.854102 
L -0 2.291796 
L 3.526712 4.854102 
L 2.179628 0.708204 
L 5.706339 -1.854102 
L 1.347084 -1.854102 
z
" id="mc2a5324bd3" style="stroke:#ff7500;stroke-linejoin:bevel;stroke-width:1.5;"/>
    </defs>
    <g>
     <use style="fill-opacity:0;stroke:#ff7500;stroke-linejoin:bevel;stroke-width:1.5;" x="116.443076" xlink:href="#mc2a5324bd3" y="284.315881"/>
     <use style="fill-opacity:0;stroke:#ff7500;stroke-linejoin:bevel;stroke-width:1.5;" x="155.141793" xlink:href="#mc2a5324bd3" y="197.556004"/>
     <use style="fill-opacity:0;stroke:#ff7500;stroke-linejoin:bevel;stroke-width:1.5;" x="241.064896" xlink:href="#mc2a5324bd3" y="174.352781"/>
     <use style="fill-opacity:0;stroke:#ff7500;stroke-linejoin:bevel;stroke-width:1.5;" x="250.17886" xlink:href="#mc2a5324bd3" y="169.308602"/>
     <use style="fill-opacity:0;stroke:#ff7500;stroke-linejoin:bevel;stroke-width:1.5;" x="250.17886" xlink:href="#mc2a5324bd3" y="169.308602"/>
     <use style="fill-opacity:0;stroke:#ff7500;stroke-linejoin:bevel;stroke-width:1.5;" x="338.688" xlink:href="#mc2a5324bd3" y="169.308602"/>
    </g>
   </g>
   <g id="line2d_42">
    <path style="fill:none;stroke:#ff7500;stroke-linecap:square;stroke-width:1.5;"/>
    <g/>
   </g>
   <g id="line2d_43">
    <path clip-path="url(#pa0481560de)" d="M 258.377143 169.308602 
" style="fill:none;stroke:#ff7500;stroke-linecap:square;stroke-width:1.5;"/>
    <defs>
     <path d="M -12 12 
L 12 -12 
M -12 -12 
L 12 12 
" id="maa420b3dc1" style="stroke:#ff7500;"/>
    </defs>
    <g clip-path="url(#pa0481560de)">
     <use style="fill:#ff7500;stroke:#ff7500;" x="258.377143" xlink:href="#maa420b3dc1" y="169.308602"/>
    </g>
   </g>
   <g id="line2d_44">
    <defs>
     <path d="M 0 1.5 
C 0.397805 1.5 0.77937 1.341951 1.06066 1.06066 
C 1.341951 0.77937 1.5 0.397805 1.5 0 
C 1.5 -0.397805 1.341951 -0.77937 1.06066 -1.06066 
C 0.77937 -1.341951 0.397805 -1.5 0 -1.5 
C -0.397805 -1.5 -0.77937 -1.341951 -1.06066 -1.06066 
C -1.341951 -0.77937 -1.5 -0.397805 -1.5 0 
C -1.5 0.397805 -1.341951 0.77937 -1.06066 1.06066 
C -0.77937 1.341951 -0.397805 1.5 0 1.5 
z
" id="meefa6dba4d" style="stroke:#6495ed;"/>
    </defs>
    <g>
     <use style="fill:#6495ed;stroke:#6495ed;" x="258.260714" xlink:href="#meefa6dba4d" y="157.202573"/>
     <use style="fill:#6495ed;stroke:#6495ed;" x="258.260714" xlink:href="#meefa6dba4d" y="157.202573"/>
    </g>
   </g>
   <g id="line2d_45">
    <path d="M 80.416384 298.944 
L 80.416384 298.439582 
L 81.334453 298.439582 
L 81.334453 297.935164 
L 101.506816 297.935164 
L 101.506816 296.926328 
L 106.593963 296.926328 
L 106.593963 296.421911 
L 108.671345 296.421911 
L 108.671345 295.413075 
L 112.204777 295.413075 
L 112.204777 293.899821 
L 113.73488 293.899821 
L 113.73488 293.395403 
L 115.141496 293.395403 
L 115.141496 292.386567 
L 116.443076 292.386567 
L 116.443076 291.377732 
L 117.654224 291.377732 
L 117.654224 290.873314 
L 118.786692 290.873314 
L 118.786692 289.36006 
L 120.852343 289.36006 
L 120.852343 287.342389 
L 121.800118 287.342389 
L 121.800118 286.837971 
L 122.699028 286.837971 
L 122.699028 285.324717 
L 123.553867 285.324717 
L 123.553867 284.315881 
L 124.368753 284.315881 
L 124.368753 282.802628 
L 125.147256 282.802628 
L 125.147256 281.289374 
L 125.892487 281.289374 
L 125.892487 280.784956 
L 126.607172 280.784956 
L 126.607172 277.758449 
L 127.293718 277.758449 
L 127.293718 275.740777 
L 127.954256 275.740777 
L 127.954256 273.218688 
L 128.590686 273.218688 
L 128.590686 271.705434 
L 129.204706 271.705434 
L 129.204706 268.174509 
L 129.79784 268.174509 
L 129.79784 265.652419 
L 130.371462 265.652419 
L 130.371462 263.634748 
L 130.926816 263.634748 
L 130.926816 261.617076 
L 131.465029 261.617076 
L 131.465029 258.590569 
L 131.987128 258.590569 
L 131.987128 257.077315 
L 132.494049 257.077315 
L 132.494049 255.564061 
L 132.986651 255.564061 
L 132.986651 255.059644 
L 133.46572 255.059644 
L 133.46572 252.537554 
L 133.931979 252.537554 
L 133.931979 250.015465 
L 134.386096 250.015465 
L 134.386096 248.502211 
L 135.260324 248.502211 
L 135.260324 245.475704 
L 135.681535 245.475704 
L 135.681535 243.96245 
L 136.092812 243.96245 
L 136.092812 241.440361 
L 136.494612 241.440361 
L 136.494612 240.935943 
L 136.887363 240.935943 
L 136.887363 239.422689 
L 137.271464 239.422689 
L 137.271464 238.918271 
L 138.01518 238.918271 
L 138.01518 237.909435 
L 138.375473 237.909435 
L 138.375473 234.882928 
L 138.728473 234.882928 
L 138.728473 233.874092 
L 139.413734 233.874092 
L 139.413734 232.865256 
L 139.746525 232.865256 
L 139.746525 231.856421 
L 140.073083 231.856421 
L 140.073083 231.352003 
L 141.017599 231.352003 
L 141.017599 229.334331 
L 142.20229 229.334331 
L 142.20229 228.325495 
L 142.486301 228.325495 
L 142.486301 226.307824 
L 143.578237 226.307824 
L 143.578237 225.803406 
L 144.35454 225.803406 
L 144.35454 224.79457 
L 144.853518 224.79457 
L 144.853518 223.785734 
L 145.097753 223.785734 
L 145.097753 223.281316 
L 145.576196 223.281316 
L 145.576196 222.272481 
L 146.717846 222.272481 
L 146.717846 221.768063 
L 149.566262 221.768063 
L 149.566262 220.759227 
L 150.480434 220.759227 
L 150.480434 220.254809 
L 150.833094 220.254809 
L 150.833094 219.750391 
L 154.866947 219.750391 
L 154.866947 218.741555 
L 168.391365 218.741555 
L 168.391365 218.237138 
L 169.605481 218.237138 
L 169.605481 217.73272 
L 170.798844 217.73272 
L 170.896454 216.219466 
L 187.601928 216.219466 
L 187.601928 215.715048 
L 191.549625 215.715048 
L 191.549625 215.21063 
L 198.384012 215.21063 
L 198.384012 214.201794 
L 201.364258 214.201794 
L 201.364258 213.192959 
L 203.673797 213.192959 
L 203.673797 212.688541 
L 209.722056 212.688541 
L 209.722056 212.184123 
L 212.04734 212.184123 
L 212.04734 211.175287 
L 213.052712 211.175287 
L 213.052712 210.670869 
L 217.50145 210.670869 
L 217.50145 210.166451 
L 218.480846 210.166451 
L 218.480846 209.157616 
L 219.14137 209.157616 
L 219.14137 208.653198 
L 225.913551 208.653198 
L 225.913551 207.644362 
L 226.746264 207.644362 
L 226.746264 205.62669 
L 227.104736 205.62669 
L 227.104736 204.113437 
L 227.340687 204.113437 
L 227.340687 203.609019 
L 230.675978 203.609019 
L 230.675978 202.600183 
L 231.632703 202.600183 
L 231.632703 202.095765 
L 232.747202 202.095765 
L 232.747202 201.591347 
L 237.682242 201.591347 
L 237.682242 201.086929 
L 239.600062 201.086929 
L 239.600062 200.582511 
L 240.436653 200.582511 
L 240.436653 200.078094 
L 240.577952 200.078094 
L 240.577952 199.069258 
L 241.304523 199.069258 
L 241.391942 196.547168 
L 241.614885 196.547168 
L 241.614885 194.529497 
L 242.911101 194.529497 
L 242.958704 192.007407 
L 243.799721 192.007407 
L 243.799721 190.998572 
L 245.505819 190.998572 
L 245.505819 189.989736 
L 245.651606 189.989736 
L 245.651606 188.9809 
L 245.946654 188.9809 
L 245.946654 187.972064 
L 246.534878 187.972064 
L 246.534878 186.963228 
L 247.776281 186.963228 
L 247.776281 186.458811 
L 248.090538 186.458811 
L 248.090538 185.954393 
L 248.438774 185.954393 
L 248.438774 185.449975 
L 249.444017 185.449975 
L 249.444017 184.441139 
L 249.719822 184.441139 
L 249.764573 182.927885 
L 250.402809 182.927885 
L 250.402809 181.91905 
L 250.598031 181.91905 
L 250.598031 180.910214 
L 250.760403 180.910214 
L 250.85746 178.892542 
L 250.919058 178.892542 
L 250.919058 177.883706 
L 251.103086 177.883706 
L 251.191178 173.848363 
L 251.280608 173.848363 
L 251.285087 172.839527 
L 251.449597 172.839527 
L 251.531777 170.821856 
L 251.674097 170.821856 
L 251.674097 170.317438 
L 251.813106 170.317438 
L 251.813106 169.81302 
L 251.953813 169.81302 
L 251.953813 169.308602 
L 252.127441 169.308602 
L 252.127441 168.804184 
L 252.347724 168.804184 
L 252.347724 168.299766 
L 252.740621 168.299766 
L 252.847939 166.282095 
L 253.086662 166.282095 
L 253.086662 165.777677 
L 253.667292 165.777677 
L 253.667292 165.273259 
L 254.438574 165.273259 
L 254.481668 164.264423 
L 254.899577 164.264423 
L 254.899577 163.255588 
L 255.058551 163.255588 
L 255.058551 162.75117 
L 257.118893 162.75117 
L 257.118893 162.246752 
L 257.679328 162.246752 
L 257.679328 161.237916 
L 257.85789 161.237916 
L 257.933669 160.22908 
L 258.005236 160.22908 
L 258.013323 158.211409 
L 258.140604 158.211409 
L 258.140604 157.706991 
L 258.260714 157.706991 
L 258.260714 157.202573 
L 338.688 157.202573 
L 338.688 157.202573 
" style="fill:none;stroke:#6495ed;stroke-linecap:square;stroke-width:1.5;"/>
   </g>
   <g id="line2d_46">
    <defs>
     <path d="M -0 6 
L 6 -6 
L -6 -6 
z
" id="m5e9f3d6980" style="stroke:#6495ed;stroke-linejoin:miter;stroke-width:1.5;"/>
    </defs>
    <g>
     <use style="fill-opacity:0;stroke:#6495ed;stroke-linejoin:miter;stroke-width:1.5;" x="168.391365" xlink:href="#m5e9f3d6980" y="218.741555"/>
     <use style="fill-opacity:0;stroke:#6495ed;stroke-linejoin:miter;stroke-width:1.5;" x="258.260714" xlink:href="#m5e9f3d6980" y="157.706991"/>
     <use style="fill-opacity:0;stroke:#6495ed;stroke-linejoin:miter;stroke-width:1.5;" x="258.260714" xlink:href="#m5e9f3d6980" y="157.202573"/>
     <use style="fill-opacity:0;stroke:#6495ed;stroke-linejoin:miter;stroke-width:1.5;" x="258.260714" xlink:href="#m5e9f3d6980" y="157.202573"/>
     <use style="fill-opacity:0;stroke:#6495ed;stroke-linejoin:miter;stroke-width:1.5;" x="338.688" xlink:href="#m5e9f3d6980" y="157.202573"/>
    </g>
   </g>
   <g id="line2d_47">
    <path style="fill:none;stroke:#6495ed;stroke-linecap:square;stroke-width:1.5;"/>
    <g/>
   </g>
   <g id="line2d_48">
    <path clip-path="url(#pa0481560de)" d="M 258.377143 157.202573 
" style="fill:none;stroke:#6495ed;stroke-linecap:square;stroke-width:1.5;"/>
    <defs>
     <path d="M -12 12 
L 12 -12 
M -12 -12 
L 12 12 
" id="mb65788b633" style="stroke:#6495ed;"/>
    </defs>
    <g clip-path="url(#pa0481560de)">
     <use style="fill:#6495ed;stroke:#6495ed;" x="258.377143" xlink:href="#mb65788b633" y="157.202573"/>
    </g>
   </g>
   <g id="line2d_49">
    <path d="M 338.688 169.308602 
L 369.60768 293.092752 
" style="fill:none;stroke:#ff7500;stroke-linecap:square;stroke-width:1.5;"/>
    <g>
     <use style="fill-opacity:0;stroke:#ff7500;stroke-linejoin:bevel;stroke-width:1.5;" x="338.688" xlink:href="#mc2a5324bd3" y="169.308602"/>
     <use style="fill-opacity:0;stroke:#ff7500;stroke-linejoin:bevel;stroke-width:1.5;" x="369.60768" xlink:href="#mc2a5324bd3" y="293.092752"/>
    </g>
   </g>
   <g id="line2d_50">
    <path d="M 338.688 157.202573 
L 369.60768 199.472792 
" style="fill:none;stroke:#6495ed;stroke-linecap:square;stroke-width:1.5;"/>
    <g>
     <use style="fill-opacity:0;stroke:#6495ed;stroke-linejoin:miter;stroke-width:1.5;" x="338.688" xlink:href="#m5e9f3d6980" y="157.202573"/>
     <use style="fill-opacity:0;stroke:#6495ed;stroke-linejoin:miter;stroke-width:1.5;" x="369.60768" xlink:href="#m5e9f3d6980" y="199.472792"/>
    </g>
   </g>
   <g id="line2d_51">
    <path d="M 338.688 91.123829 
L 369.60768 105.852832 
" style="fill:none;stroke:#ff00ff;stroke-linecap:square;stroke-width:1.5;"/>
    <g>
     <use style="fill-opacity:0;stroke:#ff00ff;stroke-linejoin:miter;stroke-width:1.5;" x="338.688" xlink:href="#m00c61421ea" y="91.123829"/>
     <use style="fill-opacity:0;stroke:#ff00ff;stroke-linejoin:miter;stroke-width:1.5;" x="369.60768" xlink:href="#m00c61421ea" y="105.852832"/>
    </g>
   </g>
   <g id="line2d_52">
    <path d="M 338.688 85.070815 
L 369.60768 12.232871 
" style="fill:none;stroke:#000080;stroke-linecap:square;stroke-width:1.5;"/>
    <g>
     <use style="fill-opacity:0;stroke:#000080;stroke-width:1.5;" x="338.688" xlink:href="#m2e58e8f861" y="85.070815"/>
     <use style="fill-opacity:0;stroke:#000080;stroke-width:1.5;" x="369.60768" xlink:href="#m2e58e8f861" y="12.232871"/>
    </g>
   </g>
   <g id="line2d_53">
    <path d="M 338.688 298.944 
L 338.688 6.381624 
" style="fill:none;stroke:#000000;stroke-linecap:square;stroke-width:1.5;"/>
   </g>
   <g id="patch_3">
    <path d="M 57.6 298.944 
L 57.6 3.456 
" style="fill:none;stroke:#000000;stroke-linecap:square;stroke-linejoin:miter;stroke-width:0.8;"/>
   </g>
   <g id="patch_4">
    <path d="M 338.688 298.944 
L 338.688 3.456 
" style="fill:none;stroke:#000000;stroke-linecap:square;stroke-linejoin:miter;stroke-width:0.8;"/>
   </g>
   <g id="patch_5">
    <path d="M 57.6 298.944 
L 338.688 298.944 
" style="fill:none;stroke:#000000;stroke-linecap:square;stroke-linejoin:miter;stroke-width:0.8;"/>
   </g>
   <g id="patch_6">
    <path d="M 57.6 3.456 
L 338.688 3.456 
" style="fill:none;stroke:#000000;stroke-linecap:square;stroke-linejoin:miter;stroke-width:0.8;"/>
   </g>
   <g id="text_13">
    <!-- f12 -->
    <g transform="translate(375.22944 297.78369)scale(0.17 -0.17)">
     <use xlink:href="#DejaVuSans-102"/>
     <use x="35.205078" xlink:href="#DejaVuSans-49"/>
     <use x="98.828125" xlink:href="#DejaVuSans-50"/>
    </g>
   </g>
   <g id="text_14">
    <!-- f13 -->
    <g transform="translate(375.22944 204.16373)scale(0.17 -0.17)">
     <defs>
      <path d="M 40.578125 39.3125 
Q 47.65625 37.796875 51.625 33 
Q 55.609375 28.21875 55.609375 21.1875 
Q 55.609375 10.40625 48.1875 4.484375 
Q 40.765625 -1.421875 27.09375 -1.421875 
Q 22.515625 -1.421875 17.65625 -0.515625 
Q 12.796875 0.390625 7.625 2.203125 
L 7.625 11.71875 
Q 11.71875 9.328125 16.59375 8.109375 
Q 21.484375 6.890625 26.8125 6.890625 
Q 36.078125 6.890625 40.9375 10.546875 
Q 45.796875 14.203125 45.796875 21.1875 
Q 45.796875 27.640625 41.28125 31.265625 
Q 36.765625 34.90625 28.71875 34.90625 
L 20.21875 34.90625 
L 20.21875 43.015625 
L 29.109375 43.015625 
Q 36.375 43.015625 40.234375 45.921875 
Q 44.09375 48.828125 44.09375 54.296875 
Q 44.09375 59.90625 40.109375 62.90625 
Q 36.140625 65.921875 28.71875 65.921875 
Q 24.65625 65.921875 20.015625 65.03125 
Q 15.375 64.15625 9.8125 62.3125 
L 9.8125 71.09375 
Q 15.4375 72.65625 20.34375 73.4375 
Q 25.25 74.21875 29.59375 74.21875 
Q 40.828125 74.21875 47.359375 69.109375 
Q 53.90625 64.015625 53.90625 55.328125 
Q 53.90625 49.265625 50.4375 45.09375 
Q 46.96875 40.921875 40.578125 39.3125 
z
" id="DejaVuSans-51"/>
     </defs>
     <use xlink:href="#DejaVuSans-102"/>
     <use x="35.205078" xlink:href="#DejaVuSans-49"/>
     <use x="98.828125" xlink:href="#DejaVuSans-51"/>
    </g>
   </g>
   <g id="text_15">
    <!-- f4 -->
    <g transform="translate(375.22944 110.543769)scale(0.17 -0.17)">
     <use xlink:href="#DejaVuSans-102"/>
     <use x="35.205078" xlink:href="#DejaVuSans-52"/>
    </g>
   </g>
   <g id="text_16">
    <!-- f3 -->
    <g transform="translate(375.22944 16.923809)scale(0.17 -0.17)">
     <use xlink:href="#DejaVuSans-102"/>
     <use x="35.205078" xlink:href="#DejaVuSans-51"/>
    </g>
   </g>
   <g id="text_17">
    <!-- bbob-biobj -->
    <g transform="translate(60.41088 14.161286)scale(0.102 -0.102)">
     <defs>
      <path d="M 48.6875 27.296875 
Q 48.6875 37.203125 44.609375 42.84375 
Q 40.53125 48.484375 33.40625 48.484375 
Q 26.265625 48.484375 22.1875 42.84375 
Q 18.109375 37.203125 18.109375 27.296875 
Q 18.109375 17.390625 22.1875 11.75 
Q 26.265625 6.109375 33.40625 6.109375 
Q 40.53125 6.109375 44.609375 11.75 
Q 48.6875 17.390625 48.6875 27.296875 
z
M 18.109375 46.390625 
Q 20.953125 51.265625 25.265625 53.625 
Q 29.59375 56 35.59375 56 
Q 45.5625 56 51.78125 48.09375 
Q 58.015625 40.1875 58.015625 27.296875 
Q 58.015625 14.40625 51.78125 6.484375 
Q 45.5625 -1.421875 35.59375 -1.421875 
Q 29.59375 -1.421875 25.265625 0.953125 
Q 20.953125 3.328125 18.109375 8.203125 
L 18.109375 0 
L 9.078125 0 
L 9.078125 75.984375 
L 18.109375 75.984375 
z
" id="DejaVuSans-98"/>
      <path d="M 9.421875 54.6875 
L 18.40625 54.6875 
L 18.40625 -0.984375 
Q 18.40625 -11.421875 14.421875 -16.109375 
Q 10.453125 -20.796875 1.609375 -20.796875 
L -1.8125 -20.796875 
L -1.8125 -13.1875 
L 0.59375 -13.1875 
Q 5.71875 -13.1875 7.5625 -10.8125 
Q 9.421875 -8.453125 9.421875 -0.984375 
z
M 9.421875 75.984375 
L 18.40625 75.984375 
L 18.40625 64.59375 
L 9.421875 64.59375 
z
" id="DejaVuSans-106"/>
     </defs>
     <use xlink:href="#DejaVuSans-98"/>
     <use x="63.476562" xlink:href="#DejaVuSans-98"/>
     <use x="126.953125" xlink:href="#DejaVuSans-111"/>
     <use x="188.134766" xlink:href="#DejaVuSans-98"/>
     <use x="251.611328" xlink:href="#DejaVuSans-45"/>
     <use x="287.695312" xlink:href="#DejaVuSans-98"/>
     <use x="351.171875" xlink:href="#DejaVuSans-105"/>
     <use x="378.955078" xlink:href="#DejaVuSans-111"/>
     <use x="440.136719" xlink:href="#DejaVuSans-98"/>
     <use x="503.613281" xlink:href="#DejaVuSans-106"/>
    </g>
    <!-- 1-separable 2-moderate, 10-D -->
    <g transform="translate(60.41088 25.583055)scale(0.102 -0.102)">
     <defs>
      <path d="M 19.671875 64.796875 
L 19.671875 8.109375 
L 31.59375 8.109375 
Q 46.6875 8.109375 53.6875 14.9375 
Q 60.6875 21.78125 60.6875 36.53125 
Q 60.6875 51.171875 53.6875 57.984375 
Q 46.6875 64.796875 31.59375 64.796875 
z
M 9.8125 72.90625 
L 30.078125 72.90625 
Q 51.265625 72.90625 61.171875 64.09375 
Q 71.09375 55.28125 71.09375 36.53125 
Q 71.09375 17.671875 61.125 8.828125 
Q 51.171875 0 30.078125 0 
L 9.8125 0 
z
" id="DejaVuSans-68"/>
     </defs>
     <use xlink:href="#DejaVuSans-49"/>
     <use x="63.623047" xlink:href="#DejaVuSans-45"/>
     <use x="99.707031" xlink:href="#DejaVuSans-115"/>
     <use x="151.806641" xlink:href="#DejaVuSans-101"/>
     <use x="213.330078" xlink:href="#DejaVuSans-112"/>
     <use x="276.806641" xlink:href="#DejaVuSans-97"/>
     <use x="338.085938" xlink:href="#DejaVuSans-114"/>
     <use x="379.199219" xlink:href="#DejaVuSans-97"/>
     <use x="440.478516" xlink:href="#DejaVuSans-98"/>
     <use x="503.955078" xlink:href="#DejaVuSans-108"/>
     <use x="531.738281" xlink:href="#DejaVuSans-101"/>
     <use x="593.261719" xlink:href="#DejaVuSans-32"/>
     <use x="625.048828" xlink:href="#DejaVuSans-50"/>
     <use x="688.671875" xlink:href="#DejaVuSans-45"/>
     <use x="724.755859" xlink:href="#DejaVuSans-109"/>
     <use x="822.167969" xlink:href="#DejaVuSans-111"/>
     <use x="883.349609" xlink:href="#DejaVuSans-100"/>
     <use x="946.826172" xlink:href="#DejaVuSans-101"/>
     <use x="1008.349609" xlink:href="#DejaVuSans-114"/>
     <use x="1049.462891" xlink:href="#DejaVuSans-97"/>
     <use x="1110.742188" xlink:href="#DejaVuSans-116"/>
     <use x="1149.951172" xlink:href="#DejaVuSans-101"/>
     <use x="1211.474609" xlink:href="#DejaVuSans-44"/>
     <use x="1243.261719" xlink:href="#DejaVuSans-32"/>
     <use x="1275.048828" xlink:href="#DejaVuSans-49"/>
     <use x="1338.671875" xlink:href="#DejaVuSans-48"/>
     <use x="1402.294922" xlink:href="#DejaVuSans-45"/>
     <use x="1438.378906" xlink:href="#DejaVuSans-68"/>
    </g>
    <!-- 58 targets: 1..-1.0e-4 -->
    <g transform="translate(60.41088 37.004824)scale(0.102 -0.102)">
     <defs>
      <path d="M 10.796875 72.90625 
L 49.515625 72.90625 
L 49.515625 64.59375 
L 19.828125 64.59375 
L 19.828125 46.734375 
Q 21.96875 47.46875 24.109375 47.828125 
Q 26.265625 48.1875 28.421875 48.1875 
Q 40.625 48.1875 47.75 41.5 
Q 54.890625 34.8125 54.890625 23.390625 
Q 54.890625 11.625 47.5625 5.09375 
Q 40.234375 -1.421875 26.90625 -1.421875 
Q 22.3125 -1.421875 17.546875 -0.640625 
Q 12.796875 0.140625 7.71875 1.703125 
L 7.71875 11.625 
Q 12.109375 9.234375 16.796875 8.0625 
Q 21.484375 6.890625 26.703125 6.890625 
Q 35.15625 6.890625 40.078125 11.328125 
Q 45.015625 15.765625 45.015625 23.390625 
Q 45.015625 31 40.078125 35.4375 
Q 35.15625 39.890625 26.703125 39.890625 
Q 22.75 39.890625 18.8125 39.015625 
Q 14.890625 38.140625 10.796875 36.28125 
z
" id="DejaVuSans-53"/>
      <path d="M 11.71875 12.40625 
L 22.015625 12.40625 
L 22.015625 0 
L 11.71875 0 
z
M 11.71875 51.703125 
L 22.015625 51.703125 
L 22.015625 39.3125 
L 11.71875 39.3125 
z
" id="DejaVuSans-58"/>
     </defs>
     <use xlink:href="#DejaVuSans-53"/>
     <use x="63.623047" xlink:href="#DejaVuSans-56"/>
     <use x="127.246094" xlink:href="#DejaVuSans-32"/>
     <use x="159.033203" xlink:href="#DejaVuSans-116"/>
     <use x="198.242188" xlink:href="#DejaVuSans-97"/>
     <use x="259.521484" xlink:href="#DejaVuSans-114"/>
     <use x="298.884766" xlink:href="#DejaVuSans-103"/>
     <use x="362.361328" xlink:href="#DejaVuSans-101"/>
     <use x="423.884766" xlink:href="#DejaVuSans-116"/>
     <use x="463.09375" xlink:href="#DejaVuSans-115"/>
     <use x="515.193359" xlink:href="#DejaVuSans-58"/>
     <use x="548.884766" xlink:href="#DejaVuSans-32"/>
     <use x="580.671875" xlink:href="#DejaVuSans-49"/>
     <use x="644.294922" xlink:href="#DejaVuSans-46"/>
     <use x="676.082031" xlink:href="#DejaVuSans-46"/>
     <use x="707.869141" xlink:href="#DejaVuSans-45"/>
     <use x="743.953125" xlink:href="#DejaVuSans-49"/>
     <use x="807.576172" xlink:href="#DejaVuSans-46"/>
     <use x="839.363281" xlink:href="#DejaVuSans-48"/>
     <use x="902.986328" xlink:href="#DejaVuSans-101"/>
     <use x="964.509766" xlink:href="#DejaVuSans-45"/>
     <use x="1000.59375" xlink:href="#DejaVuSans-52"/>
    </g>
    <!-- 10 instances -->
    <g transform="translate(60.41088 48.426593)scale(0.102 -0.102)">
     <use xlink:href="#DejaVuSans-49"/>
     <use x="63.623047" xlink:href="#DejaVuSans-48"/>
     <use x="127.246094" xlink:href="#DejaVuSans-32"/>
     <use x="159.033203" xlink:href="#DejaVuSans-105"/>
     <use x="186.816406" xlink:href="#DejaVuSans-110"/>
     <use x="250.195312" xlink:href="#DejaVuSans-115"/>
     <use x="302.294922" xlink:href="#DejaVuSans-116"/>
     <use x="341.503906" xlink:href="#DejaVuSans-97"/>
     <use x="402.783203" xlink:href="#DejaVuSans-110"/>
     <use x="466.162109" xlink:href="#DejaVuSans-99"/>
     <use x="521.142578" xlink:href="#DejaVuSans-101"/>
     <use x="582.666016" xlink:href="#DejaVuSans-115"/>
    </g>
   </g>
   <g id="text_18">
    <!-- v2.4, hv-hash=ff0e71e8cd978373 -->
    <g style="fill:#808080;" transform="translate(112.648687 293.909432)scale(0.1 -0.1)">
     <defs>
      <path d="M 54.890625 33.015625 
L 54.890625 0 
L 45.90625 0 
L 45.90625 32.71875 
Q 45.90625 40.484375 42.875 44.328125 
Q 39.84375 48.1875 33.796875 48.1875 
Q 26.515625 48.1875 22.3125 43.546875 
Q 18.109375 38.921875 18.109375 30.90625 
L 18.109375 0 
L 9.078125 0 
L 9.078125 75.984375 
L 18.109375 75.984375 
L 18.109375 46.1875 
Q 21.34375 51.125 25.703125 53.5625 
Q 30.078125 56 35.796875 56 
Q 45.21875 56 50.046875 50.171875 
Q 54.890625 44.34375 54.890625 33.015625 
z
" id="DejaVuSans-104"/>
      <path d="M 10.59375 45.40625 
L 73.1875 45.40625 
L 73.1875 37.203125 
L 10.59375 37.203125 
z
M 10.59375 25.484375 
L 73.1875 25.484375 
L 73.1875 17.1875 
L 10.59375 17.1875 
z
" id="DejaVuSans-61"/>
      <path d="M 8.203125 72.90625 
L 55.078125 72.90625 
L 55.078125 68.703125 
L 28.609375 0 
L 18.3125 0 
L 43.21875 64.59375 
L 8.203125 64.59375 
z
" id="DejaVuSans-55"/>
      <path d="M 10.984375 1.515625 
L 10.984375 10.5 
Q 14.703125 8.734375 18.5 7.8125 
Q 22.3125 6.890625 25.984375 6.890625 
Q 35.75 6.890625 40.890625 13.453125 
Q 46.046875 20.015625 46.78125 33.40625 
Q 43.953125 29.203125 39.59375 26.953125 
Q 35.25 24.703125 29.984375 24.703125 
Q 19.046875 24.703125 12.671875 31.3125 
Q 6.296875 37.9375 6.296875 49.421875 
Q 6.296875 60.640625 12.9375 67.421875 
Q 19.578125 74.21875 30.609375 74.21875 
Q 43.265625 74.21875 49.921875 64.515625 
Q 56.59375 54.828125 56.59375 36.375 
Q 56.59375 19.140625 48.40625 8.859375 
Q 40.234375 -1.421875 26.421875 -1.421875 
Q 22.703125 -1.421875 18.890625 -0.6875 
Q 15.09375 0.046875 10.984375 1.515625 
z
M 30.609375 32.421875 
Q 37.25 32.421875 41.125 36.953125 
Q 45.015625 41.5 45.015625 49.421875 
Q 45.015625 57.28125 41.125 61.84375 
Q 37.25 66.40625 30.609375 66.40625 
Q 23.96875 66.40625 20.09375 61.84375 
Q 16.21875 57.28125 16.21875 49.421875 
Q 16.21875 41.5 20.09375 36.953125 
Q 23.96875 32.421875 30.609375 32.421875 
z
" id="DejaVuSans-57"/>
     </defs>
     <use xlink:href="#DejaVuSans-118"/>
     <use x="59.179688" xlink:href="#DejaVuSans-50"/>
     <use x="122.802734" xlink:href="#DejaVuSans-46"/>
     <use x="154.589844" xlink:href="#DejaVuSans-52"/>
     <use x="218.212891" xlink:href="#DejaVuSans-44"/>
     <use x="250" xlink:href="#DejaVuSans-32"/>
     <use x="281.787109" xlink:href="#DejaVuSans-104"/>
     <use x="345.166016" xlink:href="#DejaVuSans-118"/>
     <use x="401.720703" xlink:href="#DejaVuSans-45"/>
     <use x="437.804688" xlink:href="#DejaVuSans-104"/>
     <use x="501.183594" xlink:href="#DejaVuSans-97"/>
     <use x="562.462891" xlink:href="#DejaVuSans-115"/>
     <use x="614.5625" xlink:href="#DejaVuSans-104"/>
     <use x="677.941406" xlink:href="#DejaVuSans-61"/>
     <use x="761.730469" xlink:href="#DejaVuSans-102"/>
     <use x="796.935547" xlink:href="#DejaVuSans-102"/>
     <use x="832.140625" xlink:href="#DejaVuSans-48"/>
     <use x="895.763672" xlink:href="#DejaVuSans-101"/>
     <use x="957.287109" xlink:href="#DejaVuSans-55"/>
     <use x="1020.910156" xlink:href="#DejaVuSans-49"/>
     <use x="1084.533203" xlink:href="#DejaVuSans-101"/>
     <use x="1146.056641" xlink:href="#DejaVuSans-56"/>
     <use x="1209.679688" xlink:href="#DejaVuSans-99"/>
     <use x="1264.660156" xlink:href="#DejaVuSans-100"/>
     <use x="1328.136719" xlink:href="#DejaVuSans-57"/>
     <use x="1391.759766" xlink:href="#DejaVuSans-55"/>
     <use x="1455.382812" xlink:href="#DejaVuSans-56"/>
     <use x="1519.005859" xlink:href="#DejaVuSans-51"/>
     <use x="1582.628906" xlink:href="#DejaVuSans-55"/>
     <use x="1646.251953" xlink:href="#DejaVuSans-51"/>
    </g>
   </g>
  </g>
 </g>
 <defs>
  <clipPath id="pa0481560de">
   <rect height="295.488" width="281.088" x="57.6" y="3.456"/>
  </clipPath>
 </defs>
</svg>
