<?xml version="1.0" encoding="utf-8" standalone="no"?>
<!DOCTYPE svg PUBLIC "-//W3C//DTD SVG 1.1//EN"
  "http://www.w3.org/Graphics/SVG/1.1/DTD/svg11.dtd">
<!-- Created with matplotlib (https://matplotlib.org/) -->
<svg height="345.6pt" version="1.1" viewBox="0 0 460.8 345.6" width="460.8pt" xmlns="http://www.w3.org/2000/svg" xmlns:xlink="http://www.w3.org/1999/xlink">
 <metadata>
  <rdf:RDF xmlns:cc="http://creativecommons.org/ns#" xmlns:dc="http://purl.org/dc/elements/1.1/" xmlns:rdf="http://www.w3.org/1999/02/22-rdf-syntax-ns#">
   <cc:Work>
    <dc:type rdf:resource="http://purl.org/dc/dcmitype/StillImage"/>
    <dc:date>2021-03-30T16:55:15.549208</dc:date>
    <dc:format>image/svg+xml</dc:format>
    <dc:creator>
     <cc:Agent>
      <dc:title>Matplotlib v3.3.4, https://matplotlib.org/</dc:title>
     </cc:Agent>
    </dc:creator>
   </cc:Work>
  </rdf:RDF>
 </metadata>
 <defs>
  <style type="text/css">*{stroke-linecap:butt;stroke-linejoin:round;}</style>
 </defs>
 <g id="figure_1">
  <g id="patch_1">
   <path d="M 0 345.6 
L 460.8 345.6 
L 460.8 0 
L 0 0 
z
" style="fill:#ffffff;"/>
  </g>
  <g id="axes_1">
   <g id="patch_2">
    <path d="M 57.6 298.944 
L 338.688 298.944 
L 338.688 3.456 
L 57.6 3.456 
z
" style="fill:#ffffff;"/>
   </g>
   <g id="matplotlib.axis_1">
    <g id="xtick_1">
     <g id="line2d_1">
      <path clip-path="url(#pf9b02d990c)" d="M 57.6 298.944 
L 57.6 3.456 
" style="fill:none;stroke:#b0b0b0;stroke-linecap:square;stroke-width:0.8;"/>
     </g>
     <g id="line2d_2">
      <defs>
       <path d="M 0 0 
L 0 3.5 
" id="m89798ff127" style="stroke:#000000;stroke-width:0.8;"/>
      </defs>
      <g>
       <use style="stroke:#000000;stroke-width:0.8;" x="57.6" xlink:href="#m89798ff127" y="298.944"/>
      </g>
     </g>
     <g id="text_1">
      <!-- 0 -->
      <g transform="translate(51.2375 321.140875)scale(0.2 -0.2)">
       <defs>
        <path d="M 31.78125 66.40625 
Q 24.171875 66.40625 20.328125 58.90625 
Q 16.5 51.421875 16.5 36.375 
Q 16.5 21.390625 20.328125 13.890625 
Q 24.171875 6.390625 31.78125 6.390625 
Q 39.453125 6.390625 43.28125 13.890625 
Q 47.125 21.390625 47.125 36.375 
Q 47.125 51.421875 43.28125 58.90625 
Q 39.453125 66.40625 31.78125 66.40625 
z
M 31.78125 74.21875 
Q 44.046875 74.21875 50.515625 64.515625 
Q 56.984375 54.828125 56.984375 36.375 
Q 56.984375 17.96875 50.515625 8.265625 
Q 44.046875 -1.421875 31.78125 -1.421875 
Q 19.53125 -1.421875 13.0625 8.265625 
Q 6.59375 17.96875 6.59375 36.375 
Q 6.59375 54.828125 13.0625 64.515625 
Q 19.53125 74.21875 31.78125 74.21875 
z
" id="DejaVuSans-48"/>
       </defs>
       <use xlink:href="#DejaVuSans-48"/>
      </g>
     </g>
    </g>
    <g id="xtick_2">
     <g id="line2d_3">
      <path clip-path="url(#pf9b02d990c)" d="M 137.910857 298.944 
L 137.910857 3.456 
" style="fill:none;stroke:#b0b0b0;stroke-linecap:square;stroke-width:0.8;"/>
     </g>
     <g id="line2d_4">
      <g>
       <use style="stroke:#000000;stroke-width:0.8;" x="137.910857" xlink:href="#m89798ff127" y="298.944"/>
      </g>
     </g>
     <g id="text_2">
      <!-- 2 -->
      <g transform="translate(131.548357 321.140875)scale(0.2 -0.2)">
       <defs>
        <path d="M 19.1875 8.296875 
L 53.609375 8.296875 
L 53.609375 0 
L 7.328125 0 
L 7.328125 8.296875 
Q 12.9375 14.109375 22.625 23.890625 
Q 32.328125 33.6875 34.8125 36.53125 
Q 39.546875 41.84375 41.421875 45.53125 
Q 43.3125 49.21875 43.3125 52.78125 
Q 43.3125 58.59375 39.234375 62.25 
Q 35.15625 65.921875 28.609375 65.921875 
Q 23.96875 65.921875 18.8125 64.3125 
Q 13.671875 62.703125 7.8125 59.421875 
L 7.8125 69.390625 
Q 13.765625 71.78125 18.9375 73 
Q 24.125 74.21875 28.421875 74.21875 
Q 39.75 74.21875 46.484375 68.546875 
Q 53.21875 62.890625 53.21875 53.421875 
Q 53.21875 48.921875 51.53125 44.890625 
Q 49.859375 40.875 45.40625 35.40625 
Q 44.1875 33.984375 37.640625 27.21875 
Q 31.109375 20.453125 19.1875 8.296875 
z
" id="DejaVuSans-50"/>
       </defs>
       <use xlink:href="#DejaVuSans-50"/>
      </g>
     </g>
    </g>
    <g id="xtick_3">
     <g id="line2d_5">
      <path clip-path="url(#pf9b02d990c)" d="M 218.221714 298.944 
L 218.221714 3.456 
" style="fill:none;stroke:#b0b0b0;stroke-linecap:square;stroke-width:0.8;"/>
     </g>
     <g id="line2d_6">
      <g>
       <use style="stroke:#000000;stroke-width:0.8;" x="218.221714" xlink:href="#m89798ff127" y="298.944"/>
      </g>
     </g>
     <g id="text_3">
      <!-- 4 -->
      <g transform="translate(211.859214 321.140875)scale(0.2 -0.2)">
       <defs>
        <path d="M 37.796875 64.3125 
L 12.890625 25.390625 
L 37.796875 25.390625 
z
M 35.203125 72.90625 
L 47.609375 72.90625 
L 47.609375 25.390625 
L 58.015625 25.390625 
L 58.015625 17.1875 
L 47.609375 17.1875 
L 47.609375 0 
L 37.796875 0 
L 37.796875 17.1875 
L 4.890625 17.1875 
L 4.890625 26.703125 
z
" id="DejaVuSans-52"/>
       </defs>
       <use xlink:href="#DejaVuSans-52"/>
      </g>
     </g>
    </g>
    <g id="xtick_4">
     <g id="line2d_7">
      <path clip-path="url(#pf9b02d990c)" d="M 298.532571 298.944 
L 298.532571 3.456 
" style="fill:none;stroke:#b0b0b0;stroke-linecap:square;stroke-width:0.8;"/>
     </g>
     <g id="line2d_8">
      <g>
       <use style="stroke:#000000;stroke-width:0.8;" x="298.532571" xlink:href="#m89798ff127" y="298.944"/>
      </g>
     </g>
     <g id="text_4">
      <!-- 6 -->
      <g transform="translate(292.170071 321.140875)scale(0.2 -0.2)">
       <defs>
        <path d="M 33.015625 40.375 
Q 26.375 40.375 22.484375 35.828125 
Q 18.609375 31.296875 18.609375 23.390625 
Q 18.609375 15.53125 22.484375 10.953125 
Q 26.375 6.390625 33.015625 6.390625 
Q 39.65625 6.390625 43.53125 10.953125 
Q 47.40625 15.53125 47.40625 23.390625 
Q 47.40625 31.296875 43.53125 35.828125 
Q 39.65625 40.375 33.015625 40.375 
z
M 52.59375 71.296875 
L 52.59375 62.3125 
Q 48.875 64.0625 45.09375 64.984375 
Q 41.3125 65.921875 37.59375 65.921875 
Q 27.828125 65.921875 22.671875 59.328125 
Q 17.53125 52.734375 16.796875 39.40625 
Q 19.671875 43.65625 24.015625 45.921875 
Q 28.375 48.1875 33.59375 48.1875 
Q 44.578125 48.1875 50.953125 41.515625 
Q 57.328125 34.859375 57.328125 23.390625 
Q 57.328125 12.15625 50.6875 5.359375 
Q 44.046875 -1.421875 33.015625 -1.421875 
Q 20.359375 -1.421875 13.671875 8.265625 
Q 6.984375 17.96875 6.984375 36.375 
Q 6.984375 53.65625 15.1875 63.9375 
Q 23.390625 74.21875 37.203125 74.21875 
Q 40.921875 74.21875 44.703125 73.484375 
Q 48.484375 72.75 52.59375 71.296875 
z
" id="DejaVuSans-54"/>
       </defs>
       <use xlink:href="#DejaVuSans-54"/>
      </g>
     </g>
    </g>
    <g id="xtick_5">
     <g id="line2d_9">
      <path clip-path="url(#pf9b02d990c)" d="M 97.755429 298.944 
L 97.755429 3.456 
" style="fill:none;stroke:#b0b0b0;stroke-linecap:square;stroke-width:0.8;"/>
     </g>
     <g id="line2d_10">
      <defs>
       <path d="M 0 0 
L 0 2 
" id="me6617b23b9" style="stroke:#000000;stroke-width:0.6;"/>
      </defs>
      <g>
       <use style="stroke:#000000;stroke-width:0.6;" x="97.755429" xlink:href="#me6617b23b9" y="298.944"/>
      </g>
     </g>
    </g>
    <g id="xtick_6">
     <g id="line2d_11">
      <path clip-path="url(#pf9b02d990c)" d="M 178.066286 298.944 
L 178.066286 3.456 
" style="fill:none;stroke:#b0b0b0;stroke-linecap:square;stroke-width:0.8;"/>
     </g>
     <g id="line2d_12">
      <g>
       <use style="stroke:#000000;stroke-width:0.6;" x="178.066286" xlink:href="#me6617b23b9" y="298.944"/>
      </g>
     </g>
    </g>
    <g id="xtick_7">
     <g id="line2d_13">
      <path clip-path="url(#pf9b02d990c)" d="M 258.377143 298.944 
L 258.377143 3.456 
" style="fill:none;stroke:#b0b0b0;stroke-linecap:square;stroke-width:0.8;"/>
     </g>
     <g id="line2d_14">
      <g>
       <use style="stroke:#000000;stroke-width:0.6;" x="258.377143" xlink:href="#me6617b23b9" y="298.944"/>
      </g>
     </g>
    </g>
    <g id="xtick_8">
     <g id="line2d_15">
      <path clip-path="url(#pf9b02d990c)" d="M 338.688 298.944 
L 338.688 3.456 
" style="fill:none;stroke:#b0b0b0;stroke-linecap:square;stroke-width:0.8;"/>
     </g>
     <g id="line2d_16">
      <g>
       <use style="stroke:#000000;stroke-width:0.6;" x="338.688" xlink:href="#me6617b23b9" y="298.944"/>
      </g>
     </g>
    </g>
    <g id="text_5">
     <!-- log10(# f-evals / dimension) -->
     <g transform="translate(77.764078 342.217594)scale(0.17 -0.17)">
      <defs>
       <path d="M 9.421875 75.984375 
L 18.40625 75.984375 
L 18.40625 0 
L 9.421875 0 
z
" id="DejaVuSans-108"/>
       <path d="M 30.609375 48.390625 
Q 23.390625 48.390625 19.1875 42.75 
Q 14.984375 37.109375 14.984375 27.296875 
Q 14.984375 17.484375 19.15625 11.84375 
Q 23.34375 6.203125 30.609375 6.203125 
Q 37.796875 6.203125 41.984375 11.859375 
Q 46.1875 17.53125 46.1875 27.296875 
Q 46.1875 37.015625 41.984375 42.703125 
Q 37.796875 48.390625 30.609375 48.390625 
z
M 30.609375 56 
Q 42.328125 56 49.015625 48.375 
Q 55.71875 40.765625 55.71875 27.296875 
Q 55.71875 13.875 49.015625 6.21875 
Q 42.328125 -1.421875 30.609375 -1.421875 
Q 18.84375 -1.421875 12.171875 6.21875 
Q 5.515625 13.875 5.515625 27.296875 
Q 5.515625 40.765625 12.171875 48.375 
Q 18.84375 56 30.609375 56 
z
" id="DejaVuSans-111"/>
       <path d="M 45.40625 27.984375 
Q 45.40625 37.75 41.375 43.109375 
Q 37.359375 48.484375 30.078125 48.484375 
Q 22.859375 48.484375 18.828125 43.109375 
Q 14.796875 37.75 14.796875 27.984375 
Q 14.796875 18.265625 18.828125 12.890625 
Q 22.859375 7.515625 30.078125 7.515625 
Q 37.359375 7.515625 41.375 12.890625 
Q 45.40625 18.265625 45.40625 27.984375 
z
M 54.390625 6.78125 
Q 54.390625 -7.171875 48.1875 -13.984375 
Q 42 -20.796875 29.203125 -20.796875 
Q 24.46875 -20.796875 20.265625 -20.09375 
Q 16.0625 -19.390625 12.109375 -17.921875 
L 12.109375 -9.1875 
Q 16.0625 -11.328125 19.921875 -12.34375 
Q 23.78125 -13.375 27.78125 -13.375 
Q 36.625 -13.375 41.015625 -8.765625 
Q 45.40625 -4.15625 45.40625 5.171875 
L 45.40625 9.625 
Q 42.625 4.78125 38.28125 2.390625 
Q 33.9375 0 27.875 0 
Q 17.828125 0 11.671875 7.65625 
Q 5.515625 15.328125 5.515625 27.984375 
Q 5.515625 40.671875 11.671875 48.328125 
Q 17.828125 56 27.875 56 
Q 33.9375 56 38.28125 53.609375 
Q 42.625 51.21875 45.40625 46.390625 
L 45.40625 54.6875 
L 54.390625 54.6875 
z
" id="DejaVuSans-103"/>
       <path d="M 12.40625 8.296875 
L 28.515625 8.296875 
L 28.515625 63.921875 
L 10.984375 60.40625 
L 10.984375 69.390625 
L 28.421875 72.90625 
L 38.28125 72.90625 
L 38.28125 8.296875 
L 54.390625 8.296875 
L 54.390625 0 
L 12.40625 0 
z
" id="DejaVuSans-49"/>
       <path d="M 31 75.875 
Q 24.46875 64.65625 21.28125 53.65625 
Q 18.109375 42.671875 18.109375 31.390625 
Q 18.109375 20.125 21.3125 9.0625 
Q 24.515625 -2 31 -13.1875 
L 23.1875 -13.1875 
Q 15.875 -1.703125 12.234375 9.375 
Q 8.59375 20.453125 8.59375 31.390625 
Q 8.59375 42.28125 12.203125 53.3125 
Q 15.828125 64.359375 23.1875 75.875 
z
" id="DejaVuSans-40"/>
       <path d="M 51.125 44 
L 36.921875 44 
L 32.8125 27.6875 
L 47.125 27.6875 
z
M 43.796875 71.78125 
L 38.71875 51.515625 
L 52.984375 51.515625 
L 58.109375 71.78125 
L 65.921875 71.78125 
L 60.890625 51.515625 
L 76.125 51.515625 
L 76.125 44 
L 58.984375 44 
L 54.984375 27.6875 
L 70.515625 27.6875 
L 70.515625 20.21875 
L 53.078125 20.21875 
L 48 0 
L 40.1875 0 
L 45.21875 20.21875 
L 30.90625 20.21875 
L 25.875 0 
L 18.015625 0 
L 23.09375 20.21875 
L 7.71875 20.21875 
L 7.71875 27.6875 
L 24.90625 27.6875 
L 29 44 
L 13.28125 44 
L 13.28125 51.515625 
L 30.90625 51.515625 
L 35.890625 71.78125 
z
" id="DejaVuSans-35"/>
       <path id="DejaVuSans-32"/>
       <path d="M 37.109375 75.984375 
L 37.109375 68.5 
L 28.515625 68.5 
Q 23.6875 68.5 21.796875 66.546875 
Q 19.921875 64.59375 19.921875 59.515625 
L 19.921875 54.6875 
L 34.71875 54.6875 
L 34.71875 47.703125 
L 19.921875 47.703125 
L 19.921875 0 
L 10.890625 0 
L 10.890625 47.703125 
L 2.296875 47.703125 
L 2.296875 54.6875 
L 10.890625 54.6875 
L 10.890625 58.5 
Q 10.890625 67.625 15.140625 71.796875 
Q 19.390625 75.984375 28.609375 75.984375 
z
" id="DejaVuSans-102"/>
       <path d="M 4.890625 31.390625 
L 31.203125 31.390625 
L 31.203125 23.390625 
L 4.890625 23.390625 
z
" id="DejaVuSans-45"/>
       <path d="M 56.203125 29.59375 
L 56.203125 25.203125 
L 14.890625 25.203125 
Q 15.484375 15.921875 20.484375 11.0625 
Q 25.484375 6.203125 34.421875 6.203125 
Q 39.59375 6.203125 44.453125 7.46875 
Q 49.3125 8.734375 54.109375 11.28125 
L 54.109375 2.78125 
Q 49.265625 0.734375 44.1875 -0.34375 
Q 39.109375 -1.421875 33.890625 -1.421875 
Q 20.796875 -1.421875 13.15625 6.1875 
Q 5.515625 13.8125 5.515625 26.8125 
Q 5.515625 40.234375 12.765625 48.109375 
Q 20.015625 56 32.328125 56 
Q 43.359375 56 49.78125 48.890625 
Q 56.203125 41.796875 56.203125 29.59375 
z
M 47.21875 32.234375 
Q 47.125 39.59375 43.09375 43.984375 
Q 39.0625 48.390625 32.421875 48.390625 
Q 24.90625 48.390625 20.390625 44.140625 
Q 15.875 39.890625 15.1875 32.171875 
z
" id="DejaVuSans-101"/>
       <path d="M 2.984375 54.6875 
L 12.5 54.6875 
L 29.59375 8.796875 
L 46.6875 54.6875 
L 56.203125 54.6875 
L 35.6875 0 
L 23.484375 0 
z
" id="DejaVuSans-118"/>
       <path d="M 34.28125 27.484375 
Q 23.390625 27.484375 19.1875 25 
Q 14.984375 22.515625 14.984375 16.5 
Q 14.984375 11.71875 18.140625 8.90625 
Q 21.296875 6.109375 26.703125 6.109375 
Q 34.1875 6.109375 38.703125 11.40625 
Q 43.21875 16.703125 43.21875 25.484375 
L 43.21875 27.484375 
z
M 52.203125 31.203125 
L 52.203125 0 
L 43.21875 0 
L 43.21875 8.296875 
Q 40.140625 3.328125 35.546875 0.953125 
Q 30.953125 -1.421875 24.3125 -1.421875 
Q 15.921875 -1.421875 10.953125 3.296875 
Q 6 8.015625 6 15.921875 
Q 6 25.140625 12.171875 29.828125 
Q 18.359375 34.515625 30.609375 34.515625 
L 43.21875 34.515625 
L 43.21875 35.40625 
Q 43.21875 41.609375 39.140625 45 
Q 35.0625 48.390625 27.6875 48.390625 
Q 23 48.390625 18.546875 47.265625 
Q 14.109375 46.140625 10.015625 43.890625 
L 10.015625 52.203125 
Q 14.9375 54.109375 19.578125 55.046875 
Q 24.21875 56 28.609375 56 
Q 40.484375 56 46.34375 49.84375 
Q 52.203125 43.703125 52.203125 31.203125 
z
" id="DejaVuSans-97"/>
       <path d="M 44.28125 53.078125 
L 44.28125 44.578125 
Q 40.484375 46.53125 36.375 47.5 
Q 32.28125 48.484375 27.875 48.484375 
Q 21.1875 48.484375 17.84375 46.4375 
Q 14.5 44.390625 14.5 40.28125 
Q 14.5 37.15625 16.890625 35.375 
Q 19.28125 33.59375 26.515625 31.984375 
L 29.59375 31.296875 
Q 39.15625 29.25 43.1875 25.515625 
Q 47.21875 21.78125 47.21875 15.09375 
Q 47.21875 7.46875 41.1875 3.015625 
Q 35.15625 -1.421875 24.609375 -1.421875 
Q 20.21875 -1.421875 15.453125 -0.5625 
Q 10.6875 0.296875 5.421875 2 
L 5.421875 11.28125 
Q 10.40625 8.6875 15.234375 7.390625 
Q 20.0625 6.109375 24.8125 6.109375 
Q 31.15625 6.109375 34.5625 8.28125 
Q 37.984375 10.453125 37.984375 14.40625 
Q 37.984375 18.0625 35.515625 20.015625 
Q 33.0625 21.96875 24.703125 23.78125 
L 21.578125 24.515625 
Q 13.234375 26.265625 9.515625 29.90625 
Q 5.8125 33.546875 5.8125 39.890625 
Q 5.8125 47.609375 11.28125 51.796875 
Q 16.75 56 26.8125 56 
Q 31.78125 56 36.171875 55.265625 
Q 40.578125 54.546875 44.28125 53.078125 
z
" id="DejaVuSans-115"/>
       <path d="M 25.390625 72.90625 
L 33.6875 72.90625 
L 8.296875 -9.28125 
L 0 -9.28125 
z
" id="DejaVuSans-47"/>
       <path d="M 45.40625 46.390625 
L 45.40625 75.984375 
L 54.390625 75.984375 
L 54.390625 0 
L 45.40625 0 
L 45.40625 8.203125 
Q 42.578125 3.328125 38.25 0.953125 
Q 33.9375 -1.421875 27.875 -1.421875 
Q 17.96875 -1.421875 11.734375 6.484375 
Q 5.515625 14.40625 5.515625 27.296875 
Q 5.515625 40.1875 11.734375 48.09375 
Q 17.96875 56 27.875 56 
Q 33.9375 56 38.25 53.625 
Q 42.578125 51.265625 45.40625 46.390625 
z
M 14.796875 27.296875 
Q 14.796875 17.390625 18.875 11.75 
Q 22.953125 6.109375 30.078125 6.109375 
Q 37.203125 6.109375 41.296875 11.75 
Q 45.40625 17.390625 45.40625 27.296875 
Q 45.40625 37.203125 41.296875 42.84375 
Q 37.203125 48.484375 30.078125 48.484375 
Q 22.953125 48.484375 18.875 42.84375 
Q 14.796875 37.203125 14.796875 27.296875 
z
" id="DejaVuSans-100"/>
       <path d="M 9.421875 54.6875 
L 18.40625 54.6875 
L 18.40625 0 
L 9.421875 0 
z
M 9.421875 75.984375 
L 18.40625 75.984375 
L 18.40625 64.59375 
L 9.421875 64.59375 
z
" id="DejaVuSans-105"/>
       <path d="M 52 44.1875 
Q 55.375 50.25 60.0625 53.125 
Q 64.75 56 71.09375 56 
Q 79.640625 56 84.28125 50.015625 
Q 88.921875 44.046875 88.921875 33.015625 
L 88.921875 0 
L 79.890625 0 
L 79.890625 32.71875 
Q 79.890625 40.578125 77.09375 44.375 
Q 74.3125 48.1875 68.609375 48.1875 
Q 61.625 48.1875 57.5625 43.546875 
Q 53.515625 38.921875 53.515625 30.90625 
L 53.515625 0 
L 44.484375 0 
L 44.484375 32.71875 
Q 44.484375 40.625 41.703125 44.40625 
Q 38.921875 48.1875 33.109375 48.1875 
Q 26.21875 48.1875 22.15625 43.53125 
Q 18.109375 38.875 18.109375 30.90625 
L 18.109375 0 
L 9.078125 0 
L 9.078125 54.6875 
L 18.109375 54.6875 
L 18.109375 46.1875 
Q 21.1875 51.21875 25.484375 53.609375 
Q 29.78125 56 35.6875 56 
Q 41.65625 56 45.828125 52.96875 
Q 50 49.953125 52 44.1875 
z
" id="DejaVuSans-109"/>
       <path d="M 54.890625 33.015625 
L 54.890625 0 
L 45.90625 0 
L 45.90625 32.71875 
Q 45.90625 40.484375 42.875 44.328125 
Q 39.84375 48.1875 33.796875 48.1875 
Q 26.515625 48.1875 22.3125 43.546875 
Q 18.109375 38.921875 18.109375 30.90625 
L 18.109375 0 
L 9.078125 0 
L 9.078125 54.6875 
L 18.109375 54.6875 
L 18.109375 46.1875 
Q 21.34375 51.125 25.703125 53.5625 
Q 30.078125 56 35.796875 56 
Q 45.21875 56 50.046875 50.171875 
Q 54.890625 44.34375 54.890625 33.015625 
z
" id="DejaVuSans-110"/>
       <path d="M 8.015625 75.875 
L 15.828125 75.875 
Q 23.140625 64.359375 26.78125 53.3125 
Q 30.421875 42.28125 30.421875 31.390625 
Q 30.421875 20.453125 26.78125 9.375 
Q 23.140625 -1.703125 15.828125 -13.1875 
L 8.015625 -13.1875 
Q 14.5 -2 17.703125 9.0625 
Q 20.90625 20.125 20.90625 31.390625 
Q 20.90625 42.671875 17.703125 53.65625 
Q 14.5 64.65625 8.015625 75.875 
z
" id="DejaVuSans-41"/>
      </defs>
      <use xlink:href="#DejaVuSans-108"/>
      <use x="27.783203" xlink:href="#DejaVuSans-111"/>
      <use x="88.964844" xlink:href="#DejaVuSans-103"/>
      <use x="152.441406" xlink:href="#DejaVuSans-49"/>
      <use x="216.064453" xlink:href="#DejaVuSans-48"/>
      <use x="279.6875" xlink:href="#DejaVuSans-40"/>
      <use x="318.701172" xlink:href="#DejaVuSans-35"/>
      <use x="402.490234" xlink:href="#DejaVuSans-32"/>
      <use x="434.277344" xlink:href="#DejaVuSans-102"/>
      <use x="463.982422" xlink:href="#DejaVuSans-45"/>
      <use x="500.066406" xlink:href="#DejaVuSans-101"/>
      <use x="561.589844" xlink:href="#DejaVuSans-118"/>
      <use x="620.769531" xlink:href="#DejaVuSans-97"/>
      <use x="682.048828" xlink:href="#DejaVuSans-108"/>
      <use x="709.832031" xlink:href="#DejaVuSans-115"/>
      <use x="761.931641" xlink:href="#DejaVuSans-32"/>
      <use x="793.71875" xlink:href="#DejaVuSans-47"/>
      <use x="827.410156" xlink:href="#DejaVuSans-32"/>
      <use x="859.197266" xlink:href="#DejaVuSans-100"/>
      <use x="922.673828" xlink:href="#DejaVuSans-105"/>
      <use x="950.457031" xlink:href="#DejaVuSans-109"/>
      <use x="1047.869141" xlink:href="#DejaVuSans-101"/>
      <use x="1109.392578" xlink:href="#DejaVuSans-110"/>
      <use x="1172.771484" xlink:href="#DejaVuSans-115"/>
      <use x="1224.871094" xlink:href="#DejaVuSans-105"/>
      <use x="1252.654297" xlink:href="#DejaVuSans-111"/>
      <use x="1313.835938" xlink:href="#DejaVuSans-110"/>
      <use x="1377.214844" xlink:href="#DejaVuSans-41"/>
     </g>
    </g>
   </g>
   <g id="matplotlib.axis_2">
    <g id="ytick_1">
     <g id="line2d_17">
      <path clip-path="url(#pf9b02d990c)" d="M 57.6 298.944 
L 338.688 298.944 
" style="fill:none;stroke:#b0b0b0;stroke-linecap:square;stroke-width:0.8;"/>
     </g>
     <g id="line2d_18">
      <defs>
       <path d="M 0 0 
L -3.5 0 
" id="mad57ebbf14" style="stroke:#000000;stroke-width:0.8;"/>
      </defs>
      <g>
       <use style="stroke:#000000;stroke-width:0.8;" x="57.6" xlink:href="#mad57ebbf14" y="298.944"/>
      </g>
     </g>
     <g id="text_6">
      <!-- 0.0 -->
      <g transform="translate(25.155 305.02275)scale(0.16 -0.16)">
       <defs>
        <path d="M 10.6875 12.40625 
L 21 12.40625 
L 21 0 
L 10.6875 0 
z
" id="DejaVuSans-46"/>
       </defs>
       <use xlink:href="#DejaVuSans-48"/>
       <use x="63.623047" xlink:href="#DejaVuSans-46"/>
       <use x="95.410156" xlink:href="#DejaVuSans-48"/>
      </g>
     </g>
    </g>
    <g id="ytick_2">
     <g id="line2d_19">
      <path clip-path="url(#pf9b02d990c)" d="M 57.6 240.431525 
L 338.688 240.431525 
" style="fill:none;stroke:#b0b0b0;stroke-linecap:square;stroke-width:0.8;"/>
     </g>
     <g id="line2d_20">
      <g>
       <use style="stroke:#000000;stroke-width:0.8;" x="57.6" xlink:href="#mad57ebbf14" y="240.431525"/>
      </g>
     </g>
     <g id="text_7">
      <!-- 0.2 -->
      <g transform="translate(25.155 246.510275)scale(0.16 -0.16)">
       <use xlink:href="#DejaVuSans-48"/>
       <use x="63.623047" xlink:href="#DejaVuSans-46"/>
       <use x="95.410156" xlink:href="#DejaVuSans-50"/>
      </g>
     </g>
    </g>
    <g id="ytick_3">
     <g id="line2d_21">
      <path clip-path="url(#pf9b02d990c)" d="M 57.6 181.91905 
L 338.688 181.91905 
" style="fill:none;stroke:#b0b0b0;stroke-linecap:square;stroke-width:0.8;"/>
     </g>
     <g id="line2d_22">
      <g>
       <use style="stroke:#000000;stroke-width:0.8;" x="57.6" xlink:href="#mad57ebbf14" y="181.91905"/>
      </g>
     </g>
     <g id="text_8">
      <!-- 0.4 -->
      <g transform="translate(25.155 187.9978)scale(0.16 -0.16)">
       <use xlink:href="#DejaVuSans-48"/>
       <use x="63.623047" xlink:href="#DejaVuSans-46"/>
       <use x="95.410156" xlink:href="#DejaVuSans-52"/>
      </g>
     </g>
    </g>
    <g id="ytick_4">
     <g id="line2d_23">
      <path clip-path="url(#pf9b02d990c)" d="M 57.6 123.406574 
L 338.688 123.406574 
" style="fill:none;stroke:#b0b0b0;stroke-linecap:square;stroke-width:0.8;"/>
     </g>
     <g id="line2d_24">
      <g>
       <use style="stroke:#000000;stroke-width:0.8;" x="57.6" xlink:href="#mad57ebbf14" y="123.406574"/>
      </g>
     </g>
     <g id="text_9">
      <!-- 0.6 -->
      <g transform="translate(25.155 129.485324)scale(0.16 -0.16)">
       <use xlink:href="#DejaVuSans-48"/>
       <use x="63.623047" xlink:href="#DejaVuSans-46"/>
       <use x="95.410156" xlink:href="#DejaVuSans-54"/>
      </g>
     </g>
    </g>
    <g id="ytick_5">
     <g id="line2d_25">
      <path clip-path="url(#pf9b02d990c)" d="M 57.6 64.894099 
L 338.688 64.894099 
" style="fill:none;stroke:#b0b0b0;stroke-linecap:square;stroke-width:0.8;"/>
     </g>
     <g id="line2d_26">
      <g>
       <use style="stroke:#000000;stroke-width:0.8;" x="57.6" xlink:href="#mad57ebbf14" y="64.894099"/>
      </g>
     </g>
     <g id="text_10">
      <!-- 0.8 -->
      <g transform="translate(25.155 70.972849)scale(0.16 -0.16)">
       <defs>
        <path d="M 31.78125 34.625 
Q 24.75 34.625 20.71875 30.859375 
Q 16.703125 27.09375 16.703125 20.515625 
Q 16.703125 13.921875 20.71875 10.15625 
Q 24.75 6.390625 31.78125 6.390625 
Q 38.8125 6.390625 42.859375 10.171875 
Q 46.921875 13.96875 46.921875 20.515625 
Q 46.921875 27.09375 42.890625 30.859375 
Q 38.875 34.625 31.78125 34.625 
z
M 21.921875 38.8125 
Q 15.578125 40.375 12.03125 44.71875 
Q 8.5 49.078125 8.5 55.328125 
Q 8.5 64.0625 14.71875 69.140625 
Q 20.953125 74.21875 31.78125 74.21875 
Q 42.671875 74.21875 48.875 69.140625 
Q 55.078125 64.0625 55.078125 55.328125 
Q 55.078125 49.078125 51.53125 44.71875 
Q 48 40.375 41.703125 38.8125 
Q 48.828125 37.15625 52.796875 32.3125 
Q 56.78125 27.484375 56.78125 20.515625 
Q 56.78125 9.90625 50.3125 4.234375 
Q 43.84375 -1.421875 31.78125 -1.421875 
Q 19.734375 -1.421875 13.25 4.234375 
Q 6.78125 9.90625 6.78125 20.515625 
Q 6.78125 27.484375 10.78125 32.3125 
Q 14.796875 37.15625 21.921875 38.8125 
z
M 18.3125 54.390625 
Q 18.3125 48.734375 21.84375 45.5625 
Q 25.390625 42.390625 31.78125 42.390625 
Q 38.140625 42.390625 41.71875 45.5625 
Q 45.3125 48.734375 45.3125 54.390625 
Q 45.3125 60.0625 41.71875 63.234375 
Q 38.140625 66.40625 31.78125 66.40625 
Q 25.390625 66.40625 21.84375 63.234375 
Q 18.3125 60.0625 18.3125 54.390625 
z
" id="DejaVuSans-56"/>
       </defs>
       <use xlink:href="#DejaVuSans-48"/>
       <use x="63.623047" xlink:href="#DejaVuSans-46"/>
       <use x="95.410156" xlink:href="#DejaVuSans-56"/>
      </g>
     </g>
    </g>
    <g id="ytick_6">
     <g id="line2d_27">
      <path clip-path="url(#pf9b02d990c)" d="M 57.6 6.381624 
L 338.688 6.381624 
" style="fill:none;stroke:#b0b0b0;stroke-linecap:square;stroke-width:0.8;"/>
     </g>
     <g id="line2d_28">
      <g>
       <use style="stroke:#000000;stroke-width:0.8;" x="57.6" xlink:href="#mad57ebbf14" y="6.381624"/>
      </g>
     </g>
     <g id="text_11">
      <!-- 1.0 -->
      <g transform="translate(25.155 12.460374)scale(0.16 -0.16)">
       <use xlink:href="#DejaVuSans-49"/>
       <use x="63.623047" xlink:href="#DejaVuSans-46"/>
       <use x="95.410156" xlink:href="#DejaVuSans-48"/>
      </g>
     </g>
    </g>
    <g id="text_12">
     <!-- Fraction of function,target pairs -->
     <g transform="translate(17.619531 285.585)rotate(-90)scale(0.17 -0.17)">
      <defs>
       <path d="M 9.8125 72.90625 
L 51.703125 72.90625 
L 51.703125 64.59375 
L 19.671875 64.59375 
L 19.671875 43.109375 
L 48.578125 43.109375 
L 48.578125 34.8125 
L 19.671875 34.8125 
L 19.671875 0 
L 9.8125 0 
z
" id="DejaVuSans-70"/>
       <path d="M 41.109375 46.296875 
Q 39.59375 47.171875 37.8125 47.578125 
Q 36.03125 48 33.890625 48 
Q 26.265625 48 22.1875 43.046875 
Q 18.109375 38.09375 18.109375 28.8125 
L 18.109375 0 
L 9.078125 0 
L 9.078125 54.6875 
L 18.109375 54.6875 
L 18.109375 46.1875 
Q 20.953125 51.171875 25.484375 53.578125 
Q 30.03125 56 36.53125 56 
Q 37.453125 56 38.578125 55.875 
Q 39.703125 55.765625 41.0625 55.515625 
z
" id="DejaVuSans-114"/>
       <path d="M 48.78125 52.59375 
L 48.78125 44.1875 
Q 44.96875 46.296875 41.140625 47.34375 
Q 37.3125 48.390625 33.40625 48.390625 
Q 24.65625 48.390625 19.8125 42.84375 
Q 14.984375 37.3125 14.984375 27.296875 
Q 14.984375 17.28125 19.8125 11.734375 
Q 24.65625 6.203125 33.40625 6.203125 
Q 37.3125 6.203125 41.140625 7.25 
Q 44.96875 8.296875 48.78125 10.40625 
L 48.78125 2.09375 
Q 45.015625 0.34375 40.984375 -0.53125 
Q 36.96875 -1.421875 32.421875 -1.421875 
Q 20.0625 -1.421875 12.78125 6.34375 
Q 5.515625 14.109375 5.515625 27.296875 
Q 5.515625 40.671875 12.859375 48.328125 
Q 20.21875 56 33.015625 56 
Q 37.15625 56 41.109375 55.140625 
Q 45.0625 54.296875 48.78125 52.59375 
z
" id="DejaVuSans-99"/>
       <path d="M 18.3125 70.21875 
L 18.3125 54.6875 
L 36.8125 54.6875 
L 36.8125 47.703125 
L 18.3125 47.703125 
L 18.3125 18.015625 
Q 18.3125 11.328125 20.140625 9.421875 
Q 21.96875 7.515625 27.59375 7.515625 
L 36.8125 7.515625 
L 36.8125 0 
L 27.59375 0 
Q 17.1875 0 13.234375 3.875 
Q 9.28125 7.765625 9.28125 18.015625 
L 9.28125 47.703125 
L 2.6875 47.703125 
L 2.6875 54.6875 
L 9.28125 54.6875 
L 9.28125 70.21875 
z
" id="DejaVuSans-116"/>
       <path d="M 8.5 21.578125 
L 8.5 54.6875 
L 17.484375 54.6875 
L 17.484375 21.921875 
Q 17.484375 14.15625 20.5 10.265625 
Q 23.53125 6.390625 29.59375 6.390625 
Q 36.859375 6.390625 41.078125 11.03125 
Q 45.3125 15.671875 45.3125 23.6875 
L 45.3125 54.6875 
L 54.296875 54.6875 
L 54.296875 0 
L 45.3125 0 
L 45.3125 8.40625 
Q 42.046875 3.421875 37.71875 1 
Q 33.40625 -1.421875 27.6875 -1.421875 
Q 18.265625 -1.421875 13.375 4.4375 
Q 8.5 10.296875 8.5 21.578125 
z
M 31.109375 56 
z
" id="DejaVuSans-117"/>
       <path d="M 11.71875 12.40625 
L 22.015625 12.40625 
L 22.015625 4 
L 14.015625 -11.625 
L 7.71875 -11.625 
L 11.71875 4 
z
" id="DejaVuSans-44"/>
       <path d="M 18.109375 8.203125 
L 18.109375 -20.796875 
L 9.078125 -20.796875 
L 9.078125 54.6875 
L 18.109375 54.6875 
L 18.109375 46.390625 
Q 20.953125 51.265625 25.265625 53.625 
Q 29.59375 56 35.59375 56 
Q 45.5625 56 51.78125 48.09375 
Q 58.015625 40.1875 58.015625 27.296875 
Q 58.015625 14.40625 51.78125 6.484375 
Q 45.5625 -1.421875 35.59375 -1.421875 
Q 29.59375 -1.421875 25.265625 0.953125 
Q 20.953125 3.328125 18.109375 8.203125 
z
M 48.6875 27.296875 
Q 48.6875 37.203125 44.609375 42.84375 
Q 40.53125 48.484375 33.40625 48.484375 
Q 26.265625 48.484375 22.1875 42.84375 
Q 18.109375 37.203125 18.109375 27.296875 
Q 18.109375 17.390625 22.1875 11.75 
Q 26.265625 6.109375 33.40625 6.109375 
Q 40.53125 6.109375 44.609375 11.75 
Q 48.6875 17.390625 48.6875 27.296875 
z
" id="DejaVuSans-112"/>
      </defs>
      <use xlink:href="#DejaVuSans-70"/>
      <use x="50.269531" xlink:href="#DejaVuSans-114"/>
      <use x="91.382812" xlink:href="#DejaVuSans-97"/>
      <use x="152.662109" xlink:href="#DejaVuSans-99"/>
      <use x="207.642578" xlink:href="#DejaVuSans-116"/>
      <use x="246.851562" xlink:href="#DejaVuSans-105"/>
      <use x="274.634766" xlink:href="#DejaVuSans-111"/>
      <use x="335.816406" xlink:href="#DejaVuSans-110"/>
      <use x="399.195312" xlink:href="#DejaVuSans-32"/>
      <use x="430.982422" xlink:href="#DejaVuSans-111"/>
      <use x="492.164062" xlink:href="#DejaVuSans-102"/>
      <use x="527.369141" xlink:href="#DejaVuSans-32"/>
      <use x="559.15625" xlink:href="#DejaVuSans-102"/>
      <use x="594.361328" xlink:href="#DejaVuSans-117"/>
      <use x="657.740234" xlink:href="#DejaVuSans-110"/>
      <use x="721.119141" xlink:href="#DejaVuSans-99"/>
      <use x="776.099609" xlink:href="#DejaVuSans-116"/>
      <use x="815.308594" xlink:href="#DejaVuSans-105"/>
      <use x="843.091797" xlink:href="#DejaVuSans-111"/>
      <use x="904.273438" xlink:href="#DejaVuSans-110"/>
      <use x="967.652344" xlink:href="#DejaVuSans-44"/>
      <use x="999.439453" xlink:href="#DejaVuSans-116"/>
      <use x="1038.648438" xlink:href="#DejaVuSans-97"/>
      <use x="1099.927734" xlink:href="#DejaVuSans-114"/>
      <use x="1139.291016" xlink:href="#DejaVuSans-103"/>
      <use x="1202.767578" xlink:href="#DejaVuSans-101"/>
      <use x="1264.291016" xlink:href="#DejaVuSans-116"/>
      <use x="1303.5" xlink:href="#DejaVuSans-32"/>
      <use x="1335.287109" xlink:href="#DejaVuSans-112"/>
      <use x="1398.763672" xlink:href="#DejaVuSans-97"/>
      <use x="1460.042969" xlink:href="#DejaVuSans-105"/>
      <use x="1487.826172" xlink:href="#DejaVuSans-114"/>
      <use x="1528.939453" xlink:href="#DejaVuSans-115"/>
     </g>
    </g>
   </g>
   <g id="line2d_29">
    <defs>
     <path d="M 0 1.5 
C 0.397805 1.5 0.77937 1.341951 1.06066 1.06066 
C 1.341951 0.77937 1.5 0.397805 1.5 0 
C 1.5 -0.397805 1.341951 -0.77937 1.06066 -1.06066 
C 0.77937 -1.341951 0.397805 -1.5 0 -1.5 
C -0.397805 -1.5 -0.77937 -1.341951 -1.06066 -1.06066 
C -1.341951 -0.77937 -1.5 -0.397805 -1.5 0 
C -1.5 0.397805 -1.341951 0.77937 -1.06066 1.06066 
C -0.77937 1.341951 -0.397805 1.5 0 1.5 
z
" id="m483f53eb9e" style="stroke:#000080;"/>
    </defs>
    <g>
     <use style="fill:#000080;stroke:#000080;" x="255.581527" xlink:href="#m483f53eb9e" y="152.662812"/>
     <use style="fill:#000080;stroke:#000080;" x="255.581527" xlink:href="#m483f53eb9e" y="152.662812"/>
    </g>
   </g>
   <g id="line2d_30">
    <path d="M 38.440992 298.944 
L 38.440992 297.935164 
L 102.330873 297.935164 
L 102.330873 297.430746 
L 117.857331 297.430746 
L 117.857331 296.926328 
L 119.097192 296.926328 
L 119.097192 296.421911 
L 120.254726 296.421911 
L 120.254726 295.917493 
L 121.340187 295.917493 
L 121.340187 295.413075 
L 123.327293 295.413075 
L 123.327293 294.404239 
L 124.241922 294.404239 
L 124.241922 293.899821 
L 125.110962 293.899821 
L 125.110962 292.890985 
L 125.938745 292.890985 
L 125.938745 291.88215 
L 126.729009 291.88215 
L 126.729009 291.377732 
L 127.48501 291.377732 
L 127.48501 290.873314 
L 128.209594 290.873314 
L 128.209594 290.368896 
L 128.905271 290.368896 
L 128.905271 289.864478 
L 129.574256 289.864478 
L 129.574256 288.855642 
L 130.218525 288.855642 
L 130.218525 288.351224 
L 130.839837 288.351224 
L 130.839837 287.846806 
L 132.019755 287.846806 
L 132.019755 287.342389 
L 132.581068 287.342389 
L 132.581068 286.837971 
L 133.124876 286.837971 
L 133.124876 285.829135 
L 134.661403 285.829135 
L 134.661403 284.315881 
L 135.615352 284.315881 
L 135.615352 283.811463 
L 136.073445 283.811463 
L 136.073445 283.307045 
L 137.37967 283.307045 
L 137.37967 282.802628 
L 138.199116 282.802628 
L 138.199116 282.29821 
L 138.594838 282.29821 
L 138.594838 281.793792 
L 138.981779 281.793792 
L 138.981779 281.289374 
L 139.360321 281.289374 
L 139.360321 280.784956 
L 139.730821 280.784956 
L 139.730821 280.280538 
L 140.093612 280.280538 
L 140.093612 279.271702 
L 140.44901 279.271702 
L 140.44901 278.767284 
L 140.79731 278.767284 
L 140.79731 277.758449 
L 141.47371 277.758449 
L 141.47371 277.254031 
L 141.80232 277.254031 
L 141.80232 276.245195 
L 142.124852 276.245195 
L 142.124852 275.236359 
L 142.752555 275.236359 
L 142.752555 274.731941 
L 144.229555 274.731941 
L 144.229555 274.227523 
L 146.854132 274.227523 
L 146.854132 273.218688 
L 148.258051 273.218688 
L 148.258051 272.71427 
L 149.557321 272.71427 
L 149.557321 272.209852 
L 152.811246 272.209852 
L 152.860649 270.696598 
L 153.632638 270.696598 
L 153.632638 270.19218 
L 154.05232 270.19218 
L 154.05232 269.687762 
L 154.752243 269.687762 
L 154.752243 269.183344 
L 155.361158 269.183344 
L 155.361158 268.678927 
L 155.845906 268.678927 
L 155.949527 266.661255 
L 157.262567 266.661255 
L 157.262567 266.156837 
L 158.907277 266.156837 
L 158.907277 265.148001 
L 160.297798 265.148001 
L 160.297798 264.643583 
L 160.442124 264.643583 
L 160.442124 264.139166 
L 161.88218 264.139166 
L 161.88218 263.634748 
L 162.630514 263.634748 
L 162.630514 263.13033 
L 163.185069 263.13033 
L 163.185069 262.121494 
L 163.762182 262.121494 
L 163.762182 261.617076 
L 163.998206 261.617076 
L 163.998206 260.60824 
L 164.737701 260.60824 
L 164.737701 260.103822 
L 164.973287 260.103822 
L 164.973287 259.599405 
L 165.18141 259.599405 
L 165.18141 258.590569 
L 165.471066 258.590569 
L 165.471066 258.086151 
L 165.744209 258.086151 
L 165.744209 257.581733 
L 165.966667 257.581733 
L 166.02474 255.564061 
L 166.266556 255.564061 
L 166.266556 255.059644 
L 166.729224 255.059644 
L 166.729224 254.555226 
L 167.06015 254.555226 
L 167.103803 252.537554 
L 167.819196 252.537554 
L 167.840107 251.528718 
L 167.985782 251.528718 
L 168.01684 249.511047 
L 168.293904 249.511047 
L 168.293904 247.997793 
L 168.70639 247.997793 
L 168.70639 247.493375 
L 169.244833 247.493375 
L 169.350555 246.484539 
L 169.388841 246.484539 
L 169.388841 244.971286 
L 170.036379 244.971286 
L 170.036379 243.96245 
L 170.526891 243.96245 
L 170.526891 242.953614 
L 170.65184 242.953614 
L 170.65184 241.944778 
L 171.24632 241.944778 
L 171.24632 240.431525 
L 171.8212 240.431525 
L 171.8212 237.909435 
L 172.385786 237.909435 
L 172.385786 236.9006 
L 172.641546 236.9006 
L 172.641546 235.891764 
L 173.545979 235.891764 
L 173.545979 235.387346 
L 174.065485 235.387346 
L 174.13117 233.874092 
L 174.527289 233.874092 
L 174.534408 232.360839 
L 177.390674 232.360839 
L 177.390674 231.352003 
L 178.10693 231.352003 
L 178.10693 230.847585 
L 178.37169 230.847585 
L 178.37169 230.343167 
L 179.071482 230.343167 
L 179.071482 229.838749 
L 179.505048 229.838749 
L 179.505048 228.829913 
L 180.161626 228.829913 
L 180.161626 227.821078 
L 180.274668 227.821078 
L 180.274668 227.31666 
L 180.493521 227.31666 
L 180.493521 226.307824 
L 182.439337 226.307824 
L 182.439337 225.803406 
L 183.065806 225.803406 
L 183.065806 224.79457 
L 187.842184 224.79457 
L 187.842184 223.785734 
L 188.050013 223.785734 
L 188.076227 222.272481 
L 188.183948 222.272481 
L 188.183948 221.768063 
L 188.566961 221.768063 
L 188.566961 221.263645 
L 199.770147 221.263645 
L 199.770147 220.759227 
L 200.33852 220.759227 
L 200.33852 220.254809 
L 200.975119 220.254809 
L 200.975119 219.750391 
L 201.261867 219.750391 
L 201.323251 218.237138 
L 201.392051 218.237138 
L 201.404254 216.219466 
L 201.518242 216.219466 
L 201.518242 215.715048 
L 201.676583 215.715048 
L 201.763435 214.706212 
L 202.140236 214.706212 
L 202.140236 213.697377 
L 202.391311 213.697377 
L 202.391311 212.688541 
L 202.55766 212.688541 
L 202.55766 212.184123 
L 206.368155 212.184123 
L 206.368155 211.679705 
L 207.658988 211.679705 
L 207.658988 211.175287 
L 208.143283 211.175287 
L 208.143283 210.166451 
L 209.214179 210.166451 
L 209.214179 209.662033 
L 211.315585 209.662033 
L 211.315585 209.157616 
L 214.933697 209.157616 
L 214.933697 208.653198 
L 218.724213 208.653198 
L 218.724213 208.14878 
L 219.466704 208.14878 
L 219.466704 207.644362 
L 219.735254 207.644362 
L 219.735254 206.635526 
L 219.961893 206.635526 
L 219.961893 206.131108 
L 220.281965 206.131108 
L 220.281965 205.62669 
L 221.27096 205.62669 
L 221.27096 205.122272 
L 222.070807 205.122272 
L 222.070807 204.113437 
L 222.330391 204.113437 
L 222.330391 203.609019 
L 222.504509 203.609019 
L 222.611496 202.600183 
L 222.914811 202.600183 
L 222.914811 202.095765 
L 223.2535 202.095765 
L 223.2535 201.086929 
L 223.627144 201.086929 
L 223.627144 200.582511 
L 224.271706 200.582511 
L 224.271706 200.078094 
L 224.3974 200.078094 
L 224.3974 199.069258 
L 225.573368 199.069258 
L 225.573368 198.56484 
L 226.743268 198.56484 
L 226.743268 197.556004 
L 227.179951 197.556004 
L 227.179951 197.051586 
L 227.310233 197.051586 
L 227.310233 196.04275 
L 227.606305 196.04275 
L 227.606305 195.538333 
L 227.937775 195.538333 
L 227.937775 195.033915 
L 228.270577 195.033915 
L 228.270577 194.529497 
L 229.276651 194.529497 
L 229.276651 194.025079 
L 233.121361 194.025079 
L 233.121361 193.520661 
L 233.302731 193.520661 
L 233.302731 192.511825 
L 234.037635 192.511825 
L 234.068824 191.502989 
L 235.655765 191.502989 
L 235.723019 189.989736 
L 235.768136 189.989736 
L 235.832629 188.476482 
L 235.901526 188.476482 
L 235.901526 187.972064 
L 236.047922 187.972064 
L 236.047922 187.467646 
L 236.208029 187.467646 
L 236.208029 186.458811 
L 236.319379 186.458811 
L 236.319379 185.954393 
L 236.453948 185.954393 
L 236.453948 184.945557 
L 236.565165 184.945557 
L 236.565165 184.441139 
L 237.240452 184.441139 
L 237.240452 183.936721 
L 237.893009 183.936721 
L 237.893009 182.927885 
L 238.236201 182.927885 
L 238.236201 182.423467 
L 239.071202 182.423467 
L 239.071202 181.91905 
L 241.360476 181.91905 
L 241.458907 175.361617 
L 241.528396 175.361617 
L 241.63105 173.343945 
L 241.701068 173.343945 
L 241.745177 171.830692 
L 241.823302 171.830692 
L 241.902126 170.317438 
L 241.944537 170.317438 
L 242.038548 169.308602 
L 242.187742 169.308602 
L 242.187742 168.804184 
L 242.35025 168.804184 
L 242.35025 167.795349 
L 242.627675 167.795349 
L 242.627675 166.786513 
L 242.86259 166.786513 
L 242.86259 166.282095 
L 243.032976 166.282095 
L 243.032976 165.777677 
L 243.264604 165.777677 
L 243.264604 165.273259 
L 243.748446 165.273259 
L 243.748446 164.768841 
L 244.357056 164.768841 
L 244.413464 163.255588 
L 244.552855 163.255588 
L 244.552855 162.246752 
L 244.709862 162.246752 
L 244.709862 161.742334 
L 245.037819 161.742334 
L 245.039818 160.733498 
L 247.791178 160.733498 
L 247.791178 159.724662 
L 248.20813 159.724662 
L 248.20813 159.220244 
L 250.116976 159.220244 
L 250.116976 157.706991 
L 252.676665 157.706991 
L 252.676665 156.193737 
L 255.18307 156.193737 
L 255.183559 154.176066 
L 255.346577 154.176066 
L 255.346577 153.16723 
L 255.581527 153.16723 
L 255.581527 152.662812 
L 338.688 152.662812 
L 338.688 152.662812 
" style="fill:none;stroke:#000080;stroke-linecap:square;stroke-width:1.5;"/>
   </g>
   <g id="line2d_31">
    <defs>
     <path d="M 0 6 
C 1.591219 6 3.117479 5.367802 4.242641 4.242641 
C 5.367802 3.117479 6 1.591219 6 0 
C 6 -1.591219 5.367802 -3.117479 4.242641 -4.242641 
C 3.117479 -5.367802 1.591219 -6 0 -6 
C -1.591219 -6 -3.117479 -5.367802 -4.242641 -4.242641 
C -5.367802 -3.117479 -6 -1.591219 -6 0 
C -6 1.591219 -5.367802 3.117479 -4.242641 4.242641 
C -3.117479 5.367802 -1.591219 6 0 6 
z
" id="m30acd70216" style="stroke:#000080;stroke-width:1.5;"/>
    </defs>
    <g>
     <use style="fill-opacity:0;stroke:#000080;stroke-width:1.5;" x="158.907277" xlink:href="#m30acd70216" y="266.156837"/>
     <use style="fill-opacity:0;stroke:#000080;stroke-width:1.5;" x="202.391311" xlink:href="#m30acd70216" y="212.688541"/>
     <use style="fill-opacity:0;stroke:#000080;stroke-width:1.5;" x="245.039818" xlink:href="#m30acd70216" y="160.733498"/>
     <use style="fill-opacity:0;stroke:#000080;stroke-width:1.5;" x="255.581527" xlink:href="#m30acd70216" y="152.662812"/>
     <use style="fill-opacity:0;stroke:#000080;stroke-width:1.5;" x="338.688" xlink:href="#m30acd70216" y="152.662812"/>
    </g>
   </g>
   <g id="line2d_32">
    <path style="fill:none;stroke:#000080;stroke-linecap:square;stroke-width:1.5;"/>
    <g/>
   </g>
   <g id="line2d_33">
    <path clip-path="url(#pf9b02d990c)" d="M 258.377143 152.662812 
" style="fill:none;stroke:#000080;stroke-linecap:square;stroke-width:1.5;"/>
    <defs>
     <path d="M -12 12 
L 12 -12 
M -12 -12 
L 12 12 
" id="mdbcd569e5e" style="stroke:#000080;"/>
    </defs>
    <g clip-path="url(#pf9b02d990c)">
     <use style="fill:#000080;stroke:#000080;" x="258.377143" xlink:href="#mdbcd569e5e" y="152.662812"/>
    </g>
   </g>
   <g id="line2d_34">
    <defs>
     <path d="M 0 1.5 
C 0.397805 1.5 0.77937 1.341951 1.06066 1.06066 
C 1.341951 0.77937 1.5 0.397805 1.5 0 
C 1.5 -0.397805 1.341951 -0.77937 1.06066 -1.06066 
C 0.77937 -1.341951 0.397805 -1.5 0 -1.5 
C -0.397805 -1.5 -0.77937 -1.341951 -1.06066 -1.06066 
C -1.341951 -0.77937 -1.5 -0.397805 -1.5 0 
C -1.5 0.397805 -1.341951 0.77937 -1.06066 1.06066 
C -0.77937 1.341951 -0.397805 1.5 0 1.5 
z
" id="md460189996" style="stroke:#ff00ff;"/>
    </defs>
    <g>
     <use style="fill:#ff00ff;stroke:#ff00ff;" x="257.729003" xlink:href="#md460189996" y="114.83147"/>
     <use style="fill:#ff00ff;stroke:#ff00ff;" x="257.729003" xlink:href="#md460189996" y="114.83147"/>
    </g>
   </g>
   <g id="line2d_35">
    <path d="M 38.440992 298.944 
L 38.440992 297.430746 
L 93.863965 297.430746 
L 93.863965 296.926328 
L 94.575872 296.926328 
L 94.575872 295.917493 
L 98.880934 295.917493 
L 98.880934 295.413075 
L 102.330873 295.413075 
L 102.330873 293.899821 
L 105.209745 293.899821 
L 105.209745 292.890985 
L 107.680028 292.890985 
L 107.680028 292.386567 
L 109.843417 292.386567 
L 109.843417 291.88215 
L 111.767808 291.88215 
L 111.767808 290.873314 
L 116.522527 290.873314 
L 116.522527 289.864478 
L 117.857331 289.864478 
L 117.857331 289.36006 
L 119.097192 289.36006 
L 119.097192 288.855642 
L 121.340187 288.855642 
L 121.340187 287.846806 
L 125.110962 287.846806 
L 125.110962 287.342389 
L 125.938745 287.342389 
L 125.938745 286.837971 
L 136.955041 286.837971 
L 136.955041 286.333553 
L 143.611807 286.333553 
L 143.611807 285.829135 
L 145.365173 285.829135 
L 145.365173 285.324717 
L 146.395642 285.324717 
L 146.395642 284.820299 
L 147.4697 284.820299 
L 147.4697 284.315881 
L 156.498681 284.315881 
L 156.498681 283.811463 
L 157.185742 283.811463 
L 157.185742 283.307045 
L 157.883783 283.307045 
L 157.883783 282.802628 
L 158.231665 282.802628 
L 158.231665 282.29821 
L 158.608261 282.29821 
L 158.608261 281.793792 
L 158.976895 281.793792 
L 158.976895 281.289374 
L 160.569418 281.289374 
L 160.569418 280.784956 
L 160.789972 280.784956 
L 160.789972 280.280538 
L 161.007772 280.280538 
L 161.11566 279.271702 
L 161.435376 279.271702 
L 161.435376 278.262867 
L 161.852746 278.262867 
L 161.852746 277.758449 
L 162.260361 277.758449 
L 162.260361 277.254031 
L 162.559939 277.254031 
L 162.559939 276.749613 
L 162.951535 276.749613 
L 162.951535 275.740777 
L 164.037234 275.740777 
L 164.037234 275.236359 
L 165.578458 275.236359 
L 165.578458 274.731941 
L 166.96153 274.731941 
L 166.96153 274.227523 
L 167.587512 274.227523 
L 167.587512 273.723105 
L 169.060699 273.723105 
L 169.060699 273.218688 
L 169.897641 273.218688 
L 169.897641 272.209852 
L 170.767069 272.209852 
L 170.767069 271.201016 
L 171.51075 271.201016 
L 171.612043 269.183344 
L 172.158878 269.183344 
L 172.158878 268.174509 
L 172.442055 268.174509 
L 172.442055 267.670091 
L 172.62567 267.670091 
L 172.62567 266.661255 
L 173.409852 266.661255 
L 173.409852 266.156837 
L 174.781778 266.156837 
L 174.781778 265.148001 
L 178.331659 265.148001 
L 178.331659 264.643583 
L 180.068589 264.643583 
L 180.068589 264.139166 
L 181.20219 264.139166 
L 181.20219 263.13033 
L 181.883182 263.13033 
L 181.883182 262.625912 
L 182.316765 262.625912 
L 182.316765 262.121494 
L 184.469749 262.121494 
L 184.469749 261.617076 
L 184.800796 261.617076 
L 184.800796 261.112658 
L 184.930691 261.112658 
L 184.930691 260.60824 
L 185.156672 260.60824 
L 185.156672 259.599405 
L 192.712519 259.599405 
L 192.712519 258.590569 
L 192.92953 258.590569 
L 192.92953 258.086151 
L 194.794436 258.086151 
L 194.794436 257.581733 
L 194.936418 257.581733 
L 194.936418 257.077315 
L 196.809587 257.077315 
L 196.809587 256.068479 
L 198.763689 256.068479 
L 198.800905 255.059644 
L 199.107989 255.059644 
L 199.107989 254.555226 
L 199.337809 254.555226 
L 199.337809 254.050808 
L 200.822865 254.050808 
L 200.822865 253.54639 
L 201.395103 253.54639 
L 201.395103 253.041972 
L 203.027955 253.041972 
L 203.055718 252.033136 
L 203.224122 252.033136 
L 203.317285 250.519883 
L 203.418106 250.519883 
L 203.418106 250.015465 
L 203.971653 250.015465 
L 203.971653 249.006629 
L 204.300189 249.006629 
L 204.300189 248.502211 
L 205.361161 248.502211 
L 205.361161 247.997793 
L 206.959106 247.997793 
L 206.959106 247.493375 
L 207.380881 247.493375 
L 207.380881 246.988957 
L 209.356826 246.988957 
L 209.404117 245.475704 
L 209.773181 245.475704 
L 209.773181 244.971286 
L 210.158611 244.971286 
L 210.158611 243.96245 
L 211.257617 243.96245 
L 211.257617 243.458032 
L 212.756463 243.458032 
L 212.865865 241.440361 
L 213.002836 241.440361 
L 213.074825 239.927107 
L 213.643305 239.927107 
L 213.643305 239.422689 
L 215.797093 239.422689 
L 215.815787 235.891764 
L 216.070824 235.891764 
L 216.070824 235.387346 
L 216.578281 235.387346 
L 216.578281 234.882928 
L 217.389499 234.882928 
L 217.389499 234.37851 
L 218.46933 234.37851 
L 218.46933 232.865256 
L 219.240624 232.865256 
L 219.267471 231.856421 
L 219.475903 231.856421 
L 219.567089 229.838749 
L 219.74378 229.838749 
L 219.74378 229.334331 
L 220.610468 229.334331 
L 220.610468 228.325495 
L 223.619041 228.325495 
L 223.619041 227.821078 
L 225.111199 227.821078 
L 225.111199 227.31666 
L 227.11165 227.31666 
L 227.11165 226.307824 
L 227.377761 226.307824 
L 227.389793 224.79457 
L 228.42119 224.79457 
L 228.42119 224.290152 
L 228.969267 224.290152 
L 229.05537 220.759227 
L 229.226311 220.759227 
L 229.226929 219.750391 
L 229.34283 219.750391 
L 229.405391 218.741555 
L 229.554144 218.741555 
L 229.620489 217.228302 
L 229.720288 217.228302 
L 229.720288 216.723884 
L 229.852372 216.723884 
L 229.852372 215.715048 
L 229.995896 215.715048 
L 230.054687 214.706212 
L 230.33294 214.706212 
L 230.33294 214.201794 
L 230.744861 214.201794 
L 230.772338 211.679705 
L 230.921991 211.679705 
L 230.921991 211.175287 
L 231.122603 211.175287 
L 231.122603 210.166451 
L 231.285241 210.166451 
L 231.346698 208.14878 
L 231.753014 208.14878 
L 231.753014 207.644362 
L 232.08352 207.644362 
L 232.089295 206.635526 
L 233.297344 206.635526 
L 233.297344 206.131108 
L 233.626056 206.131108 
L 233.659668 204.617855 
L 234.176501 204.617855 
L 234.176501 204.113437 
L 234.420447 204.113437 
L 234.420447 203.104601 
L 234.913519 203.104601 
L 234.9808 202.095765 
L 235.064649 202.095765 
L 235.064649 201.591347 
L 235.346933 201.591347 
L 235.346933 201.086929 
L 235.57751 201.086929 
L 235.686969 198.060422 
L 235.71769 198.060422 
L 235.780459 196.04275 
L 235.866689 196.04275 
L 235.866689 195.538333 
L 235.997442 195.538333 
L 236.013796 193.520661 
L 236.202639 193.520661 
L 236.295887 190.998572 
L 236.477636 190.998572 
L 236.502514 189.485318 
L 236.603701 189.485318 
L 236.714776 185.954393 
L 236.787299 185.954393 
L 236.787299 184.945557 
L 236.91792 184.945557 
L 236.91792 184.441139 
L 237.029984 184.441139 
L 237.131113 183.432303 
L 237.266022 183.432303 
L 237.266022 182.927885 
L 237.468666 182.927885 
L 237.572466 181.414632 
L 237.934167 181.414632 
L 237.945614 180.405796 
L 238.227528 180.405796 
L 238.227528 179.39696 
L 238.603507 179.39696 
L 238.603507 178.892542 
L 239.169411 178.892542 
L 239.250019 176.874871 
L 239.729385 176.874871 
L 239.807789 175.361617 
L 239.912341 175.361617 
L 239.924068 172.33511 
L 240.093729 172.33511 
L 240.11362 168.804184 
L 241.392835 168.804184 
L 241.392835 168.299766 
L 243.23194 168.299766 
L 243.318864 162.246752 
L 243.5594 162.246752 
L 243.649716 160.733498 
L 244.141684 160.733498 
L 244.141684 159.724662 
L 245.078617 159.724662 
L 245.138456 158.211409 
L 245.196977 158.211409 
L 245.273303 150.64514 
L 246.29485 150.64514 
L 246.380298 148.123051 
L 247.060559 148.123051 
L 247.060559 147.618633 
L 247.252706 147.618633 
L 247.305213 145.600961 
L 247.602426 145.600961 
L 247.602426 145.096544 
L 248.25348 145.096544 
L 248.347752 141.0612 
L 248.37707 141.0612 
L 248.443162 139.547947 
L 248.522513 139.547947 
L 248.522513 139.043529 
L 248.735497 139.043529 
L 248.812123 137.530275 
L 248.913337 137.530275 
L 248.913337 137.025857 
L 249.101654 137.025857 
L 249.101654 136.521439 
L 249.22431 136.521439 
L 249.22431 136.017022 
L 249.356059 136.017022 
L 249.383438 135.008186 
L 249.615646 135.008186 
L 249.615646 133.99935 
L 249.927572 133.99935 
L 249.927572 132.990514 
L 250.166474 132.990514 
L 250.166474 132.486096 
L 250.372552 132.486096 
L 250.372552 131.981678 
L 250.574132 131.981678 
L 250.574132 131.47726 
L 250.843569 131.47726 
L 250.843569 130.468425 
L 250.957272 130.468425 
L 250.994949 127.946335 
L 251.267102 127.946335 
L 251.334439 125.928664 
L 251.38911 125.928664 
L 251.426647 121.388903 
L 253.646222 121.388903 
L 253.72921 118.362395 
L 253.797978 118.362395 
L 253.797978 117.857977 
L 253.922477 117.857977 
L 253.922477 117.35356 
L 254.405493 117.35356 
L 254.405493 116.344724 
L 255.952855 116.344724 
L 255.952855 115.840306 
L 257.729003 115.840306 
L 257.729003 114.83147 
L 338.688 114.83147 
L 338.688 114.83147 
" style="fill:none;stroke:#ff00ff;stroke-linecap:square;stroke-width:1.5;"/>
   </g>
   <g id="line2d_36">
    <defs>
     <path d="M -0 8.485281 
L 5.091169 0 
L 0 -8.485281 
L -5.091169 -0 
z
" id="m0356407538" style="stroke:#ff00ff;stroke-linejoin:miter;stroke-width:1.5;"/>
    </defs>
    <g>
     <use style="fill-opacity:0;stroke:#ff00ff;stroke-linejoin:miter;stroke-width:1.5;" x="125.938745" xlink:href="#m0356407538" y="287.342389"/>
     <use style="fill-opacity:0;stroke:#ff00ff;stroke-linejoin:miter;stroke-width:1.5;" x="211.257617" xlink:href="#m0356407538" y="243.96245"/>
     <use style="fill-opacity:0;stroke:#ff00ff;stroke-linejoin:miter;stroke-width:1.5;" x="239.807789" xlink:href="#m0356407538" y="175.361617"/>
     <use style="fill-opacity:0;stroke:#ff00ff;stroke-linejoin:miter;stroke-width:1.5;" x="257.729003" xlink:href="#m0356407538" y="114.83147"/>
     <use style="fill-opacity:0;stroke:#ff00ff;stroke-linejoin:miter;stroke-width:1.5;" x="257.729003" xlink:href="#m0356407538" y="114.83147"/>
     <use style="fill-opacity:0;stroke:#ff00ff;stroke-linejoin:miter;stroke-width:1.5;" x="338.688" xlink:href="#m0356407538" y="114.83147"/>
    </g>
   </g>
   <g id="line2d_37">
    <path style="fill:none;stroke:#ff00ff;stroke-linecap:square;stroke-width:1.5;"/>
    <g/>
   </g>
   <g id="line2d_38">
    <path clip-path="url(#pf9b02d990c)" d="M 258.377085 114.83147 
" style="fill:none;stroke:#ff00ff;stroke-linecap:square;stroke-width:1.5;"/>
    <defs>
     <path d="M -12 12 
L 12 -12 
M -12 -12 
L 12 12 
" id="m1122f13489" style="stroke:#ff00ff;"/>
    </defs>
    <g clip-path="url(#pf9b02d990c)">
     <use style="fill:#ff00ff;stroke:#ff00ff;" x="258.377085" xlink:href="#m1122f13489" y="114.83147"/>
    </g>
   </g>
   <g id="line2d_39">
    <defs>
     <path d="M 0 1.5 
C 0.397805 1.5 0.77937 1.341951 1.06066 1.06066 
C 1.341951 0.77937 1.5 0.397805 1.5 0 
C 1.5 -0.397805 1.341951 -0.77937 1.06066 -1.06066 
C 0.77937 -1.341951 0.397805 -1.5 0 -1.5 
C -0.397805 -1.5 -0.77937 -1.341951 -1.06066 -1.06066 
C -1.341951 -0.77937 -1.5 -0.397805 -1.5 0 
C -1.5 0.397805 -1.341951 0.77937 -1.06066 1.06066 
C -0.77937 1.341951 -0.397805 1.5 0 1.5 
z
" id="mce05729eaa" style="stroke:#ff7500;"/>
    </defs>
    <g>
     <use style="fill:#ff7500;stroke:#ff7500;" x="255.730264" xlink:href="#mce05729eaa" y="82.044307"/>
     <use style="fill:#ff7500;stroke:#ff7500;" x="255.730264" xlink:href="#mce05729eaa" y="82.044307"/>
    </g>
   </g>
   <g id="line2d_40">
    <path d="M 38.440992 298.944 
L 38.440992 296.926328 
L 102.330873 296.926328 
L 102.330873 296.421911 
L 111.767808 296.421911 
L 111.767808 295.917493 
L 113.500792 295.917493 
L 113.500792 295.413075 
L 117.857331 295.413075 
L 117.857331 294.404239 
L 120.254726 294.404239 
L 120.254726 292.386567 
L 121.340187 292.386567 
L 121.340187 290.873314 
L 122.362027 290.873314 
L 122.362027 289.864478 
L 123.327293 289.864478 
L 123.327293 288.855642 
L 124.241922 288.855642 
L 124.241922 288.351224 
L 125.110962 288.351224 
L 125.110962 287.846806 
L 125.938745 287.846806 
L 125.938745 286.837971 
L 126.729009 286.837971 
L 126.729009 285.829135 
L 127.48501 285.829135 
L 127.48501 284.820299 
L 128.209594 284.820299 
L 128.209594 283.811463 
L 128.905271 283.811463 
L 128.905271 282.802628 
L 129.574256 282.802628 
L 129.574256 282.29821 
L 130.218525 282.29821 
L 130.218525 281.289374 
L 131.439773 281.289374 
L 131.439773 279.77612 
L 132.019755 279.77612 
L 132.019755 279.271702 
L 132.581068 279.271702 
L 132.581068 276.245195 
L 133.124876 276.245195 
L 133.124876 275.236359 
L 133.652238 275.236359 
L 133.652238 274.227523 
L 134.164119 274.227523 
L 134.164119 273.723105 
L 135.144899 273.723105 
L 135.144899 272.71427 
L 136.955041 272.71427 
L 136.955041 272.209852 
L 138.981779 272.209852 
L 138.981779 270.696598 
L 139.360321 270.696598 
L 139.360321 269.183344 
L 139.730821 269.183344 
L 139.730821 266.661255 
L 142.124852 266.661255 
L 142.124852 265.652419 
L 145.059213 265.652419 
L 145.059213 264.643583 
L 145.212864 264.643583 
L 145.212864 264.139166 
L 148.48143 264.139166 
L 148.48143 263.13033 
L 149.497598 263.13033 
L 149.497598 262.625912 
L 149.998846 262.625912 
L 149.998846 262.121494 
L 153.418948 262.121494 
L 153.418948 261.112658 
L 154.752243 261.112658 
L 154.752243 260.60824 
L 154.994001 260.60824 
L 154.994001 259.599405 
L 155.573575 259.599405 
L 155.573575 259.094987 
L 155.804285 259.094987 
L 155.804285 258.590569 
L 156.216093 258.590569 
L 156.256744 257.077315 
L 156.478647 257.077315 
L 156.478647 256.572897 
L 158.412011 256.572897 
L 158.412011 255.564061 
L 161.450455 255.564061 
L 161.465522 253.54639 
L 161.823263 253.54639 
L 161.823263 252.537554 
L 162.909996 252.537554 
L 162.909996 251.528718 
L 163.293895 251.528718 
L 163.293895 250.015465 
L 164.256762 250.015465 
L 164.256762 249.006629 
L 164.42279 249.006629 
L 164.42279 247.997793 
L 165.157053 247.997793 
L 165.157053 246.988957 
L 166.08262 246.988957 
L 166.08262 246.484539 
L 166.706937 246.484539 
L 166.706937 245.980122 
L 167.212459 245.980122 
L 167.212459 244.971286 
L 168.546579 244.971286 
L 168.546579 243.96245 
L 169.953269 243.96245 
L 170.063995 242.953614 
L 174.014225 242.953614 
L 174.014225 241.944778 
L 175.523695 241.944778 
L 175.523695 241.440361 
L 175.664362 241.440361 
L 175.664362 240.431525 
L 176.517133 240.431525 
L 176.517133 239.927107 
L 177.402755 239.927107 
L 177.402755 239.422689 
L 178.135904 239.422689 
L 178.135904 238.918271 
L 178.530902 238.918271 
L 178.530902 237.909435 
L 178.845031 237.909435 
L 178.845031 237.405017 
L 179.229898 237.405017 
L 179.229898 236.9006 
L 179.537135 236.9006 
L 179.537135 236.396182 
L 179.839052 236.396182 
L 179.839052 235.387346 
L 180.140994 235.387346 
L 180.140994 234.882928 
L 183.54787 234.882928 
L 183.54787 234.37851 
L 184.148709 234.37851 
L 184.148709 233.874092 
L 188.791538 233.874092 
L 188.857412 232.360839 
L 191.317886 232.360839 
L 191.317886 231.856421 
L 191.787325 231.856421 
L 191.787325 230.343167 
L 191.979474 230.343167 
L 191.979474 229.838749 
L 192.187645 229.838749 
L 192.187645 229.334331 
L 192.337029 229.334331 
L 192.337029 228.829913 
L 192.502937 228.829913 
L 192.510556 227.31666 
L 192.872422 227.31666 
L 192.872422 225.803406 
L 193.062882 225.803406 
L 193.062882 224.79457 
L 193.430448 224.79457 
L 193.430448 223.281316 
L 193.731338 223.281316 
L 193.731338 222.776899 
L 194.418415 222.776899 
L 194.418415 222.272481 
L 194.675976 222.272481 
L 194.675976 221.768063 
L 196.781782 221.768063 
L 196.785757 220.759227 
L 197.840201 220.759227 
L 197.86637 218.741555 
L 199.274178 218.741555 
L 199.274178 217.73272 
L 199.831997 217.73272 
L 199.831997 216.723884 
L 199.998071 216.723884 
L 199.998071 216.219466 
L 200.255658 216.219466 
L 200.255658 215.715048 
L 200.446784 215.715048 
L 200.446784 214.706212 
L 200.745445 214.706212 
L 200.745445 214.201794 
L 200.882669 214.201794 
L 200.882669 213.192959 
L 201.087279 213.192959 
L 201.087279 212.688541 
L 201.324783 212.688541 
L 201.324783 212.184123 
L 201.898837 212.184123 
L 201.898837 211.679705 
L 202.044959 211.679705 
L 202.044959 210.670869 
L 202.234995 210.670869 
L 202.234995 210.166451 
L 202.487586 210.166451 
L 202.487586 209.662033 
L 202.74222 209.662033 
L 202.843603 208.14878 
L 202.913663 208.14878 
L 202.990405 206.635526 
L 203.153921 206.635526 
L 203.153921 206.131108 
L 203.377303 206.131108 
L 203.377303 205.62669 
L 208.643712 205.62669 
L 208.643712 205.122272 
L 209.000462 205.122272 
L 209.045777 204.113437 
L 211.338029 204.113437 
L 211.338029 203.609019 
L 211.458383 203.609019 
L 211.458383 203.104601 
L 211.578763 203.104601 
L 211.578763 202.600183 
L 211.754842 202.600183 
L 211.858973 201.086929 
L 211.915814 201.086929 
L 211.97247 200.078094 
L 212.046346 200.078094 
L 212.046346 199.573676 
L 212.175909 199.573676 
L 212.175909 198.56484 
L 212.315122 198.56484 
L 212.420024 196.04275 
L 212.484764 196.04275 
L 212.560527 194.025079 
L 213.4579 194.025079 
L 213.4579 193.016243 
L 215.017027 193.016243 
L 215.118722 191.502989 
L 215.594175 191.502989 
L 215.594175 190.494154 
L 216.468068 190.494154 
L 216.468068 189.989736 
L 217.318015 189.989736 
L 217.318015 189.485318 
L 217.709694 189.485318 
L 217.709694 188.476482 
L 218.151234 188.476482 
L 218.151234 187.972064 
L 218.728166 187.972064 
L 218.728166 187.467646 
L 219.344495 187.467646 
L 219.344495 186.458811 
L 219.468869 186.458811 
L 219.548243 183.936721 
L 220.060521 183.936721 
L 220.060521 183.432303 
L 220.362359 183.432303 
L 220.362359 182.927885 
L 220.953784 182.927885 
L 220.953784 181.91905 
L 221.520997 181.91905 
L 221.520997 180.910214 
L 224.180658 180.910214 
L 224.283618 178.892542 
L 224.419008 178.892542 
L 224.422268 177.379288 
L 224.72275 177.379288 
L 224.72275 176.874871 
L 224.983859 176.874871 
L 224.983859 175.866035 
L 225.328738 175.866035 
L 225.328738 175.361617 
L 225.716927 175.361617 
L 225.788266 173.848363 
L 226.191515 173.848363 
L 226.251408 171.830692 
L 226.415333 171.830692 
L 226.415333 171.326274 
L 227.130843 171.326274 
L 227.130843 170.821856 
L 227.680812 170.821856 
L 227.680812 170.317438 
L 228.398178 170.317438 
L 228.398178 169.308602 
L 228.772934 169.308602 
L 228.799578 168.299766 
L 229.49577 168.299766 
L 229.507643 166.786513 
L 229.687487 166.786513 
L 229.72119 165.777677 
L 229.850283 165.777677 
L 229.896773 164.768841 
L 230.400441 164.768841 
L 230.498475 163.760005 
L 230.809095 163.760005 
L 230.866901 161.742334 
L 231.172467 161.742334 
L 231.172467 161.237916 
L 231.357102 161.237916 
L 231.357102 160.733498 
L 231.940107 160.733498 
L 232.01776 159.220244 
L 232.118927 159.220244 
L 232.118927 158.715827 
L 232.652268 158.715827 
L 232.652268 158.211409 
L 233.086694 158.211409 
L 233.128286 157.202573 
L 233.228885 157.202573 
L 233.314478 155.689319 
L 233.451919 155.689319 
L 233.498703 154.176066 
L 233.585395 154.176066 
L 233.585395 153.671648 
L 234.339202 153.671648 
L 234.441329 152.158394 
L 234.580898 152.158394 
L 234.617717 150.64514 
L 234.910393 150.64514 
L 234.910393 150.140722 
L 235.333864 150.140722 
L 235.333864 149.636305 
L 235.459141 149.636305 
L 235.459141 149.131887 
L 236.506793 149.131887 
L 236.571864 148.123051 
L 236.976125 148.123051 
L 236.976125 147.114215 
L 237.267583 147.114215 
L 237.267583 146.105379 
L 237.716755 146.105379 
L 237.716755 145.600961 
L 238.31021 145.600961 
L 238.31021 145.096544 
L 238.475137 145.096544 
L 238.475137 144.592126 
L 239.339957 144.592126 
L 239.356748 142.070036 
L 239.854259 142.070036 
L 239.854259 141.0612 
L 240.194113 141.0612 
L 240.283425 139.043529 
L 240.357096 139.043529 
L 240.357096 138.539111 
L 240.555273 138.539111 
L 240.555273 138.034693 
L 240.676316 138.034693 
L 240.71429 135.512604 
L 240.885031 135.512604 
L 240.932357 133.99935 
L 241.033227 133.99935 
L 241.101142 132.990514 
L 241.242863 132.990514 
L 241.242863 132.486096 
L 241.38606 132.486096 
L 241.452464 130.972843 
L 241.673973 130.972843 
L 241.691991 127.946335 
L 241.78767 127.946335 
L 241.893601 126.937499 
L 242.17288 126.937499 
L 242.189949 124.919828 
L 242.426587 124.919828 
L 242.52944 123.406574 
L 242.749588 123.406574 
L 242.854664 121.893321 
L 242.887053 121.893321 
L 242.887053 121.388903 
L 243.202406 121.388903 
L 243.202406 120.884485 
L 243.59105 120.884485 
L 243.682284 117.35356 
L 243.765788 117.35356 
L 243.828288 115.840306 
L 243.918825 115.840306 
L 243.918825 115.335888 
L 244.064588 115.335888 
L 244.064588 114.83147 
L 244.192761 114.83147 
L 244.192761 113.822634 
L 244.525735 113.822634 
L 244.619385 112.813799 
L 244.890176 112.813799 
L 244.890176 111.804963 
L 245.226781 111.804963 
L 245.226781 110.796127 
L 245.363646 110.796127 
L 245.363646 110.291709 
L 245.536023 110.291709 
L 245.536023 109.282873 
L 245.97073 109.282873 
L 245.97073 108.778455 
L 246.242354 108.778455 
L 246.242354 108.274038 
L 246.362362 108.274038 
L 246.445406 101.212187 
L 246.762598 101.212187 
L 246.762598 100.707769 
L 247.142898 100.707769 
L 247.142898 100.203351 
L 247.873969 100.203351 
L 247.873969 99.698933 
L 249.534179 99.698933 
L 249.534179 99.194516 
L 250.27449 99.194516 
L 250.27449 98.690098 
L 251.720914 98.690098 
L 251.773116 96.168008 
L 251.861013 96.168008 
L 251.91987 94.654755 
L 252.275174 94.654755 
L 252.275174 94.150337 
L 252.397152 94.150337 
L 252.397152 93.645919 
L 252.765267 93.645919 
L 252.860681 92.132665 
L 253.153951 92.132665 
L 253.153951 91.123829 
L 253.634705 91.123829 
L 253.714786 85.070815 
L 253.977999 85.070815 
L 253.977999 84.566397 
L 254.392787 84.566397 
L 254.392787 84.061979 
L 254.899705 84.061979 
L 254.899705 83.557561 
L 255.415397 83.557561 
L 255.415397 82.548725 
L 255.730264 82.548725 
L 255.730264 82.044307 
L 338.688 82.044307 
L 338.688 82.044307 
" style="fill:none;stroke:#ff7500;stroke-linecap:square;stroke-width:1.5;"/>
   </g>
   <g id="line2d_41">
    <defs>
     <path d="M 0 -6 
L -1.347084 -1.854102 
L -5.706339 -1.854102 
L -2.179628 0.708204 
L -3.526712 4.854102 
L -0 2.291796 
L 3.526712 4.854102 
L 2.179628 0.708204 
L 5.706339 -1.854102 
L 1.347084 -1.854102 
z
" id="m70a2004f96" style="stroke:#ff7500;stroke-linejoin:bevel;stroke-width:1.5;"/>
    </defs>
    <g>
     <use style="fill-opacity:0;stroke:#ff7500;stroke-linejoin:bevel;stroke-width:1.5;" x="126.729009" xlink:href="#m70a2004f96" y="285.829135"/>
     <use style="fill-opacity:0;stroke:#ff7500;stroke-linejoin:bevel;stroke-width:1.5;" x="188.857412" xlink:href="#m70a2004f96" y="232.360839"/>
     <use style="fill-opacity:0;stroke:#ff7500;stroke-linejoin:bevel;stroke-width:1.5;" x="242.189949" xlink:href="#m70a2004f96" y="124.919828"/>
     <use style="fill-opacity:0;stroke:#ff7500;stroke-linejoin:bevel;stroke-width:1.5;" x="255.730264" xlink:href="#m70a2004f96" y="82.044307"/>
     <use style="fill-opacity:0;stroke:#ff7500;stroke-linejoin:bevel;stroke-width:1.5;" x="255.730264" xlink:href="#m70a2004f96" y="82.044307"/>
     <use style="fill-opacity:0;stroke:#ff7500;stroke-linejoin:bevel;stroke-width:1.5;" x="338.688" xlink:href="#m70a2004f96" y="82.044307"/>
    </g>
   </g>
   <g id="line2d_42">
    <path style="fill:none;stroke:#ff7500;stroke-linecap:square;stroke-width:1.5;"/>
    <g/>
   </g>
   <g id="line2d_43">
    <path clip-path="url(#pf9b02d990c)" d="M 258.377143 82.044307 
" style="fill:none;stroke:#ff7500;stroke-linecap:square;stroke-width:1.5;"/>
    <defs>
     <path d="M -12 12 
L 12 -12 
M -12 -12 
L 12 12 
" id="mcc51396ccb" style="stroke:#ff7500;"/>
    </defs>
    <g clip-path="url(#pf9b02d990c)">
     <use style="fill:#ff7500;stroke:#ff7500;" x="258.377143" xlink:href="#mcc51396ccb" y="82.044307"/>
    </g>
   </g>
   <g id="line2d_44">
    <defs>
     <path d="M 0 1.5 
C 0.397805 1.5 0.77937 1.341951 1.06066 1.06066 
C 1.341951 0.77937 1.5 0.397805 1.5 0 
C 1.5 -0.397805 1.341951 -0.77937 1.06066 -1.06066 
C 0.77937 -1.341951 0.397805 -1.5 0 -1.5 
C -0.397805 -1.5 -0.77937 -1.341951 -1.06066 -1.06066 
C -1.341951 -0.77937 -1.5 -0.397805 -1.5 0 
C -1.5 0.397805 -1.341951 0.77937 -1.06066 1.06066 
C -0.77937 1.341951 -0.397805 1.5 0 1.5 
z
" id="m0e12984e4f" style="stroke:#6495ed;"/>
    </defs>
    <g>
     <use style="fill:#6495ed;stroke:#6495ed;" x="257.454454" xlink:href="#m0e12984e4f" y="103.734277"/>
     <use style="fill:#6495ed;stroke:#6495ed;" x="257.454454" xlink:href="#m0e12984e4f" y="103.734277"/>
    </g>
   </g>
   <g id="line2d_45">
    <path d="M 38.440992 298.944 
L 38.440992 294.908657 
L 98.880934 294.908657 
L 98.880934 294.404239 
L 102.330873 294.404239 
L 102.330873 293.899821 
L 105.209745 293.899821 
L 105.209745 292.890985 
L 107.680028 292.890985 
L 107.680028 292.386567 
L 109.843417 292.386567 
L 109.843417 291.88215 
L 111.767808 291.88215 
L 111.767808 290.873314 
L 113.500792 290.873314 
L 113.500792 290.368896 
L 115.077025 290.368896 
L 115.077025 288.855642 
L 116.522527 288.855642 
L 116.522527 288.351224 
L 119.097192 288.351224 
L 119.097192 287.846806 
L 131.439773 287.846806 
L 131.439773 287.342389 
L 132.581068 287.342389 
L 132.581068 286.837971 
L 145.998045 286.837971 
L 145.998045 286.333553 
L 146.431341 286.333553 
L 146.431341 285.829135 
L 153.442821 285.829135 
L 153.442821 285.324717 
L 155.720743 285.324717 
L 155.720743 284.820299 
L 156.776762 284.820299 
L 156.776762 284.315881 
L 157.050478 284.315881 
L 157.050478 283.811463 
L 157.319964 283.811463 
L 157.319964 283.307045 
L 159.0116 283.307045 
L 159.0116 282.802628 
L 159.490356 282.802628 
L 159.490356 282.29821 
L 159.956318 282.29821 
L 159.956318 281.793792 
L 160.410154 281.793792 
L 160.410154 281.289374 
L 160.961329 281.289374 
L 160.961329 280.784956 
L 161.405178 280.784956 
L 161.405178 280.280538 
L 161.615474 280.280538 
L 161.70483 279.271702 
L 161.823263 279.271702 
L 161.926237 278.262867 
L 162.130378 278.262867 
L 162.130378 277.758449 
L 164.923954 277.758449 
L 164.923954 277.254031 
L 165.435121 277.254031 
L 165.435121 276.749613 
L 166.013141 276.749613 
L 166.013141 276.245195 
L 168.566635 276.245195 
L 168.566635 275.740777 
L 174.907643 275.740777 
L 174.907643 275.236359 
L 175.307139 275.236359 
L 175.307139 274.731941 
L 175.942337 274.731941 
L 175.942337 274.227523 
L 177.891015 274.227523 
L 177.973027 273.218688 
L 178.066286 273.218688 
L 178.066286 272.71427 
L 178.822779 272.71427 
L 178.822779 272.209852 
L 179.137208 272.209852 
L 179.137208 271.201016 
L 179.435323 271.201016 
L 179.435323 270.696598 
L 180.05822 270.696598 
L 180.05822 270.19218 
L 181.124314 270.19218 
L 181.124314 269.687762 
L 182.592473 269.687762 
L 182.592473 269.183344 
L 183.256781 269.183344 
L 183.256781 268.174509 
L 183.988015 268.174509 
L 183.988015 267.670091 
L 184.725567 267.670091 
L 184.725567 266.661255 
L 185.117918 266.661255 
L 185.117918 266.156837 
L 185.368293 266.156837 
L 185.368293 265.652419 
L 185.854792 265.652419 
L 185.854792 265.148001 
L 186.032405 265.148001 
L 186.032405 264.643583 
L 187.07904 264.643583 
L 187.07904 264.139166 
L 189.390822 264.139166 
L 189.390822 263.13033 
L 189.664987 263.13033 
L 189.673953 261.617076 
L 192.939443 261.617076 
L 192.939443 261.112658 
L 195.443771 261.112658 
L 195.443771 260.60824 
L 195.642225 260.60824 
L 195.745886 259.094987 
L 195.909637 259.094987 
L 195.953462 257.581733 
L 197.671033 257.581733 
L 197.671033 257.077315 
L 202.88147 257.077315 
L 202.88147 256.572897 
L 203.543992 256.572897 
L 203.543992 256.068479 
L 203.761132 256.068479 
L 203.828935 253.54639 
L 204.20825 253.54639 
L 204.20825 252.537554 
L 206.220705 252.537554 
L 206.220705 252.033136 
L 206.474509 252.033136 
L 206.474509 251.528718 
L 208.049785 251.528718 
L 208.049785 251.0243 
L 210.392403 251.0243 
L 210.45513 249.511047 
L 210.52396 249.511047 
L 210.586215 248.502211 
L 210.647352 248.502211 
L 210.647352 247.997793 
L 211.344066 247.997793 
L 211.344066 246.988957 
L 214.206283 246.988957 
L 214.206283 245.980122 
L 215.706676 245.980122 
L 215.739548 244.466868 
L 216.041865 244.466868 
L 216.041865 243.458032 
L 216.335145 243.458032 
L 216.404314 241.944778 
L 216.482204 241.944778 
L 216.582752 240.935943 
L 216.664301 240.935943 
L 216.664301 240.431525 
L 217.318627 240.431525 
L 217.391938 238.918271 
L 217.50254 238.918271 
L 217.599197 237.405017 
L 217.634103 237.405017 
L 217.677938 234.882928 
L 217.796876 234.882928 
L 217.796876 233.874092 
L 219.17305 233.874092 
L 219.185706 232.865256 
L 219.439079 232.865256 
L 219.446666 231.352003 
L 223.288314 231.352003 
L 223.386723 229.838749 
L 223.624585 229.838749 
L 223.640357 227.31666 
L 223.849989 227.31666 
L 223.849989 226.307824 
L 224.061706 226.307824 
L 224.168262 224.290152 
L 224.179832 224.290152 
L 224.220267 222.776899 
L 224.900031 222.776899 
L 224.900031 221.768063 
L 225.322162 221.768063 
L 225.342655 219.750391 
L 225.539012 219.750391 
L 225.630097 217.73272 
L 225.792409 217.73272 
L 225.876562 216.219466 
L 225.947999 216.219466 
L 226.047001 214.201794 
L 226.504134 214.201794 
L 226.516783 212.688541 
L 226.892758 212.688541 
L 226.964033 210.670869 
L 227.069701 210.670869 
L 227.069701 209.662033 
L 227.435436 209.662033 
L 227.461464 208.14878 
L 228.302239 208.14878 
L 228.302239 207.139944 
L 230.077382 207.139944 
L 230.077382 206.635526 
L 233.849082 206.635526 
L 233.953404 205.62669 
L 234.180459 205.62669 
L 234.180459 205.122272 
L 234.361795 205.122272 
L 234.430547 202.600183 
L 234.667367 202.600183 
L 234.753859 201.591347 
L 234.820412 201.591347 
L 234.892747 200.078094 
L 234.967899 200.078094 
L 235.016785 199.069258 
L 235.304859 199.069258 
L 235.304859 198.56484 
L 235.552997 198.56484 
L 235.619361 197.051586 
L 235.709589 197.051586 
L 235.774298 196.04275 
L 235.860559 196.04275 
L 235.860559 195.538333 
L 236.065901 195.538333 
L 236.065901 195.033915 
L 236.246328 195.033915 
L 236.246328 194.025079 
L 236.406885 194.025079 
L 236.406885 193.520661 
L 236.793913 193.520661 
L 236.876483 191.502989 
L 236.962237 191.502989 
L 236.962237 190.494154 
L 237.111052 190.494154 
L 237.111052 189.989736 
L 237.25373 189.989736 
L 237.25373 188.9809 
L 237.513914 188.9809 
L 237.541199 187.972064 
L 237.770273 187.972064 
L 237.770273 187.467646 
L 238.318659 187.467646 
L 238.412422 186.458811 
L 239.051493 186.458811 
L 239.107217 184.441139 
L 239.190035 184.441139 
L 239.190035 183.936721 
L 239.697857 183.936721 
L 239.732095 182.927885 
L 240.003605 182.927885 
L 240.003605 181.91905 
L 240.315551 181.91905 
L 240.315551 181.414632 
L 240.493301 181.414632 
L 240.493301 180.405796 
L 241.057255 180.405796 
L 241.104273 179.39696 
L 241.296506 179.39696 
L 241.296506 178.892542 
L 241.424058 178.892542 
L 241.424058 177.883706 
L 241.612513 177.883706 
L 241.612513 177.379288 
L 241.793388 177.379288 
L 241.846417 176.370453 
L 242.089802 176.370453 
L 242.108873 174.352781 
L 242.51963 174.352781 
L 242.61103 172.839527 
L 242.656908 172.839527 
L 242.678373 170.317438 
L 242.826753 170.317438 
L 242.826753 169.81302 
L 243.051603 169.81302 
L 243.051603 169.308602 
L 243.275387 169.308602 
L 243.287958 168.299766 
L 243.408786 168.299766 
L 243.408786 167.290931 
L 243.822932 167.290931 
L 243.822932 166.786513 
L 244.102981 166.786513 
L 244.102981 166.282095 
L 244.319219 166.282095 
L 244.319219 165.777677 
L 244.440113 165.777677 
L 244.440113 165.273259 
L 244.622967 165.273259 
L 244.622967 164.264423 
L 244.836808 164.264423 
L 244.836808 163.760005 
L 245.133115 163.760005 
L 245.219613 161.742334 
L 245.298671 161.742334 
L 245.298671 161.237916 
L 245.505892 161.237916 
L 245.609795 157.706991 
L 245.620067 157.706991 
L 245.652896 154.176066 
L 245.928883 154.176066 
L 245.928883 153.16723 
L 246.092027 153.16723 
L 246.092027 152.662812 
L 246.255872 152.662812 
L 246.348231 149.636305 
L 246.600612 149.636305 
L 246.600612 149.131887 
L 246.876055 149.131887 
L 246.984199 148.123051 
L 247.149872 148.123051 
L 247.149872 147.114215 
L 247.439167 147.114215 
L 247.500012 145.600961 
L 247.647655 145.600961 
L 247.705527 144.087708 
L 248.076408 144.087708 
L 248.185724 141.0612 
L 248.216148 141.0612 
L 248.268224 139.547947 
L 248.388 139.547947 
L 248.441107 138.034693 
L 248.65691 138.034693 
L 248.682773 136.521439 
L 248.867768 136.521439 
L 248.867768 135.512604 
L 249.132991 135.512604 
L 249.193628 134.503768 
L 249.589399 134.503768 
L 249.589399 133.494932 
L 250.39976 133.494932 
L 250.39976 132.990514 
L 251.537655 132.990514 
L 251.537655 132.486096 
L 252.190672 132.486096 
L 252.190672 131.981678 
L 252.320728 131.981678 
L 252.336269 129.459589 
L 252.697449 129.459589 
L 252.697449 128.450753 
L 252.99931 128.450753 
L 253.064469 120.884485 
L 253.327746 120.884485 
L 253.350251 118.866813 
L 254.378389 118.866813 
L 254.483064 114.83147 
L 254.496649 114.83147 
L 254.496649 113.822634 
L 255.017805 113.822634 
L 255.088635 112.813799 
L 255.280122 112.813799 
L 255.280122 111.804963 
L 256.844056 111.804963 
L 256.844056 111.300545 
L 257.416352 111.300545 
L 257.454454 103.734277 
L 338.688 103.734277 
L 338.688 103.734277 
" style="fill:none;stroke:#6495ed;stroke-linecap:square;stroke-width:1.5;"/>
   </g>
   <g id="line2d_46">
    <defs>
     <path d="M -0 6 
L 6 -6 
L -6 -6 
z
" id="m76ac02d119" style="stroke:#6495ed;stroke-linejoin:miter;stroke-width:1.5;"/>
    </defs>
    <g>
     <use style="fill-opacity:0;stroke:#6495ed;stroke-linejoin:miter;stroke-width:1.5;" x="119.097192" xlink:href="#m76ac02d119" y="288.351224"/>
     <use style="fill-opacity:0;stroke:#6495ed;stroke-linejoin:miter;stroke-width:1.5;" x="197.671033" xlink:href="#m76ac02d119" y="257.077315"/>
     <use style="fill-opacity:0;stroke:#6495ed;stroke-linejoin:miter;stroke-width:1.5;" x="241.612513" xlink:href="#m76ac02d119" y="177.379288"/>
     <use style="fill-opacity:0;stroke:#6495ed;stroke-linejoin:miter;stroke-width:1.5;" x="257.454454" xlink:href="#m76ac02d119" y="103.734277"/>
     <use style="fill-opacity:0;stroke:#6495ed;stroke-linejoin:miter;stroke-width:1.5;" x="257.454454" xlink:href="#m76ac02d119" y="103.734277"/>
     <use style="fill-opacity:0;stroke:#6495ed;stroke-linejoin:miter;stroke-width:1.5;" x="338.688" xlink:href="#m76ac02d119" y="103.734277"/>
    </g>
   </g>
   <g id="line2d_47">
    <path style="fill:none;stroke:#6495ed;stroke-linecap:square;stroke-width:1.5;"/>
    <g/>
   </g>
   <g id="line2d_48">
    <path clip-path="url(#pf9b02d990c)" d="M 258.377085 103.734277 
" style="fill:none;stroke:#6495ed;stroke-linecap:square;stroke-width:1.5;"/>
    <defs>
     <path d="M -12 12 
L 12 -12 
M -12 -12 
L 12 12 
" id="m2e629d0bae" style="stroke:#6495ed;"/>
    </defs>
    <g clip-path="url(#pf9b02d990c)">
     <use style="fill:#6495ed;stroke:#6495ed;" x="258.377085" xlink:href="#m2e629d0bae" y="103.734277"/>
    </g>
   </g>
   <g id="line2d_49">
    <path d="M 338.688 152.662812 
L 369.60768 293.092752 
" style="fill:none;stroke:#000080;stroke-linecap:square;stroke-width:1.5;"/>
    <g>
     <use style="fill-opacity:0;stroke:#000080;stroke-width:1.5;" x="338.688" xlink:href="#m30acd70216" y="152.662812"/>
     <use style="fill-opacity:0;stroke:#000080;stroke-width:1.5;" x="369.60768" xlink:href="#m30acd70216" y="293.092752"/>
    </g>
   </g>
   <g id="line2d_50">
    <path d="M 338.688 114.83147 
L 369.60768 199.472792 
" style="fill:none;stroke:#ff00ff;stroke-linecap:square;stroke-width:1.5;"/>
    <g>
     <use style="fill-opacity:0;stroke:#ff00ff;stroke-linejoin:miter;stroke-width:1.5;" x="338.688" xlink:href="#m0356407538" y="114.83147"/>
     <use style="fill-opacity:0;stroke:#ff00ff;stroke-linejoin:miter;stroke-width:1.5;" x="369.60768" xlink:href="#m0356407538" y="199.472792"/>
    </g>
   </g>
   <g id="line2d_51">
    <path d="M 338.688 103.734277 
L 369.60768 105.852832 
" style="fill:none;stroke:#6495ed;stroke-linecap:square;stroke-width:1.5;"/>
    <g>
     <use style="fill-opacity:0;stroke:#6495ed;stroke-linejoin:miter;stroke-width:1.5;" x="338.688" xlink:href="#m76ac02d119" y="103.734277"/>
     <use style="fill-opacity:0;stroke:#6495ed;stroke-linejoin:miter;stroke-width:1.5;" x="369.60768" xlink:href="#m76ac02d119" y="105.852832"/>
    </g>
   </g>
   <g id="line2d_52">
    <path d="M 338.688 82.044307 
L 369.60768 12.232871 
" style="fill:none;stroke:#ff7500;stroke-linecap:square;stroke-width:1.5;"/>
    <g>
     <use style="fill-opacity:0;stroke:#ff7500;stroke-linejoin:bevel;stroke-width:1.5;" x="338.688" xlink:href="#m70a2004f96" y="82.044307"/>
     <use style="fill-opacity:0;stroke:#ff7500;stroke-linejoin:bevel;stroke-width:1.5;" x="369.60768" xlink:href="#m70a2004f96" y="12.232871"/>
    </g>
   </g>
   <g id="line2d_53">
    <path d="M 338.688 298.944 
L 338.688 6.381624 
" style="fill:none;stroke:#000000;stroke-linecap:square;stroke-width:1.5;"/>
   </g>
   <g id="patch_3">
    <path d="M 57.6 298.944 
L 57.6 3.456 
" style="fill:none;stroke:#000000;stroke-linecap:square;stroke-linejoin:miter;stroke-width:0.8;"/>
   </g>
   <g id="patch_4">
    <path d="M 338.688 298.944 
L 338.688 3.456 
" style="fill:none;stroke:#000000;stroke-linecap:square;stroke-linejoin:miter;stroke-width:0.8;"/>
   </g>
   <g id="patch_5">
    <path d="M 57.6 298.944 
L 338.688 298.944 
" style="fill:none;stroke:#000000;stroke-linecap:square;stroke-linejoin:miter;stroke-width:0.8;"/>
   </g>
   <g id="patch_6">
    <path d="M 57.6 3.456 
L 338.688 3.456 
" style="fill:none;stroke:#000000;stroke-linecap:square;stroke-linejoin:miter;stroke-width:0.8;"/>
   </g>
   <g id="text_13">
    <!-- f39 -->
    <g transform="translate(375.22944 297.78369)scale(0.17 -0.17)">
     <defs>
      <path d="M 40.578125 39.3125 
Q 47.65625 37.796875 51.625 33 
Q 55.609375 28.21875 55.609375 21.1875 
Q 55.609375 10.40625 48.1875 4.484375 
Q 40.765625 -1.421875 27.09375 -1.421875 
Q 22.515625 -1.421875 17.65625 -0.515625 
Q 12.796875 0.390625 7.625 2.203125 
L 7.625 11.71875 
Q 11.71875 9.328125 16.59375 8.109375 
Q 21.484375 6.890625 26.8125 6.890625 
Q 36.078125 6.890625 40.9375 10.546875 
Q 45.796875 14.203125 45.796875 21.1875 
Q 45.796875 27.640625 41.28125 31.265625 
Q 36.765625 34.90625 28.71875 34.90625 
L 20.21875 34.90625 
L 20.21875 43.015625 
L 29.109375 43.015625 
Q 36.375 43.015625 40.234375 45.921875 
Q 44.09375 48.828125 44.09375 54.296875 
Q 44.09375 59.90625 40.109375 62.90625 
Q 36.140625 65.921875 28.71875 65.921875 
Q 24.65625 65.921875 20.015625 65.03125 
Q 15.375 64.15625 9.8125 62.3125 
L 9.8125 71.09375 
Q 15.4375 72.65625 20.34375 73.4375 
Q 25.25 74.21875 29.59375 74.21875 
Q 40.828125 74.21875 47.359375 69.109375 
Q 53.90625 64.015625 53.90625 55.328125 
Q 53.90625 49.265625 50.4375 45.09375 
Q 46.96875 40.921875 40.578125 39.3125 
z
" id="DejaVuSans-51"/>
      <path d="M 10.984375 1.515625 
L 10.984375 10.5 
Q 14.703125 8.734375 18.5 7.8125 
Q 22.3125 6.890625 25.984375 6.890625 
Q 35.75 6.890625 40.890625 13.453125 
Q 46.046875 20.015625 46.78125 33.40625 
Q 43.953125 29.203125 39.59375 26.953125 
Q 35.25 24.703125 29.984375 24.703125 
Q 19.046875 24.703125 12.671875 31.3125 
Q 6.296875 37.9375 6.296875 49.421875 
Q 6.296875 60.640625 12.9375 67.421875 
Q 19.578125 74.21875 30.609375 74.21875 
Q 43.265625 74.21875 49.921875 64.515625 
Q 56.59375 54.828125 56.59375 36.375 
Q 56.59375 19.140625 48.40625 8.859375 
Q 40.234375 -1.421875 26.421875 -1.421875 
Q 22.703125 -1.421875 18.890625 -0.6875 
Q 15.09375 0.046875 10.984375 1.515625 
z
M 30.609375 32.421875 
Q 37.25 32.421875 41.125 36.953125 
Q 45.015625 41.5 45.015625 49.421875 
Q 45.015625 57.28125 41.125 61.84375 
Q 37.25 66.40625 30.609375 66.40625 
Q 23.96875 66.40625 20.09375 61.84375 
Q 16.21875 57.28125 16.21875 49.421875 
Q 16.21875 41.5 20.09375 36.953125 
Q 23.96875 32.421875 30.609375 32.421875 
z
" id="DejaVuSans-57"/>
     </defs>
     <use xlink:href="#DejaVuSans-102"/>
     <use x="35.205078" xlink:href="#DejaVuSans-51"/>
     <use x="98.828125" xlink:href="#DejaVuSans-57"/>
    </g>
   </g>
   <g id="text_14">
    <!-- f40 -->
    <g transform="translate(375.22944 204.16373)scale(0.17 -0.17)">
     <use xlink:href="#DejaVuSans-102"/>
     <use x="35.205078" xlink:href="#DejaVuSans-52"/>
     <use x="98.828125" xlink:href="#DejaVuSans-48"/>
    </g>
   </g>
   <g id="text_15">
    <!-- f45 -->
    <g transform="translate(375.22944 110.543769)scale(0.17 -0.17)">
     <defs>
      <path d="M 10.796875 72.90625 
L 49.515625 72.90625 
L 49.515625 64.59375 
L 19.828125 64.59375 
L 19.828125 46.734375 
Q 21.96875 47.46875 24.109375 47.828125 
Q 26.265625 48.1875 28.421875 48.1875 
Q 40.625 48.1875 47.75 41.5 
Q 54.890625 34.8125 54.890625 23.390625 
Q 54.890625 11.625 47.5625 5.09375 
Q 40.234375 -1.421875 26.90625 -1.421875 
Q 22.3125 -1.421875 17.546875 -0.640625 
Q 12.796875 0.140625 7.71875 1.703125 
L 7.71875 11.625 
Q 12.109375 9.234375 16.796875 8.0625 
Q 21.484375 6.890625 26.703125 6.890625 
Q 35.15625 6.890625 40.078125 11.328125 
Q 45.015625 15.765625 45.015625 23.390625 
Q 45.015625 31 40.078125 35.4375 
Q 35.15625 39.890625 26.703125 39.890625 
Q 22.75 39.890625 18.8125 39.015625 
Q 14.890625 38.140625 10.796875 36.28125 
z
" id="DejaVuSans-53"/>
     </defs>
     <use xlink:href="#DejaVuSans-102"/>
     <use x="35.205078" xlink:href="#DejaVuSans-52"/>
     <use x="98.828125" xlink:href="#DejaVuSans-53"/>
    </g>
   </g>
   <g id="text_16">
    <!-- f44 -->
    <g transform="translate(375.22944 16.923809)scale(0.17 -0.17)">
     <use xlink:href="#DejaVuSans-102"/>
     <use x="35.205078" xlink:href="#DejaVuSans-52"/>
     <use x="98.828125" xlink:href="#DejaVuSans-52"/>
    </g>
   </g>
   <g id="text_17">
    <!-- bbob-biobj -->
    <g transform="translate(60.41088 14.161286)scale(0.102 -0.102)">
     <defs>
      <path d="M 48.6875 27.296875 
Q 48.6875 37.203125 44.609375 42.84375 
Q 40.53125 48.484375 33.40625 48.484375 
Q 26.265625 48.484375 22.1875 42.84375 
Q 18.109375 37.203125 18.109375 27.296875 
Q 18.109375 17.390625 22.1875 11.75 
Q 26.265625 6.109375 33.40625 6.109375 
Q 40.53125 6.109375 44.609375 11.75 
Q 48.6875 17.390625 48.6875 27.296875 
z
M 18.109375 46.390625 
Q 20.953125 51.265625 25.265625 53.625 
Q 29.59375 56 35.59375 56 
Q 45.5625 56 51.78125 48.09375 
Q 58.015625 40.1875 58.015625 27.296875 
Q 58.015625 14.40625 51.78125 6.484375 
Q 45.5625 -1.421875 35.59375 -1.421875 
Q 29.59375 -1.421875 25.265625 0.953125 
Q 20.953125 3.328125 18.109375 8.203125 
L 18.109375 0 
L 9.078125 0 
L 9.078125 75.984375 
L 18.109375 75.984375 
z
" id="DejaVuSans-98"/>
      <path d="M 9.421875 54.6875 
L 18.40625 54.6875 
L 18.40625 -0.984375 
Q 18.40625 -11.421875 14.421875 -16.109375 
Q 10.453125 -20.796875 1.609375 -20.796875 
L -1.8125 -20.796875 
L -1.8125 -13.1875 
L 0.59375 -13.1875 
Q 5.71875 -13.1875 7.5625 -10.8125 
Q 9.421875 -8.453125 9.421875 -0.984375 
z
M 9.421875 75.984375 
L 18.40625 75.984375 
L 18.40625 64.59375 
L 9.421875 64.59375 
z
" id="DejaVuSans-106"/>
     </defs>
     <use xlink:href="#DejaVuSans-98"/>
     <use x="63.476562" xlink:href="#DejaVuSans-98"/>
     <use x="126.953125" xlink:href="#DejaVuSans-111"/>
     <use x="188.134766" xlink:href="#DejaVuSans-98"/>
     <use x="251.611328" xlink:href="#DejaVuSans-45"/>
     <use x="287.695312" xlink:href="#DejaVuSans-98"/>
     <use x="351.171875" xlink:href="#DejaVuSans-105"/>
     <use x="378.955078" xlink:href="#DejaVuSans-111"/>
     <use x="440.136719" xlink:href="#DejaVuSans-98"/>
     <use x="503.613281" xlink:href="#DejaVuSans-106"/>
    </g>
    <!-- 3-ill-conditioned 5-weakly-structured, 3-D -->
    <g transform="translate(60.41088 25.583055)scale(0.102 -0.102)">
     <defs>
      <path d="M 4.203125 54.6875 
L 13.1875 54.6875 
L 24.421875 12.015625 
L 35.59375 54.6875 
L 46.1875 54.6875 
L 57.421875 12.015625 
L 68.609375 54.6875 
L 77.59375 54.6875 
L 63.28125 0 
L 52.6875 0 
L 40.921875 44.828125 
L 29.109375 0 
L 18.5 0 
z
" id="DejaVuSans-119"/>
      <path d="M 9.078125 75.984375 
L 18.109375 75.984375 
L 18.109375 31.109375 
L 44.921875 54.6875 
L 56.390625 54.6875 
L 27.390625 29.109375 
L 57.625 0 
L 45.90625 0 
L 18.109375 26.703125 
L 18.109375 0 
L 9.078125 0 
z
" id="DejaVuSans-107"/>
      <path d="M 32.171875 -5.078125 
Q 28.375 -14.84375 24.75 -17.8125 
Q 21.140625 -20.796875 15.09375 -20.796875 
L 7.90625 -20.796875 
L 7.90625 -13.28125 
L 13.1875 -13.28125 
Q 16.890625 -13.28125 18.9375 -11.515625 
Q 21 -9.765625 23.484375 -3.21875 
L 25.09375 0.875 
L 2.984375 54.6875 
L 12.5 54.6875 
L 29.59375 11.921875 
L 46.6875 54.6875 
L 56.203125 54.6875 
z
" id="DejaVuSans-121"/>
      <path d="M 19.671875 64.796875 
L 19.671875 8.109375 
L 31.59375 8.109375 
Q 46.6875 8.109375 53.6875 14.9375 
Q 60.6875 21.78125 60.6875 36.53125 
Q 60.6875 51.171875 53.6875 57.984375 
Q 46.6875 64.796875 31.59375 64.796875 
z
M 9.8125 72.90625 
L 30.078125 72.90625 
Q 51.265625 72.90625 61.171875 64.09375 
Q 71.09375 55.28125 71.09375 36.53125 
Q 71.09375 17.671875 61.125 8.828125 
Q 51.171875 0 30.078125 0 
L 9.8125 0 
z
" id="DejaVuSans-68"/>
     </defs>
     <use xlink:href="#DejaVuSans-51"/>
     <use x="63.623047" xlink:href="#DejaVuSans-45"/>
     <use x="99.707031" xlink:href="#DejaVuSans-105"/>
     <use x="127.490234" xlink:href="#DejaVuSans-108"/>
     <use x="155.273438" xlink:href="#DejaVuSans-108"/>
     <use x="183.056641" xlink:href="#DejaVuSans-45"/>
     <use x="219.140625" xlink:href="#DejaVuSans-99"/>
     <use x="274.121094" xlink:href="#DejaVuSans-111"/>
     <use x="335.302734" xlink:href="#DejaVuSans-110"/>
     <use x="398.681641" xlink:href="#DejaVuSans-100"/>
     <use x="462.158203" xlink:href="#DejaVuSans-105"/>
     <use x="489.941406" xlink:href="#DejaVuSans-116"/>
     <use x="529.150391" xlink:href="#DejaVuSans-105"/>
     <use x="556.933594" xlink:href="#DejaVuSans-111"/>
     <use x="618.115234" xlink:href="#DejaVuSans-110"/>
     <use x="681.494141" xlink:href="#DejaVuSans-101"/>
     <use x="743.017578" xlink:href="#DejaVuSans-100"/>
     <use x="806.494141" xlink:href="#DejaVuSans-32"/>
     <use x="838.28125" xlink:href="#DejaVuSans-53"/>
     <use x="901.904297" xlink:href="#DejaVuSans-45"/>
     <use x="937.988281" xlink:href="#DejaVuSans-119"/>
     <use x="1019.775391" xlink:href="#DejaVuSans-101"/>
     <use x="1081.298828" xlink:href="#DejaVuSans-97"/>
     <use x="1142.578125" xlink:href="#DejaVuSans-107"/>
     <use x="1200.488281" xlink:href="#DejaVuSans-108"/>
     <use x="1228.271484" xlink:href="#DejaVuSans-121"/>
     <use x="1285.701172" xlink:href="#DejaVuSans-45"/>
     <use x="1321.785156" xlink:href="#DejaVuSans-115"/>
     <use x="1373.884766" xlink:href="#DejaVuSans-116"/>
     <use x="1413.09375" xlink:href="#DejaVuSans-114"/>
     <use x="1454.207031" xlink:href="#DejaVuSans-117"/>
     <use x="1517.585938" xlink:href="#DejaVuSans-99"/>
     <use x="1572.566406" xlink:href="#DejaVuSans-116"/>
     <use x="1611.775391" xlink:href="#DejaVuSans-117"/>
     <use x="1675.154297" xlink:href="#DejaVuSans-114"/>
     <use x="1714.017578" xlink:href="#DejaVuSans-101"/>
     <use x="1775.541016" xlink:href="#DejaVuSans-100"/>
     <use x="1839.017578" xlink:href="#DejaVuSans-44"/>
     <use x="1870.804688" xlink:href="#DejaVuSans-32"/>
     <use x="1902.591797" xlink:href="#DejaVuSans-51"/>
     <use x="1966.214844" xlink:href="#DejaVuSans-45"/>
     <use x="2002.298828" xlink:href="#DejaVuSans-68"/>
    </g>
    <!-- 58 targets: 1..-1.0e-4 -->
    <g transform="translate(60.41088 37.004824)scale(0.102 -0.102)">
     <defs>
      <path d="M 11.71875 12.40625 
L 22.015625 12.40625 
L 22.015625 0 
L 11.71875 0 
z
M 11.71875 51.703125 
L 22.015625 51.703125 
L 22.015625 39.3125 
L 11.71875 39.3125 
z
" id="DejaVuSans-58"/>
     </defs>
     <use xlink:href="#DejaVuSans-53"/>
     <use x="63.623047" xlink:href="#DejaVuSans-56"/>
     <use x="127.246094" xlink:href="#DejaVuSans-32"/>
     <use x="159.033203" xlink:href="#DejaVuSans-116"/>
     <use x="198.242188" xlink:href="#DejaVuSans-97"/>
     <use x="259.521484" xlink:href="#DejaVuSans-114"/>
     <use x="298.884766" xlink:href="#DejaVuSans-103"/>
     <use x="362.361328" xlink:href="#DejaVuSans-101"/>
     <use x="423.884766" xlink:href="#DejaVuSans-116"/>
     <use x="463.09375" xlink:href="#DejaVuSans-115"/>
     <use x="515.193359" xlink:href="#DejaVuSans-58"/>
     <use x="548.884766" xlink:href="#DejaVuSans-32"/>
     <use x="580.671875" xlink:href="#DejaVuSans-49"/>
     <use x="644.294922" xlink:href="#DejaVuSans-46"/>
     <use x="676.082031" xlink:href="#DejaVuSans-46"/>
     <use x="707.869141" xlink:href="#DejaVuSans-45"/>
     <use x="743.953125" xlink:href="#DejaVuSans-49"/>
     <use x="807.576172" xlink:href="#DejaVuSans-46"/>
     <use x="839.363281" xlink:href="#DejaVuSans-48"/>
     <use x="902.986328" xlink:href="#DejaVuSans-101"/>
     <use x="964.509766" xlink:href="#DejaVuSans-45"/>
     <use x="1000.59375" xlink:href="#DejaVuSans-52"/>
    </g>
    <!-- 10 instances -->
    <g transform="translate(60.41088 48.426593)scale(0.102 -0.102)">
     <use xlink:href="#DejaVuSans-49"/>
     <use x="63.623047" xlink:href="#DejaVuSans-48"/>
     <use x="127.246094" xlink:href="#DejaVuSans-32"/>
     <use x="159.033203" xlink:href="#DejaVuSans-105"/>
     <use x="186.816406" xlink:href="#DejaVuSans-110"/>
     <use x="250.195312" xlink:href="#DejaVuSans-115"/>
     <use x="302.294922" xlink:href="#DejaVuSans-116"/>
     <use x="341.503906" xlink:href="#DejaVuSans-97"/>
     <use x="402.783203" xlink:href="#DejaVuSans-110"/>
     <use x="466.162109" xlink:href="#DejaVuSans-99"/>
     <use x="521.142578" xlink:href="#DejaVuSans-101"/>
     <use x="582.666016" xlink:href="#DejaVuSans-115"/>
    </g>
   </g>
   <g id="text_18">
    <!-- v2.4, hv-hash=ff0e71e8cd978373 -->
    <g style="fill:#808080;" transform="translate(112.648687 293.909432)scale(0.1 -0.1)">
     <defs>
      <path d="M 54.890625 33.015625 
L 54.890625 0 
L 45.90625 0 
L 45.90625 32.71875 
Q 45.90625 40.484375 42.875 44.328125 
Q 39.84375 48.1875 33.796875 48.1875 
Q 26.515625 48.1875 22.3125 43.546875 
Q 18.109375 38.921875 18.109375 30.90625 
L 18.109375 0 
L 9.078125 0 
L 9.078125 75.984375 
L 18.109375 75.984375 
L 18.109375 46.1875 
Q 21.34375 51.125 25.703125 53.5625 
Q 30.078125 56 35.796875 56 
Q 45.21875 56 50.046875 50.171875 
Q 54.890625 44.34375 54.890625 33.015625 
z
" id="DejaVuSans-104"/>
      <path d="M 10.59375 45.40625 
L 73.1875 45.40625 
L 73.1875 37.203125 
L 10.59375 37.203125 
z
M 10.59375 25.484375 
L 73.1875 25.484375 
L 73.1875 17.1875 
L 10.59375 17.1875 
z
" id="DejaVuSans-61"/>
      <path d="M 8.203125 72.90625 
L 55.078125 72.90625 
L 55.078125 68.703125 
L 28.609375 0 
L 18.3125 0 
L 43.21875 64.59375 
L 8.203125 64.59375 
z
" id="DejaVuSans-55"/>
     </defs>
     <use xlink:href="#DejaVuSans-118"/>
     <use x="59.179688" xlink:href="#DejaVuSans-50"/>
     <use x="122.802734" xlink:href="#DejaVuSans-46"/>
     <use x="154.589844" xlink:href="#DejaVuSans-52"/>
     <use x="218.212891" xlink:href="#DejaVuSans-44"/>
     <use x="250" xlink:href="#DejaVuSans-32"/>
     <use x="281.787109" xlink:href="#DejaVuSans-104"/>
     <use x="345.166016" xlink:href="#DejaVuSans-118"/>
     <use x="401.720703" xlink:href="#DejaVuSans-45"/>
     <use x="437.804688" xlink:href="#DejaVuSans-104"/>
     <use x="501.183594" xlink:href="#DejaVuSans-97"/>
     <use x="562.462891" xlink:href="#DejaVuSans-115"/>
     <use x="614.5625" xlink:href="#DejaVuSans-104"/>
     <use x="677.941406" xlink:href="#DejaVuSans-61"/>
     <use x="761.730469" xlink:href="#DejaVuSans-102"/>
     <use x="796.935547" xlink:href="#DejaVuSans-102"/>
     <use x="832.140625" xlink:href="#DejaVuSans-48"/>
     <use x="895.763672" xlink:href="#DejaVuSans-101"/>
     <use x="957.287109" xlink:href="#DejaVuSans-55"/>
     <use x="1020.910156" xlink:href="#DejaVuSans-49"/>
     <use x="1084.533203" xlink:href="#DejaVuSans-101"/>
     <use x="1146.056641" xlink:href="#DejaVuSans-56"/>
     <use x="1209.679688" xlink:href="#DejaVuSans-99"/>
     <use x="1264.660156" xlink:href="#DejaVuSans-100"/>
     <use x="1328.136719" xlink:href="#DejaVuSans-57"/>
     <use x="1391.759766" xlink:href="#DejaVuSans-55"/>
     <use x="1455.382812" xlink:href="#DejaVuSans-56"/>
     <use x="1519.005859" xlink:href="#DejaVuSans-51"/>
     <use x="1582.628906" xlink:href="#DejaVuSans-55"/>
     <use x="1646.251953" xlink:href="#DejaVuSans-51"/>
    </g>
   </g>
  </g>
 </g>
 <defs>
  <clipPath id="pf9b02d990c">
   <rect height="295.488" width="281.088" x="57.6" y="3.456"/>
  </clipPath>
 </defs>
</svg>
