<?xml version="1.0" encoding="utf-8" standalone="no"?>
<!DOCTYPE svg PUBLIC "-//W3C//DTD SVG 1.1//EN"
  "http://www.w3.org/Graphics/SVG/1.1/DTD/svg11.dtd">
<!-- Created with matplotlib (https://matplotlib.org/) -->
<svg height="345.6pt" version="1.1" viewBox="0 0 460.8 345.6" width="460.8pt" xmlns="http://www.w3.org/2000/svg" xmlns:xlink="http://www.w3.org/1999/xlink">
 <metadata>
  <rdf:RDF xmlns:cc="http://creativecommons.org/ns#" xmlns:dc="http://purl.org/dc/elements/1.1/" xmlns:rdf="http://www.w3.org/1999/02/22-rdf-syntax-ns#">
   <cc:Work>
    <dc:type rdf:resource="http://purl.org/dc/dcmitype/StillImage"/>
    <dc:date>2021-03-30T16:55:17.382449</dc:date>
    <dc:format>image/svg+xml</dc:format>
    <dc:creator>
     <cc:Agent>
      <dc:title>Matplotlib v3.3.4, https://matplotlib.org/</dc:title>
     </cc:Agent>
    </dc:creator>
   </cc:Work>
  </rdf:RDF>
 </metadata>
 <defs>
  <style type="text/css">*{stroke-linecap:butt;stroke-linejoin:round;}</style>
 </defs>
 <g id="figure_1">
  <g id="patch_1">
   <path d="M 0 345.6 
L 460.8 345.6 
L 460.8 0 
L 0 0 
z
" style="fill:#ffffff;"/>
  </g>
  <g id="axes_1">
   <g id="patch_2">
    <path d="M 57.6 298.944 
L 338.688 298.944 
L 338.688 3.456 
L 57.6 3.456 
z
" style="fill:#ffffff;"/>
   </g>
   <g id="matplotlib.axis_1">
    <g id="xtick_1">
     <g id="line2d_1">
      <path clip-path="url(#pd748ca84dd)" d="M 57.6 298.944 
L 57.6 3.456 
" style="fill:none;stroke:#b0b0b0;stroke-linecap:square;stroke-width:0.8;"/>
     </g>
     <g id="line2d_2">
      <defs>
       <path d="M 0 0 
L 0 3.5 
" id="ma27e80928c" style="stroke:#000000;stroke-width:0.8;"/>
      </defs>
      <g>
       <use style="stroke:#000000;stroke-width:0.8;" x="57.6" xlink:href="#ma27e80928c" y="298.944"/>
      </g>
     </g>
     <g id="text_1">
      <!-- 0 -->
      <g transform="translate(51.2375 321.140875)scale(0.2 -0.2)">
       <defs>
        <path d="M 31.78125 66.40625 
Q 24.171875 66.40625 20.328125 58.90625 
Q 16.5 51.421875 16.5 36.375 
Q 16.5 21.390625 20.328125 13.890625 
Q 24.171875 6.390625 31.78125 6.390625 
Q 39.453125 6.390625 43.28125 13.890625 
Q 47.125 21.390625 47.125 36.375 
Q 47.125 51.421875 43.28125 58.90625 
Q 39.453125 66.40625 31.78125 66.40625 
z
M 31.78125 74.21875 
Q 44.046875 74.21875 50.515625 64.515625 
Q 56.984375 54.828125 56.984375 36.375 
Q 56.984375 17.96875 50.515625 8.265625 
Q 44.046875 -1.421875 31.78125 -1.421875 
Q 19.53125 -1.421875 13.0625 8.265625 
Q 6.59375 17.96875 6.59375 36.375 
Q 6.59375 54.828125 13.0625 64.515625 
Q 19.53125 74.21875 31.78125 74.21875 
z
" id="DejaVuSans-48"/>
       </defs>
       <use xlink:href="#DejaVuSans-48"/>
      </g>
     </g>
    </g>
    <g id="xtick_2">
     <g id="line2d_3">
      <path clip-path="url(#pd748ca84dd)" d="M 137.910857 298.944 
L 137.910857 3.456 
" style="fill:none;stroke:#b0b0b0;stroke-linecap:square;stroke-width:0.8;"/>
     </g>
     <g id="line2d_4">
      <g>
       <use style="stroke:#000000;stroke-width:0.8;" x="137.910857" xlink:href="#ma27e80928c" y="298.944"/>
      </g>
     </g>
     <g id="text_2">
      <!-- 2 -->
      <g transform="translate(131.548357 321.140875)scale(0.2 -0.2)">
       <defs>
        <path d="M 19.1875 8.296875 
L 53.609375 8.296875 
L 53.609375 0 
L 7.328125 0 
L 7.328125 8.296875 
Q 12.9375 14.109375 22.625 23.890625 
Q 32.328125 33.6875 34.8125 36.53125 
Q 39.546875 41.84375 41.421875 45.53125 
Q 43.3125 49.21875 43.3125 52.78125 
Q 43.3125 58.59375 39.234375 62.25 
Q 35.15625 65.921875 28.609375 65.921875 
Q 23.96875 65.921875 18.8125 64.3125 
Q 13.671875 62.703125 7.8125 59.421875 
L 7.8125 69.390625 
Q 13.765625 71.78125 18.9375 73 
Q 24.125 74.21875 28.421875 74.21875 
Q 39.75 74.21875 46.484375 68.546875 
Q 53.21875 62.890625 53.21875 53.421875 
Q 53.21875 48.921875 51.53125 44.890625 
Q 49.859375 40.875 45.40625 35.40625 
Q 44.1875 33.984375 37.640625 27.21875 
Q 31.109375 20.453125 19.1875 8.296875 
z
" id="DejaVuSans-50"/>
       </defs>
       <use xlink:href="#DejaVuSans-50"/>
      </g>
     </g>
    </g>
    <g id="xtick_3">
     <g id="line2d_5">
      <path clip-path="url(#pd748ca84dd)" d="M 218.221714 298.944 
L 218.221714 3.456 
" style="fill:none;stroke:#b0b0b0;stroke-linecap:square;stroke-width:0.8;"/>
     </g>
     <g id="line2d_6">
      <g>
       <use style="stroke:#000000;stroke-width:0.8;" x="218.221714" xlink:href="#ma27e80928c" y="298.944"/>
      </g>
     </g>
     <g id="text_3">
      <!-- 4 -->
      <g transform="translate(211.859214 321.140875)scale(0.2 -0.2)">
       <defs>
        <path d="M 37.796875 64.3125 
L 12.890625 25.390625 
L 37.796875 25.390625 
z
M 35.203125 72.90625 
L 47.609375 72.90625 
L 47.609375 25.390625 
L 58.015625 25.390625 
L 58.015625 17.1875 
L 47.609375 17.1875 
L 47.609375 0 
L 37.796875 0 
L 37.796875 17.1875 
L 4.890625 17.1875 
L 4.890625 26.703125 
z
" id="DejaVuSans-52"/>
       </defs>
       <use xlink:href="#DejaVuSans-52"/>
      </g>
     </g>
    </g>
    <g id="xtick_4">
     <g id="line2d_7">
      <path clip-path="url(#pd748ca84dd)" d="M 298.532571 298.944 
L 298.532571 3.456 
" style="fill:none;stroke:#b0b0b0;stroke-linecap:square;stroke-width:0.8;"/>
     </g>
     <g id="line2d_8">
      <g>
       <use style="stroke:#000000;stroke-width:0.8;" x="298.532571" xlink:href="#ma27e80928c" y="298.944"/>
      </g>
     </g>
     <g id="text_4">
      <!-- 6 -->
      <g transform="translate(292.170071 321.140875)scale(0.2 -0.2)">
       <defs>
        <path d="M 33.015625 40.375 
Q 26.375 40.375 22.484375 35.828125 
Q 18.609375 31.296875 18.609375 23.390625 
Q 18.609375 15.53125 22.484375 10.953125 
Q 26.375 6.390625 33.015625 6.390625 
Q 39.65625 6.390625 43.53125 10.953125 
Q 47.40625 15.53125 47.40625 23.390625 
Q 47.40625 31.296875 43.53125 35.828125 
Q 39.65625 40.375 33.015625 40.375 
z
M 52.59375 71.296875 
L 52.59375 62.3125 
Q 48.875 64.0625 45.09375 64.984375 
Q 41.3125 65.921875 37.59375 65.921875 
Q 27.828125 65.921875 22.671875 59.328125 
Q 17.53125 52.734375 16.796875 39.40625 
Q 19.671875 43.65625 24.015625 45.921875 
Q 28.375 48.1875 33.59375 48.1875 
Q 44.578125 48.1875 50.953125 41.515625 
Q 57.328125 34.859375 57.328125 23.390625 
Q 57.328125 12.15625 50.6875 5.359375 
Q 44.046875 -1.421875 33.015625 -1.421875 
Q 20.359375 -1.421875 13.671875 8.265625 
Q 6.984375 17.96875 6.984375 36.375 
Q 6.984375 53.65625 15.1875 63.9375 
Q 23.390625 74.21875 37.203125 74.21875 
Q 40.921875 74.21875 44.703125 73.484375 
Q 48.484375 72.75 52.59375 71.296875 
z
" id="DejaVuSans-54"/>
       </defs>
       <use xlink:href="#DejaVuSans-54"/>
      </g>
     </g>
    </g>
    <g id="xtick_5">
     <g id="line2d_9">
      <path clip-path="url(#pd748ca84dd)" d="M 97.755429 298.944 
L 97.755429 3.456 
" style="fill:none;stroke:#b0b0b0;stroke-linecap:square;stroke-width:0.8;"/>
     </g>
     <g id="line2d_10">
      <defs>
       <path d="M 0 0 
L 0 2 
" id="m05121e57a5" style="stroke:#000000;stroke-width:0.6;"/>
      </defs>
      <g>
       <use style="stroke:#000000;stroke-width:0.6;" x="97.755429" xlink:href="#m05121e57a5" y="298.944"/>
      </g>
     </g>
    </g>
    <g id="xtick_6">
     <g id="line2d_11">
      <path clip-path="url(#pd748ca84dd)" d="M 178.066286 298.944 
L 178.066286 3.456 
" style="fill:none;stroke:#b0b0b0;stroke-linecap:square;stroke-width:0.8;"/>
     </g>
     <g id="line2d_12">
      <g>
       <use style="stroke:#000000;stroke-width:0.6;" x="178.066286" xlink:href="#m05121e57a5" y="298.944"/>
      </g>
     </g>
    </g>
    <g id="xtick_7">
     <g id="line2d_13">
      <path clip-path="url(#pd748ca84dd)" d="M 258.377143 298.944 
L 258.377143 3.456 
" style="fill:none;stroke:#b0b0b0;stroke-linecap:square;stroke-width:0.8;"/>
     </g>
     <g id="line2d_14">
      <g>
       <use style="stroke:#000000;stroke-width:0.6;" x="258.377143" xlink:href="#m05121e57a5" y="298.944"/>
      </g>
     </g>
    </g>
    <g id="xtick_8">
     <g id="line2d_15">
      <path clip-path="url(#pd748ca84dd)" d="M 338.688 298.944 
L 338.688 3.456 
" style="fill:none;stroke:#b0b0b0;stroke-linecap:square;stroke-width:0.8;"/>
     </g>
     <g id="line2d_16">
      <g>
       <use style="stroke:#000000;stroke-width:0.6;" x="338.688" xlink:href="#m05121e57a5" y="298.944"/>
      </g>
     </g>
    </g>
    <g id="text_5">
     <!-- log10(# f-evals / dimension) -->
     <g transform="translate(77.764078 342.217594)scale(0.17 -0.17)">
      <defs>
       <path d="M 9.421875 75.984375 
L 18.40625 75.984375 
L 18.40625 0 
L 9.421875 0 
z
" id="DejaVuSans-108"/>
       <path d="M 30.609375 48.390625 
Q 23.390625 48.390625 19.1875 42.75 
Q 14.984375 37.109375 14.984375 27.296875 
Q 14.984375 17.484375 19.15625 11.84375 
Q 23.34375 6.203125 30.609375 6.203125 
Q 37.796875 6.203125 41.984375 11.859375 
Q 46.1875 17.53125 46.1875 27.296875 
Q 46.1875 37.015625 41.984375 42.703125 
Q 37.796875 48.390625 30.609375 48.390625 
z
M 30.609375 56 
Q 42.328125 56 49.015625 48.375 
Q 55.71875 40.765625 55.71875 27.296875 
Q 55.71875 13.875 49.015625 6.21875 
Q 42.328125 -1.421875 30.609375 -1.421875 
Q 18.84375 -1.421875 12.171875 6.21875 
Q 5.515625 13.875 5.515625 27.296875 
Q 5.515625 40.765625 12.171875 48.375 
Q 18.84375 56 30.609375 56 
z
" id="DejaVuSans-111"/>
       <path d="M 45.40625 27.984375 
Q 45.40625 37.75 41.375 43.109375 
Q 37.359375 48.484375 30.078125 48.484375 
Q 22.859375 48.484375 18.828125 43.109375 
Q 14.796875 37.75 14.796875 27.984375 
Q 14.796875 18.265625 18.828125 12.890625 
Q 22.859375 7.515625 30.078125 7.515625 
Q 37.359375 7.515625 41.375 12.890625 
Q 45.40625 18.265625 45.40625 27.984375 
z
M 54.390625 6.78125 
Q 54.390625 -7.171875 48.1875 -13.984375 
Q 42 -20.796875 29.203125 -20.796875 
Q 24.46875 -20.796875 20.265625 -20.09375 
Q 16.0625 -19.390625 12.109375 -17.921875 
L 12.109375 -9.1875 
Q 16.0625 -11.328125 19.921875 -12.34375 
Q 23.78125 -13.375 27.78125 -13.375 
Q 36.625 -13.375 41.015625 -8.765625 
Q 45.40625 -4.15625 45.40625 5.171875 
L 45.40625 9.625 
Q 42.625 4.78125 38.28125 2.390625 
Q 33.9375 0 27.875 0 
Q 17.828125 0 11.671875 7.65625 
Q 5.515625 15.328125 5.515625 27.984375 
Q 5.515625 40.671875 11.671875 48.328125 
Q 17.828125 56 27.875 56 
Q 33.9375 56 38.28125 53.609375 
Q 42.625 51.21875 45.40625 46.390625 
L 45.40625 54.6875 
L 54.390625 54.6875 
z
" id="DejaVuSans-103"/>
       <path d="M 12.40625 8.296875 
L 28.515625 8.296875 
L 28.515625 63.921875 
L 10.984375 60.40625 
L 10.984375 69.390625 
L 28.421875 72.90625 
L 38.28125 72.90625 
L 38.28125 8.296875 
L 54.390625 8.296875 
L 54.390625 0 
L 12.40625 0 
z
" id="DejaVuSans-49"/>
       <path d="M 31 75.875 
Q 24.46875 64.65625 21.28125 53.65625 
Q 18.109375 42.671875 18.109375 31.390625 
Q 18.109375 20.125 21.3125 9.0625 
Q 24.515625 -2 31 -13.1875 
L 23.1875 -13.1875 
Q 15.875 -1.703125 12.234375 9.375 
Q 8.59375 20.453125 8.59375 31.390625 
Q 8.59375 42.28125 12.203125 53.3125 
Q 15.828125 64.359375 23.1875 75.875 
z
" id="DejaVuSans-40"/>
       <path d="M 51.125 44 
L 36.921875 44 
L 32.8125 27.6875 
L 47.125 27.6875 
z
M 43.796875 71.78125 
L 38.71875 51.515625 
L 52.984375 51.515625 
L 58.109375 71.78125 
L 65.921875 71.78125 
L 60.890625 51.515625 
L 76.125 51.515625 
L 76.125 44 
L 58.984375 44 
L 54.984375 27.6875 
L 70.515625 27.6875 
L 70.515625 20.21875 
L 53.078125 20.21875 
L 48 0 
L 40.1875 0 
L 45.21875 20.21875 
L 30.90625 20.21875 
L 25.875 0 
L 18.015625 0 
L 23.09375 20.21875 
L 7.71875 20.21875 
L 7.71875 27.6875 
L 24.90625 27.6875 
L 29 44 
L 13.28125 44 
L 13.28125 51.515625 
L 30.90625 51.515625 
L 35.890625 71.78125 
z
" id="DejaVuSans-35"/>
       <path id="DejaVuSans-32"/>
       <path d="M 37.109375 75.984375 
L 37.109375 68.5 
L 28.515625 68.5 
Q 23.6875 68.5 21.796875 66.546875 
Q 19.921875 64.59375 19.921875 59.515625 
L 19.921875 54.6875 
L 34.71875 54.6875 
L 34.71875 47.703125 
L 19.921875 47.703125 
L 19.921875 0 
L 10.890625 0 
L 10.890625 47.703125 
L 2.296875 47.703125 
L 2.296875 54.6875 
L 10.890625 54.6875 
L 10.890625 58.5 
Q 10.890625 67.625 15.140625 71.796875 
Q 19.390625 75.984375 28.609375 75.984375 
z
" id="DejaVuSans-102"/>
       <path d="M 4.890625 31.390625 
L 31.203125 31.390625 
L 31.203125 23.390625 
L 4.890625 23.390625 
z
" id="DejaVuSans-45"/>
       <path d="M 56.203125 29.59375 
L 56.203125 25.203125 
L 14.890625 25.203125 
Q 15.484375 15.921875 20.484375 11.0625 
Q 25.484375 6.203125 34.421875 6.203125 
Q 39.59375 6.203125 44.453125 7.46875 
Q 49.3125 8.734375 54.109375 11.28125 
L 54.109375 2.78125 
Q 49.265625 0.734375 44.1875 -0.34375 
Q 39.109375 -1.421875 33.890625 -1.421875 
Q 20.796875 -1.421875 13.15625 6.1875 
Q 5.515625 13.8125 5.515625 26.8125 
Q 5.515625 40.234375 12.765625 48.109375 
Q 20.015625 56 32.328125 56 
Q 43.359375 56 49.78125 48.890625 
Q 56.203125 41.796875 56.203125 29.59375 
z
M 47.21875 32.234375 
Q 47.125 39.59375 43.09375 43.984375 
Q 39.0625 48.390625 32.421875 48.390625 
Q 24.90625 48.390625 20.390625 44.140625 
Q 15.875 39.890625 15.1875 32.171875 
z
" id="DejaVuSans-101"/>
       <path d="M 2.984375 54.6875 
L 12.5 54.6875 
L 29.59375 8.796875 
L 46.6875 54.6875 
L 56.203125 54.6875 
L 35.6875 0 
L 23.484375 0 
z
" id="DejaVuSans-118"/>
       <path d="M 34.28125 27.484375 
Q 23.390625 27.484375 19.1875 25 
Q 14.984375 22.515625 14.984375 16.5 
Q 14.984375 11.71875 18.140625 8.90625 
Q 21.296875 6.109375 26.703125 6.109375 
Q 34.1875 6.109375 38.703125 11.40625 
Q 43.21875 16.703125 43.21875 25.484375 
L 43.21875 27.484375 
z
M 52.203125 31.203125 
L 52.203125 0 
L 43.21875 0 
L 43.21875 8.296875 
Q 40.140625 3.328125 35.546875 0.953125 
Q 30.953125 -1.421875 24.3125 -1.421875 
Q 15.921875 -1.421875 10.953125 3.296875 
Q 6 8.015625 6 15.921875 
Q 6 25.140625 12.171875 29.828125 
Q 18.359375 34.515625 30.609375 34.515625 
L 43.21875 34.515625 
L 43.21875 35.40625 
Q 43.21875 41.609375 39.140625 45 
Q 35.0625 48.390625 27.6875 48.390625 
Q 23 48.390625 18.546875 47.265625 
Q 14.109375 46.140625 10.015625 43.890625 
L 10.015625 52.203125 
Q 14.9375 54.109375 19.578125 55.046875 
Q 24.21875 56 28.609375 56 
Q 40.484375 56 46.34375 49.84375 
Q 52.203125 43.703125 52.203125 31.203125 
z
" id="DejaVuSans-97"/>
       <path d="M 44.28125 53.078125 
L 44.28125 44.578125 
Q 40.484375 46.53125 36.375 47.5 
Q 32.28125 48.484375 27.875 48.484375 
Q 21.1875 48.484375 17.84375 46.4375 
Q 14.5 44.390625 14.5 40.28125 
Q 14.5 37.15625 16.890625 35.375 
Q 19.28125 33.59375 26.515625 31.984375 
L 29.59375 31.296875 
Q 39.15625 29.25 43.1875 25.515625 
Q 47.21875 21.78125 47.21875 15.09375 
Q 47.21875 7.46875 41.1875 3.015625 
Q 35.15625 -1.421875 24.609375 -1.421875 
Q 20.21875 -1.421875 15.453125 -0.5625 
Q 10.6875 0.296875 5.421875 2 
L 5.421875 11.28125 
Q 10.40625 8.6875 15.234375 7.390625 
Q 20.0625 6.109375 24.8125 6.109375 
Q 31.15625 6.109375 34.5625 8.28125 
Q 37.984375 10.453125 37.984375 14.40625 
Q 37.984375 18.0625 35.515625 20.015625 
Q 33.0625 21.96875 24.703125 23.78125 
L 21.578125 24.515625 
Q 13.234375 26.265625 9.515625 29.90625 
Q 5.8125 33.546875 5.8125 39.890625 
Q 5.8125 47.609375 11.28125 51.796875 
Q 16.75 56 26.8125 56 
Q 31.78125 56 36.171875 55.265625 
Q 40.578125 54.546875 44.28125 53.078125 
z
" id="DejaVuSans-115"/>
       <path d="M 25.390625 72.90625 
L 33.6875 72.90625 
L 8.296875 -9.28125 
L 0 -9.28125 
z
" id="DejaVuSans-47"/>
       <path d="M 45.40625 46.390625 
L 45.40625 75.984375 
L 54.390625 75.984375 
L 54.390625 0 
L 45.40625 0 
L 45.40625 8.203125 
Q 42.578125 3.328125 38.25 0.953125 
Q 33.9375 -1.421875 27.875 -1.421875 
Q 17.96875 -1.421875 11.734375 6.484375 
Q 5.515625 14.40625 5.515625 27.296875 
Q 5.515625 40.1875 11.734375 48.09375 
Q 17.96875 56 27.875 56 
Q 33.9375 56 38.25 53.625 
Q 42.578125 51.265625 45.40625 46.390625 
z
M 14.796875 27.296875 
Q 14.796875 17.390625 18.875 11.75 
Q 22.953125 6.109375 30.078125 6.109375 
Q 37.203125 6.109375 41.296875 11.75 
Q 45.40625 17.390625 45.40625 27.296875 
Q 45.40625 37.203125 41.296875 42.84375 
Q 37.203125 48.484375 30.078125 48.484375 
Q 22.953125 48.484375 18.875 42.84375 
Q 14.796875 37.203125 14.796875 27.296875 
z
" id="DejaVuSans-100"/>
       <path d="M 9.421875 54.6875 
L 18.40625 54.6875 
L 18.40625 0 
L 9.421875 0 
z
M 9.421875 75.984375 
L 18.40625 75.984375 
L 18.40625 64.59375 
L 9.421875 64.59375 
z
" id="DejaVuSans-105"/>
       <path d="M 52 44.1875 
Q 55.375 50.25 60.0625 53.125 
Q 64.75 56 71.09375 56 
Q 79.640625 56 84.28125 50.015625 
Q 88.921875 44.046875 88.921875 33.015625 
L 88.921875 0 
L 79.890625 0 
L 79.890625 32.71875 
Q 79.890625 40.578125 77.09375 44.375 
Q 74.3125 48.1875 68.609375 48.1875 
Q 61.625 48.1875 57.5625 43.546875 
Q 53.515625 38.921875 53.515625 30.90625 
L 53.515625 0 
L 44.484375 0 
L 44.484375 32.71875 
Q 44.484375 40.625 41.703125 44.40625 
Q 38.921875 48.1875 33.109375 48.1875 
Q 26.21875 48.1875 22.15625 43.53125 
Q 18.109375 38.875 18.109375 30.90625 
L 18.109375 0 
L 9.078125 0 
L 9.078125 54.6875 
L 18.109375 54.6875 
L 18.109375 46.1875 
Q 21.1875 51.21875 25.484375 53.609375 
Q 29.78125 56 35.6875 56 
Q 41.65625 56 45.828125 52.96875 
Q 50 49.953125 52 44.1875 
z
" id="DejaVuSans-109"/>
       <path d="M 54.890625 33.015625 
L 54.890625 0 
L 45.90625 0 
L 45.90625 32.71875 
Q 45.90625 40.484375 42.875 44.328125 
Q 39.84375 48.1875 33.796875 48.1875 
Q 26.515625 48.1875 22.3125 43.546875 
Q 18.109375 38.921875 18.109375 30.90625 
L 18.109375 0 
L 9.078125 0 
L 9.078125 54.6875 
L 18.109375 54.6875 
L 18.109375 46.1875 
Q 21.34375 51.125 25.703125 53.5625 
Q 30.078125 56 35.796875 56 
Q 45.21875 56 50.046875 50.171875 
Q 54.890625 44.34375 54.890625 33.015625 
z
" id="DejaVuSans-110"/>
       <path d="M 8.015625 75.875 
L 15.828125 75.875 
Q 23.140625 64.359375 26.78125 53.3125 
Q 30.421875 42.28125 30.421875 31.390625 
Q 30.421875 20.453125 26.78125 9.375 
Q 23.140625 -1.703125 15.828125 -13.1875 
L 8.015625 -13.1875 
Q 14.5 -2 17.703125 9.0625 
Q 20.90625 20.125 20.90625 31.390625 
Q 20.90625 42.671875 17.703125 53.65625 
Q 14.5 64.65625 8.015625 75.875 
z
" id="DejaVuSans-41"/>
      </defs>
      <use xlink:href="#DejaVuSans-108"/>
      <use x="27.783203" xlink:href="#DejaVuSans-111"/>
      <use x="88.964844" xlink:href="#DejaVuSans-103"/>
      <use x="152.441406" xlink:href="#DejaVuSans-49"/>
      <use x="216.064453" xlink:href="#DejaVuSans-48"/>
      <use x="279.6875" xlink:href="#DejaVuSans-40"/>
      <use x="318.701172" xlink:href="#DejaVuSans-35"/>
      <use x="402.490234" xlink:href="#DejaVuSans-32"/>
      <use x="434.277344" xlink:href="#DejaVuSans-102"/>
      <use x="463.982422" xlink:href="#DejaVuSans-45"/>
      <use x="500.066406" xlink:href="#DejaVuSans-101"/>
      <use x="561.589844" xlink:href="#DejaVuSans-118"/>
      <use x="620.769531" xlink:href="#DejaVuSans-97"/>
      <use x="682.048828" xlink:href="#DejaVuSans-108"/>
      <use x="709.832031" xlink:href="#DejaVuSans-115"/>
      <use x="761.931641" xlink:href="#DejaVuSans-32"/>
      <use x="793.71875" xlink:href="#DejaVuSans-47"/>
      <use x="827.410156" xlink:href="#DejaVuSans-32"/>
      <use x="859.197266" xlink:href="#DejaVuSans-100"/>
      <use x="922.673828" xlink:href="#DejaVuSans-105"/>
      <use x="950.457031" xlink:href="#DejaVuSans-109"/>
      <use x="1047.869141" xlink:href="#DejaVuSans-101"/>
      <use x="1109.392578" xlink:href="#DejaVuSans-110"/>
      <use x="1172.771484" xlink:href="#DejaVuSans-115"/>
      <use x="1224.871094" xlink:href="#DejaVuSans-105"/>
      <use x="1252.654297" xlink:href="#DejaVuSans-111"/>
      <use x="1313.835938" xlink:href="#DejaVuSans-110"/>
      <use x="1377.214844" xlink:href="#DejaVuSans-41"/>
     </g>
    </g>
   </g>
   <g id="matplotlib.axis_2">
    <g id="ytick_1">
     <g id="line2d_17">
      <path clip-path="url(#pd748ca84dd)" d="M 57.6 298.944 
L 338.688 298.944 
" style="fill:none;stroke:#b0b0b0;stroke-linecap:square;stroke-width:0.8;"/>
     </g>
     <g id="line2d_18">
      <defs>
       <path d="M 0 0 
L -3.5 0 
" id="me921204f0a" style="stroke:#000000;stroke-width:0.8;"/>
      </defs>
      <g>
       <use style="stroke:#000000;stroke-width:0.8;" x="57.6" xlink:href="#me921204f0a" y="298.944"/>
      </g>
     </g>
     <g id="text_6">
      <!-- 0.0 -->
      <g transform="translate(25.155 305.02275)scale(0.16 -0.16)">
       <defs>
        <path d="M 10.6875 12.40625 
L 21 12.40625 
L 21 0 
L 10.6875 0 
z
" id="DejaVuSans-46"/>
       </defs>
       <use xlink:href="#DejaVuSans-48"/>
       <use x="63.623047" xlink:href="#DejaVuSans-46"/>
       <use x="95.410156" xlink:href="#DejaVuSans-48"/>
      </g>
     </g>
    </g>
    <g id="ytick_2">
     <g id="line2d_19">
      <path clip-path="url(#pd748ca84dd)" d="M 57.6 240.431525 
L 338.688 240.431525 
" style="fill:none;stroke:#b0b0b0;stroke-linecap:square;stroke-width:0.8;"/>
     </g>
     <g id="line2d_20">
      <g>
       <use style="stroke:#000000;stroke-width:0.8;" x="57.6" xlink:href="#me921204f0a" y="240.431525"/>
      </g>
     </g>
     <g id="text_7">
      <!-- 0.2 -->
      <g transform="translate(25.155 246.510275)scale(0.16 -0.16)">
       <use xlink:href="#DejaVuSans-48"/>
       <use x="63.623047" xlink:href="#DejaVuSans-46"/>
       <use x="95.410156" xlink:href="#DejaVuSans-50"/>
      </g>
     </g>
    </g>
    <g id="ytick_3">
     <g id="line2d_21">
      <path clip-path="url(#pd748ca84dd)" d="M 57.6 181.91905 
L 338.688 181.91905 
" style="fill:none;stroke:#b0b0b0;stroke-linecap:square;stroke-width:0.8;"/>
     </g>
     <g id="line2d_22">
      <g>
       <use style="stroke:#000000;stroke-width:0.8;" x="57.6" xlink:href="#me921204f0a" y="181.91905"/>
      </g>
     </g>
     <g id="text_8">
      <!-- 0.4 -->
      <g transform="translate(25.155 187.9978)scale(0.16 -0.16)">
       <use xlink:href="#DejaVuSans-48"/>
       <use x="63.623047" xlink:href="#DejaVuSans-46"/>
       <use x="95.410156" xlink:href="#DejaVuSans-52"/>
      </g>
     </g>
    </g>
    <g id="ytick_4">
     <g id="line2d_23">
      <path clip-path="url(#pd748ca84dd)" d="M 57.6 123.406574 
L 338.688 123.406574 
" style="fill:none;stroke:#b0b0b0;stroke-linecap:square;stroke-width:0.8;"/>
     </g>
     <g id="line2d_24">
      <g>
       <use style="stroke:#000000;stroke-width:0.8;" x="57.6" xlink:href="#me921204f0a" y="123.406574"/>
      </g>
     </g>
     <g id="text_9">
      <!-- 0.6 -->
      <g transform="translate(25.155 129.485324)scale(0.16 -0.16)">
       <use xlink:href="#DejaVuSans-48"/>
       <use x="63.623047" xlink:href="#DejaVuSans-46"/>
       <use x="95.410156" xlink:href="#DejaVuSans-54"/>
      </g>
     </g>
    </g>
    <g id="ytick_5">
     <g id="line2d_25">
      <path clip-path="url(#pd748ca84dd)" d="M 57.6 64.894099 
L 338.688 64.894099 
" style="fill:none;stroke:#b0b0b0;stroke-linecap:square;stroke-width:0.8;"/>
     </g>
     <g id="line2d_26">
      <g>
       <use style="stroke:#000000;stroke-width:0.8;" x="57.6" xlink:href="#me921204f0a" y="64.894099"/>
      </g>
     </g>
     <g id="text_10">
      <!-- 0.8 -->
      <g transform="translate(25.155 70.972849)scale(0.16 -0.16)">
       <defs>
        <path d="M 31.78125 34.625 
Q 24.75 34.625 20.71875 30.859375 
Q 16.703125 27.09375 16.703125 20.515625 
Q 16.703125 13.921875 20.71875 10.15625 
Q 24.75 6.390625 31.78125 6.390625 
Q 38.8125 6.390625 42.859375 10.171875 
Q 46.921875 13.96875 46.921875 20.515625 
Q 46.921875 27.09375 42.890625 30.859375 
Q 38.875 34.625 31.78125 34.625 
z
M 21.921875 38.8125 
Q 15.578125 40.375 12.03125 44.71875 
Q 8.5 49.078125 8.5 55.328125 
Q 8.5 64.0625 14.71875 69.140625 
Q 20.953125 74.21875 31.78125 74.21875 
Q 42.671875 74.21875 48.875 69.140625 
Q 55.078125 64.0625 55.078125 55.328125 
Q 55.078125 49.078125 51.53125 44.71875 
Q 48 40.375 41.703125 38.8125 
Q 48.828125 37.15625 52.796875 32.3125 
Q 56.78125 27.484375 56.78125 20.515625 
Q 56.78125 9.90625 50.3125 4.234375 
Q 43.84375 -1.421875 31.78125 -1.421875 
Q 19.734375 -1.421875 13.25 4.234375 
Q 6.78125 9.90625 6.78125 20.515625 
Q 6.78125 27.484375 10.78125 32.3125 
Q 14.796875 37.15625 21.921875 38.8125 
z
M 18.3125 54.390625 
Q 18.3125 48.734375 21.84375 45.5625 
Q 25.390625 42.390625 31.78125 42.390625 
Q 38.140625 42.390625 41.71875 45.5625 
Q 45.3125 48.734375 45.3125 54.390625 
Q 45.3125 60.0625 41.71875 63.234375 
Q 38.140625 66.40625 31.78125 66.40625 
Q 25.390625 66.40625 21.84375 63.234375 
Q 18.3125 60.0625 18.3125 54.390625 
z
" id="DejaVuSans-56"/>
       </defs>
       <use xlink:href="#DejaVuSans-48"/>
       <use x="63.623047" xlink:href="#DejaVuSans-46"/>
       <use x="95.410156" xlink:href="#DejaVuSans-56"/>
      </g>
     </g>
    </g>
    <g id="ytick_6">
     <g id="line2d_27">
      <path clip-path="url(#pd748ca84dd)" d="M 57.6 6.381624 
L 338.688 6.381624 
" style="fill:none;stroke:#b0b0b0;stroke-linecap:square;stroke-width:0.8;"/>
     </g>
     <g id="line2d_28">
      <g>
       <use style="stroke:#000000;stroke-width:0.8;" x="57.6" xlink:href="#me921204f0a" y="6.381624"/>
      </g>
     </g>
     <g id="text_11">
      <!-- 1.0 -->
      <g transform="translate(25.155 12.460374)scale(0.16 -0.16)">
       <use xlink:href="#DejaVuSans-49"/>
       <use x="63.623047" xlink:href="#DejaVuSans-46"/>
       <use x="95.410156" xlink:href="#DejaVuSans-48"/>
      </g>
     </g>
    </g>
    <g id="text_12">
     <!-- Fraction of function,target pairs -->
     <g transform="translate(17.619531 285.585)rotate(-90)scale(0.17 -0.17)">
      <defs>
       <path d="M 9.8125 72.90625 
L 51.703125 72.90625 
L 51.703125 64.59375 
L 19.671875 64.59375 
L 19.671875 43.109375 
L 48.578125 43.109375 
L 48.578125 34.8125 
L 19.671875 34.8125 
L 19.671875 0 
L 9.8125 0 
z
" id="DejaVuSans-70"/>
       <path d="M 41.109375 46.296875 
Q 39.59375 47.171875 37.8125 47.578125 
Q 36.03125 48 33.890625 48 
Q 26.265625 48 22.1875 43.046875 
Q 18.109375 38.09375 18.109375 28.8125 
L 18.109375 0 
L 9.078125 0 
L 9.078125 54.6875 
L 18.109375 54.6875 
L 18.109375 46.1875 
Q 20.953125 51.171875 25.484375 53.578125 
Q 30.03125 56 36.53125 56 
Q 37.453125 56 38.578125 55.875 
Q 39.703125 55.765625 41.0625 55.515625 
z
" id="DejaVuSans-114"/>
       <path d="M 48.78125 52.59375 
L 48.78125 44.1875 
Q 44.96875 46.296875 41.140625 47.34375 
Q 37.3125 48.390625 33.40625 48.390625 
Q 24.65625 48.390625 19.8125 42.84375 
Q 14.984375 37.3125 14.984375 27.296875 
Q 14.984375 17.28125 19.8125 11.734375 
Q 24.65625 6.203125 33.40625 6.203125 
Q 37.3125 6.203125 41.140625 7.25 
Q 44.96875 8.296875 48.78125 10.40625 
L 48.78125 2.09375 
Q 45.015625 0.34375 40.984375 -0.53125 
Q 36.96875 -1.421875 32.421875 -1.421875 
Q 20.0625 -1.421875 12.78125 6.34375 
Q 5.515625 14.109375 5.515625 27.296875 
Q 5.515625 40.671875 12.859375 48.328125 
Q 20.21875 56 33.015625 56 
Q 37.15625 56 41.109375 55.140625 
Q 45.0625 54.296875 48.78125 52.59375 
z
" id="DejaVuSans-99"/>
       <path d="M 18.3125 70.21875 
L 18.3125 54.6875 
L 36.8125 54.6875 
L 36.8125 47.703125 
L 18.3125 47.703125 
L 18.3125 18.015625 
Q 18.3125 11.328125 20.140625 9.421875 
Q 21.96875 7.515625 27.59375 7.515625 
L 36.8125 7.515625 
L 36.8125 0 
L 27.59375 0 
Q 17.1875 0 13.234375 3.875 
Q 9.28125 7.765625 9.28125 18.015625 
L 9.28125 47.703125 
L 2.6875 47.703125 
L 2.6875 54.6875 
L 9.28125 54.6875 
L 9.28125 70.21875 
z
" id="DejaVuSans-116"/>
       <path d="M 8.5 21.578125 
L 8.5 54.6875 
L 17.484375 54.6875 
L 17.484375 21.921875 
Q 17.484375 14.15625 20.5 10.265625 
Q 23.53125 6.390625 29.59375 6.390625 
Q 36.859375 6.390625 41.078125 11.03125 
Q 45.3125 15.671875 45.3125 23.6875 
L 45.3125 54.6875 
L 54.296875 54.6875 
L 54.296875 0 
L 45.3125 0 
L 45.3125 8.40625 
Q 42.046875 3.421875 37.71875 1 
Q 33.40625 -1.421875 27.6875 -1.421875 
Q 18.265625 -1.421875 13.375 4.4375 
Q 8.5 10.296875 8.5 21.578125 
z
M 31.109375 56 
z
" id="DejaVuSans-117"/>
       <path d="M 11.71875 12.40625 
L 22.015625 12.40625 
L 22.015625 4 
L 14.015625 -11.625 
L 7.71875 -11.625 
L 11.71875 4 
z
" id="DejaVuSans-44"/>
       <path d="M 18.109375 8.203125 
L 18.109375 -20.796875 
L 9.078125 -20.796875 
L 9.078125 54.6875 
L 18.109375 54.6875 
L 18.109375 46.390625 
Q 20.953125 51.265625 25.265625 53.625 
Q 29.59375 56 35.59375 56 
Q 45.5625 56 51.78125 48.09375 
Q 58.015625 40.1875 58.015625 27.296875 
Q 58.015625 14.40625 51.78125 6.484375 
Q 45.5625 -1.421875 35.59375 -1.421875 
Q 29.59375 -1.421875 25.265625 0.953125 
Q 20.953125 3.328125 18.109375 8.203125 
z
M 48.6875 27.296875 
Q 48.6875 37.203125 44.609375 42.84375 
Q 40.53125 48.484375 33.40625 48.484375 
Q 26.265625 48.484375 22.1875 42.84375 
Q 18.109375 37.203125 18.109375 27.296875 
Q 18.109375 17.390625 22.1875 11.75 
Q 26.265625 6.109375 33.40625 6.109375 
Q 40.53125 6.109375 44.609375 11.75 
Q 48.6875 17.390625 48.6875 27.296875 
z
" id="DejaVuSans-112"/>
      </defs>
      <use xlink:href="#DejaVuSans-70"/>
      <use x="50.269531" xlink:href="#DejaVuSans-114"/>
      <use x="91.382812" xlink:href="#DejaVuSans-97"/>
      <use x="152.662109" xlink:href="#DejaVuSans-99"/>
      <use x="207.642578" xlink:href="#DejaVuSans-116"/>
      <use x="246.851562" xlink:href="#DejaVuSans-105"/>
      <use x="274.634766" xlink:href="#DejaVuSans-111"/>
      <use x="335.816406" xlink:href="#DejaVuSans-110"/>
      <use x="399.195312" xlink:href="#DejaVuSans-32"/>
      <use x="430.982422" xlink:href="#DejaVuSans-111"/>
      <use x="492.164062" xlink:href="#DejaVuSans-102"/>
      <use x="527.369141" xlink:href="#DejaVuSans-32"/>
      <use x="559.15625" xlink:href="#DejaVuSans-102"/>
      <use x="594.361328" xlink:href="#DejaVuSans-117"/>
      <use x="657.740234" xlink:href="#DejaVuSans-110"/>
      <use x="721.119141" xlink:href="#DejaVuSans-99"/>
      <use x="776.099609" xlink:href="#DejaVuSans-116"/>
      <use x="815.308594" xlink:href="#DejaVuSans-105"/>
      <use x="843.091797" xlink:href="#DejaVuSans-111"/>
      <use x="904.273438" xlink:href="#DejaVuSans-110"/>
      <use x="967.652344" xlink:href="#DejaVuSans-44"/>
      <use x="999.439453" xlink:href="#DejaVuSans-116"/>
      <use x="1038.648438" xlink:href="#DejaVuSans-97"/>
      <use x="1099.927734" xlink:href="#DejaVuSans-114"/>
      <use x="1139.291016" xlink:href="#DejaVuSans-103"/>
      <use x="1202.767578" xlink:href="#DejaVuSans-101"/>
      <use x="1264.291016" xlink:href="#DejaVuSans-116"/>
      <use x="1303.5" xlink:href="#DejaVuSans-32"/>
      <use x="1335.287109" xlink:href="#DejaVuSans-112"/>
      <use x="1398.763672" xlink:href="#DejaVuSans-97"/>
      <use x="1460.042969" xlink:href="#DejaVuSans-105"/>
      <use x="1487.826172" xlink:href="#DejaVuSans-114"/>
      <use x="1528.939453" xlink:href="#DejaVuSans-115"/>
     </g>
    </g>
   </g>
   <g id="line2d_29">
    <defs>
     <path d="M 0 1.5 
C 0.397805 1.5 0.77937 1.341951 1.06066 1.06066 
C 1.341951 0.77937 1.5 0.397805 1.5 0 
C 1.5 -0.397805 1.341951 -0.77937 1.06066 -1.06066 
C 0.77937 -1.341951 0.397805 -1.5 0 -1.5 
C -0.397805 -1.5 -0.77937 -1.341951 -1.06066 -1.06066 
C -1.341951 -0.77937 -1.5 -0.397805 -1.5 0 
C -1.5 0.397805 -1.341951 0.77937 -1.06066 1.06066 
C -0.77937 1.341951 -0.397805 1.5 0 1.5 
z
" id="mad15f84efc" style="stroke:#000080;"/>
    </defs>
    <g>
     <use style="fill:#000080;stroke:#000080;" x="256.8217" xlink:href="#mad15f84efc" y="137.530275"/>
     <use style="fill:#000080;stroke:#000080;" x="256.8217" xlink:href="#mad15f84efc" y="137.530275"/>
    </g>
   </g>
   <g id="line2d_30">
    <path d="M 38.440992 298.944 
L 38.440992 288.855642 
L 94.575872 288.855642 
L 94.575872 288.351224 
L 98.880934 288.351224 
L 98.880934 287.342389 
L 107.680028 287.342389 
L 107.680028 286.333553 
L 109.843417 286.333553 
L 109.843417 285.829135 
L 111.505558 285.829135 
L 111.505558 285.324717 
L 111.767808 285.324717 
L 111.767808 284.820299 
L 116.522527 284.820299 
L 116.522527 284.315881 
L 117.857331 284.315881 
L 117.857331 283.811463 
L 120.254726 283.811463 
L 120.254726 283.307045 
L 123.327293 283.307045 
L 123.327293 282.29821 
L 125.110962 282.29821 
L 125.110962 281.289374 
L 125.938745 281.289374 
L 125.938745 280.280538 
L 126.729009 280.280538 
L 126.729009 279.271702 
L 127.48501 279.271702 
L 127.48501 278.262867 
L 128.209594 278.262867 
L 128.209594 277.758449 
L 128.905271 277.758449 
L 128.905271 277.254031 
L 129.574256 277.254031 
L 129.574256 276.245195 
L 130.218525 276.245195 
L 130.218525 274.731941 
L 130.839837 274.731941 
L 130.839837 272.209852 
L 131.439773 272.209852 
L 131.439773 270.696598 
L 132.019755 270.696598 
L 132.019755 268.174509 
L 132.581068 268.174509 
L 132.581068 264.643583 
L 133.124876 264.643583 
L 133.124876 261.617076 
L 133.652238 261.617076 
L 133.652238 254.555226 
L 134.164119 254.555226 
L 134.164119 250.015465 
L 134.661403 250.015465 
L 134.661403 248.502211 
L 135.144899 248.502211 
L 135.144899 247.493375 
L 135.615352 247.493375 
L 135.615352 245.475704 
L 136.073445 245.475704 
L 136.073445 243.96245 
L 136.519813 243.96245 
L 136.519813 241.944778 
L 136.955041 241.944778 
L 136.955041 241.440361 
L 137.37967 241.440361 
L 137.37967 238.413853 
L 137.794206 238.413853 
L 137.794206 235.387346 
L 138.199116 235.387346 
L 138.199116 234.37851 
L 139.730821 234.37851 
L 139.730821 233.874092 
L 140.093612 233.874092 
L 140.093612 233.369674 
L 140.44901 233.369674 
L 140.44901 232.360839 
L 141.47371 232.360839 
L 141.47371 230.847585 
L 143.358447 230.847585 
L 143.358447 230.343167 
L 144.787023 230.343167 
L 144.787023 229.838749 
L 146.608752 229.838749 
L 146.608752 229.334331 
L 150.372662 229.334331 
L 150.372662 228.325495 
L 153.008024 228.325495 
L 153.008024 227.821078 
L 155.990803 227.821078 
L 155.990803 227.31666 
L 157.069866 227.31666 
L 157.069866 226.812242 
L 160.054568 226.812242 
L 160.054568 226.307824 
L 160.727241 226.307824 
L 160.727241 225.298988 
L 161.054091 225.298988 
L 161.054091 224.79457 
L 161.615474 224.79457 
L 161.615474 224.290152 
L 162.46065 224.290152 
L 162.46065 223.785734 
L 163.061823 223.785734 
L 163.061823 223.281316 
L 164.269589 223.281316 
L 164.269589 222.272481 
L 167.975417 222.272481 
L 167.975417 221.768063 
L 168.576655 221.768063 
L 168.576655 221.263645 
L 170.88154 221.263645 
L 170.88154 220.759227 
L 173.103489 220.759227 
L 173.103489 220.254809 
L 177.372536 220.254809 
L 177.372536 219.750391 
L 178.536561 219.750391 
L 178.536561 219.245973 
L 178.794926 219.245973 
L 178.794926 218.237138 
L 182.466459 218.237138 
L 182.466459 217.73272 
L 182.797538 217.73272 
L 182.797538 216.723884 
L 184.973775 216.723884 
L 184.973775 215.715048 
L 187.954653 215.715048 
L 187.954653 215.21063 
L 188.910557 215.21063 
L 188.910557 214.706212 
L 190.576387 214.706212 
L 190.576387 213.192959 
L 190.706405 213.192959 
L 190.706405 212.688541 
L 191.104509 212.688541 
L 191.104509 211.679705 
L 191.334192 211.679705 
L 191.334192 210.670869 
L 191.582327 210.670869 
L 191.582327 209.662033 
L 191.800554 209.662033 
L 191.800554 209.157616 
L 192.039578 209.157616 
L 192.039578 207.139944 
L 192.236722 207.139944 
L 192.236722 204.617855 
L 193.006208 204.617855 
L 193.006208 203.104601 
L 194.173159 203.104601 
L 194.173159 202.600183 
L 195.381422 202.600183 
L 195.381422 202.095765 
L 196.539608 202.095765 
L 196.539608 201.591347 
L 197.710652 201.591347 
L 197.710652 200.582511 
L 199.483116 200.582511 
L 199.483116 200.078094 
L 203.877961 200.078094 
L 203.877961 199.573676 
L 206.14651 199.573676 
L 206.14651 199.069258 
L 206.32796 199.069258 
L 206.32796 198.56484 
L 210.965732 198.56484 
L 211.065908 197.051586 
L 211.088675 197.051586 
L 211.167254 194.529497 
L 211.211625 194.529497 
L 211.211625 193.520661 
L 211.923323 193.520661 
L 212.016501 191.502989 
L 212.052971 191.502989 
L 212.100929 190.494154 
L 213.967547 190.494154 
L 213.967547 189.989736 
L 224.766341 189.989736 
L 224.842066 187.972064 
L 224.897653 187.972064 
L 224.932898 186.458811 
L 225.011449 186.458811 
L 225.116289 179.901378 
L 225.226728 179.901378 
L 225.329125 177.883706 
L 225.508034 177.883706 
L 225.508034 177.379288 
L 226.544579 177.379288 
L 226.544579 176.874871 
L 233.681961 176.874871 
L 233.777995 169.81302 
L 236.530003 169.81302 
L 236.533461 168.804184 
L 239.849887 168.804184 
L 239.849887 168.299766 
L 239.966388 168.299766 
L 239.966388 167.290931 
L 240.387455 167.290931 
L 240.387455 166.282095 
L 240.716371 166.282095 
L 240.716371 165.777677 
L 241.39068 165.777677 
L 241.39068 165.273259 
L 242.544722 165.273259 
L 242.544722 164.768841 
L 246.215522 164.768841 
L 246.220425 162.246752 
L 246.39498 162.246752 
L 246.495457 156.698155 
L 246.782614 156.698155 
L 246.782614 155.689319 
L 246.978836 155.689319 
L 246.978836 155.184901 
L 247.408664 155.184901 
L 247.408664 154.680483 
L 248.047001 154.680483 
L 248.047001 154.176066 
L 249.561281 154.176066 
L 249.561281 153.671648 
L 249.808545 153.671648 
L 249.908026 151.653976 
L 250.787427 151.653976 
L 250.787427 150.64514 
L 251.623661 150.64514 
L 251.623661 149.636305 
L 251.811699 149.636305 
L 251.811699 149.131887 
L 254.526034 149.131887 
L 254.526034 148.123051 
L 255.357156 148.123051 
L 255.357156 147.618633 
L 255.550382 147.618633 
L 255.550382 146.609797 
L 255.716998 146.609797 
L 255.716998 146.105379 
L 256.061269 146.105379 
L 256.061269 144.592126 
L 256.347228 144.592126 
L 256.347228 143.58329 
L 256.713386 143.58329 
L 256.8217 137.530275 
L 338.688 137.530275 
L 338.688 137.530275 
" style="fill:none;stroke:#000080;stroke-linecap:square;stroke-width:1.5;"/>
   </g>
   <g id="line2d_31">
    <defs>
     <path d="M 0 6 
C 1.591219 6 3.117479 5.367802 4.242641 4.242641 
C 5.367802 3.117479 6 1.591219 6 0 
C 6 -1.591219 5.367802 -3.117479 4.242641 -4.242641 
C 3.117479 -5.367802 1.591219 -6 0 -6 
C -1.591219 -6 -3.117479 -5.367802 -4.242641 -4.242641 
C -5.367802 -3.117479 -6 -1.591219 -6 0 
C -6 1.591219 -5.367802 3.117479 -4.242641 4.242641 
C -3.117479 5.367802 -1.591219 6 0 6 
z
" id="mcd25c53a41" style="stroke:#000080;stroke-width:1.5;"/>
    </defs>
    <g>
     <use style="fill-opacity:0;stroke:#000080;stroke-width:1.5;" x="132.019755" xlink:href="#mcd25c53a41" y="268.174509"/>
     <use style="fill-opacity:0;stroke:#000080;stroke-width:1.5;" x="178.794926" xlink:href="#mcd25c53a41" y="218.237138"/>
     <use style="fill-opacity:0;stroke:#000080;stroke-width:1.5;" x="226.544579" xlink:href="#mcd25c53a41" y="176.874871"/>
     <use style="fill-opacity:0;stroke:#000080;stroke-width:1.5;" x="256.8217" xlink:href="#mcd25c53a41" y="139.043529"/>
     <use style="fill-opacity:0;stroke:#000080;stroke-width:1.5;" x="256.8217" xlink:href="#mcd25c53a41" y="137.530275"/>
     <use style="fill-opacity:0;stroke:#000080;stroke-width:1.5;" x="338.688" xlink:href="#mcd25c53a41" y="137.530275"/>
    </g>
   </g>
   <g id="line2d_32">
    <path style="fill:none;stroke:#000080;stroke-linecap:square;stroke-width:1.5;"/>
    <g/>
   </g>
   <g id="line2d_33">
    <path clip-path="url(#pd748ca84dd)" d="M 258.377143 137.530275 
" style="fill:none;stroke:#000080;stroke-linecap:square;stroke-width:1.5;"/>
    <defs>
     <path d="M -12 12 
L 12 -12 
M -12 -12 
L 12 12 
" id="m095fffe034" style="stroke:#000080;"/>
    </defs>
    <g clip-path="url(#pd748ca84dd)">
     <use style="fill:#000080;stroke:#000080;" x="258.377143" xlink:href="#m095fffe034" y="137.530275"/>
    </g>
   </g>
   <g id="line2d_34">
    <defs>
     <path d="M 0 1.5 
C 0.397805 1.5 0.77937 1.341951 1.06066 1.06066 
C 1.341951 0.77937 1.5 0.397805 1.5 0 
C 1.5 -0.397805 1.341951 -0.77937 1.06066 -1.06066 
C 0.77937 -1.341951 0.397805 -1.5 0 -1.5 
C -0.397805 -1.5 -0.77937 -1.341951 -1.06066 -1.06066 
C -1.341951 -0.77937 -1.5 -0.397805 -1.5 0 
C -1.5 0.397805 -1.341951 0.77937 -1.06066 1.06066 
C -0.77937 1.341951 -0.397805 1.5 0 1.5 
z
" id="m6cec528e34" style="stroke:#ff00ff;"/>
    </defs>
    <g>
     <use style="fill:#ff00ff;stroke:#ff00ff;" x="258.342987" xlink:href="#m6cec528e34" y="138.539111"/>
     <use style="fill:#ff00ff;stroke:#ff00ff;" x="258.342987" xlink:href="#m6cec528e34" y="138.539111"/>
    </g>
   </g>
   <g id="line2d_35">
    <path d="M 38.440992 298.944 
L 38.440992 296.421911 
L 92.34655 296.421911 
L 92.34655 295.917493 
L 93.863965 295.917493 
L 93.863965 295.413075 
L 94.575872 295.413075 
L 94.575872 294.908657 
L 105.209745 294.908657 
L 105.209745 294.404239 
L 107.680028 294.404239 
L 107.680028 293.395403 
L 109.843417 293.395403 
L 109.843417 292.890985 
L 116.522527 292.890985 
L 116.522527 291.88215 
L 120.254726 291.88215 
L 120.254726 291.377732 
L 121.340187 291.377732 
L 121.340187 290.368896 
L 122.362027 290.368896 
L 122.362027 288.855642 
L 123.327293 288.855642 
L 123.327293 288.351224 
L 124.241922 288.351224 
L 124.241922 286.837971 
L 125.110962 286.837971 
L 125.110962 284.820299 
L 125.938745 284.820299 
L 125.938745 283.307045 
L 126.729009 283.307045 
L 126.729009 281.793792 
L 127.48501 281.793792 
L 127.48501 279.77612 
L 128.905271 279.77612 
L 128.905271 279.271702 
L 131.439773 279.271702 
L 131.439773 278.767284 
L 133.124876 278.767284 
L 133.124876 277.758449 
L 133.652238 277.758449 
L 133.652238 277.254031 
L 137.37967 277.254031 
L 137.37967 276.245195 
L 141.47371 276.245195 
L 141.47371 275.236359 
L 149.437669 275.236359 
L 149.437669 274.731941 
L 152.25837 274.731941 
L 152.25837 274.227523 
L 158.819862 274.227523 
L 158.819862 273.723105 
L 158.959517 273.723105 
L 158.959517 272.71427 
L 160.054568 272.71427 
L 160.054568 270.696598 
L 161.038665 270.696598 
L 161.038665 270.19218 
L 162.375093 270.19218 
L 162.375093 269.687762 
L 164.874481 269.687762 
L 164.874481 269.183344 
L 165.193576 269.183344 
L 165.193576 268.174509 
L 165.423123 268.174509 
L 165.423123 267.670091 
L 169.407953 267.670091 
L 169.407953 266.661255 
L 170.43709 266.661255 
L 170.43709 265.652419 
L 173.356625 265.652419 
L 173.462916 264.643583 
L 173.673575 264.643583 
L 173.777957 263.13033 
L 173.829915 263.13033 
L 173.829915 262.625912 
L 173.984866 262.625912 
L 174.036212 261.112658 
L 174.640854 261.112658 
L 174.640854 260.60824 
L 181.567424 260.60824 
L 181.567424 260.103822 
L 187.268693 260.103822 
L 187.340566 258.590569 
L 187.388317 258.590569 
L 187.388317 258.086151 
L 187.951355 258.086151 
L 187.951355 257.581733 
L 190.980209 257.581733 
L 190.980209 256.572897 
L 191.236127 256.572897 
L 191.236127 256.068479 
L 193.846964 256.068479 
L 193.846964 255.564061 
L 194.17085 255.564061 
L 194.17085 255.059644 
L 201.840936 255.059644 
L 201.882526 251.528718 
L 205.197548 251.528718 
L 205.197548 250.519883 
L 205.604936 250.519883 
L 205.621706 249.006629 
L 205.821694 249.006629 
L 205.821694 248.502211 
L 206.310705 248.502211 
L 206.379622 247.493375 
L 206.451692 247.493375 
L 206.540511 245.980122 
L 206.564347 245.980122 
L 206.564347 244.971286 
L 207.101567 244.971286 
L 207.14002 243.96245 
L 207.950547 243.96245 
L 207.950547 243.458032 
L 209.022149 243.458032 
L 209.022149 242.953614 
L 209.399298 242.953614 
L 209.406045 241.944778 
L 211.190759 241.944778 
L 211.190759 241.440361 
L 213.18303 241.440361 
L 213.18303 240.431525 
L 213.855904 240.431525 
L 213.876798 237.909435 
L 214.135887 237.909435 
L 214.135887 237.405017 
L 216.307271 237.405017 
L 216.307271 236.9006 
L 218.146564 236.9006 
L 218.212992 233.874092 
L 219.49969 233.874092 
L 219.556322 230.847585 
L 223.270916 230.847585 
L 223.270916 229.838749 
L 223.585309 229.838749 
L 223.585309 228.829913 
L 223.733838 228.829913 
L 223.840725 223.281316 
L 223.876069 223.281316 
L 223.964535 217.228302 
L 223.999212 217.228302 
L 224.071685 214.201794 
L 224.401071 214.201794 
L 224.401071 213.697377 
L 225.134679 213.697377 
L 225.161251 212.184123 
L 226.194827 212.184123 
L 226.194827 211.175287 
L 228.220192 211.175287 
L 228.220192 210.670869 
L 228.583354 210.670869 
L 228.656686 208.14878 
L 228.993732 208.14878 
L 228.993732 207.644362 
L 229.869371 207.644362 
L 229.869371 206.635526 
L 231.886553 206.635526 
L 231.886553 205.62669 
L 232.927332 205.62669 
L 232.927332 205.122272 
L 233.125566 205.122272 
L 233.212405 203.609019 
L 233.285831 203.609019 
L 233.384065 202.095765 
L 233.59286 202.095765 
L 233.59286 201.086929 
L 233.806084 201.086929 
L 233.806084 200.582511 
L 234.042798 200.582511 
L 234.042798 200.078094 
L 234.521872 200.078094 
L 234.521872 199.573676 
L 235.297654 199.573676 
L 235.297654 198.56484 
L 236.722424 198.56484 
L 236.722424 198.060422 
L 237.156059 198.060422 
L 237.156059 197.051586 
L 237.307324 197.051586 
L 237.307324 196.04275 
L 238.24782 196.04275 
L 238.260722 195.033915 
L 238.380797 195.033915 
L 238.385919 192.511825 
L 239.03 192.511825 
L 239.069267 189.989736 
L 239.199115 189.989736 
L 239.199115 188.9809 
L 239.388553 188.9809 
L 239.388553 188.476482 
L 241.028512 188.476482 
L 241.028512 187.467646 
L 241.275131 187.467646 
L 241.323884 184.945557 
L 241.698194 184.945557 
L 241.698194 184.441139 
L 241.960489 184.441139 
L 241.960489 183.936721 
L 242.246478 183.936721 
L 242.246478 183.432303 
L 242.688094 183.432303 
L 242.688094 182.927885 
L 242.804335 182.927885 
L 242.87221 181.414632 
L 242.951652 181.414632 
L 243.011944 179.901378 
L 243.066574 179.901378 
L 243.113085 177.379288 
L 243.443585 177.379288 
L 243.443585 176.874871 
L 243.630499 176.874871 
L 243.630499 176.370453 
L 243.782172 176.370453 
L 243.814761 174.857199 
L 244.185549 174.857199 
L 244.254406 170.317438 
L 244.992919 170.317438 
L 244.992919 169.81302 
L 246.440566 169.81302 
L 246.440566 168.804184 
L 246.908962 168.804184 
L 246.908962 168.299766 
L 248.206256 168.299766 
L 248.206256 167.290931 
L 248.502555 167.290931 
L 248.502555 166.786513 
L 248.873283 166.786513 
L 248.873283 166.282095 
L 249.241692 166.282095 
L 249.241692 165.273259 
L 249.353621 165.273259 
L 249.417481 158.715827 
L 250.741824 158.715827 
L 250.741824 158.211409 
L 252.498342 158.211409 
L 252.584936 150.64514 
L 254.914883 150.64514 
L 255.006877 148.627469 
L 255.159037 148.627469 
L 255.159037 148.123051 
L 256.104367 148.123051 
L 256.104367 147.618633 
L 256.901405 147.618633 
L 256.921195 145.096544 
L 257.693371 145.096544 
L 257.694701 143.078872 
L 258.241228 143.078872 
L 258.342987 138.539111 
L 338.688 138.539111 
L 338.688 138.539111 
" style="fill:none;stroke:#ff00ff;stroke-linecap:square;stroke-width:1.5;"/>
   </g>
   <g id="line2d_36">
    <defs>
     <path d="M -0 8.485281 
L 5.091169 0 
L 0 -8.485281 
L -5.091169 -0 
z
" id="ma73ecea161" style="stroke:#ff00ff;stroke-linejoin:miter;stroke-width:1.5;"/>
    </defs>
    <g>
     <use style="fill-opacity:0;stroke:#ff00ff;stroke-linejoin:miter;stroke-width:1.5;" x="109.843417" xlink:href="#ma73ecea161" y="292.890985"/>
     <use style="fill-opacity:0;stroke:#ff00ff;stroke-linejoin:miter;stroke-width:1.5;" x="170.43709" xlink:href="#ma73ecea161" y="266.661255"/>
     <use style="fill-opacity:0;stroke:#ff00ff;stroke-linejoin:miter;stroke-width:1.5;" x="236.722424" xlink:href="#ma73ecea161" y="198.060422"/>
     <use style="fill-opacity:0;stroke:#ff00ff;stroke-linejoin:miter;stroke-width:1.5;" x="258.342987" xlink:href="#ma73ecea161" y="140.556783"/>
     <use style="fill-opacity:0;stroke:#ff00ff;stroke-linejoin:miter;stroke-width:1.5;" x="258.342987" xlink:href="#ma73ecea161" y="138.539111"/>
     <use style="fill-opacity:0;stroke:#ff00ff;stroke-linejoin:miter;stroke-width:1.5;" x="338.688" xlink:href="#ma73ecea161" y="138.539111"/>
    </g>
   </g>
   <g id="line2d_37">
    <path style="fill:none;stroke:#ff00ff;stroke-linecap:square;stroke-width:1.5;"/>
    <g/>
   </g>
   <g id="line2d_38">
    <path clip-path="url(#pd748ca84dd)" d="M 258.377085 138.539111 
" style="fill:none;stroke:#ff00ff;stroke-linecap:square;stroke-width:1.5;"/>
    <defs>
     <path d="M -12 12 
L 12 -12 
M -12 -12 
L 12 12 
" id="mb56c800fab" style="stroke:#ff00ff;"/>
    </defs>
    <g clip-path="url(#pd748ca84dd)">
     <use style="fill:#ff00ff;stroke:#ff00ff;" x="258.377085" xlink:href="#mb56c800fab" y="138.539111"/>
    </g>
   </g>
   <g id="line2d_39">
    <defs>
     <path d="M 0 1.5 
C 0.397805 1.5 0.77937 1.341951 1.06066 1.06066 
C 1.341951 0.77937 1.5 0.397805 1.5 0 
C 1.5 -0.397805 1.341951 -0.77937 1.06066 -1.06066 
C 0.77937 -1.341951 0.397805 -1.5 0 -1.5 
C -0.397805 -1.5 -0.77937 -1.341951 -1.06066 -1.06066 
C -1.341951 -0.77937 -1.5 -0.397805 -1.5 0 
C -1.5 0.397805 -1.341951 0.77937 -1.06066 1.06066 
C -0.77937 1.341951 -0.397805 1.5 0 1.5 
z
" id="m5e1edcf09c" style="stroke:#ff7500;"/>
    </defs>
    <g>
     <use style="fill:#ff7500;stroke:#ff7500;" x="258.002267" xlink:href="#m5e1edcf09c" y="111.300545"/>
     <use style="fill:#ff7500;stroke:#ff7500;" x="258.002267" xlink:href="#m5e1edcf09c" y="111.300545"/>
    </g>
   </g>
   <g id="line2d_40">
    <path d="M 38.440992 298.944 
L 38.440992 297.935164 
L 94.575872 297.935164 
L 94.575872 296.926328 
L 98.880934 296.926328 
L 98.880934 296.421911 
L 105.209745 296.421911 
L 105.209745 295.413075 
L 107.680028 295.413075 
L 107.680028 293.899821 
L 109.843417 293.899821 
L 109.843417 292.890985 
L 111.767808 292.890985 
L 111.767808 291.377732 
L 113.500792 291.377732 
L 113.500792 290.368896 
L 115.077025 290.368896 
L 115.077025 288.855642 
L 116.522527 288.855642 
L 116.522527 287.846806 
L 117.857331 287.846806 
L 117.857331 287.342389 
L 119.097192 287.342389 
L 119.097192 286.837971 
L 120.254726 286.837971 
L 120.254726 286.333553 
L 148.513109 286.333553 
L 148.513109 285.829135 
L 151.287083 285.829135 
L 151.287083 285.324717 
L 151.844975 285.324717 
L 151.844975 284.820299 
L 152.283884 284.820299 
L 152.283884 284.315881 
L 159.422762 284.315881 
L 159.422762 283.811463 
L 159.54088 283.811463 
L 159.54088 283.307045 
L 161.465522 283.307045 
L 161.465522 282.802628 
L 163.536298 282.802628 
L 163.536298 282.29821 
L 165.708824 282.29821 
L 165.708824 281.793792 
L 166.047915 281.793792 
L 166.047915 281.289374 
L 167.724788 281.289374 
L 167.724788 280.784956 
L 168.546579 280.784956 
L 168.546579 280.280538 
L 168.746115 280.280538 
L 168.746115 279.77612 
L 173.257343 279.77612 
L 173.257343 279.271702 
L 178.977944 279.271702 
L 178.977944 278.767284 
L 185.352989 278.767284 
L 185.406495 277.758449 
L 186.995632 277.758449 
L 186.995632 277.254031 
L 188.690678 277.254031 
L 188.690678 276.749613 
L 189.090665 276.749613 
L 189.090665 276.245195 
L 189.8523 276.245195 
L 189.934909 274.227523 
L 189.976067 274.227523 
L 189.976067 273.723105 
L 191.178666 273.723105 
L 191.197841 272.71427 
L 191.744926 272.71427 
L 191.744926 272.209852 
L 194.554448 272.209852 
L 194.554448 271.705434 
L 195.657072 271.705434 
L 195.657072 271.201016 
L 196.212071 271.201016 
L 196.212071 270.696598 
L 198.836275 270.696598 
L 198.836275 269.687762 
L 198.959509 269.687762 
L 198.959509 269.183344 
L 199.262113 269.183344 
L 199.322353 266.661255 
L 201.300257 266.661255 
L 201.300257 266.156837 
L 204.309227 266.156837 
L 204.309227 265.652419 
L 206.401389 265.652419 
L 206.401389 265.148001 
L 207.025512 265.148001 
L 207.059723 262.625912 
L 207.19918 262.625912 
L 207.19918 261.617076 
L 207.505987 261.617076 
L 207.601369 258.590569 
L 208.365652 258.590569 
L 208.372811 257.581733 
L 209.814652 257.581733 
L 209.814652 257.077315 
L 210.240566 257.077315 
L 210.240566 256.068479 
L 210.396046 256.068479 
L 210.396046 255.564061 
L 211.420647 255.564061 
L 211.476365 254.555226 
L 211.55748 254.555226 
L 211.55748 253.54639 
L 211.758211 253.54639 
L 211.758211 252.537554 
L 211.929161 252.537554 
L 211.975797 250.015465 
L 213.19234 250.015465 
L 213.26278 247.493375 
L 213.317542 247.493375 
L 213.403578 245.475704 
L 213.599412 245.475704 
L 213.599412 244.971286 
L 214.460558 244.971286 
L 214.561238 243.96245 
L 214.945626 243.96245 
L 215.005147 242.449196 
L 215.190802 242.449196 
L 215.190802 241.944778 
L 217.507386 241.944778 
L 217.507386 240.935943 
L 219.748574 240.935943 
L 219.782094 239.422689 
L 223.088936 239.422689 
L 223.088936 238.918271 
L 225.707469 238.918271 
L 225.808595 234.882928 
L 226.844253 234.882928 
L 226.844253 233.874092 
L 227.723004 233.874092 
L 227.723004 233.369674 
L 228.3998 233.369674 
L 228.475843 231.856421 
L 228.564411 231.856421 
L 228.564411 231.352003 
L 228.809717 231.352003 
L 228.809717 230.847585 
L 229.465289 230.847585 
L 229.465289 230.343167 
L 232.338934 230.343167 
L 232.432858 229.334331 
L 232.630145 229.334331 
L 232.630145 228.829913 
L 232.932084 228.829913 
L 232.984272 227.31666 
L 233.473509 227.31666 
L 233.473509 226.307824 
L 233.914445 226.307824 
L 233.944675 225.298988 
L 235.342142 225.298988 
L 235.342142 224.290152 
L 237.704777 224.290152 
L 237.704777 223.785734 
L 238.612357 223.785734 
L 238.654916 220.759227 
L 238.724483 220.759227 
L 238.724483 219.750391 
L 238.877021 219.750391 
L 238.877021 218.741555 
L 239.105111 218.741555 
L 239.105111 217.73272 
L 241.201511 217.73272 
L 241.285822 213.192959 
L 241.735066 213.192959 
L 241.736123 212.184123 
L 242.011973 212.184123 
L 242.011973 211.175287 
L 242.40423 211.175287 
L 242.40423 210.670869 
L 243.648228 210.670869 
L 243.651069 209.662033 
L 243.975338 209.662033 
L 243.975338 209.157616 
L 245.528374 209.157616 
L 245.531774 205.62669 
L 245.797117 205.62669 
L 245.817316 204.113437 
L 246.302403 204.113437 
L 246.307282 201.591347 
L 246.534133 201.591347 
L 246.632788 199.573676 
L 247.416622 199.573676 
L 247.481998 197.556004 
L 247.535444 197.556004 
L 247.535444 197.051586 
L 247.731235 197.051586 
L 247.731235 196.547168 
L 247.855805 196.547168 
L 247.855805 195.538333 
L 248.03028 195.538333 
L 248.078402 194.529497 
L 248.223017 194.529497 
L 248.223017 194.025079 
L 248.764473 194.025079 
L 248.764473 193.520661 
L 248.9859 193.520661 
L 249.082646 187.972064 
L 249.285022 187.972064 
L 249.301561 184.945557 
L 249.942004 184.945557 
L 249.942004 183.936721 
L 250.502876 183.936721 
L 250.502876 183.432303 
L 251.032369 183.432303 
L 251.032369 182.927885 
L 251.523193 182.927885 
L 251.58526 180.910214 
L 251.701064 180.910214 
L 251.799922 178.388124 
L 251.852987 178.388124 
L 251.852987 177.883706 
L 251.973411 177.883706 
L 252.078418 175.866035 
L 252.088759 175.866035 
L 252.164876 172.839527 
L 252.224869 172.839527 
L 252.298501 170.821856 
L 252.36567 170.821856 
L 252.460107 166.282095 
L 252.499238 166.282095 
L 252.583882 163.255588 
L 252.754918 163.255588 
L 252.85757 157.706991 
L 252.88284 157.706991 
L 252.979992 155.689319 
L 253.003187 155.689319 
L 253.105336 154.680483 
L 253.198208 154.680483 
L 253.290822 152.158394 
L 253.419367 152.158394 
L 253.504054 148.123051 
L 253.588255 148.123051 
L 253.642867 146.609797 
L 253.701262 146.609797 
L 253.79193 144.592126 
L 253.921126 144.592126 
L 254.027677 142.070036 
L 254.033047 142.070036 
L 254.133285 138.539111 
L 254.175276 138.539111 
L 254.175276 137.530275 
L 254.306005 137.530275 
L 254.328602 136.521439 
L 254.486624 136.521439 
L 254.486624 136.017022 
L 254.754416 136.017022 
L 254.847685 132.990514 
L 254.881885 132.990514 
L 254.935219 130.972843 
L 255.085546 130.972843 
L 255.14491 129.459589 
L 255.259421 129.459589 
L 255.348098 127.946335 
L 255.433644 127.946335 
L 255.540536 126.937499 
L 255.667092 126.937499 
L 255.770745 124.919828 
L 255.91005 124.919828 
L 255.927386 123.406574 
L 256.161885 123.406574 
L 256.262122 119.371231 
L 256.324552 119.371231 
L 256.324552 118.866813 
L 256.508183 118.866813 
L 256.508183 118.362395 
L 256.632044 118.362395 
L 256.632044 117.35356 
L 256.814135 117.35356 
L 256.882225 115.840306 
L 257.170282 115.840306 
L 257.198666 114.327052 
L 257.391642 114.327052 
L 257.391642 113.822634 
L 257.859255 113.822634 
L 257.859674 112.309381 
L 258.002267 112.309381 
L 258.002267 111.300545 
L 338.688 111.300545 
L 338.688 111.300545 
" style="fill:none;stroke:#ff7500;stroke-linecap:square;stroke-width:1.5;"/>
   </g>
   <g id="line2d_41">
    <defs>
     <path d="M 0 -6 
L -1.347084 -1.854102 
L -5.706339 -1.854102 
L -2.179628 0.708204 
L -3.526712 4.854102 
L -0 2.291796 
L 3.526712 4.854102 
L 2.179628 0.708204 
L 5.706339 -1.854102 
L 1.347084 -1.854102 
z
" id="mf636dabc44" style="stroke:#ff7500;stroke-linejoin:bevel;stroke-width:1.5;"/>
    </defs>
    <g>
     <use style="fill-opacity:0;stroke:#ff7500;stroke-linejoin:bevel;stroke-width:1.5;" x="119.097192" xlink:href="#mf636dabc44" y="287.342389"/>
     <use style="fill-opacity:0;stroke:#ff7500;stroke-linejoin:bevel;stroke-width:1.5;" x="207.601369" xlink:href="#mf636dabc44" y="259.094987"/>
     <use style="fill-opacity:0;stroke:#ff7500;stroke-linejoin:bevel;stroke-width:1.5;" x="252.36567" xlink:href="#mf636dabc44" y="170.821856"/>
     <use style="fill-opacity:0;stroke:#ff7500;stroke-linejoin:bevel;stroke-width:1.5;" x="258.002267" xlink:href="#mf636dabc44" y="112.309381"/>
     <use style="fill-opacity:0;stroke:#ff7500;stroke-linejoin:bevel;stroke-width:1.5;" x="258.002267" xlink:href="#mf636dabc44" y="111.300545"/>
     <use style="fill-opacity:0;stroke:#ff7500;stroke-linejoin:bevel;stroke-width:1.5;" x="338.688" xlink:href="#mf636dabc44" y="111.300545"/>
    </g>
   </g>
   <g id="line2d_42">
    <path style="fill:none;stroke:#ff7500;stroke-linecap:square;stroke-width:1.5;"/>
    <g/>
   </g>
   <g id="line2d_43">
    <path clip-path="url(#pd748ca84dd)" d="M 258.377027 111.300545 
" style="fill:none;stroke:#ff7500;stroke-linecap:square;stroke-width:1.5;"/>
    <defs>
     <path d="M -12 12 
L 12 -12 
M -12 -12 
L 12 12 
" id="m28882c0688" style="stroke:#ff7500;"/>
    </defs>
    <g clip-path="url(#pd748ca84dd)">
     <use style="fill:#ff7500;stroke:#ff7500;" x="258.377027" xlink:href="#m28882c0688" y="111.300545"/>
    </g>
   </g>
   <g id="line2d_44">
    <path d="M 338.688 138.539111 
L 369.60768 293.092752 
" style="fill:none;stroke:#ff00ff;stroke-linecap:square;stroke-width:1.5;"/>
    <g>
     <use style="fill-opacity:0;stroke:#ff00ff;stroke-linejoin:miter;stroke-width:1.5;" x="338.688" xlink:href="#ma73ecea161" y="138.539111"/>
     <use style="fill-opacity:0;stroke:#ff00ff;stroke-linejoin:miter;stroke-width:1.5;" x="369.60768" xlink:href="#ma73ecea161" y="293.092752"/>
    </g>
   </g>
   <g id="line2d_45">
    <path d="M 338.688 137.530275 
L 369.60768 152.662812 
" style="fill:none;stroke:#000080;stroke-linecap:square;stroke-width:1.5;"/>
    <g>
     <use style="fill-opacity:0;stroke:#000080;stroke-width:1.5;" x="338.688" xlink:href="#mcd25c53a41" y="137.530275"/>
     <use style="fill-opacity:0;stroke:#000080;stroke-width:1.5;" x="369.60768" xlink:href="#mcd25c53a41" y="152.662812"/>
    </g>
   </g>
   <g id="line2d_46">
    <path d="M 338.688 111.300545 
L 369.60768 12.232871 
" style="fill:none;stroke:#ff7500;stroke-linecap:square;stroke-width:1.5;"/>
    <g>
     <use style="fill-opacity:0;stroke:#ff7500;stroke-linejoin:bevel;stroke-width:1.5;" x="338.688" xlink:href="#mf636dabc44" y="111.300545"/>
     <use style="fill-opacity:0;stroke:#ff7500;stroke-linejoin:bevel;stroke-width:1.5;" x="369.60768" xlink:href="#mf636dabc44" y="12.232871"/>
    </g>
   </g>
   <g id="line2d_47">
    <path d="M 338.688 298.944 
L 338.688 6.381624 
" style="fill:none;stroke:#000000;stroke-linecap:square;stroke-width:1.5;"/>
   </g>
   <g id="patch_3">
    <path d="M 57.6 298.944 
L 57.6 3.456 
" style="fill:none;stroke:#000000;stroke-linecap:square;stroke-linejoin:miter;stroke-width:0.8;"/>
   </g>
   <g id="patch_4">
    <path d="M 338.688 298.944 
L 338.688 3.456 
" style="fill:none;stroke:#000000;stroke-linecap:square;stroke-linejoin:miter;stroke-width:0.8;"/>
   </g>
   <g id="patch_5">
    <path d="M 57.6 298.944 
L 338.688 298.944 
" style="fill:none;stroke:#000000;stroke-linecap:square;stroke-linejoin:miter;stroke-width:0.8;"/>
   </g>
   <g id="patch_6">
    <path d="M 57.6 3.456 
L 338.688 3.456 
" style="fill:none;stroke:#000000;stroke-linecap:square;stroke-linejoin:miter;stroke-width:0.8;"/>
   </g>
   <g id="text_13">
    <!-- f54 -->
    <g transform="translate(375.22944 297.78369)scale(0.17 -0.17)">
     <defs>
      <path d="M 10.796875 72.90625 
L 49.515625 72.90625 
L 49.515625 64.59375 
L 19.828125 64.59375 
L 19.828125 46.734375 
Q 21.96875 47.46875 24.109375 47.828125 
Q 26.265625 48.1875 28.421875 48.1875 
Q 40.625 48.1875 47.75 41.5 
Q 54.890625 34.8125 54.890625 23.390625 
Q 54.890625 11.625 47.5625 5.09375 
Q 40.234375 -1.421875 26.90625 -1.421875 
Q 22.3125 -1.421875 17.546875 -0.640625 
Q 12.796875 0.140625 7.71875 1.703125 
L 7.71875 11.625 
Q 12.109375 9.234375 16.796875 8.0625 
Q 21.484375 6.890625 26.703125 6.890625 
Q 35.15625 6.890625 40.078125 11.328125 
Q 45.015625 15.765625 45.015625 23.390625 
Q 45.015625 31 40.078125 35.4375 
Q 35.15625 39.890625 26.703125 39.890625 
Q 22.75 39.890625 18.8125 39.015625 
Q 14.890625 38.140625 10.796875 36.28125 
z
" id="DejaVuSans-53"/>
     </defs>
     <use xlink:href="#DejaVuSans-102"/>
     <use x="35.205078" xlink:href="#DejaVuSans-53"/>
     <use x="98.828125" xlink:href="#DejaVuSans-52"/>
    </g>
   </g>
   <g id="text_14">
    <!-- f53 -->
    <g transform="translate(375.22944 157.353749)scale(0.17 -0.17)">
     <defs>
      <path d="M 40.578125 39.3125 
Q 47.65625 37.796875 51.625 33 
Q 55.609375 28.21875 55.609375 21.1875 
Q 55.609375 10.40625 48.1875 4.484375 
Q 40.765625 -1.421875 27.09375 -1.421875 
Q 22.515625 -1.421875 17.65625 -0.515625 
Q 12.796875 0.390625 7.625 2.203125 
L 7.625 11.71875 
Q 11.71875 9.328125 16.59375 8.109375 
Q 21.484375 6.890625 26.8125 6.890625 
Q 36.078125 6.890625 40.9375 10.546875 
Q 45.796875 14.203125 45.796875 21.1875 
Q 45.796875 27.640625 41.28125 31.265625 
Q 36.765625 34.90625 28.71875 34.90625 
L 20.21875 34.90625 
L 20.21875 43.015625 
L 29.109375 43.015625 
Q 36.375 43.015625 40.234375 45.921875 
Q 44.09375 48.828125 44.09375 54.296875 
Q 44.09375 59.90625 40.109375 62.90625 
Q 36.140625 65.921875 28.71875 65.921875 
Q 24.65625 65.921875 20.015625 65.03125 
Q 15.375 64.15625 9.8125 62.3125 
L 9.8125 71.09375 
Q 15.4375 72.65625 20.34375 73.4375 
Q 25.25 74.21875 29.59375 74.21875 
Q 40.828125 74.21875 47.359375 69.109375 
Q 53.90625 64.015625 53.90625 55.328125 
Q 53.90625 49.265625 50.4375 45.09375 
Q 46.96875 40.921875 40.578125 39.3125 
z
" id="DejaVuSans-51"/>
     </defs>
     <use xlink:href="#DejaVuSans-102"/>
     <use x="35.205078" xlink:href="#DejaVuSans-53"/>
     <use x="98.828125" xlink:href="#DejaVuSans-51"/>
    </g>
   </g>
   <g id="text_15">
    <!-- f55 -->
    <g transform="translate(375.22944 16.923809)scale(0.17 -0.17)">
     <use xlink:href="#DejaVuSans-102"/>
     <use x="35.205078" xlink:href="#DejaVuSans-53"/>
     <use x="98.828125" xlink:href="#DejaVuSans-53"/>
    </g>
   </g>
   <g id="text_16">
    <!-- bbob-biobj -->
    <g transform="translate(60.41088 14.161286)scale(0.102 -0.102)">
     <defs>
      <path d="M 48.6875 27.296875 
Q 48.6875 37.203125 44.609375 42.84375 
Q 40.53125 48.484375 33.40625 48.484375 
Q 26.265625 48.484375 22.1875 42.84375 
Q 18.109375 37.203125 18.109375 27.296875 
Q 18.109375 17.390625 22.1875 11.75 
Q 26.265625 6.109375 33.40625 6.109375 
Q 40.53125 6.109375 44.609375 11.75 
Q 48.6875 17.390625 48.6875 27.296875 
z
M 18.109375 46.390625 
Q 20.953125 51.265625 25.265625 53.625 
Q 29.59375 56 35.59375 56 
Q 45.5625 56 51.78125 48.09375 
Q 58.015625 40.1875 58.015625 27.296875 
Q 58.015625 14.40625 51.78125 6.484375 
Q 45.5625 -1.421875 35.59375 -1.421875 
Q 29.59375 -1.421875 25.265625 0.953125 
Q 20.953125 3.328125 18.109375 8.203125 
L 18.109375 0 
L 9.078125 0 
L 9.078125 75.984375 
L 18.109375 75.984375 
z
" id="DejaVuSans-98"/>
      <path d="M 9.421875 54.6875 
L 18.40625 54.6875 
L 18.40625 -0.984375 
Q 18.40625 -11.421875 14.421875 -16.109375 
Q 10.453125 -20.796875 1.609375 -20.796875 
L -1.8125 -20.796875 
L -1.8125 -13.1875 
L 0.59375 -13.1875 
Q 5.71875 -13.1875 7.5625 -10.8125 
Q 9.421875 -8.453125 9.421875 -0.984375 
z
M 9.421875 75.984375 
L 18.40625 75.984375 
L 18.40625 64.59375 
L 9.421875 64.59375 
z
" id="DejaVuSans-106"/>
     </defs>
     <use xlink:href="#DejaVuSans-98"/>
     <use x="63.476562" xlink:href="#DejaVuSans-98"/>
     <use x="126.953125" xlink:href="#DejaVuSans-111"/>
     <use x="188.134766" xlink:href="#DejaVuSans-98"/>
     <use x="251.611328" xlink:href="#DejaVuSans-45"/>
     <use x="287.695312" xlink:href="#DejaVuSans-98"/>
     <use x="351.171875" xlink:href="#DejaVuSans-105"/>
     <use x="378.955078" xlink:href="#DejaVuSans-111"/>
     <use x="440.136719" xlink:href="#DejaVuSans-98"/>
     <use x="503.613281" xlink:href="#DejaVuSans-106"/>
    </g>
    <!-- 5-weakly-structured 5-weakly-structured, 3-D -->
    <g transform="translate(60.41088 25.583055)scale(0.102 -0.102)">
     <defs>
      <path d="M 4.203125 54.6875 
L 13.1875 54.6875 
L 24.421875 12.015625 
L 35.59375 54.6875 
L 46.1875 54.6875 
L 57.421875 12.015625 
L 68.609375 54.6875 
L 77.59375 54.6875 
L 63.28125 0 
L 52.6875 0 
L 40.921875 44.828125 
L 29.109375 0 
L 18.5 0 
z
" id="DejaVuSans-119"/>
      <path d="M 9.078125 75.984375 
L 18.109375 75.984375 
L 18.109375 31.109375 
L 44.921875 54.6875 
L 56.390625 54.6875 
L 27.390625 29.109375 
L 57.625 0 
L 45.90625 0 
L 18.109375 26.703125 
L 18.109375 0 
L 9.078125 0 
z
" id="DejaVuSans-107"/>
      <path d="M 32.171875 -5.078125 
Q 28.375 -14.84375 24.75 -17.8125 
Q 21.140625 -20.796875 15.09375 -20.796875 
L 7.90625 -20.796875 
L 7.90625 -13.28125 
L 13.1875 -13.28125 
Q 16.890625 -13.28125 18.9375 -11.515625 
Q 21 -9.765625 23.484375 -3.21875 
L 25.09375 0.875 
L 2.984375 54.6875 
L 12.5 54.6875 
L 29.59375 11.921875 
L 46.6875 54.6875 
L 56.203125 54.6875 
z
" id="DejaVuSans-121"/>
      <path d="M 19.671875 64.796875 
L 19.671875 8.109375 
L 31.59375 8.109375 
Q 46.6875 8.109375 53.6875 14.9375 
Q 60.6875 21.78125 60.6875 36.53125 
Q 60.6875 51.171875 53.6875 57.984375 
Q 46.6875 64.796875 31.59375 64.796875 
z
M 9.8125 72.90625 
L 30.078125 72.90625 
Q 51.265625 72.90625 61.171875 64.09375 
Q 71.09375 55.28125 71.09375 36.53125 
Q 71.09375 17.671875 61.125 8.828125 
Q 51.171875 0 30.078125 0 
L 9.8125 0 
z
" id="DejaVuSans-68"/>
     </defs>
     <use xlink:href="#DejaVuSans-53"/>
     <use x="63.623047" xlink:href="#DejaVuSans-45"/>
     <use x="99.707031" xlink:href="#DejaVuSans-119"/>
     <use x="181.494141" xlink:href="#DejaVuSans-101"/>
     <use x="243.017578" xlink:href="#DejaVuSans-97"/>
     <use x="304.296875" xlink:href="#DejaVuSans-107"/>
     <use x="362.207031" xlink:href="#DejaVuSans-108"/>
     <use x="389.990234" xlink:href="#DejaVuSans-121"/>
     <use x="447.419922" xlink:href="#DejaVuSans-45"/>
     <use x="483.503906" xlink:href="#DejaVuSans-115"/>
     <use x="535.603516" xlink:href="#DejaVuSans-116"/>
     <use x="574.8125" xlink:href="#DejaVuSans-114"/>
     <use x="615.925781" xlink:href="#DejaVuSans-117"/>
     <use x="679.304688" xlink:href="#DejaVuSans-99"/>
     <use x="734.285156" xlink:href="#DejaVuSans-116"/>
     <use x="773.494141" xlink:href="#DejaVuSans-117"/>
     <use x="836.873047" xlink:href="#DejaVuSans-114"/>
     <use x="875.736328" xlink:href="#DejaVuSans-101"/>
     <use x="937.259766" xlink:href="#DejaVuSans-100"/>
     <use x="1000.736328" xlink:href="#DejaVuSans-32"/>
     <use x="1032.523438" xlink:href="#DejaVuSans-53"/>
     <use x="1096.146484" xlink:href="#DejaVuSans-45"/>
     <use x="1132.230469" xlink:href="#DejaVuSans-119"/>
     <use x="1214.017578" xlink:href="#DejaVuSans-101"/>
     <use x="1275.541016" xlink:href="#DejaVuSans-97"/>
     <use x="1336.820312" xlink:href="#DejaVuSans-107"/>
     <use x="1394.730469" xlink:href="#DejaVuSans-108"/>
     <use x="1422.513672" xlink:href="#DejaVuSans-121"/>
     <use x="1479.943359" xlink:href="#DejaVuSans-45"/>
     <use x="1516.027344" xlink:href="#DejaVuSans-115"/>
     <use x="1568.126953" xlink:href="#DejaVuSans-116"/>
     <use x="1607.335938" xlink:href="#DejaVuSans-114"/>
     <use x="1648.449219" xlink:href="#DejaVuSans-117"/>
     <use x="1711.828125" xlink:href="#DejaVuSans-99"/>
     <use x="1766.808594" xlink:href="#DejaVuSans-116"/>
     <use x="1806.017578" xlink:href="#DejaVuSans-117"/>
     <use x="1869.396484" xlink:href="#DejaVuSans-114"/>
     <use x="1908.259766" xlink:href="#DejaVuSans-101"/>
     <use x="1969.783203" xlink:href="#DejaVuSans-100"/>
     <use x="2033.259766" xlink:href="#DejaVuSans-44"/>
     <use x="2065.046875" xlink:href="#DejaVuSans-32"/>
     <use x="2096.833984" xlink:href="#DejaVuSans-51"/>
     <use x="2160.457031" xlink:href="#DejaVuSans-45"/>
     <use x="2196.541016" xlink:href="#DejaVuSans-68"/>
    </g>
    <!-- 58 targets: 1..-1.0e-4 -->
    <g transform="translate(60.41088 37.004824)scale(0.102 -0.102)">
     <defs>
      <path d="M 11.71875 12.40625 
L 22.015625 12.40625 
L 22.015625 0 
L 11.71875 0 
z
M 11.71875 51.703125 
L 22.015625 51.703125 
L 22.015625 39.3125 
L 11.71875 39.3125 
z
" id="DejaVuSans-58"/>
     </defs>
     <use xlink:href="#DejaVuSans-53"/>
     <use x="63.623047" xlink:href="#DejaVuSans-56"/>
     <use x="127.246094" xlink:href="#DejaVuSans-32"/>
     <use x="159.033203" xlink:href="#DejaVuSans-116"/>
     <use x="198.242188" xlink:href="#DejaVuSans-97"/>
     <use x="259.521484" xlink:href="#DejaVuSans-114"/>
     <use x="298.884766" xlink:href="#DejaVuSans-103"/>
     <use x="362.361328" xlink:href="#DejaVuSans-101"/>
     <use x="423.884766" xlink:href="#DejaVuSans-116"/>
     <use x="463.09375" xlink:href="#DejaVuSans-115"/>
     <use x="515.193359" xlink:href="#DejaVuSans-58"/>
     <use x="548.884766" xlink:href="#DejaVuSans-32"/>
     <use x="580.671875" xlink:href="#DejaVuSans-49"/>
     <use x="644.294922" xlink:href="#DejaVuSans-46"/>
     <use x="676.082031" xlink:href="#DejaVuSans-46"/>
     <use x="707.869141" xlink:href="#DejaVuSans-45"/>
     <use x="743.953125" xlink:href="#DejaVuSans-49"/>
     <use x="807.576172" xlink:href="#DejaVuSans-46"/>
     <use x="839.363281" xlink:href="#DejaVuSans-48"/>
     <use x="902.986328" xlink:href="#DejaVuSans-101"/>
     <use x="964.509766" xlink:href="#DejaVuSans-45"/>
     <use x="1000.59375" xlink:href="#DejaVuSans-52"/>
    </g>
    <!-- 10 instances -->
    <g transform="translate(60.41088 48.426593)scale(0.102 -0.102)">
     <use xlink:href="#DejaVuSans-49"/>
     <use x="63.623047" xlink:href="#DejaVuSans-48"/>
     <use x="127.246094" xlink:href="#DejaVuSans-32"/>
     <use x="159.033203" xlink:href="#DejaVuSans-105"/>
     <use x="186.816406" xlink:href="#DejaVuSans-110"/>
     <use x="250.195312" xlink:href="#DejaVuSans-115"/>
     <use x="302.294922" xlink:href="#DejaVuSans-116"/>
     <use x="341.503906" xlink:href="#DejaVuSans-97"/>
     <use x="402.783203" xlink:href="#DejaVuSans-110"/>
     <use x="466.162109" xlink:href="#DejaVuSans-99"/>
     <use x="521.142578" xlink:href="#DejaVuSans-101"/>
     <use x="582.666016" xlink:href="#DejaVuSans-115"/>
    </g>
   </g>
   <g id="text_17">
    <!-- v2.4, hv-hash=ff0e71e8cd978373 -->
    <g style="fill:#808080;" transform="translate(112.648687 293.909432)scale(0.1 -0.1)">
     <defs>
      <path d="M 54.890625 33.015625 
L 54.890625 0 
L 45.90625 0 
L 45.90625 32.71875 
Q 45.90625 40.484375 42.875 44.328125 
Q 39.84375 48.1875 33.796875 48.1875 
Q 26.515625 48.1875 22.3125 43.546875 
Q 18.109375 38.921875 18.109375 30.90625 
L 18.109375 0 
L 9.078125 0 
L 9.078125 75.984375 
L 18.109375 75.984375 
L 18.109375 46.1875 
Q 21.34375 51.125 25.703125 53.5625 
Q 30.078125 56 35.796875 56 
Q 45.21875 56 50.046875 50.171875 
Q 54.890625 44.34375 54.890625 33.015625 
z
" id="DejaVuSans-104"/>
      <path d="M 10.59375 45.40625 
L 73.1875 45.40625 
L 73.1875 37.203125 
L 10.59375 37.203125 
z
M 10.59375 25.484375 
L 73.1875 25.484375 
L 73.1875 17.1875 
L 10.59375 17.1875 
z
" id="DejaVuSans-61"/>
      <path d="M 8.203125 72.90625 
L 55.078125 72.90625 
L 55.078125 68.703125 
L 28.609375 0 
L 18.3125 0 
L 43.21875 64.59375 
L 8.203125 64.59375 
z
" id="DejaVuSans-55"/>
      <path d="M 10.984375 1.515625 
L 10.984375 10.5 
Q 14.703125 8.734375 18.5 7.8125 
Q 22.3125 6.890625 25.984375 6.890625 
Q 35.75 6.890625 40.890625 13.453125 
Q 46.046875 20.015625 46.78125 33.40625 
Q 43.953125 29.203125 39.59375 26.953125 
Q 35.25 24.703125 29.984375 24.703125 
Q 19.046875 24.703125 12.671875 31.3125 
Q 6.296875 37.9375 6.296875 49.421875 
Q 6.296875 60.640625 12.9375 67.421875 
Q 19.578125 74.21875 30.609375 74.21875 
Q 43.265625 74.21875 49.921875 64.515625 
Q 56.59375 54.828125 56.59375 36.375 
Q 56.59375 19.140625 48.40625 8.859375 
Q 40.234375 -1.421875 26.421875 -1.421875 
Q 22.703125 -1.421875 18.890625 -0.6875 
Q 15.09375 0.046875 10.984375 1.515625 
z
M 30.609375 32.421875 
Q 37.25 32.421875 41.125 36.953125 
Q 45.015625 41.5 45.015625 49.421875 
Q 45.015625 57.28125 41.125 61.84375 
Q 37.25 66.40625 30.609375 66.40625 
Q 23.96875 66.40625 20.09375 61.84375 
Q 16.21875 57.28125 16.21875 49.421875 
Q 16.21875 41.5 20.09375 36.953125 
Q 23.96875 32.421875 30.609375 32.421875 
z
" id="DejaVuSans-57"/>
     </defs>
     <use xlink:href="#DejaVuSans-118"/>
     <use x="59.179688" xlink:href="#DejaVuSans-50"/>
     <use x="122.802734" xlink:href="#DejaVuSans-46"/>
     <use x="154.589844" xlink:href="#DejaVuSans-52"/>
     <use x="218.212891" xlink:href="#DejaVuSans-44"/>
     <use x="250" xlink:href="#DejaVuSans-32"/>
     <use x="281.787109" xlink:href="#DejaVuSans-104"/>
     <use x="345.166016" xlink:href="#DejaVuSans-118"/>
     <use x="401.720703" xlink:href="#DejaVuSans-45"/>
     <use x="437.804688" xlink:href="#DejaVuSans-104"/>
     <use x="501.183594" xlink:href="#DejaVuSans-97"/>
     <use x="562.462891" xlink:href="#DejaVuSans-115"/>
     <use x="614.5625" xlink:href="#DejaVuSans-104"/>
     <use x="677.941406" xlink:href="#DejaVuSans-61"/>
     <use x="761.730469" xlink:href="#DejaVuSans-102"/>
     <use x="796.935547" xlink:href="#DejaVuSans-102"/>
     <use x="832.140625" xlink:href="#DejaVuSans-48"/>
     <use x="895.763672" xlink:href="#DejaVuSans-101"/>
     <use x="957.287109" xlink:href="#DejaVuSans-55"/>
     <use x="1020.910156" xlink:href="#DejaVuSans-49"/>
     <use x="1084.533203" xlink:href="#DejaVuSans-101"/>
     <use x="1146.056641" xlink:href="#DejaVuSans-56"/>
     <use x="1209.679688" xlink:href="#DejaVuSans-99"/>
     <use x="1264.660156" xlink:href="#DejaVuSans-100"/>
     <use x="1328.136719" xlink:href="#DejaVuSans-57"/>
     <use x="1391.759766" xlink:href="#DejaVuSans-55"/>
     <use x="1455.382812" xlink:href="#DejaVuSans-56"/>
     <use x="1519.005859" xlink:href="#DejaVuSans-51"/>
     <use x="1582.628906" xlink:href="#DejaVuSans-55"/>
     <use x="1646.251953" xlink:href="#DejaVuSans-51"/>
    </g>
   </g>
  </g>
 </g>
 <defs>
  <clipPath id="pd748ca84dd">
   <rect height="295.488" width="281.088" x="57.6" y="3.456"/>
  </clipPath>
 </defs>
</svg>
