<?xml version="1.0" encoding="utf-8" standalone="no"?>
<!DOCTYPE svg PUBLIC "-//W3C//DTD SVG 1.1//EN"
  "http://www.w3.org/Graphics/SVG/1.1/DTD/svg11.dtd">
<!-- Created with matplotlib (https://matplotlib.org/) -->
<svg height="345.6pt" version="1.1" viewBox="0 0 460.8 345.6" width="460.8pt" xmlns="http://www.w3.org/2000/svg" xmlns:xlink="http://www.w3.org/1999/xlink">
 <metadata>
  <rdf:RDF xmlns:cc="http://creativecommons.org/ns#" xmlns:dc="http://purl.org/dc/elements/1.1/" xmlns:rdf="http://www.w3.org/1999/02/22-rdf-syntax-ns#">
   <cc:Work>
    <dc:type rdf:resource="http://purl.org/dc/dcmitype/StillImage"/>
    <dc:date>2021-03-30T16:55:10.898410</dc:date>
    <dc:format>image/svg+xml</dc:format>
    <dc:creator>
     <cc:Agent>
      <dc:title>Matplotlib v3.3.4, https://matplotlib.org/</dc:title>
     </cc:Agent>
    </dc:creator>
   </cc:Work>
  </rdf:RDF>
 </metadata>
 <defs>
  <style type="text/css">*{stroke-linecap:butt;stroke-linejoin:round;}</style>
 </defs>
 <g id="figure_1">
  <g id="patch_1">
   <path d="M 0 345.6 
L 460.8 345.6 
L 460.8 0 
L 0 0 
z
" style="fill:#ffffff;"/>
  </g>
  <g id="axes_1">
   <g id="patch_2">
    <path d="M 57.6 298.944 
L 338.688 298.944 
L 338.688 3.456 
L 57.6 3.456 
z
" style="fill:#ffffff;"/>
   </g>
   <g id="matplotlib.axis_1">
    <g id="xtick_1">
     <g id="line2d_1">
      <path clip-path="url(#p13a2b330df)" d="M 57.6 298.944 
L 57.6 3.456 
" style="fill:none;stroke:#b0b0b0;stroke-linecap:square;stroke-width:0.8;"/>
     </g>
     <g id="line2d_2">
      <defs>
       <path d="M 0 0 
L 0 3.5 
" id="m036d83c580" style="stroke:#000000;stroke-width:0.8;"/>
      </defs>
      <g>
       <use style="stroke:#000000;stroke-width:0.8;" x="57.6" xlink:href="#m036d83c580" y="298.944"/>
      </g>
     </g>
     <g id="text_1">
      <!-- 0 -->
      <g transform="translate(51.2375 321.140875)scale(0.2 -0.2)">
       <defs>
        <path d="M 31.78125 66.40625 
Q 24.171875 66.40625 20.328125 58.90625 
Q 16.5 51.421875 16.5 36.375 
Q 16.5 21.390625 20.328125 13.890625 
Q 24.171875 6.390625 31.78125 6.390625 
Q 39.453125 6.390625 43.28125 13.890625 
Q 47.125 21.390625 47.125 36.375 
Q 47.125 51.421875 43.28125 58.90625 
Q 39.453125 66.40625 31.78125 66.40625 
z
M 31.78125 74.21875 
Q 44.046875 74.21875 50.515625 64.515625 
Q 56.984375 54.828125 56.984375 36.375 
Q 56.984375 17.96875 50.515625 8.265625 
Q 44.046875 -1.421875 31.78125 -1.421875 
Q 19.53125 -1.421875 13.0625 8.265625 
Q 6.59375 17.96875 6.59375 36.375 
Q 6.59375 54.828125 13.0625 64.515625 
Q 19.53125 74.21875 31.78125 74.21875 
z
" id="DejaVuSans-48"/>
       </defs>
       <use xlink:href="#DejaVuSans-48"/>
      </g>
     </g>
    </g>
    <g id="xtick_2">
     <g id="line2d_3">
      <path clip-path="url(#p13a2b330df)" d="M 137.910857 298.944 
L 137.910857 3.456 
" style="fill:none;stroke:#b0b0b0;stroke-linecap:square;stroke-width:0.8;"/>
     </g>
     <g id="line2d_4">
      <g>
       <use style="stroke:#000000;stroke-width:0.8;" x="137.910857" xlink:href="#m036d83c580" y="298.944"/>
      </g>
     </g>
     <g id="text_2">
      <!-- 2 -->
      <g transform="translate(131.548357 321.140875)scale(0.2 -0.2)">
       <defs>
        <path d="M 19.1875 8.296875 
L 53.609375 8.296875 
L 53.609375 0 
L 7.328125 0 
L 7.328125 8.296875 
Q 12.9375 14.109375 22.625 23.890625 
Q 32.328125 33.6875 34.8125 36.53125 
Q 39.546875 41.84375 41.421875 45.53125 
Q 43.3125 49.21875 43.3125 52.78125 
Q 43.3125 58.59375 39.234375 62.25 
Q 35.15625 65.921875 28.609375 65.921875 
Q 23.96875 65.921875 18.8125 64.3125 
Q 13.671875 62.703125 7.8125 59.421875 
L 7.8125 69.390625 
Q 13.765625 71.78125 18.9375 73 
Q 24.125 74.21875 28.421875 74.21875 
Q 39.75 74.21875 46.484375 68.546875 
Q 53.21875 62.890625 53.21875 53.421875 
Q 53.21875 48.921875 51.53125 44.890625 
Q 49.859375 40.875 45.40625 35.40625 
Q 44.1875 33.984375 37.640625 27.21875 
Q 31.109375 20.453125 19.1875 8.296875 
z
" id="DejaVuSans-50"/>
       </defs>
       <use xlink:href="#DejaVuSans-50"/>
      </g>
     </g>
    </g>
    <g id="xtick_3">
     <g id="line2d_5">
      <path clip-path="url(#p13a2b330df)" d="M 218.221714 298.944 
L 218.221714 3.456 
" style="fill:none;stroke:#b0b0b0;stroke-linecap:square;stroke-width:0.8;"/>
     </g>
     <g id="line2d_6">
      <g>
       <use style="stroke:#000000;stroke-width:0.8;" x="218.221714" xlink:href="#m036d83c580" y="298.944"/>
      </g>
     </g>
     <g id="text_3">
      <!-- 4 -->
      <g transform="translate(211.859214 321.140875)scale(0.2 -0.2)">
       <defs>
        <path d="M 37.796875 64.3125 
L 12.890625 25.390625 
L 37.796875 25.390625 
z
M 35.203125 72.90625 
L 47.609375 72.90625 
L 47.609375 25.390625 
L 58.015625 25.390625 
L 58.015625 17.1875 
L 47.609375 17.1875 
L 47.609375 0 
L 37.796875 0 
L 37.796875 17.1875 
L 4.890625 17.1875 
L 4.890625 26.703125 
z
" id="DejaVuSans-52"/>
       </defs>
       <use xlink:href="#DejaVuSans-52"/>
      </g>
     </g>
    </g>
    <g id="xtick_4">
     <g id="line2d_7">
      <path clip-path="url(#p13a2b330df)" d="M 298.532571 298.944 
L 298.532571 3.456 
" style="fill:none;stroke:#b0b0b0;stroke-linecap:square;stroke-width:0.8;"/>
     </g>
     <g id="line2d_8">
      <g>
       <use style="stroke:#000000;stroke-width:0.8;" x="298.532571" xlink:href="#m036d83c580" y="298.944"/>
      </g>
     </g>
     <g id="text_4">
      <!-- 6 -->
      <g transform="translate(292.170071 321.140875)scale(0.2 -0.2)">
       <defs>
        <path d="M 33.015625 40.375 
Q 26.375 40.375 22.484375 35.828125 
Q 18.609375 31.296875 18.609375 23.390625 
Q 18.609375 15.53125 22.484375 10.953125 
Q 26.375 6.390625 33.015625 6.390625 
Q 39.65625 6.390625 43.53125 10.953125 
Q 47.40625 15.53125 47.40625 23.390625 
Q 47.40625 31.296875 43.53125 35.828125 
Q 39.65625 40.375 33.015625 40.375 
z
M 52.59375 71.296875 
L 52.59375 62.3125 
Q 48.875 64.0625 45.09375 64.984375 
Q 41.3125 65.921875 37.59375 65.921875 
Q 27.828125 65.921875 22.671875 59.328125 
Q 17.53125 52.734375 16.796875 39.40625 
Q 19.671875 43.65625 24.015625 45.921875 
Q 28.375 48.1875 33.59375 48.1875 
Q 44.578125 48.1875 50.953125 41.515625 
Q 57.328125 34.859375 57.328125 23.390625 
Q 57.328125 12.15625 50.6875 5.359375 
Q 44.046875 -1.421875 33.015625 -1.421875 
Q 20.359375 -1.421875 13.671875 8.265625 
Q 6.984375 17.96875 6.984375 36.375 
Q 6.984375 53.65625 15.1875 63.9375 
Q 23.390625 74.21875 37.203125 74.21875 
Q 40.921875 74.21875 44.703125 73.484375 
Q 48.484375 72.75 52.59375 71.296875 
z
" id="DejaVuSans-54"/>
       </defs>
       <use xlink:href="#DejaVuSans-54"/>
      </g>
     </g>
    </g>
    <g id="xtick_5">
     <g id="line2d_9">
      <path clip-path="url(#p13a2b330df)" d="M 97.755429 298.944 
L 97.755429 3.456 
" style="fill:none;stroke:#b0b0b0;stroke-linecap:square;stroke-width:0.8;"/>
     </g>
     <g id="line2d_10">
      <defs>
       <path d="M 0 0 
L 0 2 
" id="m07144a0690" style="stroke:#000000;stroke-width:0.6;"/>
      </defs>
      <g>
       <use style="stroke:#000000;stroke-width:0.6;" x="97.755429" xlink:href="#m07144a0690" y="298.944"/>
      </g>
     </g>
    </g>
    <g id="xtick_6">
     <g id="line2d_11">
      <path clip-path="url(#p13a2b330df)" d="M 178.066286 298.944 
L 178.066286 3.456 
" style="fill:none;stroke:#b0b0b0;stroke-linecap:square;stroke-width:0.8;"/>
     </g>
     <g id="line2d_12">
      <g>
       <use style="stroke:#000000;stroke-width:0.6;" x="178.066286" xlink:href="#m07144a0690" y="298.944"/>
      </g>
     </g>
    </g>
    <g id="xtick_7">
     <g id="line2d_13">
      <path clip-path="url(#p13a2b330df)" d="M 258.377143 298.944 
L 258.377143 3.456 
" style="fill:none;stroke:#b0b0b0;stroke-linecap:square;stroke-width:0.8;"/>
     </g>
     <g id="line2d_14">
      <g>
       <use style="stroke:#000000;stroke-width:0.6;" x="258.377143" xlink:href="#m07144a0690" y="298.944"/>
      </g>
     </g>
    </g>
    <g id="xtick_8">
     <g id="line2d_15">
      <path clip-path="url(#p13a2b330df)" d="M 338.688 298.944 
L 338.688 3.456 
" style="fill:none;stroke:#b0b0b0;stroke-linecap:square;stroke-width:0.8;"/>
     </g>
     <g id="line2d_16">
      <g>
       <use style="stroke:#000000;stroke-width:0.6;" x="338.688" xlink:href="#m07144a0690" y="298.944"/>
      </g>
     </g>
    </g>
    <g id="text_5">
     <!-- log10(# f-evals / dimension) -->
     <g transform="translate(77.764078 342.217594)scale(0.17 -0.17)">
      <defs>
       <path d="M 9.421875 75.984375 
L 18.40625 75.984375 
L 18.40625 0 
L 9.421875 0 
z
" id="DejaVuSans-108"/>
       <path d="M 30.609375 48.390625 
Q 23.390625 48.390625 19.1875 42.75 
Q 14.984375 37.109375 14.984375 27.296875 
Q 14.984375 17.484375 19.15625 11.84375 
Q 23.34375 6.203125 30.609375 6.203125 
Q 37.796875 6.203125 41.984375 11.859375 
Q 46.1875 17.53125 46.1875 27.296875 
Q 46.1875 37.015625 41.984375 42.703125 
Q 37.796875 48.390625 30.609375 48.390625 
z
M 30.609375 56 
Q 42.328125 56 49.015625 48.375 
Q 55.71875 40.765625 55.71875 27.296875 
Q 55.71875 13.875 49.015625 6.21875 
Q 42.328125 -1.421875 30.609375 -1.421875 
Q 18.84375 -1.421875 12.171875 6.21875 
Q 5.515625 13.875 5.515625 27.296875 
Q 5.515625 40.765625 12.171875 48.375 
Q 18.84375 56 30.609375 56 
z
" id="DejaVuSans-111"/>
       <path d="M 45.40625 27.984375 
Q 45.40625 37.75 41.375 43.109375 
Q 37.359375 48.484375 30.078125 48.484375 
Q 22.859375 48.484375 18.828125 43.109375 
Q 14.796875 37.75 14.796875 27.984375 
Q 14.796875 18.265625 18.828125 12.890625 
Q 22.859375 7.515625 30.078125 7.515625 
Q 37.359375 7.515625 41.375 12.890625 
Q 45.40625 18.265625 45.40625 27.984375 
z
M 54.390625 6.78125 
Q 54.390625 -7.171875 48.1875 -13.984375 
Q 42 -20.796875 29.203125 -20.796875 
Q 24.46875 -20.796875 20.265625 -20.09375 
Q 16.0625 -19.390625 12.109375 -17.921875 
L 12.109375 -9.1875 
Q 16.0625 -11.328125 19.921875 -12.34375 
Q 23.78125 -13.375 27.78125 -13.375 
Q 36.625 -13.375 41.015625 -8.765625 
Q 45.40625 -4.15625 45.40625 5.171875 
L 45.40625 9.625 
Q 42.625 4.78125 38.28125 2.390625 
Q 33.9375 0 27.875 0 
Q 17.828125 0 11.671875 7.65625 
Q 5.515625 15.328125 5.515625 27.984375 
Q 5.515625 40.671875 11.671875 48.328125 
Q 17.828125 56 27.875 56 
Q 33.9375 56 38.28125 53.609375 
Q 42.625 51.21875 45.40625 46.390625 
L 45.40625 54.6875 
L 54.390625 54.6875 
z
" id="DejaVuSans-103"/>
       <path d="M 12.40625 8.296875 
L 28.515625 8.296875 
L 28.515625 63.921875 
L 10.984375 60.40625 
L 10.984375 69.390625 
L 28.421875 72.90625 
L 38.28125 72.90625 
L 38.28125 8.296875 
L 54.390625 8.296875 
L 54.390625 0 
L 12.40625 0 
z
" id="DejaVuSans-49"/>
       <path d="M 31 75.875 
Q 24.46875 64.65625 21.28125 53.65625 
Q 18.109375 42.671875 18.109375 31.390625 
Q 18.109375 20.125 21.3125 9.0625 
Q 24.515625 -2 31 -13.1875 
L 23.1875 -13.1875 
Q 15.875 -1.703125 12.234375 9.375 
Q 8.59375 20.453125 8.59375 31.390625 
Q 8.59375 42.28125 12.203125 53.3125 
Q 15.828125 64.359375 23.1875 75.875 
z
" id="DejaVuSans-40"/>
       <path d="M 51.125 44 
L 36.921875 44 
L 32.8125 27.6875 
L 47.125 27.6875 
z
M 43.796875 71.78125 
L 38.71875 51.515625 
L 52.984375 51.515625 
L 58.109375 71.78125 
L 65.921875 71.78125 
L 60.890625 51.515625 
L 76.125 51.515625 
L 76.125 44 
L 58.984375 44 
L 54.984375 27.6875 
L 70.515625 27.6875 
L 70.515625 20.21875 
L 53.078125 20.21875 
L 48 0 
L 40.1875 0 
L 45.21875 20.21875 
L 30.90625 20.21875 
L 25.875 0 
L 18.015625 0 
L 23.09375 20.21875 
L 7.71875 20.21875 
L 7.71875 27.6875 
L 24.90625 27.6875 
L 29 44 
L 13.28125 44 
L 13.28125 51.515625 
L 30.90625 51.515625 
L 35.890625 71.78125 
z
" id="DejaVuSans-35"/>
       <path id="DejaVuSans-32"/>
       <path d="M 37.109375 75.984375 
L 37.109375 68.5 
L 28.515625 68.5 
Q 23.6875 68.5 21.796875 66.546875 
Q 19.921875 64.59375 19.921875 59.515625 
L 19.921875 54.6875 
L 34.71875 54.6875 
L 34.71875 47.703125 
L 19.921875 47.703125 
L 19.921875 0 
L 10.890625 0 
L 10.890625 47.703125 
L 2.296875 47.703125 
L 2.296875 54.6875 
L 10.890625 54.6875 
L 10.890625 58.5 
Q 10.890625 67.625 15.140625 71.796875 
Q 19.390625 75.984375 28.609375 75.984375 
z
" id="DejaVuSans-102"/>
       <path d="M 4.890625 31.390625 
L 31.203125 31.390625 
L 31.203125 23.390625 
L 4.890625 23.390625 
z
" id="DejaVuSans-45"/>
       <path d="M 56.203125 29.59375 
L 56.203125 25.203125 
L 14.890625 25.203125 
Q 15.484375 15.921875 20.484375 11.0625 
Q 25.484375 6.203125 34.421875 6.203125 
Q 39.59375 6.203125 44.453125 7.46875 
Q 49.3125 8.734375 54.109375 11.28125 
L 54.109375 2.78125 
Q 49.265625 0.734375 44.1875 -0.34375 
Q 39.109375 -1.421875 33.890625 -1.421875 
Q 20.796875 -1.421875 13.15625 6.1875 
Q 5.515625 13.8125 5.515625 26.8125 
Q 5.515625 40.234375 12.765625 48.109375 
Q 20.015625 56 32.328125 56 
Q 43.359375 56 49.78125 48.890625 
Q 56.203125 41.796875 56.203125 29.59375 
z
M 47.21875 32.234375 
Q 47.125 39.59375 43.09375 43.984375 
Q 39.0625 48.390625 32.421875 48.390625 
Q 24.90625 48.390625 20.390625 44.140625 
Q 15.875 39.890625 15.1875 32.171875 
z
" id="DejaVuSans-101"/>
       <path d="M 2.984375 54.6875 
L 12.5 54.6875 
L 29.59375 8.796875 
L 46.6875 54.6875 
L 56.203125 54.6875 
L 35.6875 0 
L 23.484375 0 
z
" id="DejaVuSans-118"/>
       <path d="M 34.28125 27.484375 
Q 23.390625 27.484375 19.1875 25 
Q 14.984375 22.515625 14.984375 16.5 
Q 14.984375 11.71875 18.140625 8.90625 
Q 21.296875 6.109375 26.703125 6.109375 
Q 34.1875 6.109375 38.703125 11.40625 
Q 43.21875 16.703125 43.21875 25.484375 
L 43.21875 27.484375 
z
M 52.203125 31.203125 
L 52.203125 0 
L 43.21875 0 
L 43.21875 8.296875 
Q 40.140625 3.328125 35.546875 0.953125 
Q 30.953125 -1.421875 24.3125 -1.421875 
Q 15.921875 -1.421875 10.953125 3.296875 
Q 6 8.015625 6 15.921875 
Q 6 25.140625 12.171875 29.828125 
Q 18.359375 34.515625 30.609375 34.515625 
L 43.21875 34.515625 
L 43.21875 35.40625 
Q 43.21875 41.609375 39.140625 45 
Q 35.0625 48.390625 27.6875 48.390625 
Q 23 48.390625 18.546875 47.265625 
Q 14.109375 46.140625 10.015625 43.890625 
L 10.015625 52.203125 
Q 14.9375 54.109375 19.578125 55.046875 
Q 24.21875 56 28.609375 56 
Q 40.484375 56 46.34375 49.84375 
Q 52.203125 43.703125 52.203125 31.203125 
z
" id="DejaVuSans-97"/>
       <path d="M 44.28125 53.078125 
L 44.28125 44.578125 
Q 40.484375 46.53125 36.375 47.5 
Q 32.28125 48.484375 27.875 48.484375 
Q 21.1875 48.484375 17.84375 46.4375 
Q 14.5 44.390625 14.5 40.28125 
Q 14.5 37.15625 16.890625 35.375 
Q 19.28125 33.59375 26.515625 31.984375 
L 29.59375 31.296875 
Q 39.15625 29.25 43.1875 25.515625 
Q 47.21875 21.78125 47.21875 15.09375 
Q 47.21875 7.46875 41.1875 3.015625 
Q 35.15625 -1.421875 24.609375 -1.421875 
Q 20.21875 -1.421875 15.453125 -0.5625 
Q 10.6875 0.296875 5.421875 2 
L 5.421875 11.28125 
Q 10.40625 8.6875 15.234375 7.390625 
Q 20.0625 6.109375 24.8125 6.109375 
Q 31.15625 6.109375 34.5625 8.28125 
Q 37.984375 10.453125 37.984375 14.40625 
Q 37.984375 18.0625 35.515625 20.015625 
Q 33.0625 21.96875 24.703125 23.78125 
L 21.578125 24.515625 
Q 13.234375 26.265625 9.515625 29.90625 
Q 5.8125 33.546875 5.8125 39.890625 
Q 5.8125 47.609375 11.28125 51.796875 
Q 16.75 56 26.8125 56 
Q 31.78125 56 36.171875 55.265625 
Q 40.578125 54.546875 44.28125 53.078125 
z
" id="DejaVuSans-115"/>
       <path d="M 25.390625 72.90625 
L 33.6875 72.90625 
L 8.296875 -9.28125 
L 0 -9.28125 
z
" id="DejaVuSans-47"/>
       <path d="M 45.40625 46.390625 
L 45.40625 75.984375 
L 54.390625 75.984375 
L 54.390625 0 
L 45.40625 0 
L 45.40625 8.203125 
Q 42.578125 3.328125 38.25 0.953125 
Q 33.9375 -1.421875 27.875 -1.421875 
Q 17.96875 -1.421875 11.734375 6.484375 
Q 5.515625 14.40625 5.515625 27.296875 
Q 5.515625 40.1875 11.734375 48.09375 
Q 17.96875 56 27.875 56 
Q 33.9375 56 38.25 53.625 
Q 42.578125 51.265625 45.40625 46.390625 
z
M 14.796875 27.296875 
Q 14.796875 17.390625 18.875 11.75 
Q 22.953125 6.109375 30.078125 6.109375 
Q 37.203125 6.109375 41.296875 11.75 
Q 45.40625 17.390625 45.40625 27.296875 
Q 45.40625 37.203125 41.296875 42.84375 
Q 37.203125 48.484375 30.078125 48.484375 
Q 22.953125 48.484375 18.875 42.84375 
Q 14.796875 37.203125 14.796875 27.296875 
z
" id="DejaVuSans-100"/>
       <path d="M 9.421875 54.6875 
L 18.40625 54.6875 
L 18.40625 0 
L 9.421875 0 
z
M 9.421875 75.984375 
L 18.40625 75.984375 
L 18.40625 64.59375 
L 9.421875 64.59375 
z
" id="DejaVuSans-105"/>
       <path d="M 52 44.1875 
Q 55.375 50.25 60.0625 53.125 
Q 64.75 56 71.09375 56 
Q 79.640625 56 84.28125 50.015625 
Q 88.921875 44.046875 88.921875 33.015625 
L 88.921875 0 
L 79.890625 0 
L 79.890625 32.71875 
Q 79.890625 40.578125 77.09375 44.375 
Q 74.3125 48.1875 68.609375 48.1875 
Q 61.625 48.1875 57.5625 43.546875 
Q 53.515625 38.921875 53.515625 30.90625 
L 53.515625 0 
L 44.484375 0 
L 44.484375 32.71875 
Q 44.484375 40.625 41.703125 44.40625 
Q 38.921875 48.1875 33.109375 48.1875 
Q 26.21875 48.1875 22.15625 43.53125 
Q 18.109375 38.875 18.109375 30.90625 
L 18.109375 0 
L 9.078125 0 
L 9.078125 54.6875 
L 18.109375 54.6875 
L 18.109375 46.1875 
Q 21.1875 51.21875 25.484375 53.609375 
Q 29.78125 56 35.6875 56 
Q 41.65625 56 45.828125 52.96875 
Q 50 49.953125 52 44.1875 
z
" id="DejaVuSans-109"/>
       <path d="M 54.890625 33.015625 
L 54.890625 0 
L 45.90625 0 
L 45.90625 32.71875 
Q 45.90625 40.484375 42.875 44.328125 
Q 39.84375 48.1875 33.796875 48.1875 
Q 26.515625 48.1875 22.3125 43.546875 
Q 18.109375 38.921875 18.109375 30.90625 
L 18.109375 0 
L 9.078125 0 
L 9.078125 54.6875 
L 18.109375 54.6875 
L 18.109375 46.1875 
Q 21.34375 51.125 25.703125 53.5625 
Q 30.078125 56 35.796875 56 
Q 45.21875 56 50.046875 50.171875 
Q 54.890625 44.34375 54.890625 33.015625 
z
" id="DejaVuSans-110"/>
       <path d="M 8.015625 75.875 
L 15.828125 75.875 
Q 23.140625 64.359375 26.78125 53.3125 
Q 30.421875 42.28125 30.421875 31.390625 
Q 30.421875 20.453125 26.78125 9.375 
Q 23.140625 -1.703125 15.828125 -13.1875 
L 8.015625 -13.1875 
Q 14.5 -2 17.703125 9.0625 
Q 20.90625 20.125 20.90625 31.390625 
Q 20.90625 42.671875 17.703125 53.65625 
Q 14.5 64.65625 8.015625 75.875 
z
" id="DejaVuSans-41"/>
      </defs>
      <use xlink:href="#DejaVuSans-108"/>
      <use x="27.783203" xlink:href="#DejaVuSans-111"/>
      <use x="88.964844" xlink:href="#DejaVuSans-103"/>
      <use x="152.441406" xlink:href="#DejaVuSans-49"/>
      <use x="216.064453" xlink:href="#DejaVuSans-48"/>
      <use x="279.6875" xlink:href="#DejaVuSans-40"/>
      <use x="318.701172" xlink:href="#DejaVuSans-35"/>
      <use x="402.490234" xlink:href="#DejaVuSans-32"/>
      <use x="434.277344" xlink:href="#DejaVuSans-102"/>
      <use x="463.982422" xlink:href="#DejaVuSans-45"/>
      <use x="500.066406" xlink:href="#DejaVuSans-101"/>
      <use x="561.589844" xlink:href="#DejaVuSans-118"/>
      <use x="620.769531" xlink:href="#DejaVuSans-97"/>
      <use x="682.048828" xlink:href="#DejaVuSans-108"/>
      <use x="709.832031" xlink:href="#DejaVuSans-115"/>
      <use x="761.931641" xlink:href="#DejaVuSans-32"/>
      <use x="793.71875" xlink:href="#DejaVuSans-47"/>
      <use x="827.410156" xlink:href="#DejaVuSans-32"/>
      <use x="859.197266" xlink:href="#DejaVuSans-100"/>
      <use x="922.673828" xlink:href="#DejaVuSans-105"/>
      <use x="950.457031" xlink:href="#DejaVuSans-109"/>
      <use x="1047.869141" xlink:href="#DejaVuSans-101"/>
      <use x="1109.392578" xlink:href="#DejaVuSans-110"/>
      <use x="1172.771484" xlink:href="#DejaVuSans-115"/>
      <use x="1224.871094" xlink:href="#DejaVuSans-105"/>
      <use x="1252.654297" xlink:href="#DejaVuSans-111"/>
      <use x="1313.835938" xlink:href="#DejaVuSans-110"/>
      <use x="1377.214844" xlink:href="#DejaVuSans-41"/>
     </g>
    </g>
   </g>
   <g id="matplotlib.axis_2">
    <g id="ytick_1">
     <g id="line2d_17">
      <path clip-path="url(#p13a2b330df)" d="M 57.6 298.944 
L 338.688 298.944 
" style="fill:none;stroke:#b0b0b0;stroke-linecap:square;stroke-width:0.8;"/>
     </g>
     <g id="line2d_18">
      <defs>
       <path d="M 0 0 
L -3.5 0 
" id="mbc074b86d3" style="stroke:#000000;stroke-width:0.8;"/>
      </defs>
      <g>
       <use style="stroke:#000000;stroke-width:0.8;" x="57.6" xlink:href="#mbc074b86d3" y="298.944"/>
      </g>
     </g>
     <g id="text_6">
      <!-- 0.0 -->
      <g transform="translate(25.155 305.02275)scale(0.16 -0.16)">
       <defs>
        <path d="M 10.6875 12.40625 
L 21 12.40625 
L 21 0 
L 10.6875 0 
z
" id="DejaVuSans-46"/>
       </defs>
       <use xlink:href="#DejaVuSans-48"/>
       <use x="63.623047" xlink:href="#DejaVuSans-46"/>
       <use x="95.410156" xlink:href="#DejaVuSans-48"/>
      </g>
     </g>
    </g>
    <g id="ytick_2">
     <g id="line2d_19">
      <path clip-path="url(#p13a2b330df)" d="M 57.6 240.431525 
L 338.688 240.431525 
" style="fill:none;stroke:#b0b0b0;stroke-linecap:square;stroke-width:0.8;"/>
     </g>
     <g id="line2d_20">
      <g>
       <use style="stroke:#000000;stroke-width:0.8;" x="57.6" xlink:href="#mbc074b86d3" y="240.431525"/>
      </g>
     </g>
     <g id="text_7">
      <!-- 0.2 -->
      <g transform="translate(25.155 246.510275)scale(0.16 -0.16)">
       <use xlink:href="#DejaVuSans-48"/>
       <use x="63.623047" xlink:href="#DejaVuSans-46"/>
       <use x="95.410156" xlink:href="#DejaVuSans-50"/>
      </g>
     </g>
    </g>
    <g id="ytick_3">
     <g id="line2d_21">
      <path clip-path="url(#p13a2b330df)" d="M 57.6 181.91905 
L 338.688 181.91905 
" style="fill:none;stroke:#b0b0b0;stroke-linecap:square;stroke-width:0.8;"/>
     </g>
     <g id="line2d_22">
      <g>
       <use style="stroke:#000000;stroke-width:0.8;" x="57.6" xlink:href="#mbc074b86d3" y="181.91905"/>
      </g>
     </g>
     <g id="text_8">
      <!-- 0.4 -->
      <g transform="translate(25.155 187.9978)scale(0.16 -0.16)">
       <use xlink:href="#DejaVuSans-48"/>
       <use x="63.623047" xlink:href="#DejaVuSans-46"/>
       <use x="95.410156" xlink:href="#DejaVuSans-52"/>
      </g>
     </g>
    </g>
    <g id="ytick_4">
     <g id="line2d_23">
      <path clip-path="url(#p13a2b330df)" d="M 57.6 123.406574 
L 338.688 123.406574 
" style="fill:none;stroke:#b0b0b0;stroke-linecap:square;stroke-width:0.8;"/>
     </g>
     <g id="line2d_24">
      <g>
       <use style="stroke:#000000;stroke-width:0.8;" x="57.6" xlink:href="#mbc074b86d3" y="123.406574"/>
      </g>
     </g>
     <g id="text_9">
      <!-- 0.6 -->
      <g transform="translate(25.155 129.485324)scale(0.16 -0.16)">
       <use xlink:href="#DejaVuSans-48"/>
       <use x="63.623047" xlink:href="#DejaVuSans-46"/>
       <use x="95.410156" xlink:href="#DejaVuSans-54"/>
      </g>
     </g>
    </g>
    <g id="ytick_5">
     <g id="line2d_25">
      <path clip-path="url(#p13a2b330df)" d="M 57.6 64.894099 
L 338.688 64.894099 
" style="fill:none;stroke:#b0b0b0;stroke-linecap:square;stroke-width:0.8;"/>
     </g>
     <g id="line2d_26">
      <g>
       <use style="stroke:#000000;stroke-width:0.8;" x="57.6" xlink:href="#mbc074b86d3" y="64.894099"/>
      </g>
     </g>
     <g id="text_10">
      <!-- 0.8 -->
      <g transform="translate(25.155 70.972849)scale(0.16 -0.16)">
       <defs>
        <path d="M 31.78125 34.625 
Q 24.75 34.625 20.71875 30.859375 
Q 16.703125 27.09375 16.703125 20.515625 
Q 16.703125 13.921875 20.71875 10.15625 
Q 24.75 6.390625 31.78125 6.390625 
Q 38.8125 6.390625 42.859375 10.171875 
Q 46.921875 13.96875 46.921875 20.515625 
Q 46.921875 27.09375 42.890625 30.859375 
Q 38.875 34.625 31.78125 34.625 
z
M 21.921875 38.8125 
Q 15.578125 40.375 12.03125 44.71875 
Q 8.5 49.078125 8.5 55.328125 
Q 8.5 64.0625 14.71875 69.140625 
Q 20.953125 74.21875 31.78125 74.21875 
Q 42.671875 74.21875 48.875 69.140625 
Q 55.078125 64.0625 55.078125 55.328125 
Q 55.078125 49.078125 51.53125 44.71875 
Q 48 40.375 41.703125 38.8125 
Q 48.828125 37.15625 52.796875 32.3125 
Q 56.78125 27.484375 56.78125 20.515625 
Q 56.78125 9.90625 50.3125 4.234375 
Q 43.84375 -1.421875 31.78125 -1.421875 
Q 19.734375 -1.421875 13.25 4.234375 
Q 6.78125 9.90625 6.78125 20.515625 
Q 6.78125 27.484375 10.78125 32.3125 
Q 14.796875 37.15625 21.921875 38.8125 
z
M 18.3125 54.390625 
Q 18.3125 48.734375 21.84375 45.5625 
Q 25.390625 42.390625 31.78125 42.390625 
Q 38.140625 42.390625 41.71875 45.5625 
Q 45.3125 48.734375 45.3125 54.390625 
Q 45.3125 60.0625 41.71875 63.234375 
Q 38.140625 66.40625 31.78125 66.40625 
Q 25.390625 66.40625 21.84375 63.234375 
Q 18.3125 60.0625 18.3125 54.390625 
z
" id="DejaVuSans-56"/>
       </defs>
       <use xlink:href="#DejaVuSans-48"/>
       <use x="63.623047" xlink:href="#DejaVuSans-46"/>
       <use x="95.410156" xlink:href="#DejaVuSans-56"/>
      </g>
     </g>
    </g>
    <g id="ytick_6">
     <g id="line2d_27">
      <path clip-path="url(#p13a2b330df)" d="M 57.6 6.381624 
L 338.688 6.381624 
" style="fill:none;stroke:#b0b0b0;stroke-linecap:square;stroke-width:0.8;"/>
     </g>
     <g id="line2d_28">
      <g>
       <use style="stroke:#000000;stroke-width:0.8;" x="57.6" xlink:href="#mbc074b86d3" y="6.381624"/>
      </g>
     </g>
     <g id="text_11">
      <!-- 1.0 -->
      <g transform="translate(25.155 12.460374)scale(0.16 -0.16)">
       <use xlink:href="#DejaVuSans-49"/>
       <use x="63.623047" xlink:href="#DejaVuSans-46"/>
       <use x="95.410156" xlink:href="#DejaVuSans-48"/>
      </g>
     </g>
    </g>
    <g id="text_12">
     <!-- Fraction of function,target pairs -->
     <g transform="translate(17.619531 285.585)rotate(-90)scale(0.17 -0.17)">
      <defs>
       <path d="M 9.8125 72.90625 
L 51.703125 72.90625 
L 51.703125 64.59375 
L 19.671875 64.59375 
L 19.671875 43.109375 
L 48.578125 43.109375 
L 48.578125 34.8125 
L 19.671875 34.8125 
L 19.671875 0 
L 9.8125 0 
z
" id="DejaVuSans-70"/>
       <path d="M 41.109375 46.296875 
Q 39.59375 47.171875 37.8125 47.578125 
Q 36.03125 48 33.890625 48 
Q 26.265625 48 22.1875 43.046875 
Q 18.109375 38.09375 18.109375 28.8125 
L 18.109375 0 
L 9.078125 0 
L 9.078125 54.6875 
L 18.109375 54.6875 
L 18.109375 46.1875 
Q 20.953125 51.171875 25.484375 53.578125 
Q 30.03125 56 36.53125 56 
Q 37.453125 56 38.578125 55.875 
Q 39.703125 55.765625 41.0625 55.515625 
z
" id="DejaVuSans-114"/>
       <path d="M 48.78125 52.59375 
L 48.78125 44.1875 
Q 44.96875 46.296875 41.140625 47.34375 
Q 37.3125 48.390625 33.40625 48.390625 
Q 24.65625 48.390625 19.8125 42.84375 
Q 14.984375 37.3125 14.984375 27.296875 
Q 14.984375 17.28125 19.8125 11.734375 
Q 24.65625 6.203125 33.40625 6.203125 
Q 37.3125 6.203125 41.140625 7.25 
Q 44.96875 8.296875 48.78125 10.40625 
L 48.78125 2.09375 
Q 45.015625 0.34375 40.984375 -0.53125 
Q 36.96875 -1.421875 32.421875 -1.421875 
Q 20.0625 -1.421875 12.78125 6.34375 
Q 5.515625 14.109375 5.515625 27.296875 
Q 5.515625 40.671875 12.859375 48.328125 
Q 20.21875 56 33.015625 56 
Q 37.15625 56 41.109375 55.140625 
Q 45.0625 54.296875 48.78125 52.59375 
z
" id="DejaVuSans-99"/>
       <path d="M 18.3125 70.21875 
L 18.3125 54.6875 
L 36.8125 54.6875 
L 36.8125 47.703125 
L 18.3125 47.703125 
L 18.3125 18.015625 
Q 18.3125 11.328125 20.140625 9.421875 
Q 21.96875 7.515625 27.59375 7.515625 
L 36.8125 7.515625 
L 36.8125 0 
L 27.59375 0 
Q 17.1875 0 13.234375 3.875 
Q 9.28125 7.765625 9.28125 18.015625 
L 9.28125 47.703125 
L 2.6875 47.703125 
L 2.6875 54.6875 
L 9.28125 54.6875 
L 9.28125 70.21875 
z
" id="DejaVuSans-116"/>
       <path d="M 8.5 21.578125 
L 8.5 54.6875 
L 17.484375 54.6875 
L 17.484375 21.921875 
Q 17.484375 14.15625 20.5 10.265625 
Q 23.53125 6.390625 29.59375 6.390625 
Q 36.859375 6.390625 41.078125 11.03125 
Q 45.3125 15.671875 45.3125 23.6875 
L 45.3125 54.6875 
L 54.296875 54.6875 
L 54.296875 0 
L 45.3125 0 
L 45.3125 8.40625 
Q 42.046875 3.421875 37.71875 1 
Q 33.40625 -1.421875 27.6875 -1.421875 
Q 18.265625 -1.421875 13.375 4.4375 
Q 8.5 10.296875 8.5 21.578125 
z
M 31.109375 56 
z
" id="DejaVuSans-117"/>
       <path d="M 11.71875 12.40625 
L 22.015625 12.40625 
L 22.015625 4 
L 14.015625 -11.625 
L 7.71875 -11.625 
L 11.71875 4 
z
" id="DejaVuSans-44"/>
       <path d="M 18.109375 8.203125 
L 18.109375 -20.796875 
L 9.078125 -20.796875 
L 9.078125 54.6875 
L 18.109375 54.6875 
L 18.109375 46.390625 
Q 20.953125 51.265625 25.265625 53.625 
Q 29.59375 56 35.59375 56 
Q 45.5625 56 51.78125 48.09375 
Q 58.015625 40.1875 58.015625 27.296875 
Q 58.015625 14.40625 51.78125 6.484375 
Q 45.5625 -1.421875 35.59375 -1.421875 
Q 29.59375 -1.421875 25.265625 0.953125 
Q 20.953125 3.328125 18.109375 8.203125 
z
M 48.6875 27.296875 
Q 48.6875 37.203125 44.609375 42.84375 
Q 40.53125 48.484375 33.40625 48.484375 
Q 26.265625 48.484375 22.1875 42.84375 
Q 18.109375 37.203125 18.109375 27.296875 
Q 18.109375 17.390625 22.1875 11.75 
Q 26.265625 6.109375 33.40625 6.109375 
Q 40.53125 6.109375 44.609375 11.75 
Q 48.6875 17.390625 48.6875 27.296875 
z
" id="DejaVuSans-112"/>
      </defs>
      <use xlink:href="#DejaVuSans-70"/>
      <use x="50.269531" xlink:href="#DejaVuSans-114"/>
      <use x="91.382812" xlink:href="#DejaVuSans-97"/>
      <use x="152.662109" xlink:href="#DejaVuSans-99"/>
      <use x="207.642578" xlink:href="#DejaVuSans-116"/>
      <use x="246.851562" xlink:href="#DejaVuSans-105"/>
      <use x="274.634766" xlink:href="#DejaVuSans-111"/>
      <use x="335.816406" xlink:href="#DejaVuSans-110"/>
      <use x="399.195312" xlink:href="#DejaVuSans-32"/>
      <use x="430.982422" xlink:href="#DejaVuSans-111"/>
      <use x="492.164062" xlink:href="#DejaVuSans-102"/>
      <use x="527.369141" xlink:href="#DejaVuSans-32"/>
      <use x="559.15625" xlink:href="#DejaVuSans-102"/>
      <use x="594.361328" xlink:href="#DejaVuSans-117"/>
      <use x="657.740234" xlink:href="#DejaVuSans-110"/>
      <use x="721.119141" xlink:href="#DejaVuSans-99"/>
      <use x="776.099609" xlink:href="#DejaVuSans-116"/>
      <use x="815.308594" xlink:href="#DejaVuSans-105"/>
      <use x="843.091797" xlink:href="#DejaVuSans-111"/>
      <use x="904.273438" xlink:href="#DejaVuSans-110"/>
      <use x="967.652344" xlink:href="#DejaVuSans-44"/>
      <use x="999.439453" xlink:href="#DejaVuSans-116"/>
      <use x="1038.648438" xlink:href="#DejaVuSans-97"/>
      <use x="1099.927734" xlink:href="#DejaVuSans-114"/>
      <use x="1139.291016" xlink:href="#DejaVuSans-103"/>
      <use x="1202.767578" xlink:href="#DejaVuSans-101"/>
      <use x="1264.291016" xlink:href="#DejaVuSans-116"/>
      <use x="1303.5" xlink:href="#DejaVuSans-32"/>
      <use x="1335.287109" xlink:href="#DejaVuSans-112"/>
      <use x="1398.763672" xlink:href="#DejaVuSans-97"/>
      <use x="1460.042969" xlink:href="#DejaVuSans-105"/>
      <use x="1487.826172" xlink:href="#DejaVuSans-114"/>
      <use x="1528.939453" xlink:href="#DejaVuSans-115"/>
     </g>
    </g>
   </g>
   <g id="line2d_29">
    <defs>
     <path d="M 0 1.5 
C 0.397805 1.5 0.77937 1.341951 1.06066 1.06066 
C 1.341951 0.77937 1.5 0.397805 1.5 0 
C 1.5 -0.397805 1.341951 -0.77937 1.06066 -1.06066 
C 0.77937 -1.341951 0.397805 -1.5 0 -1.5 
C -0.397805 -1.5 -0.77937 -1.341951 -1.06066 -1.06066 
C -1.341951 -0.77937 -1.5 -0.397805 -1.5 0 
C -1.5 0.397805 -1.341951 0.77937 -1.06066 1.06066 
C -0.77937 1.341951 -0.397805 1.5 0 1.5 
z
" id="m176cf879eb" style="stroke:#000080;"/>
    </defs>
    <g>
     <use style="fill:#000080;stroke:#000080;" x="255.818942" xlink:href="#m176cf879eb" y="50.770398"/>
     <use style="fill:#000080;stroke:#000080;" x="255.818942" xlink:href="#m176cf879eb" y="50.770398"/>
    </g>
   </g>
   <g id="line2d_30">
    <path d="M 38.440992 298.944 
L 38.440992 296.926328 
L 98.880934 296.926328 
L 98.880934 296.421911 
L 105.209745 296.421911 
L 105.209745 295.917493 
L 109.843417 295.917493 
L 109.843417 295.413075 
L 111.767808 295.413075 
L 111.767808 294.908657 
L 117.857331 294.908657 
L 117.857331 294.404239 
L 122.362027 294.404239 
L 122.362027 293.899821 
L 123.327293 293.899821 
L 123.327293 292.890985 
L 124.241922 292.890985 
L 124.241922 291.88215 
L 125.110962 291.88215 
L 125.110962 291.377732 
L 125.938745 291.377732 
L 125.938745 290.873314 
L 126.729009 290.873314 
L 126.729009 290.368896 
L 128.209594 290.368896 
L 128.209594 289.36006 
L 128.905271 289.36006 
L 128.905271 288.855642 
L 129.574256 288.855642 
L 129.574256 288.351224 
L 130.218525 288.351224 
L 130.218525 287.846806 
L 130.839837 287.846806 
L 130.839837 286.837971 
L 131.439773 286.837971 
L 131.439773 286.333553 
L 132.019755 286.333553 
L 132.019755 285.324717 
L 132.581068 285.324717 
L 132.581068 283.811463 
L 134.164119 283.811463 
L 134.164119 282.29821 
L 135.615352 282.29821 
L 135.615352 281.289374 
L 136.519813 281.289374 
L 136.519813 280.784956 
L 136.955041 280.784956 
L 136.955041 280.280538 
L 137.37967 280.280538 
L 137.37967 279.271702 
L 138.199116 279.271702 
L 138.199116 278.767284 
L 138.594838 278.767284 
L 138.594838 278.262867 
L 139.360321 278.262867 
L 139.360321 277.758449 
L 140.093612 277.758449 
L 140.093612 276.749613 
L 140.44901 276.749613 
L 140.44901 276.245195 
L 141.138789 276.245195 
L 141.138789 275.740777 
L 141.80232 275.740777 
L 141.80232 275.236359 
L 143.943994 275.236359 
L 143.943994 274.731941 
L 145.591172 274.731941 
L 145.591172 274.227523 
L 147.570215 274.227523 
L 147.570215 273.723105 
L 149.347388 273.723105 
L 149.347388 272.71427 
L 152.562109 272.71427 
L 152.562109 272.209852 
L 152.835965 272.209852 
L 152.835965 271.705434 
L 153.750233 271.705434 
L 153.750233 270.696598 
L 153.890309 270.696598 
L 153.890309 270.19218 
L 155.0376 270.19218 
L 155.0376 269.687762 
L 155.361158 269.687762 
L 155.361158 269.183344 
L 155.990803 269.183344 
L 156.093569 267.670091 
L 156.114049 267.670091 
L 156.114049 267.165673 
L 157.1279 267.165673 
L 157.1279 266.661255 
L 157.67916 266.661255 
L 157.67916 266.156837 
L 158.376091 266.156837 
L 158.376091 265.652419 
L 158.501489 265.652419 
L 158.501489 265.148001 
L 158.67908 265.148001 
L 158.69674 263.634748 
L 159.608019 263.634748 
L 159.608019 263.13033 
L 160.005512 263.13033 
L 160.005512 262.121494 
L 160.168498 262.121494 
L 160.233268 260.103822 
L 160.569418 260.103822 
L 160.569418 259.599405 
L 160.711523 259.599405 
L 160.711523 258.086151 
L 160.883648 258.086151 
L 160.883648 256.572897 
L 161.222884 256.572897 
L 161.253399 255.059644 
L 161.675095 255.059644 
L 161.675095 254.050808 
L 161.808503 254.050808 
L 161.808503 251.0243 
L 162.289115 251.0243 
L 162.289115 249.006629 
L 162.71483 249.006629 
L 162.742845 244.971286 
L 162.909996 244.971286 
L 162.992975 243.458032 
L 163.375071 243.458032 
L 163.375071 242.953614 
L 163.52292 242.953614 
L 163.52292 241.944778 
L 163.972138 241.944778 
L 164.063205 240.431525 
L 164.269589 240.431525 
L 164.269589 239.422689 
L 164.410075 239.422689 
L 164.410075 238.413853 
L 164.886862 238.413853 
L 164.886862 236.9006 
L 165.302685 236.9006 
L 165.35096 235.387346 
L 165.955029 235.387346 
L 165.955029 234.882928 
L 167.59811 234.882928 
L 167.59811 233.874092 
L 167.913096 233.874092 
L 167.913096 232.865256 
L 168.596677 232.865256 
L 168.596677 231.856421 
L 169.070439 231.856421 
L 169.070439 231.352003 
L 169.225542 231.352003 
L 169.225542 230.343167 
L 169.897641 230.343167 
L 169.897641 229.334331 
L 170.265184 229.334331 
L 170.265184 228.325495 
L 170.616232 228.325495 
L 170.616232 227.821078 
L 170.960352 227.821078 
L 170.960352 227.31666 
L 171.569909 227.31666 
L 171.569909 226.812242 
L 172.649478 226.812242 
L 172.649478 226.307824 
L 172.963849 226.307824 
L 172.963849 225.803406 
L 173.530906 225.803406 
L 173.530906 225.298988 
L 174.455933 225.298988 
L 174.455933 224.79457 
L 176.968661 224.79457 
L 176.968661 224.290152 
L 178.78935 224.290152 
L 178.78935 223.785734 
L 179.844303 223.785734 
L 179.844303 223.281316 
L 181.742504 223.281316 
L 181.742504 222.776899 
L 184.513985 222.776899 
L 184.542078 221.768063 
L 185.433187 221.768063 
L 185.433187 220.759227 
L 185.780249 220.759227 
L 185.839908 219.750391 
L 186.036086 219.750391 
L 186.036086 218.741555 
L 186.23736 218.741555 
L 186.23736 218.237138 
L 186.385904 218.237138 
L 186.486626 216.723884 
L 186.711146 216.723884 
L 186.711146 215.715048 
L 187.106755 215.715048 
L 187.106755 214.201794 
L 187.278979 214.201794 
L 187.278979 213.192959 
L 189.641057 213.192959 
L 189.641057 212.184123 
L 193.526532 212.184123 
L 193.526532 211.679705 
L 196.811571 211.679705 
L 196.811571 211.175287 
L 200.040993 211.175287 
L 200.040993 210.670869 
L 202.821124 210.670869 
L 202.821124 210.166451 
L 204.389077 210.166451 
L 204.389077 209.662033 
L 204.651787 209.662033 
L 204.683401 208.653198 
L 204.972841 208.653198 
L 204.972841 207.644362 
L 205.286871 207.644362 
L 205.286871 207.139944 
L 205.621706 207.139944 
L 205.621706 206.635526 
L 205.912595 206.635526 
L 205.912595 206.131108 
L 206.795334 206.131108 
L 206.795334 205.62669 
L 207.474794 205.62669 
L 207.474794 204.617855 
L 208.363606 204.617855 
L 208.363606 203.609019 
L 208.523493 203.609019 
L 208.628604 199.069258 
L 208.667858 199.069258 
L 208.667858 198.56484 
L 209.548094 198.56484 
L 209.548094 198.060422 
L 210.442421 198.060422 
L 210.442421 197.556004 
L 210.586215 197.556004 
L 210.586215 196.547168 
L 212.193166 196.547168 
L 212.193166 196.04275 
L 213.646328 196.04275 
L 213.646328 195.033915 
L 215.132607 195.033915 
L 215.132607 194.529497 
L 215.375187 194.529497 
L 215.375187 194.025079 
L 215.705333 194.025079 
L 215.710705 193.016243 
L 216.851434 193.016243 
L 216.851434 192.511825 
L 217.196987 192.511825 
L 217.284923 188.9809 
L 217.321688 188.9809 
L 217.353488 186.963228 
L 217.681536 186.963228 
L 217.681536 186.458811 
L 219.622967 186.458811 
L 219.622967 185.954393 
L 219.846824 185.954393 
L 219.846824 185.449975 
L 220.186143 185.449975 
L 220.238522 183.936721 
L 220.567836 183.936721 
L 220.567836 182.927885 
L 221.065255 182.927885 
L 221.154413 181.91905 
L 221.501741 181.91905 
L 221.501741 181.414632 
L 221.702391 181.414632 
L 221.702391 180.405796 
L 221.815816 180.405796 
L 221.815816 179.901378 
L 222.063346 179.901378 
L 222.164258 177.379288 
L 222.196686 177.379288 
L 222.307412 173.848363 
L 222.330391 173.848363 
L 222.407839 171.326274 
L 222.46627 171.326274 
L 222.46627 170.317438 
L 223.383264 170.317438 
L 223.383264 169.81302 
L 223.591718 169.81302 
L 223.591718 169.308602 
L 223.997959 169.308602 
L 223.997959 168.299766 
L 224.601807 168.299766 
L 224.601807 167.795349 
L 224.999236 167.795349 
L 224.999236 167.290931 
L 225.40245 167.290931 
L 225.40245 166.786513 
L 226.349437 166.786513 
L 226.411699 165.273259 
L 226.513893 165.273259 
L 226.513893 164.768841 
L 226.633085 164.768841 
L 226.633085 164.264423 
L 226.924903 164.264423 
L 226.989016 162.75117 
L 227.049039 162.75117 
L 227.141303 161.237916 
L 227.237242 161.237916 
L 227.325415 159.724662 
L 227.429951 159.724662 
L 227.429951 159.220244 
L 227.605626 159.220244 
L 227.6612 156.193737 
L 227.972373 156.193737 
L 227.972373 155.689319 
L 228.257504 155.689319 
L 228.257504 154.680483 
L 228.372863 154.680483 
L 228.372863 154.176066 
L 228.505201 154.176066 
L 228.505201 153.671648 
L 228.843894 153.671648 
L 228.843894 153.16723 
L 228.977425 153.16723 
L 228.977425 152.662812 
L 229.411819 152.662812 
L 229.49577 149.636305 
L 229.60839 149.636305 
L 229.713973 147.618633 
L 229.837745 147.618633 
L 229.837745 147.114215 
L 229.994416 147.114215 
L 230.040524 145.600961 
L 230.129147 145.600961 
L 230.129147 144.592126 
L 230.569063 144.592126 
L 230.571068 143.58329 
L 230.751663 143.58329 
L 230.751663 143.078872 
L 231.020214 143.078872 
L 231.020214 142.574454 
L 231.560646 142.574454 
L 231.560646 141.565618 
L 231.85998 141.565618 
L 231.961271 140.556783 
L 232.07748 140.556783 
L 232.18248 137.025857 
L 232.208045 137.025857 
L 232.297748 135.512604 
L 232.319519 135.512604 
L 232.372278 133.99935 
L 232.464225 133.99935 
L 232.541885 132.990514 
L 232.616145 132.990514 
L 232.688062 131.47726 
L 232.835539 131.47726 
L 232.945833 129.459589 
L 232.975294 129.459589 
L 233.055931 127.946335 
L 233.088925 127.946335 
L 233.088925 127.441917 
L 233.206498 127.441917 
L 233.312766 124.919828 
L 233.462839 124.919828 
L 233.534978 123.406574 
L 233.616681 123.406574 
L 233.625335 122.397738 
L 233.972498 122.397738 
L 234.005449 120.884485 
L 234.142705 120.884485 
L 234.221616 118.866813 
L 234.272868 118.866813 
L 234.355113 117.857977 
L 234.518904 117.857977 
L 234.518904 117.35356 
L 234.753634 117.35356 
L 234.753634 116.849142 
L 235.474711 116.849142 
L 235.474711 115.840306 
L 235.663678 115.840306 
L 235.663678 115.335888 
L 236.174215 115.335888 
L 236.174215 114.327052 
L 236.31526 114.327052 
L 236.31526 113.318216 
L 236.466613 113.318216 
L 236.466613 112.813799 
L 236.806534 112.813799 
L 236.90299 110.291709 
L 236.918915 110.291709 
L 237.024052 108.778455 
L 237.072242 108.778455 
L 237.1745 106.760784 
L 237.277916 106.760784 
L 237.277916 106.256366 
L 237.420787 106.256366 
L 237.474256 105.24753 
L 237.803781 105.24753 
L 237.803781 104.743112 
L 238.106389 104.743112 
L 238.106389 103.734277 
L 238.512222 103.734277 
L 238.566254 102.221023 
L 238.675797 102.221023 
L 238.675797 101.212187 
L 238.794309 101.212187 
L 238.794309 100.707769 
L 239.649096 100.707769 
L 239.649096 99.698933 
L 239.774038 99.698933 
L 239.774038 99.194516 
L 239.902618 99.194516 
L 240.003271 97.681262 
L 240.217348 97.681262 
L 240.217348 97.176844 
L 240.648705 97.176844 
L 240.648705 96.672426 
L 241.077332 96.672426 
L 241.15491 95.159172 
L 241.433583 95.159172 
L 241.448628 93.645919 
L 241.770957 93.645919 
L 241.78466 90.114994 
L 242.027418 90.114994 
L 242.027418 89.610576 
L 242.39115 89.610576 
L 242.39115 88.60174 
L 242.704809 88.60174 
L 242.809161 86.584068 
L 242.880411 86.584068 
L 242.971069 84.566397 
L 243.062238 84.566397 
L 243.062238 84.061979 
L 243.263913 84.061979 
L 243.342971 82.044307 
L 243.407688 82.044307 
L 243.440984 80.026636 
L 243.566605 80.026636 
L 243.597021 79.0178 
L 243.762831 79.0178 
L 243.762831 78.513382 
L 244.22577 78.513382 
L 244.283386 75.486875 
L 244.56441 75.486875 
L 244.56441 74.478039 
L 244.728944 74.478039 
L 244.728944 73.973621 
L 244.93886 73.973621 
L 244.93886 73.469203 
L 245.185214 73.469203 
L 245.221714 71.955949 
L 245.424472 71.955949 
L 245.424472 71.451532 
L 245.841428 71.451532 
L 245.841428 70.947114 
L 246.03809 70.947114 
L 246.106601 65.398517 
L 246.159155 65.398517 
L 246.232209 62.876427 
L 246.292526 62.876427 
L 246.311578 60.354338 
L 246.775719 60.354338 
L 246.775719 59.345502 
L 246.891 59.345502 
L 246.896615 56.823413 
L 247.174532 56.823413 
L 247.174532 56.318995 
L 247.426645 56.318995 
L 247.426645 55.814577 
L 247.935434 55.814577 
L 247.935434 54.805741 
L 248.508289 54.805741 
L 248.508289 53.796905 
L 248.889315 53.796905 
L 248.889315 53.292488 
L 252.346459 53.292488 
L 252.346459 52.78807 
L 255.490876 52.78807 
L 255.490876 52.283652 
L 255.812815 52.283652 
L 255.818942 50.770398 
L 338.688 50.770398 
L 338.688 50.770398 
" style="fill:none;stroke:#000080;stroke-linecap:square;stroke-width:1.5;"/>
   </g>
   <g id="line2d_31">
    <defs>
     <path d="M 0 6 
C 1.591219 6 3.117479 5.367802 4.242641 4.242641 
C 5.367802 3.117479 6 1.591219 6 0 
C 6 -1.591219 5.367802 -3.117479 4.242641 -4.242641 
C 3.117479 -5.367802 1.591219 -6 0 -6 
C -1.591219 -6 -3.117479 -5.367802 -4.242641 -4.242641 
C -5.367802 -3.117479 -6 -1.591219 -6 0 
C -6 1.591219 -5.367802 3.117479 -4.242641 4.242641 
C -3.117479 5.367802 -1.591219 6 0 6 
z
" id="md8f8a8bb4e" style="stroke:#000080;stroke-width:1.5;"/>
    </defs>
    <g>
     <use style="fill-opacity:0;stroke:#000080;stroke-width:1.5;" x="162.909996" xlink:href="#md8f8a8bb4e" y="244.971286"/>
     <use style="fill-opacity:0;stroke:#000080;stroke-width:1.5;" x="227.084045" xlink:href="#md8f8a8bb4e" y="162.246752"/>
     <use style="fill-opacity:0;stroke:#000080;stroke-width:1.5;" x="245.185214" xlink:href="#md8f8a8bb4e" y="72.460367"/>
     <use style="fill-opacity:0;stroke:#000080;stroke-width:1.5;" x="255.818942" xlink:href="#md8f8a8bb4e" y="50.770398"/>
     <use style="fill-opacity:0;stroke:#000080;stroke-width:1.5;" x="338.688" xlink:href="#md8f8a8bb4e" y="50.770398"/>
    </g>
   </g>
   <g id="line2d_32">
    <path style="fill:none;stroke:#000080;stroke-linecap:square;stroke-width:1.5;"/>
    <g/>
   </g>
   <g id="line2d_33">
    <path clip-path="url(#p13a2b330df)" d="M 258.377143 50.770398 
" style="fill:none;stroke:#000080;stroke-linecap:square;stroke-width:1.5;"/>
    <defs>
     <path d="M -12 12 
L 12 -12 
M -12 -12 
L 12 12 
" id="m67bc46c16a" style="stroke:#000080;"/>
    </defs>
    <g clip-path="url(#p13a2b330df)">
     <use style="fill:#000080;stroke:#000080;" x="258.377143" xlink:href="#m67bc46c16a" y="50.770398"/>
    </g>
   </g>
   <g id="line2d_34">
    <defs>
     <path d="M 0 1.5 
C 0.397805 1.5 0.77937 1.341951 1.06066 1.06066 
C 1.341951 0.77937 1.5 0.397805 1.5 0 
C 1.5 -0.397805 1.341951 -0.77937 1.06066 -1.06066 
C 0.77937 -1.341951 0.397805 -1.5 0 -1.5 
C -0.397805 -1.5 -0.77937 -1.341951 -1.06066 -1.06066 
C -1.341951 -0.77937 -1.5 -0.397805 -1.5 0 
C -1.5 0.397805 -1.341951 0.77937 -1.06066 1.06066 
C -0.77937 1.341951 -0.397805 1.5 0 1.5 
z
" id="m2c432ea523" style="stroke:#ff00ff;"/>
    </defs>
    <g>
     <use style="fill:#ff00ff;stroke:#ff00ff;" x="253.281949" xlink:href="#m2c432ea523" y="62.876427"/>
     <use style="fill:#ff00ff;stroke:#ff00ff;" x="253.281949" xlink:href="#m2c432ea523" y="62.876427"/>
    </g>
   </g>
   <g id="line2d_35">
    <path d="M 38.440992 298.944 
L 38.440992 296.926328 
L 93.863965 296.926328 
L 93.863965 296.421911 
L 94.575872 296.421911 
L 94.575872 295.917493 
L 102.330873 295.917493 
L 102.330873 295.413075 
L 109.843417 295.413075 
L 109.843417 294.908657 
L 115.077025 294.908657 
L 115.077025 293.899821 
L 116.522527 293.899821 
L 116.522527 292.890985 
L 119.097192 292.890985 
L 119.097192 292.386567 
L 120.254726 292.386567 
L 120.254726 291.88215 
L 134.661403 291.88215 
L 134.661403 291.377732 
L 136.519813 291.377732 
L 136.519813 290.873314 
L 137.794206 290.873314 
L 137.794206 290.368896 
L 138.594838 290.368896 
L 138.594838 289.864478 
L 139.360321 289.864478 
L 139.360321 289.36006 
L 140.79731 289.36006 
L 140.79731 288.855642 
L 141.47371 288.855642 
L 141.47371 287.846806 
L 142.441528 287.846806 
L 142.441528 287.342389 
L 151.634543 287.342389 
L 151.634543 286.333553 
L 152.001148 286.333553 
L 152.001148 285.829135 
L 155.990803 285.829135 
L 155.990803 285.324717 
L 157.604152 285.324717 
L 157.604152 284.820299 
L 160.69579 284.820299 
L 160.69579 284.315881 
L 163.696049 284.315881 
L 163.748975 283.307045 
L 163.880593 283.307045 
L 163.880593 282.802628 
L 164.153799 282.802628 
L 164.153799 282.29821 
L 164.47356 282.29821 
L 164.47356 281.793792 
L 164.687696 281.793792 
L 164.687696 281.289374 
L 167.545055 281.289374 
L 167.545055 280.784956 
L 168.263336 280.784956 
L 168.263336 280.280538 
L 169.953269 280.280538 
L 169.953269 279.77612 
L 170.499999 279.77612 
L 170.499999 279.271702 
L 171.168792 279.271702 
L 171.168792 278.262867 
L 175.503506 278.262867 
L 175.503506 277.758449 
L 182.978303 277.758449 
L 182.978303 277.254031 
L 183.505367 277.254031 
L 183.53513 276.245195 
L 184.709687 276.245195 
L 184.709687 275.740777 
L 186.981692 275.740777 
L 186.981692 275.236359 
L 187.698897 275.236359 
L 187.698897 274.731941 
L 189.072119 274.731941 
L 189.115362 272.71427 
L 190.499618 272.71427 
L 190.499618 272.209852 
L 190.700772 272.209852 
L 190.700772 271.705434 
L 190.852223 271.705434 
L 190.852223 271.201016 
L 191.024506 271.201016 
L 191.024506 269.687762 
L 191.507181 269.687762 
L 191.507181 268.678927 
L 191.715717 268.678927 
L 191.715717 267.670091 
L 191.955899 267.670091 
L 191.955899 266.156837 
L 192.742612 266.156837 
L 192.742612 265.652419 
L 192.949351 265.652419 
L 193.0358 263.634748 
L 193.42563 263.634748 
L 193.42563 263.13033 
L 194.324846 263.13033 
L 194.404753 262.121494 
L 194.504692 262.121494 
L 194.531849 261.112658 
L 195.379268 261.112658 
L 195.379268 260.60824 
L 196.183297 260.60824 
L 196.183297 260.103822 
L 196.402019 260.103822 
L 196.402019 259.094987 
L 197.004948 259.094987 
L 197.004948 258.590569 
L 197.296842 258.590569 
L 197.296842 258.086151 
L 197.563037 258.086151 
L 197.563037 257.581733 
L 197.68991 257.581733 
L 197.774608 256.068479 
L 197.886903 256.068479 
L 197.886903 255.564061 
L 198.000332 255.564061 
L 198.000332 255.059644 
L 198.116712 255.059644 
L 198.116712 254.555226 
L 198.298039 254.555226 
L 198.298039 253.54639 
L 198.569233 253.54639 
L 198.569233 253.041972 
L 198.82744 253.041972 
L 198.82744 252.537554 
L 199.081878 252.537554 
L 199.081878 252.033136 
L 199.248315 252.033136 
L 199.308602 250.015465 
L 199.703034 250.015465 
L 199.703034 249.006629 
L 199.996418 249.006629 
L 199.996418 248.502211 
L 200.375761 248.502211 
L 200.375761 247.997793 
L 200.555981 247.997793 
L 200.555981 247.493375 
L 201.204893 247.493375 
L 201.204893 246.988957 
L 202.546239 246.988957 
L 202.546239 246.484539 
L 202.829557 246.484539 
L 202.829557 245.475704 
L 203.029344 245.475704 
L 203.095896 243.458032 
L 203.175975 243.458032 
L 203.175975 242.953614 
L 203.476424 242.953614 
L 203.476424 242.449196 
L 204.072697 242.449196 
L 204.072697 241.440361 
L 204.398069 241.440361 
L 204.460885 239.927107 
L 204.590925 239.927107 
L 204.659379 236.396182 
L 204.727566 236.396182 
L 204.727566 234.37851 
L 205.60134 234.37851 
L 205.60134 233.874092 
L 206.224175 233.874092 
L 206.224175 232.865256 
L 207.04097 232.865256 
L 207.048694 231.352003 
L 207.526393 231.352003 
L 207.526393 230.847585 
L 207.863379 230.847585 
L 207.930631 229.334331 
L 208.003893 229.334331 
L 208.003893 228.325495 
L 209.015252 228.325495 
L 209.015252 227.31666 
L 209.515563 227.31666 
L 209.515563 226.812242 
L 210.341329 226.812242 
L 210.341329 225.803406 
L 212.293086 225.803406 
L 212.293086 225.298988 
L 212.44433 225.298988 
L 212.44433 224.290152 
L 213.377505 224.290152 
L 213.445674 222.776899 
L 213.513577 222.776899 
L 213.553888 220.759227 
L 213.661436 220.759227 
L 213.661436 220.254809 
L 213.960126 220.254809 
L 214.031234 218.237138 
L 214.148374 218.237138 
L 214.148374 217.73272 
L 214.495142 217.73272 
L 214.495142 216.723884 
L 218.078123 216.723884 
L 218.17573 215.715048 
L 218.652336 215.715048 
L 218.666508 214.201794 
L 218.985443 214.201794 
L 218.997123 213.192959 
L 220.391128 213.192959 
L 220.399853 211.679705 
L 220.564787 211.679705 
L 220.670179 208.653198 
L 220.820573 208.653198 
L 220.820573 208.14878 
L 223.636948 208.14878 
L 223.636948 207.644362 
L 224.307008 207.644362 
L 224.312338 205.62669 
L 225.714279 205.62669 
L 225.714279 204.617855 
L 227.935777 204.617855 
L 227.935777 203.609019 
L 229.139496 203.609019 
L 229.139496 203.104601 
L 229.362481 203.104601 
L 229.362481 202.600183 
L 229.526805 202.600183 
L 229.526805 201.591347 
L 229.742522 201.591347 
L 229.818921 200.582511 
L 229.905402 200.582511 
L 229.974279 198.060422 
L 230.061174 198.060422 
L 230.12004 196.547168 
L 230.219951 196.547168 
L 230.219951 196.04275 
L 230.408535 196.04275 
L 230.408535 195.538333 
L 230.563908 195.538333 
L 230.563908 195.033915 
L 230.714217 195.033915 
L 230.714217 194.025079 
L 230.970752 194.025079 
L 230.993963 193.016243 
L 231.154477 193.016243 
L 231.247823 191.502989 
L 231.33245 191.502989 
L 231.33245 190.998572 
L 231.462164 190.998572 
L 231.544948 188.476482 
L 231.575519 188.476482 
L 231.592 186.963228 
L 231.762376 186.963228 
L 231.821111 185.954393 
L 231.903008 185.954393 
L 231.98769 184.441139 
L 232.131761 184.441139 
L 232.2419 182.423467 
L 232.305785 182.423467 
L 232.305785 181.414632 
L 232.4804 181.414632 
L 232.4804 180.910214 
L 232.591937 180.910214 
L 232.674108 177.883706 
L 232.753368 177.883706 
L 232.753368 177.379288 
L 233.051213 177.379288 
L 233.051213 176.874871 
L 233.209452 176.874871 
L 233.220278 175.361617 
L 233.339415 175.361617 
L 233.339415 174.857199 
L 233.502818 174.857199 
L 233.502818 173.848363 
L 233.952225 173.848363 
L 234.014853 172.33511 
L 234.274026 172.33511 
L 234.305951 171.326274 
L 234.39632 171.326274 
L 234.39632 170.821856 
L 234.66782 170.821856 
L 234.745072 168.804184 
L 234.820412 168.804184 
L 234.912402 167.290931 
L 234.937609 167.290931 
L 235.014344 160.22908 
L 235.21865 160.22908 
L 235.219747 158.715827 
L 235.527587 158.715827 
L 235.598985 156.698155 
L 235.722592 156.698155 
L 235.742825 155.184901 
L 236.143039 155.184901 
L 236.189989 153.671648 
L 236.275667 153.671648 
L 236.275667 152.662812 
L 236.390485 152.662812 
L 236.390485 152.158394 
L 236.588094 152.158394 
L 236.689594 151.149558 
L 236.897413 151.149558 
L 237.006441 149.636305 
L 237.15174 149.636305 
L 237.15174 148.627469 
L 237.329492 148.627469 
L 237.329492 147.618633 
L 237.465581 147.618633 
L 237.465581 146.609797 
L 237.637506 146.609797 
L 237.637506 146.105379 
L 237.873429 146.105379 
L 237.873429 145.600961 
L 238.04886 145.600961 
L 238.04886 145.096544 
L 238.242473 145.096544 
L 238.338479 143.078872 
L 238.804312 143.078872 
L 238.905807 142.070036 
L 239.319857 142.070036 
L 239.426505 139.547947 
L 239.662022 139.547947 
L 239.70956 138.539111 
L 239.888024 138.539111 
L 239.888024 138.034693 
L 240.190979 138.034693 
L 240.190979 137.025857 
L 240.501728 137.025857 
L 240.526013 135.512604 
L 241.154598 135.512604 
L 241.174719 132.990514 
L 241.338561 132.990514 
L 241.338561 131.981678 
L 241.573096 131.981678 
L 241.678366 130.972843 
L 241.686542 130.972843 
L 241.794592 129.964007 
L 241.826006 129.964007 
L 241.902425 127.946335 
L 242.255565 127.946335 
L 242.339026 126.937499 
L 242.629252 126.937499 
L 242.629252 125.928664 
L 243.064196 125.928664 
L 243.064196 124.919828 
L 243.820388 124.919828 
L 243.832304 122.902156 
L 244.118262 122.902156 
L 244.118262 122.397738 
L 244.400124 122.397738 
L 244.400124 121.893321 
L 244.983524 121.893321 
L 244.983524 121.388903 
L 245.36193 121.388903 
L 245.36193 120.884485 
L 245.992739 120.884485 
L 246.003497 117.35356 
L 246.382379 117.35356 
L 246.464177 114.327052 
L 246.512223 114.327052 
L 246.588274 111.804963 
L 246.923878 111.804963 
L 247.025598 109.787291 
L 247.205336 109.787291 
L 247.205336 109.282873 
L 247.343012 109.282873 
L 247.380948 107.265202 
L 247.454942 107.265202 
L 247.454942 106.760784 
L 247.715386 106.760784 
L 247.715386 106.256366 
L 248.0594 106.256366 
L 248.159634 105.24753 
L 248.37284 105.24753 
L 248.37284 104.238694 
L 248.569603 104.238694 
L 248.569603 103.734277 
L 248.755695 103.734277 
L 248.755695 103.229859 
L 249.148689 103.229859 
L 249.148689 102.725441 
L 249.328441 102.725441 
L 249.328441 101.716605 
L 249.445928 101.716605 
L 249.446607 100.707769 
L 249.640127 100.707769 
L 249.741049 95.159172 
L 249.751347 95.159172 
L 249.795713 81.035471 
L 249.887324 81.035471 
L 249.963113 80.026636 
L 250.188243 80.026636 
L 250.188243 79.0178 
L 250.523043 79.0178 
L 250.523043 78.008964 
L 250.790211 78.008964 
L 250.790211 77.504546 
L 251.15875 77.504546 
L 251.19389 70.947114 
L 251.321811 70.947114 
L 251.382687 68.425024 
L 251.448196 68.425024 
L 251.491128 66.911771 
L 251.561044 66.911771 
L 251.641718 65.902935 
L 251.903194 65.902935 
L 251.903194 64.894099 
L 252.35073 64.894099 
L 252.35073 63.885263 
L 252.565396 63.885263 
L 252.565396 63.380845 
L 253.281949 63.380845 
L 253.281949 62.876427 
L 338.688 62.876427 
L 338.688 62.876427 
" style="fill:none;stroke:#ff00ff;stroke-linecap:square;stroke-width:1.5;"/>
   </g>
   <g id="line2d_36">
    <defs>
     <path d="M -0 8.485281 
L 5.091169 0 
L 0 -8.485281 
L -5.091169 -0 
z
" id="m1254b82dea" style="stroke:#ff00ff;stroke-linejoin:miter;stroke-width:1.5;"/>
    </defs>
    <g>
     <use style="fill-opacity:0;stroke:#ff00ff;stroke-linejoin:miter;stroke-width:1.5;" x="152.001148" xlink:href="#m1254b82dea" y="286.333553"/>
     <use style="fill-opacity:0;stroke:#ff00ff;stroke-linejoin:miter;stroke-width:1.5;" x="204.072697" xlink:href="#m1254b82dea" y="241.440361"/>
     <use style="fill-opacity:0;stroke:#ff00ff;stroke-linejoin:miter;stroke-width:1.5;" x="249.148689" xlink:href="#m1254b82dea" y="102.725441"/>
     <use style="fill-opacity:0;stroke:#ff00ff;stroke-linejoin:miter;stroke-width:1.5;" x="253.281949" xlink:href="#m1254b82dea" y="62.876427"/>
     <use style="fill-opacity:0;stroke:#ff00ff;stroke-linejoin:miter;stroke-width:1.5;" x="253.281949" xlink:href="#m1254b82dea" y="62.876427"/>
     <use style="fill-opacity:0;stroke:#ff00ff;stroke-linejoin:miter;stroke-width:1.5;" x="338.688" xlink:href="#m1254b82dea" y="62.876427"/>
    </g>
   </g>
   <g id="line2d_37">
    <path style="fill:none;stroke:#ff00ff;stroke-linecap:square;stroke-width:1.5;"/>
    <g/>
   </g>
   <g id="line2d_38">
    <path clip-path="url(#p13a2b330df)" d="M 258.377085 62.876427 
" style="fill:none;stroke:#ff00ff;stroke-linecap:square;stroke-width:1.5;"/>
    <defs>
     <path d="M -12 12 
L 12 -12 
M -12 -12 
L 12 12 
" id="mb10c54f0d5" style="stroke:#ff00ff;"/>
    </defs>
    <g clip-path="url(#p13a2b330df)">
     <use style="fill:#ff00ff;stroke:#ff00ff;" x="258.377085" xlink:href="#mb10c54f0d5" y="62.876427"/>
    </g>
   </g>
   <g id="line2d_39">
    <defs>
     <path d="M 0 1.5 
C 0.397805 1.5 0.77937 1.341951 1.06066 1.06066 
C 1.341951 0.77937 1.5 0.397805 1.5 0 
C 1.5 -0.397805 1.341951 -0.77937 1.06066 -1.06066 
C 0.77937 -1.341951 0.397805 -1.5 0 -1.5 
C -0.397805 -1.5 -0.77937 -1.341951 -1.06066 -1.06066 
C -1.341951 -0.77937 -1.5 -0.397805 -1.5 0 
C -1.5 0.397805 -1.341951 0.77937 -1.06066 1.06066 
C -0.77937 1.341951 -0.397805 1.5 0 1.5 
z
" id="m7a550b6973" style="stroke:#ff7500;"/>
    </defs>
    <g>
     <use style="fill:#ff7500;stroke:#ff7500;" x="258.216194" xlink:href="#m7a550b6973" y="130.972843"/>
     <use style="fill:#ff7500;stroke:#ff7500;" x="258.216194" xlink:href="#m7a550b6973" y="130.972843"/>
    </g>
   </g>
   <g id="line2d_40">
    <path d="M 38.440992 298.944 
L 38.440992 292.386567 
L 102.330873 292.386567 
L 102.330873 291.88215 
L 105.209745 291.88215 
L 105.209745 291.377732 
L 111.767808 291.377732 
L 111.767808 290.873314 
L 121.340187 290.873314 
L 121.340187 290.368896 
L 122.362027 290.368896 
L 122.362027 289.864478 
L 125.938745 289.864478 
L 125.938745 288.855642 
L 128.209594 288.855642 
L 128.209594 288.351224 
L 128.905271 288.351224 
L 128.905271 287.846806 
L 129.574256 287.846806 
L 129.574256 287.342389 
L 130.218525 287.342389 
L 130.218525 286.837971 
L 130.839837 286.837971 
L 130.839837 286.333553 
L 131.439773 286.333553 
L 131.439773 285.829135 
L 133.124876 285.829135 
L 133.124876 285.324717 
L 133.652238 285.324717 
L 133.652238 284.820299 
L 138.199116 284.820299 
L 138.199116 284.315881 
L 138.594838 284.315881 
L 138.594838 283.811463 
L 139.360321 283.811463 
L 139.360321 283.307045 
L 140.44901 283.307045 
L 140.44901 282.802628 
L 140.79731 282.802628 
L 140.79731 282.29821 
L 141.138789 282.29821 
L 141.138789 281.289374 
L 141.47371 281.289374 
L 141.47371 280.784956 
L 141.80232 280.784956 
L 141.80232 279.271702 
L 142.441528 279.271702 
L 142.441528 277.758449 
L 142.752555 277.758449 
L 142.752555 276.749613 
L 143.653678 276.749613 
L 143.653678 276.245195 
L 144.229555 276.245195 
L 144.229555 275.236359 
L 146.608752 275.236359 
L 146.608752 274.731941 
L 147.570215 274.731941 
L 147.570215 274.227523 
L 147.802521 274.227523 
L 147.802521 273.218688 
L 150.172372 273.218688 
L 150.172372 271.705434 
L 150.31567 271.705434 
L 150.31567 270.696598 
L 151.528368 270.696598 
L 151.528368 270.19218 
L 153.250915 270.19218 
L 153.250915 269.687762 
L 154.281186 269.687762 
L 154.281186 269.183344 
L 154.840544 269.183344 
L 154.840544 268.678927 
L 156.093569 268.678927 
L 156.093569 268.174509 
L 157.528821 268.174509 
L 157.528821 267.670091 
L 157.828215 267.670091 
L 157.828215 266.661255 
L 159.93989 266.661255 
L 159.93989 265.652419 
L 160.94582 265.652419 
L 160.94582 265.148001 
L 161.555647 265.148001 
L 161.555647 264.139166 
L 161.675095 264.139166 
L 161.675095 263.634748 
L 162.658665 263.634748 
L 162.658665 263.13033 
L 162.868358 263.13033 
L 162.896128 262.121494 
L 164.47356 262.121494 
L 164.47356 261.617076 
L 164.985598 261.617076 
L 164.985598 261.112658 
L 166.117256 261.112658 
L 166.117256 260.103822 
L 166.639906 260.103822 
L 166.639906 259.599405 
L 167.384913 259.599405 
L 167.384913 259.094987 
L 168.099393 259.094987 
L 168.099393 258.590569 
L 169.86976 258.590569 
L 169.86976 257.581733 
L 170.837602 257.581733 
L 170.837602 256.572897 
L 171.434392 256.572897 
L 171.434392 255.564061 
L 172.019658 255.564061 
L 172.019658 255.059644 
L 172.585918 255.059644 
L 172.585918 254.050808 
L 177.541091 254.050808 
L 177.541091 253.54639 
L 180.068589 253.54639 
L 180.068589 252.033136 
L 180.579292 252.033136 
L 180.579292 251.528718 
L 180.779458 251.528718 
L 180.779458 251.0243 
L 183.700032 251.0243 
L 183.700032 250.519883 
L 187.745678 250.519883 
L 187.745678 250.015465 
L 188.381333 250.015465 
L 188.381333 249.511047 
L 190.661291 249.511047 
L 190.661291 249.006629 
L 193.540899 249.006629 
L 193.540899 248.502211 
L 195.053128 248.502211 
L 195.053128 247.997793 
L 197.178727 247.997793 
L 197.178727 247.493375 
L 197.871972 247.493375 
L 197.871972 246.484539 
L 198.484712 246.484539 
L 198.536912 244.971286 
L 199.349821 244.971286 
L 199.349821 243.458032 
L 199.544294 243.458032 
L 199.544294 242.449196 
L 199.66938 242.449196 
L 199.66938 241.440361 
L 199.793576 241.440361 
L 199.793576 240.431525 
L 200.021196 240.431525 
L 200.021196 239.927107 
L 201.913653 239.927107 
L 201.913653 238.918271 
L 202.119758 238.918271 
L 202.119758 237.909435 
L 202.237902 237.909435 
L 202.335025 235.387346 
L 202.434485 235.387346 
L 202.434485 234.37851 
L 205.242879 234.37851 
L 205.242879 233.874092 
L 207.015567 233.874092 
L 207.015567 233.369674 
L 210.678736 233.369674 
L 210.678736 232.865256 
L 210.833928 232.865256 
L 210.833928 232.360839 
L 211.016771 232.360839 
L 211.076419 230.847585 
L 211.128008 230.847585 
L 211.128008 230.343167 
L 211.248082 230.343167 
L 211.306946 229.334331 
L 211.363028 229.334331 
L 211.363028 228.325495 
L 211.479788 228.325495 
L 211.537023 225.803406 
L 211.617857 225.803406 
L 211.656864 223.785734 
L 211.783456 223.785734 
L 211.783456 223.281316 
L 213.739032 223.281316 
L 213.739032 222.776899 
L 214.721839 222.776899 
L 214.821733 221.768063 
L 214.930889 221.768063 
L 214.930889 221.263645 
L 215.482304 221.263645 
L 215.482304 220.759227 
L 215.885049 220.759227 
L 215.885049 219.750391 
L 216.316999 219.750391 
L 216.332554 217.228302 
L 217.590761 217.228302 
L 217.590761 216.219466 
L 219.216481 216.219466 
L 219.29537 213.697377 
L 219.332499 213.697377 
L 219.433657 210.670869 
L 219.475362 210.670869 
L 219.511571 208.14878 
L 219.871168 208.14878 
L 219.871168 207.644362 
L 220.607426 207.644362 
L 220.607426 207.139944 
L 222.813696 207.139944 
L 222.813696 206.131108 
L 223.093772 206.131108 
L 223.093772 205.62669 
L 223.348206 205.62669 
L 223.348206 205.122272 
L 225.842424 205.122272 
L 225.842424 203.609019 
L 227.166034 203.609019 
L 227.274295 201.086929 
L 227.297455 201.086929 
L 227.401472 199.573676 
L 227.491554 199.573676 
L 227.593064 193.520661 
L 227.616484 193.520661 
L 227.714574 183.936721 
L 227.90511 183.936721 
L 227.90511 183.432303 
L 228.041363 183.432303 
L 228.041363 182.423467 
L 228.203146 182.423467 
L 228.255869 181.414632 
L 228.354665 181.414632 
L 228.455166 179.901378 
L 228.530969 179.901378 
L 228.541587 178.892542 
L 228.852428 178.892542 
L 228.852428 178.388124 
L 229.607482 178.388124 
L 229.607482 177.379288 
L 231.374884 177.379288 
L 231.374884 176.874871 
L 231.997192 176.874871 
L 231.997192 176.370453 
L 233.608985 176.370453 
L 233.608985 175.866035 
L 234.592043 175.866035 
L 234.669404 174.352781 
L 235.418205 174.352781 
L 235.418205 173.343945 
L 236.105764 173.343945 
L 236.105764 172.839527 
L 236.480288 172.839527 
L 236.480288 172.33511 
L 236.701283 172.33511 
L 236.765032 170.317438 
L 236.824548 170.317438 
L 236.824548 169.81302 
L 237.700401 169.81302 
L 237.700401 169.308602 
L 238.261827 169.308602 
L 238.339213 167.290931 
L 238.473135 167.290931 
L 238.56734 165.777677 
L 238.670939 165.777677 
L 238.670939 165.273259 
L 238.832505 165.273259 
L 238.852996 163.760005 
L 239.201385 163.760005 
L 239.201385 163.255588 
L 239.321417 163.255588 
L 239.321417 162.75117 
L 239.519997 162.75117 
L 239.519997 161.742334 
L 239.693106 161.742334 
L 239.693106 161.237916 
L 240.098041 161.237916 
L 240.098041 160.733498 
L 240.745633 160.733498 
L 240.745633 160.22908 
L 241.166143 160.22908 
L 241.166143 159.220244 
L 243.639975 159.220244 
L 243.639975 158.211409 
L 251.401689 158.211409 
L 251.401689 157.706991 
L 252.818837 157.706991 
L 252.818837 157.202573 
L 253.094557 157.202573 
L 253.146499 155.184901 
L 253.297591 155.184901 
L 253.345442 152.662812 
L 253.443528 152.662812 
L 253.443528 151.149558 
L 254.003192 151.149558 
L 254.003715 149.131887 
L 254.278231 149.131887 
L 254.278231 148.627469 
L 254.75048 148.627469 
L 254.75048 148.123051 
L 256.358131 148.123051 
L 256.358131 147.618633 
L 256.589395 147.618633 
L 256.653939 146.105379 
L 256.716647 146.105379 
L 256.784226 145.096544 
L 257.049947 145.096544 
L 257.049947 144.592126 
L 257.223153 144.592126 
L 257.268743 142.574454 
L 257.369053 142.574454 
L 257.448631 140.052365 
L 257.49975 140.052365 
L 257.49975 139.547947 
L 257.683696 139.547947 
L 257.683696 138.539111 
L 257.820408 138.539111 
L 257.849132 137.025857 
L 257.985391 137.025857 
L 258.036148 131.981678 
L 258.136927 131.981678 
L 258.216194 130.972843 
L 338.688 130.972843 
L 338.688 130.972843 
" style="fill:none;stroke:#ff7500;stroke-linecap:square;stroke-width:1.5;"/>
   </g>
   <g id="line2d_41">
    <defs>
     <path d="M 0 -6 
L -1.347084 -1.854102 
L -5.706339 -1.854102 
L -2.179628 0.708204 
L -3.526712 4.854102 
L -0 2.291796 
L 3.526712 4.854102 
L 2.179628 0.708204 
L 5.706339 -1.854102 
L 1.347084 -1.854102 
z
" id="m0c2947feb8" style="stroke:#ff7500;stroke-linejoin:bevel;stroke-width:1.5;"/>
    </defs>
    <g>
     <use style="fill-opacity:0;stroke:#ff7500;stroke-linejoin:bevel;stroke-width:1.5;" x="105.209745" xlink:href="#m0c2947feb8" y="291.377732"/>
     <use style="fill-opacity:0;stroke:#ff7500;stroke-linejoin:bevel;stroke-width:1.5;" x="188.381333" xlink:href="#m0c2947feb8" y="250.015465"/>
     <use style="fill-opacity:0;stroke:#ff7500;stroke-linejoin:bevel;stroke-width:1.5;" x="227.593064" xlink:href="#m0c2947feb8" y="194.529497"/>
     <use style="fill-opacity:0;stroke:#ff7500;stroke-linejoin:bevel;stroke-width:1.5;" x="258.216194" xlink:href="#m0c2947feb8" y="131.47726"/>
     <use style="fill-opacity:0;stroke:#ff7500;stroke-linejoin:bevel;stroke-width:1.5;" x="258.216194" xlink:href="#m0c2947feb8" y="130.972843"/>
     <use style="fill-opacity:0;stroke:#ff7500;stroke-linejoin:bevel;stroke-width:1.5;" x="338.688" xlink:href="#m0c2947feb8" y="130.972843"/>
    </g>
   </g>
   <g id="line2d_42">
    <path style="fill:none;stroke:#ff7500;stroke-linecap:square;stroke-width:1.5;"/>
    <g/>
   </g>
   <g id="line2d_43">
    <path clip-path="url(#p13a2b330df)" d="M 258.377143 130.972843 
" style="fill:none;stroke:#ff7500;stroke-linecap:square;stroke-width:1.5;"/>
    <defs>
     <path d="M -12 12 
L 12 -12 
M -12 -12 
L 12 12 
" id="m27348c2bb1" style="stroke:#ff7500;"/>
    </defs>
    <g clip-path="url(#p13a2b330df)">
     <use style="fill:#ff7500;stroke:#ff7500;" x="258.377143" xlink:href="#m27348c2bb1" y="130.972843"/>
    </g>
   </g>
   <g id="line2d_44">
    <defs>
     <path d="M 0 1.5 
C 0.397805 1.5 0.77937 1.341951 1.06066 1.06066 
C 1.341951 0.77937 1.5 0.397805 1.5 0 
C 1.5 -0.397805 1.341951 -0.77937 1.06066 -1.06066 
C 0.77937 -1.341951 0.397805 -1.5 0 -1.5 
C -0.397805 -1.5 -0.77937 -1.341951 -1.06066 -1.06066 
C -1.341951 -0.77937 -1.5 -0.397805 -1.5 0 
C -1.5 0.397805 -1.341951 0.77937 -1.06066 1.06066 
C -0.77937 1.341951 -0.397805 1.5 0 1.5 
z
" id="m31edf8127d" style="stroke:#6495ed;"/>
    </defs>
    <g>
     <use style="fill:#6495ed;stroke:#6495ed;" x="257.282551" xlink:href="#m31edf8127d" y="204.617855"/>
     <use style="fill:#6495ed;stroke:#6495ed;" x="257.282551" xlink:href="#m31edf8127d" y="204.617855"/>
    </g>
   </g>
   <g id="line2d_45">
    <path d="M 38.440992 298.944 
L 38.440992 297.935164 
L 93.121756 297.935164 
L 93.121756 297.430746 
L 93.863965 297.430746 
L 93.863965 296.926328 
L 94.575872 296.926328 
L 94.575872 296.421911 
L 102.330873 296.421911 
L 102.330873 295.413075 
L 105.209745 295.413075 
L 105.209745 294.908657 
L 107.680028 294.908657 
L 107.680028 293.899821 
L 109.843417 293.899821 
L 109.843417 292.890985 
L 111.767808 292.890985 
L 111.767808 291.88215 
L 113.500792 291.88215 
L 113.500792 291.377732 
L 115.077025 291.377732 
L 115.077025 289.864478 
L 116.522527 289.864478 
L 116.522527 289.36006 
L 119.097192 289.36006 
L 119.097192 288.351224 
L 120.254726 288.351224 
L 120.254726 287.342389 
L 121.340187 287.342389 
L 121.340187 286.333553 
L 124.241922 286.333553 
L 124.241922 285.324717 
L 125.938745 285.324717 
L 125.938745 282.802628 
L 126.729009 282.802628 
L 126.729009 282.29821 
L 128.209594 282.29821 
L 128.209594 281.793792 
L 128.905271 281.793792 
L 128.905271 281.289374 
L 133.124876 281.289374 
L 133.124876 279.77612 
L 134.661403 279.77612 
L 134.661403 279.271702 
L 135.144899 279.271702 
L 135.144899 278.767284 
L 136.519813 278.767284 
L 136.519813 278.262867 
L 137.794206 278.262867 
L 137.794206 277.758449 
L 138.981779 277.758449 
L 138.981779 277.254031 
L 140.44901 277.254031 
L 140.44901 276.749613 
L 142.441528 276.749613 
L 142.441528 276.245195 
L 143.058132 276.245195 
L 143.058132 275.236359 
L 144.229555 275.236359 
L 144.229555 274.731941 
L 145.851187 274.731941 
L 145.851187 274.227523 
L 147.570215 274.227523 
L 147.570215 273.723105 
L 157.434196 273.723105 
L 157.434196 273.218688 
L 157.566527 273.218688 
L 157.566527 272.71427 
L 157.957601 272.71427 
L 157.957601 272.209852 
L 158.213527 272.209852 
L 158.213527 271.705434 
L 158.340096 271.705434 
L 158.340096 271.201016 
L 158.714382 271.201016 
L 158.714382 270.696598 
L 159.439685 270.696598 
L 159.439685 270.19218 
L 160.474035 270.19218 
L 160.474035 269.183344 
L 160.80562 269.183344 
L 160.80562 268.678927 
L 161.764147 268.678927 
L 161.764147 268.174509 
L 164.037234 268.174509 
L 164.037234 267.670091 
L 164.9363 267.670091 
L 164.9363 267.165673 
L 166.02474 267.165673 
L 166.02474 266.661255 
L 176.637426 266.661255 
L 176.637426 266.156837 
L 176.813202 266.156837 
L 176.90043 264.139166 
L 176.94388 264.139166 
L 177.030459 260.60824 
L 178.331659 260.60824 
L 178.331659 259.599405 
L 178.822779 259.599405 
L 178.822779 258.590569 
L 179.429948 258.590569 
L 179.429948 257.581733 
L 180.104829 257.581733 
L 180.104829 257.077315 
L 183.700032 257.077315 
L 183.700032 256.572897 
L 183.850877 256.572897 
L 183.850877 256.068479 
L 185.395043 256.068479 
L 185.395043 255.564061 
L 187.320061 255.564061 
L 187.320061 255.059644 
L 187.895201 255.059644 
L 187.895201 254.050808 
L 188.333003 254.050808 
L 188.333003 253.54639 
L 188.854281 253.54639 
L 188.854281 253.041972 
L 189.000844 253.041972 
L 189.000844 252.537554 
L 194.669247 252.537554 
L 194.669247 252.033136 
L 211.894102 252.033136 
L 212.004881 250.519883 
L 216.6223 250.519883 
L 216.6223 249.511047 
L 216.871545 249.511047 
L 216.871545 247.997793 
L 217.246237 247.997793 
L 217.246237 247.493375 
L 219.907092 247.493375 
L 219.907092 246.988957 
L 220.902017 246.988957 
L 221.007874 244.971286 
L 221.029662 244.971286 
L 221.029662 243.96245 
L 222.740276 243.96245 
L 222.82486 240.935943 
L 233.30371 240.935943 
L 233.30371 240.431525 
L 233.601526 240.431525 
L 233.601526 239.422689 
L 234.769621 239.422689 
L 234.769621 238.918271 
L 235.205923 238.918271 
L 235.245609 236.396182 
L 236.026575 236.396182 
L 236.05566 230.847585 
L 236.48702 230.847585 
L 236.589919 226.812242 
L 238.944823 226.812242 
L 238.944823 226.307824 
L 240.95905 226.307824 
L 240.95905 225.298988 
L 242.897648 225.298988 
L 242.897648 224.290152 
L 243.765116 224.290152 
L 243.796261 221.768063 
L 247.630438 221.768063 
L 247.642492 220.254809 
L 248.621144 220.254809 
L 248.627144 218.741555 
L 252.320892 218.741555 
L 252.429067 216.723884 
L 252.498912 216.723884 
L 252.498912 216.219466 
L 252.999547 216.219466 
L 253.036145 213.192959 
L 253.532089 213.192959 
L 253.589096 206.131108 
L 257.102809 206.131108 
L 257.127369 205.122272 
L 257.282551 205.122272 
L 257.282551 204.617855 
L 338.688 204.617855 
L 338.688 204.617855 
" style="fill:none;stroke:#6495ed;stroke-linecap:square;stroke-width:1.5;"/>
   </g>
   <g id="line2d_46">
    <defs>
     <path d="M -0 6 
L 6 -6 
L -6 -6 
z
" id="m4e78892e55" style="stroke:#6495ed;stroke-linejoin:miter;stroke-width:1.5;"/>
    </defs>
    <g>
     <use style="fill-opacity:0;stroke:#6495ed;stroke-linejoin:miter;stroke-width:1.5;" x="105.209745" xlink:href="#m4e78892e55" y="294.908657"/>
     <use style="fill-opacity:0;stroke:#6495ed;stroke-linejoin:miter;stroke-width:1.5;" x="147.570215" xlink:href="#m4e78892e55" y="273.723105"/>
     <use style="fill-opacity:0;stroke:#6495ed;stroke-linejoin:miter;stroke-width:1.5;" x="222.82486" xlink:href="#m4e78892e55" y="240.935943"/>
     <use style="fill-opacity:0;stroke:#6495ed;stroke-linejoin:miter;stroke-width:1.5;" x="257.282551" xlink:href="#m4e78892e55" y="204.617855"/>
     <use style="fill-opacity:0;stroke:#6495ed;stroke-linejoin:miter;stroke-width:1.5;" x="257.282551" xlink:href="#m4e78892e55" y="204.617855"/>
     <use style="fill-opacity:0;stroke:#6495ed;stroke-linejoin:miter;stroke-width:1.5;" x="338.688" xlink:href="#m4e78892e55" y="204.617855"/>
    </g>
   </g>
   <g id="line2d_47">
    <path style="fill:none;stroke:#6495ed;stroke-linecap:square;stroke-width:1.5;"/>
    <g/>
   </g>
   <g id="line2d_48">
    <path clip-path="url(#p13a2b330df)" d="M 258.377143 204.617855 
" style="fill:none;stroke:#6495ed;stroke-linecap:square;stroke-width:1.5;"/>
    <defs>
     <path d="M -12 12 
L 12 -12 
M -12 -12 
L 12 12 
" id="m7e69b91417" style="stroke:#6495ed;"/>
    </defs>
    <g clip-path="url(#p13a2b330df)">
     <use style="fill:#6495ed;stroke:#6495ed;" x="258.377143" xlink:href="#m7e69b91417" y="204.617855"/>
    </g>
   </g>
   <g id="line2d_49">
    <path d="M 338.688 204.617855 
L 369.60768 293.092752 
" style="fill:none;stroke:#6495ed;stroke-linecap:square;stroke-width:1.5;"/>
    <g>
     <use style="fill-opacity:0;stroke:#6495ed;stroke-linejoin:miter;stroke-width:1.5;" x="338.688" xlink:href="#m4e78892e55" y="204.617855"/>
     <use style="fill-opacity:0;stroke:#6495ed;stroke-linejoin:miter;stroke-width:1.5;" x="369.60768" xlink:href="#m4e78892e55" y="293.092752"/>
    </g>
   </g>
   <g id="line2d_50">
    <path d="M 338.688 130.972843 
L 369.60768 199.472792 
" style="fill:none;stroke:#ff7500;stroke-linecap:square;stroke-width:1.5;"/>
    <g>
     <use style="fill-opacity:0;stroke:#ff7500;stroke-linejoin:bevel;stroke-width:1.5;" x="338.688" xlink:href="#m0c2947feb8" y="130.972843"/>
     <use style="fill-opacity:0;stroke:#ff7500;stroke-linejoin:bevel;stroke-width:1.5;" x="369.60768" xlink:href="#m0c2947feb8" y="199.472792"/>
    </g>
   </g>
   <g id="line2d_51">
    <path d="M 338.688 62.876427 
L 369.60768 105.852832 
" style="fill:none;stroke:#ff00ff;stroke-linecap:square;stroke-width:1.5;"/>
    <g>
     <use style="fill-opacity:0;stroke:#ff00ff;stroke-linejoin:miter;stroke-width:1.5;" x="338.688" xlink:href="#m1254b82dea" y="62.876427"/>
     <use style="fill-opacity:0;stroke:#ff00ff;stroke-linejoin:miter;stroke-width:1.5;" x="369.60768" xlink:href="#m1254b82dea" y="105.852832"/>
    </g>
   </g>
   <g id="line2d_52">
    <path d="M 338.688 50.770398 
L 369.60768 12.232871 
" style="fill:none;stroke:#000080;stroke-linecap:square;stroke-width:1.5;"/>
    <g>
     <use style="fill-opacity:0;stroke:#000080;stroke-width:1.5;" x="338.688" xlink:href="#md8f8a8bb4e" y="50.770398"/>
     <use style="fill-opacity:0;stroke:#000080;stroke-width:1.5;" x="369.60768" xlink:href="#md8f8a8bb4e" y="12.232871"/>
    </g>
   </g>
   <g id="line2d_53">
    <path d="M 338.688 298.944 
L 338.688 6.381624 
" style="fill:none;stroke:#000000;stroke-linecap:square;stroke-width:1.5;"/>
   </g>
   <g id="patch_3">
    <path d="M 57.6 298.944 
L 57.6 3.456 
" style="fill:none;stroke:#000000;stroke-linecap:square;stroke-linejoin:miter;stroke-width:0.8;"/>
   </g>
   <g id="patch_4">
    <path d="M 338.688 298.944 
L 338.688 3.456 
" style="fill:none;stroke:#000000;stroke-linecap:square;stroke-linejoin:miter;stroke-width:0.8;"/>
   </g>
   <g id="patch_5">
    <path d="M 57.6 298.944 
L 338.688 298.944 
" style="fill:none;stroke:#000000;stroke-linecap:square;stroke-linejoin:miter;stroke-width:0.8;"/>
   </g>
   <g id="patch_6">
    <path d="M 57.6 3.456 
L 338.688 3.456 
" style="fill:none;stroke:#000000;stroke-linecap:square;stroke-linejoin:miter;stroke-width:0.8;"/>
   </g>
   <g id="text_13">
    <!-- f19 -->
    <g transform="translate(375.22944 297.78369)scale(0.17 -0.17)">
     <defs>
      <path d="M 10.984375 1.515625 
L 10.984375 10.5 
Q 14.703125 8.734375 18.5 7.8125 
Q 22.3125 6.890625 25.984375 6.890625 
Q 35.75 6.890625 40.890625 13.453125 
Q 46.046875 20.015625 46.78125 33.40625 
Q 43.953125 29.203125 39.59375 26.953125 
Q 35.25 24.703125 29.984375 24.703125 
Q 19.046875 24.703125 12.671875 31.3125 
Q 6.296875 37.9375 6.296875 49.421875 
Q 6.296875 60.640625 12.9375 67.421875 
Q 19.578125 74.21875 30.609375 74.21875 
Q 43.265625 74.21875 49.921875 64.515625 
Q 56.59375 54.828125 56.59375 36.375 
Q 56.59375 19.140625 48.40625 8.859375 
Q 40.234375 -1.421875 26.421875 -1.421875 
Q 22.703125 -1.421875 18.890625 -0.6875 
Q 15.09375 0.046875 10.984375 1.515625 
z
M 30.609375 32.421875 
Q 37.25 32.421875 41.125 36.953125 
Q 45.015625 41.5 45.015625 49.421875 
Q 45.015625 57.28125 41.125 61.84375 
Q 37.25 66.40625 30.609375 66.40625 
Q 23.96875 66.40625 20.09375 61.84375 
Q 16.21875 57.28125 16.21875 49.421875 
Q 16.21875 41.5 20.09375 36.953125 
Q 23.96875 32.421875 30.609375 32.421875 
z
" id="DejaVuSans-57"/>
     </defs>
     <use xlink:href="#DejaVuSans-102"/>
     <use x="35.205078" xlink:href="#DejaVuSans-49"/>
     <use x="98.828125" xlink:href="#DejaVuSans-57"/>
    </g>
   </g>
   <g id="text_14">
    <!-- f18 -->
    <g transform="translate(375.22944 204.16373)scale(0.17 -0.17)">
     <use xlink:href="#DejaVuSans-102"/>
     <use x="35.205078" xlink:href="#DejaVuSans-49"/>
     <use x="98.828125" xlink:href="#DejaVuSans-56"/>
    </g>
   </g>
   <g id="text_15">
    <!-- f10 -->
    <g transform="translate(375.22944 110.543769)scale(0.17 -0.17)">
     <use xlink:href="#DejaVuSans-102"/>
     <use x="35.205078" xlink:href="#DejaVuSans-49"/>
     <use x="98.828125" xlink:href="#DejaVuSans-48"/>
    </g>
   </g>
   <g id="text_16">
    <!-- f9 -->
    <g transform="translate(375.22944 16.923809)scale(0.17 -0.17)">
     <use xlink:href="#DejaVuSans-102"/>
     <use x="35.205078" xlink:href="#DejaVuSans-57"/>
    </g>
   </g>
   <g id="text_17">
    <!-- bbob-biobj -->
    <g transform="translate(60.41088 14.161286)scale(0.102 -0.102)">
     <defs>
      <path d="M 48.6875 27.296875 
Q 48.6875 37.203125 44.609375 42.84375 
Q 40.53125 48.484375 33.40625 48.484375 
Q 26.265625 48.484375 22.1875 42.84375 
Q 18.109375 37.203125 18.109375 27.296875 
Q 18.109375 17.390625 22.1875 11.75 
Q 26.265625 6.109375 33.40625 6.109375 
Q 40.53125 6.109375 44.609375 11.75 
Q 48.6875 17.390625 48.6875 27.296875 
z
M 18.109375 46.390625 
Q 20.953125 51.265625 25.265625 53.625 
Q 29.59375 56 35.59375 56 
Q 45.5625 56 51.78125 48.09375 
Q 58.015625 40.1875 58.015625 27.296875 
Q 58.015625 14.40625 51.78125 6.484375 
Q 45.5625 -1.421875 35.59375 -1.421875 
Q 29.59375 -1.421875 25.265625 0.953125 
Q 20.953125 3.328125 18.109375 8.203125 
L 18.109375 0 
L 9.078125 0 
L 9.078125 75.984375 
L 18.109375 75.984375 
z
" id="DejaVuSans-98"/>
      <path d="M 9.421875 54.6875 
L 18.40625 54.6875 
L 18.40625 -0.984375 
Q 18.40625 -11.421875 14.421875 -16.109375 
Q 10.453125 -20.796875 1.609375 -20.796875 
L -1.8125 -20.796875 
L -1.8125 -13.1875 
L 0.59375 -13.1875 
Q 5.71875 -13.1875 7.5625 -10.8125 
Q 9.421875 -8.453125 9.421875 -0.984375 
z
M 9.421875 75.984375 
L 18.40625 75.984375 
L 18.40625 64.59375 
L 9.421875 64.59375 
z
" id="DejaVuSans-106"/>
     </defs>
     <use xlink:href="#DejaVuSans-98"/>
     <use x="63.476562" xlink:href="#DejaVuSans-98"/>
     <use x="126.953125" xlink:href="#DejaVuSans-111"/>
     <use x="188.134766" xlink:href="#DejaVuSans-98"/>
     <use x="251.611328" xlink:href="#DejaVuSans-45"/>
     <use x="287.695312" xlink:href="#DejaVuSans-98"/>
     <use x="351.171875" xlink:href="#DejaVuSans-105"/>
     <use x="378.955078" xlink:href="#DejaVuSans-111"/>
     <use x="440.136719" xlink:href="#DejaVuSans-98"/>
     <use x="503.613281" xlink:href="#DejaVuSans-106"/>
    </g>
    <!-- 1-separable 5-weakly-structured, 3-D -->
    <g transform="translate(60.41088 25.583055)scale(0.102 -0.102)">
     <defs>
      <path d="M 10.796875 72.90625 
L 49.515625 72.90625 
L 49.515625 64.59375 
L 19.828125 64.59375 
L 19.828125 46.734375 
Q 21.96875 47.46875 24.109375 47.828125 
Q 26.265625 48.1875 28.421875 48.1875 
Q 40.625 48.1875 47.75 41.5 
Q 54.890625 34.8125 54.890625 23.390625 
Q 54.890625 11.625 47.5625 5.09375 
Q 40.234375 -1.421875 26.90625 -1.421875 
Q 22.3125 -1.421875 17.546875 -0.640625 
Q 12.796875 0.140625 7.71875 1.703125 
L 7.71875 11.625 
Q 12.109375 9.234375 16.796875 8.0625 
Q 21.484375 6.890625 26.703125 6.890625 
Q 35.15625 6.890625 40.078125 11.328125 
Q 45.015625 15.765625 45.015625 23.390625 
Q 45.015625 31 40.078125 35.4375 
Q 35.15625 39.890625 26.703125 39.890625 
Q 22.75 39.890625 18.8125 39.015625 
Q 14.890625 38.140625 10.796875 36.28125 
z
" id="DejaVuSans-53"/>
      <path d="M 4.203125 54.6875 
L 13.1875 54.6875 
L 24.421875 12.015625 
L 35.59375 54.6875 
L 46.1875 54.6875 
L 57.421875 12.015625 
L 68.609375 54.6875 
L 77.59375 54.6875 
L 63.28125 0 
L 52.6875 0 
L 40.921875 44.828125 
L 29.109375 0 
L 18.5 0 
z
" id="DejaVuSans-119"/>
      <path d="M 9.078125 75.984375 
L 18.109375 75.984375 
L 18.109375 31.109375 
L 44.921875 54.6875 
L 56.390625 54.6875 
L 27.390625 29.109375 
L 57.625 0 
L 45.90625 0 
L 18.109375 26.703125 
L 18.109375 0 
L 9.078125 0 
z
" id="DejaVuSans-107"/>
      <path d="M 32.171875 -5.078125 
Q 28.375 -14.84375 24.75 -17.8125 
Q 21.140625 -20.796875 15.09375 -20.796875 
L 7.90625 -20.796875 
L 7.90625 -13.28125 
L 13.1875 -13.28125 
Q 16.890625 -13.28125 18.9375 -11.515625 
Q 21 -9.765625 23.484375 -3.21875 
L 25.09375 0.875 
L 2.984375 54.6875 
L 12.5 54.6875 
L 29.59375 11.921875 
L 46.6875 54.6875 
L 56.203125 54.6875 
z
" id="DejaVuSans-121"/>
      <path d="M 40.578125 39.3125 
Q 47.65625 37.796875 51.625 33 
Q 55.609375 28.21875 55.609375 21.1875 
Q 55.609375 10.40625 48.1875 4.484375 
Q 40.765625 -1.421875 27.09375 -1.421875 
Q 22.515625 -1.421875 17.65625 -0.515625 
Q 12.796875 0.390625 7.625 2.203125 
L 7.625 11.71875 
Q 11.71875 9.328125 16.59375 8.109375 
Q 21.484375 6.890625 26.8125 6.890625 
Q 36.078125 6.890625 40.9375 10.546875 
Q 45.796875 14.203125 45.796875 21.1875 
Q 45.796875 27.640625 41.28125 31.265625 
Q 36.765625 34.90625 28.71875 34.90625 
L 20.21875 34.90625 
L 20.21875 43.015625 
L 29.109375 43.015625 
Q 36.375 43.015625 40.234375 45.921875 
Q 44.09375 48.828125 44.09375 54.296875 
Q 44.09375 59.90625 40.109375 62.90625 
Q 36.140625 65.921875 28.71875 65.921875 
Q 24.65625 65.921875 20.015625 65.03125 
Q 15.375 64.15625 9.8125 62.3125 
L 9.8125 71.09375 
Q 15.4375 72.65625 20.34375 73.4375 
Q 25.25 74.21875 29.59375 74.21875 
Q 40.828125 74.21875 47.359375 69.109375 
Q 53.90625 64.015625 53.90625 55.328125 
Q 53.90625 49.265625 50.4375 45.09375 
Q 46.96875 40.921875 40.578125 39.3125 
z
" id="DejaVuSans-51"/>
      <path d="M 19.671875 64.796875 
L 19.671875 8.109375 
L 31.59375 8.109375 
Q 46.6875 8.109375 53.6875 14.9375 
Q 60.6875 21.78125 60.6875 36.53125 
Q 60.6875 51.171875 53.6875 57.984375 
Q 46.6875 64.796875 31.59375 64.796875 
z
M 9.8125 72.90625 
L 30.078125 72.90625 
Q 51.265625 72.90625 61.171875 64.09375 
Q 71.09375 55.28125 71.09375 36.53125 
Q 71.09375 17.671875 61.125 8.828125 
Q 51.171875 0 30.078125 0 
L 9.8125 0 
z
" id="DejaVuSans-68"/>
     </defs>
     <use xlink:href="#DejaVuSans-49"/>
     <use x="63.623047" xlink:href="#DejaVuSans-45"/>
     <use x="99.707031" xlink:href="#DejaVuSans-115"/>
     <use x="151.806641" xlink:href="#DejaVuSans-101"/>
     <use x="213.330078" xlink:href="#DejaVuSans-112"/>
     <use x="276.806641" xlink:href="#DejaVuSans-97"/>
     <use x="338.085938" xlink:href="#DejaVuSans-114"/>
     <use x="379.199219" xlink:href="#DejaVuSans-97"/>
     <use x="440.478516" xlink:href="#DejaVuSans-98"/>
     <use x="503.955078" xlink:href="#DejaVuSans-108"/>
     <use x="531.738281" xlink:href="#DejaVuSans-101"/>
     <use x="593.261719" xlink:href="#DejaVuSans-32"/>
     <use x="625.048828" xlink:href="#DejaVuSans-53"/>
     <use x="688.671875" xlink:href="#DejaVuSans-45"/>
     <use x="724.755859" xlink:href="#DejaVuSans-119"/>
     <use x="806.542969" xlink:href="#DejaVuSans-101"/>
     <use x="868.066406" xlink:href="#DejaVuSans-97"/>
     <use x="929.345703" xlink:href="#DejaVuSans-107"/>
     <use x="987.255859" xlink:href="#DejaVuSans-108"/>
     <use x="1015.039062" xlink:href="#DejaVuSans-121"/>
     <use x="1072.46875" xlink:href="#DejaVuSans-45"/>
     <use x="1108.552734" xlink:href="#DejaVuSans-115"/>
     <use x="1160.652344" xlink:href="#DejaVuSans-116"/>
     <use x="1199.861328" xlink:href="#DejaVuSans-114"/>
     <use x="1240.974609" xlink:href="#DejaVuSans-117"/>
     <use x="1304.353516" xlink:href="#DejaVuSans-99"/>
     <use x="1359.333984" xlink:href="#DejaVuSans-116"/>
     <use x="1398.542969" xlink:href="#DejaVuSans-117"/>
     <use x="1461.921875" xlink:href="#DejaVuSans-114"/>
     <use x="1500.785156" xlink:href="#DejaVuSans-101"/>
     <use x="1562.308594" xlink:href="#DejaVuSans-100"/>
     <use x="1625.785156" xlink:href="#DejaVuSans-44"/>
     <use x="1657.572266" xlink:href="#DejaVuSans-32"/>
     <use x="1689.359375" xlink:href="#DejaVuSans-51"/>
     <use x="1752.982422" xlink:href="#DejaVuSans-45"/>
     <use x="1789.066406" xlink:href="#DejaVuSans-68"/>
    </g>
    <!-- 58 targets: 1..-1.0e-4 -->
    <g transform="translate(60.41088 37.004824)scale(0.102 -0.102)">
     <defs>
      <path d="M 11.71875 12.40625 
L 22.015625 12.40625 
L 22.015625 0 
L 11.71875 0 
z
M 11.71875 51.703125 
L 22.015625 51.703125 
L 22.015625 39.3125 
L 11.71875 39.3125 
z
" id="DejaVuSans-58"/>
     </defs>
     <use xlink:href="#DejaVuSans-53"/>
     <use x="63.623047" xlink:href="#DejaVuSans-56"/>
     <use x="127.246094" xlink:href="#DejaVuSans-32"/>
     <use x="159.033203" xlink:href="#DejaVuSans-116"/>
     <use x="198.242188" xlink:href="#DejaVuSans-97"/>
     <use x="259.521484" xlink:href="#DejaVuSans-114"/>
     <use x="298.884766" xlink:href="#DejaVuSans-103"/>
     <use x="362.361328" xlink:href="#DejaVuSans-101"/>
     <use x="423.884766" xlink:href="#DejaVuSans-116"/>
     <use x="463.09375" xlink:href="#DejaVuSans-115"/>
     <use x="515.193359" xlink:href="#DejaVuSans-58"/>
     <use x="548.884766" xlink:href="#DejaVuSans-32"/>
     <use x="580.671875" xlink:href="#DejaVuSans-49"/>
     <use x="644.294922" xlink:href="#DejaVuSans-46"/>
     <use x="676.082031" xlink:href="#DejaVuSans-46"/>
     <use x="707.869141" xlink:href="#DejaVuSans-45"/>
     <use x="743.953125" xlink:href="#DejaVuSans-49"/>
     <use x="807.576172" xlink:href="#DejaVuSans-46"/>
     <use x="839.363281" xlink:href="#DejaVuSans-48"/>
     <use x="902.986328" xlink:href="#DejaVuSans-101"/>
     <use x="964.509766" xlink:href="#DejaVuSans-45"/>
     <use x="1000.59375" xlink:href="#DejaVuSans-52"/>
    </g>
    <!-- 10 instances -->
    <g transform="translate(60.41088 48.426593)scale(0.102 -0.102)">
     <use xlink:href="#DejaVuSans-49"/>
     <use x="63.623047" xlink:href="#DejaVuSans-48"/>
     <use x="127.246094" xlink:href="#DejaVuSans-32"/>
     <use x="159.033203" xlink:href="#DejaVuSans-105"/>
     <use x="186.816406" xlink:href="#DejaVuSans-110"/>
     <use x="250.195312" xlink:href="#DejaVuSans-115"/>
     <use x="302.294922" xlink:href="#DejaVuSans-116"/>
     <use x="341.503906" xlink:href="#DejaVuSans-97"/>
     <use x="402.783203" xlink:href="#DejaVuSans-110"/>
     <use x="466.162109" xlink:href="#DejaVuSans-99"/>
     <use x="521.142578" xlink:href="#DejaVuSans-101"/>
     <use x="582.666016" xlink:href="#DejaVuSans-115"/>
    </g>
   </g>
   <g id="text_18">
    <!-- v2.4, hv-hash=ff0e71e8cd978373 -->
    <g style="fill:#808080;" transform="translate(112.648687 293.909432)scale(0.1 -0.1)">
     <defs>
      <path d="M 54.890625 33.015625 
L 54.890625 0 
L 45.90625 0 
L 45.90625 32.71875 
Q 45.90625 40.484375 42.875 44.328125 
Q 39.84375 48.1875 33.796875 48.1875 
Q 26.515625 48.1875 22.3125 43.546875 
Q 18.109375 38.921875 18.109375 30.90625 
L 18.109375 0 
L 9.078125 0 
L 9.078125 75.984375 
L 18.109375 75.984375 
L 18.109375 46.1875 
Q 21.34375 51.125 25.703125 53.5625 
Q 30.078125 56 35.796875 56 
Q 45.21875 56 50.046875 50.171875 
Q 54.890625 44.34375 54.890625 33.015625 
z
" id="DejaVuSans-104"/>
      <path d="M 10.59375 45.40625 
L 73.1875 45.40625 
L 73.1875 37.203125 
L 10.59375 37.203125 
z
M 10.59375 25.484375 
L 73.1875 25.484375 
L 73.1875 17.1875 
L 10.59375 17.1875 
z
" id="DejaVuSans-61"/>
      <path d="M 8.203125 72.90625 
L 55.078125 72.90625 
L 55.078125 68.703125 
L 28.609375 0 
L 18.3125 0 
L 43.21875 64.59375 
L 8.203125 64.59375 
z
" id="DejaVuSans-55"/>
     </defs>
     <use xlink:href="#DejaVuSans-118"/>
     <use x="59.179688" xlink:href="#DejaVuSans-50"/>
     <use x="122.802734" xlink:href="#DejaVuSans-46"/>
     <use x="154.589844" xlink:href="#DejaVuSans-52"/>
     <use x="218.212891" xlink:href="#DejaVuSans-44"/>
     <use x="250" xlink:href="#DejaVuSans-32"/>
     <use x="281.787109" xlink:href="#DejaVuSans-104"/>
     <use x="345.166016" xlink:href="#DejaVuSans-118"/>
     <use x="401.720703" xlink:href="#DejaVuSans-45"/>
     <use x="437.804688" xlink:href="#DejaVuSans-104"/>
     <use x="501.183594" xlink:href="#DejaVuSans-97"/>
     <use x="562.462891" xlink:href="#DejaVuSans-115"/>
     <use x="614.5625" xlink:href="#DejaVuSans-104"/>
     <use x="677.941406" xlink:href="#DejaVuSans-61"/>
     <use x="761.730469" xlink:href="#DejaVuSans-102"/>
     <use x="796.935547" xlink:href="#DejaVuSans-102"/>
     <use x="832.140625" xlink:href="#DejaVuSans-48"/>
     <use x="895.763672" xlink:href="#DejaVuSans-101"/>
     <use x="957.287109" xlink:href="#DejaVuSans-55"/>
     <use x="1020.910156" xlink:href="#DejaVuSans-49"/>
     <use x="1084.533203" xlink:href="#DejaVuSans-101"/>
     <use x="1146.056641" xlink:href="#DejaVuSans-56"/>
     <use x="1209.679688" xlink:href="#DejaVuSans-99"/>
     <use x="1264.660156" xlink:href="#DejaVuSans-100"/>
     <use x="1328.136719" xlink:href="#DejaVuSans-57"/>
     <use x="1391.759766" xlink:href="#DejaVuSans-55"/>
     <use x="1455.382812" xlink:href="#DejaVuSans-56"/>
     <use x="1519.005859" xlink:href="#DejaVuSans-51"/>
     <use x="1582.628906" xlink:href="#DejaVuSans-55"/>
     <use x="1646.251953" xlink:href="#DejaVuSans-51"/>
    </g>
   </g>
  </g>
 </g>
 <defs>
  <clipPath id="p13a2b330df">
   <rect height="295.488" width="281.088" x="57.6" y="3.456"/>
  </clipPath>
 </defs>
</svg>
