<?xml version="1.0" encoding="utf-8" standalone="no"?>
<!DOCTYPE svg PUBLIC "-//W3C//DTD SVG 1.1//EN"
  "http://www.w3.org/Graphics/SVG/1.1/DTD/svg11.dtd">
<!-- Created with matplotlib (https://matplotlib.org/) -->
<svg height="345.6pt" version="1.1" viewBox="0 0 460.8 345.6" width="460.8pt" xmlns="http://www.w3.org/2000/svg" xmlns:xlink="http://www.w3.org/1999/xlink">
 <metadata>
  <rdf:RDF xmlns:cc="http://creativecommons.org/ns#" xmlns:dc="http://purl.org/dc/elements/1.1/" xmlns:rdf="http://www.w3.org/1999/02/22-rdf-syntax-ns#">
   <cc:Work>
    <dc:type rdf:resource="http://purl.org/dc/dcmitype/StillImage"/>
    <dc:date>2021-03-30T16:55:39.991273</dc:date>
    <dc:format>image/svg+xml</dc:format>
    <dc:creator>
     <cc:Agent>
      <dc:title>Matplotlib v3.3.4, https://matplotlib.org/</dc:title>
     </cc:Agent>
    </dc:creator>
   </cc:Work>
  </rdf:RDF>
 </metadata>
 <defs>
  <style type="text/css">*{stroke-linecap:butt;stroke-linejoin:round;}</style>
 </defs>
 <g id="figure_1">
  <g id="patch_1">
   <path d="M 0 345.6 
L 460.8 345.6 
L 460.8 0 
L 0 0 
z
" style="fill:#ffffff;"/>
  </g>
  <g id="axes_1">
   <g id="patch_2">
    <path d="M 57.6 298.944 
L 338.688 298.944 
L 338.688 3.456 
L 57.6 3.456 
z
" style="fill:#ffffff;"/>
   </g>
   <g id="matplotlib.axis_1">
    <g id="xtick_1">
     <g id="line2d_1">
      <path clip-path="url(#p0cbd8616e9)" d="M 57.6 298.944 
L 57.6 3.456 
" style="fill:none;stroke:#b0b0b0;stroke-linecap:square;stroke-width:0.8;"/>
     </g>
     <g id="line2d_2">
      <defs>
       <path d="M 0 0 
L 0 3.5 
" id="m42c108c094" style="stroke:#000000;stroke-width:0.8;"/>
      </defs>
      <g>
       <use style="stroke:#000000;stroke-width:0.8;" x="57.6" xlink:href="#m42c108c094" y="298.944"/>
      </g>
     </g>
     <g id="text_1">
      <!-- 0 -->
      <g transform="translate(51.2375 321.140875)scale(0.2 -0.2)">
       <defs>
        <path d="M 31.78125 66.40625 
Q 24.171875 66.40625 20.328125 58.90625 
Q 16.5 51.421875 16.5 36.375 
Q 16.5 21.390625 20.328125 13.890625 
Q 24.171875 6.390625 31.78125 6.390625 
Q 39.453125 6.390625 43.28125 13.890625 
Q 47.125 21.390625 47.125 36.375 
Q 47.125 51.421875 43.28125 58.90625 
Q 39.453125 66.40625 31.78125 66.40625 
z
M 31.78125 74.21875 
Q 44.046875 74.21875 50.515625 64.515625 
Q 56.984375 54.828125 56.984375 36.375 
Q 56.984375 17.96875 50.515625 8.265625 
Q 44.046875 -1.421875 31.78125 -1.421875 
Q 19.53125 -1.421875 13.0625 8.265625 
Q 6.59375 17.96875 6.59375 36.375 
Q 6.59375 54.828125 13.0625 64.515625 
Q 19.53125 74.21875 31.78125 74.21875 
z
" id="DejaVuSans-48"/>
       </defs>
       <use xlink:href="#DejaVuSans-48"/>
      </g>
     </g>
    </g>
    <g id="xtick_2">
     <g id="line2d_3">
      <path clip-path="url(#p0cbd8616e9)" d="M 137.910857 298.944 
L 137.910857 3.456 
" style="fill:none;stroke:#b0b0b0;stroke-linecap:square;stroke-width:0.8;"/>
     </g>
     <g id="line2d_4">
      <g>
       <use style="stroke:#000000;stroke-width:0.8;" x="137.910857" xlink:href="#m42c108c094" y="298.944"/>
      </g>
     </g>
     <g id="text_2">
      <!-- 2 -->
      <g transform="translate(131.548357 321.140875)scale(0.2 -0.2)">
       <defs>
        <path d="M 19.1875 8.296875 
L 53.609375 8.296875 
L 53.609375 0 
L 7.328125 0 
L 7.328125 8.296875 
Q 12.9375 14.109375 22.625 23.890625 
Q 32.328125 33.6875 34.8125 36.53125 
Q 39.546875 41.84375 41.421875 45.53125 
Q 43.3125 49.21875 43.3125 52.78125 
Q 43.3125 58.59375 39.234375 62.25 
Q 35.15625 65.921875 28.609375 65.921875 
Q 23.96875 65.921875 18.8125 64.3125 
Q 13.671875 62.703125 7.8125 59.421875 
L 7.8125 69.390625 
Q 13.765625 71.78125 18.9375 73 
Q 24.125 74.21875 28.421875 74.21875 
Q 39.75 74.21875 46.484375 68.546875 
Q 53.21875 62.890625 53.21875 53.421875 
Q 53.21875 48.921875 51.53125 44.890625 
Q 49.859375 40.875 45.40625 35.40625 
Q 44.1875 33.984375 37.640625 27.21875 
Q 31.109375 20.453125 19.1875 8.296875 
z
" id="DejaVuSans-50"/>
       </defs>
       <use xlink:href="#DejaVuSans-50"/>
      </g>
     </g>
    </g>
    <g id="xtick_3">
     <g id="line2d_5">
      <path clip-path="url(#p0cbd8616e9)" d="M 218.221714 298.944 
L 218.221714 3.456 
" style="fill:none;stroke:#b0b0b0;stroke-linecap:square;stroke-width:0.8;"/>
     </g>
     <g id="line2d_6">
      <g>
       <use style="stroke:#000000;stroke-width:0.8;" x="218.221714" xlink:href="#m42c108c094" y="298.944"/>
      </g>
     </g>
     <g id="text_3">
      <!-- 4 -->
      <g transform="translate(211.859214 321.140875)scale(0.2 -0.2)">
       <defs>
        <path d="M 37.796875 64.3125 
L 12.890625 25.390625 
L 37.796875 25.390625 
z
M 35.203125 72.90625 
L 47.609375 72.90625 
L 47.609375 25.390625 
L 58.015625 25.390625 
L 58.015625 17.1875 
L 47.609375 17.1875 
L 47.609375 0 
L 37.796875 0 
L 37.796875 17.1875 
L 4.890625 17.1875 
L 4.890625 26.703125 
z
" id="DejaVuSans-52"/>
       </defs>
       <use xlink:href="#DejaVuSans-52"/>
      </g>
     </g>
    </g>
    <g id="xtick_4">
     <g id="line2d_7">
      <path clip-path="url(#p0cbd8616e9)" d="M 298.532571 298.944 
L 298.532571 3.456 
" style="fill:none;stroke:#b0b0b0;stroke-linecap:square;stroke-width:0.8;"/>
     </g>
     <g id="line2d_8">
      <g>
       <use style="stroke:#000000;stroke-width:0.8;" x="298.532571" xlink:href="#m42c108c094" y="298.944"/>
      </g>
     </g>
     <g id="text_4">
      <!-- 6 -->
      <g transform="translate(292.170071 321.140875)scale(0.2 -0.2)">
       <defs>
        <path d="M 33.015625 40.375 
Q 26.375 40.375 22.484375 35.828125 
Q 18.609375 31.296875 18.609375 23.390625 
Q 18.609375 15.53125 22.484375 10.953125 
Q 26.375 6.390625 33.015625 6.390625 
Q 39.65625 6.390625 43.53125 10.953125 
Q 47.40625 15.53125 47.40625 23.390625 
Q 47.40625 31.296875 43.53125 35.828125 
Q 39.65625 40.375 33.015625 40.375 
z
M 52.59375 71.296875 
L 52.59375 62.3125 
Q 48.875 64.0625 45.09375 64.984375 
Q 41.3125 65.921875 37.59375 65.921875 
Q 27.828125 65.921875 22.671875 59.328125 
Q 17.53125 52.734375 16.796875 39.40625 
Q 19.671875 43.65625 24.015625 45.921875 
Q 28.375 48.1875 33.59375 48.1875 
Q 44.578125 48.1875 50.953125 41.515625 
Q 57.328125 34.859375 57.328125 23.390625 
Q 57.328125 12.15625 50.6875 5.359375 
Q 44.046875 -1.421875 33.015625 -1.421875 
Q 20.359375 -1.421875 13.671875 8.265625 
Q 6.984375 17.96875 6.984375 36.375 
Q 6.984375 53.65625 15.1875 63.9375 
Q 23.390625 74.21875 37.203125 74.21875 
Q 40.921875 74.21875 44.703125 73.484375 
Q 48.484375 72.75 52.59375 71.296875 
z
" id="DejaVuSans-54"/>
       </defs>
       <use xlink:href="#DejaVuSans-54"/>
      </g>
     </g>
    </g>
    <g id="xtick_5">
     <g id="line2d_9">
      <path clip-path="url(#p0cbd8616e9)" d="M 97.755429 298.944 
L 97.755429 3.456 
" style="fill:none;stroke:#b0b0b0;stroke-linecap:square;stroke-width:0.8;"/>
     </g>
     <g id="line2d_10">
      <defs>
       <path d="M 0 0 
L 0 2 
" id="m9570cfe4bf" style="stroke:#000000;stroke-width:0.6;"/>
      </defs>
      <g>
       <use style="stroke:#000000;stroke-width:0.6;" x="97.755429" xlink:href="#m9570cfe4bf" y="298.944"/>
      </g>
     </g>
    </g>
    <g id="xtick_6">
     <g id="line2d_11">
      <path clip-path="url(#p0cbd8616e9)" d="M 178.066286 298.944 
L 178.066286 3.456 
" style="fill:none;stroke:#b0b0b0;stroke-linecap:square;stroke-width:0.8;"/>
     </g>
     <g id="line2d_12">
      <g>
       <use style="stroke:#000000;stroke-width:0.6;" x="178.066286" xlink:href="#m9570cfe4bf" y="298.944"/>
      </g>
     </g>
    </g>
    <g id="xtick_7">
     <g id="line2d_13">
      <path clip-path="url(#p0cbd8616e9)" d="M 258.377143 298.944 
L 258.377143 3.456 
" style="fill:none;stroke:#b0b0b0;stroke-linecap:square;stroke-width:0.8;"/>
     </g>
     <g id="line2d_14">
      <g>
       <use style="stroke:#000000;stroke-width:0.6;" x="258.377143" xlink:href="#m9570cfe4bf" y="298.944"/>
      </g>
     </g>
    </g>
    <g id="xtick_8">
     <g id="line2d_15">
      <path clip-path="url(#p0cbd8616e9)" d="M 338.688 298.944 
L 338.688 3.456 
" style="fill:none;stroke:#b0b0b0;stroke-linecap:square;stroke-width:0.8;"/>
     </g>
     <g id="line2d_16">
      <g>
       <use style="stroke:#000000;stroke-width:0.6;" x="338.688" xlink:href="#m9570cfe4bf" y="298.944"/>
      </g>
     </g>
    </g>
    <g id="text_5">
     <!-- log10(# f-evals / dimension) -->
     <g transform="translate(77.764078 342.217594)scale(0.17 -0.17)">
      <defs>
       <path d="M 9.421875 75.984375 
L 18.40625 75.984375 
L 18.40625 0 
L 9.421875 0 
z
" id="DejaVuSans-108"/>
       <path d="M 30.609375 48.390625 
Q 23.390625 48.390625 19.1875 42.75 
Q 14.984375 37.109375 14.984375 27.296875 
Q 14.984375 17.484375 19.15625 11.84375 
Q 23.34375 6.203125 30.609375 6.203125 
Q 37.796875 6.203125 41.984375 11.859375 
Q 46.1875 17.53125 46.1875 27.296875 
Q 46.1875 37.015625 41.984375 42.703125 
Q 37.796875 48.390625 30.609375 48.390625 
z
M 30.609375 56 
Q 42.328125 56 49.015625 48.375 
Q 55.71875 40.765625 55.71875 27.296875 
Q 55.71875 13.875 49.015625 6.21875 
Q 42.328125 -1.421875 30.609375 -1.421875 
Q 18.84375 -1.421875 12.171875 6.21875 
Q 5.515625 13.875 5.515625 27.296875 
Q 5.515625 40.765625 12.171875 48.375 
Q 18.84375 56 30.609375 56 
z
" id="DejaVuSans-111"/>
       <path d="M 45.40625 27.984375 
Q 45.40625 37.75 41.375 43.109375 
Q 37.359375 48.484375 30.078125 48.484375 
Q 22.859375 48.484375 18.828125 43.109375 
Q 14.796875 37.75 14.796875 27.984375 
Q 14.796875 18.265625 18.828125 12.890625 
Q 22.859375 7.515625 30.078125 7.515625 
Q 37.359375 7.515625 41.375 12.890625 
Q 45.40625 18.265625 45.40625 27.984375 
z
M 54.390625 6.78125 
Q 54.390625 -7.171875 48.1875 -13.984375 
Q 42 -20.796875 29.203125 -20.796875 
Q 24.46875 -20.796875 20.265625 -20.09375 
Q 16.0625 -19.390625 12.109375 -17.921875 
L 12.109375 -9.1875 
Q 16.0625 -11.328125 19.921875 -12.34375 
Q 23.78125 -13.375 27.78125 -13.375 
Q 36.625 -13.375 41.015625 -8.765625 
Q 45.40625 -4.15625 45.40625 5.171875 
L 45.40625 9.625 
Q 42.625 4.78125 38.28125 2.390625 
Q 33.9375 0 27.875 0 
Q 17.828125 0 11.671875 7.65625 
Q 5.515625 15.328125 5.515625 27.984375 
Q 5.515625 40.671875 11.671875 48.328125 
Q 17.828125 56 27.875 56 
Q 33.9375 56 38.28125 53.609375 
Q 42.625 51.21875 45.40625 46.390625 
L 45.40625 54.6875 
L 54.390625 54.6875 
z
" id="DejaVuSans-103"/>
       <path d="M 12.40625 8.296875 
L 28.515625 8.296875 
L 28.515625 63.921875 
L 10.984375 60.40625 
L 10.984375 69.390625 
L 28.421875 72.90625 
L 38.28125 72.90625 
L 38.28125 8.296875 
L 54.390625 8.296875 
L 54.390625 0 
L 12.40625 0 
z
" id="DejaVuSans-49"/>
       <path d="M 31 75.875 
Q 24.46875 64.65625 21.28125 53.65625 
Q 18.109375 42.671875 18.109375 31.390625 
Q 18.109375 20.125 21.3125 9.0625 
Q 24.515625 -2 31 -13.1875 
L 23.1875 -13.1875 
Q 15.875 -1.703125 12.234375 9.375 
Q 8.59375 20.453125 8.59375 31.390625 
Q 8.59375 42.28125 12.203125 53.3125 
Q 15.828125 64.359375 23.1875 75.875 
z
" id="DejaVuSans-40"/>
       <path d="M 51.125 44 
L 36.921875 44 
L 32.8125 27.6875 
L 47.125 27.6875 
z
M 43.796875 71.78125 
L 38.71875 51.515625 
L 52.984375 51.515625 
L 58.109375 71.78125 
L 65.921875 71.78125 
L 60.890625 51.515625 
L 76.125 51.515625 
L 76.125 44 
L 58.984375 44 
L 54.984375 27.6875 
L 70.515625 27.6875 
L 70.515625 20.21875 
L 53.078125 20.21875 
L 48 0 
L 40.1875 0 
L 45.21875 20.21875 
L 30.90625 20.21875 
L 25.875 0 
L 18.015625 0 
L 23.09375 20.21875 
L 7.71875 20.21875 
L 7.71875 27.6875 
L 24.90625 27.6875 
L 29 44 
L 13.28125 44 
L 13.28125 51.515625 
L 30.90625 51.515625 
L 35.890625 71.78125 
z
" id="DejaVuSans-35"/>
       <path id="DejaVuSans-32"/>
       <path d="M 37.109375 75.984375 
L 37.109375 68.5 
L 28.515625 68.5 
Q 23.6875 68.5 21.796875 66.546875 
Q 19.921875 64.59375 19.921875 59.515625 
L 19.921875 54.6875 
L 34.71875 54.6875 
L 34.71875 47.703125 
L 19.921875 47.703125 
L 19.921875 0 
L 10.890625 0 
L 10.890625 47.703125 
L 2.296875 47.703125 
L 2.296875 54.6875 
L 10.890625 54.6875 
L 10.890625 58.5 
Q 10.890625 67.625 15.140625 71.796875 
Q 19.390625 75.984375 28.609375 75.984375 
z
" id="DejaVuSans-102"/>
       <path d="M 4.890625 31.390625 
L 31.203125 31.390625 
L 31.203125 23.390625 
L 4.890625 23.390625 
z
" id="DejaVuSans-45"/>
       <path d="M 56.203125 29.59375 
L 56.203125 25.203125 
L 14.890625 25.203125 
Q 15.484375 15.921875 20.484375 11.0625 
Q 25.484375 6.203125 34.421875 6.203125 
Q 39.59375 6.203125 44.453125 7.46875 
Q 49.3125 8.734375 54.109375 11.28125 
L 54.109375 2.78125 
Q 49.265625 0.734375 44.1875 -0.34375 
Q 39.109375 -1.421875 33.890625 -1.421875 
Q 20.796875 -1.421875 13.15625 6.1875 
Q 5.515625 13.8125 5.515625 26.8125 
Q 5.515625 40.234375 12.765625 48.109375 
Q 20.015625 56 32.328125 56 
Q 43.359375 56 49.78125 48.890625 
Q 56.203125 41.796875 56.203125 29.59375 
z
M 47.21875 32.234375 
Q 47.125 39.59375 43.09375 43.984375 
Q 39.0625 48.390625 32.421875 48.390625 
Q 24.90625 48.390625 20.390625 44.140625 
Q 15.875 39.890625 15.1875 32.171875 
z
" id="DejaVuSans-101"/>
       <path d="M 2.984375 54.6875 
L 12.5 54.6875 
L 29.59375 8.796875 
L 46.6875 54.6875 
L 56.203125 54.6875 
L 35.6875 0 
L 23.484375 0 
z
" id="DejaVuSans-118"/>
       <path d="M 34.28125 27.484375 
Q 23.390625 27.484375 19.1875 25 
Q 14.984375 22.515625 14.984375 16.5 
Q 14.984375 11.71875 18.140625 8.90625 
Q 21.296875 6.109375 26.703125 6.109375 
Q 34.1875 6.109375 38.703125 11.40625 
Q 43.21875 16.703125 43.21875 25.484375 
L 43.21875 27.484375 
z
M 52.203125 31.203125 
L 52.203125 0 
L 43.21875 0 
L 43.21875 8.296875 
Q 40.140625 3.328125 35.546875 0.953125 
Q 30.953125 -1.421875 24.3125 -1.421875 
Q 15.921875 -1.421875 10.953125 3.296875 
Q 6 8.015625 6 15.921875 
Q 6 25.140625 12.171875 29.828125 
Q 18.359375 34.515625 30.609375 34.515625 
L 43.21875 34.515625 
L 43.21875 35.40625 
Q 43.21875 41.609375 39.140625 45 
Q 35.0625 48.390625 27.6875 48.390625 
Q 23 48.390625 18.546875 47.265625 
Q 14.109375 46.140625 10.015625 43.890625 
L 10.015625 52.203125 
Q 14.9375 54.109375 19.578125 55.046875 
Q 24.21875 56 28.609375 56 
Q 40.484375 56 46.34375 49.84375 
Q 52.203125 43.703125 52.203125 31.203125 
z
" id="DejaVuSans-97"/>
       <path d="M 44.28125 53.078125 
L 44.28125 44.578125 
Q 40.484375 46.53125 36.375 47.5 
Q 32.28125 48.484375 27.875 48.484375 
Q 21.1875 48.484375 17.84375 46.4375 
Q 14.5 44.390625 14.5 40.28125 
Q 14.5 37.15625 16.890625 35.375 
Q 19.28125 33.59375 26.515625 31.984375 
L 29.59375 31.296875 
Q 39.15625 29.25 43.1875 25.515625 
Q 47.21875 21.78125 47.21875 15.09375 
Q 47.21875 7.46875 41.1875 3.015625 
Q 35.15625 -1.421875 24.609375 -1.421875 
Q 20.21875 -1.421875 15.453125 -0.5625 
Q 10.6875 0.296875 5.421875 2 
L 5.421875 11.28125 
Q 10.40625 8.6875 15.234375 7.390625 
Q 20.0625 6.109375 24.8125 6.109375 
Q 31.15625 6.109375 34.5625 8.28125 
Q 37.984375 10.453125 37.984375 14.40625 
Q 37.984375 18.0625 35.515625 20.015625 
Q 33.0625 21.96875 24.703125 23.78125 
L 21.578125 24.515625 
Q 13.234375 26.265625 9.515625 29.90625 
Q 5.8125 33.546875 5.8125 39.890625 
Q 5.8125 47.609375 11.28125 51.796875 
Q 16.75 56 26.8125 56 
Q 31.78125 56 36.171875 55.265625 
Q 40.578125 54.546875 44.28125 53.078125 
z
" id="DejaVuSans-115"/>
       <path d="M 25.390625 72.90625 
L 33.6875 72.90625 
L 8.296875 -9.28125 
L 0 -9.28125 
z
" id="DejaVuSans-47"/>
       <path d="M 45.40625 46.390625 
L 45.40625 75.984375 
L 54.390625 75.984375 
L 54.390625 0 
L 45.40625 0 
L 45.40625 8.203125 
Q 42.578125 3.328125 38.25 0.953125 
Q 33.9375 -1.421875 27.875 -1.421875 
Q 17.96875 -1.421875 11.734375 6.484375 
Q 5.515625 14.40625 5.515625 27.296875 
Q 5.515625 40.1875 11.734375 48.09375 
Q 17.96875 56 27.875 56 
Q 33.9375 56 38.25 53.625 
Q 42.578125 51.265625 45.40625 46.390625 
z
M 14.796875 27.296875 
Q 14.796875 17.390625 18.875 11.75 
Q 22.953125 6.109375 30.078125 6.109375 
Q 37.203125 6.109375 41.296875 11.75 
Q 45.40625 17.390625 45.40625 27.296875 
Q 45.40625 37.203125 41.296875 42.84375 
Q 37.203125 48.484375 30.078125 48.484375 
Q 22.953125 48.484375 18.875 42.84375 
Q 14.796875 37.203125 14.796875 27.296875 
z
" id="DejaVuSans-100"/>
       <path d="M 9.421875 54.6875 
L 18.40625 54.6875 
L 18.40625 0 
L 9.421875 0 
z
M 9.421875 75.984375 
L 18.40625 75.984375 
L 18.40625 64.59375 
L 9.421875 64.59375 
z
" id="DejaVuSans-105"/>
       <path d="M 52 44.1875 
Q 55.375 50.25 60.0625 53.125 
Q 64.75 56 71.09375 56 
Q 79.640625 56 84.28125 50.015625 
Q 88.921875 44.046875 88.921875 33.015625 
L 88.921875 0 
L 79.890625 0 
L 79.890625 32.71875 
Q 79.890625 40.578125 77.09375 44.375 
Q 74.3125 48.1875 68.609375 48.1875 
Q 61.625 48.1875 57.5625 43.546875 
Q 53.515625 38.921875 53.515625 30.90625 
L 53.515625 0 
L 44.484375 0 
L 44.484375 32.71875 
Q 44.484375 40.625 41.703125 44.40625 
Q 38.921875 48.1875 33.109375 48.1875 
Q 26.21875 48.1875 22.15625 43.53125 
Q 18.109375 38.875 18.109375 30.90625 
L 18.109375 0 
L 9.078125 0 
L 9.078125 54.6875 
L 18.109375 54.6875 
L 18.109375 46.1875 
Q 21.1875 51.21875 25.484375 53.609375 
Q 29.78125 56 35.6875 56 
Q 41.65625 56 45.828125 52.96875 
Q 50 49.953125 52 44.1875 
z
" id="DejaVuSans-109"/>
       <path d="M 54.890625 33.015625 
L 54.890625 0 
L 45.90625 0 
L 45.90625 32.71875 
Q 45.90625 40.484375 42.875 44.328125 
Q 39.84375 48.1875 33.796875 48.1875 
Q 26.515625 48.1875 22.3125 43.546875 
Q 18.109375 38.921875 18.109375 30.90625 
L 18.109375 0 
L 9.078125 0 
L 9.078125 54.6875 
L 18.109375 54.6875 
L 18.109375 46.1875 
Q 21.34375 51.125 25.703125 53.5625 
Q 30.078125 56 35.796875 56 
Q 45.21875 56 50.046875 50.171875 
Q 54.890625 44.34375 54.890625 33.015625 
z
" id="DejaVuSans-110"/>
       <path d="M 8.015625 75.875 
L 15.828125 75.875 
Q 23.140625 64.359375 26.78125 53.3125 
Q 30.421875 42.28125 30.421875 31.390625 
Q 30.421875 20.453125 26.78125 9.375 
Q 23.140625 -1.703125 15.828125 -13.1875 
L 8.015625 -13.1875 
Q 14.5 -2 17.703125 9.0625 
Q 20.90625 20.125 20.90625 31.390625 
Q 20.90625 42.671875 17.703125 53.65625 
Q 14.5 64.65625 8.015625 75.875 
z
" id="DejaVuSans-41"/>
      </defs>
      <use xlink:href="#DejaVuSans-108"/>
      <use x="27.783203" xlink:href="#DejaVuSans-111"/>
      <use x="88.964844" xlink:href="#DejaVuSans-103"/>
      <use x="152.441406" xlink:href="#DejaVuSans-49"/>
      <use x="216.064453" xlink:href="#DejaVuSans-48"/>
      <use x="279.6875" xlink:href="#DejaVuSans-40"/>
      <use x="318.701172" xlink:href="#DejaVuSans-35"/>
      <use x="402.490234" xlink:href="#DejaVuSans-32"/>
      <use x="434.277344" xlink:href="#DejaVuSans-102"/>
      <use x="463.982422" xlink:href="#DejaVuSans-45"/>
      <use x="500.066406" xlink:href="#DejaVuSans-101"/>
      <use x="561.589844" xlink:href="#DejaVuSans-118"/>
      <use x="620.769531" xlink:href="#DejaVuSans-97"/>
      <use x="682.048828" xlink:href="#DejaVuSans-108"/>
      <use x="709.832031" xlink:href="#DejaVuSans-115"/>
      <use x="761.931641" xlink:href="#DejaVuSans-32"/>
      <use x="793.71875" xlink:href="#DejaVuSans-47"/>
      <use x="827.410156" xlink:href="#DejaVuSans-32"/>
      <use x="859.197266" xlink:href="#DejaVuSans-100"/>
      <use x="922.673828" xlink:href="#DejaVuSans-105"/>
      <use x="950.457031" xlink:href="#DejaVuSans-109"/>
      <use x="1047.869141" xlink:href="#DejaVuSans-101"/>
      <use x="1109.392578" xlink:href="#DejaVuSans-110"/>
      <use x="1172.771484" xlink:href="#DejaVuSans-115"/>
      <use x="1224.871094" xlink:href="#DejaVuSans-105"/>
      <use x="1252.654297" xlink:href="#DejaVuSans-111"/>
      <use x="1313.835938" xlink:href="#DejaVuSans-110"/>
      <use x="1377.214844" xlink:href="#DejaVuSans-41"/>
     </g>
    </g>
   </g>
   <g id="matplotlib.axis_2">
    <g id="ytick_1">
     <g id="line2d_17">
      <path clip-path="url(#p0cbd8616e9)" d="M 57.6 298.944 
L 338.688 298.944 
" style="fill:none;stroke:#b0b0b0;stroke-linecap:square;stroke-width:0.8;"/>
     </g>
     <g id="line2d_18">
      <defs>
       <path d="M 0 0 
L -3.5 0 
" id="mbaeeb2a7e4" style="stroke:#000000;stroke-width:0.8;"/>
      </defs>
      <g>
       <use style="stroke:#000000;stroke-width:0.8;" x="57.6" xlink:href="#mbaeeb2a7e4" y="298.944"/>
      </g>
     </g>
     <g id="text_6">
      <!-- 0.0 -->
      <g transform="translate(25.155 305.02275)scale(0.16 -0.16)">
       <defs>
        <path d="M 10.6875 12.40625 
L 21 12.40625 
L 21 0 
L 10.6875 0 
z
" id="DejaVuSans-46"/>
       </defs>
       <use xlink:href="#DejaVuSans-48"/>
       <use x="63.623047" xlink:href="#DejaVuSans-46"/>
       <use x="95.410156" xlink:href="#DejaVuSans-48"/>
      </g>
     </g>
    </g>
    <g id="ytick_2">
     <g id="line2d_19">
      <path clip-path="url(#p0cbd8616e9)" d="M 57.6 240.431525 
L 338.688 240.431525 
" style="fill:none;stroke:#b0b0b0;stroke-linecap:square;stroke-width:0.8;"/>
     </g>
     <g id="line2d_20">
      <g>
       <use style="stroke:#000000;stroke-width:0.8;" x="57.6" xlink:href="#mbaeeb2a7e4" y="240.431525"/>
      </g>
     </g>
     <g id="text_7">
      <!-- 0.2 -->
      <g transform="translate(25.155 246.510275)scale(0.16 -0.16)">
       <use xlink:href="#DejaVuSans-48"/>
       <use x="63.623047" xlink:href="#DejaVuSans-46"/>
       <use x="95.410156" xlink:href="#DejaVuSans-50"/>
      </g>
     </g>
    </g>
    <g id="ytick_3">
     <g id="line2d_21">
      <path clip-path="url(#p0cbd8616e9)" d="M 57.6 181.91905 
L 338.688 181.91905 
" style="fill:none;stroke:#b0b0b0;stroke-linecap:square;stroke-width:0.8;"/>
     </g>
     <g id="line2d_22">
      <g>
       <use style="stroke:#000000;stroke-width:0.8;" x="57.6" xlink:href="#mbaeeb2a7e4" y="181.91905"/>
      </g>
     </g>
     <g id="text_8">
      <!-- 0.4 -->
      <g transform="translate(25.155 187.9978)scale(0.16 -0.16)">
       <use xlink:href="#DejaVuSans-48"/>
       <use x="63.623047" xlink:href="#DejaVuSans-46"/>
       <use x="95.410156" xlink:href="#DejaVuSans-52"/>
      </g>
     </g>
    </g>
    <g id="ytick_4">
     <g id="line2d_23">
      <path clip-path="url(#p0cbd8616e9)" d="M 57.6 123.406574 
L 338.688 123.406574 
" style="fill:none;stroke:#b0b0b0;stroke-linecap:square;stroke-width:0.8;"/>
     </g>
     <g id="line2d_24">
      <g>
       <use style="stroke:#000000;stroke-width:0.8;" x="57.6" xlink:href="#mbaeeb2a7e4" y="123.406574"/>
      </g>
     </g>
     <g id="text_9">
      <!-- 0.6 -->
      <g transform="translate(25.155 129.485324)scale(0.16 -0.16)">
       <use xlink:href="#DejaVuSans-48"/>
       <use x="63.623047" xlink:href="#DejaVuSans-46"/>
       <use x="95.410156" xlink:href="#DejaVuSans-54"/>
      </g>
     </g>
    </g>
    <g id="ytick_5">
     <g id="line2d_25">
      <path clip-path="url(#p0cbd8616e9)" d="M 57.6 64.894099 
L 338.688 64.894099 
" style="fill:none;stroke:#b0b0b0;stroke-linecap:square;stroke-width:0.8;"/>
     </g>
     <g id="line2d_26">
      <g>
       <use style="stroke:#000000;stroke-width:0.8;" x="57.6" xlink:href="#mbaeeb2a7e4" y="64.894099"/>
      </g>
     </g>
     <g id="text_10">
      <!-- 0.8 -->
      <g transform="translate(25.155 70.972849)scale(0.16 -0.16)">
       <defs>
        <path d="M 31.78125 34.625 
Q 24.75 34.625 20.71875 30.859375 
Q 16.703125 27.09375 16.703125 20.515625 
Q 16.703125 13.921875 20.71875 10.15625 
Q 24.75 6.390625 31.78125 6.390625 
Q 38.8125 6.390625 42.859375 10.171875 
Q 46.921875 13.96875 46.921875 20.515625 
Q 46.921875 27.09375 42.890625 30.859375 
Q 38.875 34.625 31.78125 34.625 
z
M 21.921875 38.8125 
Q 15.578125 40.375 12.03125 44.71875 
Q 8.5 49.078125 8.5 55.328125 
Q 8.5 64.0625 14.71875 69.140625 
Q 20.953125 74.21875 31.78125 74.21875 
Q 42.671875 74.21875 48.875 69.140625 
Q 55.078125 64.0625 55.078125 55.328125 
Q 55.078125 49.078125 51.53125 44.71875 
Q 48 40.375 41.703125 38.8125 
Q 48.828125 37.15625 52.796875 32.3125 
Q 56.78125 27.484375 56.78125 20.515625 
Q 56.78125 9.90625 50.3125 4.234375 
Q 43.84375 -1.421875 31.78125 -1.421875 
Q 19.734375 -1.421875 13.25 4.234375 
Q 6.78125 9.90625 6.78125 20.515625 
Q 6.78125 27.484375 10.78125 32.3125 
Q 14.796875 37.15625 21.921875 38.8125 
z
M 18.3125 54.390625 
Q 18.3125 48.734375 21.84375 45.5625 
Q 25.390625 42.390625 31.78125 42.390625 
Q 38.140625 42.390625 41.71875 45.5625 
Q 45.3125 48.734375 45.3125 54.390625 
Q 45.3125 60.0625 41.71875 63.234375 
Q 38.140625 66.40625 31.78125 66.40625 
Q 25.390625 66.40625 21.84375 63.234375 
Q 18.3125 60.0625 18.3125 54.390625 
z
" id="DejaVuSans-56"/>
       </defs>
       <use xlink:href="#DejaVuSans-48"/>
       <use x="63.623047" xlink:href="#DejaVuSans-46"/>
       <use x="95.410156" xlink:href="#DejaVuSans-56"/>
      </g>
     </g>
    </g>
    <g id="ytick_6">
     <g id="line2d_27">
      <path clip-path="url(#p0cbd8616e9)" d="M 57.6 6.381624 
L 338.688 6.381624 
" style="fill:none;stroke:#b0b0b0;stroke-linecap:square;stroke-width:0.8;"/>
     </g>
     <g id="line2d_28">
      <g>
       <use style="stroke:#000000;stroke-width:0.8;" x="57.6" xlink:href="#mbaeeb2a7e4" y="6.381624"/>
      </g>
     </g>
     <g id="text_11">
      <!-- 1.0 -->
      <g transform="translate(25.155 12.460374)scale(0.16 -0.16)">
       <use xlink:href="#DejaVuSans-49"/>
       <use x="63.623047" xlink:href="#DejaVuSans-46"/>
       <use x="95.410156" xlink:href="#DejaVuSans-48"/>
      </g>
     </g>
    </g>
    <g id="text_12">
     <!-- Fraction of function,target pairs -->
     <g transform="translate(17.619531 285.585)rotate(-90)scale(0.17 -0.17)">
      <defs>
       <path d="M 9.8125 72.90625 
L 51.703125 72.90625 
L 51.703125 64.59375 
L 19.671875 64.59375 
L 19.671875 43.109375 
L 48.578125 43.109375 
L 48.578125 34.8125 
L 19.671875 34.8125 
L 19.671875 0 
L 9.8125 0 
z
" id="DejaVuSans-70"/>
       <path d="M 41.109375 46.296875 
Q 39.59375 47.171875 37.8125 47.578125 
Q 36.03125 48 33.890625 48 
Q 26.265625 48 22.1875 43.046875 
Q 18.109375 38.09375 18.109375 28.8125 
L 18.109375 0 
L 9.078125 0 
L 9.078125 54.6875 
L 18.109375 54.6875 
L 18.109375 46.1875 
Q 20.953125 51.171875 25.484375 53.578125 
Q 30.03125 56 36.53125 56 
Q 37.453125 56 38.578125 55.875 
Q 39.703125 55.765625 41.0625 55.515625 
z
" id="DejaVuSans-114"/>
       <path d="M 48.78125 52.59375 
L 48.78125 44.1875 
Q 44.96875 46.296875 41.140625 47.34375 
Q 37.3125 48.390625 33.40625 48.390625 
Q 24.65625 48.390625 19.8125 42.84375 
Q 14.984375 37.3125 14.984375 27.296875 
Q 14.984375 17.28125 19.8125 11.734375 
Q 24.65625 6.203125 33.40625 6.203125 
Q 37.3125 6.203125 41.140625 7.25 
Q 44.96875 8.296875 48.78125 10.40625 
L 48.78125 2.09375 
Q 45.015625 0.34375 40.984375 -0.53125 
Q 36.96875 -1.421875 32.421875 -1.421875 
Q 20.0625 -1.421875 12.78125 6.34375 
Q 5.515625 14.109375 5.515625 27.296875 
Q 5.515625 40.671875 12.859375 48.328125 
Q 20.21875 56 33.015625 56 
Q 37.15625 56 41.109375 55.140625 
Q 45.0625 54.296875 48.78125 52.59375 
z
" id="DejaVuSans-99"/>
       <path d="M 18.3125 70.21875 
L 18.3125 54.6875 
L 36.8125 54.6875 
L 36.8125 47.703125 
L 18.3125 47.703125 
L 18.3125 18.015625 
Q 18.3125 11.328125 20.140625 9.421875 
Q 21.96875 7.515625 27.59375 7.515625 
L 36.8125 7.515625 
L 36.8125 0 
L 27.59375 0 
Q 17.1875 0 13.234375 3.875 
Q 9.28125 7.765625 9.28125 18.015625 
L 9.28125 47.703125 
L 2.6875 47.703125 
L 2.6875 54.6875 
L 9.28125 54.6875 
L 9.28125 70.21875 
z
" id="DejaVuSans-116"/>
       <path d="M 8.5 21.578125 
L 8.5 54.6875 
L 17.484375 54.6875 
L 17.484375 21.921875 
Q 17.484375 14.15625 20.5 10.265625 
Q 23.53125 6.390625 29.59375 6.390625 
Q 36.859375 6.390625 41.078125 11.03125 
Q 45.3125 15.671875 45.3125 23.6875 
L 45.3125 54.6875 
L 54.296875 54.6875 
L 54.296875 0 
L 45.3125 0 
L 45.3125 8.40625 
Q 42.046875 3.421875 37.71875 1 
Q 33.40625 -1.421875 27.6875 -1.421875 
Q 18.265625 -1.421875 13.375 4.4375 
Q 8.5 10.296875 8.5 21.578125 
z
M 31.109375 56 
z
" id="DejaVuSans-117"/>
       <path d="M 11.71875 12.40625 
L 22.015625 12.40625 
L 22.015625 4 
L 14.015625 -11.625 
L 7.71875 -11.625 
L 11.71875 4 
z
" id="DejaVuSans-44"/>
       <path d="M 18.109375 8.203125 
L 18.109375 -20.796875 
L 9.078125 -20.796875 
L 9.078125 54.6875 
L 18.109375 54.6875 
L 18.109375 46.390625 
Q 20.953125 51.265625 25.265625 53.625 
Q 29.59375 56 35.59375 56 
Q 45.5625 56 51.78125 48.09375 
Q 58.015625 40.1875 58.015625 27.296875 
Q 58.015625 14.40625 51.78125 6.484375 
Q 45.5625 -1.421875 35.59375 -1.421875 
Q 29.59375 -1.421875 25.265625 0.953125 
Q 20.953125 3.328125 18.109375 8.203125 
z
M 48.6875 27.296875 
Q 48.6875 37.203125 44.609375 42.84375 
Q 40.53125 48.484375 33.40625 48.484375 
Q 26.265625 48.484375 22.1875 42.84375 
Q 18.109375 37.203125 18.109375 27.296875 
Q 18.109375 17.390625 22.1875 11.75 
Q 26.265625 6.109375 33.40625 6.109375 
Q 40.53125 6.109375 44.609375 11.75 
Q 48.6875 17.390625 48.6875 27.296875 
z
" id="DejaVuSans-112"/>
      </defs>
      <use xlink:href="#DejaVuSans-70"/>
      <use x="50.269531" xlink:href="#DejaVuSans-114"/>
      <use x="91.382812" xlink:href="#DejaVuSans-97"/>
      <use x="152.662109" xlink:href="#DejaVuSans-99"/>
      <use x="207.642578" xlink:href="#DejaVuSans-116"/>
      <use x="246.851562" xlink:href="#DejaVuSans-105"/>
      <use x="274.634766" xlink:href="#DejaVuSans-111"/>
      <use x="335.816406" xlink:href="#DejaVuSans-110"/>
      <use x="399.195312" xlink:href="#DejaVuSans-32"/>
      <use x="430.982422" xlink:href="#DejaVuSans-111"/>
      <use x="492.164062" xlink:href="#DejaVuSans-102"/>
      <use x="527.369141" xlink:href="#DejaVuSans-32"/>
      <use x="559.15625" xlink:href="#DejaVuSans-102"/>
      <use x="594.361328" xlink:href="#DejaVuSans-117"/>
      <use x="657.740234" xlink:href="#DejaVuSans-110"/>
      <use x="721.119141" xlink:href="#DejaVuSans-99"/>
      <use x="776.099609" xlink:href="#DejaVuSans-116"/>
      <use x="815.308594" xlink:href="#DejaVuSans-105"/>
      <use x="843.091797" xlink:href="#DejaVuSans-111"/>
      <use x="904.273438" xlink:href="#DejaVuSans-110"/>
      <use x="967.652344" xlink:href="#DejaVuSans-44"/>
      <use x="999.439453" xlink:href="#DejaVuSans-116"/>
      <use x="1038.648438" xlink:href="#DejaVuSans-97"/>
      <use x="1099.927734" xlink:href="#DejaVuSans-114"/>
      <use x="1139.291016" xlink:href="#DejaVuSans-103"/>
      <use x="1202.767578" xlink:href="#DejaVuSans-101"/>
      <use x="1264.291016" xlink:href="#DejaVuSans-116"/>
      <use x="1303.5" xlink:href="#DejaVuSans-32"/>
      <use x="1335.287109" xlink:href="#DejaVuSans-112"/>
      <use x="1398.763672" xlink:href="#DejaVuSans-97"/>
      <use x="1460.042969" xlink:href="#DejaVuSans-105"/>
      <use x="1487.826172" xlink:href="#DejaVuSans-114"/>
      <use x="1528.939453" xlink:href="#DejaVuSans-115"/>
     </g>
    </g>
   </g>
   <g id="line2d_29">
    <defs>
     <path d="M 0 1.5 
C 0.397805 1.5 0.77937 1.341951 1.06066 1.06066 
C 1.341951 0.77937 1.5 0.397805 1.5 0 
C 1.5 -0.397805 1.341951 -0.77937 1.06066 -1.06066 
C 0.77937 -1.341951 0.397805 -1.5 0 -1.5 
C -0.397805 -1.5 -0.77937 -1.341951 -1.06066 -1.06066 
C -1.341951 -0.77937 -1.5 -0.397805 -1.5 0 
C -1.5 0.397805 -1.341951 0.77937 -1.06066 1.06066 
C -0.77937 1.341951 -0.397805 1.5 0 1.5 
z
" id="mb599ae032b" style="stroke:#000080;"/>
    </defs>
    <g>
     <use style="fill:#000080;stroke:#000080;" x="258.083953" xlink:href="#mb599ae032b" y="138.539111"/>
     <use style="fill:#000080;stroke:#000080;" x="258.083953" xlink:href="#mb599ae032b" y="138.539111"/>
    </g>
   </g>
   <g id="line2d_30">
    <path d="M 5.356583 298.944 
L 5.356583 298.439582 
L 91.782644 298.439582 
L 91.782644 296.926328 
L 99.731799 296.926328 
L 99.731799 295.917493 
L 107.364602 295.917493 
L 107.364602 294.908657 
L 109.31223 294.908657 
L 109.31223 293.395403 
L 111.064034 293.395403 
L 111.064034 292.890985 
L 112.655818 292.890985 
L 112.655818 291.377732 
L 114.114385 291.377732 
L 114.114385 290.368896 
L 115.460322 290.368896 
L 115.460322 288.855642 
L 116.709783 288.855642 
L 116.709783 285.829135 
L 117.875678 285.829135 
L 117.875678 284.820299 
L 118.968488 284.820299 
L 118.968488 283.307045 
L 119.996839 283.307045 
L 119.996839 281.793792 
L 120.967912 281.793792 
L 120.967912 279.77612 
L 121.887753 279.77612 
L 121.887753 278.767284 
L 122.761498 278.767284 
L 122.761498 277.254031 
L 123.593547 277.254031 
L 123.593547 275.740777 
L 124.387699 275.740777 
L 124.387699 271.705434 
L 125.147256 271.705434 
L 125.147256 271.201016 
L 125.875108 271.201016 
L 125.875108 268.678927 
L 126.573795 268.678927 
L 126.573795 266.156837 
L 127.245565 266.156837 
L 127.245565 264.139166 
L 127.892415 264.139166 
L 127.892415 261.112658 
L 128.516128 261.112658 
L 128.516128 260.103822 
L 129.118302 260.103822 
L 129.118302 256.068479 
L 129.700375 256.068479 
L 129.700375 254.555226 
L 130.263646 254.555226 
L 130.263646 253.041972 
L 130.809292 253.041972 
L 130.809292 251.528718 
L 131.338382 251.528718 
L 131.338382 249.511047 
L 131.851892 249.511047 
L 131.851892 248.502211 
L 132.350712 248.502211 
L 132.350712 244.971286 
L 133.307488 244.971286 
L 133.307488 242.449196 
L 133.766885 242.449196 
L 133.766885 241.440361 
L 134.214491 241.440361 
L 134.214491 239.422689 
L 134.650895 239.422689 
L 134.650895 238.918271 
L 135.492247 238.918271 
L 135.492247 236.9006 
L 135.898175 236.9006 
L 135.898175 235.891764 
L 136.294869 235.891764 
L 136.294869 234.882928 
L 136.68274 234.882928 
L 136.68274 234.37851 
L 137.433523 234.37851 
L 137.433523 233.369674 
L 137.797132 233.369674 
L 137.797132 231.352003 
L 138.153314 231.352003 
L 138.153314 230.343167 
L 138.502366 230.343167 
L 138.502366 227.821078 
L 138.84457 227.821078 
L 138.84457 227.31666 
L 139.180187 227.31666 
L 139.180187 226.812242 
L 139.832645 226.812242 
L 139.832645 224.290152 
L 140.149942 224.290152 
L 140.149942 223.785734 
L 140.46157 223.785734 
L 140.46157 223.281316 
L 141.364373 223.281316 
L 141.364373 221.263645 
L 141.941279 221.263645 
L 141.941279 219.750391 
L 142.22273 219.750391 
L 142.22273 219.245973 
L 142.499711 219.245973 
L 142.499711 218.237138 
L 142.772361 218.237138 
L 142.772361 217.73272 
L 143.040814 217.73272 
L 143.040814 217.228302 
L 143.305197 217.228302 
L 143.305197 216.219466 
L 144.570138 216.219466 
L 144.570138 215.715048 
L 147.066904 215.715048 
L 147.066904 214.706212 
L 147.690073 214.706212 
L 147.690073 213.697377 
L 147.892944 213.697377 
L 147.892944 211.679705 
L 166.089553 211.679705 
L 166.089553 211.175287 
L 168.19436 211.175287 
L 168.19436 210.670869 
L 168.894283 210.670869 
L 168.894283 210.166451 
L 172.869348 210.166451 
L 172.869348 208.14878 
L 173.299798 208.14878 
L 173.299798 207.644362 
L 173.504875 207.644362 
L 173.504875 206.635526 
L 174.231408 206.635526 
L 174.231408 206.131108 
L 175.157025 206.131108 
L 175.157025 205.122272 
L 175.305777 205.122272 
L 175.305777 204.617855 
L 175.453271 204.617855 
L 175.453271 203.609019 
L 176.978873 203.609019 
L 176.978873 202.600183 
L 177.163505 202.600183 
L 177.163505 202.095765 
L 177.783229 202.095765 
L 177.848687 201.086929 
L 178.966078 201.086929 
L 178.966078 200.078094 
L 180.233133 200.078094 
L 180.233133 199.069258 
L 180.784184 199.069258 
L 180.784184 197.556004 
L 181.807122 197.556004 
L 181.807122 197.051586 
L 182.183687 197.051586 
L 182.183687 194.529497 
L 184.656984 194.529497 
L 184.656984 193.520661 
L 184.935592 193.520661 
L 184.935592 191.502989 
L 186.988663 191.502989 
L 186.988663 190.494154 
L 187.230584 190.494154 
L 187.230584 189.485318 
L 188.43755 189.485318 
L 188.43755 188.9809 
L 188.585575 188.9809 
L 188.585575 187.972064 
L 189.461885 187.972064 
L 189.461885 187.467646 
L 191.29054 187.467646 
L 191.29054 186.458811 
L 191.471777 186.458811 
L 191.471777 185.449975 
L 192.322277 185.449975 
L 192.322277 183.936721 
L 193.753461 183.936721 
L 193.753461 182.927885 
L 196.14685 182.927885 
L 196.14685 181.91905 
L 200.978791 181.91905 
L 200.978791 181.414632 
L 206.562646 181.414632 
L 206.562646 180.405796 
L 212.987618 180.405796 
L 212.987618 179.901378 
L 227.147751 179.901378 
L 227.147751 179.39696 
L 233.372389 179.39696 
L 233.372389 178.892542 
L 235.053692 178.892542 
L 235.053692 177.883706 
L 243.963811 177.883706 
L 243.963811 177.379288 
L 244.255889 177.379288 
L 244.271989 176.370453 
L 244.80962 176.370453 
L 244.84099 174.352781 
L 244.947952 174.352781 
L 245.055629 171.830692 
L 245.117996 171.830692 
L 245.185474 170.317438 
L 245.368862 170.317438 
L 245.368862 169.308602 
L 245.656905 169.308602 
L 245.656905 168.804184 
L 245.956788 168.804184 
L 246.027849 165.273259 
L 246.167072 165.273259 
L 246.167072 164.768841 
L 248.578506 164.768841 
L 248.585219 163.255588 
L 249.237304 163.255588 
L 249.237304 162.75117 
L 251.900662 162.75117 
L 251.966562 159.220244 
L 252.376814 159.220244 
L 252.376814 157.202573 
L 252.533921 157.202573 
L 252.535079 156.193737 
L 252.686278 156.193737 
L 252.686278 154.680483 
L 254.194966 154.680483 
L 254.29771 152.662812 
L 254.414863 152.662812 
L 254.414863 152.158394 
L 255.461359 152.158394 
L 255.563865 149.131887 
L 255.728407 149.131887 
L 255.7857 147.114215 
L 255.881805 147.114215 
L 255.987337 145.600961 
L 256.111051 145.600961 
L 256.111051 143.58329 
L 256.606039 143.58329 
L 256.606039 143.078872 
L 257.886496 143.078872 
L 257.886496 140.556783 
L 258.083953 140.556783 
L 258.083953 138.539111 
L 338.688 138.539111 
L 338.688 138.539111 
" style="fill:none;stroke:#000080;stroke-linecap:square;stroke-width:1.5;"/>
   </g>
   <g id="line2d_31">
    <defs>
     <path d="M 0 6 
C 1.591219 6 3.117479 5.367802 4.242641 4.242641 
C 5.367802 3.117479 6 1.591219 6 0 
C 6 -1.591219 5.367802 -3.117479 4.242641 -4.242641 
C 3.117479 -5.367802 1.591219 -6 0 -6 
C -1.591219 -6 -3.117479 -5.367802 -4.242641 -4.242641 
C -5.367802 -3.117479 -6 -1.591219 -6 0 
C -6 1.591219 -5.367802 3.117479 -4.242641 4.242641 
C -3.117479 5.367802 -1.591219 6 0 6 
z
" id="m22420f25a7" style="stroke:#000080;stroke-width:1.5;"/>
    </defs>
    <g>
     <use style="fill-opacity:0;stroke:#000080;stroke-width:1.5;" x="123.593547" xlink:href="#m22420f25a7" y="275.740777"/>
     <use style="fill-opacity:0;stroke:#000080;stroke-width:1.5;" x="147.892944" xlink:href="#m22420f25a7" y="211.679705"/>
     <use style="fill-opacity:0;stroke:#000080;stroke-width:1.5;" x="212.987618" xlink:href="#m22420f25a7" y="179.901378"/>
     <use style="fill-opacity:0;stroke:#000080;stroke-width:1.5;" x="258.083953" xlink:href="#m22420f25a7" y="140.556783"/>
     <use style="fill-opacity:0;stroke:#000080;stroke-width:1.5;" x="258.083953" xlink:href="#m22420f25a7" y="138.539111"/>
     <use style="fill-opacity:0;stroke:#000080;stroke-width:1.5;" x="338.688" xlink:href="#m22420f25a7" y="138.539111"/>
    </g>
   </g>
   <g id="line2d_32">
    <path style="fill:none;stroke:#000080;stroke-linecap:square;stroke-width:1.5;"/>
    <g/>
   </g>
   <g id="line2d_33">
    <path clip-path="url(#p0cbd8616e9)" d="M 258.377143 138.539111 
" style="fill:none;stroke:#000080;stroke-linecap:square;stroke-width:1.5;"/>
    <defs>
     <path d="M -12 12 
L 12 -12 
M -12 -12 
L 12 12 
" id="mc23000e8c8" style="stroke:#000080;"/>
    </defs>
    <g clip-path="url(#p0cbd8616e9)">
     <use style="fill:#000080;stroke:#000080;" x="258.377143" xlink:href="#mc23000e8c8" y="138.539111"/>
    </g>
   </g>
   <g id="line2d_34">
    <defs>
     <path d="M 0 1.5 
C 0.397805 1.5 0.77937 1.341951 1.06066 1.06066 
C 1.341951 0.77937 1.5 0.397805 1.5 0 
C 1.5 -0.397805 1.341951 -0.77937 1.06066 -1.06066 
C 0.77937 -1.341951 0.397805 -1.5 0 -1.5 
C -0.397805 -1.5 -0.77937 -1.341951 -1.06066 -1.06066 
C -1.341951 -0.77937 -1.5 -0.397805 -1.5 0 
C -1.5 0.397805 -1.341951 0.77937 -1.06066 1.06066 
C -0.77937 1.341951 -0.397805 1.5 0 1.5 
z
" id="m15e1583e6e" style="stroke:#ff00ff;"/>
    </defs>
    <g>
     <use style="fill:#ff00ff;stroke:#ff00ff;" x="258.013501" xlink:href="#m15e1583e6e" y="246.988957"/>
     <use style="fill:#ff00ff;stroke:#ff00ff;" x="258.013501" xlink:href="#m15e1583e6e" y="246.988957"/>
    </g>
   </g>
   <g id="line2d_35">
    <path d="M 5.356583 298.944 
L 5.356583 297.935164 
L 91.782644 297.935164 
L 91.782644 297.430746 
L 99.731799 297.430746 
L 99.731799 296.926328 
L 102.66306 296.926328 
L 102.66306 296.421911 
L 107.364602 296.421911 
L 107.364602 295.917493 
L 111.064034 295.917493 
L 111.064034 295.413075 
L 114.114385 295.413075 
L 114.114385 293.899821 
L 118.968488 293.899821 
L 118.968488 293.395403 
L 120.967912 293.395403 
L 120.967912 292.890985 
L 121.887753 292.890985 
L 121.887753 291.88215 
L 123.593547 291.88215 
L 123.593547 291.377732 
L 124.387699 291.377732 
L 124.387699 290.368896 
L 125.147256 290.368896 
L 125.147256 289.36006 
L 127.245565 289.36006 
L 127.245565 288.855642 
L 128.516128 288.855642 
L 128.516128 287.846806 
L 129.700375 287.846806 
L 129.700375 286.837971 
L 130.809292 286.837971 
L 130.809292 286.333553 
L 131.338382 286.333553 
L 131.338382 285.829135 
L 165.158881 285.829135 
L 165.158881 285.324717 
L 165.371436 285.324717 
L 165.371436 284.820299 
L 168.664083 284.820299 
L 168.664083 284.315881 
L 169.554414 284.315881 
L 169.554414 283.811463 
L 169.947714 283.811463 
L 169.947714 282.802628 
L 171.044462 282.802628 
L 171.044462 282.29821 
L 174.12024 282.29821 
L 174.12024 281.793792 
L 177.95958 281.793792 
L 177.95958 281.289374 
L 197.539264 281.289374 
L 197.539264 280.784956 
L 198.64424 280.784956 
L 198.64424 280.280538 
L 199.80486 280.280538 
L 199.80486 279.77612 
L 228.852744 279.77612 
L 228.852744 279.271702 
L 230.920419 279.271702 
L 230.920419 278.767284 
L 234.987336 278.767284 
L 234.987336 278.262867 
L 236.222603 278.262867 
L 236.317299 276.749613 
L 237.254706 276.749613 
L 237.254706 276.245195 
L 239.513628 276.245195 
L 239.513628 275.740777 
L 240.14033 275.740777 
L 240.223004 274.731941 
L 240.400611 274.731941 
L 240.480798 273.218688 
L 242.967609 273.218688 
L 243.067141 272.209852 
L 248.735038 272.209852 
L 248.825835 269.183344 
L 249.054933 269.183344 
L 249.161961 267.165673 
L 249.236656 267.165673 
L 249.290387 265.652419 
L 252.620852 265.652419 
L 252.694928 264.139166 
L 252.780762 264.139166 
L 252.8648 262.121494 
L 252.900408 262.121494 
L 252.977528 261.112658 
L 253.271205 261.112658 
L 253.271205 260.103822 
L 254.247232 260.103822 
L 254.247232 259.094987 
L 254.733231 259.094987 
L 254.841119 257.077315 
L 255.323056 257.077315 
L 255.323056 256.572897 
L 256.104158 256.572897 
L 256.104158 256.068479 
L 256.791024 256.068479 
L 256.791024 255.564061 
L 257.848302 255.564061 
L 257.947223 250.519883 
L 257.967267 250.519883 
L 258.013501 246.988957 
L 338.688 246.988957 
L 338.688 246.988957 
" style="fill:none;stroke:#ff00ff;stroke-linecap:square;stroke-width:1.5;"/>
   </g>
   <g id="line2d_36">
    <defs>
     <path d="M -0 8.485281 
L 5.091169 0 
L 0 -8.485281 
L -5.091169 -0 
z
" id="m50c8283b7a" style="stroke:#ff00ff;stroke-linejoin:miter;stroke-width:1.5;"/>
    </defs>
    <g>
     <use style="fill-opacity:0;stroke:#ff00ff;stroke-linejoin:miter;stroke-width:1.5;" x="131.338382" xlink:href="#m50c8283b7a" y="286.333553"/>
     <use style="fill-opacity:0;stroke:#ff00ff;stroke-linejoin:miter;stroke-width:1.5;" x="199.80486" xlink:href="#m50c8283b7a" y="279.77612"/>
     <use style="fill-opacity:0;stroke:#ff00ff;stroke-linejoin:miter;stroke-width:1.5;" x="258.013501" xlink:href="#m50c8283b7a" y="247.493375"/>
     <use style="fill-opacity:0;stroke:#ff00ff;stroke-linejoin:miter;stroke-width:1.5;" x="258.013501" xlink:href="#m50c8283b7a" y="246.988957"/>
     <use style="fill-opacity:0;stroke:#ff00ff;stroke-linejoin:miter;stroke-width:1.5;" x="338.688" xlink:href="#m50c8283b7a" y="246.988957"/>
    </g>
   </g>
   <g id="line2d_37">
    <path style="fill:none;stroke:#ff00ff;stroke-linecap:square;stroke-width:1.5;"/>
    <g/>
   </g>
   <g id="line2d_38">
    <path clip-path="url(#p0cbd8616e9)" d="M 258.377143 246.988957 
" style="fill:none;stroke:#ff00ff;stroke-linecap:square;stroke-width:1.5;"/>
    <defs>
     <path d="M -12 12 
L 12 -12 
M -12 -12 
L 12 12 
" id="mb4c5e27db3" style="stroke:#ff00ff;"/>
    </defs>
    <g clip-path="url(#p0cbd8616e9)">
     <use style="fill:#ff00ff;stroke:#ff00ff;" x="258.377143" xlink:href="#mb4c5e27db3" y="246.988957"/>
    </g>
   </g>
   <g id="line2d_39">
    <defs>
     <path d="M 0 1.5 
C 0.397805 1.5 0.77937 1.341951 1.06066 1.06066 
C 1.341951 0.77937 1.5 0.397805 1.5 0 
C 1.5 -0.397805 1.341951 -0.77937 1.06066 -1.06066 
C 0.77937 -1.341951 0.397805 -1.5 0 -1.5 
C -0.397805 -1.5 -0.77937 -1.341951 -1.06066 -1.06066 
C -1.341951 -0.77937 -1.5 -0.397805 -1.5 0 
C -1.5 0.397805 -1.341951 0.77937 -1.06066 1.06066 
C -0.77937 1.341951 -0.397805 1.5 0 1.5 
z
" id="m29a783fa01" style="stroke:#ff7500;"/>
    </defs>
    <g>
     <use style="fill:#ff7500;stroke:#ff7500;" x="258.350921" xlink:href="#m29a783fa01" y="127.946335"/>
     <use style="fill:#ff7500;stroke:#ff7500;" x="258.350921" xlink:href="#m29a783fa01" y="127.946335"/>
    </g>
   </g>
   <g id="line2d_40">
    <path d="M 5.356583 298.944 
L 5.356583 298.439582 
L 99.731799 298.439582 
L 99.731799 297.935164 
L 105.171792 297.935164 
L 105.171792 296.421911 
L 107.364602 296.421911 
L 107.364602 295.917493 
L 109.31223 295.917493 
L 109.31223 295.413075 
L 111.064034 295.413075 
L 111.064034 293.899821 
L 112.655818 293.899821 
L 112.655818 292.386567 
L 114.114385 292.386567 
L 114.114385 291.377732 
L 115.460322 291.377732 
L 115.460322 288.351224 
L 116.709783 288.351224 
L 116.709783 286.333553 
L 117.875678 286.333553 
L 117.875678 283.307045 
L 118.968488 283.307045 
L 118.968488 280.784956 
L 119.996839 280.784956 
L 119.996839 277.758449 
L 120.967912 277.758449 
L 120.967912 275.236359 
L 121.887753 275.236359 
L 121.887753 272.71427 
L 122.761498 272.71427 
L 122.761498 268.174509 
L 123.593547 268.174509 
L 123.593547 265.652419 
L 124.387699 265.652419 
L 124.387699 263.634748 
L 125.147256 263.634748 
L 125.147256 260.103822 
L 126.573795 260.103822 
L 126.573795 255.564061 
L 127.245565 255.564061 
L 127.245565 252.033136 
L 127.892415 252.033136 
L 127.892415 251.0243 
L 128.516128 251.0243 
L 128.516128 247.997793 
L 129.118302 247.997793 
L 129.118302 245.475704 
L 129.700375 245.475704 
L 129.700375 244.971286 
L 130.263646 244.971286 
L 130.263646 244.466868 
L 130.809292 244.466868 
L 130.809292 243.458032 
L 131.338382 243.458032 
L 131.338382 242.449196 
L 131.851892 242.449196 
L 131.851892 240.935943 
L 132.350712 240.935943 
L 132.350712 240.431525 
L 132.835661 240.431525 
L 132.835661 239.927107 
L 134.214491 239.927107 
L 134.214491 239.422689 
L 135.076644 239.422689 
L 135.076644 238.413853 
L 137.062172 238.413853 
L 137.062172 237.909435 
L 138.502366 237.909435 
L 138.502366 236.9006 
L 139.180187 236.9006 
L 139.180187 235.891764 
L 140.767727 235.891764 
L 140.767727 234.882928 
L 144.324384 234.882928 
L 144.324384 232.865256 
L 144.570138 232.865256 
L 144.570138 231.856421 
L 147.066904 231.856421 
L 147.066904 231.352003 
L 149.062975 231.352003 
L 149.062975 230.343167 
L 159.504686 230.343167 
L 159.504686 229.838749 
L 167.798261 229.838749 
L 167.798261 228.829913 
L 168.58767 228.829913 
L 168.58767 227.821078 
L 169.463258 227.821078 
L 169.463258 226.812242 
L 169.598397 226.812242 
L 169.598397 226.307824 
L 172.804621 226.307824 
L 172.804621 225.803406 
L 173.691887 225.803406 
L 173.701969 223.785734 
L 174.494501 223.785734 
L 174.494501 222.272481 
L 174.775812 222.272481 
L 174.775812 221.263645 
L 175.274081 221.263645 
L 175.274081 220.759227 
L 175.800263 220.759227 
L 175.800263 219.245973 
L 176.128796 219.245973 
L 176.219183 217.228302 
L 176.844716 217.228302 
L 176.844716 216.723884 
L 176.985368 216.723884 
L 176.985368 215.715048 
L 177.165341 215.715048 
L 177.165341 214.706212 
L 177.865454 214.706212 
L 177.865454 214.201794 
L 178.415048 214.201794 
L 178.415048 213.192959 
L 180.193815 213.192959 
L 180.193815 212.688541 
L 181.369657 212.688541 
L 181.422247 211.679705 
L 185.397525 211.679705 
L 185.397525 210.670869 
L 189.251952 210.670869 
L 189.251952 210.166451 
L 190.698941 210.166451 
L 190.698941 209.157616 
L 190.857528 209.157616 
L 190.857528 208.14878 
L 206.719334 208.14878 
L 206.719334 207.139944 
L 211.263683 207.139944 
L 211.263683 206.635526 
L 213.599942 206.635526 
L 213.599942 206.131108 
L 213.740761 206.131108 
L 213.740761 205.62669 
L 213.926694 205.62669 
L 213.926694 204.617855 
L 214.137907 204.617855 
L 214.137907 203.609019 
L 216.313627 203.609019 
L 216.313627 202.095765 
L 216.525184 202.095765 
L 216.525184 198.56484 
L 216.931927 198.56484 
L 216.931927 197.051586 
L 219.391525 197.051586 
L 219.391525 196.547168 
L 220.424718 196.547168 
L 220.424718 195.538333 
L 224.089735 195.538333 
L 224.089735 194.529497 
L 224.202599 194.529497 
L 224.202599 193.520661 
L 224.360237 193.520661 
L 224.360237 192.007407 
L 225.342829 192.007407 
L 225.342829 190.998572 
L 229.079293 190.998572 
L 229.079293 189.485318 
L 229.390109 189.485318 
L 229.390109 188.476482 
L 229.781752 188.476482 
L 229.818607 185.954393 
L 229.959606 185.954393 
L 230.009444 180.910214 
L 230.087512 180.910214 
L 230.087512 177.379288 
L 230.365984 177.379288 
L 230.365984 174.857199 
L 230.903656 174.857199 
L 230.903656 174.352781 
L 231.078953 174.352781 
L 231.08133 172.839527 
L 232.056062 172.839527 
L 232.158237 169.308602 
L 232.360382 169.308602 
L 232.360382 166.786513 
L 236.857205 166.786513 
L 236.91396 164.264423 
L 237.024279 164.264423 
L 237.024279 161.742334 
L 237.432933 161.742334 
L 237.432933 161.237916 
L 238.157466 161.237916 
L 238.157466 160.733498 
L 238.950137 160.733498 
L 238.950137 158.211409 
L 239.104163 158.211409 
L 239.177969 156.193737 
L 239.257677 156.193737 
L 239.350215 150.140722 
L 239.472145 150.140722 
L 239.472145 149.636305 
L 240.586008 149.636305 
L 240.653042 147.114215 
L 241.309025 147.114215 
L 241.397253 145.600961 
L 241.42611 145.600961 
L 241.42611 145.096544 
L 241.807863 145.096544 
L 241.897221 144.087708 
L 242.015672 144.087708 
L 242.065645 142.574454 
L 242.226075 142.574454 
L 242.226075 142.070036 
L 243.700635 142.070036 
L 243.700635 141.0612 
L 245.913631 141.0612 
L 245.913631 140.556783 
L 246.832046 140.556783 
L 246.892359 139.547947 
L 249.503439 139.547947 
L 249.503439 139.043529 
L 250.120355 139.043529 
L 250.120355 138.539111 
L 252.694252 138.539111 
L 252.694252 138.034693 
L 254.048559 138.034693 
L 254.048559 137.530275 
L 254.22701 137.530275 
L 254.22701 136.521439 
L 254.56347 136.521439 
L 254.671753 134.503768 
L 254.771359 134.503768 
L 254.771359 133.99935 
L 254.957076 133.99935 
L 254.973597 132.990514 
L 255.182369 132.990514 
L 255.182369 132.486096 
L 255.761829 132.486096 
L 255.761829 131.981678 
L 256.325065 131.981678 
L 256.325065 130.972843 
L 256.98648 130.972843 
L 256.98648 130.468425 
L 257.577949 130.468425 
L 257.577949 129.459589 
L 258.298165 129.459589 
L 258.350921 127.946335 
L 338.688 127.946335 
L 338.688 127.946335 
" style="fill:none;stroke:#ff7500;stroke-linecap:square;stroke-width:1.5;"/>
   </g>
   <g id="line2d_41">
    <defs>
     <path d="M 0 -6 
L -1.347084 -1.854102 
L -5.706339 -1.854102 
L -2.179628 0.708204 
L -3.526712 4.854102 
L -0 2.291796 
L 3.526712 4.854102 
L 2.179628 0.708204 
L 5.706339 -1.854102 
L 1.347084 -1.854102 
z
" id="m39e39462b4" style="stroke:#ff7500;stroke-linejoin:bevel;stroke-width:1.5;"/>
    </defs>
    <g>
     <use style="fill-opacity:0;stroke:#ff7500;stroke-linejoin:bevel;stroke-width:1.5;" x="116.709783" xlink:href="#m39e39462b4" y="288.351224"/>
     <use style="fill-opacity:0;stroke:#ff7500;stroke-linejoin:bevel;stroke-width:1.5;" x="174.494501" xlink:href="#m39e39462b4" y="223.785734"/>
     <use style="fill-opacity:0;stroke:#ff7500;stroke-linejoin:bevel;stroke-width:1.5;" x="236.91396" xlink:href="#m39e39462b4" y="165.777677"/>
     <use style="fill-opacity:0;stroke:#ff7500;stroke-linejoin:bevel;stroke-width:1.5;" x="258.350921" xlink:href="#m39e39462b4" y="127.946335"/>
     <use style="fill-opacity:0;stroke:#ff7500;stroke-linejoin:bevel;stroke-width:1.5;" x="258.350921" xlink:href="#m39e39462b4" y="127.946335"/>
     <use style="fill-opacity:0;stroke:#ff7500;stroke-linejoin:bevel;stroke-width:1.5;" x="338.688" xlink:href="#m39e39462b4" y="127.946335"/>
    </g>
   </g>
   <g id="line2d_42">
    <path style="fill:none;stroke:#ff7500;stroke-linecap:square;stroke-width:1.5;"/>
    <g/>
   </g>
   <g id="line2d_43">
    <path clip-path="url(#p0cbd8616e9)" d="M 258.377143 127.946335 
" style="fill:none;stroke:#ff7500;stroke-linecap:square;stroke-width:1.5;"/>
    <defs>
     <path d="M -12 12 
L 12 -12 
M -12 -12 
L 12 12 
" id="me1724ba9a4" style="stroke:#ff7500;"/>
    </defs>
    <g clip-path="url(#p0cbd8616e9)">
     <use style="fill:#ff7500;stroke:#ff7500;" x="258.377143" xlink:href="#me1724ba9a4" y="127.946335"/>
    </g>
   </g>
   <g id="line2d_44">
    <defs>
     <path d="M 0 1.5 
C 0.397805 1.5 0.77937 1.341951 1.06066 1.06066 
C 1.341951 0.77937 1.5 0.397805 1.5 0 
C 1.5 -0.397805 1.341951 -0.77937 1.06066 -1.06066 
C 0.77937 -1.341951 0.397805 -1.5 0 -1.5 
C -0.397805 -1.5 -0.77937 -1.341951 -1.06066 -1.06066 
C -1.341951 -0.77937 -1.5 -0.397805 -1.5 0 
C -1.5 0.397805 -1.341951 0.77937 -1.06066 1.06066 
C -0.77937 1.341951 -0.397805 1.5 0 1.5 
z
" id="m42b9f50cb4" style="stroke:#6495ed;"/>
    </defs>
    <g>
     <use style="fill:#6495ed;stroke:#6495ed;" x="255.765941" xlink:href="#m42b9f50cb4" y="234.37851"/>
     <use style="fill:#6495ed;stroke:#6495ed;" x="255.765941" xlink:href="#m42b9f50cb4" y="234.37851"/>
    </g>
   </g>
   <g id="line2d_45">
    <path d="M 5.356583 298.944 
L 5.356583 298.439582 
L 91.782644 298.439582 
L 91.782644 297.935164 
L 96.206276 297.935164 
L 96.206276 296.421911 
L 102.66306 296.421911 
L 102.66306 295.917493 
L 105.171792 295.917493 
L 105.171792 294.908657 
L 114.114385 294.908657 
L 114.114385 294.404239 
L 118.968488 294.404239 
L 118.968488 293.899821 
L 121.887753 293.899821 
L 121.887753 293.395403 
L 122.761498 293.395403 
L 122.761498 292.890985 
L 123.593547 292.890985 
L 123.593547 292.386567 
L 124.387699 292.386567 
L 124.387699 290.873314 
L 125.147256 290.873314 
L 125.147256 289.864478 
L 125.875108 289.864478 
L 125.875108 289.36006 
L 127.892415 289.36006 
L 127.892415 288.351224 
L 129.118302 288.351224 
L 129.118302 287.846806 
L 129.700375 287.846806 
L 129.700375 286.837971 
L 130.263646 286.837971 
L 130.263646 286.333553 
L 130.809292 286.333553 
L 130.809292 285.829135 
L 133.307488 285.829135 
L 133.307488 285.324717 
L 181.327037 285.324717 
L 181.327037 284.820299 
L 182.560381 284.820299 
L 182.6048 283.811463 
L 183.298602 283.811463 
L 183.298602 283.307045 
L 185.857023 283.307045 
L 185.857023 282.802628 
L 186.096896 282.802628 
L 186.096896 282.29821 
L 187.188257 282.29821 
L 187.188257 281.793792 
L 187.664399 281.793792 
L 187.664399 281.289374 
L 188.078355 281.289374 
L 188.078355 280.784956 
L 188.520101 280.784956 
L 188.520101 280.280538 
L 189.188016 280.280538 
L 189.19723 279.271702 
L 189.730627 279.271702 
L 189.730627 278.767284 
L 190.271161 278.767284 
L 190.285446 277.758449 
L 190.582769 277.758449 
L 190.582769 277.254031 
L 191.042884 277.254031 
L 191.042884 276.749613 
L 191.170442 276.749613 
L 191.170442 276.245195 
L 191.55727 276.245195 
L 191.55727 275.740777 
L 192.4175 275.740777 
L 192.4175 275.236359 
L 193.92815 275.236359 
L 193.92815 274.731941 
L 194.322557 274.731941 
L 194.322557 274.227523 
L 194.708577 274.227523 
L 194.708577 273.723105 
L 195.351027 273.723105 
L 195.351027 273.218688 
L 195.510174 273.218688 
L 195.510174 272.71427 
L 196.55512 272.71427 
L 196.55512 272.209852 
L 198.052892 272.209852 
L 198.052892 271.705434 
L 198.582235 271.705434 
L 198.582235 271.201016 
L 199.322181 271.201016 
L 199.322181 270.696598 
L 200.047092 270.696598 
L 200.047092 270.19218 
L 229.930001 270.19218 
L 229.97619 269.183344 
L 230.102828 269.183344 
L 230.201637 266.661255 
L 230.265176 266.661255 
L 230.265176 266.156837 
L 230.398677 266.156837 
L 230.461503 263.634748 
L 230.557619 263.634748 
L 230.609337 261.617076 
L 230.855045 261.617076 
L 230.855045 261.112658 
L 231.050771 261.112658 
L 231.050771 260.60824 
L 233.094401 260.60824 
L 233.094401 260.103822 
L 234.536214 260.103822 
L 234.62607 258.590569 
L 234.66619 258.590569 
L 234.728972 257.077315 
L 240.712282 257.077315 
L 240.813124 254.050808 
L 240.827203 254.050808 
L 240.827203 253.041972 
L 244.078332 253.041972 
L 244.123646 251.0243 
L 245.305874 251.0243 
L 245.373494 250.015465 
L 254.107793 250.015465 
L 254.215535 245.475704 
L 254.229809 245.475704 
L 254.315935 241.440361 
L 254.5641 241.440361 
L 254.5641 240.935943 
L 255.707557 240.935943 
L 255.765941 234.37851 
L 338.688 234.37851 
L 338.688 234.37851 
" style="fill:none;stroke:#6495ed;stroke-linecap:square;stroke-width:1.5;"/>
   </g>
   <g id="line2d_46">
    <defs>
     <path d="M -0 6 
L 6 -6 
L -6 -6 
z
" id="m01c8a982aa" style="stroke:#6495ed;stroke-linejoin:miter;stroke-width:1.5;"/>
    </defs>
    <g>
     <use style="fill-opacity:0;stroke:#6495ed;stroke-linejoin:miter;stroke-width:1.5;" x="133.307488" xlink:href="#m01c8a982aa" y="285.829135"/>
     <use style="fill-opacity:0;stroke:#6495ed;stroke-linejoin:miter;stroke-width:1.5;" x="230.398677" xlink:href="#m01c8a982aa" y="266.156837"/>
     <use style="fill-opacity:0;stroke:#6495ed;stroke-linejoin:miter;stroke-width:1.5;" x="255.765941" xlink:href="#m01c8a982aa" y="235.387346"/>
     <use style="fill-opacity:0;stroke:#6495ed;stroke-linejoin:miter;stroke-width:1.5;" x="255.765941" xlink:href="#m01c8a982aa" y="234.37851"/>
     <use style="fill-opacity:0;stroke:#6495ed;stroke-linejoin:miter;stroke-width:1.5;" x="338.688" xlink:href="#m01c8a982aa" y="234.37851"/>
    </g>
   </g>
   <g id="line2d_47">
    <path style="fill:none;stroke:#6495ed;stroke-linecap:square;stroke-width:1.5;"/>
    <g/>
   </g>
   <g id="line2d_48">
    <path clip-path="url(#p0cbd8616e9)" d="M 258.377143 234.37851 
" style="fill:none;stroke:#6495ed;stroke-linecap:square;stroke-width:1.5;"/>
    <defs>
     <path d="M -12 12 
L 12 -12 
M -12 -12 
L 12 12 
" id="m6f74bc02fb" style="stroke:#6495ed;"/>
    </defs>
    <g clip-path="url(#p0cbd8616e9)">
     <use style="fill:#6495ed;stroke:#6495ed;" x="258.377143" xlink:href="#m6f74bc02fb" y="234.37851"/>
    </g>
   </g>
   <g id="line2d_49">
    <path d="M 338.688 246.988957 
L 369.60768 293.092752 
" style="fill:none;stroke:#ff00ff;stroke-linecap:square;stroke-width:1.5;"/>
    <g>
     <use style="fill-opacity:0;stroke:#ff00ff;stroke-linejoin:miter;stroke-width:1.5;" x="338.688" xlink:href="#m50c8283b7a" y="246.988957"/>
     <use style="fill-opacity:0;stroke:#ff00ff;stroke-linejoin:miter;stroke-width:1.5;" x="369.60768" xlink:href="#m50c8283b7a" y="293.092752"/>
    </g>
   </g>
   <g id="line2d_50">
    <path d="M 338.688 234.37851 
L 369.60768 199.472792 
" style="fill:none;stroke:#6495ed;stroke-linecap:square;stroke-width:1.5;"/>
    <g>
     <use style="fill-opacity:0;stroke:#6495ed;stroke-linejoin:miter;stroke-width:1.5;" x="338.688" xlink:href="#m01c8a982aa" y="234.37851"/>
     <use style="fill-opacity:0;stroke:#6495ed;stroke-linejoin:miter;stroke-width:1.5;" x="369.60768" xlink:href="#m01c8a982aa" y="199.472792"/>
    </g>
   </g>
   <g id="line2d_51">
    <path d="M 338.688 138.539111 
L 369.60768 105.852832 
" style="fill:none;stroke:#000080;stroke-linecap:square;stroke-width:1.5;"/>
    <g>
     <use style="fill-opacity:0;stroke:#000080;stroke-width:1.5;" x="338.688" xlink:href="#m22420f25a7" y="138.539111"/>
     <use style="fill-opacity:0;stroke:#000080;stroke-width:1.5;" x="369.60768" xlink:href="#m22420f25a7" y="105.852832"/>
    </g>
   </g>
   <g id="line2d_52">
    <path d="M 338.688 127.946335 
L 369.60768 12.232871 
" style="fill:none;stroke:#ff7500;stroke-linecap:square;stroke-width:1.5;"/>
    <g>
     <use style="fill-opacity:0;stroke:#ff7500;stroke-linejoin:bevel;stroke-width:1.5;" x="338.688" xlink:href="#m39e39462b4" y="127.946335"/>
     <use style="fill-opacity:0;stroke:#ff7500;stroke-linejoin:bevel;stroke-width:1.5;" x="369.60768" xlink:href="#m39e39462b4" y="12.232871"/>
    </g>
   </g>
   <g id="line2d_53">
    <path d="M 338.688 298.944 
L 338.688 6.381624 
" style="fill:none;stroke:#000000;stroke-linecap:square;stroke-width:1.5;"/>
   </g>
   <g id="patch_3">
    <path d="M 57.6 298.944 
L 57.6 3.456 
" style="fill:none;stroke:#000000;stroke-linecap:square;stroke-linejoin:miter;stroke-width:0.8;"/>
   </g>
   <g id="patch_4">
    <path d="M 338.688 298.944 
L 338.688 3.456 
" style="fill:none;stroke:#000000;stroke-linecap:square;stroke-linejoin:miter;stroke-width:0.8;"/>
   </g>
   <g id="patch_5">
    <path d="M 57.6 298.944 
L 338.688 298.944 
" style="fill:none;stroke:#000000;stroke-linecap:square;stroke-linejoin:miter;stroke-width:0.8;"/>
   </g>
   <g id="patch_6">
    <path d="M 57.6 3.456 
L 338.688 3.456 
" style="fill:none;stroke:#000000;stroke-linecap:square;stroke-linejoin:miter;stroke-width:0.8;"/>
   </g>
   <g id="text_13">
    <!-- f27 -->
    <g transform="translate(375.22944 297.78369)scale(0.17 -0.17)">
     <defs>
      <path d="M 8.203125 72.90625 
L 55.078125 72.90625 
L 55.078125 68.703125 
L 28.609375 0 
L 18.3125 0 
L 43.21875 64.59375 
L 8.203125 64.59375 
z
" id="DejaVuSans-55"/>
     </defs>
     <use xlink:href="#DejaVuSans-102"/>
     <use x="35.205078" xlink:href="#DejaVuSans-50"/>
     <use x="98.828125" xlink:href="#DejaVuSans-55"/>
    </g>
   </g>
   <g id="text_14">
    <!-- f34 -->
    <g transform="translate(375.22944 204.16373)scale(0.17 -0.17)">
     <defs>
      <path d="M 40.578125 39.3125 
Q 47.65625 37.796875 51.625 33 
Q 55.609375 28.21875 55.609375 21.1875 
Q 55.609375 10.40625 48.1875 4.484375 
Q 40.765625 -1.421875 27.09375 -1.421875 
Q 22.515625 -1.421875 17.65625 -0.515625 
Q 12.796875 0.390625 7.625 2.203125 
L 7.625 11.71875 
Q 11.71875 9.328125 16.59375 8.109375 
Q 21.484375 6.890625 26.8125 6.890625 
Q 36.078125 6.890625 40.9375 10.546875 
Q 45.796875 14.203125 45.796875 21.1875 
Q 45.796875 27.640625 41.28125 31.265625 
Q 36.765625 34.90625 28.71875 34.90625 
L 20.21875 34.90625 
L 20.21875 43.015625 
L 29.109375 43.015625 
Q 36.375 43.015625 40.234375 45.921875 
Q 44.09375 48.828125 44.09375 54.296875 
Q 44.09375 59.90625 40.109375 62.90625 
Q 36.140625 65.921875 28.71875 65.921875 
Q 24.65625 65.921875 20.015625 65.03125 
Q 15.375 64.15625 9.8125 62.3125 
L 9.8125 71.09375 
Q 15.4375 72.65625 20.34375 73.4375 
Q 25.25 74.21875 29.59375 74.21875 
Q 40.828125 74.21875 47.359375 69.109375 
Q 53.90625 64.015625 53.90625 55.328125 
Q 53.90625 49.265625 50.4375 45.09375 
Q 46.96875 40.921875 40.578125 39.3125 
z
" id="DejaVuSans-51"/>
     </defs>
     <use xlink:href="#DejaVuSans-102"/>
     <use x="35.205078" xlink:href="#DejaVuSans-51"/>
     <use x="98.828125" xlink:href="#DejaVuSans-52"/>
    </g>
   </g>
   <g id="text_15">
    <!-- f26 -->
    <g transform="translate(375.22944 110.543769)scale(0.17 -0.17)">
     <use xlink:href="#DejaVuSans-102"/>
     <use x="35.205078" xlink:href="#DejaVuSans-50"/>
     <use x="98.828125" xlink:href="#DejaVuSans-54"/>
    </g>
   </g>
   <g id="text_16">
    <!-- f33 -->
    <g transform="translate(375.22944 16.923809)scale(0.17 -0.17)">
     <use xlink:href="#DejaVuSans-102"/>
     <use x="35.205078" xlink:href="#DejaVuSans-51"/>
     <use x="98.828125" xlink:href="#DejaVuSans-51"/>
    </g>
   </g>
   <g id="text_17">
    <!-- bbob-biobj -->
    <g transform="translate(60.41088 14.161286)scale(0.102 -0.102)">
     <defs>
      <path d="M 48.6875 27.296875 
Q 48.6875 37.203125 44.609375 42.84375 
Q 40.53125 48.484375 33.40625 48.484375 
Q 26.265625 48.484375 22.1875 42.84375 
Q 18.109375 37.203125 18.109375 27.296875 
Q 18.109375 17.390625 22.1875 11.75 
Q 26.265625 6.109375 33.40625 6.109375 
Q 40.53125 6.109375 44.609375 11.75 
Q 48.6875 17.390625 48.6875 27.296875 
z
M 18.109375 46.390625 
Q 20.953125 51.265625 25.265625 53.625 
Q 29.59375 56 35.59375 56 
Q 45.5625 56 51.78125 48.09375 
Q 58.015625 40.1875 58.015625 27.296875 
Q 58.015625 14.40625 51.78125 6.484375 
Q 45.5625 -1.421875 35.59375 -1.421875 
Q 29.59375 -1.421875 25.265625 0.953125 
Q 20.953125 3.328125 18.109375 8.203125 
L 18.109375 0 
L 9.078125 0 
L 9.078125 75.984375 
L 18.109375 75.984375 
z
" id="DejaVuSans-98"/>
      <path d="M 9.421875 54.6875 
L 18.40625 54.6875 
L 18.40625 -0.984375 
Q 18.40625 -11.421875 14.421875 -16.109375 
Q 10.453125 -20.796875 1.609375 -20.796875 
L -1.8125 -20.796875 
L -1.8125 -13.1875 
L 0.59375 -13.1875 
Q 5.71875 -13.1875 7.5625 -10.8125 
Q 9.421875 -8.453125 9.421875 -0.984375 
z
M 9.421875 75.984375 
L 18.40625 75.984375 
L 18.40625 64.59375 
L 9.421875 64.59375 
z
" id="DejaVuSans-106"/>
     </defs>
     <use xlink:href="#DejaVuSans-98"/>
     <use x="63.476562" xlink:href="#DejaVuSans-98"/>
     <use x="126.953125" xlink:href="#DejaVuSans-111"/>
     <use x="188.134766" xlink:href="#DejaVuSans-98"/>
     <use x="251.611328" xlink:href="#DejaVuSans-45"/>
     <use x="287.695312" xlink:href="#DejaVuSans-98"/>
     <use x="351.171875" xlink:href="#DejaVuSans-105"/>
     <use x="378.955078" xlink:href="#DejaVuSans-111"/>
     <use x="440.136719" xlink:href="#DejaVuSans-98"/>
     <use x="503.613281" xlink:href="#DejaVuSans-106"/>
    </g>
    <!-- 2-moderate 5-weakly-structured, 20-D -->
    <g transform="translate(60.41088 25.583055)scale(0.102 -0.102)">
     <defs>
      <path d="M 10.796875 72.90625 
L 49.515625 72.90625 
L 49.515625 64.59375 
L 19.828125 64.59375 
L 19.828125 46.734375 
Q 21.96875 47.46875 24.109375 47.828125 
Q 26.265625 48.1875 28.421875 48.1875 
Q 40.625 48.1875 47.75 41.5 
Q 54.890625 34.8125 54.890625 23.390625 
Q 54.890625 11.625 47.5625 5.09375 
Q 40.234375 -1.421875 26.90625 -1.421875 
Q 22.3125 -1.421875 17.546875 -0.640625 
Q 12.796875 0.140625 7.71875 1.703125 
L 7.71875 11.625 
Q 12.109375 9.234375 16.796875 8.0625 
Q 21.484375 6.890625 26.703125 6.890625 
Q 35.15625 6.890625 40.078125 11.328125 
Q 45.015625 15.765625 45.015625 23.390625 
Q 45.015625 31 40.078125 35.4375 
Q 35.15625 39.890625 26.703125 39.890625 
Q 22.75 39.890625 18.8125 39.015625 
Q 14.890625 38.140625 10.796875 36.28125 
z
" id="DejaVuSans-53"/>
      <path d="M 4.203125 54.6875 
L 13.1875 54.6875 
L 24.421875 12.015625 
L 35.59375 54.6875 
L 46.1875 54.6875 
L 57.421875 12.015625 
L 68.609375 54.6875 
L 77.59375 54.6875 
L 63.28125 0 
L 52.6875 0 
L 40.921875 44.828125 
L 29.109375 0 
L 18.5 0 
z
" id="DejaVuSans-119"/>
      <path d="M 9.078125 75.984375 
L 18.109375 75.984375 
L 18.109375 31.109375 
L 44.921875 54.6875 
L 56.390625 54.6875 
L 27.390625 29.109375 
L 57.625 0 
L 45.90625 0 
L 18.109375 26.703125 
L 18.109375 0 
L 9.078125 0 
z
" id="DejaVuSans-107"/>
      <path d="M 32.171875 -5.078125 
Q 28.375 -14.84375 24.75 -17.8125 
Q 21.140625 -20.796875 15.09375 -20.796875 
L 7.90625 -20.796875 
L 7.90625 -13.28125 
L 13.1875 -13.28125 
Q 16.890625 -13.28125 18.9375 -11.515625 
Q 21 -9.765625 23.484375 -3.21875 
L 25.09375 0.875 
L 2.984375 54.6875 
L 12.5 54.6875 
L 29.59375 11.921875 
L 46.6875 54.6875 
L 56.203125 54.6875 
z
" id="DejaVuSans-121"/>
      <path d="M 19.671875 64.796875 
L 19.671875 8.109375 
L 31.59375 8.109375 
Q 46.6875 8.109375 53.6875 14.9375 
Q 60.6875 21.78125 60.6875 36.53125 
Q 60.6875 51.171875 53.6875 57.984375 
Q 46.6875 64.796875 31.59375 64.796875 
z
M 9.8125 72.90625 
L 30.078125 72.90625 
Q 51.265625 72.90625 61.171875 64.09375 
Q 71.09375 55.28125 71.09375 36.53125 
Q 71.09375 17.671875 61.125 8.828125 
Q 51.171875 0 30.078125 0 
L 9.8125 0 
z
" id="DejaVuSans-68"/>
     </defs>
     <use xlink:href="#DejaVuSans-50"/>
     <use x="63.623047" xlink:href="#DejaVuSans-45"/>
     <use x="99.707031" xlink:href="#DejaVuSans-109"/>
     <use x="197.119141" xlink:href="#DejaVuSans-111"/>
     <use x="258.300781" xlink:href="#DejaVuSans-100"/>
     <use x="321.777344" xlink:href="#DejaVuSans-101"/>
     <use x="383.300781" xlink:href="#DejaVuSans-114"/>
     <use x="424.414062" xlink:href="#DejaVuSans-97"/>
     <use x="485.693359" xlink:href="#DejaVuSans-116"/>
     <use x="524.902344" xlink:href="#DejaVuSans-101"/>
     <use x="586.425781" xlink:href="#DejaVuSans-32"/>
     <use x="618.212891" xlink:href="#DejaVuSans-53"/>
     <use x="681.835938" xlink:href="#DejaVuSans-45"/>
     <use x="717.919922" xlink:href="#DejaVuSans-119"/>
     <use x="799.707031" xlink:href="#DejaVuSans-101"/>
     <use x="861.230469" xlink:href="#DejaVuSans-97"/>
     <use x="922.509766" xlink:href="#DejaVuSans-107"/>
     <use x="980.419922" xlink:href="#DejaVuSans-108"/>
     <use x="1008.203125" xlink:href="#DejaVuSans-121"/>
     <use x="1065.632812" xlink:href="#DejaVuSans-45"/>
     <use x="1101.716797" xlink:href="#DejaVuSans-115"/>
     <use x="1153.816406" xlink:href="#DejaVuSans-116"/>
     <use x="1193.025391" xlink:href="#DejaVuSans-114"/>
     <use x="1234.138672" xlink:href="#DejaVuSans-117"/>
     <use x="1297.517578" xlink:href="#DejaVuSans-99"/>
     <use x="1352.498047" xlink:href="#DejaVuSans-116"/>
     <use x="1391.707031" xlink:href="#DejaVuSans-117"/>
     <use x="1455.085938" xlink:href="#DejaVuSans-114"/>
     <use x="1493.949219" xlink:href="#DejaVuSans-101"/>
     <use x="1555.472656" xlink:href="#DejaVuSans-100"/>
     <use x="1618.949219" xlink:href="#DejaVuSans-44"/>
     <use x="1650.736328" xlink:href="#DejaVuSans-32"/>
     <use x="1682.523438" xlink:href="#DejaVuSans-50"/>
     <use x="1746.146484" xlink:href="#DejaVuSans-48"/>
     <use x="1809.769531" xlink:href="#DejaVuSans-45"/>
     <use x="1845.853516" xlink:href="#DejaVuSans-68"/>
    </g>
    <!-- 58 targets: 1..-1.0e-4 -->
    <g transform="translate(60.41088 37.004824)scale(0.102 -0.102)">
     <defs>
      <path d="M 11.71875 12.40625 
L 22.015625 12.40625 
L 22.015625 0 
L 11.71875 0 
z
M 11.71875 51.703125 
L 22.015625 51.703125 
L 22.015625 39.3125 
L 11.71875 39.3125 
z
" id="DejaVuSans-58"/>
     </defs>
     <use xlink:href="#DejaVuSans-53"/>
     <use x="63.623047" xlink:href="#DejaVuSans-56"/>
     <use x="127.246094" xlink:href="#DejaVuSans-32"/>
     <use x="159.033203" xlink:href="#DejaVuSans-116"/>
     <use x="198.242188" xlink:href="#DejaVuSans-97"/>
     <use x="259.521484" xlink:href="#DejaVuSans-114"/>
     <use x="298.884766" xlink:href="#DejaVuSans-103"/>
     <use x="362.361328" xlink:href="#DejaVuSans-101"/>
     <use x="423.884766" xlink:href="#DejaVuSans-116"/>
     <use x="463.09375" xlink:href="#DejaVuSans-115"/>
     <use x="515.193359" xlink:href="#DejaVuSans-58"/>
     <use x="548.884766" xlink:href="#DejaVuSans-32"/>
     <use x="580.671875" xlink:href="#DejaVuSans-49"/>
     <use x="644.294922" xlink:href="#DejaVuSans-46"/>
     <use x="676.082031" xlink:href="#DejaVuSans-46"/>
     <use x="707.869141" xlink:href="#DejaVuSans-45"/>
     <use x="743.953125" xlink:href="#DejaVuSans-49"/>
     <use x="807.576172" xlink:href="#DejaVuSans-46"/>
     <use x="839.363281" xlink:href="#DejaVuSans-48"/>
     <use x="902.986328" xlink:href="#DejaVuSans-101"/>
     <use x="964.509766" xlink:href="#DejaVuSans-45"/>
     <use x="1000.59375" xlink:href="#DejaVuSans-52"/>
    </g>
    <!-- 10 instances -->
    <g transform="translate(60.41088 48.426593)scale(0.102 -0.102)">
     <use xlink:href="#DejaVuSans-49"/>
     <use x="63.623047" xlink:href="#DejaVuSans-48"/>
     <use x="127.246094" xlink:href="#DejaVuSans-32"/>
     <use x="159.033203" xlink:href="#DejaVuSans-105"/>
     <use x="186.816406" xlink:href="#DejaVuSans-110"/>
     <use x="250.195312" xlink:href="#DejaVuSans-115"/>
     <use x="302.294922" xlink:href="#DejaVuSans-116"/>
     <use x="341.503906" xlink:href="#DejaVuSans-97"/>
     <use x="402.783203" xlink:href="#DejaVuSans-110"/>
     <use x="466.162109" xlink:href="#DejaVuSans-99"/>
     <use x="521.142578" xlink:href="#DejaVuSans-101"/>
     <use x="582.666016" xlink:href="#DejaVuSans-115"/>
    </g>
   </g>
   <g id="text_18">
    <!-- v2.4, hv-hash=ff0e71e8cd978373 -->
    <g style="fill:#808080;" transform="translate(112.648687 293.909432)scale(0.1 -0.1)">
     <defs>
      <path d="M 54.890625 33.015625 
L 54.890625 0 
L 45.90625 0 
L 45.90625 32.71875 
Q 45.90625 40.484375 42.875 44.328125 
Q 39.84375 48.1875 33.796875 48.1875 
Q 26.515625 48.1875 22.3125 43.546875 
Q 18.109375 38.921875 18.109375 30.90625 
L 18.109375 0 
L 9.078125 0 
L 9.078125 75.984375 
L 18.109375 75.984375 
L 18.109375 46.1875 
Q 21.34375 51.125 25.703125 53.5625 
Q 30.078125 56 35.796875 56 
Q 45.21875 56 50.046875 50.171875 
Q 54.890625 44.34375 54.890625 33.015625 
z
" id="DejaVuSans-104"/>
      <path d="M 10.59375 45.40625 
L 73.1875 45.40625 
L 73.1875 37.203125 
L 10.59375 37.203125 
z
M 10.59375 25.484375 
L 73.1875 25.484375 
L 73.1875 17.1875 
L 10.59375 17.1875 
z
" id="DejaVuSans-61"/>
      <path d="M 10.984375 1.515625 
L 10.984375 10.5 
Q 14.703125 8.734375 18.5 7.8125 
Q 22.3125 6.890625 25.984375 6.890625 
Q 35.75 6.890625 40.890625 13.453125 
Q 46.046875 20.015625 46.78125 33.40625 
Q 43.953125 29.203125 39.59375 26.953125 
Q 35.25 24.703125 29.984375 24.703125 
Q 19.046875 24.703125 12.671875 31.3125 
Q 6.296875 37.9375 6.296875 49.421875 
Q 6.296875 60.640625 12.9375 67.421875 
Q 19.578125 74.21875 30.609375 74.21875 
Q 43.265625 74.21875 49.921875 64.515625 
Q 56.59375 54.828125 56.59375 36.375 
Q 56.59375 19.140625 48.40625 8.859375 
Q 40.234375 -1.421875 26.421875 -1.421875 
Q 22.703125 -1.421875 18.890625 -0.6875 
Q 15.09375 0.046875 10.984375 1.515625 
z
M 30.609375 32.421875 
Q 37.25 32.421875 41.125 36.953125 
Q 45.015625 41.5 45.015625 49.421875 
Q 45.015625 57.28125 41.125 61.84375 
Q 37.25 66.40625 30.609375 66.40625 
Q 23.96875 66.40625 20.09375 61.84375 
Q 16.21875 57.28125 16.21875 49.421875 
Q 16.21875 41.5 20.09375 36.953125 
Q 23.96875 32.421875 30.609375 32.421875 
z
" id="DejaVuSans-57"/>
     </defs>
     <use xlink:href="#DejaVuSans-118"/>
     <use x="59.179688" xlink:href="#DejaVuSans-50"/>
     <use x="122.802734" xlink:href="#DejaVuSans-46"/>
     <use x="154.589844" xlink:href="#DejaVuSans-52"/>
     <use x="218.212891" xlink:href="#DejaVuSans-44"/>
     <use x="250" xlink:href="#DejaVuSans-32"/>
     <use x="281.787109" xlink:href="#DejaVuSans-104"/>
     <use x="345.166016" xlink:href="#DejaVuSans-118"/>
     <use x="401.720703" xlink:href="#DejaVuSans-45"/>
     <use x="437.804688" xlink:href="#DejaVuSans-104"/>
     <use x="501.183594" xlink:href="#DejaVuSans-97"/>
     <use x="562.462891" xlink:href="#DejaVuSans-115"/>
     <use x="614.5625" xlink:href="#DejaVuSans-104"/>
     <use x="677.941406" xlink:href="#DejaVuSans-61"/>
     <use x="761.730469" xlink:href="#DejaVuSans-102"/>
     <use x="796.935547" xlink:href="#DejaVuSans-102"/>
     <use x="832.140625" xlink:href="#DejaVuSans-48"/>
     <use x="895.763672" xlink:href="#DejaVuSans-101"/>
     <use x="957.287109" xlink:href="#DejaVuSans-55"/>
     <use x="1020.910156" xlink:href="#DejaVuSans-49"/>
     <use x="1084.533203" xlink:href="#DejaVuSans-101"/>
     <use x="1146.056641" xlink:href="#DejaVuSans-56"/>
     <use x="1209.679688" xlink:href="#DejaVuSans-99"/>
     <use x="1264.660156" xlink:href="#DejaVuSans-100"/>
     <use x="1328.136719" xlink:href="#DejaVuSans-57"/>
     <use x="1391.759766" xlink:href="#DejaVuSans-55"/>
     <use x="1455.382812" xlink:href="#DejaVuSans-56"/>
     <use x="1519.005859" xlink:href="#DejaVuSans-51"/>
     <use x="1582.628906" xlink:href="#DejaVuSans-55"/>
     <use x="1646.251953" xlink:href="#DejaVuSans-51"/>
    </g>
   </g>
  </g>
 </g>
 <defs>
  <clipPath id="p0cbd8616e9">
   <rect height="295.488" width="281.088" x="57.6" y="3.456"/>
  </clipPath>
 </defs>
</svg>
