<?xml version="1.0" encoding="utf-8" standalone="no"?>
<!DOCTYPE svg PUBLIC "-//W3C//DTD SVG 1.1//EN"
  "http://www.w3.org/Graphics/SVG/1.1/DTD/svg11.dtd">
<!-- Created with matplotlib (https://matplotlib.org/) -->
<svg height="345.6pt" version="1.1" viewBox="0 0 460.8 345.6" width="460.8pt" xmlns="http://www.w3.org/2000/svg" xmlns:xlink="http://www.w3.org/1999/xlink">
 <metadata>
  <rdf:RDF xmlns:cc="http://creativecommons.org/ns#" xmlns:dc="http://purl.org/dc/elements/1.1/" xmlns:rdf="http://www.w3.org/1999/02/22-rdf-syntax-ns#">
   <cc:Work>
    <dc:type rdf:resource="http://purl.org/dc/dcmitype/StillImage"/>
    <dc:date>2021-03-30T16:54:59.313436</dc:date>
    <dc:format>image/svg+xml</dc:format>
    <dc:creator>
     <cc:Agent>
      <dc:title>Matplotlib v3.3.4, https://matplotlib.org/</dc:title>
     </cc:Agent>
    </dc:creator>
   </cc:Work>
  </rdf:RDF>
 </metadata>
 <defs>
  <style type="text/css">*{stroke-linecap:butt;stroke-linejoin:round;}</style>
 </defs>
 <g id="figure_1">
  <g id="patch_1">
   <path d="M 0 345.6 
L 460.8 345.6 
L 460.8 0 
L 0 0 
z
" style="fill:#ffffff;"/>
  </g>
  <g id="axes_1">
   <g id="patch_2">
    <path d="M 57.6 298.944 
L 338.688 298.944 
L 338.688 3.456 
L 57.6 3.456 
z
" style="fill:#ffffff;"/>
   </g>
   <g id="matplotlib.axis_1">
    <g id="xtick_1">
     <g id="line2d_1">
      <path clip-path="url(#p8baa1e8485)" d="M 57.6 298.944 
L 57.6 3.456 
" style="fill:none;stroke:#b0b0b0;stroke-linecap:square;stroke-width:0.8;"/>
     </g>
     <g id="line2d_2">
      <defs>
       <path d="M 0 0 
L 0 3.5 
" id="md147ee7844" style="stroke:#000000;stroke-width:0.8;"/>
      </defs>
      <g>
       <use style="stroke:#000000;stroke-width:0.8;" x="57.6" xlink:href="#md147ee7844" y="298.944"/>
      </g>
     </g>
     <g id="text_1">
      <!-- 0 -->
      <g transform="translate(51.2375 321.140875)scale(0.2 -0.2)">
       <defs>
        <path d="M 31.78125 66.40625 
Q 24.171875 66.40625 20.328125 58.90625 
Q 16.5 51.421875 16.5 36.375 
Q 16.5 21.390625 20.328125 13.890625 
Q 24.171875 6.390625 31.78125 6.390625 
Q 39.453125 6.390625 43.28125 13.890625 
Q 47.125 21.390625 47.125 36.375 
Q 47.125 51.421875 43.28125 58.90625 
Q 39.453125 66.40625 31.78125 66.40625 
z
M 31.78125 74.21875 
Q 44.046875 74.21875 50.515625 64.515625 
Q 56.984375 54.828125 56.984375 36.375 
Q 56.984375 17.96875 50.515625 8.265625 
Q 44.046875 -1.421875 31.78125 -1.421875 
Q 19.53125 -1.421875 13.0625 8.265625 
Q 6.59375 17.96875 6.59375 36.375 
Q 6.59375 54.828125 13.0625 64.515625 
Q 19.53125 74.21875 31.78125 74.21875 
z
" id="DejaVuSans-48"/>
       </defs>
       <use xlink:href="#DejaVuSans-48"/>
      </g>
     </g>
    </g>
    <g id="xtick_2">
     <g id="line2d_3">
      <path clip-path="url(#p8baa1e8485)" d="M 137.910857 298.944 
L 137.910857 3.456 
" style="fill:none;stroke:#b0b0b0;stroke-linecap:square;stroke-width:0.8;"/>
     </g>
     <g id="line2d_4">
      <g>
       <use style="stroke:#000000;stroke-width:0.8;" x="137.910857" xlink:href="#md147ee7844" y="298.944"/>
      </g>
     </g>
     <g id="text_2">
      <!-- 2 -->
      <g transform="translate(131.548357 321.140875)scale(0.2 -0.2)">
       <defs>
        <path d="M 19.1875 8.296875 
L 53.609375 8.296875 
L 53.609375 0 
L 7.328125 0 
L 7.328125 8.296875 
Q 12.9375 14.109375 22.625 23.890625 
Q 32.328125 33.6875 34.8125 36.53125 
Q 39.546875 41.84375 41.421875 45.53125 
Q 43.3125 49.21875 43.3125 52.78125 
Q 43.3125 58.59375 39.234375 62.25 
Q 35.15625 65.921875 28.609375 65.921875 
Q 23.96875 65.921875 18.8125 64.3125 
Q 13.671875 62.703125 7.8125 59.421875 
L 7.8125 69.390625 
Q 13.765625 71.78125 18.9375 73 
Q 24.125 74.21875 28.421875 74.21875 
Q 39.75 74.21875 46.484375 68.546875 
Q 53.21875 62.890625 53.21875 53.421875 
Q 53.21875 48.921875 51.53125 44.890625 
Q 49.859375 40.875 45.40625 35.40625 
Q 44.1875 33.984375 37.640625 27.21875 
Q 31.109375 20.453125 19.1875 8.296875 
z
" id="DejaVuSans-50"/>
       </defs>
       <use xlink:href="#DejaVuSans-50"/>
      </g>
     </g>
    </g>
    <g id="xtick_3">
     <g id="line2d_5">
      <path clip-path="url(#p8baa1e8485)" d="M 218.221714 298.944 
L 218.221714 3.456 
" style="fill:none;stroke:#b0b0b0;stroke-linecap:square;stroke-width:0.8;"/>
     </g>
     <g id="line2d_6">
      <g>
       <use style="stroke:#000000;stroke-width:0.8;" x="218.221714" xlink:href="#md147ee7844" y="298.944"/>
      </g>
     </g>
     <g id="text_3">
      <!-- 4 -->
      <g transform="translate(211.859214 321.140875)scale(0.2 -0.2)">
       <defs>
        <path d="M 37.796875 64.3125 
L 12.890625 25.390625 
L 37.796875 25.390625 
z
M 35.203125 72.90625 
L 47.609375 72.90625 
L 47.609375 25.390625 
L 58.015625 25.390625 
L 58.015625 17.1875 
L 47.609375 17.1875 
L 47.609375 0 
L 37.796875 0 
L 37.796875 17.1875 
L 4.890625 17.1875 
L 4.890625 26.703125 
z
" id="DejaVuSans-52"/>
       </defs>
       <use xlink:href="#DejaVuSans-52"/>
      </g>
     </g>
    </g>
    <g id="xtick_4">
     <g id="line2d_7">
      <path clip-path="url(#p8baa1e8485)" d="M 298.532571 298.944 
L 298.532571 3.456 
" style="fill:none;stroke:#b0b0b0;stroke-linecap:square;stroke-width:0.8;"/>
     </g>
     <g id="line2d_8">
      <g>
       <use style="stroke:#000000;stroke-width:0.8;" x="298.532571" xlink:href="#md147ee7844" y="298.944"/>
      </g>
     </g>
     <g id="text_4">
      <!-- 6 -->
      <g transform="translate(292.170071 321.140875)scale(0.2 -0.2)">
       <defs>
        <path d="M 33.015625 40.375 
Q 26.375 40.375 22.484375 35.828125 
Q 18.609375 31.296875 18.609375 23.390625 
Q 18.609375 15.53125 22.484375 10.953125 
Q 26.375 6.390625 33.015625 6.390625 
Q 39.65625 6.390625 43.53125 10.953125 
Q 47.40625 15.53125 47.40625 23.390625 
Q 47.40625 31.296875 43.53125 35.828125 
Q 39.65625 40.375 33.015625 40.375 
z
M 52.59375 71.296875 
L 52.59375 62.3125 
Q 48.875 64.0625 45.09375 64.984375 
Q 41.3125 65.921875 37.59375 65.921875 
Q 27.828125 65.921875 22.671875 59.328125 
Q 17.53125 52.734375 16.796875 39.40625 
Q 19.671875 43.65625 24.015625 45.921875 
Q 28.375 48.1875 33.59375 48.1875 
Q 44.578125 48.1875 50.953125 41.515625 
Q 57.328125 34.859375 57.328125 23.390625 
Q 57.328125 12.15625 50.6875 5.359375 
Q 44.046875 -1.421875 33.015625 -1.421875 
Q 20.359375 -1.421875 13.671875 8.265625 
Q 6.984375 17.96875 6.984375 36.375 
Q 6.984375 53.65625 15.1875 63.9375 
Q 23.390625 74.21875 37.203125 74.21875 
Q 40.921875 74.21875 44.703125 73.484375 
Q 48.484375 72.75 52.59375 71.296875 
z
" id="DejaVuSans-54"/>
       </defs>
       <use xlink:href="#DejaVuSans-54"/>
      </g>
     </g>
    </g>
    <g id="xtick_5">
     <g id="line2d_9">
      <path clip-path="url(#p8baa1e8485)" d="M 97.755429 298.944 
L 97.755429 3.456 
" style="fill:none;stroke:#b0b0b0;stroke-linecap:square;stroke-width:0.8;"/>
     </g>
     <g id="line2d_10">
      <defs>
       <path d="M 0 0 
L 0 2 
" id="me15f8813c6" style="stroke:#000000;stroke-width:0.6;"/>
      </defs>
      <g>
       <use style="stroke:#000000;stroke-width:0.6;" x="97.755429" xlink:href="#me15f8813c6" y="298.944"/>
      </g>
     </g>
    </g>
    <g id="xtick_6">
     <g id="line2d_11">
      <path clip-path="url(#p8baa1e8485)" d="M 178.066286 298.944 
L 178.066286 3.456 
" style="fill:none;stroke:#b0b0b0;stroke-linecap:square;stroke-width:0.8;"/>
     </g>
     <g id="line2d_12">
      <g>
       <use style="stroke:#000000;stroke-width:0.6;" x="178.066286" xlink:href="#me15f8813c6" y="298.944"/>
      </g>
     </g>
    </g>
    <g id="xtick_7">
     <g id="line2d_13">
      <path clip-path="url(#p8baa1e8485)" d="M 258.377143 298.944 
L 258.377143 3.456 
" style="fill:none;stroke:#b0b0b0;stroke-linecap:square;stroke-width:0.8;"/>
     </g>
     <g id="line2d_14">
      <g>
       <use style="stroke:#000000;stroke-width:0.6;" x="258.377143" xlink:href="#me15f8813c6" y="298.944"/>
      </g>
     </g>
    </g>
    <g id="xtick_8">
     <g id="line2d_15">
      <path clip-path="url(#p8baa1e8485)" d="M 338.688 298.944 
L 338.688 3.456 
" style="fill:none;stroke:#b0b0b0;stroke-linecap:square;stroke-width:0.8;"/>
     </g>
     <g id="line2d_16">
      <g>
       <use style="stroke:#000000;stroke-width:0.6;" x="338.688" xlink:href="#me15f8813c6" y="298.944"/>
      </g>
     </g>
    </g>
    <g id="text_5">
     <!-- log10(# f-evals / dimension) -->
     <g transform="translate(77.764078 342.217594)scale(0.17 -0.17)">
      <defs>
       <path d="M 9.421875 75.984375 
L 18.40625 75.984375 
L 18.40625 0 
L 9.421875 0 
z
" id="DejaVuSans-108"/>
       <path d="M 30.609375 48.390625 
Q 23.390625 48.390625 19.1875 42.75 
Q 14.984375 37.109375 14.984375 27.296875 
Q 14.984375 17.484375 19.15625 11.84375 
Q 23.34375 6.203125 30.609375 6.203125 
Q 37.796875 6.203125 41.984375 11.859375 
Q 46.1875 17.53125 46.1875 27.296875 
Q 46.1875 37.015625 41.984375 42.703125 
Q 37.796875 48.390625 30.609375 48.390625 
z
M 30.609375 56 
Q 42.328125 56 49.015625 48.375 
Q 55.71875 40.765625 55.71875 27.296875 
Q 55.71875 13.875 49.015625 6.21875 
Q 42.328125 -1.421875 30.609375 -1.421875 
Q 18.84375 -1.421875 12.171875 6.21875 
Q 5.515625 13.875 5.515625 27.296875 
Q 5.515625 40.765625 12.171875 48.375 
Q 18.84375 56 30.609375 56 
z
" id="DejaVuSans-111"/>
       <path d="M 45.40625 27.984375 
Q 45.40625 37.75 41.375 43.109375 
Q 37.359375 48.484375 30.078125 48.484375 
Q 22.859375 48.484375 18.828125 43.109375 
Q 14.796875 37.75 14.796875 27.984375 
Q 14.796875 18.265625 18.828125 12.890625 
Q 22.859375 7.515625 30.078125 7.515625 
Q 37.359375 7.515625 41.375 12.890625 
Q 45.40625 18.265625 45.40625 27.984375 
z
M 54.390625 6.78125 
Q 54.390625 -7.171875 48.1875 -13.984375 
Q 42 -20.796875 29.203125 -20.796875 
Q 24.46875 -20.796875 20.265625 -20.09375 
Q 16.0625 -19.390625 12.109375 -17.921875 
L 12.109375 -9.1875 
Q 16.0625 -11.328125 19.921875 -12.34375 
Q 23.78125 -13.375 27.78125 -13.375 
Q 36.625 -13.375 41.015625 -8.765625 
Q 45.40625 -4.15625 45.40625 5.171875 
L 45.40625 9.625 
Q 42.625 4.78125 38.28125 2.390625 
Q 33.9375 0 27.875 0 
Q 17.828125 0 11.671875 7.65625 
Q 5.515625 15.328125 5.515625 27.984375 
Q 5.515625 40.671875 11.671875 48.328125 
Q 17.828125 56 27.875 56 
Q 33.9375 56 38.28125 53.609375 
Q 42.625 51.21875 45.40625 46.390625 
L 45.40625 54.6875 
L 54.390625 54.6875 
z
" id="DejaVuSans-103"/>
       <path d="M 12.40625 8.296875 
L 28.515625 8.296875 
L 28.515625 63.921875 
L 10.984375 60.40625 
L 10.984375 69.390625 
L 28.421875 72.90625 
L 38.28125 72.90625 
L 38.28125 8.296875 
L 54.390625 8.296875 
L 54.390625 0 
L 12.40625 0 
z
" id="DejaVuSans-49"/>
       <path d="M 31 75.875 
Q 24.46875 64.65625 21.28125 53.65625 
Q 18.109375 42.671875 18.109375 31.390625 
Q 18.109375 20.125 21.3125 9.0625 
Q 24.515625 -2 31 -13.1875 
L 23.1875 -13.1875 
Q 15.875 -1.703125 12.234375 9.375 
Q 8.59375 20.453125 8.59375 31.390625 
Q 8.59375 42.28125 12.203125 53.3125 
Q 15.828125 64.359375 23.1875 75.875 
z
" id="DejaVuSans-40"/>
       <path d="M 51.125 44 
L 36.921875 44 
L 32.8125 27.6875 
L 47.125 27.6875 
z
M 43.796875 71.78125 
L 38.71875 51.515625 
L 52.984375 51.515625 
L 58.109375 71.78125 
L 65.921875 71.78125 
L 60.890625 51.515625 
L 76.125 51.515625 
L 76.125 44 
L 58.984375 44 
L 54.984375 27.6875 
L 70.515625 27.6875 
L 70.515625 20.21875 
L 53.078125 20.21875 
L 48 0 
L 40.1875 0 
L 45.21875 20.21875 
L 30.90625 20.21875 
L 25.875 0 
L 18.015625 0 
L 23.09375 20.21875 
L 7.71875 20.21875 
L 7.71875 27.6875 
L 24.90625 27.6875 
L 29 44 
L 13.28125 44 
L 13.28125 51.515625 
L 30.90625 51.515625 
L 35.890625 71.78125 
z
" id="DejaVuSans-35"/>
       <path id="DejaVuSans-32"/>
       <path d="M 37.109375 75.984375 
L 37.109375 68.5 
L 28.515625 68.5 
Q 23.6875 68.5 21.796875 66.546875 
Q 19.921875 64.59375 19.921875 59.515625 
L 19.921875 54.6875 
L 34.71875 54.6875 
L 34.71875 47.703125 
L 19.921875 47.703125 
L 19.921875 0 
L 10.890625 0 
L 10.890625 47.703125 
L 2.296875 47.703125 
L 2.296875 54.6875 
L 10.890625 54.6875 
L 10.890625 58.5 
Q 10.890625 67.625 15.140625 71.796875 
Q 19.390625 75.984375 28.609375 75.984375 
z
" id="DejaVuSans-102"/>
       <path d="M 4.890625 31.390625 
L 31.203125 31.390625 
L 31.203125 23.390625 
L 4.890625 23.390625 
z
" id="DejaVuSans-45"/>
       <path d="M 56.203125 29.59375 
L 56.203125 25.203125 
L 14.890625 25.203125 
Q 15.484375 15.921875 20.484375 11.0625 
Q 25.484375 6.203125 34.421875 6.203125 
Q 39.59375 6.203125 44.453125 7.46875 
Q 49.3125 8.734375 54.109375 11.28125 
L 54.109375 2.78125 
Q 49.265625 0.734375 44.1875 -0.34375 
Q 39.109375 -1.421875 33.890625 -1.421875 
Q 20.796875 -1.421875 13.15625 6.1875 
Q 5.515625 13.8125 5.515625 26.8125 
Q 5.515625 40.234375 12.765625 48.109375 
Q 20.015625 56 32.328125 56 
Q 43.359375 56 49.78125 48.890625 
Q 56.203125 41.796875 56.203125 29.59375 
z
M 47.21875 32.234375 
Q 47.125 39.59375 43.09375 43.984375 
Q 39.0625 48.390625 32.421875 48.390625 
Q 24.90625 48.390625 20.390625 44.140625 
Q 15.875 39.890625 15.1875 32.171875 
z
" id="DejaVuSans-101"/>
       <path d="M 2.984375 54.6875 
L 12.5 54.6875 
L 29.59375 8.796875 
L 46.6875 54.6875 
L 56.203125 54.6875 
L 35.6875 0 
L 23.484375 0 
z
" id="DejaVuSans-118"/>
       <path d="M 34.28125 27.484375 
Q 23.390625 27.484375 19.1875 25 
Q 14.984375 22.515625 14.984375 16.5 
Q 14.984375 11.71875 18.140625 8.90625 
Q 21.296875 6.109375 26.703125 6.109375 
Q 34.1875 6.109375 38.703125 11.40625 
Q 43.21875 16.703125 43.21875 25.484375 
L 43.21875 27.484375 
z
M 52.203125 31.203125 
L 52.203125 0 
L 43.21875 0 
L 43.21875 8.296875 
Q 40.140625 3.328125 35.546875 0.953125 
Q 30.953125 -1.421875 24.3125 -1.421875 
Q 15.921875 -1.421875 10.953125 3.296875 
Q 6 8.015625 6 15.921875 
Q 6 25.140625 12.171875 29.828125 
Q 18.359375 34.515625 30.609375 34.515625 
L 43.21875 34.515625 
L 43.21875 35.40625 
Q 43.21875 41.609375 39.140625 45 
Q 35.0625 48.390625 27.6875 48.390625 
Q 23 48.390625 18.546875 47.265625 
Q 14.109375 46.140625 10.015625 43.890625 
L 10.015625 52.203125 
Q 14.9375 54.109375 19.578125 55.046875 
Q 24.21875 56 28.609375 56 
Q 40.484375 56 46.34375 49.84375 
Q 52.203125 43.703125 52.203125 31.203125 
z
" id="DejaVuSans-97"/>
       <path d="M 44.28125 53.078125 
L 44.28125 44.578125 
Q 40.484375 46.53125 36.375 47.5 
Q 32.28125 48.484375 27.875 48.484375 
Q 21.1875 48.484375 17.84375 46.4375 
Q 14.5 44.390625 14.5 40.28125 
Q 14.5 37.15625 16.890625 35.375 
Q 19.28125 33.59375 26.515625 31.984375 
L 29.59375 31.296875 
Q 39.15625 29.25 43.1875 25.515625 
Q 47.21875 21.78125 47.21875 15.09375 
Q 47.21875 7.46875 41.1875 3.015625 
Q 35.15625 -1.421875 24.609375 -1.421875 
Q 20.21875 -1.421875 15.453125 -0.5625 
Q 10.6875 0.296875 5.421875 2 
L 5.421875 11.28125 
Q 10.40625 8.6875 15.234375 7.390625 
Q 20.0625 6.109375 24.8125 6.109375 
Q 31.15625 6.109375 34.5625 8.28125 
Q 37.984375 10.453125 37.984375 14.40625 
Q 37.984375 18.0625 35.515625 20.015625 
Q 33.0625 21.96875 24.703125 23.78125 
L 21.578125 24.515625 
Q 13.234375 26.265625 9.515625 29.90625 
Q 5.8125 33.546875 5.8125 39.890625 
Q 5.8125 47.609375 11.28125 51.796875 
Q 16.75 56 26.8125 56 
Q 31.78125 56 36.171875 55.265625 
Q 40.578125 54.546875 44.28125 53.078125 
z
" id="DejaVuSans-115"/>
       <path d="M 25.390625 72.90625 
L 33.6875 72.90625 
L 8.296875 -9.28125 
L 0 -9.28125 
z
" id="DejaVuSans-47"/>
       <path d="M 45.40625 46.390625 
L 45.40625 75.984375 
L 54.390625 75.984375 
L 54.390625 0 
L 45.40625 0 
L 45.40625 8.203125 
Q 42.578125 3.328125 38.25 0.953125 
Q 33.9375 -1.421875 27.875 -1.421875 
Q 17.96875 -1.421875 11.734375 6.484375 
Q 5.515625 14.40625 5.515625 27.296875 
Q 5.515625 40.1875 11.734375 48.09375 
Q 17.96875 56 27.875 56 
Q 33.9375 56 38.25 53.625 
Q 42.578125 51.265625 45.40625 46.390625 
z
M 14.796875 27.296875 
Q 14.796875 17.390625 18.875 11.75 
Q 22.953125 6.109375 30.078125 6.109375 
Q 37.203125 6.109375 41.296875 11.75 
Q 45.40625 17.390625 45.40625 27.296875 
Q 45.40625 37.203125 41.296875 42.84375 
Q 37.203125 48.484375 30.078125 48.484375 
Q 22.953125 48.484375 18.875 42.84375 
Q 14.796875 37.203125 14.796875 27.296875 
z
" id="DejaVuSans-100"/>
       <path d="M 9.421875 54.6875 
L 18.40625 54.6875 
L 18.40625 0 
L 9.421875 0 
z
M 9.421875 75.984375 
L 18.40625 75.984375 
L 18.40625 64.59375 
L 9.421875 64.59375 
z
" id="DejaVuSans-105"/>
       <path d="M 52 44.1875 
Q 55.375 50.25 60.0625 53.125 
Q 64.75 56 71.09375 56 
Q 79.640625 56 84.28125 50.015625 
Q 88.921875 44.046875 88.921875 33.015625 
L 88.921875 0 
L 79.890625 0 
L 79.890625 32.71875 
Q 79.890625 40.578125 77.09375 44.375 
Q 74.3125 48.1875 68.609375 48.1875 
Q 61.625 48.1875 57.5625 43.546875 
Q 53.515625 38.921875 53.515625 30.90625 
L 53.515625 0 
L 44.484375 0 
L 44.484375 32.71875 
Q 44.484375 40.625 41.703125 44.40625 
Q 38.921875 48.1875 33.109375 48.1875 
Q 26.21875 48.1875 22.15625 43.53125 
Q 18.109375 38.875 18.109375 30.90625 
L 18.109375 0 
L 9.078125 0 
L 9.078125 54.6875 
L 18.109375 54.6875 
L 18.109375 46.1875 
Q 21.1875 51.21875 25.484375 53.609375 
Q 29.78125 56 35.6875 56 
Q 41.65625 56 45.828125 52.96875 
Q 50 49.953125 52 44.1875 
z
" id="DejaVuSans-109"/>
       <path d="M 54.890625 33.015625 
L 54.890625 0 
L 45.90625 0 
L 45.90625 32.71875 
Q 45.90625 40.484375 42.875 44.328125 
Q 39.84375 48.1875 33.796875 48.1875 
Q 26.515625 48.1875 22.3125 43.546875 
Q 18.109375 38.921875 18.109375 30.90625 
L 18.109375 0 
L 9.078125 0 
L 9.078125 54.6875 
L 18.109375 54.6875 
L 18.109375 46.1875 
Q 21.34375 51.125 25.703125 53.5625 
Q 30.078125 56 35.796875 56 
Q 45.21875 56 50.046875 50.171875 
Q 54.890625 44.34375 54.890625 33.015625 
z
" id="DejaVuSans-110"/>
       <path d="M 8.015625 75.875 
L 15.828125 75.875 
Q 23.140625 64.359375 26.78125 53.3125 
Q 30.421875 42.28125 30.421875 31.390625 
Q 30.421875 20.453125 26.78125 9.375 
Q 23.140625 -1.703125 15.828125 -13.1875 
L 8.015625 -13.1875 
Q 14.5 -2 17.703125 9.0625 
Q 20.90625 20.125 20.90625 31.390625 
Q 20.90625 42.671875 17.703125 53.65625 
Q 14.5 64.65625 8.015625 75.875 
z
" id="DejaVuSans-41"/>
      </defs>
      <use xlink:href="#DejaVuSans-108"/>
      <use x="27.783203" xlink:href="#DejaVuSans-111"/>
      <use x="88.964844" xlink:href="#DejaVuSans-103"/>
      <use x="152.441406" xlink:href="#DejaVuSans-49"/>
      <use x="216.064453" xlink:href="#DejaVuSans-48"/>
      <use x="279.6875" xlink:href="#DejaVuSans-40"/>
      <use x="318.701172" xlink:href="#DejaVuSans-35"/>
      <use x="402.490234" xlink:href="#DejaVuSans-32"/>
      <use x="434.277344" xlink:href="#DejaVuSans-102"/>
      <use x="463.982422" xlink:href="#DejaVuSans-45"/>
      <use x="500.066406" xlink:href="#DejaVuSans-101"/>
      <use x="561.589844" xlink:href="#DejaVuSans-118"/>
      <use x="620.769531" xlink:href="#DejaVuSans-97"/>
      <use x="682.048828" xlink:href="#DejaVuSans-108"/>
      <use x="709.832031" xlink:href="#DejaVuSans-115"/>
      <use x="761.931641" xlink:href="#DejaVuSans-32"/>
      <use x="793.71875" xlink:href="#DejaVuSans-47"/>
      <use x="827.410156" xlink:href="#DejaVuSans-32"/>
      <use x="859.197266" xlink:href="#DejaVuSans-100"/>
      <use x="922.673828" xlink:href="#DejaVuSans-105"/>
      <use x="950.457031" xlink:href="#DejaVuSans-109"/>
      <use x="1047.869141" xlink:href="#DejaVuSans-101"/>
      <use x="1109.392578" xlink:href="#DejaVuSans-110"/>
      <use x="1172.771484" xlink:href="#DejaVuSans-115"/>
      <use x="1224.871094" xlink:href="#DejaVuSans-105"/>
      <use x="1252.654297" xlink:href="#DejaVuSans-111"/>
      <use x="1313.835938" xlink:href="#DejaVuSans-110"/>
      <use x="1377.214844" xlink:href="#DejaVuSans-41"/>
     </g>
    </g>
   </g>
   <g id="matplotlib.axis_2">
    <g id="ytick_1">
     <g id="line2d_17">
      <path clip-path="url(#p8baa1e8485)" d="M 57.6 298.944 
L 338.688 298.944 
" style="fill:none;stroke:#b0b0b0;stroke-linecap:square;stroke-width:0.8;"/>
     </g>
     <g id="line2d_18">
      <defs>
       <path d="M 0 0 
L -3.5 0 
" id="m4d5d3865c1" style="stroke:#000000;stroke-width:0.8;"/>
      </defs>
      <g>
       <use style="stroke:#000000;stroke-width:0.8;" x="57.6" xlink:href="#m4d5d3865c1" y="298.944"/>
      </g>
     </g>
     <g id="text_6">
      <!-- 0.0 -->
      <g transform="translate(25.155 305.02275)scale(0.16 -0.16)">
       <defs>
        <path d="M 10.6875 12.40625 
L 21 12.40625 
L 21 0 
L 10.6875 0 
z
" id="DejaVuSans-46"/>
       </defs>
       <use xlink:href="#DejaVuSans-48"/>
       <use x="63.623047" xlink:href="#DejaVuSans-46"/>
       <use x="95.410156" xlink:href="#DejaVuSans-48"/>
      </g>
     </g>
    </g>
    <g id="ytick_2">
     <g id="line2d_19">
      <path clip-path="url(#p8baa1e8485)" d="M 57.6 240.431525 
L 338.688 240.431525 
" style="fill:none;stroke:#b0b0b0;stroke-linecap:square;stroke-width:0.8;"/>
     </g>
     <g id="line2d_20">
      <g>
       <use style="stroke:#000000;stroke-width:0.8;" x="57.6" xlink:href="#m4d5d3865c1" y="240.431525"/>
      </g>
     </g>
     <g id="text_7">
      <!-- 0.2 -->
      <g transform="translate(25.155 246.510275)scale(0.16 -0.16)">
       <use xlink:href="#DejaVuSans-48"/>
       <use x="63.623047" xlink:href="#DejaVuSans-46"/>
       <use x="95.410156" xlink:href="#DejaVuSans-50"/>
      </g>
     </g>
    </g>
    <g id="ytick_3">
     <g id="line2d_21">
      <path clip-path="url(#p8baa1e8485)" d="M 57.6 181.91905 
L 338.688 181.91905 
" style="fill:none;stroke:#b0b0b0;stroke-linecap:square;stroke-width:0.8;"/>
     </g>
     <g id="line2d_22">
      <g>
       <use style="stroke:#000000;stroke-width:0.8;" x="57.6" xlink:href="#m4d5d3865c1" y="181.91905"/>
      </g>
     </g>
     <g id="text_8">
      <!-- 0.4 -->
      <g transform="translate(25.155 187.9978)scale(0.16 -0.16)">
       <use xlink:href="#DejaVuSans-48"/>
       <use x="63.623047" xlink:href="#DejaVuSans-46"/>
       <use x="95.410156" xlink:href="#DejaVuSans-52"/>
      </g>
     </g>
    </g>
    <g id="ytick_4">
     <g id="line2d_23">
      <path clip-path="url(#p8baa1e8485)" d="M 57.6 123.406574 
L 338.688 123.406574 
" style="fill:none;stroke:#b0b0b0;stroke-linecap:square;stroke-width:0.8;"/>
     </g>
     <g id="line2d_24">
      <g>
       <use style="stroke:#000000;stroke-width:0.8;" x="57.6" xlink:href="#m4d5d3865c1" y="123.406574"/>
      </g>
     </g>
     <g id="text_9">
      <!-- 0.6 -->
      <g transform="translate(25.155 129.485324)scale(0.16 -0.16)">
       <use xlink:href="#DejaVuSans-48"/>
       <use x="63.623047" xlink:href="#DejaVuSans-46"/>
       <use x="95.410156" xlink:href="#DejaVuSans-54"/>
      </g>
     </g>
    </g>
    <g id="ytick_5">
     <g id="line2d_25">
      <path clip-path="url(#p8baa1e8485)" d="M 57.6 64.894099 
L 338.688 64.894099 
" style="fill:none;stroke:#b0b0b0;stroke-linecap:square;stroke-width:0.8;"/>
     </g>
     <g id="line2d_26">
      <g>
       <use style="stroke:#000000;stroke-width:0.8;" x="57.6" xlink:href="#m4d5d3865c1" y="64.894099"/>
      </g>
     </g>
     <g id="text_10">
      <!-- 0.8 -->
      <g transform="translate(25.155 70.972849)scale(0.16 -0.16)">
       <defs>
        <path d="M 31.78125 34.625 
Q 24.75 34.625 20.71875 30.859375 
Q 16.703125 27.09375 16.703125 20.515625 
Q 16.703125 13.921875 20.71875 10.15625 
Q 24.75 6.390625 31.78125 6.390625 
Q 38.8125 6.390625 42.859375 10.171875 
Q 46.921875 13.96875 46.921875 20.515625 
Q 46.921875 27.09375 42.890625 30.859375 
Q 38.875 34.625 31.78125 34.625 
z
M 21.921875 38.8125 
Q 15.578125 40.375 12.03125 44.71875 
Q 8.5 49.078125 8.5 55.328125 
Q 8.5 64.0625 14.71875 69.140625 
Q 20.953125 74.21875 31.78125 74.21875 
Q 42.671875 74.21875 48.875 69.140625 
Q 55.078125 64.0625 55.078125 55.328125 
Q 55.078125 49.078125 51.53125 44.71875 
Q 48 40.375 41.703125 38.8125 
Q 48.828125 37.15625 52.796875 32.3125 
Q 56.78125 27.484375 56.78125 20.515625 
Q 56.78125 9.90625 50.3125 4.234375 
Q 43.84375 -1.421875 31.78125 -1.421875 
Q 19.734375 -1.421875 13.25 4.234375 
Q 6.78125 9.90625 6.78125 20.515625 
Q 6.78125 27.484375 10.78125 32.3125 
Q 14.796875 37.15625 21.921875 38.8125 
z
M 18.3125 54.390625 
Q 18.3125 48.734375 21.84375 45.5625 
Q 25.390625 42.390625 31.78125 42.390625 
Q 38.140625 42.390625 41.71875 45.5625 
Q 45.3125 48.734375 45.3125 54.390625 
Q 45.3125 60.0625 41.71875 63.234375 
Q 38.140625 66.40625 31.78125 66.40625 
Q 25.390625 66.40625 21.84375 63.234375 
Q 18.3125 60.0625 18.3125 54.390625 
z
" id="DejaVuSans-56"/>
       </defs>
       <use xlink:href="#DejaVuSans-48"/>
       <use x="63.623047" xlink:href="#DejaVuSans-46"/>
       <use x="95.410156" xlink:href="#DejaVuSans-56"/>
      </g>
     </g>
    </g>
    <g id="ytick_6">
     <g id="line2d_27">
      <path clip-path="url(#p8baa1e8485)" d="M 57.6 6.381624 
L 338.688 6.381624 
" style="fill:none;stroke:#b0b0b0;stroke-linecap:square;stroke-width:0.8;"/>
     </g>
     <g id="line2d_28">
      <g>
       <use style="stroke:#000000;stroke-width:0.8;" x="57.6" xlink:href="#m4d5d3865c1" y="6.381624"/>
      </g>
     </g>
     <g id="text_11">
      <!-- 1.0 -->
      <g transform="translate(25.155 12.460374)scale(0.16 -0.16)">
       <use xlink:href="#DejaVuSans-49"/>
       <use x="63.623047" xlink:href="#DejaVuSans-46"/>
       <use x="95.410156" xlink:href="#DejaVuSans-48"/>
      </g>
     </g>
    </g>
    <g id="text_12">
     <!-- Fraction of function,target pairs -->
     <g transform="translate(17.619531 285.585)rotate(-90)scale(0.17 -0.17)">
      <defs>
       <path d="M 9.8125 72.90625 
L 51.703125 72.90625 
L 51.703125 64.59375 
L 19.671875 64.59375 
L 19.671875 43.109375 
L 48.578125 43.109375 
L 48.578125 34.8125 
L 19.671875 34.8125 
L 19.671875 0 
L 9.8125 0 
z
" id="DejaVuSans-70"/>
       <path d="M 41.109375 46.296875 
Q 39.59375 47.171875 37.8125 47.578125 
Q 36.03125 48 33.890625 48 
Q 26.265625 48 22.1875 43.046875 
Q 18.109375 38.09375 18.109375 28.8125 
L 18.109375 0 
L 9.078125 0 
L 9.078125 54.6875 
L 18.109375 54.6875 
L 18.109375 46.1875 
Q 20.953125 51.171875 25.484375 53.578125 
Q 30.03125 56 36.53125 56 
Q 37.453125 56 38.578125 55.875 
Q 39.703125 55.765625 41.0625 55.515625 
z
" id="DejaVuSans-114"/>
       <path d="M 48.78125 52.59375 
L 48.78125 44.1875 
Q 44.96875 46.296875 41.140625 47.34375 
Q 37.3125 48.390625 33.40625 48.390625 
Q 24.65625 48.390625 19.8125 42.84375 
Q 14.984375 37.3125 14.984375 27.296875 
Q 14.984375 17.28125 19.8125 11.734375 
Q 24.65625 6.203125 33.40625 6.203125 
Q 37.3125 6.203125 41.140625 7.25 
Q 44.96875 8.296875 48.78125 10.40625 
L 48.78125 2.09375 
Q 45.015625 0.34375 40.984375 -0.53125 
Q 36.96875 -1.421875 32.421875 -1.421875 
Q 20.0625 -1.421875 12.78125 6.34375 
Q 5.515625 14.109375 5.515625 27.296875 
Q 5.515625 40.671875 12.859375 48.328125 
Q 20.21875 56 33.015625 56 
Q 37.15625 56 41.109375 55.140625 
Q 45.0625 54.296875 48.78125 52.59375 
z
" id="DejaVuSans-99"/>
       <path d="M 18.3125 70.21875 
L 18.3125 54.6875 
L 36.8125 54.6875 
L 36.8125 47.703125 
L 18.3125 47.703125 
L 18.3125 18.015625 
Q 18.3125 11.328125 20.140625 9.421875 
Q 21.96875 7.515625 27.59375 7.515625 
L 36.8125 7.515625 
L 36.8125 0 
L 27.59375 0 
Q 17.1875 0 13.234375 3.875 
Q 9.28125 7.765625 9.28125 18.015625 
L 9.28125 47.703125 
L 2.6875 47.703125 
L 2.6875 54.6875 
L 9.28125 54.6875 
L 9.28125 70.21875 
z
" id="DejaVuSans-116"/>
       <path d="M 8.5 21.578125 
L 8.5 54.6875 
L 17.484375 54.6875 
L 17.484375 21.921875 
Q 17.484375 14.15625 20.5 10.265625 
Q 23.53125 6.390625 29.59375 6.390625 
Q 36.859375 6.390625 41.078125 11.03125 
Q 45.3125 15.671875 45.3125 23.6875 
L 45.3125 54.6875 
L 54.296875 54.6875 
L 54.296875 0 
L 45.3125 0 
L 45.3125 8.40625 
Q 42.046875 3.421875 37.71875 1 
Q 33.40625 -1.421875 27.6875 -1.421875 
Q 18.265625 -1.421875 13.375 4.4375 
Q 8.5 10.296875 8.5 21.578125 
z
M 31.109375 56 
z
" id="DejaVuSans-117"/>
       <path d="M 11.71875 12.40625 
L 22.015625 12.40625 
L 22.015625 4 
L 14.015625 -11.625 
L 7.71875 -11.625 
L 11.71875 4 
z
" id="DejaVuSans-44"/>
       <path d="M 18.109375 8.203125 
L 18.109375 -20.796875 
L 9.078125 -20.796875 
L 9.078125 54.6875 
L 18.109375 54.6875 
L 18.109375 46.390625 
Q 20.953125 51.265625 25.265625 53.625 
Q 29.59375 56 35.59375 56 
Q 45.5625 56 51.78125 48.09375 
Q 58.015625 40.1875 58.015625 27.296875 
Q 58.015625 14.40625 51.78125 6.484375 
Q 45.5625 -1.421875 35.59375 -1.421875 
Q 29.59375 -1.421875 25.265625 0.953125 
Q 20.953125 3.328125 18.109375 8.203125 
z
M 48.6875 27.296875 
Q 48.6875 37.203125 44.609375 42.84375 
Q 40.53125 48.484375 33.40625 48.484375 
Q 26.265625 48.484375 22.1875 42.84375 
Q 18.109375 37.203125 18.109375 27.296875 
Q 18.109375 17.390625 22.1875 11.75 
Q 26.265625 6.109375 33.40625 6.109375 
Q 40.53125 6.109375 44.609375 11.75 
Q 48.6875 17.390625 48.6875 27.296875 
z
" id="DejaVuSans-112"/>
      </defs>
      <use xlink:href="#DejaVuSans-70"/>
      <use x="50.269531" xlink:href="#DejaVuSans-114"/>
      <use x="91.382812" xlink:href="#DejaVuSans-97"/>
      <use x="152.662109" xlink:href="#DejaVuSans-99"/>
      <use x="207.642578" xlink:href="#DejaVuSans-116"/>
      <use x="246.851562" xlink:href="#DejaVuSans-105"/>
      <use x="274.634766" xlink:href="#DejaVuSans-111"/>
      <use x="335.816406" xlink:href="#DejaVuSans-110"/>
      <use x="399.195312" xlink:href="#DejaVuSans-32"/>
      <use x="430.982422" xlink:href="#DejaVuSans-111"/>
      <use x="492.164062" xlink:href="#DejaVuSans-102"/>
      <use x="527.369141" xlink:href="#DejaVuSans-32"/>
      <use x="559.15625" xlink:href="#DejaVuSans-102"/>
      <use x="594.361328" xlink:href="#DejaVuSans-117"/>
      <use x="657.740234" xlink:href="#DejaVuSans-110"/>
      <use x="721.119141" xlink:href="#DejaVuSans-99"/>
      <use x="776.099609" xlink:href="#DejaVuSans-116"/>
      <use x="815.308594" xlink:href="#DejaVuSans-105"/>
      <use x="843.091797" xlink:href="#DejaVuSans-111"/>
      <use x="904.273438" xlink:href="#DejaVuSans-110"/>
      <use x="967.652344" xlink:href="#DejaVuSans-44"/>
      <use x="999.439453" xlink:href="#DejaVuSans-116"/>
      <use x="1038.648438" xlink:href="#DejaVuSans-97"/>
      <use x="1099.927734" xlink:href="#DejaVuSans-114"/>
      <use x="1139.291016" xlink:href="#DejaVuSans-103"/>
      <use x="1202.767578" xlink:href="#DejaVuSans-101"/>
      <use x="1264.291016" xlink:href="#DejaVuSans-116"/>
      <use x="1303.5" xlink:href="#DejaVuSans-32"/>
      <use x="1335.287109" xlink:href="#DejaVuSans-112"/>
      <use x="1398.763672" xlink:href="#DejaVuSans-97"/>
      <use x="1460.042969" xlink:href="#DejaVuSans-105"/>
      <use x="1487.826172" xlink:href="#DejaVuSans-114"/>
      <use x="1528.939453" xlink:href="#DejaVuSans-115"/>
     </g>
    </g>
   </g>
   <g id="line2d_29">
    <defs>
     <path d="M 0 1.5 
C 0.397805 1.5 0.77937 1.341951 1.06066 1.06066 
C 1.341951 0.77937 1.5 0.397805 1.5 0 
C 1.5 -0.397805 1.341951 -0.77937 1.06066 -1.06066 
C 0.77937 -1.341951 0.397805 -1.5 0 -1.5 
C -0.397805 -1.5 -0.77937 -1.341951 -1.06066 -1.06066 
C -1.341951 -0.77937 -1.5 -0.397805 -1.5 0 
C -1.5 0.397805 -1.341951 0.77937 -1.06066 1.06066 
C -0.77937 1.341951 -0.397805 1.5 0 1.5 
z
" id="mab3d666a41" style="stroke:#000080;"/>
    </defs>
    <g>
     <use style="fill:#000080;stroke:#000080;" x="227.156111" xlink:href="#mab3d666a41" y="41.690876"/>
     <use style="fill:#000080;stroke:#000080;" x="227.156111" xlink:href="#mab3d666a41" y="41.690876"/>
    </g>
   </g>
   <g id="line2d_30">
    <path d="M 45.512012 298.944 
L 45.512012 292.890985 
L 99.41757 292.890985 
L 99.41757 292.386567 
L 111.104637 292.386567 
L 111.104637 291.88215 
L 113.022974 291.88215 
L 113.022974 290.368896 
L 114.751048 290.368896 
L 114.751048 289.864478 
L 119.097192 289.864478 
L 119.097192 289.36006 
L 120.33454 289.36006 
L 120.33454 288.351224 
L 122.573415 288.351224 
L 122.573415 287.846806 
L 122.782271 287.846806 
L 122.782271 287.342389 
L 123.593547 287.342389 
L 123.593547 286.837971 
L 124.557288 286.837971 
L 124.557288 286.333553 
L 125.470548 286.333553 
L 125.470548 285.829135 
L 126.338353 285.829135 
L 126.338353 284.820299 
L 127.954256 284.820299 
L 127.954256 283.811463 
L 128.709321 283.811463 
L 128.709321 283.307045 
L 129.853291 283.307045 
L 129.853291 282.802628 
L 130.127931 282.802628 
L 130.127931 281.793792 
L 130.796184 281.793792 
L 130.796184 280.784956 
L 132.659801 280.784956 
L 132.659801 280.280538 
L 134.236034 280.280538 
L 134.343353 279.271702 
L 135.878591 279.271702 
L 135.878591 278.767284 
L 136.073445 278.767284 
L 136.073445 277.758449 
L 137.735587 277.758449 
L 137.735587 277.254031 
L 138.67848 277.254031 
L 138.761723 276.245195 
L 140.195896 276.245195 
L 140.195896 275.740777 
L 140.499195 275.740777 
L 140.499195 275.236359 
L 140.723258 275.236359 
L 140.723258 274.731941 
L 141.521035 274.731941 
L 141.521035 274.227523 
L 142.215919 274.227523 
L 142.215919 273.723105 
L 142.351634 273.723105 
L 142.351634 272.71427 
L 142.486301 272.71427 
L 142.486301 272.209852 
L 142.752555 272.209852 
L 142.752555 271.201016 
L 143.273169 271.201016 
L 143.273169 270.696598 
L 143.778691 270.696598 
L 143.778691 270.19218 
L 143.902815 270.19218 
L 143.902815 269.687762 
L 144.026061 269.687762 
L 144.026061 269.183344 
L 144.269971 269.183344 
L 144.269971 268.678927 
L 144.865226 268.678927 
L 144.865226 268.174509 
L 144.981877 268.174509 
L 144.981877 267.165673 
L 145.327221 267.165673 
L 145.327221 265.148001 
L 145.440832 265.148001 
L 145.440832 264.643583 
L 146.107383 264.643583 
L 146.107383 263.634748 
L 146.270114 263.634748 
L 146.270114 263.13033 
L 146.431341 263.13033 
L 146.538004 262.121494 
L 146.644018 262.121494 
L 146.644018 261.617076 
L 146.906268 261.617076 
L 146.906268 261.112658 
L 147.061745 261.112658 
L 147.164632 259.599405 
L 147.368603 259.599405 
L 147.368603 259.094987 
L 147.769524 259.094987 
L 147.769524 258.086151 
L 147.96658 258.086151 
L 147.96658 257.077315 
L 148.161434 257.077315 
L 148.161434 256.572897 
L 148.354135 256.572897 
L 148.354135 256.068479 
L 148.497276 256.068479 
L 148.497276 255.564061 
L 148.826773 255.564061 
L 148.919783 254.050808 
L 149.104327 254.050808 
L 149.104327 253.54639 
L 149.377533 253.54639 
L 149.377533 253.041972 
L 149.646525 253.041972 
L 149.735275 250.015465 
L 150.172372 250.015465 
L 150.215485 248.502211 
L 150.38688 248.502211 
L 150.47195 247.493375 
L 150.51433 247.493375 
L 150.598782 245.980122 
L 150.724698 245.980122 
L 150.766468 244.971286 
L 150.849711 244.971286 
L 150.891184 243.458032 
L 150.973835 243.458032 
L 150.973835 242.953614 
L 151.300575 242.953614 
L 151.340991 241.944778 
L 151.461678 241.944778 
L 151.501723 239.927107 
L 151.700576 239.927107 
L 151.700576 238.918271 
L 151.936246 238.918271 
L 151.975216 237.405017 
L 152.052897 237.405017 
L 152.052897 236.9006 
L 152.168773 236.9006 
L 152.207228 235.387346 
L 152.398241 235.387346 
L 152.398241 234.37851 
L 152.511852 234.37851 
L 152.587184 233.369674 
L 152.624728 233.369674 
L 152.624728 232.360839 
L 153.032466 232.360839 
L 153.032466 231.856421 
L 153.178403 231.856421 
L 153.250915 230.343167 
L 153.644434 230.343167 
L 153.750233 228.829913 
L 153.890309 228.829913 
L 153.890309 227.821078 
L 154.098334 227.821078 
L 154.167129 226.307824 
L 154.337936 226.307824 
L 154.371897 225.298988 
L 154.707925 225.298988 
L 154.77436 224.290152 
L 154.93935 224.290152 
L 154.972161 223.281316 
L 155.393186 223.281316 
L 155.393186 222.776899 
L 155.928852 222.776899 
L 155.959855 220.759227 
L 156.297301 220.759227 
L 156.297301 219.245973 
L 156.478647 219.245973 
L 156.538679 216.219466 
L 156.658127 216.219466 
L 156.687861 214.706212 
L 156.835778 214.706212 
L 156.835778 213.697377 
L 157.040776 213.697377 
L 157.040776 212.688541 
L 157.156845 212.688541 
L 157.243392 211.175287 
L 157.500487 211.175287 
L 157.557108 209.157616 
L 157.641697 209.157616 
L 157.641697 208.653198 
L 157.753847 208.653198 
L 157.809652 207.139944 
L 157.920731 207.139944 
L 157.920731 206.635526 
L 158.412011 206.635526 
L 158.412011 205.122272 
L 158.572743 205.122272 
L 158.572743 204.113437 
L 158.889829 204.113437 
L 158.889829 203.104601 
L 159.175513 203.104601 
L 159.201253 201.591347 
L 159.456591 201.591347 
L 159.456591 201.086929 
L 159.658204 201.086929 
L 159.758143 199.573676 
L 160.321935 199.573676 
L 160.321935 198.56484 
L 161.054091 198.56484 
L 161.077205 197.556004 
L 161.488097 197.556004 
L 161.488097 197.051586 
L 161.88953 197.051586 
L 161.88953 196.547168 
L 162.410793 196.547168 
L 162.410793 195.538333 
L 163.144084 195.538333 
L 163.144084 194.529497 
L 163.388564 194.529497 
L 163.388564 194.025079 
L 163.867476 194.025079 
L 163.867476 193.016243 
L 164.218222 193.016243 
L 164.218222 192.007407 
L 164.675172 192.007407 
L 164.675172 191.502989 
L 164.899235 191.502989 
L 164.899235 190.998572 
L 166.220754 190.998572 
L 166.220754 190.494154 
L 175.527057 190.494154 
L 175.527057 189.989736 
L 175.6777 189.989736 
L 175.6777 188.9809 
L 175.984964 188.9809 
L 175.984964 188.476482 
L 176.267585 188.476482 
L 176.267585 187.972064 
L 176.687829 187.972064 
L 176.687829 187.467646 
L 176.950079 187.467646 
L 177.024289 185.954393 
L 177.180944 185.954393 
L 177.272441 183.936721 
L 177.490094 183.936721 
L 177.562046 181.91905 
L 177.713965 181.91905 
L 177.811565 179.901378 
L 177.970105 179.901378 
L 177.970105 178.892542 
L 178.161939 178.892542 
L 178.161939 178.388124 
L 178.351686 178.388124 
L 178.428718 177.379288 
L 178.496907 177.379288 
L 178.496907 176.874871 
L 178.640929 176.874871 
L 178.640929 176.370453 
L 178.817212 176.370453 
L 178.917151 173.343945 
L 178.933752 173.343945 
L 179.024776 170.821856 
L 179.065994 170.821856 
L 179.164521 168.299766 
L 179.180888 168.299766 
L 179.270634 167.290931 
L 179.311276 167.290931 
L 179.392276 164.768841 
L 179.424571 164.768841 
L 179.529118 162.246752 
L 179.577161 162.246752 
L 179.609115 160.22908 
L 179.712566 160.22908 
L 179.823292 156.193737 
L 179.894103 156.193737 
L 179.894103 155.689319 
L 180.019285 155.689319 
L 180.05044 153.671648 
L 180.197673 153.671648 
L 180.197673 153.16723 
L 180.389527 153.16723 
L 180.480872 151.653976 
L 180.503634 151.653976 
L 180.541504 150.64514 
L 180.67716 150.64514 
L 180.737115 149.636305 
L 180.856409 149.636305 
L 180.960126 148.123051 
L 181.011755 148.123051 
L 181.107232 146.105379 
L 181.165729 146.105379 
L 181.260369 143.58329 
L 181.412173 143.58329 
L 181.426562 142.574454 
L 181.584061 142.574454 
L 181.690637 139.547947 
L 181.775431 139.547947 
L 181.852798 138.539111 
L 182.006511 138.539111 
L 182.006511 138.034693 
L 182.131275 138.034693 
L 182.131275 137.530275 
L 182.248295 137.530275 
L 182.30993 136.521439 
L 182.364534 136.521439 
L 182.364534 136.017022 
L 182.520577 136.017022 
L 182.62831 135.008186 
L 182.675235 135.008186 
L 182.775365 133.494932 
L 182.907984 133.494932 
L 182.907984 132.990514 
L 183.176739 132.990514 
L 183.2287 130.468425 
L 183.846704 130.468425 
L 183.859219 128.955171 
L 184.15691 128.955171 
L 184.242788 127.441917 
L 184.334333 127.441917 
L 184.431454 124.919828 
L 184.630074 124.919828 
L 184.665945 123.910992 
L 184.814618 123.910992 
L 184.814618 123.406574 
L 185.396952 123.406574 
L 185.396952 122.397738 
L 185.545227 122.397738 
L 185.618894 119.875649 
L 185.692252 119.875649 
L 185.692252 119.371231 
L 185.854792 119.371231 
L 185.938273 117.35356 
L 186.219158 117.35356 
L 186.279153 116.344724 
L 186.338942 116.344724 
L 186.338942 115.840306 
L 186.915323 115.840306 
L 186.915323 115.335888 
L 187.046072 115.335888 
L 187.087706 114.327052 
L 187.165502 114.327052 
L 187.263548 112.309381 
L 187.314931 112.309381 
L 187.401936 111.300545 
L 187.765688 111.300545 
L 187.765688 110.796127 
L 188.43755 110.796127 
L 188.43755 110.291709 
L 188.55263 110.291709 
L 188.62893 109.282873 
L 188.685936 109.282873 
L 188.685936 108.778455 
L 188.916799 108.778455 
L 188.916799 108.274038 
L 189.033419 108.274038 
L 189.033419 107.76962 
L 190.249927 107.76962 
L 190.249927 107.265202 
L 190.963568 107.265202 
L 190.963568 106.760784 
L 191.540769 106.760784 
L 191.540769 106.256366 
L 191.760838 106.256366 
L 191.760838 105.751948 
L 192.208326 105.751948 
L 192.208326 105.24753 
L 192.557468 105.24753 
L 192.561266 104.238694 
L 192.738854 104.238694 
L 192.798898 102.725441 
L 193.253717 102.725441 
L 193.253717 101.716605 
L 193.554059 101.716605 
L 193.554059 101.212187 
L 193.888073 101.212187 
L 193.888073 100.203351 
L 194.125774 100.203351 
L 194.125774 99.194516 
L 194.360279 99.194516 
L 194.360279 98.18568 
L 194.83004 98.18568 
L 194.860025 96.168008 
L 195.002577 96.168008 
L 195.002577 95.159172 
L 195.193028 95.159172 
L 195.251713 93.141501 
L 196.180211 93.141501 
L 196.180211 92.132665 
L 199.19907 92.132665 
L 199.19907 91.123829 
L 199.505233 91.123829 
L 199.505233 90.114994 
L 199.781029 90.114994 
L 199.781029 89.106158 
L 200.067353 89.106158 
L 200.138821 87.088486 
L 200.205097 87.088486 
L 200.280883 85.070815 
L 200.363626 85.070815 
L 200.412116 83.053143 
L 200.657337 83.053143 
L 200.657337 82.044307 
L 201.949898 82.044307 
L 201.949898 81.539889 
L 202.387708 81.539889 
L 202.387708 81.035471 
L 202.704756 81.035471 
L 202.704756 80.531054 
L 202.823233 80.531054 
L 202.823233 80.026636 
L 203.022397 80.026636 
L 203.030733 79.0178 
L 203.221374 79.0178 
L 203.221374 78.513382 
L 203.360955 78.513382 
L 203.395676 77.504546 
L 204.044542 77.504546 
L 204.044542 77.000128 
L 205.490714 77.000128 
L 205.582751 75.991293 
L 205.808077 75.991293 
L 205.855985 74.982457 
L 206.055072 74.982457 
L 206.1407 73.973621 
L 206.277874 73.973621 
L 206.277874 73.469203 
L 206.401961 73.469203 
L 206.401961 72.964785 
L 206.514937 72.964785 
L 206.514937 72.460367 
L 206.725235 72.460367 
L 206.725235 71.955949 
L 208.885168 71.955949 
L 208.885168 71.451532 
L 209.021656 71.451532 
L 209.021656 70.947114 
L 209.230249 70.947114 
L 209.323453 69.938278 
L 209.424827 69.938278 
L 209.4508 68.425024 
L 209.542836 68.425024 
L 209.640094 66.911771 
L 215.654221 66.911771 
L 215.742899 63.885263 
L 216.010219 63.885263 
L 216.105971 61.867592 
L 216.235435 61.867592 
L 216.309541 59.84992 
L 216.443303 59.84992 
L 216.507876 56.823413 
L 222.576435 56.823413 
L 222.576435 55.814577 
L 222.882135 55.814577 
L 222.882135 54.805741 
L 223.078599 54.805741 
L 223.082558 52.78807 
L 223.229743 52.78807 
L 223.322408 49.761562 
L 223.366609 49.761562 
L 223.366609 48.752727 
L 223.525584 48.752727 
L 223.578255 46.735055 
L 226.238565 46.735055 
L 226.344512 45.726219 
L 226.520937 45.726219 
L 226.575571 44.717383 
L 226.848861 44.717383 
L 226.901949 43.20413 
L 227.13468 43.20413 
L 227.156111 41.690876 
L 338.688 41.690876 
L 338.688 41.690876 
" style="fill:none;stroke:#000080;stroke-linecap:square;stroke-width:1.5;"/>
   </g>
   <g id="line2d_31">
    <defs>
     <path d="M 0 6 
C 1.591219 6 3.117479 5.367802 4.242641 4.242641 
C 5.367802 3.117479 6 1.591219 6 0 
C 6 -1.591219 5.367802 -3.117479 4.242641 -4.242641 
C 3.117479 -5.367802 1.591219 -6 0 -6 
C -1.591219 -6 -3.117479 -5.367802 -4.242641 -4.242641 
C -5.367802 -3.117479 -6 -1.591219 -6 0 
C -6 1.591219 -5.367802 3.117479 -4.242641 4.242641 
C -3.117479 5.367802 -1.591219 6 0 6 
z
" id="m0da486c76b" style="stroke:#000080;stroke-width:1.5;"/>
    </defs>
    <g>
     <use style="fill-opacity:0;stroke:#000080;stroke-width:1.5;" x="148.497276" xlink:href="#m0da486c76b" y="256.068479"/>
     <use style="fill-opacity:0;stroke:#000080;stroke-width:1.5;" x="178.496907" xlink:href="#m0da486c76b" y="176.874871"/>
     <use style="fill-opacity:0;stroke:#000080;stroke-width:1.5;" x="209.594393" xlink:href="#m0da486c76b" y="67.416188"/>
     <use style="fill-opacity:0;stroke:#000080;stroke-width:1.5;" x="227.156111" xlink:href="#m0da486c76b" y="42.195294"/>
     <use style="fill-opacity:0;stroke:#000080;stroke-width:1.5;" x="227.156111" xlink:href="#m0da486c76b" y="41.690876"/>
     <use style="fill-opacity:0;stroke:#000080;stroke-width:1.5;" x="338.688" xlink:href="#m0da486c76b" y="41.690876"/>
    </g>
   </g>
   <g id="line2d_32">
    <path style="fill:none;stroke:#000080;stroke-linecap:square;stroke-width:1.5;"/>
    <g/>
   </g>
   <g id="line2d_33">
    <path clip-path="url(#p8baa1e8485)" d="M 255.775975 41.690876 
" style="fill:none;stroke:#000080;stroke-linecap:square;stroke-width:1.5;"/>
    <defs>
     <path d="M -12 12 
L 12 -12 
M -12 -12 
L 12 12 
" id="mf99278d532" style="stroke:#000080;"/>
    </defs>
    <g clip-path="url(#p8baa1e8485)">
     <use style="fill:#000080;stroke:#000080;" x="255.775975" xlink:href="#mf99278d532" y="41.690876"/>
    </g>
   </g>
   <g id="line2d_34">
    <defs>
     <path d="M 0 1.5 
C 0.397805 1.5 0.77937 1.341951 1.06066 1.06066 
C 1.341951 0.77937 1.5 0.397805 1.5 0 
C 1.5 -0.397805 1.341951 -0.77937 1.06066 -1.06066 
C 0.77937 -1.341951 0.397805 -1.5 0 -1.5 
C -0.397805 -1.5 -0.77937 -1.341951 -1.06066 -1.06066 
C -1.341951 -0.77937 -1.5 -0.397805 -1.5 0 
C -1.5 0.397805 -1.341951 0.77937 -1.06066 1.06066 
C -0.77937 1.341951 -0.397805 1.5 0 1.5 
z
" id="mad870d8062" style="stroke:#ff00ff;"/>
    </defs>
    <g>
     <use style="fill:#ff00ff;stroke:#ff00ff;" x="230.976488" xlink:href="#mad870d8062" y="41.690876"/>
     <use style="fill:#ff00ff;stroke:#ff00ff;" x="230.976488" xlink:href="#mad870d8062" y="41.690876"/>
    </g>
   </g>
   <g id="line2d_35">
    <path d="M 99.41757 298.944 
L 99.41757 298.439582 
L 114.751048 298.439582 
L 114.751048 297.935164 
L 116.323218 297.935164 
L 116.323218 297.430746 
L 117.765302 297.430746 
L 117.765302 296.926328 
L 119.097192 296.926328 
L 119.097192 296.421911 
L 120.33454 296.421911 
L 120.33454 295.917493 
L 122.573415 295.917493 
L 122.573415 295.413075 
L 123.593547 295.413075 
L 123.593547 294.404239 
L 125.470548 294.404239 
L 125.470548 293.899821 
L 126.338353 293.899821 
L 126.338353 293.395403 
L 127.954256 293.395403 
L 127.954256 291.88215 
L 129.433047 291.88215 
L 129.433047 291.377732 
L 131.439773 291.377732 
L 131.439773 288.855642 
L 133.239232 288.855642 
L 133.239232 288.351224 
L 134.870259 288.351224 
L 134.870259 287.342389 
L 136.831795 287.342389 
L 136.831795 286.837971 
L 137.735587 286.837971 
L 137.735587 286.333553 
L 139.009092 286.333553 
L 139.009092 285.324717 
L 140.64889 285.324717 
L 140.64889 284.820299 
L 141.307054 284.820299 
L 141.307054 284.315881 
L 141.662245 284.315881 
L 141.662245 281.289374 
L 142.010346 281.289374 
L 142.010346 278.767284 
L 142.351634 278.767284 
L 142.351634 277.254031 
L 142.686372 277.254031 
L 142.686372 274.227523 
L 142.949611 274.227523 
L 143.014805 272.209852 
L 143.527762 272.209852 
L 143.527762 270.19218 
L 143.778691 270.19218 
L 143.778691 269.687762 
L 143.964547 269.687762 
L 143.964547 268.678927 
L 144.269971 268.678927 
L 144.269971 268.174509 
L 144.510517 268.174509 
L 144.570138 265.652419 
L 144.865226 265.652419 
L 144.865226 265.148001 
L 145.155404 265.148001 
L 145.212864 263.634748 
L 145.553708 263.634748 
L 145.553708 258.590569 
L 145.721664 258.590569 
L 145.721664 257.581733 
L 145.888018 257.581733 
L 145.998045 256.068479 
L 146.538004 256.068479 
L 146.538004 254.555226 
L 146.854132 254.555226 
L 146.854132 254.050808 
L 147.010073 254.050808 
L 147.061745 250.015465 
L 147.4697 250.015465 
L 147.570215 249.006629 
L 148.40198 249.006629 
L 148.40198 248.502211 
L 148.966103 248.502211 
L 148.966103 247.493375 
L 149.241465 247.493375 
L 149.241465 246.484539 
L 149.512548 246.484539 
L 149.512548 245.980122 
L 151.056095 245.980122 
L 151.056095 244.971286 
L 154.54072 244.971286 
L 154.54072 244.466868 
L 154.674612 244.466868 
L 154.674612 243.96245 
L 154.873541 243.96245 
L 154.873541 242.953614 
L 155.584129 242.953614 
L 155.584129 239.927107 
L 155.804285 239.927107 
L 155.804285 239.422689 
L 156.052535 239.422689 
L 156.052535 238.918271 
L 156.418408 238.918271 
L 156.418408 237.909435 
L 156.598505 237.909435 
L 156.598505 237.405017 
L 156.717545 237.405017 
L 156.776762 232.865256 
L 157.011638 232.865256 
L 157.011638 230.847585 
L 157.156845 230.847585 
L 157.156845 230.343167 
L 157.272146 230.343167 
L 157.358125 227.821078 
L 157.58535 227.821078 
L 157.58535 227.31666 
L 158.140788 227.31666 
L 158.140788 226.307824 
L 158.276927 226.307824 
L 158.276927 225.803406 
L 158.652556 225.803406 
L 158.652556 224.79457 
L 158.863624 224.79457 
L 158.863624 224.290152 
L 159.175513 224.290152 
L 159.278248 221.263645 
L 159.683242 221.263645 
L 159.708245 218.237138 
L 159.857512 218.237138 
L 159.931669 217.228302 
L 160.394148 217.228302 
L 160.418152 214.201794 
L 160.938061 214.201794 
L 161.030947 211.679705 
L 161.100288 211.679705 
L 161.169354 209.662033 
L 161.397621 209.662033 
L 161.397621 209.157616 
L 161.555647 209.157616 
L 161.555647 208.14878 
L 161.801118 208.14878 
L 161.84538 206.635526 
L 162.10862 206.635526 
L 162.10862 206.131108 
L 162.496175 206.131108 
L 162.53871 204.113437 
L 162.749842 204.113437 
L 162.749842 203.104601 
L 162.875305 203.104601 
L 162.9377 202.095765 
L 163.589711 202.095765 
L 163.589711 201.591347 
L 163.768781 201.591347 
L 163.768781 200.582511 
L 164.121498 200.582511 
L 164.121498 199.573676 
L 164.237502 199.573676 
L 164.237502 199.069258 
L 164.712717 199.069258 
L 164.712717 198.060422 
L 164.9363 198.060422 
L 164.9363 197.051586 
L 165.483031 197.051586 
L 165.483031 196.547168 
L 165.697012 196.547168 
L 165.697012 196.04275 
L 167.970232 196.04275 
L 167.970232 195.538333 
L 168.094245 195.538333 
L 168.094245 195.033915 
L 168.967898 195.033915 
L 168.967898 194.529497 
L 172.779844 194.529497 
L 172.779844 194.025079 
L 173.026049 194.025079 
L 173.09576 193.016243 
L 173.245851 193.016243 
L 173.245851 192.511825 
L 173.383259 192.511825 
L 173.383259 192.007407 
L 173.609893 192.007407 
L 173.677313 189.989736 
L 173.744474 189.989736 
L 173.744474 189.485318 
L 173.878023 189.485318 
L 173.878023 188.476482 
L 174.07645 188.476482 
L 174.142093 186.963228 
L 179.295031 186.963228 
L 179.295031 186.458811 
L 185.408403 186.458811 
L 185.408403 185.954393 
L 187.072105 185.954393 
L 187.072105 185.449975 
L 187.43254 185.449975 
L 187.43254 184.945557 
L 188.874624 184.945557 
L 188.874624 184.441139 
L 189.075212 184.441139 
L 189.13078 182.927885 
L 189.223003 182.927885 
L 189.223003 182.423467 
L 189.492253 182.423467 
L 189.492253 181.91905 
L 189.623088 181.91905 
L 189.69933 179.901378 
L 189.748486 179.901378 
L 189.81974 178.388124 
L 189.872989 178.388124 
L 189.95697 176.370453 
L 190.027379 176.370453 
L 190.027379 175.866035 
L 190.154274 175.866035 
L 190.154274 175.361617 
L 190.379524 175.361617 
L 190.379524 174.857199 
L 190.559356 174.857199 
L 190.559356 174.352781 
L 190.800485 174.352781 
L 190.859203 172.33511 
L 191.149865 172.33511 
L 191.149865 171.830692 
L 191.512559 171.830692 
L 191.585005 170.317438 
L 191.808486 170.317438 
L 191.808486 169.81302 
L 192.500396 169.81302 
L 192.58783 168.804184 
L 192.704987 168.804184 
L 192.704987 168.299766 
L 192.899758 168.299766 
L 192.996333 167.290931 
L 193.011144 167.290931 
L 193.011144 166.282095 
L 193.326563 166.282095 
L 193.326563 165.777677 
L 193.557646 165.777677 
L 193.557646 164.768841 
L 193.672049 164.768841 
L 193.672049 164.264423 
L 194.253763 164.264423 
L 194.356853 162.75117 
L 194.421829 162.75117 
L 194.421829 162.246752 
L 194.574761 162.246752 
L 194.574761 161.237916 
L 194.959602 161.237916 
L 194.959602 160.733498 
L 195.51338 160.733498 
L 195.615682 159.220244 
L 195.717388 159.220244 
L 195.752213 158.211409 
L 195.865701 158.211409 
L 195.865701 157.202573 
L 196.059438 157.202573 
L 196.118381 156.193737 
L 196.34301 156.193737 
L 196.419277 154.680483 
L 196.470949 154.680483 
L 196.576853 152.158394 
L 196.60097 152.158394 
L 196.658113 150.64514 
L 196.741985 150.64514 
L 196.840318 146.609797 
L 196.905568 146.609797 
L 196.979419 144.592126 
L 197.035338 144.592126 
L 197.055894 143.078872 
L 197.14956 143.078872 
L 197.187468 141.565618 
L 197.283328 141.565618 
L 197.381546 139.043529 
L 197.467751 139.043529 
L 197.467751 138.539111 
L 197.658751 138.539111 
L 197.681418 136.521439 
L 197.808373 136.521439 
L 197.808373 135.512604 
L 197.926036 135.512604 
L 197.995698 133.494932 
L 198.106583 133.494932 
L 198.208527 131.981678 
L 198.358972 131.981678 
L 198.435067 130.468425 
L 198.765463 130.468425 
L 198.842458 128.955171 
L 198.966525 128.955171 
L 198.966525 128.450753 
L 199.186087 128.450753 
L 199.186087 127.946335 
L 199.420868 127.946335 
L 199.420868 126.937499 
L 199.540901 126.937499 
L 199.540901 125.928664 
L 199.655058 125.928664 
L 199.655058 125.424246 
L 200.136361 125.424246 
L 200.136361 124.919828 
L 200.273563 124.919828 
L 200.273563 123.910992 
L 200.847284 123.910992 
L 200.948531 121.893321 
L 200.979026 121.893321 
L 200.979026 120.884485 
L 201.361507 120.884485 
L 201.361507 120.380067 
L 201.484882 120.380067 
L 201.521271 118.866813 
L 201.733535 118.866813 
L 201.733535 118.362395 
L 201.925496 118.362395 
L 202.031726 116.849142 
L 202.055979 116.849142 
L 202.055979 116.344724 
L 202.329242 116.344724 
L 202.329242 115.335888 
L 202.512645 115.335888 
L 202.589743 113.822634 
L 202.800024 113.822634 
L 202.907369 112.309381 
L 202.911565 112.309381 
L 202.997365 109.282873 
L 203.140813 109.282873 
L 203.211066 106.760784 
L 203.301564 106.760784 
L 203.332309 105.24753 
L 203.448646 105.24753 
L 203.448646 104.743112 
L 203.588444 104.743112 
L 203.648879 103.229859 
L 203.761132 103.229859 
L 203.76313 101.716605 
L 203.957829 101.716605 
L 203.957829 101.212187 
L 204.228363 101.212187 
L 204.317616 97.176844 
L 204.692874 97.176844 
L 204.692874 96.672426 
L 204.868145 96.672426 
L 204.868145 95.66359 
L 205.056518 95.66359 
L 205.056518 95.159172 
L 205.202455 95.159172 
L 205.220841 93.645919 
L 205.535891 93.645919 
L 205.535891 93.141501 
L 205.70293 93.141501 
L 205.704717 91.628247 
L 206.000681 91.628247 
L 206.000681 91.123829 
L 206.374463 91.123829 
L 206.379622 89.610576 
L 206.650903 89.610576 
L 206.650903 89.106158 
L 206.874627 89.106158 
L 206.874627 88.60174 
L 207.113661 88.60174 
L 207.113661 88.097322 
L 207.377092 88.097322 
L 207.377092 87.088486 
L 207.566063 87.088486 
L 207.644601 85.070815 
L 207.93168 85.070815 
L 207.969393 83.557561 
L 208.246584 83.557561 
L 208.351325 77.504546 
L 208.369743 77.504546 
L 208.45086 75.486875 
L 208.502699 75.486875 
L 208.502699 74.982457 
L 208.664842 74.982457 
L 208.664842 74.478039 
L 208.789585 74.478039 
L 208.898567 72.460367 
L 209.026089 72.460367 
L 209.067408 71.451532 
L 209.237548 71.451532 
L 209.307469 70.442696 
L 209.37711 70.442696 
L 209.440704 68.929442 
L 209.677139 68.929442 
L 209.677139 67.920606 
L 209.966494 67.920606 
L 209.966494 66.911771 
L 210.333563 66.911771 
L 210.354111 65.398517 
L 210.852121 65.398517 
L 210.852121 64.894099 
L 211.169867 64.894099 
L 211.169867 64.389681 
L 211.303921 64.389681 
L 211.337597 62.876427 
L 211.426656 62.876427 
L 211.426656 61.867592 
L 211.658134 61.867592 
L 211.748103 60.858756 
L 211.846409 60.858756 
L 211.905379 59.84992 
L 212.023967 59.84992 
L 212.023967 59.345502 
L 212.853611 59.345502 
L 212.853611 58.841084 
L 213.27668 58.841084 
L 213.27668 58.336666 
L 213.684072 58.336666 
L 213.684072 57.327831 
L 213.796817 57.327831 
L 213.796817 56.823413 
L 214.243931 56.823413 
L 214.243931 56.318995 
L 215.227766 56.318995 
L 215.227766 55.310159 
L 216.096124 55.310159 
L 216.096124 54.301323 
L 216.236412 54.301323 
L 216.236412 53.292488 
L 217.525242 53.292488 
L 217.525242 52.78807 
L 218.049966 52.78807 
L 218.053488 50.770398 
L 219.344495 50.770398 
L 219.344495 49.761562 
L 219.525062 49.761562 
L 219.525062 48.752727 
L 221.465822 48.752727 
L 221.545276 46.735055 
L 221.942134 46.735055 
L 221.942134 46.230637 
L 223.091794 46.230637 
L 223.091794 45.726219 
L 224.311108 45.726219 
L 224.311108 44.717383 
L 224.613496 44.717383 
L 224.613496 44.212966 
L 225.184859 44.212966 
L 225.184859 43.20413 
L 227.772491 43.20413 
L 227.772491 42.699712 
L 228.449023 42.699712 
L 228.449023 42.195294 
L 230.976488 42.195294 
L 230.976488 41.690876 
L 338.688 41.690876 
L 338.688 41.690876 
" style="fill:none;stroke:#ff00ff;stroke-linecap:square;stroke-width:1.5;"/>
   </g>
   <g id="line2d_36">
    <defs>
     <path d="M -0 8.485281 
L 5.091169 0 
L 0 -8.485281 
L -5.091169 -0 
z
" id="mbfb7216ae0" style="stroke:#ff00ff;stroke-linejoin:miter;stroke-width:1.5;"/>
    </defs>
    <g>
     <use style="fill-opacity:0;stroke:#ff00ff;stroke-linejoin:miter;stroke-width:1.5;" x="173.744474" xlink:href="#mbfb7216ae0" y="189.485318"/>
     <use style="fill-opacity:0;stroke:#ff00ff;stroke-linejoin:miter;stroke-width:1.5;" x="215.227766" xlink:href="#mbfb7216ae0" y="55.310159"/>
     <use style="fill-opacity:0;stroke:#ff00ff;stroke-linejoin:miter;stroke-width:1.5;" x="230.976488" xlink:href="#mbfb7216ae0" y="41.690876"/>
     <use style="fill-opacity:0;stroke:#ff00ff;stroke-linejoin:miter;stroke-width:1.5;" x="230.976488" xlink:href="#mbfb7216ae0" y="41.690876"/>
     <use style="fill-opacity:0;stroke:#ff00ff;stroke-linejoin:miter;stroke-width:1.5;" x="338.688" xlink:href="#mbfb7216ae0" y="41.690876"/>
    </g>
   </g>
   <g id="line2d_37">
    <path style="fill:none;stroke:#ff00ff;stroke-linecap:square;stroke-width:1.5;"/>
    <g/>
   </g>
   <g id="line2d_38">
    <path clip-path="url(#p8baa1e8485)" d="M 258.377143 41.690876 
" style="fill:none;stroke:#ff00ff;stroke-linecap:square;stroke-width:1.5;"/>
    <defs>
     <path d="M -12 12 
L 12 -12 
M -12 -12 
L 12 12 
" id="m8215426b7f" style="stroke:#ff00ff;"/>
    </defs>
    <g clip-path="url(#p8baa1e8485)">
     <use style="fill:#ff00ff;stroke:#ff00ff;" x="258.377143" xlink:href="#m8215426b7f" y="41.690876"/>
    </g>
   </g>
   <g id="line2d_39">
    <defs>
     <path d="M 0 1.5 
C 0.397805 1.5 0.77937 1.341951 1.06066 1.06066 
C 1.341951 0.77937 1.5 0.397805 1.5 0 
C 1.5 -0.397805 1.341951 -0.77937 1.06066 -1.06066 
C 0.77937 -1.341951 0.397805 -1.5 0 -1.5 
C -0.397805 -1.5 -0.77937 -1.341951 -1.06066 -1.06066 
C -1.341951 -0.77937 -1.5 -0.397805 -1.5 0 
C -1.5 0.397805 -1.341951 0.77937 -1.06066 1.06066 
C -0.77937 1.341951 -0.397805 1.5 0 1.5 
z
" id="m3552789cbb" style="stroke:#ff7500;"/>
    </defs>
    <g>
     <use style="fill:#ff7500;stroke:#ff7500;" x="258.359869" xlink:href="#m3552789cbb" y="140.556783"/>
     <use style="fill:#ff7500;stroke:#ff7500;" x="258.359869" xlink:href="#m3552789cbb" y="140.556783"/>
    </g>
   </g>
   <g id="line2d_40">
    <path d="M 45.512012 298.944 
L 45.512012 296.926328 
L 114.751048 296.926328 
L 114.751048 296.421911 
L 119.097192 296.421911 
L 119.097192 295.917493 
L 121.489881 295.917493 
L 121.489881 295.413075 
L 127.165014 295.413075 
L 127.165014 293.899821 
L 127.954256 293.899821 
L 127.954256 293.395403 
L 128.709321 293.395403 
L 128.709321 292.890985 
L 130.127931 292.890985 
L 130.127931 292.386567 
L 132.060454 292.386567 
L 132.060454 291.88215 
L 133.800029 291.88215 
L 133.800029 291.377732 
L 135.878591 291.377732 
L 135.878591 290.873314 
L 148.064279 290.873314 
L 148.064279 290.368896 
L 156.052535 290.368896 
L 156.052535 289.864478 
L 166.237944 289.864478 
L 166.237944 289.36006 
L 169.055827 289.36006 
L 169.055827 288.855642 
L 171.557249 288.855642 
L 171.557249 288.351224 
L 171.783736 288.351224 
L 171.783736 287.342389 
L 172.361615 287.342389 
L 172.434028 286.333553 
L 173.165193 286.333553 
L 173.165193 285.829135 
L 173.542212 285.829135 
L 173.542212 285.324717 
L 174.743137 285.324717 
L 174.743137 284.315881 
L 175.955464 284.315881 
L 175.955464 283.811463 
L 176.325491 283.811463 
L 176.325491 283.307045 
L 177.354379 283.307045 
L 177.463036 281.793792 
L 177.829252 281.793792 
L 177.829252 281.289374 
L 178.607149 281.289374 
L 178.607149 280.280538 
L 179.024776 280.280538 
L 179.074226 278.767284 
L 179.972447 278.767284 
L 180.065997 277.758449 
L 180.601926 277.758449 
L 180.601926 277.254031 
L 182.350899 277.254031 
L 182.350899 276.749613 
L 182.486773 276.749613 
L 182.486773 276.245195 
L 182.835168 276.245195 
L 182.835168 275.740777 
L 182.947573 275.740777 
L 182.947573 275.236359 
L 185.044047 275.236359 
L 185.049891 274.227523 
L 190.044937 274.227523 
L 190.044937 273.723105 
L 190.584896 273.723105 
L 190.584896 273.218688 
L 192.247037 273.218688 
L 192.247037 272.71427 
L 192.435488 272.71427 
L 192.435488 272.209852 
L 197.675754 272.209852 
L 197.675754 271.705434 
L 198.009597 271.705434 
L 198.009597 270.696598 
L 198.704156 270.696598 
L 198.704156 270.19218 
L 199.081878 270.19218 
L 199.167896 268.174509 
L 199.328365 268.174509 
L 199.428554 265.148001 
L 199.647471 265.148001 
L 199.647471 264.643583 
L 200.5111 264.643583 
L 200.5111 263.634748 
L 200.735941 263.634748 
L 200.735941 263.13033 
L 200.870882 263.13033 
L 200.915632 261.617076 
L 201.278769 261.617076 
L 201.278769 261.112658 
L 201.713323 261.112658 
L 201.713323 260.60824 
L 202.22045 260.60824 
L 202.22045 259.599405 
L 202.54481 259.599405 
L 202.54481 258.590569 
L 202.871661 258.590569 
L 202.871661 257.581733 
L 203.221374 257.581733 
L 203.221374 256.068479 
L 203.340498 256.068479 
L 203.340498 255.564061 
L 203.638821 255.564061 
L 203.638821 255.059644 
L 205.286871 255.059644 
L 205.286871 254.555226 
L 206.68304 254.555226 
L 206.68304 254.050808 
L 207.920665 254.050808 
L 207.920665 253.54639 
L 208.619533 253.54639 
L 208.619533 253.041972 
L 209.351027 253.041972 
L 209.351027 252.537554 
L 210.573151 252.537554 
L 210.651391 249.511047 
L 211.223352 249.511047 
L 211.223352 249.006629 
L 211.356997 249.006629 
L 211.356997 248.502211 
L 211.563868 248.502211 
L 211.563868 247.997793 
L 211.788501 247.997793 
L 211.796065 245.980122 
L 212.140519 245.980122 
L 212.140519 245.475704 
L 213.54667 245.475704 
L 213.54667 244.971286 
L 214.734268 244.971286 
L 214.734268 244.466868 
L 216.572212 244.466868 
L 216.572212 243.96245 
L 217.414175 243.96245 
L 217.414175 243.458032 
L 218.017354 243.458032 
L 218.017354 242.449196 
L 220.337662 242.449196 
L 220.337662 241.944778 
L 220.455431 241.944778 
L 220.455431 240.935943 
L 220.821324 240.935943 
L 220.821324 240.431525 
L 221.022237 240.431525 
L 221.022237 239.927107 
L 222.080361 239.927107 
L 222.118757 238.413853 
L 223.068036 238.413853 
L 223.068036 237.405017 
L 223.241516 237.405017 
L 223.241516 236.396182 
L 223.618614 236.396182 
L 223.618614 234.882928 
L 223.876489 234.882928 
L 223.956378 233.874092 
L 224.103245 233.874092 
L 224.146134 232.360839 
L 224.71474 232.360839 
L 224.71474 231.856421 
L 226.114787 231.856421 
L 226.130308 230.343167 
L 227.069701 230.343167 
L 227.069701 229.838749 
L 228.219536 229.838749 
L 228.219536 229.334331 
L 228.5023 229.334331 
L 228.5023 228.325495 
L 229.186057 228.325495 
L 229.186057 227.821078 
L 229.336992 227.821078 
L 229.336992 227.31666 
L 229.616407 227.31666 
L 229.616407 226.812242 
L 229.834161 226.812242 
L 229.834161 226.307824 
L 230.134432 226.307824 
L 230.134432 225.803406 
L 230.459472 225.803406 
L 230.459472 225.298988 
L 230.715211 225.298988 
L 230.715211 224.79457 
L 230.987394 224.79457 
L 230.987394 223.785734 
L 231.995213 223.785734 
L 231.995213 223.281316 
L 232.828748 223.281316 
L 232.828748 222.272481 
L 233.240436 222.272481 
L 233.270998 220.759227 
L 233.985333 220.759227 
L 233.985333 219.750391 
L 234.327318 219.750391 
L 234.342893 218.237138 
L 234.67427 218.237138 
L 234.67427 217.73272 
L 236.108578 217.73272 
L 236.18283 211.679705 
L 236.367397 211.679705 
L 236.402479 210.166451 
L 236.594481 210.166451 
L 236.676384 207.644362 
L 236.938304 207.644362 
L 236.938304 207.139944 
L 237.257048 207.139944 
L 237.257048 206.131108 
L 237.846188 206.131108 
L 237.846188 205.122272 
L 238.235463 205.122272 
L 238.337012 200.582511 
L 238.361208 200.582511 
L 238.466399 199.573676 
L 239.104848 199.573676 
L 239.104848 199.069258 
L 239.300948 199.069258 
L 239.300948 198.56484 
L 239.946746 198.56484 
L 240.039328 197.051586 
L 240.142339 197.051586 
L 240.142339 196.547168 
L 240.313422 196.547168 
L 240.313422 195.538333 
L 240.443141 195.538333 
L 240.545741 194.529497 
L 240.786486 194.529497 
L 240.786486 194.025079 
L 241.038805 194.025079 
L 241.081642 192.511825 
L 241.172848 192.511825 
L 241.265907 191.502989 
L 241.340414 191.502989 
L 241.413913 190.494154 
L 241.454229 190.494154 
L 241.552209 187.467646 
L 241.865606 187.467646 
L 241.937376 182.927885 
L 242.078927 182.927885 
L 242.078927 182.423467 
L 242.563446 182.423467 
L 242.563446 181.91905 
L 242.926081 181.91905 
L 242.935384 179.901378 
L 243.32231 179.901378 
L 243.346687 178.892542 
L 243.833241 178.892542 
L 243.833241 177.883706 
L 244.05904 177.883706 
L 244.05904 176.874871 
L 244.390015 176.874871 
L 244.419547 175.866035 
L 244.549323 175.866035 
L 244.643677 174.857199 
L 244.947463 174.857199 
L 245.054861 173.848363 
L 245.082916 173.848363 
L 245.082916 172.839527 
L 245.361562 172.839527 
L 245.361562 172.33511 
L 245.498594 172.33511 
L 245.549614 171.326274 
L 246.300312 171.326274 
L 246.300312 170.821856 
L 246.537286 170.821856 
L 246.593245 169.308602 
L 246.894482 169.308602 
L 246.956023 168.299766 
L 247.095784 168.299766 
L 247.095784 167.795349 
L 247.544858 167.795349 
L 247.645342 165.777677 
L 247.684827 165.777677 
L 247.684827 165.273259 
L 248.039852 165.273259 
L 248.039852 164.264423 
L 248.370158 164.264423 
L 248.370158 163.760005 
L 248.558889 163.760005 
L 248.558889 163.255588 
L 249.014364 163.255588 
L 249.014364 162.75117 
L 249.431031 162.75117 
L 249.431031 161.742334 
L 249.927242 161.742334 
L 249.927242 161.237916 
L 250.198606 161.237916 
L 250.221865 160.22908 
L 250.36809 160.22908 
L 250.36809 159.220244 
L 251.415472 159.220244 
L 251.415472 158.715827 
L 251.693603 158.715827 
L 251.702683 157.202573 
L 252.321139 157.202573 
L 252.396496 156.193737 
L 253.02801 156.193737 
L 253.097902 155.184901 
L 253.755825 155.184901 
L 253.755825 154.680483 
L 254.090152 154.680483 
L 254.090152 154.176066 
L 254.620638 154.176066 
L 254.699843 152.158394 
L 254.784264 152.158394 
L 254.784264 151.149558 
L 255.074133 151.149558 
L 255.074133 150.140722 
L 255.878616 150.140722 
L 255.878616 149.131887 
L 257.414294 149.131887 
L 257.48446 145.600961 
L 257.552608 145.600961 
L 257.594792 143.58329 
L 257.739197 143.58329 
L 257.739197 143.078872 
L 257.967606 143.078872 
L 257.967606 142.574454 
L 258.09187 142.574454 
L 258.142937 141.0612 
L 258.359869 141.0612 
L 258.359869 140.556783 
L 338.688 140.556783 
L 338.688 140.556783 
" style="fill:none;stroke:#ff7500;stroke-linecap:square;stroke-width:1.5;"/>
   </g>
   <g id="line2d_41">
    <defs>
     <path d="M 0 -6 
L -1.347084 -1.854102 
L -5.706339 -1.854102 
L -2.179628 0.708204 
L -3.526712 4.854102 
L -0 2.291796 
L 3.526712 4.854102 
L 2.179628 0.708204 
L 5.706339 -1.854102 
L 1.347084 -1.854102 
z
" id="m4f4e241f7d" style="stroke:#ff7500;stroke-linejoin:bevel;stroke-width:1.5;"/>
    </defs>
    <g>
     <use style="fill-opacity:0;stroke:#ff7500;stroke-linejoin:bevel;stroke-width:1.5;" x="169.055827" xlink:href="#m4f4e241f7d" y="289.36006"/>
     <use style="fill-opacity:0;stroke:#ff7500;stroke-linejoin:bevel;stroke-width:1.5;" x="226.130308" xlink:href="#m4f4e241f7d" y="231.352003"/>
     <use style="fill-opacity:0;stroke:#ff7500;stroke-linejoin:bevel;stroke-width:1.5;" x="258.359869" xlink:href="#m4f4e241f7d" y="141.0612"/>
     <use style="fill-opacity:0;stroke:#ff7500;stroke-linejoin:bevel;stroke-width:1.5;" x="258.359869" xlink:href="#m4f4e241f7d" y="140.556783"/>
     <use style="fill-opacity:0;stroke:#ff7500;stroke-linejoin:bevel;stroke-width:1.5;" x="338.688" xlink:href="#m4f4e241f7d" y="140.556783"/>
    </g>
   </g>
   <g id="line2d_42">
    <path style="fill:none;stroke:#ff7500;stroke-linecap:square;stroke-width:1.5;"/>
    <g/>
   </g>
   <g id="line2d_43">
    <path clip-path="url(#p8baa1e8485)" d="M 258.377143 140.556783 
" style="fill:none;stroke:#ff7500;stroke-linecap:square;stroke-width:1.5;"/>
    <defs>
     <path d="M -12 12 
L 12 -12 
M -12 -12 
L 12 12 
" id="me2b029ccb7" style="stroke:#ff7500;"/>
    </defs>
    <g clip-path="url(#p8baa1e8485)">
     <use style="fill:#ff7500;stroke:#ff7500;" x="258.377143" xlink:href="#me2b029ccb7" y="140.556783"/>
    </g>
   </g>
   <g id="line2d_44">
    <path d="M 338.688 140.556783 
L 369.60768 293.092752 
" style="fill:none;stroke:#ff7500;stroke-linecap:square;stroke-width:1.5;"/>
    <g>
     <use style="fill-opacity:0;stroke:#ff7500;stroke-linejoin:bevel;stroke-width:1.5;" x="338.688" xlink:href="#m4f4e241f7d" y="140.556783"/>
     <use style="fill-opacity:0;stroke:#ff7500;stroke-linejoin:bevel;stroke-width:1.5;" x="369.60768" xlink:href="#m4f4e241f7d" y="293.092752"/>
    </g>
   </g>
   <g id="line2d_45">
    <path d="M 338.688 41.690876 
L 369.60768 152.662812 
" style="fill:none;stroke:#ff00ff;stroke-linecap:square;stroke-width:1.5;"/>
    <g>
     <use style="fill-opacity:0;stroke:#ff00ff;stroke-linejoin:miter;stroke-width:1.5;" x="338.688" xlink:href="#mbfb7216ae0" y="41.690876"/>
     <use style="fill-opacity:0;stroke:#ff00ff;stroke-linejoin:miter;stroke-width:1.5;" x="369.60768" xlink:href="#mbfb7216ae0" y="152.662812"/>
    </g>
   </g>
   <g id="line2d_46">
    <path d="M 338.688 41.690876 
L 369.60768 12.232871 
" style="fill:none;stroke:#000080;stroke-linecap:square;stroke-width:1.5;"/>
    <g>
     <use style="fill-opacity:0;stroke:#000080;stroke-width:1.5;" x="338.688" xlink:href="#m0da486c76b" y="41.690876"/>
     <use style="fill-opacity:0;stroke:#000080;stroke-width:1.5;" x="369.60768" xlink:href="#m0da486c76b" y="12.232871"/>
    </g>
   </g>
   <g id="line2d_47">
    <path d="M 338.688 298.944 
L 338.688 6.381624 
" style="fill:none;stroke:#000000;stroke-linecap:square;stroke-width:1.5;"/>
   </g>
   <g id="patch_3">
    <path d="M 57.6 298.944 
L 57.6 3.456 
" style="fill:none;stroke:#000000;stroke-linecap:square;stroke-linejoin:miter;stroke-width:0.8;"/>
   </g>
   <g id="patch_4">
    <path d="M 338.688 298.944 
L 338.688 3.456 
" style="fill:none;stroke:#000000;stroke-linecap:square;stroke-linejoin:miter;stroke-width:0.8;"/>
   </g>
   <g id="patch_5">
    <path d="M 57.6 298.944 
L 338.688 298.944 
" style="fill:none;stroke:#000000;stroke-linecap:square;stroke-linejoin:miter;stroke-width:0.8;"/>
   </g>
   <g id="patch_6">
    <path d="M 57.6 3.456 
L 338.688 3.456 
" style="fill:none;stroke:#000000;stroke-linecap:square;stroke-linejoin:miter;stroke-width:0.8;"/>
   </g>
   <g id="text_13">
    <!-- f11 -->
    <g transform="translate(375.22944 297.78369)scale(0.17 -0.17)">
     <use xlink:href="#DejaVuSans-102"/>
     <use x="35.205078" xlink:href="#DejaVuSans-49"/>
     <use x="98.828125" xlink:href="#DejaVuSans-49"/>
    </g>
   </g>
   <g id="text_14">
    <!-- f2 -->
    <g transform="translate(375.22944 157.353749)scale(0.17 -0.17)">
     <use xlink:href="#DejaVuSans-102"/>
     <use x="35.205078" xlink:href="#DejaVuSans-50"/>
    </g>
   </g>
   <g id="text_15">
    <!-- f1 -->
    <g transform="translate(375.22944 16.923809)scale(0.17 -0.17)">
     <use xlink:href="#DejaVuSans-102"/>
     <use x="35.205078" xlink:href="#DejaVuSans-49"/>
    </g>
   </g>
   <g id="text_16">
    <!-- bbob-biobj -->
    <g transform="translate(60.41088 14.161286)scale(0.102 -0.102)">
     <defs>
      <path d="M 48.6875 27.296875 
Q 48.6875 37.203125 44.609375 42.84375 
Q 40.53125 48.484375 33.40625 48.484375 
Q 26.265625 48.484375 22.1875 42.84375 
Q 18.109375 37.203125 18.109375 27.296875 
Q 18.109375 17.390625 22.1875 11.75 
Q 26.265625 6.109375 33.40625 6.109375 
Q 40.53125 6.109375 44.609375 11.75 
Q 48.6875 17.390625 48.6875 27.296875 
z
M 18.109375 46.390625 
Q 20.953125 51.265625 25.265625 53.625 
Q 29.59375 56 35.59375 56 
Q 45.5625 56 51.78125 48.09375 
Q 58.015625 40.1875 58.015625 27.296875 
Q 58.015625 14.40625 51.78125 6.484375 
Q 45.5625 -1.421875 35.59375 -1.421875 
Q 29.59375 -1.421875 25.265625 0.953125 
Q 20.953125 3.328125 18.109375 8.203125 
L 18.109375 0 
L 9.078125 0 
L 9.078125 75.984375 
L 18.109375 75.984375 
z
" id="DejaVuSans-98"/>
      <path d="M 9.421875 54.6875 
L 18.40625 54.6875 
L 18.40625 -0.984375 
Q 18.40625 -11.421875 14.421875 -16.109375 
Q 10.453125 -20.796875 1.609375 -20.796875 
L -1.8125 -20.796875 
L -1.8125 -13.1875 
L 0.59375 -13.1875 
Q 5.71875 -13.1875 7.5625 -10.8125 
Q 9.421875 -8.453125 9.421875 -0.984375 
z
M 9.421875 75.984375 
L 18.40625 75.984375 
L 18.40625 64.59375 
L 9.421875 64.59375 
z
" id="DejaVuSans-106"/>
     </defs>
     <use xlink:href="#DejaVuSans-98"/>
     <use x="63.476562" xlink:href="#DejaVuSans-98"/>
     <use x="126.953125" xlink:href="#DejaVuSans-111"/>
     <use x="188.134766" xlink:href="#DejaVuSans-98"/>
     <use x="251.611328" xlink:href="#DejaVuSans-45"/>
     <use x="287.695312" xlink:href="#DejaVuSans-98"/>
     <use x="351.171875" xlink:href="#DejaVuSans-105"/>
     <use x="378.955078" xlink:href="#DejaVuSans-111"/>
     <use x="440.136719" xlink:href="#DejaVuSans-98"/>
     <use x="503.613281" xlink:href="#DejaVuSans-106"/>
    </g>
    <!-- 1-separable 1-separable, 2-D -->
    <g transform="translate(60.41088 25.583055)scale(0.102 -0.102)">
     <defs>
      <path d="M 19.671875 64.796875 
L 19.671875 8.109375 
L 31.59375 8.109375 
Q 46.6875 8.109375 53.6875 14.9375 
Q 60.6875 21.78125 60.6875 36.53125 
Q 60.6875 51.171875 53.6875 57.984375 
Q 46.6875 64.796875 31.59375 64.796875 
z
M 9.8125 72.90625 
L 30.078125 72.90625 
Q 51.265625 72.90625 61.171875 64.09375 
Q 71.09375 55.28125 71.09375 36.53125 
Q 71.09375 17.671875 61.125 8.828125 
Q 51.171875 0 30.078125 0 
L 9.8125 0 
z
" id="DejaVuSans-68"/>
     </defs>
     <use xlink:href="#DejaVuSans-49"/>
     <use x="63.623047" xlink:href="#DejaVuSans-45"/>
     <use x="99.707031" xlink:href="#DejaVuSans-115"/>
     <use x="151.806641" xlink:href="#DejaVuSans-101"/>
     <use x="213.330078" xlink:href="#DejaVuSans-112"/>
     <use x="276.806641" xlink:href="#DejaVuSans-97"/>
     <use x="338.085938" xlink:href="#DejaVuSans-114"/>
     <use x="379.199219" xlink:href="#DejaVuSans-97"/>
     <use x="440.478516" xlink:href="#DejaVuSans-98"/>
     <use x="503.955078" xlink:href="#DejaVuSans-108"/>
     <use x="531.738281" xlink:href="#DejaVuSans-101"/>
     <use x="593.261719" xlink:href="#DejaVuSans-32"/>
     <use x="625.048828" xlink:href="#DejaVuSans-49"/>
     <use x="688.671875" xlink:href="#DejaVuSans-45"/>
     <use x="724.755859" xlink:href="#DejaVuSans-115"/>
     <use x="776.855469" xlink:href="#DejaVuSans-101"/>
     <use x="838.378906" xlink:href="#DejaVuSans-112"/>
     <use x="901.855469" xlink:href="#DejaVuSans-97"/>
     <use x="963.134766" xlink:href="#DejaVuSans-114"/>
     <use x="1004.248047" xlink:href="#DejaVuSans-97"/>
     <use x="1065.527344" xlink:href="#DejaVuSans-98"/>
     <use x="1129.003906" xlink:href="#DejaVuSans-108"/>
     <use x="1156.787109" xlink:href="#DejaVuSans-101"/>
     <use x="1218.310547" xlink:href="#DejaVuSans-44"/>
     <use x="1250.097656" xlink:href="#DejaVuSans-32"/>
     <use x="1281.884766" xlink:href="#DejaVuSans-50"/>
     <use x="1345.507812" xlink:href="#DejaVuSans-45"/>
     <use x="1381.591797" xlink:href="#DejaVuSans-68"/>
    </g>
    <!-- 58 targets: 1..-1.0e-4 -->
    <g transform="translate(60.41088 37.004824)scale(0.102 -0.102)">
     <defs>
      <path d="M 10.796875 72.90625 
L 49.515625 72.90625 
L 49.515625 64.59375 
L 19.828125 64.59375 
L 19.828125 46.734375 
Q 21.96875 47.46875 24.109375 47.828125 
Q 26.265625 48.1875 28.421875 48.1875 
Q 40.625 48.1875 47.75 41.5 
Q 54.890625 34.8125 54.890625 23.390625 
Q 54.890625 11.625 47.5625 5.09375 
Q 40.234375 -1.421875 26.90625 -1.421875 
Q 22.3125 -1.421875 17.546875 -0.640625 
Q 12.796875 0.140625 7.71875 1.703125 
L 7.71875 11.625 
Q 12.109375 9.234375 16.796875 8.0625 
Q 21.484375 6.890625 26.703125 6.890625 
Q 35.15625 6.890625 40.078125 11.328125 
Q 45.015625 15.765625 45.015625 23.390625 
Q 45.015625 31 40.078125 35.4375 
Q 35.15625 39.890625 26.703125 39.890625 
Q 22.75 39.890625 18.8125 39.015625 
Q 14.890625 38.140625 10.796875 36.28125 
z
" id="DejaVuSans-53"/>
      <path d="M 11.71875 12.40625 
L 22.015625 12.40625 
L 22.015625 0 
L 11.71875 0 
z
M 11.71875 51.703125 
L 22.015625 51.703125 
L 22.015625 39.3125 
L 11.71875 39.3125 
z
" id="DejaVuSans-58"/>
     </defs>
     <use xlink:href="#DejaVuSans-53"/>
     <use x="63.623047" xlink:href="#DejaVuSans-56"/>
     <use x="127.246094" xlink:href="#DejaVuSans-32"/>
     <use x="159.033203" xlink:href="#DejaVuSans-116"/>
     <use x="198.242188" xlink:href="#DejaVuSans-97"/>
     <use x="259.521484" xlink:href="#DejaVuSans-114"/>
     <use x="298.884766" xlink:href="#DejaVuSans-103"/>
     <use x="362.361328" xlink:href="#DejaVuSans-101"/>
     <use x="423.884766" xlink:href="#DejaVuSans-116"/>
     <use x="463.09375" xlink:href="#DejaVuSans-115"/>
     <use x="515.193359" xlink:href="#DejaVuSans-58"/>
     <use x="548.884766" xlink:href="#DejaVuSans-32"/>
     <use x="580.671875" xlink:href="#DejaVuSans-49"/>
     <use x="644.294922" xlink:href="#DejaVuSans-46"/>
     <use x="676.082031" xlink:href="#DejaVuSans-46"/>
     <use x="707.869141" xlink:href="#DejaVuSans-45"/>
     <use x="743.953125" xlink:href="#DejaVuSans-49"/>
     <use x="807.576172" xlink:href="#DejaVuSans-46"/>
     <use x="839.363281" xlink:href="#DejaVuSans-48"/>
     <use x="902.986328" xlink:href="#DejaVuSans-101"/>
     <use x="964.509766" xlink:href="#DejaVuSans-45"/>
     <use x="1000.59375" xlink:href="#DejaVuSans-52"/>
    </g>
    <!-- 10 instances -->
    <g transform="translate(60.41088 48.426593)scale(0.102 -0.102)">
     <use xlink:href="#DejaVuSans-49"/>
     <use x="63.623047" xlink:href="#DejaVuSans-48"/>
     <use x="127.246094" xlink:href="#DejaVuSans-32"/>
     <use x="159.033203" xlink:href="#DejaVuSans-105"/>
     <use x="186.816406" xlink:href="#DejaVuSans-110"/>
     <use x="250.195312" xlink:href="#DejaVuSans-115"/>
     <use x="302.294922" xlink:href="#DejaVuSans-116"/>
     <use x="341.503906" xlink:href="#DejaVuSans-97"/>
     <use x="402.783203" xlink:href="#DejaVuSans-110"/>
     <use x="466.162109" xlink:href="#DejaVuSans-99"/>
     <use x="521.142578" xlink:href="#DejaVuSans-101"/>
     <use x="582.666016" xlink:href="#DejaVuSans-115"/>
    </g>
   </g>
   <g id="text_17">
    <!-- v2.4, hv-hash=ff0e71e8cd978373 -->
    <g style="fill:#808080;" transform="translate(112.648687 293.909432)scale(0.1 -0.1)">
     <defs>
      <path d="M 54.890625 33.015625 
L 54.890625 0 
L 45.90625 0 
L 45.90625 32.71875 
Q 45.90625 40.484375 42.875 44.328125 
Q 39.84375 48.1875 33.796875 48.1875 
Q 26.515625 48.1875 22.3125 43.546875 
Q 18.109375 38.921875 18.109375 30.90625 
L 18.109375 0 
L 9.078125 0 
L 9.078125 75.984375 
L 18.109375 75.984375 
L 18.109375 46.1875 
Q 21.34375 51.125 25.703125 53.5625 
Q 30.078125 56 35.796875 56 
Q 45.21875 56 50.046875 50.171875 
Q 54.890625 44.34375 54.890625 33.015625 
z
" id="DejaVuSans-104"/>
      <path d="M 10.59375 45.40625 
L 73.1875 45.40625 
L 73.1875 37.203125 
L 10.59375 37.203125 
z
M 10.59375 25.484375 
L 73.1875 25.484375 
L 73.1875 17.1875 
L 10.59375 17.1875 
z
" id="DejaVuSans-61"/>
      <path d="M 8.203125 72.90625 
L 55.078125 72.90625 
L 55.078125 68.703125 
L 28.609375 0 
L 18.3125 0 
L 43.21875 64.59375 
L 8.203125 64.59375 
z
" id="DejaVuSans-55"/>
      <path d="M 10.984375 1.515625 
L 10.984375 10.5 
Q 14.703125 8.734375 18.5 7.8125 
Q 22.3125 6.890625 25.984375 6.890625 
Q 35.75 6.890625 40.890625 13.453125 
Q 46.046875 20.015625 46.78125 33.40625 
Q 43.953125 29.203125 39.59375 26.953125 
Q 35.25 24.703125 29.984375 24.703125 
Q 19.046875 24.703125 12.671875 31.3125 
Q 6.296875 37.9375 6.296875 49.421875 
Q 6.296875 60.640625 12.9375 67.421875 
Q 19.578125 74.21875 30.609375 74.21875 
Q 43.265625 74.21875 49.921875 64.515625 
Q 56.59375 54.828125 56.59375 36.375 
Q 56.59375 19.140625 48.40625 8.859375 
Q 40.234375 -1.421875 26.421875 -1.421875 
Q 22.703125 -1.421875 18.890625 -0.6875 
Q 15.09375 0.046875 10.984375 1.515625 
z
M 30.609375 32.421875 
Q 37.25 32.421875 41.125 36.953125 
Q 45.015625 41.5 45.015625 49.421875 
Q 45.015625 57.28125 41.125 61.84375 
Q 37.25 66.40625 30.609375 66.40625 
Q 23.96875 66.40625 20.09375 61.84375 
Q 16.21875 57.28125 16.21875 49.421875 
Q 16.21875 41.5 20.09375 36.953125 
Q 23.96875 32.421875 30.609375 32.421875 
z
" id="DejaVuSans-57"/>
      <path d="M 40.578125 39.3125 
Q 47.65625 37.796875 51.625 33 
Q 55.609375 28.21875 55.609375 21.1875 
Q 55.609375 10.40625 48.1875 4.484375 
Q 40.765625 -1.421875 27.09375 -1.421875 
Q 22.515625 -1.421875 17.65625 -0.515625 
Q 12.796875 0.390625 7.625 2.203125 
L 7.625 11.71875 
Q 11.71875 9.328125 16.59375 8.109375 
Q 21.484375 6.890625 26.8125 6.890625 
Q 36.078125 6.890625 40.9375 10.546875 
Q 45.796875 14.203125 45.796875 21.1875 
Q 45.796875 27.640625 41.28125 31.265625 
Q 36.765625 34.90625 28.71875 34.90625 
L 20.21875 34.90625 
L 20.21875 43.015625 
L 29.109375 43.015625 
Q 36.375 43.015625 40.234375 45.921875 
Q 44.09375 48.828125 44.09375 54.296875 
Q 44.09375 59.90625 40.109375 62.90625 
Q 36.140625 65.921875 28.71875 65.921875 
Q 24.65625 65.921875 20.015625 65.03125 
Q 15.375 64.15625 9.8125 62.3125 
L 9.8125 71.09375 
Q 15.4375 72.65625 20.34375 73.4375 
Q 25.25 74.21875 29.59375 74.21875 
Q 40.828125 74.21875 47.359375 69.109375 
Q 53.90625 64.015625 53.90625 55.328125 
Q 53.90625 49.265625 50.4375 45.09375 
Q 46.96875 40.921875 40.578125 39.3125 
z
" id="DejaVuSans-51"/>
     </defs>
     <use xlink:href="#DejaVuSans-118"/>
     <use x="59.179688" xlink:href="#DejaVuSans-50"/>
     <use x="122.802734" xlink:href="#DejaVuSans-46"/>
     <use x="154.589844" xlink:href="#DejaVuSans-52"/>
     <use x="218.212891" xlink:href="#DejaVuSans-44"/>
     <use x="250" xlink:href="#DejaVuSans-32"/>
     <use x="281.787109" xlink:href="#DejaVuSans-104"/>
     <use x="345.166016" xlink:href="#DejaVuSans-118"/>
     <use x="401.720703" xlink:href="#DejaVuSans-45"/>
     <use x="437.804688" xlink:href="#DejaVuSans-104"/>
     <use x="501.183594" xlink:href="#DejaVuSans-97"/>
     <use x="562.462891" xlink:href="#DejaVuSans-115"/>
     <use x="614.5625" xlink:href="#DejaVuSans-104"/>
     <use x="677.941406" xlink:href="#DejaVuSans-61"/>
     <use x="761.730469" xlink:href="#DejaVuSans-102"/>
     <use x="796.935547" xlink:href="#DejaVuSans-102"/>
     <use x="832.140625" xlink:href="#DejaVuSans-48"/>
     <use x="895.763672" xlink:href="#DejaVuSans-101"/>
     <use x="957.287109" xlink:href="#DejaVuSans-55"/>
     <use x="1020.910156" xlink:href="#DejaVuSans-49"/>
     <use x="1084.533203" xlink:href="#DejaVuSans-101"/>
     <use x="1146.056641" xlink:href="#DejaVuSans-56"/>
     <use x="1209.679688" xlink:href="#DejaVuSans-99"/>
     <use x="1264.660156" xlink:href="#DejaVuSans-100"/>
     <use x="1328.136719" xlink:href="#DejaVuSans-57"/>
     <use x="1391.759766" xlink:href="#DejaVuSans-55"/>
     <use x="1455.382812" xlink:href="#DejaVuSans-56"/>
     <use x="1519.005859" xlink:href="#DejaVuSans-51"/>
     <use x="1582.628906" xlink:href="#DejaVuSans-55"/>
     <use x="1646.251953" xlink:href="#DejaVuSans-51"/>
    </g>
   </g>
  </g>
 </g>
 <defs>
  <clipPath id="p8baa1e8485">
   <rect height="295.488" width="281.088" x="57.6" y="3.456"/>
  </clipPath>
 </defs>
</svg>
