<?xml version="1.0" encoding="utf-8" standalone="no"?>
<!DOCTYPE svg PUBLIC "-//W3C//DTD SVG 1.1//EN"
  "http://www.w3.org/Graphics/SVG/1.1/DTD/svg11.dtd">
<!-- Created with matplotlib (https://matplotlib.org/) -->
<svg height="345.6pt" version="1.1" viewBox="0 0 460.8 345.6" width="460.8pt" xmlns="http://www.w3.org/2000/svg" xmlns:xlink="http://www.w3.org/1999/xlink">
 <metadata>
  <rdf:RDF xmlns:cc="http://creativecommons.org/ns#" xmlns:dc="http://purl.org/dc/elements/1.1/" xmlns:rdf="http://www.w3.org/1999/02/22-rdf-syntax-ns#">
   <cc:Work>
    <dc:type rdf:resource="http://purl.org/dc/dcmitype/StillImage"/>
    <dc:date>2021-03-30T16:54:58.780317</dc:date>
    <dc:format>image/svg+xml</dc:format>
    <dc:creator>
     <cc:Agent>
      <dc:title>Matplotlib v3.3.4, https://matplotlib.org/</dc:title>
     </cc:Agent>
    </dc:creator>
   </cc:Work>
  </rdf:RDF>
 </metadata>
 <defs>
  <style type="text/css">*{stroke-linecap:butt;stroke-linejoin:round;}</style>
 </defs>
 <g id="figure_1">
  <g id="patch_1">
   <path d="M 0 345.6 
L 460.8 345.6 
L 460.8 0 
L 0 0 
z
" style="fill:#ffffff;"/>
  </g>
  <g id="axes_1">
   <g id="patch_2">
    <path d="M 57.6 298.944 
L 338.688 298.944 
L 338.688 27.648 
L 57.6 27.648 
z
" style="fill:#ffffff;"/>
   </g>
   <g id="matplotlib.axis_1">
    <g id="xtick_1">
     <g id="line2d_1">
      <path clip-path="url(#p20f7894370)" d="M 57.6 298.944 
L 57.6 27.648 
" style="fill:none;stroke:#b0b0b0;stroke-linecap:square;stroke-width:0.8;"/>
     </g>
     <g id="line2d_2">
      <defs>
       <path d="M 0 0 
L 0 3.5 
" id="mcf2792f485" style="stroke:#000000;stroke-width:0.8;"/>
      </defs>
      <g>
       <use style="stroke:#000000;stroke-width:0.8;" x="57.6" xlink:href="#mcf2792f485" y="298.944"/>
      </g>
     </g>
     <g id="text_1">
      <!-- 0 -->
      <g transform="translate(51.2375 321.140875)scale(0.2 -0.2)">
       <defs>
        <path d="M 31.78125 66.40625 
Q 24.171875 66.40625 20.328125 58.90625 
Q 16.5 51.421875 16.5 36.375 
Q 16.5 21.390625 20.328125 13.890625 
Q 24.171875 6.390625 31.78125 6.390625 
Q 39.453125 6.390625 43.28125 13.890625 
Q 47.125 21.390625 47.125 36.375 
Q 47.125 51.421875 43.28125 58.90625 
Q 39.453125 66.40625 31.78125 66.40625 
z
M 31.78125 74.21875 
Q 44.046875 74.21875 50.515625 64.515625 
Q 56.984375 54.828125 56.984375 36.375 
Q 56.984375 17.96875 50.515625 8.265625 
Q 44.046875 -1.421875 31.78125 -1.421875 
Q 19.53125 -1.421875 13.0625 8.265625 
Q 6.59375 17.96875 6.59375 36.375 
Q 6.59375 54.828125 13.0625 64.515625 
Q 19.53125 74.21875 31.78125 74.21875 
z
" id="DejaVuSans-48"/>
       </defs>
       <use xlink:href="#DejaVuSans-48"/>
      </g>
     </g>
    </g>
    <g id="xtick_2">
     <g id="line2d_3">
      <path clip-path="url(#p20f7894370)" d="M 137.910857 298.944 
L 137.910857 27.648 
" style="fill:none;stroke:#b0b0b0;stroke-linecap:square;stroke-width:0.8;"/>
     </g>
     <g id="line2d_4">
      <g>
       <use style="stroke:#000000;stroke-width:0.8;" x="137.910857" xlink:href="#mcf2792f485" y="298.944"/>
      </g>
     </g>
     <g id="text_2">
      <!-- 2 -->
      <g transform="translate(131.548357 321.140875)scale(0.2 -0.2)">
       <defs>
        <path d="M 19.1875 8.296875 
L 53.609375 8.296875 
L 53.609375 0 
L 7.328125 0 
L 7.328125 8.296875 
Q 12.9375 14.109375 22.625 23.890625 
Q 32.328125 33.6875 34.8125 36.53125 
Q 39.546875 41.84375 41.421875 45.53125 
Q 43.3125 49.21875 43.3125 52.78125 
Q 43.3125 58.59375 39.234375 62.25 
Q 35.15625 65.921875 28.609375 65.921875 
Q 23.96875 65.921875 18.8125 64.3125 
Q 13.671875 62.703125 7.8125 59.421875 
L 7.8125 69.390625 
Q 13.765625 71.78125 18.9375 73 
Q 24.125 74.21875 28.421875 74.21875 
Q 39.75 74.21875 46.484375 68.546875 
Q 53.21875 62.890625 53.21875 53.421875 
Q 53.21875 48.921875 51.53125 44.890625 
Q 49.859375 40.875 45.40625 35.40625 
Q 44.1875 33.984375 37.640625 27.21875 
Q 31.109375 20.453125 19.1875 8.296875 
z
" id="DejaVuSans-50"/>
       </defs>
       <use xlink:href="#DejaVuSans-50"/>
      </g>
     </g>
    </g>
    <g id="xtick_3">
     <g id="line2d_5">
      <path clip-path="url(#p20f7894370)" d="M 218.221714 298.944 
L 218.221714 27.648 
" style="fill:none;stroke:#b0b0b0;stroke-linecap:square;stroke-width:0.8;"/>
     </g>
     <g id="line2d_6">
      <g>
       <use style="stroke:#000000;stroke-width:0.8;" x="218.221714" xlink:href="#mcf2792f485" y="298.944"/>
      </g>
     </g>
     <g id="text_3">
      <!-- 4 -->
      <g transform="translate(211.859214 321.140875)scale(0.2 -0.2)">
       <defs>
        <path d="M 37.796875 64.3125 
L 12.890625 25.390625 
L 37.796875 25.390625 
z
M 35.203125 72.90625 
L 47.609375 72.90625 
L 47.609375 25.390625 
L 58.015625 25.390625 
L 58.015625 17.1875 
L 47.609375 17.1875 
L 47.609375 0 
L 37.796875 0 
L 37.796875 17.1875 
L 4.890625 17.1875 
L 4.890625 26.703125 
z
" id="DejaVuSans-52"/>
       </defs>
       <use xlink:href="#DejaVuSans-52"/>
      </g>
     </g>
    </g>
    <g id="xtick_4">
     <g id="line2d_7">
      <path clip-path="url(#p20f7894370)" d="M 298.532571 298.944 
L 298.532571 27.648 
" style="fill:none;stroke:#b0b0b0;stroke-linecap:square;stroke-width:0.8;"/>
     </g>
     <g id="line2d_8">
      <g>
       <use style="stroke:#000000;stroke-width:0.8;" x="298.532571" xlink:href="#mcf2792f485" y="298.944"/>
      </g>
     </g>
     <g id="text_4">
      <!-- 6 -->
      <g transform="translate(292.170071 321.140875)scale(0.2 -0.2)">
       <defs>
        <path d="M 33.015625 40.375 
Q 26.375 40.375 22.484375 35.828125 
Q 18.609375 31.296875 18.609375 23.390625 
Q 18.609375 15.53125 22.484375 10.953125 
Q 26.375 6.390625 33.015625 6.390625 
Q 39.65625 6.390625 43.53125 10.953125 
Q 47.40625 15.53125 47.40625 23.390625 
Q 47.40625 31.296875 43.53125 35.828125 
Q 39.65625 40.375 33.015625 40.375 
z
M 52.59375 71.296875 
L 52.59375 62.3125 
Q 48.875 64.0625 45.09375 64.984375 
Q 41.3125 65.921875 37.59375 65.921875 
Q 27.828125 65.921875 22.671875 59.328125 
Q 17.53125 52.734375 16.796875 39.40625 
Q 19.671875 43.65625 24.015625 45.921875 
Q 28.375 48.1875 33.59375 48.1875 
Q 44.578125 48.1875 50.953125 41.515625 
Q 57.328125 34.859375 57.328125 23.390625 
Q 57.328125 12.15625 50.6875 5.359375 
Q 44.046875 -1.421875 33.015625 -1.421875 
Q 20.359375 -1.421875 13.671875 8.265625 
Q 6.984375 17.96875 6.984375 36.375 
Q 6.984375 53.65625 15.1875 63.9375 
Q 23.390625 74.21875 37.203125 74.21875 
Q 40.921875 74.21875 44.703125 73.484375 
Q 48.484375 72.75 52.59375 71.296875 
z
" id="DejaVuSans-54"/>
       </defs>
       <use xlink:href="#DejaVuSans-54"/>
      </g>
     </g>
    </g>
    <g id="xtick_5">
     <g id="line2d_9">
      <path clip-path="url(#p20f7894370)" d="M 97.755429 298.944 
L 97.755429 27.648 
" style="fill:none;stroke:#b0b0b0;stroke-linecap:square;stroke-width:0.8;"/>
     </g>
     <g id="line2d_10">
      <defs>
       <path d="M 0 0 
L 0 2 
" id="m138a42f162" style="stroke:#000000;stroke-width:0.6;"/>
      </defs>
      <g>
       <use style="stroke:#000000;stroke-width:0.6;" x="97.755429" xlink:href="#m138a42f162" y="298.944"/>
      </g>
     </g>
    </g>
    <g id="xtick_6">
     <g id="line2d_11">
      <path clip-path="url(#p20f7894370)" d="M 178.066286 298.944 
L 178.066286 27.648 
" style="fill:none;stroke:#b0b0b0;stroke-linecap:square;stroke-width:0.8;"/>
     </g>
     <g id="line2d_12">
      <g>
       <use style="stroke:#000000;stroke-width:0.6;" x="178.066286" xlink:href="#m138a42f162" y="298.944"/>
      </g>
     </g>
    </g>
    <g id="xtick_7">
     <g id="line2d_13">
      <path clip-path="url(#p20f7894370)" d="M 258.377143 298.944 
L 258.377143 27.648 
" style="fill:none;stroke:#b0b0b0;stroke-linecap:square;stroke-width:0.8;"/>
     </g>
     <g id="line2d_14">
      <g>
       <use style="stroke:#000000;stroke-width:0.6;" x="258.377143" xlink:href="#m138a42f162" y="298.944"/>
      </g>
     </g>
    </g>
    <g id="xtick_8">
     <g id="line2d_15">
      <path clip-path="url(#p20f7894370)" d="M 338.688 298.944 
L 338.688 27.648 
" style="fill:none;stroke:#b0b0b0;stroke-linecap:square;stroke-width:0.8;"/>
     </g>
     <g id="line2d_16">
      <g>
       <use style="stroke:#000000;stroke-width:0.6;" x="338.688" xlink:href="#m138a42f162" y="298.944"/>
      </g>
     </g>
    </g>
    <g id="text_5">
     <!-- log10(# f-evals / dimension) -->
     <g transform="translate(77.764078 342.217594)scale(0.17 -0.17)">
      <defs>
       <path d="M 9.421875 75.984375 
L 18.40625 75.984375 
L 18.40625 0 
L 9.421875 0 
z
" id="DejaVuSans-108"/>
       <path d="M 30.609375 48.390625 
Q 23.390625 48.390625 19.1875 42.75 
Q 14.984375 37.109375 14.984375 27.296875 
Q 14.984375 17.484375 19.15625 11.84375 
Q 23.34375 6.203125 30.609375 6.203125 
Q 37.796875 6.203125 41.984375 11.859375 
Q 46.1875 17.53125 46.1875 27.296875 
Q 46.1875 37.015625 41.984375 42.703125 
Q 37.796875 48.390625 30.609375 48.390625 
z
M 30.609375 56 
Q 42.328125 56 49.015625 48.375 
Q 55.71875 40.765625 55.71875 27.296875 
Q 55.71875 13.875 49.015625 6.21875 
Q 42.328125 -1.421875 30.609375 -1.421875 
Q 18.84375 -1.421875 12.171875 6.21875 
Q 5.515625 13.875 5.515625 27.296875 
Q 5.515625 40.765625 12.171875 48.375 
Q 18.84375 56 30.609375 56 
z
" id="DejaVuSans-111"/>
       <path d="M 45.40625 27.984375 
Q 45.40625 37.75 41.375 43.109375 
Q 37.359375 48.484375 30.078125 48.484375 
Q 22.859375 48.484375 18.828125 43.109375 
Q 14.796875 37.75 14.796875 27.984375 
Q 14.796875 18.265625 18.828125 12.890625 
Q 22.859375 7.515625 30.078125 7.515625 
Q 37.359375 7.515625 41.375 12.890625 
Q 45.40625 18.265625 45.40625 27.984375 
z
M 54.390625 6.78125 
Q 54.390625 -7.171875 48.1875 -13.984375 
Q 42 -20.796875 29.203125 -20.796875 
Q 24.46875 -20.796875 20.265625 -20.09375 
Q 16.0625 -19.390625 12.109375 -17.921875 
L 12.109375 -9.1875 
Q 16.0625 -11.328125 19.921875 -12.34375 
Q 23.78125 -13.375 27.78125 -13.375 
Q 36.625 -13.375 41.015625 -8.765625 
Q 45.40625 -4.15625 45.40625 5.171875 
L 45.40625 9.625 
Q 42.625 4.78125 38.28125 2.390625 
Q 33.9375 0 27.875 0 
Q 17.828125 0 11.671875 7.65625 
Q 5.515625 15.328125 5.515625 27.984375 
Q 5.515625 40.671875 11.671875 48.328125 
Q 17.828125 56 27.875 56 
Q 33.9375 56 38.28125 53.609375 
Q 42.625 51.21875 45.40625 46.390625 
L 45.40625 54.6875 
L 54.390625 54.6875 
z
" id="DejaVuSans-103"/>
       <path d="M 12.40625 8.296875 
L 28.515625 8.296875 
L 28.515625 63.921875 
L 10.984375 60.40625 
L 10.984375 69.390625 
L 28.421875 72.90625 
L 38.28125 72.90625 
L 38.28125 8.296875 
L 54.390625 8.296875 
L 54.390625 0 
L 12.40625 0 
z
" id="DejaVuSans-49"/>
       <path d="M 31 75.875 
Q 24.46875 64.65625 21.28125 53.65625 
Q 18.109375 42.671875 18.109375 31.390625 
Q 18.109375 20.125 21.3125 9.0625 
Q 24.515625 -2 31 -13.1875 
L 23.1875 -13.1875 
Q 15.875 -1.703125 12.234375 9.375 
Q 8.59375 20.453125 8.59375 31.390625 
Q 8.59375 42.28125 12.203125 53.3125 
Q 15.828125 64.359375 23.1875 75.875 
z
" id="DejaVuSans-40"/>
       <path d="M 51.125 44 
L 36.921875 44 
L 32.8125 27.6875 
L 47.125 27.6875 
z
M 43.796875 71.78125 
L 38.71875 51.515625 
L 52.984375 51.515625 
L 58.109375 71.78125 
L 65.921875 71.78125 
L 60.890625 51.515625 
L 76.125 51.515625 
L 76.125 44 
L 58.984375 44 
L 54.984375 27.6875 
L 70.515625 27.6875 
L 70.515625 20.21875 
L 53.078125 20.21875 
L 48 0 
L 40.1875 0 
L 45.21875 20.21875 
L 30.90625 20.21875 
L 25.875 0 
L 18.015625 0 
L 23.09375 20.21875 
L 7.71875 20.21875 
L 7.71875 27.6875 
L 24.90625 27.6875 
L 29 44 
L 13.28125 44 
L 13.28125 51.515625 
L 30.90625 51.515625 
L 35.890625 71.78125 
z
" id="DejaVuSans-35"/>
       <path id="DejaVuSans-32"/>
       <path d="M 37.109375 75.984375 
L 37.109375 68.5 
L 28.515625 68.5 
Q 23.6875 68.5 21.796875 66.546875 
Q 19.921875 64.59375 19.921875 59.515625 
L 19.921875 54.6875 
L 34.71875 54.6875 
L 34.71875 47.703125 
L 19.921875 47.703125 
L 19.921875 0 
L 10.890625 0 
L 10.890625 47.703125 
L 2.296875 47.703125 
L 2.296875 54.6875 
L 10.890625 54.6875 
L 10.890625 58.5 
Q 10.890625 67.625 15.140625 71.796875 
Q 19.390625 75.984375 28.609375 75.984375 
z
" id="DejaVuSans-102"/>
       <path d="M 4.890625 31.390625 
L 31.203125 31.390625 
L 31.203125 23.390625 
L 4.890625 23.390625 
z
" id="DejaVuSans-45"/>
       <path d="M 56.203125 29.59375 
L 56.203125 25.203125 
L 14.890625 25.203125 
Q 15.484375 15.921875 20.484375 11.0625 
Q 25.484375 6.203125 34.421875 6.203125 
Q 39.59375 6.203125 44.453125 7.46875 
Q 49.3125 8.734375 54.109375 11.28125 
L 54.109375 2.78125 
Q 49.265625 0.734375 44.1875 -0.34375 
Q 39.109375 -1.421875 33.890625 -1.421875 
Q 20.796875 -1.421875 13.15625 6.1875 
Q 5.515625 13.8125 5.515625 26.8125 
Q 5.515625 40.234375 12.765625 48.109375 
Q 20.015625 56 32.328125 56 
Q 43.359375 56 49.78125 48.890625 
Q 56.203125 41.796875 56.203125 29.59375 
z
M 47.21875 32.234375 
Q 47.125 39.59375 43.09375 43.984375 
Q 39.0625 48.390625 32.421875 48.390625 
Q 24.90625 48.390625 20.390625 44.140625 
Q 15.875 39.890625 15.1875 32.171875 
z
" id="DejaVuSans-101"/>
       <path d="M 2.984375 54.6875 
L 12.5 54.6875 
L 29.59375 8.796875 
L 46.6875 54.6875 
L 56.203125 54.6875 
L 35.6875 0 
L 23.484375 0 
z
" id="DejaVuSans-118"/>
       <path d="M 34.28125 27.484375 
Q 23.390625 27.484375 19.1875 25 
Q 14.984375 22.515625 14.984375 16.5 
Q 14.984375 11.71875 18.140625 8.90625 
Q 21.296875 6.109375 26.703125 6.109375 
Q 34.1875 6.109375 38.703125 11.40625 
Q 43.21875 16.703125 43.21875 25.484375 
L 43.21875 27.484375 
z
M 52.203125 31.203125 
L 52.203125 0 
L 43.21875 0 
L 43.21875 8.296875 
Q 40.140625 3.328125 35.546875 0.953125 
Q 30.953125 -1.421875 24.3125 -1.421875 
Q 15.921875 -1.421875 10.953125 3.296875 
Q 6 8.015625 6 15.921875 
Q 6 25.140625 12.171875 29.828125 
Q 18.359375 34.515625 30.609375 34.515625 
L 43.21875 34.515625 
L 43.21875 35.40625 
Q 43.21875 41.609375 39.140625 45 
Q 35.0625 48.390625 27.6875 48.390625 
Q 23 48.390625 18.546875 47.265625 
Q 14.109375 46.140625 10.015625 43.890625 
L 10.015625 52.203125 
Q 14.9375 54.109375 19.578125 55.046875 
Q 24.21875 56 28.609375 56 
Q 40.484375 56 46.34375 49.84375 
Q 52.203125 43.703125 52.203125 31.203125 
z
" id="DejaVuSans-97"/>
       <path d="M 44.28125 53.078125 
L 44.28125 44.578125 
Q 40.484375 46.53125 36.375 47.5 
Q 32.28125 48.484375 27.875 48.484375 
Q 21.1875 48.484375 17.84375 46.4375 
Q 14.5 44.390625 14.5 40.28125 
Q 14.5 37.15625 16.890625 35.375 
Q 19.28125 33.59375 26.515625 31.984375 
L 29.59375 31.296875 
Q 39.15625 29.25 43.1875 25.515625 
Q 47.21875 21.78125 47.21875 15.09375 
Q 47.21875 7.46875 41.1875 3.015625 
Q 35.15625 -1.421875 24.609375 -1.421875 
Q 20.21875 -1.421875 15.453125 -0.5625 
Q 10.6875 0.296875 5.421875 2 
L 5.421875 11.28125 
Q 10.40625 8.6875 15.234375 7.390625 
Q 20.0625 6.109375 24.8125 6.109375 
Q 31.15625 6.109375 34.5625 8.28125 
Q 37.984375 10.453125 37.984375 14.40625 
Q 37.984375 18.0625 35.515625 20.015625 
Q 33.0625 21.96875 24.703125 23.78125 
L 21.578125 24.515625 
Q 13.234375 26.265625 9.515625 29.90625 
Q 5.8125 33.546875 5.8125 39.890625 
Q 5.8125 47.609375 11.28125 51.796875 
Q 16.75 56 26.8125 56 
Q 31.78125 56 36.171875 55.265625 
Q 40.578125 54.546875 44.28125 53.078125 
z
" id="DejaVuSans-115"/>
       <path d="M 25.390625 72.90625 
L 33.6875 72.90625 
L 8.296875 -9.28125 
L 0 -9.28125 
z
" id="DejaVuSans-47"/>
       <path d="M 45.40625 46.390625 
L 45.40625 75.984375 
L 54.390625 75.984375 
L 54.390625 0 
L 45.40625 0 
L 45.40625 8.203125 
Q 42.578125 3.328125 38.25 0.953125 
Q 33.9375 -1.421875 27.875 -1.421875 
Q 17.96875 -1.421875 11.734375 6.484375 
Q 5.515625 14.40625 5.515625 27.296875 
Q 5.515625 40.1875 11.734375 48.09375 
Q 17.96875 56 27.875 56 
Q 33.9375 56 38.25 53.625 
Q 42.578125 51.265625 45.40625 46.390625 
z
M 14.796875 27.296875 
Q 14.796875 17.390625 18.875 11.75 
Q 22.953125 6.109375 30.078125 6.109375 
Q 37.203125 6.109375 41.296875 11.75 
Q 45.40625 17.390625 45.40625 27.296875 
Q 45.40625 37.203125 41.296875 42.84375 
Q 37.203125 48.484375 30.078125 48.484375 
Q 22.953125 48.484375 18.875 42.84375 
Q 14.796875 37.203125 14.796875 27.296875 
z
" id="DejaVuSans-100"/>
       <path d="M 9.421875 54.6875 
L 18.40625 54.6875 
L 18.40625 0 
L 9.421875 0 
z
M 9.421875 75.984375 
L 18.40625 75.984375 
L 18.40625 64.59375 
L 9.421875 64.59375 
z
" id="DejaVuSans-105"/>
       <path d="M 52 44.1875 
Q 55.375 50.25 60.0625 53.125 
Q 64.75 56 71.09375 56 
Q 79.640625 56 84.28125 50.015625 
Q 88.921875 44.046875 88.921875 33.015625 
L 88.921875 0 
L 79.890625 0 
L 79.890625 32.71875 
Q 79.890625 40.578125 77.09375 44.375 
Q 74.3125 48.1875 68.609375 48.1875 
Q 61.625 48.1875 57.5625 43.546875 
Q 53.515625 38.921875 53.515625 30.90625 
L 53.515625 0 
L 44.484375 0 
L 44.484375 32.71875 
Q 44.484375 40.625 41.703125 44.40625 
Q 38.921875 48.1875 33.109375 48.1875 
Q 26.21875 48.1875 22.15625 43.53125 
Q 18.109375 38.875 18.109375 30.90625 
L 18.109375 0 
L 9.078125 0 
L 9.078125 54.6875 
L 18.109375 54.6875 
L 18.109375 46.1875 
Q 21.1875 51.21875 25.484375 53.609375 
Q 29.78125 56 35.6875 56 
Q 41.65625 56 45.828125 52.96875 
Q 50 49.953125 52 44.1875 
z
" id="DejaVuSans-109"/>
       <path d="M 54.890625 33.015625 
L 54.890625 0 
L 45.90625 0 
L 45.90625 32.71875 
Q 45.90625 40.484375 42.875 44.328125 
Q 39.84375 48.1875 33.796875 48.1875 
Q 26.515625 48.1875 22.3125 43.546875 
Q 18.109375 38.921875 18.109375 30.90625 
L 18.109375 0 
L 9.078125 0 
L 9.078125 54.6875 
L 18.109375 54.6875 
L 18.109375 46.1875 
Q 21.34375 51.125 25.703125 53.5625 
Q 30.078125 56 35.796875 56 
Q 45.21875 56 50.046875 50.171875 
Q 54.890625 44.34375 54.890625 33.015625 
z
" id="DejaVuSans-110"/>
       <path d="M 8.015625 75.875 
L 15.828125 75.875 
Q 23.140625 64.359375 26.78125 53.3125 
Q 30.421875 42.28125 30.421875 31.390625 
Q 30.421875 20.453125 26.78125 9.375 
Q 23.140625 -1.703125 15.828125 -13.1875 
L 8.015625 -13.1875 
Q 14.5 -2 17.703125 9.0625 
Q 20.90625 20.125 20.90625 31.390625 
Q 20.90625 42.671875 17.703125 53.65625 
Q 14.5 64.65625 8.015625 75.875 
z
" id="DejaVuSans-41"/>
      </defs>
      <use xlink:href="#DejaVuSans-108"/>
      <use x="27.783203" xlink:href="#DejaVuSans-111"/>
      <use x="88.964844" xlink:href="#DejaVuSans-103"/>
      <use x="152.441406" xlink:href="#DejaVuSans-49"/>
      <use x="216.064453" xlink:href="#DejaVuSans-48"/>
      <use x="279.6875" xlink:href="#DejaVuSans-40"/>
      <use x="318.701172" xlink:href="#DejaVuSans-35"/>
      <use x="402.490234" xlink:href="#DejaVuSans-32"/>
      <use x="434.277344" xlink:href="#DejaVuSans-102"/>
      <use x="463.982422" xlink:href="#DejaVuSans-45"/>
      <use x="500.066406" xlink:href="#DejaVuSans-101"/>
      <use x="561.589844" xlink:href="#DejaVuSans-118"/>
      <use x="620.769531" xlink:href="#DejaVuSans-97"/>
      <use x="682.048828" xlink:href="#DejaVuSans-108"/>
      <use x="709.832031" xlink:href="#DejaVuSans-115"/>
      <use x="761.931641" xlink:href="#DejaVuSans-32"/>
      <use x="793.71875" xlink:href="#DejaVuSans-47"/>
      <use x="827.410156" xlink:href="#DejaVuSans-32"/>
      <use x="859.197266" xlink:href="#DejaVuSans-100"/>
      <use x="922.673828" xlink:href="#DejaVuSans-105"/>
      <use x="950.457031" xlink:href="#DejaVuSans-109"/>
      <use x="1047.869141" xlink:href="#DejaVuSans-101"/>
      <use x="1109.392578" xlink:href="#DejaVuSans-110"/>
      <use x="1172.771484" xlink:href="#DejaVuSans-115"/>
      <use x="1224.871094" xlink:href="#DejaVuSans-105"/>
      <use x="1252.654297" xlink:href="#DejaVuSans-111"/>
      <use x="1313.835938" xlink:href="#DejaVuSans-110"/>
      <use x="1377.214844" xlink:href="#DejaVuSans-41"/>
     </g>
    </g>
   </g>
   <g id="matplotlib.axis_2">
    <g id="ytick_1">
     <g id="line2d_17">
      <path clip-path="url(#p20f7894370)" d="M 57.6 298.944 
L 338.688 298.944 
" style="fill:none;stroke:#b0b0b0;stroke-linecap:square;stroke-width:0.8;"/>
     </g>
     <g id="line2d_18">
      <defs>
       <path d="M 0 0 
L -3.5 0 
" id="me63c1773de" style="stroke:#000000;stroke-width:0.8;"/>
      </defs>
      <g>
       <use style="stroke:#000000;stroke-width:0.8;" x="57.6" xlink:href="#me63c1773de" y="298.944"/>
      </g>
     </g>
     <g id="text_6">
      <!-- 0.0 -->
      <g transform="translate(25.155 305.02275)scale(0.16 -0.16)">
       <defs>
        <path d="M 10.6875 12.40625 
L 21 12.40625 
L 21 0 
L 10.6875 0 
z
" id="DejaVuSans-46"/>
       </defs>
       <use xlink:href="#DejaVuSans-48"/>
       <use x="63.623047" xlink:href="#DejaVuSans-46"/>
       <use x="95.410156" xlink:href="#DejaVuSans-48"/>
      </g>
     </g>
    </g>
    <g id="ytick_2">
     <g id="line2d_19">
      <path clip-path="url(#p20f7894370)" d="M 57.6 245.22202 
L 338.688 245.22202 
" style="fill:none;stroke:#b0b0b0;stroke-linecap:square;stroke-width:0.8;"/>
     </g>
     <g id="line2d_20">
      <g>
       <use style="stroke:#000000;stroke-width:0.8;" x="57.6" xlink:href="#me63c1773de" y="245.22202"/>
      </g>
     </g>
     <g id="text_7">
      <!-- 0.2 -->
      <g transform="translate(25.155 251.30077)scale(0.16 -0.16)">
       <use xlink:href="#DejaVuSans-48"/>
       <use x="63.623047" xlink:href="#DejaVuSans-46"/>
       <use x="95.410156" xlink:href="#DejaVuSans-50"/>
      </g>
     </g>
    </g>
    <g id="ytick_3">
     <g id="line2d_21">
      <path clip-path="url(#p20f7894370)" d="M 57.6 191.50004 
L 338.688 191.50004 
" style="fill:none;stroke:#b0b0b0;stroke-linecap:square;stroke-width:0.8;"/>
     </g>
     <g id="line2d_22">
      <g>
       <use style="stroke:#000000;stroke-width:0.8;" x="57.6" xlink:href="#me63c1773de" y="191.50004"/>
      </g>
     </g>
     <g id="text_8">
      <!-- 0.4 -->
      <g transform="translate(25.155 197.57879)scale(0.16 -0.16)">
       <use xlink:href="#DejaVuSans-48"/>
       <use x="63.623047" xlink:href="#DejaVuSans-46"/>
       <use x="95.410156" xlink:href="#DejaVuSans-52"/>
      </g>
     </g>
    </g>
    <g id="ytick_4">
     <g id="line2d_23">
      <path clip-path="url(#p20f7894370)" d="M 57.6 137.778059 
L 338.688 137.778059 
" style="fill:none;stroke:#b0b0b0;stroke-linecap:square;stroke-width:0.8;"/>
     </g>
     <g id="line2d_24">
      <g>
       <use style="stroke:#000000;stroke-width:0.8;" x="57.6" xlink:href="#me63c1773de" y="137.778059"/>
      </g>
     </g>
     <g id="text_9">
      <!-- 0.6 -->
      <g transform="translate(25.155 143.856809)scale(0.16 -0.16)">
       <use xlink:href="#DejaVuSans-48"/>
       <use x="63.623047" xlink:href="#DejaVuSans-46"/>
       <use x="95.410156" xlink:href="#DejaVuSans-54"/>
      </g>
     </g>
    </g>
    <g id="ytick_5">
     <g id="line2d_25">
      <path clip-path="url(#p20f7894370)" d="M 57.6 84.056079 
L 338.688 84.056079 
" style="fill:none;stroke:#b0b0b0;stroke-linecap:square;stroke-width:0.8;"/>
     </g>
     <g id="line2d_26">
      <g>
       <use style="stroke:#000000;stroke-width:0.8;" x="57.6" xlink:href="#me63c1773de" y="84.056079"/>
      </g>
     </g>
     <g id="text_10">
      <!-- 0.8 -->
      <g transform="translate(25.155 90.134829)scale(0.16 -0.16)">
       <defs>
        <path d="M 31.78125 34.625 
Q 24.75 34.625 20.71875 30.859375 
Q 16.703125 27.09375 16.703125 20.515625 
Q 16.703125 13.921875 20.71875 10.15625 
Q 24.75 6.390625 31.78125 6.390625 
Q 38.8125 6.390625 42.859375 10.171875 
Q 46.921875 13.96875 46.921875 20.515625 
Q 46.921875 27.09375 42.890625 30.859375 
Q 38.875 34.625 31.78125 34.625 
z
M 21.921875 38.8125 
Q 15.578125 40.375 12.03125 44.71875 
Q 8.5 49.078125 8.5 55.328125 
Q 8.5 64.0625 14.71875 69.140625 
Q 20.953125 74.21875 31.78125 74.21875 
Q 42.671875 74.21875 48.875 69.140625 
Q 55.078125 64.0625 55.078125 55.328125 
Q 55.078125 49.078125 51.53125 44.71875 
Q 48 40.375 41.703125 38.8125 
Q 48.828125 37.15625 52.796875 32.3125 
Q 56.78125 27.484375 56.78125 20.515625 
Q 56.78125 9.90625 50.3125 4.234375 
Q 43.84375 -1.421875 31.78125 -1.421875 
Q 19.734375 -1.421875 13.25 4.234375 
Q 6.78125 9.90625 6.78125 20.515625 
Q 6.78125 27.484375 10.78125 32.3125 
Q 14.796875 37.15625 21.921875 38.8125 
z
M 18.3125 54.390625 
Q 18.3125 48.734375 21.84375 45.5625 
Q 25.390625 42.390625 31.78125 42.390625 
Q 38.140625 42.390625 41.71875 45.5625 
Q 45.3125 48.734375 45.3125 54.390625 
Q 45.3125 60.0625 41.71875 63.234375 
Q 38.140625 66.40625 31.78125 66.40625 
Q 25.390625 66.40625 21.84375 63.234375 
Q 18.3125 60.0625 18.3125 54.390625 
z
" id="DejaVuSans-56"/>
       </defs>
       <use xlink:href="#DejaVuSans-48"/>
       <use x="63.623047" xlink:href="#DejaVuSans-46"/>
       <use x="95.410156" xlink:href="#DejaVuSans-56"/>
      </g>
     </g>
    </g>
    <g id="ytick_6">
     <g id="line2d_27">
      <path clip-path="url(#p20f7894370)" d="M 57.6 30.334099 
L 338.688 30.334099 
" style="fill:none;stroke:#b0b0b0;stroke-linecap:square;stroke-width:0.8;"/>
     </g>
     <g id="line2d_28">
      <g>
       <use style="stroke:#000000;stroke-width:0.8;" x="57.6" xlink:href="#me63c1773de" y="30.334099"/>
      </g>
     </g>
     <g id="text_11">
      <!-- 1.0 -->
      <g transform="translate(25.155 36.412849)scale(0.16 -0.16)">
       <use xlink:href="#DejaVuSans-49"/>
       <use x="63.623047" xlink:href="#DejaVuSans-46"/>
       <use x="95.410156" xlink:href="#DejaVuSans-48"/>
      </g>
     </g>
    </g>
    <g id="text_12">
     <!-- Fraction of function,target pairs -->
     <g transform="translate(17.619531 297.681)rotate(-90)scale(0.17 -0.17)">
      <defs>
       <path d="M 9.8125 72.90625 
L 51.703125 72.90625 
L 51.703125 64.59375 
L 19.671875 64.59375 
L 19.671875 43.109375 
L 48.578125 43.109375 
L 48.578125 34.8125 
L 19.671875 34.8125 
L 19.671875 0 
L 9.8125 0 
z
" id="DejaVuSans-70"/>
       <path d="M 41.109375 46.296875 
Q 39.59375 47.171875 37.8125 47.578125 
Q 36.03125 48 33.890625 48 
Q 26.265625 48 22.1875 43.046875 
Q 18.109375 38.09375 18.109375 28.8125 
L 18.109375 0 
L 9.078125 0 
L 9.078125 54.6875 
L 18.109375 54.6875 
L 18.109375 46.1875 
Q 20.953125 51.171875 25.484375 53.578125 
Q 30.03125 56 36.53125 56 
Q 37.453125 56 38.578125 55.875 
Q 39.703125 55.765625 41.0625 55.515625 
z
" id="DejaVuSans-114"/>
       <path d="M 48.78125 52.59375 
L 48.78125 44.1875 
Q 44.96875 46.296875 41.140625 47.34375 
Q 37.3125 48.390625 33.40625 48.390625 
Q 24.65625 48.390625 19.8125 42.84375 
Q 14.984375 37.3125 14.984375 27.296875 
Q 14.984375 17.28125 19.8125 11.734375 
Q 24.65625 6.203125 33.40625 6.203125 
Q 37.3125 6.203125 41.140625 7.25 
Q 44.96875 8.296875 48.78125 10.40625 
L 48.78125 2.09375 
Q 45.015625 0.34375 40.984375 -0.53125 
Q 36.96875 -1.421875 32.421875 -1.421875 
Q 20.0625 -1.421875 12.78125 6.34375 
Q 5.515625 14.109375 5.515625 27.296875 
Q 5.515625 40.671875 12.859375 48.328125 
Q 20.21875 56 33.015625 56 
Q 37.15625 56 41.109375 55.140625 
Q 45.0625 54.296875 48.78125 52.59375 
z
" id="DejaVuSans-99"/>
       <path d="M 18.3125 70.21875 
L 18.3125 54.6875 
L 36.8125 54.6875 
L 36.8125 47.703125 
L 18.3125 47.703125 
L 18.3125 18.015625 
Q 18.3125 11.328125 20.140625 9.421875 
Q 21.96875 7.515625 27.59375 7.515625 
L 36.8125 7.515625 
L 36.8125 0 
L 27.59375 0 
Q 17.1875 0 13.234375 3.875 
Q 9.28125 7.765625 9.28125 18.015625 
L 9.28125 47.703125 
L 2.6875 47.703125 
L 2.6875 54.6875 
L 9.28125 54.6875 
L 9.28125 70.21875 
z
" id="DejaVuSans-116"/>
       <path d="M 8.5 21.578125 
L 8.5 54.6875 
L 17.484375 54.6875 
L 17.484375 21.921875 
Q 17.484375 14.15625 20.5 10.265625 
Q 23.53125 6.390625 29.59375 6.390625 
Q 36.859375 6.390625 41.078125 11.03125 
Q 45.3125 15.671875 45.3125 23.6875 
L 45.3125 54.6875 
L 54.296875 54.6875 
L 54.296875 0 
L 45.3125 0 
L 45.3125 8.40625 
Q 42.046875 3.421875 37.71875 1 
Q 33.40625 -1.421875 27.6875 -1.421875 
Q 18.265625 -1.421875 13.375 4.4375 
Q 8.5 10.296875 8.5 21.578125 
z
M 31.109375 56 
z
" id="DejaVuSans-117"/>
       <path d="M 11.71875 12.40625 
L 22.015625 12.40625 
L 22.015625 4 
L 14.015625 -11.625 
L 7.71875 -11.625 
L 11.71875 4 
z
" id="DejaVuSans-44"/>
       <path d="M 18.109375 8.203125 
L 18.109375 -20.796875 
L 9.078125 -20.796875 
L 9.078125 54.6875 
L 18.109375 54.6875 
L 18.109375 46.390625 
Q 20.953125 51.265625 25.265625 53.625 
Q 29.59375 56 35.59375 56 
Q 45.5625 56 51.78125 48.09375 
Q 58.015625 40.1875 58.015625 27.296875 
Q 58.015625 14.40625 51.78125 6.484375 
Q 45.5625 -1.421875 35.59375 -1.421875 
Q 29.59375 -1.421875 25.265625 0.953125 
Q 20.953125 3.328125 18.109375 8.203125 
z
M 48.6875 27.296875 
Q 48.6875 37.203125 44.609375 42.84375 
Q 40.53125 48.484375 33.40625 48.484375 
Q 26.265625 48.484375 22.1875 42.84375 
Q 18.109375 37.203125 18.109375 27.296875 
Q 18.109375 17.390625 22.1875 11.75 
Q 26.265625 6.109375 33.40625 6.109375 
Q 40.53125 6.109375 44.609375 11.75 
Q 48.6875 17.390625 48.6875 27.296875 
z
" id="DejaVuSans-112"/>
      </defs>
      <use xlink:href="#DejaVuSans-70"/>
      <use x="50.269531" xlink:href="#DejaVuSans-114"/>
      <use x="91.382812" xlink:href="#DejaVuSans-97"/>
      <use x="152.662109" xlink:href="#DejaVuSans-99"/>
      <use x="207.642578" xlink:href="#DejaVuSans-116"/>
      <use x="246.851562" xlink:href="#DejaVuSans-105"/>
      <use x="274.634766" xlink:href="#DejaVuSans-111"/>
      <use x="335.816406" xlink:href="#DejaVuSans-110"/>
      <use x="399.195312" xlink:href="#DejaVuSans-32"/>
      <use x="430.982422" xlink:href="#DejaVuSans-111"/>
      <use x="492.164062" xlink:href="#DejaVuSans-102"/>
      <use x="527.369141" xlink:href="#DejaVuSans-32"/>
      <use x="559.15625" xlink:href="#DejaVuSans-102"/>
      <use x="594.361328" xlink:href="#DejaVuSans-117"/>
      <use x="657.740234" xlink:href="#DejaVuSans-110"/>
      <use x="721.119141" xlink:href="#DejaVuSans-99"/>
      <use x="776.099609" xlink:href="#DejaVuSans-116"/>
      <use x="815.308594" xlink:href="#DejaVuSans-105"/>
      <use x="843.091797" xlink:href="#DejaVuSans-111"/>
      <use x="904.273438" xlink:href="#DejaVuSans-110"/>
      <use x="967.652344" xlink:href="#DejaVuSans-44"/>
      <use x="999.439453" xlink:href="#DejaVuSans-116"/>
      <use x="1038.648438" xlink:href="#DejaVuSans-97"/>
      <use x="1099.927734" xlink:href="#DejaVuSans-114"/>
      <use x="1139.291016" xlink:href="#DejaVuSans-103"/>
      <use x="1202.767578" xlink:href="#DejaVuSans-101"/>
      <use x="1264.291016" xlink:href="#DejaVuSans-116"/>
      <use x="1303.5" xlink:href="#DejaVuSans-32"/>
      <use x="1335.287109" xlink:href="#DejaVuSans-112"/>
      <use x="1398.763672" xlink:href="#DejaVuSans-97"/>
      <use x="1460.042969" xlink:href="#DejaVuSans-105"/>
      <use x="1487.826172" xlink:href="#DejaVuSans-114"/>
      <use x="1528.939453" xlink:href="#DejaVuSans-115"/>
     </g>
    </g>
   </g>
   <g id="line2d_29">
    <defs>
     <path d="M 0 1.5 
C 0.397805 1.5 0.77937 1.341951 1.06066 1.06066 
C 1.341951 0.77937 1.5 0.397805 1.5 0 
C 1.5 -0.397805 1.341951 -0.77937 1.06066 -1.06066 
C 0.77937 -1.341951 0.397805 -1.5 0 -1.5 
C -0.397805 -1.5 -0.77937 -1.341951 -1.06066 -1.06066 
C -1.341951 -0.77937 -1.5 -0.397805 -1.5 0 
C -1.5 0.397805 -1.341951 0.77937 -1.06066 1.06066 
C -0.77937 1.341951 -0.397805 1.5 0 1.5 
z
" id="mbb8d3de4a5" style="stroke:#00bfbf;"/>
    </defs>
    <g>
     <use style="fill:#00bfbf;stroke:#00bfbf;" x="258.022954" xlink:href="#mbb8d3de4a5" y="114.158913"/>
     <use style="fill:#00bfbf;stroke:#00bfbf;" x="258.022954" xlink:href="#mbb8d3de4a5" y="114.158913"/>
    </g>
   </g>
   <g id="line2d_30">
    <path d="M 45.512012 298.944 
L 45.512012 293.849674 
L 98.606294 293.849674 
L 98.606294 293.386554 
L 113.022974 293.386554 
L 113.022974 292.923433 
L 146.431341 292.923433 
L 146.431341 291.997192 
L 146.696785 291.997192 
L 146.696785 291.070951 
L 147.215849 291.070951 
L 147.215849 290.607831 
L 147.71991 290.607831 
L 147.71991 290.14471 
L 158.784773 290.14471 
L 158.784773 289.68159 
L 161.778945 289.68159 
L 161.778945 289.218469 
L 170.780315 289.218469 
L 170.780315 288.755349 
L 174.963293 288.755349 
L 175.067161 287.829108 
L 175.118863 287.829108 
L 175.118863 285.976625 
L 175.747557 285.976625 
L 175.747557 285.513505 
L 178.385964 285.513505 
L 178.385964 285.050384 
L 178.683063 285.050384 
L 178.683063 283.661023 
L 178.850589 283.661023 
L 178.908845 282.271661 
L 179.815406 282.271661 
L 179.815406 281.808541 
L 181.390568 281.808541 
L 181.390568 281.34542 
L 183.422185 281.34542 
L 183.422185 280.419179 
L 186.026882 280.419179 
L 186.026882 279.956059 
L 186.452518 279.956059 
L 186.452518 279.492938 
L 187.735664 279.492938 
L 187.735664 279.029818 
L 188.940185 279.029818 
L 189.033419 277.177336 
L 194.452523 277.177336 
L 194.452523 276.714215 
L 197.108643 276.714215 
L 197.187468 275.787974 
L 204.212793 275.787974 
L 204.212793 275.324854 
L 205.770725 275.324854 
L 205.770725 274.861733 
L 208.722064 274.861733 
L 208.722064 274.398612 
L 210.448323 274.398612 
L 210.476895 271.156769 
L 210.975424 271.156769 
L 210.982028 269.767407 
L 211.261084 269.767407 
L 211.331126 268.378046 
L 212.133103 268.378046 
L 212.133103 267.914925 
L 213.68181 267.914925 
L 213.68181 266.525564 
L 214.108679 266.525564 
L 214.108679 266.062443 
L 214.341147 266.062443 
L 214.341147 265.599323 
L 215.301117 265.599323 
L 215.301117 265.136202 
L 218.144812 265.136202 
L 218.144812 264.673082 
L 218.883043 264.673082 
L 218.899825 263.746841 
L 220.496807 263.746841 
L 220.504458 261.431238 
L 220.748304 261.431238 
L 220.748304 260.504997 
L 221.117771 260.504997 
L 221.117771 260.041876 
L 221.494034 260.041876 
L 221.494034 259.578756 
L 221.614322 259.578756 
L 221.614322 259.115635 
L 222.019451 259.115635 
L 222.019451 258.189394 
L 223.277442 258.189394 
L 223.277442 257.263153 
L 223.928741 257.263153 
L 223.933769 255.410671 
L 224.866705 255.410671 
L 224.923203 254.48443 
L 225.032114 254.48443 
L 225.035064 253.558189 
L 226.695596 253.558189 
L 226.779605 252.168828 
L 227.435436 252.168828 
L 227.435436 251.705707 
L 227.634791 251.705707 
L 227.634791 251.242587 
L 227.978021 251.242587 
L 228.087811 249.853225 
L 228.107114 249.853225 
L 228.155525 247.074502 
L 228.730029 247.074502 
L 228.730029 246.611381 
L 228.867431 246.611381 
L 228.867431 246.148261 
L 229.156738 246.148261 
L 229.156738 245.22202 
L 229.466509 245.22202 
L 229.466509 244.758899 
L 229.765477 244.758899 
L 229.765477 243.832658 
L 229.92443 243.832658 
L 230.028418 241.517056 
L 231.378438 241.517056 
L 231.381308 238.275212 
L 231.520154 238.275212 
L 231.520154 237.812091 
L 231.769729 237.812091 
L 231.864899 235.496489 
L 232.669158 235.496489 
L 232.687428 234.107127 
L 233.056676 234.107127 
L 233.056676 233.180886 
L 234.070933 233.180886 
L 234.070933 232.254645 
L 234.45222 232.254645 
L 234.45222 231.791525 
L 235.654695 231.791525 
L 235.654695 230.865284 
L 235.801367 230.865284 
L 235.801367 229.939043 
L 236.009814 229.939043 
L 236.108265 228.086561 
L 236.132323 228.086561 
L 236.132323 227.62344 
L 237.349595 227.62344 
L 237.349595 226.697199 
L 238.200557 226.697199 
L 238.253719 222.529114 
L 239.296001 222.529114 
L 239.347229 220.213512 
L 239.423403 220.213512 
L 239.525224 218.36103 
L 239.601393 218.36103 
L 239.601393 217.897909 
L 239.773784 217.897909 
L 239.773784 217.434789 
L 239.896749 217.434789 
L 239.896749 216.508548 
L 240.044568 216.508548 
L 240.1535 215.582307 
L 240.36763 215.582307 
L 240.46142 212.803583 
L 240.491112 212.803583 
L 240.59754 207.709258 
L 240.650392 207.709258 
L 240.745553 205.393655 
L 240.853065 205.393655 
L 240.882099 204.004294 
L 241.028197 204.004294 
L 241.069413 201.225571 
L 241.176122 201.225571 
L 241.230514 198.909968 
L 241.323034 198.909968 
L 241.421522 196.131245 
L 241.471938 196.131245 
L 241.471938 195.668124 
L 241.60088 195.668124 
L 241.636213 194.741883 
L 241.737028 194.741883 
L 241.815641 193.352522 
L 241.900855 193.352522 
L 241.900855 192.889401 
L 242.019548 192.889401 
L 242.019548 191.96316 
L 242.145846 191.96316 
L 242.222641 190.573799 
L 242.38657 190.573799 
L 242.395075 189.647558 
L 242.593003 189.647558 
L 242.593003 189.184437 
L 242.890515 189.184437 
L 242.970225 183.16387 
L 243.053352 183.16387 
L 243.132324 177.606424 
L 243.391429 177.606424 
L 243.391429 176.680183 
L 243.684241 176.680183 
L 243.684241 175.753942 
L 243.957473 175.753942 
L 244.065776 173.90146 
L 244.154697 173.90146 
L 244.154697 172.975219 
L 244.437786 172.975219 
L 244.452905 171.122737 
L 244.761526 171.122737 
L 244.761526 170.659616 
L 246.200162 170.659616 
L 246.200162 169.733375 
L 246.720797 169.733375 
L 246.720797 168.807134 
L 247.059614 168.807134 
L 247.059614 168.344014 
L 247.20484 168.344014 
L 247.264968 165.10217 
L 247.464182 165.10217 
L 247.464182 164.175929 
L 247.614498 164.175929 
L 247.637273 162.786567 
L 247.912569 162.786567 
L 248.007644 159.081603 
L 248.027386 159.081603 
L 248.078454 157.229121 
L 248.15368 157.229121 
L 248.220936 155.83976 
L 248.279066 155.83976 
L 248.319162 154.913519 
L 248.412052 154.913519 
L 248.484933 153.524157 
L 248.607357 153.524157 
L 248.705107 151.671675 
L 248.805633 151.671675 
L 248.856884 150.745434 
L 249.102149 150.745434 
L 249.148096 148.429831 
L 249.501669 148.429831 
L 249.501669 147.50359 
L 249.764402 147.50359 
L 249.764402 147.04047 
L 251.487979 147.04047 
L 251.517336 145.187988 
L 251.633377 145.187988 
L 251.646465 141.483024 
L 251.953132 141.483024 
L 252.054544 139.167421 
L 252.10784 139.167421 
L 252.122449 135.462457 
L 252.288408 135.462457 
L 252.393056 133.609975 
L 252.543683 133.609975 
L 252.543683 133.146854 
L 253.315356 133.146854 
L 253.315356 132.683734 
L 256.23056 132.683734 
L 256.245346 126.200046 
L 256.597669 126.200046 
L 256.683495 122.495082 
L 256.768519 122.495082 
L 256.821986 121.568841 
L 256.978669 121.568841 
L 256.978669 121.105721 
L 257.369454 121.105721 
L 257.427834 119.253239 
L 257.484093 119.253239 
L 257.484093 118.790118 
L 257.666417 118.790118 
L 257.766941 117.400757 
L 257.928641 117.400757 
L 258.022954 114.158913 
L 338.688 114.158913 
L 338.688 114.158913 
" style="fill:none;stroke:#00bfbf;stroke-linecap:square;stroke-width:1.5;"/>
   </g>
   <g id="line2d_31">
    <defs>
     <path d="M -6 0 
L 6 0 
M 0 6 
L 0 -6 
" id="m99f4637bca" style="stroke:#00bfbf;stroke-width:1.5;"/>
    </defs>
    <g>
     <use style="fill-opacity:0;stroke:#00bfbf;stroke-width:1.5;" x="175.747557" xlink:href="#m99f4637bca" y="285.976625"/>
     <use style="fill-opacity:0;stroke:#00bfbf;stroke-width:1.5;" x="235.801367" xlink:href="#m99f4637bca" y="230.865284"/>
     <use style="fill-opacity:0;stroke:#00bfbf;stroke-width:1.5;" x="248.705107" xlink:href="#m99f4637bca" y="151.671675"/>
     <use style="fill-opacity:0;stroke:#00bfbf;stroke-width:1.5;" x="258.022954" xlink:href="#m99f4637bca" y="114.622033"/>
     <use style="fill-opacity:0;stroke:#00bfbf;stroke-width:1.5;" x="258.022954" xlink:href="#m99f4637bca" y="114.158913"/>
     <use style="fill-opacity:0;stroke:#00bfbf;stroke-width:1.5;" x="338.688" xlink:href="#m99f4637bca" y="114.158913"/>
    </g>
   </g>
   <g id="line2d_32">
    <path style="fill:none;stroke:#00bfbf;stroke-linecap:square;stroke-width:1.5;"/>
    <g/>
   </g>
   <g id="line2d_33">
    <path clip-path="url(#p20f7894370)" d="M 258.376794 114.158913 
" style="fill:none;stroke:#00bfbf;stroke-linecap:square;stroke-width:1.5;"/>
    <defs>
     <path d="M -12 12 
L 12 -12 
M -12 -12 
L 12 12 
" id="m45084f3d40" style="stroke:#00bfbf;"/>
    </defs>
    <g clip-path="url(#p20f7894370)">
     <use style="fill:#00bfbf;stroke:#00bfbf;" x="258.376794" xlink:href="#m45084f3d40" y="114.158913"/>
    </g>
   </g>
   <g id="line2d_34">
    <defs>
     <path d="M 0 1.5 
C 0.397805 1.5 0.77937 1.341951 1.06066 1.06066 
C 1.341951 0.77937 1.5 0.397805 1.5 0 
C 1.5 -0.397805 1.341951 -0.77937 1.06066 -1.06066 
C 0.77937 -1.341951 0.397805 -1.5 0 -1.5 
C -0.397805 -1.5 -0.77937 -1.341951 -1.06066 -1.06066 
C -1.341951 -0.77937 -1.5 -0.397805 -1.5 0 
C -1.5 0.397805 -1.341951 0.77937 -1.06066 1.06066 
C -0.77937 1.341951 -0.397805 1.5 0 1.5 
z
" id="mebd5e409ce" style="stroke:#008000;"/>
    </defs>
    <g>
     <use style="fill:#008000;stroke:#008000;" x="258.002267" xlink:href="#mebd5e409ce" y="126.663167"/>
     <use style="fill:#008000;stroke:#008000;" x="258.002267" xlink:href="#mebd5e409ce" y="126.663167"/>
    </g>
   </g>
   <g id="line2d_35">
    <path d="M 38.440992 298.944 
L 38.440992 298.017759 
L 94.575872 298.017759 
L 94.575872 297.091518 
L 98.880934 297.091518 
L 98.880934 296.628397 
L 105.209745 296.628397 
L 105.209745 295.702156 
L 107.680028 295.702156 
L 107.680028 294.312795 
L 109.843417 294.312795 
L 109.843417 293.386554 
L 111.767808 293.386554 
L 111.767808 291.997192 
L 113.500792 291.997192 
L 113.500792 291.070951 
L 115.077025 291.070951 
L 115.077025 289.68159 
L 116.522527 289.68159 
L 116.522527 288.755349 
L 117.857331 288.755349 
L 117.857331 288.292228 
L 119.097192 288.292228 
L 119.097192 287.829108 
L 120.254726 287.829108 
L 120.254726 287.365987 
L 148.513109 287.365987 
L 148.513109 286.902867 
L 151.287083 286.902867 
L 151.287083 286.439746 
L 151.844975 286.439746 
L 151.844975 285.976625 
L 152.283884 285.976625 
L 152.283884 285.513505 
L 159.422762 285.513505 
L 159.422762 285.050384 
L 159.54088 285.050384 
L 159.54088 284.587264 
L 161.465522 284.587264 
L 161.465522 284.124143 
L 163.536298 284.124143 
L 163.536298 283.661023 
L 165.708824 283.661023 
L 165.708824 283.197902 
L 166.047915 283.197902 
L 166.047915 282.734782 
L 167.724788 282.734782 
L 167.724788 282.271661 
L 168.546579 282.271661 
L 168.546579 281.808541 
L 168.746115 281.808541 
L 168.746115 281.34542 
L 173.257343 281.34542 
L 173.257343 280.8823 
L 178.977944 280.8823 
L 178.977944 280.419179 
L 185.352989 280.419179 
L 185.406495 279.492938 
L 186.995632 279.492938 
L 186.995632 279.029818 
L 188.690678 279.029818 
L 188.690678 278.566697 
L 189.090665 278.566697 
L 189.090665 278.103577 
L 189.8523 278.103577 
L 189.934909 276.251095 
L 189.976067 276.251095 
L 189.976067 275.787974 
L 191.178666 275.787974 
L 191.197841 274.861733 
L 191.744926 274.861733 
L 191.744926 274.398612 
L 194.554448 274.398612 
L 194.554448 273.935492 
L 195.657072 273.935492 
L 195.657072 273.472371 
L 196.212071 273.472371 
L 196.212071 273.009251 
L 198.836275 273.009251 
L 198.836275 272.08301 
L 198.959509 272.08301 
L 198.959509 271.619889 
L 199.262113 271.619889 
L 199.322353 269.304287 
L 201.300257 269.304287 
L 201.300257 268.841166 
L 204.309227 268.841166 
L 204.309227 268.378046 
L 206.401389 268.378046 
L 206.401389 267.914925 
L 207.025512 267.914925 
L 207.059723 265.599323 
L 207.19918 265.599323 
L 207.19918 264.673082 
L 207.505987 264.673082 
L 207.601369 261.894358 
L 208.365652 261.894358 
L 208.372811 260.968117 
L 209.814652 260.968117 
L 209.814652 260.504997 
L 210.240566 260.504997 
L 210.240566 259.578756 
L 210.396046 259.578756 
L 210.396046 259.115635 
L 211.420647 259.115635 
L 211.476365 258.189394 
L 211.55748 258.189394 
L 211.55748 257.263153 
L 211.758211 257.263153 
L 211.758211 256.336912 
L 211.929161 256.336912 
L 211.975797 254.02131 
L 213.19234 254.02131 
L 213.26278 251.705707 
L 213.317542 251.705707 
L 213.403578 249.853225 
L 213.599412 249.853225 
L 213.599412 249.390104 
L 214.460558 249.390104 
L 214.561238 248.463863 
L 214.945626 248.463863 
L 215.005147 247.074502 
L 215.190802 247.074502 
L 215.190802 246.611381 
L 217.507386 246.611381 
L 217.507386 245.68514 
L 219.748574 245.68514 
L 219.782094 244.295779 
L 223.088936 244.295779 
L 223.088936 243.832658 
L 225.707469 243.832658 
L 225.808595 240.127694 
L 226.844253 240.127694 
L 226.844253 239.201453 
L 227.723004 239.201453 
L 227.723004 238.738333 
L 228.3998 238.738333 
L 228.475843 237.348971 
L 228.564411 237.348971 
L 228.564411 236.88585 
L 228.809717 236.88585 
L 228.809717 236.42273 
L 229.465289 236.42273 
L 229.465289 235.959609 
L 232.338934 235.959609 
L 232.432858 235.033368 
L 232.630145 235.033368 
L 232.630145 234.570248 
L 232.932084 234.570248 
L 232.984272 233.180886 
L 233.473509 233.180886 
L 233.473509 232.254645 
L 233.914445 232.254645 
L 233.944675 231.328404 
L 235.342142 231.328404 
L 235.342142 230.402163 
L 237.704777 230.402163 
L 237.704777 229.939043 
L 238.612357 229.939043 
L 238.654916 227.16032 
L 238.724483 227.16032 
L 238.724483 226.234079 
L 238.877021 226.234079 
L 238.877021 225.307837 
L 239.105111 225.307837 
L 239.105111 224.381596 
L 241.201511 224.381596 
L 241.285822 220.213512 
L 241.735066 220.213512 
L 241.736123 219.287271 
L 242.011973 219.287271 
L 242.011973 218.36103 
L 242.40423 218.36103 
L 242.40423 217.897909 
L 243.648228 217.897909 
L 243.651069 216.971668 
L 243.975338 216.971668 
L 243.975338 216.508548 
L 245.528374 216.508548 
L 245.531774 213.266704 
L 245.797117 213.266704 
L 245.817316 211.877342 
L 246.302403 211.877342 
L 246.307282 209.56174 
L 246.534133 209.56174 
L 246.632788 207.709258 
L 247.416622 207.709258 
L 247.481998 205.856776 
L 247.535444 205.856776 
L 247.535444 205.393655 
L 247.731235 205.393655 
L 247.731235 204.930535 
L 247.855805 204.930535 
L 247.855805 204.004294 
L 248.03028 204.004294 
L 248.078402 203.078053 
L 248.223017 203.078053 
L 248.223017 202.614932 
L 248.764473 202.614932 
L 248.764473 202.151812 
L 248.9859 202.151812 
L 249.082646 197.057486 
L 249.285022 197.057486 
L 249.301561 194.278763 
L 249.942004 194.278763 
L 249.942004 193.352522 
L 250.502876 193.352522 
L 250.502876 192.889401 
L 251.032369 192.889401 
L 251.032369 192.426281 
L 251.523193 192.426281 
L 251.58526 190.573799 
L 251.701064 190.573799 
L 251.799922 188.258196 
L 251.852987 188.258196 
L 251.852987 187.795075 
L 251.973411 187.795075 
L 252.078418 185.942593 
L 252.088759 185.942593 
L 252.164876 183.16387 
L 252.224869 183.16387 
L 252.298501 181.311388 
L 252.36567 181.311388 
L 252.460107 177.143304 
L 252.499238 177.143304 
L 252.583882 174.36458 
L 252.754918 174.36458 
L 252.85757 169.270255 
L 252.88284 169.270255 
L 252.979992 167.417773 
L 253.003187 167.417773 
L 253.105336 166.491532 
L 253.198208 166.491532 
L 253.290822 164.175929 
L 253.419367 164.175929 
L 253.504054 160.470965 
L 253.588255 160.470965 
L 253.642867 159.081603 
L 253.701262 159.081603 
L 253.79193 157.229121 
L 253.921126 157.229121 
L 254.027677 154.913519 
L 254.033047 154.913519 
L 254.133285 151.671675 
L 254.175276 151.671675 
L 254.175276 150.745434 
L 254.306005 150.745434 
L 254.328602 149.819193 
L 254.486624 149.819193 
L 254.486624 149.356072 
L 254.754416 149.356072 
L 254.847685 146.577349 
L 254.881885 146.577349 
L 254.935219 144.724867 
L 255.085546 144.724867 
L 255.14491 143.335506 
L 255.259421 143.335506 
L 255.348098 141.946144 
L 255.433644 141.946144 
L 255.540536 141.019903 
L 255.667092 141.019903 
L 255.770745 139.167421 
L 255.91005 139.167421 
L 255.927386 137.778059 
L 256.161885 137.778059 
L 256.262122 134.073095 
L 256.324552 134.073095 
L 256.324552 133.609975 
L 256.508183 133.609975 
L 256.508183 133.146854 
L 256.632044 133.146854 
L 256.632044 132.220613 
L 256.814135 132.220613 
L 256.882225 130.831252 
L 257.170282 130.831252 
L 257.198666 129.44189 
L 257.391642 129.44189 
L 257.391642 128.97877 
L 257.859255 128.97877 
L 257.859674 127.589408 
L 258.002267 127.589408 
L 258.002267 126.663167 
L 338.688 126.663167 
L 338.688 126.663167 
" style="fill:none;stroke:#008000;stroke-linecap:square;stroke-width:1.5;"/>
   </g>
   <g id="line2d_36">
    <defs>
     <path d="M -0 6 
L 6 -6 
L -6 -6 
z
" id="m51949fe617" style="stroke:#008000;stroke-linejoin:miter;stroke-width:1.5;"/>
    </defs>
    <g>
     <use style="fill-opacity:0;stroke:#008000;stroke-linejoin:miter;stroke-width:1.5;" x="94.575872" xlink:href="#m51949fe617" y="297.091518"/>
     <use style="fill-opacity:0;stroke:#008000;stroke-linejoin:miter;stroke-width:1.5;" x="168.746115" xlink:href="#m51949fe617" y="281.34542"/>
     <use style="fill-opacity:0;stroke:#008000;stroke-linejoin:miter;stroke-width:1.5;" x="217.507386" xlink:href="#m51949fe617" y="246.611381"/>
     <use style="fill-opacity:0;stroke:#008000;stroke-linejoin:miter;stroke-width:1.5;" x="257.198666" xlink:href="#m51949fe617" y="129.44189"/>
     <use style="fill-opacity:0;stroke:#008000;stroke-linejoin:miter;stroke-width:1.5;" x="258.002267" xlink:href="#m51949fe617" y="126.663167"/>
     <use style="fill-opacity:0;stroke:#008000;stroke-linejoin:miter;stroke-width:1.5;" x="338.688" xlink:href="#m51949fe617" y="126.663167"/>
    </g>
   </g>
   <g id="line2d_37">
    <path style="fill:none;stroke:#008000;stroke-linecap:square;stroke-width:1.5;"/>
    <g/>
   </g>
   <g id="line2d_38">
    <path clip-path="url(#p20f7894370)" d="M 258.377027 126.663167 
" style="fill:none;stroke:#008000;stroke-linecap:square;stroke-width:1.5;"/>
    <defs>
     <path d="M -12 12 
L 12 -12 
M -12 -12 
L 12 12 
" id="m24dee78e97" style="stroke:#008000;"/>
    </defs>
    <g clip-path="url(#p20f7894370)">
     <use style="fill:#008000;stroke:#008000;" x="258.377027" xlink:href="#m24dee78e97" y="126.663167"/>
    </g>
   </g>
   <g id="line2d_39">
    <defs>
     <path d="M 0 1.5 
C 0.397805 1.5 0.77937 1.341951 1.06066 1.06066 
C 1.341951 0.77937 1.5 0.397805 1.5 0 
C 1.5 -0.397805 1.341951 -0.77937 1.06066 -1.06066 
C 0.77937 -1.341951 0.397805 -1.5 0 -1.5 
C -0.397805 -1.5 -0.77937 -1.341951 -1.06066 -1.06066 
C -1.341951 -0.77937 -1.5 -0.397805 -1.5 0 
C -1.5 0.397805 -1.341951 0.77937 -1.06066 1.06066 
C -0.77937 1.341951 -0.397805 1.5 0 1.5 
z
" id="mc076fedb66" style="stroke:#0000ff;"/>
    </defs>
    <g>
     <use style="fill:#0000ff;stroke:#0000ff;" x="254.17282" xlink:href="#mc076fedb66" y="220.213512"/>
     <use style="fill:#0000ff;stroke:#0000ff;" x="254.17282" xlink:href="#mc076fedb66" y="220.213512"/>
    </g>
   </g>
   <g id="line2d_40">
    <path d="M 29.53256 298.944 
L 29.53256 297.554638 
L 101.506816 297.554638 
L 101.506816 296.628397 
L 106.802819 296.628397 
L 106.802819 295.702156 
L 112.58145 295.702156 
L 112.58145 295.239036 
L 116.914437 295.239036 
L 116.914437 294.312795 
L 120.571812 294.312795 
L 120.571812 293.849674 
L 149.067574 293.849674 
L 149.067574 293.386554 
L 154.587699 293.386554 
L 154.587699 292.923433 
L 155.666226 292.923433 
L 155.666226 292.460313 
L 157.139484 292.460313 
L 157.139484 291.997192 
L 163.396654 291.997192 
L 163.485404 291.070951 
L 163.573705 291.070951 
L 163.573705 290.607831 
L 163.835954 290.607831 
L 163.922502 289.218469 
L 164.008622 289.218469 
L 164.094319 287.829108 
L 167.417059 287.829108 
L 167.417059 287.365987 
L 169.122941 287.365987 
L 169.122941 286.902867 
L 169.503198 286.902867 
L 169.554414 285.976625 
L 169.78585 285.976625 
L 169.78585 285.513505 
L 170.108089 285.513505 
L 170.108089 285.050384 
L 170.316028 285.050384 
L 170.316028 284.587264 
L 171.014438 284.587264 
L 171.014438 284.124143 
L 178.797156 284.124143 
L 178.797156 283.661023 
L 180.5006 283.661023 
L 180.5006 283.197902 
L 180.633564 283.197902 
L 180.633564 282.734782 
L 184.598926 282.734782 
L 184.598926 282.271661 
L 186.032405 282.271661 
L 186.032405 281.808541 
L 186.201667 281.808541 
L 186.249727 280.419179 
L 187.809631 280.419179 
L 187.809631 279.956059 
L 189.45871 279.956059 
L 189.45871 279.492938 
L 191.329302 279.492938 
L 191.329302 279.029818 
L 191.795793 279.029818 
L 191.795793 278.566697 
L 192.097916 278.566697 
L 192.097916 278.103577 
L 192.287205 278.103577 
L 192.396427 276.251095 
L 193.21279 276.251095 
L 193.21279 275.787974 
L 193.943593 275.787974 
L 193.943593 274.861733 
L 197.44136 274.861733 
L 197.453987 273.935492 
L 198.227198 273.935492 
L 198.263384 273.009251 
L 199.724203 273.009251 
L 199.724203 272.54613 
L 200.197256 272.54613 
L 200.197256 272.08301 
L 200.533234 272.08301 
L 200.533234 271.156769 
L 201.063661 271.156769 
L 201.162272 270.230528 
L 201.690388 270.230528 
L 201.790003 269.304287 
L 201.893501 269.304287 
L 201.995503 268.378046 
L 202.088118 268.378046 
L 202.088118 267.914925 
L 202.666077 267.914925 
L 202.666077 267.451805 
L 203.213128 267.451805 
L 203.270765 266.062443 
L 204.025266 266.062443 
L 204.025266 265.599323 
L 204.480581 265.599323 
L 204.480581 264.673082 
L 204.819322 264.673082 
L 204.819322 264.209961 
L 205.631999 264.209961 
L 205.631999 263.746841 
L 205.75291 263.746841 
L 205.815538 262.8206 
L 209.159724 262.8206 
L 209.159724 261.894358 
L 210.807625 261.894358 
L 210.807625 260.968117 
L 212.345926 260.968117 
L 212.345926 260.504997 
L 214.455364 260.504997 
L 214.455364 260.041876 
L 216.066352 260.041876 
L 216.066352 259.578756 
L 216.757739 259.578756 
L 216.757739 259.115635 
L 217.507991 259.115635 
L 217.507991 258.652515 
L 217.686212 258.652515 
L 217.686212 258.189394 
L 217.97973 258.189394 
L 218.040101 256.336912 
L 218.152868 256.336912 
L 218.152868 255.873792 
L 219.441355 255.873792 
L 219.441355 254.947551 
L 219.571609 254.947551 
L 219.666577 254.02131 
L 219.813958 254.02131 
L 219.813958 253.558189 
L 220.585511 253.558189 
L 220.585511 252.631948 
L 220.82538 252.631948 
L 220.82538 252.168828 
L 222.838427 252.168828 
L 222.838427 251.705707 
L 226.360376 251.705707 
L 226.406682 250.316346 
L 228.780361 250.316346 
L 228.780361 249.853225 
L 233.141387 249.853225 
L 233.216834 248.000743 
L 234.518858 248.000743 
L 234.518858 247.537622 
L 234.977464 247.537622 
L 234.983335 246.611381 
L 236.097882 246.611381 
L 236.097882 245.68514 
L 236.247279 245.68514 
L 236.247279 244.758899 
L 236.821947 244.758899 
L 236.823267 243.369538 
L 237.112784 243.369538 
L 237.112784 242.443297 
L 238.838744 242.443297 
L 238.85638 239.664574 
L 240.423622 239.664574 
L 240.423622 239.201453 
L 245.420097 239.201453 
L 245.428161 235.959609 
L 246.132616 235.959609 
L 246.132616 235.033368 
L 246.329636 235.033368 
L 246.329636 234.570248 
L 247.772181 234.570248 
L 247.772181 233.644007 
L 247.928641 233.644007 
L 248.019587 230.402163 
L 248.051142 230.402163 
L 248.08113 229.012802 
L 248.277977 229.012802 
L 248.277977 228.549681 
L 250.556026 228.549681 
L 250.642054 226.697199 
L 251.151556 226.697199 
L 251.151556 226.234079 
L 251.567814 226.234079 
L 251.567814 225.307837 
L 251.701047 225.307837 
L 251.701047 224.381596 
L 252.352159 224.381596 
L 252.352159 223.918476 
L 252.596212 223.918476 
L 252.629414 221.602873 
L 253.490273 221.602873 
L 253.490273 220.676632 
L 254.17282 220.676632 
L 254.17282 220.213512 
L 338.688 220.213512 
L 338.688 220.213512 
" style="fill:none;stroke:#0000ff;stroke-linecap:square;stroke-width:1.5;"/>
   </g>
   <g id="line2d_41">
    <defs>
     <path d="M 0 -6 
L -1.347084 -1.854102 
L -5.706339 -1.854102 
L -2.179628 0.708204 
L -3.526712 4.854102 
L -0 2.291796 
L 3.526712 4.854102 
L 2.179628 0.708204 
L 5.706339 -1.854102 
L 1.347084 -1.854102 
z
" id="m09d65e234d" style="stroke:#0000ff;stroke-linejoin:bevel;stroke-width:1.5;"/>
    </defs>
    <g>
     <use style="fill-opacity:0;stroke:#0000ff;stroke-linejoin:bevel;stroke-width:1.5;" x="101.506816" xlink:href="#m09d65e234d" y="296.628397"/>
     <use style="fill-opacity:0;stroke:#0000ff;stroke-linejoin:bevel;stroke-width:1.5;" x="192.097916" xlink:href="#m09d65e234d" y="278.566697"/>
     <use style="fill-opacity:0;stroke:#0000ff;stroke-linejoin:bevel;stroke-width:1.5;" x="238.85638" xlink:href="#m09d65e234d" y="239.664574"/>
     <use style="fill-opacity:0;stroke:#0000ff;stroke-linejoin:bevel;stroke-width:1.5;" x="254.17282" xlink:href="#m09d65e234d" y="220.213512"/>
     <use style="fill-opacity:0;stroke:#0000ff;stroke-linejoin:bevel;stroke-width:1.5;" x="254.17282" xlink:href="#m09d65e234d" y="220.213512"/>
     <use style="fill-opacity:0;stroke:#0000ff;stroke-linejoin:bevel;stroke-width:1.5;" x="338.688" xlink:href="#m09d65e234d" y="220.213512"/>
    </g>
   </g>
   <g id="line2d_42">
    <path style="fill:none;stroke:#0000ff;stroke-linecap:square;stroke-width:1.5;"/>
    <g/>
   </g>
   <g id="line2d_43">
    <path clip-path="url(#p20f7894370)" d="M 258.377108 220.213512 
" style="fill:none;stroke:#0000ff;stroke-linecap:square;stroke-width:1.5;"/>
    <defs>
     <path d="M -12 12 
L 12 -12 
M -12 -12 
L 12 12 
" id="m7c03d59163" style="stroke:#0000ff;"/>
    </defs>
    <g clip-path="url(#p20f7894370)">
     <use style="fill:#0000ff;stroke:#0000ff;" x="258.377108" xlink:href="#m7c03d59163" y="220.213512"/>
    </g>
   </g>
   <g id="line2d_44">
    <defs>
     <path d="M 0 1.5 
C 0.397805 1.5 0.77937 1.341951 1.06066 1.06066 
C 1.341951 0.77937 1.5 0.397805 1.5 0 
C 1.5 -0.397805 1.341951 -0.77937 1.06066 -1.06066 
C 0.77937 -1.341951 0.397805 -1.5 0 -1.5 
C -0.397805 -1.5 -0.77937 -1.341951 -1.06066 -1.06066 
C -1.341951 -0.77937 -1.5 -0.397805 -1.5 0 
C -1.5 0.397805 -1.341951 0.77937 -1.06066 1.06066 
C -0.77937 1.341951 -0.397805 1.5 0 1.5 
z
" id="me1523e132e" style="stroke:#000000;"/>
    </defs>
    <g>
     <use style="stroke:#000000;" x="255.660259" xlink:href="#me1523e132e" y="238.738333"/>
     <use style="stroke:#000000;" x="255.660259" xlink:href="#me1523e132e" y="238.738333"/>
    </g>
   </g>
   <g id="line2d_45">
    <path d="M 17.444571 298.944 
L 17.444571 298.017759 
L 89.135256 298.017759 
L 89.135256 297.554638 
L 94.294587 297.554638 
L 94.294587 297.091518 
L 98.270913 297.091518 
L 98.270913 296.628397 
L 104.23523 296.628397 
L 104.23523 295.702156 
L 113.73488 295.702156 
L 113.73488 295.239036 
L 116.443076 295.239036 
L 116.443076 294.775915 
L 118.786692 294.775915 
L 118.786692 294.312795 
L 146.052799 294.312795 
L 146.052799 293.849674 
L 152.973748 293.849674 
L 152.973748 293.386554 
L 171.925672 293.386554 
L 171.925672 292.923433 
L 173.587362 292.923433 
L 173.587362 292.460313 
L 177.848687 292.460313 
L 177.848687 291.997192 
L 178.355117 291.997192 
L 178.355117 291.534072 
L 180.999967 291.534072 
L 180.999967 291.070951 
L 183.743743 291.070951 
L 183.743743 290.607831 
L 184.788544 290.607831 
L 184.788544 290.14471 
L 185.44271 290.14471 
L 185.44271 289.68159 
L 186.655109 289.68159 
L 186.655109 289.218469 
L 186.823739 289.218469 
L 186.823739 288.755349 
L 187.944758 288.755349 
L 187.944758 288.292228 
L 189.860579 288.292228 
L 189.860579 287.829108 
L 190.479089 287.829108 
L 190.479089 287.365987 
L 191.236946 287.365987 
L 191.236946 286.902867 
L 191.531908 286.902867 
L 191.531908 286.439746 
L 192.857244 286.439746 
L 192.857244 285.976625 
L 193.877511 285.976625 
L 193.877511 285.513505 
L 194.285442 285.513505 
L 194.293009 284.124143 
L 194.814028 284.124143 
L 194.814028 283.661023 
L 195.241946 283.661023 
L 195.241946 283.197902 
L 195.919037 283.197902 
L 195.971586 281.808541 
L 198.231039 281.808541 
L 198.231039 281.34542 
L 200.32133 281.34542 
L 200.32133 280.8823 
L 202.354385 280.8823 
L 202.354385 280.419179 
L 202.72682 280.419179 
L 202.72682 279.956059 
L 203.109729 279.956059 
L 203.109729 279.492938 
L 203.983099 279.492938 
L 203.983099 279.029818 
L 204.367862 279.029818 
L 204.367862 278.566697 
L 205.186995 278.566697 
L 205.186995 278.103577 
L 205.446871 278.103577 
L 205.482026 276.251095 
L 205.639177 276.251095 
L 205.639177 275.324854 
L 205.775354 275.324854 
L 205.816959 274.398612 
L 205.905882 274.398612 
L 205.99365 271.619889 
L 206.212721 271.619889 
L 206.212721 270.230528 
L 206.411575 270.230528 
L 206.45272 268.378046 
L 206.743769 268.378046 
L 206.743769 267.914925 
L 207.347512 267.914925 
L 207.347512 267.451805 
L 207.64588 267.451805 
L 207.64588 266.988684 
L 207.876535 266.988684 
L 207.876535 266.525564 
L 208.216586 266.525564 
L 208.216586 265.599323 
L 208.921471 265.599323 
L 208.921471 264.673082 
L 209.571498 264.673082 
L 209.607544 263.746841 
L 210.637926 263.746841 
L 210.637926 263.28372 
L 212.301904 263.28372 
L 212.301904 262.8206 
L 213.577424 262.8206 
L 213.577424 262.357479 
L 215.091615 262.357479 
L 215.091615 261.894358 
L 215.26417 261.894358 
L 215.26417 261.431238 
L 218.775421 261.431238 
L 218.775421 260.968117 
L 219.146498 260.968117 
L 219.146498 260.041876 
L 222.919075 260.041876 
L 222.919075 259.578756 
L 227.683515 259.578756 
L 227.683515 259.115635 
L 228.210982 259.115635 
L 228.210982 258.652515 
L 228.373285 258.652515 
L 228.383513 257.726274 
L 228.954539 257.726274 
L 228.954539 257.263153 
L 229.222382 257.263153 
L 229.222382 256.800033 
L 229.57662 256.800033 
L 229.670671 254.947551 
L 229.756838 254.947551 
L 229.756838 254.48443 
L 231.498094 254.48443 
L 231.498094 253.558189 
L 232.626761 253.558189 
L 232.626761 253.095069 
L 232.872841 253.095069 
L 232.872841 252.631948 
L 234.450294 252.631948 
L 234.450294 252.168828 
L 234.763183 252.168828 
L 234.763183 251.705707 
L 235.380888 251.705707 
L 235.380888 251.242587 
L 235.596195 251.242587 
L 235.617946 248.926984 
L 236.14643 248.926984 
L 236.207718 247.537622 
L 240.480069 247.537622 
L 240.480069 246.611381 
L 241.205744 246.611381 
L 241.205744 246.148261 
L 241.740153 246.148261 
L 241.740153 245.68514 
L 245.829591 245.68514 
L 245.829591 245.22202 
L 246.378112 245.22202 
L 246.448413 243.832658 
L 246.525659 243.832658 
L 246.584022 242.443297 
L 247.025408 242.443297 
L 247.025408 241.517056 
L 248.250602 241.517056 
L 248.250602 240.590815 
L 253.137136 240.590815 
L 253.142081 239.664574 
L 255.660259 239.664574 
L 255.660259 238.738333 
L 338.688 238.738333 
L 338.688 238.738333 
" style="fill:none;stroke:#000000;stroke-linecap:square;stroke-width:1.5;"/>
   </g>
   <g id="line2d_46">
    <defs>
     <path d="M 0 6 
C 1.591219 6 3.117479 5.367802 4.242641 4.242641 
C 5.367802 3.117479 6 1.591219 6 0 
C 6 -1.591219 5.367802 -3.117479 4.242641 -4.242641 
C 3.117479 -5.367802 1.591219 -6 0 -6 
C -1.591219 -6 -3.117479 -5.367802 -4.242641 -4.242641 
C -5.367802 -3.117479 -6 -1.591219 -6 0 
C -6 1.591219 -5.367802 3.117479 -4.242641 4.242641 
C -3.117479 5.367802 -1.591219 6 0 6 
z
" id="m0b077a15f5" style="stroke:#000000;stroke-width:1.5;"/>
    </defs>
    <g>
     <use style="fill-opacity:0;stroke:#000000;stroke-width:1.5;" x="152.973748" xlink:href="#m0b077a15f5" y="293.849674"/>
     <use style="fill-opacity:0;stroke:#000000;stroke-width:1.5;" x="207.64588" xlink:href="#m0b077a15f5" y="266.988684"/>
     <use style="fill-opacity:0;stroke:#000000;stroke-width:1.5;" x="255.660259" xlink:href="#m0b077a15f5" y="239.664574"/>
     <use style="fill-opacity:0;stroke:#000000;stroke-width:1.5;" x="255.660259" xlink:href="#m0b077a15f5" y="238.738333"/>
     <use style="fill-opacity:0;stroke:#000000;stroke-width:1.5;" x="338.688" xlink:href="#m0b077a15f5" y="238.738333"/>
    </g>
   </g>
   <g id="line2d_47">
    <path style="fill:none;stroke:#000000;stroke-linecap:square;stroke-width:1.5;"/>
    <g/>
   </g>
   <g id="line2d_48">
    <path clip-path="url(#p20f7894370)" d="M 258.377143 238.738333 
" style="fill:none;stroke:#000000;stroke-linecap:square;stroke-width:1.5;"/>
    <defs>
     <path d="M -12 12 
L 12 -12 
M -12 -12 
L 12 12 
" id="m65a6e0a3dc" style="stroke:#000000;"/>
    </defs>
    <g clip-path="url(#p20f7894370)">
     <use style="stroke:#000000;" x="258.377143" xlink:href="#m65a6e0a3dc" y="238.738333"/>
    </g>
   </g>
   <g id="line2d_49">
    <defs>
     <path d="M 0 1.5 
C 0.397805 1.5 0.77937 1.341951 1.06066 1.06066 
C 1.341951 0.77937 1.5 0.397805 1.5 0 
C 1.5 -0.397805 1.341951 -0.77937 1.06066 -1.06066 
C 0.77937 -1.341951 0.397805 -1.5 0 -1.5 
C -0.397805 -1.5 -0.77937 -1.341951 -1.06066 -1.06066 
C -1.341951 -0.77937 -1.5 -0.397805 -1.5 0 
C -1.5 0.397805 -1.341951 0.77937 -1.06066 1.06066 
C -0.77937 1.341951 -0.397805 1.5 0 1.5 
z
" id="me90259b36f" style="stroke:#ff0000;"/>
    </defs>
    <g>
     <use style="fill:#ff0000;stroke:#ff0000;" x="257.193913" xlink:href="#me90259b36f" y="248.000743"/>
     <use style="fill:#ff0000;stroke:#ff0000;" x="257.193913" xlink:href="#me90259b36f" y="248.000743"/>
    </g>
   </g>
   <g id="line2d_50">
    <path d="M 5.356583 298.944 
L 5.356583 291.534072 
L 76.16779 291.534072 
L 76.16779 290.607831 
L 105.171792 290.607831 
L 105.171792 290.14471 
L 109.31223 290.14471 
L 109.31223 289.68159 
L 117.875678 289.68159 
L 117.875678 289.218469 
L 120.967912 289.218469 
L 120.967912 288.292228 
L 122.761498 288.292228 
L 122.761498 287.829108 
L 163.992995 287.829108 
L 163.992995 287.365987 
L 168.128195 287.365987 
L 168.128195 286.902867 
L 170.651396 286.902867 
L 170.651396 286.439746 
L 174.320268 286.439746 
L 174.320268 285.976625 
L 182.548247 285.976625 
L 182.548247 285.513505 
L 194.259621 285.513505 
L 194.259621 285.050384 
L 196.405269 285.050384 
L 196.405269 284.587264 
L 198.346167 284.587264 
L 198.346167 284.124143 
L 198.823904 284.124143 
L 198.823904 283.661023 
L 199.948664 283.661023 
L 199.948664 283.197902 
L 200.202157 283.197902 
L 200.202157 282.734782 
L 200.737605 282.734782 
L 200.737605 282.271661 
L 202.408665 282.271661 
L 202.408665 281.808541 
L 202.523159 281.808541 
L 202.523159 281.34542 
L 202.959539 281.34542 
L 202.959539 280.8823 
L 203.280627 280.8823 
L 203.280627 279.956059 
L 203.595909 279.956059 
L 203.595909 279.492938 
L 203.959607 279.492938 
L 203.959607 279.029818 
L 204.630446 279.029818 
L 204.630446 278.566697 
L 205.316869 278.566697 
L 205.316869 278.103577 
L 210.353701 278.103577 
L 210.378601 277.177336 
L 210.475127 277.177336 
L 210.475127 276.714215 
L 210.834549 276.714215 
L 210.834549 276.251095 
L 211.490651 276.251095 
L 211.490651 275.787974 
L 213.786587 275.787974 
L 213.786587 275.324854 
L 213.926471 275.324854 
L 213.926471 274.861733 
L 214.268669 274.861733 
L 214.349206 273.935492 
L 214.718499 273.935492 
L 214.718499 273.472371 
L 215.12872 273.472371 
L 215.12872 272.54613 
L 219.380187 272.54613 
L 219.380187 272.08301 
L 219.534204 272.08301 
L 219.534204 271.156769 
L 219.673479 271.156769 
L 219.673479 270.693648 
L 224.543245 270.693648 
L 224.543245 270.230528 
L 227.556598 270.230528 
L 227.556598 269.767407 
L 227.811477 269.767407 
L 227.889239 268.841166 
L 227.962765 268.841166 
L 228.067197 266.525564 
L 228.137707 266.525564 
L 228.24375 265.599323 
L 230.556716 265.599323 
L 230.629082 263.746841 
L 232.873481 263.746841 
L 232.963952 262.357479 
L 233.082021 262.357479 
L 233.082021 261.894358 
L 235.556967 261.894358 
L 235.556967 261.431238 
L 239.827344 261.431238 
L 239.926714 260.504997 
L 239.978154 260.504997 
L 239.978154 260.041876 
L 240.126554 260.041876 
L 240.126554 259.578756 
L 244.833257 259.578756 
L 244.833257 259.115635 
L 247.018185 259.115635 
L 247.076808 257.726274 
L 247.146463 257.726274 
L 247.146463 256.800033 
L 253.309585 256.800033 
L 253.309585 256.336912 
L 253.749801 256.336912 
L 253.795298 254.947551 
L 253.962346 254.947551 
L 254.019679 253.558189 
L 254.142566 253.558189 
L 254.142566 253.095069 
L 254.35616 253.095069 
L 254.35616 252.631948 
L 254.496358 252.631948 
L 254.496358 251.705707 
L 254.677726 251.705707 
L 254.677726 251.242587 
L 254.918194 251.242587 
L 254.947388 250.316346 
L 255.606692 250.316346 
L 255.606692 249.853225 
L 256.000422 249.853225 
L 256.000422 248.926984 
L 256.566867 248.926984 
L 256.566867 248.463863 
L 257.193913 248.463863 
L 257.193913 248.000743 
L 338.688 248.000743 
L 338.688 248.000743 
" style="fill:none;stroke:#ff0000;stroke-linecap:square;stroke-width:1.5;"/>
   </g>
   <g id="line2d_51">
    <defs>
     <path d="M -6 6 
L 6 6 
L 6 -6 
L -6 -6 
z
" id="m99df7d6f5c" style="stroke:#ff0000;stroke-linejoin:miter;stroke-width:1.5;"/>
    </defs>
    <g>
     <use style="fill-opacity:0;stroke:#ff0000;stroke-linejoin:miter;stroke-width:1.5;" x="122.761498" xlink:href="#m99df7d6f5c" y="288.292228"/>
     <use style="fill-opacity:0;stroke:#ff0000;stroke-linejoin:miter;stroke-width:1.5;" x="219.673479" xlink:href="#m99df7d6f5c" y="271.156769"/>
     <use style="fill-opacity:0;stroke:#ff0000;stroke-linejoin:miter;stroke-width:1.5;" x="257.193913" xlink:href="#m99df7d6f5c" y="248.463863"/>
     <use style="fill-opacity:0;stroke:#ff0000;stroke-linejoin:miter;stroke-width:1.5;" x="257.193913" xlink:href="#m99df7d6f5c" y="248.000743"/>
     <use style="fill-opacity:0;stroke:#ff0000;stroke-linejoin:miter;stroke-width:1.5;" x="338.688" xlink:href="#m99df7d6f5c" y="248.000743"/>
    </g>
   </g>
   <g id="line2d_52">
    <path style="fill:none;stroke:#ff0000;stroke-linecap:square;stroke-width:1.5;"/>
    <g/>
   </g>
   <g id="line2d_53">
    <path clip-path="url(#p20f7894370)" d="M 258.377117 248.000743 
" style="fill:none;stroke:#ff0000;stroke-linecap:square;stroke-width:1.5;"/>
    <defs>
     <path d="M -12 12 
L 12 -12 
M -12 -12 
L 12 12 
" id="m2f4354c203" style="stroke:#ff0000;"/>
    </defs>
    <g clip-path="url(#p20f7894370)">
     <use style="fill:#ff0000;stroke:#ff0000;" x="258.377117" xlink:href="#m2f4354c203" y="248.000743"/>
    </g>
   </g>
   <g id="line2d_54">
    <path d="M 338.688 248.000743 
L 369.60768 293.571802 
" style="fill:none;stroke:#ff0000;stroke-linecap:square;stroke-width:1.5;"/>
    <g>
     <use style="fill-opacity:0;stroke:#ff0000;stroke-linejoin:miter;stroke-width:1.5;" x="338.688" xlink:href="#m99df7d6f5c" y="248.000743"/>
     <use style="fill-opacity:0;stroke:#ff0000;stroke-linejoin:miter;stroke-width:1.5;" x="369.60768" xlink:href="#m99df7d6f5c" y="293.571802"/>
    </g>
   </g>
   <g id="line2d_55">
    <path d="M 338.688 238.738333 
L 369.60768 229.105426 
" style="fill:none;stroke:#000000;stroke-linecap:square;stroke-width:1.5;"/>
    <g>
     <use style="fill-opacity:0;stroke:#000000;stroke-width:1.5;" x="338.688" xlink:href="#m0b077a15f5" y="238.738333"/>
     <use style="fill-opacity:0;stroke:#000000;stroke-width:1.5;" x="369.60768" xlink:href="#m0b077a15f5" y="229.105426"/>
    </g>
   </g>
   <g id="line2d_56">
    <path d="M 338.688 220.213512 
L 369.60768 164.63905 
" style="fill:none;stroke:#0000ff;stroke-linecap:square;stroke-width:1.5;"/>
    <g>
     <use style="fill-opacity:0;stroke:#0000ff;stroke-linejoin:bevel;stroke-width:1.5;" x="338.688" xlink:href="#m09d65e234d" y="220.213512"/>
     <use style="fill-opacity:0;stroke:#0000ff;stroke-linejoin:bevel;stroke-width:1.5;" x="369.60768" xlink:href="#m09d65e234d" y="164.63905"/>
    </g>
   </g>
   <g id="line2d_57">
    <path d="M 338.688 126.663167 
L 369.60768 100.172673 
" style="fill:none;stroke:#008000;stroke-linecap:square;stroke-width:1.5;"/>
    <g>
     <use style="fill-opacity:0;stroke:#008000;stroke-linejoin:miter;stroke-width:1.5;" x="338.688" xlink:href="#m51949fe617" y="126.663167"/>
     <use style="fill-opacity:0;stroke:#008000;stroke-linejoin:miter;stroke-width:1.5;" x="369.60768" xlink:href="#m51949fe617" y="100.172673"/>
    </g>
   </g>
   <g id="line2d_58">
    <path d="M 338.688 114.158913 
L 369.60768 35.706297 
" style="fill:none;stroke:#00bfbf;stroke-linecap:square;stroke-width:1.5;"/>
    <g>
     <use style="fill-opacity:0;stroke:#00bfbf;stroke-width:1.5;" x="338.688" xlink:href="#m99f4637bca" y="114.158913"/>
     <use style="fill-opacity:0;stroke:#00bfbf;stroke-width:1.5;" x="369.60768" xlink:href="#m99f4637bca" y="35.706297"/>
    </g>
   </g>
   <g id="line2d_59">
    <path d="M 338.688 298.944 
L 338.688 30.334099 
" style="fill:none;stroke:#000000;stroke-linecap:square;stroke-width:1.5;"/>
   </g>
   <g id="patch_3">
    <path d="M 57.6 298.944 
L 57.6 27.648 
" style="fill:none;stroke:#000000;stroke-linecap:square;stroke-linejoin:miter;stroke-width:0.8;"/>
   </g>
   <g id="patch_4">
    <path d="M 338.688 298.944 
L 338.688 27.648 
" style="fill:none;stroke:#000000;stroke-linecap:square;stroke-linejoin:miter;stroke-width:0.8;"/>
   </g>
   <g id="patch_5">
    <path d="M 57.6 298.944 
L 338.688 298.944 
" style="fill:none;stroke:#000000;stroke-linecap:square;stroke-linejoin:miter;stroke-width:0.8;"/>
   </g>
   <g id="patch_6">
    <path d="M 57.6 27.648 
L 338.688 27.648 
" style="fill:none;stroke:#000000;stroke-linecap:square;stroke-linejoin:miter;stroke-width:0.8;"/>
   </g>
   <g id="text_13">
    <!-- 20-D -->
    <g transform="translate(375.22944 298.262739)scale(0.17 -0.17)">
     <defs>
      <path d="M 19.671875 64.796875 
L 19.671875 8.109375 
L 31.59375 8.109375 
Q 46.6875 8.109375 53.6875 14.9375 
Q 60.6875 21.78125 60.6875 36.53125 
Q 60.6875 51.171875 53.6875 57.984375 
Q 46.6875 64.796875 31.59375 64.796875 
z
M 9.8125 72.90625 
L 30.078125 72.90625 
Q 51.265625 72.90625 61.171875 64.09375 
Q 71.09375 55.28125 71.09375 36.53125 
Q 71.09375 17.671875 61.125 8.828125 
Q 51.171875 0 30.078125 0 
L 9.8125 0 
z
" id="DejaVuSans-68"/>
     </defs>
     <use xlink:href="#DejaVuSans-50"/>
     <use x="63.623047" xlink:href="#DejaVuSans-48"/>
     <use x="127.246094" xlink:href="#DejaVuSans-45"/>
     <use x="163.330078" xlink:href="#DejaVuSans-68"/>
    </g>
   </g>
   <g id="text_14">
    <!-- 10-D -->
    <g transform="translate(375.22944 233.796363)scale(0.17 -0.17)">
     <use xlink:href="#DejaVuSans-49"/>
     <use x="63.623047" xlink:href="#DejaVuSans-48"/>
     <use x="127.246094" xlink:href="#DejaVuSans-45"/>
     <use x="163.330078" xlink:href="#DejaVuSans-68"/>
    </g>
   </g>
   <g id="text_15">
    <!-- 5-D -->
    <g transform="translate(375.22944 169.329987)scale(0.17 -0.17)">
     <defs>
      <path d="M 10.796875 72.90625 
L 49.515625 72.90625 
L 49.515625 64.59375 
L 19.828125 64.59375 
L 19.828125 46.734375 
Q 21.96875 47.46875 24.109375 47.828125 
Q 26.265625 48.1875 28.421875 48.1875 
Q 40.625 48.1875 47.75 41.5 
Q 54.890625 34.8125 54.890625 23.390625 
Q 54.890625 11.625 47.5625 5.09375 
Q 40.234375 -1.421875 26.90625 -1.421875 
Q 22.3125 -1.421875 17.546875 -0.640625 
Q 12.796875 0.140625 7.71875 1.703125 
L 7.71875 11.625 
Q 12.109375 9.234375 16.796875 8.0625 
Q 21.484375 6.890625 26.703125 6.890625 
Q 35.15625 6.890625 40.078125 11.328125 
Q 45.015625 15.765625 45.015625 23.390625 
Q 45.015625 31 40.078125 35.4375 
Q 35.15625 39.890625 26.703125 39.890625 
Q 22.75 39.890625 18.8125 39.015625 
Q 14.890625 38.140625 10.796875 36.28125 
z
" id="DejaVuSans-53"/>
     </defs>
     <use xlink:href="#DejaVuSans-53"/>
     <use x="63.623047" xlink:href="#DejaVuSans-45"/>
     <use x="99.707031" xlink:href="#DejaVuSans-68"/>
    </g>
   </g>
   <g id="text_16">
    <!-- 3-D -->
    <g transform="translate(375.22944 104.863611)scale(0.17 -0.17)">
     <defs>
      <path d="M 40.578125 39.3125 
Q 47.65625 37.796875 51.625 33 
Q 55.609375 28.21875 55.609375 21.1875 
Q 55.609375 10.40625 48.1875 4.484375 
Q 40.765625 -1.421875 27.09375 -1.421875 
Q 22.515625 -1.421875 17.65625 -0.515625 
Q 12.796875 0.390625 7.625 2.203125 
L 7.625 11.71875 
Q 11.71875 9.328125 16.59375 8.109375 
Q 21.484375 6.890625 26.8125 6.890625 
Q 36.078125 6.890625 40.9375 10.546875 
Q 45.796875 14.203125 45.796875 21.1875 
Q 45.796875 27.640625 41.28125 31.265625 
Q 36.765625 34.90625 28.71875 34.90625 
L 20.21875 34.90625 
L 20.21875 43.015625 
L 29.109375 43.015625 
Q 36.375 43.015625 40.234375 45.921875 
Q 44.09375 48.828125 44.09375 54.296875 
Q 44.09375 59.90625 40.109375 62.90625 
Q 36.140625 65.921875 28.71875 65.921875 
Q 24.65625 65.921875 20.015625 65.03125 
Q 15.375 64.15625 9.8125 62.3125 
L 9.8125 71.09375 
Q 15.4375 72.65625 20.34375 73.4375 
Q 25.25 74.21875 29.59375 74.21875 
Q 40.828125 74.21875 47.359375 69.109375 
Q 53.90625 64.015625 53.90625 55.328125 
Q 53.90625 49.265625 50.4375 45.09375 
Q 46.96875 40.921875 40.578125 39.3125 
z
" id="DejaVuSans-51"/>
     </defs>
     <use xlink:href="#DejaVuSans-51"/>
     <use x="63.623047" xlink:href="#DejaVuSans-45"/>
     <use x="99.707031" xlink:href="#DejaVuSans-68"/>
    </g>
   </g>
   <g id="text_17">
    <!-- 2-D -->
    <g transform="translate(375.22944 40.397235)scale(0.17 -0.17)">
     <use xlink:href="#DejaVuSans-50"/>
     <use x="63.623047" xlink:href="#DejaVuSans-45"/>
     <use x="99.707031" xlink:href="#DejaVuSans-68"/>
    </g>
   </g>
   <g id="text_18">
    <!-- bbob-biobj f55 -->
    <g transform="translate(60.41088 38.111366)scale(0.102 -0.102)">
     <defs>
      <path d="M 48.6875 27.296875 
Q 48.6875 37.203125 44.609375 42.84375 
Q 40.53125 48.484375 33.40625 48.484375 
Q 26.265625 48.484375 22.1875 42.84375 
Q 18.109375 37.203125 18.109375 27.296875 
Q 18.109375 17.390625 22.1875 11.75 
Q 26.265625 6.109375 33.40625 6.109375 
Q 40.53125 6.109375 44.609375 11.75 
Q 48.6875 17.390625 48.6875 27.296875 
z
M 18.109375 46.390625 
Q 20.953125 51.265625 25.265625 53.625 
Q 29.59375 56 35.59375 56 
Q 45.5625 56 51.78125 48.09375 
Q 58.015625 40.1875 58.015625 27.296875 
Q 58.015625 14.40625 51.78125 6.484375 
Q 45.5625 -1.421875 35.59375 -1.421875 
Q 29.59375 -1.421875 25.265625 0.953125 
Q 20.953125 3.328125 18.109375 8.203125 
L 18.109375 0 
L 9.078125 0 
L 9.078125 75.984375 
L 18.109375 75.984375 
z
" id="DejaVuSans-98"/>
      <path d="M 9.421875 54.6875 
L 18.40625 54.6875 
L 18.40625 -0.984375 
Q 18.40625 -11.421875 14.421875 -16.109375 
Q 10.453125 -20.796875 1.609375 -20.796875 
L -1.8125 -20.796875 
L -1.8125 -13.1875 
L 0.59375 -13.1875 
Q 5.71875 -13.1875 7.5625 -10.8125 
Q 9.421875 -8.453125 9.421875 -0.984375 
z
M 9.421875 75.984375 
L 18.40625 75.984375 
L 18.40625 64.59375 
L 9.421875 64.59375 
z
" id="DejaVuSans-106"/>
     </defs>
     <use xlink:href="#DejaVuSans-98"/>
     <use x="63.476562" xlink:href="#DejaVuSans-98"/>
     <use x="126.953125" xlink:href="#DejaVuSans-111"/>
     <use x="188.134766" xlink:href="#DejaVuSans-98"/>
     <use x="251.611328" xlink:href="#DejaVuSans-45"/>
     <use x="287.695312" xlink:href="#DejaVuSans-98"/>
     <use x="351.171875" xlink:href="#DejaVuSans-105"/>
     <use x="378.955078" xlink:href="#DejaVuSans-111"/>
     <use x="440.136719" xlink:href="#DejaVuSans-98"/>
     <use x="503.613281" xlink:href="#DejaVuSans-106"/>
     <use x="531.396484" xlink:href="#DejaVuSans-32"/>
     <use x="563.183594" xlink:href="#DejaVuSans-102"/>
     <use x="598.388672" xlink:href="#DejaVuSans-53"/>
     <use x="662.011719" xlink:href="#DejaVuSans-53"/>
    </g>
    <!-- 58 targets: 1..-1.0e-4 -->
    <g transform="translate(60.41088 49.533135)scale(0.102 -0.102)">
     <defs>
      <path d="M 11.71875 12.40625 
L 22.015625 12.40625 
L 22.015625 0 
L 11.71875 0 
z
M 11.71875 51.703125 
L 22.015625 51.703125 
L 22.015625 39.3125 
L 11.71875 39.3125 
z
" id="DejaVuSans-58"/>
     </defs>
     <use xlink:href="#DejaVuSans-53"/>
     <use x="63.623047" xlink:href="#DejaVuSans-56"/>
     <use x="127.246094" xlink:href="#DejaVuSans-32"/>
     <use x="159.033203" xlink:href="#DejaVuSans-116"/>
     <use x="198.242188" xlink:href="#DejaVuSans-97"/>
     <use x="259.521484" xlink:href="#DejaVuSans-114"/>
     <use x="298.884766" xlink:href="#DejaVuSans-103"/>
     <use x="362.361328" xlink:href="#DejaVuSans-101"/>
     <use x="423.884766" xlink:href="#DejaVuSans-116"/>
     <use x="463.09375" xlink:href="#DejaVuSans-115"/>
     <use x="515.193359" xlink:href="#DejaVuSans-58"/>
     <use x="548.884766" xlink:href="#DejaVuSans-32"/>
     <use x="580.671875" xlink:href="#DejaVuSans-49"/>
     <use x="644.294922" xlink:href="#DejaVuSans-46"/>
     <use x="676.082031" xlink:href="#DejaVuSans-46"/>
     <use x="707.869141" xlink:href="#DejaVuSans-45"/>
     <use x="743.953125" xlink:href="#DejaVuSans-49"/>
     <use x="807.576172" xlink:href="#DejaVuSans-46"/>
     <use x="839.363281" xlink:href="#DejaVuSans-48"/>
     <use x="902.986328" xlink:href="#DejaVuSans-101"/>
     <use x="964.509766" xlink:href="#DejaVuSans-45"/>
     <use x="1000.59375" xlink:href="#DejaVuSans-52"/>
    </g>
    <!-- 10 instances -->
    <g transform="translate(60.41088 60.954904)scale(0.102 -0.102)">
     <use xlink:href="#DejaVuSans-49"/>
     <use x="63.623047" xlink:href="#DejaVuSans-48"/>
     <use x="127.246094" xlink:href="#DejaVuSans-32"/>
     <use x="159.033203" xlink:href="#DejaVuSans-105"/>
     <use x="186.816406" xlink:href="#DejaVuSans-110"/>
     <use x="250.195312" xlink:href="#DejaVuSans-115"/>
     <use x="302.294922" xlink:href="#DejaVuSans-116"/>
     <use x="341.503906" xlink:href="#DejaVuSans-97"/>
     <use x="402.783203" xlink:href="#DejaVuSans-110"/>
     <use x="466.162109" xlink:href="#DejaVuSans-99"/>
     <use x="521.142578" xlink:href="#DejaVuSans-101"/>
     <use x="582.666016" xlink:href="#DejaVuSans-115"/>
    </g>
   </g>
   <g id="text_19">
    <!-- v2.4, hv-hash=ff0e71e8cd978373 -->
    <g style="fill:#808080;" transform="translate(112.648687 294.151352)scale(0.1 -0.1)">
     <defs>
      <path d="M 54.890625 33.015625 
L 54.890625 0 
L 45.90625 0 
L 45.90625 32.71875 
Q 45.90625 40.484375 42.875 44.328125 
Q 39.84375 48.1875 33.796875 48.1875 
Q 26.515625 48.1875 22.3125 43.546875 
Q 18.109375 38.921875 18.109375 30.90625 
L 18.109375 0 
L 9.078125 0 
L 9.078125 75.984375 
L 18.109375 75.984375 
L 18.109375 46.1875 
Q 21.34375 51.125 25.703125 53.5625 
Q 30.078125 56 35.796875 56 
Q 45.21875 56 50.046875 50.171875 
Q 54.890625 44.34375 54.890625 33.015625 
z
" id="DejaVuSans-104"/>
      <path d="M 10.59375 45.40625 
L 73.1875 45.40625 
L 73.1875 37.203125 
L 10.59375 37.203125 
z
M 10.59375 25.484375 
L 73.1875 25.484375 
L 73.1875 17.1875 
L 10.59375 17.1875 
z
" id="DejaVuSans-61"/>
      <path d="M 8.203125 72.90625 
L 55.078125 72.90625 
L 55.078125 68.703125 
L 28.609375 0 
L 18.3125 0 
L 43.21875 64.59375 
L 8.203125 64.59375 
z
" id="DejaVuSans-55"/>
      <path d="M 10.984375 1.515625 
L 10.984375 10.5 
Q 14.703125 8.734375 18.5 7.8125 
Q 22.3125 6.890625 25.984375 6.890625 
Q 35.75 6.890625 40.890625 13.453125 
Q 46.046875 20.015625 46.78125 33.40625 
Q 43.953125 29.203125 39.59375 26.953125 
Q 35.25 24.703125 29.984375 24.703125 
Q 19.046875 24.703125 12.671875 31.3125 
Q 6.296875 37.9375 6.296875 49.421875 
Q 6.296875 60.640625 12.9375 67.421875 
Q 19.578125 74.21875 30.609375 74.21875 
Q 43.265625 74.21875 49.921875 64.515625 
Q 56.59375 54.828125 56.59375 36.375 
Q 56.59375 19.140625 48.40625 8.859375 
Q 40.234375 -1.421875 26.421875 -1.421875 
Q 22.703125 -1.421875 18.890625 -0.6875 
Q 15.09375 0.046875 10.984375 1.515625 
z
M 30.609375 32.421875 
Q 37.25 32.421875 41.125 36.953125 
Q 45.015625 41.5 45.015625 49.421875 
Q 45.015625 57.28125 41.125 61.84375 
Q 37.25 66.40625 30.609375 66.40625 
Q 23.96875 66.40625 20.09375 61.84375 
Q 16.21875 57.28125 16.21875 49.421875 
Q 16.21875 41.5 20.09375 36.953125 
Q 23.96875 32.421875 30.609375 32.421875 
z
" id="DejaVuSans-57"/>
     </defs>
     <use xlink:href="#DejaVuSans-118"/>
     <use x="59.179688" xlink:href="#DejaVuSans-50"/>
     <use x="122.802734" xlink:href="#DejaVuSans-46"/>
     <use x="154.589844" xlink:href="#DejaVuSans-52"/>
     <use x="218.212891" xlink:href="#DejaVuSans-44"/>
     <use x="250" xlink:href="#DejaVuSans-32"/>
     <use x="281.787109" xlink:href="#DejaVuSans-104"/>
     <use x="345.166016" xlink:href="#DejaVuSans-118"/>
     <use x="401.720703" xlink:href="#DejaVuSans-45"/>
     <use x="437.804688" xlink:href="#DejaVuSans-104"/>
     <use x="501.183594" xlink:href="#DejaVuSans-97"/>
     <use x="562.462891" xlink:href="#DejaVuSans-115"/>
     <use x="614.5625" xlink:href="#DejaVuSans-104"/>
     <use x="677.941406" xlink:href="#DejaVuSans-61"/>
     <use x="761.730469" xlink:href="#DejaVuSans-102"/>
     <use x="796.935547" xlink:href="#DejaVuSans-102"/>
     <use x="832.140625" xlink:href="#DejaVuSans-48"/>
     <use x="895.763672" xlink:href="#DejaVuSans-101"/>
     <use x="957.287109" xlink:href="#DejaVuSans-55"/>
     <use x="1020.910156" xlink:href="#DejaVuSans-49"/>
     <use x="1084.533203" xlink:href="#DejaVuSans-101"/>
     <use x="1146.056641" xlink:href="#DejaVuSans-56"/>
     <use x="1209.679688" xlink:href="#DejaVuSans-99"/>
     <use x="1264.660156" xlink:href="#DejaVuSans-100"/>
     <use x="1328.136719" xlink:href="#DejaVuSans-57"/>
     <use x="1391.759766" xlink:href="#DejaVuSans-55"/>
     <use x="1455.382812" xlink:href="#DejaVuSans-56"/>
     <use x="1519.005859" xlink:href="#DejaVuSans-51"/>
     <use x="1582.628906" xlink:href="#DejaVuSans-55"/>
     <use x="1646.251953" xlink:href="#DejaVuSans-51"/>
    </g>
   </g>
   <g id="text_20">
    <!-- 55 Gallagher 101/Gallagh. 101 -->
    <g transform="translate(44.404937 21.648)scale(0.2 -0.2)">
     <defs>
      <path d="M 59.515625 10.40625 
L 59.515625 29.984375 
L 43.40625 29.984375 
L 43.40625 38.09375 
L 69.28125 38.09375 
L 69.28125 6.78125 
Q 63.578125 2.734375 56.6875 0.65625 
Q 49.8125 -1.421875 42 -1.421875 
Q 24.90625 -1.421875 15.25 8.5625 
Q 5.609375 18.5625 5.609375 36.375 
Q 5.609375 54.25 15.25 64.234375 
Q 24.90625 74.21875 42 74.21875 
Q 49.125 74.21875 55.546875 72.453125 
Q 61.96875 70.703125 67.390625 67.28125 
L 67.390625 56.78125 
Q 61.921875 61.421875 55.765625 63.765625 
Q 49.609375 66.109375 42.828125 66.109375 
Q 29.4375 66.109375 22.71875 58.640625 
Q 16.015625 51.171875 16.015625 36.375 
Q 16.015625 21.625 22.71875 14.15625 
Q 29.4375 6.6875 42.828125 6.6875 
Q 48.046875 6.6875 52.140625 7.59375 
Q 56.25 8.5 59.515625 10.40625 
z
" id="DejaVuSans-71"/>
     </defs>
     <use xlink:href="#DejaVuSans-53"/>
     <use x="63.623047" xlink:href="#DejaVuSans-53"/>
     <use x="127.246094" xlink:href="#DejaVuSans-32"/>
     <use x="159.033203" xlink:href="#DejaVuSans-71"/>
     <use x="236.523438" xlink:href="#DejaVuSans-97"/>
     <use x="297.802734" xlink:href="#DejaVuSans-108"/>
     <use x="325.585938" xlink:href="#DejaVuSans-108"/>
     <use x="353.369141" xlink:href="#DejaVuSans-97"/>
     <use x="414.648438" xlink:href="#DejaVuSans-103"/>
     <use x="478.125" xlink:href="#DejaVuSans-104"/>
     <use x="541.503906" xlink:href="#DejaVuSans-101"/>
     <use x="603.027344" xlink:href="#DejaVuSans-114"/>
     <use x="644.140625" xlink:href="#DejaVuSans-32"/>
     <use x="675.927734" xlink:href="#DejaVuSans-49"/>
     <use x="739.550781" xlink:href="#DejaVuSans-48"/>
     <use x="803.173828" xlink:href="#DejaVuSans-49"/>
     <use x="866.796875" xlink:href="#DejaVuSans-47"/>
     <use x="900.488281" xlink:href="#DejaVuSans-71"/>
     <use x="977.978516" xlink:href="#DejaVuSans-97"/>
     <use x="1039.257812" xlink:href="#DejaVuSans-108"/>
     <use x="1067.041016" xlink:href="#DejaVuSans-108"/>
     <use x="1094.824219" xlink:href="#DejaVuSans-97"/>
     <use x="1156.103516" xlink:href="#DejaVuSans-103"/>
     <use x="1219.580078" xlink:href="#DejaVuSans-104"/>
     <use x="1282.958984" xlink:href="#DejaVuSans-46"/>
     <use x="1314.746094" xlink:href="#DejaVuSans-32"/>
     <use x="1346.533203" xlink:href="#DejaVuSans-49"/>
     <use x="1410.15625" xlink:href="#DejaVuSans-48"/>
     <use x="1473.779297" xlink:href="#DejaVuSans-49"/>
    </g>
   </g>
  </g>
 </g>
 <defs>
  <clipPath id="p20f7894370">
   <rect height="271.296" width="281.088" x="57.6" y="27.648"/>
  </clipPath>
 </defs>
</svg>
