<?xml version="1.0" encoding="utf-8" standalone="no"?>
<!DOCTYPE svg PUBLIC "-//W3C//DTD SVG 1.1//EN"
  "http://www.w3.org/Graphics/SVG/1.1/DTD/svg11.dtd">
<!-- Created with matplotlib (https://matplotlib.org/) -->
<svg height="345.6pt" version="1.1" viewBox="0 0 460.8 345.6" width="460.8pt" xmlns="http://www.w3.org/2000/svg" xmlns:xlink="http://www.w3.org/1999/xlink">
 <metadata>
  <rdf:RDF xmlns:cc="http://creativecommons.org/ns#" xmlns:dc="http://purl.org/dc/elements/1.1/" xmlns:rdf="http://www.w3.org/1999/02/22-rdf-syntax-ns#">
   <cc:Work>
    <dc:type rdf:resource="http://purl.org/dc/dcmitype/StillImage"/>
    <dc:date>2021-03-30T16:55:31.333448</dc:date>
    <dc:format>image/svg+xml</dc:format>
    <dc:creator>
     <cc:Agent>
      <dc:title>Matplotlib v3.3.4, https://matplotlib.org/</dc:title>
     </cc:Agent>
    </dc:creator>
   </cc:Work>
  </rdf:RDF>
 </metadata>
 <defs>
  <style type="text/css">*{stroke-linecap:butt;stroke-linejoin:round;}</style>
 </defs>
 <g id="figure_1">
  <g id="patch_1">
   <path d="M 0 345.6 
L 460.8 345.6 
L 460.8 0 
L 0 0 
z
" style="fill:#ffffff;"/>
  </g>
  <g id="axes_1">
   <g id="patch_2">
    <path d="M 57.6 298.944 
L 338.688 298.944 
L 338.688 3.456 
L 57.6 3.456 
z
" style="fill:#ffffff;"/>
   </g>
   <g id="matplotlib.axis_1">
    <g id="xtick_1">
     <g id="line2d_1">
      <path clip-path="url(#p51a7bc9b84)" d="M 57.6 298.944 
L 57.6 3.456 
" style="fill:none;stroke:#b0b0b0;stroke-linecap:square;stroke-width:0.8;"/>
     </g>
     <g id="line2d_2">
      <defs>
       <path d="M 0 0 
L 0 3.5 
" id="m6da6f1602e" style="stroke:#000000;stroke-width:0.8;"/>
      </defs>
      <g>
       <use style="stroke:#000000;stroke-width:0.8;" x="57.6" xlink:href="#m6da6f1602e" y="298.944"/>
      </g>
     </g>
     <g id="text_1">
      <!-- 0 -->
      <g transform="translate(51.2375 321.140875)scale(0.2 -0.2)">
       <defs>
        <path d="M 31.78125 66.40625 
Q 24.171875 66.40625 20.328125 58.90625 
Q 16.5 51.421875 16.5 36.375 
Q 16.5 21.390625 20.328125 13.890625 
Q 24.171875 6.390625 31.78125 6.390625 
Q 39.453125 6.390625 43.28125 13.890625 
Q 47.125 21.390625 47.125 36.375 
Q 47.125 51.421875 43.28125 58.90625 
Q 39.453125 66.40625 31.78125 66.40625 
z
M 31.78125 74.21875 
Q 44.046875 74.21875 50.515625 64.515625 
Q 56.984375 54.828125 56.984375 36.375 
Q 56.984375 17.96875 50.515625 8.265625 
Q 44.046875 -1.421875 31.78125 -1.421875 
Q 19.53125 -1.421875 13.0625 8.265625 
Q 6.59375 17.96875 6.59375 36.375 
Q 6.59375 54.828125 13.0625 64.515625 
Q 19.53125 74.21875 31.78125 74.21875 
z
" id="DejaVuSans-48"/>
       </defs>
       <use xlink:href="#DejaVuSans-48"/>
      </g>
     </g>
    </g>
    <g id="xtick_2">
     <g id="line2d_3">
      <path clip-path="url(#p51a7bc9b84)" d="M 137.910857 298.944 
L 137.910857 3.456 
" style="fill:none;stroke:#b0b0b0;stroke-linecap:square;stroke-width:0.8;"/>
     </g>
     <g id="line2d_4">
      <g>
       <use style="stroke:#000000;stroke-width:0.8;" x="137.910857" xlink:href="#m6da6f1602e" y="298.944"/>
      </g>
     </g>
     <g id="text_2">
      <!-- 2 -->
      <g transform="translate(131.548357 321.140875)scale(0.2 -0.2)">
       <defs>
        <path d="M 19.1875 8.296875 
L 53.609375 8.296875 
L 53.609375 0 
L 7.328125 0 
L 7.328125 8.296875 
Q 12.9375 14.109375 22.625 23.890625 
Q 32.328125 33.6875 34.8125 36.53125 
Q 39.546875 41.84375 41.421875 45.53125 
Q 43.3125 49.21875 43.3125 52.78125 
Q 43.3125 58.59375 39.234375 62.25 
Q 35.15625 65.921875 28.609375 65.921875 
Q 23.96875 65.921875 18.8125 64.3125 
Q 13.671875 62.703125 7.8125 59.421875 
L 7.8125 69.390625 
Q 13.765625 71.78125 18.9375 73 
Q 24.125 74.21875 28.421875 74.21875 
Q 39.75 74.21875 46.484375 68.546875 
Q 53.21875 62.890625 53.21875 53.421875 
Q 53.21875 48.921875 51.53125 44.890625 
Q 49.859375 40.875 45.40625 35.40625 
Q 44.1875 33.984375 37.640625 27.21875 
Q 31.109375 20.453125 19.1875 8.296875 
z
" id="DejaVuSans-50"/>
       </defs>
       <use xlink:href="#DejaVuSans-50"/>
      </g>
     </g>
    </g>
    <g id="xtick_3">
     <g id="line2d_5">
      <path clip-path="url(#p51a7bc9b84)" d="M 218.221714 298.944 
L 218.221714 3.456 
" style="fill:none;stroke:#b0b0b0;stroke-linecap:square;stroke-width:0.8;"/>
     </g>
     <g id="line2d_6">
      <g>
       <use style="stroke:#000000;stroke-width:0.8;" x="218.221714" xlink:href="#m6da6f1602e" y="298.944"/>
      </g>
     </g>
     <g id="text_3">
      <!-- 4 -->
      <g transform="translate(211.859214 321.140875)scale(0.2 -0.2)">
       <defs>
        <path d="M 37.796875 64.3125 
L 12.890625 25.390625 
L 37.796875 25.390625 
z
M 35.203125 72.90625 
L 47.609375 72.90625 
L 47.609375 25.390625 
L 58.015625 25.390625 
L 58.015625 17.1875 
L 47.609375 17.1875 
L 47.609375 0 
L 37.796875 0 
L 37.796875 17.1875 
L 4.890625 17.1875 
L 4.890625 26.703125 
z
" id="DejaVuSans-52"/>
       </defs>
       <use xlink:href="#DejaVuSans-52"/>
      </g>
     </g>
    </g>
    <g id="xtick_4">
     <g id="line2d_7">
      <path clip-path="url(#p51a7bc9b84)" d="M 298.532571 298.944 
L 298.532571 3.456 
" style="fill:none;stroke:#b0b0b0;stroke-linecap:square;stroke-width:0.8;"/>
     </g>
     <g id="line2d_8">
      <g>
       <use style="stroke:#000000;stroke-width:0.8;" x="298.532571" xlink:href="#m6da6f1602e" y="298.944"/>
      </g>
     </g>
     <g id="text_4">
      <!-- 6 -->
      <g transform="translate(292.170071 321.140875)scale(0.2 -0.2)">
       <defs>
        <path d="M 33.015625 40.375 
Q 26.375 40.375 22.484375 35.828125 
Q 18.609375 31.296875 18.609375 23.390625 
Q 18.609375 15.53125 22.484375 10.953125 
Q 26.375 6.390625 33.015625 6.390625 
Q 39.65625 6.390625 43.53125 10.953125 
Q 47.40625 15.53125 47.40625 23.390625 
Q 47.40625 31.296875 43.53125 35.828125 
Q 39.65625 40.375 33.015625 40.375 
z
M 52.59375 71.296875 
L 52.59375 62.3125 
Q 48.875 64.0625 45.09375 64.984375 
Q 41.3125 65.921875 37.59375 65.921875 
Q 27.828125 65.921875 22.671875 59.328125 
Q 17.53125 52.734375 16.796875 39.40625 
Q 19.671875 43.65625 24.015625 45.921875 
Q 28.375 48.1875 33.59375 48.1875 
Q 44.578125 48.1875 50.953125 41.515625 
Q 57.328125 34.859375 57.328125 23.390625 
Q 57.328125 12.15625 50.6875 5.359375 
Q 44.046875 -1.421875 33.015625 -1.421875 
Q 20.359375 -1.421875 13.671875 8.265625 
Q 6.984375 17.96875 6.984375 36.375 
Q 6.984375 53.65625 15.1875 63.9375 
Q 23.390625 74.21875 37.203125 74.21875 
Q 40.921875 74.21875 44.703125 73.484375 
Q 48.484375 72.75 52.59375 71.296875 
z
" id="DejaVuSans-54"/>
       </defs>
       <use xlink:href="#DejaVuSans-54"/>
      </g>
     </g>
    </g>
    <g id="xtick_5">
     <g id="line2d_9">
      <path clip-path="url(#p51a7bc9b84)" d="M 97.755429 298.944 
L 97.755429 3.456 
" style="fill:none;stroke:#b0b0b0;stroke-linecap:square;stroke-width:0.8;"/>
     </g>
     <g id="line2d_10">
      <defs>
       <path d="M 0 0 
L 0 2 
" id="m6a26c6f50a" style="stroke:#000000;stroke-width:0.6;"/>
      </defs>
      <g>
       <use style="stroke:#000000;stroke-width:0.6;" x="97.755429" xlink:href="#m6a26c6f50a" y="298.944"/>
      </g>
     </g>
    </g>
    <g id="xtick_6">
     <g id="line2d_11">
      <path clip-path="url(#p51a7bc9b84)" d="M 178.066286 298.944 
L 178.066286 3.456 
" style="fill:none;stroke:#b0b0b0;stroke-linecap:square;stroke-width:0.8;"/>
     </g>
     <g id="line2d_12">
      <g>
       <use style="stroke:#000000;stroke-width:0.6;" x="178.066286" xlink:href="#m6a26c6f50a" y="298.944"/>
      </g>
     </g>
    </g>
    <g id="xtick_7">
     <g id="line2d_13">
      <path clip-path="url(#p51a7bc9b84)" d="M 258.377143 298.944 
L 258.377143 3.456 
" style="fill:none;stroke:#b0b0b0;stroke-linecap:square;stroke-width:0.8;"/>
     </g>
     <g id="line2d_14">
      <g>
       <use style="stroke:#000000;stroke-width:0.6;" x="258.377143" xlink:href="#m6a26c6f50a" y="298.944"/>
      </g>
     </g>
    </g>
    <g id="xtick_8">
     <g id="line2d_15">
      <path clip-path="url(#p51a7bc9b84)" d="M 338.688 298.944 
L 338.688 3.456 
" style="fill:none;stroke:#b0b0b0;stroke-linecap:square;stroke-width:0.8;"/>
     </g>
     <g id="line2d_16">
      <g>
       <use style="stroke:#000000;stroke-width:0.6;" x="338.688" xlink:href="#m6a26c6f50a" y="298.944"/>
      </g>
     </g>
    </g>
    <g id="text_5">
     <!-- log10(# f-evals / dimension) -->
     <g transform="translate(77.764078 342.217594)scale(0.17 -0.17)">
      <defs>
       <path d="M 9.421875 75.984375 
L 18.40625 75.984375 
L 18.40625 0 
L 9.421875 0 
z
" id="DejaVuSans-108"/>
       <path d="M 30.609375 48.390625 
Q 23.390625 48.390625 19.1875 42.75 
Q 14.984375 37.109375 14.984375 27.296875 
Q 14.984375 17.484375 19.15625 11.84375 
Q 23.34375 6.203125 30.609375 6.203125 
Q 37.796875 6.203125 41.984375 11.859375 
Q 46.1875 17.53125 46.1875 27.296875 
Q 46.1875 37.015625 41.984375 42.703125 
Q 37.796875 48.390625 30.609375 48.390625 
z
M 30.609375 56 
Q 42.328125 56 49.015625 48.375 
Q 55.71875 40.765625 55.71875 27.296875 
Q 55.71875 13.875 49.015625 6.21875 
Q 42.328125 -1.421875 30.609375 -1.421875 
Q 18.84375 -1.421875 12.171875 6.21875 
Q 5.515625 13.875 5.515625 27.296875 
Q 5.515625 40.765625 12.171875 48.375 
Q 18.84375 56 30.609375 56 
z
" id="DejaVuSans-111"/>
       <path d="M 45.40625 27.984375 
Q 45.40625 37.75 41.375 43.109375 
Q 37.359375 48.484375 30.078125 48.484375 
Q 22.859375 48.484375 18.828125 43.109375 
Q 14.796875 37.75 14.796875 27.984375 
Q 14.796875 18.265625 18.828125 12.890625 
Q 22.859375 7.515625 30.078125 7.515625 
Q 37.359375 7.515625 41.375 12.890625 
Q 45.40625 18.265625 45.40625 27.984375 
z
M 54.390625 6.78125 
Q 54.390625 -7.171875 48.1875 -13.984375 
Q 42 -20.796875 29.203125 -20.796875 
Q 24.46875 -20.796875 20.265625 -20.09375 
Q 16.0625 -19.390625 12.109375 -17.921875 
L 12.109375 -9.1875 
Q 16.0625 -11.328125 19.921875 -12.34375 
Q 23.78125 -13.375 27.78125 -13.375 
Q 36.625 -13.375 41.015625 -8.765625 
Q 45.40625 -4.15625 45.40625 5.171875 
L 45.40625 9.625 
Q 42.625 4.78125 38.28125 2.390625 
Q 33.9375 0 27.875 0 
Q 17.828125 0 11.671875 7.65625 
Q 5.515625 15.328125 5.515625 27.984375 
Q 5.515625 40.671875 11.671875 48.328125 
Q 17.828125 56 27.875 56 
Q 33.9375 56 38.28125 53.609375 
Q 42.625 51.21875 45.40625 46.390625 
L 45.40625 54.6875 
L 54.390625 54.6875 
z
" id="DejaVuSans-103"/>
       <path d="M 12.40625 8.296875 
L 28.515625 8.296875 
L 28.515625 63.921875 
L 10.984375 60.40625 
L 10.984375 69.390625 
L 28.421875 72.90625 
L 38.28125 72.90625 
L 38.28125 8.296875 
L 54.390625 8.296875 
L 54.390625 0 
L 12.40625 0 
z
" id="DejaVuSans-49"/>
       <path d="M 31 75.875 
Q 24.46875 64.65625 21.28125 53.65625 
Q 18.109375 42.671875 18.109375 31.390625 
Q 18.109375 20.125 21.3125 9.0625 
Q 24.515625 -2 31 -13.1875 
L 23.1875 -13.1875 
Q 15.875 -1.703125 12.234375 9.375 
Q 8.59375 20.453125 8.59375 31.390625 
Q 8.59375 42.28125 12.203125 53.3125 
Q 15.828125 64.359375 23.1875 75.875 
z
" id="DejaVuSans-40"/>
       <path d="M 51.125 44 
L 36.921875 44 
L 32.8125 27.6875 
L 47.125 27.6875 
z
M 43.796875 71.78125 
L 38.71875 51.515625 
L 52.984375 51.515625 
L 58.109375 71.78125 
L 65.921875 71.78125 
L 60.890625 51.515625 
L 76.125 51.515625 
L 76.125 44 
L 58.984375 44 
L 54.984375 27.6875 
L 70.515625 27.6875 
L 70.515625 20.21875 
L 53.078125 20.21875 
L 48 0 
L 40.1875 0 
L 45.21875 20.21875 
L 30.90625 20.21875 
L 25.875 0 
L 18.015625 0 
L 23.09375 20.21875 
L 7.71875 20.21875 
L 7.71875 27.6875 
L 24.90625 27.6875 
L 29 44 
L 13.28125 44 
L 13.28125 51.515625 
L 30.90625 51.515625 
L 35.890625 71.78125 
z
" id="DejaVuSans-35"/>
       <path id="DejaVuSans-32"/>
       <path d="M 37.109375 75.984375 
L 37.109375 68.5 
L 28.515625 68.5 
Q 23.6875 68.5 21.796875 66.546875 
Q 19.921875 64.59375 19.921875 59.515625 
L 19.921875 54.6875 
L 34.71875 54.6875 
L 34.71875 47.703125 
L 19.921875 47.703125 
L 19.921875 0 
L 10.890625 0 
L 10.890625 47.703125 
L 2.296875 47.703125 
L 2.296875 54.6875 
L 10.890625 54.6875 
L 10.890625 58.5 
Q 10.890625 67.625 15.140625 71.796875 
Q 19.390625 75.984375 28.609375 75.984375 
z
" id="DejaVuSans-102"/>
       <path d="M 4.890625 31.390625 
L 31.203125 31.390625 
L 31.203125 23.390625 
L 4.890625 23.390625 
z
" id="DejaVuSans-45"/>
       <path d="M 56.203125 29.59375 
L 56.203125 25.203125 
L 14.890625 25.203125 
Q 15.484375 15.921875 20.484375 11.0625 
Q 25.484375 6.203125 34.421875 6.203125 
Q 39.59375 6.203125 44.453125 7.46875 
Q 49.3125 8.734375 54.109375 11.28125 
L 54.109375 2.78125 
Q 49.265625 0.734375 44.1875 -0.34375 
Q 39.109375 -1.421875 33.890625 -1.421875 
Q 20.796875 -1.421875 13.15625 6.1875 
Q 5.515625 13.8125 5.515625 26.8125 
Q 5.515625 40.234375 12.765625 48.109375 
Q 20.015625 56 32.328125 56 
Q 43.359375 56 49.78125 48.890625 
Q 56.203125 41.796875 56.203125 29.59375 
z
M 47.21875 32.234375 
Q 47.125 39.59375 43.09375 43.984375 
Q 39.0625 48.390625 32.421875 48.390625 
Q 24.90625 48.390625 20.390625 44.140625 
Q 15.875 39.890625 15.1875 32.171875 
z
" id="DejaVuSans-101"/>
       <path d="M 2.984375 54.6875 
L 12.5 54.6875 
L 29.59375 8.796875 
L 46.6875 54.6875 
L 56.203125 54.6875 
L 35.6875 0 
L 23.484375 0 
z
" id="DejaVuSans-118"/>
       <path d="M 34.28125 27.484375 
Q 23.390625 27.484375 19.1875 25 
Q 14.984375 22.515625 14.984375 16.5 
Q 14.984375 11.71875 18.140625 8.90625 
Q 21.296875 6.109375 26.703125 6.109375 
Q 34.1875 6.109375 38.703125 11.40625 
Q 43.21875 16.703125 43.21875 25.484375 
L 43.21875 27.484375 
z
M 52.203125 31.203125 
L 52.203125 0 
L 43.21875 0 
L 43.21875 8.296875 
Q 40.140625 3.328125 35.546875 0.953125 
Q 30.953125 -1.421875 24.3125 -1.421875 
Q 15.921875 -1.421875 10.953125 3.296875 
Q 6 8.015625 6 15.921875 
Q 6 25.140625 12.171875 29.828125 
Q 18.359375 34.515625 30.609375 34.515625 
L 43.21875 34.515625 
L 43.21875 35.40625 
Q 43.21875 41.609375 39.140625 45 
Q 35.0625 48.390625 27.6875 48.390625 
Q 23 48.390625 18.546875 47.265625 
Q 14.109375 46.140625 10.015625 43.890625 
L 10.015625 52.203125 
Q 14.9375 54.109375 19.578125 55.046875 
Q 24.21875 56 28.609375 56 
Q 40.484375 56 46.34375 49.84375 
Q 52.203125 43.703125 52.203125 31.203125 
z
" id="DejaVuSans-97"/>
       <path d="M 44.28125 53.078125 
L 44.28125 44.578125 
Q 40.484375 46.53125 36.375 47.5 
Q 32.28125 48.484375 27.875 48.484375 
Q 21.1875 48.484375 17.84375 46.4375 
Q 14.5 44.390625 14.5 40.28125 
Q 14.5 37.15625 16.890625 35.375 
Q 19.28125 33.59375 26.515625 31.984375 
L 29.59375 31.296875 
Q 39.15625 29.25 43.1875 25.515625 
Q 47.21875 21.78125 47.21875 15.09375 
Q 47.21875 7.46875 41.1875 3.015625 
Q 35.15625 -1.421875 24.609375 -1.421875 
Q 20.21875 -1.421875 15.453125 -0.5625 
Q 10.6875 0.296875 5.421875 2 
L 5.421875 11.28125 
Q 10.40625 8.6875 15.234375 7.390625 
Q 20.0625 6.109375 24.8125 6.109375 
Q 31.15625 6.109375 34.5625 8.28125 
Q 37.984375 10.453125 37.984375 14.40625 
Q 37.984375 18.0625 35.515625 20.015625 
Q 33.0625 21.96875 24.703125 23.78125 
L 21.578125 24.515625 
Q 13.234375 26.265625 9.515625 29.90625 
Q 5.8125 33.546875 5.8125 39.890625 
Q 5.8125 47.609375 11.28125 51.796875 
Q 16.75 56 26.8125 56 
Q 31.78125 56 36.171875 55.265625 
Q 40.578125 54.546875 44.28125 53.078125 
z
" id="DejaVuSans-115"/>
       <path d="M 25.390625 72.90625 
L 33.6875 72.90625 
L 8.296875 -9.28125 
L 0 -9.28125 
z
" id="DejaVuSans-47"/>
       <path d="M 45.40625 46.390625 
L 45.40625 75.984375 
L 54.390625 75.984375 
L 54.390625 0 
L 45.40625 0 
L 45.40625 8.203125 
Q 42.578125 3.328125 38.25 0.953125 
Q 33.9375 -1.421875 27.875 -1.421875 
Q 17.96875 -1.421875 11.734375 6.484375 
Q 5.515625 14.40625 5.515625 27.296875 
Q 5.515625 40.1875 11.734375 48.09375 
Q 17.96875 56 27.875 56 
Q 33.9375 56 38.25 53.625 
Q 42.578125 51.265625 45.40625 46.390625 
z
M 14.796875 27.296875 
Q 14.796875 17.390625 18.875 11.75 
Q 22.953125 6.109375 30.078125 6.109375 
Q 37.203125 6.109375 41.296875 11.75 
Q 45.40625 17.390625 45.40625 27.296875 
Q 45.40625 37.203125 41.296875 42.84375 
Q 37.203125 48.484375 30.078125 48.484375 
Q 22.953125 48.484375 18.875 42.84375 
Q 14.796875 37.203125 14.796875 27.296875 
z
" id="DejaVuSans-100"/>
       <path d="M 9.421875 54.6875 
L 18.40625 54.6875 
L 18.40625 0 
L 9.421875 0 
z
M 9.421875 75.984375 
L 18.40625 75.984375 
L 18.40625 64.59375 
L 9.421875 64.59375 
z
" id="DejaVuSans-105"/>
       <path d="M 52 44.1875 
Q 55.375 50.25 60.0625 53.125 
Q 64.75 56 71.09375 56 
Q 79.640625 56 84.28125 50.015625 
Q 88.921875 44.046875 88.921875 33.015625 
L 88.921875 0 
L 79.890625 0 
L 79.890625 32.71875 
Q 79.890625 40.578125 77.09375 44.375 
Q 74.3125 48.1875 68.609375 48.1875 
Q 61.625 48.1875 57.5625 43.546875 
Q 53.515625 38.921875 53.515625 30.90625 
L 53.515625 0 
L 44.484375 0 
L 44.484375 32.71875 
Q 44.484375 40.625 41.703125 44.40625 
Q 38.921875 48.1875 33.109375 48.1875 
Q 26.21875 48.1875 22.15625 43.53125 
Q 18.109375 38.875 18.109375 30.90625 
L 18.109375 0 
L 9.078125 0 
L 9.078125 54.6875 
L 18.109375 54.6875 
L 18.109375 46.1875 
Q 21.1875 51.21875 25.484375 53.609375 
Q 29.78125 56 35.6875 56 
Q 41.65625 56 45.828125 52.96875 
Q 50 49.953125 52 44.1875 
z
" id="DejaVuSans-109"/>
       <path d="M 54.890625 33.015625 
L 54.890625 0 
L 45.90625 0 
L 45.90625 32.71875 
Q 45.90625 40.484375 42.875 44.328125 
Q 39.84375 48.1875 33.796875 48.1875 
Q 26.515625 48.1875 22.3125 43.546875 
Q 18.109375 38.921875 18.109375 30.90625 
L 18.109375 0 
L 9.078125 0 
L 9.078125 54.6875 
L 18.109375 54.6875 
L 18.109375 46.1875 
Q 21.34375 51.125 25.703125 53.5625 
Q 30.078125 56 35.796875 56 
Q 45.21875 56 50.046875 50.171875 
Q 54.890625 44.34375 54.890625 33.015625 
z
" id="DejaVuSans-110"/>
       <path d="M 8.015625 75.875 
L 15.828125 75.875 
Q 23.140625 64.359375 26.78125 53.3125 
Q 30.421875 42.28125 30.421875 31.390625 
Q 30.421875 20.453125 26.78125 9.375 
Q 23.140625 -1.703125 15.828125 -13.1875 
L 8.015625 -13.1875 
Q 14.5 -2 17.703125 9.0625 
Q 20.90625 20.125 20.90625 31.390625 
Q 20.90625 42.671875 17.703125 53.65625 
Q 14.5 64.65625 8.015625 75.875 
z
" id="DejaVuSans-41"/>
      </defs>
      <use xlink:href="#DejaVuSans-108"/>
      <use x="27.783203" xlink:href="#DejaVuSans-111"/>
      <use x="88.964844" xlink:href="#DejaVuSans-103"/>
      <use x="152.441406" xlink:href="#DejaVuSans-49"/>
      <use x="216.064453" xlink:href="#DejaVuSans-48"/>
      <use x="279.6875" xlink:href="#DejaVuSans-40"/>
      <use x="318.701172" xlink:href="#DejaVuSans-35"/>
      <use x="402.490234" xlink:href="#DejaVuSans-32"/>
      <use x="434.277344" xlink:href="#DejaVuSans-102"/>
      <use x="463.982422" xlink:href="#DejaVuSans-45"/>
      <use x="500.066406" xlink:href="#DejaVuSans-101"/>
      <use x="561.589844" xlink:href="#DejaVuSans-118"/>
      <use x="620.769531" xlink:href="#DejaVuSans-97"/>
      <use x="682.048828" xlink:href="#DejaVuSans-108"/>
      <use x="709.832031" xlink:href="#DejaVuSans-115"/>
      <use x="761.931641" xlink:href="#DejaVuSans-32"/>
      <use x="793.71875" xlink:href="#DejaVuSans-47"/>
      <use x="827.410156" xlink:href="#DejaVuSans-32"/>
      <use x="859.197266" xlink:href="#DejaVuSans-100"/>
      <use x="922.673828" xlink:href="#DejaVuSans-105"/>
      <use x="950.457031" xlink:href="#DejaVuSans-109"/>
      <use x="1047.869141" xlink:href="#DejaVuSans-101"/>
      <use x="1109.392578" xlink:href="#DejaVuSans-110"/>
      <use x="1172.771484" xlink:href="#DejaVuSans-115"/>
      <use x="1224.871094" xlink:href="#DejaVuSans-105"/>
      <use x="1252.654297" xlink:href="#DejaVuSans-111"/>
      <use x="1313.835938" xlink:href="#DejaVuSans-110"/>
      <use x="1377.214844" xlink:href="#DejaVuSans-41"/>
     </g>
    </g>
   </g>
   <g id="matplotlib.axis_2">
    <g id="ytick_1">
     <g id="line2d_17">
      <path clip-path="url(#p51a7bc9b84)" d="M 57.6 298.944 
L 338.688 298.944 
" style="fill:none;stroke:#b0b0b0;stroke-linecap:square;stroke-width:0.8;"/>
     </g>
     <g id="line2d_18">
      <defs>
       <path d="M 0 0 
L -3.5 0 
" id="m60d2efa88b" style="stroke:#000000;stroke-width:0.8;"/>
      </defs>
      <g>
       <use style="stroke:#000000;stroke-width:0.8;" x="57.6" xlink:href="#m60d2efa88b" y="298.944"/>
      </g>
     </g>
     <g id="text_6">
      <!-- 0.0 -->
      <g transform="translate(25.155 305.02275)scale(0.16 -0.16)">
       <defs>
        <path d="M 10.6875 12.40625 
L 21 12.40625 
L 21 0 
L 10.6875 0 
z
" id="DejaVuSans-46"/>
       </defs>
       <use xlink:href="#DejaVuSans-48"/>
       <use x="63.623047" xlink:href="#DejaVuSans-46"/>
       <use x="95.410156" xlink:href="#DejaVuSans-48"/>
      </g>
     </g>
    </g>
    <g id="ytick_2">
     <g id="line2d_19">
      <path clip-path="url(#p51a7bc9b84)" d="M 57.6 240.431525 
L 338.688 240.431525 
" style="fill:none;stroke:#b0b0b0;stroke-linecap:square;stroke-width:0.8;"/>
     </g>
     <g id="line2d_20">
      <g>
       <use style="stroke:#000000;stroke-width:0.8;" x="57.6" xlink:href="#m60d2efa88b" y="240.431525"/>
      </g>
     </g>
     <g id="text_7">
      <!-- 0.2 -->
      <g transform="translate(25.155 246.510275)scale(0.16 -0.16)">
       <use xlink:href="#DejaVuSans-48"/>
       <use x="63.623047" xlink:href="#DejaVuSans-46"/>
       <use x="95.410156" xlink:href="#DejaVuSans-50"/>
      </g>
     </g>
    </g>
    <g id="ytick_3">
     <g id="line2d_21">
      <path clip-path="url(#p51a7bc9b84)" d="M 57.6 181.91905 
L 338.688 181.91905 
" style="fill:none;stroke:#b0b0b0;stroke-linecap:square;stroke-width:0.8;"/>
     </g>
     <g id="line2d_22">
      <g>
       <use style="stroke:#000000;stroke-width:0.8;" x="57.6" xlink:href="#m60d2efa88b" y="181.91905"/>
      </g>
     </g>
     <g id="text_8">
      <!-- 0.4 -->
      <g transform="translate(25.155 187.9978)scale(0.16 -0.16)">
       <use xlink:href="#DejaVuSans-48"/>
       <use x="63.623047" xlink:href="#DejaVuSans-46"/>
       <use x="95.410156" xlink:href="#DejaVuSans-52"/>
      </g>
     </g>
    </g>
    <g id="ytick_4">
     <g id="line2d_23">
      <path clip-path="url(#p51a7bc9b84)" d="M 57.6 123.406574 
L 338.688 123.406574 
" style="fill:none;stroke:#b0b0b0;stroke-linecap:square;stroke-width:0.8;"/>
     </g>
     <g id="line2d_24">
      <g>
       <use style="stroke:#000000;stroke-width:0.8;" x="57.6" xlink:href="#m60d2efa88b" y="123.406574"/>
      </g>
     </g>
     <g id="text_9">
      <!-- 0.6 -->
      <g transform="translate(25.155 129.485324)scale(0.16 -0.16)">
       <use xlink:href="#DejaVuSans-48"/>
       <use x="63.623047" xlink:href="#DejaVuSans-46"/>
       <use x="95.410156" xlink:href="#DejaVuSans-54"/>
      </g>
     </g>
    </g>
    <g id="ytick_5">
     <g id="line2d_25">
      <path clip-path="url(#p51a7bc9b84)" d="M 57.6 64.894099 
L 338.688 64.894099 
" style="fill:none;stroke:#b0b0b0;stroke-linecap:square;stroke-width:0.8;"/>
     </g>
     <g id="line2d_26">
      <g>
       <use style="stroke:#000000;stroke-width:0.8;" x="57.6" xlink:href="#m60d2efa88b" y="64.894099"/>
      </g>
     </g>
     <g id="text_10">
      <!-- 0.8 -->
      <g transform="translate(25.155 70.972849)scale(0.16 -0.16)">
       <defs>
        <path d="M 31.78125 34.625 
Q 24.75 34.625 20.71875 30.859375 
Q 16.703125 27.09375 16.703125 20.515625 
Q 16.703125 13.921875 20.71875 10.15625 
Q 24.75 6.390625 31.78125 6.390625 
Q 38.8125 6.390625 42.859375 10.171875 
Q 46.921875 13.96875 46.921875 20.515625 
Q 46.921875 27.09375 42.890625 30.859375 
Q 38.875 34.625 31.78125 34.625 
z
M 21.921875 38.8125 
Q 15.578125 40.375 12.03125 44.71875 
Q 8.5 49.078125 8.5 55.328125 
Q 8.5 64.0625 14.71875 69.140625 
Q 20.953125 74.21875 31.78125 74.21875 
Q 42.671875 74.21875 48.875 69.140625 
Q 55.078125 64.0625 55.078125 55.328125 
Q 55.078125 49.078125 51.53125 44.71875 
Q 48 40.375 41.703125 38.8125 
Q 48.828125 37.15625 52.796875 32.3125 
Q 56.78125 27.484375 56.78125 20.515625 
Q 56.78125 9.90625 50.3125 4.234375 
Q 43.84375 -1.421875 31.78125 -1.421875 
Q 19.734375 -1.421875 13.25 4.234375 
Q 6.78125 9.90625 6.78125 20.515625 
Q 6.78125 27.484375 10.78125 32.3125 
Q 14.796875 37.15625 21.921875 38.8125 
z
M 18.3125 54.390625 
Q 18.3125 48.734375 21.84375 45.5625 
Q 25.390625 42.390625 31.78125 42.390625 
Q 38.140625 42.390625 41.71875 45.5625 
Q 45.3125 48.734375 45.3125 54.390625 
Q 45.3125 60.0625 41.71875 63.234375 
Q 38.140625 66.40625 31.78125 66.40625 
Q 25.390625 66.40625 21.84375 63.234375 
Q 18.3125 60.0625 18.3125 54.390625 
z
" id="DejaVuSans-56"/>
       </defs>
       <use xlink:href="#DejaVuSans-48"/>
       <use x="63.623047" xlink:href="#DejaVuSans-46"/>
       <use x="95.410156" xlink:href="#DejaVuSans-56"/>
      </g>
     </g>
    </g>
    <g id="ytick_6">
     <g id="line2d_27">
      <path clip-path="url(#p51a7bc9b84)" d="M 57.6 6.381624 
L 338.688 6.381624 
" style="fill:none;stroke:#b0b0b0;stroke-linecap:square;stroke-width:0.8;"/>
     </g>
     <g id="line2d_28">
      <g>
       <use style="stroke:#000000;stroke-width:0.8;" x="57.6" xlink:href="#m60d2efa88b" y="6.381624"/>
      </g>
     </g>
     <g id="text_11">
      <!-- 1.0 -->
      <g transform="translate(25.155 12.460374)scale(0.16 -0.16)">
       <use xlink:href="#DejaVuSans-49"/>
       <use x="63.623047" xlink:href="#DejaVuSans-46"/>
       <use x="95.410156" xlink:href="#DejaVuSans-48"/>
      </g>
     </g>
    </g>
    <g id="text_12">
     <!-- Fraction of function,target pairs -->
     <g transform="translate(17.619531 285.585)rotate(-90)scale(0.17 -0.17)">
      <defs>
       <path d="M 9.8125 72.90625 
L 51.703125 72.90625 
L 51.703125 64.59375 
L 19.671875 64.59375 
L 19.671875 43.109375 
L 48.578125 43.109375 
L 48.578125 34.8125 
L 19.671875 34.8125 
L 19.671875 0 
L 9.8125 0 
z
" id="DejaVuSans-70"/>
       <path d="M 41.109375 46.296875 
Q 39.59375 47.171875 37.8125 47.578125 
Q 36.03125 48 33.890625 48 
Q 26.265625 48 22.1875 43.046875 
Q 18.109375 38.09375 18.109375 28.8125 
L 18.109375 0 
L 9.078125 0 
L 9.078125 54.6875 
L 18.109375 54.6875 
L 18.109375 46.1875 
Q 20.953125 51.171875 25.484375 53.578125 
Q 30.03125 56 36.53125 56 
Q 37.453125 56 38.578125 55.875 
Q 39.703125 55.765625 41.0625 55.515625 
z
" id="DejaVuSans-114"/>
       <path d="M 48.78125 52.59375 
L 48.78125 44.1875 
Q 44.96875 46.296875 41.140625 47.34375 
Q 37.3125 48.390625 33.40625 48.390625 
Q 24.65625 48.390625 19.8125 42.84375 
Q 14.984375 37.3125 14.984375 27.296875 
Q 14.984375 17.28125 19.8125 11.734375 
Q 24.65625 6.203125 33.40625 6.203125 
Q 37.3125 6.203125 41.140625 7.25 
Q 44.96875 8.296875 48.78125 10.40625 
L 48.78125 2.09375 
Q 45.015625 0.34375 40.984375 -0.53125 
Q 36.96875 -1.421875 32.421875 -1.421875 
Q 20.0625 -1.421875 12.78125 6.34375 
Q 5.515625 14.109375 5.515625 27.296875 
Q 5.515625 40.671875 12.859375 48.328125 
Q 20.21875 56 33.015625 56 
Q 37.15625 56 41.109375 55.140625 
Q 45.0625 54.296875 48.78125 52.59375 
z
" id="DejaVuSans-99"/>
       <path d="M 18.3125 70.21875 
L 18.3125 54.6875 
L 36.8125 54.6875 
L 36.8125 47.703125 
L 18.3125 47.703125 
L 18.3125 18.015625 
Q 18.3125 11.328125 20.140625 9.421875 
Q 21.96875 7.515625 27.59375 7.515625 
L 36.8125 7.515625 
L 36.8125 0 
L 27.59375 0 
Q 17.1875 0 13.234375 3.875 
Q 9.28125 7.765625 9.28125 18.015625 
L 9.28125 47.703125 
L 2.6875 47.703125 
L 2.6875 54.6875 
L 9.28125 54.6875 
L 9.28125 70.21875 
z
" id="DejaVuSans-116"/>
       <path d="M 8.5 21.578125 
L 8.5 54.6875 
L 17.484375 54.6875 
L 17.484375 21.921875 
Q 17.484375 14.15625 20.5 10.265625 
Q 23.53125 6.390625 29.59375 6.390625 
Q 36.859375 6.390625 41.078125 11.03125 
Q 45.3125 15.671875 45.3125 23.6875 
L 45.3125 54.6875 
L 54.296875 54.6875 
L 54.296875 0 
L 45.3125 0 
L 45.3125 8.40625 
Q 42.046875 3.421875 37.71875 1 
Q 33.40625 -1.421875 27.6875 -1.421875 
Q 18.265625 -1.421875 13.375 4.4375 
Q 8.5 10.296875 8.5 21.578125 
z
M 31.109375 56 
z
" id="DejaVuSans-117"/>
       <path d="M 11.71875 12.40625 
L 22.015625 12.40625 
L 22.015625 4 
L 14.015625 -11.625 
L 7.71875 -11.625 
L 11.71875 4 
z
" id="DejaVuSans-44"/>
       <path d="M 18.109375 8.203125 
L 18.109375 -20.796875 
L 9.078125 -20.796875 
L 9.078125 54.6875 
L 18.109375 54.6875 
L 18.109375 46.390625 
Q 20.953125 51.265625 25.265625 53.625 
Q 29.59375 56 35.59375 56 
Q 45.5625 56 51.78125 48.09375 
Q 58.015625 40.1875 58.015625 27.296875 
Q 58.015625 14.40625 51.78125 6.484375 
Q 45.5625 -1.421875 35.59375 -1.421875 
Q 29.59375 -1.421875 25.265625 0.953125 
Q 20.953125 3.328125 18.109375 8.203125 
z
M 48.6875 27.296875 
Q 48.6875 37.203125 44.609375 42.84375 
Q 40.53125 48.484375 33.40625 48.484375 
Q 26.265625 48.484375 22.1875 42.84375 
Q 18.109375 37.203125 18.109375 27.296875 
Q 18.109375 17.390625 22.1875 11.75 
Q 26.265625 6.109375 33.40625 6.109375 
Q 40.53125 6.109375 44.609375 11.75 
Q 48.6875 17.390625 48.6875 27.296875 
z
" id="DejaVuSans-112"/>
      </defs>
      <use xlink:href="#DejaVuSans-70"/>
      <use x="50.269531" xlink:href="#DejaVuSans-114"/>
      <use x="91.382812" xlink:href="#DejaVuSans-97"/>
      <use x="152.662109" xlink:href="#DejaVuSans-99"/>
      <use x="207.642578" xlink:href="#DejaVuSans-116"/>
      <use x="246.851562" xlink:href="#DejaVuSans-105"/>
      <use x="274.634766" xlink:href="#DejaVuSans-111"/>
      <use x="335.816406" xlink:href="#DejaVuSans-110"/>
      <use x="399.195312" xlink:href="#DejaVuSans-32"/>
      <use x="430.982422" xlink:href="#DejaVuSans-111"/>
      <use x="492.164062" xlink:href="#DejaVuSans-102"/>
      <use x="527.369141" xlink:href="#DejaVuSans-32"/>
      <use x="559.15625" xlink:href="#DejaVuSans-102"/>
      <use x="594.361328" xlink:href="#DejaVuSans-117"/>
      <use x="657.740234" xlink:href="#DejaVuSans-110"/>
      <use x="721.119141" xlink:href="#DejaVuSans-99"/>
      <use x="776.099609" xlink:href="#DejaVuSans-116"/>
      <use x="815.308594" xlink:href="#DejaVuSans-105"/>
      <use x="843.091797" xlink:href="#DejaVuSans-111"/>
      <use x="904.273438" xlink:href="#DejaVuSans-110"/>
      <use x="967.652344" xlink:href="#DejaVuSans-44"/>
      <use x="999.439453" xlink:href="#DejaVuSans-116"/>
      <use x="1038.648438" xlink:href="#DejaVuSans-97"/>
      <use x="1099.927734" xlink:href="#DejaVuSans-114"/>
      <use x="1139.291016" xlink:href="#DejaVuSans-103"/>
      <use x="1202.767578" xlink:href="#DejaVuSans-101"/>
      <use x="1264.291016" xlink:href="#DejaVuSans-116"/>
      <use x="1303.5" xlink:href="#DejaVuSans-32"/>
      <use x="1335.287109" xlink:href="#DejaVuSans-112"/>
      <use x="1398.763672" xlink:href="#DejaVuSans-97"/>
      <use x="1460.042969" xlink:href="#DejaVuSans-105"/>
      <use x="1487.826172" xlink:href="#DejaVuSans-114"/>
      <use x="1528.939453" xlink:href="#DejaVuSans-115"/>
     </g>
    </g>
   </g>
   <g id="line2d_29">
    <defs>
     <path d="M 0 1.5 
C 0.397805 1.5 0.77937 1.341951 1.06066 1.06066 
C 1.341951 0.77937 1.5 0.397805 1.5 0 
C 1.5 -0.397805 1.341951 -0.77937 1.06066 -1.06066 
C 0.77937 -1.341951 0.397805 -1.5 0 -1.5 
C -0.397805 -1.5 -0.77937 -1.341951 -1.06066 -1.06066 
C -1.341951 -0.77937 -1.5 -0.397805 -1.5 0 
C -1.5 0.397805 -1.341951 0.77937 -1.06066 1.06066 
C -0.77937 1.341951 -0.397805 1.5 0 1.5 
z
" id="mca126455c9" style="stroke:#000080;"/>
    </defs>
    <g>
     <use style="fill:#000080;stroke:#000080;" x="248.493941" xlink:href="#mca126455c9" y="88.60174"/>
     <use style="fill:#000080;stroke:#000080;" x="248.493941" xlink:href="#mca126455c9" y="88.60174"/>
    </g>
   </g>
   <g id="line2d_30">
    <path d="M 17.444571 298.944 
L 17.444571 289.864478 
L 79.447285 289.864478 
L 79.447285 289.36006 
L 89.135256 289.36006 
L 89.135256 288.351224 
L 98.270913 288.351224 
L 98.270913 287.846806 
L 104.23523 287.846806 
L 104.23523 286.837971 
L 106.593963 286.837971 
L 106.593963 285.829135 
L 108.671345 285.829135 
L 108.671345 284.820299 
L 112.204777 284.820299 
L 112.204777 284.315881 
L 113.73488 284.315881 
L 113.73488 283.307045 
L 115.141496 283.307045 
L 115.141496 282.802628 
L 116.443076 282.802628 
L 116.443076 281.793792 
L 118.786692 281.793792 
L 118.786692 279.271702 
L 120.852343 279.271702 
L 120.852343 278.767284 
L 122.699028 278.767284 
L 122.699028 278.262867 
L 123.553867 278.262867 
L 123.553867 277.254031 
L 124.368753 277.254031 
L 124.368753 276.245195 
L 125.892487 276.245195 
L 125.892487 274.731941 
L 126.607172 274.731941 
L 126.607172 273.723105 
L 127.954256 273.723105 
L 127.954256 272.209852 
L 129.204706 272.209852 
L 129.204706 271.705434 
L 129.79784 271.705434 
L 129.79784 271.201016 
L 130.371462 271.201016 
L 130.371462 270.696598 
L 132.494049 270.696598 
L 132.494049 270.19218 
L 132.986651 270.19218 
L 132.986651 269.687762 
L 133.931979 269.687762 
L 133.931979 269.183344 
L 162.610782 269.183344 
L 162.610782 268.678927 
L 162.758234 268.678927 
L 162.758234 268.174509 
L 163.918577 268.174509 
L 163.922502 267.165673 
L 165.153397 267.165673 
L 165.153397 266.661255 
L 166.054862 266.661255 
L 166.158729 265.148001 
L 168.254155 265.148001 
L 168.254155 264.139166 
L 169.917131 264.139166 
L 169.917131 263.634748 
L 170.310587 263.634748 
L 170.310587 262.625912 
L 171.250617 262.625912 
L 171.250617 261.617076 
L 173.510537 261.617076 
L 173.510537 260.60824 
L 173.835843 260.60824 
L 173.835843 260.103822 
L 175.691693 260.103822 
L 175.691693 259.599405 
L 179.6808 259.599405 
L 179.6808 259.094987 
L 180.445913 259.094987 
L 180.445913 258.590569 
L 181.814861 258.590569 
L 181.814861 257.581733 
L 183.080202 257.581733 
L 183.080202 257.077315 
L 183.50792 257.077315 
L 183.50792 256.572897 
L 184.176576 256.572897 
L 184.176576 256.068479 
L 185.206924 256.068479 
L 185.206924 255.059644 
L 185.676478 255.059644 
L 185.676478 254.555226 
L 186.472991 254.555226 
L 186.472991 253.54639 
L 186.890106 253.54639 
L 186.890106 253.041972 
L 187.021044 253.041972 
L 187.021044 252.033136 
L 188.186551 252.033136 
L 188.186551 251.0243 
L 188.371034 251.0243 
L 188.371034 250.015465 
L 188.744648 250.015465 
L 188.744648 249.511047 
L 189.893359 249.511047 
L 189.893359 249.006629 
L 190.042304 249.006629 
L 190.042304 248.502211 
L 190.191728 248.502211 
L 190.191728 247.493375 
L 190.396731 247.493375 
L 190.396731 246.988957 
L 190.885144 246.988957 
L 190.983535 245.980122 
L 191.559281 245.980122 
L 191.626726 244.466868 
L 192.732838 244.466868 
L 192.827348 241.944778 
L 193.179833 241.944778 
L 193.179833 241.440361 
L 193.568403 241.440361 
L 193.568403 239.422689 
L 193.862714 239.422689 
L 193.862714 238.918271 
L 194.16808 238.918271 
L 194.175698 237.909435 
L 194.678667 237.909435 
L 194.757197 235.387346 
L 194.994651 235.387346 
L 194.994651 234.882928 
L 195.465219 234.882928 
L 195.465219 234.37851 
L 195.849354 234.37851 
L 195.924048 232.360839 
L 196.383931 232.360839 
L 196.383931 231.856421 
L 196.738399 231.856421 
L 196.831996 230.343167 
L 197.014757 230.343167 
L 197.014757 229.838749 
L 197.395367 229.838749 
L 197.395367 229.334331 
L 197.695004 229.334331 
L 197.695004 228.325495 
L 198.192036 228.325495 
L 198.192036 227.31666 
L 198.438321 227.31666 
L 198.438321 226.307824 
L 198.731371 226.307824 
L 198.731371 225.803406 
L 199.064101 225.803406 
L 199.064101 225.298988 
L 199.592237 225.298988 
L 199.592237 224.290152 
L 199.778518 224.290152 
L 199.81714 222.272481 
L 200.014922 222.272481 
L 200.014922 221.263645 
L 200.157011 221.263645 
L 200.157011 220.759227 
L 200.836418 220.759227 
L 200.836418 219.750391 
L 201.112571 219.750391 
L 201.112571 219.245973 
L 201.271396 219.245973 
L 201.271396 218.741555 
L 201.396323 218.741555 
L 201.396323 217.73272 
L 201.804762 217.73272 
L 201.804762 217.228302 
L 201.933042 217.228302 
L 201.933042 216.219466 
L 202.077998 216.219466 
L 202.077998 215.715048 
L 202.366077 215.715048 
L 202.366077 215.21063 
L 202.833772 215.21063 
L 202.877127 213.697377 
L 203.153231 213.697377 
L 203.153231 212.688541 
L 203.349502 212.688541 
L 203.407914 211.175287 
L 203.570273 211.175287 
L 203.675002 210.166451 
L 203.802642 210.166451 
L 203.807426 208.653198 
L 204.252079 208.653198 
L 204.262566 206.635526 
L 204.557106 206.635526 
L 204.557106 205.62669 
L 204.714454 205.62669 
L 204.714454 205.122272 
L 205.323447 205.122272 
L 205.323447 204.617855 
L 208.631022 204.617855 
L 208.631022 204.113437 
L 208.848192 204.113437 
L 208.848192 203.609019 
L 209.197217 203.609019 
L 209.197217 202.600183 
L 209.317351 202.600183 
L 209.317351 201.591347 
L 209.438973 201.591347 
L 209.525042 200.078094 
L 209.704728 200.078094 
L 209.733125 198.56484 
L 209.875548 198.56484 
L 209.875548 198.060422 
L 210.177707 198.060422 
L 210.177707 197.051586 
L 210.354659 197.051586 
L 210.461934 195.538333 
L 211.828051 195.538333 
L 211.828051 194.529497 
L 212.022723 194.529497 
L 212.04734 193.016243 
L 212.153366 193.016243 
L 212.153366 192.511825 
L 213.186134 192.511825 
L 213.238197 190.998572 
L 213.363071 190.998572 
L 213.363071 190.494154 
L 214.221572 190.494154 
L 214.221572 189.485318 
L 214.3664 189.485318 
L 214.3664 188.9809 
L 214.920075 188.9809 
L 214.920075 188.476482 
L 215.425825 188.476482 
L 215.425825 187.972064 
L 216.29455 187.972064 
L 216.391083 186.963228 
L 216.895271 186.963228 
L 216.991164 185.449975 
L 217.007999 185.449975 
L 217.067166 183.936721 
L 217.61702 183.936721 
L 217.61702 183.432303 
L 218.050671 183.432303 
L 218.16162 181.91905 
L 218.407496 181.91905 
L 218.438526 180.405796 
L 218.821313 180.405796 
L 218.821313 179.901378 
L 218.999014 179.901378 
L 218.999014 179.39696 
L 219.67749 179.39696 
L 219.698493 178.388124 
L 219.809182 178.388124 
L 219.809182 177.883706 
L 220.403495 177.883706 
L 220.403495 177.379288 
L 220.634174 177.379288 
L 220.634174 176.874871 
L 220.759767 176.874871 
L 220.806143 175.866035 
L 221.214694 175.866035 
L 221.217044 173.848363 
L 221.406212 173.848363 
L 221.406212 173.343945 
L 221.68324 173.343945 
L 221.745902 172.33511 
L 222.324236 172.33511 
L 222.364162 170.821856 
L 222.531 170.821856 
L 222.531 169.81302 
L 222.869849 169.81302 
L 222.869849 168.804184 
L 223.233014 168.804184 
L 223.233014 168.299766 
L 223.61759 168.299766 
L 223.61759 167.795349 
L 223.779123 167.795349 
L 223.820412 166.786513 
L 224.347477 166.786513 
L 224.347477 166.282095 
L 224.668289 166.282095 
L 224.668289 165.777677 
L 224.86313 165.777677 
L 224.880281 164.264423 
L 225.039783 164.264423 
L 225.126973 163.255588 
L 225.541037 163.255588 
L 225.541037 162.75117 
L 226.203289 162.75117 
L 226.240437 161.237916 
L 226.424015 161.237916 
L 226.455694 159.724662 
L 227.050896 159.724662 
L 227.050896 158.715827 
L 227.529059 158.715827 
L 227.581138 157.706991 
L 228.145063 157.706991 
L 228.145063 156.698155 
L 228.326453 156.698155 
L 228.361101 155.689319 
L 228.766743 155.689319 
L 228.766743 155.184901 
L 228.898091 155.184901 
L 228.898091 154.680483 
L 229.555601 154.680483 
L 229.555601 154.176066 
L 229.687668 154.176066 
L 229.687668 153.16723 
L 230.229472 153.16723 
L 230.273741 152.158394 
L 230.352377 152.158394 
L 230.352377 151.149558 
L 230.775083 151.149558 
L 230.775083 150.64514 
L 230.989156 150.64514 
L 230.989156 150.140722 
L 231.173933 150.140722 
L 231.275784 149.131887 
L 231.359647 149.131887 
L 231.464667 147.618633 
L 231.619766 147.618633 
L 231.619766 147.114215 
L 232.522464 147.114215 
L 232.522464 146.609797 
L 232.968108 146.609797 
L 232.968108 146.105379 
L 233.108963 146.105379 
L 233.188099 144.087708 
L 233.409146 144.087708 
L 233.409146 143.078872 
L 233.968162 143.078872 
L 234.022583 142.070036 
L 234.459301 142.070036 
L 234.508855 140.556783 
L 234.848217 140.556783 
L 234.848217 140.052365 
L 235.486185 140.052365 
L 235.502119 138.034693 
L 235.626819 138.034693 
L 235.639671 136.521439 
L 235.912954 136.521439 
L 235.929893 135.008186 
L 236.024146 135.008186 
L 236.11508 133.99935 
L 236.217601 133.99935 
L 236.217601 133.494932 
L 236.667 133.494932 
L 236.667 132.990514 
L 237.165301 132.990514 
L 237.165301 131.981678 
L 237.532768 131.981678 
L 237.538645 130.972843 
L 237.656112 130.972843 
L 237.656112 130.468425 
L 237.934036 130.468425 
L 237.934036 129.964007 
L 238.193179 129.964007 
L 238.251231 128.450753 
L 238.506773 128.450753 
L 238.617267 126.433082 
L 238.625388 126.433082 
L 238.710538 124.919828 
L 238.849434 124.919828 
L 238.873731 123.910992 
L 239.066048 123.910992 
L 239.132945 122.397738 
L 239.178992 122.397738 
L 239.178992 121.893321 
L 239.324936 121.893321 
L 239.324936 121.388903 
L 239.447429 121.388903 
L 239.491418 120.380067 
L 239.69521 120.380067 
L 239.69521 119.875649 
L 239.993849 119.875649 
L 239.993849 119.371231 
L 240.199653 119.371231 
L 240.199653 118.866813 
L 240.664554 118.866813 
L 240.739129 117.35356 
L 240.819545 117.35356 
L 240.918916 115.335888 
L 241.082347 115.335888 
L 241.184303 112.309381 
L 241.306751 112.309381 
L 241.306751 111.300545 
L 241.424704 111.300545 
L 241.522117 109.787291 
L 241.619171 109.787291 
L 241.711743 106.760784 
L 241.808607 106.760784 
L 241.917848 105.24753 
L 242.098187 105.24753 
L 242.135271 103.734277 
L 242.315139 103.734277 
L 242.354301 102.221023 
L 242.488401 102.221023 
L 242.488401 101.212187 
L 242.897041 101.212187 
L 242.897041 100.203351 
L 243.089887 100.203351 
L 243.093993 98.18568 
L 243.316934 98.18568 
L 243.388298 97.176844 
L 243.54535 97.176844 
L 243.559835 96.168008 
L 244.300452 96.168008 
L 244.300452 95.66359 
L 245.466923 95.66359 
L 245.466923 95.159172 
L 246.059508 95.159172 
L 246.059508 94.150337 
L 246.740792 94.150337 
L 246.740792 93.141501 
L 247.064085 93.141501 
L 247.064085 92.637083 
L 247.247215 92.637083 
L 247.247215 92.132665 
L 247.421514 92.132665 
L 247.421514 91.628247 
L 247.786655 91.628247 
L 247.786655 90.619411 
L 247.967079 90.619411 
L 247.967079 90.114994 
L 248.253126 90.114994 
L 248.253126 89.106158 
L 248.493941 89.106158 
L 248.493941 88.60174 
L 338.688 88.60174 
L 338.688 88.60174 
" style="fill:none;stroke:#000080;stroke-linecap:square;stroke-width:1.5;"/>
   </g>
   <g id="line2d_31">
    <defs>
     <path d="M 0 6 
C 1.591219 6 3.117479 5.367802 4.242641 4.242641 
C 5.367802 3.117479 6 1.591219 6 0 
C 6 -1.591219 5.367802 -3.117479 4.242641 -4.242641 
C 3.117479 -5.367802 1.591219 -6 0 -6 
C -1.591219 -6 -3.117479 -5.367802 -4.242641 -4.242641 
C -5.367802 -3.117479 -6 -1.591219 -6 0 
C -6 1.591219 -5.367802 3.117479 -4.242641 4.242641 
C -3.117479 5.367802 -1.591219 6 0 6 
z
" id="m65b6304bdc" style="stroke:#000080;stroke-width:1.5;"/>
    </defs>
    <g>
     <use style="fill-opacity:0;stroke:#000080;stroke-width:1.5;" x="122.699028" xlink:href="#m65b6304bdc" y="278.262867"/>
     <use style="fill-opacity:0;stroke:#000080;stroke-width:1.5;" x="193.179833" xlink:href="#m65b6304bdc" y="241.440361"/>
     <use style="fill-opacity:0;stroke:#000080;stroke-width:1.5;" x="220.806143" xlink:href="#m65b6304bdc" y="175.866035"/>
     <use style="fill-opacity:0;stroke:#000080;stroke-width:1.5;" x="247.247215" xlink:href="#m65b6304bdc" y="92.132665"/>
     <use style="fill-opacity:0;stroke:#000080;stroke-width:1.5;" x="248.493941" xlink:href="#m65b6304bdc" y="88.60174"/>
     <use style="fill-opacity:0;stroke:#000080;stroke-width:1.5;" x="338.688" xlink:href="#m65b6304bdc" y="88.60174"/>
    </g>
   </g>
   <g id="line2d_32">
    <path style="fill:none;stroke:#000080;stroke-linecap:square;stroke-width:1.5;"/>
    <g/>
   </g>
   <g id="line2d_33">
    <path clip-path="url(#p51a7bc9b84)" d="M 258.377143 88.60174 
" style="fill:none;stroke:#000080;stroke-linecap:square;stroke-width:1.5;"/>
    <defs>
     <path d="M -12 12 
L 12 -12 
M -12 -12 
L 12 12 
" id="mb5c06e7f60" style="stroke:#000080;"/>
    </defs>
    <g clip-path="url(#p51a7bc9b84)">
     <use style="fill:#000080;stroke:#000080;" x="258.377143" xlink:href="#mb5c06e7f60" y="88.60174"/>
    </g>
   </g>
   <g id="line2d_34">
    <defs>
     <path d="M 0 1.5 
C 0.397805 1.5 0.77937 1.341951 1.06066 1.06066 
C 1.341951 0.77937 1.5 0.397805 1.5 0 
C 1.5 -0.397805 1.341951 -0.77937 1.06066 -1.06066 
C 0.77937 -1.341951 0.397805 -1.5 0 -1.5 
C -0.397805 -1.5 -0.77937 -1.341951 -1.06066 -1.06066 
C -1.341951 -0.77937 -1.5 -0.397805 -1.5 0 
C -1.5 0.397805 -1.341951 0.77937 -1.06066 1.06066 
C -0.77937 1.341951 -0.397805 1.5 0 1.5 
z
" id="m136447579f" style="stroke:#ff00ff;"/>
    </defs>
    <g>
     <use style="fill:#ff00ff;stroke:#ff00ff;" x="258.354929" xlink:href="#m136447579f" y="110.291709"/>
     <use style="fill:#ff00ff;stroke:#ff00ff;" x="258.354929" xlink:href="#m136447579f" y="110.291709"/>
    </g>
   </g>
   <g id="line2d_35">
    <path d="M 17.444571 298.944 
L 17.444571 296.926328 
L 80.881459 296.926328 
L 80.881459 296.421911 
L 94.294587 296.421911 
L 94.294587 295.917493 
L 98.270913 295.917493 
L 98.270913 295.413075 
L 101.506816 295.413075 
L 101.506816 294.908657 
L 106.593963 294.908657 
L 106.593963 293.899821 
L 112.204777 293.899821 
L 112.204777 292.890985 
L 113.73488 292.890985 
L 113.73488 290.873314 
L 115.141496 290.873314 
L 115.141496 290.368896 
L 116.443076 290.368896 
L 116.443076 289.36006 
L 118.786692 289.36006 
L 118.786692 288.351224 
L 119.850084 288.351224 
L 119.850084 287.342389 
L 120.852343 287.342389 
L 120.852343 286.333553 
L 121.800118 286.333553 
L 121.800118 285.324717 
L 122.699028 285.324717 
L 122.699028 283.307045 
L 123.553867 283.307045 
L 123.553867 282.802628 
L 124.368753 282.802628 
L 124.368753 282.29821 
L 125.147256 282.29821 
L 125.147256 281.793792 
L 125.892487 281.793792 
L 125.892487 280.280538 
L 126.607172 280.280538 
L 126.607172 278.767284 
L 128.590686 278.767284 
L 128.590686 278.262867 
L 129.204706 278.262867 
L 129.204706 277.254031 
L 129.79784 277.254031 
L 129.79784 275.740777 
L 130.371462 275.740777 
L 130.371462 275.236359 
L 131.465029 275.236359 
L 131.465029 274.731941 
L 132.986651 274.731941 
L 132.986651 273.218688 
L 133.46572 273.218688 
L 133.46572 272.71427 
L 136.092812 272.71427 
L 136.092812 272.209852 
L 136.887363 272.209852 
L 136.887363 271.705434 
L 158.68438 271.705434 
L 158.68438 271.201016 
L 159.020266 271.201016 
L 159.020266 270.696598 
L 162.256044 270.696598 
L 162.256044 270.19218 
L 165.273656 270.19218 
L 165.291805 269.183344 
L 165.810071 269.183344 
L 165.810071 268.174509 
L 166.189769 268.174509 
L 166.189769 267.670091 
L 167.246005 267.670091 
L 167.246005 267.165673 
L 169.457545 267.165673 
L 169.457545 266.661255 
L 169.78585 266.661255 
L 169.78585 265.652419 
L 170.209632 265.652419 
L 170.209632 264.643583 
L 171.371357 264.643583 
L 171.371357 264.139166 
L 171.585089 264.139166 
L 171.585089 263.634748 
L 172.993422 263.634748 
L 172.993422 263.13033 
L 173.968698 263.13033 
L 173.968698 262.625912 
L 174.326753 262.625912 
L 174.326753 262.121494 
L 174.768439 262.121494 
L 174.768439 261.112658 
L 175.403568 261.112658 
L 175.446179 260.103822 
L 176.160922 260.103822 
L 176.261784 259.094987 
L 177.162587 259.094987 
L 177.162587 258.590569 
L 177.50811 258.590569 
L 177.549476 256.572897 
L 178.351686 256.572897 
L 178.351686 255.564061 
L 179.67285 255.564061 
L 179.691925 254.555226 
L 180.332958 254.555226 
L 180.375783 253.54639 
L 181.277785 253.54639 
L 181.277785 253.041972 
L 181.519801 253.041972 
L 181.519801 252.537554 
L 182.087017 252.537554 
L 182.161638 251.528718 
L 182.679251 251.528718 
L 182.679251 251.0243 
L 184.043395 251.0243 
L 184.043395 250.519883 
L 184.613309 250.519883 
L 184.613309 250.015465 
L 184.889072 250.015465 
L 184.889072 249.006629 
L 185.519085 249.006629 
L 185.519085 247.997793 
L 186.050067 247.997793 
L 186.050067 246.988957 
L 186.372551 246.988957 
L 186.372551 245.980122 
L 187.048156 245.980122 
L 187.048156 245.475704 
L 187.534168 245.475704 
L 187.623113 243.96245 
L 188.784309 243.96245 
L 188.784309 243.458032 
L 189.053863 243.458032 
L 189.053863 242.953614 
L 189.307419 242.953614 
L 189.307419 241.944778 
L 189.465061 241.944778 
L 189.465061 240.935943 
L 189.616794 240.935943 
L 189.616794 240.431525 
L 190.273326 240.431525 
L 190.273326 239.422689 
L 190.466246 239.422689 
L 190.466246 238.918271 
L 190.584896 238.918271 
L 190.584896 238.413853 
L 191.365945 238.413853 
L 191.365945 237.405017 
L 191.624322 237.405017 
L 191.715451 236.396182 
L 192.16409 236.396182 
L 192.16409 235.387346 
L 192.569619 235.387346 
L 192.569619 234.37851 
L 192.775656 234.37851 
L 192.775656 233.874092 
L 194.056895 233.874092 
L 194.056895 232.865256 
L 194.935756 232.865256 
L 194.935756 231.856421 
L 196.114044 231.856421 
L 196.114044 230.847585 
L 196.364398 230.847585 
L 196.364398 230.343167 
L 196.758114 230.343167 
L 196.758114 229.838749 
L 196.926869 229.838749 
L 196.926869 229.334331 
L 197.14664 229.334331 
L 197.157148 227.821078 
L 197.314587 227.821078 
L 197.314587 227.31666 
L 197.452839 227.31666 
L 197.563797 225.803406 
L 197.838144 225.803406 
L 197.937758 224.290152 
L 198.006263 224.290152 
L 198.041246 222.776899 
L 198.239268 222.776899 
L 198.239268 222.272481 
L 198.403039 222.272481 
L 198.484892 220.254809 
L 198.927025 220.254809 
L 198.971785 218.741555 
L 199.252973 218.741555 
L 199.252973 217.73272 
L 199.364911 217.73272 
L 199.468469 215.21063 
L 199.572941 215.21063 
L 199.572941 214.201794 
L 199.863673 214.201794 
L 199.897121 212.688541 
L 199.991624 212.688541 
L 200.067353 210.670869 
L 200.262822 210.670869 
L 200.262822 210.166451 
L 200.398068 210.166451 
L 200.398068 209.662033 
L 200.714539 209.662033 
L 200.751619 207.644362 
L 200.841143 207.644362 
L 200.841143 206.635526 
L 200.980901 206.635526 
L 200.980901 205.62669 
L 201.464836 205.62669 
L 201.506725 203.609019 
L 201.596989 203.609019 
L 201.596989 202.600183 
L 202.010531 202.600183 
L 202.010531 202.095765 
L 203.370765 202.095765 
L 203.370765 201.591347 
L 205.458839 201.591347 
L 205.458839 200.582511 
L 206.733325 200.582511 
L 206.733325 199.573676 
L 207.160091 199.573676 
L 207.160091 198.56484 
L 207.516515 198.56484 
L 207.516515 198.060422 
L 208.232056 198.060422 
L 208.232056 197.556004 
L 222.055463 197.556004 
L 222.055463 196.547168 
L 223.073186 196.547168 
L 223.073186 196.04275 
L 223.493647 196.04275 
L 223.57184 195.033915 
L 224.13508 195.033915 
L 224.13508 194.025079 
L 224.64188 194.025079 
L 224.64188 193.016243 
L 224.80823 193.016243 
L 224.80823 192.511825 
L 224.990287 192.511825 
L 224.990287 192.007407 
L 225.120869 192.007407 
L 225.120869 191.502989 
L 225.753388 191.502989 
L 225.753388 190.998572 
L 226.188828 190.998572 
L 226.188828 189.989736 
L 226.450473 189.989736 
L 226.450473 188.9809 
L 227.371055 188.9809 
L 227.480618 187.972064 
L 228.047155 187.972064 
L 228.047155 187.467646 
L 228.425627 187.467646 
L 228.425627 186.963228 
L 230.388611 186.963228 
L 230.42607 185.954393 
L 230.890842 185.954393 
L 230.890842 184.945557 
L 231.431502 184.945557 
L 231.53479 182.927885 
L 232.244138 182.927885 
L 232.244138 182.423467 
L 232.708338 182.423467 
L 232.708338 181.414632 
L 232.941135 181.414632 
L 232.941135 180.910214 
L 233.410168 180.910214 
L 233.410168 180.405796 
L 233.717665 180.405796 
L 233.717665 179.901378 
L 234.634033 179.901378 
L 234.65593 178.892542 
L 234.934444 178.892542 
L 234.934444 177.883706 
L 236.070393 177.883706 
L 236.070393 177.379288 
L 236.425336 177.379288 
L 236.425336 176.874871 
L 237.241468 176.874871 
L 237.337361 175.361617 
L 237.512068 175.361617 
L 237.512068 174.857199 
L 239.021818 174.857199 
L 239.089043 173.343945 
L 239.138254 173.343945 
L 239.222354 172.33511 
L 239.442058 172.33511 
L 239.442058 171.830692 
L 239.566812 171.830692 
L 239.66413 170.821856 
L 240.046264 170.821856 
L 240.046264 170.317438 
L 240.197674 170.317438 
L 240.197674 169.81302 
L 240.627195 169.81302 
L 240.627195 169.308602 
L 240.964036 169.308602 
L 240.964036 168.299766 
L 241.304709 168.299766 
L 241.361293 166.786513 
L 241.460118 166.786513 
L 241.546488 164.768841 
L 241.604576 164.768841 
L 241.604576 164.264423 
L 242.088204 164.264423 
L 242.151639 163.255588 
L 243.236719 163.255588 
L 243.324212 161.237916 
L 243.540287 161.237916 
L 243.629727 160.22908 
L 244.012007 160.22908 
L 244.012007 159.724662 
L 244.352444 159.724662 
L 244.352444 158.715827 
L 244.681124 158.715827 
L 244.681124 158.211409 
L 245.580009 158.211409 
L 245.580009 157.706991 
L 246.084582 157.706991 
L 246.084582 156.698155 
L 246.34268 156.698155 
L 246.34268 155.689319 
L 246.545261 155.689319 
L 246.641712 153.671648 
L 246.680054 153.671648 
L 246.680054 153.16723 
L 246.871997 153.16723 
L 246.871997 152.662812 
L 247.203648 152.662812 
L 247.283131 151.653976 
L 247.374154 151.653976 
L 247.374154 151.149558 
L 247.537035 151.149558 
L 247.537035 150.140722 
L 247.738897 150.140722 
L 247.759202 149.131887 
L 247.976042 149.131887 
L 248.057383 147.114215 
L 248.136497 147.114215 
L 248.136497 146.609797 
L 248.321863 146.609797 
L 248.421807 143.078872 
L 248.597094 143.078872 
L 248.597094 142.574454 
L 248.84779 142.574454 
L 248.873704 141.0612 
L 249.041609 141.0612 
L 249.041609 140.556783 
L 249.439796 140.556783 
L 249.439796 140.052365 
L 249.705233 140.052365 
L 249.773887 138.539111 
L 249.973723 138.539111 
L 250.036744 135.512604 
L 250.290459 135.512604 
L 250.384865 133.494932 
L 250.7375 133.494932 
L 250.813924 129.964007 
L 251.128289 129.964007 
L 251.128289 129.459589 
L 251.299067 129.459589 
L 251.355006 128.450753 
L 251.701456 128.450753 
L 251.701456 127.946335 
L 251.93076 127.946335 
L 251.940449 126.433082 
L 252.08514 126.433082 
L 252.08514 125.424246 
L 252.398241 125.424246 
L 252.398241 124.919828 
L 252.589214 124.919828 
L 252.589214 123.910992 
L 252.75548 123.910992 
L 252.75548 122.902156 
L 253.269277 122.902156 
L 253.350313 120.884485 
L 253.450207 120.884485 
L 253.512346 119.875649 
L 254.04505 119.875649 
L 254.14919 117.35356 
L 254.353799 117.35356 
L 254.353799 116.849142 
L 254.950911 116.849142 
L 254.950911 115.840306 
L 255.108159 115.840306 
L 255.108159 115.335888 
L 255.94342 115.335888 
L 255.966223 114.327052 
L 256.131285 114.327052 
L 256.131285 113.822634 
L 256.644863 113.822634 
L 256.726414 112.813799 
L 256.875688 112.813799 
L 256.875688 112.309381 
L 257.79585 112.309381 
L 257.79585 111.300545 
L 258.245188 111.300545 
L 258.354929 110.291709 
L 338.688 110.291709 
L 338.688 110.291709 
" style="fill:none;stroke:#ff00ff;stroke-linecap:square;stroke-width:1.5;"/>
   </g>
   <g id="line2d_36">
    <defs>
     <path d="M -0 8.485281 
L 5.091169 0 
L 0 -8.485281 
L -5.091169 -0 
z
" id="m877c9d19df" style="stroke:#ff00ff;stroke-linejoin:miter;stroke-width:1.5;"/>
    </defs>
    <g>
     <use style="fill-opacity:0;stroke:#ff00ff;stroke-linejoin:miter;stroke-width:1.5;" x="120.852343" xlink:href="#m877c9d19df" y="286.333553"/>
     <use style="fill-opacity:0;stroke:#ff00ff;stroke-linejoin:miter;stroke-width:1.5;" x="182.161638" xlink:href="#m877c9d19df" y="252.033136"/>
     <use style="fill-opacity:0;stroke:#ff00ff;stroke-linejoin:miter;stroke-width:1.5;" x="231.53479" xlink:href="#m877c9d19df" y="183.432303"/>
     <use style="fill-opacity:0;stroke:#ff00ff;stroke-linejoin:miter;stroke-width:1.5;" x="258.354929" xlink:href="#m877c9d19df" y="110.796127"/>
     <use style="fill-opacity:0;stroke:#ff00ff;stroke-linejoin:miter;stroke-width:1.5;" x="258.354929" xlink:href="#m877c9d19df" y="110.291709"/>
     <use style="fill-opacity:0;stroke:#ff00ff;stroke-linejoin:miter;stroke-width:1.5;" x="338.688" xlink:href="#m877c9d19df" y="110.291709"/>
    </g>
   </g>
   <g id="line2d_37">
    <path style="fill:none;stroke:#ff00ff;stroke-linecap:square;stroke-width:1.5;"/>
    <g/>
   </g>
   <g id="line2d_38">
    <path clip-path="url(#p51a7bc9b84)" d="M 258.377143 110.291709 
" style="fill:none;stroke:#ff00ff;stroke-linecap:square;stroke-width:1.5;"/>
    <defs>
     <path d="M -12 12 
L 12 -12 
M -12 -12 
L 12 12 
" id="m635256698f" style="stroke:#ff00ff;"/>
    </defs>
    <g clip-path="url(#p51a7bc9b84)">
     <use style="fill:#ff00ff;stroke:#ff00ff;" x="258.377143" xlink:href="#m635256698f" y="110.291709"/>
    </g>
   </g>
   <g id="line2d_39">
    <defs>
     <path d="M 0 1.5 
C 0.397805 1.5 0.77937 1.341951 1.06066 1.06066 
C 1.341951 0.77937 1.5 0.397805 1.5 0 
C 1.5 -0.397805 1.341951 -0.77937 1.06066 -1.06066 
C 0.77937 -1.341951 0.397805 -1.5 0 -1.5 
C -0.397805 -1.5 -0.77937 -1.341951 -1.06066 -1.06066 
C -1.341951 -0.77937 -1.5 -0.397805 -1.5 0 
C -1.5 0.397805 -1.341951 0.77937 -1.06066 1.06066 
C -0.77937 1.341951 -0.397805 1.5 0 1.5 
z
" id="mc5c7b75d19" style="stroke:#ff7500;"/>
    </defs>
    <g>
     <use style="fill:#ff7500;stroke:#ff7500;" x="258.331357" xlink:href="#mc5c7b75d19" y="126.937499"/>
     <use style="fill:#ff7500;stroke:#ff7500;" x="258.331357" xlink:href="#mc5c7b75d19" y="126.937499"/>
    </g>
   </g>
   <g id="line2d_40">
    <path d="M 17.444571 298.944 
L 17.444571 296.926328 
L 89.135256 296.926328 
L 89.135256 296.421911 
L 98.270913 296.421911 
L 98.270913 295.917493 
L 101.506816 295.917493 
L 101.506816 295.413075 
L 106.593963 295.413075 
L 106.593963 294.908657 
L 112.204777 294.908657 
L 112.204777 293.899821 
L 113.73488 293.899821 
L 113.73488 292.890985 
L 115.141496 292.890985 
L 115.141496 291.88215 
L 116.443076 291.88215 
L 116.443076 290.873314 
L 117.654224 290.873314 
L 117.654224 289.36006 
L 118.786692 289.36006 
L 118.786692 287.846806 
L 119.850084 287.846806 
L 119.850084 286.333553 
L 120.852343 286.333553 
L 120.852343 284.315881 
L 121.800118 284.315881 
L 121.800118 282.29821 
L 122.699028 282.29821 
L 122.699028 281.793792 
L 123.553867 281.793792 
L 123.553867 279.271702 
L 124.368753 279.271702 
L 124.368753 277.758449 
L 125.147256 277.758449 
L 125.147256 276.749613 
L 125.892487 276.749613 
L 125.892487 275.236359 
L 126.607172 275.236359 
L 126.607172 273.723105 
L 127.293718 273.723105 
L 127.293718 273.218688 
L 127.954256 273.218688 
L 127.954256 271.201016 
L 128.590686 271.201016 
L 128.590686 270.696598 
L 129.204706 270.696598 
L 129.204706 270.19218 
L 129.79784 270.19218 
L 129.79784 269.687762 
L 130.371462 269.687762 
L 130.371462 269.183344 
L 130.926816 269.183344 
L 130.926816 268.678927 
L 133.46572 268.678927 
L 133.46572 268.174509 
L 134.828688 268.174509 
L 134.828688 267.670091 
L 136.887363 267.670091 
L 136.887363 266.661255 
L 158.742573 266.661255 
L 158.821615 265.652419 
L 161.524156 265.652419 
L 161.524156 265.148001 
L 162.62347 265.148001 
L 162.62347 264.139166 
L 163.094774 264.139166 
L 163.094774 263.13033 
L 165.515296 263.13033 
L 165.515296 262.625912 
L 165.654426 262.625912 
L 165.654426 262.121494 
L 167.751064 262.121494 
L 167.779397 261.112658 
L 168.202038 261.112658 
L 168.202038 260.60824 
L 168.488284 260.60824 
L 168.488284 260.103822 
L 170.716639 260.103822 
L 170.716639 259.599405 
L 171.708567 259.599405 
L 171.708567 259.094987 
L 172.798725 259.094987 
L 172.798725 258.590569 
L 173.139766 258.590569 
L 173.23205 257.581733 
L 173.271123 257.581733 
L 173.271123 256.572897 
L 174.224889 256.572897 
L 174.224889 256.068479 
L 174.451642 256.068479 
L 174.451642 255.059644 
L 175.597519 255.059644 
L 175.597519 254.050808 
L 175.723637 254.050808 
L 175.723637 253.54639 
L 176.640581 253.54639 
L 176.74812 252.537554 
L 176.80258 252.537554 
L 176.80258 251.528718 
L 177.848687 251.528718 
L 177.848687 251.0243 
L 178.735169 251.0243 
L 178.735169 250.519883 
L 179.089033 250.519883 
L 179.092322 249.511047 
L 180.101725 249.511047 
L 180.101725 249.006629 
L 180.401734 249.006629 
L 180.401734 248.502211 
L 181.534102 248.502211 
L 181.534102 247.997793 
L 181.807826 247.997793 
L 181.807826 247.493375 
L 183.530881 247.493375 
L 183.530881 246.988957 
L 183.690771 246.988957 
L 183.690771 245.980122 
L 184.039681 245.980122 
L 184.039681 244.971286 
L 186.423383 244.971286 
L 186.423383 243.96245 
L 187.089785 243.96245 
L 187.089785 242.953614 
L 187.363093 242.953614 
L 187.363093 242.449196 
L 188.878377 242.449196 
L 188.878377 241.440361 
L 190.82903 241.440361 
L 190.82903 240.431525 
L 191.359437 240.431525 
L 191.359437 239.927107 
L 192.208326 239.927107 
L 192.208326 238.918271 
L 216.584476 238.918271 
L 216.584476 238.413853 
L 216.763997 238.413853 
L 216.763997 237.909435 
L 216.930425 237.909435 
L 216.956696 236.396182 
L 217.092302 236.396182 
L 217.203398 233.369674 
L 217.419289 233.369674 
L 217.419289 232.360839 
L 217.585215 232.360839 
L 217.664079 230.847585 
L 217.81307 230.847585 
L 217.81307 229.838749 
L 218.070912 229.838749 
L 218.070912 228.829913 
L 219.585645 228.829913 
L 219.585645 228.325495 
L 220.170191 228.325495 
L 220.170191 227.821078 
L 220.416263 227.821078 
L 220.416263 226.812242 
L 220.684369 226.812242 
L 220.684369 226.307824 
L 220.839344 226.307824 
L 220.839344 225.803406 
L 221.2144 225.803406 
L 221.2144 225.298988 
L 221.604845 225.298988 
L 221.604845 224.290152 
L 222.113177 224.290152 
L 222.113177 223.281316 
L 222.243415 223.281316 
L 222.243415 222.776899 
L 222.46823 222.776899 
L 222.46823 221.768063 
L 222.673168 221.768063 
L 222.749067 220.254809 
L 223.00757 220.254809 
L 223.00757 219.750391 
L 223.240732 219.750391 
L 223.240732 219.245973 
L 223.498544 219.245973 
L 223.588898 217.73272 
L 223.700327 217.73272 
L 223.800286 216.723884 
L 223.939801 216.723884 
L 223.939801 216.219466 
L 224.112329 216.219466 
L 224.112329 215.21063 
L 224.270103 215.21063 
L 224.324018 213.697377 
L 224.464543 213.697377 
L 224.536447 209.662033 
L 224.58107 209.662033 
L 224.58107 209.157616 
L 224.749678 209.157616 
L 224.749678 208.14878 
L 224.903955 208.14878 
L 224.903955 207.644362 
L 225.039547 207.644362 
L 225.139645 204.617855 
L 225.198307 204.617855 
L 225.256306 203.104601 
L 225.600766 203.104601 
L 225.600766 202.095765 
L 226.072924 202.095765 
L 226.13917 200.078094 
L 226.191257 200.078094 
L 226.262995 199.069258 
L 226.346701 199.069258 
L 226.434581 196.547168 
L 226.50587 196.547168 
L 226.595651 194.529497 
L 226.626481 194.529497 
L 226.696132 192.511825 
L 226.752146 192.511825 
L 226.794225 191.502989 
L 226.92208 191.502989 
L 226.92208 190.998572 
L 227.533149 190.998572 
L 227.533149 189.989736 
L 227.646781 189.989736 
L 227.682501 188.476482 
L 227.814596 188.476482 
L 227.8961 186.458811 
L 227.927015 186.458811 
L 227.957876 185.449975 
L 228.066701 185.449975 
L 228.066701 184.945557 
L 233.283061 184.945557 
L 233.283061 183.936721 
L 233.59091 183.936721 
L 233.59091 183.432303 
L 235.9453 183.432303 
L 236.031307 179.901378 
L 236.078224 179.901378 
L 236.078224 179.39696 
L 237.212438 179.39696 
L 237.212438 178.892542 
L 237.757383 178.892542 
L 237.853657 177.379288 
L 239.364099 177.379288 
L 239.364099 176.874871 
L 239.534525 176.874871 
L 239.534525 176.370453 
L 240.712594 176.370453 
L 240.747183 175.361617 
L 241.207518 175.361617 
L 241.207518 174.857199 
L 241.454183 174.857199 
L 241.454183 173.848363 
L 242.01692 173.848363 
L 242.01692 173.343945 
L 242.601193 173.343945 
L 242.684335 172.33511 
L 242.920581 172.33511 
L 242.920581 171.326274 
L 243.364185 171.326274 
L 243.364185 170.821856 
L 243.581195 170.821856 
L 243.68092 169.81302 
L 243.858519 169.81302 
L 243.858519 168.804184 
L 244.053331 168.804184 
L 244.053331 168.299766 
L 244.321353 168.299766 
L 244.321353 167.795349 
L 244.612103 167.795349 
L 244.612103 166.786513 
L 245.128269 166.786513 
L 245.128269 166.282095 
L 245.444753 166.282095 
L 245.444753 165.777677 
L 245.676081 165.777677 
L 245.676081 164.768841 
L 245.890862 164.768841 
L 245.890862 163.760005 
L 246.176693 163.760005 
L 246.176693 163.255588 
L 246.376342 163.255588 
L 246.395176 162.246752 
L 246.745856 162.246752 
L 246.769148 160.733498 
L 246.866295 160.733498 
L 246.866295 160.22908 
L 247.731674 160.22908 
L 247.731674 159.220244 
L 248.597124 159.220244 
L 248.597124 158.715827 
L 248.761649 158.715827 
L 248.837336 157.706991 
L 249.254114 157.706991 
L 249.254114 157.202573 
L 249.410629 157.202573 
L 249.506281 155.184901 
L 249.639274 155.184901 
L 249.639274 154.176066 
L 249.818784 154.176066 
L 249.818784 153.671648 
L 250.218023 153.671648 
L 250.218023 153.16723 
L 250.487319 153.16723 
L 250.487319 152.662812 
L 250.949575 152.662812 
L 250.949575 152.158394 
L 251.133521 152.158394 
L 251.133521 151.653976 
L 251.60622 151.653976 
L 251.638895 149.636305 
L 251.76927 149.636305 
L 251.76927 149.131887 
L 252.125245 149.131887 
L 252.125245 148.627469 
L 252.383369 148.627469 
L 252.441702 146.609797 
L 252.648801 146.609797 
L 252.648801 146.105379 
L 252.836681 146.105379 
L 252.836681 145.600961 
L 252.959241 145.600961 
L 253.027133 144.592126 
L 253.527991 144.592126 
L 253.527991 144.087708 
L 253.720215 144.087708 
L 253.720215 143.58329 
L 254.497491 143.58329 
L 254.508684 142.070036 
L 254.766426 142.070036 
L 254.771058 140.556783 
L 254.9126 140.556783 
L 254.9126 140.052365 
L 255.140711 140.052365 
L 255.152276 138.034693 
L 255.745967 138.034693 
L 255.745967 137.530275 
L 255.915005 137.530275 
L 255.952561 136.017022 
L 256.071157 136.017022 
L 256.071157 135.512604 
L 256.250174 135.512604 
L 256.338997 133.99935 
L 256.874585 133.99935 
L 256.948088 132.486096 
L 257.175856 132.486096 
L 257.238518 131.47726 
L 257.473572 131.47726 
L 257.473572 130.468425 
L 257.682994 130.468425 
L 257.706153 129.459589 
L 257.909915 129.459589 
L 257.972479 128.450753 
L 258.036759 128.450753 
L 258.036759 127.946335 
L 258.331357 127.946335 
L 258.331357 126.937499 
L 338.688 126.937499 
L 338.688 126.937499 
" style="fill:none;stroke:#ff7500;stroke-linecap:square;stroke-width:1.5;"/>
   </g>
   <g id="line2d_41">
    <defs>
     <path d="M 0 -6 
L -1.347084 -1.854102 
L -5.706339 -1.854102 
L -2.179628 0.708204 
L -3.526712 4.854102 
L -0 2.291796 
L 3.526712 4.854102 
L 2.179628 0.708204 
L 5.706339 -1.854102 
L 1.347084 -1.854102 
z
" id="mdc988d086a" style="stroke:#ff7500;stroke-linejoin:bevel;stroke-width:1.5;"/>
    </defs>
    <g>
     <use style="fill-opacity:0;stroke:#ff7500;stroke-linejoin:bevel;stroke-width:1.5;" x="128.590686" xlink:href="#mdc988d086a" y="270.696598"/>
     <use style="fill-opacity:0;stroke:#ff7500;stroke-linejoin:bevel;stroke-width:1.5;" x="192.208326" xlink:href="#mdc988d086a" y="239.927107"/>
     <use style="fill-opacity:0;stroke:#ff7500;stroke-linejoin:bevel;stroke-width:1.5;" x="246.395176" xlink:href="#mdc988d086a" y="162.75117"/>
     <use style="fill-opacity:0;stroke:#ff7500;stroke-linejoin:bevel;stroke-width:1.5;" x="258.331357" xlink:href="#mdc988d086a" y="126.937499"/>
     <use style="fill-opacity:0;stroke:#ff7500;stroke-linejoin:bevel;stroke-width:1.5;" x="258.331357" xlink:href="#mdc988d086a" y="126.937499"/>
     <use style="fill-opacity:0;stroke:#ff7500;stroke-linejoin:bevel;stroke-width:1.5;" x="338.688" xlink:href="#mdc988d086a" y="126.937499"/>
    </g>
   </g>
   <g id="line2d_42">
    <path style="fill:none;stroke:#ff7500;stroke-linecap:square;stroke-width:1.5;"/>
    <g/>
   </g>
   <g id="line2d_43">
    <path clip-path="url(#p51a7bc9b84)" d="M 258.377143 126.937499 
" style="fill:none;stroke:#ff7500;stroke-linecap:square;stroke-width:1.5;"/>
    <defs>
     <path d="M -12 12 
L 12 -12 
M -12 -12 
L 12 12 
" id="md8434d49bc" style="stroke:#ff7500;"/>
    </defs>
    <g clip-path="url(#p51a7bc9b84)">
     <use style="fill:#ff7500;stroke:#ff7500;" x="258.377143" xlink:href="#md8434d49bc" y="126.937499"/>
    </g>
   </g>
   <g id="line2d_44">
    <path d="M 338.688 126.937499 
L 369.60768 293.092752 
" style="fill:none;stroke:#ff7500;stroke-linecap:square;stroke-width:1.5;"/>
    <g>
     <use style="fill-opacity:0;stroke:#ff7500;stroke-linejoin:bevel;stroke-width:1.5;" x="338.688" xlink:href="#mdc988d086a" y="126.937499"/>
     <use style="fill-opacity:0;stroke:#ff7500;stroke-linejoin:bevel;stroke-width:1.5;" x="369.60768" xlink:href="#mdc988d086a" y="293.092752"/>
    </g>
   </g>
   <g id="line2d_45">
    <path d="M 338.688 110.291709 
L 369.60768 152.662812 
" style="fill:none;stroke:#ff00ff;stroke-linecap:square;stroke-width:1.5;"/>
    <g>
     <use style="fill-opacity:0;stroke:#ff00ff;stroke-linejoin:miter;stroke-width:1.5;" x="338.688" xlink:href="#m877c9d19df" y="110.291709"/>
     <use style="fill-opacity:0;stroke:#ff00ff;stroke-linejoin:miter;stroke-width:1.5;" x="369.60768" xlink:href="#m877c9d19df" y="152.662812"/>
    </g>
   </g>
   <g id="line2d_46">
    <path d="M 338.688 88.60174 
L 369.60768 12.232871 
" style="fill:none;stroke:#000080;stroke-linecap:square;stroke-width:1.5;"/>
    <g>
     <use style="fill-opacity:0;stroke:#000080;stroke-width:1.5;" x="338.688" xlink:href="#m65b6304bdc" y="88.60174"/>
     <use style="fill-opacity:0;stroke:#000080;stroke-width:1.5;" x="369.60768" xlink:href="#m65b6304bdc" y="12.232871"/>
    </g>
   </g>
   <g id="line2d_47">
    <path d="M 338.688 298.944 
L 338.688 6.381624 
" style="fill:none;stroke:#000000;stroke-linecap:square;stroke-width:1.5;"/>
   </g>
   <g id="patch_3">
    <path d="M 57.6 298.944 
L 57.6 3.456 
" style="fill:none;stroke:#000000;stroke-linecap:square;stroke-linejoin:miter;stroke-width:0.8;"/>
   </g>
   <g id="patch_4">
    <path d="M 338.688 298.944 
L 338.688 3.456 
" style="fill:none;stroke:#000000;stroke-linecap:square;stroke-linejoin:miter;stroke-width:0.8;"/>
   </g>
   <g id="patch_5">
    <path d="M 57.6 298.944 
L 338.688 298.944 
" style="fill:none;stroke:#000000;stroke-linecap:square;stroke-linejoin:miter;stroke-width:0.8;"/>
   </g>
   <g id="patch_6">
    <path d="M 57.6 3.456 
L 338.688 3.456 
" style="fill:none;stroke:#000000;stroke-linecap:square;stroke-linejoin:miter;stroke-width:0.8;"/>
   </g>
   <g id="text_13">
    <!-- f41 -->
    <g transform="translate(375.22944 297.78369)scale(0.17 -0.17)">
     <use xlink:href="#DejaVuSans-102"/>
     <use x="35.205078" xlink:href="#DejaVuSans-52"/>
     <use x="98.828125" xlink:href="#DejaVuSans-49"/>
    </g>
   </g>
   <g id="text_14">
    <!-- f36 -->
    <g transform="translate(375.22944 157.353749)scale(0.17 -0.17)">
     <defs>
      <path d="M 40.578125 39.3125 
Q 47.65625 37.796875 51.625 33 
Q 55.609375 28.21875 55.609375 21.1875 
Q 55.609375 10.40625 48.1875 4.484375 
Q 40.765625 -1.421875 27.09375 -1.421875 
Q 22.515625 -1.421875 17.65625 -0.515625 
Q 12.796875 0.390625 7.625 2.203125 
L 7.625 11.71875 
Q 11.71875 9.328125 16.59375 8.109375 
Q 21.484375 6.890625 26.8125 6.890625 
Q 36.078125 6.890625 40.9375 10.546875 
Q 45.796875 14.203125 45.796875 21.1875 
Q 45.796875 27.640625 41.28125 31.265625 
Q 36.765625 34.90625 28.71875 34.90625 
L 20.21875 34.90625 
L 20.21875 43.015625 
L 29.109375 43.015625 
Q 36.375 43.015625 40.234375 45.921875 
Q 44.09375 48.828125 44.09375 54.296875 
Q 44.09375 59.90625 40.109375 62.90625 
Q 36.140625 65.921875 28.71875 65.921875 
Q 24.65625 65.921875 20.015625 65.03125 
Q 15.375 64.15625 9.8125 62.3125 
L 9.8125 71.09375 
Q 15.4375 72.65625 20.34375 73.4375 
Q 25.25 74.21875 29.59375 74.21875 
Q 40.828125 74.21875 47.359375 69.109375 
Q 53.90625 64.015625 53.90625 55.328125 
Q 53.90625 49.265625 50.4375 45.09375 
Q 46.96875 40.921875 40.578125 39.3125 
z
" id="DejaVuSans-51"/>
     </defs>
     <use xlink:href="#DejaVuSans-102"/>
     <use x="35.205078" xlink:href="#DejaVuSans-51"/>
     <use x="98.828125" xlink:href="#DejaVuSans-54"/>
    </g>
   </g>
   <g id="text_15">
    <!-- f35 -->
    <g transform="translate(375.22944 16.923809)scale(0.17 -0.17)">
     <defs>
      <path d="M 10.796875 72.90625 
L 49.515625 72.90625 
L 49.515625 64.59375 
L 19.828125 64.59375 
L 19.828125 46.734375 
Q 21.96875 47.46875 24.109375 47.828125 
Q 26.265625 48.1875 28.421875 48.1875 
Q 40.625 48.1875 47.75 41.5 
Q 54.890625 34.8125 54.890625 23.390625 
Q 54.890625 11.625 47.5625 5.09375 
Q 40.234375 -1.421875 26.90625 -1.421875 
Q 22.3125 -1.421875 17.546875 -0.640625 
Q 12.796875 0.140625 7.71875 1.703125 
L 7.71875 11.625 
Q 12.109375 9.234375 16.796875 8.0625 
Q 21.484375 6.890625 26.703125 6.890625 
Q 35.15625 6.890625 40.078125 11.328125 
Q 45.015625 15.765625 45.015625 23.390625 
Q 45.015625 31 40.078125 35.4375 
Q 35.15625 39.890625 26.703125 39.890625 
Q 22.75 39.890625 18.8125 39.015625 
Q 14.890625 38.140625 10.796875 36.28125 
z
" id="DejaVuSans-53"/>
     </defs>
     <use xlink:href="#DejaVuSans-102"/>
     <use x="35.205078" xlink:href="#DejaVuSans-51"/>
     <use x="98.828125" xlink:href="#DejaVuSans-53"/>
    </g>
   </g>
   <g id="text_16">
    <!-- bbob-biobj -->
    <g transform="translate(60.41088 14.161286)scale(0.102 -0.102)">
     <defs>
      <path d="M 48.6875 27.296875 
Q 48.6875 37.203125 44.609375 42.84375 
Q 40.53125 48.484375 33.40625 48.484375 
Q 26.265625 48.484375 22.1875 42.84375 
Q 18.109375 37.203125 18.109375 27.296875 
Q 18.109375 17.390625 22.1875 11.75 
Q 26.265625 6.109375 33.40625 6.109375 
Q 40.53125 6.109375 44.609375 11.75 
Q 48.6875 17.390625 48.6875 27.296875 
z
M 18.109375 46.390625 
Q 20.953125 51.265625 25.265625 53.625 
Q 29.59375 56 35.59375 56 
Q 45.5625 56 51.78125 48.09375 
Q 58.015625 40.1875 58.015625 27.296875 
Q 58.015625 14.40625 51.78125 6.484375 
Q 45.5625 -1.421875 35.59375 -1.421875 
Q 29.59375 -1.421875 25.265625 0.953125 
Q 20.953125 3.328125 18.109375 8.203125 
L 18.109375 0 
L 9.078125 0 
L 9.078125 75.984375 
L 18.109375 75.984375 
z
" id="DejaVuSans-98"/>
      <path d="M 9.421875 54.6875 
L 18.40625 54.6875 
L 18.40625 -0.984375 
Q 18.40625 -11.421875 14.421875 -16.109375 
Q 10.453125 -20.796875 1.609375 -20.796875 
L -1.8125 -20.796875 
L -1.8125 -13.1875 
L 0.59375 -13.1875 
Q 5.71875 -13.1875 7.5625 -10.8125 
Q 9.421875 -8.453125 9.421875 -0.984375 
z
M 9.421875 75.984375 
L 18.40625 75.984375 
L 18.40625 64.59375 
L 9.421875 64.59375 
z
" id="DejaVuSans-106"/>
     </defs>
     <use xlink:href="#DejaVuSans-98"/>
     <use x="63.476562" xlink:href="#DejaVuSans-98"/>
     <use x="126.953125" xlink:href="#DejaVuSans-111"/>
     <use x="188.134766" xlink:href="#DejaVuSans-98"/>
     <use x="251.611328" xlink:href="#DejaVuSans-45"/>
     <use x="287.695312" xlink:href="#DejaVuSans-98"/>
     <use x="351.171875" xlink:href="#DejaVuSans-105"/>
     <use x="378.955078" xlink:href="#DejaVuSans-111"/>
     <use x="440.136719" xlink:href="#DejaVuSans-98"/>
     <use x="503.613281" xlink:href="#DejaVuSans-106"/>
    </g>
    <!-- 3-ill-conditioned 3-ill-conditioned, 10-D -->
    <g transform="translate(60.41088 25.583055)scale(0.102 -0.102)">
     <defs>
      <path d="M 19.671875 64.796875 
L 19.671875 8.109375 
L 31.59375 8.109375 
Q 46.6875 8.109375 53.6875 14.9375 
Q 60.6875 21.78125 60.6875 36.53125 
Q 60.6875 51.171875 53.6875 57.984375 
Q 46.6875 64.796875 31.59375 64.796875 
z
M 9.8125 72.90625 
L 30.078125 72.90625 
Q 51.265625 72.90625 61.171875 64.09375 
Q 71.09375 55.28125 71.09375 36.53125 
Q 71.09375 17.671875 61.125 8.828125 
Q 51.171875 0 30.078125 0 
L 9.8125 0 
z
" id="DejaVuSans-68"/>
     </defs>
     <use xlink:href="#DejaVuSans-51"/>
     <use x="63.623047" xlink:href="#DejaVuSans-45"/>
     <use x="99.707031" xlink:href="#DejaVuSans-105"/>
     <use x="127.490234" xlink:href="#DejaVuSans-108"/>
     <use x="155.273438" xlink:href="#DejaVuSans-108"/>
     <use x="183.056641" xlink:href="#DejaVuSans-45"/>
     <use x="219.140625" xlink:href="#DejaVuSans-99"/>
     <use x="274.121094" xlink:href="#DejaVuSans-111"/>
     <use x="335.302734" xlink:href="#DejaVuSans-110"/>
     <use x="398.681641" xlink:href="#DejaVuSans-100"/>
     <use x="462.158203" xlink:href="#DejaVuSans-105"/>
     <use x="489.941406" xlink:href="#DejaVuSans-116"/>
     <use x="529.150391" xlink:href="#DejaVuSans-105"/>
     <use x="556.933594" xlink:href="#DejaVuSans-111"/>
     <use x="618.115234" xlink:href="#DejaVuSans-110"/>
     <use x="681.494141" xlink:href="#DejaVuSans-101"/>
     <use x="743.017578" xlink:href="#DejaVuSans-100"/>
     <use x="806.494141" xlink:href="#DejaVuSans-32"/>
     <use x="838.28125" xlink:href="#DejaVuSans-51"/>
     <use x="901.904297" xlink:href="#DejaVuSans-45"/>
     <use x="937.988281" xlink:href="#DejaVuSans-105"/>
     <use x="965.771484" xlink:href="#DejaVuSans-108"/>
     <use x="993.554688" xlink:href="#DejaVuSans-108"/>
     <use x="1021.337891" xlink:href="#DejaVuSans-45"/>
     <use x="1057.421875" xlink:href="#DejaVuSans-99"/>
     <use x="1112.402344" xlink:href="#DejaVuSans-111"/>
     <use x="1173.583984" xlink:href="#DejaVuSans-110"/>
     <use x="1236.962891" xlink:href="#DejaVuSans-100"/>
     <use x="1300.439453" xlink:href="#DejaVuSans-105"/>
     <use x="1328.222656" xlink:href="#DejaVuSans-116"/>
     <use x="1367.431641" xlink:href="#DejaVuSans-105"/>
     <use x="1395.214844" xlink:href="#DejaVuSans-111"/>
     <use x="1456.396484" xlink:href="#DejaVuSans-110"/>
     <use x="1519.775391" xlink:href="#DejaVuSans-101"/>
     <use x="1581.298828" xlink:href="#DejaVuSans-100"/>
     <use x="1644.775391" xlink:href="#DejaVuSans-44"/>
     <use x="1676.5625" xlink:href="#DejaVuSans-32"/>
     <use x="1708.349609" xlink:href="#DejaVuSans-49"/>
     <use x="1771.972656" xlink:href="#DejaVuSans-48"/>
     <use x="1835.595703" xlink:href="#DejaVuSans-45"/>
     <use x="1871.679688" xlink:href="#DejaVuSans-68"/>
    </g>
    <!-- 58 targets: 1..-1.0e-4 -->
    <g transform="translate(60.41088 37.004824)scale(0.102 -0.102)">
     <defs>
      <path d="M 11.71875 12.40625 
L 22.015625 12.40625 
L 22.015625 0 
L 11.71875 0 
z
M 11.71875 51.703125 
L 22.015625 51.703125 
L 22.015625 39.3125 
L 11.71875 39.3125 
z
" id="DejaVuSans-58"/>
     </defs>
     <use xlink:href="#DejaVuSans-53"/>
     <use x="63.623047" xlink:href="#DejaVuSans-56"/>
     <use x="127.246094" xlink:href="#DejaVuSans-32"/>
     <use x="159.033203" xlink:href="#DejaVuSans-116"/>
     <use x="198.242188" xlink:href="#DejaVuSans-97"/>
     <use x="259.521484" xlink:href="#DejaVuSans-114"/>
     <use x="298.884766" xlink:href="#DejaVuSans-103"/>
     <use x="362.361328" xlink:href="#DejaVuSans-101"/>
     <use x="423.884766" xlink:href="#DejaVuSans-116"/>
     <use x="463.09375" xlink:href="#DejaVuSans-115"/>
     <use x="515.193359" xlink:href="#DejaVuSans-58"/>
     <use x="548.884766" xlink:href="#DejaVuSans-32"/>
     <use x="580.671875" xlink:href="#DejaVuSans-49"/>
     <use x="644.294922" xlink:href="#DejaVuSans-46"/>
     <use x="676.082031" xlink:href="#DejaVuSans-46"/>
     <use x="707.869141" xlink:href="#DejaVuSans-45"/>
     <use x="743.953125" xlink:href="#DejaVuSans-49"/>
     <use x="807.576172" xlink:href="#DejaVuSans-46"/>
     <use x="839.363281" xlink:href="#DejaVuSans-48"/>
     <use x="902.986328" xlink:href="#DejaVuSans-101"/>
     <use x="964.509766" xlink:href="#DejaVuSans-45"/>
     <use x="1000.59375" xlink:href="#DejaVuSans-52"/>
    </g>
    <!-- 10 instances -->
    <g transform="translate(60.41088 48.426593)scale(0.102 -0.102)">
     <use xlink:href="#DejaVuSans-49"/>
     <use x="63.623047" xlink:href="#DejaVuSans-48"/>
     <use x="127.246094" xlink:href="#DejaVuSans-32"/>
     <use x="159.033203" xlink:href="#DejaVuSans-105"/>
     <use x="186.816406" xlink:href="#DejaVuSans-110"/>
     <use x="250.195312" xlink:href="#DejaVuSans-115"/>
     <use x="302.294922" xlink:href="#DejaVuSans-116"/>
     <use x="341.503906" xlink:href="#DejaVuSans-97"/>
     <use x="402.783203" xlink:href="#DejaVuSans-110"/>
     <use x="466.162109" xlink:href="#DejaVuSans-99"/>
     <use x="521.142578" xlink:href="#DejaVuSans-101"/>
     <use x="582.666016" xlink:href="#DejaVuSans-115"/>
    </g>
   </g>
   <g id="text_17">
    <!-- v2.4, hv-hash=ff0e71e8cd978373 -->
    <g style="fill:#808080;" transform="translate(112.648687 293.909432)scale(0.1 -0.1)">
     <defs>
      <path d="M 54.890625 33.015625 
L 54.890625 0 
L 45.90625 0 
L 45.90625 32.71875 
Q 45.90625 40.484375 42.875 44.328125 
Q 39.84375 48.1875 33.796875 48.1875 
Q 26.515625 48.1875 22.3125 43.546875 
Q 18.109375 38.921875 18.109375 30.90625 
L 18.109375 0 
L 9.078125 0 
L 9.078125 75.984375 
L 18.109375 75.984375 
L 18.109375 46.1875 
Q 21.34375 51.125 25.703125 53.5625 
Q 30.078125 56 35.796875 56 
Q 45.21875 56 50.046875 50.171875 
Q 54.890625 44.34375 54.890625 33.015625 
z
" id="DejaVuSans-104"/>
      <path d="M 10.59375 45.40625 
L 73.1875 45.40625 
L 73.1875 37.203125 
L 10.59375 37.203125 
z
M 10.59375 25.484375 
L 73.1875 25.484375 
L 73.1875 17.1875 
L 10.59375 17.1875 
z
" id="DejaVuSans-61"/>
      <path d="M 8.203125 72.90625 
L 55.078125 72.90625 
L 55.078125 68.703125 
L 28.609375 0 
L 18.3125 0 
L 43.21875 64.59375 
L 8.203125 64.59375 
z
" id="DejaVuSans-55"/>
      <path d="M 10.984375 1.515625 
L 10.984375 10.5 
Q 14.703125 8.734375 18.5 7.8125 
Q 22.3125 6.890625 25.984375 6.890625 
Q 35.75 6.890625 40.890625 13.453125 
Q 46.046875 20.015625 46.78125 33.40625 
Q 43.953125 29.203125 39.59375 26.953125 
Q 35.25 24.703125 29.984375 24.703125 
Q 19.046875 24.703125 12.671875 31.3125 
Q 6.296875 37.9375 6.296875 49.421875 
Q 6.296875 60.640625 12.9375 67.421875 
Q 19.578125 74.21875 30.609375 74.21875 
Q 43.265625 74.21875 49.921875 64.515625 
Q 56.59375 54.828125 56.59375 36.375 
Q 56.59375 19.140625 48.40625 8.859375 
Q 40.234375 -1.421875 26.421875 -1.421875 
Q 22.703125 -1.421875 18.890625 -0.6875 
Q 15.09375 0.046875 10.984375 1.515625 
z
M 30.609375 32.421875 
Q 37.25 32.421875 41.125 36.953125 
Q 45.015625 41.5 45.015625 49.421875 
Q 45.015625 57.28125 41.125 61.84375 
Q 37.25 66.40625 30.609375 66.40625 
Q 23.96875 66.40625 20.09375 61.84375 
Q 16.21875 57.28125 16.21875 49.421875 
Q 16.21875 41.5 20.09375 36.953125 
Q 23.96875 32.421875 30.609375 32.421875 
z
" id="DejaVuSans-57"/>
     </defs>
     <use xlink:href="#DejaVuSans-118"/>
     <use x="59.179688" xlink:href="#DejaVuSans-50"/>
     <use x="122.802734" xlink:href="#DejaVuSans-46"/>
     <use x="154.589844" xlink:href="#DejaVuSans-52"/>
     <use x="218.212891" xlink:href="#DejaVuSans-44"/>
     <use x="250" xlink:href="#DejaVuSans-32"/>
     <use x="281.787109" xlink:href="#DejaVuSans-104"/>
     <use x="345.166016" xlink:href="#DejaVuSans-118"/>
     <use x="401.720703" xlink:href="#DejaVuSans-45"/>
     <use x="437.804688" xlink:href="#DejaVuSans-104"/>
     <use x="501.183594" xlink:href="#DejaVuSans-97"/>
     <use x="562.462891" xlink:href="#DejaVuSans-115"/>
     <use x="614.5625" xlink:href="#DejaVuSans-104"/>
     <use x="677.941406" xlink:href="#DejaVuSans-61"/>
     <use x="761.730469" xlink:href="#DejaVuSans-102"/>
     <use x="796.935547" xlink:href="#DejaVuSans-102"/>
     <use x="832.140625" xlink:href="#DejaVuSans-48"/>
     <use x="895.763672" xlink:href="#DejaVuSans-101"/>
     <use x="957.287109" xlink:href="#DejaVuSans-55"/>
     <use x="1020.910156" xlink:href="#DejaVuSans-49"/>
     <use x="1084.533203" xlink:href="#DejaVuSans-101"/>
     <use x="1146.056641" xlink:href="#DejaVuSans-56"/>
     <use x="1209.679688" xlink:href="#DejaVuSans-99"/>
     <use x="1264.660156" xlink:href="#DejaVuSans-100"/>
     <use x="1328.136719" xlink:href="#DejaVuSans-57"/>
     <use x="1391.759766" xlink:href="#DejaVuSans-55"/>
     <use x="1455.382812" xlink:href="#DejaVuSans-56"/>
     <use x="1519.005859" xlink:href="#DejaVuSans-51"/>
     <use x="1582.628906" xlink:href="#DejaVuSans-55"/>
     <use x="1646.251953" xlink:href="#DejaVuSans-51"/>
    </g>
   </g>
  </g>
 </g>
 <defs>
  <clipPath id="p51a7bc9b84">
   <rect height="295.488" width="281.088" x="57.6" y="3.456"/>
  </clipPath>
 </defs>
</svg>
