<?xml version="1.0" encoding="utf-8" standalone="no"?>
<!DOCTYPE svg PUBLIC "-//W3C//DTD SVG 1.1//EN"
  "http://www.w3.org/Graphics/SVG/1.1/DTD/svg11.dtd">
<!-- Created with matplotlib (https://matplotlib.org/) -->
<svg height="345.6pt" version="1.1" viewBox="0 0 460.8 345.6" width="460.8pt" xmlns="http://www.w3.org/2000/svg" xmlns:xlink="http://www.w3.org/1999/xlink">
 <metadata>
  <rdf:RDF xmlns:cc="http://creativecommons.org/ns#" xmlns:dc="http://purl.org/dc/elements/1.1/" xmlns:rdf="http://www.w3.org/1999/02/22-rdf-syntax-ns#">
   <cc:Work>
    <dc:type rdf:resource="http://purl.org/dc/dcmitype/StillImage"/>
    <dc:date>2021-03-30T16:54:34.414162</dc:date>
    <dc:format>image/svg+xml</dc:format>
    <dc:creator>
     <cc:Agent>
      <dc:title>Matplotlib v3.3.4, https://matplotlib.org/</dc:title>
     </cc:Agent>
    </dc:creator>
   </cc:Work>
  </rdf:RDF>
 </metadata>
 <defs>
  <style type="text/css">*{stroke-linecap:butt;stroke-linejoin:round;}</style>
 </defs>
 <g id="figure_1">
  <g id="patch_1">
   <path d="M 0 345.6 
L 460.8 345.6 
L 460.8 0 
L 0 0 
z
" style="fill:#ffffff;"/>
  </g>
  <g id="axes_1">
   <g id="patch_2">
    <path d="M 57.6 298.944 
L 338.688 298.944 
L 338.688 27.648 
L 57.6 27.648 
z
" style="fill:#ffffff;"/>
   </g>
   <g id="matplotlib.axis_1">
    <g id="xtick_1">
     <g id="line2d_1">
      <path clip-path="url(#pe5d4394b96)" d="M 57.6 298.944 
L 57.6 27.648 
" style="fill:none;stroke:#b0b0b0;stroke-linecap:square;stroke-width:0.8;"/>
     </g>
     <g id="line2d_2">
      <defs>
       <path d="M 0 0 
L 0 3.5 
" id="me73354de36" style="stroke:#000000;stroke-width:0.8;"/>
      </defs>
      <g>
       <use style="stroke:#000000;stroke-width:0.8;" x="57.6" xlink:href="#me73354de36" y="298.944"/>
      </g>
     </g>
     <g id="text_1">
      <!-- 0 -->
      <g transform="translate(51.2375 321.140875)scale(0.2 -0.2)">
       <defs>
        <path d="M 31.78125 66.40625 
Q 24.171875 66.40625 20.328125 58.90625 
Q 16.5 51.421875 16.5 36.375 
Q 16.5 21.390625 20.328125 13.890625 
Q 24.171875 6.390625 31.78125 6.390625 
Q 39.453125 6.390625 43.28125 13.890625 
Q 47.125 21.390625 47.125 36.375 
Q 47.125 51.421875 43.28125 58.90625 
Q 39.453125 66.40625 31.78125 66.40625 
z
M 31.78125 74.21875 
Q 44.046875 74.21875 50.515625 64.515625 
Q 56.984375 54.828125 56.984375 36.375 
Q 56.984375 17.96875 50.515625 8.265625 
Q 44.046875 -1.421875 31.78125 -1.421875 
Q 19.53125 -1.421875 13.0625 8.265625 
Q 6.59375 17.96875 6.59375 36.375 
Q 6.59375 54.828125 13.0625 64.515625 
Q 19.53125 74.21875 31.78125 74.21875 
z
" id="DejaVuSans-48"/>
       </defs>
       <use xlink:href="#DejaVuSans-48"/>
      </g>
     </g>
    </g>
    <g id="xtick_2">
     <g id="line2d_3">
      <path clip-path="url(#pe5d4394b96)" d="M 137.910857 298.944 
L 137.910857 27.648 
" style="fill:none;stroke:#b0b0b0;stroke-linecap:square;stroke-width:0.8;"/>
     </g>
     <g id="line2d_4">
      <g>
       <use style="stroke:#000000;stroke-width:0.8;" x="137.910857" xlink:href="#me73354de36" y="298.944"/>
      </g>
     </g>
     <g id="text_2">
      <!-- 2 -->
      <g transform="translate(131.548357 321.140875)scale(0.2 -0.2)">
       <defs>
        <path d="M 19.1875 8.296875 
L 53.609375 8.296875 
L 53.609375 0 
L 7.328125 0 
L 7.328125 8.296875 
Q 12.9375 14.109375 22.625 23.890625 
Q 32.328125 33.6875 34.8125 36.53125 
Q 39.546875 41.84375 41.421875 45.53125 
Q 43.3125 49.21875 43.3125 52.78125 
Q 43.3125 58.59375 39.234375 62.25 
Q 35.15625 65.921875 28.609375 65.921875 
Q 23.96875 65.921875 18.8125 64.3125 
Q 13.671875 62.703125 7.8125 59.421875 
L 7.8125 69.390625 
Q 13.765625 71.78125 18.9375 73 
Q 24.125 74.21875 28.421875 74.21875 
Q 39.75 74.21875 46.484375 68.546875 
Q 53.21875 62.890625 53.21875 53.421875 
Q 53.21875 48.921875 51.53125 44.890625 
Q 49.859375 40.875 45.40625 35.40625 
Q 44.1875 33.984375 37.640625 27.21875 
Q 31.109375 20.453125 19.1875 8.296875 
z
" id="DejaVuSans-50"/>
       </defs>
       <use xlink:href="#DejaVuSans-50"/>
      </g>
     </g>
    </g>
    <g id="xtick_3">
     <g id="line2d_5">
      <path clip-path="url(#pe5d4394b96)" d="M 218.221714 298.944 
L 218.221714 27.648 
" style="fill:none;stroke:#b0b0b0;stroke-linecap:square;stroke-width:0.8;"/>
     </g>
     <g id="line2d_6">
      <g>
       <use style="stroke:#000000;stroke-width:0.8;" x="218.221714" xlink:href="#me73354de36" y="298.944"/>
      </g>
     </g>
     <g id="text_3">
      <!-- 4 -->
      <g transform="translate(211.859214 321.140875)scale(0.2 -0.2)">
       <defs>
        <path d="M 37.796875 64.3125 
L 12.890625 25.390625 
L 37.796875 25.390625 
z
M 35.203125 72.90625 
L 47.609375 72.90625 
L 47.609375 25.390625 
L 58.015625 25.390625 
L 58.015625 17.1875 
L 47.609375 17.1875 
L 47.609375 0 
L 37.796875 0 
L 37.796875 17.1875 
L 4.890625 17.1875 
L 4.890625 26.703125 
z
" id="DejaVuSans-52"/>
       </defs>
       <use xlink:href="#DejaVuSans-52"/>
      </g>
     </g>
    </g>
    <g id="xtick_4">
     <g id="line2d_7">
      <path clip-path="url(#pe5d4394b96)" d="M 298.532571 298.944 
L 298.532571 27.648 
" style="fill:none;stroke:#b0b0b0;stroke-linecap:square;stroke-width:0.8;"/>
     </g>
     <g id="line2d_8">
      <g>
       <use style="stroke:#000000;stroke-width:0.8;" x="298.532571" xlink:href="#me73354de36" y="298.944"/>
      </g>
     </g>
     <g id="text_4">
      <!-- 6 -->
      <g transform="translate(292.170071 321.140875)scale(0.2 -0.2)">
       <defs>
        <path d="M 33.015625 40.375 
Q 26.375 40.375 22.484375 35.828125 
Q 18.609375 31.296875 18.609375 23.390625 
Q 18.609375 15.53125 22.484375 10.953125 
Q 26.375 6.390625 33.015625 6.390625 
Q 39.65625 6.390625 43.53125 10.953125 
Q 47.40625 15.53125 47.40625 23.390625 
Q 47.40625 31.296875 43.53125 35.828125 
Q 39.65625 40.375 33.015625 40.375 
z
M 52.59375 71.296875 
L 52.59375 62.3125 
Q 48.875 64.0625 45.09375 64.984375 
Q 41.3125 65.921875 37.59375 65.921875 
Q 27.828125 65.921875 22.671875 59.328125 
Q 17.53125 52.734375 16.796875 39.40625 
Q 19.671875 43.65625 24.015625 45.921875 
Q 28.375 48.1875 33.59375 48.1875 
Q 44.578125 48.1875 50.953125 41.515625 
Q 57.328125 34.859375 57.328125 23.390625 
Q 57.328125 12.15625 50.6875 5.359375 
Q 44.046875 -1.421875 33.015625 -1.421875 
Q 20.359375 -1.421875 13.671875 8.265625 
Q 6.984375 17.96875 6.984375 36.375 
Q 6.984375 53.65625 15.1875 63.9375 
Q 23.390625 74.21875 37.203125 74.21875 
Q 40.921875 74.21875 44.703125 73.484375 
Q 48.484375 72.75 52.59375 71.296875 
z
" id="DejaVuSans-54"/>
       </defs>
       <use xlink:href="#DejaVuSans-54"/>
      </g>
     </g>
    </g>
    <g id="xtick_5">
     <g id="line2d_9">
      <path clip-path="url(#pe5d4394b96)" d="M 97.755429 298.944 
L 97.755429 27.648 
" style="fill:none;stroke:#b0b0b0;stroke-linecap:square;stroke-width:0.8;"/>
     </g>
     <g id="line2d_10">
      <defs>
       <path d="M 0 0 
L 0 2 
" id="mf519a10cf7" style="stroke:#000000;stroke-width:0.6;"/>
      </defs>
      <g>
       <use style="stroke:#000000;stroke-width:0.6;" x="97.755429" xlink:href="#mf519a10cf7" y="298.944"/>
      </g>
     </g>
    </g>
    <g id="xtick_6">
     <g id="line2d_11">
      <path clip-path="url(#pe5d4394b96)" d="M 178.066286 298.944 
L 178.066286 27.648 
" style="fill:none;stroke:#b0b0b0;stroke-linecap:square;stroke-width:0.8;"/>
     </g>
     <g id="line2d_12">
      <g>
       <use style="stroke:#000000;stroke-width:0.6;" x="178.066286" xlink:href="#mf519a10cf7" y="298.944"/>
      </g>
     </g>
    </g>
    <g id="xtick_7">
     <g id="line2d_13">
      <path clip-path="url(#pe5d4394b96)" d="M 258.377143 298.944 
L 258.377143 27.648 
" style="fill:none;stroke:#b0b0b0;stroke-linecap:square;stroke-width:0.8;"/>
     </g>
     <g id="line2d_14">
      <g>
       <use style="stroke:#000000;stroke-width:0.6;" x="258.377143" xlink:href="#mf519a10cf7" y="298.944"/>
      </g>
     </g>
    </g>
    <g id="xtick_8">
     <g id="line2d_15">
      <path clip-path="url(#pe5d4394b96)" d="M 338.688 298.944 
L 338.688 27.648 
" style="fill:none;stroke:#b0b0b0;stroke-linecap:square;stroke-width:0.8;"/>
     </g>
     <g id="line2d_16">
      <g>
       <use style="stroke:#000000;stroke-width:0.6;" x="338.688" xlink:href="#mf519a10cf7" y="298.944"/>
      </g>
     </g>
    </g>
    <g id="text_5">
     <!-- log10(# f-evals / dimension) -->
     <g transform="translate(77.764078 342.217594)scale(0.17 -0.17)">
      <defs>
       <path d="M 9.421875 75.984375 
L 18.40625 75.984375 
L 18.40625 0 
L 9.421875 0 
z
" id="DejaVuSans-108"/>
       <path d="M 30.609375 48.390625 
Q 23.390625 48.390625 19.1875 42.75 
Q 14.984375 37.109375 14.984375 27.296875 
Q 14.984375 17.484375 19.15625 11.84375 
Q 23.34375 6.203125 30.609375 6.203125 
Q 37.796875 6.203125 41.984375 11.859375 
Q 46.1875 17.53125 46.1875 27.296875 
Q 46.1875 37.015625 41.984375 42.703125 
Q 37.796875 48.390625 30.609375 48.390625 
z
M 30.609375 56 
Q 42.328125 56 49.015625 48.375 
Q 55.71875 40.765625 55.71875 27.296875 
Q 55.71875 13.875 49.015625 6.21875 
Q 42.328125 -1.421875 30.609375 -1.421875 
Q 18.84375 -1.421875 12.171875 6.21875 
Q 5.515625 13.875 5.515625 27.296875 
Q 5.515625 40.765625 12.171875 48.375 
Q 18.84375 56 30.609375 56 
z
" id="DejaVuSans-111"/>
       <path d="M 45.40625 27.984375 
Q 45.40625 37.75 41.375 43.109375 
Q 37.359375 48.484375 30.078125 48.484375 
Q 22.859375 48.484375 18.828125 43.109375 
Q 14.796875 37.75 14.796875 27.984375 
Q 14.796875 18.265625 18.828125 12.890625 
Q 22.859375 7.515625 30.078125 7.515625 
Q 37.359375 7.515625 41.375 12.890625 
Q 45.40625 18.265625 45.40625 27.984375 
z
M 54.390625 6.78125 
Q 54.390625 -7.171875 48.1875 -13.984375 
Q 42 -20.796875 29.203125 -20.796875 
Q 24.46875 -20.796875 20.265625 -20.09375 
Q 16.0625 -19.390625 12.109375 -17.921875 
L 12.109375 -9.1875 
Q 16.0625 -11.328125 19.921875 -12.34375 
Q 23.78125 -13.375 27.78125 -13.375 
Q 36.625 -13.375 41.015625 -8.765625 
Q 45.40625 -4.15625 45.40625 5.171875 
L 45.40625 9.625 
Q 42.625 4.78125 38.28125 2.390625 
Q 33.9375 0 27.875 0 
Q 17.828125 0 11.671875 7.65625 
Q 5.515625 15.328125 5.515625 27.984375 
Q 5.515625 40.671875 11.671875 48.328125 
Q 17.828125 56 27.875 56 
Q 33.9375 56 38.28125 53.609375 
Q 42.625 51.21875 45.40625 46.390625 
L 45.40625 54.6875 
L 54.390625 54.6875 
z
" id="DejaVuSans-103"/>
       <path d="M 12.40625 8.296875 
L 28.515625 8.296875 
L 28.515625 63.921875 
L 10.984375 60.40625 
L 10.984375 69.390625 
L 28.421875 72.90625 
L 38.28125 72.90625 
L 38.28125 8.296875 
L 54.390625 8.296875 
L 54.390625 0 
L 12.40625 0 
z
" id="DejaVuSans-49"/>
       <path d="M 31 75.875 
Q 24.46875 64.65625 21.28125 53.65625 
Q 18.109375 42.671875 18.109375 31.390625 
Q 18.109375 20.125 21.3125 9.0625 
Q 24.515625 -2 31 -13.1875 
L 23.1875 -13.1875 
Q 15.875 -1.703125 12.234375 9.375 
Q 8.59375 20.453125 8.59375 31.390625 
Q 8.59375 42.28125 12.203125 53.3125 
Q 15.828125 64.359375 23.1875 75.875 
z
" id="DejaVuSans-40"/>
       <path d="M 51.125 44 
L 36.921875 44 
L 32.8125 27.6875 
L 47.125 27.6875 
z
M 43.796875 71.78125 
L 38.71875 51.515625 
L 52.984375 51.515625 
L 58.109375 71.78125 
L 65.921875 71.78125 
L 60.890625 51.515625 
L 76.125 51.515625 
L 76.125 44 
L 58.984375 44 
L 54.984375 27.6875 
L 70.515625 27.6875 
L 70.515625 20.21875 
L 53.078125 20.21875 
L 48 0 
L 40.1875 0 
L 45.21875 20.21875 
L 30.90625 20.21875 
L 25.875 0 
L 18.015625 0 
L 23.09375 20.21875 
L 7.71875 20.21875 
L 7.71875 27.6875 
L 24.90625 27.6875 
L 29 44 
L 13.28125 44 
L 13.28125 51.515625 
L 30.90625 51.515625 
L 35.890625 71.78125 
z
" id="DejaVuSans-35"/>
       <path id="DejaVuSans-32"/>
       <path d="M 37.109375 75.984375 
L 37.109375 68.5 
L 28.515625 68.5 
Q 23.6875 68.5 21.796875 66.546875 
Q 19.921875 64.59375 19.921875 59.515625 
L 19.921875 54.6875 
L 34.71875 54.6875 
L 34.71875 47.703125 
L 19.921875 47.703125 
L 19.921875 0 
L 10.890625 0 
L 10.890625 47.703125 
L 2.296875 47.703125 
L 2.296875 54.6875 
L 10.890625 54.6875 
L 10.890625 58.5 
Q 10.890625 67.625 15.140625 71.796875 
Q 19.390625 75.984375 28.609375 75.984375 
z
" id="DejaVuSans-102"/>
       <path d="M 4.890625 31.390625 
L 31.203125 31.390625 
L 31.203125 23.390625 
L 4.890625 23.390625 
z
" id="DejaVuSans-45"/>
       <path d="M 56.203125 29.59375 
L 56.203125 25.203125 
L 14.890625 25.203125 
Q 15.484375 15.921875 20.484375 11.0625 
Q 25.484375 6.203125 34.421875 6.203125 
Q 39.59375 6.203125 44.453125 7.46875 
Q 49.3125 8.734375 54.109375 11.28125 
L 54.109375 2.78125 
Q 49.265625 0.734375 44.1875 -0.34375 
Q 39.109375 -1.421875 33.890625 -1.421875 
Q 20.796875 -1.421875 13.15625 6.1875 
Q 5.515625 13.8125 5.515625 26.8125 
Q 5.515625 40.234375 12.765625 48.109375 
Q 20.015625 56 32.328125 56 
Q 43.359375 56 49.78125 48.890625 
Q 56.203125 41.796875 56.203125 29.59375 
z
M 47.21875 32.234375 
Q 47.125 39.59375 43.09375 43.984375 
Q 39.0625 48.390625 32.421875 48.390625 
Q 24.90625 48.390625 20.390625 44.140625 
Q 15.875 39.890625 15.1875 32.171875 
z
" id="DejaVuSans-101"/>
       <path d="M 2.984375 54.6875 
L 12.5 54.6875 
L 29.59375 8.796875 
L 46.6875 54.6875 
L 56.203125 54.6875 
L 35.6875 0 
L 23.484375 0 
z
" id="DejaVuSans-118"/>
       <path d="M 34.28125 27.484375 
Q 23.390625 27.484375 19.1875 25 
Q 14.984375 22.515625 14.984375 16.5 
Q 14.984375 11.71875 18.140625 8.90625 
Q 21.296875 6.109375 26.703125 6.109375 
Q 34.1875 6.109375 38.703125 11.40625 
Q 43.21875 16.703125 43.21875 25.484375 
L 43.21875 27.484375 
z
M 52.203125 31.203125 
L 52.203125 0 
L 43.21875 0 
L 43.21875 8.296875 
Q 40.140625 3.328125 35.546875 0.953125 
Q 30.953125 -1.421875 24.3125 -1.421875 
Q 15.921875 -1.421875 10.953125 3.296875 
Q 6 8.015625 6 15.921875 
Q 6 25.140625 12.171875 29.828125 
Q 18.359375 34.515625 30.609375 34.515625 
L 43.21875 34.515625 
L 43.21875 35.40625 
Q 43.21875 41.609375 39.140625 45 
Q 35.0625 48.390625 27.6875 48.390625 
Q 23 48.390625 18.546875 47.265625 
Q 14.109375 46.140625 10.015625 43.890625 
L 10.015625 52.203125 
Q 14.9375 54.109375 19.578125 55.046875 
Q 24.21875 56 28.609375 56 
Q 40.484375 56 46.34375 49.84375 
Q 52.203125 43.703125 52.203125 31.203125 
z
" id="DejaVuSans-97"/>
       <path d="M 44.28125 53.078125 
L 44.28125 44.578125 
Q 40.484375 46.53125 36.375 47.5 
Q 32.28125 48.484375 27.875 48.484375 
Q 21.1875 48.484375 17.84375 46.4375 
Q 14.5 44.390625 14.5 40.28125 
Q 14.5 37.15625 16.890625 35.375 
Q 19.28125 33.59375 26.515625 31.984375 
L 29.59375 31.296875 
Q 39.15625 29.25 43.1875 25.515625 
Q 47.21875 21.78125 47.21875 15.09375 
Q 47.21875 7.46875 41.1875 3.015625 
Q 35.15625 -1.421875 24.609375 -1.421875 
Q 20.21875 -1.421875 15.453125 -0.5625 
Q 10.6875 0.296875 5.421875 2 
L 5.421875 11.28125 
Q 10.40625 8.6875 15.234375 7.390625 
Q 20.0625 6.109375 24.8125 6.109375 
Q 31.15625 6.109375 34.5625 8.28125 
Q 37.984375 10.453125 37.984375 14.40625 
Q 37.984375 18.0625 35.515625 20.015625 
Q 33.0625 21.96875 24.703125 23.78125 
L 21.578125 24.515625 
Q 13.234375 26.265625 9.515625 29.90625 
Q 5.8125 33.546875 5.8125 39.890625 
Q 5.8125 47.609375 11.28125 51.796875 
Q 16.75 56 26.8125 56 
Q 31.78125 56 36.171875 55.265625 
Q 40.578125 54.546875 44.28125 53.078125 
z
" id="DejaVuSans-115"/>
       <path d="M 25.390625 72.90625 
L 33.6875 72.90625 
L 8.296875 -9.28125 
L 0 -9.28125 
z
" id="DejaVuSans-47"/>
       <path d="M 45.40625 46.390625 
L 45.40625 75.984375 
L 54.390625 75.984375 
L 54.390625 0 
L 45.40625 0 
L 45.40625 8.203125 
Q 42.578125 3.328125 38.25 0.953125 
Q 33.9375 -1.421875 27.875 -1.421875 
Q 17.96875 -1.421875 11.734375 6.484375 
Q 5.515625 14.40625 5.515625 27.296875 
Q 5.515625 40.1875 11.734375 48.09375 
Q 17.96875 56 27.875 56 
Q 33.9375 56 38.25 53.625 
Q 42.578125 51.265625 45.40625 46.390625 
z
M 14.796875 27.296875 
Q 14.796875 17.390625 18.875 11.75 
Q 22.953125 6.109375 30.078125 6.109375 
Q 37.203125 6.109375 41.296875 11.75 
Q 45.40625 17.390625 45.40625 27.296875 
Q 45.40625 37.203125 41.296875 42.84375 
Q 37.203125 48.484375 30.078125 48.484375 
Q 22.953125 48.484375 18.875 42.84375 
Q 14.796875 37.203125 14.796875 27.296875 
z
" id="DejaVuSans-100"/>
       <path d="M 9.421875 54.6875 
L 18.40625 54.6875 
L 18.40625 0 
L 9.421875 0 
z
M 9.421875 75.984375 
L 18.40625 75.984375 
L 18.40625 64.59375 
L 9.421875 64.59375 
z
" id="DejaVuSans-105"/>
       <path d="M 52 44.1875 
Q 55.375 50.25 60.0625 53.125 
Q 64.75 56 71.09375 56 
Q 79.640625 56 84.28125 50.015625 
Q 88.921875 44.046875 88.921875 33.015625 
L 88.921875 0 
L 79.890625 0 
L 79.890625 32.71875 
Q 79.890625 40.578125 77.09375 44.375 
Q 74.3125 48.1875 68.609375 48.1875 
Q 61.625 48.1875 57.5625 43.546875 
Q 53.515625 38.921875 53.515625 30.90625 
L 53.515625 0 
L 44.484375 0 
L 44.484375 32.71875 
Q 44.484375 40.625 41.703125 44.40625 
Q 38.921875 48.1875 33.109375 48.1875 
Q 26.21875 48.1875 22.15625 43.53125 
Q 18.109375 38.875 18.109375 30.90625 
L 18.109375 0 
L 9.078125 0 
L 9.078125 54.6875 
L 18.109375 54.6875 
L 18.109375 46.1875 
Q 21.1875 51.21875 25.484375 53.609375 
Q 29.78125 56 35.6875 56 
Q 41.65625 56 45.828125 52.96875 
Q 50 49.953125 52 44.1875 
z
" id="DejaVuSans-109"/>
       <path d="M 54.890625 33.015625 
L 54.890625 0 
L 45.90625 0 
L 45.90625 32.71875 
Q 45.90625 40.484375 42.875 44.328125 
Q 39.84375 48.1875 33.796875 48.1875 
Q 26.515625 48.1875 22.3125 43.546875 
Q 18.109375 38.921875 18.109375 30.90625 
L 18.109375 0 
L 9.078125 0 
L 9.078125 54.6875 
L 18.109375 54.6875 
L 18.109375 46.1875 
Q 21.34375 51.125 25.703125 53.5625 
Q 30.078125 56 35.796875 56 
Q 45.21875 56 50.046875 50.171875 
Q 54.890625 44.34375 54.890625 33.015625 
z
" id="DejaVuSans-110"/>
       <path d="M 8.015625 75.875 
L 15.828125 75.875 
Q 23.140625 64.359375 26.78125 53.3125 
Q 30.421875 42.28125 30.421875 31.390625 
Q 30.421875 20.453125 26.78125 9.375 
Q 23.140625 -1.703125 15.828125 -13.1875 
L 8.015625 -13.1875 
Q 14.5 -2 17.703125 9.0625 
Q 20.90625 20.125 20.90625 31.390625 
Q 20.90625 42.671875 17.703125 53.65625 
Q 14.5 64.65625 8.015625 75.875 
z
" id="DejaVuSans-41"/>
      </defs>
      <use xlink:href="#DejaVuSans-108"/>
      <use x="27.783203" xlink:href="#DejaVuSans-111"/>
      <use x="88.964844" xlink:href="#DejaVuSans-103"/>
      <use x="152.441406" xlink:href="#DejaVuSans-49"/>
      <use x="216.064453" xlink:href="#DejaVuSans-48"/>
      <use x="279.6875" xlink:href="#DejaVuSans-40"/>
      <use x="318.701172" xlink:href="#DejaVuSans-35"/>
      <use x="402.490234" xlink:href="#DejaVuSans-32"/>
      <use x="434.277344" xlink:href="#DejaVuSans-102"/>
      <use x="463.982422" xlink:href="#DejaVuSans-45"/>
      <use x="500.066406" xlink:href="#DejaVuSans-101"/>
      <use x="561.589844" xlink:href="#DejaVuSans-118"/>
      <use x="620.769531" xlink:href="#DejaVuSans-97"/>
      <use x="682.048828" xlink:href="#DejaVuSans-108"/>
      <use x="709.832031" xlink:href="#DejaVuSans-115"/>
      <use x="761.931641" xlink:href="#DejaVuSans-32"/>
      <use x="793.71875" xlink:href="#DejaVuSans-47"/>
      <use x="827.410156" xlink:href="#DejaVuSans-32"/>
      <use x="859.197266" xlink:href="#DejaVuSans-100"/>
      <use x="922.673828" xlink:href="#DejaVuSans-105"/>
      <use x="950.457031" xlink:href="#DejaVuSans-109"/>
      <use x="1047.869141" xlink:href="#DejaVuSans-101"/>
      <use x="1109.392578" xlink:href="#DejaVuSans-110"/>
      <use x="1172.771484" xlink:href="#DejaVuSans-115"/>
      <use x="1224.871094" xlink:href="#DejaVuSans-105"/>
      <use x="1252.654297" xlink:href="#DejaVuSans-111"/>
      <use x="1313.835938" xlink:href="#DejaVuSans-110"/>
      <use x="1377.214844" xlink:href="#DejaVuSans-41"/>
     </g>
    </g>
   </g>
   <g id="matplotlib.axis_2">
    <g id="ytick_1">
     <g id="line2d_17">
      <path clip-path="url(#pe5d4394b96)" d="M 57.6 298.944 
L 338.688 298.944 
" style="fill:none;stroke:#b0b0b0;stroke-linecap:square;stroke-width:0.8;"/>
     </g>
     <g id="line2d_18">
      <defs>
       <path d="M 0 0 
L -3.5 0 
" id="md9e1851c7a" style="stroke:#000000;stroke-width:0.8;"/>
      </defs>
      <g>
       <use style="stroke:#000000;stroke-width:0.8;" x="57.6" xlink:href="#md9e1851c7a" y="298.944"/>
      </g>
     </g>
     <g id="text_6">
      <!-- 0.0 -->
      <g transform="translate(25.155 305.02275)scale(0.16 -0.16)">
       <defs>
        <path d="M 10.6875 12.40625 
L 21 12.40625 
L 21 0 
L 10.6875 0 
z
" id="DejaVuSans-46"/>
       </defs>
       <use xlink:href="#DejaVuSans-48"/>
       <use x="63.623047" xlink:href="#DejaVuSans-46"/>
       <use x="95.410156" xlink:href="#DejaVuSans-48"/>
      </g>
     </g>
    </g>
    <g id="ytick_2">
     <g id="line2d_19">
      <path clip-path="url(#pe5d4394b96)" d="M 57.6 245.22202 
L 338.688 245.22202 
" style="fill:none;stroke:#b0b0b0;stroke-linecap:square;stroke-width:0.8;"/>
     </g>
     <g id="line2d_20">
      <g>
       <use style="stroke:#000000;stroke-width:0.8;" x="57.6" xlink:href="#md9e1851c7a" y="245.22202"/>
      </g>
     </g>
     <g id="text_7">
      <!-- 0.2 -->
      <g transform="translate(25.155 251.30077)scale(0.16 -0.16)">
       <use xlink:href="#DejaVuSans-48"/>
       <use x="63.623047" xlink:href="#DejaVuSans-46"/>
       <use x="95.410156" xlink:href="#DejaVuSans-50"/>
      </g>
     </g>
    </g>
    <g id="ytick_3">
     <g id="line2d_21">
      <path clip-path="url(#pe5d4394b96)" d="M 57.6 191.50004 
L 338.688 191.50004 
" style="fill:none;stroke:#b0b0b0;stroke-linecap:square;stroke-width:0.8;"/>
     </g>
     <g id="line2d_22">
      <g>
       <use style="stroke:#000000;stroke-width:0.8;" x="57.6" xlink:href="#md9e1851c7a" y="191.50004"/>
      </g>
     </g>
     <g id="text_8">
      <!-- 0.4 -->
      <g transform="translate(25.155 197.57879)scale(0.16 -0.16)">
       <use xlink:href="#DejaVuSans-48"/>
       <use x="63.623047" xlink:href="#DejaVuSans-46"/>
       <use x="95.410156" xlink:href="#DejaVuSans-52"/>
      </g>
     </g>
    </g>
    <g id="ytick_4">
     <g id="line2d_23">
      <path clip-path="url(#pe5d4394b96)" d="M 57.6 137.778059 
L 338.688 137.778059 
" style="fill:none;stroke:#b0b0b0;stroke-linecap:square;stroke-width:0.8;"/>
     </g>
     <g id="line2d_24">
      <g>
       <use style="stroke:#000000;stroke-width:0.8;" x="57.6" xlink:href="#md9e1851c7a" y="137.778059"/>
      </g>
     </g>
     <g id="text_9">
      <!-- 0.6 -->
      <g transform="translate(25.155 143.856809)scale(0.16 -0.16)">
       <use xlink:href="#DejaVuSans-48"/>
       <use x="63.623047" xlink:href="#DejaVuSans-46"/>
       <use x="95.410156" xlink:href="#DejaVuSans-54"/>
      </g>
     </g>
    </g>
    <g id="ytick_5">
     <g id="line2d_25">
      <path clip-path="url(#pe5d4394b96)" d="M 57.6 84.056079 
L 338.688 84.056079 
" style="fill:none;stroke:#b0b0b0;stroke-linecap:square;stroke-width:0.8;"/>
     </g>
     <g id="line2d_26">
      <g>
       <use style="stroke:#000000;stroke-width:0.8;" x="57.6" xlink:href="#md9e1851c7a" y="84.056079"/>
      </g>
     </g>
     <g id="text_10">
      <!-- 0.8 -->
      <g transform="translate(25.155 90.134829)scale(0.16 -0.16)">
       <defs>
        <path d="M 31.78125 34.625 
Q 24.75 34.625 20.71875 30.859375 
Q 16.703125 27.09375 16.703125 20.515625 
Q 16.703125 13.921875 20.71875 10.15625 
Q 24.75 6.390625 31.78125 6.390625 
Q 38.8125 6.390625 42.859375 10.171875 
Q 46.921875 13.96875 46.921875 20.515625 
Q 46.921875 27.09375 42.890625 30.859375 
Q 38.875 34.625 31.78125 34.625 
z
M 21.921875 38.8125 
Q 15.578125 40.375 12.03125 44.71875 
Q 8.5 49.078125 8.5 55.328125 
Q 8.5 64.0625 14.71875 69.140625 
Q 20.953125 74.21875 31.78125 74.21875 
Q 42.671875 74.21875 48.875 69.140625 
Q 55.078125 64.0625 55.078125 55.328125 
Q 55.078125 49.078125 51.53125 44.71875 
Q 48 40.375 41.703125 38.8125 
Q 48.828125 37.15625 52.796875 32.3125 
Q 56.78125 27.484375 56.78125 20.515625 
Q 56.78125 9.90625 50.3125 4.234375 
Q 43.84375 -1.421875 31.78125 -1.421875 
Q 19.734375 -1.421875 13.25 4.234375 
Q 6.78125 9.90625 6.78125 20.515625 
Q 6.78125 27.484375 10.78125 32.3125 
Q 14.796875 37.15625 21.921875 38.8125 
z
M 18.3125 54.390625 
Q 18.3125 48.734375 21.84375 45.5625 
Q 25.390625 42.390625 31.78125 42.390625 
Q 38.140625 42.390625 41.71875 45.5625 
Q 45.3125 48.734375 45.3125 54.390625 
Q 45.3125 60.0625 41.71875 63.234375 
Q 38.140625 66.40625 31.78125 66.40625 
Q 25.390625 66.40625 21.84375 63.234375 
Q 18.3125 60.0625 18.3125 54.390625 
z
" id="DejaVuSans-56"/>
       </defs>
       <use xlink:href="#DejaVuSans-48"/>
       <use x="63.623047" xlink:href="#DejaVuSans-46"/>
       <use x="95.410156" xlink:href="#DejaVuSans-56"/>
      </g>
     </g>
    </g>
    <g id="ytick_6">
     <g id="line2d_27">
      <path clip-path="url(#pe5d4394b96)" d="M 57.6 30.334099 
L 338.688 30.334099 
" style="fill:none;stroke:#b0b0b0;stroke-linecap:square;stroke-width:0.8;"/>
     </g>
     <g id="line2d_28">
      <g>
       <use style="stroke:#000000;stroke-width:0.8;" x="57.6" xlink:href="#md9e1851c7a" y="30.334099"/>
      </g>
     </g>
     <g id="text_11">
      <!-- 1.0 -->
      <g transform="translate(25.155 36.412849)scale(0.16 -0.16)">
       <use xlink:href="#DejaVuSans-49"/>
       <use x="63.623047" xlink:href="#DejaVuSans-46"/>
       <use x="95.410156" xlink:href="#DejaVuSans-48"/>
      </g>
     </g>
    </g>
    <g id="text_12">
     <!-- Fraction of function,target pairs -->
     <g transform="translate(17.619531 297.681)rotate(-90)scale(0.17 -0.17)">
      <defs>
       <path d="M 9.8125 72.90625 
L 51.703125 72.90625 
L 51.703125 64.59375 
L 19.671875 64.59375 
L 19.671875 43.109375 
L 48.578125 43.109375 
L 48.578125 34.8125 
L 19.671875 34.8125 
L 19.671875 0 
L 9.8125 0 
z
" id="DejaVuSans-70"/>
       <path d="M 41.109375 46.296875 
Q 39.59375 47.171875 37.8125 47.578125 
Q 36.03125 48 33.890625 48 
Q 26.265625 48 22.1875 43.046875 
Q 18.109375 38.09375 18.109375 28.8125 
L 18.109375 0 
L 9.078125 0 
L 9.078125 54.6875 
L 18.109375 54.6875 
L 18.109375 46.1875 
Q 20.953125 51.171875 25.484375 53.578125 
Q 30.03125 56 36.53125 56 
Q 37.453125 56 38.578125 55.875 
Q 39.703125 55.765625 41.0625 55.515625 
z
" id="DejaVuSans-114"/>
       <path d="M 48.78125 52.59375 
L 48.78125 44.1875 
Q 44.96875 46.296875 41.140625 47.34375 
Q 37.3125 48.390625 33.40625 48.390625 
Q 24.65625 48.390625 19.8125 42.84375 
Q 14.984375 37.3125 14.984375 27.296875 
Q 14.984375 17.28125 19.8125 11.734375 
Q 24.65625 6.203125 33.40625 6.203125 
Q 37.3125 6.203125 41.140625 7.25 
Q 44.96875 8.296875 48.78125 10.40625 
L 48.78125 2.09375 
Q 45.015625 0.34375 40.984375 -0.53125 
Q 36.96875 -1.421875 32.421875 -1.421875 
Q 20.0625 -1.421875 12.78125 6.34375 
Q 5.515625 14.109375 5.515625 27.296875 
Q 5.515625 40.671875 12.859375 48.328125 
Q 20.21875 56 33.015625 56 
Q 37.15625 56 41.109375 55.140625 
Q 45.0625 54.296875 48.78125 52.59375 
z
" id="DejaVuSans-99"/>
       <path d="M 18.3125 70.21875 
L 18.3125 54.6875 
L 36.8125 54.6875 
L 36.8125 47.703125 
L 18.3125 47.703125 
L 18.3125 18.015625 
Q 18.3125 11.328125 20.140625 9.421875 
Q 21.96875 7.515625 27.59375 7.515625 
L 36.8125 7.515625 
L 36.8125 0 
L 27.59375 0 
Q 17.1875 0 13.234375 3.875 
Q 9.28125 7.765625 9.28125 18.015625 
L 9.28125 47.703125 
L 2.6875 47.703125 
L 2.6875 54.6875 
L 9.28125 54.6875 
L 9.28125 70.21875 
z
" id="DejaVuSans-116"/>
       <path d="M 8.5 21.578125 
L 8.5 54.6875 
L 17.484375 54.6875 
L 17.484375 21.921875 
Q 17.484375 14.15625 20.5 10.265625 
Q 23.53125 6.390625 29.59375 6.390625 
Q 36.859375 6.390625 41.078125 11.03125 
Q 45.3125 15.671875 45.3125 23.6875 
L 45.3125 54.6875 
L 54.296875 54.6875 
L 54.296875 0 
L 45.3125 0 
L 45.3125 8.40625 
Q 42.046875 3.421875 37.71875 1 
Q 33.40625 -1.421875 27.6875 -1.421875 
Q 18.265625 -1.421875 13.375 4.4375 
Q 8.5 10.296875 8.5 21.578125 
z
M 31.109375 56 
z
" id="DejaVuSans-117"/>
       <path d="M 11.71875 12.40625 
L 22.015625 12.40625 
L 22.015625 4 
L 14.015625 -11.625 
L 7.71875 -11.625 
L 11.71875 4 
z
" id="DejaVuSans-44"/>
       <path d="M 18.109375 8.203125 
L 18.109375 -20.796875 
L 9.078125 -20.796875 
L 9.078125 54.6875 
L 18.109375 54.6875 
L 18.109375 46.390625 
Q 20.953125 51.265625 25.265625 53.625 
Q 29.59375 56 35.59375 56 
Q 45.5625 56 51.78125 48.09375 
Q 58.015625 40.1875 58.015625 27.296875 
Q 58.015625 14.40625 51.78125 6.484375 
Q 45.5625 -1.421875 35.59375 -1.421875 
Q 29.59375 -1.421875 25.265625 0.953125 
Q 20.953125 3.328125 18.109375 8.203125 
z
M 48.6875 27.296875 
Q 48.6875 37.203125 44.609375 42.84375 
Q 40.53125 48.484375 33.40625 48.484375 
Q 26.265625 48.484375 22.1875 42.84375 
Q 18.109375 37.203125 18.109375 27.296875 
Q 18.109375 17.390625 22.1875 11.75 
Q 26.265625 6.109375 33.40625 6.109375 
Q 40.53125 6.109375 44.609375 11.75 
Q 48.6875 17.390625 48.6875 27.296875 
z
" id="DejaVuSans-112"/>
      </defs>
      <use xlink:href="#DejaVuSans-70"/>
      <use x="50.269531" xlink:href="#DejaVuSans-114"/>
      <use x="91.382812" xlink:href="#DejaVuSans-97"/>
      <use x="152.662109" xlink:href="#DejaVuSans-99"/>
      <use x="207.642578" xlink:href="#DejaVuSans-116"/>
      <use x="246.851562" xlink:href="#DejaVuSans-105"/>
      <use x="274.634766" xlink:href="#DejaVuSans-111"/>
      <use x="335.816406" xlink:href="#DejaVuSans-110"/>
      <use x="399.195312" xlink:href="#DejaVuSans-32"/>
      <use x="430.982422" xlink:href="#DejaVuSans-111"/>
      <use x="492.164062" xlink:href="#DejaVuSans-102"/>
      <use x="527.369141" xlink:href="#DejaVuSans-32"/>
      <use x="559.15625" xlink:href="#DejaVuSans-102"/>
      <use x="594.361328" xlink:href="#DejaVuSans-117"/>
      <use x="657.740234" xlink:href="#DejaVuSans-110"/>
      <use x="721.119141" xlink:href="#DejaVuSans-99"/>
      <use x="776.099609" xlink:href="#DejaVuSans-116"/>
      <use x="815.308594" xlink:href="#DejaVuSans-105"/>
      <use x="843.091797" xlink:href="#DejaVuSans-111"/>
      <use x="904.273438" xlink:href="#DejaVuSans-110"/>
      <use x="967.652344" xlink:href="#DejaVuSans-44"/>
      <use x="999.439453" xlink:href="#DejaVuSans-116"/>
      <use x="1038.648438" xlink:href="#DejaVuSans-97"/>
      <use x="1099.927734" xlink:href="#DejaVuSans-114"/>
      <use x="1139.291016" xlink:href="#DejaVuSans-103"/>
      <use x="1202.767578" xlink:href="#DejaVuSans-101"/>
      <use x="1264.291016" xlink:href="#DejaVuSans-116"/>
      <use x="1303.5" xlink:href="#DejaVuSans-32"/>
      <use x="1335.287109" xlink:href="#DejaVuSans-112"/>
      <use x="1398.763672" xlink:href="#DejaVuSans-97"/>
      <use x="1460.042969" xlink:href="#DejaVuSans-105"/>
      <use x="1487.826172" xlink:href="#DejaVuSans-114"/>
      <use x="1528.939453" xlink:href="#DejaVuSans-115"/>
     </g>
    </g>
   </g>
   <g id="line2d_29">
    <defs>
     <path d="M 0 1.5 
C 0.397805 1.5 0.77937 1.341951 1.06066 1.06066 
C 1.341951 0.77937 1.5 0.397805 1.5 0 
C 1.5 -0.397805 1.341951 -0.77937 1.06066 -1.06066 
C 0.77937 -1.341951 0.397805 -1.5 0 -1.5 
C -0.397805 -1.5 -0.77937 -1.341951 -1.06066 -1.06066 
C -1.341951 -0.77937 -1.5 -0.397805 -1.5 0 
C -1.5 0.397805 -1.341951 0.77937 -1.06066 1.06066 
C -0.77937 1.341951 -0.397805 1.5 0 1.5 
z
" id="m695e7b9596" style="stroke:#00bfbf;"/>
    </defs>
    <g>
     <use style="fill:#00bfbf;stroke:#00bfbf;" x="248.930631" xlink:href="#m695e7b9596" y="62.752535"/>
     <use style="fill:#00bfbf;stroke:#00bfbf;" x="248.930631" xlink:href="#m695e7b9596" y="62.752535"/>
    </g>
   </g>
   <g id="line2d_30">
    <path d="M 45.512012 298.944 
L 45.512012 291.070951 
L 99.41757 291.070951 
L 99.41757 290.607831 
L 106.48859 290.607831 
L 106.48859 290.14471 
L 108.948899 290.14471 
L 108.948899 289.68159 
L 111.104637 289.68159 
L 111.104637 289.218469 
L 113.022974 289.218469 
L 113.022974 288.292228 
L 114.751048 288.292228 
L 114.751048 287.829108 
L 116.323218 287.829108 
L 116.323218 286.902867 
L 117.765302 286.902867 
L 117.765302 285.976625 
L 119.097192 285.976625 
L 119.097192 284.124143 
L 120.33454 284.124143 
L 120.33454 280.8823 
L 121.489881 280.8823 
L 121.489881 279.029818 
L 122.573415 279.029818 
L 122.573415 277.640456 
L 123.593547 277.640456 
L 123.593547 276.714215 
L 124.557288 276.714215 
L 124.557288 276.251095 
L 126.338353 276.251095 
L 126.338353 275.787974 
L 127.165014 275.787974 
L 127.165014 275.324854 
L 128.709321 275.324854 
L 128.709321 274.398612 
L 129.433047 274.398612 
L 129.433047 273.472371 
L 130.127931 273.472371 
L 130.127931 273.009251 
L 130.796184 273.009251 
L 130.796184 272.08301 
L 132.659801 272.08301 
L 132.659801 271.156769 
L 133.800029 271.156769 
L 133.800029 270.230528 
L 134.870259 270.230528 
L 134.870259 268.841166 
L 135.381712 268.841166 
L 135.381712 267.914925 
L 135.878591 267.914925 
L 135.878591 267.451805 
L 136.361705 267.451805 
L 136.361705 266.988684 
L 136.831795 266.988684 
L 136.831795 266.525564 
L 137.735587 266.525564 
L 137.735587 264.209961 
L 139.009092 264.209961 
L 139.009092 263.746841 
L 139.413734 263.746841 
L 139.413734 262.8206 
L 139.8092 262.8206 
L 139.8092 262.357479 
L 140.574203 262.357479 
L 140.574203 259.115635 
L 140.944478 259.115635 
L 140.944478 257.263153 
L 141.307054 257.263153 
L 141.307054 256.336912 
L 141.662245 256.336912 
L 141.662245 255.410671 
L 142.010346 255.410671 
L 142.07914 253.095069 
L 142.215919 253.095069 
L 142.215919 252.631948 
L 143.653678 252.631948 
L 143.653678 252.168828 
L 144.269971 252.168828 
L 144.269971 251.705707 
L 144.865226 251.705707 
L 144.865226 250.316346 
L 145.440832 250.316346 
L 145.440832 248.463863 
L 145.998045 248.463863 
L 145.998045 248.000743 
L 146.270114 248.000743 
L 146.270114 247.074502 
L 146.538004 247.074502 
L 146.538004 246.148261 
L 148.354135 246.148261 
L 148.354135 245.22202 
L 149.012299 245.22202 
L 149.012299 244.295779 
L 149.241465 244.295779 
L 149.332295 242.906417 
L 149.911431 242.906417 
L 149.911431 241.980176 
L 150.129152 241.980176 
L 150.129152 241.517056 
L 151.178764 241.517056 
L 151.178764 240.590815 
L 152.662192 240.590815 
L 152.736878 239.201453 
L 153.105587 239.201453 
L 153.105587 238.738333 
L 153.644434 238.738333 
L 153.644434 238.275212 
L 154.337936 238.275212 
L 154.337936 237.812091 
L 155.004911 237.812091 
L 155.004911 236.88585 
L 155.167744 236.88585 
L 155.167744 236.42273 
L 155.393186 236.42273 
L 155.425155 235.496489 
L 155.584129 235.496489 
L 155.584129 229.939043 
L 155.959855 229.939043 
L 155.959855 229.475922 
L 156.776762 229.475922 
L 156.776762 229.012802 
L 159.046236 229.012802 
L 159.046236 228.086561 
L 161.329454 228.086561 
L 161.329454 227.16032 
L 163.185069 227.16032 
L 163.185069 226.697199 
L 163.649606 226.697199 
L 163.689421 225.307837 
L 164.314412 225.307837 
L 164.314412 224.844717 
L 164.917777 224.844717 
L 164.917777 222.529114 
L 165.320804 222.529114 
L 165.320804 222.065994 
L 165.483031 222.065994 
L 165.483031 219.750391 
L 166.030537 219.750391 
L 166.030537 217.434789 
L 166.945039 217.434789 
L 166.945039 216.971668 
L 167.271933 216.971668 
L 167.320442 216.045427 
L 167.735303 216.045427 
L 167.735303 214.656066 
L 168.248032 214.656066 
L 168.248032 213.729825 
L 168.46108 213.729825 
L 168.566635 212.340463 
L 169.673338 212.340463 
L 169.743743 210.951101 
L 173.699729 210.951101 
L 173.699729 210.02486 
L 173.955458 210.02486 
L 173.955458 207.709258 
L 174.250953 207.709258 
L 174.250953 207.246137 
L 178.522409 207.246137 
L 178.522409 205.393655 
L 179.815406 205.393655 
L 179.815406 204.930535 
L 180.404784 204.930535 
L 180.442869 204.004294 
L 181.584061 204.004294 
L 181.584061 203.078053 
L 183.241666 203.078053 
L 183.241666 202.614932 
L 183.41577 202.614932 
L 183.486206 201.688691 
L 183.752557 201.688691 
L 183.752557 200.76245 
L 184.058243 200.76245 
L 184.058243 200.299329 
L 184.175348 200.299329 
L 184.175348 199.836209 
L 184.382961 199.836209 
L 184.382961 199.373088 
L 184.636058 199.373088 
L 184.737466 197.983727 
L 185.137306 197.983727 
L 185.183749 196.131245 
L 185.32809 196.131245 
L 185.32809 195.668124 
L 185.692252 195.668124 
L 185.709137 193.815642 
L 185.888232 193.815642 
L 185.993706 191.96316 
L 186.065507 191.96316 
L 186.175396 190.573799 
L 186.355212 190.573799 
L 186.366051 189.184437 
L 186.533193 189.184437 
L 186.543922 186.868834 
L 186.704063 186.868834 
L 186.719997 185.942593 
L 186.894312 185.942593 
L 186.894312 184.553232 
L 187.061696 184.553232 
L 187.061696 184.090111 
L 187.386613 184.090111 
L 187.386613 183.626991 
L 187.929906 183.626991 
L 187.929906 183.16387 
L 188.077864 183.16387 
L 188.077864 182.237629 
L 188.586052 182.237629 
L 188.586052 181.774509 
L 188.944859 181.774509 
L 188.944859 180.848268 
L 189.218403 180.848268 
L 189.218403 179.922027 
L 189.33303 179.922027 
L 189.33303 178.995786 
L 189.627582 178.995786 
L 189.627582 178.532665 
L 189.77524 178.532665 
L 189.855258 176.680183 
L 189.921659 176.680183 
L 189.95256 175.753942 
L 190.058093 175.753942 
L 190.058093 173.90146 
L 190.336432 173.90146 
L 190.336432 173.438339 
L 196.718063 173.438339 
L 196.718063 172.975219 
L 197.268838 172.975219 
L 197.268838 172.512098 
L 197.441934 172.512098 
L 197.441934 171.585857 
L 199.372108 171.585857 
L 199.372108 170.659616 
L 201.484882 170.659616 
L 201.484882 170.196496 
L 204.10146 170.196496 
L 204.10146 169.270255 
L 204.462165 169.270255 
L 204.462165 168.807134 
L 204.709913 168.807134 
L 204.811798 166.491532 
L 204.916832 166.491532 
L 204.916832 166.028411 
L 205.215327 166.028411 
L 205.215327 165.565291 
L 205.604337 165.565291 
L 205.604337 164.63905 
L 206.063829 164.63905 
L 206.158124 163.712808 
L 206.276145 163.712808 
L 206.276145 163.249688 
L 206.485907 163.249688 
L 206.485907 162.786567 
L 206.866268 162.786567 
L 206.866268 162.323447 
L 206.979608 162.323447 
L 207.021092 160.470965 
L 207.159762 160.470965 
L 207.159762 160.007844 
L 207.284282 160.007844 
L 207.284282 159.544724 
L 207.414402 159.544724 
L 207.414402 159.081603 
L 207.58212 159.081603 
L 207.58212 158.155362 
L 207.74665 158.155362 
L 207.840201 156.766001 
L 207.923813 156.766001 
L 207.959973 155.376639 
L 208.103867 155.376639 
L 208.203272 153.524157 
L 208.289789 153.524157 
L 208.391207 151.671675 
L 208.490515 151.671675 
L 208.578654 149.356072 
L 208.61197 149.356072 
L 208.61197 147.966711 
L 208.816521 147.966711 
L 208.922363 144.261747 
L 209.130671 144.261747 
L 209.130671 143.798626 
L 209.687099 143.798626 
L 209.687099 142.872385 
L 211.7721 142.872385 
L 211.7721 142.409265 
L 212.026455 142.409265 
L 212.026455 141.946144 
L 213.157013 141.946144 
L 213.221015 141.019903 
L 213.364454 141.019903 
L 213.384027 139.630541 
L 213.487286 139.630541 
L 213.538687 137.778059 
L 215.637038 137.778059 
L 215.637038 136.851818 
L 216.323158 136.851818 
L 216.323158 136.388698 
L 216.623893 136.388698 
L 216.623893 135.925577 
L 217.453403 135.925577 
L 217.453403 135.462457 
L 218.018236 135.462457 
L 218.110622 134.536216 
L 218.17369 134.536216 
L 218.266128 132.683734 
L 218.37278 132.683734 
L 218.37278 132.220613 
L 218.612307 132.220613 
L 218.713479 129.44189 
L 218.746508 129.44189 
L 218.825862 127.589408 
L 218.886401 127.589408 
L 218.982661 125.736926 
L 219.024347 125.736926 
L 219.119023 123.421323 
L 219.137234 123.421323 
L 219.208243 122.495082 
L 219.260078 122.495082 
L 219.303567 120.6426 
L 219.3788 120.6426 
L 219.3788 120.17948 
L 219.568703 120.17948 
L 219.568703 119.716359 
L 219.686952 119.716359 
L 219.792456 117.400757 
L 220.03775 117.400757 
L 220.03775 116.474516 
L 220.208981 116.474516 
L 220.233084 115.085154 
L 220.538848 115.085154 
L 220.538848 114.622033 
L 220.668158 114.622033 
L 220.668158 113.695792 
L 220.821324 113.695792 
L 220.91572 110.453949 
L 221.029662 110.453949 
L 221.029662 109.990828 
L 221.148762 109.990828 
L 221.249472 108.601467 
L 221.497647 108.601467 
L 221.522921 107.675226 
L 221.911111 107.675226 
L 221.944952 106.285864 
L 222.349442 106.285864 
L 222.349442 105.359623 
L 222.882803 105.359623 
L 222.9667 103.970262 
L 223.242824 103.970262 
L 223.330216 102.5809 
L 223.367907 102.5809 
L 223.452739 101.191538 
L 223.576972 101.191538 
L 223.576972 100.265297 
L 223.947589 100.265297 
L 223.947589 99.802177 
L 224.245182 99.802177 
L 224.327705 96.560333 
L 224.59475 96.560333 
L 224.59475 96.097213 
L 224.855979 96.097213 
L 224.855979 95.634092 
L 225.055111 95.634092 
L 225.055111 95.170972 
L 226.481343 95.170972 
L 226.481343 94.707851 
L 227.001845 94.707851 
L 227.069701 93.31849 
L 227.185863 93.31849 
L 227.201501 91.002887 
L 227.742715 91.002887 
L 227.798693 89.150405 
L 227.891593 89.150405 
L 227.891593 88.687284 
L 228.061048 88.687284 
L 228.10563 86.834802 
L 228.623261 86.834802 
L 228.623261 86.371682 
L 228.748157 86.371682 
L 228.748157 85.908561 
L 229.137164 85.908561 
L 229.137164 85.445441 
L 229.409677 85.445441 
L 229.409677 84.98232 
L 229.521332 84.98232 
L 229.626838 82.666718 
L 229.769524 82.666718 
L 229.769524 82.203597 
L 229.941359 82.203597 
L 230.043919 81.277356 
L 230.399718 81.277356 
L 230.483661 79.887995 
L 230.676832 79.887995 
L 230.696885 78.498633 
L 231.020911 78.498633 
L 231.020911 78.035512 
L 231.429621 78.035512 
L 231.429621 77.572392 
L 231.760905 77.572392 
L 231.822177 76.18303 
L 232.314078 76.18303 
L 232.314078 75.71991 
L 232.668397 75.71991 
L 232.668397 75.256789 
L 232.858909 75.256789 
L 232.858909 74.330548 
L 233.556344 74.330548 
L 233.643711 72.478066 
L 234.031883 72.478066 
L 234.031883 72.014946 
L 234.229046 72.014946 
L 234.229046 71.551825 
L 234.44603 71.551825 
L 234.44603 71.088705 
L 234.987803 71.088705 
L 235.005797 69.236223 
L 235.585888 69.236223 
L 235.585888 68.773102 
L 235.746869 68.773102 
L 235.746869 67.846861 
L 235.992827 67.846861 
L 236.039973 65.531258 
L 236.120142 65.531258 
L 236.155412 64.141897 
L 248.182335 64.141897 
L 248.182335 63.215656 
L 248.930631 63.215656 
L 248.930631 62.752535 
L 338.688 62.752535 
L 338.688 62.752535 
" style="fill:none;stroke:#00bfbf;stroke-linecap:square;stroke-width:1.5;"/>
   </g>
   <g id="line2d_31">
    <defs>
     <path d="M -6 0 
L 6 0 
M 0 6 
L 0 -6 
" id="m7a5e0a9621" style="stroke:#00bfbf;stroke-width:1.5;"/>
    </defs>
    <g>
     <use style="fill-opacity:0;stroke:#00bfbf;stroke-width:1.5;" x="128.709321" xlink:href="#m7a5e0a9621" y="275.324854"/>
     <use style="fill-opacity:0;stroke:#00bfbf;stroke-width:1.5;" x="181.584061" xlink:href="#m7a5e0a9621" y="204.004294"/>
     <use style="fill-opacity:0;stroke:#00bfbf;stroke-width:1.5;" x="216.623893" xlink:href="#m7a5e0a9621" y="136.388698"/>
     <use style="fill-opacity:0;stroke:#00bfbf;stroke-width:1.5;" x="248.930631" xlink:href="#m7a5e0a9621" y="63.215656"/>
     <use style="fill-opacity:0;stroke:#00bfbf;stroke-width:1.5;" x="248.930631" xlink:href="#m7a5e0a9621" y="62.752535"/>
     <use style="fill-opacity:0;stroke:#00bfbf;stroke-width:1.5;" x="338.688" xlink:href="#m7a5e0a9621" y="62.752535"/>
    </g>
   </g>
   <g id="line2d_32">
    <path style="fill:none;stroke:#00bfbf;stroke-linecap:square;stroke-width:1.5;"/>
    <g/>
   </g>
   <g id="line2d_33">
    <path clip-path="url(#pe5d4394b96)" d="M 258.377143 62.752535 
" style="fill:none;stroke:#00bfbf;stroke-linecap:square;stroke-width:1.5;"/>
    <defs>
     <path d="M -12 12 
L 12 -12 
M -12 -12 
L 12 12 
" id="medb67a3a07" style="stroke:#00bfbf;"/>
    </defs>
    <g clip-path="url(#pe5d4394b96)">
     <use style="fill:#00bfbf;stroke:#00bfbf;" x="258.377143" xlink:href="#medb67a3a07" y="62.752535"/>
    </g>
   </g>
   <g id="line2d_34">
    <defs>
     <path d="M 0 1.5 
C 0.397805 1.5 0.77937 1.341951 1.06066 1.06066 
C 1.341951 0.77937 1.5 0.397805 1.5 0 
C 1.5 -0.397805 1.341951 -0.77937 1.06066 -1.06066 
C 0.77937 -1.341951 0.397805 -1.5 0 -1.5 
C -0.397805 -1.5 -0.77937 -1.341951 -1.06066 -1.06066 
C -1.341951 -0.77937 -1.5 -0.397805 -1.5 0 
C -1.5 0.397805 -1.341951 0.77937 -1.06066 1.06066 
C -0.77937 1.341951 -0.397805 1.5 0 1.5 
z
" id="m924e6b0013" style="stroke:#008000;"/>
    </defs>
    <g>
     <use style="fill:#008000;stroke:#008000;" x="258.216194" xlink:href="#m924e6b0013" y="144.724867"/>
     <use style="fill:#008000;stroke:#008000;" x="258.216194" xlink:href="#m924e6b0013" y="144.724867"/>
    </g>
   </g>
   <g id="line2d_35">
    <path d="M 38.440992 298.944 
L 38.440992 292.923433 
L 102.330873 292.923433 
L 102.330873 292.460313 
L 105.209745 292.460313 
L 105.209745 291.997192 
L 111.767808 291.997192 
L 111.767808 291.534072 
L 121.340187 291.534072 
L 121.340187 291.070951 
L 122.362027 291.070951 
L 122.362027 290.607831 
L 125.938745 290.607831 
L 125.938745 289.68159 
L 128.209594 289.68159 
L 128.209594 289.218469 
L 128.905271 289.218469 
L 128.905271 288.755349 
L 129.574256 288.755349 
L 129.574256 288.292228 
L 130.218525 288.292228 
L 130.218525 287.829108 
L 130.839837 287.829108 
L 130.839837 287.365987 
L 131.439773 287.365987 
L 131.439773 286.902867 
L 133.124876 286.902867 
L 133.124876 286.439746 
L 133.652238 286.439746 
L 133.652238 285.976625 
L 138.199116 285.976625 
L 138.199116 285.513505 
L 138.594838 285.513505 
L 138.594838 285.050384 
L 139.360321 285.050384 
L 139.360321 284.587264 
L 140.44901 284.587264 
L 140.44901 284.124143 
L 140.79731 284.124143 
L 140.79731 283.661023 
L 141.138789 283.661023 
L 141.138789 282.734782 
L 141.47371 282.734782 
L 141.47371 282.271661 
L 141.80232 282.271661 
L 141.80232 280.8823 
L 142.441528 280.8823 
L 142.441528 279.492938 
L 142.752555 279.492938 
L 142.752555 278.566697 
L 143.653678 278.566697 
L 143.653678 278.103577 
L 144.229555 278.103577 
L 144.229555 277.177336 
L 146.608752 277.177336 
L 146.608752 276.714215 
L 147.570215 276.714215 
L 147.570215 276.251095 
L 147.802521 276.251095 
L 147.802521 275.324854 
L 150.172372 275.324854 
L 150.172372 273.935492 
L 150.31567 273.935492 
L 150.31567 273.009251 
L 151.528368 273.009251 
L 151.528368 272.54613 
L 153.250915 272.54613 
L 153.250915 272.08301 
L 154.281186 272.08301 
L 154.281186 271.619889 
L 154.840544 271.619889 
L 154.840544 271.156769 
L 156.093569 271.156769 
L 156.093569 270.693648 
L 157.528821 270.693648 
L 157.528821 270.230528 
L 157.828215 270.230528 
L 157.828215 269.304287 
L 159.93989 269.304287 
L 159.93989 268.378046 
L 160.94582 268.378046 
L 160.94582 267.914925 
L 161.555647 267.914925 
L 161.555647 266.988684 
L 161.675095 266.988684 
L 161.675095 266.525564 
L 162.658665 266.525564 
L 162.658665 266.062443 
L 162.868358 266.062443 
L 162.896128 265.136202 
L 164.47356 265.136202 
L 164.47356 264.673082 
L 164.985598 264.673082 
L 164.985598 264.209961 
L 166.117256 264.209961 
L 166.117256 263.28372 
L 166.639906 263.28372 
L 166.639906 262.8206 
L 167.384913 262.8206 
L 167.384913 262.357479 
L 168.099393 262.357479 
L 168.099393 261.894358 
L 169.86976 261.894358 
L 169.86976 260.968117 
L 170.837602 260.968117 
L 170.837602 260.041876 
L 171.434392 260.041876 
L 171.434392 259.115635 
L 172.019658 259.115635 
L 172.019658 258.652515 
L 172.585918 258.652515 
L 172.585918 257.726274 
L 177.541091 257.726274 
L 177.541091 257.263153 
L 180.068589 257.263153 
L 180.068589 255.873792 
L 180.579292 255.873792 
L 180.579292 255.410671 
L 180.779458 255.410671 
L 180.779458 254.947551 
L 183.700032 254.947551 
L 183.700032 254.48443 
L 187.745678 254.48443 
L 187.745678 254.02131 
L 188.381333 254.02131 
L 188.381333 253.558189 
L 190.661291 253.558189 
L 190.661291 253.095069 
L 193.540899 253.095069 
L 193.540899 252.631948 
L 195.053128 252.631948 
L 195.053128 252.168828 
L 197.178727 252.168828 
L 197.178727 251.705707 
L 197.871972 251.705707 
L 197.871972 250.779466 
L 198.484712 250.779466 
L 198.536912 249.390104 
L 199.349821 249.390104 
L 199.349821 248.000743 
L 199.544294 248.000743 
L 199.544294 247.074502 
L 199.66938 247.074502 
L 199.66938 246.148261 
L 199.793576 246.148261 
L 199.793576 245.22202 
L 200.021196 245.22202 
L 200.021196 244.758899 
L 201.913653 244.758899 
L 201.913653 243.832658 
L 202.119758 243.832658 
L 202.119758 242.906417 
L 202.237902 242.906417 
L 202.335025 240.590815 
L 202.434485 240.590815 
L 202.434485 239.664574 
L 205.242879 239.664574 
L 205.242879 239.201453 
L 207.015567 239.201453 
L 207.015567 238.738333 
L 210.678736 238.738333 
L 210.678736 238.275212 
L 210.833928 238.275212 
L 210.833928 237.812091 
L 211.016771 237.812091 
L 211.076419 236.42273 
L 211.128008 236.42273 
L 211.128008 235.959609 
L 211.248082 235.959609 
L 211.306946 235.033368 
L 211.363028 235.033368 
L 211.363028 234.107127 
L 211.479788 234.107127 
L 211.537023 231.791525 
L 211.617857 231.791525 
L 211.656864 229.939043 
L 211.783456 229.939043 
L 211.783456 229.475922 
L 213.739032 229.475922 
L 213.739032 229.012802 
L 214.721839 229.012802 
L 214.821733 228.086561 
L 214.930889 228.086561 
L 214.930889 227.62344 
L 215.482304 227.62344 
L 215.482304 227.16032 
L 215.885049 227.16032 
L 215.885049 226.234079 
L 216.316999 226.234079 
L 216.332554 223.918476 
L 217.590761 223.918476 
L 217.590761 222.992235 
L 219.216481 222.992235 
L 219.29537 220.676632 
L 219.332499 220.676632 
L 219.433657 217.897909 
L 219.475362 217.897909 
L 219.511571 215.582307 
L 219.871168 215.582307 
L 219.871168 215.119186 
L 220.607426 215.119186 
L 220.607426 214.656066 
L 222.813696 214.656066 
L 222.813696 213.729825 
L 223.093772 213.729825 
L 223.093772 213.266704 
L 223.348206 213.266704 
L 223.348206 212.803583 
L 225.842424 212.803583 
L 225.842424 211.414222 
L 227.166034 211.414222 
L 227.274295 209.098619 
L 227.297455 209.098619 
L 227.401472 207.709258 
L 227.491554 207.709258 
L 227.593064 202.151812 
L 227.616484 202.151812 
L 227.714574 193.352522 
L 227.90511 193.352522 
L 227.90511 192.889401 
L 228.041363 192.889401 
L 228.041363 191.96316 
L 228.203146 191.96316 
L 228.255869 191.036919 
L 228.354665 191.036919 
L 228.455166 189.647558 
L 228.530969 189.647558 
L 228.541587 188.721316 
L 228.852428 188.721316 
L 228.852428 188.258196 
L 229.607482 188.258196 
L 229.607482 187.331955 
L 231.374884 187.331955 
L 231.374884 186.868834 
L 231.997192 186.868834 
L 231.997192 186.405714 
L 233.608985 186.405714 
L 233.608985 185.942593 
L 234.592043 185.942593 
L 234.669404 184.553232 
L 235.418205 184.553232 
L 235.418205 183.626991 
L 236.105764 183.626991 
L 236.105764 183.16387 
L 236.480288 183.16387 
L 236.480288 182.70075 
L 236.701283 182.70075 
L 236.765032 180.848268 
L 236.824548 180.848268 
L 236.824548 180.385147 
L 237.700401 180.385147 
L 237.700401 179.922027 
L 238.261827 179.922027 
L 238.339213 178.069545 
L 238.473135 178.069545 
L 238.56734 176.680183 
L 238.670939 176.680183 
L 238.670939 176.217062 
L 238.832505 176.217062 
L 238.852996 174.827701 
L 239.201385 174.827701 
L 239.201385 174.36458 
L 239.321417 174.36458 
L 239.321417 173.90146 
L 239.519997 173.90146 
L 239.519997 172.975219 
L 239.693106 172.975219 
L 239.693106 172.512098 
L 240.098041 172.512098 
L 240.098041 172.048978 
L 240.745633 172.048978 
L 240.745633 171.585857 
L 241.166143 171.585857 
L 241.166143 170.659616 
L 243.639975 170.659616 
L 243.639975 169.733375 
L 251.401689 169.733375 
L 251.401689 169.270255 
L 252.818837 169.270255 
L 252.818837 168.807134 
L 253.094557 168.807134 
L 253.146499 166.954652 
L 253.297591 166.954652 
L 253.345442 164.63905 
L 253.443528 164.63905 
L 253.443528 163.249688 
L 254.003192 163.249688 
L 254.003715 161.397206 
L 254.278231 161.397206 
L 254.278231 160.934085 
L 254.75048 160.934085 
L 254.75048 160.470965 
L 256.358131 160.470965 
L 256.358131 160.007844 
L 256.589395 160.007844 
L 256.653939 158.618483 
L 256.716647 158.618483 
L 256.784226 157.692242 
L 257.049947 157.692242 
L 257.049947 157.229121 
L 257.223153 157.229121 
L 257.268743 155.376639 
L 257.369053 155.376639 
L 257.448631 153.061037 
L 257.49975 153.061037 
L 257.49975 152.597916 
L 257.683696 152.597916 
L 257.683696 151.671675 
L 257.820408 151.671675 
L 257.849132 150.282313 
L 257.985391 150.282313 
L 258.036148 145.651108 
L 258.136927 145.651108 
L 258.216194 144.724867 
L 338.688 144.724867 
L 338.688 144.724867 
" style="fill:none;stroke:#008000;stroke-linecap:square;stroke-width:1.5;"/>
   </g>
   <g id="line2d_36">
    <defs>
     <path d="M -0 6 
L 6 -6 
L -6 -6 
z
" id="m7ab9a85b52" style="stroke:#008000;stroke-linejoin:miter;stroke-width:1.5;"/>
    </defs>
    <g>
     <use style="fill-opacity:0;stroke:#008000;stroke-linejoin:miter;stroke-width:1.5;" x="121.340187" xlink:href="#m7ab9a85b52" y="291.070951"/>
     <use style="fill-opacity:0;stroke:#008000;stroke-linejoin:miter;stroke-width:1.5;" x="197.871972" xlink:href="#m7ab9a85b52" y="250.779466"/>
     <use style="fill-opacity:0;stroke:#008000;stroke-linejoin:miter;stroke-width:1.5;" x="228.041363" xlink:href="#m7ab9a85b52" y="191.96316"/>
     <use style="fill-opacity:0;stroke:#008000;stroke-linejoin:miter;stroke-width:1.5;" x="258.216194" xlink:href="#m7ab9a85b52" y="145.187988"/>
     <use style="fill-opacity:0;stroke:#008000;stroke-linejoin:miter;stroke-width:1.5;" x="258.216194" xlink:href="#m7ab9a85b52" y="144.724867"/>
     <use style="fill-opacity:0;stroke:#008000;stroke-linejoin:miter;stroke-width:1.5;" x="338.688" xlink:href="#m7ab9a85b52" y="144.724867"/>
    </g>
   </g>
   <g id="line2d_37">
    <path style="fill:none;stroke:#008000;stroke-linecap:square;stroke-width:1.5;"/>
    <g/>
   </g>
   <g id="line2d_38">
    <path clip-path="url(#pe5d4394b96)" d="M 258.377143 144.724867 
" style="fill:none;stroke:#008000;stroke-linecap:square;stroke-width:1.5;"/>
    <defs>
     <path d="M -12 12 
L 12 -12 
M -12 -12 
L 12 12 
" id="m6243639c87" style="stroke:#008000;"/>
    </defs>
    <g clip-path="url(#pe5d4394b96)">
     <use style="fill:#008000;stroke:#008000;" x="258.377143" xlink:href="#m6243639c87" y="144.724867"/>
    </g>
   </g>
   <g id="line2d_39">
    <defs>
     <path d="M 0 1.5 
C 0.397805 1.5 0.77937 1.341951 1.06066 1.06066 
C 1.341951 0.77937 1.5 0.397805 1.5 0 
C 1.5 -0.397805 1.341951 -0.77937 1.06066 -1.06066 
C 0.77937 -1.341951 0.397805 -1.5 0 -1.5 
C -0.397805 -1.5 -0.77937 -1.341951 -1.06066 -1.06066 
C -1.341951 -0.77937 -1.5 -0.397805 -1.5 0 
C -1.5 0.397805 -1.341951 0.77937 -1.06066 1.06066 
C -0.77937 1.341951 -0.397805 1.5 0 1.5 
z
" id="m205c439413" style="stroke:#0000ff;"/>
    </defs>
    <g>
     <use style="fill:#0000ff;stroke:#0000ff;" x="258.313198" xlink:href="#m205c439413" y="211.877342"/>
     <use style="fill:#0000ff;stroke:#0000ff;" x="258.313198" xlink:href="#m205c439413" y="211.877342"/>
    </g>
   </g>
   <g id="line2d_40">
    <path d="M 29.53256 298.944 
L 29.53256 296.165277 
L 98.100772 296.165277 
L 98.100772 295.702156 
L 101.506816 295.702156 
L 101.506816 294.312795 
L 104.355088 294.312795 
L 104.355088 293.386554 
L 106.802819 293.386554 
L 106.802819 291.997192 
L 108.948899 291.997192 
L 108.948899 291.534072 
L 110.859585 291.534072 
L 110.859585 290.14471 
L 112.58145 290.14471 
L 112.58145 288.755349 
L 114.148479 288.755349 
L 114.148479 288.292228 
L 115.586238 288.292228 
L 115.586238 286.439746 
L 116.914437 286.439746 
L 116.914437 285.976625 
L 118.148599 285.976625 
L 118.148599 284.587264 
L 119.301163 284.587264 
L 119.301163 282.734782 
L 120.382253 282.734782 
L 120.382253 282.271661 
L 121.400219 282.271661 
L 121.400219 281.34542 
L 122.362027 281.34542 
L 122.362027 280.419179 
L 123.273551 280.419179 
L 123.273551 279.492938 
L 124.139788 279.492938 
L 124.139788 277.640456 
L 126.50685 277.640456 
L 126.50685 277.177336 
L 127.923363 277.177336 
L 127.923363 274.861733 
L 128.590686 274.861733 
L 128.590686 273.472371 
L 129.233413 273.472371 
L 129.233413 273.009251 
L 129.853291 273.009251 
L 129.853291 272.08301 
L 132.133473 272.08301 
L 132.133473 270.693648 
L 133.170708 270.693648 
L 133.170708 270.230528 
L 134.149701 270.230528 
L 134.149701 269.767407 
L 135.076644 269.767407 
L 135.076644 269.304287 
L 135.522271 269.304287 
L 135.522271 268.841166 
L 135.956794 268.841166 
L 135.956794 267.914925 
L 137.594091 267.914925 
L 137.594091 267.451805 
L 139.793552 267.451805 
L 139.793552 266.988684 
L 140.79731 266.988684 
L 140.79731 266.525564 
L 142.351634 266.525564 
L 142.351634 266.062443 
L 142.646541 266.062443 
L 142.646541 265.599323 
L 143.221802 265.599323 
L 143.221802 265.136202 
L 144.050606 265.136202 
L 144.050606 264.673082 
L 146.559258 264.673082 
L 146.559258 264.209961 
L 147.690073 264.209961 
L 147.690073 263.746841 
L 148.956849 263.746841 
L 148.956849 263.28372 
L 171.478551 263.28372 
L 171.478551 262.8206 
L 173.508272 262.8206 
L 173.508272 261.894358 
L 173.630147 261.894358 
L 173.630147 260.968117 
L 174.562857 260.968117 
L 174.562857 260.041876 
L 174.921573 260.041876 
L 174.921573 259.578756 
L 175.496772 259.578756 
L 175.496772 259.115635 
L 176.524755 259.115635 
L 176.524755 258.189394 
L 177.230412 258.189394 
L 177.230412 257.726274 
L 177.919177 257.726274 
L 177.919177 257.263153 
L 178.652737 257.263153 
L 178.652737 256.800033 
L 179.731597 256.800033 
L 179.731597 255.873792 
L 180.039542 255.873792 
L 180.039542 254.947551 
L 182.676574 254.947551 
L 182.676574 254.02131 
L 185.027676 254.02131 
L 185.027676 253.558189 
L 186.712563 253.558189 
L 186.712563 252.631948 
L 198.082802 252.631948 
L 198.082802 251.705707 
L 202.734875 251.705707 
L 202.734875 251.242587 
L 203.287198 251.242587 
L 203.287198 250.316346 
L 203.664155 250.316346 
L 203.664155 249.853225 
L 205.86803 249.853225 
L 205.86803 248.926984 
L 208.061448 248.926984 
L 208.061448 247.537622 
L 209.146231 247.537622 
L 209.146231 246.611381 
L 213.791422 246.611381 
L 213.791422 245.68514 
L 214.406382 245.68514 
L 214.406382 244.758899 
L 214.610933 244.758899 
L 214.610933 244.295779 
L 216.036727 244.295779 
L 216.036727 243.369538 
L 218.132897 243.369538 
L 218.132897 242.906417 
L 218.771704 242.906417 
L 218.771704 242.443297 
L 220.737438 242.443297 
L 220.737438 241.517056 
L 223.435935 241.517056 
L 223.435935 241.053935 
L 228.081372 241.053935 
L 228.081372 240.590815 
L 229.601248 240.590815 
L 229.601248 240.127694 
L 233.211962 240.127694 
L 233.28034 239.201453 
L 233.434093 239.201453 
L 233.434093 238.275212 
L 239.789335 238.275212 
L 239.789335 237.812091 
L 240.527696 237.812091 
L 240.527696 236.88585 
L 240.801303 236.88585 
L 240.801303 235.959609 
L 241.898208 235.959609 
L 241.993867 234.570248 
L 242.075419 234.570248 
L 242.128277 231.328404 
L 242.227264 231.328404 
L 242.227264 230.865284 
L 244.832006 230.865284 
L 244.925187 229.475922 
L 246.446996 229.475922 
L 246.446996 228.549681 
L 246.613832 228.549681 
L 246.695667 226.697199 
L 246.740249 226.697199 
L 246.740249 226.234079 
L 247.072657 226.234079 
L 247.072657 225.770958 
L 248.783912 225.770958 
L 248.783912 224.844717 
L 249.327464 224.844717 
L 249.327464 223.918476 
L 251.315259 223.918476 
L 251.315259 222.992235 
L 251.580076 222.992235 
L 251.629089 220.676632 
L 251.708819 220.676632 
L 251.760276 217.897909 
L 251.893266 217.897909 
L 251.893266 216.971668 
L 252.054844 216.971668 
L 252.054844 216.508548 
L 252.866822 216.508548 
L 252.866822 216.045427 
L 256.116322 216.045427 
L 256.116322 215.119186 
L 256.464191 215.119186 
L 256.464191 214.656066 
L 257.118162 214.656066 
L 257.140454 212.803583 
L 258.313198 212.803583 
L 258.313198 211.877342 
L 338.688 211.877342 
L 338.688 211.877342 
" style="fill:none;stroke:#0000ff;stroke-linecap:square;stroke-width:1.5;"/>
   </g>
   <g id="line2d_41">
    <defs>
     <path d="M 0 -6 
L -1.347084 -1.854102 
L -5.706339 -1.854102 
L -2.179628 0.708204 
L -3.526712 4.854102 
L -0 2.291796 
L 3.526712 4.854102 
L 2.179628 0.708204 
L 5.706339 -1.854102 
L 1.347084 -1.854102 
z
" id="md83b8098bc" style="stroke:#0000ff;stroke-linejoin:bevel;stroke-width:1.5;"/>
    </defs>
    <g>
     <use style="fill-opacity:0;stroke:#0000ff;stroke-linejoin:bevel;stroke-width:1.5;" x="134.149701" xlink:href="#md83b8098bc" y="270.230528"/>
     <use style="fill-opacity:0;stroke:#0000ff;stroke-linejoin:bevel;stroke-width:1.5;" x="208.061448" xlink:href="#md83b8098bc" y="247.537622"/>
     <use style="fill-opacity:0;stroke:#0000ff;stroke-linejoin:bevel;stroke-width:1.5;" x="258.313198" xlink:href="#md83b8098bc" y="212.803583"/>
     <use style="fill-opacity:0;stroke:#0000ff;stroke-linejoin:bevel;stroke-width:1.5;" x="258.313198" xlink:href="#md83b8098bc" y="211.877342"/>
     <use style="fill-opacity:0;stroke:#0000ff;stroke-linejoin:bevel;stroke-width:1.5;" x="338.688" xlink:href="#md83b8098bc" y="211.877342"/>
    </g>
   </g>
   <g id="line2d_42">
    <path style="fill:none;stroke:#0000ff;stroke-linecap:square;stroke-width:1.5;"/>
    <g/>
   </g>
   <g id="line2d_43">
    <path clip-path="url(#pe5d4394b96)" d="M 258.377143 211.877342 
" style="fill:none;stroke:#0000ff;stroke-linecap:square;stroke-width:1.5;"/>
    <defs>
     <path d="M -12 12 
L 12 -12 
M -12 -12 
L 12 12 
" id="mb43c8d7b14" style="stroke:#0000ff;"/>
    </defs>
    <g clip-path="url(#pe5d4394b96)">
     <use style="fill:#0000ff;stroke:#0000ff;" x="258.377143" xlink:href="#mb43c8d7b14" y="211.877342"/>
    </g>
   </g>
   <g id="line2d_44">
    <defs>
     <path d="M 0 1.5 
C 0.397805 1.5 0.77937 1.341951 1.06066 1.06066 
C 1.341951 0.77937 1.5 0.397805 1.5 0 
C 1.5 -0.397805 1.341951 -0.77937 1.06066 -1.06066 
C 0.77937 -1.341951 0.397805 -1.5 0 -1.5 
C -0.397805 -1.5 -0.77937 -1.341951 -1.06066 -1.06066 
C -1.341951 -0.77937 -1.5 -0.397805 -1.5 0 
C -1.5 0.397805 -1.341951 0.77937 -1.06066 1.06066 
C -0.77937 1.341951 -0.397805 1.5 0 1.5 
z
" id="m98968d719b" style="stroke:#000000;"/>
    </defs>
    <g>
     <use style="stroke:#000000;" x="257.501541" xlink:href="#m98968d719b" y="244.295779"/>
     <use style="stroke:#000000;" x="257.501541" xlink:href="#m98968d719b" y="244.295779"/>
    </g>
   </g>
   <g id="line2d_45">
    <path d="M 17.444571 298.944 
L 17.444571 297.554638 
L 81.334453 297.554638 
L 81.334453 297.091518 
L 94.294587 297.091518 
L 94.294587 296.628397 
L 98.270913 296.628397 
L 98.270913 295.702156 
L 101.506816 295.702156 
L 101.506816 295.239036 
L 104.23523 295.239036 
L 104.23523 293.849674 
L 106.593963 293.849674 
L 106.593963 292.923433 
L 108.671345 292.923433 
L 108.671345 291.534072 
L 110.527398 291.534072 
L 110.527398 290.607831 
L 112.204777 290.607831 
L 112.204777 289.218469 
L 113.73488 289.218469 
L 113.73488 287.365987 
L 115.141496 287.365987 
L 115.141496 285.976625 
L 116.443076 285.976625 
L 116.443076 285.050384 
L 117.654224 285.050384 
L 117.654224 283.197902 
L 118.786692 283.197902 
L 118.786692 282.271661 
L 119.850084 282.271661 
L 119.850084 281.34542 
L 120.852343 281.34542 
L 120.852343 279.492938 
L 121.800118 279.492938 
L 121.800118 278.566697 
L 122.699028 278.566697 
L 122.699028 277.177336 
L 123.553867 277.177336 
L 123.553867 276.251095 
L 124.368753 276.251095 
L 124.368753 274.861733 
L 125.147256 274.861733 
L 125.147256 273.935492 
L 125.892487 273.935492 
L 125.892487 273.009251 
L 126.607172 273.009251 
L 126.607172 271.619889 
L 127.293718 271.619889 
L 127.293718 271.156769 
L 128.590686 271.156769 
L 128.590686 270.693648 
L 129.204706 270.693648 
L 129.204706 270.230528 
L 129.79784 270.230528 
L 129.79784 269.767407 
L 130.371462 269.767407 
L 130.371462 269.304287 
L 132.494049 269.304287 
L 132.494049 268.378046 
L 134.386096 268.378046 
L 134.386096 267.914925 
L 135.681535 267.914925 
L 135.681535 267.451805 
L 138.728473 267.451805 
L 138.728473 266.988684 
L 145.338615 266.988684 
L 145.338615 266.525564 
L 147.995947 266.525564 
L 147.995947 266.062443 
L 148.200145 266.062443 
L 148.200145 265.136202 
L 149.377533 265.136202 
L 149.377533 264.673082 
L 149.566262 264.673082 
L 149.566262 264.209961 
L 160.432539 264.209961 
L 160.432539 263.746841 
L 183.61989 263.746841 
L 183.61989 263.28372 
L 206.368613 263.28372 
L 206.368613 262.357479 
L 207.813614 262.357479 
L 207.813614 261.894358 
L 213.788724 261.894358 
L 213.788724 260.968117 
L 214.107133 260.968117 
L 214.107133 260.504997 
L 217.176014 260.504997 
L 217.176014 260.041876 
L 217.575988 260.041876 
L 217.575988 259.578756 
L 220.558382 259.578756 
L 220.558382 259.115635 
L 221.009906 259.115635 
L 221.009906 258.189394 
L 225.196086 258.189394 
L 225.196086 257.263153 
L 226.309121 257.263153 
L 226.309121 256.800033 
L 230.944567 256.800033 
L 230.944567 255.873792 
L 238.171971 255.873792 
L 238.171971 254.947551 
L 240.733183 254.947551 
L 240.733183 254.02131 
L 241.853375 254.02131 
L 241.853375 253.558189 
L 244.354276 253.558189 
L 244.354276 253.095069 
L 245.105888 253.095069 
L 245.105888 252.631948 
L 245.540223 252.631948 
L 245.540223 251.705707 
L 245.963755 251.705707 
L 245.963755 251.242587 
L 246.120788 251.242587 
L 246.120788 250.779466 
L 247.169791 250.779466 
L 247.169791 250.316346 
L 249.521849 250.316346 
L 249.521849 249.853225 
L 250.223897 249.853225 
L 250.223897 248.926984 
L 251.405435 248.926984 
L 251.405435 248.000743 
L 253.453145 248.000743 
L 253.453145 247.074502 
L 255.49041 247.074502 
L 255.572101 245.68514 
L 256.962165 245.68514 
L 256.962165 245.22202 
L 257.501541 245.22202 
L 257.501541 244.295779 
L 338.688 244.295779 
L 338.688 244.295779 
" style="fill:none;stroke:#000000;stroke-linecap:square;stroke-width:1.5;"/>
   </g>
   <g id="line2d_46">
    <defs>
     <path d="M 0 6 
C 1.591219 6 3.117479 5.367802 4.242641 4.242641 
C 5.367802 3.117479 6 1.591219 6 0 
C 6 -1.591219 5.367802 -3.117479 4.242641 -4.242641 
C 3.117479 -5.367802 1.591219 -6 0 -6 
C -1.591219 -6 -3.117479 -5.367802 -4.242641 -4.242641 
C -5.367802 -3.117479 -6 -1.591219 -6 0 
C -6 1.591219 -5.367802 3.117479 -4.242641 4.242641 
C -3.117479 5.367802 -1.591219 6 0 6 
z
" id="m5572b6b21a" style="stroke:#000000;stroke-width:1.5;"/>
    </defs>
    <g>
     <use style="fill-opacity:0;stroke:#000000;stroke-width:1.5;" x="115.141496" xlink:href="#m5572b6b21a" y="287.365987"/>
     <use style="fill-opacity:0;stroke:#000000;stroke-width:1.5;" x="160.432539" xlink:href="#m5572b6b21a" y="263.746841"/>
     <use style="fill-opacity:0;stroke:#000000;stroke-width:1.5;" x="247.169791" xlink:href="#m5572b6b21a" y="250.779466"/>
     <use style="fill-opacity:0;stroke:#000000;stroke-width:1.5;" x="257.501541" xlink:href="#m5572b6b21a" y="244.295779"/>
     <use style="fill-opacity:0;stroke:#000000;stroke-width:1.5;" x="257.501541" xlink:href="#m5572b6b21a" y="244.295779"/>
     <use style="fill-opacity:0;stroke:#000000;stroke-width:1.5;" x="338.688" xlink:href="#m5572b6b21a" y="244.295779"/>
    </g>
   </g>
   <g id="line2d_47">
    <path style="fill:none;stroke:#000000;stroke-linecap:square;stroke-width:1.5;"/>
    <g/>
   </g>
   <g id="line2d_48">
    <path clip-path="url(#pe5d4394b96)" d="M 258.377143 244.295779 
" style="fill:none;stroke:#000000;stroke-linecap:square;stroke-width:1.5;"/>
    <defs>
     <path d="M -12 12 
L 12 -12 
M -12 -12 
L 12 12 
" id="m4965f799af" style="stroke:#000000;"/>
    </defs>
    <g clip-path="url(#pe5d4394b96)">
     <use style="stroke:#000000;" x="258.377143" xlink:href="#m4965f799af" y="244.295779"/>
    </g>
   </g>
   <g id="line2d_49">
    <defs>
     <path d="M 0 1.5 
C 0.397805 1.5 0.77937 1.341951 1.06066 1.06066 
C 1.341951 0.77937 1.5 0.397805 1.5 0 
C 1.5 -0.397805 1.341951 -0.77937 1.06066 -1.06066 
C 0.77937 -1.341951 0.397805 -1.5 0 -1.5 
C -0.397805 -1.5 -0.77937 -1.341951 -1.06066 -1.06066 
C -1.341951 -0.77937 -1.5 -0.397805 -1.5 0 
C -1.5 0.397805 -1.341951 0.77937 -1.06066 1.06066 
C -0.77937 1.341951 -0.397805 1.5 0 1.5 
z
" id="md23f565a71" style="stroke:#ff0000;"/>
    </defs>
    <g>
     <use style="fill:#ff0000;stroke:#ff0000;" x="257.405335" xlink:href="#md23f565a71" y="242.906417"/>
     <use style="fill:#ff0000;stroke:#ff0000;" x="257.405335" xlink:href="#md23f565a71" y="242.906417"/>
    </g>
   </g>
   <g id="line2d_50">
    <path d="M 5.356583 298.944 
L 5.356583 298.017759 
L 96.206276 298.017759 
L 96.206276 297.554638 
L 102.66306 297.554638 
L 102.66306 297.091518 
L 105.171792 297.091518 
L 105.171792 296.165277 
L 107.364602 296.165277 
L 107.364602 295.239036 
L 109.31223 295.239036 
L 109.31223 294.312795 
L 111.064034 294.312795 
L 111.064034 293.849674 
L 112.655818 293.849674 
L 112.655818 292.460313 
L 114.114385 292.460313 
L 114.114385 290.14471 
L 115.460322 290.14471 
L 115.460322 289.218469 
L 116.709783 289.218469 
L 116.709783 288.292228 
L 117.875678 288.292228 
L 117.875678 286.439746 
L 118.968488 286.439746 
L 118.968488 284.587264 
L 119.996839 284.587264 
L 119.996839 283.197902 
L 120.967912 283.197902 
L 120.967912 282.271661 
L 121.887753 282.271661 
L 121.887753 279.956059 
L 122.761498 279.956059 
L 122.761498 278.103577 
L 123.593547 278.103577 
L 123.593547 276.714215 
L 124.387699 276.714215 
L 124.387699 276.251095 
L 125.147256 276.251095 
L 125.147256 274.398612 
L 125.875108 274.398612 
L 125.875108 271.619889 
L 126.573795 271.619889 
L 126.573795 270.693648 
L 127.245565 270.693648 
L 127.245565 268.378046 
L 128.516128 268.378046 
L 128.516128 267.451805 
L 129.118302 267.451805 
L 129.118302 266.988684 
L 130.809292 266.988684 
L 130.809292 266.062443 
L 131.338382 266.062443 
L 131.338382 265.599323 
L 132.835661 265.599323 
L 132.835661 265.136202 
L 133.766885 265.136202 
L 133.766885 264.673082 
L 134.214491 264.673082 
L 134.214491 263.746841 
L 140.149942 263.746841 
L 140.149942 262.8206 
L 141.068601 262.8206 
L 141.068601 262.357479 
L 142.772361 262.357479 
L 142.772361 261.894358 
L 147.484815 261.894358 
L 147.484815 261.431238 
L 148.681621 261.431238 
L 148.681621 260.968117 
L 153.236437 260.968117 
L 153.236437 260.504997 
L 154.385464 260.504997 
L 154.385464 259.578756 
L 227.265471 259.578756 
L 227.265471 259.115635 
L 228.389841 259.115635 
L 228.389841 258.652515 
L 229.464541 258.652515 
L 229.464541 258.189394 
L 230.969101 258.189394 
L 230.969101 257.726274 
L 231.448786 257.726274 
L 231.448786 256.800033 
L 231.671617 256.800033 
L 231.671617 255.873792 
L 231.875743 255.873792 
L 231.875743 255.410671 
L 234.760954 255.410671 
L 234.760954 254.947551 
L 240.489726 254.947551 
L 240.489726 254.48443 
L 242.97708 254.48443 
L 242.97708 253.558189 
L 245.264606 253.558189 
L 245.264606 253.095069 
L 246.018854 253.095069 
L 246.018854 252.631948 
L 246.785801 252.631948 
L 246.785801 252.168828 
L 247.106138 252.168828 
L 247.106138 251.705707 
L 247.551997 251.705707 
L 247.551997 251.242587 
L 247.682332 251.242587 
L 247.682332 250.779466 
L 252.398081 250.779466 
L 252.398081 249.853225 
L 252.74079 249.853225 
L 252.74079 248.926984 
L 253.755814 248.926984 
L 253.755814 248.463863 
L 254.609754 248.463863 
L 254.609754 248.000743 
L 255.049025 248.000743 
L 255.049025 247.074502 
L 255.21127 247.074502 
L 255.21127 246.148261 
L 255.374569 246.148261 
L 255.374569 245.68514 
L 256.115816 245.68514 
L 256.115816 245.22202 
L 256.363668 245.22202 
L 256.363668 244.295779 
L 256.773835 244.295779 
L 256.839422 243.369538 
L 257.405335 243.369538 
L 257.405335 242.906417 
L 338.688 242.906417 
L 338.688 242.906417 
" style="fill:none;stroke:#ff0000;stroke-linecap:square;stroke-width:1.5;"/>
   </g>
   <g id="line2d_51">
    <defs>
     <path d="M -6 6 
L 6 6 
L 6 -6 
L -6 -6 
z
" id="m9fa2dd7d57" style="stroke:#ff0000;stroke-linejoin:miter;stroke-width:1.5;"/>
    </defs>
    <g>
     <use style="fill-opacity:0;stroke:#ff0000;stroke-linejoin:miter;stroke-width:1.5;" x="141.068601" xlink:href="#m9fa2dd7d57" y="262.357479"/>
     <use style="fill-opacity:0;stroke:#ff0000;stroke-linejoin:miter;stroke-width:1.5;" x="228.389841" xlink:href="#m9fa2dd7d57" y="258.652515"/>
     <use style="fill-opacity:0;stroke:#ff0000;stroke-linejoin:miter;stroke-width:1.5;" x="257.405335" xlink:href="#m9fa2dd7d57" y="243.369538"/>
     <use style="fill-opacity:0;stroke:#ff0000;stroke-linejoin:miter;stroke-width:1.5;" x="257.405335" xlink:href="#m9fa2dd7d57" y="242.906417"/>
     <use style="fill-opacity:0;stroke:#ff0000;stroke-linejoin:miter;stroke-width:1.5;" x="338.688" xlink:href="#m9fa2dd7d57" y="242.906417"/>
    </g>
   </g>
   <g id="line2d_52">
    <path style="fill:none;stroke:#ff0000;stroke-linecap:square;stroke-width:1.5;"/>
    <g/>
   </g>
   <g id="line2d_53">
    <path clip-path="url(#pe5d4394b96)" d="M 258.377143 242.906417 
" style="fill:none;stroke:#ff0000;stroke-linecap:square;stroke-width:1.5;"/>
    <defs>
     <path d="M -12 12 
L 12 -12 
M -12 -12 
L 12 12 
" id="m9876747756" style="stroke:#ff0000;"/>
    </defs>
    <g clip-path="url(#pe5d4394b96)">
     <use style="fill:#ff0000;stroke:#ff0000;" x="258.377143" xlink:href="#m9876747756" y="242.906417"/>
    </g>
   </g>
   <g id="line2d_54">
    <path d="M 338.688 244.295779 
L 369.60768 293.571802 
" style="fill:none;stroke:#000000;stroke-linecap:square;stroke-width:1.5;"/>
    <g>
     <use style="fill-opacity:0;stroke:#000000;stroke-width:1.5;" x="338.688" xlink:href="#m5572b6b21a" y="244.295779"/>
     <use style="fill-opacity:0;stroke:#000000;stroke-width:1.5;" x="369.60768" xlink:href="#m5572b6b21a" y="293.571802"/>
    </g>
   </g>
   <g id="line2d_55">
    <path d="M 338.688 242.906417 
L 369.60768 229.105426 
" style="fill:none;stroke:#ff0000;stroke-linecap:square;stroke-width:1.5;"/>
    <g>
     <use style="fill-opacity:0;stroke:#ff0000;stroke-linejoin:miter;stroke-width:1.5;" x="338.688" xlink:href="#m9fa2dd7d57" y="242.906417"/>
     <use style="fill-opacity:0;stroke:#ff0000;stroke-linejoin:miter;stroke-width:1.5;" x="369.60768" xlink:href="#m9fa2dd7d57" y="229.105426"/>
    </g>
   </g>
   <g id="line2d_56">
    <path d="M 338.688 211.877342 
L 369.60768 164.63905 
" style="fill:none;stroke:#0000ff;stroke-linecap:square;stroke-width:1.5;"/>
    <g>
     <use style="fill-opacity:0;stroke:#0000ff;stroke-linejoin:bevel;stroke-width:1.5;" x="338.688" xlink:href="#md83b8098bc" y="211.877342"/>
     <use style="fill-opacity:0;stroke:#0000ff;stroke-linejoin:bevel;stroke-width:1.5;" x="369.60768" xlink:href="#md83b8098bc" y="164.63905"/>
    </g>
   </g>
   <g id="line2d_57">
    <path d="M 338.688 144.724867 
L 369.60768 100.172673 
" style="fill:none;stroke:#008000;stroke-linecap:square;stroke-width:1.5;"/>
    <g>
     <use style="fill-opacity:0;stroke:#008000;stroke-linejoin:miter;stroke-width:1.5;" x="338.688" xlink:href="#m7ab9a85b52" y="144.724867"/>
     <use style="fill-opacity:0;stroke:#008000;stroke-linejoin:miter;stroke-width:1.5;" x="369.60768" xlink:href="#m7ab9a85b52" y="100.172673"/>
    </g>
   </g>
   <g id="line2d_58">
    <path d="M 338.688 62.752535 
L 369.60768 35.706297 
" style="fill:none;stroke:#00bfbf;stroke-linecap:square;stroke-width:1.5;"/>
    <g>
     <use style="fill-opacity:0;stroke:#00bfbf;stroke-width:1.5;" x="338.688" xlink:href="#m7a5e0a9621" y="62.752535"/>
     <use style="fill-opacity:0;stroke:#00bfbf;stroke-width:1.5;" x="369.60768" xlink:href="#m7a5e0a9621" y="35.706297"/>
    </g>
   </g>
   <g id="line2d_59">
    <path d="M 338.688 298.944 
L 338.688 30.334099 
" style="fill:none;stroke:#000000;stroke-linecap:square;stroke-width:1.5;"/>
   </g>
   <g id="patch_3">
    <path d="M 57.6 298.944 
L 57.6 27.648 
" style="fill:none;stroke:#000000;stroke-linecap:square;stroke-linejoin:miter;stroke-width:0.8;"/>
   </g>
   <g id="patch_4">
    <path d="M 338.688 298.944 
L 338.688 27.648 
" style="fill:none;stroke:#000000;stroke-linecap:square;stroke-linejoin:miter;stroke-width:0.8;"/>
   </g>
   <g id="patch_5">
    <path d="M 57.6 298.944 
L 338.688 298.944 
" style="fill:none;stroke:#000000;stroke-linecap:square;stroke-linejoin:miter;stroke-width:0.8;"/>
   </g>
   <g id="patch_6">
    <path d="M 57.6 27.648 
L 338.688 27.648 
" style="fill:none;stroke:#000000;stroke-linecap:square;stroke-linejoin:miter;stroke-width:0.8;"/>
   </g>
   <g id="text_13">
    <!-- 10-D -->
    <g transform="translate(375.22944 298.262739)scale(0.17 -0.17)">
     <defs>
      <path d="M 19.671875 64.796875 
L 19.671875 8.109375 
L 31.59375 8.109375 
Q 46.6875 8.109375 53.6875 14.9375 
Q 60.6875 21.78125 60.6875 36.53125 
Q 60.6875 51.171875 53.6875 57.984375 
Q 46.6875 64.796875 31.59375 64.796875 
z
M 9.8125 72.90625 
L 30.078125 72.90625 
Q 51.265625 72.90625 61.171875 64.09375 
Q 71.09375 55.28125 71.09375 36.53125 
Q 71.09375 17.671875 61.125 8.828125 
Q 51.171875 0 30.078125 0 
L 9.8125 0 
z
" id="DejaVuSans-68"/>
     </defs>
     <use xlink:href="#DejaVuSans-49"/>
     <use x="63.623047" xlink:href="#DejaVuSans-48"/>
     <use x="127.246094" xlink:href="#DejaVuSans-45"/>
     <use x="163.330078" xlink:href="#DejaVuSans-68"/>
    </g>
   </g>
   <g id="text_14">
    <!-- 20-D -->
    <g transform="translate(375.22944 233.796363)scale(0.17 -0.17)">
     <use xlink:href="#DejaVuSans-50"/>
     <use x="63.623047" xlink:href="#DejaVuSans-48"/>
     <use x="127.246094" xlink:href="#DejaVuSans-45"/>
     <use x="163.330078" xlink:href="#DejaVuSans-68"/>
    </g>
   </g>
   <g id="text_15">
    <!-- 5-D -->
    <g transform="translate(375.22944 169.329987)scale(0.17 -0.17)">
     <defs>
      <path d="M 10.796875 72.90625 
L 49.515625 72.90625 
L 49.515625 64.59375 
L 19.828125 64.59375 
L 19.828125 46.734375 
Q 21.96875 47.46875 24.109375 47.828125 
Q 26.265625 48.1875 28.421875 48.1875 
Q 40.625 48.1875 47.75 41.5 
Q 54.890625 34.8125 54.890625 23.390625 
Q 54.890625 11.625 47.5625 5.09375 
Q 40.234375 -1.421875 26.90625 -1.421875 
Q 22.3125 -1.421875 17.546875 -0.640625 
Q 12.796875 0.140625 7.71875 1.703125 
L 7.71875 11.625 
Q 12.109375 9.234375 16.796875 8.0625 
Q 21.484375 6.890625 26.703125 6.890625 
Q 35.15625 6.890625 40.078125 11.328125 
Q 45.015625 15.765625 45.015625 23.390625 
Q 45.015625 31 40.078125 35.4375 
Q 35.15625 39.890625 26.703125 39.890625 
Q 22.75 39.890625 18.8125 39.015625 
Q 14.890625 38.140625 10.796875 36.28125 
z
" id="DejaVuSans-53"/>
     </defs>
     <use xlink:href="#DejaVuSans-53"/>
     <use x="63.623047" xlink:href="#DejaVuSans-45"/>
     <use x="99.707031" xlink:href="#DejaVuSans-68"/>
    </g>
   </g>
   <g id="text_16">
    <!-- 3-D -->
    <g transform="translate(375.22944 104.863611)scale(0.17 -0.17)">
     <defs>
      <path d="M 40.578125 39.3125 
Q 47.65625 37.796875 51.625 33 
Q 55.609375 28.21875 55.609375 21.1875 
Q 55.609375 10.40625 48.1875 4.484375 
Q 40.765625 -1.421875 27.09375 -1.421875 
Q 22.515625 -1.421875 17.65625 -0.515625 
Q 12.796875 0.390625 7.625 2.203125 
L 7.625 11.71875 
Q 11.71875 9.328125 16.59375 8.109375 
Q 21.484375 6.890625 26.8125 6.890625 
Q 36.078125 6.890625 40.9375 10.546875 
Q 45.796875 14.203125 45.796875 21.1875 
Q 45.796875 27.640625 41.28125 31.265625 
Q 36.765625 34.90625 28.71875 34.90625 
L 20.21875 34.90625 
L 20.21875 43.015625 
L 29.109375 43.015625 
Q 36.375 43.015625 40.234375 45.921875 
Q 44.09375 48.828125 44.09375 54.296875 
Q 44.09375 59.90625 40.109375 62.90625 
Q 36.140625 65.921875 28.71875 65.921875 
Q 24.65625 65.921875 20.015625 65.03125 
Q 15.375 64.15625 9.8125 62.3125 
L 9.8125 71.09375 
Q 15.4375 72.65625 20.34375 73.4375 
Q 25.25 74.21875 29.59375 74.21875 
Q 40.828125 74.21875 47.359375 69.109375 
Q 53.90625 64.015625 53.90625 55.328125 
Q 53.90625 49.265625 50.4375 45.09375 
Q 46.96875 40.921875 40.578125 39.3125 
z
" id="DejaVuSans-51"/>
     </defs>
     <use xlink:href="#DejaVuSans-51"/>
     <use x="63.623047" xlink:href="#DejaVuSans-45"/>
     <use x="99.707031" xlink:href="#DejaVuSans-68"/>
    </g>
   </g>
   <g id="text_17">
    <!-- 2-D -->
    <g transform="translate(375.22944 40.397235)scale(0.17 -0.17)">
     <use xlink:href="#DejaVuSans-50"/>
     <use x="63.623047" xlink:href="#DejaVuSans-45"/>
     <use x="99.707031" xlink:href="#DejaVuSans-68"/>
    </g>
   </g>
   <g id="text_18">
    <!-- bbob-biobj f18 -->
    <g transform="translate(60.41088 38.111366)scale(0.102 -0.102)">
     <defs>
      <path d="M 48.6875 27.296875 
Q 48.6875 37.203125 44.609375 42.84375 
Q 40.53125 48.484375 33.40625 48.484375 
Q 26.265625 48.484375 22.1875 42.84375 
Q 18.109375 37.203125 18.109375 27.296875 
Q 18.109375 17.390625 22.1875 11.75 
Q 26.265625 6.109375 33.40625 6.109375 
Q 40.53125 6.109375 44.609375 11.75 
Q 48.6875 17.390625 48.6875 27.296875 
z
M 18.109375 46.390625 
Q 20.953125 51.265625 25.265625 53.625 
Q 29.59375 56 35.59375 56 
Q 45.5625 56 51.78125 48.09375 
Q 58.015625 40.1875 58.015625 27.296875 
Q 58.015625 14.40625 51.78125 6.484375 
Q 45.5625 -1.421875 35.59375 -1.421875 
Q 29.59375 -1.421875 25.265625 0.953125 
Q 20.953125 3.328125 18.109375 8.203125 
L 18.109375 0 
L 9.078125 0 
L 9.078125 75.984375 
L 18.109375 75.984375 
z
" id="DejaVuSans-98"/>
      <path d="M 9.421875 54.6875 
L 18.40625 54.6875 
L 18.40625 -0.984375 
Q 18.40625 -11.421875 14.421875 -16.109375 
Q 10.453125 -20.796875 1.609375 -20.796875 
L -1.8125 -20.796875 
L -1.8125 -13.1875 
L 0.59375 -13.1875 
Q 5.71875 -13.1875 7.5625 -10.8125 
Q 9.421875 -8.453125 9.421875 -0.984375 
z
M 9.421875 75.984375 
L 18.40625 75.984375 
L 18.40625 64.59375 
L 9.421875 64.59375 
z
" id="DejaVuSans-106"/>
     </defs>
     <use xlink:href="#DejaVuSans-98"/>
     <use x="63.476562" xlink:href="#DejaVuSans-98"/>
     <use x="126.953125" xlink:href="#DejaVuSans-111"/>
     <use x="188.134766" xlink:href="#DejaVuSans-98"/>
     <use x="251.611328" xlink:href="#DejaVuSans-45"/>
     <use x="287.695312" xlink:href="#DejaVuSans-98"/>
     <use x="351.171875" xlink:href="#DejaVuSans-105"/>
     <use x="378.955078" xlink:href="#DejaVuSans-111"/>
     <use x="440.136719" xlink:href="#DejaVuSans-98"/>
     <use x="503.613281" xlink:href="#DejaVuSans-106"/>
     <use x="531.396484" xlink:href="#DejaVuSans-32"/>
     <use x="563.183594" xlink:href="#DejaVuSans-102"/>
     <use x="598.388672" xlink:href="#DejaVuSans-49"/>
     <use x="662.011719" xlink:href="#DejaVuSans-56"/>
    </g>
    <!-- 58 targets: 1..-1.0e-4 -->
    <g transform="translate(60.41088 49.533135)scale(0.102 -0.102)">
     <defs>
      <path d="M 11.71875 12.40625 
L 22.015625 12.40625 
L 22.015625 0 
L 11.71875 0 
z
M 11.71875 51.703125 
L 22.015625 51.703125 
L 22.015625 39.3125 
L 11.71875 39.3125 
z
" id="DejaVuSans-58"/>
     </defs>
     <use xlink:href="#DejaVuSans-53"/>
     <use x="63.623047" xlink:href="#DejaVuSans-56"/>
     <use x="127.246094" xlink:href="#DejaVuSans-32"/>
     <use x="159.033203" xlink:href="#DejaVuSans-116"/>
     <use x="198.242188" xlink:href="#DejaVuSans-97"/>
     <use x="259.521484" xlink:href="#DejaVuSans-114"/>
     <use x="298.884766" xlink:href="#DejaVuSans-103"/>
     <use x="362.361328" xlink:href="#DejaVuSans-101"/>
     <use x="423.884766" xlink:href="#DejaVuSans-116"/>
     <use x="463.09375" xlink:href="#DejaVuSans-115"/>
     <use x="515.193359" xlink:href="#DejaVuSans-58"/>
     <use x="548.884766" xlink:href="#DejaVuSans-32"/>
     <use x="580.671875" xlink:href="#DejaVuSans-49"/>
     <use x="644.294922" xlink:href="#DejaVuSans-46"/>
     <use x="676.082031" xlink:href="#DejaVuSans-46"/>
     <use x="707.869141" xlink:href="#DejaVuSans-45"/>
     <use x="743.953125" xlink:href="#DejaVuSans-49"/>
     <use x="807.576172" xlink:href="#DejaVuSans-46"/>
     <use x="839.363281" xlink:href="#DejaVuSans-48"/>
     <use x="902.986328" xlink:href="#DejaVuSans-101"/>
     <use x="964.509766" xlink:href="#DejaVuSans-45"/>
     <use x="1000.59375" xlink:href="#DejaVuSans-52"/>
    </g>
    <!-- 10 instances -->
    <g transform="translate(60.41088 60.954904)scale(0.102 -0.102)">
     <use xlink:href="#DejaVuSans-49"/>
     <use x="63.623047" xlink:href="#DejaVuSans-48"/>
     <use x="127.246094" xlink:href="#DejaVuSans-32"/>
     <use x="159.033203" xlink:href="#DejaVuSans-105"/>
     <use x="186.816406" xlink:href="#DejaVuSans-110"/>
     <use x="250.195312" xlink:href="#DejaVuSans-115"/>
     <use x="302.294922" xlink:href="#DejaVuSans-116"/>
     <use x="341.503906" xlink:href="#DejaVuSans-97"/>
     <use x="402.783203" xlink:href="#DejaVuSans-110"/>
     <use x="466.162109" xlink:href="#DejaVuSans-99"/>
     <use x="521.142578" xlink:href="#DejaVuSans-101"/>
     <use x="582.666016" xlink:href="#DejaVuSans-115"/>
    </g>
   </g>
   <g id="text_19">
    <!-- v2.4, hv-hash=ff0e71e8cd978373 -->
    <g style="fill:#808080;" transform="translate(112.648687 294.151352)scale(0.1 -0.1)">
     <defs>
      <path d="M 54.890625 33.015625 
L 54.890625 0 
L 45.90625 0 
L 45.90625 32.71875 
Q 45.90625 40.484375 42.875 44.328125 
Q 39.84375 48.1875 33.796875 48.1875 
Q 26.515625 48.1875 22.3125 43.546875 
Q 18.109375 38.921875 18.109375 30.90625 
L 18.109375 0 
L 9.078125 0 
L 9.078125 75.984375 
L 18.109375 75.984375 
L 18.109375 46.1875 
Q 21.34375 51.125 25.703125 53.5625 
Q 30.078125 56 35.796875 56 
Q 45.21875 56 50.046875 50.171875 
Q 54.890625 44.34375 54.890625 33.015625 
z
" id="DejaVuSans-104"/>
      <path d="M 10.59375 45.40625 
L 73.1875 45.40625 
L 73.1875 37.203125 
L 10.59375 37.203125 
z
M 10.59375 25.484375 
L 73.1875 25.484375 
L 73.1875 17.1875 
L 10.59375 17.1875 
z
" id="DejaVuSans-61"/>
      <path d="M 8.203125 72.90625 
L 55.078125 72.90625 
L 55.078125 68.703125 
L 28.609375 0 
L 18.3125 0 
L 43.21875 64.59375 
L 8.203125 64.59375 
z
" id="DejaVuSans-55"/>
      <path d="M 10.984375 1.515625 
L 10.984375 10.5 
Q 14.703125 8.734375 18.5 7.8125 
Q 22.3125 6.890625 25.984375 6.890625 
Q 35.75 6.890625 40.890625 13.453125 
Q 46.046875 20.015625 46.78125 33.40625 
Q 43.953125 29.203125 39.59375 26.953125 
Q 35.25 24.703125 29.984375 24.703125 
Q 19.046875 24.703125 12.671875 31.3125 
Q 6.296875 37.9375 6.296875 49.421875 
Q 6.296875 60.640625 12.9375 67.421875 
Q 19.578125 74.21875 30.609375 74.21875 
Q 43.265625 74.21875 49.921875 64.515625 
Q 56.59375 54.828125 56.59375 36.375 
Q 56.59375 19.140625 48.40625 8.859375 
Q 40.234375 -1.421875 26.421875 -1.421875 
Q 22.703125 -1.421875 18.890625 -0.6875 
Q 15.09375 0.046875 10.984375 1.515625 
z
M 30.609375 32.421875 
Q 37.25 32.421875 41.125 36.953125 
Q 45.015625 41.5 45.015625 49.421875 
Q 45.015625 57.28125 41.125 61.84375 
Q 37.25 66.40625 30.609375 66.40625 
Q 23.96875 66.40625 20.09375 61.84375 
Q 16.21875 57.28125 16.21875 49.421875 
Q 16.21875 41.5 20.09375 36.953125 
Q 23.96875 32.421875 30.609375 32.421875 
z
" id="DejaVuSans-57"/>
     </defs>
     <use xlink:href="#DejaVuSans-118"/>
     <use x="59.179688" xlink:href="#DejaVuSans-50"/>
     <use x="122.802734" xlink:href="#DejaVuSans-46"/>
     <use x="154.589844" xlink:href="#DejaVuSans-52"/>
     <use x="218.212891" xlink:href="#DejaVuSans-44"/>
     <use x="250" xlink:href="#DejaVuSans-32"/>
     <use x="281.787109" xlink:href="#DejaVuSans-104"/>
     <use x="345.166016" xlink:href="#DejaVuSans-118"/>
     <use x="401.720703" xlink:href="#DejaVuSans-45"/>
     <use x="437.804688" xlink:href="#DejaVuSans-104"/>
     <use x="501.183594" xlink:href="#DejaVuSans-97"/>
     <use x="562.462891" xlink:href="#DejaVuSans-115"/>
     <use x="614.5625" xlink:href="#DejaVuSans-104"/>
     <use x="677.941406" xlink:href="#DejaVuSans-61"/>
     <use x="761.730469" xlink:href="#DejaVuSans-102"/>
     <use x="796.935547" xlink:href="#DejaVuSans-102"/>
     <use x="832.140625" xlink:href="#DejaVuSans-48"/>
     <use x="895.763672" xlink:href="#DejaVuSans-101"/>
     <use x="957.287109" xlink:href="#DejaVuSans-55"/>
     <use x="1020.910156" xlink:href="#DejaVuSans-49"/>
     <use x="1084.533203" xlink:href="#DejaVuSans-101"/>
     <use x="1146.056641" xlink:href="#DejaVuSans-56"/>
     <use x="1209.679688" xlink:href="#DejaVuSans-99"/>
     <use x="1264.660156" xlink:href="#DejaVuSans-100"/>
     <use x="1328.136719" xlink:href="#DejaVuSans-57"/>
     <use x="1391.759766" xlink:href="#DejaVuSans-55"/>
     <use x="1455.382812" xlink:href="#DejaVuSans-56"/>
     <use x="1519.005859" xlink:href="#DejaVuSans-51"/>
     <use x="1582.628906" xlink:href="#DejaVuSans-55"/>
     <use x="1646.251953" xlink:href="#DejaVuSans-51"/>
    </g>
   </g>
   <g id="text_20">
    <!-- 18 sep. Ellipsoid/Schwefel -->
    <g transform="translate(68.3815 21.648)scale(0.2 -0.2)">
     <defs>
      <path d="M 9.8125 72.90625 
L 55.90625 72.90625 
L 55.90625 64.59375 
L 19.671875 64.59375 
L 19.671875 43.015625 
L 54.390625 43.015625 
L 54.390625 34.71875 
L 19.671875 34.71875 
L 19.671875 8.296875 
L 56.78125 8.296875 
L 56.78125 0 
L 9.8125 0 
z
" id="DejaVuSans-69"/>
      <path d="M 53.515625 70.515625 
L 53.515625 60.890625 
Q 47.90625 63.578125 42.921875 64.890625 
Q 37.9375 66.21875 33.296875 66.21875 
Q 25.25 66.21875 20.875 63.09375 
Q 16.5 59.96875 16.5 54.203125 
Q 16.5 49.359375 19.40625 46.890625 
Q 22.3125 44.4375 30.421875 42.921875 
L 36.375 41.703125 
Q 47.40625 39.59375 52.65625 34.296875 
Q 57.90625 29 57.90625 20.125 
Q 57.90625 9.515625 50.796875 4.046875 
Q 43.703125 -1.421875 29.984375 -1.421875 
Q 24.8125 -1.421875 18.96875 -0.25 
Q 13.140625 0.921875 6.890625 3.21875 
L 6.890625 13.375 
Q 12.890625 10.015625 18.65625 8.296875 
Q 24.421875 6.59375 29.984375 6.59375 
Q 38.421875 6.59375 43.015625 9.90625 
Q 47.609375 13.234375 47.609375 19.390625 
Q 47.609375 24.75 44.3125 27.78125 
Q 41.015625 30.8125 33.5 32.328125 
L 27.484375 33.5 
Q 16.453125 35.6875 11.515625 40.375 
Q 6.59375 45.0625 6.59375 53.421875 
Q 6.59375 63.09375 13.40625 68.65625 
Q 20.21875 74.21875 32.171875 74.21875 
Q 37.3125 74.21875 42.625 73.28125 
Q 47.953125 72.359375 53.515625 70.515625 
z
" id="DejaVuSans-83"/>
      <path d="M 4.203125 54.6875 
L 13.1875 54.6875 
L 24.421875 12.015625 
L 35.59375 54.6875 
L 46.1875 54.6875 
L 57.421875 12.015625 
L 68.609375 54.6875 
L 77.59375 54.6875 
L 63.28125 0 
L 52.6875 0 
L 40.921875 44.828125 
L 29.109375 0 
L 18.5 0 
z
" id="DejaVuSans-119"/>
     </defs>
     <use xlink:href="#DejaVuSans-49"/>
     <use x="63.623047" xlink:href="#DejaVuSans-56"/>
     <use x="127.246094" xlink:href="#DejaVuSans-32"/>
     <use x="159.033203" xlink:href="#DejaVuSans-115"/>
     <use x="211.132812" xlink:href="#DejaVuSans-101"/>
     <use x="272.65625" xlink:href="#DejaVuSans-112"/>
     <use x="336.132812" xlink:href="#DejaVuSans-46"/>
     <use x="367.919922" xlink:href="#DejaVuSans-32"/>
     <use x="399.707031" xlink:href="#DejaVuSans-69"/>
     <use x="462.890625" xlink:href="#DejaVuSans-108"/>
     <use x="490.673828" xlink:href="#DejaVuSans-108"/>
     <use x="518.457031" xlink:href="#DejaVuSans-105"/>
     <use x="546.240234" xlink:href="#DejaVuSans-112"/>
     <use x="609.716797" xlink:href="#DejaVuSans-115"/>
     <use x="661.816406" xlink:href="#DejaVuSans-111"/>
     <use x="722.998047" xlink:href="#DejaVuSans-105"/>
     <use x="750.78125" xlink:href="#DejaVuSans-100"/>
     <use x="814.257812" xlink:href="#DejaVuSans-47"/>
     <use x="847.949219" xlink:href="#DejaVuSans-83"/>
     <use x="911.425781" xlink:href="#DejaVuSans-99"/>
     <use x="966.40625" xlink:href="#DejaVuSans-104"/>
     <use x="1029.785156" xlink:href="#DejaVuSans-119"/>
     <use x="1111.572266" xlink:href="#DejaVuSans-101"/>
     <use x="1173.095703" xlink:href="#DejaVuSans-102"/>
     <use x="1208.300781" xlink:href="#DejaVuSans-101"/>
     <use x="1269.824219" xlink:href="#DejaVuSans-108"/>
    </g>
   </g>
  </g>
 </g>
 <defs>
  <clipPath id="pe5d4394b96">
   <rect height="271.296" width="281.088" x="57.6" y="27.648"/>
  </clipPath>
 </defs>
</svg>
