<?xml version="1.0" encoding="utf-8" standalone="no"?>
<!DOCTYPE svg PUBLIC "-//W3C//DTD SVG 1.1//EN"
  "http://www.w3.org/Graphics/SVG/1.1/DTD/svg11.dtd">
<!-- Created with matplotlib (https://matplotlib.org/) -->
<svg height="345.6pt" version="1.1" viewBox="0 0 460.8 345.6" width="460.8pt" xmlns="http://www.w3.org/2000/svg" xmlns:xlink="http://www.w3.org/1999/xlink">
 <metadata>
  <rdf:RDF xmlns:cc="http://creativecommons.org/ns#" xmlns:dc="http://purl.org/dc/elements/1.1/" xmlns:rdf="http://www.w3.org/1999/02/22-rdf-syntax-ns#">
   <cc:Work>
    <dc:type rdf:resource="http://purl.org/dc/dcmitype/StillImage"/>
    <dc:date>2021-03-30T16:55:20.602598</dc:date>
    <dc:format>image/svg+xml</dc:format>
    <dc:creator>
     <cc:Agent>
      <dc:title>Matplotlib v3.3.4, https://matplotlib.org/</dc:title>
     </cc:Agent>
    </dc:creator>
   </cc:Work>
  </rdf:RDF>
 </metadata>
 <defs>
  <style type="text/css">*{stroke-linecap:butt;stroke-linejoin:round;}</style>
 </defs>
 <g id="figure_1">
  <g id="patch_1">
   <path d="M 0 345.6 
L 460.8 345.6 
L 460.8 0 
L 0 0 
z
" style="fill:#ffffff;"/>
  </g>
  <g id="axes_1">
   <g id="patch_2">
    <path d="M 57.6 298.944 
L 338.688 298.944 
L 338.688 3.456 
L 57.6 3.456 
z
" style="fill:#ffffff;"/>
   </g>
   <g id="matplotlib.axis_1">
    <g id="xtick_1">
     <g id="line2d_1">
      <path clip-path="url(#p38bdb5a6ac)" d="M 57.6 298.944 
L 57.6 3.456 
" style="fill:none;stroke:#b0b0b0;stroke-linecap:square;stroke-width:0.8;"/>
     </g>
     <g id="line2d_2">
      <defs>
       <path d="M 0 0 
L 0 3.5 
" id="mcfecf055bd" style="stroke:#000000;stroke-width:0.8;"/>
      </defs>
      <g>
       <use style="stroke:#000000;stroke-width:0.8;" x="57.6" xlink:href="#mcfecf055bd" y="298.944"/>
      </g>
     </g>
     <g id="text_1">
      <!-- 0 -->
      <g transform="translate(51.2375 321.140875)scale(0.2 -0.2)">
       <defs>
        <path d="M 31.78125 66.40625 
Q 24.171875 66.40625 20.328125 58.90625 
Q 16.5 51.421875 16.5 36.375 
Q 16.5 21.390625 20.328125 13.890625 
Q 24.171875 6.390625 31.78125 6.390625 
Q 39.453125 6.390625 43.28125 13.890625 
Q 47.125 21.390625 47.125 36.375 
Q 47.125 51.421875 43.28125 58.90625 
Q 39.453125 66.40625 31.78125 66.40625 
z
M 31.78125 74.21875 
Q 44.046875 74.21875 50.515625 64.515625 
Q 56.984375 54.828125 56.984375 36.375 
Q 56.984375 17.96875 50.515625 8.265625 
Q 44.046875 -1.421875 31.78125 -1.421875 
Q 19.53125 -1.421875 13.0625 8.265625 
Q 6.59375 17.96875 6.59375 36.375 
Q 6.59375 54.828125 13.0625 64.515625 
Q 19.53125 74.21875 31.78125 74.21875 
z
" id="DejaVuSans-48"/>
       </defs>
       <use xlink:href="#DejaVuSans-48"/>
      </g>
     </g>
    </g>
    <g id="xtick_2">
     <g id="line2d_3">
      <path clip-path="url(#p38bdb5a6ac)" d="M 137.910857 298.944 
L 137.910857 3.456 
" style="fill:none;stroke:#b0b0b0;stroke-linecap:square;stroke-width:0.8;"/>
     </g>
     <g id="line2d_4">
      <g>
       <use style="stroke:#000000;stroke-width:0.8;" x="137.910857" xlink:href="#mcfecf055bd" y="298.944"/>
      </g>
     </g>
     <g id="text_2">
      <!-- 2 -->
      <g transform="translate(131.548357 321.140875)scale(0.2 -0.2)">
       <defs>
        <path d="M 19.1875 8.296875 
L 53.609375 8.296875 
L 53.609375 0 
L 7.328125 0 
L 7.328125 8.296875 
Q 12.9375 14.109375 22.625 23.890625 
Q 32.328125 33.6875 34.8125 36.53125 
Q 39.546875 41.84375 41.421875 45.53125 
Q 43.3125 49.21875 43.3125 52.78125 
Q 43.3125 58.59375 39.234375 62.25 
Q 35.15625 65.921875 28.609375 65.921875 
Q 23.96875 65.921875 18.8125 64.3125 
Q 13.671875 62.703125 7.8125 59.421875 
L 7.8125 69.390625 
Q 13.765625 71.78125 18.9375 73 
Q 24.125 74.21875 28.421875 74.21875 
Q 39.75 74.21875 46.484375 68.546875 
Q 53.21875 62.890625 53.21875 53.421875 
Q 53.21875 48.921875 51.53125 44.890625 
Q 49.859375 40.875 45.40625 35.40625 
Q 44.1875 33.984375 37.640625 27.21875 
Q 31.109375 20.453125 19.1875 8.296875 
z
" id="DejaVuSans-50"/>
       </defs>
       <use xlink:href="#DejaVuSans-50"/>
      </g>
     </g>
    </g>
    <g id="xtick_3">
     <g id="line2d_5">
      <path clip-path="url(#p38bdb5a6ac)" d="M 218.221714 298.944 
L 218.221714 3.456 
" style="fill:none;stroke:#b0b0b0;stroke-linecap:square;stroke-width:0.8;"/>
     </g>
     <g id="line2d_6">
      <g>
       <use style="stroke:#000000;stroke-width:0.8;" x="218.221714" xlink:href="#mcfecf055bd" y="298.944"/>
      </g>
     </g>
     <g id="text_3">
      <!-- 4 -->
      <g transform="translate(211.859214 321.140875)scale(0.2 -0.2)">
       <defs>
        <path d="M 37.796875 64.3125 
L 12.890625 25.390625 
L 37.796875 25.390625 
z
M 35.203125 72.90625 
L 47.609375 72.90625 
L 47.609375 25.390625 
L 58.015625 25.390625 
L 58.015625 17.1875 
L 47.609375 17.1875 
L 47.609375 0 
L 37.796875 0 
L 37.796875 17.1875 
L 4.890625 17.1875 
L 4.890625 26.703125 
z
" id="DejaVuSans-52"/>
       </defs>
       <use xlink:href="#DejaVuSans-52"/>
      </g>
     </g>
    </g>
    <g id="xtick_4">
     <g id="line2d_7">
      <path clip-path="url(#p38bdb5a6ac)" d="M 298.532571 298.944 
L 298.532571 3.456 
" style="fill:none;stroke:#b0b0b0;stroke-linecap:square;stroke-width:0.8;"/>
     </g>
     <g id="line2d_8">
      <g>
       <use style="stroke:#000000;stroke-width:0.8;" x="298.532571" xlink:href="#mcfecf055bd" y="298.944"/>
      </g>
     </g>
     <g id="text_4">
      <!-- 6 -->
      <g transform="translate(292.170071 321.140875)scale(0.2 -0.2)">
       <defs>
        <path d="M 33.015625 40.375 
Q 26.375 40.375 22.484375 35.828125 
Q 18.609375 31.296875 18.609375 23.390625 
Q 18.609375 15.53125 22.484375 10.953125 
Q 26.375 6.390625 33.015625 6.390625 
Q 39.65625 6.390625 43.53125 10.953125 
Q 47.40625 15.53125 47.40625 23.390625 
Q 47.40625 31.296875 43.53125 35.828125 
Q 39.65625 40.375 33.015625 40.375 
z
M 52.59375 71.296875 
L 52.59375 62.3125 
Q 48.875 64.0625 45.09375 64.984375 
Q 41.3125 65.921875 37.59375 65.921875 
Q 27.828125 65.921875 22.671875 59.328125 
Q 17.53125 52.734375 16.796875 39.40625 
Q 19.671875 43.65625 24.015625 45.921875 
Q 28.375 48.1875 33.59375 48.1875 
Q 44.578125 48.1875 50.953125 41.515625 
Q 57.328125 34.859375 57.328125 23.390625 
Q 57.328125 12.15625 50.6875 5.359375 
Q 44.046875 -1.421875 33.015625 -1.421875 
Q 20.359375 -1.421875 13.671875 8.265625 
Q 6.984375 17.96875 6.984375 36.375 
Q 6.984375 53.65625 15.1875 63.9375 
Q 23.390625 74.21875 37.203125 74.21875 
Q 40.921875 74.21875 44.703125 73.484375 
Q 48.484375 72.75 52.59375 71.296875 
z
" id="DejaVuSans-54"/>
       </defs>
       <use xlink:href="#DejaVuSans-54"/>
      </g>
     </g>
    </g>
    <g id="xtick_5">
     <g id="line2d_9">
      <path clip-path="url(#p38bdb5a6ac)" d="M 97.755429 298.944 
L 97.755429 3.456 
" style="fill:none;stroke:#b0b0b0;stroke-linecap:square;stroke-width:0.8;"/>
     </g>
     <g id="line2d_10">
      <defs>
       <path d="M 0 0 
L 0 2 
" id="mb0c3d006f0" style="stroke:#000000;stroke-width:0.6;"/>
      </defs>
      <g>
       <use style="stroke:#000000;stroke-width:0.6;" x="97.755429" xlink:href="#mb0c3d006f0" y="298.944"/>
      </g>
     </g>
    </g>
    <g id="xtick_6">
     <g id="line2d_11">
      <path clip-path="url(#p38bdb5a6ac)" d="M 178.066286 298.944 
L 178.066286 3.456 
" style="fill:none;stroke:#b0b0b0;stroke-linecap:square;stroke-width:0.8;"/>
     </g>
     <g id="line2d_12">
      <g>
       <use style="stroke:#000000;stroke-width:0.6;" x="178.066286" xlink:href="#mb0c3d006f0" y="298.944"/>
      </g>
     </g>
    </g>
    <g id="xtick_7">
     <g id="line2d_13">
      <path clip-path="url(#p38bdb5a6ac)" d="M 258.377143 298.944 
L 258.377143 3.456 
" style="fill:none;stroke:#b0b0b0;stroke-linecap:square;stroke-width:0.8;"/>
     </g>
     <g id="line2d_14">
      <g>
       <use style="stroke:#000000;stroke-width:0.6;" x="258.377143" xlink:href="#mb0c3d006f0" y="298.944"/>
      </g>
     </g>
    </g>
    <g id="xtick_8">
     <g id="line2d_15">
      <path clip-path="url(#p38bdb5a6ac)" d="M 338.688 298.944 
L 338.688 3.456 
" style="fill:none;stroke:#b0b0b0;stroke-linecap:square;stroke-width:0.8;"/>
     </g>
     <g id="line2d_16">
      <g>
       <use style="stroke:#000000;stroke-width:0.6;" x="338.688" xlink:href="#mb0c3d006f0" y="298.944"/>
      </g>
     </g>
    </g>
    <g id="text_5">
     <!-- log10(# f-evals / dimension) -->
     <g transform="translate(77.764078 342.217594)scale(0.17 -0.17)">
      <defs>
       <path d="M 9.421875 75.984375 
L 18.40625 75.984375 
L 18.40625 0 
L 9.421875 0 
z
" id="DejaVuSans-108"/>
       <path d="M 30.609375 48.390625 
Q 23.390625 48.390625 19.1875 42.75 
Q 14.984375 37.109375 14.984375 27.296875 
Q 14.984375 17.484375 19.15625 11.84375 
Q 23.34375 6.203125 30.609375 6.203125 
Q 37.796875 6.203125 41.984375 11.859375 
Q 46.1875 17.53125 46.1875 27.296875 
Q 46.1875 37.015625 41.984375 42.703125 
Q 37.796875 48.390625 30.609375 48.390625 
z
M 30.609375 56 
Q 42.328125 56 49.015625 48.375 
Q 55.71875 40.765625 55.71875 27.296875 
Q 55.71875 13.875 49.015625 6.21875 
Q 42.328125 -1.421875 30.609375 -1.421875 
Q 18.84375 -1.421875 12.171875 6.21875 
Q 5.515625 13.875 5.515625 27.296875 
Q 5.515625 40.765625 12.171875 48.375 
Q 18.84375 56 30.609375 56 
z
" id="DejaVuSans-111"/>
       <path d="M 45.40625 27.984375 
Q 45.40625 37.75 41.375 43.109375 
Q 37.359375 48.484375 30.078125 48.484375 
Q 22.859375 48.484375 18.828125 43.109375 
Q 14.796875 37.75 14.796875 27.984375 
Q 14.796875 18.265625 18.828125 12.890625 
Q 22.859375 7.515625 30.078125 7.515625 
Q 37.359375 7.515625 41.375 12.890625 
Q 45.40625 18.265625 45.40625 27.984375 
z
M 54.390625 6.78125 
Q 54.390625 -7.171875 48.1875 -13.984375 
Q 42 -20.796875 29.203125 -20.796875 
Q 24.46875 -20.796875 20.265625 -20.09375 
Q 16.0625 -19.390625 12.109375 -17.921875 
L 12.109375 -9.1875 
Q 16.0625 -11.328125 19.921875 -12.34375 
Q 23.78125 -13.375 27.78125 -13.375 
Q 36.625 -13.375 41.015625 -8.765625 
Q 45.40625 -4.15625 45.40625 5.171875 
L 45.40625 9.625 
Q 42.625 4.78125 38.28125 2.390625 
Q 33.9375 0 27.875 0 
Q 17.828125 0 11.671875 7.65625 
Q 5.515625 15.328125 5.515625 27.984375 
Q 5.515625 40.671875 11.671875 48.328125 
Q 17.828125 56 27.875 56 
Q 33.9375 56 38.28125 53.609375 
Q 42.625 51.21875 45.40625 46.390625 
L 45.40625 54.6875 
L 54.390625 54.6875 
z
" id="DejaVuSans-103"/>
       <path d="M 12.40625 8.296875 
L 28.515625 8.296875 
L 28.515625 63.921875 
L 10.984375 60.40625 
L 10.984375 69.390625 
L 28.421875 72.90625 
L 38.28125 72.90625 
L 38.28125 8.296875 
L 54.390625 8.296875 
L 54.390625 0 
L 12.40625 0 
z
" id="DejaVuSans-49"/>
       <path d="M 31 75.875 
Q 24.46875 64.65625 21.28125 53.65625 
Q 18.109375 42.671875 18.109375 31.390625 
Q 18.109375 20.125 21.3125 9.0625 
Q 24.515625 -2 31 -13.1875 
L 23.1875 -13.1875 
Q 15.875 -1.703125 12.234375 9.375 
Q 8.59375 20.453125 8.59375 31.390625 
Q 8.59375 42.28125 12.203125 53.3125 
Q 15.828125 64.359375 23.1875 75.875 
z
" id="DejaVuSans-40"/>
       <path d="M 51.125 44 
L 36.921875 44 
L 32.8125 27.6875 
L 47.125 27.6875 
z
M 43.796875 71.78125 
L 38.71875 51.515625 
L 52.984375 51.515625 
L 58.109375 71.78125 
L 65.921875 71.78125 
L 60.890625 51.515625 
L 76.125 51.515625 
L 76.125 44 
L 58.984375 44 
L 54.984375 27.6875 
L 70.515625 27.6875 
L 70.515625 20.21875 
L 53.078125 20.21875 
L 48 0 
L 40.1875 0 
L 45.21875 20.21875 
L 30.90625 20.21875 
L 25.875 0 
L 18.015625 0 
L 23.09375 20.21875 
L 7.71875 20.21875 
L 7.71875 27.6875 
L 24.90625 27.6875 
L 29 44 
L 13.28125 44 
L 13.28125 51.515625 
L 30.90625 51.515625 
L 35.890625 71.78125 
z
" id="DejaVuSans-35"/>
       <path id="DejaVuSans-32"/>
       <path d="M 37.109375 75.984375 
L 37.109375 68.5 
L 28.515625 68.5 
Q 23.6875 68.5 21.796875 66.546875 
Q 19.921875 64.59375 19.921875 59.515625 
L 19.921875 54.6875 
L 34.71875 54.6875 
L 34.71875 47.703125 
L 19.921875 47.703125 
L 19.921875 0 
L 10.890625 0 
L 10.890625 47.703125 
L 2.296875 47.703125 
L 2.296875 54.6875 
L 10.890625 54.6875 
L 10.890625 58.5 
Q 10.890625 67.625 15.140625 71.796875 
Q 19.390625 75.984375 28.609375 75.984375 
z
" id="DejaVuSans-102"/>
       <path d="M 4.890625 31.390625 
L 31.203125 31.390625 
L 31.203125 23.390625 
L 4.890625 23.390625 
z
" id="DejaVuSans-45"/>
       <path d="M 56.203125 29.59375 
L 56.203125 25.203125 
L 14.890625 25.203125 
Q 15.484375 15.921875 20.484375 11.0625 
Q 25.484375 6.203125 34.421875 6.203125 
Q 39.59375 6.203125 44.453125 7.46875 
Q 49.3125 8.734375 54.109375 11.28125 
L 54.109375 2.78125 
Q 49.265625 0.734375 44.1875 -0.34375 
Q 39.109375 -1.421875 33.890625 -1.421875 
Q 20.796875 -1.421875 13.15625 6.1875 
Q 5.515625 13.8125 5.515625 26.8125 
Q 5.515625 40.234375 12.765625 48.109375 
Q 20.015625 56 32.328125 56 
Q 43.359375 56 49.78125 48.890625 
Q 56.203125 41.796875 56.203125 29.59375 
z
M 47.21875 32.234375 
Q 47.125 39.59375 43.09375 43.984375 
Q 39.0625 48.390625 32.421875 48.390625 
Q 24.90625 48.390625 20.390625 44.140625 
Q 15.875 39.890625 15.1875 32.171875 
z
" id="DejaVuSans-101"/>
       <path d="M 2.984375 54.6875 
L 12.5 54.6875 
L 29.59375 8.796875 
L 46.6875 54.6875 
L 56.203125 54.6875 
L 35.6875 0 
L 23.484375 0 
z
" id="DejaVuSans-118"/>
       <path d="M 34.28125 27.484375 
Q 23.390625 27.484375 19.1875 25 
Q 14.984375 22.515625 14.984375 16.5 
Q 14.984375 11.71875 18.140625 8.90625 
Q 21.296875 6.109375 26.703125 6.109375 
Q 34.1875 6.109375 38.703125 11.40625 
Q 43.21875 16.703125 43.21875 25.484375 
L 43.21875 27.484375 
z
M 52.203125 31.203125 
L 52.203125 0 
L 43.21875 0 
L 43.21875 8.296875 
Q 40.140625 3.328125 35.546875 0.953125 
Q 30.953125 -1.421875 24.3125 -1.421875 
Q 15.921875 -1.421875 10.953125 3.296875 
Q 6 8.015625 6 15.921875 
Q 6 25.140625 12.171875 29.828125 
Q 18.359375 34.515625 30.609375 34.515625 
L 43.21875 34.515625 
L 43.21875 35.40625 
Q 43.21875 41.609375 39.140625 45 
Q 35.0625 48.390625 27.6875 48.390625 
Q 23 48.390625 18.546875 47.265625 
Q 14.109375 46.140625 10.015625 43.890625 
L 10.015625 52.203125 
Q 14.9375 54.109375 19.578125 55.046875 
Q 24.21875 56 28.609375 56 
Q 40.484375 56 46.34375 49.84375 
Q 52.203125 43.703125 52.203125 31.203125 
z
" id="DejaVuSans-97"/>
       <path d="M 44.28125 53.078125 
L 44.28125 44.578125 
Q 40.484375 46.53125 36.375 47.5 
Q 32.28125 48.484375 27.875 48.484375 
Q 21.1875 48.484375 17.84375 46.4375 
Q 14.5 44.390625 14.5 40.28125 
Q 14.5 37.15625 16.890625 35.375 
Q 19.28125 33.59375 26.515625 31.984375 
L 29.59375 31.296875 
Q 39.15625 29.25 43.1875 25.515625 
Q 47.21875 21.78125 47.21875 15.09375 
Q 47.21875 7.46875 41.1875 3.015625 
Q 35.15625 -1.421875 24.609375 -1.421875 
Q 20.21875 -1.421875 15.453125 -0.5625 
Q 10.6875 0.296875 5.421875 2 
L 5.421875 11.28125 
Q 10.40625 8.6875 15.234375 7.390625 
Q 20.0625 6.109375 24.8125 6.109375 
Q 31.15625 6.109375 34.5625 8.28125 
Q 37.984375 10.453125 37.984375 14.40625 
Q 37.984375 18.0625 35.515625 20.015625 
Q 33.0625 21.96875 24.703125 23.78125 
L 21.578125 24.515625 
Q 13.234375 26.265625 9.515625 29.90625 
Q 5.8125 33.546875 5.8125 39.890625 
Q 5.8125 47.609375 11.28125 51.796875 
Q 16.75 56 26.8125 56 
Q 31.78125 56 36.171875 55.265625 
Q 40.578125 54.546875 44.28125 53.078125 
z
" id="DejaVuSans-115"/>
       <path d="M 25.390625 72.90625 
L 33.6875 72.90625 
L 8.296875 -9.28125 
L 0 -9.28125 
z
" id="DejaVuSans-47"/>
       <path d="M 45.40625 46.390625 
L 45.40625 75.984375 
L 54.390625 75.984375 
L 54.390625 0 
L 45.40625 0 
L 45.40625 8.203125 
Q 42.578125 3.328125 38.25 0.953125 
Q 33.9375 -1.421875 27.875 -1.421875 
Q 17.96875 -1.421875 11.734375 6.484375 
Q 5.515625 14.40625 5.515625 27.296875 
Q 5.515625 40.1875 11.734375 48.09375 
Q 17.96875 56 27.875 56 
Q 33.9375 56 38.25 53.625 
Q 42.578125 51.265625 45.40625 46.390625 
z
M 14.796875 27.296875 
Q 14.796875 17.390625 18.875 11.75 
Q 22.953125 6.109375 30.078125 6.109375 
Q 37.203125 6.109375 41.296875 11.75 
Q 45.40625 17.390625 45.40625 27.296875 
Q 45.40625 37.203125 41.296875 42.84375 
Q 37.203125 48.484375 30.078125 48.484375 
Q 22.953125 48.484375 18.875 42.84375 
Q 14.796875 37.203125 14.796875 27.296875 
z
" id="DejaVuSans-100"/>
       <path d="M 9.421875 54.6875 
L 18.40625 54.6875 
L 18.40625 0 
L 9.421875 0 
z
M 9.421875 75.984375 
L 18.40625 75.984375 
L 18.40625 64.59375 
L 9.421875 64.59375 
z
" id="DejaVuSans-105"/>
       <path d="M 52 44.1875 
Q 55.375 50.25 60.0625 53.125 
Q 64.75 56 71.09375 56 
Q 79.640625 56 84.28125 50.015625 
Q 88.921875 44.046875 88.921875 33.015625 
L 88.921875 0 
L 79.890625 0 
L 79.890625 32.71875 
Q 79.890625 40.578125 77.09375 44.375 
Q 74.3125 48.1875 68.609375 48.1875 
Q 61.625 48.1875 57.5625 43.546875 
Q 53.515625 38.921875 53.515625 30.90625 
L 53.515625 0 
L 44.484375 0 
L 44.484375 32.71875 
Q 44.484375 40.625 41.703125 44.40625 
Q 38.921875 48.1875 33.109375 48.1875 
Q 26.21875 48.1875 22.15625 43.53125 
Q 18.109375 38.875 18.109375 30.90625 
L 18.109375 0 
L 9.078125 0 
L 9.078125 54.6875 
L 18.109375 54.6875 
L 18.109375 46.1875 
Q 21.1875 51.21875 25.484375 53.609375 
Q 29.78125 56 35.6875 56 
Q 41.65625 56 45.828125 52.96875 
Q 50 49.953125 52 44.1875 
z
" id="DejaVuSans-109"/>
       <path d="M 54.890625 33.015625 
L 54.890625 0 
L 45.90625 0 
L 45.90625 32.71875 
Q 45.90625 40.484375 42.875 44.328125 
Q 39.84375 48.1875 33.796875 48.1875 
Q 26.515625 48.1875 22.3125 43.546875 
Q 18.109375 38.921875 18.109375 30.90625 
L 18.109375 0 
L 9.078125 0 
L 9.078125 54.6875 
L 18.109375 54.6875 
L 18.109375 46.1875 
Q 21.34375 51.125 25.703125 53.5625 
Q 30.078125 56 35.796875 56 
Q 45.21875 56 50.046875 50.171875 
Q 54.890625 44.34375 54.890625 33.015625 
z
" id="DejaVuSans-110"/>
       <path d="M 8.015625 75.875 
L 15.828125 75.875 
Q 23.140625 64.359375 26.78125 53.3125 
Q 30.421875 42.28125 30.421875 31.390625 
Q 30.421875 20.453125 26.78125 9.375 
Q 23.140625 -1.703125 15.828125 -13.1875 
L 8.015625 -13.1875 
Q 14.5 -2 17.703125 9.0625 
Q 20.90625 20.125 20.90625 31.390625 
Q 20.90625 42.671875 17.703125 53.65625 
Q 14.5 64.65625 8.015625 75.875 
z
" id="DejaVuSans-41"/>
      </defs>
      <use xlink:href="#DejaVuSans-108"/>
      <use x="27.783203" xlink:href="#DejaVuSans-111"/>
      <use x="88.964844" xlink:href="#DejaVuSans-103"/>
      <use x="152.441406" xlink:href="#DejaVuSans-49"/>
      <use x="216.064453" xlink:href="#DejaVuSans-48"/>
      <use x="279.6875" xlink:href="#DejaVuSans-40"/>
      <use x="318.701172" xlink:href="#DejaVuSans-35"/>
      <use x="402.490234" xlink:href="#DejaVuSans-32"/>
      <use x="434.277344" xlink:href="#DejaVuSans-102"/>
      <use x="463.982422" xlink:href="#DejaVuSans-45"/>
      <use x="500.066406" xlink:href="#DejaVuSans-101"/>
      <use x="561.589844" xlink:href="#DejaVuSans-118"/>
      <use x="620.769531" xlink:href="#DejaVuSans-97"/>
      <use x="682.048828" xlink:href="#DejaVuSans-108"/>
      <use x="709.832031" xlink:href="#DejaVuSans-115"/>
      <use x="761.931641" xlink:href="#DejaVuSans-32"/>
      <use x="793.71875" xlink:href="#DejaVuSans-47"/>
      <use x="827.410156" xlink:href="#DejaVuSans-32"/>
      <use x="859.197266" xlink:href="#DejaVuSans-100"/>
      <use x="922.673828" xlink:href="#DejaVuSans-105"/>
      <use x="950.457031" xlink:href="#DejaVuSans-109"/>
      <use x="1047.869141" xlink:href="#DejaVuSans-101"/>
      <use x="1109.392578" xlink:href="#DejaVuSans-110"/>
      <use x="1172.771484" xlink:href="#DejaVuSans-115"/>
      <use x="1224.871094" xlink:href="#DejaVuSans-105"/>
      <use x="1252.654297" xlink:href="#DejaVuSans-111"/>
      <use x="1313.835938" xlink:href="#DejaVuSans-110"/>
      <use x="1377.214844" xlink:href="#DejaVuSans-41"/>
     </g>
    </g>
   </g>
   <g id="matplotlib.axis_2">
    <g id="ytick_1">
     <g id="line2d_17">
      <path clip-path="url(#p38bdb5a6ac)" d="M 57.6 298.944 
L 338.688 298.944 
" style="fill:none;stroke:#b0b0b0;stroke-linecap:square;stroke-width:0.8;"/>
     </g>
     <g id="line2d_18">
      <defs>
       <path d="M 0 0 
L -3.5 0 
" id="m35a93dc218" style="stroke:#000000;stroke-width:0.8;"/>
      </defs>
      <g>
       <use style="stroke:#000000;stroke-width:0.8;" x="57.6" xlink:href="#m35a93dc218" y="298.944"/>
      </g>
     </g>
     <g id="text_6">
      <!-- 0.0 -->
      <g transform="translate(25.155 305.02275)scale(0.16 -0.16)">
       <defs>
        <path d="M 10.6875 12.40625 
L 21 12.40625 
L 21 0 
L 10.6875 0 
z
" id="DejaVuSans-46"/>
       </defs>
       <use xlink:href="#DejaVuSans-48"/>
       <use x="63.623047" xlink:href="#DejaVuSans-46"/>
       <use x="95.410156" xlink:href="#DejaVuSans-48"/>
      </g>
     </g>
    </g>
    <g id="ytick_2">
     <g id="line2d_19">
      <path clip-path="url(#p38bdb5a6ac)" d="M 57.6 240.431525 
L 338.688 240.431525 
" style="fill:none;stroke:#b0b0b0;stroke-linecap:square;stroke-width:0.8;"/>
     </g>
     <g id="line2d_20">
      <g>
       <use style="stroke:#000000;stroke-width:0.8;" x="57.6" xlink:href="#m35a93dc218" y="240.431525"/>
      </g>
     </g>
     <g id="text_7">
      <!-- 0.2 -->
      <g transform="translate(25.155 246.510275)scale(0.16 -0.16)">
       <use xlink:href="#DejaVuSans-48"/>
       <use x="63.623047" xlink:href="#DejaVuSans-46"/>
       <use x="95.410156" xlink:href="#DejaVuSans-50"/>
      </g>
     </g>
    </g>
    <g id="ytick_3">
     <g id="line2d_21">
      <path clip-path="url(#p38bdb5a6ac)" d="M 57.6 181.91905 
L 338.688 181.91905 
" style="fill:none;stroke:#b0b0b0;stroke-linecap:square;stroke-width:0.8;"/>
     </g>
     <g id="line2d_22">
      <g>
       <use style="stroke:#000000;stroke-width:0.8;" x="57.6" xlink:href="#m35a93dc218" y="181.91905"/>
      </g>
     </g>
     <g id="text_8">
      <!-- 0.4 -->
      <g transform="translate(25.155 187.9978)scale(0.16 -0.16)">
       <use xlink:href="#DejaVuSans-48"/>
       <use x="63.623047" xlink:href="#DejaVuSans-46"/>
       <use x="95.410156" xlink:href="#DejaVuSans-52"/>
      </g>
     </g>
    </g>
    <g id="ytick_4">
     <g id="line2d_23">
      <path clip-path="url(#p38bdb5a6ac)" d="M 57.6 123.406574 
L 338.688 123.406574 
" style="fill:none;stroke:#b0b0b0;stroke-linecap:square;stroke-width:0.8;"/>
     </g>
     <g id="line2d_24">
      <g>
       <use style="stroke:#000000;stroke-width:0.8;" x="57.6" xlink:href="#m35a93dc218" y="123.406574"/>
      </g>
     </g>
     <g id="text_9">
      <!-- 0.6 -->
      <g transform="translate(25.155 129.485324)scale(0.16 -0.16)">
       <use xlink:href="#DejaVuSans-48"/>
       <use x="63.623047" xlink:href="#DejaVuSans-46"/>
       <use x="95.410156" xlink:href="#DejaVuSans-54"/>
      </g>
     </g>
    </g>
    <g id="ytick_5">
     <g id="line2d_25">
      <path clip-path="url(#p38bdb5a6ac)" d="M 57.6 64.894099 
L 338.688 64.894099 
" style="fill:none;stroke:#b0b0b0;stroke-linecap:square;stroke-width:0.8;"/>
     </g>
     <g id="line2d_26">
      <g>
       <use style="stroke:#000000;stroke-width:0.8;" x="57.6" xlink:href="#m35a93dc218" y="64.894099"/>
      </g>
     </g>
     <g id="text_10">
      <!-- 0.8 -->
      <g transform="translate(25.155 70.972849)scale(0.16 -0.16)">
       <defs>
        <path d="M 31.78125 34.625 
Q 24.75 34.625 20.71875 30.859375 
Q 16.703125 27.09375 16.703125 20.515625 
Q 16.703125 13.921875 20.71875 10.15625 
Q 24.75 6.390625 31.78125 6.390625 
Q 38.8125 6.390625 42.859375 10.171875 
Q 46.921875 13.96875 46.921875 20.515625 
Q 46.921875 27.09375 42.890625 30.859375 
Q 38.875 34.625 31.78125 34.625 
z
M 21.921875 38.8125 
Q 15.578125 40.375 12.03125 44.71875 
Q 8.5 49.078125 8.5 55.328125 
Q 8.5 64.0625 14.71875 69.140625 
Q 20.953125 74.21875 31.78125 74.21875 
Q 42.671875 74.21875 48.875 69.140625 
Q 55.078125 64.0625 55.078125 55.328125 
Q 55.078125 49.078125 51.53125 44.71875 
Q 48 40.375 41.703125 38.8125 
Q 48.828125 37.15625 52.796875 32.3125 
Q 56.78125 27.484375 56.78125 20.515625 
Q 56.78125 9.90625 50.3125 4.234375 
Q 43.84375 -1.421875 31.78125 -1.421875 
Q 19.734375 -1.421875 13.25 4.234375 
Q 6.78125 9.90625 6.78125 20.515625 
Q 6.78125 27.484375 10.78125 32.3125 
Q 14.796875 37.15625 21.921875 38.8125 
z
M 18.3125 54.390625 
Q 18.3125 48.734375 21.84375 45.5625 
Q 25.390625 42.390625 31.78125 42.390625 
Q 38.140625 42.390625 41.71875 45.5625 
Q 45.3125 48.734375 45.3125 54.390625 
Q 45.3125 60.0625 41.71875 63.234375 
Q 38.140625 66.40625 31.78125 66.40625 
Q 25.390625 66.40625 21.84375 63.234375 
Q 18.3125 60.0625 18.3125 54.390625 
z
" id="DejaVuSans-56"/>
       </defs>
       <use xlink:href="#DejaVuSans-48"/>
       <use x="63.623047" xlink:href="#DejaVuSans-46"/>
       <use x="95.410156" xlink:href="#DejaVuSans-56"/>
      </g>
     </g>
    </g>
    <g id="ytick_6">
     <g id="line2d_27">
      <path clip-path="url(#p38bdb5a6ac)" d="M 57.6 6.381624 
L 338.688 6.381624 
" style="fill:none;stroke:#b0b0b0;stroke-linecap:square;stroke-width:0.8;"/>
     </g>
     <g id="line2d_28">
      <g>
       <use style="stroke:#000000;stroke-width:0.8;" x="57.6" xlink:href="#m35a93dc218" y="6.381624"/>
      </g>
     </g>
     <g id="text_11">
      <!-- 1.0 -->
      <g transform="translate(25.155 12.460374)scale(0.16 -0.16)">
       <use xlink:href="#DejaVuSans-49"/>
       <use x="63.623047" xlink:href="#DejaVuSans-46"/>
       <use x="95.410156" xlink:href="#DejaVuSans-48"/>
      </g>
     </g>
    </g>
    <g id="text_12">
     <!-- Fraction of function,target pairs -->
     <g transform="translate(17.619531 285.585)rotate(-90)scale(0.17 -0.17)">
      <defs>
       <path d="M 9.8125 72.90625 
L 51.703125 72.90625 
L 51.703125 64.59375 
L 19.671875 64.59375 
L 19.671875 43.109375 
L 48.578125 43.109375 
L 48.578125 34.8125 
L 19.671875 34.8125 
L 19.671875 0 
L 9.8125 0 
z
" id="DejaVuSans-70"/>
       <path d="M 41.109375 46.296875 
Q 39.59375 47.171875 37.8125 47.578125 
Q 36.03125 48 33.890625 48 
Q 26.265625 48 22.1875 43.046875 
Q 18.109375 38.09375 18.109375 28.8125 
L 18.109375 0 
L 9.078125 0 
L 9.078125 54.6875 
L 18.109375 54.6875 
L 18.109375 46.1875 
Q 20.953125 51.171875 25.484375 53.578125 
Q 30.03125 56 36.53125 56 
Q 37.453125 56 38.578125 55.875 
Q 39.703125 55.765625 41.0625 55.515625 
z
" id="DejaVuSans-114"/>
       <path d="M 48.78125 52.59375 
L 48.78125 44.1875 
Q 44.96875 46.296875 41.140625 47.34375 
Q 37.3125 48.390625 33.40625 48.390625 
Q 24.65625 48.390625 19.8125 42.84375 
Q 14.984375 37.3125 14.984375 27.296875 
Q 14.984375 17.28125 19.8125 11.734375 
Q 24.65625 6.203125 33.40625 6.203125 
Q 37.3125 6.203125 41.140625 7.25 
Q 44.96875 8.296875 48.78125 10.40625 
L 48.78125 2.09375 
Q 45.015625 0.34375 40.984375 -0.53125 
Q 36.96875 -1.421875 32.421875 -1.421875 
Q 20.0625 -1.421875 12.78125 6.34375 
Q 5.515625 14.109375 5.515625 27.296875 
Q 5.515625 40.671875 12.859375 48.328125 
Q 20.21875 56 33.015625 56 
Q 37.15625 56 41.109375 55.140625 
Q 45.0625 54.296875 48.78125 52.59375 
z
" id="DejaVuSans-99"/>
       <path d="M 18.3125 70.21875 
L 18.3125 54.6875 
L 36.8125 54.6875 
L 36.8125 47.703125 
L 18.3125 47.703125 
L 18.3125 18.015625 
Q 18.3125 11.328125 20.140625 9.421875 
Q 21.96875 7.515625 27.59375 7.515625 
L 36.8125 7.515625 
L 36.8125 0 
L 27.59375 0 
Q 17.1875 0 13.234375 3.875 
Q 9.28125 7.765625 9.28125 18.015625 
L 9.28125 47.703125 
L 2.6875 47.703125 
L 2.6875 54.6875 
L 9.28125 54.6875 
L 9.28125 70.21875 
z
" id="DejaVuSans-116"/>
       <path d="M 8.5 21.578125 
L 8.5 54.6875 
L 17.484375 54.6875 
L 17.484375 21.921875 
Q 17.484375 14.15625 20.5 10.265625 
Q 23.53125 6.390625 29.59375 6.390625 
Q 36.859375 6.390625 41.078125 11.03125 
Q 45.3125 15.671875 45.3125 23.6875 
L 45.3125 54.6875 
L 54.296875 54.6875 
L 54.296875 0 
L 45.3125 0 
L 45.3125 8.40625 
Q 42.046875 3.421875 37.71875 1 
Q 33.40625 -1.421875 27.6875 -1.421875 
Q 18.265625 -1.421875 13.375 4.4375 
Q 8.5 10.296875 8.5 21.578125 
z
M 31.109375 56 
z
" id="DejaVuSans-117"/>
       <path d="M 11.71875 12.40625 
L 22.015625 12.40625 
L 22.015625 4 
L 14.015625 -11.625 
L 7.71875 -11.625 
L 11.71875 4 
z
" id="DejaVuSans-44"/>
       <path d="M 18.109375 8.203125 
L 18.109375 -20.796875 
L 9.078125 -20.796875 
L 9.078125 54.6875 
L 18.109375 54.6875 
L 18.109375 46.390625 
Q 20.953125 51.265625 25.265625 53.625 
Q 29.59375 56 35.59375 56 
Q 45.5625 56 51.78125 48.09375 
Q 58.015625 40.1875 58.015625 27.296875 
Q 58.015625 14.40625 51.78125 6.484375 
Q 45.5625 -1.421875 35.59375 -1.421875 
Q 29.59375 -1.421875 25.265625 0.953125 
Q 20.953125 3.328125 18.109375 8.203125 
z
M 48.6875 27.296875 
Q 48.6875 37.203125 44.609375 42.84375 
Q 40.53125 48.484375 33.40625 48.484375 
Q 26.265625 48.484375 22.1875 42.84375 
Q 18.109375 37.203125 18.109375 27.296875 
Q 18.109375 17.390625 22.1875 11.75 
Q 26.265625 6.109375 33.40625 6.109375 
Q 40.53125 6.109375 44.609375 11.75 
Q 48.6875 17.390625 48.6875 27.296875 
z
" id="DejaVuSans-112"/>
      </defs>
      <use xlink:href="#DejaVuSans-70"/>
      <use x="50.269531" xlink:href="#DejaVuSans-114"/>
      <use x="91.382812" xlink:href="#DejaVuSans-97"/>
      <use x="152.662109" xlink:href="#DejaVuSans-99"/>
      <use x="207.642578" xlink:href="#DejaVuSans-116"/>
      <use x="246.851562" xlink:href="#DejaVuSans-105"/>
      <use x="274.634766" xlink:href="#DejaVuSans-111"/>
      <use x="335.816406" xlink:href="#DejaVuSans-110"/>
      <use x="399.195312" xlink:href="#DejaVuSans-32"/>
      <use x="430.982422" xlink:href="#DejaVuSans-111"/>
      <use x="492.164062" xlink:href="#DejaVuSans-102"/>
      <use x="527.369141" xlink:href="#DejaVuSans-32"/>
      <use x="559.15625" xlink:href="#DejaVuSans-102"/>
      <use x="594.361328" xlink:href="#DejaVuSans-117"/>
      <use x="657.740234" xlink:href="#DejaVuSans-110"/>
      <use x="721.119141" xlink:href="#DejaVuSans-99"/>
      <use x="776.099609" xlink:href="#DejaVuSans-116"/>
      <use x="815.308594" xlink:href="#DejaVuSans-105"/>
      <use x="843.091797" xlink:href="#DejaVuSans-111"/>
      <use x="904.273438" xlink:href="#DejaVuSans-110"/>
      <use x="967.652344" xlink:href="#DejaVuSans-44"/>
      <use x="999.439453" xlink:href="#DejaVuSans-116"/>
      <use x="1038.648438" xlink:href="#DejaVuSans-97"/>
      <use x="1099.927734" xlink:href="#DejaVuSans-114"/>
      <use x="1139.291016" xlink:href="#DejaVuSans-103"/>
      <use x="1202.767578" xlink:href="#DejaVuSans-101"/>
      <use x="1264.291016" xlink:href="#DejaVuSans-116"/>
      <use x="1303.5" xlink:href="#DejaVuSans-32"/>
      <use x="1335.287109" xlink:href="#DejaVuSans-112"/>
      <use x="1398.763672" xlink:href="#DejaVuSans-97"/>
      <use x="1460.042969" xlink:href="#DejaVuSans-105"/>
      <use x="1487.826172" xlink:href="#DejaVuSans-114"/>
      <use x="1528.939453" xlink:href="#DejaVuSans-115"/>
     </g>
    </g>
   </g>
   <g id="line2d_29">
    <defs>
     <path d="M 0 1.5 
C 0.397805 1.5 0.77937 1.341951 1.06066 1.06066 
C 1.341951 0.77937 1.5 0.397805 1.5 0 
C 1.5 -0.397805 1.341951 -0.77937 1.06066 -1.06066 
C 0.77937 -1.341951 0.397805 -1.5 0 -1.5 
C -0.397805 -1.5 -0.77937 -1.341951 -1.06066 -1.06066 
C -1.341951 -0.77937 -1.5 -0.397805 -1.5 0 
C -1.5 0.397805 -1.341951 0.77937 -1.06066 1.06066 
C -0.77937 1.341951 -0.397805 1.5 0 1.5 
z
" id="m8b7d11749e" style="stroke:#000080;"/>
    </defs>
    <g>
     <use style="fill:#000080;stroke:#000080;" x="254.164473" xlink:href="#m8b7d11749e" y="51.274816"/>
     <use style="fill:#000080;stroke:#000080;" x="254.164473" xlink:href="#m8b7d11749e" y="51.274816"/>
    </g>
   </g>
   <g id="line2d_30">
    <path d="M 29.53256 298.944 
L 29.53256 298.439582 
L 87.643811 298.439582 
L 87.643811 297.935164 
L 98.100772 297.935164 
L 98.100772 297.430746 
L 108.948899 297.430746 
L 108.948899 296.421911 
L 110.859585 296.421911 
L 110.859585 295.917493 
L 115.586238 295.917493 
L 115.586238 295.413075 
L 116.914437 295.413075 
L 116.914437 294.404239 
L 119.301163 294.404239 
L 119.301163 293.899821 
L 121.400219 293.899821 
L 121.400219 293.395403 
L 122.362027 293.395403 
L 122.362027 292.386567 
L 123.273551 292.386567 
L 123.273551 290.873314 
L 124.139788 290.873314 
L 124.139788 289.864478 
L 124.965026 289.864478 
L 124.965026 289.36006 
L 125.752972 289.36006 
L 125.752972 287.846806 
L 126.50685 287.846806 
L 126.50685 286.837971 
L 127.229484 286.837971 
L 127.229484 286.333553 
L 127.923363 286.333553 
L 127.923363 285.324717 
L 128.590686 285.324717 
L 128.590686 284.820299 
L 129.233413 284.820299 
L 129.233413 283.307045 
L 129.853291 283.307045 
L 129.853291 281.793792 
L 130.45189 281.793792 
L 130.45189 281.289374 
L 131.030622 281.289374 
L 131.030622 280.784956 
L 133.170708 280.784956 
L 133.170708 280.280538 
L 133.667073 280.280538 
L 133.667073 279.77612 
L 134.149701 279.77612 
L 134.149701 279.271702 
L 134.61933 279.271702 
L 134.61933 278.767284 
L 135.522271 278.767284 
L 135.522271 276.749613 
L 136.79465 276.749613 
L 136.79465 276.245195 
L 137.198951 276.245195 
L 137.198951 274.731941 
L 137.594091 274.731941 
L 137.594091 274.227523 
L 137.980475 274.227523 
L 137.980475 272.71427 
L 139.090775 272.71427 
L 139.090775 272.209852 
L 139.793552 272.209852 
L 139.793552 271.705434 
L 140.134598 271.705434 
L 140.134598 271.201016 
L 140.79731 271.201016 
L 140.79731 270.696598 
L 141.119455 270.696598 
L 141.119455 270.19218 
L 142.051655 270.19218 
L 142.051655 269.687762 
L 142.936543 269.687762 
L 142.936543 269.183344 
L 144.582038 269.183344 
L 144.582038 268.678927 
L 144.841802 268.678927 
L 144.841802 267.165673 
L 146.08557 267.165673 
L 146.08557 266.661255 
L 146.559258 266.661255 
L 146.559258 265.652419 
L 147.02042 265.652419 
L 147.02042 265.148001 
L 149.575199 265.148001 
L 149.575199 264.643583 
L 151.834513 264.643583 
L 151.834513 264.139166 
L 152.900071 264.139166 
L 152.900071 263.13033 
L 153.904255 263.13033 
L 153.904255 262.625912 
L 154.412564 262.625912 
L 154.412564 262.121494 
L 155.741666 262.121494 
L 155.741666 261.617076 
L 156.297301 261.617076 
L 156.406335 260.60824 
L 156.586556 260.60824 
L 156.586556 260.103822 
L 156.953214 260.103822 
L 156.953214 259.599405 
L 157.909655 259.599405 
L 157.909655 259.094987 
L 158.271501 259.094987 
L 158.271501 258.086151 
L 159.324282 258.086151 
L 159.324282 257.077315 
L 159.577838 257.077315 
L 159.577838 256.068479 
L 159.847601 256.068479 
L 159.847601 255.564061 
L 160.142522 255.564061 
L 160.200913 254.555226 
L 160.422949 254.555226 
L 160.461277 253.54639 
L 160.708377 253.54639 
L 160.746084 252.537554 
L 160.933404 252.537554 
L 160.933404 252.033136 
L 161.689969 252.033136 
L 161.689969 251.0243 
L 161.990653 251.0243 
L 162.060656 249.006629 
L 162.147765 249.006629 
L 162.147765 248.502211 
L 162.286241 248.502211 
L 162.286241 247.997793 
L 162.854457 247.997793 
L 162.9377 246.484539 
L 163.234125 246.484539 
L 163.283043 244.971286 
L 163.404741 244.971286 
L 163.501492 243.458032 
L 163.796472 243.458032 
L 163.796472 242.953614 
L 163.953867 242.953614 
L 164.00081 241.440361 
L 164.279845 241.440361 
L 164.364222 239.927107 
L 164.697709 239.927107 
L 164.697709 238.918271 
L 164.84721 238.918271 
L 164.921483 235.387346 
L 165.105794 235.387346 
L 165.105794 234.882928 
L 165.382267 234.882928 
L 165.389484 233.369674 
L 165.576079 233.369674 
L 165.625977 231.352003 
L 165.85228 231.352003 
L 165.894387 228.829913 
L 166.10341 228.829913 
L 166.172531 226.812242 
L 166.344146 226.812242 
L 166.453099 224.79457 
L 166.547878 224.79457 
L 166.547878 223.785734 
L 166.709167 223.785734 
L 166.769268 222.272481 
L 166.888852 222.272481 
L 166.968122 220.759227 
L 167.119055 220.759227 
L 167.216791 218.741555 
L 167.30752 218.741555 
L 167.417059 215.715048 
L 167.449146 215.715048 
L 167.532297 214.201794 
L 167.672117 214.201794 
L 167.735303 212.688541 
L 167.879768 212.688541 
L 167.979563 210.670869 
L 168.035449 210.670869 
L 168.035449 210.166451 
L 168.244969 210.166451 
L 168.244969 209.662033 
L 168.391365 209.662033 
L 168.445948 206.131108 
L 168.935546 206.131108 
L 168.935546 205.62669 
L 169.064596 205.62669 
L 169.064596 204.617855 
L 169.239048 204.617855 
L 169.27373 202.095765 
L 169.537359 202.095765 
L 169.537359 201.591347 
L 169.656399 201.591347 
L 169.656399 200.582511 
L 169.797062 200.582511 
L 169.797062 199.573676 
L 170.030851 199.573676 
L 170.030851 199.069258 
L 170.245169 199.069258 
L 170.267003 196.547168 
L 170.397431 196.547168 
L 170.397431 196.04275 
L 170.676723 196.04275 
L 170.735235 194.025079 
L 170.798844 194.025079 
L 170.798844 193.520661 
L 171.453088 193.520661 
L 171.453088 192.007407 
L 171.74118 192.007407 
L 171.74118 190.998572 
L 171.890917 190.998572 
L 171.890917 189.485318 
L 172.137657 189.485318 
L 172.142557 188.476482 
L 172.639959 188.476482 
L 172.639959 187.467646 
L 173.38554 187.467646 
L 173.38554 186.458811 
L 173.697489 186.458811 
L 173.697489 185.954393 
L 177.230412 185.954393 
L 177.230412 185.449975 
L 178.530902 185.449975 
L 178.530902 184.945557 
L 181.135043 184.945557 
L 181.135043 184.441139 
L 192.353435 184.441139 
L 192.353435 183.936721 
L 192.813129 183.936721 
L 192.813129 183.432303 
L 193.643519 183.432303 
L 193.643519 182.927885 
L 193.833788 182.927885 
L 193.833788 182.423467 
L 194.497443 182.423467 
L 194.497443 181.414632 
L 195.29852 181.414632 
L 195.29852 180.910214 
L 196.318534 180.910214 
L 196.318534 180.405796 
L 196.502485 180.405796 
L 196.502485 179.901378 
L 197.19504 179.901378 
L 197.19504 178.892542 
L 197.893618 178.892542 
L 197.893618 177.883706 
L 198.196435 177.883706 
L 198.196435 177.379288 
L 198.51677 177.379288 
L 198.542662 176.370453 
L 198.752686 176.370453 
L 198.752686 175.866035 
L 199.639374 175.866035 
L 199.639374 175.361617 
L 199.871667 175.361617 
L 199.958358 173.848363 
L 200.09992 173.848363 
L 200.09992 172.839527 
L 200.23643 172.839527 
L 200.23643 172.33511 
L 200.407757 172.33511 
L 200.407757 171.830692 
L 200.647308 171.830692 
L 200.706447 170.821856 
L 201.044059 170.821856 
L 201.044059 170.317438 
L 201.529448 170.317438 
L 201.529448 169.81302 
L 201.689488 169.81302 
L 201.689488 168.804184 
L 201.834689 168.804184 
L 201.834689 168.299766 
L 202.268402 168.299766 
L 202.268402 167.795349 
L 202.582476 167.795349 
L 202.582476 166.786513 
L 202.718761 166.786513 
L 202.826184 164.768841 
L 203.188368 164.768841 
L 203.188368 164.264423 
L 203.482381 164.264423 
L 203.482381 163.760005 
L 204.087346 163.760005 
L 204.103027 162.75117 
L 204.512763 162.75117 
L 204.533419 161.237916 
L 205.325639 161.237916 
L 205.325639 160.733498 
L 205.952112 160.733498 
L 205.952112 160.22908 
L 206.528922 160.22908 
L 206.528922 159.724662 
L 207.378716 159.724662 
L 207.402083 158.211409 
L 207.794598 158.211409 
L 207.794598 157.706991 
L 208.144319 157.706991 
L 208.144319 157.202573 
L 208.260174 157.202573 
L 208.260174 156.698155 
L 209.157378 156.698155 
L 209.249805 155.184901 
L 209.763176 155.184901 
L 209.808437 153.671648 
L 210.066993 153.671648 
L 210.066993 152.662812 
L 210.809225 152.662812 
L 210.887477 151.653976 
L 211.352343 151.653976 
L 211.352343 151.149558 
L 211.979622 151.149558 
L 211.979622 150.140722 
L 212.742938 150.140722 
L 212.742938 149.636305 
L 212.973957 149.636305 
L 213.044031 148.123051 
L 213.616528 148.123051 
L 213.616528 147.618633 
L 213.778377 147.618633 
L 213.811645 145.600961 
L 214.039216 145.600961 
L 214.146611 144.592126 
L 214.325891 144.592126 
L 214.332431 143.58329 
L 214.729368 143.58329 
L 214.768952 142.574454 
L 215.064465 142.574454 
L 215.064465 142.070036 
L 215.487337 142.070036 
L 215.487337 141.0612 
L 216.025654 141.0612 
L 216.025654 140.556783 
L 216.226247 140.556783 
L 216.232894 139.043529 
L 216.90543 139.043529 
L 216.974126 137.025857 
L 217.227785 137.025857 
L 217.227785 136.521439 
L 218.344403 136.521439 
L 218.424225 135.008186 
L 218.671381 135.008186 
L 218.776773 133.99935 
L 218.96061 133.99935 
L 218.96061 132.990514 
L 219.170298 132.990514 
L 219.170298 132.486096 
L 219.548351 132.486096 
L 219.548351 131.47726 
L 219.676206 131.47726 
L 219.709545 130.468425 
L 219.97462 130.468425 
L 219.97462 129.964007 
L 220.725659 129.964007 
L 220.779658 128.955171 
L 221.437565 128.955171 
L 221.437565 127.946335 
L 221.986879 127.946335 
L 221.986879 127.441917 
L 222.296371 127.441917 
L 222.296371 126.433082 
L 222.886006 126.433082 
L 222.886006 125.424246 
L 223.447312 125.424246 
L 223.447312 124.919828 
L 223.629872 124.919828 
L 223.682995 122.902156 
L 223.880524 122.902156 
L 223.880524 122.397738 
L 224.125386 122.397738 
L 224.125386 121.893321 
L 224.317503 121.893321 
L 224.317503 121.388903 
L 224.533775 121.388903 
L 224.533775 120.380067 
L 224.861223 120.380067 
L 224.861223 119.875649 
L 225.285525 119.875649 
L 225.285525 118.866813 
L 225.692931 118.866813 
L 225.692931 118.362395 
L 225.849482 118.362395 
L 225.849482 117.35356 
L 225.981186 117.35356 
L 225.981186 116.849142 
L 226.586154 116.849142 
L 226.586154 116.344724 
L 227.297317 116.344724 
L 227.297317 115.335888 
L 227.49169 115.335888 
L 227.579813 113.822634 
L 228.399476 113.822634 
L 228.399476 113.318216 
L 228.511195 113.318216 
L 228.511195 112.309381 
L 228.958403 112.309381 
L 228.958403 111.804963 
L 229.313188 111.804963 
L 229.404167 110.291709 
L 229.975524 110.291709 
L 230.059582 108.274038 
L 230.304296 108.274038 
L 230.349767 106.760784 
L 231.769328 106.760784 
L 231.769328 106.256366 
L 232.581274 106.256366 
L 232.581274 105.24753 
L 233.437738 105.24753 
L 233.437738 104.743112 
L 234.679361 104.743112 
L 234.679361 104.238694 
L 234.98867 104.238694 
L 234.98867 103.229859 
L 235.615631 103.229859 
L 235.615631 102.221023 
L 235.770218 102.221023 
L 235.770218 101.716605 
L 236.197705 101.716605 
L 236.197705 100.707769 
L 237.020096 100.707769 
L 237.020096 100.203351 
L 237.352681 100.203351 
L 237.352681 99.698933 
L 237.685784 99.698933 
L 237.759204 98.690098 
L 237.829823 98.690098 
L 237.893046 97.176844 
L 237.965263 97.176844 
L 238.061573 96.168008 
L 238.080906 96.168008 
L 238.080906 95.66359 
L 238.286201 95.66359 
L 238.29205 94.654755 
L 238.480923 94.654755 
L 238.480923 93.645919 
L 238.714577 93.645919 
L 238.714577 93.141501 
L 238.837568 93.141501 
L 238.922382 90.619411 
L 238.962564 90.619411 
L 238.962564 90.114994 
L 239.084141 90.114994 
L 239.117429 89.106158 
L 239.209168 89.106158 
L 239.209168 88.097322 
L 239.370479 88.097322 
L 239.377324 86.584068 
L 239.522602 86.584068 
L 239.605794 85.575233 
L 239.916061 85.575233 
L 239.988194 84.061979 
L 240.224264 84.061979 
L 240.224264 83.053143 
L 240.360036 83.053143 
L 240.360036 82.548725 
L 240.505356 82.548725 
L 240.505356 82.044307 
L 240.730353 82.044307 
L 240.811811 80.531054 
L 240.895457 80.531054 
L 240.925084 79.522218 
L 241.579372 79.522218 
L 241.682061 78.513382 
L 241.887168 78.513382 
L 241.935943 77.000128 
L 242.444453 77.000128 
L 242.444453 75.991293 
L 242.657596 75.991293 
L 242.657596 74.982457 
L 242.896575 74.982457 
L 242.897592 73.973621 
L 243.068588 73.973621 
L 243.068588 73.469203 
L 243.285887 73.469203 
L 243.300879 72.460367 
L 243.673506 72.460367 
L 243.732084 70.947114 
L 244.10393 70.947114 
L 244.109068 69.43386 
L 244.860951 69.43386 
L 244.860951 68.929442 
L 245.00834 68.929442 
L 245.00834 67.920606 
L 245.241899 67.920606 
L 245.241899 67.416188 
L 245.597655 67.416188 
L 245.597655 66.911771 
L 246.631489 66.911771 
L 246.631489 65.902935 
L 246.989025 65.902935 
L 246.989025 64.894099 
L 248.062677 64.894099 
L 248.062677 63.885263 
L 248.775748 63.885263 
L 248.869011 60.858756 
L 248.912456 60.858756 
L 249.009411 59.84992 
L 249.097339 59.84992 
L 249.179804 58.336666 
L 249.283749 58.336666 
L 249.283749 57.832249 
L 249.585627 57.832249 
L 249.585627 57.327831 
L 249.762173 57.327831 
L 249.762173 56.318995 
L 250.008616 56.318995 
L 250.008616 55.814577 
L 250.22643 55.814577 
L 250.22643 55.310159 
L 250.829416 55.310159 
L 250.829416 54.805741 
L 251.139675 54.805741 
L 251.139675 53.796905 
L 251.890331 53.796905 
L 251.890331 52.78807 
L 252.442192 52.78807 
L 252.442192 52.283652 
L 253.292612 52.283652 
L 253.292612 51.779234 
L 254.164473 51.779234 
L 254.164473 51.274816 
L 338.688 51.274816 
L 338.688 51.274816 
" style="fill:none;stroke:#000080;stroke-linecap:square;stroke-width:1.5;"/>
   </g>
   <g id="line2d_31">
    <defs>
     <path d="M 0 6 
C 1.591219 6 3.117479 5.367802 4.242641 4.242641 
C 5.367802 3.117479 6 1.591219 6 0 
C 6 -1.591219 5.367802 -3.117479 4.242641 -4.242641 
C 3.117479 -5.367802 1.591219 -6 0 -6 
C -1.591219 -6 -3.117479 -5.367802 -4.242641 -4.242641 
C -5.367802 -3.117479 -6 -1.591219 -6 0 
C -6 1.591219 -5.367802 3.117479 -4.242641 4.242641 
C -3.117479 5.367802 -1.591219 6 0 6 
z
" id="m1858d7bd98" style="stroke:#000080;stroke-width:1.5;"/>
    </defs>
    <g>
     <use style="fill-opacity:0;stroke:#000080;stroke-width:1.5;" x="142.051655" xlink:href="#m1858d7bd98" y="270.19218"/>
     <use style="fill-opacity:0;stroke:#000080;stroke-width:1.5;" x="200.706447" xlink:href="#m1858d7bd98" y="171.326274"/>
     <use style="fill-opacity:0;stroke:#000080;stroke-width:1.5;" x="240.895457" xlink:href="#m1858d7bd98" y="80.026636"/>
     <use style="fill-opacity:0;stroke:#000080;stroke-width:1.5;" x="254.164473" xlink:href="#m1858d7bd98" y="51.274816"/>
     <use style="fill-opacity:0;stroke:#000080;stroke-width:1.5;" x="254.164473" xlink:href="#m1858d7bd98" y="51.274816"/>
     <use style="fill-opacity:0;stroke:#000080;stroke-width:1.5;" x="338.688" xlink:href="#m1858d7bd98" y="51.274816"/>
    </g>
   </g>
   <g id="line2d_32">
    <path style="fill:none;stroke:#000080;stroke-linecap:square;stroke-width:1.5;"/>
    <g/>
   </g>
   <g id="line2d_33">
    <path clip-path="url(#p38bdb5a6ac)" d="M 258.377143 51.274816 
" style="fill:none;stroke:#000080;stroke-linecap:square;stroke-width:1.5;"/>
    <defs>
     <path d="M -12 12 
L 12 -12 
M -12 -12 
L 12 12 
" id="m5e32cc0347" style="stroke:#000080;"/>
    </defs>
    <g clip-path="url(#p38bdb5a6ac)">
     <use style="fill:#000080;stroke:#000080;" x="258.377143" xlink:href="#m5e32cc0347" y="51.274816"/>
    </g>
   </g>
   <g id="line2d_34">
    <defs>
     <path d="M 0 1.5 
C 0.397805 1.5 0.77937 1.341951 1.06066 1.06066 
C 1.341951 0.77937 1.5 0.397805 1.5 0 
C 1.5 -0.397805 1.341951 -0.77937 1.06066 -1.06066 
C 0.77937 -1.341951 0.397805 -1.5 0 -1.5 
C -0.397805 -1.5 -0.77937 -1.341951 -1.06066 -1.06066 
C -1.341951 -0.77937 -1.5 -0.397805 -1.5 0 
C -1.5 0.397805 -1.341951 0.77937 -1.06066 1.06066 
C -0.77937 1.341951 -0.397805 1.5 0 1.5 
z
" id="md91c42d026" style="stroke:#ff00ff;"/>
    </defs>
    <g>
     <use style="fill:#ff00ff;stroke:#ff00ff;" x="258.228557" xlink:href="#md91c42d026" y="139.547947"/>
     <use style="fill:#ff00ff;stroke:#ff00ff;" x="258.228557" xlink:href="#md91c42d026" y="139.547947"/>
    </g>
   </g>
   <g id="line2d_35">
    <path d="M 29.53256 298.944 
L 29.53256 297.430746 
L 93.863965 297.430746 
L 93.863965 296.926328 
L 101.506816 296.926328 
L 101.506816 296.421911 
L 104.355088 296.421911 
L 104.355088 295.917493 
L 108.948899 295.917493 
L 108.948899 294.908657 
L 110.859585 294.908657 
L 110.859585 294.404239 
L 114.148479 294.404239 
L 114.148479 293.899821 
L 115.586238 293.899821 
L 115.586238 293.395403 
L 120.382253 293.395403 
L 120.382253 292.386567 
L 121.400219 292.386567 
L 121.400219 291.88215 
L 124.965026 291.88215 
L 124.965026 290.873314 
L 128.590686 290.873314 
L 128.590686 290.368896 
L 131.030622 290.368896 
L 131.030622 289.864478 
L 132.659801 289.864478 
L 132.659801 289.36006 
L 147.449528 289.36006 
L 147.449528 288.855642 
L 154.8141 288.855642 
L 154.8141 288.351224 
L 154.998366 288.351224 
L 154.998366 287.846806 
L 157.380981 287.846806 
L 157.380981 287.342389 
L 158.889829 287.342389 
L 158.889829 286.837971 
L 159.066985 286.837971 
L 159.066985 286.333553 
L 161.311231 286.333553 
L 161.338558 285.324717 
L 161.438393 285.324717 
L 161.438393 284.820299 
L 161.636364 284.820299 
L 161.636364 284.315881 
L 162.653039 284.315881 
L 162.653039 283.811463 
L 164.478629 283.811463 
L 164.478629 283.307045 
L 164.832318 283.307045 
L 164.832318 282.802628 
L 167.11252 282.802628 
L 167.11252 282.29821 
L 167.691097 282.29821 
L 167.691097 281.793792 
L 170.223309 281.793792 
L 170.228776 280.784956 
L 176.638688 280.784956 
L 176.638688 280.280538 
L 177.027991 280.280538 
L 177.027991 279.77612 
L 179.543545 279.77612 
L 179.543545 279.271702 
L 179.683979 279.271702 
L 179.734767 278.262867 
L 179.857946 278.262867 
L 179.857946 277.758449 
L 180.231593 277.758449 
L 180.231593 276.749613 
L 181.271982 276.749613 
L 181.271982 276.245195 
L 182.335888 276.245195 
L 182.335888 275.740777 
L 183.52068 275.740777 
L 183.52068 275.236359 
L 184.980815 275.236359 
L 185.083743 273.218688 
L 186.223529 273.218688 
L 186.223529 272.71427 
L 187.570609 272.71427 
L 187.617063 271.705434 
L 188.074917 271.705434 
L 188.074917 271.201016 
L 188.692575 271.201016 
L 188.692575 270.696598 
L 189.064077 270.696598 
L 189.165882 269.687762 
L 189.851709 269.687762 
L 189.890703 268.174509 
L 192.811631 268.174509 
L 192.811631 267.670091 
L 192.984476 267.670091 
L 192.984476 267.165673 
L 193.342549 267.165673 
L 193.342549 266.156837 
L 193.65351 266.156837 
L 193.65351 265.652419 
L 193.81542 265.652419 
L 193.81542 265.148001 
L 193.97584 265.148001 
L 193.97584 264.643583 
L 194.311568 264.643583 
L 194.311568 263.634748 
L 194.812693 263.634748 
L 194.812693 263.13033 
L 195.034244 263.13033 
L 195.034244 262.121494 
L 195.196947 262.121494 
L 195.196947 261.112658 
L 195.403377 261.112658 
L 195.403377 260.60824 
L 195.621419 260.60824 
L 195.621419 259.599405 
L 197.378089 259.599405 
L 197.378089 259.094987 
L 197.978448 259.094987 
L 197.978448 258.590569 
L 198.304961 258.590569 
L 198.304961 258.086151 
L 199.401893 258.086151 
L 199.469491 256.068479 
L 200.539004 256.068479 
L 200.614791 254.555226 
L 200.932559 254.555226 
L 200.932559 253.54639 
L 201.132562 253.54639 
L 201.173401 252.033136 
L 201.264941 252.033136 
L 201.264941 251.528718 
L 203.232087 251.528718 
L 203.306897 250.519883 
L 203.458814 250.519883 
L 203.458814 250.015465 
L 203.755536 250.015465 
L 203.755536 249.006629 
L 204.035497 249.006629 
L 204.035497 247.997793 
L 204.171078 247.997793 
L 204.27227 245.980122 
L 204.425274 245.980122 
L 204.473677 244.466868 
L 204.545649 244.466868 
L 204.545649 243.96245 
L 205.003383 243.96245 
L 205.003383 243.458032 
L 205.44941 243.458032 
L 205.44941 242.953614 
L 205.694348 242.953614 
L 205.774286 241.440361 
L 205.853859 241.440361 
L 205.853859 240.935943 
L 206.018947 240.935943 
L 206.018947 240.431525 
L 207.320814 240.431525 
L 207.320814 239.927107 
L 208.713041 239.927107 
L 208.713041 238.918271 
L 209.235797 238.918271 
L 209.286522 237.405017 
L 209.351027 237.405017 
L 209.351027 236.9006 
L 209.572357 236.9006 
L 209.681977 234.882928 
L 209.816911 234.882928 
L 209.816911 234.37851 
L 209.955292 234.37851 
L 210.025189 232.360839 
L 210.196229 232.360839 
L 210.249199 230.847585 
L 210.396774 230.847585 
L 210.396774 230.343167 
L 212.033917 230.343167 
L 212.033917 229.334331 
L 212.489933 229.334331 
L 212.489933 228.829913 
L 214.184461 228.829913 
L 214.282227 227.31666 
L 215.077837 227.31666 
L 215.077837 226.307824 
L 215.726004 226.307824 
L 215.726004 225.803406 
L 216.103412 225.803406 
L 216.103412 225.298988 
L 217.272406 225.298988 
L 217.272406 224.79457 
L 217.694842 224.79457 
L 217.694842 223.785734 
L 226.439807 223.785734 
L 226.439807 222.776899 
L 227.868439 222.776899 
L 227.868439 221.768063 
L 228.860515 221.768063 
L 228.860515 221.263645 
L 230.903741 221.263645 
L 230.903741 220.254809 
L 232.62699 220.254809 
L 232.62699 219.245973 
L 233.919456 219.245973 
L 233.970141 216.723884 
L 234.848217 216.723884 
L 234.848217 216.219466 
L 235.451092 216.219466 
L 235.462516 214.201794 
L 235.790863 214.201794 
L 235.880167 211.175287 
L 235.910045 211.175287 
L 235.932925 209.662033 
L 236.865949 209.662033 
L 236.865949 209.157616 
L 237.315961 209.157616 
L 237.315961 208.653198 
L 237.495675 208.653198 
L 237.495675 207.644362 
L 237.62937 207.644362 
L 237.641286 206.131108 
L 238.121624 206.131108 
L 238.121624 205.62669 
L 238.770492 205.62669 
L 238.770492 205.122272 
L 240.110804 205.122272 
L 240.128193 204.113437 
L 240.272889 204.113437 
L 240.334634 202.095765 
L 240.465755 202.095765 
L 240.563477 200.582511 
L 240.667588 200.582511 
L 240.667588 200.078094 
L 240.799487 200.078094 
L 240.799487 199.573676 
L 241.028292 199.573676 
L 241.028292 198.56484 
L 241.16059 198.56484 
L 241.16059 198.060422 
L 241.383904 198.060422 
L 241.383904 197.051586 
L 241.663154 197.051586 
L 241.663154 196.547168 
L 241.836905 196.547168 
L 241.836905 196.04275 
L 242.002788 196.04275 
L 242.002788 195.538333 
L 242.747394 195.538333 
L 242.828823 193.520661 
L 242.949455 193.520661 
L 243.046003 192.007407 
L 243.171404 192.007407 
L 243.198909 190.494154 
L 243.38183 190.494154 
L 243.38183 189.989736 
L 243.616031 189.989736 
L 243.616031 189.485318 
L 243.933576 189.485318 
L 244.039369 181.91905 
L 244.146417 181.91905 
L 244.146417 181.414632 
L 244.327833 181.414632 
L 244.422342 179.901378 
L 244.658237 179.901378 
L 244.658237 179.39696 
L 244.817439 179.39696 
L 244.829958 178.388124 
L 245.028149 178.388124 
L 245.074804 176.370453 
L 245.361856 176.370453 
L 245.361856 175.361617 
L 245.69233 175.361617 
L 245.780893 172.839527 
L 245.838398 172.839527 
L 245.939467 170.821856 
L 246.077276 170.821856 
L 246.085112 168.804184 
L 246.22556 168.804184 
L 246.22556 168.299766 
L 246.515299 168.299766 
L 246.550244 166.786513 
L 246.89374 166.786513 
L 246.89374 165.777677 
L 247.107369 165.777677 
L 247.107369 165.273259 
L 247.263484 165.273259 
L 247.263484 164.768841 
L 248.367805 164.768841 
L 248.367805 164.264423 
L 248.674623 164.264423 
L 248.674623 163.760005 
L 249.007083 163.760005 
L 249.007083 162.75117 
L 249.3043 162.75117 
L 249.315857 160.733498 
L 250.404848 160.733498 
L 250.404848 159.724662 
L 250.811018 159.724662 
L 250.819843 158.715827 
L 251.203996 158.715827 
L 251.203996 158.211409 
L 251.630784 158.211409 
L 251.630784 157.706991 
L 252.206098 157.706991 
L 252.206098 156.698155 
L 252.808792 156.698155 
L 252.808792 155.689319 
L 253.093393 155.689319 
L 253.093393 155.184901 
L 255.52733 155.184901 
L 255.622803 151.149558 
L 255.671546 151.149558 
L 255.779922 149.131887 
L 255.799746 149.131887 
L 255.84332 147.618633 
L 256.130531 147.618633 
L 256.146751 145.096544 
L 257.121385 145.096544 
L 257.210404 143.078872 
L 258.156118 143.078872 
L 258.228557 139.547947 
L 338.688 139.547947 
L 338.688 139.547947 
" style="fill:none;stroke:#ff00ff;stroke-linecap:square;stroke-width:1.5;"/>
   </g>
   <g id="line2d_36">
    <defs>
     <path d="M -0 8.485281 
L 5.091169 0 
L 0 -8.485281 
L -5.091169 -0 
z
" id="mc204ee3902" style="stroke:#ff00ff;stroke-linejoin:miter;stroke-width:1.5;"/>
    </defs>
    <g>
     <use style="fill-opacity:0;stroke:#ff00ff;stroke-linejoin:miter;stroke-width:1.5;" x="132.659801" xlink:href="#mc204ee3902" y="289.36006"/>
     <use style="fill-opacity:0;stroke:#ff00ff;stroke-linejoin:miter;stroke-width:1.5;" x="206.018947" xlink:href="#mc204ee3902" y="240.935943"/>
     <use style="fill-opacity:0;stroke:#ff00ff;stroke-linejoin:miter;stroke-width:1.5;" x="258.228557" xlink:href="#mc204ee3902" y="140.052365"/>
     <use style="fill-opacity:0;stroke:#ff00ff;stroke-linejoin:miter;stroke-width:1.5;" x="258.228557" xlink:href="#mc204ee3902" y="139.547947"/>
     <use style="fill-opacity:0;stroke:#ff00ff;stroke-linejoin:miter;stroke-width:1.5;" x="338.688" xlink:href="#mc204ee3902" y="139.547947"/>
    </g>
   </g>
   <g id="line2d_37">
    <path style="fill:none;stroke:#ff00ff;stroke-linecap:square;stroke-width:1.5;"/>
    <g/>
   </g>
   <g id="line2d_38">
    <path clip-path="url(#p38bdb5a6ac)" d="M 258.377143 139.547947 
" style="fill:none;stroke:#ff00ff;stroke-linecap:square;stroke-width:1.5;"/>
    <defs>
     <path d="M -12 12 
L 12 -12 
M -12 -12 
L 12 12 
" id="m8ea16b3ebc" style="stroke:#ff00ff;"/>
    </defs>
    <g clip-path="url(#p38bdb5a6ac)">
     <use style="fill:#ff00ff;stroke:#ff00ff;" x="258.377143" xlink:href="#m8ea16b3ebc" y="139.547947"/>
    </g>
   </g>
   <g id="line2d_39">
    <defs>
     <path d="M 0 1.5 
C 0.397805 1.5 0.77937 1.341951 1.06066 1.06066 
C 1.341951 0.77937 1.5 0.397805 1.5 0 
C 1.5 -0.397805 1.341951 -0.77937 1.06066 -1.06066 
C 0.77937 -1.341951 0.397805 -1.5 0 -1.5 
C -0.397805 -1.5 -0.77937 -1.341951 -1.06066 -1.06066 
C -1.341951 -0.77937 -1.5 -0.397805 -1.5 0 
C -1.5 0.397805 -1.341951 0.77937 -1.06066 1.06066 
C -0.77937 1.341951 -0.397805 1.5 0 1.5 
z
" id="m22ef8e9990" style="stroke:#ff7500;"/>
    </defs>
    <g>
     <use style="fill:#ff7500;stroke:#ff7500;" x="258.313198" xlink:href="#m22ef8e9990" y="204.113437"/>
     <use style="fill:#ff7500;stroke:#ff7500;" x="258.313198" xlink:href="#m22ef8e9990" y="204.113437"/>
    </g>
   </g>
   <g id="line2d_40">
    <path d="M 29.53256 298.944 
L 29.53256 295.917493 
L 98.100772 295.917493 
L 98.100772 295.413075 
L 101.506816 295.413075 
L 101.506816 293.899821 
L 104.355088 293.899821 
L 104.355088 292.890985 
L 106.802819 292.890985 
L 106.802819 291.377732 
L 108.948899 291.377732 
L 108.948899 290.873314 
L 110.859585 290.873314 
L 110.859585 289.36006 
L 112.58145 289.36006 
L 112.58145 287.846806 
L 114.148479 287.846806 
L 114.148479 287.342389 
L 115.586238 287.342389 
L 115.586238 285.324717 
L 116.914437 285.324717 
L 116.914437 284.820299 
L 118.148599 284.820299 
L 118.148599 283.307045 
L 119.301163 283.307045 
L 119.301163 281.289374 
L 120.382253 281.289374 
L 120.382253 280.784956 
L 121.400219 280.784956 
L 121.400219 279.77612 
L 122.362027 279.77612 
L 122.362027 278.767284 
L 123.273551 278.767284 
L 123.273551 277.758449 
L 124.139788 277.758449 
L 124.139788 275.740777 
L 126.50685 275.740777 
L 126.50685 275.236359 
L 127.923363 275.236359 
L 127.923363 272.71427 
L 128.590686 272.71427 
L 128.590686 271.201016 
L 129.233413 271.201016 
L 129.233413 270.696598 
L 129.853291 270.696598 
L 129.853291 269.687762 
L 132.133473 269.687762 
L 132.133473 268.174509 
L 133.170708 268.174509 
L 133.170708 267.670091 
L 134.149701 267.670091 
L 134.149701 267.165673 
L 135.076644 267.165673 
L 135.076644 266.661255 
L 135.522271 266.661255 
L 135.522271 266.156837 
L 135.956794 266.156837 
L 135.956794 265.148001 
L 137.594091 265.148001 
L 137.594091 264.643583 
L 139.793552 264.643583 
L 139.793552 264.139166 
L 140.79731 264.139166 
L 140.79731 263.634748 
L 142.351634 263.634748 
L 142.351634 263.13033 
L 142.646541 263.13033 
L 142.646541 262.625912 
L 143.221802 262.625912 
L 143.221802 262.121494 
L 144.050606 262.121494 
L 144.050606 261.617076 
L 146.559258 261.617076 
L 146.559258 261.112658 
L 147.690073 261.112658 
L 147.690073 260.60824 
L 148.956849 260.60824 
L 148.956849 260.103822 
L 171.478551 260.103822 
L 171.478551 259.599405 
L 173.508272 259.599405 
L 173.508272 258.590569 
L 173.630147 258.590569 
L 173.630147 257.581733 
L 174.562857 257.581733 
L 174.562857 256.572897 
L 174.921573 256.572897 
L 174.921573 256.068479 
L 175.496772 256.068479 
L 175.496772 255.564061 
L 176.524755 255.564061 
L 176.524755 254.555226 
L 177.230412 254.555226 
L 177.230412 254.050808 
L 177.919177 254.050808 
L 177.919177 253.54639 
L 178.652737 253.54639 
L 178.652737 253.041972 
L 179.731597 253.041972 
L 179.731597 252.033136 
L 180.039542 252.033136 
L 180.039542 251.0243 
L 182.676574 251.0243 
L 182.676574 250.015465 
L 185.027676 250.015465 
L 185.027676 249.511047 
L 186.712563 249.511047 
L 186.712563 248.502211 
L 198.082802 248.502211 
L 198.082802 247.493375 
L 202.734875 247.493375 
L 202.734875 246.988957 
L 203.287198 246.988957 
L 203.287198 245.980122 
L 203.664155 245.980122 
L 203.664155 245.475704 
L 205.86803 245.475704 
L 205.86803 244.466868 
L 208.061448 244.466868 
L 208.061448 242.953614 
L 209.146231 242.953614 
L 209.146231 241.944778 
L 213.791422 241.944778 
L 213.791422 240.935943 
L 214.406382 240.935943 
L 214.406382 239.927107 
L 214.610933 239.927107 
L 214.610933 239.422689 
L 216.036727 239.422689 
L 216.036727 238.413853 
L 218.132897 238.413853 
L 218.132897 237.909435 
L 218.771704 237.909435 
L 218.771704 237.405017 
L 220.737438 237.405017 
L 220.737438 236.396182 
L 223.435935 236.396182 
L 223.435935 235.891764 
L 228.081372 235.891764 
L 228.081372 235.387346 
L 229.601248 235.387346 
L 229.601248 234.882928 
L 233.211962 234.882928 
L 233.28034 233.874092 
L 233.434093 233.874092 
L 233.434093 232.865256 
L 239.789335 232.865256 
L 239.789335 232.360839 
L 240.527696 232.360839 
L 240.527696 231.352003 
L 240.801303 231.352003 
L 240.801303 230.343167 
L 241.898208 230.343167 
L 241.993867 228.829913 
L 242.075419 228.829913 
L 242.128277 225.298988 
L 242.227264 225.298988 
L 242.227264 224.79457 
L 244.832006 224.79457 
L 244.925187 223.281316 
L 246.446996 223.281316 
L 246.446996 222.272481 
L 246.613832 222.272481 
L 246.695667 220.254809 
L 246.740249 220.254809 
L 246.740249 219.750391 
L 247.072657 219.750391 
L 247.072657 219.245973 
L 248.783912 219.245973 
L 248.783912 218.237138 
L 249.327464 218.237138 
L 249.327464 217.228302 
L 251.315259 217.228302 
L 251.315259 216.219466 
L 251.580076 216.219466 
L 251.629089 213.697377 
L 251.708819 213.697377 
L 251.760276 210.670869 
L 251.893266 210.670869 
L 251.893266 209.662033 
L 252.054844 209.662033 
L 252.054844 209.157616 
L 252.866822 209.157616 
L 252.866822 208.653198 
L 256.116322 208.653198 
L 256.116322 207.644362 
L 256.464191 207.644362 
L 256.464191 207.139944 
L 257.118162 207.139944 
L 257.140454 205.122272 
L 258.313198 205.122272 
L 258.313198 204.113437 
L 338.688 204.113437 
L 338.688 204.113437 
" style="fill:none;stroke:#ff7500;stroke-linecap:square;stroke-width:1.5;"/>
   </g>
   <g id="line2d_41">
    <defs>
     <path d="M 0 -6 
L -1.347084 -1.854102 
L -5.706339 -1.854102 
L -2.179628 0.708204 
L -3.526712 4.854102 
L -0 2.291796 
L 3.526712 4.854102 
L 2.179628 0.708204 
L 5.706339 -1.854102 
L 1.347084 -1.854102 
z
" id="m0ce240bd4e" style="stroke:#ff7500;stroke-linejoin:bevel;stroke-width:1.5;"/>
    </defs>
    <g>
     <use style="fill-opacity:0;stroke:#ff7500;stroke-linejoin:bevel;stroke-width:1.5;" x="118.148599" xlink:href="#m0ce240bd4e" y="283.307045"/>
     <use style="fill-opacity:0;stroke:#ff7500;stroke-linejoin:bevel;stroke-width:1.5;" x="186.712563" xlink:href="#m0ce240bd4e" y="248.502211"/>
     <use style="fill-opacity:0;stroke:#ff7500;stroke-linejoin:bevel;stroke-width:1.5;" x="252.866822" xlink:href="#m0ce240bd4e" y="208.653198"/>
     <use style="fill-opacity:0;stroke:#ff7500;stroke-linejoin:bevel;stroke-width:1.5;" x="258.313198" xlink:href="#m0ce240bd4e" y="204.113437"/>
     <use style="fill-opacity:0;stroke:#ff7500;stroke-linejoin:bevel;stroke-width:1.5;" x="258.313198" xlink:href="#m0ce240bd4e" y="204.113437"/>
     <use style="fill-opacity:0;stroke:#ff7500;stroke-linejoin:bevel;stroke-width:1.5;" x="338.688" xlink:href="#m0ce240bd4e" y="204.113437"/>
    </g>
   </g>
   <g id="line2d_42">
    <path style="fill:none;stroke:#ff7500;stroke-linecap:square;stroke-width:1.5;"/>
    <g/>
   </g>
   <g id="line2d_43">
    <path clip-path="url(#p38bdb5a6ac)" d="M 258.377143 204.113437 
" style="fill:none;stroke:#ff7500;stroke-linecap:square;stroke-width:1.5;"/>
    <defs>
     <path d="M -12 12 
L 12 -12 
M -12 -12 
L 12 12 
" id="me0589dd499" style="stroke:#ff7500;"/>
    </defs>
    <g clip-path="url(#p38bdb5a6ac)">
     <use style="fill:#ff7500;stroke:#ff7500;" x="258.377143" xlink:href="#me0589dd499" y="204.113437"/>
    </g>
   </g>
   <g id="line2d_44">
    <defs>
     <path d="M 0 1.5 
C 0.397805 1.5 0.77937 1.341951 1.06066 1.06066 
C 1.341951 0.77937 1.5 0.397805 1.5 0 
C 1.5 -0.397805 1.341951 -0.77937 1.06066 -1.06066 
C 0.77937 -1.341951 0.397805 -1.5 0 -1.5 
C -0.397805 -1.5 -0.77937 -1.341951 -1.06066 -1.06066 
C -1.341951 -0.77937 -1.5 -0.397805 -1.5 0 
C -1.5 0.397805 -1.341951 0.77937 -1.06066 1.06066 
C -0.77937 1.341951 -0.397805 1.5 0 1.5 
z
" id="m416a8d4083" style="stroke:#6495ed;"/>
    </defs>
    <g>
     <use style="fill:#6495ed;stroke:#6495ed;" x="258.372748" xlink:href="#m416a8d4083" y="222.776899"/>
     <use style="fill:#6495ed;stroke:#6495ed;" x="258.372748" xlink:href="#m416a8d4083" y="222.776899"/>
    </g>
   </g>
   <g id="line2d_45">
    <path d="M 29.53256 298.944 
L 29.53256 296.421911 
L 87.009585 296.421911 
L 87.009585 295.917493 
L 93.863965 295.917493 
L 93.863965 295.413075 
L 98.100772 295.413075 
L 98.100772 293.899821 
L 101.506816 293.899821 
L 101.506816 292.890985 
L 104.355088 292.890985 
L 104.355088 291.377732 
L 106.802819 291.377732 
L 106.802819 290.368896 
L 108.948899 290.368896 
L 108.948899 288.351224 
L 110.859585 288.351224 
L 110.859585 286.333553 
L 112.58145 286.333553 
L 112.58145 285.324717 
L 114.148479 285.324717 
L 114.148479 284.315881 
L 115.586238 284.315881 
L 115.586238 283.307045 
L 118.148599 283.307045 
L 118.148599 282.802628 
L 119.301163 282.802628 
L 119.301163 282.29821 
L 121.400219 282.29821 
L 121.400219 281.289374 
L 122.362027 281.289374 
L 122.362027 280.784956 
L 124.965026 280.784956 
L 124.965026 280.280538 
L 126.50685 280.280538 
L 126.50685 279.77612 
L 127.229484 279.77612 
L 127.229484 279.271702 
L 127.923363 279.271702 
L 127.923363 278.262867 
L 131.590764 278.262867 
L 131.590764 277.758449 
L 135.956794 277.758449 
L 135.956794 277.254031 
L 143.502469 277.254031 
L 143.502469 276.749613 
L 146.08557 276.749613 
L 146.08557 276.245195 
L 150.327083 276.245195 
L 150.327083 275.740777 
L 154.371897 275.740777 
L 154.371897 275.236359 
L 157.197287 275.236359 
L 157.197287 274.227523 
L 162.653039 274.227523 
L 162.653039 273.723105 
L 162.929393 273.723105 
L 163.020547 272.71427 
L 163.201437 272.71427 
L 163.201437 272.209852 
L 163.645619 272.209852 
L 163.645619 271.705434 
L 166.65557 271.705434 
L 166.65557 270.696598 
L 168.917874 270.696598 
L 168.929657 269.687762 
L 169.047054 269.687762 
L 169.047054 269.183344 
L 169.175285 269.183344 
L 169.175285 268.678927 
L 169.302579 268.678927 
L 169.302579 268.174509 
L 169.491796 268.174509 
L 169.491796 267.670091 
L 169.678981 267.670091 
L 169.678981 267.165673 
L 170.288808 267.165673 
L 170.288808 266.661255 
L 170.993522 266.661255 
L 170.993522 265.652419 
L 171.27895 265.652419 
L 171.27895 265.148001 
L 172.899863 265.148001 
L 172.899863 264.643583 
L 174.47737 264.643583 
L 174.47737 264.139166 
L 180.615492 264.139166 
L 180.615492 263.634748 
L 181.082312 263.634748 
L 181.146739 262.625912 
L 181.210929 262.625912 
L 181.242936 261.617076 
L 181.370378 261.617076 
L 181.370378 261.112658 
L 181.859814 261.112658 
L 181.859814 260.60824 
L 182.013465 260.60824 
L 182.074549 259.599405 
L 182.135419 259.599405 
L 182.226328 258.590569 
L 182.673896 258.590569 
L 182.673896 258.086151 
L 185.230068 258.086151 
L 185.230068 257.581733 
L 186.629513 257.581733 
L 186.629513 257.077315 
L 197.289121 257.077315 
L 197.289121 256.068479 
L 200.098934 256.068479 
L 200.098934 255.564061 
L 205.313944 255.564061 
L 205.313944 254.555226 
L 206.848534 254.555226 
L 206.848534 254.050808 
L 213.675927 254.050808 
L 213.675927 253.54639 
L 216.495173 253.54639 
L 216.495173 253.041972 
L 216.693514 253.041972 
L 216.693514 252.537554 
L 218.890261 252.537554 
L 218.890261 251.528718 
L 221.543978 251.528718 
L 221.543978 250.519883 
L 221.89247 250.519883 
L 221.89247 249.511047 
L 222.859827 249.511047 
L 222.859827 248.502211 
L 224.892657 248.502211 
L 224.892657 247.997793 
L 226.157988 247.997793 
L 226.217628 243.96245 
L 227.697093 243.96245 
L 227.697093 243.458032 
L 227.943501 243.458032 
L 227.943501 242.449196 
L 229.28103 242.449196 
L 229.28103 241.440361 
L 238.299 241.440361 
L 238.299 240.935943 
L 239.482866 240.935943 
L 239.482866 240.431525 
L 240.467995 240.431525 
L 240.467995 239.422689 
L 240.968012 239.422689 
L 240.97227 237.909435 
L 243.222461 237.909435 
L 243.222461 236.9006 
L 243.497728 236.9006 
L 243.590155 234.882928 
L 244.692365 234.882928 
L 244.798302 232.865256 
L 244.83466 232.865256 
L 244.83466 232.360839 
L 244.986105 232.360839 
L 244.995498 230.847585 
L 245.378989 230.847585 
L 245.378989 230.343167 
L 245.676731 230.343167 
L 245.676731 229.838749 
L 247.857824 229.838749 
L 247.857824 229.334331 
L 251.513718 229.334331 
L 251.608791 228.325495 
L 254.005074 228.325495 
L 254.006553 226.812242 
L 254.12842 226.812242 
L 254.180896 225.298988 
L 258.090966 225.298988 
L 258.092242 223.785734 
L 258.372748 223.785734 
L 258.372748 222.776899 
L 338.688 222.776899 
L 338.688 222.776899 
" style="fill:none;stroke:#6495ed;stroke-linecap:square;stroke-width:1.5;"/>
   </g>
   <g id="line2d_46">
    <defs>
     <path d="M -0 6 
L 6 -6 
L -6 -6 
z
" id="m6290490b2e" style="stroke:#6495ed;stroke-linejoin:miter;stroke-width:1.5;"/>
    </defs>
    <g>
     <use style="fill-opacity:0;stroke:#6495ed;stroke-linejoin:miter;stroke-width:1.5;" x="115.586238" xlink:href="#m6290490b2e" y="283.307045"/>
     <use style="fill-opacity:0;stroke:#6495ed;stroke-linejoin:miter;stroke-width:1.5;" x="174.47737" xlink:href="#m6290490b2e" y="264.139166"/>
     <use style="fill-opacity:0;stroke:#6495ed;stroke-linejoin:miter;stroke-width:1.5;" x="227.943501" xlink:href="#m6290490b2e" y="242.449196"/>
     <use style="fill-opacity:0;stroke:#6495ed;stroke-linejoin:miter;stroke-width:1.5;" x="258.372748" xlink:href="#m6290490b2e" y="222.776899"/>
     <use style="fill-opacity:0;stroke:#6495ed;stroke-linejoin:miter;stroke-width:1.5;" x="258.372748" xlink:href="#m6290490b2e" y="222.776899"/>
     <use style="fill-opacity:0;stroke:#6495ed;stroke-linejoin:miter;stroke-width:1.5;" x="338.688" xlink:href="#m6290490b2e" y="222.776899"/>
    </g>
   </g>
   <g id="line2d_47">
    <path style="fill:none;stroke:#6495ed;stroke-linecap:square;stroke-width:1.5;"/>
    <g/>
   </g>
   <g id="line2d_48">
    <path clip-path="url(#p38bdb5a6ac)" d="M 258.377143 222.776899 
" style="fill:none;stroke:#6495ed;stroke-linecap:square;stroke-width:1.5;"/>
    <defs>
     <path d="M -12 12 
L 12 -12 
M -12 -12 
L 12 12 
" id="mbc43343aca" style="stroke:#6495ed;"/>
    </defs>
    <g clip-path="url(#p38bdb5a6ac)">
     <use style="fill:#6495ed;stroke:#6495ed;" x="258.377143" xlink:href="#mbc43343aca" y="222.776899"/>
    </g>
   </g>
   <g id="line2d_49">
    <path d="M 338.688 222.776899 
L 369.60768 293.092752 
" style="fill:none;stroke:#6495ed;stroke-linecap:square;stroke-width:1.5;"/>
    <g>
     <use style="fill-opacity:0;stroke:#6495ed;stroke-linejoin:miter;stroke-width:1.5;" x="338.688" xlink:href="#m6290490b2e" y="222.776899"/>
     <use style="fill-opacity:0;stroke:#6495ed;stroke-linejoin:miter;stroke-width:1.5;" x="369.60768" xlink:href="#m6290490b2e" y="293.092752"/>
    </g>
   </g>
   <g id="line2d_50">
    <path d="M 338.688 204.113437 
L 369.60768 199.472792 
" style="fill:none;stroke:#ff7500;stroke-linecap:square;stroke-width:1.5;"/>
    <g>
     <use style="fill-opacity:0;stroke:#ff7500;stroke-linejoin:bevel;stroke-width:1.5;" x="338.688" xlink:href="#m0ce240bd4e" y="204.113437"/>
     <use style="fill-opacity:0;stroke:#ff7500;stroke-linejoin:bevel;stroke-width:1.5;" x="369.60768" xlink:href="#m0ce240bd4e" y="199.472792"/>
    </g>
   </g>
   <g id="line2d_51">
    <path d="M 338.688 139.547947 
L 369.60768 105.852832 
" style="fill:none;stroke:#ff00ff;stroke-linecap:square;stroke-width:1.5;"/>
    <g>
     <use style="fill-opacity:0;stroke:#ff00ff;stroke-linejoin:miter;stroke-width:1.5;" x="338.688" xlink:href="#mc204ee3902" y="139.547947"/>
     <use style="fill-opacity:0;stroke:#ff00ff;stroke-linejoin:miter;stroke-width:1.5;" x="369.60768" xlink:href="#mc204ee3902" y="105.852832"/>
    </g>
   </g>
   <g id="line2d_52">
    <path d="M 338.688 51.274816 
L 369.60768 12.232871 
" style="fill:none;stroke:#000080;stroke-linecap:square;stroke-width:1.5;"/>
    <g>
     <use style="fill-opacity:0;stroke:#000080;stroke-width:1.5;" x="338.688" xlink:href="#m1858d7bd98" y="51.274816"/>
     <use style="fill-opacity:0;stroke:#000080;stroke-width:1.5;" x="369.60768" xlink:href="#m1858d7bd98" y="12.232871"/>
    </g>
   </g>
   <g id="line2d_53">
    <path d="M 338.688 298.944 
L 338.688 6.381624 
" style="fill:none;stroke:#000000;stroke-linecap:square;stroke-width:1.5;"/>
   </g>
   <g id="patch_3">
    <path d="M 57.6 298.944 
L 57.6 3.456 
" style="fill:none;stroke:#000000;stroke-linecap:square;stroke-linejoin:miter;stroke-width:0.8;"/>
   </g>
   <g id="patch_4">
    <path d="M 338.688 298.944 
L 338.688 3.456 
" style="fill:none;stroke:#000000;stroke-linecap:square;stroke-linejoin:miter;stroke-width:0.8;"/>
   </g>
   <g id="patch_5">
    <path d="M 57.6 298.944 
L 338.688 298.944 
" style="fill:none;stroke:#000000;stroke-linecap:square;stroke-linejoin:miter;stroke-width:0.8;"/>
   </g>
   <g id="patch_6">
    <path d="M 57.6 3.456 
L 338.688 3.456 
" style="fill:none;stroke:#000000;stroke-linecap:square;stroke-linejoin:miter;stroke-width:0.8;"/>
   </g>
   <g id="text_13">
    <!-- f19 -->
    <g transform="translate(375.22944 297.78369)scale(0.17 -0.17)">
     <defs>
      <path d="M 10.984375 1.515625 
L 10.984375 10.5 
Q 14.703125 8.734375 18.5 7.8125 
Q 22.3125 6.890625 25.984375 6.890625 
Q 35.75 6.890625 40.890625 13.453125 
Q 46.046875 20.015625 46.78125 33.40625 
Q 43.953125 29.203125 39.59375 26.953125 
Q 35.25 24.703125 29.984375 24.703125 
Q 19.046875 24.703125 12.671875 31.3125 
Q 6.296875 37.9375 6.296875 49.421875 
Q 6.296875 60.640625 12.9375 67.421875 
Q 19.578125 74.21875 30.609375 74.21875 
Q 43.265625 74.21875 49.921875 64.515625 
Q 56.59375 54.828125 56.59375 36.375 
Q 56.59375 19.140625 48.40625 8.859375 
Q 40.234375 -1.421875 26.421875 -1.421875 
Q 22.703125 -1.421875 18.890625 -0.6875 
Q 15.09375 0.046875 10.984375 1.515625 
z
M 30.609375 32.421875 
Q 37.25 32.421875 41.125 36.953125 
Q 45.015625 41.5 45.015625 49.421875 
Q 45.015625 57.28125 41.125 61.84375 
Q 37.25 66.40625 30.609375 66.40625 
Q 23.96875 66.40625 20.09375 61.84375 
Q 16.21875 57.28125 16.21875 49.421875 
Q 16.21875 41.5 20.09375 36.953125 
Q 23.96875 32.421875 30.609375 32.421875 
z
" id="DejaVuSans-57"/>
     </defs>
     <use xlink:href="#DejaVuSans-102"/>
     <use x="35.205078" xlink:href="#DejaVuSans-49"/>
     <use x="98.828125" xlink:href="#DejaVuSans-57"/>
    </g>
   </g>
   <g id="text_14">
    <!-- f18 -->
    <g transform="translate(375.22944 204.16373)scale(0.17 -0.17)">
     <use xlink:href="#DejaVuSans-102"/>
     <use x="35.205078" xlink:href="#DejaVuSans-49"/>
     <use x="98.828125" xlink:href="#DejaVuSans-56"/>
    </g>
   </g>
   <g id="text_15">
    <!-- f10 -->
    <g transform="translate(375.22944 110.543769)scale(0.17 -0.17)">
     <use xlink:href="#DejaVuSans-102"/>
     <use x="35.205078" xlink:href="#DejaVuSans-49"/>
     <use x="98.828125" xlink:href="#DejaVuSans-48"/>
    </g>
   </g>
   <g id="text_16">
    <!-- f9 -->
    <g transform="translate(375.22944 16.923809)scale(0.17 -0.17)">
     <use xlink:href="#DejaVuSans-102"/>
     <use x="35.205078" xlink:href="#DejaVuSans-57"/>
    </g>
   </g>
   <g id="text_17">
    <!-- bbob-biobj -->
    <g transform="translate(60.41088 14.161286)scale(0.102 -0.102)">
     <defs>
      <path d="M 48.6875 27.296875 
Q 48.6875 37.203125 44.609375 42.84375 
Q 40.53125 48.484375 33.40625 48.484375 
Q 26.265625 48.484375 22.1875 42.84375 
Q 18.109375 37.203125 18.109375 27.296875 
Q 18.109375 17.390625 22.1875 11.75 
Q 26.265625 6.109375 33.40625 6.109375 
Q 40.53125 6.109375 44.609375 11.75 
Q 48.6875 17.390625 48.6875 27.296875 
z
M 18.109375 46.390625 
Q 20.953125 51.265625 25.265625 53.625 
Q 29.59375 56 35.59375 56 
Q 45.5625 56 51.78125 48.09375 
Q 58.015625 40.1875 58.015625 27.296875 
Q 58.015625 14.40625 51.78125 6.484375 
Q 45.5625 -1.421875 35.59375 -1.421875 
Q 29.59375 -1.421875 25.265625 0.953125 
Q 20.953125 3.328125 18.109375 8.203125 
L 18.109375 0 
L 9.078125 0 
L 9.078125 75.984375 
L 18.109375 75.984375 
z
" id="DejaVuSans-98"/>
      <path d="M 9.421875 54.6875 
L 18.40625 54.6875 
L 18.40625 -0.984375 
Q 18.40625 -11.421875 14.421875 -16.109375 
Q 10.453125 -20.796875 1.609375 -20.796875 
L -1.8125 -20.796875 
L -1.8125 -13.1875 
L 0.59375 -13.1875 
Q 5.71875 -13.1875 7.5625 -10.8125 
Q 9.421875 -8.453125 9.421875 -0.984375 
z
M 9.421875 75.984375 
L 18.40625 75.984375 
L 18.40625 64.59375 
L 9.421875 64.59375 
z
" id="DejaVuSans-106"/>
     </defs>
     <use xlink:href="#DejaVuSans-98"/>
     <use x="63.476562" xlink:href="#DejaVuSans-98"/>
     <use x="126.953125" xlink:href="#DejaVuSans-111"/>
     <use x="188.134766" xlink:href="#DejaVuSans-98"/>
     <use x="251.611328" xlink:href="#DejaVuSans-45"/>
     <use x="287.695312" xlink:href="#DejaVuSans-98"/>
     <use x="351.171875" xlink:href="#DejaVuSans-105"/>
     <use x="378.955078" xlink:href="#DejaVuSans-111"/>
     <use x="440.136719" xlink:href="#DejaVuSans-98"/>
     <use x="503.613281" xlink:href="#DejaVuSans-106"/>
    </g>
    <!-- 1-separable 5-weakly-structured, 5-D -->
    <g transform="translate(60.41088 25.583055)scale(0.102 -0.102)">
     <defs>
      <path d="M 10.796875 72.90625 
L 49.515625 72.90625 
L 49.515625 64.59375 
L 19.828125 64.59375 
L 19.828125 46.734375 
Q 21.96875 47.46875 24.109375 47.828125 
Q 26.265625 48.1875 28.421875 48.1875 
Q 40.625 48.1875 47.75 41.5 
Q 54.890625 34.8125 54.890625 23.390625 
Q 54.890625 11.625 47.5625 5.09375 
Q 40.234375 -1.421875 26.90625 -1.421875 
Q 22.3125 -1.421875 17.546875 -0.640625 
Q 12.796875 0.140625 7.71875 1.703125 
L 7.71875 11.625 
Q 12.109375 9.234375 16.796875 8.0625 
Q 21.484375 6.890625 26.703125 6.890625 
Q 35.15625 6.890625 40.078125 11.328125 
Q 45.015625 15.765625 45.015625 23.390625 
Q 45.015625 31 40.078125 35.4375 
Q 35.15625 39.890625 26.703125 39.890625 
Q 22.75 39.890625 18.8125 39.015625 
Q 14.890625 38.140625 10.796875 36.28125 
z
" id="DejaVuSans-53"/>
      <path d="M 4.203125 54.6875 
L 13.1875 54.6875 
L 24.421875 12.015625 
L 35.59375 54.6875 
L 46.1875 54.6875 
L 57.421875 12.015625 
L 68.609375 54.6875 
L 77.59375 54.6875 
L 63.28125 0 
L 52.6875 0 
L 40.921875 44.828125 
L 29.109375 0 
L 18.5 0 
z
" id="DejaVuSans-119"/>
      <path d="M 9.078125 75.984375 
L 18.109375 75.984375 
L 18.109375 31.109375 
L 44.921875 54.6875 
L 56.390625 54.6875 
L 27.390625 29.109375 
L 57.625 0 
L 45.90625 0 
L 18.109375 26.703125 
L 18.109375 0 
L 9.078125 0 
z
" id="DejaVuSans-107"/>
      <path d="M 32.171875 -5.078125 
Q 28.375 -14.84375 24.75 -17.8125 
Q 21.140625 -20.796875 15.09375 -20.796875 
L 7.90625 -20.796875 
L 7.90625 -13.28125 
L 13.1875 -13.28125 
Q 16.890625 -13.28125 18.9375 -11.515625 
Q 21 -9.765625 23.484375 -3.21875 
L 25.09375 0.875 
L 2.984375 54.6875 
L 12.5 54.6875 
L 29.59375 11.921875 
L 46.6875 54.6875 
L 56.203125 54.6875 
z
" id="DejaVuSans-121"/>
      <path d="M 19.671875 64.796875 
L 19.671875 8.109375 
L 31.59375 8.109375 
Q 46.6875 8.109375 53.6875 14.9375 
Q 60.6875 21.78125 60.6875 36.53125 
Q 60.6875 51.171875 53.6875 57.984375 
Q 46.6875 64.796875 31.59375 64.796875 
z
M 9.8125 72.90625 
L 30.078125 72.90625 
Q 51.265625 72.90625 61.171875 64.09375 
Q 71.09375 55.28125 71.09375 36.53125 
Q 71.09375 17.671875 61.125 8.828125 
Q 51.171875 0 30.078125 0 
L 9.8125 0 
z
" id="DejaVuSans-68"/>
     </defs>
     <use xlink:href="#DejaVuSans-49"/>
     <use x="63.623047" xlink:href="#DejaVuSans-45"/>
     <use x="99.707031" xlink:href="#DejaVuSans-115"/>
     <use x="151.806641" xlink:href="#DejaVuSans-101"/>
     <use x="213.330078" xlink:href="#DejaVuSans-112"/>
     <use x="276.806641" xlink:href="#DejaVuSans-97"/>
     <use x="338.085938" xlink:href="#DejaVuSans-114"/>
     <use x="379.199219" xlink:href="#DejaVuSans-97"/>
     <use x="440.478516" xlink:href="#DejaVuSans-98"/>
     <use x="503.955078" xlink:href="#DejaVuSans-108"/>
     <use x="531.738281" xlink:href="#DejaVuSans-101"/>
     <use x="593.261719" xlink:href="#DejaVuSans-32"/>
     <use x="625.048828" xlink:href="#DejaVuSans-53"/>
     <use x="688.671875" xlink:href="#DejaVuSans-45"/>
     <use x="724.755859" xlink:href="#DejaVuSans-119"/>
     <use x="806.542969" xlink:href="#DejaVuSans-101"/>
     <use x="868.066406" xlink:href="#DejaVuSans-97"/>
     <use x="929.345703" xlink:href="#DejaVuSans-107"/>
     <use x="987.255859" xlink:href="#DejaVuSans-108"/>
     <use x="1015.039062" xlink:href="#DejaVuSans-121"/>
     <use x="1072.46875" xlink:href="#DejaVuSans-45"/>
     <use x="1108.552734" xlink:href="#DejaVuSans-115"/>
     <use x="1160.652344" xlink:href="#DejaVuSans-116"/>
     <use x="1199.861328" xlink:href="#DejaVuSans-114"/>
     <use x="1240.974609" xlink:href="#DejaVuSans-117"/>
     <use x="1304.353516" xlink:href="#DejaVuSans-99"/>
     <use x="1359.333984" xlink:href="#DejaVuSans-116"/>
     <use x="1398.542969" xlink:href="#DejaVuSans-117"/>
     <use x="1461.921875" xlink:href="#DejaVuSans-114"/>
     <use x="1500.785156" xlink:href="#DejaVuSans-101"/>
     <use x="1562.308594" xlink:href="#DejaVuSans-100"/>
     <use x="1625.785156" xlink:href="#DejaVuSans-44"/>
     <use x="1657.572266" xlink:href="#DejaVuSans-32"/>
     <use x="1689.359375" xlink:href="#DejaVuSans-53"/>
     <use x="1752.982422" xlink:href="#DejaVuSans-45"/>
     <use x="1789.066406" xlink:href="#DejaVuSans-68"/>
    </g>
    <!-- 58 targets: 1..-1.0e-4 -->
    <g transform="translate(60.41088 37.004824)scale(0.102 -0.102)">
     <defs>
      <path d="M 11.71875 12.40625 
L 22.015625 12.40625 
L 22.015625 0 
L 11.71875 0 
z
M 11.71875 51.703125 
L 22.015625 51.703125 
L 22.015625 39.3125 
L 11.71875 39.3125 
z
" id="DejaVuSans-58"/>
     </defs>
     <use xlink:href="#DejaVuSans-53"/>
     <use x="63.623047" xlink:href="#DejaVuSans-56"/>
     <use x="127.246094" xlink:href="#DejaVuSans-32"/>
     <use x="159.033203" xlink:href="#DejaVuSans-116"/>
     <use x="198.242188" xlink:href="#DejaVuSans-97"/>
     <use x="259.521484" xlink:href="#DejaVuSans-114"/>
     <use x="298.884766" xlink:href="#DejaVuSans-103"/>
     <use x="362.361328" xlink:href="#DejaVuSans-101"/>
     <use x="423.884766" xlink:href="#DejaVuSans-116"/>
     <use x="463.09375" xlink:href="#DejaVuSans-115"/>
     <use x="515.193359" xlink:href="#DejaVuSans-58"/>
     <use x="548.884766" xlink:href="#DejaVuSans-32"/>
     <use x="580.671875" xlink:href="#DejaVuSans-49"/>
     <use x="644.294922" xlink:href="#DejaVuSans-46"/>
     <use x="676.082031" xlink:href="#DejaVuSans-46"/>
     <use x="707.869141" xlink:href="#DejaVuSans-45"/>
     <use x="743.953125" xlink:href="#DejaVuSans-49"/>
     <use x="807.576172" xlink:href="#DejaVuSans-46"/>
     <use x="839.363281" xlink:href="#DejaVuSans-48"/>
     <use x="902.986328" xlink:href="#DejaVuSans-101"/>
     <use x="964.509766" xlink:href="#DejaVuSans-45"/>
     <use x="1000.59375" xlink:href="#DejaVuSans-52"/>
    </g>
    <!-- 10 instances -->
    <g transform="translate(60.41088 48.426593)scale(0.102 -0.102)">
     <use xlink:href="#DejaVuSans-49"/>
     <use x="63.623047" xlink:href="#DejaVuSans-48"/>
     <use x="127.246094" xlink:href="#DejaVuSans-32"/>
     <use x="159.033203" xlink:href="#DejaVuSans-105"/>
     <use x="186.816406" xlink:href="#DejaVuSans-110"/>
     <use x="250.195312" xlink:href="#DejaVuSans-115"/>
     <use x="302.294922" xlink:href="#DejaVuSans-116"/>
     <use x="341.503906" xlink:href="#DejaVuSans-97"/>
     <use x="402.783203" xlink:href="#DejaVuSans-110"/>
     <use x="466.162109" xlink:href="#DejaVuSans-99"/>
     <use x="521.142578" xlink:href="#DejaVuSans-101"/>
     <use x="582.666016" xlink:href="#DejaVuSans-115"/>
    </g>
   </g>
   <g id="text_18">
    <!-- v2.4, hv-hash=ff0e71e8cd978373 -->
    <g style="fill:#808080;" transform="translate(112.648687 293.909432)scale(0.1 -0.1)">
     <defs>
      <path d="M 54.890625 33.015625 
L 54.890625 0 
L 45.90625 0 
L 45.90625 32.71875 
Q 45.90625 40.484375 42.875 44.328125 
Q 39.84375 48.1875 33.796875 48.1875 
Q 26.515625 48.1875 22.3125 43.546875 
Q 18.109375 38.921875 18.109375 30.90625 
L 18.109375 0 
L 9.078125 0 
L 9.078125 75.984375 
L 18.109375 75.984375 
L 18.109375 46.1875 
Q 21.34375 51.125 25.703125 53.5625 
Q 30.078125 56 35.796875 56 
Q 45.21875 56 50.046875 50.171875 
Q 54.890625 44.34375 54.890625 33.015625 
z
" id="DejaVuSans-104"/>
      <path d="M 10.59375 45.40625 
L 73.1875 45.40625 
L 73.1875 37.203125 
L 10.59375 37.203125 
z
M 10.59375 25.484375 
L 73.1875 25.484375 
L 73.1875 17.1875 
L 10.59375 17.1875 
z
" id="DejaVuSans-61"/>
      <path d="M 8.203125 72.90625 
L 55.078125 72.90625 
L 55.078125 68.703125 
L 28.609375 0 
L 18.3125 0 
L 43.21875 64.59375 
L 8.203125 64.59375 
z
" id="DejaVuSans-55"/>
      <path d="M 40.578125 39.3125 
Q 47.65625 37.796875 51.625 33 
Q 55.609375 28.21875 55.609375 21.1875 
Q 55.609375 10.40625 48.1875 4.484375 
Q 40.765625 -1.421875 27.09375 -1.421875 
Q 22.515625 -1.421875 17.65625 -0.515625 
Q 12.796875 0.390625 7.625 2.203125 
L 7.625 11.71875 
Q 11.71875 9.328125 16.59375 8.109375 
Q 21.484375 6.890625 26.8125 6.890625 
Q 36.078125 6.890625 40.9375 10.546875 
Q 45.796875 14.203125 45.796875 21.1875 
Q 45.796875 27.640625 41.28125 31.265625 
Q 36.765625 34.90625 28.71875 34.90625 
L 20.21875 34.90625 
L 20.21875 43.015625 
L 29.109375 43.015625 
Q 36.375 43.015625 40.234375 45.921875 
Q 44.09375 48.828125 44.09375 54.296875 
Q 44.09375 59.90625 40.109375 62.90625 
Q 36.140625 65.921875 28.71875 65.921875 
Q 24.65625 65.921875 20.015625 65.03125 
Q 15.375 64.15625 9.8125 62.3125 
L 9.8125 71.09375 
Q 15.4375 72.65625 20.34375 73.4375 
Q 25.25 74.21875 29.59375 74.21875 
Q 40.828125 74.21875 47.359375 69.109375 
Q 53.90625 64.015625 53.90625 55.328125 
Q 53.90625 49.265625 50.4375 45.09375 
Q 46.96875 40.921875 40.578125 39.3125 
z
" id="DejaVuSans-51"/>
     </defs>
     <use xlink:href="#DejaVuSans-118"/>
     <use x="59.179688" xlink:href="#DejaVuSans-50"/>
     <use x="122.802734" xlink:href="#DejaVuSans-46"/>
     <use x="154.589844" xlink:href="#DejaVuSans-52"/>
     <use x="218.212891" xlink:href="#DejaVuSans-44"/>
     <use x="250" xlink:href="#DejaVuSans-32"/>
     <use x="281.787109" xlink:href="#DejaVuSans-104"/>
     <use x="345.166016" xlink:href="#DejaVuSans-118"/>
     <use x="401.720703" xlink:href="#DejaVuSans-45"/>
     <use x="437.804688" xlink:href="#DejaVuSans-104"/>
     <use x="501.183594" xlink:href="#DejaVuSans-97"/>
     <use x="562.462891" xlink:href="#DejaVuSans-115"/>
     <use x="614.5625" xlink:href="#DejaVuSans-104"/>
     <use x="677.941406" xlink:href="#DejaVuSans-61"/>
     <use x="761.730469" xlink:href="#DejaVuSans-102"/>
     <use x="796.935547" xlink:href="#DejaVuSans-102"/>
     <use x="832.140625" xlink:href="#DejaVuSans-48"/>
     <use x="895.763672" xlink:href="#DejaVuSans-101"/>
     <use x="957.287109" xlink:href="#DejaVuSans-55"/>
     <use x="1020.910156" xlink:href="#DejaVuSans-49"/>
     <use x="1084.533203" xlink:href="#DejaVuSans-101"/>
     <use x="1146.056641" xlink:href="#DejaVuSans-56"/>
     <use x="1209.679688" xlink:href="#DejaVuSans-99"/>
     <use x="1264.660156" xlink:href="#DejaVuSans-100"/>
     <use x="1328.136719" xlink:href="#DejaVuSans-57"/>
     <use x="1391.759766" xlink:href="#DejaVuSans-55"/>
     <use x="1455.382812" xlink:href="#DejaVuSans-56"/>
     <use x="1519.005859" xlink:href="#DejaVuSans-51"/>
     <use x="1582.628906" xlink:href="#DejaVuSans-55"/>
     <use x="1646.251953" xlink:href="#DejaVuSans-51"/>
    </g>
   </g>
  </g>
 </g>
 <defs>
  <clipPath id="p38bdb5a6ac">
   <rect height="295.488" width="281.088" x="57.6" y="3.456"/>
  </clipPath>
 </defs>
</svg>
