<?xml version="1.0" encoding="utf-8" standalone="no"?>
<!DOCTYPE svg PUBLIC "-//W3C//DTD SVG 1.1//EN"
  "http://www.w3.org/Graphics/SVG/1.1/DTD/svg11.dtd">
<!-- Created with matplotlib (https://matplotlib.org/) -->
<svg height="345.6pt" version="1.1" viewBox="0 0 460.8 345.6" width="460.8pt" xmlns="http://www.w3.org/2000/svg" xmlns:xlink="http://www.w3.org/1999/xlink">
 <metadata>
  <rdf:RDF xmlns:cc="http://creativecommons.org/ns#" xmlns:dc="http://purl.org/dc/elements/1.1/" xmlns:rdf="http://www.w3.org/1999/02/22-rdf-syntax-ns#">
   <cc:Work>
    <dc:type rdf:resource="http://purl.org/dc/dcmitype/StillImage"/>
    <dc:date>2021-03-30T16:55:28.774879</dc:date>
    <dc:format>image/svg+xml</dc:format>
    <dc:creator>
     <cc:Agent>
      <dc:title>Matplotlib v3.3.4, https://matplotlib.org/</dc:title>
     </cc:Agent>
    </dc:creator>
   </cc:Work>
  </rdf:RDF>
 </metadata>
 <defs>
  <style type="text/css">*{stroke-linecap:butt;stroke-linejoin:round;}</style>
 </defs>
 <g id="figure_1">
  <g id="patch_1">
   <path d="M 0 345.6 
L 460.8 345.6 
L 460.8 0 
L 0 0 
z
" style="fill:#ffffff;"/>
  </g>
  <g id="axes_1">
   <g id="patch_2">
    <path d="M 57.6 298.944 
L 338.688 298.944 
L 338.688 3.456 
L 57.6 3.456 
z
" style="fill:#ffffff;"/>
   </g>
   <g id="matplotlib.axis_1">
    <g id="xtick_1">
     <g id="line2d_1">
      <path clip-path="url(#p3ae2b050d3)" d="M 57.6 298.944 
L 57.6 3.456 
" style="fill:none;stroke:#b0b0b0;stroke-linecap:square;stroke-width:0.8;"/>
     </g>
     <g id="line2d_2">
      <defs>
       <path d="M 0 0 
L 0 3.5 
" id="mdff73555b0" style="stroke:#000000;stroke-width:0.8;"/>
      </defs>
      <g>
       <use style="stroke:#000000;stroke-width:0.8;" x="57.6" xlink:href="#mdff73555b0" y="298.944"/>
      </g>
     </g>
     <g id="text_1">
      <!-- 0 -->
      <g transform="translate(51.2375 321.140875)scale(0.2 -0.2)">
       <defs>
        <path d="M 31.78125 66.40625 
Q 24.171875 66.40625 20.328125 58.90625 
Q 16.5 51.421875 16.5 36.375 
Q 16.5 21.390625 20.328125 13.890625 
Q 24.171875 6.390625 31.78125 6.390625 
Q 39.453125 6.390625 43.28125 13.890625 
Q 47.125 21.390625 47.125 36.375 
Q 47.125 51.421875 43.28125 58.90625 
Q 39.453125 66.40625 31.78125 66.40625 
z
M 31.78125 74.21875 
Q 44.046875 74.21875 50.515625 64.515625 
Q 56.984375 54.828125 56.984375 36.375 
Q 56.984375 17.96875 50.515625 8.265625 
Q 44.046875 -1.421875 31.78125 -1.421875 
Q 19.53125 -1.421875 13.0625 8.265625 
Q 6.59375 17.96875 6.59375 36.375 
Q 6.59375 54.828125 13.0625 64.515625 
Q 19.53125 74.21875 31.78125 74.21875 
z
" id="DejaVuSans-48"/>
       </defs>
       <use xlink:href="#DejaVuSans-48"/>
      </g>
     </g>
    </g>
    <g id="xtick_2">
     <g id="line2d_3">
      <path clip-path="url(#p3ae2b050d3)" d="M 137.910857 298.944 
L 137.910857 3.456 
" style="fill:none;stroke:#b0b0b0;stroke-linecap:square;stroke-width:0.8;"/>
     </g>
     <g id="line2d_4">
      <g>
       <use style="stroke:#000000;stroke-width:0.8;" x="137.910857" xlink:href="#mdff73555b0" y="298.944"/>
      </g>
     </g>
     <g id="text_2">
      <!-- 2 -->
      <g transform="translate(131.548357 321.140875)scale(0.2 -0.2)">
       <defs>
        <path d="M 19.1875 8.296875 
L 53.609375 8.296875 
L 53.609375 0 
L 7.328125 0 
L 7.328125 8.296875 
Q 12.9375 14.109375 22.625 23.890625 
Q 32.328125 33.6875 34.8125 36.53125 
Q 39.546875 41.84375 41.421875 45.53125 
Q 43.3125 49.21875 43.3125 52.78125 
Q 43.3125 58.59375 39.234375 62.25 
Q 35.15625 65.921875 28.609375 65.921875 
Q 23.96875 65.921875 18.8125 64.3125 
Q 13.671875 62.703125 7.8125 59.421875 
L 7.8125 69.390625 
Q 13.765625 71.78125 18.9375 73 
Q 24.125 74.21875 28.421875 74.21875 
Q 39.75 74.21875 46.484375 68.546875 
Q 53.21875 62.890625 53.21875 53.421875 
Q 53.21875 48.921875 51.53125 44.890625 
Q 49.859375 40.875 45.40625 35.40625 
Q 44.1875 33.984375 37.640625 27.21875 
Q 31.109375 20.453125 19.1875 8.296875 
z
" id="DejaVuSans-50"/>
       </defs>
       <use xlink:href="#DejaVuSans-50"/>
      </g>
     </g>
    </g>
    <g id="xtick_3">
     <g id="line2d_5">
      <path clip-path="url(#p3ae2b050d3)" d="M 218.221714 298.944 
L 218.221714 3.456 
" style="fill:none;stroke:#b0b0b0;stroke-linecap:square;stroke-width:0.8;"/>
     </g>
     <g id="line2d_6">
      <g>
       <use style="stroke:#000000;stroke-width:0.8;" x="218.221714" xlink:href="#mdff73555b0" y="298.944"/>
      </g>
     </g>
     <g id="text_3">
      <!-- 4 -->
      <g transform="translate(211.859214 321.140875)scale(0.2 -0.2)">
       <defs>
        <path d="M 37.796875 64.3125 
L 12.890625 25.390625 
L 37.796875 25.390625 
z
M 35.203125 72.90625 
L 47.609375 72.90625 
L 47.609375 25.390625 
L 58.015625 25.390625 
L 58.015625 17.1875 
L 47.609375 17.1875 
L 47.609375 0 
L 37.796875 0 
L 37.796875 17.1875 
L 4.890625 17.1875 
L 4.890625 26.703125 
z
" id="DejaVuSans-52"/>
       </defs>
       <use xlink:href="#DejaVuSans-52"/>
      </g>
     </g>
    </g>
    <g id="xtick_4">
     <g id="line2d_7">
      <path clip-path="url(#p3ae2b050d3)" d="M 298.532571 298.944 
L 298.532571 3.456 
" style="fill:none;stroke:#b0b0b0;stroke-linecap:square;stroke-width:0.8;"/>
     </g>
     <g id="line2d_8">
      <g>
       <use style="stroke:#000000;stroke-width:0.8;" x="298.532571" xlink:href="#mdff73555b0" y="298.944"/>
      </g>
     </g>
     <g id="text_4">
      <!-- 6 -->
      <g transform="translate(292.170071 321.140875)scale(0.2 -0.2)">
       <defs>
        <path d="M 33.015625 40.375 
Q 26.375 40.375 22.484375 35.828125 
Q 18.609375 31.296875 18.609375 23.390625 
Q 18.609375 15.53125 22.484375 10.953125 
Q 26.375 6.390625 33.015625 6.390625 
Q 39.65625 6.390625 43.53125 10.953125 
Q 47.40625 15.53125 47.40625 23.390625 
Q 47.40625 31.296875 43.53125 35.828125 
Q 39.65625 40.375 33.015625 40.375 
z
M 52.59375 71.296875 
L 52.59375 62.3125 
Q 48.875 64.0625 45.09375 64.984375 
Q 41.3125 65.921875 37.59375 65.921875 
Q 27.828125 65.921875 22.671875 59.328125 
Q 17.53125 52.734375 16.796875 39.40625 
Q 19.671875 43.65625 24.015625 45.921875 
Q 28.375 48.1875 33.59375 48.1875 
Q 44.578125 48.1875 50.953125 41.515625 
Q 57.328125 34.859375 57.328125 23.390625 
Q 57.328125 12.15625 50.6875 5.359375 
Q 44.046875 -1.421875 33.015625 -1.421875 
Q 20.359375 -1.421875 13.671875 8.265625 
Q 6.984375 17.96875 6.984375 36.375 
Q 6.984375 53.65625 15.1875 63.9375 
Q 23.390625 74.21875 37.203125 74.21875 
Q 40.921875 74.21875 44.703125 73.484375 
Q 48.484375 72.75 52.59375 71.296875 
z
" id="DejaVuSans-54"/>
       </defs>
       <use xlink:href="#DejaVuSans-54"/>
      </g>
     </g>
    </g>
    <g id="xtick_5">
     <g id="line2d_9">
      <path clip-path="url(#p3ae2b050d3)" d="M 97.755429 298.944 
L 97.755429 3.456 
" style="fill:none;stroke:#b0b0b0;stroke-linecap:square;stroke-width:0.8;"/>
     </g>
     <g id="line2d_10">
      <defs>
       <path d="M 0 0 
L 0 2 
" id="m28f4a8d5d5" style="stroke:#000000;stroke-width:0.6;"/>
      </defs>
      <g>
       <use style="stroke:#000000;stroke-width:0.6;" x="97.755429" xlink:href="#m28f4a8d5d5" y="298.944"/>
      </g>
     </g>
    </g>
    <g id="xtick_6">
     <g id="line2d_11">
      <path clip-path="url(#p3ae2b050d3)" d="M 178.066286 298.944 
L 178.066286 3.456 
" style="fill:none;stroke:#b0b0b0;stroke-linecap:square;stroke-width:0.8;"/>
     </g>
     <g id="line2d_12">
      <g>
       <use style="stroke:#000000;stroke-width:0.6;" x="178.066286" xlink:href="#m28f4a8d5d5" y="298.944"/>
      </g>
     </g>
    </g>
    <g id="xtick_7">
     <g id="line2d_13">
      <path clip-path="url(#p3ae2b050d3)" d="M 258.377143 298.944 
L 258.377143 3.456 
" style="fill:none;stroke:#b0b0b0;stroke-linecap:square;stroke-width:0.8;"/>
     </g>
     <g id="line2d_14">
      <g>
       <use style="stroke:#000000;stroke-width:0.6;" x="258.377143" xlink:href="#m28f4a8d5d5" y="298.944"/>
      </g>
     </g>
    </g>
    <g id="xtick_8">
     <g id="line2d_15">
      <path clip-path="url(#p3ae2b050d3)" d="M 338.688 298.944 
L 338.688 3.456 
" style="fill:none;stroke:#b0b0b0;stroke-linecap:square;stroke-width:0.8;"/>
     </g>
     <g id="line2d_16">
      <g>
       <use style="stroke:#000000;stroke-width:0.6;" x="338.688" xlink:href="#m28f4a8d5d5" y="298.944"/>
      </g>
     </g>
    </g>
    <g id="text_5">
     <!-- log10(# f-evals / dimension) -->
     <g transform="translate(77.764078 342.217594)scale(0.17 -0.17)">
      <defs>
       <path d="M 9.421875 75.984375 
L 18.40625 75.984375 
L 18.40625 0 
L 9.421875 0 
z
" id="DejaVuSans-108"/>
       <path d="M 30.609375 48.390625 
Q 23.390625 48.390625 19.1875 42.75 
Q 14.984375 37.109375 14.984375 27.296875 
Q 14.984375 17.484375 19.15625 11.84375 
Q 23.34375 6.203125 30.609375 6.203125 
Q 37.796875 6.203125 41.984375 11.859375 
Q 46.1875 17.53125 46.1875 27.296875 
Q 46.1875 37.015625 41.984375 42.703125 
Q 37.796875 48.390625 30.609375 48.390625 
z
M 30.609375 56 
Q 42.328125 56 49.015625 48.375 
Q 55.71875 40.765625 55.71875 27.296875 
Q 55.71875 13.875 49.015625 6.21875 
Q 42.328125 -1.421875 30.609375 -1.421875 
Q 18.84375 -1.421875 12.171875 6.21875 
Q 5.515625 13.875 5.515625 27.296875 
Q 5.515625 40.765625 12.171875 48.375 
Q 18.84375 56 30.609375 56 
z
" id="DejaVuSans-111"/>
       <path d="M 45.40625 27.984375 
Q 45.40625 37.75 41.375 43.109375 
Q 37.359375 48.484375 30.078125 48.484375 
Q 22.859375 48.484375 18.828125 43.109375 
Q 14.796875 37.75 14.796875 27.984375 
Q 14.796875 18.265625 18.828125 12.890625 
Q 22.859375 7.515625 30.078125 7.515625 
Q 37.359375 7.515625 41.375 12.890625 
Q 45.40625 18.265625 45.40625 27.984375 
z
M 54.390625 6.78125 
Q 54.390625 -7.171875 48.1875 -13.984375 
Q 42 -20.796875 29.203125 -20.796875 
Q 24.46875 -20.796875 20.265625 -20.09375 
Q 16.0625 -19.390625 12.109375 -17.921875 
L 12.109375 -9.1875 
Q 16.0625 -11.328125 19.921875 -12.34375 
Q 23.78125 -13.375 27.78125 -13.375 
Q 36.625 -13.375 41.015625 -8.765625 
Q 45.40625 -4.15625 45.40625 5.171875 
L 45.40625 9.625 
Q 42.625 4.78125 38.28125 2.390625 
Q 33.9375 0 27.875 0 
Q 17.828125 0 11.671875 7.65625 
Q 5.515625 15.328125 5.515625 27.984375 
Q 5.515625 40.671875 11.671875 48.328125 
Q 17.828125 56 27.875 56 
Q 33.9375 56 38.28125 53.609375 
Q 42.625 51.21875 45.40625 46.390625 
L 45.40625 54.6875 
L 54.390625 54.6875 
z
" id="DejaVuSans-103"/>
       <path d="M 12.40625 8.296875 
L 28.515625 8.296875 
L 28.515625 63.921875 
L 10.984375 60.40625 
L 10.984375 69.390625 
L 28.421875 72.90625 
L 38.28125 72.90625 
L 38.28125 8.296875 
L 54.390625 8.296875 
L 54.390625 0 
L 12.40625 0 
z
" id="DejaVuSans-49"/>
       <path d="M 31 75.875 
Q 24.46875 64.65625 21.28125 53.65625 
Q 18.109375 42.671875 18.109375 31.390625 
Q 18.109375 20.125 21.3125 9.0625 
Q 24.515625 -2 31 -13.1875 
L 23.1875 -13.1875 
Q 15.875 -1.703125 12.234375 9.375 
Q 8.59375 20.453125 8.59375 31.390625 
Q 8.59375 42.28125 12.203125 53.3125 
Q 15.828125 64.359375 23.1875 75.875 
z
" id="DejaVuSans-40"/>
       <path d="M 51.125 44 
L 36.921875 44 
L 32.8125 27.6875 
L 47.125 27.6875 
z
M 43.796875 71.78125 
L 38.71875 51.515625 
L 52.984375 51.515625 
L 58.109375 71.78125 
L 65.921875 71.78125 
L 60.890625 51.515625 
L 76.125 51.515625 
L 76.125 44 
L 58.984375 44 
L 54.984375 27.6875 
L 70.515625 27.6875 
L 70.515625 20.21875 
L 53.078125 20.21875 
L 48 0 
L 40.1875 0 
L 45.21875 20.21875 
L 30.90625 20.21875 
L 25.875 0 
L 18.015625 0 
L 23.09375 20.21875 
L 7.71875 20.21875 
L 7.71875 27.6875 
L 24.90625 27.6875 
L 29 44 
L 13.28125 44 
L 13.28125 51.515625 
L 30.90625 51.515625 
L 35.890625 71.78125 
z
" id="DejaVuSans-35"/>
       <path id="DejaVuSans-32"/>
       <path d="M 37.109375 75.984375 
L 37.109375 68.5 
L 28.515625 68.5 
Q 23.6875 68.5 21.796875 66.546875 
Q 19.921875 64.59375 19.921875 59.515625 
L 19.921875 54.6875 
L 34.71875 54.6875 
L 34.71875 47.703125 
L 19.921875 47.703125 
L 19.921875 0 
L 10.890625 0 
L 10.890625 47.703125 
L 2.296875 47.703125 
L 2.296875 54.6875 
L 10.890625 54.6875 
L 10.890625 58.5 
Q 10.890625 67.625 15.140625 71.796875 
Q 19.390625 75.984375 28.609375 75.984375 
z
" id="DejaVuSans-102"/>
       <path d="M 4.890625 31.390625 
L 31.203125 31.390625 
L 31.203125 23.390625 
L 4.890625 23.390625 
z
" id="DejaVuSans-45"/>
       <path d="M 56.203125 29.59375 
L 56.203125 25.203125 
L 14.890625 25.203125 
Q 15.484375 15.921875 20.484375 11.0625 
Q 25.484375 6.203125 34.421875 6.203125 
Q 39.59375 6.203125 44.453125 7.46875 
Q 49.3125 8.734375 54.109375 11.28125 
L 54.109375 2.78125 
Q 49.265625 0.734375 44.1875 -0.34375 
Q 39.109375 -1.421875 33.890625 -1.421875 
Q 20.796875 -1.421875 13.15625 6.1875 
Q 5.515625 13.8125 5.515625 26.8125 
Q 5.515625 40.234375 12.765625 48.109375 
Q 20.015625 56 32.328125 56 
Q 43.359375 56 49.78125 48.890625 
Q 56.203125 41.796875 56.203125 29.59375 
z
M 47.21875 32.234375 
Q 47.125 39.59375 43.09375 43.984375 
Q 39.0625 48.390625 32.421875 48.390625 
Q 24.90625 48.390625 20.390625 44.140625 
Q 15.875 39.890625 15.1875 32.171875 
z
" id="DejaVuSans-101"/>
       <path d="M 2.984375 54.6875 
L 12.5 54.6875 
L 29.59375 8.796875 
L 46.6875 54.6875 
L 56.203125 54.6875 
L 35.6875 0 
L 23.484375 0 
z
" id="DejaVuSans-118"/>
       <path d="M 34.28125 27.484375 
Q 23.390625 27.484375 19.1875 25 
Q 14.984375 22.515625 14.984375 16.5 
Q 14.984375 11.71875 18.140625 8.90625 
Q 21.296875 6.109375 26.703125 6.109375 
Q 34.1875 6.109375 38.703125 11.40625 
Q 43.21875 16.703125 43.21875 25.484375 
L 43.21875 27.484375 
z
M 52.203125 31.203125 
L 52.203125 0 
L 43.21875 0 
L 43.21875 8.296875 
Q 40.140625 3.328125 35.546875 0.953125 
Q 30.953125 -1.421875 24.3125 -1.421875 
Q 15.921875 -1.421875 10.953125 3.296875 
Q 6 8.015625 6 15.921875 
Q 6 25.140625 12.171875 29.828125 
Q 18.359375 34.515625 30.609375 34.515625 
L 43.21875 34.515625 
L 43.21875 35.40625 
Q 43.21875 41.609375 39.140625 45 
Q 35.0625 48.390625 27.6875 48.390625 
Q 23 48.390625 18.546875 47.265625 
Q 14.109375 46.140625 10.015625 43.890625 
L 10.015625 52.203125 
Q 14.9375 54.109375 19.578125 55.046875 
Q 24.21875 56 28.609375 56 
Q 40.484375 56 46.34375 49.84375 
Q 52.203125 43.703125 52.203125 31.203125 
z
" id="DejaVuSans-97"/>
       <path d="M 44.28125 53.078125 
L 44.28125 44.578125 
Q 40.484375 46.53125 36.375 47.5 
Q 32.28125 48.484375 27.875 48.484375 
Q 21.1875 48.484375 17.84375 46.4375 
Q 14.5 44.390625 14.5 40.28125 
Q 14.5 37.15625 16.890625 35.375 
Q 19.28125 33.59375 26.515625 31.984375 
L 29.59375 31.296875 
Q 39.15625 29.25 43.1875 25.515625 
Q 47.21875 21.78125 47.21875 15.09375 
Q 47.21875 7.46875 41.1875 3.015625 
Q 35.15625 -1.421875 24.609375 -1.421875 
Q 20.21875 -1.421875 15.453125 -0.5625 
Q 10.6875 0.296875 5.421875 2 
L 5.421875 11.28125 
Q 10.40625 8.6875 15.234375 7.390625 
Q 20.0625 6.109375 24.8125 6.109375 
Q 31.15625 6.109375 34.5625 8.28125 
Q 37.984375 10.453125 37.984375 14.40625 
Q 37.984375 18.0625 35.515625 20.015625 
Q 33.0625 21.96875 24.703125 23.78125 
L 21.578125 24.515625 
Q 13.234375 26.265625 9.515625 29.90625 
Q 5.8125 33.546875 5.8125 39.890625 
Q 5.8125 47.609375 11.28125 51.796875 
Q 16.75 56 26.8125 56 
Q 31.78125 56 36.171875 55.265625 
Q 40.578125 54.546875 44.28125 53.078125 
z
" id="DejaVuSans-115"/>
       <path d="M 25.390625 72.90625 
L 33.6875 72.90625 
L 8.296875 -9.28125 
L 0 -9.28125 
z
" id="DejaVuSans-47"/>
       <path d="M 45.40625 46.390625 
L 45.40625 75.984375 
L 54.390625 75.984375 
L 54.390625 0 
L 45.40625 0 
L 45.40625 8.203125 
Q 42.578125 3.328125 38.25 0.953125 
Q 33.9375 -1.421875 27.875 -1.421875 
Q 17.96875 -1.421875 11.734375 6.484375 
Q 5.515625 14.40625 5.515625 27.296875 
Q 5.515625 40.1875 11.734375 48.09375 
Q 17.96875 56 27.875 56 
Q 33.9375 56 38.25 53.625 
Q 42.578125 51.265625 45.40625 46.390625 
z
M 14.796875 27.296875 
Q 14.796875 17.390625 18.875 11.75 
Q 22.953125 6.109375 30.078125 6.109375 
Q 37.203125 6.109375 41.296875 11.75 
Q 45.40625 17.390625 45.40625 27.296875 
Q 45.40625 37.203125 41.296875 42.84375 
Q 37.203125 48.484375 30.078125 48.484375 
Q 22.953125 48.484375 18.875 42.84375 
Q 14.796875 37.203125 14.796875 27.296875 
z
" id="DejaVuSans-100"/>
       <path d="M 9.421875 54.6875 
L 18.40625 54.6875 
L 18.40625 0 
L 9.421875 0 
z
M 9.421875 75.984375 
L 18.40625 75.984375 
L 18.40625 64.59375 
L 9.421875 64.59375 
z
" id="DejaVuSans-105"/>
       <path d="M 52 44.1875 
Q 55.375 50.25 60.0625 53.125 
Q 64.75 56 71.09375 56 
Q 79.640625 56 84.28125 50.015625 
Q 88.921875 44.046875 88.921875 33.015625 
L 88.921875 0 
L 79.890625 0 
L 79.890625 32.71875 
Q 79.890625 40.578125 77.09375 44.375 
Q 74.3125 48.1875 68.609375 48.1875 
Q 61.625 48.1875 57.5625 43.546875 
Q 53.515625 38.921875 53.515625 30.90625 
L 53.515625 0 
L 44.484375 0 
L 44.484375 32.71875 
Q 44.484375 40.625 41.703125 44.40625 
Q 38.921875 48.1875 33.109375 48.1875 
Q 26.21875 48.1875 22.15625 43.53125 
Q 18.109375 38.875 18.109375 30.90625 
L 18.109375 0 
L 9.078125 0 
L 9.078125 54.6875 
L 18.109375 54.6875 
L 18.109375 46.1875 
Q 21.1875 51.21875 25.484375 53.609375 
Q 29.78125 56 35.6875 56 
Q 41.65625 56 45.828125 52.96875 
Q 50 49.953125 52 44.1875 
z
" id="DejaVuSans-109"/>
       <path d="M 54.890625 33.015625 
L 54.890625 0 
L 45.90625 0 
L 45.90625 32.71875 
Q 45.90625 40.484375 42.875 44.328125 
Q 39.84375 48.1875 33.796875 48.1875 
Q 26.515625 48.1875 22.3125 43.546875 
Q 18.109375 38.921875 18.109375 30.90625 
L 18.109375 0 
L 9.078125 0 
L 9.078125 54.6875 
L 18.109375 54.6875 
L 18.109375 46.1875 
Q 21.34375 51.125 25.703125 53.5625 
Q 30.078125 56 35.796875 56 
Q 45.21875 56 50.046875 50.171875 
Q 54.890625 44.34375 54.890625 33.015625 
z
" id="DejaVuSans-110"/>
       <path d="M 8.015625 75.875 
L 15.828125 75.875 
Q 23.140625 64.359375 26.78125 53.3125 
Q 30.421875 42.28125 30.421875 31.390625 
Q 30.421875 20.453125 26.78125 9.375 
Q 23.140625 -1.703125 15.828125 -13.1875 
L 8.015625 -13.1875 
Q 14.5 -2 17.703125 9.0625 
Q 20.90625 20.125 20.90625 31.390625 
Q 20.90625 42.671875 17.703125 53.65625 
Q 14.5 64.65625 8.015625 75.875 
z
" id="DejaVuSans-41"/>
      </defs>
      <use xlink:href="#DejaVuSans-108"/>
      <use x="27.783203" xlink:href="#DejaVuSans-111"/>
      <use x="88.964844" xlink:href="#DejaVuSans-103"/>
      <use x="152.441406" xlink:href="#DejaVuSans-49"/>
      <use x="216.064453" xlink:href="#DejaVuSans-48"/>
      <use x="279.6875" xlink:href="#DejaVuSans-40"/>
      <use x="318.701172" xlink:href="#DejaVuSans-35"/>
      <use x="402.490234" xlink:href="#DejaVuSans-32"/>
      <use x="434.277344" xlink:href="#DejaVuSans-102"/>
      <use x="463.982422" xlink:href="#DejaVuSans-45"/>
      <use x="500.066406" xlink:href="#DejaVuSans-101"/>
      <use x="561.589844" xlink:href="#DejaVuSans-118"/>
      <use x="620.769531" xlink:href="#DejaVuSans-97"/>
      <use x="682.048828" xlink:href="#DejaVuSans-108"/>
      <use x="709.832031" xlink:href="#DejaVuSans-115"/>
      <use x="761.931641" xlink:href="#DejaVuSans-32"/>
      <use x="793.71875" xlink:href="#DejaVuSans-47"/>
      <use x="827.410156" xlink:href="#DejaVuSans-32"/>
      <use x="859.197266" xlink:href="#DejaVuSans-100"/>
      <use x="922.673828" xlink:href="#DejaVuSans-105"/>
      <use x="950.457031" xlink:href="#DejaVuSans-109"/>
      <use x="1047.869141" xlink:href="#DejaVuSans-101"/>
      <use x="1109.392578" xlink:href="#DejaVuSans-110"/>
      <use x="1172.771484" xlink:href="#DejaVuSans-115"/>
      <use x="1224.871094" xlink:href="#DejaVuSans-105"/>
      <use x="1252.654297" xlink:href="#DejaVuSans-111"/>
      <use x="1313.835938" xlink:href="#DejaVuSans-110"/>
      <use x="1377.214844" xlink:href="#DejaVuSans-41"/>
     </g>
    </g>
   </g>
   <g id="matplotlib.axis_2">
    <g id="ytick_1">
     <g id="line2d_17">
      <path clip-path="url(#p3ae2b050d3)" d="M 57.6 298.944 
L 338.688 298.944 
" style="fill:none;stroke:#b0b0b0;stroke-linecap:square;stroke-width:0.8;"/>
     </g>
     <g id="line2d_18">
      <defs>
       <path d="M 0 0 
L -3.5 0 
" id="m17f0bb9fbb" style="stroke:#000000;stroke-width:0.8;"/>
      </defs>
      <g>
       <use style="stroke:#000000;stroke-width:0.8;" x="57.6" xlink:href="#m17f0bb9fbb" y="298.944"/>
      </g>
     </g>
     <g id="text_6">
      <!-- 0.0 -->
      <g transform="translate(25.155 305.02275)scale(0.16 -0.16)">
       <defs>
        <path d="M 10.6875 12.40625 
L 21 12.40625 
L 21 0 
L 10.6875 0 
z
" id="DejaVuSans-46"/>
       </defs>
       <use xlink:href="#DejaVuSans-48"/>
       <use x="63.623047" xlink:href="#DejaVuSans-46"/>
       <use x="95.410156" xlink:href="#DejaVuSans-48"/>
      </g>
     </g>
    </g>
    <g id="ytick_2">
     <g id="line2d_19">
      <path clip-path="url(#p3ae2b050d3)" d="M 57.6 240.431525 
L 338.688 240.431525 
" style="fill:none;stroke:#b0b0b0;stroke-linecap:square;stroke-width:0.8;"/>
     </g>
     <g id="line2d_20">
      <g>
       <use style="stroke:#000000;stroke-width:0.8;" x="57.6" xlink:href="#m17f0bb9fbb" y="240.431525"/>
      </g>
     </g>
     <g id="text_7">
      <!-- 0.2 -->
      <g transform="translate(25.155 246.510275)scale(0.16 -0.16)">
       <use xlink:href="#DejaVuSans-48"/>
       <use x="63.623047" xlink:href="#DejaVuSans-46"/>
       <use x="95.410156" xlink:href="#DejaVuSans-50"/>
      </g>
     </g>
    </g>
    <g id="ytick_3">
     <g id="line2d_21">
      <path clip-path="url(#p3ae2b050d3)" d="M 57.6 181.91905 
L 338.688 181.91905 
" style="fill:none;stroke:#b0b0b0;stroke-linecap:square;stroke-width:0.8;"/>
     </g>
     <g id="line2d_22">
      <g>
       <use style="stroke:#000000;stroke-width:0.8;" x="57.6" xlink:href="#m17f0bb9fbb" y="181.91905"/>
      </g>
     </g>
     <g id="text_8">
      <!-- 0.4 -->
      <g transform="translate(25.155 187.9978)scale(0.16 -0.16)">
       <use xlink:href="#DejaVuSans-48"/>
       <use x="63.623047" xlink:href="#DejaVuSans-46"/>
       <use x="95.410156" xlink:href="#DejaVuSans-52"/>
      </g>
     </g>
    </g>
    <g id="ytick_4">
     <g id="line2d_23">
      <path clip-path="url(#p3ae2b050d3)" d="M 57.6 123.406574 
L 338.688 123.406574 
" style="fill:none;stroke:#b0b0b0;stroke-linecap:square;stroke-width:0.8;"/>
     </g>
     <g id="line2d_24">
      <g>
       <use style="stroke:#000000;stroke-width:0.8;" x="57.6" xlink:href="#m17f0bb9fbb" y="123.406574"/>
      </g>
     </g>
     <g id="text_9">
      <!-- 0.6 -->
      <g transform="translate(25.155 129.485324)scale(0.16 -0.16)">
       <use xlink:href="#DejaVuSans-48"/>
       <use x="63.623047" xlink:href="#DejaVuSans-46"/>
       <use x="95.410156" xlink:href="#DejaVuSans-54"/>
      </g>
     </g>
    </g>
    <g id="ytick_5">
     <g id="line2d_25">
      <path clip-path="url(#p3ae2b050d3)" d="M 57.6 64.894099 
L 338.688 64.894099 
" style="fill:none;stroke:#b0b0b0;stroke-linecap:square;stroke-width:0.8;"/>
     </g>
     <g id="line2d_26">
      <g>
       <use style="stroke:#000000;stroke-width:0.8;" x="57.6" xlink:href="#m17f0bb9fbb" y="64.894099"/>
      </g>
     </g>
     <g id="text_10">
      <!-- 0.8 -->
      <g transform="translate(25.155 70.972849)scale(0.16 -0.16)">
       <defs>
        <path d="M 31.78125 34.625 
Q 24.75 34.625 20.71875 30.859375 
Q 16.703125 27.09375 16.703125 20.515625 
Q 16.703125 13.921875 20.71875 10.15625 
Q 24.75 6.390625 31.78125 6.390625 
Q 38.8125 6.390625 42.859375 10.171875 
Q 46.921875 13.96875 46.921875 20.515625 
Q 46.921875 27.09375 42.890625 30.859375 
Q 38.875 34.625 31.78125 34.625 
z
M 21.921875 38.8125 
Q 15.578125 40.375 12.03125 44.71875 
Q 8.5 49.078125 8.5 55.328125 
Q 8.5 64.0625 14.71875 69.140625 
Q 20.953125 74.21875 31.78125 74.21875 
Q 42.671875 74.21875 48.875 69.140625 
Q 55.078125 64.0625 55.078125 55.328125 
Q 55.078125 49.078125 51.53125 44.71875 
Q 48 40.375 41.703125 38.8125 
Q 48.828125 37.15625 52.796875 32.3125 
Q 56.78125 27.484375 56.78125 20.515625 
Q 56.78125 9.90625 50.3125 4.234375 
Q 43.84375 -1.421875 31.78125 -1.421875 
Q 19.734375 -1.421875 13.25 4.234375 
Q 6.78125 9.90625 6.78125 20.515625 
Q 6.78125 27.484375 10.78125 32.3125 
Q 14.796875 37.15625 21.921875 38.8125 
z
M 18.3125 54.390625 
Q 18.3125 48.734375 21.84375 45.5625 
Q 25.390625 42.390625 31.78125 42.390625 
Q 38.140625 42.390625 41.71875 45.5625 
Q 45.3125 48.734375 45.3125 54.390625 
Q 45.3125 60.0625 41.71875 63.234375 
Q 38.140625 66.40625 31.78125 66.40625 
Q 25.390625 66.40625 21.84375 63.234375 
Q 18.3125 60.0625 18.3125 54.390625 
z
" id="DejaVuSans-56"/>
       </defs>
       <use xlink:href="#DejaVuSans-48"/>
       <use x="63.623047" xlink:href="#DejaVuSans-46"/>
       <use x="95.410156" xlink:href="#DejaVuSans-56"/>
      </g>
     </g>
    </g>
    <g id="ytick_6">
     <g id="line2d_27">
      <path clip-path="url(#p3ae2b050d3)" d="M 57.6 6.381624 
L 338.688 6.381624 
" style="fill:none;stroke:#b0b0b0;stroke-linecap:square;stroke-width:0.8;"/>
     </g>
     <g id="line2d_28">
      <g>
       <use style="stroke:#000000;stroke-width:0.8;" x="57.6" xlink:href="#m17f0bb9fbb" y="6.381624"/>
      </g>
     </g>
     <g id="text_11">
      <!-- 1.0 -->
      <g transform="translate(25.155 12.460374)scale(0.16 -0.16)">
       <use xlink:href="#DejaVuSans-49"/>
       <use x="63.623047" xlink:href="#DejaVuSans-46"/>
       <use x="95.410156" xlink:href="#DejaVuSans-48"/>
      </g>
     </g>
    </g>
    <g id="text_12">
     <!-- Fraction of function,target pairs -->
     <g transform="translate(17.619531 285.585)rotate(-90)scale(0.17 -0.17)">
      <defs>
       <path d="M 9.8125 72.90625 
L 51.703125 72.90625 
L 51.703125 64.59375 
L 19.671875 64.59375 
L 19.671875 43.109375 
L 48.578125 43.109375 
L 48.578125 34.8125 
L 19.671875 34.8125 
L 19.671875 0 
L 9.8125 0 
z
" id="DejaVuSans-70"/>
       <path d="M 41.109375 46.296875 
Q 39.59375 47.171875 37.8125 47.578125 
Q 36.03125 48 33.890625 48 
Q 26.265625 48 22.1875 43.046875 
Q 18.109375 38.09375 18.109375 28.8125 
L 18.109375 0 
L 9.078125 0 
L 9.078125 54.6875 
L 18.109375 54.6875 
L 18.109375 46.1875 
Q 20.953125 51.171875 25.484375 53.578125 
Q 30.03125 56 36.53125 56 
Q 37.453125 56 38.578125 55.875 
Q 39.703125 55.765625 41.0625 55.515625 
z
" id="DejaVuSans-114"/>
       <path d="M 48.78125 52.59375 
L 48.78125 44.1875 
Q 44.96875 46.296875 41.140625 47.34375 
Q 37.3125 48.390625 33.40625 48.390625 
Q 24.65625 48.390625 19.8125 42.84375 
Q 14.984375 37.3125 14.984375 27.296875 
Q 14.984375 17.28125 19.8125 11.734375 
Q 24.65625 6.203125 33.40625 6.203125 
Q 37.3125 6.203125 41.140625 7.25 
Q 44.96875 8.296875 48.78125 10.40625 
L 48.78125 2.09375 
Q 45.015625 0.34375 40.984375 -0.53125 
Q 36.96875 -1.421875 32.421875 -1.421875 
Q 20.0625 -1.421875 12.78125 6.34375 
Q 5.515625 14.109375 5.515625 27.296875 
Q 5.515625 40.671875 12.859375 48.328125 
Q 20.21875 56 33.015625 56 
Q 37.15625 56 41.109375 55.140625 
Q 45.0625 54.296875 48.78125 52.59375 
z
" id="DejaVuSans-99"/>
       <path d="M 18.3125 70.21875 
L 18.3125 54.6875 
L 36.8125 54.6875 
L 36.8125 47.703125 
L 18.3125 47.703125 
L 18.3125 18.015625 
Q 18.3125 11.328125 20.140625 9.421875 
Q 21.96875 7.515625 27.59375 7.515625 
L 36.8125 7.515625 
L 36.8125 0 
L 27.59375 0 
Q 17.1875 0 13.234375 3.875 
Q 9.28125 7.765625 9.28125 18.015625 
L 9.28125 47.703125 
L 2.6875 47.703125 
L 2.6875 54.6875 
L 9.28125 54.6875 
L 9.28125 70.21875 
z
" id="DejaVuSans-116"/>
       <path d="M 8.5 21.578125 
L 8.5 54.6875 
L 17.484375 54.6875 
L 17.484375 21.921875 
Q 17.484375 14.15625 20.5 10.265625 
Q 23.53125 6.390625 29.59375 6.390625 
Q 36.859375 6.390625 41.078125 11.03125 
Q 45.3125 15.671875 45.3125 23.6875 
L 45.3125 54.6875 
L 54.296875 54.6875 
L 54.296875 0 
L 45.3125 0 
L 45.3125 8.40625 
Q 42.046875 3.421875 37.71875 1 
Q 33.40625 -1.421875 27.6875 -1.421875 
Q 18.265625 -1.421875 13.375 4.4375 
Q 8.5 10.296875 8.5 21.578125 
z
M 31.109375 56 
z
" id="DejaVuSans-117"/>
       <path d="M 11.71875 12.40625 
L 22.015625 12.40625 
L 22.015625 4 
L 14.015625 -11.625 
L 7.71875 -11.625 
L 11.71875 4 
z
" id="DejaVuSans-44"/>
       <path d="M 18.109375 8.203125 
L 18.109375 -20.796875 
L 9.078125 -20.796875 
L 9.078125 54.6875 
L 18.109375 54.6875 
L 18.109375 46.390625 
Q 20.953125 51.265625 25.265625 53.625 
Q 29.59375 56 35.59375 56 
Q 45.5625 56 51.78125 48.09375 
Q 58.015625 40.1875 58.015625 27.296875 
Q 58.015625 14.40625 51.78125 6.484375 
Q 45.5625 -1.421875 35.59375 -1.421875 
Q 29.59375 -1.421875 25.265625 0.953125 
Q 20.953125 3.328125 18.109375 8.203125 
z
M 48.6875 27.296875 
Q 48.6875 37.203125 44.609375 42.84375 
Q 40.53125 48.484375 33.40625 48.484375 
Q 26.265625 48.484375 22.1875 42.84375 
Q 18.109375 37.203125 18.109375 27.296875 
Q 18.109375 17.390625 22.1875 11.75 
Q 26.265625 6.109375 33.40625 6.109375 
Q 40.53125 6.109375 44.609375 11.75 
Q 48.6875 17.390625 48.6875 27.296875 
z
" id="DejaVuSans-112"/>
      </defs>
      <use xlink:href="#DejaVuSans-70"/>
      <use x="50.269531" xlink:href="#DejaVuSans-114"/>
      <use x="91.382812" xlink:href="#DejaVuSans-97"/>
      <use x="152.662109" xlink:href="#DejaVuSans-99"/>
      <use x="207.642578" xlink:href="#DejaVuSans-116"/>
      <use x="246.851562" xlink:href="#DejaVuSans-105"/>
      <use x="274.634766" xlink:href="#DejaVuSans-111"/>
      <use x="335.816406" xlink:href="#DejaVuSans-110"/>
      <use x="399.195312" xlink:href="#DejaVuSans-32"/>
      <use x="430.982422" xlink:href="#DejaVuSans-111"/>
      <use x="492.164062" xlink:href="#DejaVuSans-102"/>
      <use x="527.369141" xlink:href="#DejaVuSans-32"/>
      <use x="559.15625" xlink:href="#DejaVuSans-102"/>
      <use x="594.361328" xlink:href="#DejaVuSans-117"/>
      <use x="657.740234" xlink:href="#DejaVuSans-110"/>
      <use x="721.119141" xlink:href="#DejaVuSans-99"/>
      <use x="776.099609" xlink:href="#DejaVuSans-116"/>
      <use x="815.308594" xlink:href="#DejaVuSans-105"/>
      <use x="843.091797" xlink:href="#DejaVuSans-111"/>
      <use x="904.273438" xlink:href="#DejaVuSans-110"/>
      <use x="967.652344" xlink:href="#DejaVuSans-44"/>
      <use x="999.439453" xlink:href="#DejaVuSans-116"/>
      <use x="1038.648438" xlink:href="#DejaVuSans-97"/>
      <use x="1099.927734" xlink:href="#DejaVuSans-114"/>
      <use x="1139.291016" xlink:href="#DejaVuSans-103"/>
      <use x="1202.767578" xlink:href="#DejaVuSans-101"/>
      <use x="1264.291016" xlink:href="#DejaVuSans-116"/>
      <use x="1303.5" xlink:href="#DejaVuSans-32"/>
      <use x="1335.287109" xlink:href="#DejaVuSans-112"/>
      <use x="1398.763672" xlink:href="#DejaVuSans-97"/>
      <use x="1460.042969" xlink:href="#DejaVuSans-105"/>
      <use x="1487.826172" xlink:href="#DejaVuSans-114"/>
      <use x="1528.939453" xlink:href="#DejaVuSans-115"/>
     </g>
    </g>
   </g>
   <g id="line2d_29">
    <defs>
     <path d="M 0 1.5 
C 0.397805 1.5 0.77937 1.341951 1.06066 1.06066 
C 1.341951 0.77937 1.5 0.397805 1.5 0 
C 1.5 -0.397805 1.341951 -0.77937 1.06066 -1.06066 
C 0.77937 -1.341951 0.397805 -1.5 0 -1.5 
C -0.397805 -1.5 -0.77937 -1.341951 -1.06066 -1.06066 
C -1.341951 -0.77937 -1.5 -0.397805 -1.5 0 
C -1.5 0.397805 -1.341951 0.77937 -1.06066 1.06066 
C -0.77937 1.341951 -0.397805 1.5 0 1.5 
z
" id="mf3c9f16888" style="stroke:#000080;"/>
    </defs>
    <g>
     <use style="fill:#000080;stroke:#000080;" x="244.434721" xlink:href="#mf3c9f16888" y="52.283652"/>
     <use style="fill:#000080;stroke:#000080;" x="244.434721" xlink:href="#mf3c9f16888" y="52.283652"/>
    </g>
   </g>
   <g id="line2d_30">
    <path d="M 17.444571 298.944 
L 17.444571 297.935164 
L 94.294587 297.935164 
L 94.294587 296.926328 
L 101.506816 296.926328 
L 101.506816 295.917493 
L 104.23523 295.917493 
L 104.23523 295.413075 
L 106.593963 295.413075 
L 106.593963 294.908657 
L 108.671345 294.908657 
L 108.671345 293.899821 
L 110.527398 293.899821 
L 110.527398 293.395403 
L 112.204777 293.395403 
L 112.204777 292.890985 
L 113.73488 292.890985 
L 113.73488 292.386567 
L 115.141496 292.386567 
L 115.141496 291.377732 
L 116.443076 291.377732 
L 116.443076 289.864478 
L 117.654224 289.864478 
L 117.654224 288.855642 
L 118.786692 288.855642 
L 118.786692 288.351224 
L 119.850084 288.351224 
L 119.850084 286.837971 
L 120.852343 286.837971 
L 120.852343 285.324717 
L 122.699028 285.324717 
L 122.699028 283.811463 
L 123.553867 283.811463 
L 123.553867 282.802628 
L 124.368753 282.802628 
L 124.368753 282.29821 
L 125.147256 282.29821 
L 125.147256 280.280538 
L 125.892487 280.280538 
L 125.892487 279.271702 
L 127.293718 279.271702 
L 127.293718 276.245195 
L 127.954256 276.245195 
L 127.954256 275.740777 
L 128.590686 275.740777 
L 128.590686 275.236359 
L 129.204706 275.236359 
L 129.204706 274.227523 
L 129.79784 274.227523 
L 129.79784 273.218688 
L 130.371462 273.218688 
L 130.371462 272.71427 
L 131.465029 272.71427 
L 131.465029 272.209852 
L 131.987128 272.209852 
L 131.987128 271.705434 
L 132.494049 271.705434 
L 132.494049 271.201016 
L 132.986651 271.201016 
L 132.986651 270.19218 
L 133.46572 270.19218 
L 133.46572 269.183344 
L 134.828688 269.183344 
L 134.828688 268.678927 
L 135.681535 268.678927 
L 135.681535 268.174509 
L 136.494612 268.174509 
L 136.494612 267.670091 
L 136.887363 267.670091 
L 136.887363 267.165673 
L 138.375473 267.165673 
L 138.375473 266.661255 
L 138.728473 266.661255 
L 138.728473 265.652419 
L 139.074469 265.652419 
L 139.074469 265.148001 
L 140.393639 265.148001 
L 140.393639 264.643583 
L 142.20229 264.643583 
L 142.20229 264.139166 
L 142.486301 264.139166 
L 142.486301 263.634748 
L 144.099593 263.634748 
L 144.099593 263.13033 
L 151.684751 263.13033 
L 151.684751 262.625912 
L 152.496747 262.625912 
L 152.496747 261.617076 
L 153.869369 261.617076 
L 153.869369 261.112658 
L 154.972161 261.112658 
L 154.972161 260.60824 
L 156.144725 260.60824 
L 156.144725 260.103822 
L 157.904114 260.103822 
L 157.904114 259.599405 
L 158.615355 259.599405 
L 158.615355 258.590569 
L 159.872369 258.590569 
L 159.872369 258.086151 
L 160.088825 258.086151 
L 160.088825 257.581733 
L 161.622937 257.581733 
L 161.622937 257.077315 
L 161.805549 257.077315 
L 161.805549 256.068479 
L 161.995037 256.068479 
L 161.995037 255.059644 
L 162.169475 255.059644 
L 162.169475 254.555226 
L 162.470604 254.555226 
L 162.470604 253.54639 
L 162.950152 253.54639 
L 163.04945 251.528718 
L 163.914652 251.528718 
L 163.914652 251.0243 
L 164.19892 251.0243 
L 164.19892 250.015465 
L 164.333587 250.015465 
L 164.440577 247.997793 
L 165.043347 247.997793 
L 165.043347 247.493375 
L 165.208163 247.493375 
L 165.248216 245.980122 
L 165.461488 245.980122 
L 165.461488 245.475704 
L 165.608172 245.475704 
L 165.608172 244.466868 
L 165.88387 244.466868 
L 165.88387 243.458032 
L 166.016622 243.458032 
L 166.127634 241.944778 
L 166.17598 241.944778 
L 166.17598 241.440361 
L 166.364626 241.440361 
L 166.402112 239.422689 
L 166.514087 239.422689 
L 166.514087 238.918271 
L 166.719198 238.918271 
L 166.719198 237.909435 
L 167.007622 237.909435 
L 167.007622 237.405017 
L 167.187528 237.405017 
L 167.288118 236.396182 
L 167.391347 236.396182 
L 167.391347 235.387346 
L 167.525915 235.387346 
L 167.525915 234.882928 
L 167.66262 234.882928 
L 167.773105 233.874092 
L 167.82338 233.874092 
L 167.82338 232.865256 
L 168.497342 232.865256 
L 168.578658 230.343167 
L 168.888381 230.343167 
L 168.947317 227.31666 
L 169.166572 227.31666 
L 169.218785 225.803406 
L 169.363007 225.803406 
L 169.363007 225.298988 
L 169.636615 225.298988 
L 169.636615 224.290152 
L 169.816664 224.290152 
L 169.919913 221.263645 
L 169.944936 221.263645 
L 169.964373 219.750391 
L 170.261547 219.750391 
L 170.326903 218.237138 
L 170.392016 218.237138 
L 170.48115 217.228302 
L 170.695362 217.228302 
L 170.698023 215.21063 
L 170.82792 215.21063 
L 170.82792 214.201794 
L 170.96996 214.201794 
L 171.027499 212.184123 
L 171.196397 212.184123 
L 171.253194 208.653198 
L 171.338045 208.653198 
L 171.371357 207.139944 
L 171.503976 207.139944 
L 171.61036 206.131108 
L 171.673377 206.131108 
L 171.756212 205.122272 
L 171.803727 205.122272 
L 171.803727 203.609019 
L 171.957882 203.609019 
L 172.009788 201.591347 
L 172.120499 201.591347 
L 172.206123 200.078094 
L 172.254864 200.078094 
L 172.254864 199.573676 
L 172.458099 199.573676 
L 172.479734 197.556004 
L 172.6066 197.556004 
L 172.715968 195.538333 
L 173.012074 195.538333 
L 173.086481 193.520661 
L 173.291774 193.520661 
L 173.291774 193.016243 
L 173.55351 193.016243 
L 173.623398 191.502989 
L 174.052318 191.502989 
L 174.069872 188.9809 
L 174.32243 188.9809 
L 174.32243 187.972064 
L 174.447351 187.972064 
L 174.530849 186.458811 
L 175.125057 186.458811 
L 175.125057 185.449975 
L 175.454284 185.449975 
L 175.454284 184.945557 
L 175.633646 184.945557 
L 175.633646 184.441139 
L 175.971204 184.441139 
L 175.971204 183.936721 
L 177.334386 183.936721 
L 177.334386 183.432303 
L 179.607519 183.432303 
L 179.607519 182.423467 
L 180.348265 182.423467 
L 180.348265 181.91905 
L 181.092577 181.91905 
L 181.092577 181.414632 
L 210.139217 181.414632 
L 210.247822 179.901378 
L 210.412064 179.901378 
L 210.412064 179.39696 
L 210.969874 179.39696 
L 210.969874 178.892542 
L 211.264463 178.892542 
L 211.264463 177.883706 
L 211.740771 177.883706 
L 211.740771 177.379288 
L 212.224842 177.379288 
L 212.224842 176.874871 
L 213.756538 176.874871 
L 213.758115 175.866035 
L 213.971033 175.866035 
L 213.971033 174.857199 
L 214.268013 174.857199 
L 214.268013 174.352781 
L 214.51284 174.352781 
L 214.55012 172.839527 
L 215.455688 172.839527 
L 215.455688 172.33511 
L 215.905375 172.33511 
L 215.952514 170.821856 
L 216.031389 170.821856 
L 216.031389 170.317438 
L 216.2059 170.317438 
L 216.280326 168.804184 
L 216.342981 168.804184 
L 216.411022 167.290931 
L 216.549578 167.290931 
L 216.580261 166.282095 
L 216.76267 166.282095 
L 216.76267 165.777677 
L 216.9979 165.777677 
L 217.069402 164.768841 
L 217.261538 164.768841 
L 217.261538 164.264423 
L 217.564945 164.264423 
L 217.564945 163.760005 
L 217.946277 163.760005 
L 218.051023 162.246752 
L 218.483594 162.246752 
L 218.483594 161.742334 
L 218.809852 161.742334 
L 218.874982 160.22908 
L 219.195714 160.22908 
L 219.195714 159.724662 
L 219.466704 159.724662 
L 219.466704 159.220244 
L 220.21676 159.220244 
L 220.21676 158.211409 
L 220.428253 158.211409 
L 220.428253 157.706991 
L 220.819371 157.706991 
L 220.819371 157.202573 
L 221.005744 157.202573 
L 221.005744 156.698155 
L 221.160701 156.698155 
L 221.160701 156.193737 
L 221.982944 156.193737 
L 221.982944 155.184901 
L 222.192936 155.184901 
L 222.239398 153.671648 
L 222.42717 153.671648 
L 222.51001 151.149558 
L 222.57331 151.149558 
L 222.65005 149.636305 
L 222.873456 149.636305 
L 222.873456 149.131887 
L 222.992454 149.131887 
L 223.059977 147.114215 
L 223.125265 147.114215 
L 223.125265 146.609797 
L 223.24387 146.609797 
L 223.261775 145.096544 
L 223.463459 145.096544 
L 223.463459 144.592126 
L 223.729218 144.592126 
L 223.729218 144.087708 
L 224.082197 144.087708 
L 224.082197 143.58329 
L 224.266651 143.58329 
L 224.266651 143.078872 
L 224.509958 143.078872 
L 224.509958 142.574454 
L 224.726634 142.574454 
L 224.726634 141.565618 
L 224.94243 141.565618 
L 224.94243 140.556783 
L 225.098076 140.556783 
L 225.13507 139.547947 
L 225.336742 139.547947 
L 225.336742 139.043529 
L 225.849595 139.043529 
L 225.932614 137.025857 
L 225.962065 137.025857 
L 225.962065 136.521439 
L 226.283657 136.521439 
L 226.283657 135.512604 
L 226.429245 135.512604 
L 226.429245 135.008186 
L 226.795718 135.008186 
L 226.884978 133.494932 
L 226.940072 133.494932 
L 227.001002 132.486096 
L 227.15632 132.486096 
L 227.247708 131.47726 
L 227.626148 131.47726 
L 227.646274 130.468425 
L 227.747765 130.468425 
L 227.857704 129.459589 
L 227.880371 129.459589 
L 227.940006 127.441917 
L 228.012374 127.441917 
L 228.088108 125.928664 
L 228.222878 125.928664 
L 228.291246 124.41541 
L 228.362564 124.41541 
L 228.384097 122.397738 
L 228.577481 122.397738 
L 228.577481 121.893321 
L 228.69668 121.893321 
L 228.787308 120.380067 
L 228.81431 120.380067 
L 228.81431 119.875649 
L 228.985706 119.875649 
L 229.03737 117.857977 
L 229.232032 117.857977 
L 229.31485 116.344724 
L 229.390017 116.344724 
L 229.390017 115.840306 
L 229.565704 115.840306 
L 229.666329 114.327052 
L 229.72116 114.327052 
L 229.804745 113.318216 
L 229.875957 113.318216 
L 229.893469 112.309381 
L 230.053743 112.309381 
L 230.136194 110.796127 
L 230.716829 110.796127 
L 230.720832 109.282873 
L 230.877933 109.282873 
L 230.877933 108.778455 
L 231.224892 108.778455 
L 231.304058 106.760784 
L 231.399093 106.760784 
L 231.504202 105.24753 
L 231.51576 105.24753 
L 231.565407 103.734277 
L 231.743004 103.734277 
L 231.80906 102.221023 
L 231.870641 102.221023 
L 231.962487 100.203351 
L 232.008982 100.203351 
L 232.033012 99.194516 
L 232.139169 99.194516 
L 232.241796 97.681262 
L 232.539276 97.681262 
L 232.539276 97.176844 
L 232.753419 97.176844 
L 232.753419 96.168008 
L 232.895184 96.168008 
L 232.984197 94.654755 
L 233.056304 94.654755 
L 233.080199 93.141501 
L 233.168497 93.141501 
L 233.259516 92.132665 
L 233.370414 92.132665 
L 233.370414 91.123829 
L 233.491149 91.123829 
L 233.54302 89.610576 
L 233.977845 89.610576 
L 234.084913 88.097322 
L 234.364813 88.097322 
L 234.439907 87.088486 
L 234.527213 87.088486 
L 234.527213 86.584068 
L 234.643625 86.584068 
L 234.750412 85.070815 
L 234.870116 85.070815 
L 234.967654 84.061979 
L 235.016718 84.061979 
L 235.115428 82.044307 
L 235.419636 82.044307 
L 235.496874 80.531054 
L 235.629198 80.531054 
L 235.629198 80.026636 
L 235.853411 80.026636 
L 235.853411 79.522218 
L 236.266747 79.522218 
L 236.36142 78.513382 
L 236.592048 78.513382 
L 236.592048 77.504546 
L 236.857145 77.504546 
L 236.857145 77.000128 
L 237.104045 77.000128 
L 237.104045 75.991293 
L 237.453525 75.991293 
L 237.521931 74.982457 
L 237.709645 74.982457 
L 237.786259 73.469203 
L 237.977345 73.469203 
L 238.070237 71.451532 
L 238.132095 71.451532 
L 238.13705 70.442696 
L 238.527034 70.442696 
L 238.593262 68.425024 
L 238.823445 68.425024 
L 238.823445 67.920606 
L 239.02039 67.920606 
L 239.02039 66.911771 
L 239.502694 66.911771 
L 239.502694 65.902935 
L 239.658162 65.902935 
L 239.658162 64.894099 
L 239.862194 64.894099 
L 239.966455 63.380845 
L 240.071292 63.380845 
L 240.15345 62.37201 
L 240.438507 62.37201 
L 240.438507 61.867592 
L 240.750058 61.867592 
L 240.750058 60.858756 
L 241.029282 60.858756 
L 241.029282 59.84992 
L 241.391665 59.84992 
L 241.391665 59.345502 
L 241.656422 59.345502 
L 241.656422 58.841084 
L 241.831051 58.841084 
L 241.913949 57.327831 
L 242.360856 57.327831 
L 242.360856 56.318995 
L 242.569534 56.318995 
L 242.620617 54.301323 
L 243.597564 54.301323 
L 243.597564 53.796905 
L 243.897808 53.796905 
L 243.897808 52.78807 
L 244.434721 52.78807 
L 244.434721 52.283652 
L 338.688 52.283652 
L 338.688 52.283652 
" style="fill:none;stroke:#000080;stroke-linecap:square;stroke-width:1.5;"/>
   </g>
   <g id="line2d_31">
    <defs>
     <path d="M 0 6 
C 1.591219 6 3.117479 5.367802 4.242641 4.242641 
C 5.367802 3.117479 6 1.591219 6 0 
C 6 -1.591219 5.367802 -3.117479 4.242641 -4.242641 
C 3.117479 -5.367802 1.591219 -6 0 -6 
C -1.591219 -6 -3.117479 -5.367802 -4.242641 -4.242641 
C -5.367802 -3.117479 -6 -1.591219 -6 0 
C -6 1.591219 -5.367802 3.117479 -4.242641 4.242641 
C -3.117479 5.367802 -1.591219 6 0 6 
z
" id="m53750ccb4e" style="stroke:#000080;stroke-width:1.5;"/>
    </defs>
    <g>
     <use style="fill-opacity:0;stroke:#000080;stroke-width:1.5;" x="157.904114" xlink:href="#m53750ccb4e" y="259.599405"/>
     <use style="fill-opacity:0;stroke:#000080;stroke-width:1.5;" x="181.092577" xlink:href="#m53750ccb4e" y="181.414632"/>
     <use style="fill-opacity:0;stroke:#000080;stroke-width:1.5;" x="237.104045" xlink:href="#m53750ccb4e" y="77.000128"/>
     <use style="fill-opacity:0;stroke:#000080;stroke-width:1.5;" x="244.434721" xlink:href="#m53750ccb4e" y="52.283652"/>
     <use style="fill-opacity:0;stroke:#000080;stroke-width:1.5;" x="244.434721" xlink:href="#m53750ccb4e" y="52.283652"/>
     <use style="fill-opacity:0;stroke:#000080;stroke-width:1.5;" x="338.688" xlink:href="#m53750ccb4e" y="52.283652"/>
    </g>
   </g>
   <g id="line2d_32">
    <path style="fill:none;stroke:#000080;stroke-linecap:square;stroke-width:1.5;"/>
    <g/>
   </g>
   <g id="line2d_33">
    <path clip-path="url(#p3ae2b050d3)" d="M 258.377143 52.283652 
" style="fill:none;stroke:#000080;stroke-linecap:square;stroke-width:1.5;"/>
    <defs>
     <path d="M -12 12 
L 12 -12 
M -12 -12 
L 12 12 
" id="m0b8fddab06" style="stroke:#000080;"/>
    </defs>
    <g clip-path="url(#p3ae2b050d3)">
     <use style="fill:#000080;stroke:#000080;" x="258.377143" xlink:href="#m0b8fddab06" y="52.283652"/>
    </g>
   </g>
   <g id="line2d_34">
    <defs>
     <path d="M 0 1.5 
C 0.397805 1.5 0.77937 1.341951 1.06066 1.06066 
C 1.341951 0.77937 1.5 0.397805 1.5 0 
C 1.5 -0.397805 1.341951 -0.77937 1.06066 -1.06066 
C 0.77937 -1.341951 0.397805 -1.5 0 -1.5 
C -0.397805 -1.5 -0.77937 -1.341951 -1.06066 -1.06066 
C -1.341951 -0.77937 -1.5 -0.397805 -1.5 0 
C -1.5 0.397805 -1.341951 0.77937 -1.06066 1.06066 
C -0.77937 1.341951 -0.397805 1.5 0 1.5 
z
" id="m1ac0a149b5" style="stroke:#ff00ff;"/>
    </defs>
    <g>
     <use style="fill:#ff00ff;stroke:#ff00ff;" x="256.053692" xlink:href="#m1ac0a149b5" y="164.264423"/>
     <use style="fill:#ff00ff;stroke:#ff00ff;" x="256.053692" xlink:href="#m1ac0a149b5" y="164.264423"/>
    </g>
   </g>
   <g id="line2d_35">
    <path d="M 17.444571 298.944 
L 17.444571 297.935164 
L 81.775977 297.935164 
L 81.775977 297.430746 
L 94.294587 297.430746 
L 94.294587 296.926328 
L 101.506816 296.926328 
L 101.506816 296.421911 
L 106.593963 296.421911 
L 106.593963 294.908657 
L 110.527398 294.908657 
L 110.527398 293.899821 
L 112.204777 293.899821 
L 112.204777 293.395403 
L 116.443076 293.395403 
L 116.443076 292.890985 
L 118.786692 292.890985 
L 118.786692 292.386567 
L 119.850084 292.386567 
L 119.850084 291.377732 
L 120.852343 291.377732 
L 120.852343 290.873314 
L 123.553867 290.873314 
L 123.553867 290.368896 
L 125.147256 290.368896 
L 125.147256 289.864478 
L 125.892487 289.864478 
L 125.892487 289.36006 
L 127.293718 289.36006 
L 127.293718 288.855642 
L 127.954256 288.855642 
L 127.954256 287.846806 
L 131.987128 287.846806 
L 131.987128 287.342389 
L 149.88512 287.342389 
L 149.88512 286.837971 
L 150.258492 286.837971 
L 150.258492 286.333553 
L 152.624728 286.333553 
L 152.624728 285.829135 
L 155.463441 285.829135 
L 155.463441 285.324717 
L 156.941506 285.324717 
L 156.941506 284.820299 
L 159.877318 284.820299 
L 159.877318 284.315881 
L 161.990653 284.315881 
L 161.990653 283.811463 
L 163.689421 283.811463 
L 163.689421 283.307045 
L 163.887148 283.307045 
L 163.981266 282.29821 
L 164.051523 282.29821 
L 164.133133 281.289374 
L 164.421519 281.289374 
L 164.421519 280.784956 
L 167.362375 280.784956 
L 167.362375 280.280538 
L 168.470152 280.280538 
L 168.470152 279.77612 
L 172.727814 279.77612 
L 172.739653 278.262867 
L 173.321559 278.262867 
L 173.321559 277.758449 
L 175.58546 277.758449 
L 175.58546 277.254031 
L 176.78382 277.254031 
L 176.78382 276.749613 
L 177.05758 276.749613 
L 177.112926 275.740777 
L 177.266964 275.740777 
L 177.266964 275.236359 
L 177.419654 275.236359 
L 177.419654 274.731941 
L 181.130654 274.731941 
L 181.130654 274.227523 
L 183.972692 274.227523 
L 183.972692 273.723105 
L 184.621694 273.723105 
L 184.671916 272.71427 
L 185.902703 272.71427 
L 185.902703 272.209852 
L 187.130277 272.209852 
L 187.130277 271.705434 
L 189.185251 271.705434 
L 189.185251 271.201016 
L 190.126349 271.201016 
L 190.126349 270.696598 
L 192.922092 270.696598 
L 192.922092 270.19218 
L 193.141671 270.19218 
L 193.141671 269.687762 
L 193.290907 269.687762 
L 193.290907 268.174509 
L 193.470627 268.174509 
L 193.470627 267.165673 
L 193.663495 267.165673 
L 193.663495 266.661255 
L 193.853548 266.661255 
L 193.869057 264.139166 
L 194.246869 264.139166 
L 194.246869 263.634748 
L 194.423877 263.634748 
L 194.423877 263.13033 
L 194.838041 263.13033 
L 194.838041 262.121494 
L 195.657708 262.121494 
L 195.657708 261.617076 
L 196.281141 261.617076 
L 196.281141 261.112658 
L 197.78587 261.112658 
L 197.78587 260.103822 
L 198.428015 260.103822 
L 198.464871 259.094987 
L 198.54374 259.094987 
L 198.54374 258.086151 
L 198.818599 258.086151 
L 198.818599 257.581733 
L 199.674769 257.581733 
L 199.674769 257.077315 
L 200.623405 257.077315 
L 200.623405 256.572897 
L 202.125465 256.572897 
L 202.125465 255.564061 
L 203.423811 255.564061 
L 203.423811 255.059644 
L 203.559766 255.059644 
L 203.559766 254.555226 
L 203.78589 254.555226 
L 203.78589 254.050808 
L 204.168345 254.050808 
L 204.168345 253.54639 
L 204.311034 253.54639 
L 204.311034 253.041972 
L 204.441039 253.041972 
L 204.441039 252.537554 
L 204.693253 252.537554 
L 204.693253 251.528718 
L 205.822286 251.528718 
L 205.822286 250.519883 
L 206.125004 250.519883 
L 206.125004 250.015465 
L 206.979608 250.015465 
L 206.979608 249.511047 
L 207.462625 249.511047 
L 207.462625 248.502211 
L 207.575699 248.502211 
L 207.575699 247.997793 
L 207.948347 247.997793 
L 207.948347 246.988957 
L 208.125972 246.988957 
L 208.195526 244.971286 
L 208.271286 244.971286 
L 208.333809 243.458032 
L 208.471004 243.458032 
L 208.471004 242.449196 
L 209.707002 242.449196 
L 209.707002 241.944778 
L 210.353016 241.944778 
L 210.353016 241.440361 
L 211.74608 241.440361 
L 211.74608 240.935943 
L 212.139036 240.935943 
L 212.139036 240.431525 
L 212.554012 240.431525 
L 212.554012 239.927107 
L 214.223765 239.927107 
L 214.223765 239.422689 
L 216.590222 239.422689 
L 216.590222 238.413853 
L 219.790863 238.413853 
L 219.790863 237.405017 
L 221.249765 237.405017 
L 221.249765 236.9006 
L 222.861431 236.9006 
L 222.861431 235.891764 
L 225.196086 235.891764 
L 225.29192 234.882928 
L 225.512819 234.882928 
L 225.512819 233.874092 
L 225.687703 233.874092 
L 225.687703 232.865256 
L 225.964973 232.865256 
L 225.964973 232.360839 
L 227.508183 232.360839 
L 227.508183 231.856421 
L 227.67013 231.856421 
L 227.759477 229.334331 
L 228.154341 229.334331 
L 228.154341 228.829913 
L 228.449993 228.829913 
L 228.449993 227.821078 
L 228.605386 227.821078 
L 228.634975 226.812242 
L 228.744056 226.812242 
L 228.744056 225.803406 
L 229.029771 225.803406 
L 229.05462 224.79457 
L 229.153664 224.79457 
L 229.153664 223.785734 
L 229.804566 223.785734 
L 229.906592 222.776899 
L 230.179118 222.776899 
L 230.179118 222.272481 
L 230.349158 222.272481 
L 230.349158 221.263645 
L 230.650344 221.263645 
L 230.650344 220.759227 
L 230.949106 220.759227 
L 230.949106 220.254809 
L 231.800816 220.254809 
L 231.800816 219.750391 
L 231.965422 219.750391 
L 231.965422 219.245973 
L 232.244138 219.245973 
L 232.244138 218.741555 
L 232.403393 218.741555 
L 232.403393 217.73272 
L 232.931459 217.73272 
L 232.931459 216.723884 
L 233.202066 216.723884 
L 233.202066 216.219466 
L 233.442183 216.219466 
L 233.442183 215.21063 
L 233.997829 215.21063 
L 233.997829 214.706212 
L 235.788443 214.706212 
L 235.788443 214.201794 
L 235.988231 214.201794 
L 235.988231 213.192959 
L 236.758266 213.192959 
L 236.819486 210.670869 
L 237.14416 210.670869 
L 237.14416 209.662033 
L 237.306156 209.662033 
L 237.306156 209.157616 
L 237.971445 209.157616 
L 237.971445 208.653198 
L 238.171305 208.653198 
L 238.244815 207.139944 
L 238.327214 207.139944 
L 238.359174 205.122272 
L 238.820341 205.122272 
L 238.820341 204.617855 
L 238.965006 204.617855 
L 238.965006 204.113437 
L 239.48807 204.113437 
L 239.48807 203.609019 
L 239.615002 203.609019 
L 239.615002 203.104601 
L 239.919529 203.104601 
L 239.919529 202.095765 
L 240.38452 202.095765 
L 240.38452 201.591347 
L 240.720515 201.591347 
L 240.720515 201.086929 
L 240.88381 201.086929 
L 240.88381 200.582511 
L 242.158094 200.582511 
L 242.175545 199.573676 
L 242.907333 199.573676 
L 242.907333 198.56484 
L 243.535917 198.56484 
L 243.641991 196.547168 
L 244.45306 196.547168 
L 244.45306 196.04275 
L 244.567657 196.04275 
L 244.567657 195.538333 
L 245.098159 195.538333 
L 245.115739 194.025079 
L 245.752537 194.025079 
L 245.768644 192.511825 
L 246.096259 192.511825 
L 246.129238 191.502989 
L 246.396875 191.502989 
L 246.396875 190.998572 
L 246.816284 190.998572 
L 246.816284 189.989736 
L 247.097349 189.989736 
L 247.097349 188.9809 
L 247.465976 188.9809 
L 247.465976 188.476482 
L 247.719243 188.476482 
L 247.719243 187.467646 
L 247.849757 187.467646 
L 247.849757 186.963228 
L 247.989746 186.963228 
L 247.989746 186.458811 
L 248.173571 186.458811 
L 248.173571 185.954393 
L 249.287803 185.954393 
L 249.287803 185.449975 
L 249.868482 185.449975 
L 249.868482 184.441139 
L 250.736122 184.441139 
L 250.736122 183.432303 
L 250.999432 183.432303 
L 251.076123 177.379288 
L 251.214597 177.379288 
L 251.214597 176.874871 
L 251.551133 176.874871 
L 251.551133 176.370453 
L 251.785489 176.370453 
L 251.785489 175.866035 
L 252.149239 175.866035 
L 252.2545 172.839527 
L 252.564845 172.839527 
L 252.564845 171.830692 
L 252.736717 171.830692 
L 252.736717 171.326274 
L 253.341306 171.326274 
L 253.341306 170.821856 
L 253.578376 170.821856 
L 253.578376 170.317438 
L 254.280106 170.317438 
L 254.315825 168.299766 
L 254.878212 168.299766 
L 254.932287 166.282095 
L 255.9139 166.282095 
L 255.9139 165.273259 
L 256.053692 165.273259 
L 256.053692 164.264423 
L 338.688 164.264423 
L 338.688 164.264423 
" style="fill:none;stroke:#ff00ff;stroke-linecap:square;stroke-width:1.5;"/>
   </g>
   <g id="line2d_36">
    <defs>
     <path d="M -0 8.485281 
L 5.091169 0 
L 0 -8.485281 
L -5.091169 -0 
z
" id="m5195dedbe1" style="stroke:#ff00ff;stroke-linejoin:miter;stroke-width:1.5;"/>
    </defs>
    <g>
     <use style="fill-opacity:0;stroke:#ff00ff;stroke-linejoin:miter;stroke-width:1.5;" x="131.987128" xlink:href="#m5195dedbe1" y="287.342389"/>
     <use style="fill-opacity:0;stroke:#ff00ff;stroke-linejoin:miter;stroke-width:1.5;" x="200.623405" xlink:href="#m5195dedbe1" y="256.572897"/>
     <use style="fill-opacity:0;stroke:#ff00ff;stroke-linejoin:miter;stroke-width:1.5;" x="254.315825" xlink:href="#m5195dedbe1" y="169.308602"/>
     <use style="fill-opacity:0;stroke:#ff00ff;stroke-linejoin:miter;stroke-width:1.5;" x="256.053692" xlink:href="#m5195dedbe1" y="164.264423"/>
     <use style="fill-opacity:0;stroke:#ff00ff;stroke-linejoin:miter;stroke-width:1.5;" x="338.688" xlink:href="#m5195dedbe1" y="164.264423"/>
    </g>
   </g>
   <g id="line2d_37">
    <path style="fill:none;stroke:#ff00ff;stroke-linecap:square;stroke-width:1.5;"/>
    <g/>
   </g>
   <g id="line2d_38">
    <path clip-path="url(#p3ae2b050d3)" d="M 258.377125 164.264423 
" style="fill:none;stroke:#ff00ff;stroke-linecap:square;stroke-width:1.5;"/>
    <defs>
     <path d="M -12 12 
L 12 -12 
M -12 -12 
L 12 12 
" id="mbac94e023e" style="stroke:#ff00ff;"/>
    </defs>
    <g clip-path="url(#p3ae2b050d3)">
     <use style="fill:#ff00ff;stroke:#ff00ff;" x="258.377125" xlink:href="#mbac94e023e" y="164.264423"/>
    </g>
   </g>
   <g id="line2d_39">
    <defs>
     <path d="M 0 1.5 
C 0.397805 1.5 0.77937 1.341951 1.06066 1.06066 
C 1.341951 0.77937 1.5 0.397805 1.5 0 
C 1.5 -0.397805 1.341951 -0.77937 1.06066 -1.06066 
C 0.77937 -1.341951 0.397805 -1.5 0 -1.5 
C -0.397805 -1.5 -0.77937 -1.341951 -1.06066 -1.06066 
C -1.341951 -0.77937 -1.5 -0.397805 -1.5 0 
C -1.5 0.397805 -1.341951 0.77937 -1.06066 1.06066 
C -0.77937 1.341951 -0.397805 1.5 0 1.5 
z
" id="m2907c85a5f" style="stroke:#ff7500;"/>
    </defs>
    <g>
     <use style="fill:#ff7500;stroke:#ff7500;" x="257.501541" xlink:href="#m2907c85a5f" y="239.422689"/>
     <use style="fill:#ff7500;stroke:#ff7500;" x="257.501541" xlink:href="#m2907c85a5f" y="239.422689"/>
    </g>
   </g>
   <g id="line2d_40">
    <path d="M 17.444571 298.944 
L 17.444571 297.430746 
L 81.334453 297.430746 
L 81.334453 296.926328 
L 94.294587 296.926328 
L 94.294587 296.421911 
L 98.270913 296.421911 
L 98.270913 295.413075 
L 101.506816 295.413075 
L 101.506816 294.908657 
L 104.23523 294.908657 
L 104.23523 293.395403 
L 106.593963 293.395403 
L 106.593963 292.386567 
L 108.671345 292.386567 
L 108.671345 290.873314 
L 110.527398 290.873314 
L 110.527398 289.864478 
L 112.204777 289.864478 
L 112.204777 288.351224 
L 113.73488 288.351224 
L 113.73488 286.333553 
L 115.141496 286.333553 
L 115.141496 284.820299 
L 116.443076 284.820299 
L 116.443076 283.811463 
L 117.654224 283.811463 
L 117.654224 281.793792 
L 118.786692 281.793792 
L 118.786692 280.784956 
L 119.850084 280.784956 
L 119.850084 279.77612 
L 120.852343 279.77612 
L 120.852343 277.758449 
L 121.800118 277.758449 
L 121.800118 276.749613 
L 122.699028 276.749613 
L 122.699028 275.236359 
L 123.553867 275.236359 
L 123.553867 274.227523 
L 124.368753 274.227523 
L 124.368753 272.71427 
L 125.147256 272.71427 
L 125.147256 271.705434 
L 125.892487 271.705434 
L 125.892487 270.696598 
L 126.607172 270.696598 
L 126.607172 269.183344 
L 127.293718 269.183344 
L 127.293718 268.678927 
L 128.590686 268.678927 
L 128.590686 268.174509 
L 129.204706 268.174509 
L 129.204706 267.670091 
L 129.79784 267.670091 
L 129.79784 267.165673 
L 130.371462 267.165673 
L 130.371462 266.661255 
L 132.494049 266.661255 
L 132.494049 265.652419 
L 134.386096 265.652419 
L 134.386096 265.148001 
L 135.681535 265.148001 
L 135.681535 264.643583 
L 138.728473 264.643583 
L 138.728473 264.139166 
L 145.338615 264.139166 
L 145.338615 263.634748 
L 147.995947 263.634748 
L 147.995947 263.13033 
L 148.200145 263.13033 
L 148.200145 262.121494 
L 149.377533 262.121494 
L 149.377533 261.617076 
L 149.566262 261.617076 
L 149.566262 261.112658 
L 160.432539 261.112658 
L 160.432539 260.60824 
L 183.61989 260.60824 
L 183.61989 260.103822 
L 206.368613 260.103822 
L 206.368613 259.094987 
L 207.813614 259.094987 
L 207.813614 258.590569 
L 213.788724 258.590569 
L 213.788724 257.581733 
L 214.107133 257.581733 
L 214.107133 257.077315 
L 217.176014 257.077315 
L 217.176014 256.572897 
L 217.575988 256.572897 
L 217.575988 256.068479 
L 220.558382 256.068479 
L 220.558382 255.564061 
L 221.009906 255.564061 
L 221.009906 254.555226 
L 225.196086 254.555226 
L 225.196086 253.54639 
L 226.309121 253.54639 
L 226.309121 253.041972 
L 230.944567 253.041972 
L 230.944567 252.033136 
L 238.171971 252.033136 
L 238.171971 251.0243 
L 240.733183 251.0243 
L 240.733183 250.015465 
L 241.853375 250.015465 
L 241.853375 249.511047 
L 244.354276 249.511047 
L 244.354276 249.006629 
L 245.105888 249.006629 
L 245.105888 248.502211 
L 245.540223 248.502211 
L 245.540223 247.493375 
L 245.963755 247.493375 
L 245.963755 246.988957 
L 246.120788 246.988957 
L 246.120788 246.484539 
L 247.169791 246.484539 
L 247.169791 245.980122 
L 249.521849 245.980122 
L 249.521849 245.475704 
L 250.223897 245.475704 
L 250.223897 244.466868 
L 251.405435 244.466868 
L 251.405435 243.458032 
L 253.453145 243.458032 
L 253.453145 242.449196 
L 255.49041 242.449196 
L 255.572101 240.935943 
L 256.962165 240.935943 
L 256.962165 240.431525 
L 257.501541 240.431525 
L 257.501541 239.422689 
L 338.688 239.422689 
L 338.688 239.422689 
" style="fill:none;stroke:#ff7500;stroke-linecap:square;stroke-width:1.5;"/>
   </g>
   <g id="line2d_41">
    <defs>
     <path d="M 0 -6 
L -1.347084 -1.854102 
L -5.706339 -1.854102 
L -2.179628 0.708204 
L -3.526712 4.854102 
L -0 2.291796 
L 3.526712 4.854102 
L 2.179628 0.708204 
L 5.706339 -1.854102 
L 1.347084 -1.854102 
z
" id="m01982cec0f" style="stroke:#ff7500;stroke-linejoin:bevel;stroke-width:1.5;"/>
    </defs>
    <g>
     <use style="fill-opacity:0;stroke:#ff7500;stroke-linejoin:bevel;stroke-width:1.5;" x="121.800118" xlink:href="#m01982cec0f" y="276.749613"/>
     <use style="fill-opacity:0;stroke:#ff7500;stroke-linejoin:bevel;stroke-width:1.5;" x="206.368613" xlink:href="#m01982cec0f" y="259.094987"/>
     <use style="fill-opacity:0;stroke:#ff7500;stroke-linejoin:bevel;stroke-width:1.5;" x="253.453145" xlink:href="#m01982cec0f" y="242.449196"/>
     <use style="fill-opacity:0;stroke:#ff7500;stroke-linejoin:bevel;stroke-width:1.5;" x="257.501541" xlink:href="#m01982cec0f" y="239.422689"/>
     <use style="fill-opacity:0;stroke:#ff7500;stroke-linejoin:bevel;stroke-width:1.5;" x="257.501541" xlink:href="#m01982cec0f" y="239.422689"/>
     <use style="fill-opacity:0;stroke:#ff7500;stroke-linejoin:bevel;stroke-width:1.5;" x="338.688" xlink:href="#m01982cec0f" y="239.422689"/>
    </g>
   </g>
   <g id="line2d_42">
    <path style="fill:none;stroke:#ff7500;stroke-linecap:square;stroke-width:1.5;"/>
    <g/>
   </g>
   <g id="line2d_43">
    <path clip-path="url(#p3ae2b050d3)" d="M 258.377143 239.422689 
" style="fill:none;stroke:#ff7500;stroke-linecap:square;stroke-width:1.5;"/>
    <defs>
     <path d="M -12 12 
L 12 -12 
M -12 -12 
L 12 12 
" id="m43ebc4d339" style="stroke:#ff7500;"/>
    </defs>
    <g clip-path="url(#p3ae2b050d3)">
     <use style="fill:#ff7500;stroke:#ff7500;" x="258.377143" xlink:href="#m43ebc4d339" y="239.422689"/>
    </g>
   </g>
   <g id="line2d_44">
    <defs>
     <path d="M 0 1.5 
C 0.397805 1.5 0.77937 1.341951 1.06066 1.06066 
C 1.341951 0.77937 1.5 0.397805 1.5 0 
C 1.5 -0.397805 1.341951 -0.77937 1.06066 -1.06066 
C 0.77937 -1.341951 0.397805 -1.5 0 -1.5 
C -0.397805 -1.5 -0.77937 -1.341951 -1.06066 -1.06066 
C -1.341951 -0.77937 -1.5 -0.397805 -1.5 0 
C -1.5 0.397805 -1.341951 0.77937 -1.06066 1.06066 
C -0.77937 1.341951 -0.397805 1.5 0 1.5 
z
" id="mb75aabd382" style="stroke:#6495ed;"/>
    </defs>
    <g>
     <use style="fill:#6495ed;stroke:#6495ed;" x="249.288243" xlink:href="#mb75aabd382" y="245.980122"/>
     <use style="fill:#6495ed;stroke:#6495ed;" x="249.288243" xlink:href="#mb75aabd382" y="245.980122"/>
    </g>
   </g>
   <g id="line2d_45">
    <path d="M 17.444571 298.944 
L 17.444571 297.935164 
L 81.334453 297.935164 
L 81.334453 297.430746 
L 98.270913 297.430746 
L 98.270913 296.926328 
L 101.506816 296.926328 
L 101.506816 295.917493 
L 104.23523 295.917493 
L 104.23523 295.413075 
L 106.593963 295.413075 
L 106.593963 294.404239 
L 110.527398 294.404239 
L 110.527398 292.890985 
L 112.204777 292.890985 
L 112.204777 291.377732 
L 115.141496 291.377732 
L 115.141496 290.873314 
L 116.443076 290.873314 
L 116.443076 289.864478 
L 117.654224 289.864478 
L 117.654224 288.351224 
L 118.786692 288.351224 
L 118.786692 287.342389 
L 119.850084 287.342389 
L 119.850084 285.324717 
L 121.800118 285.324717 
L 121.800118 284.820299 
L 122.699028 284.820299 
L 122.699028 284.315881 
L 123.553867 284.315881 
L 123.553867 282.802628 
L 125.147256 282.802628 
L 125.147256 282.29821 
L 125.892487 282.29821 
L 125.892487 281.793792 
L 127.293718 281.793792 
L 127.293718 281.289374 
L 127.954256 281.289374 
L 127.954256 280.280538 
L 128.590686 280.280538 
L 128.590686 279.77612 
L 129.79784 279.77612 
L 129.79784 278.262867 
L 130.371462 278.262867 
L 130.371462 277.758449 
L 131.465029 277.758449 
L 131.465029 277.254031 
L 131.987128 277.254031 
L 131.987128 276.749613 
L 133.931979 276.749613 
L 133.931979 276.245195 
L 134.386096 276.245195 
L 134.386096 275.740777 
L 136.092812 275.740777 
L 136.092812 275.236359 
L 136.887363 275.236359 
L 136.887363 274.731941 
L 138.728473 274.731941 
L 138.728473 274.227523 
L 148.601505 274.227523 
L 148.601505 273.723105 
L 151.373256 273.723105 
L 151.373256 273.218688 
L 162.238764 273.218688 
L 162.238764 272.71427 
L 166.439517 272.71427 
L 166.439517 271.705434 
L 175.338435 271.705434 
L 175.338435 271.201016 
L 176.346675 271.201016 
L 176.346675 270.696598 
L 176.564717 270.696598 
L 176.564717 270.19218 
L 190.883472 270.19218 
L 190.883472 269.687762 
L 191.775146 269.687762 
L 191.775146 269.183344 
L 197.85329 269.183344 
L 197.85329 268.678927 
L 200.801411 268.678927 
L 200.801411 267.670091 
L 201.293507 267.670091 
L 201.293507 266.661255 
L 202.910726 266.661255 
L 202.910726 266.156837 
L 207.921609 266.156837 
L 207.921609 265.148001 
L 222.776622 265.148001 
L 222.776622 264.643583 
L 223.562727 264.643583 
L 223.562727 263.634748 
L 224.002509 263.634748 
L 224.002509 263.13033 
L 226.705677 263.13033 
L 226.705677 262.121494 
L 231.769889 262.121494 
L 231.769889 261.617076 
L 232.319752 261.617076 
L 232.319752 261.112658 
L 233.004157 261.112658 
L 233.094921 259.599405 
L 234.490683 259.599405 
L 234.490683 259.094987 
L 235.179453 259.094987 
L 235.179453 258.086151 
L 235.729815 258.086151 
L 235.729815 257.581733 
L 236.237661 257.581733 
L 236.261107 255.059644 
L 240.994114 255.059644 
L 240.994114 254.050808 
L 242.386745 254.050808 
L 242.386745 253.54639 
L 247.865505 253.54639 
L 247.866907 252.033136 
L 248.991049 252.033136 
L 249.036098 250.519883 
L 249.222335 250.519883 
L 249.288243 245.980122 
L 338.688 245.980122 
L 338.688 245.980122 
" style="fill:none;stroke:#6495ed;stroke-linecap:square;stroke-width:1.5;"/>
   </g>
   <g id="line2d_46">
    <defs>
     <path d="M -0 6 
L 6 -6 
L -6 -6 
z
" id="m4abce1f0c7" style="stroke:#6495ed;stroke-linejoin:miter;stroke-width:1.5;"/>
    </defs>
    <g>
     <use style="fill-opacity:0;stroke:#6495ed;stroke-linejoin:miter;stroke-width:1.5;" x="151.373256" xlink:href="#m4abce1f0c7" y="273.723105"/>
     <use style="fill-opacity:0;stroke:#6495ed;stroke-linejoin:miter;stroke-width:1.5;" x="207.921609" xlink:href="#m4abce1f0c7" y="265.148001"/>
     <use style="fill-opacity:0;stroke:#6495ed;stroke-linejoin:miter;stroke-width:1.5;" x="249.288243" xlink:href="#m4abce1f0c7" y="246.988957"/>
     <use style="fill-opacity:0;stroke:#6495ed;stroke-linejoin:miter;stroke-width:1.5;" x="249.288243" xlink:href="#m4abce1f0c7" y="245.980122"/>
     <use style="fill-opacity:0;stroke:#6495ed;stroke-linejoin:miter;stroke-width:1.5;" x="338.688" xlink:href="#m4abce1f0c7" y="245.980122"/>
    </g>
   </g>
   <g id="line2d_47">
    <path style="fill:none;stroke:#6495ed;stroke-linecap:square;stroke-width:1.5;"/>
    <g/>
   </g>
   <g id="line2d_48">
    <path clip-path="url(#p3ae2b050d3)" d="M 258.377143 245.980122 
" style="fill:none;stroke:#6495ed;stroke-linecap:square;stroke-width:1.5;"/>
    <defs>
     <path d="M -12 12 
L 12 -12 
M -12 -12 
L 12 12 
" id="m8fcff02d68" style="stroke:#6495ed;"/>
    </defs>
    <g clip-path="url(#p3ae2b050d3)">
     <use style="fill:#6495ed;stroke:#6495ed;" x="258.377143" xlink:href="#m8fcff02d68" y="245.980122"/>
    </g>
   </g>
   <g id="line2d_49">
    <path d="M 338.688 245.980122 
L 369.60768 293.092752 
" style="fill:none;stroke:#6495ed;stroke-linecap:square;stroke-width:1.5;"/>
    <g>
     <use style="fill-opacity:0;stroke:#6495ed;stroke-linejoin:miter;stroke-width:1.5;" x="338.688" xlink:href="#m4abce1f0c7" y="245.980122"/>
     <use style="fill-opacity:0;stroke:#6495ed;stroke-linejoin:miter;stroke-width:1.5;" x="369.60768" xlink:href="#m4abce1f0c7" y="293.092752"/>
    </g>
   </g>
   <g id="line2d_50">
    <path d="M 338.688 239.422689 
L 369.60768 199.472792 
" style="fill:none;stroke:#ff7500;stroke-linecap:square;stroke-width:1.5;"/>
    <g>
     <use style="fill-opacity:0;stroke:#ff7500;stroke-linejoin:bevel;stroke-width:1.5;" x="338.688" xlink:href="#m01982cec0f" y="239.422689"/>
     <use style="fill-opacity:0;stroke:#ff7500;stroke-linejoin:bevel;stroke-width:1.5;" x="369.60768" xlink:href="#m01982cec0f" y="199.472792"/>
    </g>
   </g>
   <g id="line2d_51">
    <path d="M 338.688 164.264423 
L 369.60768 105.852832 
" style="fill:none;stroke:#ff00ff;stroke-linecap:square;stroke-width:1.5;"/>
    <g>
     <use style="fill-opacity:0;stroke:#ff00ff;stroke-linejoin:miter;stroke-width:1.5;" x="338.688" xlink:href="#m5195dedbe1" y="164.264423"/>
     <use style="fill-opacity:0;stroke:#ff00ff;stroke-linejoin:miter;stroke-width:1.5;" x="369.60768" xlink:href="#m5195dedbe1" y="105.852832"/>
    </g>
   </g>
   <g id="line2d_52">
    <path d="M 338.688 52.283652 
L 369.60768 12.232871 
" style="fill:none;stroke:#000080;stroke-linecap:square;stroke-width:1.5;"/>
    <g>
     <use style="fill-opacity:0;stroke:#000080;stroke-width:1.5;" x="338.688" xlink:href="#m53750ccb4e" y="52.283652"/>
     <use style="fill-opacity:0;stroke:#000080;stroke-width:1.5;" x="369.60768" xlink:href="#m53750ccb4e" y="12.232871"/>
    </g>
   </g>
   <g id="line2d_53">
    <path d="M 338.688 298.944 
L 338.688 6.381624 
" style="fill:none;stroke:#000000;stroke-linecap:square;stroke-width:1.5;"/>
   </g>
   <g id="patch_3">
    <path d="M 57.6 298.944 
L 57.6 3.456 
" style="fill:none;stroke:#000000;stroke-linecap:square;stroke-linejoin:miter;stroke-width:0.8;"/>
   </g>
   <g id="patch_4">
    <path d="M 338.688 298.944 
L 338.688 3.456 
" style="fill:none;stroke:#000000;stroke-linecap:square;stroke-linejoin:miter;stroke-width:0.8;"/>
   </g>
   <g id="patch_5">
    <path d="M 57.6 298.944 
L 338.688 298.944 
" style="fill:none;stroke:#000000;stroke-linecap:square;stroke-linejoin:miter;stroke-width:0.8;"/>
   </g>
   <g id="patch_6">
    <path d="M 57.6 3.456 
L 338.688 3.456 
" style="fill:none;stroke:#000000;stroke-linecap:square;stroke-linejoin:miter;stroke-width:0.8;"/>
   </g>
   <g id="text_13">
    <!-- f19 -->
    <g transform="translate(375.22944 297.78369)scale(0.17 -0.17)">
     <defs>
      <path d="M 10.984375 1.515625 
L 10.984375 10.5 
Q 14.703125 8.734375 18.5 7.8125 
Q 22.3125 6.890625 25.984375 6.890625 
Q 35.75 6.890625 40.890625 13.453125 
Q 46.046875 20.015625 46.78125 33.40625 
Q 43.953125 29.203125 39.59375 26.953125 
Q 35.25 24.703125 29.984375 24.703125 
Q 19.046875 24.703125 12.671875 31.3125 
Q 6.296875 37.9375 6.296875 49.421875 
Q 6.296875 60.640625 12.9375 67.421875 
Q 19.578125 74.21875 30.609375 74.21875 
Q 43.265625 74.21875 49.921875 64.515625 
Q 56.59375 54.828125 56.59375 36.375 
Q 56.59375 19.140625 48.40625 8.859375 
Q 40.234375 -1.421875 26.421875 -1.421875 
Q 22.703125 -1.421875 18.890625 -0.6875 
Q 15.09375 0.046875 10.984375 1.515625 
z
M 30.609375 32.421875 
Q 37.25 32.421875 41.125 36.953125 
Q 45.015625 41.5 45.015625 49.421875 
Q 45.015625 57.28125 41.125 61.84375 
Q 37.25 66.40625 30.609375 66.40625 
Q 23.96875 66.40625 20.09375 61.84375 
Q 16.21875 57.28125 16.21875 49.421875 
Q 16.21875 41.5 20.09375 36.953125 
Q 23.96875 32.421875 30.609375 32.421875 
z
" id="DejaVuSans-57"/>
     </defs>
     <use xlink:href="#DejaVuSans-102"/>
     <use x="35.205078" xlink:href="#DejaVuSans-49"/>
     <use x="98.828125" xlink:href="#DejaVuSans-57"/>
    </g>
   </g>
   <g id="text_14">
    <!-- f18 -->
    <g transform="translate(375.22944 204.16373)scale(0.17 -0.17)">
     <use xlink:href="#DejaVuSans-102"/>
     <use x="35.205078" xlink:href="#DejaVuSans-49"/>
     <use x="98.828125" xlink:href="#DejaVuSans-56"/>
    </g>
   </g>
   <g id="text_15">
    <!-- f10 -->
    <g transform="translate(375.22944 110.543769)scale(0.17 -0.17)">
     <use xlink:href="#DejaVuSans-102"/>
     <use x="35.205078" xlink:href="#DejaVuSans-49"/>
     <use x="98.828125" xlink:href="#DejaVuSans-48"/>
    </g>
   </g>
   <g id="text_16">
    <!-- f9 -->
    <g transform="translate(375.22944 16.923809)scale(0.17 -0.17)">
     <use xlink:href="#DejaVuSans-102"/>
     <use x="35.205078" xlink:href="#DejaVuSans-57"/>
    </g>
   </g>
   <g id="text_17">
    <!-- bbob-biobj -->
    <g transform="translate(60.41088 14.161286)scale(0.102 -0.102)">
     <defs>
      <path d="M 48.6875 27.296875 
Q 48.6875 37.203125 44.609375 42.84375 
Q 40.53125 48.484375 33.40625 48.484375 
Q 26.265625 48.484375 22.1875 42.84375 
Q 18.109375 37.203125 18.109375 27.296875 
Q 18.109375 17.390625 22.1875 11.75 
Q 26.265625 6.109375 33.40625 6.109375 
Q 40.53125 6.109375 44.609375 11.75 
Q 48.6875 17.390625 48.6875 27.296875 
z
M 18.109375 46.390625 
Q 20.953125 51.265625 25.265625 53.625 
Q 29.59375 56 35.59375 56 
Q 45.5625 56 51.78125 48.09375 
Q 58.015625 40.1875 58.015625 27.296875 
Q 58.015625 14.40625 51.78125 6.484375 
Q 45.5625 -1.421875 35.59375 -1.421875 
Q 29.59375 -1.421875 25.265625 0.953125 
Q 20.953125 3.328125 18.109375 8.203125 
L 18.109375 0 
L 9.078125 0 
L 9.078125 75.984375 
L 18.109375 75.984375 
z
" id="DejaVuSans-98"/>
      <path d="M 9.421875 54.6875 
L 18.40625 54.6875 
L 18.40625 -0.984375 
Q 18.40625 -11.421875 14.421875 -16.109375 
Q 10.453125 -20.796875 1.609375 -20.796875 
L -1.8125 -20.796875 
L -1.8125 -13.1875 
L 0.59375 -13.1875 
Q 5.71875 -13.1875 7.5625 -10.8125 
Q 9.421875 -8.453125 9.421875 -0.984375 
z
M 9.421875 75.984375 
L 18.40625 75.984375 
L 18.40625 64.59375 
L 9.421875 64.59375 
z
" id="DejaVuSans-106"/>
     </defs>
     <use xlink:href="#DejaVuSans-98"/>
     <use x="63.476562" xlink:href="#DejaVuSans-98"/>
     <use x="126.953125" xlink:href="#DejaVuSans-111"/>
     <use x="188.134766" xlink:href="#DejaVuSans-98"/>
     <use x="251.611328" xlink:href="#DejaVuSans-45"/>
     <use x="287.695312" xlink:href="#DejaVuSans-98"/>
     <use x="351.171875" xlink:href="#DejaVuSans-105"/>
     <use x="378.955078" xlink:href="#DejaVuSans-111"/>
     <use x="440.136719" xlink:href="#DejaVuSans-98"/>
     <use x="503.613281" xlink:href="#DejaVuSans-106"/>
    </g>
    <!-- 1-separable 5-weakly-structured, 10-D -->
    <g transform="translate(60.41088 25.583055)scale(0.102 -0.102)">
     <defs>
      <path d="M 10.796875 72.90625 
L 49.515625 72.90625 
L 49.515625 64.59375 
L 19.828125 64.59375 
L 19.828125 46.734375 
Q 21.96875 47.46875 24.109375 47.828125 
Q 26.265625 48.1875 28.421875 48.1875 
Q 40.625 48.1875 47.75 41.5 
Q 54.890625 34.8125 54.890625 23.390625 
Q 54.890625 11.625 47.5625 5.09375 
Q 40.234375 -1.421875 26.90625 -1.421875 
Q 22.3125 -1.421875 17.546875 -0.640625 
Q 12.796875 0.140625 7.71875 1.703125 
L 7.71875 11.625 
Q 12.109375 9.234375 16.796875 8.0625 
Q 21.484375 6.890625 26.703125 6.890625 
Q 35.15625 6.890625 40.078125 11.328125 
Q 45.015625 15.765625 45.015625 23.390625 
Q 45.015625 31 40.078125 35.4375 
Q 35.15625 39.890625 26.703125 39.890625 
Q 22.75 39.890625 18.8125 39.015625 
Q 14.890625 38.140625 10.796875 36.28125 
z
" id="DejaVuSans-53"/>
      <path d="M 4.203125 54.6875 
L 13.1875 54.6875 
L 24.421875 12.015625 
L 35.59375 54.6875 
L 46.1875 54.6875 
L 57.421875 12.015625 
L 68.609375 54.6875 
L 77.59375 54.6875 
L 63.28125 0 
L 52.6875 0 
L 40.921875 44.828125 
L 29.109375 0 
L 18.5 0 
z
" id="DejaVuSans-119"/>
      <path d="M 9.078125 75.984375 
L 18.109375 75.984375 
L 18.109375 31.109375 
L 44.921875 54.6875 
L 56.390625 54.6875 
L 27.390625 29.109375 
L 57.625 0 
L 45.90625 0 
L 18.109375 26.703125 
L 18.109375 0 
L 9.078125 0 
z
" id="DejaVuSans-107"/>
      <path d="M 32.171875 -5.078125 
Q 28.375 -14.84375 24.75 -17.8125 
Q 21.140625 -20.796875 15.09375 -20.796875 
L 7.90625 -20.796875 
L 7.90625 -13.28125 
L 13.1875 -13.28125 
Q 16.890625 -13.28125 18.9375 -11.515625 
Q 21 -9.765625 23.484375 -3.21875 
L 25.09375 0.875 
L 2.984375 54.6875 
L 12.5 54.6875 
L 29.59375 11.921875 
L 46.6875 54.6875 
L 56.203125 54.6875 
z
" id="DejaVuSans-121"/>
      <path d="M 19.671875 64.796875 
L 19.671875 8.109375 
L 31.59375 8.109375 
Q 46.6875 8.109375 53.6875 14.9375 
Q 60.6875 21.78125 60.6875 36.53125 
Q 60.6875 51.171875 53.6875 57.984375 
Q 46.6875 64.796875 31.59375 64.796875 
z
M 9.8125 72.90625 
L 30.078125 72.90625 
Q 51.265625 72.90625 61.171875 64.09375 
Q 71.09375 55.28125 71.09375 36.53125 
Q 71.09375 17.671875 61.125 8.828125 
Q 51.171875 0 30.078125 0 
L 9.8125 0 
z
" id="DejaVuSans-68"/>
     </defs>
     <use xlink:href="#DejaVuSans-49"/>
     <use x="63.623047" xlink:href="#DejaVuSans-45"/>
     <use x="99.707031" xlink:href="#DejaVuSans-115"/>
     <use x="151.806641" xlink:href="#DejaVuSans-101"/>
     <use x="213.330078" xlink:href="#DejaVuSans-112"/>
     <use x="276.806641" xlink:href="#DejaVuSans-97"/>
     <use x="338.085938" xlink:href="#DejaVuSans-114"/>
     <use x="379.199219" xlink:href="#DejaVuSans-97"/>
     <use x="440.478516" xlink:href="#DejaVuSans-98"/>
     <use x="503.955078" xlink:href="#DejaVuSans-108"/>
     <use x="531.738281" xlink:href="#DejaVuSans-101"/>
     <use x="593.261719" xlink:href="#DejaVuSans-32"/>
     <use x="625.048828" xlink:href="#DejaVuSans-53"/>
     <use x="688.671875" xlink:href="#DejaVuSans-45"/>
     <use x="724.755859" xlink:href="#DejaVuSans-119"/>
     <use x="806.542969" xlink:href="#DejaVuSans-101"/>
     <use x="868.066406" xlink:href="#DejaVuSans-97"/>
     <use x="929.345703" xlink:href="#DejaVuSans-107"/>
     <use x="987.255859" xlink:href="#DejaVuSans-108"/>
     <use x="1015.039062" xlink:href="#DejaVuSans-121"/>
     <use x="1072.46875" xlink:href="#DejaVuSans-45"/>
     <use x="1108.552734" xlink:href="#DejaVuSans-115"/>
     <use x="1160.652344" xlink:href="#DejaVuSans-116"/>
     <use x="1199.861328" xlink:href="#DejaVuSans-114"/>
     <use x="1240.974609" xlink:href="#DejaVuSans-117"/>
     <use x="1304.353516" xlink:href="#DejaVuSans-99"/>
     <use x="1359.333984" xlink:href="#DejaVuSans-116"/>
     <use x="1398.542969" xlink:href="#DejaVuSans-117"/>
     <use x="1461.921875" xlink:href="#DejaVuSans-114"/>
     <use x="1500.785156" xlink:href="#DejaVuSans-101"/>
     <use x="1562.308594" xlink:href="#DejaVuSans-100"/>
     <use x="1625.785156" xlink:href="#DejaVuSans-44"/>
     <use x="1657.572266" xlink:href="#DejaVuSans-32"/>
     <use x="1689.359375" xlink:href="#DejaVuSans-49"/>
     <use x="1752.982422" xlink:href="#DejaVuSans-48"/>
     <use x="1816.605469" xlink:href="#DejaVuSans-45"/>
     <use x="1852.689453" xlink:href="#DejaVuSans-68"/>
    </g>
    <!-- 58 targets: 1..-1.0e-4 -->
    <g transform="translate(60.41088 37.004824)scale(0.102 -0.102)">
     <defs>
      <path d="M 11.71875 12.40625 
L 22.015625 12.40625 
L 22.015625 0 
L 11.71875 0 
z
M 11.71875 51.703125 
L 22.015625 51.703125 
L 22.015625 39.3125 
L 11.71875 39.3125 
z
" id="DejaVuSans-58"/>
     </defs>
     <use xlink:href="#DejaVuSans-53"/>
     <use x="63.623047" xlink:href="#DejaVuSans-56"/>
     <use x="127.246094" xlink:href="#DejaVuSans-32"/>
     <use x="159.033203" xlink:href="#DejaVuSans-116"/>
     <use x="198.242188" xlink:href="#DejaVuSans-97"/>
     <use x="259.521484" xlink:href="#DejaVuSans-114"/>
     <use x="298.884766" xlink:href="#DejaVuSans-103"/>
     <use x="362.361328" xlink:href="#DejaVuSans-101"/>
     <use x="423.884766" xlink:href="#DejaVuSans-116"/>
     <use x="463.09375" xlink:href="#DejaVuSans-115"/>
     <use x="515.193359" xlink:href="#DejaVuSans-58"/>
     <use x="548.884766" xlink:href="#DejaVuSans-32"/>
     <use x="580.671875" xlink:href="#DejaVuSans-49"/>
     <use x="644.294922" xlink:href="#DejaVuSans-46"/>
     <use x="676.082031" xlink:href="#DejaVuSans-46"/>
     <use x="707.869141" xlink:href="#DejaVuSans-45"/>
     <use x="743.953125" xlink:href="#DejaVuSans-49"/>
     <use x="807.576172" xlink:href="#DejaVuSans-46"/>
     <use x="839.363281" xlink:href="#DejaVuSans-48"/>
     <use x="902.986328" xlink:href="#DejaVuSans-101"/>
     <use x="964.509766" xlink:href="#DejaVuSans-45"/>
     <use x="1000.59375" xlink:href="#DejaVuSans-52"/>
    </g>
    <!-- 10 instances -->
    <g transform="translate(60.41088 48.426593)scale(0.102 -0.102)">
     <use xlink:href="#DejaVuSans-49"/>
     <use x="63.623047" xlink:href="#DejaVuSans-48"/>
     <use x="127.246094" xlink:href="#DejaVuSans-32"/>
     <use x="159.033203" xlink:href="#DejaVuSans-105"/>
     <use x="186.816406" xlink:href="#DejaVuSans-110"/>
     <use x="250.195312" xlink:href="#DejaVuSans-115"/>
     <use x="302.294922" xlink:href="#DejaVuSans-116"/>
     <use x="341.503906" xlink:href="#DejaVuSans-97"/>
     <use x="402.783203" xlink:href="#DejaVuSans-110"/>
     <use x="466.162109" xlink:href="#DejaVuSans-99"/>
     <use x="521.142578" xlink:href="#DejaVuSans-101"/>
     <use x="582.666016" xlink:href="#DejaVuSans-115"/>
    </g>
   </g>
   <g id="text_18">
    <!-- v2.4, hv-hash=ff0e71e8cd978373 -->
    <g style="fill:#808080;" transform="translate(112.648687 293.909432)scale(0.1 -0.1)">
     <defs>
      <path d="M 54.890625 33.015625 
L 54.890625 0 
L 45.90625 0 
L 45.90625 32.71875 
Q 45.90625 40.484375 42.875 44.328125 
Q 39.84375 48.1875 33.796875 48.1875 
Q 26.515625 48.1875 22.3125 43.546875 
Q 18.109375 38.921875 18.109375 30.90625 
L 18.109375 0 
L 9.078125 0 
L 9.078125 75.984375 
L 18.109375 75.984375 
L 18.109375 46.1875 
Q 21.34375 51.125 25.703125 53.5625 
Q 30.078125 56 35.796875 56 
Q 45.21875 56 50.046875 50.171875 
Q 54.890625 44.34375 54.890625 33.015625 
z
" id="DejaVuSans-104"/>
      <path d="M 10.59375 45.40625 
L 73.1875 45.40625 
L 73.1875 37.203125 
L 10.59375 37.203125 
z
M 10.59375 25.484375 
L 73.1875 25.484375 
L 73.1875 17.1875 
L 10.59375 17.1875 
z
" id="DejaVuSans-61"/>
      <path d="M 8.203125 72.90625 
L 55.078125 72.90625 
L 55.078125 68.703125 
L 28.609375 0 
L 18.3125 0 
L 43.21875 64.59375 
L 8.203125 64.59375 
z
" id="DejaVuSans-55"/>
      <path d="M 40.578125 39.3125 
Q 47.65625 37.796875 51.625 33 
Q 55.609375 28.21875 55.609375 21.1875 
Q 55.609375 10.40625 48.1875 4.484375 
Q 40.765625 -1.421875 27.09375 -1.421875 
Q 22.515625 -1.421875 17.65625 -0.515625 
Q 12.796875 0.390625 7.625 2.203125 
L 7.625 11.71875 
Q 11.71875 9.328125 16.59375 8.109375 
Q 21.484375 6.890625 26.8125 6.890625 
Q 36.078125 6.890625 40.9375 10.546875 
Q 45.796875 14.203125 45.796875 21.1875 
Q 45.796875 27.640625 41.28125 31.265625 
Q 36.765625 34.90625 28.71875 34.90625 
L 20.21875 34.90625 
L 20.21875 43.015625 
L 29.109375 43.015625 
Q 36.375 43.015625 40.234375 45.921875 
Q 44.09375 48.828125 44.09375 54.296875 
Q 44.09375 59.90625 40.109375 62.90625 
Q 36.140625 65.921875 28.71875 65.921875 
Q 24.65625 65.921875 20.015625 65.03125 
Q 15.375 64.15625 9.8125 62.3125 
L 9.8125 71.09375 
Q 15.4375 72.65625 20.34375 73.4375 
Q 25.25 74.21875 29.59375 74.21875 
Q 40.828125 74.21875 47.359375 69.109375 
Q 53.90625 64.015625 53.90625 55.328125 
Q 53.90625 49.265625 50.4375 45.09375 
Q 46.96875 40.921875 40.578125 39.3125 
z
" id="DejaVuSans-51"/>
     </defs>
     <use xlink:href="#DejaVuSans-118"/>
     <use x="59.179688" xlink:href="#DejaVuSans-50"/>
     <use x="122.802734" xlink:href="#DejaVuSans-46"/>
     <use x="154.589844" xlink:href="#DejaVuSans-52"/>
     <use x="218.212891" xlink:href="#DejaVuSans-44"/>
     <use x="250" xlink:href="#DejaVuSans-32"/>
     <use x="281.787109" xlink:href="#DejaVuSans-104"/>
     <use x="345.166016" xlink:href="#DejaVuSans-118"/>
     <use x="401.720703" xlink:href="#DejaVuSans-45"/>
     <use x="437.804688" xlink:href="#DejaVuSans-104"/>
     <use x="501.183594" xlink:href="#DejaVuSans-97"/>
     <use x="562.462891" xlink:href="#DejaVuSans-115"/>
     <use x="614.5625" xlink:href="#DejaVuSans-104"/>
     <use x="677.941406" xlink:href="#DejaVuSans-61"/>
     <use x="761.730469" xlink:href="#DejaVuSans-102"/>
     <use x="796.935547" xlink:href="#DejaVuSans-102"/>
     <use x="832.140625" xlink:href="#DejaVuSans-48"/>
     <use x="895.763672" xlink:href="#DejaVuSans-101"/>
     <use x="957.287109" xlink:href="#DejaVuSans-55"/>
     <use x="1020.910156" xlink:href="#DejaVuSans-49"/>
     <use x="1084.533203" xlink:href="#DejaVuSans-101"/>
     <use x="1146.056641" xlink:href="#DejaVuSans-56"/>
     <use x="1209.679688" xlink:href="#DejaVuSans-99"/>
     <use x="1264.660156" xlink:href="#DejaVuSans-100"/>
     <use x="1328.136719" xlink:href="#DejaVuSans-57"/>
     <use x="1391.759766" xlink:href="#DejaVuSans-55"/>
     <use x="1455.382812" xlink:href="#DejaVuSans-56"/>
     <use x="1519.005859" xlink:href="#DejaVuSans-51"/>
     <use x="1582.628906" xlink:href="#DejaVuSans-55"/>
     <use x="1646.251953" xlink:href="#DejaVuSans-51"/>
    </g>
   </g>
  </g>
 </g>
 <defs>
  <clipPath id="p3ae2b050d3">
   <rect height="295.488" width="281.088" x="57.6" y="3.456"/>
  </clipPath>
 </defs>
</svg>
