<?xml version="1.0" encoding="utf-8" standalone="no"?>
<!DOCTYPE svg PUBLIC "-//W3C//DTD SVG 1.1//EN"
  "http://www.w3.org/Graphics/SVG/1.1/DTD/svg11.dtd">
<!-- Created with matplotlib (https://matplotlib.org/) -->
<svg height="345.6pt" version="1.1" viewBox="0 0 460.8 345.6" width="460.8pt" xmlns="http://www.w3.org/2000/svg" xmlns:xlink="http://www.w3.org/1999/xlink">
 <metadata>
  <rdf:RDF xmlns:cc="http://creativecommons.org/ns#" xmlns:dc="http://purl.org/dc/elements/1.1/" xmlns:rdf="http://www.w3.org/1999/02/22-rdf-syntax-ns#">
   <cc:Work>
    <dc:type rdf:resource="http://purl.org/dc/dcmitype/StillImage"/>
    <dc:date>2021-03-30T16:55:29.217656</dc:date>
    <dc:format>image/svg+xml</dc:format>
    <dc:creator>
     <cc:Agent>
      <dc:title>Matplotlib v3.3.4, https://matplotlib.org/</dc:title>
     </cc:Agent>
    </dc:creator>
   </cc:Work>
  </rdf:RDF>
 </metadata>
 <defs>
  <style type="text/css">*{stroke-linecap:butt;stroke-linejoin:round;}</style>
 </defs>
 <g id="figure_1">
  <g id="patch_1">
   <path d="M 0 345.6 
L 460.8 345.6 
L 460.8 0 
L 0 0 
z
" style="fill:#ffffff;"/>
  </g>
  <g id="axes_1">
   <g id="patch_2">
    <path d="M 57.6 298.944 
L 338.688 298.944 
L 338.688 3.456 
L 57.6 3.456 
z
" style="fill:#ffffff;"/>
   </g>
   <g id="matplotlib.axis_1">
    <g id="xtick_1">
     <g id="line2d_1">
      <path clip-path="url(#p3ed5ff3b2e)" d="M 57.6 298.944 
L 57.6 3.456 
" style="fill:none;stroke:#b0b0b0;stroke-linecap:square;stroke-width:0.8;"/>
     </g>
     <g id="line2d_2">
      <defs>
       <path d="M 0 0 
L 0 3.5 
" id="me205f20af1" style="stroke:#000000;stroke-width:0.8;"/>
      </defs>
      <g>
       <use style="stroke:#000000;stroke-width:0.8;" x="57.6" xlink:href="#me205f20af1" y="298.944"/>
      </g>
     </g>
     <g id="text_1">
      <!-- 0 -->
      <g transform="translate(51.2375 321.140875)scale(0.2 -0.2)">
       <defs>
        <path d="M 31.78125 66.40625 
Q 24.171875 66.40625 20.328125 58.90625 
Q 16.5 51.421875 16.5 36.375 
Q 16.5 21.390625 20.328125 13.890625 
Q 24.171875 6.390625 31.78125 6.390625 
Q 39.453125 6.390625 43.28125 13.890625 
Q 47.125 21.390625 47.125 36.375 
Q 47.125 51.421875 43.28125 58.90625 
Q 39.453125 66.40625 31.78125 66.40625 
z
M 31.78125 74.21875 
Q 44.046875 74.21875 50.515625 64.515625 
Q 56.984375 54.828125 56.984375 36.375 
Q 56.984375 17.96875 50.515625 8.265625 
Q 44.046875 -1.421875 31.78125 -1.421875 
Q 19.53125 -1.421875 13.0625 8.265625 
Q 6.59375 17.96875 6.59375 36.375 
Q 6.59375 54.828125 13.0625 64.515625 
Q 19.53125 74.21875 31.78125 74.21875 
z
" id="DejaVuSans-48"/>
       </defs>
       <use xlink:href="#DejaVuSans-48"/>
      </g>
     </g>
    </g>
    <g id="xtick_2">
     <g id="line2d_3">
      <path clip-path="url(#p3ed5ff3b2e)" d="M 137.910857 298.944 
L 137.910857 3.456 
" style="fill:none;stroke:#b0b0b0;stroke-linecap:square;stroke-width:0.8;"/>
     </g>
     <g id="line2d_4">
      <g>
       <use style="stroke:#000000;stroke-width:0.8;" x="137.910857" xlink:href="#me205f20af1" y="298.944"/>
      </g>
     </g>
     <g id="text_2">
      <!-- 2 -->
      <g transform="translate(131.548357 321.140875)scale(0.2 -0.2)">
       <defs>
        <path d="M 19.1875 8.296875 
L 53.609375 8.296875 
L 53.609375 0 
L 7.328125 0 
L 7.328125 8.296875 
Q 12.9375 14.109375 22.625 23.890625 
Q 32.328125 33.6875 34.8125 36.53125 
Q 39.546875 41.84375 41.421875 45.53125 
Q 43.3125 49.21875 43.3125 52.78125 
Q 43.3125 58.59375 39.234375 62.25 
Q 35.15625 65.921875 28.609375 65.921875 
Q 23.96875 65.921875 18.8125 64.3125 
Q 13.671875 62.703125 7.8125 59.421875 
L 7.8125 69.390625 
Q 13.765625 71.78125 18.9375 73 
Q 24.125 74.21875 28.421875 74.21875 
Q 39.75 74.21875 46.484375 68.546875 
Q 53.21875 62.890625 53.21875 53.421875 
Q 53.21875 48.921875 51.53125 44.890625 
Q 49.859375 40.875 45.40625 35.40625 
Q 44.1875 33.984375 37.640625 27.21875 
Q 31.109375 20.453125 19.1875 8.296875 
z
" id="DejaVuSans-50"/>
       </defs>
       <use xlink:href="#DejaVuSans-50"/>
      </g>
     </g>
    </g>
    <g id="xtick_3">
     <g id="line2d_5">
      <path clip-path="url(#p3ed5ff3b2e)" d="M 218.221714 298.944 
L 218.221714 3.456 
" style="fill:none;stroke:#b0b0b0;stroke-linecap:square;stroke-width:0.8;"/>
     </g>
     <g id="line2d_6">
      <g>
       <use style="stroke:#000000;stroke-width:0.8;" x="218.221714" xlink:href="#me205f20af1" y="298.944"/>
      </g>
     </g>
     <g id="text_3">
      <!-- 4 -->
      <g transform="translate(211.859214 321.140875)scale(0.2 -0.2)">
       <defs>
        <path d="M 37.796875 64.3125 
L 12.890625 25.390625 
L 37.796875 25.390625 
z
M 35.203125 72.90625 
L 47.609375 72.90625 
L 47.609375 25.390625 
L 58.015625 25.390625 
L 58.015625 17.1875 
L 47.609375 17.1875 
L 47.609375 0 
L 37.796875 0 
L 37.796875 17.1875 
L 4.890625 17.1875 
L 4.890625 26.703125 
z
" id="DejaVuSans-52"/>
       </defs>
       <use xlink:href="#DejaVuSans-52"/>
      </g>
     </g>
    </g>
    <g id="xtick_4">
     <g id="line2d_7">
      <path clip-path="url(#p3ed5ff3b2e)" d="M 298.532571 298.944 
L 298.532571 3.456 
" style="fill:none;stroke:#b0b0b0;stroke-linecap:square;stroke-width:0.8;"/>
     </g>
     <g id="line2d_8">
      <g>
       <use style="stroke:#000000;stroke-width:0.8;" x="298.532571" xlink:href="#me205f20af1" y="298.944"/>
      </g>
     </g>
     <g id="text_4">
      <!-- 6 -->
      <g transform="translate(292.170071 321.140875)scale(0.2 -0.2)">
       <defs>
        <path d="M 33.015625 40.375 
Q 26.375 40.375 22.484375 35.828125 
Q 18.609375 31.296875 18.609375 23.390625 
Q 18.609375 15.53125 22.484375 10.953125 
Q 26.375 6.390625 33.015625 6.390625 
Q 39.65625 6.390625 43.53125 10.953125 
Q 47.40625 15.53125 47.40625 23.390625 
Q 47.40625 31.296875 43.53125 35.828125 
Q 39.65625 40.375 33.015625 40.375 
z
M 52.59375 71.296875 
L 52.59375 62.3125 
Q 48.875 64.0625 45.09375 64.984375 
Q 41.3125 65.921875 37.59375 65.921875 
Q 27.828125 65.921875 22.671875 59.328125 
Q 17.53125 52.734375 16.796875 39.40625 
Q 19.671875 43.65625 24.015625 45.921875 
Q 28.375 48.1875 33.59375 48.1875 
Q 44.578125 48.1875 50.953125 41.515625 
Q 57.328125 34.859375 57.328125 23.390625 
Q 57.328125 12.15625 50.6875 5.359375 
Q 44.046875 -1.421875 33.015625 -1.421875 
Q 20.359375 -1.421875 13.671875 8.265625 
Q 6.984375 17.96875 6.984375 36.375 
Q 6.984375 53.65625 15.1875 63.9375 
Q 23.390625 74.21875 37.203125 74.21875 
Q 40.921875 74.21875 44.703125 73.484375 
Q 48.484375 72.75 52.59375 71.296875 
z
" id="DejaVuSans-54"/>
       </defs>
       <use xlink:href="#DejaVuSans-54"/>
      </g>
     </g>
    </g>
    <g id="xtick_5">
     <g id="line2d_9">
      <path clip-path="url(#p3ed5ff3b2e)" d="M 97.755429 298.944 
L 97.755429 3.456 
" style="fill:none;stroke:#b0b0b0;stroke-linecap:square;stroke-width:0.8;"/>
     </g>
     <g id="line2d_10">
      <defs>
       <path d="M 0 0 
L 0 2 
" id="m06969076d1" style="stroke:#000000;stroke-width:0.6;"/>
      </defs>
      <g>
       <use style="stroke:#000000;stroke-width:0.6;" x="97.755429" xlink:href="#m06969076d1" y="298.944"/>
      </g>
     </g>
    </g>
    <g id="xtick_6">
     <g id="line2d_11">
      <path clip-path="url(#p3ed5ff3b2e)" d="M 178.066286 298.944 
L 178.066286 3.456 
" style="fill:none;stroke:#b0b0b0;stroke-linecap:square;stroke-width:0.8;"/>
     </g>
     <g id="line2d_12">
      <g>
       <use style="stroke:#000000;stroke-width:0.6;" x="178.066286" xlink:href="#m06969076d1" y="298.944"/>
      </g>
     </g>
    </g>
    <g id="xtick_7">
     <g id="line2d_13">
      <path clip-path="url(#p3ed5ff3b2e)" d="M 258.377143 298.944 
L 258.377143 3.456 
" style="fill:none;stroke:#b0b0b0;stroke-linecap:square;stroke-width:0.8;"/>
     </g>
     <g id="line2d_14">
      <g>
       <use style="stroke:#000000;stroke-width:0.6;" x="258.377143" xlink:href="#m06969076d1" y="298.944"/>
      </g>
     </g>
    </g>
    <g id="xtick_8">
     <g id="line2d_15">
      <path clip-path="url(#p3ed5ff3b2e)" d="M 338.688 298.944 
L 338.688 3.456 
" style="fill:none;stroke:#b0b0b0;stroke-linecap:square;stroke-width:0.8;"/>
     </g>
     <g id="line2d_16">
      <g>
       <use style="stroke:#000000;stroke-width:0.6;" x="338.688" xlink:href="#m06969076d1" y="298.944"/>
      </g>
     </g>
    </g>
    <g id="text_5">
     <!-- log10(# f-evals / dimension) -->
     <g transform="translate(77.764078 342.217594)scale(0.17 -0.17)">
      <defs>
       <path d="M 9.421875 75.984375 
L 18.40625 75.984375 
L 18.40625 0 
L 9.421875 0 
z
" id="DejaVuSans-108"/>
       <path d="M 30.609375 48.390625 
Q 23.390625 48.390625 19.1875 42.75 
Q 14.984375 37.109375 14.984375 27.296875 
Q 14.984375 17.484375 19.15625 11.84375 
Q 23.34375 6.203125 30.609375 6.203125 
Q 37.796875 6.203125 41.984375 11.859375 
Q 46.1875 17.53125 46.1875 27.296875 
Q 46.1875 37.015625 41.984375 42.703125 
Q 37.796875 48.390625 30.609375 48.390625 
z
M 30.609375 56 
Q 42.328125 56 49.015625 48.375 
Q 55.71875 40.765625 55.71875 27.296875 
Q 55.71875 13.875 49.015625 6.21875 
Q 42.328125 -1.421875 30.609375 -1.421875 
Q 18.84375 -1.421875 12.171875 6.21875 
Q 5.515625 13.875 5.515625 27.296875 
Q 5.515625 40.765625 12.171875 48.375 
Q 18.84375 56 30.609375 56 
z
" id="DejaVuSans-111"/>
       <path d="M 45.40625 27.984375 
Q 45.40625 37.75 41.375 43.109375 
Q 37.359375 48.484375 30.078125 48.484375 
Q 22.859375 48.484375 18.828125 43.109375 
Q 14.796875 37.75 14.796875 27.984375 
Q 14.796875 18.265625 18.828125 12.890625 
Q 22.859375 7.515625 30.078125 7.515625 
Q 37.359375 7.515625 41.375 12.890625 
Q 45.40625 18.265625 45.40625 27.984375 
z
M 54.390625 6.78125 
Q 54.390625 -7.171875 48.1875 -13.984375 
Q 42 -20.796875 29.203125 -20.796875 
Q 24.46875 -20.796875 20.265625 -20.09375 
Q 16.0625 -19.390625 12.109375 -17.921875 
L 12.109375 -9.1875 
Q 16.0625 -11.328125 19.921875 -12.34375 
Q 23.78125 -13.375 27.78125 -13.375 
Q 36.625 -13.375 41.015625 -8.765625 
Q 45.40625 -4.15625 45.40625 5.171875 
L 45.40625 9.625 
Q 42.625 4.78125 38.28125 2.390625 
Q 33.9375 0 27.875 0 
Q 17.828125 0 11.671875 7.65625 
Q 5.515625 15.328125 5.515625 27.984375 
Q 5.515625 40.671875 11.671875 48.328125 
Q 17.828125 56 27.875 56 
Q 33.9375 56 38.28125 53.609375 
Q 42.625 51.21875 45.40625 46.390625 
L 45.40625 54.6875 
L 54.390625 54.6875 
z
" id="DejaVuSans-103"/>
       <path d="M 12.40625 8.296875 
L 28.515625 8.296875 
L 28.515625 63.921875 
L 10.984375 60.40625 
L 10.984375 69.390625 
L 28.421875 72.90625 
L 38.28125 72.90625 
L 38.28125 8.296875 
L 54.390625 8.296875 
L 54.390625 0 
L 12.40625 0 
z
" id="DejaVuSans-49"/>
       <path d="M 31 75.875 
Q 24.46875 64.65625 21.28125 53.65625 
Q 18.109375 42.671875 18.109375 31.390625 
Q 18.109375 20.125 21.3125 9.0625 
Q 24.515625 -2 31 -13.1875 
L 23.1875 -13.1875 
Q 15.875 -1.703125 12.234375 9.375 
Q 8.59375 20.453125 8.59375 31.390625 
Q 8.59375 42.28125 12.203125 53.3125 
Q 15.828125 64.359375 23.1875 75.875 
z
" id="DejaVuSans-40"/>
       <path d="M 51.125 44 
L 36.921875 44 
L 32.8125 27.6875 
L 47.125 27.6875 
z
M 43.796875 71.78125 
L 38.71875 51.515625 
L 52.984375 51.515625 
L 58.109375 71.78125 
L 65.921875 71.78125 
L 60.890625 51.515625 
L 76.125 51.515625 
L 76.125 44 
L 58.984375 44 
L 54.984375 27.6875 
L 70.515625 27.6875 
L 70.515625 20.21875 
L 53.078125 20.21875 
L 48 0 
L 40.1875 0 
L 45.21875 20.21875 
L 30.90625 20.21875 
L 25.875 0 
L 18.015625 0 
L 23.09375 20.21875 
L 7.71875 20.21875 
L 7.71875 27.6875 
L 24.90625 27.6875 
L 29 44 
L 13.28125 44 
L 13.28125 51.515625 
L 30.90625 51.515625 
L 35.890625 71.78125 
z
" id="DejaVuSans-35"/>
       <path id="DejaVuSans-32"/>
       <path d="M 37.109375 75.984375 
L 37.109375 68.5 
L 28.515625 68.5 
Q 23.6875 68.5 21.796875 66.546875 
Q 19.921875 64.59375 19.921875 59.515625 
L 19.921875 54.6875 
L 34.71875 54.6875 
L 34.71875 47.703125 
L 19.921875 47.703125 
L 19.921875 0 
L 10.890625 0 
L 10.890625 47.703125 
L 2.296875 47.703125 
L 2.296875 54.6875 
L 10.890625 54.6875 
L 10.890625 58.5 
Q 10.890625 67.625 15.140625 71.796875 
Q 19.390625 75.984375 28.609375 75.984375 
z
" id="DejaVuSans-102"/>
       <path d="M 4.890625 31.390625 
L 31.203125 31.390625 
L 31.203125 23.390625 
L 4.890625 23.390625 
z
" id="DejaVuSans-45"/>
       <path d="M 56.203125 29.59375 
L 56.203125 25.203125 
L 14.890625 25.203125 
Q 15.484375 15.921875 20.484375 11.0625 
Q 25.484375 6.203125 34.421875 6.203125 
Q 39.59375 6.203125 44.453125 7.46875 
Q 49.3125 8.734375 54.109375 11.28125 
L 54.109375 2.78125 
Q 49.265625 0.734375 44.1875 -0.34375 
Q 39.109375 -1.421875 33.890625 -1.421875 
Q 20.796875 -1.421875 13.15625 6.1875 
Q 5.515625 13.8125 5.515625 26.8125 
Q 5.515625 40.234375 12.765625 48.109375 
Q 20.015625 56 32.328125 56 
Q 43.359375 56 49.78125 48.890625 
Q 56.203125 41.796875 56.203125 29.59375 
z
M 47.21875 32.234375 
Q 47.125 39.59375 43.09375 43.984375 
Q 39.0625 48.390625 32.421875 48.390625 
Q 24.90625 48.390625 20.390625 44.140625 
Q 15.875 39.890625 15.1875 32.171875 
z
" id="DejaVuSans-101"/>
       <path d="M 2.984375 54.6875 
L 12.5 54.6875 
L 29.59375 8.796875 
L 46.6875 54.6875 
L 56.203125 54.6875 
L 35.6875 0 
L 23.484375 0 
z
" id="DejaVuSans-118"/>
       <path d="M 34.28125 27.484375 
Q 23.390625 27.484375 19.1875 25 
Q 14.984375 22.515625 14.984375 16.5 
Q 14.984375 11.71875 18.140625 8.90625 
Q 21.296875 6.109375 26.703125 6.109375 
Q 34.1875 6.109375 38.703125 11.40625 
Q 43.21875 16.703125 43.21875 25.484375 
L 43.21875 27.484375 
z
M 52.203125 31.203125 
L 52.203125 0 
L 43.21875 0 
L 43.21875 8.296875 
Q 40.140625 3.328125 35.546875 0.953125 
Q 30.953125 -1.421875 24.3125 -1.421875 
Q 15.921875 -1.421875 10.953125 3.296875 
Q 6 8.015625 6 15.921875 
Q 6 25.140625 12.171875 29.828125 
Q 18.359375 34.515625 30.609375 34.515625 
L 43.21875 34.515625 
L 43.21875 35.40625 
Q 43.21875 41.609375 39.140625 45 
Q 35.0625 48.390625 27.6875 48.390625 
Q 23 48.390625 18.546875 47.265625 
Q 14.109375 46.140625 10.015625 43.890625 
L 10.015625 52.203125 
Q 14.9375 54.109375 19.578125 55.046875 
Q 24.21875 56 28.609375 56 
Q 40.484375 56 46.34375 49.84375 
Q 52.203125 43.703125 52.203125 31.203125 
z
" id="DejaVuSans-97"/>
       <path d="M 44.28125 53.078125 
L 44.28125 44.578125 
Q 40.484375 46.53125 36.375 47.5 
Q 32.28125 48.484375 27.875 48.484375 
Q 21.1875 48.484375 17.84375 46.4375 
Q 14.5 44.390625 14.5 40.28125 
Q 14.5 37.15625 16.890625 35.375 
Q 19.28125 33.59375 26.515625 31.984375 
L 29.59375 31.296875 
Q 39.15625 29.25 43.1875 25.515625 
Q 47.21875 21.78125 47.21875 15.09375 
Q 47.21875 7.46875 41.1875 3.015625 
Q 35.15625 -1.421875 24.609375 -1.421875 
Q 20.21875 -1.421875 15.453125 -0.5625 
Q 10.6875 0.296875 5.421875 2 
L 5.421875 11.28125 
Q 10.40625 8.6875 15.234375 7.390625 
Q 20.0625 6.109375 24.8125 6.109375 
Q 31.15625 6.109375 34.5625 8.28125 
Q 37.984375 10.453125 37.984375 14.40625 
Q 37.984375 18.0625 35.515625 20.015625 
Q 33.0625 21.96875 24.703125 23.78125 
L 21.578125 24.515625 
Q 13.234375 26.265625 9.515625 29.90625 
Q 5.8125 33.546875 5.8125 39.890625 
Q 5.8125 47.609375 11.28125 51.796875 
Q 16.75 56 26.8125 56 
Q 31.78125 56 36.171875 55.265625 
Q 40.578125 54.546875 44.28125 53.078125 
z
" id="DejaVuSans-115"/>
       <path d="M 25.390625 72.90625 
L 33.6875 72.90625 
L 8.296875 -9.28125 
L 0 -9.28125 
z
" id="DejaVuSans-47"/>
       <path d="M 45.40625 46.390625 
L 45.40625 75.984375 
L 54.390625 75.984375 
L 54.390625 0 
L 45.40625 0 
L 45.40625 8.203125 
Q 42.578125 3.328125 38.25 0.953125 
Q 33.9375 -1.421875 27.875 -1.421875 
Q 17.96875 -1.421875 11.734375 6.484375 
Q 5.515625 14.40625 5.515625 27.296875 
Q 5.515625 40.1875 11.734375 48.09375 
Q 17.96875 56 27.875 56 
Q 33.9375 56 38.25 53.625 
Q 42.578125 51.265625 45.40625 46.390625 
z
M 14.796875 27.296875 
Q 14.796875 17.390625 18.875 11.75 
Q 22.953125 6.109375 30.078125 6.109375 
Q 37.203125 6.109375 41.296875 11.75 
Q 45.40625 17.390625 45.40625 27.296875 
Q 45.40625 37.203125 41.296875 42.84375 
Q 37.203125 48.484375 30.078125 48.484375 
Q 22.953125 48.484375 18.875 42.84375 
Q 14.796875 37.203125 14.796875 27.296875 
z
" id="DejaVuSans-100"/>
       <path d="M 9.421875 54.6875 
L 18.40625 54.6875 
L 18.40625 0 
L 9.421875 0 
z
M 9.421875 75.984375 
L 18.40625 75.984375 
L 18.40625 64.59375 
L 9.421875 64.59375 
z
" id="DejaVuSans-105"/>
       <path d="M 52 44.1875 
Q 55.375 50.25 60.0625 53.125 
Q 64.75 56 71.09375 56 
Q 79.640625 56 84.28125 50.015625 
Q 88.921875 44.046875 88.921875 33.015625 
L 88.921875 0 
L 79.890625 0 
L 79.890625 32.71875 
Q 79.890625 40.578125 77.09375 44.375 
Q 74.3125 48.1875 68.609375 48.1875 
Q 61.625 48.1875 57.5625 43.546875 
Q 53.515625 38.921875 53.515625 30.90625 
L 53.515625 0 
L 44.484375 0 
L 44.484375 32.71875 
Q 44.484375 40.625 41.703125 44.40625 
Q 38.921875 48.1875 33.109375 48.1875 
Q 26.21875 48.1875 22.15625 43.53125 
Q 18.109375 38.875 18.109375 30.90625 
L 18.109375 0 
L 9.078125 0 
L 9.078125 54.6875 
L 18.109375 54.6875 
L 18.109375 46.1875 
Q 21.1875 51.21875 25.484375 53.609375 
Q 29.78125 56 35.6875 56 
Q 41.65625 56 45.828125 52.96875 
Q 50 49.953125 52 44.1875 
z
" id="DejaVuSans-109"/>
       <path d="M 54.890625 33.015625 
L 54.890625 0 
L 45.90625 0 
L 45.90625 32.71875 
Q 45.90625 40.484375 42.875 44.328125 
Q 39.84375 48.1875 33.796875 48.1875 
Q 26.515625 48.1875 22.3125 43.546875 
Q 18.109375 38.921875 18.109375 30.90625 
L 18.109375 0 
L 9.078125 0 
L 9.078125 54.6875 
L 18.109375 54.6875 
L 18.109375 46.1875 
Q 21.34375 51.125 25.703125 53.5625 
Q 30.078125 56 35.796875 56 
Q 45.21875 56 50.046875 50.171875 
Q 54.890625 44.34375 54.890625 33.015625 
z
" id="DejaVuSans-110"/>
       <path d="M 8.015625 75.875 
L 15.828125 75.875 
Q 23.140625 64.359375 26.78125 53.3125 
Q 30.421875 42.28125 30.421875 31.390625 
Q 30.421875 20.453125 26.78125 9.375 
Q 23.140625 -1.703125 15.828125 -13.1875 
L 8.015625 -13.1875 
Q 14.5 -2 17.703125 9.0625 
Q 20.90625 20.125 20.90625 31.390625 
Q 20.90625 42.671875 17.703125 53.65625 
Q 14.5 64.65625 8.015625 75.875 
z
" id="DejaVuSans-41"/>
      </defs>
      <use xlink:href="#DejaVuSans-108"/>
      <use x="27.783203" xlink:href="#DejaVuSans-111"/>
      <use x="88.964844" xlink:href="#DejaVuSans-103"/>
      <use x="152.441406" xlink:href="#DejaVuSans-49"/>
      <use x="216.064453" xlink:href="#DejaVuSans-48"/>
      <use x="279.6875" xlink:href="#DejaVuSans-40"/>
      <use x="318.701172" xlink:href="#DejaVuSans-35"/>
      <use x="402.490234" xlink:href="#DejaVuSans-32"/>
      <use x="434.277344" xlink:href="#DejaVuSans-102"/>
      <use x="463.982422" xlink:href="#DejaVuSans-45"/>
      <use x="500.066406" xlink:href="#DejaVuSans-101"/>
      <use x="561.589844" xlink:href="#DejaVuSans-118"/>
      <use x="620.769531" xlink:href="#DejaVuSans-97"/>
      <use x="682.048828" xlink:href="#DejaVuSans-108"/>
      <use x="709.832031" xlink:href="#DejaVuSans-115"/>
      <use x="761.931641" xlink:href="#DejaVuSans-32"/>
      <use x="793.71875" xlink:href="#DejaVuSans-47"/>
      <use x="827.410156" xlink:href="#DejaVuSans-32"/>
      <use x="859.197266" xlink:href="#DejaVuSans-100"/>
      <use x="922.673828" xlink:href="#DejaVuSans-105"/>
      <use x="950.457031" xlink:href="#DejaVuSans-109"/>
      <use x="1047.869141" xlink:href="#DejaVuSans-101"/>
      <use x="1109.392578" xlink:href="#DejaVuSans-110"/>
      <use x="1172.771484" xlink:href="#DejaVuSans-115"/>
      <use x="1224.871094" xlink:href="#DejaVuSans-105"/>
      <use x="1252.654297" xlink:href="#DejaVuSans-111"/>
      <use x="1313.835938" xlink:href="#DejaVuSans-110"/>
      <use x="1377.214844" xlink:href="#DejaVuSans-41"/>
     </g>
    </g>
   </g>
   <g id="matplotlib.axis_2">
    <g id="ytick_1">
     <g id="line2d_17">
      <path clip-path="url(#p3ed5ff3b2e)" d="M 57.6 298.944 
L 338.688 298.944 
" style="fill:none;stroke:#b0b0b0;stroke-linecap:square;stroke-width:0.8;"/>
     </g>
     <g id="line2d_18">
      <defs>
       <path d="M 0 0 
L -3.5 0 
" id="m7464303428" style="stroke:#000000;stroke-width:0.8;"/>
      </defs>
      <g>
       <use style="stroke:#000000;stroke-width:0.8;" x="57.6" xlink:href="#m7464303428" y="298.944"/>
      </g>
     </g>
     <g id="text_6">
      <!-- 0.0 -->
      <g transform="translate(25.155 305.02275)scale(0.16 -0.16)">
       <defs>
        <path d="M 10.6875 12.40625 
L 21 12.40625 
L 21 0 
L 10.6875 0 
z
" id="DejaVuSans-46"/>
       </defs>
       <use xlink:href="#DejaVuSans-48"/>
       <use x="63.623047" xlink:href="#DejaVuSans-46"/>
       <use x="95.410156" xlink:href="#DejaVuSans-48"/>
      </g>
     </g>
    </g>
    <g id="ytick_2">
     <g id="line2d_19">
      <path clip-path="url(#p3ed5ff3b2e)" d="M 57.6 240.431525 
L 338.688 240.431525 
" style="fill:none;stroke:#b0b0b0;stroke-linecap:square;stroke-width:0.8;"/>
     </g>
     <g id="line2d_20">
      <g>
       <use style="stroke:#000000;stroke-width:0.8;" x="57.6" xlink:href="#m7464303428" y="240.431525"/>
      </g>
     </g>
     <g id="text_7">
      <!-- 0.2 -->
      <g transform="translate(25.155 246.510275)scale(0.16 -0.16)">
       <use xlink:href="#DejaVuSans-48"/>
       <use x="63.623047" xlink:href="#DejaVuSans-46"/>
       <use x="95.410156" xlink:href="#DejaVuSans-50"/>
      </g>
     </g>
    </g>
    <g id="ytick_3">
     <g id="line2d_21">
      <path clip-path="url(#p3ed5ff3b2e)" d="M 57.6 181.91905 
L 338.688 181.91905 
" style="fill:none;stroke:#b0b0b0;stroke-linecap:square;stroke-width:0.8;"/>
     </g>
     <g id="line2d_22">
      <g>
       <use style="stroke:#000000;stroke-width:0.8;" x="57.6" xlink:href="#m7464303428" y="181.91905"/>
      </g>
     </g>
     <g id="text_8">
      <!-- 0.4 -->
      <g transform="translate(25.155 187.9978)scale(0.16 -0.16)">
       <use xlink:href="#DejaVuSans-48"/>
       <use x="63.623047" xlink:href="#DejaVuSans-46"/>
       <use x="95.410156" xlink:href="#DejaVuSans-52"/>
      </g>
     </g>
    </g>
    <g id="ytick_4">
     <g id="line2d_23">
      <path clip-path="url(#p3ed5ff3b2e)" d="M 57.6 123.406574 
L 338.688 123.406574 
" style="fill:none;stroke:#b0b0b0;stroke-linecap:square;stroke-width:0.8;"/>
     </g>
     <g id="line2d_24">
      <g>
       <use style="stroke:#000000;stroke-width:0.8;" x="57.6" xlink:href="#m7464303428" y="123.406574"/>
      </g>
     </g>
     <g id="text_9">
      <!-- 0.6 -->
      <g transform="translate(25.155 129.485324)scale(0.16 -0.16)">
       <use xlink:href="#DejaVuSans-48"/>
       <use x="63.623047" xlink:href="#DejaVuSans-46"/>
       <use x="95.410156" xlink:href="#DejaVuSans-54"/>
      </g>
     </g>
    </g>
    <g id="ytick_5">
     <g id="line2d_25">
      <path clip-path="url(#p3ed5ff3b2e)" d="M 57.6 64.894099 
L 338.688 64.894099 
" style="fill:none;stroke:#b0b0b0;stroke-linecap:square;stroke-width:0.8;"/>
     </g>
     <g id="line2d_26">
      <g>
       <use style="stroke:#000000;stroke-width:0.8;" x="57.6" xlink:href="#m7464303428" y="64.894099"/>
      </g>
     </g>
     <g id="text_10">
      <!-- 0.8 -->
      <g transform="translate(25.155 70.972849)scale(0.16 -0.16)">
       <defs>
        <path d="M 31.78125 34.625 
Q 24.75 34.625 20.71875 30.859375 
Q 16.703125 27.09375 16.703125 20.515625 
Q 16.703125 13.921875 20.71875 10.15625 
Q 24.75 6.390625 31.78125 6.390625 
Q 38.8125 6.390625 42.859375 10.171875 
Q 46.921875 13.96875 46.921875 20.515625 
Q 46.921875 27.09375 42.890625 30.859375 
Q 38.875 34.625 31.78125 34.625 
z
M 21.921875 38.8125 
Q 15.578125 40.375 12.03125 44.71875 
Q 8.5 49.078125 8.5 55.328125 
Q 8.5 64.0625 14.71875 69.140625 
Q 20.953125 74.21875 31.78125 74.21875 
Q 42.671875 74.21875 48.875 69.140625 
Q 55.078125 64.0625 55.078125 55.328125 
Q 55.078125 49.078125 51.53125 44.71875 
Q 48 40.375 41.703125 38.8125 
Q 48.828125 37.15625 52.796875 32.3125 
Q 56.78125 27.484375 56.78125 20.515625 
Q 56.78125 9.90625 50.3125 4.234375 
Q 43.84375 -1.421875 31.78125 -1.421875 
Q 19.734375 -1.421875 13.25 4.234375 
Q 6.78125 9.90625 6.78125 20.515625 
Q 6.78125 27.484375 10.78125 32.3125 
Q 14.796875 37.15625 21.921875 38.8125 
z
M 18.3125 54.390625 
Q 18.3125 48.734375 21.84375 45.5625 
Q 25.390625 42.390625 31.78125 42.390625 
Q 38.140625 42.390625 41.71875 45.5625 
Q 45.3125 48.734375 45.3125 54.390625 
Q 45.3125 60.0625 41.71875 63.234375 
Q 38.140625 66.40625 31.78125 66.40625 
Q 25.390625 66.40625 21.84375 63.234375 
Q 18.3125 60.0625 18.3125 54.390625 
z
" id="DejaVuSans-56"/>
       </defs>
       <use xlink:href="#DejaVuSans-48"/>
       <use x="63.623047" xlink:href="#DejaVuSans-46"/>
       <use x="95.410156" xlink:href="#DejaVuSans-56"/>
      </g>
     </g>
    </g>
    <g id="ytick_6">
     <g id="line2d_27">
      <path clip-path="url(#p3ed5ff3b2e)" d="M 57.6 6.381624 
L 338.688 6.381624 
" style="fill:none;stroke:#b0b0b0;stroke-linecap:square;stroke-width:0.8;"/>
     </g>
     <g id="line2d_28">
      <g>
       <use style="stroke:#000000;stroke-width:0.8;" x="57.6" xlink:href="#m7464303428" y="6.381624"/>
      </g>
     </g>
     <g id="text_11">
      <!-- 1.0 -->
      <g transform="translate(25.155 12.460374)scale(0.16 -0.16)">
       <use xlink:href="#DejaVuSans-49"/>
       <use x="63.623047" xlink:href="#DejaVuSans-46"/>
       <use x="95.410156" xlink:href="#DejaVuSans-48"/>
      </g>
     </g>
    </g>
    <g id="text_12">
     <!-- Fraction of function,target pairs -->
     <g transform="translate(17.619531 285.585)rotate(-90)scale(0.17 -0.17)">
      <defs>
       <path d="M 9.8125 72.90625 
L 51.703125 72.90625 
L 51.703125 64.59375 
L 19.671875 64.59375 
L 19.671875 43.109375 
L 48.578125 43.109375 
L 48.578125 34.8125 
L 19.671875 34.8125 
L 19.671875 0 
L 9.8125 0 
z
" id="DejaVuSans-70"/>
       <path d="M 41.109375 46.296875 
Q 39.59375 47.171875 37.8125 47.578125 
Q 36.03125 48 33.890625 48 
Q 26.265625 48 22.1875 43.046875 
Q 18.109375 38.09375 18.109375 28.8125 
L 18.109375 0 
L 9.078125 0 
L 9.078125 54.6875 
L 18.109375 54.6875 
L 18.109375 46.1875 
Q 20.953125 51.171875 25.484375 53.578125 
Q 30.03125 56 36.53125 56 
Q 37.453125 56 38.578125 55.875 
Q 39.703125 55.765625 41.0625 55.515625 
z
" id="DejaVuSans-114"/>
       <path d="M 48.78125 52.59375 
L 48.78125 44.1875 
Q 44.96875 46.296875 41.140625 47.34375 
Q 37.3125 48.390625 33.40625 48.390625 
Q 24.65625 48.390625 19.8125 42.84375 
Q 14.984375 37.3125 14.984375 27.296875 
Q 14.984375 17.28125 19.8125 11.734375 
Q 24.65625 6.203125 33.40625 6.203125 
Q 37.3125 6.203125 41.140625 7.25 
Q 44.96875 8.296875 48.78125 10.40625 
L 48.78125 2.09375 
Q 45.015625 0.34375 40.984375 -0.53125 
Q 36.96875 -1.421875 32.421875 -1.421875 
Q 20.0625 -1.421875 12.78125 6.34375 
Q 5.515625 14.109375 5.515625 27.296875 
Q 5.515625 40.671875 12.859375 48.328125 
Q 20.21875 56 33.015625 56 
Q 37.15625 56 41.109375 55.140625 
Q 45.0625 54.296875 48.78125 52.59375 
z
" id="DejaVuSans-99"/>
       <path d="M 18.3125 70.21875 
L 18.3125 54.6875 
L 36.8125 54.6875 
L 36.8125 47.703125 
L 18.3125 47.703125 
L 18.3125 18.015625 
Q 18.3125 11.328125 20.140625 9.421875 
Q 21.96875 7.515625 27.59375 7.515625 
L 36.8125 7.515625 
L 36.8125 0 
L 27.59375 0 
Q 17.1875 0 13.234375 3.875 
Q 9.28125 7.765625 9.28125 18.015625 
L 9.28125 47.703125 
L 2.6875 47.703125 
L 2.6875 54.6875 
L 9.28125 54.6875 
L 9.28125 70.21875 
z
" id="DejaVuSans-116"/>
       <path d="M 8.5 21.578125 
L 8.5 54.6875 
L 17.484375 54.6875 
L 17.484375 21.921875 
Q 17.484375 14.15625 20.5 10.265625 
Q 23.53125 6.390625 29.59375 6.390625 
Q 36.859375 6.390625 41.078125 11.03125 
Q 45.3125 15.671875 45.3125 23.6875 
L 45.3125 54.6875 
L 54.296875 54.6875 
L 54.296875 0 
L 45.3125 0 
L 45.3125 8.40625 
Q 42.046875 3.421875 37.71875 1 
Q 33.40625 -1.421875 27.6875 -1.421875 
Q 18.265625 -1.421875 13.375 4.4375 
Q 8.5 10.296875 8.5 21.578125 
z
M 31.109375 56 
z
" id="DejaVuSans-117"/>
       <path d="M 11.71875 12.40625 
L 22.015625 12.40625 
L 22.015625 4 
L 14.015625 -11.625 
L 7.71875 -11.625 
L 11.71875 4 
z
" id="DejaVuSans-44"/>
       <path d="M 18.109375 8.203125 
L 18.109375 -20.796875 
L 9.078125 -20.796875 
L 9.078125 54.6875 
L 18.109375 54.6875 
L 18.109375 46.390625 
Q 20.953125 51.265625 25.265625 53.625 
Q 29.59375 56 35.59375 56 
Q 45.5625 56 51.78125 48.09375 
Q 58.015625 40.1875 58.015625 27.296875 
Q 58.015625 14.40625 51.78125 6.484375 
Q 45.5625 -1.421875 35.59375 -1.421875 
Q 29.59375 -1.421875 25.265625 0.953125 
Q 20.953125 3.328125 18.109375 8.203125 
z
M 48.6875 27.296875 
Q 48.6875 37.203125 44.609375 42.84375 
Q 40.53125 48.484375 33.40625 48.484375 
Q 26.265625 48.484375 22.1875 42.84375 
Q 18.109375 37.203125 18.109375 27.296875 
Q 18.109375 17.390625 22.1875 11.75 
Q 26.265625 6.109375 33.40625 6.109375 
Q 40.53125 6.109375 44.609375 11.75 
Q 48.6875 17.390625 48.6875 27.296875 
z
" id="DejaVuSans-112"/>
      </defs>
      <use xlink:href="#DejaVuSans-70"/>
      <use x="50.269531" xlink:href="#DejaVuSans-114"/>
      <use x="91.382812" xlink:href="#DejaVuSans-97"/>
      <use x="152.662109" xlink:href="#DejaVuSans-99"/>
      <use x="207.642578" xlink:href="#DejaVuSans-116"/>
      <use x="246.851562" xlink:href="#DejaVuSans-105"/>
      <use x="274.634766" xlink:href="#DejaVuSans-111"/>
      <use x="335.816406" xlink:href="#DejaVuSans-110"/>
      <use x="399.195312" xlink:href="#DejaVuSans-32"/>
      <use x="430.982422" xlink:href="#DejaVuSans-111"/>
      <use x="492.164062" xlink:href="#DejaVuSans-102"/>
      <use x="527.369141" xlink:href="#DejaVuSans-32"/>
      <use x="559.15625" xlink:href="#DejaVuSans-102"/>
      <use x="594.361328" xlink:href="#DejaVuSans-117"/>
      <use x="657.740234" xlink:href="#DejaVuSans-110"/>
      <use x="721.119141" xlink:href="#DejaVuSans-99"/>
      <use x="776.099609" xlink:href="#DejaVuSans-116"/>
      <use x="815.308594" xlink:href="#DejaVuSans-105"/>
      <use x="843.091797" xlink:href="#DejaVuSans-111"/>
      <use x="904.273438" xlink:href="#DejaVuSans-110"/>
      <use x="967.652344" xlink:href="#DejaVuSans-44"/>
      <use x="999.439453" xlink:href="#DejaVuSans-116"/>
      <use x="1038.648438" xlink:href="#DejaVuSans-97"/>
      <use x="1099.927734" xlink:href="#DejaVuSans-114"/>
      <use x="1139.291016" xlink:href="#DejaVuSans-103"/>
      <use x="1202.767578" xlink:href="#DejaVuSans-101"/>
      <use x="1264.291016" xlink:href="#DejaVuSans-116"/>
      <use x="1303.5" xlink:href="#DejaVuSans-32"/>
      <use x="1335.287109" xlink:href="#DejaVuSans-112"/>
      <use x="1398.763672" xlink:href="#DejaVuSans-97"/>
      <use x="1460.042969" xlink:href="#DejaVuSans-105"/>
      <use x="1487.826172" xlink:href="#DejaVuSans-114"/>
      <use x="1528.939453" xlink:href="#DejaVuSans-115"/>
     </g>
    </g>
   </g>
   <g id="line2d_29">
    <defs>
     <path d="M 0 1.5 
C 0.397805 1.5 0.77937 1.341951 1.06066 1.06066 
C 1.341951 0.77937 1.5 0.397805 1.5 0 
C 1.5 -0.397805 1.341951 -0.77937 1.06066 -1.06066 
C 0.77937 -1.341951 0.397805 -1.5 0 -1.5 
C -0.397805 -1.5 -0.77937 -1.341951 -1.06066 -1.06066 
C -1.341951 -0.77937 -1.5 -0.397805 -1.5 0 
C -1.5 0.397805 -1.341951 0.77937 -1.06066 1.06066 
C -0.77937 1.341951 -0.397805 1.5 0 1.5 
z
" id="mfb491c78a6" style="stroke:#000080;"/>
    </defs>
    <g>
     <use style="fill:#000080;stroke:#000080;" x="258.185376" xlink:href="#mfb491c78a6" y="132.990514"/>
     <use style="fill:#000080;stroke:#000080;" x="258.185376" xlink:href="#mfb491c78a6" y="132.990514"/>
    </g>
   </g>
   <g id="line2d_30">
    <path d="M 17.444571 298.944 
L 17.444571 298.439582 
L 98.270913 298.439582 
L 98.270913 297.935164 
L 106.593963 297.935164 
L 106.593963 297.430746 
L 108.671345 297.430746 
L 108.671345 295.917493 
L 113.73488 295.917493 
L 113.73488 293.899821 
L 115.141496 293.899821 
L 115.141496 293.395403 
L 117.654224 293.395403 
L 117.654224 291.377732 
L 118.786692 291.377732 
L 118.786692 290.368896 
L 119.850084 290.368896 
L 119.850084 289.864478 
L 120.852343 289.864478 
L 120.852343 288.855642 
L 121.800118 288.855642 
L 121.800118 287.846806 
L 122.699028 287.846806 
L 122.699028 286.837971 
L 123.553867 286.837971 
L 123.553867 285.829135 
L 124.368753 285.829135 
L 124.368753 283.811463 
L 125.147256 283.811463 
L 125.147256 282.802628 
L 125.892487 282.802628 
L 125.892487 281.289374 
L 126.607172 281.289374 
L 126.607172 280.784956 
L 127.293718 280.784956 
L 127.293718 278.767284 
L 127.954256 278.767284 
L 127.954256 277.254031 
L 128.590686 277.254031 
L 128.590686 275.740777 
L 129.204706 275.740777 
L 129.204706 275.236359 
L 129.79784 275.236359 
L 129.79784 273.218688 
L 130.371462 273.218688 
L 130.371462 270.19218 
L 130.926816 270.19218 
L 130.926816 269.687762 
L 131.465029 269.687762 
L 131.465029 268.174509 
L 131.987128 268.174509 
L 131.987128 266.661255 
L 132.494049 266.661255 
L 132.494049 265.652419 
L 132.986651 265.652419 
L 132.986651 263.634748 
L 133.46572 263.634748 
L 133.46572 262.625912 
L 133.931979 262.625912 
L 133.931979 261.617076 
L 134.386096 261.617076 
L 134.386096 259.599405 
L 134.828688 259.599405 
L 134.828688 256.068479 
L 135.260324 256.068479 
L 135.260324 254.555226 
L 135.681535 254.555226 
L 135.681535 251.528718 
L 136.092812 251.528718 
L 136.092812 250.519883 
L 136.494612 250.519883 
L 136.494612 247.493375 
L 136.887363 247.493375 
L 136.887363 244.466868 
L 137.271464 244.466868 
L 137.271464 242.953614 
L 137.647286 242.953614 
L 137.647286 240.431525 
L 138.01518 240.431525 
L 138.01518 239.422689 
L 138.375473 239.422689 
L 138.375473 236.396182 
L 138.728473 236.396182 
L 138.728473 235.387346 
L 139.074469 235.387346 
L 139.074469 233.874092 
L 139.413734 233.874092 
L 139.413734 231.352003 
L 139.746525 231.352003 
L 139.746525 230.847585 
L 140.073083 230.847585 
L 140.073083 228.829913 
L 140.393639 228.829913 
L 140.393639 225.298988 
L 141.017599 225.298988 
L 141.017599 224.290152 
L 141.321401 224.290152 
L 141.321401 219.750391 
L 141.620002 219.750391 
L 141.620002 218.741555 
L 142.20229 218.741555 
L 142.20229 217.228302 
L 142.765762 217.228302 
L 142.765762 216.219466 
L 143.040814 216.219466 
L 143.040814 215.715048 
L 143.311596 215.715048 
L 143.311596 214.706212 
L 143.578237 214.706212 
L 143.578237 213.697377 
L 143.840863 213.697377 
L 143.840863 212.688541 
L 144.099593 212.688541 
L 144.099593 212.184123 
L 144.605813 212.184123 
L 144.605813 211.679705 
L 144.853518 211.679705 
L 144.853518 210.670869 
L 145.097753 210.670869 
L 145.097753 209.662033 
L 145.338615 209.662033 
L 145.338615 206.635526 
L 145.576196 206.635526 
L 145.576196 204.617855 
L 146.041862 204.617855 
L 146.041862 203.609019 
L 146.270114 203.609019 
L 146.270114 203.104601 
L 146.495417 203.104601 
L 146.495417 202.600183 
L 147.154371 202.600183 
L 147.154371 201.591347 
L 147.580235 201.591347 
L 147.580235 200.078094 
L 147.995947 200.078094 
L 147.995947 199.069258 
L 148.993835 199.069258 
L 148.993835 198.060422 
L 149.18674 198.060422 
L 149.18674 197.556004 
L 149.377533 197.556004 
L 149.377533 197.051586 
L 149.937701 197.051586 
L 149.937701 196.04275 
L 150.301393 196.04275 
L 150.301393 195.538333 
L 150.480434 195.538333 
L 150.480434 194.025079 
L 150.833094 194.025079 
L 150.833094 193.520661 
L 151.178764 193.520661 
L 151.178764 192.007407 
L 151.349063 192.007407 
L 151.349063 189.989736 
L 152.0141 189.989736 
L 152.0141 189.485318 
L 152.337344 189.485318 
L 152.337344 187.972064 
L 152.811246 187.972064 
L 152.811246 187.467646 
L 153.722083 187.467646 
L 153.722083 186.458811 
L 154.303908 186.458811 
L 154.303908 185.954393 
L 155.141793 185.954393 
L 155.141793 185.449975 
L 157.197287 185.449975 
L 157.197287 184.945557 
L 158.705563 184.945557 
L 158.705563 183.936721 
L 159.360003 183.936721 
L 159.360003 183.432303 
L 161.663187 183.432303 
L 161.663187 182.927885 
L 162.754039 182.927885 
L 162.754039 182.423467 
L 183.346337 182.423467 
L 183.346337 181.91905 
L 185.446137 181.91905 
L 185.446137 181.414632 
L 186.994935 181.414632 
L 186.994935 180.910214 
L 188.517228 180.910214 
L 188.517228 180.405796 
L 189.244145 180.405796 
L 189.244145 179.901378 
L 191.896294 179.901378 
L 191.896294 179.39696 
L 205.659976 179.39696 
L 205.659976 178.388124 
L 210.282499 178.388124 
L 210.282499 177.883706 
L 232.181984 177.883706 
L 232.181984 176.874871 
L 235.84224 176.874871 
L 235.84224 176.370453 
L 236.573305 176.370453 
L 236.652641 174.857199 
L 236.722082 174.857199 
L 236.825728 172.33511 
L 236.929179 172.33511 
L 236.929179 170.821856 
L 237.055607 170.821856 
L 237.117211 168.804184 
L 237.208329 168.804184 
L 237.208329 168.299766 
L 238.668636 168.299766 
L 238.668636 167.290931 
L 239.110271 167.290931 
L 239.110271 166.786513 
L 242.44454 166.786513 
L 242.44454 166.282095 
L 243.049069 166.282095 
L 243.049069 165.777677 
L 243.899648 165.777677 
L 243.899648 165.273259 
L 244.628492 165.273259 
L 244.719825 163.760005 
L 244.800278 163.760005 
L 244.858188 161.237916 
L 244.927827 161.237916 
L 244.927827 159.220244 
L 245.051866 159.220244 
L 245.051866 158.211409 
L 245.590976 158.211409 
L 245.590976 157.706991 
L 246.199426 157.706991 
L 246.199426 156.698155 
L 247.879934 156.698155 
L 247.879934 155.689319 
L 248.550067 155.689319 
L 248.550067 154.680483 
L 249.455743 154.680483 
L 249.455743 154.176066 
L 249.569509 154.176066 
L 249.569509 153.671648 
L 249.956434 153.671648 
L 249.956434 152.662812 
L 250.272122 152.662812 
L 250.272122 151.653976 
L 250.396885 151.653976 
L 250.486415 149.636305 
L 250.560122 149.636305 
L 250.560122 148.627469 
L 250.690629 148.627469 
L 250.74982 147.114215 
L 250.845646 147.114215 
L 250.845646 146.609797 
L 251.057612 146.609797 
L 251.121179 144.592126 
L 251.27846 144.592126 
L 251.27846 144.087708 
L 252.184371 144.087708 
L 252.184371 143.58329 
L 252.736259 143.58329 
L 252.736259 142.574454 
L 253.521265 142.574454 
L 253.542332 141.565618 
L 253.76989 141.565618 
L 253.782287 140.556783 
L 254.248071 140.556783 
L 254.260442 139.043529 
L 254.512907 139.043529 
L 254.512907 138.539111 
L 254.732285 138.539111 
L 254.732285 138.034693 
L 255.66244 138.034693 
L 255.66244 137.530275 
L 256.543393 137.530275 
L 256.546473 135.512604 
L 257.384099 135.512604 
L 257.384099 134.503768 
L 257.7897 134.503768 
L 257.7897 133.99935 
L 258.079386 133.99935 
L 258.185376 132.990514 
L 338.688 132.990514 
L 338.688 132.990514 
" style="fill:none;stroke:#000080;stroke-linecap:square;stroke-width:1.5;"/>
   </g>
   <g id="line2d_31">
    <defs>
     <path d="M 0 6 
C 1.591219 6 3.117479 5.367802 4.242641 4.242641 
C 5.367802 3.117479 6 1.591219 6 0 
C 6 -1.591219 5.367802 -3.117479 4.242641 -4.242641 
C 3.117479 -5.367802 1.591219 -6 0 -6 
C -1.591219 -6 -3.117479 -5.367802 -4.242641 -4.242641 
C -5.367802 -3.117479 -6 -1.591219 -6 0 
C -6 1.591219 -5.367802 3.117479 -4.242641 4.242641 
C -3.117479 5.367802 -1.591219 6 0 6 
z
" id="ma9ac2b1413" style="stroke:#000080;stroke-width:1.5;"/>
    </defs>
    <g>
     <use style="fill-opacity:0;stroke:#000080;stroke-width:1.5;" x="108.671345" xlink:href="#ma9ac2b1413" y="295.917493"/>
     <use style="fill-opacity:0;stroke:#000080;stroke-width:1.5;" x="139.074469" xlink:href="#ma9ac2b1413" y="233.874092"/>
     <use style="fill-opacity:0;stroke:#000080;stroke-width:1.5;" x="205.659976" xlink:href="#ma9ac2b1413" y="179.39696"/>
     <use style="fill-opacity:0;stroke:#000080;stroke-width:1.5;" x="258.185376" xlink:href="#ma9ac2b1413" y="133.494932"/>
     <use style="fill-opacity:0;stroke:#000080;stroke-width:1.5;" x="258.185376" xlink:href="#ma9ac2b1413" y="132.990514"/>
     <use style="fill-opacity:0;stroke:#000080;stroke-width:1.5;" x="338.688" xlink:href="#ma9ac2b1413" y="132.990514"/>
    </g>
   </g>
   <g id="line2d_32">
    <path style="fill:none;stroke:#000080;stroke-linecap:square;stroke-width:1.5;"/>
    <g/>
   </g>
   <g id="line2d_33">
    <path clip-path="url(#p3ed5ff3b2e)" d="M 258.377143 132.990514 
" style="fill:none;stroke:#000080;stroke-linecap:square;stroke-width:1.5;"/>
    <defs>
     <path d="M -12 12 
L 12 -12 
M -12 -12 
L 12 12 
" id="m97a5e4840b" style="stroke:#000080;"/>
    </defs>
    <g clip-path="url(#p3ed5ff3b2e)">
     <use style="fill:#000080;stroke:#000080;" x="258.377143" xlink:href="#m97a5e4840b" y="132.990514"/>
    </g>
   </g>
   <g id="line2d_34">
    <defs>
     <path d="M 0 1.5 
C 0.397805 1.5 0.77937 1.341951 1.06066 1.06066 
C 1.341951 0.77937 1.5 0.397805 1.5 0 
C 1.5 -0.397805 1.341951 -0.77937 1.06066 -1.06066 
C 0.77937 -1.341951 0.397805 -1.5 0 -1.5 
C -0.397805 -1.5 -0.77937 -1.341951 -1.06066 -1.06066 
C -1.341951 -0.77937 -1.5 -0.397805 -1.5 0 
C -1.5 0.397805 -1.341951 0.77937 -1.06066 1.06066 
C -0.77937 1.341951 -0.397805 1.5 0 1.5 
z
" id="made40859c3" style="stroke:#ff00ff;"/>
    </defs>
    <g>
     <use style="fill:#ff00ff;stroke:#ff00ff;" x="258.344099" xlink:href="#made40859c3" y="126.937499"/>
     <use style="fill:#ff00ff;stroke:#ff00ff;" x="258.344099" xlink:href="#made40859c3" y="126.937499"/>
    </g>
   </g>
   <g id="line2d_35">
    <path d="M 17.444571 298.944 
L 17.444571 298.439582 
L 89.135256 298.439582 
L 89.135256 297.935164 
L 101.506816 297.935164 
L 101.506816 296.926328 
L 108.671345 296.926328 
L 108.671345 295.413075 
L 112.204777 295.413075 
L 112.204777 293.899821 
L 113.73488 293.899821 
L 113.73488 293.395403 
L 115.141496 293.395403 
L 115.141496 291.88215 
L 116.443076 291.88215 
L 116.443076 290.368896 
L 118.786692 290.368896 
L 118.786692 288.855642 
L 119.850084 288.855642 
L 119.850084 286.837971 
L 120.852343 286.837971 
L 120.852343 285.829135 
L 121.800118 285.829135 
L 121.800118 283.811463 
L 122.699028 283.811463 
L 122.699028 282.802628 
L 123.553867 282.802628 
L 123.553867 280.784956 
L 124.368753 280.784956 
L 124.368753 278.767284 
L 125.147256 278.767284 
L 125.147256 276.749613 
L 125.892487 276.749613 
L 125.892487 275.236359 
L 126.607172 275.236359 
L 126.607172 272.209852 
L 127.293718 272.209852 
L 127.293718 271.705434 
L 128.590686 271.705434 
L 128.590686 270.19218 
L 129.204706 270.19218 
L 129.204706 268.174509 
L 129.79784 268.174509 
L 129.79784 266.156837 
L 130.926816 266.156837 
L 130.926816 265.652419 
L 131.465029 265.652419 
L 131.465029 264.139166 
L 131.987128 264.139166 
L 131.987128 262.121494 
L 133.46572 262.121494 
L 133.46572 260.103822 
L 135.260324 260.103822 
L 135.260324 259.599405 
L 136.092812 259.599405 
L 136.092812 258.590569 
L 136.494612 258.590569 
L 136.494612 258.086151 
L 136.887363 258.086151 
L 136.887363 257.581733 
L 138.728473 257.581733 
L 138.728473 256.572897 
L 139.074469 256.572897 
L 139.074469 255.564061 
L 139.413734 255.564061 
L 139.413734 255.059644 
L 141.321401 255.059644 
L 141.321401 253.54639 
L 142.486301 253.54639 
L 142.486301 253.041972 
L 145.338615 253.041972 
L 145.338615 252.033136 
L 154.486875 252.033136 
L 154.486875 251.0243 
L 158.540715 251.0243 
L 158.540715 250.519883 
L 160.292966 250.519883 
L 160.292966 249.511047 
L 161.210663 249.511047 
L 161.210663 249.006629 
L 162.204154 249.006629 
L 162.204154 248.502211 
L 163.270826 248.502211 
L 163.270826 247.997793 
L 163.521581 247.997793 
L 163.521581 247.493375 
L 165.113126 247.493375 
L 165.113126 246.484539 
L 165.425523 246.484539 
L 165.425523 245.475704 
L 166.279131 245.475704 
L 166.279131 244.466868 
L 166.931835 244.466868 
L 166.931835 243.96245 
L 167.122322 243.96245 
L 167.122322 242.953614 
L 167.842196 242.953614 
L 167.842196 242.449196 
L 168.041647 242.449196 
L 168.041647 241.944778 
L 168.382251 241.944778 
L 168.382251 240.935943 
L 169.108373 240.935943 
L 169.108373 240.431525 
L 170.775018 240.431525 
L 170.775018 239.422689 
L 171.105655 239.422689 
L 171.105655 238.918271 
L 171.286669 238.918271 
L 171.286669 237.909435 
L 171.69852 237.909435 
L 171.69852 236.396182 
L 172.824653 236.396182 
L 172.824653 235.387346 
L 173.007413 235.387346 
L 173.007413 234.882928 
L 173.469727 234.882928 
L 173.469727 234.37851 
L 174.133355 234.37851 
L 174.133355 233.874092 
L 174.417279 233.874092 
L 174.417279 233.369674 
L 175.508892 233.369674 
L 175.508892 232.360839 
L 176.131719 232.360839 
L 176.131719 231.856421 
L 176.325491 231.856421 
L 176.325491 230.847585 
L 176.746239 230.847585 
L 176.746239 229.838749 
L 177.146049 229.838749 
L 177.146049 229.334331 
L 177.954316 229.334331 
L 177.954316 227.821078 
L 178.170609 227.821078 
L 178.170609 227.31666 
L 178.367119 227.31666 
L 178.367119 226.307824 
L 179.049518 226.307824 
L 179.049518 225.298988 
L 179.545147 225.298988 
L 179.545147 223.281316 
L 180.273132 223.281316 
L 180.273132 221.263645 
L 181.679299 221.263645 
L 181.72319 218.741555 
L 182.363171 218.741555 
L 182.363171 218.237138 
L 185.377469 218.237138 
L 185.377469 217.73272 
L 187.882293 217.73272 
L 187.882293 216.723884 
L 190.063353 216.723884 
L 190.063353 215.715048 
L 190.956075 215.715048 
L 190.956075 215.21063 
L 191.534325 215.21063 
L 191.534325 214.201794 
L 192.718542 214.201794 
L 192.718542 213.192959 
L 199.254525 213.192959 
L 199.254525 212.688541 
L 201.008531 212.688541 
L 201.008531 211.679705 
L 201.86412 211.679705 
L 201.86412 210.670869 
L 209.553159 210.670869 
L 209.553159 210.166451 
L 224.05738 210.166451 
L 224.127127 208.653198 
L 224.328073 208.653198 
L 224.328073 207.644362 
L 235.955964 207.644362 
L 235.955964 207.139944 
L 244.778421 207.139944 
L 244.778421 206.635526 
L 245.537164 206.635526 
L 245.537164 206.131108 
L 245.656417 206.131108 
L 245.715631 202.600183 
L 245.801565 202.600183 
L 245.801565 202.095765 
L 245.987121 202.095765 
L 245.987121 201.591347 
L 246.371101 201.591347 
L 246.371101 201.086929 
L 247.168995 201.086929 
L 247.168995 200.582511 
L 247.713522 200.582511 
L 247.797374 196.04275 
L 247.834027 196.04275 
L 247.834027 195.033915 
L 248.424986 195.033915 
L 248.424986 194.529497 
L 248.607663 194.529497 
L 248.717037 186.963228 
L 248.734083 186.963228 
L 248.76525 185.954393 
L 249.060602 185.954393 
L 249.060602 185.449975 
L 249.332562 185.449975 
L 249.436826 176.370453 
L 249.452311 176.370453 
L 249.501408 174.857199 
L 249.581931 174.857199 
L 249.678403 172.839527 
L 249.720997 172.839527 
L 249.817417 168.804184 
L 249.834019 168.804184 
L 249.891334 166.786513 
L 250.942071 166.786513 
L 250.942071 166.282095 
L 251.691428 166.282095 
L 251.691428 165.273259 
L 251.916949 165.273259 
L 251.916949 164.768841 
L 252.226879 164.768841 
L 252.333647 161.237916 
L 252.342326 161.237916 
L 252.402049 154.176066 
L 252.45721 154.176066 
L 252.45721 153.16723 
L 252.60311 153.16723 
L 252.60311 152.662812 
L 252.825775 152.662812 
L 252.912687 149.636305 
L 253.04175 149.636305 
L 253.108002 148.123051 
L 253.38701 148.123051 
L 253.38701 147.114215 
L 253.546796 147.114215 
L 253.606277 146.105379 
L 253.892334 146.105379 
L 253.892334 145.600961 
L 254.61722 145.600961 
L 254.61722 145.096544 
L 255.006708 145.096544 
L 255.105803 143.078872 
L 255.176367 143.078872 
L 255.254512 141.565618 
L 255.387853 141.565618 
L 255.387853 141.0612 
L 255.520059 141.0612 
L 255.520059 140.556783 
L 255.651637 140.556783 
L 255.651637 140.052365 
L 255.923458 140.052365 
L 255.923458 139.043529 
L 256.110584 139.043529 
L 256.162737 137.530275 
L 256.240833 137.530275 
L 256.240833 136.521439 
L 256.363795 136.521439 
L 256.363795 136.017022 
L 256.536107 136.017022 
L 256.536107 135.512604 
L 256.943885 135.512604 
L 256.943885 135.008186 
L 257.246037 135.008186 
L 257.266364 132.990514 
L 257.589593 132.990514 
L 257.589593 132.486096 
L 257.774759 132.486096 
L 257.831135 130.468425 
L 257.908571 130.468425 
L 257.979582 129.459589 
L 258.023487 129.459589 
L 258.054426 128.450753 
L 258.19063 128.450753 
L 258.19063 127.441917 
L 258.344099 127.441917 
L 258.344099 126.937499 
L 338.688 126.937499 
L 338.688 126.937499 
" style="fill:none;stroke:#ff00ff;stroke-linecap:square;stroke-width:1.5;"/>
   </g>
   <g id="line2d_36">
    <defs>
     <path d="M -0 8.485281 
L 5.091169 0 
L 0 -8.485281 
L -5.091169 -0 
z
" id="mbf7427f2fd" style="stroke:#ff00ff;stroke-linejoin:miter;stroke-width:1.5;"/>
    </defs>
    <g>
     <use style="fill-opacity:0;stroke:#ff00ff;stroke-linejoin:miter;stroke-width:1.5;" x="113.73488" xlink:href="#mbf7427f2fd" y="293.395403"/>
     <use style="fill-opacity:0;stroke:#ff00ff;stroke-linejoin:miter;stroke-width:1.5;" x="173.469727" xlink:href="#mbf7427f2fd" y="234.882928"/>
     <use style="fill-opacity:0;stroke:#ff00ff;stroke-linejoin:miter;stroke-width:1.5;" x="249.891334" xlink:href="#mbf7427f2fd" y="167.290931"/>
     <use style="fill-opacity:0;stroke:#ff00ff;stroke-linejoin:miter;stroke-width:1.5;" x="258.344099" xlink:href="#mbf7427f2fd" y="127.441917"/>
     <use style="fill-opacity:0;stroke:#ff00ff;stroke-linejoin:miter;stroke-width:1.5;" x="258.344099" xlink:href="#mbf7427f2fd" y="126.937499"/>
     <use style="fill-opacity:0;stroke:#ff00ff;stroke-linejoin:miter;stroke-width:1.5;" x="338.688" xlink:href="#mbf7427f2fd" y="126.937499"/>
    </g>
   </g>
   <g id="line2d_37">
    <path style="fill:none;stroke:#ff00ff;stroke-linecap:square;stroke-width:1.5;"/>
    <g/>
   </g>
   <g id="line2d_38">
    <path clip-path="url(#p3ed5ff3b2e)" d="M 258.377143 126.937499 
" style="fill:none;stroke:#ff00ff;stroke-linecap:square;stroke-width:1.5;"/>
    <defs>
     <path d="M -12 12 
L 12 -12 
M -12 -12 
L 12 12 
" id="md31b905522" style="stroke:#ff00ff;"/>
    </defs>
    <g clip-path="url(#p3ed5ff3b2e)">
     <use style="fill:#ff00ff;stroke:#ff00ff;" x="258.377143" xlink:href="#md31b905522" y="126.937499"/>
    </g>
   </g>
   <g id="line2d_39">
    <defs>
     <path d="M 0 1.5 
C 0.397805 1.5 0.77937 1.341951 1.06066 1.06066 
C 1.341951 0.77937 1.5 0.397805 1.5 0 
C 1.5 -0.397805 1.341951 -0.77937 1.06066 -1.06066 
C 0.77937 -1.341951 0.397805 -1.5 0 -1.5 
C -0.397805 -1.5 -0.77937 -1.341951 -1.06066 -1.06066 
C -1.341951 -0.77937 -1.5 -0.397805 -1.5 0 
C -1.5 0.397805 -1.341951 0.77937 -1.06066 1.06066 
C -0.77937 1.341951 -0.397805 1.5 0 1.5 
z
" id="m6b0e98c5c4" style="stroke:#ff7500;"/>
    </defs>
    <g>
     <use style="fill:#ff7500;stroke:#ff7500;" x="257.197758" xlink:href="#m6b0e98c5c4" y="125.928664"/>
     <use style="fill:#ff7500;stroke:#ff7500;" x="257.197758" xlink:href="#m6b0e98c5c4" y="125.928664"/>
    </g>
   </g>
   <g id="line2d_40">
    <path d="M 17.444571 298.944 
L 17.444571 298.439582 
L 81.334453 298.439582 
L 81.334453 297.935164 
L 98.270913 297.935164 
L 98.270913 296.926328 
L 104.23523 296.926328 
L 104.23523 295.917493 
L 106.593963 295.917493 
L 106.593963 294.908657 
L 110.527398 294.908657 
L 110.527398 293.395403 
L 113.73488 293.395403 
L 113.73488 292.386567 
L 115.141496 292.386567 
L 115.141496 289.864478 
L 116.443076 289.864478 
L 116.443076 289.36006 
L 117.654224 289.36006 
L 117.654224 286.333553 
L 118.786692 286.333553 
L 118.786692 284.315881 
L 119.850084 284.315881 
L 119.850084 281.793792 
L 120.852343 281.793792 
L 120.852343 279.271702 
L 121.800118 279.271702 
L 121.800118 277.758449 
L 122.699028 277.758449 
L 122.699028 274.731941 
L 123.553867 274.731941 
L 123.553867 272.71427 
L 124.368753 272.71427 
L 124.368753 270.19218 
L 125.147256 270.19218 
L 125.147256 268.678927 
L 125.892487 268.678927 
L 125.892487 264.643583 
L 126.607172 264.643583 
L 126.607172 264.139166 
L 127.293718 264.139166 
L 127.293718 260.60824 
L 127.954256 260.60824 
L 127.954256 256.572897 
L 128.590686 256.572897 
L 128.590686 254.555226 
L 129.204706 254.555226 
L 129.204706 253.041972 
L 129.79784 253.041972 
L 129.79784 252.033136 
L 130.371462 252.033136 
L 130.371462 251.528718 
L 130.926816 251.528718 
L 130.926816 250.015465 
L 131.465029 250.015465 
L 131.465029 248.502211 
L 131.987128 248.502211 
L 131.987128 247.997793 
L 132.494049 247.997793 
L 132.494049 246.988957 
L 132.986651 246.988957 
L 132.986651 246.484539 
L 133.46572 246.484539 
L 133.46572 244.971286 
L 134.386096 244.971286 
L 134.386096 243.96245 
L 134.828688 243.96245 
L 134.828688 242.953614 
L 135.681535 242.953614 
L 135.681535 242.449196 
L 136.494612 242.449196 
L 136.494612 241.944778 
L 139.074469 241.944778 
L 139.074469 241.440361 
L 139.413734 241.440361 
L 139.413734 240.935943 
L 154.371897 240.935943 
L 154.371897 239.927107 
L 162.19549 239.927107 
L 162.19549 238.918271 
L 162.479132 238.918271 
L 162.479132 238.413853 
L 164.398623 238.413853 
L 164.398623 237.909435 
L 164.884386 237.909435 
L 164.884386 236.9006 
L 167.545055 236.9006 
L 167.545055 236.396182 
L 168.802567 236.396182 
L 168.802567 235.387346 
L 171.05359 235.387346 
L 171.056197 233.369674 
L 172.460504 233.369674 
L 172.460504 232.865256 
L 179.956806 232.865256 
L 179.956806 231.856421 
L 183.603394 231.856421 
L 183.603394 230.847585 
L 187.833553 230.847585 
L 187.833553 229.838749 
L 207.868643 229.838749 
L 207.868643 228.829913 
L 208.542845 228.829913 
L 208.542845 227.31666 
L 210.056134 227.31666 
L 210.056134 226.307824 
L 211.147381 226.307824 
L 211.147381 224.79457 
L 211.83107 224.79457 
L 211.83107 224.290152 
L 212.136317 224.290152 
L 212.136317 223.281316 
L 212.274701 223.281316 
L 212.274701 222.776899 
L 212.6104 222.776899 
L 212.6104 221.263645 
L 212.80562 221.263645 
L 212.80562 220.759227 
L 213.023602 220.759227 
L 213.023602 220.254809 
L 213.234019 220.254809 
L 213.234019 219.245973 
L 213.485913 219.245973 
L 213.485913 218.237138 
L 214.294682 218.237138 
L 214.294682 217.73272 
L 214.814596 217.73272 
L 214.814596 216.723884 
L 215.07345 216.723884 
L 215.07345 215.21063 
L 215.404932 215.21063 
L 215.404932 214.706212 
L 217.255087 214.706212 
L 217.255087 213.697377 
L 217.438999 213.697377 
L 217.459051 212.184123 
L 217.629473 212.184123 
L 217.629473 211.679705 
L 217.803427 211.679705 
L 217.803427 210.670869 
L 218.391096 210.670869 
L 218.391096 209.662033 
L 218.732288 209.662033 
L 218.732288 209.157616 
L 218.902677 209.157616 
L 218.902677 208.653198 
L 223.273135 208.653198 
L 223.273135 207.644362 
L 223.44925 207.644362 
L 223.529701 205.62669 
L 223.695996 205.62669 
L 223.695996 205.122272 
L 223.944073 205.122272 
L 223.944073 203.609019 
L 224.223316 203.609019 
L 224.223316 203.104601 
L 224.728916 203.104601 
L 224.728916 202.600183 
L 224.94919 202.600183 
L 224.94919 202.095765 
L 225.129438 202.095765 
L 225.129438 201.591347 
L 225.312371 201.591347 
L 225.312371 200.582511 
L 225.50053 200.582511 
L 225.50053 199.573676 
L 225.639332 199.573676 
L 225.639332 199.069258 
L 225.825367 199.069258 
L 225.914673 197.556004 
L 226.004417 197.556004 
L 226.023493 196.04275 
L 226.124877 196.04275 
L 226.232617 192.511825 
L 226.27278 192.511825 
L 226.297711 190.998572 
L 226.398719 190.998572 
L 226.499253 189.485318 
L 226.568009 189.485318 
L 226.568009 188.9809 
L 226.718645 188.9809 
L 226.718645 188.476482 
L 226.988242 188.476482 
L 226.991829 187.467646 
L 227.123902 187.467646 
L 227.193371 185.954393 
L 227.316376 185.954393 
L 227.352365 184.441139 
L 227.515758 184.441139 
L 227.58807 183.432303 
L 227.760486 183.432303 
L 227.760486 182.423467 
L 227.874657 182.423467 
L 227.874657 181.91905 
L 228.390815 181.91905 
L 228.390815 180.910214 
L 228.594037 180.910214 
L 228.594037 180.405796 
L 228.846202 180.405796 
L 228.846202 179.901378 
L 229.040653 179.901378 
L 229.040653 179.39696 
L 230.248908 179.39696 
L 230.248908 178.892542 
L 230.374196 178.892542 
L 230.397983 177.379288 
L 230.965742 177.379288 
L 230.965742 176.370453 
L 231.081497 176.370453 
L 231.137051 174.857199 
L 231.265056 174.857199 
L 231.371712 172.33511 
L 231.42136 172.33511 
L 231.491495 171.326274 
L 231.561268 171.326274 
L 231.62575 169.81302 
L 231.725727 169.81302 
L 231.733926 167.795349 
L 231.871597 167.795349 
L 231.965977 165.777677 
L 232.103488 165.777677 
L 232.103488 165.273259 
L 232.597648 165.273259 
L 232.597648 164.264423 
L 232.826182 164.264423 
L 232.826182 163.760005 
L 232.983898 163.760005 
L 233.083992 162.246752 
L 233.437519 162.246752 
L 233.437519 161.237916 
L 233.639821 161.237916 
L 233.639821 160.22908 
L 233.962011 160.22908 
L 233.962011 159.220244 
L 235.505032 159.220244 
L 235.532069 157.706991 
L 235.647506 157.706991 
L 235.647506 156.698155 
L 235.81727 156.698155 
L 235.81727 156.193737 
L 235.956595 156.193737 
L 235.956595 155.689319 
L 236.127826 155.689319 
L 236.23226 153.671648 
L 236.518544 153.671648 
L 236.518544 153.16723 
L 236.874269 153.16723 
L 236.960053 151.653976 
L 237.092584 151.653976 
L 237.172421 149.636305 
L 237.274719 149.636305 
L 237.365428 147.114215 
L 237.435454 147.114215 
L 237.54308 145.096544 
L 238.106854 145.096544 
L 238.106854 144.592126 
L 240.631442 144.592126 
L 240.631442 144.087708 
L 240.881861 144.087708 
L 240.881861 142.574454 
L 241.072142 142.574454 
L 241.072142 142.070036 
L 241.685331 142.070036 
L 241.685331 141.565618 
L 241.839291 141.565618 
L 241.839291 141.0612 
L 242.330552 141.0612 
L 242.330552 140.556783 
L 242.701267 140.556783 
L 242.701267 139.547947 
L 243.081002 139.547947 
L 243.081002 139.043529 
L 243.772102 139.043529 
L 243.772102 138.539111 
L 245.293859 138.539111 
L 245.293859 138.034693 
L 246.258399 138.034693 
L 246.258399 137.025857 
L 246.882181 137.025857 
L 246.978601 134.503768 
L 248.958547 134.503768 
L 248.958547 133.494932 
L 250.328681 133.494932 
L 250.387788 132.486096 
L 252.008297 132.486096 
L 252.008297 131.981678 
L 252.842814 131.981678 
L 252.842814 131.47726 
L 253.522393 131.47726 
L 253.522393 130.972843 
L 254.087632 130.972843 
L 254.109007 128.955171 
L 254.865313 128.955171 
L 254.865313 128.450753 
L 255.69487 128.450753 
L 255.69487 127.946335 
L 255.974972 127.946335 
L 255.974972 126.937499 
L 256.406745 126.937499 
L 256.406745 126.433082 
L 257.197758 126.433082 
L 257.197758 125.928664 
L 338.688 125.928664 
L 338.688 125.928664 
" style="fill:none;stroke:#ff7500;stroke-linecap:square;stroke-width:1.5;"/>
   </g>
   <g id="line2d_41">
    <defs>
     <path d="M 0 -6 
L -1.347084 -1.854102 
L -5.706339 -1.854102 
L -2.179628 0.708204 
L -3.526712 4.854102 
L -0 2.291796 
L 3.526712 4.854102 
L 2.179628 0.708204 
L 5.706339 -1.854102 
L 1.347084 -1.854102 
z
" id="mb6108d5381" style="stroke:#ff7500;stroke-linejoin:bevel;stroke-width:1.5;"/>
    </defs>
    <g>
     <use style="fill-opacity:0;stroke:#ff7500;stroke-linejoin:bevel;stroke-width:1.5;" x="106.593963" xlink:href="#mb6108d5381" y="295.917493"/>
     <use style="fill-opacity:0;stroke:#ff7500;stroke-linejoin:bevel;stroke-width:1.5;" x="172.460504" xlink:href="#mb6108d5381" y="232.865256"/>
     <use style="fill-opacity:0;stroke:#ff7500;stroke-linejoin:bevel;stroke-width:1.5;" x="231.965977" xlink:href="#mb6108d5381" y="166.282095"/>
     <use style="fill-opacity:0;stroke:#ff7500;stroke-linejoin:bevel;stroke-width:1.5;" x="257.197758" xlink:href="#mb6108d5381" y="126.433082"/>
     <use style="fill-opacity:0;stroke:#ff7500;stroke-linejoin:bevel;stroke-width:1.5;" x="257.197758" xlink:href="#mb6108d5381" y="125.928664"/>
     <use style="fill-opacity:0;stroke:#ff7500;stroke-linejoin:bevel;stroke-width:1.5;" x="338.688" xlink:href="#mb6108d5381" y="125.928664"/>
    </g>
   </g>
   <g id="line2d_42">
    <path style="fill:none;stroke:#ff7500;stroke-linecap:square;stroke-width:1.5;"/>
    <g/>
   </g>
   <g id="line2d_43">
    <path clip-path="url(#p3ed5ff3b2e)" d="M 258.377143 125.928664 
" style="fill:none;stroke:#ff7500;stroke-linecap:square;stroke-width:1.5;"/>
    <defs>
     <path d="M -12 12 
L 12 -12 
M -12 -12 
L 12 12 
" id="m93b53d7319" style="stroke:#ff7500;"/>
    </defs>
    <g clip-path="url(#p3ed5ff3b2e)">
     <use style="fill:#ff7500;stroke:#ff7500;" x="258.377143" xlink:href="#m93b53d7319" y="125.928664"/>
    </g>
   </g>
   <g id="line2d_44">
    <path d="M 338.688 132.990514 
L 369.60768 293.092752 
" style="fill:none;stroke:#000080;stroke-linecap:square;stroke-width:1.5;"/>
    <g>
     <use style="fill-opacity:0;stroke:#000080;stroke-width:1.5;" x="338.688" xlink:href="#ma9ac2b1413" y="132.990514"/>
     <use style="fill-opacity:0;stroke:#000080;stroke-width:1.5;" x="369.60768" xlink:href="#ma9ac2b1413" y="293.092752"/>
    </g>
   </g>
   <g id="line2d_45">
    <path d="M 338.688 126.937499 
L 369.60768 152.662812 
" style="fill:none;stroke:#ff00ff;stroke-linecap:square;stroke-width:1.5;"/>
    <g>
     <use style="fill-opacity:0;stroke:#ff00ff;stroke-linejoin:miter;stroke-width:1.5;" x="338.688" xlink:href="#mbf7427f2fd" y="126.937499"/>
     <use style="fill-opacity:0;stroke:#ff00ff;stroke-linejoin:miter;stroke-width:1.5;" x="369.60768" xlink:href="#mbf7427f2fd" y="152.662812"/>
    </g>
   </g>
   <g id="line2d_46">
    <path d="M 338.688 125.928664 
L 369.60768 12.232871 
" style="fill:none;stroke:#ff7500;stroke-linecap:square;stroke-width:1.5;"/>
    <g>
     <use style="fill-opacity:0;stroke:#ff7500;stroke-linejoin:bevel;stroke-width:1.5;" x="338.688" xlink:href="#mb6108d5381" y="125.928664"/>
     <use style="fill-opacity:0;stroke:#ff7500;stroke-linejoin:bevel;stroke-width:1.5;" x="369.60768" xlink:href="#mb6108d5381" y="12.232871"/>
    </g>
   </g>
   <g id="line2d_47">
    <path d="M 338.688 298.944 
L 338.688 6.381624 
" style="fill:none;stroke:#000000;stroke-linecap:square;stroke-width:1.5;"/>
   </g>
   <g id="patch_3">
    <path d="M 57.6 298.944 
L 57.6 3.456 
" style="fill:none;stroke:#000000;stroke-linecap:square;stroke-linejoin:miter;stroke-width:0.8;"/>
   </g>
   <g id="patch_4">
    <path d="M 338.688 298.944 
L 338.688 3.456 
" style="fill:none;stroke:#000000;stroke-linecap:square;stroke-linejoin:miter;stroke-width:0.8;"/>
   </g>
   <g id="patch_5">
    <path d="M 57.6 298.944 
L 338.688 298.944 
" style="fill:none;stroke:#000000;stroke-linecap:square;stroke-linejoin:miter;stroke-width:0.8;"/>
   </g>
   <g id="patch_6">
    <path d="M 57.6 3.456 
L 338.688 3.456 
" style="fill:none;stroke:#000000;stroke-linecap:square;stroke-linejoin:miter;stroke-width:0.8;"/>
   </g>
   <g id="text_13">
    <!-- f20 -->
    <g transform="translate(375.22944 297.78369)scale(0.17 -0.17)">
     <use xlink:href="#DejaVuSans-102"/>
     <use x="35.205078" xlink:href="#DejaVuSans-50"/>
     <use x="98.828125" xlink:href="#DejaVuSans-48"/>
    </g>
   </g>
   <g id="text_14">
    <!-- f21 -->
    <g transform="translate(375.22944 157.353749)scale(0.17 -0.17)">
     <use xlink:href="#DejaVuSans-102"/>
     <use x="35.205078" xlink:href="#DejaVuSans-50"/>
     <use x="98.828125" xlink:href="#DejaVuSans-49"/>
    </g>
   </g>
   <g id="text_15">
    <!-- f28 -->
    <g transform="translate(375.22944 16.923809)scale(0.17 -0.17)">
     <use xlink:href="#DejaVuSans-102"/>
     <use x="35.205078" xlink:href="#DejaVuSans-50"/>
     <use x="98.828125" xlink:href="#DejaVuSans-56"/>
    </g>
   </g>
   <g id="text_16">
    <!-- bbob-biobj -->
    <g transform="translate(60.41088 14.161286)scale(0.102 -0.102)">
     <defs>
      <path d="M 48.6875 27.296875 
Q 48.6875 37.203125 44.609375 42.84375 
Q 40.53125 48.484375 33.40625 48.484375 
Q 26.265625 48.484375 22.1875 42.84375 
Q 18.109375 37.203125 18.109375 27.296875 
Q 18.109375 17.390625 22.1875 11.75 
Q 26.265625 6.109375 33.40625 6.109375 
Q 40.53125 6.109375 44.609375 11.75 
Q 48.6875 17.390625 48.6875 27.296875 
z
M 18.109375 46.390625 
Q 20.953125 51.265625 25.265625 53.625 
Q 29.59375 56 35.59375 56 
Q 45.5625 56 51.78125 48.09375 
Q 58.015625 40.1875 58.015625 27.296875 
Q 58.015625 14.40625 51.78125 6.484375 
Q 45.5625 -1.421875 35.59375 -1.421875 
Q 29.59375 -1.421875 25.265625 0.953125 
Q 20.953125 3.328125 18.109375 8.203125 
L 18.109375 0 
L 9.078125 0 
L 9.078125 75.984375 
L 18.109375 75.984375 
z
" id="DejaVuSans-98"/>
      <path d="M 9.421875 54.6875 
L 18.40625 54.6875 
L 18.40625 -0.984375 
Q 18.40625 -11.421875 14.421875 -16.109375 
Q 10.453125 -20.796875 1.609375 -20.796875 
L -1.8125 -20.796875 
L -1.8125 -13.1875 
L 0.59375 -13.1875 
Q 5.71875 -13.1875 7.5625 -10.8125 
Q 9.421875 -8.453125 9.421875 -0.984375 
z
M 9.421875 75.984375 
L 18.40625 75.984375 
L 18.40625 64.59375 
L 9.421875 64.59375 
z
" id="DejaVuSans-106"/>
     </defs>
     <use xlink:href="#DejaVuSans-98"/>
     <use x="63.476562" xlink:href="#DejaVuSans-98"/>
     <use x="126.953125" xlink:href="#DejaVuSans-111"/>
     <use x="188.134766" xlink:href="#DejaVuSans-98"/>
     <use x="251.611328" xlink:href="#DejaVuSans-45"/>
     <use x="287.695312" xlink:href="#DejaVuSans-98"/>
     <use x="351.171875" xlink:href="#DejaVuSans-105"/>
     <use x="378.955078" xlink:href="#DejaVuSans-111"/>
     <use x="440.136719" xlink:href="#DejaVuSans-98"/>
     <use x="503.613281" xlink:href="#DejaVuSans-106"/>
    </g>
    <!-- 2-moderate 2-moderate, 10-D -->
    <g transform="translate(60.41088 25.583055)scale(0.102 -0.102)">
     <defs>
      <path d="M 19.671875 64.796875 
L 19.671875 8.109375 
L 31.59375 8.109375 
Q 46.6875 8.109375 53.6875 14.9375 
Q 60.6875 21.78125 60.6875 36.53125 
Q 60.6875 51.171875 53.6875 57.984375 
Q 46.6875 64.796875 31.59375 64.796875 
z
M 9.8125 72.90625 
L 30.078125 72.90625 
Q 51.265625 72.90625 61.171875 64.09375 
Q 71.09375 55.28125 71.09375 36.53125 
Q 71.09375 17.671875 61.125 8.828125 
Q 51.171875 0 30.078125 0 
L 9.8125 0 
z
" id="DejaVuSans-68"/>
     </defs>
     <use xlink:href="#DejaVuSans-50"/>
     <use x="63.623047" xlink:href="#DejaVuSans-45"/>
     <use x="99.707031" xlink:href="#DejaVuSans-109"/>
     <use x="197.119141" xlink:href="#DejaVuSans-111"/>
     <use x="258.300781" xlink:href="#DejaVuSans-100"/>
     <use x="321.777344" xlink:href="#DejaVuSans-101"/>
     <use x="383.300781" xlink:href="#DejaVuSans-114"/>
     <use x="424.414062" xlink:href="#DejaVuSans-97"/>
     <use x="485.693359" xlink:href="#DejaVuSans-116"/>
     <use x="524.902344" xlink:href="#DejaVuSans-101"/>
     <use x="586.425781" xlink:href="#DejaVuSans-32"/>
     <use x="618.212891" xlink:href="#DejaVuSans-50"/>
     <use x="681.835938" xlink:href="#DejaVuSans-45"/>
     <use x="717.919922" xlink:href="#DejaVuSans-109"/>
     <use x="815.332031" xlink:href="#DejaVuSans-111"/>
     <use x="876.513672" xlink:href="#DejaVuSans-100"/>
     <use x="939.990234" xlink:href="#DejaVuSans-101"/>
     <use x="1001.513672" xlink:href="#DejaVuSans-114"/>
     <use x="1042.626953" xlink:href="#DejaVuSans-97"/>
     <use x="1103.90625" xlink:href="#DejaVuSans-116"/>
     <use x="1143.115234" xlink:href="#DejaVuSans-101"/>
     <use x="1204.638672" xlink:href="#DejaVuSans-44"/>
     <use x="1236.425781" xlink:href="#DejaVuSans-32"/>
     <use x="1268.212891" xlink:href="#DejaVuSans-49"/>
     <use x="1331.835938" xlink:href="#DejaVuSans-48"/>
     <use x="1395.458984" xlink:href="#DejaVuSans-45"/>
     <use x="1431.542969" xlink:href="#DejaVuSans-68"/>
    </g>
    <!-- 58 targets: 1..-1.0e-4 -->
    <g transform="translate(60.41088 37.004824)scale(0.102 -0.102)">
     <defs>
      <path d="M 10.796875 72.90625 
L 49.515625 72.90625 
L 49.515625 64.59375 
L 19.828125 64.59375 
L 19.828125 46.734375 
Q 21.96875 47.46875 24.109375 47.828125 
Q 26.265625 48.1875 28.421875 48.1875 
Q 40.625 48.1875 47.75 41.5 
Q 54.890625 34.8125 54.890625 23.390625 
Q 54.890625 11.625 47.5625 5.09375 
Q 40.234375 -1.421875 26.90625 -1.421875 
Q 22.3125 -1.421875 17.546875 -0.640625 
Q 12.796875 0.140625 7.71875 1.703125 
L 7.71875 11.625 
Q 12.109375 9.234375 16.796875 8.0625 
Q 21.484375 6.890625 26.703125 6.890625 
Q 35.15625 6.890625 40.078125 11.328125 
Q 45.015625 15.765625 45.015625 23.390625 
Q 45.015625 31 40.078125 35.4375 
Q 35.15625 39.890625 26.703125 39.890625 
Q 22.75 39.890625 18.8125 39.015625 
Q 14.890625 38.140625 10.796875 36.28125 
z
" id="DejaVuSans-53"/>
      <path d="M 11.71875 12.40625 
L 22.015625 12.40625 
L 22.015625 0 
L 11.71875 0 
z
M 11.71875 51.703125 
L 22.015625 51.703125 
L 22.015625 39.3125 
L 11.71875 39.3125 
z
" id="DejaVuSans-58"/>
     </defs>
     <use xlink:href="#DejaVuSans-53"/>
     <use x="63.623047" xlink:href="#DejaVuSans-56"/>
     <use x="127.246094" xlink:href="#DejaVuSans-32"/>
     <use x="159.033203" xlink:href="#DejaVuSans-116"/>
     <use x="198.242188" xlink:href="#DejaVuSans-97"/>
     <use x="259.521484" xlink:href="#DejaVuSans-114"/>
     <use x="298.884766" xlink:href="#DejaVuSans-103"/>
     <use x="362.361328" xlink:href="#DejaVuSans-101"/>
     <use x="423.884766" xlink:href="#DejaVuSans-116"/>
     <use x="463.09375" xlink:href="#DejaVuSans-115"/>
     <use x="515.193359" xlink:href="#DejaVuSans-58"/>
     <use x="548.884766" xlink:href="#DejaVuSans-32"/>
     <use x="580.671875" xlink:href="#DejaVuSans-49"/>
     <use x="644.294922" xlink:href="#DejaVuSans-46"/>
     <use x="676.082031" xlink:href="#DejaVuSans-46"/>
     <use x="707.869141" xlink:href="#DejaVuSans-45"/>
     <use x="743.953125" xlink:href="#DejaVuSans-49"/>
     <use x="807.576172" xlink:href="#DejaVuSans-46"/>
     <use x="839.363281" xlink:href="#DejaVuSans-48"/>
     <use x="902.986328" xlink:href="#DejaVuSans-101"/>
     <use x="964.509766" xlink:href="#DejaVuSans-45"/>
     <use x="1000.59375" xlink:href="#DejaVuSans-52"/>
    </g>
    <!-- 10 instances -->
    <g transform="translate(60.41088 48.426593)scale(0.102 -0.102)">
     <use xlink:href="#DejaVuSans-49"/>
     <use x="63.623047" xlink:href="#DejaVuSans-48"/>
     <use x="127.246094" xlink:href="#DejaVuSans-32"/>
     <use x="159.033203" xlink:href="#DejaVuSans-105"/>
     <use x="186.816406" xlink:href="#DejaVuSans-110"/>
     <use x="250.195312" xlink:href="#DejaVuSans-115"/>
     <use x="302.294922" xlink:href="#DejaVuSans-116"/>
     <use x="341.503906" xlink:href="#DejaVuSans-97"/>
     <use x="402.783203" xlink:href="#DejaVuSans-110"/>
     <use x="466.162109" xlink:href="#DejaVuSans-99"/>
     <use x="521.142578" xlink:href="#DejaVuSans-101"/>
     <use x="582.666016" xlink:href="#DejaVuSans-115"/>
    </g>
   </g>
   <g id="text_17">
    <!-- v2.4, hv-hash=ff0e71e8cd978373 -->
    <g style="fill:#808080;" transform="translate(112.648687 293.909432)scale(0.1 -0.1)">
     <defs>
      <path d="M 54.890625 33.015625 
L 54.890625 0 
L 45.90625 0 
L 45.90625 32.71875 
Q 45.90625 40.484375 42.875 44.328125 
Q 39.84375 48.1875 33.796875 48.1875 
Q 26.515625 48.1875 22.3125 43.546875 
Q 18.109375 38.921875 18.109375 30.90625 
L 18.109375 0 
L 9.078125 0 
L 9.078125 75.984375 
L 18.109375 75.984375 
L 18.109375 46.1875 
Q 21.34375 51.125 25.703125 53.5625 
Q 30.078125 56 35.796875 56 
Q 45.21875 56 50.046875 50.171875 
Q 54.890625 44.34375 54.890625 33.015625 
z
" id="DejaVuSans-104"/>
      <path d="M 10.59375 45.40625 
L 73.1875 45.40625 
L 73.1875 37.203125 
L 10.59375 37.203125 
z
M 10.59375 25.484375 
L 73.1875 25.484375 
L 73.1875 17.1875 
L 10.59375 17.1875 
z
" id="DejaVuSans-61"/>
      <path d="M 8.203125 72.90625 
L 55.078125 72.90625 
L 55.078125 68.703125 
L 28.609375 0 
L 18.3125 0 
L 43.21875 64.59375 
L 8.203125 64.59375 
z
" id="DejaVuSans-55"/>
      <path d="M 10.984375 1.515625 
L 10.984375 10.5 
Q 14.703125 8.734375 18.5 7.8125 
Q 22.3125 6.890625 25.984375 6.890625 
Q 35.75 6.890625 40.890625 13.453125 
Q 46.046875 20.015625 46.78125 33.40625 
Q 43.953125 29.203125 39.59375 26.953125 
Q 35.25 24.703125 29.984375 24.703125 
Q 19.046875 24.703125 12.671875 31.3125 
Q 6.296875 37.9375 6.296875 49.421875 
Q 6.296875 60.640625 12.9375 67.421875 
Q 19.578125 74.21875 30.609375 74.21875 
Q 43.265625 74.21875 49.921875 64.515625 
Q 56.59375 54.828125 56.59375 36.375 
Q 56.59375 19.140625 48.40625 8.859375 
Q 40.234375 -1.421875 26.421875 -1.421875 
Q 22.703125 -1.421875 18.890625 -0.6875 
Q 15.09375 0.046875 10.984375 1.515625 
z
M 30.609375 32.421875 
Q 37.25 32.421875 41.125 36.953125 
Q 45.015625 41.5 45.015625 49.421875 
Q 45.015625 57.28125 41.125 61.84375 
Q 37.25 66.40625 30.609375 66.40625 
Q 23.96875 66.40625 20.09375 61.84375 
Q 16.21875 57.28125 16.21875 49.421875 
Q 16.21875 41.5 20.09375 36.953125 
Q 23.96875 32.421875 30.609375 32.421875 
z
" id="DejaVuSans-57"/>
      <path d="M 40.578125 39.3125 
Q 47.65625 37.796875 51.625 33 
Q 55.609375 28.21875 55.609375 21.1875 
Q 55.609375 10.40625 48.1875 4.484375 
Q 40.765625 -1.421875 27.09375 -1.421875 
Q 22.515625 -1.421875 17.65625 -0.515625 
Q 12.796875 0.390625 7.625 2.203125 
L 7.625 11.71875 
Q 11.71875 9.328125 16.59375 8.109375 
Q 21.484375 6.890625 26.8125 6.890625 
Q 36.078125 6.890625 40.9375 10.546875 
Q 45.796875 14.203125 45.796875 21.1875 
Q 45.796875 27.640625 41.28125 31.265625 
Q 36.765625 34.90625 28.71875 34.90625 
L 20.21875 34.90625 
L 20.21875 43.015625 
L 29.109375 43.015625 
Q 36.375 43.015625 40.234375 45.921875 
Q 44.09375 48.828125 44.09375 54.296875 
Q 44.09375 59.90625 40.109375 62.90625 
Q 36.140625 65.921875 28.71875 65.921875 
Q 24.65625 65.921875 20.015625 65.03125 
Q 15.375 64.15625 9.8125 62.3125 
L 9.8125 71.09375 
Q 15.4375 72.65625 20.34375 73.4375 
Q 25.25 74.21875 29.59375 74.21875 
Q 40.828125 74.21875 47.359375 69.109375 
Q 53.90625 64.015625 53.90625 55.328125 
Q 53.90625 49.265625 50.4375 45.09375 
Q 46.96875 40.921875 40.578125 39.3125 
z
" id="DejaVuSans-51"/>
     </defs>
     <use xlink:href="#DejaVuSans-118"/>
     <use x="59.179688" xlink:href="#DejaVuSans-50"/>
     <use x="122.802734" xlink:href="#DejaVuSans-46"/>
     <use x="154.589844" xlink:href="#DejaVuSans-52"/>
     <use x="218.212891" xlink:href="#DejaVuSans-44"/>
     <use x="250" xlink:href="#DejaVuSans-32"/>
     <use x="281.787109" xlink:href="#DejaVuSans-104"/>
     <use x="345.166016" xlink:href="#DejaVuSans-118"/>
     <use x="401.720703" xlink:href="#DejaVuSans-45"/>
     <use x="437.804688" xlink:href="#DejaVuSans-104"/>
     <use x="501.183594" xlink:href="#DejaVuSans-97"/>
     <use x="562.462891" xlink:href="#DejaVuSans-115"/>
     <use x="614.5625" xlink:href="#DejaVuSans-104"/>
     <use x="677.941406" xlink:href="#DejaVuSans-61"/>
     <use x="761.730469" xlink:href="#DejaVuSans-102"/>
     <use x="796.935547" xlink:href="#DejaVuSans-102"/>
     <use x="832.140625" xlink:href="#DejaVuSans-48"/>
     <use x="895.763672" xlink:href="#DejaVuSans-101"/>
     <use x="957.287109" xlink:href="#DejaVuSans-55"/>
     <use x="1020.910156" xlink:href="#DejaVuSans-49"/>
     <use x="1084.533203" xlink:href="#DejaVuSans-101"/>
     <use x="1146.056641" xlink:href="#DejaVuSans-56"/>
     <use x="1209.679688" xlink:href="#DejaVuSans-99"/>
     <use x="1264.660156" xlink:href="#DejaVuSans-100"/>
     <use x="1328.136719" xlink:href="#DejaVuSans-57"/>
     <use x="1391.759766" xlink:href="#DejaVuSans-55"/>
     <use x="1455.382812" xlink:href="#DejaVuSans-56"/>
     <use x="1519.005859" xlink:href="#DejaVuSans-51"/>
     <use x="1582.628906" xlink:href="#DejaVuSans-55"/>
     <use x="1646.251953" xlink:href="#DejaVuSans-51"/>
    </g>
   </g>
  </g>
 </g>
 <defs>
  <clipPath id="p3ed5ff3b2e">
   <rect height="295.488" width="281.088" x="57.6" y="3.456"/>
  </clipPath>
 </defs>
</svg>
