<?xml version="1.0" encoding="utf-8" standalone="no"?>
<!DOCTYPE svg PUBLIC "-//W3C//DTD SVG 1.1//EN"
  "http://www.w3.org/Graphics/SVG/1.1/DTD/svg11.dtd">
<!-- Created with matplotlib (https://matplotlib.org/) -->
<svg height="345.6pt" version="1.1" viewBox="0 0 460.8 345.6" width="460.8pt" xmlns="http://www.w3.org/2000/svg" xmlns:xlink="http://www.w3.org/1999/xlink">
 <metadata>
  <rdf:RDF xmlns:cc="http://creativecommons.org/ns#" xmlns:dc="http://purl.org/dc/elements/1.1/" xmlns:rdf="http://www.w3.org/1999/02/22-rdf-syntax-ns#">
   <cc:Work>
    <dc:type rdf:resource="http://purl.org/dc/dcmitype/StillImage"/>
    <dc:date>2021-03-30T16:55:27.879576</dc:date>
    <dc:format>image/svg+xml</dc:format>
    <dc:creator>
     <cc:Agent>
      <dc:title>Matplotlib v3.3.4, https://matplotlib.org/</dc:title>
     </cc:Agent>
    </dc:creator>
   </cc:Work>
  </rdf:RDF>
 </metadata>
 <defs>
  <style type="text/css">*{stroke-linecap:butt;stroke-linejoin:round;}</style>
 </defs>
 <g id="figure_1">
  <g id="patch_1">
   <path d="M 0 345.6 
L 460.8 345.6 
L 460.8 0 
L 0 0 
z
" style="fill:#ffffff;"/>
  </g>
  <g id="axes_1">
   <g id="patch_2">
    <path d="M 57.6 298.944 
L 338.688 298.944 
L 338.688 3.456 
L 57.6 3.456 
z
" style="fill:#ffffff;"/>
   </g>
   <g id="matplotlib.axis_1">
    <g id="xtick_1">
     <g id="line2d_1">
      <path clip-path="url(#p4924f20ae5)" d="M 57.6 298.944 
L 57.6 3.456 
" style="fill:none;stroke:#b0b0b0;stroke-linecap:square;stroke-width:0.8;"/>
     </g>
     <g id="line2d_2">
      <defs>
       <path d="M 0 0 
L 0 3.5 
" id="md61a9eb0dd" style="stroke:#000000;stroke-width:0.8;"/>
      </defs>
      <g>
       <use style="stroke:#000000;stroke-width:0.8;" x="57.6" xlink:href="#md61a9eb0dd" y="298.944"/>
      </g>
     </g>
     <g id="text_1">
      <!-- 0 -->
      <g transform="translate(51.2375 321.140875)scale(0.2 -0.2)">
       <defs>
        <path d="M 31.78125 66.40625 
Q 24.171875 66.40625 20.328125 58.90625 
Q 16.5 51.421875 16.5 36.375 
Q 16.5 21.390625 20.328125 13.890625 
Q 24.171875 6.390625 31.78125 6.390625 
Q 39.453125 6.390625 43.28125 13.890625 
Q 47.125 21.390625 47.125 36.375 
Q 47.125 51.421875 43.28125 58.90625 
Q 39.453125 66.40625 31.78125 66.40625 
z
M 31.78125 74.21875 
Q 44.046875 74.21875 50.515625 64.515625 
Q 56.984375 54.828125 56.984375 36.375 
Q 56.984375 17.96875 50.515625 8.265625 
Q 44.046875 -1.421875 31.78125 -1.421875 
Q 19.53125 -1.421875 13.0625 8.265625 
Q 6.59375 17.96875 6.59375 36.375 
Q 6.59375 54.828125 13.0625 64.515625 
Q 19.53125 74.21875 31.78125 74.21875 
z
" id="DejaVuSans-48"/>
       </defs>
       <use xlink:href="#DejaVuSans-48"/>
      </g>
     </g>
    </g>
    <g id="xtick_2">
     <g id="line2d_3">
      <path clip-path="url(#p4924f20ae5)" d="M 137.910857 298.944 
L 137.910857 3.456 
" style="fill:none;stroke:#b0b0b0;stroke-linecap:square;stroke-width:0.8;"/>
     </g>
     <g id="line2d_4">
      <g>
       <use style="stroke:#000000;stroke-width:0.8;" x="137.910857" xlink:href="#md61a9eb0dd" y="298.944"/>
      </g>
     </g>
     <g id="text_2">
      <!-- 2 -->
      <g transform="translate(131.548357 321.140875)scale(0.2 -0.2)">
       <defs>
        <path d="M 19.1875 8.296875 
L 53.609375 8.296875 
L 53.609375 0 
L 7.328125 0 
L 7.328125 8.296875 
Q 12.9375 14.109375 22.625 23.890625 
Q 32.328125 33.6875 34.8125 36.53125 
Q 39.546875 41.84375 41.421875 45.53125 
Q 43.3125 49.21875 43.3125 52.78125 
Q 43.3125 58.59375 39.234375 62.25 
Q 35.15625 65.921875 28.609375 65.921875 
Q 23.96875 65.921875 18.8125 64.3125 
Q 13.671875 62.703125 7.8125 59.421875 
L 7.8125 69.390625 
Q 13.765625 71.78125 18.9375 73 
Q 24.125 74.21875 28.421875 74.21875 
Q 39.75 74.21875 46.484375 68.546875 
Q 53.21875 62.890625 53.21875 53.421875 
Q 53.21875 48.921875 51.53125 44.890625 
Q 49.859375 40.875 45.40625 35.40625 
Q 44.1875 33.984375 37.640625 27.21875 
Q 31.109375 20.453125 19.1875 8.296875 
z
" id="DejaVuSans-50"/>
       </defs>
       <use xlink:href="#DejaVuSans-50"/>
      </g>
     </g>
    </g>
    <g id="xtick_3">
     <g id="line2d_5">
      <path clip-path="url(#p4924f20ae5)" d="M 218.221714 298.944 
L 218.221714 3.456 
" style="fill:none;stroke:#b0b0b0;stroke-linecap:square;stroke-width:0.8;"/>
     </g>
     <g id="line2d_6">
      <g>
       <use style="stroke:#000000;stroke-width:0.8;" x="218.221714" xlink:href="#md61a9eb0dd" y="298.944"/>
      </g>
     </g>
     <g id="text_3">
      <!-- 4 -->
      <g transform="translate(211.859214 321.140875)scale(0.2 -0.2)">
       <defs>
        <path d="M 37.796875 64.3125 
L 12.890625 25.390625 
L 37.796875 25.390625 
z
M 35.203125 72.90625 
L 47.609375 72.90625 
L 47.609375 25.390625 
L 58.015625 25.390625 
L 58.015625 17.1875 
L 47.609375 17.1875 
L 47.609375 0 
L 37.796875 0 
L 37.796875 17.1875 
L 4.890625 17.1875 
L 4.890625 26.703125 
z
" id="DejaVuSans-52"/>
       </defs>
       <use xlink:href="#DejaVuSans-52"/>
      </g>
     </g>
    </g>
    <g id="xtick_4">
     <g id="line2d_7">
      <path clip-path="url(#p4924f20ae5)" d="M 298.532571 298.944 
L 298.532571 3.456 
" style="fill:none;stroke:#b0b0b0;stroke-linecap:square;stroke-width:0.8;"/>
     </g>
     <g id="line2d_8">
      <g>
       <use style="stroke:#000000;stroke-width:0.8;" x="298.532571" xlink:href="#md61a9eb0dd" y="298.944"/>
      </g>
     </g>
     <g id="text_4">
      <!-- 6 -->
      <g transform="translate(292.170071 321.140875)scale(0.2 -0.2)">
       <defs>
        <path d="M 33.015625 40.375 
Q 26.375 40.375 22.484375 35.828125 
Q 18.609375 31.296875 18.609375 23.390625 
Q 18.609375 15.53125 22.484375 10.953125 
Q 26.375 6.390625 33.015625 6.390625 
Q 39.65625 6.390625 43.53125 10.953125 
Q 47.40625 15.53125 47.40625 23.390625 
Q 47.40625 31.296875 43.53125 35.828125 
Q 39.65625 40.375 33.015625 40.375 
z
M 52.59375 71.296875 
L 52.59375 62.3125 
Q 48.875 64.0625 45.09375 64.984375 
Q 41.3125 65.921875 37.59375 65.921875 
Q 27.828125 65.921875 22.671875 59.328125 
Q 17.53125 52.734375 16.796875 39.40625 
Q 19.671875 43.65625 24.015625 45.921875 
Q 28.375 48.1875 33.59375 48.1875 
Q 44.578125 48.1875 50.953125 41.515625 
Q 57.328125 34.859375 57.328125 23.390625 
Q 57.328125 12.15625 50.6875 5.359375 
Q 44.046875 -1.421875 33.015625 -1.421875 
Q 20.359375 -1.421875 13.671875 8.265625 
Q 6.984375 17.96875 6.984375 36.375 
Q 6.984375 53.65625 15.1875 63.9375 
Q 23.390625 74.21875 37.203125 74.21875 
Q 40.921875 74.21875 44.703125 73.484375 
Q 48.484375 72.75 52.59375 71.296875 
z
" id="DejaVuSans-54"/>
       </defs>
       <use xlink:href="#DejaVuSans-54"/>
      </g>
     </g>
    </g>
    <g id="xtick_5">
     <g id="line2d_9">
      <path clip-path="url(#p4924f20ae5)" d="M 97.755429 298.944 
L 97.755429 3.456 
" style="fill:none;stroke:#b0b0b0;stroke-linecap:square;stroke-width:0.8;"/>
     </g>
     <g id="line2d_10">
      <defs>
       <path d="M 0 0 
L 0 2 
" id="m5b4ec55b64" style="stroke:#000000;stroke-width:0.6;"/>
      </defs>
      <g>
       <use style="stroke:#000000;stroke-width:0.6;" x="97.755429" xlink:href="#m5b4ec55b64" y="298.944"/>
      </g>
     </g>
    </g>
    <g id="xtick_6">
     <g id="line2d_11">
      <path clip-path="url(#p4924f20ae5)" d="M 178.066286 298.944 
L 178.066286 3.456 
" style="fill:none;stroke:#b0b0b0;stroke-linecap:square;stroke-width:0.8;"/>
     </g>
     <g id="line2d_12">
      <g>
       <use style="stroke:#000000;stroke-width:0.6;" x="178.066286" xlink:href="#m5b4ec55b64" y="298.944"/>
      </g>
     </g>
    </g>
    <g id="xtick_7">
     <g id="line2d_13">
      <path clip-path="url(#p4924f20ae5)" d="M 258.377143 298.944 
L 258.377143 3.456 
" style="fill:none;stroke:#b0b0b0;stroke-linecap:square;stroke-width:0.8;"/>
     </g>
     <g id="line2d_14">
      <g>
       <use style="stroke:#000000;stroke-width:0.6;" x="258.377143" xlink:href="#m5b4ec55b64" y="298.944"/>
      </g>
     </g>
    </g>
    <g id="xtick_8">
     <g id="line2d_15">
      <path clip-path="url(#p4924f20ae5)" d="M 338.688 298.944 
L 338.688 3.456 
" style="fill:none;stroke:#b0b0b0;stroke-linecap:square;stroke-width:0.8;"/>
     </g>
     <g id="line2d_16">
      <g>
       <use style="stroke:#000000;stroke-width:0.6;" x="338.688" xlink:href="#m5b4ec55b64" y="298.944"/>
      </g>
     </g>
    </g>
    <g id="text_5">
     <!-- log10(# f-evals / dimension) -->
     <g transform="translate(77.764078 342.217594)scale(0.17 -0.17)">
      <defs>
       <path d="M 9.421875 75.984375 
L 18.40625 75.984375 
L 18.40625 0 
L 9.421875 0 
z
" id="DejaVuSans-108"/>
       <path d="M 30.609375 48.390625 
Q 23.390625 48.390625 19.1875 42.75 
Q 14.984375 37.109375 14.984375 27.296875 
Q 14.984375 17.484375 19.15625 11.84375 
Q 23.34375 6.203125 30.609375 6.203125 
Q 37.796875 6.203125 41.984375 11.859375 
Q 46.1875 17.53125 46.1875 27.296875 
Q 46.1875 37.015625 41.984375 42.703125 
Q 37.796875 48.390625 30.609375 48.390625 
z
M 30.609375 56 
Q 42.328125 56 49.015625 48.375 
Q 55.71875 40.765625 55.71875 27.296875 
Q 55.71875 13.875 49.015625 6.21875 
Q 42.328125 -1.421875 30.609375 -1.421875 
Q 18.84375 -1.421875 12.171875 6.21875 
Q 5.515625 13.875 5.515625 27.296875 
Q 5.515625 40.765625 12.171875 48.375 
Q 18.84375 56 30.609375 56 
z
" id="DejaVuSans-111"/>
       <path d="M 45.40625 27.984375 
Q 45.40625 37.75 41.375 43.109375 
Q 37.359375 48.484375 30.078125 48.484375 
Q 22.859375 48.484375 18.828125 43.109375 
Q 14.796875 37.75 14.796875 27.984375 
Q 14.796875 18.265625 18.828125 12.890625 
Q 22.859375 7.515625 30.078125 7.515625 
Q 37.359375 7.515625 41.375 12.890625 
Q 45.40625 18.265625 45.40625 27.984375 
z
M 54.390625 6.78125 
Q 54.390625 -7.171875 48.1875 -13.984375 
Q 42 -20.796875 29.203125 -20.796875 
Q 24.46875 -20.796875 20.265625 -20.09375 
Q 16.0625 -19.390625 12.109375 -17.921875 
L 12.109375 -9.1875 
Q 16.0625 -11.328125 19.921875 -12.34375 
Q 23.78125 -13.375 27.78125 -13.375 
Q 36.625 -13.375 41.015625 -8.765625 
Q 45.40625 -4.15625 45.40625 5.171875 
L 45.40625 9.625 
Q 42.625 4.78125 38.28125 2.390625 
Q 33.9375 0 27.875 0 
Q 17.828125 0 11.671875 7.65625 
Q 5.515625 15.328125 5.515625 27.984375 
Q 5.515625 40.671875 11.671875 48.328125 
Q 17.828125 56 27.875 56 
Q 33.9375 56 38.28125 53.609375 
Q 42.625 51.21875 45.40625 46.390625 
L 45.40625 54.6875 
L 54.390625 54.6875 
z
" id="DejaVuSans-103"/>
       <path d="M 12.40625 8.296875 
L 28.515625 8.296875 
L 28.515625 63.921875 
L 10.984375 60.40625 
L 10.984375 69.390625 
L 28.421875 72.90625 
L 38.28125 72.90625 
L 38.28125 8.296875 
L 54.390625 8.296875 
L 54.390625 0 
L 12.40625 0 
z
" id="DejaVuSans-49"/>
       <path d="M 31 75.875 
Q 24.46875 64.65625 21.28125 53.65625 
Q 18.109375 42.671875 18.109375 31.390625 
Q 18.109375 20.125 21.3125 9.0625 
Q 24.515625 -2 31 -13.1875 
L 23.1875 -13.1875 
Q 15.875 -1.703125 12.234375 9.375 
Q 8.59375 20.453125 8.59375 31.390625 
Q 8.59375 42.28125 12.203125 53.3125 
Q 15.828125 64.359375 23.1875 75.875 
z
" id="DejaVuSans-40"/>
       <path d="M 51.125 44 
L 36.921875 44 
L 32.8125 27.6875 
L 47.125 27.6875 
z
M 43.796875 71.78125 
L 38.71875 51.515625 
L 52.984375 51.515625 
L 58.109375 71.78125 
L 65.921875 71.78125 
L 60.890625 51.515625 
L 76.125 51.515625 
L 76.125 44 
L 58.984375 44 
L 54.984375 27.6875 
L 70.515625 27.6875 
L 70.515625 20.21875 
L 53.078125 20.21875 
L 48 0 
L 40.1875 0 
L 45.21875 20.21875 
L 30.90625 20.21875 
L 25.875 0 
L 18.015625 0 
L 23.09375 20.21875 
L 7.71875 20.21875 
L 7.71875 27.6875 
L 24.90625 27.6875 
L 29 44 
L 13.28125 44 
L 13.28125 51.515625 
L 30.90625 51.515625 
L 35.890625 71.78125 
z
" id="DejaVuSans-35"/>
       <path id="DejaVuSans-32"/>
       <path d="M 37.109375 75.984375 
L 37.109375 68.5 
L 28.515625 68.5 
Q 23.6875 68.5 21.796875 66.546875 
Q 19.921875 64.59375 19.921875 59.515625 
L 19.921875 54.6875 
L 34.71875 54.6875 
L 34.71875 47.703125 
L 19.921875 47.703125 
L 19.921875 0 
L 10.890625 0 
L 10.890625 47.703125 
L 2.296875 47.703125 
L 2.296875 54.6875 
L 10.890625 54.6875 
L 10.890625 58.5 
Q 10.890625 67.625 15.140625 71.796875 
Q 19.390625 75.984375 28.609375 75.984375 
z
" id="DejaVuSans-102"/>
       <path d="M 4.890625 31.390625 
L 31.203125 31.390625 
L 31.203125 23.390625 
L 4.890625 23.390625 
z
" id="DejaVuSans-45"/>
       <path d="M 56.203125 29.59375 
L 56.203125 25.203125 
L 14.890625 25.203125 
Q 15.484375 15.921875 20.484375 11.0625 
Q 25.484375 6.203125 34.421875 6.203125 
Q 39.59375 6.203125 44.453125 7.46875 
Q 49.3125 8.734375 54.109375 11.28125 
L 54.109375 2.78125 
Q 49.265625 0.734375 44.1875 -0.34375 
Q 39.109375 -1.421875 33.890625 -1.421875 
Q 20.796875 -1.421875 13.15625 6.1875 
Q 5.515625 13.8125 5.515625 26.8125 
Q 5.515625 40.234375 12.765625 48.109375 
Q 20.015625 56 32.328125 56 
Q 43.359375 56 49.78125 48.890625 
Q 56.203125 41.796875 56.203125 29.59375 
z
M 47.21875 32.234375 
Q 47.125 39.59375 43.09375 43.984375 
Q 39.0625 48.390625 32.421875 48.390625 
Q 24.90625 48.390625 20.390625 44.140625 
Q 15.875 39.890625 15.1875 32.171875 
z
" id="DejaVuSans-101"/>
       <path d="M 2.984375 54.6875 
L 12.5 54.6875 
L 29.59375 8.796875 
L 46.6875 54.6875 
L 56.203125 54.6875 
L 35.6875 0 
L 23.484375 0 
z
" id="DejaVuSans-118"/>
       <path d="M 34.28125 27.484375 
Q 23.390625 27.484375 19.1875 25 
Q 14.984375 22.515625 14.984375 16.5 
Q 14.984375 11.71875 18.140625 8.90625 
Q 21.296875 6.109375 26.703125 6.109375 
Q 34.1875 6.109375 38.703125 11.40625 
Q 43.21875 16.703125 43.21875 25.484375 
L 43.21875 27.484375 
z
M 52.203125 31.203125 
L 52.203125 0 
L 43.21875 0 
L 43.21875 8.296875 
Q 40.140625 3.328125 35.546875 0.953125 
Q 30.953125 -1.421875 24.3125 -1.421875 
Q 15.921875 -1.421875 10.953125 3.296875 
Q 6 8.015625 6 15.921875 
Q 6 25.140625 12.171875 29.828125 
Q 18.359375 34.515625 30.609375 34.515625 
L 43.21875 34.515625 
L 43.21875 35.40625 
Q 43.21875 41.609375 39.140625 45 
Q 35.0625 48.390625 27.6875 48.390625 
Q 23 48.390625 18.546875 47.265625 
Q 14.109375 46.140625 10.015625 43.890625 
L 10.015625 52.203125 
Q 14.9375 54.109375 19.578125 55.046875 
Q 24.21875 56 28.609375 56 
Q 40.484375 56 46.34375 49.84375 
Q 52.203125 43.703125 52.203125 31.203125 
z
" id="DejaVuSans-97"/>
       <path d="M 44.28125 53.078125 
L 44.28125 44.578125 
Q 40.484375 46.53125 36.375 47.5 
Q 32.28125 48.484375 27.875 48.484375 
Q 21.1875 48.484375 17.84375 46.4375 
Q 14.5 44.390625 14.5 40.28125 
Q 14.5 37.15625 16.890625 35.375 
Q 19.28125 33.59375 26.515625 31.984375 
L 29.59375 31.296875 
Q 39.15625 29.25 43.1875 25.515625 
Q 47.21875 21.78125 47.21875 15.09375 
Q 47.21875 7.46875 41.1875 3.015625 
Q 35.15625 -1.421875 24.609375 -1.421875 
Q 20.21875 -1.421875 15.453125 -0.5625 
Q 10.6875 0.296875 5.421875 2 
L 5.421875 11.28125 
Q 10.40625 8.6875 15.234375 7.390625 
Q 20.0625 6.109375 24.8125 6.109375 
Q 31.15625 6.109375 34.5625 8.28125 
Q 37.984375 10.453125 37.984375 14.40625 
Q 37.984375 18.0625 35.515625 20.015625 
Q 33.0625 21.96875 24.703125 23.78125 
L 21.578125 24.515625 
Q 13.234375 26.265625 9.515625 29.90625 
Q 5.8125 33.546875 5.8125 39.890625 
Q 5.8125 47.609375 11.28125 51.796875 
Q 16.75 56 26.8125 56 
Q 31.78125 56 36.171875 55.265625 
Q 40.578125 54.546875 44.28125 53.078125 
z
" id="DejaVuSans-115"/>
       <path d="M 25.390625 72.90625 
L 33.6875 72.90625 
L 8.296875 -9.28125 
L 0 -9.28125 
z
" id="DejaVuSans-47"/>
       <path d="M 45.40625 46.390625 
L 45.40625 75.984375 
L 54.390625 75.984375 
L 54.390625 0 
L 45.40625 0 
L 45.40625 8.203125 
Q 42.578125 3.328125 38.25 0.953125 
Q 33.9375 -1.421875 27.875 -1.421875 
Q 17.96875 -1.421875 11.734375 6.484375 
Q 5.515625 14.40625 5.515625 27.296875 
Q 5.515625 40.1875 11.734375 48.09375 
Q 17.96875 56 27.875 56 
Q 33.9375 56 38.25 53.625 
Q 42.578125 51.265625 45.40625 46.390625 
z
M 14.796875 27.296875 
Q 14.796875 17.390625 18.875 11.75 
Q 22.953125 6.109375 30.078125 6.109375 
Q 37.203125 6.109375 41.296875 11.75 
Q 45.40625 17.390625 45.40625 27.296875 
Q 45.40625 37.203125 41.296875 42.84375 
Q 37.203125 48.484375 30.078125 48.484375 
Q 22.953125 48.484375 18.875 42.84375 
Q 14.796875 37.203125 14.796875 27.296875 
z
" id="DejaVuSans-100"/>
       <path d="M 9.421875 54.6875 
L 18.40625 54.6875 
L 18.40625 0 
L 9.421875 0 
z
M 9.421875 75.984375 
L 18.40625 75.984375 
L 18.40625 64.59375 
L 9.421875 64.59375 
z
" id="DejaVuSans-105"/>
       <path d="M 52 44.1875 
Q 55.375 50.25 60.0625 53.125 
Q 64.75 56 71.09375 56 
Q 79.640625 56 84.28125 50.015625 
Q 88.921875 44.046875 88.921875 33.015625 
L 88.921875 0 
L 79.890625 0 
L 79.890625 32.71875 
Q 79.890625 40.578125 77.09375 44.375 
Q 74.3125 48.1875 68.609375 48.1875 
Q 61.625 48.1875 57.5625 43.546875 
Q 53.515625 38.921875 53.515625 30.90625 
L 53.515625 0 
L 44.484375 0 
L 44.484375 32.71875 
Q 44.484375 40.625 41.703125 44.40625 
Q 38.921875 48.1875 33.109375 48.1875 
Q 26.21875 48.1875 22.15625 43.53125 
Q 18.109375 38.875 18.109375 30.90625 
L 18.109375 0 
L 9.078125 0 
L 9.078125 54.6875 
L 18.109375 54.6875 
L 18.109375 46.1875 
Q 21.1875 51.21875 25.484375 53.609375 
Q 29.78125 56 35.6875 56 
Q 41.65625 56 45.828125 52.96875 
Q 50 49.953125 52 44.1875 
z
" id="DejaVuSans-109"/>
       <path d="M 54.890625 33.015625 
L 54.890625 0 
L 45.90625 0 
L 45.90625 32.71875 
Q 45.90625 40.484375 42.875 44.328125 
Q 39.84375 48.1875 33.796875 48.1875 
Q 26.515625 48.1875 22.3125 43.546875 
Q 18.109375 38.921875 18.109375 30.90625 
L 18.109375 0 
L 9.078125 0 
L 9.078125 54.6875 
L 18.109375 54.6875 
L 18.109375 46.1875 
Q 21.34375 51.125 25.703125 53.5625 
Q 30.078125 56 35.796875 56 
Q 45.21875 56 50.046875 50.171875 
Q 54.890625 44.34375 54.890625 33.015625 
z
" id="DejaVuSans-110"/>
       <path d="M 8.015625 75.875 
L 15.828125 75.875 
Q 23.140625 64.359375 26.78125 53.3125 
Q 30.421875 42.28125 30.421875 31.390625 
Q 30.421875 20.453125 26.78125 9.375 
Q 23.140625 -1.703125 15.828125 -13.1875 
L 8.015625 -13.1875 
Q 14.5 -2 17.703125 9.0625 
Q 20.90625 20.125 20.90625 31.390625 
Q 20.90625 42.671875 17.703125 53.65625 
Q 14.5 64.65625 8.015625 75.875 
z
" id="DejaVuSans-41"/>
      </defs>
      <use xlink:href="#DejaVuSans-108"/>
      <use x="27.783203" xlink:href="#DejaVuSans-111"/>
      <use x="88.964844" xlink:href="#DejaVuSans-103"/>
      <use x="152.441406" xlink:href="#DejaVuSans-49"/>
      <use x="216.064453" xlink:href="#DejaVuSans-48"/>
      <use x="279.6875" xlink:href="#DejaVuSans-40"/>
      <use x="318.701172" xlink:href="#DejaVuSans-35"/>
      <use x="402.490234" xlink:href="#DejaVuSans-32"/>
      <use x="434.277344" xlink:href="#DejaVuSans-102"/>
      <use x="463.982422" xlink:href="#DejaVuSans-45"/>
      <use x="500.066406" xlink:href="#DejaVuSans-101"/>
      <use x="561.589844" xlink:href="#DejaVuSans-118"/>
      <use x="620.769531" xlink:href="#DejaVuSans-97"/>
      <use x="682.048828" xlink:href="#DejaVuSans-108"/>
      <use x="709.832031" xlink:href="#DejaVuSans-115"/>
      <use x="761.931641" xlink:href="#DejaVuSans-32"/>
      <use x="793.71875" xlink:href="#DejaVuSans-47"/>
      <use x="827.410156" xlink:href="#DejaVuSans-32"/>
      <use x="859.197266" xlink:href="#DejaVuSans-100"/>
      <use x="922.673828" xlink:href="#DejaVuSans-105"/>
      <use x="950.457031" xlink:href="#DejaVuSans-109"/>
      <use x="1047.869141" xlink:href="#DejaVuSans-101"/>
      <use x="1109.392578" xlink:href="#DejaVuSans-110"/>
      <use x="1172.771484" xlink:href="#DejaVuSans-115"/>
      <use x="1224.871094" xlink:href="#DejaVuSans-105"/>
      <use x="1252.654297" xlink:href="#DejaVuSans-111"/>
      <use x="1313.835938" xlink:href="#DejaVuSans-110"/>
      <use x="1377.214844" xlink:href="#DejaVuSans-41"/>
     </g>
    </g>
   </g>
   <g id="matplotlib.axis_2">
    <g id="ytick_1">
     <g id="line2d_17">
      <path clip-path="url(#p4924f20ae5)" d="M 57.6 298.944 
L 338.688 298.944 
" style="fill:none;stroke:#b0b0b0;stroke-linecap:square;stroke-width:0.8;"/>
     </g>
     <g id="line2d_18">
      <defs>
       <path d="M 0 0 
L -3.5 0 
" id="m4ccc0e1d6e" style="stroke:#000000;stroke-width:0.8;"/>
      </defs>
      <g>
       <use style="stroke:#000000;stroke-width:0.8;" x="57.6" xlink:href="#m4ccc0e1d6e" y="298.944"/>
      </g>
     </g>
     <g id="text_6">
      <!-- 0.0 -->
      <g transform="translate(25.155 305.02275)scale(0.16 -0.16)">
       <defs>
        <path d="M 10.6875 12.40625 
L 21 12.40625 
L 21 0 
L 10.6875 0 
z
" id="DejaVuSans-46"/>
       </defs>
       <use xlink:href="#DejaVuSans-48"/>
       <use x="63.623047" xlink:href="#DejaVuSans-46"/>
       <use x="95.410156" xlink:href="#DejaVuSans-48"/>
      </g>
     </g>
    </g>
    <g id="ytick_2">
     <g id="line2d_19">
      <path clip-path="url(#p4924f20ae5)" d="M 57.6 240.431525 
L 338.688 240.431525 
" style="fill:none;stroke:#b0b0b0;stroke-linecap:square;stroke-width:0.8;"/>
     </g>
     <g id="line2d_20">
      <g>
       <use style="stroke:#000000;stroke-width:0.8;" x="57.6" xlink:href="#m4ccc0e1d6e" y="240.431525"/>
      </g>
     </g>
     <g id="text_7">
      <!-- 0.2 -->
      <g transform="translate(25.155 246.510275)scale(0.16 -0.16)">
       <use xlink:href="#DejaVuSans-48"/>
       <use x="63.623047" xlink:href="#DejaVuSans-46"/>
       <use x="95.410156" xlink:href="#DejaVuSans-50"/>
      </g>
     </g>
    </g>
    <g id="ytick_3">
     <g id="line2d_21">
      <path clip-path="url(#p4924f20ae5)" d="M 57.6 181.91905 
L 338.688 181.91905 
" style="fill:none;stroke:#b0b0b0;stroke-linecap:square;stroke-width:0.8;"/>
     </g>
     <g id="line2d_22">
      <g>
       <use style="stroke:#000000;stroke-width:0.8;" x="57.6" xlink:href="#m4ccc0e1d6e" y="181.91905"/>
      </g>
     </g>
     <g id="text_8">
      <!-- 0.4 -->
      <g transform="translate(25.155 187.9978)scale(0.16 -0.16)">
       <use xlink:href="#DejaVuSans-48"/>
       <use x="63.623047" xlink:href="#DejaVuSans-46"/>
       <use x="95.410156" xlink:href="#DejaVuSans-52"/>
      </g>
     </g>
    </g>
    <g id="ytick_4">
     <g id="line2d_23">
      <path clip-path="url(#p4924f20ae5)" d="M 57.6 123.406574 
L 338.688 123.406574 
" style="fill:none;stroke:#b0b0b0;stroke-linecap:square;stroke-width:0.8;"/>
     </g>
     <g id="line2d_24">
      <g>
       <use style="stroke:#000000;stroke-width:0.8;" x="57.6" xlink:href="#m4ccc0e1d6e" y="123.406574"/>
      </g>
     </g>
     <g id="text_9">
      <!-- 0.6 -->
      <g transform="translate(25.155 129.485324)scale(0.16 -0.16)">
       <use xlink:href="#DejaVuSans-48"/>
       <use x="63.623047" xlink:href="#DejaVuSans-46"/>
       <use x="95.410156" xlink:href="#DejaVuSans-54"/>
      </g>
     </g>
    </g>
    <g id="ytick_5">
     <g id="line2d_25">
      <path clip-path="url(#p4924f20ae5)" d="M 57.6 64.894099 
L 338.688 64.894099 
" style="fill:none;stroke:#b0b0b0;stroke-linecap:square;stroke-width:0.8;"/>
     </g>
     <g id="line2d_26">
      <g>
       <use style="stroke:#000000;stroke-width:0.8;" x="57.6" xlink:href="#m4ccc0e1d6e" y="64.894099"/>
      </g>
     </g>
     <g id="text_10">
      <!-- 0.8 -->
      <g transform="translate(25.155 70.972849)scale(0.16 -0.16)">
       <defs>
        <path d="M 31.78125 34.625 
Q 24.75 34.625 20.71875 30.859375 
Q 16.703125 27.09375 16.703125 20.515625 
Q 16.703125 13.921875 20.71875 10.15625 
Q 24.75 6.390625 31.78125 6.390625 
Q 38.8125 6.390625 42.859375 10.171875 
Q 46.921875 13.96875 46.921875 20.515625 
Q 46.921875 27.09375 42.890625 30.859375 
Q 38.875 34.625 31.78125 34.625 
z
M 21.921875 38.8125 
Q 15.578125 40.375 12.03125 44.71875 
Q 8.5 49.078125 8.5 55.328125 
Q 8.5 64.0625 14.71875 69.140625 
Q 20.953125 74.21875 31.78125 74.21875 
Q 42.671875 74.21875 48.875 69.140625 
Q 55.078125 64.0625 55.078125 55.328125 
Q 55.078125 49.078125 51.53125 44.71875 
Q 48 40.375 41.703125 38.8125 
Q 48.828125 37.15625 52.796875 32.3125 
Q 56.78125 27.484375 56.78125 20.515625 
Q 56.78125 9.90625 50.3125 4.234375 
Q 43.84375 -1.421875 31.78125 -1.421875 
Q 19.734375 -1.421875 13.25 4.234375 
Q 6.78125 9.90625 6.78125 20.515625 
Q 6.78125 27.484375 10.78125 32.3125 
Q 14.796875 37.15625 21.921875 38.8125 
z
M 18.3125 54.390625 
Q 18.3125 48.734375 21.84375 45.5625 
Q 25.390625 42.390625 31.78125 42.390625 
Q 38.140625 42.390625 41.71875 45.5625 
Q 45.3125 48.734375 45.3125 54.390625 
Q 45.3125 60.0625 41.71875 63.234375 
Q 38.140625 66.40625 31.78125 66.40625 
Q 25.390625 66.40625 21.84375 63.234375 
Q 18.3125 60.0625 18.3125 54.390625 
z
" id="DejaVuSans-56"/>
       </defs>
       <use xlink:href="#DejaVuSans-48"/>
       <use x="63.623047" xlink:href="#DejaVuSans-46"/>
       <use x="95.410156" xlink:href="#DejaVuSans-56"/>
      </g>
     </g>
    </g>
    <g id="ytick_6">
     <g id="line2d_27">
      <path clip-path="url(#p4924f20ae5)" d="M 57.6 6.381624 
L 338.688 6.381624 
" style="fill:none;stroke:#b0b0b0;stroke-linecap:square;stroke-width:0.8;"/>
     </g>
     <g id="line2d_28">
      <g>
       <use style="stroke:#000000;stroke-width:0.8;" x="57.6" xlink:href="#m4ccc0e1d6e" y="6.381624"/>
      </g>
     </g>
     <g id="text_11">
      <!-- 1.0 -->
      <g transform="translate(25.155 12.460374)scale(0.16 -0.16)">
       <use xlink:href="#DejaVuSans-49"/>
       <use x="63.623047" xlink:href="#DejaVuSans-46"/>
       <use x="95.410156" xlink:href="#DejaVuSans-48"/>
      </g>
     </g>
    </g>
    <g id="text_12">
     <!-- Fraction of function,target pairs -->
     <g transform="translate(17.619531 285.585)rotate(-90)scale(0.17 -0.17)">
      <defs>
       <path d="M 9.8125 72.90625 
L 51.703125 72.90625 
L 51.703125 64.59375 
L 19.671875 64.59375 
L 19.671875 43.109375 
L 48.578125 43.109375 
L 48.578125 34.8125 
L 19.671875 34.8125 
L 19.671875 0 
L 9.8125 0 
z
" id="DejaVuSans-70"/>
       <path d="M 41.109375 46.296875 
Q 39.59375 47.171875 37.8125 47.578125 
Q 36.03125 48 33.890625 48 
Q 26.265625 48 22.1875 43.046875 
Q 18.109375 38.09375 18.109375 28.8125 
L 18.109375 0 
L 9.078125 0 
L 9.078125 54.6875 
L 18.109375 54.6875 
L 18.109375 46.1875 
Q 20.953125 51.171875 25.484375 53.578125 
Q 30.03125 56 36.53125 56 
Q 37.453125 56 38.578125 55.875 
Q 39.703125 55.765625 41.0625 55.515625 
z
" id="DejaVuSans-114"/>
       <path d="M 48.78125 52.59375 
L 48.78125 44.1875 
Q 44.96875 46.296875 41.140625 47.34375 
Q 37.3125 48.390625 33.40625 48.390625 
Q 24.65625 48.390625 19.8125 42.84375 
Q 14.984375 37.3125 14.984375 27.296875 
Q 14.984375 17.28125 19.8125 11.734375 
Q 24.65625 6.203125 33.40625 6.203125 
Q 37.3125 6.203125 41.140625 7.25 
Q 44.96875 8.296875 48.78125 10.40625 
L 48.78125 2.09375 
Q 45.015625 0.34375 40.984375 -0.53125 
Q 36.96875 -1.421875 32.421875 -1.421875 
Q 20.0625 -1.421875 12.78125 6.34375 
Q 5.515625 14.109375 5.515625 27.296875 
Q 5.515625 40.671875 12.859375 48.328125 
Q 20.21875 56 33.015625 56 
Q 37.15625 56 41.109375 55.140625 
Q 45.0625 54.296875 48.78125 52.59375 
z
" id="DejaVuSans-99"/>
       <path d="M 18.3125 70.21875 
L 18.3125 54.6875 
L 36.8125 54.6875 
L 36.8125 47.703125 
L 18.3125 47.703125 
L 18.3125 18.015625 
Q 18.3125 11.328125 20.140625 9.421875 
Q 21.96875 7.515625 27.59375 7.515625 
L 36.8125 7.515625 
L 36.8125 0 
L 27.59375 0 
Q 17.1875 0 13.234375 3.875 
Q 9.28125 7.765625 9.28125 18.015625 
L 9.28125 47.703125 
L 2.6875 47.703125 
L 2.6875 54.6875 
L 9.28125 54.6875 
L 9.28125 70.21875 
z
" id="DejaVuSans-116"/>
       <path d="M 8.5 21.578125 
L 8.5 54.6875 
L 17.484375 54.6875 
L 17.484375 21.921875 
Q 17.484375 14.15625 20.5 10.265625 
Q 23.53125 6.390625 29.59375 6.390625 
Q 36.859375 6.390625 41.078125 11.03125 
Q 45.3125 15.671875 45.3125 23.6875 
L 45.3125 54.6875 
L 54.296875 54.6875 
L 54.296875 0 
L 45.3125 0 
L 45.3125 8.40625 
Q 42.046875 3.421875 37.71875 1 
Q 33.40625 -1.421875 27.6875 -1.421875 
Q 18.265625 -1.421875 13.375 4.4375 
Q 8.5 10.296875 8.5 21.578125 
z
M 31.109375 56 
z
" id="DejaVuSans-117"/>
       <path d="M 11.71875 12.40625 
L 22.015625 12.40625 
L 22.015625 4 
L 14.015625 -11.625 
L 7.71875 -11.625 
L 11.71875 4 
z
" id="DejaVuSans-44"/>
       <path d="M 18.109375 8.203125 
L 18.109375 -20.796875 
L 9.078125 -20.796875 
L 9.078125 54.6875 
L 18.109375 54.6875 
L 18.109375 46.390625 
Q 20.953125 51.265625 25.265625 53.625 
Q 29.59375 56 35.59375 56 
Q 45.5625 56 51.78125 48.09375 
Q 58.015625 40.1875 58.015625 27.296875 
Q 58.015625 14.40625 51.78125 6.484375 
Q 45.5625 -1.421875 35.59375 -1.421875 
Q 29.59375 -1.421875 25.265625 0.953125 
Q 20.953125 3.328125 18.109375 8.203125 
z
M 48.6875 27.296875 
Q 48.6875 37.203125 44.609375 42.84375 
Q 40.53125 48.484375 33.40625 48.484375 
Q 26.265625 48.484375 22.1875 42.84375 
Q 18.109375 37.203125 18.109375 27.296875 
Q 18.109375 17.390625 22.1875 11.75 
Q 26.265625 6.109375 33.40625 6.109375 
Q 40.53125 6.109375 44.609375 11.75 
Q 48.6875 17.390625 48.6875 27.296875 
z
" id="DejaVuSans-112"/>
      </defs>
      <use xlink:href="#DejaVuSans-70"/>
      <use x="50.269531" xlink:href="#DejaVuSans-114"/>
      <use x="91.382812" xlink:href="#DejaVuSans-97"/>
      <use x="152.662109" xlink:href="#DejaVuSans-99"/>
      <use x="207.642578" xlink:href="#DejaVuSans-116"/>
      <use x="246.851562" xlink:href="#DejaVuSans-105"/>
      <use x="274.634766" xlink:href="#DejaVuSans-111"/>
      <use x="335.816406" xlink:href="#DejaVuSans-110"/>
      <use x="399.195312" xlink:href="#DejaVuSans-32"/>
      <use x="430.982422" xlink:href="#DejaVuSans-111"/>
      <use x="492.164062" xlink:href="#DejaVuSans-102"/>
      <use x="527.369141" xlink:href="#DejaVuSans-32"/>
      <use x="559.15625" xlink:href="#DejaVuSans-102"/>
      <use x="594.361328" xlink:href="#DejaVuSans-117"/>
      <use x="657.740234" xlink:href="#DejaVuSans-110"/>
      <use x="721.119141" xlink:href="#DejaVuSans-99"/>
      <use x="776.099609" xlink:href="#DejaVuSans-116"/>
      <use x="815.308594" xlink:href="#DejaVuSans-105"/>
      <use x="843.091797" xlink:href="#DejaVuSans-111"/>
      <use x="904.273438" xlink:href="#DejaVuSans-110"/>
      <use x="967.652344" xlink:href="#DejaVuSans-44"/>
      <use x="999.439453" xlink:href="#DejaVuSans-116"/>
      <use x="1038.648438" xlink:href="#DejaVuSans-97"/>
      <use x="1099.927734" xlink:href="#DejaVuSans-114"/>
      <use x="1139.291016" xlink:href="#DejaVuSans-103"/>
      <use x="1202.767578" xlink:href="#DejaVuSans-101"/>
      <use x="1264.291016" xlink:href="#DejaVuSans-116"/>
      <use x="1303.5" xlink:href="#DejaVuSans-32"/>
      <use x="1335.287109" xlink:href="#DejaVuSans-112"/>
      <use x="1398.763672" xlink:href="#DejaVuSans-97"/>
      <use x="1460.042969" xlink:href="#DejaVuSans-105"/>
      <use x="1487.826172" xlink:href="#DejaVuSans-114"/>
      <use x="1528.939453" xlink:href="#DejaVuSans-115"/>
     </g>
    </g>
   </g>
   <g id="line2d_29">
    <defs>
     <path d="M 0 1.5 
C 0.397805 1.5 0.77937 1.341951 1.06066 1.06066 
C 1.341951 0.77937 1.5 0.397805 1.5 0 
C 1.5 -0.397805 1.341951 -0.77937 1.06066 -1.06066 
C 0.77937 -1.341951 0.397805 -1.5 0 -1.5 
C -0.397805 -1.5 -0.77937 -1.341951 -1.06066 -1.06066 
C -1.341951 -0.77937 -1.5 -0.397805 -1.5 0 
C -1.5 0.397805 -1.341951 0.77937 -1.06066 1.06066 
C -0.77937 1.341951 -0.397805 1.5 0 1.5 
z
" id="m752c9c2917" style="stroke:#000080;"/>
    </defs>
    <g>
     <use style="fill:#000080;stroke:#000080;" x="243.455844" xlink:href="#m752c9c2917" y="77.504546"/>
     <use style="fill:#000080;stroke:#000080;" x="243.455844" xlink:href="#m752c9c2917" y="77.504546"/>
    </g>
   </g>
   <g id="line2d_30">
    <path d="M 17.444571 298.944 
L 17.444571 294.404239 
L 81.775977 294.404239 
L 81.775977 293.899821 
L 94.294587 293.899821 
L 94.294587 293.395403 
L 98.270913 293.395403 
L 98.270913 292.386567 
L 101.506816 292.386567 
L 101.506816 291.377732 
L 104.23523 291.377732 
L 104.23523 290.873314 
L 106.593963 290.873314 
L 106.593963 289.864478 
L 110.527398 289.864478 
L 110.527398 289.36006 
L 112.204777 289.36006 
L 112.204777 287.846806 
L 113.73488 287.846806 
L 113.73488 286.837971 
L 115.141496 286.837971 
L 115.141496 285.829135 
L 116.443076 285.829135 
L 116.443076 285.324717 
L 118.786692 285.324717 
L 118.786692 284.820299 
L 119.850084 284.820299 
L 119.850084 283.811463 
L 120.852343 283.811463 
L 120.852343 282.29821 
L 121.800118 282.29821 
L 121.800118 281.289374 
L 122.699028 281.289374 
L 122.699028 280.784956 
L 123.553867 280.784956 
L 123.553867 280.280538 
L 124.368753 280.280538 
L 124.368753 279.271702 
L 125.147256 279.271702 
L 125.147256 276.749613 
L 126.607172 276.749613 
L 126.607172 276.245195 
L 127.293718 276.245195 
L 127.293718 275.236359 
L 128.590686 275.236359 
L 128.590686 273.723105 
L 129.204706 273.723105 
L 129.204706 273.218688 
L 129.79784 273.218688 
L 129.79784 272.71427 
L 130.371462 272.71427 
L 130.371462 271.705434 
L 131.465029 271.705434 
L 131.465029 271.201016 
L 132.494049 271.201016 
L 132.494049 270.696598 
L 132.986651 270.696598 
L 132.986651 270.19218 
L 152.344968 270.19218 
L 152.344968 269.687762 
L 152.774102 269.687762 
L 152.774102 269.183344 
L 155.495282 269.183344 
L 155.495282 268.678927 
L 159.608019 268.678927 
L 159.608019 268.174509 
L 160.825941 268.174509 
L 160.825941 267.670091 
L 161.792252 267.670091 
L 161.792252 267.165673 
L 162.598085 267.165673 
L 162.598085 266.661255 
L 162.728843 266.661255 
L 162.728843 266.156837 
L 163.835954 266.156837 
L 163.835954 265.148001 
L 164.012526 265.148001 
L 164.063205 263.13033 
L 165.583216 263.13033 
L 165.583216 262.121494 
L 165.760698 262.121494 
L 165.760698 261.617076 
L 166.289413 261.617076 
L 166.289413 261.112658 
L 167.573724 261.112658 
L 167.573724 260.60824 
L 167.929737 260.60824 
L 168.038548 259.599405 
L 168.260276 259.599405 
L 168.260276 259.094987 
L 169.420364 259.094987 
L 169.434674 258.086151 
L 169.562936 258.086151 
L 169.562936 257.581733 
L 169.678981 257.581733 
L 169.780242 255.564061 
L 170.687376 255.564061 
L 170.687376 255.059644 
L 170.959479 255.059644 
L 171.006598 253.041972 
L 171.232562 253.041972 
L 171.232562 252.537554 
L 171.514136 252.537554 
L 171.514136 251.528718 
L 171.796233 251.528718 
L 171.796233 251.0243 
L 172.407511 251.0243 
L 172.462909 250.015465 
L 172.558835 250.015465 
L 172.58751 248.502211 
L 172.869348 248.502211 
L 172.869348 247.997793 
L 173.08184 247.997793 
L 173.08184 247.493375 
L 173.234351 247.493375 
L 173.234351 246.988957 
L 173.424271 246.988957 
L 173.515065 245.980122 
L 173.864714 245.980122 
L 173.864714 245.475704 
L 174.023756 245.475704 
L 174.023756 244.971286 
L 174.172643 244.971286 
L 174.172643 244.466868 
L 174.337554 244.466868 
L 174.406527 243.458032 
L 175.356778 243.458032 
L 175.356778 242.953614 
L 175.476552 242.953614 
L 175.553262 241.944778 
L 175.641664 241.944778 
L 175.641664 241.440361 
L 175.955464 241.440361 
L 175.955464 240.431525 
L 176.213366 240.431525 
L 176.275317 238.413853 
L 176.665166 238.413853 
L 176.768798 236.9006 
L 176.791327 236.9006 
L 176.791327 235.891764 
L 177.146049 235.891764 
L 177.146049 234.882928 
L 177.448587 234.882928 
L 177.448587 234.37851 
L 177.621184 234.37851 
L 177.621184 233.369674 
L 177.765495 233.369674 
L 177.774364 231.352003 
L 177.99814 231.352003 
L 177.99814 230.847585 
L 178.269141 230.847585 
L 178.269141 229.838749 
L 178.449203 229.838749 
L 178.486696 227.821078 
L 178.634178 227.821078 
L 178.634178 226.812242 
L 178.883902 226.812242 
L 178.978496 225.298988 
L 179.180888 225.298988 
L 179.180888 224.290152 
L 179.413275 224.290152 
L 179.524307 222.776899 
L 179.554757 222.776899 
L 179.554757 222.272481 
L 179.669668 222.272481 
L 179.67444 220.254809 
L 180.005247 220.254809 
L 180.005247 219.245973 
L 180.163688 219.245973 
L 180.163688 218.237138 
L 180.352854 218.237138 
L 180.426122 216.219466 
L 180.54453 216.219466 
L 180.54453 215.715048 
L 180.957172 215.715048 
L 181.005862 213.697377 
L 181.575507 213.697377 
L 181.653764 212.184123 
L 181.76697 212.184123 
L 181.76697 211.175287 
L 181.925631 211.175287 
L 181.956354 209.157616 
L 182.165775 209.157616 
L 182.205708 207.644362 
L 182.43798 207.644362 
L 182.500302 206.131108 
L 183.188444 206.131108 
L 183.188444 205.122272 
L 183.307643 205.122272 
L 183.307643 204.113437 
L 183.53598 204.113437 
L 183.53598 203.104601 
L 186.41258 203.104601 
L 186.41258 202.095765 
L 186.802617 202.095765 
L 186.802617 201.086929 
L 195.174076 201.086929 
L 195.174076 200.078094 
L 195.369141 200.078094 
L 195.369141 199.069258 
L 196.577456 199.069258 
L 196.577456 198.060422 
L 197.047087 198.060422 
L 197.047087 197.556004 
L 197.239821 197.556004 
L 197.239821 197.051586 
L 197.960623 197.051586 
L 198.021264 195.538333 
L 198.515151 195.538333 
L 198.515151 195.033915 
L 198.703622 195.033915 
L 198.703622 194.529497 
L 198.93704 194.529497 
L 198.93704 194.025079 
L 199.168936 194.025079 
L 199.168936 193.520661 
L 199.601371 193.520661 
L 199.601371 192.511825 
L 200.207547 192.511825 
L 200.207547 192.007407 
L 200.326197 192.007407 
L 200.326197 191.502989 
L 200.505321 191.502989 
L 200.505321 190.998572 
L 201.655253 190.998572 
L 201.655253 190.494154 
L 202.425283 190.494154 
L 202.425283 189.989736 
L 202.886793 189.989736 
L 202.886793 189.485318 
L 203.254728 189.485318 
L 203.254728 188.9809 
L 204.023692 188.9809 
L 204.023692 188.476482 
L 204.180443 188.476482 
L 204.180443 187.972064 
L 204.521181 187.972064 
L 204.521181 186.963228 
L 205.557895 186.963228 
L 205.557895 186.458811 
L 205.977118 186.458811 
L 205.977118 185.449975 
L 206.239782 185.449975 
L 206.239782 184.441139 
L 206.764638 184.441139 
L 206.764638 183.432303 
L 207.075701 183.432303 
L 207.075701 182.927885 
L 207.684535 182.927885 
L 207.684535 182.423467 
L 208.014229 182.423467 
L 208.014229 181.91905 
L 208.155504 181.91905 
L 208.155504 180.910214 
L 208.489906 180.910214 
L 208.489906 180.405796 
L 208.84013 180.405796 
L 208.84013 179.901378 
L 209.39303 179.901378 
L 209.39303 179.39696 
L 209.944082 179.39696 
L 209.944082 178.892542 
L 210.264068 178.892542 
L 210.264068 177.883706 
L 210.493472 177.883706 
L 210.493472 177.379288 
L 211.072916 177.379288 
L 211.072916 176.370453 
L 211.522177 176.370453 
L 211.522177 175.866035 
L 211.737736 175.866035 
L 211.737736 175.361617 
L 212.183964 175.361617 
L 212.183964 174.857199 
L 212.516802 174.857199 
L 212.591865 173.848363 
L 212.69536 173.848363 
L 212.69536 173.343945 
L 213.114292 173.343945 
L 213.114292 172.839527 
L 213.850228 172.839527 
L 213.850228 171.830692 
L 214.293153 171.830692 
L 214.314549 170.821856 
L 214.639225 170.821856 
L 214.639225 170.317438 
L 214.840444 170.317438 
L 214.840444 169.81302 
L 215.119972 169.81302 
L 215.119972 168.804184 
L 215.596135 168.804184 
L 215.596135 167.795349 
L 215.856112 167.795349 
L 215.856112 167.290931 
L 216.118764 167.290931 
L 216.118764 166.786513 
L 216.429393 166.786513 
L 216.429393 166.282095 
L 216.620261 166.282095 
L 216.620261 165.777677 
L 216.907122 165.777677 
L 216.918026 163.760005 
L 217.32536 163.760005 
L 217.32536 163.255588 
L 218.137979 163.255588 
L 218.137979 162.75117 
L 218.546015 162.75117 
L 218.546015 161.742334 
L 218.896638 161.742334 
L 218.923963 160.22908 
L 219.023182 160.22908 
L 219.133759 158.715827 
L 219.397557 158.715827 
L 219.397557 158.211409 
L 219.627043 158.211409 
L 219.627043 157.706991 
L 219.821915 157.706991 
L 219.893999 156.698155 
L 220.272665 156.698155 
L 220.272665 156.193737 
L 220.613053 156.193737 
L 220.686034 155.184901 
L 221.151858 155.184901 
L 221.151858 154.680483 
L 221.301437 154.680483 
L 221.368979 152.662812 
L 221.509783 152.662812 
L 221.592056 150.64514 
L 222.233164 150.64514 
L 222.233164 149.636305 
L 222.409074 149.636305 
L 222.409074 149.131887 
L 222.693152 149.131887 
L 222.790852 147.114215 
L 223.007835 147.114215 
L 223.082954 146.105379 
L 223.455969 146.105379 
L 223.455969 145.600961 
L 224.066613 145.600961 
L 224.11917 144.592126 
L 224.208229 144.592126 
L 224.208229 144.087708 
L 224.338146 144.087708 
L 224.391851 143.078872 
L 225.245002 143.078872 
L 225.245002 142.574454 
L 225.854774 142.574454 
L 225.901205 141.565618 
L 226.373931 141.565618 
L 226.470805 140.052365 
L 226.695489 140.052365 
L 226.805421 138.539111 
L 227.228262 138.539111 
L 227.228262 138.034693 
L 227.513302 138.034693 
L 227.513302 137.530275 
L 227.753218 137.530275 
L 227.831088 136.017022 
L 227.892595 136.017022 
L 227.958276 133.99935 
L 228.702609 133.99935 
L 228.702609 133.494932 
L 228.926338 133.494932 
L 229.021981 131.981678 
L 229.237318 131.981678 
L 229.303861 130.972843 
L 229.365182 130.972843 
L 229.475292 129.964007 
L 229.667867 129.964007 
L 229.667867 128.955171 
L 229.904004 128.955171 
L 229.904004 128.450753 
L 230.292691 128.450753 
L 230.292691 127.946335 
L 230.433431 127.946335 
L 230.433431 126.937499 
L 230.922608 126.937499 
L 231.027356 125.928664 
L 231.285516 125.928664 
L 231.392539 123.910992 
L 231.417678 123.910992 
L 231.472662 121.893321 
L 231.636744 121.893321 
L 231.636744 121.388903 
L 231.823776 121.388903 
L 231.901867 119.875649 
L 232.074276 119.875649 
L 232.074276 119.371231 
L 232.25623 119.371231 
L 232.25623 118.866813 
L 232.425728 118.866813 
L 232.499407 117.857977 
L 232.705754 117.857977 
L 232.725883 116.344724 
L 233.074916 116.344724 
L 233.074916 115.335888 
L 233.276075 115.335888 
L 233.334308 114.327052 
L 233.564305 114.327052 
L 233.564305 113.822634 
L 233.882268 113.822634 
L 233.99197 112.309381 
L 234.024486 112.309381 
L 234.125315 110.291709 
L 234.284049 110.291709 
L 234.330295 107.76962 
L 234.503028 107.76962 
L 234.503028 107.265202 
L 234.642197 107.265202 
L 234.666529 105.751948 
L 235.003799 105.751948 
L 235.055153 103.734277 
L 235.318975 103.734277 
L 235.318975 103.229859 
L 235.599993 103.229859 
L 235.599993 102.725441 
L 235.761099 102.725441 
L 235.815807 101.212187 
L 236.002329 101.212187 
L 236.002329 100.707769 
L 236.132448 100.707769 
L 236.132448 99.698933 
L 236.371771 99.698933 
L 236.371771 98.690098 
L 236.774103 98.690098 
L 236.841384 96.672426 
L 236.9669 96.672426 
L 236.9669 95.66359 
L 237.141567 95.66359 
L 237.141567 95.159172 
L 237.267114 95.159172 
L 237.267114 94.150337 
L 237.388859 94.150337 
L 237.491343 92.637083 
L 237.671097 92.637083 
L 237.671097 92.132665 
L 237.872035 92.132665 
L 237.928629 91.123829 
L 237.99374 91.123829 
L 238.102058 90.114994 
L 238.203053 90.114994 
L 238.260077 89.106158 
L 238.523495 89.106158 
L 238.523495 88.097322 
L 238.873037 88.097322 
L 238.873037 87.088486 
L 239.095841 87.088486 
L 239.095841 86.07965 
L 239.459456 86.07965 
L 239.459456 85.575233 
L 239.672287 85.575233 
L 239.672287 84.566397 
L 239.844992 84.566397 
L 239.844992 84.061979 
L 240.04816 84.061979 
L 240.04816 83.557561 
L 240.466291 83.557561 
L 240.466291 82.548725 
L 241.306983 82.548725 
L 241.306983 81.539889 
L 241.433138 81.539889 
L 241.433138 81.035471 
L 241.691915 81.035471 
L 241.691915 80.531054 
L 242.125531 80.531054 
L 242.125531 80.026636 
L 242.472216 80.026636 
L 242.472216 79.0178 
L 243.1611 79.0178 
L 243.1611 78.008964 
L 243.455844 78.008964 
L 243.455844 77.504546 
L 338.688 77.504546 
L 338.688 77.504546 
" style="fill:none;stroke:#000080;stroke-linecap:square;stroke-width:1.5;"/>
   </g>
   <g id="line2d_31">
    <defs>
     <path d="M 0 6 
C 1.591219 6 3.117479 5.367802 4.242641 4.242641 
C 5.367802 3.117479 6 1.591219 6 0 
C 6 -1.591219 5.367802 -3.117479 4.242641 -4.242641 
C 3.117479 -5.367802 1.591219 -6 0 -6 
C -1.591219 -6 -3.117479 -5.367802 -4.242641 -4.242641 
C -5.367802 -3.117479 -6 -1.591219 -6 0 
C -6 1.591219 -5.367802 3.117479 -4.242641 4.242641 
C -3.117479 5.367802 -1.591219 6 0 6 
z
" id="m95c8f75c1a" style="stroke:#000080;stroke-width:1.5;"/>
    </defs>
    <g>
     <use style="fill-opacity:0;stroke:#000080;stroke-width:1.5;" x="94.294587" xlink:href="#m95c8f75c1a" y="293.395403"/>
     <use style="fill-opacity:0;stroke:#000080;stroke-width:1.5;" x="169.780242" xlink:href="#m95c8f75c1a" y="255.564061"/>
     <use style="fill-opacity:0;stroke:#000080;stroke-width:1.5;" x="215.119972" xlink:href="#m95c8f75c1a" y="169.81302"/>
     <use style="fill-opacity:0;stroke:#000080;stroke-width:1.5;" x="237.872035" xlink:href="#m95c8f75c1a" y="92.132665"/>
     <use style="fill-opacity:0;stroke:#000080;stroke-width:1.5;" x="243.455844" xlink:href="#m95c8f75c1a" y="77.504546"/>
     <use style="fill-opacity:0;stroke:#000080;stroke-width:1.5;" x="338.688" xlink:href="#m95c8f75c1a" y="77.504546"/>
    </g>
   </g>
   <g id="line2d_32">
    <path style="fill:none;stroke:#000080;stroke-linecap:square;stroke-width:1.5;"/>
    <g/>
   </g>
   <g id="line2d_33">
    <path clip-path="url(#p4924f20ae5)" d="M 258.377143 77.504546 
" style="fill:none;stroke:#000080;stroke-linecap:square;stroke-width:1.5;"/>
    <defs>
     <path d="M -12 12 
L 12 -12 
M -12 -12 
L 12 12 
" id="m3b9591ec3e" style="stroke:#000080;"/>
    </defs>
    <g clip-path="url(#p4924f20ae5)">
     <use style="fill:#000080;stroke:#000080;" x="258.377143" xlink:href="#m3b9591ec3e" y="77.504546"/>
    </g>
   </g>
   <g id="line2d_34">
    <defs>
     <path d="M 0 1.5 
C 0.397805 1.5 0.77937 1.341951 1.06066 1.06066 
C 1.341951 0.77937 1.5 0.397805 1.5 0 
C 1.5 -0.397805 1.341951 -0.77937 1.06066 -1.06066 
C 0.77937 -1.341951 0.397805 -1.5 0 -1.5 
C -0.397805 -1.5 -0.77937 -1.341951 -1.06066 -1.06066 
C -1.341951 -0.77937 -1.5 -0.397805 -1.5 0 
C -1.5 0.397805 -1.341951 0.77937 -1.06066 1.06066 
C -0.77937 1.341951 -0.397805 1.5 0 1.5 
z
" id="m6592d2c208" style="stroke:#ff00ff;"/>
    </defs>
    <g>
     <use style="fill:#ff00ff;stroke:#ff00ff;" x="257.860764" xlink:href="#m6592d2c208" y="55.310159"/>
     <use style="fill:#ff00ff;stroke:#ff00ff;" x="257.860764" xlink:href="#m6592d2c208" y="55.310159"/>
    </g>
   </g>
   <g id="line2d_35">
    <path d="M 17.444571 298.944 
L 17.444571 297.430746 
L 98.270913 297.430746 
L 98.270913 296.926328 
L 104.23523 296.926328 
L 104.23523 295.917493 
L 110.527398 295.917493 
L 110.527398 294.908657 
L 112.204777 294.908657 
L 112.204777 293.395403 
L 113.73488 293.395403 
L 113.73488 292.890985 
L 116.443076 292.890985 
L 116.443076 292.386567 
L 117.654224 292.386567 
L 117.654224 291.377732 
L 118.786692 291.377732 
L 118.786692 289.864478 
L 119.850084 289.864478 
L 119.850084 289.36006 
L 120.852343 289.36006 
L 120.852343 288.855642 
L 121.800118 288.855642 
L 121.800118 287.846806 
L 122.699028 287.846806 
L 122.699028 286.333553 
L 123.553867 286.333553 
L 123.553867 284.820299 
L 124.368753 284.820299 
L 124.368753 284.315881 
L 125.147256 284.315881 
L 125.147256 283.811463 
L 125.892487 283.811463 
L 125.892487 283.307045 
L 126.607172 283.307045 
L 126.607172 282.29821 
L 127.293718 282.29821 
L 127.293718 281.289374 
L 127.954256 281.289374 
L 127.954256 279.77612 
L 128.590686 279.77612 
L 128.590686 278.767284 
L 129.204706 278.767284 
L 129.204706 277.758449 
L 130.371462 277.758449 
L 130.371462 277.254031 
L 130.926816 277.254031 
L 130.926816 276.245195 
L 131.465029 276.245195 
L 131.465029 275.236359 
L 131.987128 275.236359 
L 131.987128 274.227523 
L 132.494049 274.227523 
L 132.494049 273.723105 
L 133.46572 273.723105 
L 133.46572 273.218688 
L 134.386096 273.218688 
L 134.386096 272.71427 
L 134.828688 272.71427 
L 134.828688 272.209852 
L 136.092812 272.209852 
L 136.092812 271.705434 
L 151.170613 271.705434 
L 151.170613 271.201016 
L 152.322086 271.201016 
L 152.322086 270.696598 
L 154.787617 270.696598 
L 154.787617 270.19218 
L 157.220355 270.19218 
L 157.220355 269.687762 
L 157.77619 269.687762 
L 157.820792 268.174509 
L 158.599388 268.174509 
L 158.599388 267.670091 
L 158.98905 267.670091 
L 158.98905 267.165673 
L 159.129083 267.165673 
L 159.134248 266.156837 
L 159.698248 266.156837 
L 159.698248 265.652419 
L 160.413354 265.652419 
L 160.413354 264.643583 
L 160.56149 264.643583 
L 160.56149 263.634748 
L 161.091058 263.634748 
L 161.150963 262.625912 
L 162.191157 262.625912 
L 162.191157 261.617076 
L 162.9543 261.617076 
L 162.9543 260.60824 
L 163.230042 260.60824 
L 163.230042 260.103822 
L 163.384517 260.103822 
L 163.384517 259.599405 
L 164.712717 259.599405 
L 164.712717 259.094987 
L 164.976981 259.094987 
L 164.976981 258.590569 
L 165.138764 258.590569 
L 165.189927 257.581733 
L 165.682828 257.581733 
L 165.682828 257.077315 
L 166.096483 257.077315 
L 166.096483 256.572897 
L 166.357802 256.572897 
L 166.357802 256.068479 
L 166.679039 256.068479 
L 166.782596 254.555226 
L 167.249248 254.555226 
L 167.249248 253.54639 
L 168.050941 253.54639 
L 168.050941 252.537554 
L 168.195896 252.537554 
L 168.248032 251.528718 
L 168.324419 251.528718 
L 168.415645 250.519883 
L 168.482242 250.519883 
L 168.482242 250.015465 
L 168.632659 250.015465 
L 168.671556 248.502211 
L 169.207196 248.502211 
L 169.207196 247.997793 
L 169.537359 247.997793 
L 169.59698 246.484539 
L 170.228776 246.484539 
L 170.286084 244.971286 
L 170.348634 244.971286 
L 170.37576 243.458032 
L 170.575192 243.458032 
L 170.575192 242.953614 
L 170.801489 242.953614 
L 170.82792 241.944778 
L 170.998753 241.944778 
L 170.998753 240.935943 
L 171.217072 240.935943 
L 171.217072 240.431525 
L 171.683438 240.431525 
L 171.683438 238.918271 
L 171.95293 238.918271 
L 172.031987 236.9006 
L 172.201242 236.9006 
L 172.201242 236.396182 
L 172.361615 236.396182 
L 172.361615 235.891764 
L 172.48694 235.891764 
L 172.48694 234.882928 
L 172.647099 234.882928 
L 172.68038 233.874092 
L 173.24815 233.874092 
L 173.255045 232.360839 
L 173.589616 232.360839 
L 173.589616 231.352003 
L 173.731062 231.352003 
L 173.83362 228.829913 
L 174.211842 228.829913 
L 174.211842 227.821078 
L 174.344032 227.821078 
L 174.447351 226.307824 
L 174.808425 226.307824 
L 174.808425 225.298988 
L 175.106469 225.298988 
L 175.19099 223.785734 
L 175.535124 223.785734 
L 175.551248 222.776899 
L 175.72962 222.776899 
L 175.72962 221.768063 
L 175.888413 221.768063 
L 175.888413 220.759227 
L 176.18425 220.759227 
L 176.18425 219.750391 
L 176.413908 219.750391 
L 176.413908 219.245973 
L 176.729302 219.245973 
L 176.729302 218.741555 
L 177.114767 218.741555 
L 177.221262 217.228302 
L 177.671204 217.228302 
L 177.671204 216.219466 
L 177.845155 216.219466 
L 177.845155 215.21063 
L 178.050583 215.21063 
L 178.050583 214.706212 
L 178.767027 214.706212 
L 178.767027 213.697377 
L 178.950337 213.697377 
L 178.999998 211.679705 
L 179.535532 211.679705 
L 179.615499 210.166451 
L 179.791727 210.166451 
L 179.791727 209.157616 
L 180.219266 209.157616 
L 180.219266 208.14878 
L 180.339082 208.14878 
L 180.339082 207.644362 
L 180.526366 207.644362 
L 180.526366 206.635526 
L 180.750576 206.635526 
L 180.750576 205.62669 
L 181.110162 205.62669 
L 181.13943 204.113437 
L 181.368935 204.113437 
L 181.368935 203.104601 
L 182.314031 203.104601 
L 182.413533 201.591347 
L 182.589333 201.591347 
L 182.589333 201.086929 
L 183.21183 201.086929 
L 183.21183 200.078094 
L 183.441416 200.078094 
L 183.441416 199.573676 
L 184.267247 199.573676 
L 184.267247 199.069258 
L 184.522016 199.069258 
L 184.522016 198.060422 
L 185.299317 198.060422 
L 185.299317 197.556004 
L 185.880435 197.556004 
L 185.880435 196.547168 
L 186.181967 196.547168 
L 186.181967 195.538333 
L 188.242101 195.538333 
L 188.242101 194.529497 
L 189.316571 194.529497 
L 189.316571 194.025079 
L 189.800174 194.025079 
L 189.800174 193.016243 
L 190.230839 193.016243 
L 190.230839 192.511825 
L 191.744926 192.511825 
L 191.808486 191.502989 
L 193.587033 191.502989 
L 193.587033 190.998572 
L 217.904593 190.998572 
L 217.904593 190.494154 
L 218.38626 190.494154 
L 218.38626 189.989736 
L 218.737199 189.989736 
L 218.737199 188.9809 
L 219.032007 188.9809 
L 219.123329 187.972064 
L 219.543178 187.972064 
L 219.543178 187.467646 
L 219.872278 187.467646 
L 219.940678 185.954393 
L 220.515165 185.954393 
L 220.515165 185.449975 
L 221.094713 185.449975 
L 221.094713 184.945557 
L 221.24566 184.945557 
L 221.24566 184.441139 
L 222.311412 184.441139 
L 222.408662 182.423467 
L 222.746377 182.423467 
L 222.774741 181.414632 
L 223.012871 181.414632 
L 223.103134 180.405796 
L 223.976324 180.405796 
L 223.976324 179.39696 
L 224.089174 179.39696 
L 224.089174 178.892542 
L 224.226406 178.892542 
L 224.226406 178.388124 
L 224.497551 178.388124 
L 224.497551 177.379288 
L 224.912037 177.379288 
L 224.912037 176.874871 
L 225.530031 176.874871 
L 225.530031 176.370453 
L 226.130862 176.370453 
L 226.162523 175.361617 
L 227.024809 175.361617 
L 227.024809 174.857199 
L 228.215014 174.857199 
L 228.215014 174.352781 
L 228.723822 174.352781 
L 228.723822 173.343945 
L 228.911323 173.343945 
L 228.911323 172.839527 
L 229.047216 172.839527 
L 229.047216 171.830692 
L 229.31208 171.830692 
L 229.37282 170.317438 
L 229.636085 170.317438 
L 229.636085 169.81302 
L 230.242782 169.81302 
L 230.298102 168.299766 
L 230.621503 168.299766 
L 230.655132 166.786513 
L 230.75206 166.786513 
L 230.75206 166.282095 
L 230.871011 166.282095 
L 230.871011 165.777677 
L 231.059042 165.777677 
L 231.059042 165.273259 
L 231.279909 165.273259 
L 231.362356 163.255588 
L 231.508598 163.255588 
L 231.613456 161.742334 
L 231.723235 161.742334 
L 231.767403 160.733498 
L 231.877974 160.733498 
L 231.969941 159.724662 
L 232.197719 159.724662 
L 232.197719 159.220244 
L 232.41808 159.220244 
L 232.483634 158.211409 
L 233.026109 158.211409 
L 233.100792 156.193737 
L 233.423812 156.193737 
L 233.423812 155.689319 
L 233.682991 155.689319 
L 233.741531 154.176066 
L 233.953027 154.176066 
L 234.055394 152.158394 
L 234.389811 152.158394 
L 234.389811 151.653976 
L 234.717801 151.653976 
L 234.717801 151.149558 
L 235.137589 151.149558 
L 235.175429 150.140722 
L 235.31374 150.140722 
L 235.31374 149.636305 
L 235.434461 149.636305 
L 235.529483 147.618633 
L 235.709482 147.618633 
L 235.709482 147.114215 
L 236.087931 147.114215 
L 236.195216 146.105379 
L 236.449329 146.105379 
L 236.558565 144.087708 
L 236.661367 144.087708 
L 236.661367 143.078872 
L 237.031071 143.078872 
L 237.063779 141.565618 
L 237.148815 141.565618 
L 237.148815 141.0612 
L 237.327452 141.0612 
L 237.432209 139.547947 
L 237.494 139.547947 
L 237.494 139.043529 
L 237.647012 139.043529 
L 237.647012 138.539111 
L 237.919951 138.539111 
L 237.919951 138.034693 
L 238.039477 138.034693 
L 238.039477 137.530275 
L 238.165026 137.530275 
L 238.165026 137.025857 
L 238.336682 137.025857 
L 238.336682 136.017022 
L 238.509443 136.017022 
L 238.509443 135.512604 
L 238.893623 135.512604 
L 238.936052 134.503768 
L 239.313077 134.503768 
L 239.379708 132.990514 
L 239.941628 132.990514 
L 239.941628 132.486096 
L 240.141248 132.486096 
L 240.248199 130.468425 
L 240.405841 130.468425 
L 240.405841 129.459589 
L 240.539631 129.459589 
L 240.647885 127.946335 
L 240.687845 127.946335 
L 240.745553 126.937499 
L 240.889658 126.937499 
L 240.889658 126.433082 
L 241.003137 126.433082 
L 241.003137 125.424246 
L 241.124655 125.424246 
L 241.124655 124.41541 
L 241.264325 124.41541 
L 241.28418 122.397738 
L 241.516248 122.397738 
L 241.516248 121.388903 
L 241.654603 121.388903 
L 241.742914 118.866813 
L 241.804864 118.866813 
L 241.804864 117.857977 
L 242.047417 117.857977 
L 242.047417 116.849142 
L 242.239895 116.849142 
L 242.301554 115.335888 
L 242.409285 115.335888 
L 242.50977 113.822634 
L 242.585241 113.822634 
L 242.585241 113.318216 
L 242.802262 113.318216 
L 242.91271 110.796127 
L 243.015353 110.796127 
L 243.041843 108.274038 
L 243.225871 108.274038 
L 243.324584 106.760784 
L 243.394558 106.760784 
L 243.480691 104.743112 
L 243.546533 104.743112 
L 243.643372 103.734277 
L 243.658749 103.734277 
L 243.721297 102.221023 
L 243.831515 102.221023 
L 243.831515 101.716605 
L 244.044884 101.716605 
L 244.044884 100.707769 
L 244.202291 100.707769 
L 244.202291 100.203351 
L 244.71994 100.203351 
L 244.71994 99.194516 
L 244.871812 99.194516 
L 244.871812 98.690098 
L 244.989149 98.690098 
L 245.077683 97.176844 
L 245.314857 97.176844 
L 245.314857 96.168008 
L 245.608502 96.168008 
L 245.608502 95.66359 
L 245.869188 95.66359 
L 245.916535 94.150337 
L 246.047559 94.150337 
L 246.047559 93.141501 
L 246.311602 93.141501 
L 246.311602 92.637083 
L 246.556222 92.637083 
L 246.586148 91.628247 
L 246.687112 91.628247 
L 246.748336 90.619411 
L 247.144072 90.619411 
L 247.144072 90.114994 
L 247.637435 90.114994 
L 247.670236 88.60174 
L 247.772918 88.60174 
L 247.782205 87.088486 
L 248.100821 87.088486 
L 248.194315 84.566397 
L 248.429398 84.566397 
L 248.429398 84.061979 
L 248.709813 84.061979 
L 248.719646 83.053143 
L 249.149873 83.053143 
L 249.149873 82.044307 
L 249.61701 82.044307 
L 249.61701 81.539889 
L 249.810008 81.539889 
L 249.810008 81.035471 
L 249.991559 81.035471 
L 249.991559 80.531054 
L 250.188568 80.531054 
L 250.188568 79.522218 
L 250.786565 79.522218 
L 250.786565 79.0178 
L 250.967881 79.0178 
L 251.000949 78.008964 
L 251.385344 78.008964 
L 251.385344 77.000128 
L 251.612826 77.000128 
L 251.612826 76.49571 
L 251.849733 76.49571 
L 251.902267 74.982457 
L 252.102743 74.982457 
L 252.113186 73.973621 
L 252.272402 73.973621 
L 252.272402 72.964785 
L 252.457944 72.964785 
L 252.457944 72.460367 
L 252.627571 72.460367 
L 252.627571 71.955949 
L 252.90116 71.955949 
L 252.90116 70.947114 
L 253.014923 70.947114 
L 253.014923 69.938278 
L 253.12776 69.938278 
L 253.12776 69.43386 
L 253.713221 69.43386 
L 253.713221 68.425024 
L 253.868207 68.425024 
L 253.970442 66.407353 
L 254.294548 66.407353 
L 254.294548 65.398517 
L 254.606204 65.398517 
L 254.606204 64.389681 
L 254.822644 64.389681 
L 254.822644 63.885263 
L 254.941166 63.885263 
L 254.941166 63.380845 
L 255.159576 63.380845 
L 255.159576 62.37201 
L 255.377852 62.37201 
L 255.482567 60.858756 
L 255.621108 60.858756 
L 255.621108 60.354338 
L 255.979515 60.354338 
L 256.084051 58.841084 
L 256.373618 58.841084 
L 256.373618 58.336666 
L 257.352576 58.336666 
L 257.46231 56.823413 
L 257.544196 56.823413 
L 257.544196 55.814577 
L 257.860764 55.814577 
L 257.860764 55.310159 
L 338.688 55.310159 
L 338.688 55.310159 
" style="fill:none;stroke:#ff00ff;stroke-linecap:square;stroke-width:1.5;"/>
   </g>
   <g id="line2d_36">
    <defs>
     <path d="M -0 8.485281 
L 5.091169 0 
L 0 -8.485281 
L -5.091169 -0 
z
" id="m9bffd0ce44" style="stroke:#ff00ff;stroke-linejoin:miter;stroke-width:1.5;"/>
    </defs>
    <g>
     <use style="fill-opacity:0;stroke:#ff00ff;stroke-linejoin:miter;stroke-width:1.5;" x="172.647099" xlink:href="#m9bffd0ce44" y="234.37851"/>
     <use style="fill-opacity:0;stroke:#ff00ff;stroke-linejoin:miter;stroke-width:1.5;" x="218.38626" xlink:href="#m9bffd0ce44" y="189.989736"/>
     <use style="fill-opacity:0;stroke:#ff00ff;stroke-linejoin:miter;stroke-width:1.5;" x="257.860764" xlink:href="#m9bffd0ce44" y="55.814577"/>
     <use style="fill-opacity:0;stroke:#ff00ff;stroke-linejoin:miter;stroke-width:1.5;" x="257.860764" xlink:href="#m9bffd0ce44" y="55.310159"/>
     <use style="fill-opacity:0;stroke:#ff00ff;stroke-linejoin:miter;stroke-width:1.5;" x="338.688" xlink:href="#m9bffd0ce44" y="55.310159"/>
    </g>
   </g>
   <g id="line2d_37">
    <path style="fill:none;stroke:#ff00ff;stroke-linecap:square;stroke-width:1.5;"/>
    <g/>
   </g>
   <g id="line2d_38">
    <path clip-path="url(#p4924f20ae5)" d="M 258.377143 55.310159 
" style="fill:none;stroke:#ff00ff;stroke-linecap:square;stroke-width:1.5;"/>
    <defs>
     <path d="M -12 12 
L 12 -12 
M -12 -12 
L 12 12 
" id="m56875b2a79" style="stroke:#ff00ff;"/>
    </defs>
    <g clip-path="url(#p4924f20ae5)">
     <use style="fill:#ff00ff;stroke:#ff00ff;" x="258.377143" xlink:href="#m56875b2a79" y="55.310159"/>
    </g>
   </g>
   <g id="line2d_39">
    <defs>
     <path d="M 0 1.5 
C 0.397805 1.5 0.77937 1.341951 1.06066 1.06066 
C 1.341951 0.77937 1.5 0.397805 1.5 0 
C 1.5 -0.397805 1.341951 -0.77937 1.06066 -1.06066 
C 0.77937 -1.341951 0.397805 -1.5 0 -1.5 
C -0.397805 -1.5 -0.77937 -1.341951 -1.06066 -1.06066 
C -1.341951 -0.77937 -1.5 -0.397805 -1.5 0 
C -1.5 0.397805 -1.341951 0.77937 -1.06066 1.06066 
C -0.77937 1.341951 -0.397805 1.5 0 1.5 
z
" id="m1bba391493" style="stroke:#ff7500;"/>
    </defs>
    <g>
     <use style="fill:#ff7500;stroke:#ff7500;" x="258.309417" xlink:href="#m1bba391493" y="197.051586"/>
     <use style="fill:#ff7500;stroke:#ff7500;" x="258.309417" xlink:href="#m1bba391493" y="197.051586"/>
    </g>
   </g>
   <g id="line2d_40">
    <path d="M 17.444571 298.944 
L 17.444571 297.430746 
L 94.294587 297.430746 
L 94.294587 296.421911 
L 101.506816 296.421911 
L 101.506816 295.917493 
L 106.593963 295.917493 
L 106.593963 294.908657 
L 110.527398 294.908657 
L 110.527398 294.404239 
L 113.73488 294.404239 
L 113.73488 293.899821 
L 117.654224 293.899821 
L 117.654224 292.890985 
L 118.786692 292.890985 
L 118.786692 291.88215 
L 119.850084 291.88215 
L 119.850084 290.368896 
L 120.852343 290.368896 
L 120.852343 289.864478 
L 121.800118 289.864478 
L 121.800118 289.36006 
L 123.553867 289.36006 
L 123.553867 288.351224 
L 124.368753 288.351224 
L 124.368753 287.846806 
L 125.147256 287.846806 
L 125.147256 286.837971 
L 125.892487 286.837971 
L 125.892487 284.820299 
L 127.293718 284.820299 
L 127.293718 283.811463 
L 127.954256 283.811463 
L 127.954256 283.307045 
L 128.590686 283.307045 
L 128.590686 282.802628 
L 129.204706 282.802628 
L 129.204706 281.793792 
L 129.79784 281.793792 
L 129.79784 279.77612 
L 130.926816 279.77612 
L 130.926816 279.271702 
L 131.465029 279.271702 
L 131.465029 278.767284 
L 132.494049 278.767284 
L 132.494049 277.758449 
L 132.986651 277.758449 
L 132.986651 276.245195 
L 133.931979 276.245195 
L 133.931979 275.740777 
L 134.386096 275.740777 
L 134.386096 275.236359 
L 134.828688 275.236359 
L 134.828688 274.731941 
L 135.260324 274.731941 
L 135.260324 274.227523 
L 135.681535 274.227523 
L 135.681535 272.71427 
L 136.494612 272.71427 
L 136.494612 272.209852 
L 136.887363 272.209852 
L 136.887363 271.705434 
L 137.271464 271.705434 
L 137.271464 270.696598 
L 138.01518 270.696598 
L 138.01518 269.687762 
L 138.375473 269.687762 
L 138.375473 269.183344 
L 139.746525 269.183344 
L 139.746525 268.174509 
L 141.321401 268.174509 
L 141.321401 267.670091 
L 141.620002 267.670091 
L 141.620002 266.156837 
L 142.765762 266.156837 
L 142.765762 265.652419 
L 143.840863 265.652419 
L 143.840863 265.148001 
L 144.099593 265.148001 
L 144.099593 264.139166 
L 144.35454 264.139166 
L 144.35454 263.634748 
L 146.717846 263.634748 
L 146.717846 262.625912 
L 149.18674 262.625912 
L 149.18674 262.121494 
L 152.176471 262.121494 
L 152.176471 261.112658 
L 152.811246 261.112658 
L 152.811246 260.60824 
L 183.484928 260.60824 
L 183.484928 260.103822 
L 206.958995 260.103822 
L 206.958995 259.599405 
L 212.931257 259.599405 
L 212.931257 259.094987 
L 213.501008 259.094987 
L 213.501008 258.590569 
L 213.941858 258.590569 
L 213.941858 257.581733 
L 214.208406 257.581733 
L 214.208406 257.077315 
L 214.485422 257.077315 
L 214.485422 256.572897 
L 214.923236 256.572897 
L 214.923236 255.564061 
L 215.701438 255.564061 
L 215.701438 255.059644 
L 216.260042 255.059644 
L 216.260042 254.555226 
L 216.530949 254.555226 
L 216.530949 254.050808 
L 217.63759 254.050808 
L 217.63759 253.041972 
L 218.107287 253.041972 
L 218.107287 252.033136 
L 218.636676 252.033136 
L 218.636676 251.528718 
L 219.094821 251.528718 
L 219.094821 250.519883 
L 219.437127 250.519883 
L 219.437127 250.015465 
L 219.616099 250.015465 
L 219.616099 249.511047 
L 220.00582 249.511047 
L 220.00582 249.006629 
L 220.251101 249.006629 
L 220.251101 247.997793 
L 223.444985 247.997793 
L 223.444985 246.988957 
L 225.40191 246.988957 
L 225.40191 246.484539 
L 225.672353 246.484539 
L 225.672353 245.475704 
L 225.873226 245.475704 
L 225.873226 244.466868 
L 226.015687 244.466868 
L 226.015687 243.96245 
L 227.116259 243.96245 
L 227.116259 243.458032 
L 230.580943 243.458032 
L 230.60042 241.944778 
L 230.730964 241.944778 
L 230.730964 241.440361 
L 230.84211 241.440361 
L 230.939521 239.927107 
L 231.077743 239.927107 
L 231.149021 238.918271 
L 231.298127 238.918271 
L 231.298127 237.909435 
L 231.452503 237.909435 
L 231.472418 236.396182 
L 231.631814 236.396182 
L 231.729827 233.874092 
L 231.88172 233.874092 
L 231.924932 232.360839 
L 232.050539 232.360839 
L 232.050539 231.352003 
L 232.225007 231.352003 
L 232.225007 230.847585 
L 233.836883 230.847585 
L 233.872319 228.829913 
L 235.687075 228.829913 
L 235.775191 227.821078 
L 235.85081 227.821078 
L 235.954829 226.307824 
L 235.995533 226.307824 
L 236.068889 224.290152 
L 236.190985 224.290152 
L 236.202805 223.281316 
L 236.31149 223.281316 
L 236.31149 222.272481 
L 236.792751 222.272481 
L 236.875586 220.759227 
L 237.108002 220.759227 
L 237.108002 219.750391 
L 237.297572 219.750391 
L 237.297572 218.741555 
L 238.618892 218.741555 
L 238.618892 218.237138 
L 238.903907 218.237138 
L 238.903907 217.73272 
L 240.25096 217.73272 
L 240.31067 216.219466 
L 240.417274 216.219466 
L 240.417274 215.21063 
L 240.841914 215.21063 
L 240.841914 214.201794 
L 241.93939 214.201794 
L 241.93939 213.192959 
L 243.895928 213.192959 
L 243.895928 212.688541 
L 244.810797 212.688541 
L 244.810797 212.184123 
L 245.075589 212.184123 
L 245.075589 211.679705 
L 246.81493 211.679705 
L 246.81493 210.670869 
L 247.215757 210.670869 
L 247.317098 208.653198 
L 247.430076 208.653198 
L 247.441311 207.644362 
L 248.036728 207.644362 
L 248.036728 206.635526 
L 249.786877 206.635526 
L 249.807015 204.617855 
L 250.266347 204.617855 
L 250.266347 204.113437 
L 250.406914 204.113437 
L 250.406914 203.104601 
L 250.518929 203.104601 
L 250.549553 201.591347 
L 250.923096 201.591347 
L 250.923096 201.086929 
L 251.074559 201.086929 
L 251.074559 200.582511 
L 253.653464 200.582511 
L 253.653464 199.573676 
L 254.001758 199.573676 
L 254.001758 198.56484 
L 255.29772 198.56484 
L 255.29772 198.060422 
L 258.309417 198.060422 
L 258.309417 197.051586 
L 338.688 197.051586 
L 338.688 197.051586 
" style="fill:none;stroke:#ff7500;stroke-linecap:square;stroke-width:1.5;"/>
   </g>
   <g id="line2d_41">
    <defs>
     <path d="M 0 -6 
L -1.347084 -1.854102 
L -5.706339 -1.854102 
L -2.179628 0.708204 
L -3.526712 4.854102 
L -0 2.291796 
L 3.526712 4.854102 
L 2.179628 0.708204 
L 5.706339 -1.854102 
L 1.347084 -1.854102 
z
" id="md325907ad0" style="stroke:#ff7500;stroke-linejoin:bevel;stroke-width:1.5;"/>
    </defs>
    <g>
     <use style="fill-opacity:0;stroke:#ff7500;stroke-linejoin:bevel;stroke-width:1.5;" x="129.79784" xlink:href="#md325907ad0" y="281.793792"/>
     <use style="fill-opacity:0;stroke:#ff7500;stroke-linejoin:bevel;stroke-width:1.5;" x="152.811246" xlink:href="#md325907ad0" y="260.60824"/>
     <use style="fill-opacity:0;stroke:#ff7500;stroke-linejoin:bevel;stroke-width:1.5;" x="241.93939" xlink:href="#md325907ad0" y="214.201794"/>
     <use style="fill-opacity:0;stroke:#ff7500;stroke-linejoin:bevel;stroke-width:1.5;" x="258.309417" xlink:href="#md325907ad0" y="197.051586"/>
     <use style="fill-opacity:0;stroke:#ff7500;stroke-linejoin:bevel;stroke-width:1.5;" x="258.309417" xlink:href="#md325907ad0" y="197.051586"/>
     <use style="fill-opacity:0;stroke:#ff7500;stroke-linejoin:bevel;stroke-width:1.5;" x="338.688" xlink:href="#md325907ad0" y="197.051586"/>
    </g>
   </g>
   <g id="line2d_42">
    <path style="fill:none;stroke:#ff7500;stroke-linecap:square;stroke-width:1.5;"/>
    <g/>
   </g>
   <g id="line2d_43">
    <path clip-path="url(#p4924f20ae5)" d="M 258.377143 197.051586 
" style="fill:none;stroke:#ff7500;stroke-linecap:square;stroke-width:1.5;"/>
    <defs>
     <path d="M -12 12 
L 12 -12 
M -12 -12 
L 12 12 
" id="mbd476f0d21" style="stroke:#ff7500;"/>
    </defs>
    <g clip-path="url(#p4924f20ae5)">
     <use style="fill:#ff7500;stroke:#ff7500;" x="258.377143" xlink:href="#mbd476f0d21" y="197.051586"/>
    </g>
   </g>
   <g id="line2d_44">
    <defs>
     <path d="M 0 1.5 
C 0.397805 1.5 0.77937 1.341951 1.06066 1.06066 
C 1.341951 0.77937 1.5 0.397805 1.5 0 
C 1.5 -0.397805 1.341951 -0.77937 1.06066 -1.06066 
C 0.77937 -1.341951 0.397805 -1.5 0 -1.5 
C -0.397805 -1.5 -0.77937 -1.341951 -1.06066 -1.06066 
C -1.341951 -0.77937 -1.5 -0.397805 -1.5 0 
C -1.5 0.397805 -1.341951 0.77937 -1.06066 1.06066 
C -0.77937 1.341951 -0.397805 1.5 0 1.5 
z
" id="m3b717d184b" style="stroke:#6495ed;"/>
    </defs>
    <g>
     <use style="fill:#6495ed;stroke:#6495ed;" x="257.899343" xlink:href="#m3b717d184b" y="178.388124"/>
     <use style="fill:#6495ed;stroke:#6495ed;" x="257.899343" xlink:href="#m3b717d184b" y="178.388124"/>
    </g>
   </g>
   <g id="line2d_45">
    <path d="M 98.270913 298.944 
L 98.270913 298.439582 
L 101.506816 298.439582 
L 101.506816 297.935164 
L 104.23523 297.935164 
L 104.23523 296.926328 
L 106.593963 296.926328 
L 106.593963 296.421911 
L 108.671345 296.421911 
L 108.671345 294.908657 
L 112.204777 294.908657 
L 112.204777 293.395403 
L 113.73488 293.395403 
L 113.73488 292.386567 
L 115.141496 292.386567 
L 115.141496 290.368896 
L 116.443076 290.368896 
L 116.443076 288.855642 
L 117.654224 288.855642 
L 117.654224 287.342389 
L 118.786692 287.342389 
L 118.786692 284.820299 
L 119.850084 284.820299 
L 119.850084 284.315881 
L 120.852343 284.315881 
L 120.852343 282.29821 
L 121.800118 282.29821 
L 121.800118 281.793792 
L 122.699028 281.793792 
L 122.699028 281.289374 
L 123.553867 281.289374 
L 123.553867 280.280538 
L 124.368753 280.280538 
L 124.368753 277.758449 
L 125.147256 277.758449 
L 125.147256 276.245195 
L 126.607172 276.245195 
L 126.607172 275.236359 
L 127.293718 275.236359 
L 127.293718 273.218688 
L 127.954256 273.218688 
L 127.954256 271.705434 
L 128.590686 271.705434 
L 128.590686 271.201016 
L 129.204706 271.201016 
L 129.204706 269.687762 
L 129.79784 269.687762 
L 129.79784 267.165673 
L 130.371462 267.165673 
L 130.371462 265.148001 
L 130.926816 265.148001 
L 130.926816 264.643583 
L 131.465029 264.643583 
L 131.465029 263.634748 
L 131.987128 263.634748 
L 131.987128 262.625912 
L 132.494049 262.625912 
L 132.494049 261.112658 
L 132.986651 261.112658 
L 132.986651 259.599405 
L 133.46572 259.599405 
L 133.46572 258.590569 
L 133.931979 258.590569 
L 133.931979 258.086151 
L 134.386096 258.086151 
L 134.386096 257.077315 
L 135.260324 257.077315 
L 135.260324 255.564061 
L 135.681535 255.564061 
L 135.681535 254.555226 
L 136.092812 254.555226 
L 136.092812 253.54639 
L 137.271464 253.54639 
L 137.271464 252.537554 
L 137.647286 252.537554 
L 137.647286 251.528718 
L 138.375473 251.528718 
L 138.375473 250.519883 
L 138.728473 250.519883 
L 138.728473 250.015465 
L 139.074469 250.015465 
L 139.074469 249.511047 
L 140.708409 249.511047 
L 140.708409 248.502211 
L 141.620002 248.502211 
L 141.620002 247.493375 
L 142.486301 247.493375 
L 142.486301 246.484539 
L 143.578237 246.484539 
L 143.578237 245.475704 
L 143.840863 245.475704 
L 143.840863 244.971286 
L 144.099593 244.971286 
L 144.099593 244.466868 
L 144.853518 244.466868 
L 144.853518 243.96245 
L 146.937474 243.96245 
L 146.937474 243.458032 
L 148.993835 243.458032 
L 148.993835 242.953614 
L 152.654705 242.953614 
L 152.654705 242.449196 
L 172.23782 242.449196 
L 172.23782 241.440361 
L 179.70463 241.440361 
L 179.70463 240.431525 
L 182.224954 240.431525 
L 182.224954 239.927107 
L 185.566793 239.927107 
L 185.566793 238.918271 
L 192.026791 238.918271 
L 192.026791 237.909435 
L 204.249747 237.909435 
L 204.249747 236.9006 
L 208.894102 236.9006 
L 208.894102 236.396182 
L 221.802519 236.396182 
L 221.802519 235.891764 
L 223.33594 235.891764 
L 223.33594 235.387346 
L 223.447312 235.387346 
L 223.447312 234.37851 
L 223.601841 234.37851 
L 223.601841 233.874092 
L 228.148814 233.874092 
L 228.148814 232.865256 
L 230.497814 232.865256 
L 230.497814 231.856421 
L 231.252009 231.856421 
L 231.252009 230.847585 
L 231.365722 230.847585 
L 231.365722 230.343167 
L 231.591433 230.343167 
L 231.591433 229.334331 
L 233.053547 229.334331 
L 233.053547 228.325495 
L 233.92378 228.325495 
L 233.92378 227.31666 
L 234.98967 227.31666 
L 234.98967 226.812242 
L 235.183541 226.812242 
L 235.183541 225.803406 
L 235.331989 225.803406 
L 235.331989 225.298988 
L 235.469263 225.298988 
L 235.469263 224.79457 
L 236.853551 224.79457 
L 236.853551 224.290152 
L 237.69886 224.290152 
L 237.806636 220.254809 
L 237.842112 220.254809 
L 237.842112 219.750391 
L 238.091736 219.750391 
L 238.091736 219.245973 
L 238.488671 219.245973 
L 238.488671 218.237138 
L 238.683046 218.237138 
L 238.683046 217.73272 
L 239.592024 217.73272 
L 239.592024 216.723884 
L 240.728434 216.723884 
L 240.728434 216.219466 
L 240.988207 216.219466 
L 241.015035 214.706212 
L 242.794252 214.706212 
L 242.794252 214.201794 
L 243.943274 214.201794 
L 243.943274 213.192959 
L 244.28962 213.192959 
L 244.28962 212.184123 
L 244.619973 212.184123 
L 244.619973 211.679705 
L 244.882175 211.679705 
L 244.925073 209.662033 
L 245.778487 209.662033 
L 245.778487 209.157616 
L 246.159483 209.157616 
L 246.159483 208.14878 
L 247.760132 208.14878 
L 247.864868 205.62669 
L 247.954624 205.62669 
L 248.023945 204.113437 
L 248.126423 204.113437 
L 248.126423 202.600183 
L 248.99753 202.600183 
L 248.99753 202.095765 
L 249.243046 202.095765 
L 249.243046 201.591347 
L 249.890767 201.591347 
L 249.890767 201.086929 
L 250.162052 201.086929 
L 250.162052 200.078094 
L 250.454636 200.078094 
L 250.561951 199.069258 
L 250.621553 199.069258 
L 250.640723 197.556004 
L 250.863633 197.556004 
L 250.863633 196.547168 
L 251.451698 196.547168 
L 251.451698 196.04275 
L 253.031541 196.04275 
L 253.046959 194.529497 
L 253.265981 194.529497 
L 253.265981 193.520661 
L 253.785827 193.520661 
L 253.785827 192.511825 
L 253.940194 192.511825 
L 253.940194 191.502989 
L 254.052202 191.502989 
L 254.052202 190.998572 
L 254.302987 190.998572 
L 254.37123 189.485318 
L 254.494223 189.485318 
L 254.494223 188.9809 
L 255.157311 188.9809 
L 255.157311 187.972064 
L 255.274567 187.972064 
L 255.274567 186.963228 
L 255.777898 186.963228 
L 255.777898 185.954393 
L 255.930041 185.954393 
L 255.930041 184.945557 
L 256.044903 184.945557 
L 256.044903 183.936721 
L 256.273504 183.936721 
L 256.273504 183.432303 
L 256.914249 183.432303 
L 256.914249 182.927885 
L 257.197608 182.927885 
L 257.296021 181.414632 
L 257.333017 181.414632 
L 257.333017 180.405796 
L 257.501302 180.405796 
L 257.501302 179.39696 
L 257.730276 179.39696 
L 257.730276 178.892542 
L 257.899343 178.892542 
L 257.899343 178.388124 
L 338.688 178.388124 
L 338.688 178.388124 
" style="fill:none;stroke:#6495ed;stroke-linecap:square;stroke-width:1.5;"/>
   </g>
   <g id="line2d_46">
    <defs>
     <path d="M -0 6 
L 6 -6 
L -6 -6 
z
" id="m7b79dae56d" style="stroke:#6495ed;stroke-linejoin:miter;stroke-width:1.5;"/>
    </defs>
    <g>
     <use style="fill-opacity:0;stroke:#6495ed;stroke-linejoin:miter;stroke-width:1.5;" x="139.074469" xlink:href="#m7b79dae56d" y="249.511047"/>
     <use style="fill-opacity:0;stroke:#6495ed;stroke-linejoin:miter;stroke-width:1.5;" x="204.249747" xlink:href="#m7b79dae56d" y="237.909435"/>
     <use style="fill-opacity:0;stroke:#6495ed;stroke-linejoin:miter;stroke-width:1.5;" x="257.899343" xlink:href="#m7b79dae56d" y="178.892542"/>
     <use style="fill-opacity:0;stroke:#6495ed;stroke-linejoin:miter;stroke-width:1.5;" x="257.899343" xlink:href="#m7b79dae56d" y="178.388124"/>
     <use style="fill-opacity:0;stroke:#6495ed;stroke-linejoin:miter;stroke-width:1.5;" x="338.688" xlink:href="#m7b79dae56d" y="178.388124"/>
    </g>
   </g>
   <g id="line2d_47">
    <path style="fill:none;stroke:#6495ed;stroke-linecap:square;stroke-width:1.5;"/>
    <g/>
   </g>
   <g id="line2d_48">
    <path clip-path="url(#p4924f20ae5)" d="M 258.377143 178.388124 
" style="fill:none;stroke:#6495ed;stroke-linecap:square;stroke-width:1.5;"/>
    <defs>
     <path d="M -12 12 
L 12 -12 
M -12 -12 
L 12 12 
" id="m1b0a4aecf3" style="stroke:#6495ed;"/>
    </defs>
    <g clip-path="url(#p4924f20ae5)">
     <use style="fill:#6495ed;stroke:#6495ed;" x="258.377143" xlink:href="#m1b0a4aecf3" y="178.388124"/>
    </g>
   </g>
   <g id="line2d_49">
    <path d="M 338.688 197.051586 
L 369.60768 293.092752 
" style="fill:none;stroke:#ff7500;stroke-linecap:square;stroke-width:1.5;"/>
    <g>
     <use style="fill-opacity:0;stroke:#ff7500;stroke-linejoin:bevel;stroke-width:1.5;" x="338.688" xlink:href="#md325907ad0" y="197.051586"/>
     <use style="fill-opacity:0;stroke:#ff7500;stroke-linejoin:bevel;stroke-width:1.5;" x="369.60768" xlink:href="#md325907ad0" y="293.092752"/>
    </g>
   </g>
   <g id="line2d_50">
    <path d="M 338.688 178.388124 
L 369.60768 199.472792 
" style="fill:none;stroke:#6495ed;stroke-linecap:square;stroke-width:1.5;"/>
    <g>
     <use style="fill-opacity:0;stroke:#6495ed;stroke-linejoin:miter;stroke-width:1.5;" x="338.688" xlink:href="#m7b79dae56d" y="178.388124"/>
     <use style="fill-opacity:0;stroke:#6495ed;stroke-linejoin:miter;stroke-width:1.5;" x="369.60768" xlink:href="#m7b79dae56d" y="199.472792"/>
    </g>
   </g>
   <g id="line2d_51">
    <path d="M 338.688 77.504546 
L 369.60768 105.852832 
" style="fill:none;stroke:#000080;stroke-linecap:square;stroke-width:1.5;"/>
    <g>
     <use style="fill-opacity:0;stroke:#000080;stroke-width:1.5;" x="338.688" xlink:href="#m95c8f75c1a" y="77.504546"/>
     <use style="fill-opacity:0;stroke:#000080;stroke-width:1.5;" x="369.60768" xlink:href="#m95c8f75c1a" y="105.852832"/>
    </g>
   </g>
   <g id="line2d_52">
    <path d="M 338.688 55.310159 
L 369.60768 12.232871 
" style="fill:none;stroke:#ff00ff;stroke-linecap:square;stroke-width:1.5;"/>
    <g>
     <use style="fill-opacity:0;stroke:#ff00ff;stroke-linejoin:miter;stroke-width:1.5;" x="338.688" xlink:href="#m9bffd0ce44" y="55.310159"/>
     <use style="fill-opacity:0;stroke:#ff00ff;stroke-linejoin:miter;stroke-width:1.5;" x="369.60768" xlink:href="#m9bffd0ce44" y="12.232871"/>
    </g>
   </g>
   <g id="line2d_53">
    <path d="M 338.688 298.944 
L 338.688 6.381624 
" style="fill:none;stroke:#000000;stroke-linecap:square;stroke-width:1.5;"/>
   </g>
   <g id="patch_3">
    <path d="M 57.6 298.944 
L 57.6 3.456 
" style="fill:none;stroke:#000000;stroke-linecap:square;stroke-linejoin:miter;stroke-width:0.8;"/>
   </g>
   <g id="patch_4">
    <path d="M 338.688 298.944 
L 338.688 3.456 
" style="fill:none;stroke:#000000;stroke-linecap:square;stroke-linejoin:miter;stroke-width:0.8;"/>
   </g>
   <g id="patch_5">
    <path d="M 57.6 298.944 
L 338.688 298.944 
" style="fill:none;stroke:#000000;stroke-linecap:square;stroke-linejoin:miter;stroke-width:0.8;"/>
   </g>
   <g id="patch_6">
    <path d="M 57.6 3.456 
L 338.688 3.456 
" style="fill:none;stroke:#000000;stroke-linecap:square;stroke-linejoin:miter;stroke-width:0.8;"/>
   </g>
   <g id="text_13">
    <!-- f14 -->
    <g transform="translate(375.22944 297.78369)scale(0.17 -0.17)">
     <use xlink:href="#DejaVuSans-102"/>
     <use x="35.205078" xlink:href="#DejaVuSans-49"/>
     <use x="98.828125" xlink:href="#DejaVuSans-52"/>
    </g>
   </g>
   <g id="text_14">
    <!-- f15 -->
    <g transform="translate(375.22944 204.16373)scale(0.17 -0.17)">
     <defs>
      <path d="M 10.796875 72.90625 
L 49.515625 72.90625 
L 49.515625 64.59375 
L 19.828125 64.59375 
L 19.828125 46.734375 
Q 21.96875 47.46875 24.109375 47.828125 
Q 26.265625 48.1875 28.421875 48.1875 
Q 40.625 48.1875 47.75 41.5 
Q 54.890625 34.8125 54.890625 23.390625 
Q 54.890625 11.625 47.5625 5.09375 
Q 40.234375 -1.421875 26.90625 -1.421875 
Q 22.3125 -1.421875 17.546875 -0.640625 
Q 12.796875 0.140625 7.71875 1.703125 
L 7.71875 11.625 
Q 12.109375 9.234375 16.796875 8.0625 
Q 21.484375 6.890625 26.703125 6.890625 
Q 35.15625 6.890625 40.078125 11.328125 
Q 45.015625 15.765625 45.015625 23.390625 
Q 45.015625 31 40.078125 35.4375 
Q 35.15625 39.890625 26.703125 39.890625 
Q 22.75 39.890625 18.8125 39.015625 
Q 14.890625 38.140625 10.796875 36.28125 
z
" id="DejaVuSans-53"/>
     </defs>
     <use xlink:href="#DejaVuSans-102"/>
     <use x="35.205078" xlink:href="#DejaVuSans-49"/>
     <use x="98.828125" xlink:href="#DejaVuSans-53"/>
    </g>
   </g>
   <g id="text_15">
    <!-- f5 -->
    <g transform="translate(375.22944 110.543769)scale(0.17 -0.17)">
     <use xlink:href="#DejaVuSans-102"/>
     <use x="35.205078" xlink:href="#DejaVuSans-53"/>
    </g>
   </g>
   <g id="text_16">
    <!-- f6 -->
    <g transform="translate(375.22944 16.923809)scale(0.17 -0.17)">
     <use xlink:href="#DejaVuSans-102"/>
     <use x="35.205078" xlink:href="#DejaVuSans-54"/>
    </g>
   </g>
   <g id="text_17">
    <!-- bbob-biobj -->
    <g transform="translate(60.41088 14.161286)scale(0.102 -0.102)">
     <defs>
      <path d="M 48.6875 27.296875 
Q 48.6875 37.203125 44.609375 42.84375 
Q 40.53125 48.484375 33.40625 48.484375 
Q 26.265625 48.484375 22.1875 42.84375 
Q 18.109375 37.203125 18.109375 27.296875 
Q 18.109375 17.390625 22.1875 11.75 
Q 26.265625 6.109375 33.40625 6.109375 
Q 40.53125 6.109375 44.609375 11.75 
Q 48.6875 17.390625 48.6875 27.296875 
z
M 18.109375 46.390625 
Q 20.953125 51.265625 25.265625 53.625 
Q 29.59375 56 35.59375 56 
Q 45.5625 56 51.78125 48.09375 
Q 58.015625 40.1875 58.015625 27.296875 
Q 58.015625 14.40625 51.78125 6.484375 
Q 45.5625 -1.421875 35.59375 -1.421875 
Q 29.59375 -1.421875 25.265625 0.953125 
Q 20.953125 3.328125 18.109375 8.203125 
L 18.109375 0 
L 9.078125 0 
L 9.078125 75.984375 
L 18.109375 75.984375 
z
" id="DejaVuSans-98"/>
      <path d="M 9.421875 54.6875 
L 18.40625 54.6875 
L 18.40625 -0.984375 
Q 18.40625 -11.421875 14.421875 -16.109375 
Q 10.453125 -20.796875 1.609375 -20.796875 
L -1.8125 -20.796875 
L -1.8125 -13.1875 
L 0.59375 -13.1875 
Q 5.71875 -13.1875 7.5625 -10.8125 
Q 9.421875 -8.453125 9.421875 -0.984375 
z
M 9.421875 75.984375 
L 18.40625 75.984375 
L 18.40625 64.59375 
L 9.421875 64.59375 
z
" id="DejaVuSans-106"/>
     </defs>
     <use xlink:href="#DejaVuSans-98"/>
     <use x="63.476562" xlink:href="#DejaVuSans-98"/>
     <use x="126.953125" xlink:href="#DejaVuSans-111"/>
     <use x="188.134766" xlink:href="#DejaVuSans-98"/>
     <use x="251.611328" xlink:href="#DejaVuSans-45"/>
     <use x="287.695312" xlink:href="#DejaVuSans-98"/>
     <use x="351.171875" xlink:href="#DejaVuSans-105"/>
     <use x="378.955078" xlink:href="#DejaVuSans-111"/>
     <use x="440.136719" xlink:href="#DejaVuSans-98"/>
     <use x="503.613281" xlink:href="#DejaVuSans-106"/>
    </g>
    <!-- 1-separable 3-ill-conditioned, 10-D -->
    <g transform="translate(60.41088 25.583055)scale(0.102 -0.102)">
     <defs>
      <path d="M 40.578125 39.3125 
Q 47.65625 37.796875 51.625 33 
Q 55.609375 28.21875 55.609375 21.1875 
Q 55.609375 10.40625 48.1875 4.484375 
Q 40.765625 -1.421875 27.09375 -1.421875 
Q 22.515625 -1.421875 17.65625 -0.515625 
Q 12.796875 0.390625 7.625 2.203125 
L 7.625 11.71875 
Q 11.71875 9.328125 16.59375 8.109375 
Q 21.484375 6.890625 26.8125 6.890625 
Q 36.078125 6.890625 40.9375 10.546875 
Q 45.796875 14.203125 45.796875 21.1875 
Q 45.796875 27.640625 41.28125 31.265625 
Q 36.765625 34.90625 28.71875 34.90625 
L 20.21875 34.90625 
L 20.21875 43.015625 
L 29.109375 43.015625 
Q 36.375 43.015625 40.234375 45.921875 
Q 44.09375 48.828125 44.09375 54.296875 
Q 44.09375 59.90625 40.109375 62.90625 
Q 36.140625 65.921875 28.71875 65.921875 
Q 24.65625 65.921875 20.015625 65.03125 
Q 15.375 64.15625 9.8125 62.3125 
L 9.8125 71.09375 
Q 15.4375 72.65625 20.34375 73.4375 
Q 25.25 74.21875 29.59375 74.21875 
Q 40.828125 74.21875 47.359375 69.109375 
Q 53.90625 64.015625 53.90625 55.328125 
Q 53.90625 49.265625 50.4375 45.09375 
Q 46.96875 40.921875 40.578125 39.3125 
z
" id="DejaVuSans-51"/>
      <path d="M 19.671875 64.796875 
L 19.671875 8.109375 
L 31.59375 8.109375 
Q 46.6875 8.109375 53.6875 14.9375 
Q 60.6875 21.78125 60.6875 36.53125 
Q 60.6875 51.171875 53.6875 57.984375 
Q 46.6875 64.796875 31.59375 64.796875 
z
M 9.8125 72.90625 
L 30.078125 72.90625 
Q 51.265625 72.90625 61.171875 64.09375 
Q 71.09375 55.28125 71.09375 36.53125 
Q 71.09375 17.671875 61.125 8.828125 
Q 51.171875 0 30.078125 0 
L 9.8125 0 
z
" id="DejaVuSans-68"/>
     </defs>
     <use xlink:href="#DejaVuSans-49"/>
     <use x="63.623047" xlink:href="#DejaVuSans-45"/>
     <use x="99.707031" xlink:href="#DejaVuSans-115"/>
     <use x="151.806641" xlink:href="#DejaVuSans-101"/>
     <use x="213.330078" xlink:href="#DejaVuSans-112"/>
     <use x="276.806641" xlink:href="#DejaVuSans-97"/>
     <use x="338.085938" xlink:href="#DejaVuSans-114"/>
     <use x="379.199219" xlink:href="#DejaVuSans-97"/>
     <use x="440.478516" xlink:href="#DejaVuSans-98"/>
     <use x="503.955078" xlink:href="#DejaVuSans-108"/>
     <use x="531.738281" xlink:href="#DejaVuSans-101"/>
     <use x="593.261719" xlink:href="#DejaVuSans-32"/>
     <use x="625.048828" xlink:href="#DejaVuSans-51"/>
     <use x="688.671875" xlink:href="#DejaVuSans-45"/>
     <use x="724.755859" xlink:href="#DejaVuSans-105"/>
     <use x="752.539062" xlink:href="#DejaVuSans-108"/>
     <use x="780.322266" xlink:href="#DejaVuSans-108"/>
     <use x="808.105469" xlink:href="#DejaVuSans-45"/>
     <use x="844.189453" xlink:href="#DejaVuSans-99"/>
     <use x="899.169922" xlink:href="#DejaVuSans-111"/>
     <use x="960.351562" xlink:href="#DejaVuSans-110"/>
     <use x="1023.730469" xlink:href="#DejaVuSans-100"/>
     <use x="1087.207031" xlink:href="#DejaVuSans-105"/>
     <use x="1114.990234" xlink:href="#DejaVuSans-116"/>
     <use x="1154.199219" xlink:href="#DejaVuSans-105"/>
     <use x="1181.982422" xlink:href="#DejaVuSans-111"/>
     <use x="1243.164062" xlink:href="#DejaVuSans-110"/>
     <use x="1306.542969" xlink:href="#DejaVuSans-101"/>
     <use x="1368.066406" xlink:href="#DejaVuSans-100"/>
     <use x="1431.542969" xlink:href="#DejaVuSans-44"/>
     <use x="1463.330078" xlink:href="#DejaVuSans-32"/>
     <use x="1495.117188" xlink:href="#DejaVuSans-49"/>
     <use x="1558.740234" xlink:href="#DejaVuSans-48"/>
     <use x="1622.363281" xlink:href="#DejaVuSans-45"/>
     <use x="1658.447266" xlink:href="#DejaVuSans-68"/>
    </g>
    <!-- 58 targets: 1..-1.0e-4 -->
    <g transform="translate(60.41088 37.004824)scale(0.102 -0.102)">
     <defs>
      <path d="M 11.71875 12.40625 
L 22.015625 12.40625 
L 22.015625 0 
L 11.71875 0 
z
M 11.71875 51.703125 
L 22.015625 51.703125 
L 22.015625 39.3125 
L 11.71875 39.3125 
z
" id="DejaVuSans-58"/>
     </defs>
     <use xlink:href="#DejaVuSans-53"/>
     <use x="63.623047" xlink:href="#DejaVuSans-56"/>
     <use x="127.246094" xlink:href="#DejaVuSans-32"/>
     <use x="159.033203" xlink:href="#DejaVuSans-116"/>
     <use x="198.242188" xlink:href="#DejaVuSans-97"/>
     <use x="259.521484" xlink:href="#DejaVuSans-114"/>
     <use x="298.884766" xlink:href="#DejaVuSans-103"/>
     <use x="362.361328" xlink:href="#DejaVuSans-101"/>
     <use x="423.884766" xlink:href="#DejaVuSans-116"/>
     <use x="463.09375" xlink:href="#DejaVuSans-115"/>
     <use x="515.193359" xlink:href="#DejaVuSans-58"/>
     <use x="548.884766" xlink:href="#DejaVuSans-32"/>
     <use x="580.671875" xlink:href="#DejaVuSans-49"/>
     <use x="644.294922" xlink:href="#DejaVuSans-46"/>
     <use x="676.082031" xlink:href="#DejaVuSans-46"/>
     <use x="707.869141" xlink:href="#DejaVuSans-45"/>
     <use x="743.953125" xlink:href="#DejaVuSans-49"/>
     <use x="807.576172" xlink:href="#DejaVuSans-46"/>
     <use x="839.363281" xlink:href="#DejaVuSans-48"/>
     <use x="902.986328" xlink:href="#DejaVuSans-101"/>
     <use x="964.509766" xlink:href="#DejaVuSans-45"/>
     <use x="1000.59375" xlink:href="#DejaVuSans-52"/>
    </g>
    <!-- 10 instances -->
    <g transform="translate(60.41088 48.426593)scale(0.102 -0.102)">
     <use xlink:href="#DejaVuSans-49"/>
     <use x="63.623047" xlink:href="#DejaVuSans-48"/>
     <use x="127.246094" xlink:href="#DejaVuSans-32"/>
     <use x="159.033203" xlink:href="#DejaVuSans-105"/>
     <use x="186.816406" xlink:href="#DejaVuSans-110"/>
     <use x="250.195312" xlink:href="#DejaVuSans-115"/>
     <use x="302.294922" xlink:href="#DejaVuSans-116"/>
     <use x="341.503906" xlink:href="#DejaVuSans-97"/>
     <use x="402.783203" xlink:href="#DejaVuSans-110"/>
     <use x="466.162109" xlink:href="#DejaVuSans-99"/>
     <use x="521.142578" xlink:href="#DejaVuSans-101"/>
     <use x="582.666016" xlink:href="#DejaVuSans-115"/>
    </g>
   </g>
   <g id="text_18">
    <!-- v2.4, hv-hash=ff0e71e8cd978373 -->
    <g style="fill:#808080;" transform="translate(112.648687 293.909432)scale(0.1 -0.1)">
     <defs>
      <path d="M 54.890625 33.015625 
L 54.890625 0 
L 45.90625 0 
L 45.90625 32.71875 
Q 45.90625 40.484375 42.875 44.328125 
Q 39.84375 48.1875 33.796875 48.1875 
Q 26.515625 48.1875 22.3125 43.546875 
Q 18.109375 38.921875 18.109375 30.90625 
L 18.109375 0 
L 9.078125 0 
L 9.078125 75.984375 
L 18.109375 75.984375 
L 18.109375 46.1875 
Q 21.34375 51.125 25.703125 53.5625 
Q 30.078125 56 35.796875 56 
Q 45.21875 56 50.046875 50.171875 
Q 54.890625 44.34375 54.890625 33.015625 
z
" id="DejaVuSans-104"/>
      <path d="M 10.59375 45.40625 
L 73.1875 45.40625 
L 73.1875 37.203125 
L 10.59375 37.203125 
z
M 10.59375 25.484375 
L 73.1875 25.484375 
L 73.1875 17.1875 
L 10.59375 17.1875 
z
" id="DejaVuSans-61"/>
      <path d="M 8.203125 72.90625 
L 55.078125 72.90625 
L 55.078125 68.703125 
L 28.609375 0 
L 18.3125 0 
L 43.21875 64.59375 
L 8.203125 64.59375 
z
" id="DejaVuSans-55"/>
      <path d="M 10.984375 1.515625 
L 10.984375 10.5 
Q 14.703125 8.734375 18.5 7.8125 
Q 22.3125 6.890625 25.984375 6.890625 
Q 35.75 6.890625 40.890625 13.453125 
Q 46.046875 20.015625 46.78125 33.40625 
Q 43.953125 29.203125 39.59375 26.953125 
Q 35.25 24.703125 29.984375 24.703125 
Q 19.046875 24.703125 12.671875 31.3125 
Q 6.296875 37.9375 6.296875 49.421875 
Q 6.296875 60.640625 12.9375 67.421875 
Q 19.578125 74.21875 30.609375 74.21875 
Q 43.265625 74.21875 49.921875 64.515625 
Q 56.59375 54.828125 56.59375 36.375 
Q 56.59375 19.140625 48.40625 8.859375 
Q 40.234375 -1.421875 26.421875 -1.421875 
Q 22.703125 -1.421875 18.890625 -0.6875 
Q 15.09375 0.046875 10.984375 1.515625 
z
M 30.609375 32.421875 
Q 37.25 32.421875 41.125 36.953125 
Q 45.015625 41.5 45.015625 49.421875 
Q 45.015625 57.28125 41.125 61.84375 
Q 37.25 66.40625 30.609375 66.40625 
Q 23.96875 66.40625 20.09375 61.84375 
Q 16.21875 57.28125 16.21875 49.421875 
Q 16.21875 41.5 20.09375 36.953125 
Q 23.96875 32.421875 30.609375 32.421875 
z
" id="DejaVuSans-57"/>
     </defs>
     <use xlink:href="#DejaVuSans-118"/>
     <use x="59.179688" xlink:href="#DejaVuSans-50"/>
     <use x="122.802734" xlink:href="#DejaVuSans-46"/>
     <use x="154.589844" xlink:href="#DejaVuSans-52"/>
     <use x="218.212891" xlink:href="#DejaVuSans-44"/>
     <use x="250" xlink:href="#DejaVuSans-32"/>
     <use x="281.787109" xlink:href="#DejaVuSans-104"/>
     <use x="345.166016" xlink:href="#DejaVuSans-118"/>
     <use x="401.720703" xlink:href="#DejaVuSans-45"/>
     <use x="437.804688" xlink:href="#DejaVuSans-104"/>
     <use x="501.183594" xlink:href="#DejaVuSans-97"/>
     <use x="562.462891" xlink:href="#DejaVuSans-115"/>
     <use x="614.5625" xlink:href="#DejaVuSans-104"/>
     <use x="677.941406" xlink:href="#DejaVuSans-61"/>
     <use x="761.730469" xlink:href="#DejaVuSans-102"/>
     <use x="796.935547" xlink:href="#DejaVuSans-102"/>
     <use x="832.140625" xlink:href="#DejaVuSans-48"/>
     <use x="895.763672" xlink:href="#DejaVuSans-101"/>
     <use x="957.287109" xlink:href="#DejaVuSans-55"/>
     <use x="1020.910156" xlink:href="#DejaVuSans-49"/>
     <use x="1084.533203" xlink:href="#DejaVuSans-101"/>
     <use x="1146.056641" xlink:href="#DejaVuSans-56"/>
     <use x="1209.679688" xlink:href="#DejaVuSans-99"/>
     <use x="1264.660156" xlink:href="#DejaVuSans-100"/>
     <use x="1328.136719" xlink:href="#DejaVuSans-57"/>
     <use x="1391.759766" xlink:href="#DejaVuSans-55"/>
     <use x="1455.382812" xlink:href="#DejaVuSans-56"/>
     <use x="1519.005859" xlink:href="#DejaVuSans-51"/>
     <use x="1582.628906" xlink:href="#DejaVuSans-55"/>
     <use x="1646.251953" xlink:href="#DejaVuSans-51"/>
    </g>
   </g>
  </g>
 </g>
 <defs>
  <clipPath id="p4924f20ae5">
   <rect height="295.488" width="281.088" x="57.6" y="3.456"/>
  </clipPath>
 </defs>
</svg>
