<?xml version="1.0" encoding="utf-8" standalone="no"?>
<!DOCTYPE svg PUBLIC "-//W3C//DTD SVG 1.1//EN"
  "http://www.w3.org/Graphics/SVG/1.1/DTD/svg11.dtd">
<!-- Created with matplotlib (https://matplotlib.org/) -->
<svg height="345.6pt" version="1.1" viewBox="0 0 460.8 345.6" width="460.8pt" xmlns="http://www.w3.org/2000/svg" xmlns:xlink="http://www.w3.org/1999/xlink">
 <metadata>
  <rdf:RDF xmlns:cc="http://creativecommons.org/ns#" xmlns:dc="http://purl.org/dc/elements/1.1/" xmlns:rdf="http://www.w3.org/1999/02/22-rdf-syntax-ns#">
   <cc:Work>
    <dc:type rdf:resource="http://purl.org/dc/dcmitype/StillImage"/>
    <dc:date>2021-03-30T16:55:14.241022</dc:date>
    <dc:format>image/svg+xml</dc:format>
    <dc:creator>
     <cc:Agent>
      <dc:title>Matplotlib v3.3.4, https://matplotlib.org/</dc:title>
     </cc:Agent>
    </dc:creator>
   </cc:Work>
  </rdf:RDF>
 </metadata>
 <defs>
  <style type="text/css">*{stroke-linecap:butt;stroke-linejoin:round;}</style>
 </defs>
 <g id="figure_1">
  <g id="patch_1">
   <path d="M 0 345.6 
L 460.8 345.6 
L 460.8 0 
L 0 0 
z
" style="fill:#ffffff;"/>
  </g>
  <g id="axes_1">
   <g id="patch_2">
    <path d="M 57.6 298.944 
L 338.688 298.944 
L 338.688 3.456 
L 57.6 3.456 
z
" style="fill:#ffffff;"/>
   </g>
   <g id="matplotlib.axis_1">
    <g id="xtick_1">
     <g id="line2d_1">
      <path clip-path="url(#p2c74420fce)" d="M 57.6 298.944 
L 57.6 3.456 
" style="fill:none;stroke:#b0b0b0;stroke-linecap:square;stroke-width:0.8;"/>
     </g>
     <g id="line2d_2">
      <defs>
       <path d="M 0 0 
L 0 3.5 
" id="maa7a6bf8ca" style="stroke:#000000;stroke-width:0.8;"/>
      </defs>
      <g>
       <use style="stroke:#000000;stroke-width:0.8;" x="57.6" xlink:href="#maa7a6bf8ca" y="298.944"/>
      </g>
     </g>
     <g id="text_1">
      <!-- 0 -->
      <g transform="translate(51.2375 321.140875)scale(0.2 -0.2)">
       <defs>
        <path d="M 31.78125 66.40625 
Q 24.171875 66.40625 20.328125 58.90625 
Q 16.5 51.421875 16.5 36.375 
Q 16.5 21.390625 20.328125 13.890625 
Q 24.171875 6.390625 31.78125 6.390625 
Q 39.453125 6.390625 43.28125 13.890625 
Q 47.125 21.390625 47.125 36.375 
Q 47.125 51.421875 43.28125 58.90625 
Q 39.453125 66.40625 31.78125 66.40625 
z
M 31.78125 74.21875 
Q 44.046875 74.21875 50.515625 64.515625 
Q 56.984375 54.828125 56.984375 36.375 
Q 56.984375 17.96875 50.515625 8.265625 
Q 44.046875 -1.421875 31.78125 -1.421875 
Q 19.53125 -1.421875 13.0625 8.265625 
Q 6.59375 17.96875 6.59375 36.375 
Q 6.59375 54.828125 13.0625 64.515625 
Q 19.53125 74.21875 31.78125 74.21875 
z
" id="DejaVuSans-48"/>
       </defs>
       <use xlink:href="#DejaVuSans-48"/>
      </g>
     </g>
    </g>
    <g id="xtick_2">
     <g id="line2d_3">
      <path clip-path="url(#p2c74420fce)" d="M 137.910857 298.944 
L 137.910857 3.456 
" style="fill:none;stroke:#b0b0b0;stroke-linecap:square;stroke-width:0.8;"/>
     </g>
     <g id="line2d_4">
      <g>
       <use style="stroke:#000000;stroke-width:0.8;" x="137.910857" xlink:href="#maa7a6bf8ca" y="298.944"/>
      </g>
     </g>
     <g id="text_2">
      <!-- 2 -->
      <g transform="translate(131.548357 321.140875)scale(0.2 -0.2)">
       <defs>
        <path d="M 19.1875 8.296875 
L 53.609375 8.296875 
L 53.609375 0 
L 7.328125 0 
L 7.328125 8.296875 
Q 12.9375 14.109375 22.625 23.890625 
Q 32.328125 33.6875 34.8125 36.53125 
Q 39.546875 41.84375 41.421875 45.53125 
Q 43.3125 49.21875 43.3125 52.78125 
Q 43.3125 58.59375 39.234375 62.25 
Q 35.15625 65.921875 28.609375 65.921875 
Q 23.96875 65.921875 18.8125 64.3125 
Q 13.671875 62.703125 7.8125 59.421875 
L 7.8125 69.390625 
Q 13.765625 71.78125 18.9375 73 
Q 24.125 74.21875 28.421875 74.21875 
Q 39.75 74.21875 46.484375 68.546875 
Q 53.21875 62.890625 53.21875 53.421875 
Q 53.21875 48.921875 51.53125 44.890625 
Q 49.859375 40.875 45.40625 35.40625 
Q 44.1875 33.984375 37.640625 27.21875 
Q 31.109375 20.453125 19.1875 8.296875 
z
" id="DejaVuSans-50"/>
       </defs>
       <use xlink:href="#DejaVuSans-50"/>
      </g>
     </g>
    </g>
    <g id="xtick_3">
     <g id="line2d_5">
      <path clip-path="url(#p2c74420fce)" d="M 218.221714 298.944 
L 218.221714 3.456 
" style="fill:none;stroke:#b0b0b0;stroke-linecap:square;stroke-width:0.8;"/>
     </g>
     <g id="line2d_6">
      <g>
       <use style="stroke:#000000;stroke-width:0.8;" x="218.221714" xlink:href="#maa7a6bf8ca" y="298.944"/>
      </g>
     </g>
     <g id="text_3">
      <!-- 4 -->
      <g transform="translate(211.859214 321.140875)scale(0.2 -0.2)">
       <defs>
        <path d="M 37.796875 64.3125 
L 12.890625 25.390625 
L 37.796875 25.390625 
z
M 35.203125 72.90625 
L 47.609375 72.90625 
L 47.609375 25.390625 
L 58.015625 25.390625 
L 58.015625 17.1875 
L 47.609375 17.1875 
L 47.609375 0 
L 37.796875 0 
L 37.796875 17.1875 
L 4.890625 17.1875 
L 4.890625 26.703125 
z
" id="DejaVuSans-52"/>
       </defs>
       <use xlink:href="#DejaVuSans-52"/>
      </g>
     </g>
    </g>
    <g id="xtick_4">
     <g id="line2d_7">
      <path clip-path="url(#p2c74420fce)" d="M 298.532571 298.944 
L 298.532571 3.456 
" style="fill:none;stroke:#b0b0b0;stroke-linecap:square;stroke-width:0.8;"/>
     </g>
     <g id="line2d_8">
      <g>
       <use style="stroke:#000000;stroke-width:0.8;" x="298.532571" xlink:href="#maa7a6bf8ca" y="298.944"/>
      </g>
     </g>
     <g id="text_4">
      <!-- 6 -->
      <g transform="translate(292.170071 321.140875)scale(0.2 -0.2)">
       <defs>
        <path d="M 33.015625 40.375 
Q 26.375 40.375 22.484375 35.828125 
Q 18.609375 31.296875 18.609375 23.390625 
Q 18.609375 15.53125 22.484375 10.953125 
Q 26.375 6.390625 33.015625 6.390625 
Q 39.65625 6.390625 43.53125 10.953125 
Q 47.40625 15.53125 47.40625 23.390625 
Q 47.40625 31.296875 43.53125 35.828125 
Q 39.65625 40.375 33.015625 40.375 
z
M 52.59375 71.296875 
L 52.59375 62.3125 
Q 48.875 64.0625 45.09375 64.984375 
Q 41.3125 65.921875 37.59375 65.921875 
Q 27.828125 65.921875 22.671875 59.328125 
Q 17.53125 52.734375 16.796875 39.40625 
Q 19.671875 43.65625 24.015625 45.921875 
Q 28.375 48.1875 33.59375 48.1875 
Q 44.578125 48.1875 50.953125 41.515625 
Q 57.328125 34.859375 57.328125 23.390625 
Q 57.328125 12.15625 50.6875 5.359375 
Q 44.046875 -1.421875 33.015625 -1.421875 
Q 20.359375 -1.421875 13.671875 8.265625 
Q 6.984375 17.96875 6.984375 36.375 
Q 6.984375 53.65625 15.1875 63.9375 
Q 23.390625 74.21875 37.203125 74.21875 
Q 40.921875 74.21875 44.703125 73.484375 
Q 48.484375 72.75 52.59375 71.296875 
z
" id="DejaVuSans-54"/>
       </defs>
       <use xlink:href="#DejaVuSans-54"/>
      </g>
     </g>
    </g>
    <g id="xtick_5">
     <g id="line2d_9">
      <path clip-path="url(#p2c74420fce)" d="M 97.755429 298.944 
L 97.755429 3.456 
" style="fill:none;stroke:#b0b0b0;stroke-linecap:square;stroke-width:0.8;"/>
     </g>
     <g id="line2d_10">
      <defs>
       <path d="M 0 0 
L 0 2 
" id="m49aa430603" style="stroke:#000000;stroke-width:0.6;"/>
      </defs>
      <g>
       <use style="stroke:#000000;stroke-width:0.6;" x="97.755429" xlink:href="#m49aa430603" y="298.944"/>
      </g>
     </g>
    </g>
    <g id="xtick_6">
     <g id="line2d_11">
      <path clip-path="url(#p2c74420fce)" d="M 178.066286 298.944 
L 178.066286 3.456 
" style="fill:none;stroke:#b0b0b0;stroke-linecap:square;stroke-width:0.8;"/>
     </g>
     <g id="line2d_12">
      <g>
       <use style="stroke:#000000;stroke-width:0.6;" x="178.066286" xlink:href="#m49aa430603" y="298.944"/>
      </g>
     </g>
    </g>
    <g id="xtick_7">
     <g id="line2d_13">
      <path clip-path="url(#p2c74420fce)" d="M 258.377143 298.944 
L 258.377143 3.456 
" style="fill:none;stroke:#b0b0b0;stroke-linecap:square;stroke-width:0.8;"/>
     </g>
     <g id="line2d_14">
      <g>
       <use style="stroke:#000000;stroke-width:0.6;" x="258.377143" xlink:href="#m49aa430603" y="298.944"/>
      </g>
     </g>
    </g>
    <g id="xtick_8">
     <g id="line2d_15">
      <path clip-path="url(#p2c74420fce)" d="M 338.688 298.944 
L 338.688 3.456 
" style="fill:none;stroke:#b0b0b0;stroke-linecap:square;stroke-width:0.8;"/>
     </g>
     <g id="line2d_16">
      <g>
       <use style="stroke:#000000;stroke-width:0.6;" x="338.688" xlink:href="#m49aa430603" y="298.944"/>
      </g>
     </g>
    </g>
    <g id="text_5">
     <!-- log10(# f-evals / dimension) -->
     <g transform="translate(77.764078 342.217594)scale(0.17 -0.17)">
      <defs>
       <path d="M 9.421875 75.984375 
L 18.40625 75.984375 
L 18.40625 0 
L 9.421875 0 
z
" id="DejaVuSans-108"/>
       <path d="M 30.609375 48.390625 
Q 23.390625 48.390625 19.1875 42.75 
Q 14.984375 37.109375 14.984375 27.296875 
Q 14.984375 17.484375 19.15625 11.84375 
Q 23.34375 6.203125 30.609375 6.203125 
Q 37.796875 6.203125 41.984375 11.859375 
Q 46.1875 17.53125 46.1875 27.296875 
Q 46.1875 37.015625 41.984375 42.703125 
Q 37.796875 48.390625 30.609375 48.390625 
z
M 30.609375 56 
Q 42.328125 56 49.015625 48.375 
Q 55.71875 40.765625 55.71875 27.296875 
Q 55.71875 13.875 49.015625 6.21875 
Q 42.328125 -1.421875 30.609375 -1.421875 
Q 18.84375 -1.421875 12.171875 6.21875 
Q 5.515625 13.875 5.515625 27.296875 
Q 5.515625 40.765625 12.171875 48.375 
Q 18.84375 56 30.609375 56 
z
" id="DejaVuSans-111"/>
       <path d="M 45.40625 27.984375 
Q 45.40625 37.75 41.375 43.109375 
Q 37.359375 48.484375 30.078125 48.484375 
Q 22.859375 48.484375 18.828125 43.109375 
Q 14.796875 37.75 14.796875 27.984375 
Q 14.796875 18.265625 18.828125 12.890625 
Q 22.859375 7.515625 30.078125 7.515625 
Q 37.359375 7.515625 41.375 12.890625 
Q 45.40625 18.265625 45.40625 27.984375 
z
M 54.390625 6.78125 
Q 54.390625 -7.171875 48.1875 -13.984375 
Q 42 -20.796875 29.203125 -20.796875 
Q 24.46875 -20.796875 20.265625 -20.09375 
Q 16.0625 -19.390625 12.109375 -17.921875 
L 12.109375 -9.1875 
Q 16.0625 -11.328125 19.921875 -12.34375 
Q 23.78125 -13.375 27.78125 -13.375 
Q 36.625 -13.375 41.015625 -8.765625 
Q 45.40625 -4.15625 45.40625 5.171875 
L 45.40625 9.625 
Q 42.625 4.78125 38.28125 2.390625 
Q 33.9375 0 27.875 0 
Q 17.828125 0 11.671875 7.65625 
Q 5.515625 15.328125 5.515625 27.984375 
Q 5.515625 40.671875 11.671875 48.328125 
Q 17.828125 56 27.875 56 
Q 33.9375 56 38.28125 53.609375 
Q 42.625 51.21875 45.40625 46.390625 
L 45.40625 54.6875 
L 54.390625 54.6875 
z
" id="DejaVuSans-103"/>
       <path d="M 12.40625 8.296875 
L 28.515625 8.296875 
L 28.515625 63.921875 
L 10.984375 60.40625 
L 10.984375 69.390625 
L 28.421875 72.90625 
L 38.28125 72.90625 
L 38.28125 8.296875 
L 54.390625 8.296875 
L 54.390625 0 
L 12.40625 0 
z
" id="DejaVuSans-49"/>
       <path d="M 31 75.875 
Q 24.46875 64.65625 21.28125 53.65625 
Q 18.109375 42.671875 18.109375 31.390625 
Q 18.109375 20.125 21.3125 9.0625 
Q 24.515625 -2 31 -13.1875 
L 23.1875 -13.1875 
Q 15.875 -1.703125 12.234375 9.375 
Q 8.59375 20.453125 8.59375 31.390625 
Q 8.59375 42.28125 12.203125 53.3125 
Q 15.828125 64.359375 23.1875 75.875 
z
" id="DejaVuSans-40"/>
       <path d="M 51.125 44 
L 36.921875 44 
L 32.8125 27.6875 
L 47.125 27.6875 
z
M 43.796875 71.78125 
L 38.71875 51.515625 
L 52.984375 51.515625 
L 58.109375 71.78125 
L 65.921875 71.78125 
L 60.890625 51.515625 
L 76.125 51.515625 
L 76.125 44 
L 58.984375 44 
L 54.984375 27.6875 
L 70.515625 27.6875 
L 70.515625 20.21875 
L 53.078125 20.21875 
L 48 0 
L 40.1875 0 
L 45.21875 20.21875 
L 30.90625 20.21875 
L 25.875 0 
L 18.015625 0 
L 23.09375 20.21875 
L 7.71875 20.21875 
L 7.71875 27.6875 
L 24.90625 27.6875 
L 29 44 
L 13.28125 44 
L 13.28125 51.515625 
L 30.90625 51.515625 
L 35.890625 71.78125 
z
" id="DejaVuSans-35"/>
       <path id="DejaVuSans-32"/>
       <path d="M 37.109375 75.984375 
L 37.109375 68.5 
L 28.515625 68.5 
Q 23.6875 68.5 21.796875 66.546875 
Q 19.921875 64.59375 19.921875 59.515625 
L 19.921875 54.6875 
L 34.71875 54.6875 
L 34.71875 47.703125 
L 19.921875 47.703125 
L 19.921875 0 
L 10.890625 0 
L 10.890625 47.703125 
L 2.296875 47.703125 
L 2.296875 54.6875 
L 10.890625 54.6875 
L 10.890625 58.5 
Q 10.890625 67.625 15.140625 71.796875 
Q 19.390625 75.984375 28.609375 75.984375 
z
" id="DejaVuSans-102"/>
       <path d="M 4.890625 31.390625 
L 31.203125 31.390625 
L 31.203125 23.390625 
L 4.890625 23.390625 
z
" id="DejaVuSans-45"/>
       <path d="M 56.203125 29.59375 
L 56.203125 25.203125 
L 14.890625 25.203125 
Q 15.484375 15.921875 20.484375 11.0625 
Q 25.484375 6.203125 34.421875 6.203125 
Q 39.59375 6.203125 44.453125 7.46875 
Q 49.3125 8.734375 54.109375 11.28125 
L 54.109375 2.78125 
Q 49.265625 0.734375 44.1875 -0.34375 
Q 39.109375 -1.421875 33.890625 -1.421875 
Q 20.796875 -1.421875 13.15625 6.1875 
Q 5.515625 13.8125 5.515625 26.8125 
Q 5.515625 40.234375 12.765625 48.109375 
Q 20.015625 56 32.328125 56 
Q 43.359375 56 49.78125 48.890625 
Q 56.203125 41.796875 56.203125 29.59375 
z
M 47.21875 32.234375 
Q 47.125 39.59375 43.09375 43.984375 
Q 39.0625 48.390625 32.421875 48.390625 
Q 24.90625 48.390625 20.390625 44.140625 
Q 15.875 39.890625 15.1875 32.171875 
z
" id="DejaVuSans-101"/>
       <path d="M 2.984375 54.6875 
L 12.5 54.6875 
L 29.59375 8.796875 
L 46.6875 54.6875 
L 56.203125 54.6875 
L 35.6875 0 
L 23.484375 0 
z
" id="DejaVuSans-118"/>
       <path d="M 34.28125 27.484375 
Q 23.390625 27.484375 19.1875 25 
Q 14.984375 22.515625 14.984375 16.5 
Q 14.984375 11.71875 18.140625 8.90625 
Q 21.296875 6.109375 26.703125 6.109375 
Q 34.1875 6.109375 38.703125 11.40625 
Q 43.21875 16.703125 43.21875 25.484375 
L 43.21875 27.484375 
z
M 52.203125 31.203125 
L 52.203125 0 
L 43.21875 0 
L 43.21875 8.296875 
Q 40.140625 3.328125 35.546875 0.953125 
Q 30.953125 -1.421875 24.3125 -1.421875 
Q 15.921875 -1.421875 10.953125 3.296875 
Q 6 8.015625 6 15.921875 
Q 6 25.140625 12.171875 29.828125 
Q 18.359375 34.515625 30.609375 34.515625 
L 43.21875 34.515625 
L 43.21875 35.40625 
Q 43.21875 41.609375 39.140625 45 
Q 35.0625 48.390625 27.6875 48.390625 
Q 23 48.390625 18.546875 47.265625 
Q 14.109375 46.140625 10.015625 43.890625 
L 10.015625 52.203125 
Q 14.9375 54.109375 19.578125 55.046875 
Q 24.21875 56 28.609375 56 
Q 40.484375 56 46.34375 49.84375 
Q 52.203125 43.703125 52.203125 31.203125 
z
" id="DejaVuSans-97"/>
       <path d="M 44.28125 53.078125 
L 44.28125 44.578125 
Q 40.484375 46.53125 36.375 47.5 
Q 32.28125 48.484375 27.875 48.484375 
Q 21.1875 48.484375 17.84375 46.4375 
Q 14.5 44.390625 14.5 40.28125 
Q 14.5 37.15625 16.890625 35.375 
Q 19.28125 33.59375 26.515625 31.984375 
L 29.59375 31.296875 
Q 39.15625 29.25 43.1875 25.515625 
Q 47.21875 21.78125 47.21875 15.09375 
Q 47.21875 7.46875 41.1875 3.015625 
Q 35.15625 -1.421875 24.609375 -1.421875 
Q 20.21875 -1.421875 15.453125 -0.5625 
Q 10.6875 0.296875 5.421875 2 
L 5.421875 11.28125 
Q 10.40625 8.6875 15.234375 7.390625 
Q 20.0625 6.109375 24.8125 6.109375 
Q 31.15625 6.109375 34.5625 8.28125 
Q 37.984375 10.453125 37.984375 14.40625 
Q 37.984375 18.0625 35.515625 20.015625 
Q 33.0625 21.96875 24.703125 23.78125 
L 21.578125 24.515625 
Q 13.234375 26.265625 9.515625 29.90625 
Q 5.8125 33.546875 5.8125 39.890625 
Q 5.8125 47.609375 11.28125 51.796875 
Q 16.75 56 26.8125 56 
Q 31.78125 56 36.171875 55.265625 
Q 40.578125 54.546875 44.28125 53.078125 
z
" id="DejaVuSans-115"/>
       <path d="M 25.390625 72.90625 
L 33.6875 72.90625 
L 8.296875 -9.28125 
L 0 -9.28125 
z
" id="DejaVuSans-47"/>
       <path d="M 45.40625 46.390625 
L 45.40625 75.984375 
L 54.390625 75.984375 
L 54.390625 0 
L 45.40625 0 
L 45.40625 8.203125 
Q 42.578125 3.328125 38.25 0.953125 
Q 33.9375 -1.421875 27.875 -1.421875 
Q 17.96875 -1.421875 11.734375 6.484375 
Q 5.515625 14.40625 5.515625 27.296875 
Q 5.515625 40.1875 11.734375 48.09375 
Q 17.96875 56 27.875 56 
Q 33.9375 56 38.25 53.625 
Q 42.578125 51.265625 45.40625 46.390625 
z
M 14.796875 27.296875 
Q 14.796875 17.390625 18.875 11.75 
Q 22.953125 6.109375 30.078125 6.109375 
Q 37.203125 6.109375 41.296875 11.75 
Q 45.40625 17.390625 45.40625 27.296875 
Q 45.40625 37.203125 41.296875 42.84375 
Q 37.203125 48.484375 30.078125 48.484375 
Q 22.953125 48.484375 18.875 42.84375 
Q 14.796875 37.203125 14.796875 27.296875 
z
" id="DejaVuSans-100"/>
       <path d="M 9.421875 54.6875 
L 18.40625 54.6875 
L 18.40625 0 
L 9.421875 0 
z
M 9.421875 75.984375 
L 18.40625 75.984375 
L 18.40625 64.59375 
L 9.421875 64.59375 
z
" id="DejaVuSans-105"/>
       <path d="M 52 44.1875 
Q 55.375 50.25 60.0625 53.125 
Q 64.75 56 71.09375 56 
Q 79.640625 56 84.28125 50.015625 
Q 88.921875 44.046875 88.921875 33.015625 
L 88.921875 0 
L 79.890625 0 
L 79.890625 32.71875 
Q 79.890625 40.578125 77.09375 44.375 
Q 74.3125 48.1875 68.609375 48.1875 
Q 61.625 48.1875 57.5625 43.546875 
Q 53.515625 38.921875 53.515625 30.90625 
L 53.515625 0 
L 44.484375 0 
L 44.484375 32.71875 
Q 44.484375 40.625 41.703125 44.40625 
Q 38.921875 48.1875 33.109375 48.1875 
Q 26.21875 48.1875 22.15625 43.53125 
Q 18.109375 38.875 18.109375 30.90625 
L 18.109375 0 
L 9.078125 0 
L 9.078125 54.6875 
L 18.109375 54.6875 
L 18.109375 46.1875 
Q 21.1875 51.21875 25.484375 53.609375 
Q 29.78125 56 35.6875 56 
Q 41.65625 56 45.828125 52.96875 
Q 50 49.953125 52 44.1875 
z
" id="DejaVuSans-109"/>
       <path d="M 54.890625 33.015625 
L 54.890625 0 
L 45.90625 0 
L 45.90625 32.71875 
Q 45.90625 40.484375 42.875 44.328125 
Q 39.84375 48.1875 33.796875 48.1875 
Q 26.515625 48.1875 22.3125 43.546875 
Q 18.109375 38.921875 18.109375 30.90625 
L 18.109375 0 
L 9.078125 0 
L 9.078125 54.6875 
L 18.109375 54.6875 
L 18.109375 46.1875 
Q 21.34375 51.125 25.703125 53.5625 
Q 30.078125 56 35.796875 56 
Q 45.21875 56 50.046875 50.171875 
Q 54.890625 44.34375 54.890625 33.015625 
z
" id="DejaVuSans-110"/>
       <path d="M 8.015625 75.875 
L 15.828125 75.875 
Q 23.140625 64.359375 26.78125 53.3125 
Q 30.421875 42.28125 30.421875 31.390625 
Q 30.421875 20.453125 26.78125 9.375 
Q 23.140625 -1.703125 15.828125 -13.1875 
L 8.015625 -13.1875 
Q 14.5 -2 17.703125 9.0625 
Q 20.90625 20.125 20.90625 31.390625 
Q 20.90625 42.671875 17.703125 53.65625 
Q 14.5 64.65625 8.015625 75.875 
z
" id="DejaVuSans-41"/>
      </defs>
      <use xlink:href="#DejaVuSans-108"/>
      <use x="27.783203" xlink:href="#DejaVuSans-111"/>
      <use x="88.964844" xlink:href="#DejaVuSans-103"/>
      <use x="152.441406" xlink:href="#DejaVuSans-49"/>
      <use x="216.064453" xlink:href="#DejaVuSans-48"/>
      <use x="279.6875" xlink:href="#DejaVuSans-40"/>
      <use x="318.701172" xlink:href="#DejaVuSans-35"/>
      <use x="402.490234" xlink:href="#DejaVuSans-32"/>
      <use x="434.277344" xlink:href="#DejaVuSans-102"/>
      <use x="463.982422" xlink:href="#DejaVuSans-45"/>
      <use x="500.066406" xlink:href="#DejaVuSans-101"/>
      <use x="561.589844" xlink:href="#DejaVuSans-118"/>
      <use x="620.769531" xlink:href="#DejaVuSans-97"/>
      <use x="682.048828" xlink:href="#DejaVuSans-108"/>
      <use x="709.832031" xlink:href="#DejaVuSans-115"/>
      <use x="761.931641" xlink:href="#DejaVuSans-32"/>
      <use x="793.71875" xlink:href="#DejaVuSans-47"/>
      <use x="827.410156" xlink:href="#DejaVuSans-32"/>
      <use x="859.197266" xlink:href="#DejaVuSans-100"/>
      <use x="922.673828" xlink:href="#DejaVuSans-105"/>
      <use x="950.457031" xlink:href="#DejaVuSans-109"/>
      <use x="1047.869141" xlink:href="#DejaVuSans-101"/>
      <use x="1109.392578" xlink:href="#DejaVuSans-110"/>
      <use x="1172.771484" xlink:href="#DejaVuSans-115"/>
      <use x="1224.871094" xlink:href="#DejaVuSans-105"/>
      <use x="1252.654297" xlink:href="#DejaVuSans-111"/>
      <use x="1313.835938" xlink:href="#DejaVuSans-110"/>
      <use x="1377.214844" xlink:href="#DejaVuSans-41"/>
     </g>
    </g>
   </g>
   <g id="matplotlib.axis_2">
    <g id="ytick_1">
     <g id="line2d_17">
      <path clip-path="url(#p2c74420fce)" d="M 57.6 298.944 
L 338.688 298.944 
" style="fill:none;stroke:#b0b0b0;stroke-linecap:square;stroke-width:0.8;"/>
     </g>
     <g id="line2d_18">
      <defs>
       <path d="M 0 0 
L -3.5 0 
" id="m372cc19b3f" style="stroke:#000000;stroke-width:0.8;"/>
      </defs>
      <g>
       <use style="stroke:#000000;stroke-width:0.8;" x="57.6" xlink:href="#m372cc19b3f" y="298.944"/>
      </g>
     </g>
     <g id="text_6">
      <!-- 0.0 -->
      <g transform="translate(25.155 305.02275)scale(0.16 -0.16)">
       <defs>
        <path d="M 10.6875 12.40625 
L 21 12.40625 
L 21 0 
L 10.6875 0 
z
" id="DejaVuSans-46"/>
       </defs>
       <use xlink:href="#DejaVuSans-48"/>
       <use x="63.623047" xlink:href="#DejaVuSans-46"/>
       <use x="95.410156" xlink:href="#DejaVuSans-48"/>
      </g>
     </g>
    </g>
    <g id="ytick_2">
     <g id="line2d_19">
      <path clip-path="url(#p2c74420fce)" d="M 57.6 240.431525 
L 338.688 240.431525 
" style="fill:none;stroke:#b0b0b0;stroke-linecap:square;stroke-width:0.8;"/>
     </g>
     <g id="line2d_20">
      <g>
       <use style="stroke:#000000;stroke-width:0.8;" x="57.6" xlink:href="#m372cc19b3f" y="240.431525"/>
      </g>
     </g>
     <g id="text_7">
      <!-- 0.2 -->
      <g transform="translate(25.155 246.510275)scale(0.16 -0.16)">
       <use xlink:href="#DejaVuSans-48"/>
       <use x="63.623047" xlink:href="#DejaVuSans-46"/>
       <use x="95.410156" xlink:href="#DejaVuSans-50"/>
      </g>
     </g>
    </g>
    <g id="ytick_3">
     <g id="line2d_21">
      <path clip-path="url(#p2c74420fce)" d="M 57.6 181.91905 
L 338.688 181.91905 
" style="fill:none;stroke:#b0b0b0;stroke-linecap:square;stroke-width:0.8;"/>
     </g>
     <g id="line2d_22">
      <g>
       <use style="stroke:#000000;stroke-width:0.8;" x="57.6" xlink:href="#m372cc19b3f" y="181.91905"/>
      </g>
     </g>
     <g id="text_8">
      <!-- 0.4 -->
      <g transform="translate(25.155 187.9978)scale(0.16 -0.16)">
       <use xlink:href="#DejaVuSans-48"/>
       <use x="63.623047" xlink:href="#DejaVuSans-46"/>
       <use x="95.410156" xlink:href="#DejaVuSans-52"/>
      </g>
     </g>
    </g>
    <g id="ytick_4">
     <g id="line2d_23">
      <path clip-path="url(#p2c74420fce)" d="M 57.6 123.406574 
L 338.688 123.406574 
" style="fill:none;stroke:#b0b0b0;stroke-linecap:square;stroke-width:0.8;"/>
     </g>
     <g id="line2d_24">
      <g>
       <use style="stroke:#000000;stroke-width:0.8;" x="57.6" xlink:href="#m372cc19b3f" y="123.406574"/>
      </g>
     </g>
     <g id="text_9">
      <!-- 0.6 -->
      <g transform="translate(25.155 129.485324)scale(0.16 -0.16)">
       <use xlink:href="#DejaVuSans-48"/>
       <use x="63.623047" xlink:href="#DejaVuSans-46"/>
       <use x="95.410156" xlink:href="#DejaVuSans-54"/>
      </g>
     </g>
    </g>
    <g id="ytick_5">
     <g id="line2d_25">
      <path clip-path="url(#p2c74420fce)" d="M 57.6 64.894099 
L 338.688 64.894099 
" style="fill:none;stroke:#b0b0b0;stroke-linecap:square;stroke-width:0.8;"/>
     </g>
     <g id="line2d_26">
      <g>
       <use style="stroke:#000000;stroke-width:0.8;" x="57.6" xlink:href="#m372cc19b3f" y="64.894099"/>
      </g>
     </g>
     <g id="text_10">
      <!-- 0.8 -->
      <g transform="translate(25.155 70.972849)scale(0.16 -0.16)">
       <defs>
        <path d="M 31.78125 34.625 
Q 24.75 34.625 20.71875 30.859375 
Q 16.703125 27.09375 16.703125 20.515625 
Q 16.703125 13.921875 20.71875 10.15625 
Q 24.75 6.390625 31.78125 6.390625 
Q 38.8125 6.390625 42.859375 10.171875 
Q 46.921875 13.96875 46.921875 20.515625 
Q 46.921875 27.09375 42.890625 30.859375 
Q 38.875 34.625 31.78125 34.625 
z
M 21.921875 38.8125 
Q 15.578125 40.375 12.03125 44.71875 
Q 8.5 49.078125 8.5 55.328125 
Q 8.5 64.0625 14.71875 69.140625 
Q 20.953125 74.21875 31.78125 74.21875 
Q 42.671875 74.21875 48.875 69.140625 
Q 55.078125 64.0625 55.078125 55.328125 
Q 55.078125 49.078125 51.53125 44.71875 
Q 48 40.375 41.703125 38.8125 
Q 48.828125 37.15625 52.796875 32.3125 
Q 56.78125 27.484375 56.78125 20.515625 
Q 56.78125 9.90625 50.3125 4.234375 
Q 43.84375 -1.421875 31.78125 -1.421875 
Q 19.734375 -1.421875 13.25 4.234375 
Q 6.78125 9.90625 6.78125 20.515625 
Q 6.78125 27.484375 10.78125 32.3125 
Q 14.796875 37.15625 21.921875 38.8125 
z
M 18.3125 54.390625 
Q 18.3125 48.734375 21.84375 45.5625 
Q 25.390625 42.390625 31.78125 42.390625 
Q 38.140625 42.390625 41.71875 45.5625 
Q 45.3125 48.734375 45.3125 54.390625 
Q 45.3125 60.0625 41.71875 63.234375 
Q 38.140625 66.40625 31.78125 66.40625 
Q 25.390625 66.40625 21.84375 63.234375 
Q 18.3125 60.0625 18.3125 54.390625 
z
" id="DejaVuSans-56"/>
       </defs>
       <use xlink:href="#DejaVuSans-48"/>
       <use x="63.623047" xlink:href="#DejaVuSans-46"/>
       <use x="95.410156" xlink:href="#DejaVuSans-56"/>
      </g>
     </g>
    </g>
    <g id="ytick_6">
     <g id="line2d_27">
      <path clip-path="url(#p2c74420fce)" d="M 57.6 6.381624 
L 338.688 6.381624 
" style="fill:none;stroke:#b0b0b0;stroke-linecap:square;stroke-width:0.8;"/>
     </g>
     <g id="line2d_28">
      <g>
       <use style="stroke:#000000;stroke-width:0.8;" x="57.6" xlink:href="#m372cc19b3f" y="6.381624"/>
      </g>
     </g>
     <g id="text_11">
      <!-- 1.0 -->
      <g transform="translate(25.155 12.460374)scale(0.16 -0.16)">
       <use xlink:href="#DejaVuSans-49"/>
       <use x="63.623047" xlink:href="#DejaVuSans-46"/>
       <use x="95.410156" xlink:href="#DejaVuSans-48"/>
      </g>
     </g>
    </g>
    <g id="text_12">
     <!-- Fraction of function,target pairs -->
     <g transform="translate(17.619531 285.585)rotate(-90)scale(0.17 -0.17)">
      <defs>
       <path d="M 9.8125 72.90625 
L 51.703125 72.90625 
L 51.703125 64.59375 
L 19.671875 64.59375 
L 19.671875 43.109375 
L 48.578125 43.109375 
L 48.578125 34.8125 
L 19.671875 34.8125 
L 19.671875 0 
L 9.8125 0 
z
" id="DejaVuSans-70"/>
       <path d="M 41.109375 46.296875 
Q 39.59375 47.171875 37.8125 47.578125 
Q 36.03125 48 33.890625 48 
Q 26.265625 48 22.1875 43.046875 
Q 18.109375 38.09375 18.109375 28.8125 
L 18.109375 0 
L 9.078125 0 
L 9.078125 54.6875 
L 18.109375 54.6875 
L 18.109375 46.1875 
Q 20.953125 51.171875 25.484375 53.578125 
Q 30.03125 56 36.53125 56 
Q 37.453125 56 38.578125 55.875 
Q 39.703125 55.765625 41.0625 55.515625 
z
" id="DejaVuSans-114"/>
       <path d="M 48.78125 52.59375 
L 48.78125 44.1875 
Q 44.96875 46.296875 41.140625 47.34375 
Q 37.3125 48.390625 33.40625 48.390625 
Q 24.65625 48.390625 19.8125 42.84375 
Q 14.984375 37.3125 14.984375 27.296875 
Q 14.984375 17.28125 19.8125 11.734375 
Q 24.65625 6.203125 33.40625 6.203125 
Q 37.3125 6.203125 41.140625 7.25 
Q 44.96875 8.296875 48.78125 10.40625 
L 48.78125 2.09375 
Q 45.015625 0.34375 40.984375 -0.53125 
Q 36.96875 -1.421875 32.421875 -1.421875 
Q 20.0625 -1.421875 12.78125 6.34375 
Q 5.515625 14.109375 5.515625 27.296875 
Q 5.515625 40.671875 12.859375 48.328125 
Q 20.21875 56 33.015625 56 
Q 37.15625 56 41.109375 55.140625 
Q 45.0625 54.296875 48.78125 52.59375 
z
" id="DejaVuSans-99"/>
       <path d="M 18.3125 70.21875 
L 18.3125 54.6875 
L 36.8125 54.6875 
L 36.8125 47.703125 
L 18.3125 47.703125 
L 18.3125 18.015625 
Q 18.3125 11.328125 20.140625 9.421875 
Q 21.96875 7.515625 27.59375 7.515625 
L 36.8125 7.515625 
L 36.8125 0 
L 27.59375 0 
Q 17.1875 0 13.234375 3.875 
Q 9.28125 7.765625 9.28125 18.015625 
L 9.28125 47.703125 
L 2.6875 47.703125 
L 2.6875 54.6875 
L 9.28125 54.6875 
L 9.28125 70.21875 
z
" id="DejaVuSans-116"/>
       <path d="M 8.5 21.578125 
L 8.5 54.6875 
L 17.484375 54.6875 
L 17.484375 21.921875 
Q 17.484375 14.15625 20.5 10.265625 
Q 23.53125 6.390625 29.59375 6.390625 
Q 36.859375 6.390625 41.078125 11.03125 
Q 45.3125 15.671875 45.3125 23.6875 
L 45.3125 54.6875 
L 54.296875 54.6875 
L 54.296875 0 
L 45.3125 0 
L 45.3125 8.40625 
Q 42.046875 3.421875 37.71875 1 
Q 33.40625 -1.421875 27.6875 -1.421875 
Q 18.265625 -1.421875 13.375 4.4375 
Q 8.5 10.296875 8.5 21.578125 
z
M 31.109375 56 
z
" id="DejaVuSans-117"/>
       <path d="M 11.71875 12.40625 
L 22.015625 12.40625 
L 22.015625 4 
L 14.015625 -11.625 
L 7.71875 -11.625 
L 11.71875 4 
z
" id="DejaVuSans-44"/>
       <path d="M 18.109375 8.203125 
L 18.109375 -20.796875 
L 9.078125 -20.796875 
L 9.078125 54.6875 
L 18.109375 54.6875 
L 18.109375 46.390625 
Q 20.953125 51.265625 25.265625 53.625 
Q 29.59375 56 35.59375 56 
Q 45.5625 56 51.78125 48.09375 
Q 58.015625 40.1875 58.015625 27.296875 
Q 58.015625 14.40625 51.78125 6.484375 
Q 45.5625 -1.421875 35.59375 -1.421875 
Q 29.59375 -1.421875 25.265625 0.953125 
Q 20.953125 3.328125 18.109375 8.203125 
z
M 48.6875 27.296875 
Q 48.6875 37.203125 44.609375 42.84375 
Q 40.53125 48.484375 33.40625 48.484375 
Q 26.265625 48.484375 22.1875 42.84375 
Q 18.109375 37.203125 18.109375 27.296875 
Q 18.109375 17.390625 22.1875 11.75 
Q 26.265625 6.109375 33.40625 6.109375 
Q 40.53125 6.109375 44.609375 11.75 
Q 48.6875 17.390625 48.6875 27.296875 
z
" id="DejaVuSans-112"/>
      </defs>
      <use xlink:href="#DejaVuSans-70"/>
      <use x="50.269531" xlink:href="#DejaVuSans-114"/>
      <use x="91.382812" xlink:href="#DejaVuSans-97"/>
      <use x="152.662109" xlink:href="#DejaVuSans-99"/>
      <use x="207.642578" xlink:href="#DejaVuSans-116"/>
      <use x="246.851562" xlink:href="#DejaVuSans-105"/>
      <use x="274.634766" xlink:href="#DejaVuSans-111"/>
      <use x="335.816406" xlink:href="#DejaVuSans-110"/>
      <use x="399.195312" xlink:href="#DejaVuSans-32"/>
      <use x="430.982422" xlink:href="#DejaVuSans-111"/>
      <use x="492.164062" xlink:href="#DejaVuSans-102"/>
      <use x="527.369141" xlink:href="#DejaVuSans-32"/>
      <use x="559.15625" xlink:href="#DejaVuSans-102"/>
      <use x="594.361328" xlink:href="#DejaVuSans-117"/>
      <use x="657.740234" xlink:href="#DejaVuSans-110"/>
      <use x="721.119141" xlink:href="#DejaVuSans-99"/>
      <use x="776.099609" xlink:href="#DejaVuSans-116"/>
      <use x="815.308594" xlink:href="#DejaVuSans-105"/>
      <use x="843.091797" xlink:href="#DejaVuSans-111"/>
      <use x="904.273438" xlink:href="#DejaVuSans-110"/>
      <use x="967.652344" xlink:href="#DejaVuSans-44"/>
      <use x="999.439453" xlink:href="#DejaVuSans-116"/>
      <use x="1038.648438" xlink:href="#DejaVuSans-97"/>
      <use x="1099.927734" xlink:href="#DejaVuSans-114"/>
      <use x="1139.291016" xlink:href="#DejaVuSans-103"/>
      <use x="1202.767578" xlink:href="#DejaVuSans-101"/>
      <use x="1264.291016" xlink:href="#DejaVuSans-116"/>
      <use x="1303.5" xlink:href="#DejaVuSans-32"/>
      <use x="1335.287109" xlink:href="#DejaVuSans-112"/>
      <use x="1398.763672" xlink:href="#DejaVuSans-97"/>
      <use x="1460.042969" xlink:href="#DejaVuSans-105"/>
      <use x="1487.826172" xlink:href="#DejaVuSans-114"/>
      <use x="1528.939453" xlink:href="#DejaVuSans-115"/>
     </g>
    </g>
   </g>
   <g id="line2d_29">
    <defs>
     <path d="M 0 1.5 
C 0.397805 1.5 0.77937 1.341951 1.06066 1.06066 
C 1.341951 0.77937 1.5 0.397805 1.5 0 
C 1.5 -0.397805 1.341951 -0.77937 1.06066 -1.06066 
C 0.77937 -1.341951 0.397805 -1.5 0 -1.5 
C -0.397805 -1.5 -0.77937 -1.341951 -1.06066 -1.06066 
C -1.341951 -0.77937 -1.5 -0.397805 -1.5 0 
C -1.5 0.397805 -1.341951 0.77937 -1.06066 1.06066 
C -0.77937 1.341951 -0.397805 1.5 0 1.5 
z
" id="me782923280" style="stroke:#000080;"/>
    </defs>
    <g>
     <use style="fill:#000080;stroke:#000080;" x="258.067242" xlink:href="#me782923280" y="124.41541"/>
     <use style="fill:#000080;stroke:#000080;" x="258.067242" xlink:href="#me782923280" y="124.41541"/>
    </g>
   </g>
   <g id="line2d_30">
    <path d="M 38.440992 298.944 
L 38.440992 292.890985 
L 91.535274 292.890985 
L 91.535274 292.386567 
L 94.575872 292.386567 
L 94.575872 291.88215 
L 102.330873 291.88215 
L 102.330873 291.377732 
L 105.209745 291.377732 
L 105.209745 290.873314 
L 107.680028 290.873314 
L 107.680028 290.368896 
L 109.843417 290.368896 
L 109.843417 289.864478 
L 111.767808 289.864478 
L 111.767808 288.855642 
L 113.500792 288.855642 
L 113.500792 288.351224 
L 116.522527 288.351224 
L 116.522527 287.846806 
L 117.857331 287.846806 
L 117.857331 286.837971 
L 119.097192 286.837971 
L 119.097192 286.333553 
L 122.362027 286.333553 
L 122.362027 285.829135 
L 123.327293 285.829135 
L 123.327293 285.324717 
L 124.241922 285.324717 
L 124.241922 284.820299 
L 125.110962 284.820299 
L 125.110962 283.811463 
L 127.48501 283.811463 
L 127.48501 283.307045 
L 128.209594 283.307045 
L 128.209594 282.802628 
L 130.218525 282.802628 
L 130.218525 282.29821 
L 130.839837 282.29821 
L 130.839837 281.289374 
L 132.019755 281.289374 
L 132.019755 280.280538 
L 133.124876 280.280538 
L 133.124876 279.77612 
L 134.164119 279.77612 
L 134.164119 279.271702 
L 134.661403 279.271702 
L 134.661403 278.767284 
L 135.144899 278.767284 
L 135.144899 278.262867 
L 135.615352 278.262867 
L 135.615352 277.758449 
L 136.073445 277.758449 
L 136.073445 276.749613 
L 136.519813 276.749613 
L 136.519813 276.245195 
L 136.955041 276.245195 
L 136.955041 275.740777 
L 138.199116 275.740777 
L 138.199116 275.236359 
L 138.981779 275.236359 
L 138.981779 274.731941 
L 140.093612 274.731941 
L 140.093612 273.723105 
L 140.79731 273.723105 
L 140.79731 273.218688 
L 142.441528 273.218688 
L 142.441528 272.209852 
L 144.510517 272.209852 
L 144.510517 271.705434 
L 151.923236 271.705434 
L 151.923236 271.201016 
L 153.656221 271.201016 
L 153.656221 270.696598 
L 154.439623 270.696598 
L 154.439623 270.19218 
L 155.189341 270.19218 
L 155.189341 269.687762 
L 155.61575 269.687762 
L 155.61575 269.183344 
L 155.949527 269.183344 
L 155.949527 268.678927 
L 156.357959 268.678927 
L 156.357959 268.174509 
L 157.79107 268.174509 
L 157.79107 267.670091 
L 158.889829 267.670091 
L 158.889829 267.165673 
L 159.303838 267.165673 
L 159.303838 266.156837 
L 159.658204 266.156837 
L 159.658204 265.148001 
L 159.791329 265.148001 
L 159.791329 264.643583 
L 159.93989 264.643583 
L 159.93989 263.634748 
L 160.281688 263.634748 
L 160.281688 262.625912 
L 160.394148 262.625912 
L 160.394148 262.121494 
L 160.632719 262.121494 
L 160.632719 261.617076 
L 161.11566 261.617076 
L 161.192316 260.103822 
L 161.420284 260.103822 
L 161.420284 259.094987 
L 161.896878 259.094987 
L 161.896878 258.590569 
L 162.545789 258.590569 
L 162.602318 257.581733 
L 162.700806 257.581733 
L 162.79874 256.068479 
L 164.166702 256.068479 
L 164.179597 255.059644 
L 164.985598 255.059644 
L 164.985598 254.050808 
L 165.35096 254.050808 
L 165.435121 253.041972 
L 165.779524 253.041972 
L 165.779524 252.537554 
L 166.163331 252.537554 
L 166.163331 252.033136 
L 166.561376 252.033136 
L 166.561376 251.528718 
L 167.244924 251.528718 
L 167.277329 250.519883 
L 167.384913 250.519883 
L 167.427761 249.511047 
L 167.965045 249.511047 
L 167.975417 247.997793 
L 168.273531 247.997793 
L 168.273531 247.493375 
L 169.635673 247.493375 
L 169.635673 246.988957 
L 169.841835 246.988957 
L 169.841835 246.484539 
L 170.916612 246.484539 
L 170.916612 245.475704 
L 171.787903 245.475704 
L 171.787903 244.971286 
L 173.088028 244.971286 
L 173.088028 243.96245 
L 173.844732 243.96245 
L 173.844732 243.458032 
L 174.094709 243.458032 
L 174.094709 242.953614 
L 174.520166 242.953614 
L 174.520166 241.944778 
L 174.767737 241.944778 
L 174.767737 241.440361 
L 174.956347 241.440361 
L 174.956347 240.431525 
L 175.803903 240.431525 
L 175.876553 237.909435 
L 176.241787 237.909435 
L 176.241787 236.9006 
L 176.725536 236.9006 
L 176.794453 235.891764 
L 177.576999 235.891764 
L 177.576999 235.387346 
L 179.338318 235.387346 
L 179.338318 234.37851 
L 180.634567 234.37851 
L 180.634567 233.369674 
L 180.779458 233.369674 
L 180.779458 232.360839 
L 181.385763 232.360839 
L 181.385763 231.856421 
L 181.925165 231.856421 
L 181.925165 230.847585 
L 182.357718 230.847585 
L 182.357718 229.838749 
L 182.735382 229.838749 
L 182.74872 228.325495 
L 183.065806 228.325495 
L 183.065806 227.821078 
L 183.31711 227.821078 
L 183.31711 227.31666 
L 183.479815 227.31666 
L 183.479815 226.812242 
L 183.871725 226.812242 
L 183.871725 226.307824 
L 186.109546 226.307824 
L 186.109546 225.803406 
L 186.23736 225.803406 
L 186.23736 225.298988 
L 186.887302 225.298988 
L 186.887302 224.290152 
L 187.186189 224.290152 
L 187.186189 223.785734 
L 187.702242 223.785734 
L 187.702242 222.776899 
L 187.948057 222.776899 
L 187.997465 220.759227 
L 188.10894 220.759227 
L 188.180693 216.723884 
L 188.358796 216.723884 
L 188.397414 215.21063 
L 188.509564 215.21063 
L 188.509564 214.706212 
L 188.753784 214.706212 
L 188.753784 213.697377 
L 189.984874 213.697377 
L 189.984874 212.688541 
L 190.131006 212.688541 
L 190.229681 210.670869 
L 190.67258 210.670869 
L 190.67258 209.662033 
L 190.977436 209.662033 
L 191.043851 208.14878 
L 191.238858 208.14878 
L 191.238858 207.139944 
L 191.803199 207.139944 
L 191.803199 206.131108 
L 193.818718 206.131108 
L 193.903318 204.113437 
L 194.83893 204.113437 
L 194.903245 202.600183 
L 196.55975 202.600183 
L 196.55975 202.095765 
L 196.684117 202.095765 
L 196.684117 201.086929 
L 196.870996 201.086929 
L 196.870996 200.582511 
L 198.21402 200.582511 
L 198.21402 200.078094 
L 198.554876 200.078094 
L 198.563851 199.069258 
L 199.312041 199.069258 
L 199.312041 198.56484 
L 199.442211 198.56484 
L 199.472899 197.556004 
L 199.748364 197.556004 
L 199.748364 196.547168 
L 200.587968 196.547168 
L 200.62468 194.529497 
L 200.816558 194.529497 
L 200.816558 194.025079 
L 201.537924 194.025079 
L 201.537924 193.520661 
L 201.746996 193.520661 
L 201.829036 192.007407 
L 201.881042 192.007407 
L 201.881042 191.502989 
L 202.319117 191.502989 
L 202.319117 190.998572 
L 202.586181 190.998572 
L 202.586181 189.989736 
L 203.171842 189.989736 
L 203.171842 189.485318 
L 203.355502 189.485318 
L 203.355502 188.9809 
L 204.712436 188.9809 
L 204.712436 188.476482 
L 204.979053 188.476482 
L 204.979053 187.972064 
L 205.478647 187.972064 
L 205.478647 187.467646 
L 205.946708 187.467646 
L 205.946708 186.963228 
L 206.459682 186.963228 
L 206.459682 185.954393 
L 206.57682 185.954393 
L 206.57682 184.945557 
L 206.972407 184.945557 
L 206.972407 183.936721 
L 208.501177 183.936721 
L 208.501177 182.927885 
L 208.685945 182.927885 
L 208.685945 181.91905 
L 209.296804 181.91905 
L 209.335552 180.910214 
L 209.989809 180.910214 
L 209.989809 180.405796 
L 210.727047 180.405796 
L 210.727047 179.901378 
L 210.903935 179.901378 
L 210.961326 178.892542 
L 213.596381 178.892542 
L 213.596381 178.388124 
L 214.045274 178.388124 
L 214.045274 177.883706 
L 214.438185 177.883706 
L 214.438185 177.379288 
L 214.721128 177.379288 
L 214.721128 176.874871 
L 215.232252 176.874871 
L 215.232252 175.866035 
L 216.045159 175.866035 
L 216.045159 174.857199 
L 216.366208 174.857199 
L 216.366208 174.352781 
L 217.21732 174.352781 
L 217.21732 173.848363 
L 217.579909 173.848363 
L 217.579909 173.343945 
L 218.214156 173.343945 
L 218.214156 172.839527 
L 219.823506 172.839527 
L 219.823506 172.33511 
L 220.5251 172.33511 
L 220.5251 171.830692 
L 220.67826 171.830692 
L 220.753333 170.317438 
L 220.871583 170.317438 
L 220.871583 169.81302 
L 221.192205 169.81302 
L 221.192205 169.308602 
L 221.795937 169.308602 
L 221.795937 168.299766 
L 222.041413 168.299766 
L 222.041413 167.795349 
L 222.464447 167.795349 
L 222.464447 166.786513 
L 222.659337 166.786513 
L 222.659337 166.282095 
L 223.10432 166.282095 
L 223.10432 165.777677 
L 223.925179 165.777677 
L 224.03382 164.264423 
L 224.45564 164.264423 
L 224.45564 163.255588 
L 224.60221 163.255588 
L 224.60221 162.75117 
L 225.489651 162.75117 
L 225.489651 161.742334 
L 225.918861 161.742334 
L 225.918861 161.237916 
L 226.196299 161.237916 
L 226.196299 160.733498 
L 227.039225 160.733498 
L 227.102221 159.724662 
L 228.051622 159.724662 
L 228.051622 159.220244 
L 230.060585 159.220244 
L 230.060585 158.211409 
L 230.577079 158.211409 
L 230.577079 157.202573 
L 232.049881 157.202573 
L 232.049881 156.193737 
L 232.321332 156.193737 
L 232.321332 155.689319 
L 232.983773 155.689319 
L 232.983773 154.680483 
L 233.165092 154.680483 
L 233.165092 153.671648 
L 233.432976 153.671648 
L 233.432976 152.662812 
L 234.408732 152.662812 
L 234.408732 152.158394 
L 234.750255 152.158394 
L 234.750255 151.653976 
L 235.555149 151.653976 
L 235.555149 151.149558 
L 235.711081 151.149558 
L 235.711081 150.64514 
L 236.04081 150.64514 
L 236.065692 149.636305 
L 236.352913 149.636305 
L 236.352913 148.627469 
L 236.688183 148.627469 
L 236.7879 143.078872 
L 236.803129 143.078872 
L 236.878278 140.052365 
L 236.955289 140.052365 
L 237.02504 138.539111 
L 237.098847 138.539111 
L 237.182145 137.025857 
L 237.478303 137.025857 
L 237.527177 135.512604 
L 237.977289 135.512604 
L 237.977289 134.503768 
L 238.28999 134.503768 
L 238.28999 133.99935 
L 239.182347 133.99935 
L 239.18357 131.981678 
L 240.260277 131.981678 
L 240.260277 131.47726 
L 241.705 131.47726 
L 241.705 130.468425 
L 242.716086 130.468425 
L 242.716086 129.964007 
L 245.713564 129.964007 
L 245.713564 129.459589 
L 247.270519 129.459589 
L 247.270519 128.955171 
L 248.27362 128.955171 
L 248.27362 128.450753 
L 248.836151 128.450753 
L 248.836151 127.946335 
L 250.37246 127.946335 
L 250.37246 126.937499 
L 253.100223 126.937499 
L 253.100223 126.433082 
L 254.832591 126.433082 
L 254.832591 125.424246 
L 258.067242 125.424246 
L 258.067242 124.41541 
L 338.688 124.41541 
L 338.688 124.41541 
" style="fill:none;stroke:#000080;stroke-linecap:square;stroke-width:1.5;"/>
   </g>
   <g id="line2d_31">
    <defs>
     <path d="M 0 6 
C 1.591219 6 3.117479 5.367802 4.242641 4.242641 
C 5.367802 3.117479 6 1.591219 6 0 
C 6 -1.591219 5.367802 -3.117479 4.242641 -4.242641 
C 3.117479 -5.367802 1.591219 -6 0 -6 
C -1.591219 -6 -3.117479 -5.367802 -4.242641 -4.242641 
C -5.367802 -3.117479 -6 -1.591219 -6 0 
C -6 1.591219 -5.367802 3.117479 -4.242641 4.242641 
C -3.117479 5.367802 -1.591219 6 0 6 
z
" id="m0296fdd749" style="stroke:#000080;stroke-width:1.5;"/>
    </defs>
    <g>
     <use style="fill-opacity:0;stroke:#000080;stroke-width:1.5;" x="175.876553" xlink:href="#m0296fdd749" y="238.413853"/>
     <use style="fill-opacity:0;stroke:#000080;stroke-width:1.5;" x="206.972407" xlink:href="#m0296fdd749" y="184.945557"/>
     <use style="fill-opacity:0;stroke:#000080;stroke-width:1.5;" x="237.098847" xlink:href="#m0296fdd749" y="138.034693"/>
     <use style="fill-opacity:0;stroke:#000080;stroke-width:1.5;" x="258.067242" xlink:href="#m0296fdd749" y="124.41541"/>
     <use style="fill-opacity:0;stroke:#000080;stroke-width:1.5;" x="338.688" xlink:href="#m0296fdd749" y="124.41541"/>
    </g>
   </g>
   <g id="line2d_32">
    <path style="fill:none;stroke:#000080;stroke-linecap:square;stroke-width:1.5;"/>
    <g/>
   </g>
   <g id="line2d_33">
    <path clip-path="url(#p2c74420fce)" d="M 258.377143 124.41541 
" style="fill:none;stroke:#000080;stroke-linecap:square;stroke-width:1.5;"/>
    <defs>
     <path d="M -12 12 
L 12 -12 
M -12 -12 
L 12 12 
" id="m22d12032b4" style="stroke:#000080;"/>
    </defs>
    <g clip-path="url(#p2c74420fce)">
     <use style="fill:#000080;stroke:#000080;" x="258.377143" xlink:href="#m22d12032b4" y="124.41541"/>
    </g>
   </g>
   <g id="line2d_34">
    <defs>
     <path d="M 0 1.5 
C 0.397805 1.5 0.77937 1.341951 1.06066 1.06066 
C 1.341951 0.77937 1.5 0.397805 1.5 0 
C 1.5 -0.397805 1.341951 -0.77937 1.06066 -1.06066 
C 0.77937 -1.341951 0.397805 -1.5 0 -1.5 
C -0.397805 -1.5 -0.77937 -1.341951 -1.06066 -1.06066 
C -1.341951 -0.77937 -1.5 -0.397805 -1.5 0 
C -1.5 0.397805 -1.341951 0.77937 -1.06066 1.06066 
C -0.77937 1.341951 -0.397805 1.5 0 1.5 
z
" id="m80884a5246" style="stroke:#ff00ff;"/>
    </defs>
    <g>
     <use style="fill:#ff00ff;stroke:#ff00ff;" x="256.835104" xlink:href="#m80884a5246" y="91.123829"/>
     <use style="fill:#ff00ff;stroke:#ff00ff;" x="256.835104" xlink:href="#m80884a5246" y="91.123829"/>
    </g>
   </g>
   <g id="line2d_35">
    <path d="M 38.440992 298.944 
L 38.440992 298.439582 
L 116.522527 298.439582 
L 116.522527 297.935164 
L 122.362027 297.935164 
L 122.362027 296.926328 
L 125.110962 296.926328 
L 125.110962 295.917493 
L 127.48501 295.917493 
L 127.48501 295.413075 
L 128.905271 295.413075 
L 128.905271 294.404239 
L 130.218525 294.404239 
L 130.218525 293.395403 
L 130.839837 293.395403 
L 130.839837 292.386567 
L 131.439773 292.386567 
L 131.439773 290.873314 
L 132.019755 290.873314 
L 132.019755 289.864478 
L 132.581068 289.864478 
L 132.581068 288.855642 
L 133.124876 288.855642 
L 133.124876 287.846806 
L 134.164119 287.846806 
L 134.164119 286.333553 
L 135.144899 286.333553 
L 135.144899 284.820299 
L 136.073445 284.820299 
L 136.073445 283.811463 
L 136.519813 283.811463 
L 136.519813 282.29821 
L 136.955041 282.29821 
L 136.955041 281.289374 
L 137.37967 281.289374 
L 137.37967 280.784956 
L 137.794206 280.784956 
L 137.794206 280.280538 
L 138.594838 280.280538 
L 138.594838 279.271702 
L 139.360321 279.271702 
L 139.360321 278.262867 
L 139.730821 278.262867 
L 139.730821 277.758449 
L 141.138789 277.758449 
L 141.138789 276.749613 
L 141.47371 276.749613 
L 141.47371 276.245195 
L 142.752555 276.245195 
L 142.752555 275.740777 
L 143.943994 275.740777 
L 143.943994 275.236359 
L 146.992815 275.236359 
L 146.992815 274.731941 
L 151.818809 274.731941 
L 151.871101 273.723105 
L 159.354904 273.723105 
L 159.354904 273.218688 
L 159.741526 273.218688 
L 159.807898 272.209852 
L 160.961329 272.209852 
L 160.961329 271.201016 
L 162.616422 271.201016 
L 162.616422 270.696598 
L 162.965359 270.696598 
L 162.965359 269.687762 
L 163.415518 269.687762 
L 163.482721 268.174509 
L 164.243924 268.174509 
L 164.333587 266.661255 
L 164.486229 266.661255 
L 164.587254 265.652419 
L 165.708824 265.652419 
L 165.791279 264.643583 
L 166.02474 264.643583 
L 166.02474 264.139166 
L 166.277988 264.139166 
L 166.277988 263.634748 
L 166.572616 263.634748 
L 166.606293 262.625912 
L 167.169078 262.625912 
L 167.169078 262.121494 
L 167.798261 262.121494 
L 167.798261 260.103822 
L 168.314254 260.103822 
L 168.314254 259.599405 
L 168.596677 259.599405 
L 168.596677 258.590569 
L 168.825295 258.590569 
L 168.825295 257.581733 
L 169.302579 257.581733 
L 169.302579 256.572897 
L 169.597925 256.572897 
L 169.597925 256.068479 
L 170.219663 256.068479 
L 170.219663 255.059644 
L 170.907851 255.059644 
L 170.907851 254.555226 
L 171.519214 254.555226 
L 171.519214 253.041972 
L 171.679247 253.041972 
L 171.679247 252.537554 
L 172.06072 252.537554 
L 172.06072 252.033136 
L 176.844405 252.033136 
L 176.844405 251.528718 
L 177.079739 251.528718 
L 177.079739 251.0243 
L 177.505109 251.0243 
L 177.505109 250.015465 
L 178.25132 250.015465 
L 178.274311 248.502211 
L 178.666222 248.502211 
L 178.666222 247.997793 
L 178.944811 247.997793 
L 179.011015 245.980122 
L 179.327506 245.980122 
L 179.435323 244.466868 
L 180.099656 244.466868 
L 180.099656 243.458032 
L 180.749579 243.458032 
L 180.749579 242.449196 
L 181.031383 242.449196 
L 181.031383 241.944778 
L 181.486388 241.944778 
L 181.591186 240.431525 
L 183.428598 240.431525 
L 183.488336 238.413853 
L 184.693794 238.413853 
L 184.693794 237.909435 
L 185.550905 237.909435 
L 185.566037 236.9006 
L 186.526037 236.9006 
L 186.526037 236.396182 
L 186.834642 236.396182 
L 186.834642 235.891764 
L 186.974717 235.891764 
L 186.974717 235.387346 
L 187.2378 235.387346 
L 187.275551 234.37851 
L 187.921649 234.37851 
L 187.921649 233.874092 
L 188.19696 233.874092 
L 188.19696 232.865256 
L 188.368458 232.865256 
L 188.416691 231.352003 
L 188.598767 231.352003 
L 188.598767 230.847585 
L 188.829211 230.847585 
L 188.829211 230.343167 
L 189.232199 230.343167 
L 189.262815 228.829913 
L 190.136826 228.829913 
L 190.136826 227.821078 
L 190.275924 227.821078 
L 190.339308 225.298988 
L 191.296121 225.298988 
L 191.358623 223.281316 
L 191.534056 223.281316 
L 191.534056 222.776899 
L 192.02914 222.776899 
L 192.02914 222.272481 
L 192.354972 222.272481 
L 192.354972 221.263645 
L 193.180566 221.263645 
L 193.180566 220.759227 
L 193.442487 220.759227 
L 193.442487 219.750391 
L 194.246869 219.750391 
L 194.258358 218.237138 
L 194.736424 218.237138 
L 194.736424 217.228302 
L 195.009179 217.228302 
L 195.009179 216.723884 
L 195.314527 216.723884 
L 195.314527 215.715048 
L 195.633736 215.715048 
L 195.697306 214.201794 
L 195.84474 214.201794 
L 195.84474 213.697377 
L 196.210018 213.697377 
L 196.265384 212.688541 
L 196.698102 212.688541 
L 196.698102 211.679705 
L 197.118394 211.679705 
L 197.118394 210.670869 
L 197.323838 210.670869 
L 197.323838 210.166451 
L 197.968795 210.166451 
L 197.968795 209.157616 
L 204.322131 209.157616 
L 204.322131 208.14878 
L 205.583351 208.14878 
L 205.675499 206.635526 
L 205.755286 206.635526 
L 205.755286 205.62669 
L 206.301496 205.62669 
L 206.301496 205.122272 
L 206.539376 205.122272 
L 206.539376 204.617855 
L 207.231961 204.617855 
L 207.231961 204.113437 
L 209.252138 204.113437 
L 209.252138 203.609019 
L 210.729727 203.609019 
L 210.793034 202.095765 
L 211.205542 202.095765 
L 211.263683 200.582511 
L 211.650086 200.582511 
L 211.650086 199.573676 
L 212.123209 199.573676 
L 212.123209 199.069258 
L 212.439471 199.069258 
L 212.49284 198.060422 
L 212.905335 198.060422 
L 212.905335 197.556004 
L 213.251962 197.556004 
L 213.26278 196.04275 
L 213.67653 196.04275 
L 213.67653 195.538333 
L 213.897668 195.538333 
L 213.945275 194.529497 
L 214.226762 194.529497 
L 214.226762 194.025079 
L 214.614221 194.025079 
L 214.614221 193.016243 
L 214.79416 193.016243 
L 214.79416 192.007407 
L 214.99186 192.007407 
L 214.99186 190.998572 
L 215.307988 190.998572 
L 215.307988 190.494154 
L 215.813118 190.494154 
L 215.813118 189.989736 
L 216.138428 189.989736 
L 216.223379 188.476482 
L 216.326723 188.476482 
L 216.326723 187.972064 
L 216.789069 187.972064 
L 216.864006 185.449975 
L 217.201919 185.449975 
L 217.201919 184.441139 
L 217.405954 184.441139 
L 217.405954 183.936721 
L 217.601004 183.936721 
L 217.60522 182.927885 
L 217.88066 182.927885 
L 217.88066 182.423467 
L 218.413649 182.423467 
L 218.501395 181.414632 
L 218.892835 181.414632 
L 218.892835 180.910214 
L 219.128958 180.910214 
L 219.128958 179.901378 
L 219.322133 179.901378 
L 219.398372 178.388124 
L 220.292809 178.388124 
L 220.31293 176.874871 
L 220.535794 176.874871 
L 220.624149 175.361617 
L 220.814061 175.361617 
L 220.814061 174.857199 
L 221.200047 174.857199 
L 221.210335 173.848363 
L 221.614562 173.848363 
L 221.614562 173.343945 
L 222.234134 173.343945 
L 222.313849 172.33511 
L 223.003859 172.33511 
L 223.027704 171.326274 
L 223.130223 171.326274 
L 223.130223 170.317438 
L 223.566065 170.317438 
L 223.566065 169.81302 
L 223.876489 169.81302 
L 223.886574 168.299766 
L 224.035486 168.299766 
L 224.123149 167.290931 
L 224.367594 167.290931 
L 224.367594 166.282095 
L 224.516523 166.282095 
L 224.516523 165.777677 
L 224.642483 165.777677 
L 224.642483 164.768841 
L 224.768338 164.768841 
L 224.768338 164.264423 
L 225.308616 164.264423 
L 225.308616 163.760005 
L 225.55429 163.760005 
L 225.55429 163.255588 
L 226.013939 163.255588 
L 226.11072 161.237916 
L 226.404064 161.237916 
L 226.404064 160.22908 
L 226.650661 160.22908 
L 226.650661 159.724662 
L 226.87047 159.724662 
L 226.87047 159.220244 
L 227.006237 159.220244 
L 227.006237 158.715827 
L 227.373634 158.715827 
L 227.433722 156.698155 
L 227.592045 156.698155 
L 227.592045 156.193737 
L 227.768121 156.193737 
L 227.768121 155.689319 
L 227.950091 155.689319 
L 228.006902 154.680483 
L 228.082032 154.680483 
L 228.122277 153.16723 
L 228.615415 153.16723 
L 228.615415 152.662812 
L 228.861273 152.662812 
L 228.971464 151.149558 
L 228.998746 151.149558 
L 228.998746 150.64514 
L 229.598402 150.64514 
L 229.598402 150.140722 
L 229.82729 150.140722 
L 229.82729 149.131887 
L 230.316096 149.131887 
L 230.365419 147.618633 
L 230.491573 147.618633 
L 230.491573 147.114215 
L 230.67612 147.114215 
L 230.67612 146.609797 
L 230.962354 146.609797 
L 231.007931 145.600961 
L 231.397837 145.600961 
L 231.397837 144.592126 
L 231.546843 144.592126 
L 231.546843 143.58329 
L 231.7907 143.58329 
L 231.797641 142.574454 
L 232.168116 142.574454 
L 232.168116 141.565618 
L 232.35109 141.565618 
L 232.35109 140.556783 
L 232.563864 140.556783 
L 232.563864 139.547947 
L 232.914821 139.547947 
L 232.914821 139.043529 
L 233.14114 139.043529 
L 233.233064 138.034693 
L 233.56129 138.034693 
L 233.668781 136.521439 
L 233.869238 136.521439 
L 233.869238 135.512604 
L 234.078896 135.512604 
L 234.169281 133.99935 
L 235.471036 133.99935 
L 235.471036 133.494932 
L 235.802109 133.494932 
L 235.802109 132.990514 
L 236.295887 132.990514 
L 236.295887 131.981678 
L 236.416103 131.981678 
L 236.471921 130.468425 
L 236.575518 130.468425 
L 236.586472 129.459589 
L 237.055864 129.459589 
L 237.055864 128.450753 
L 237.190571 128.450753 
L 237.190571 127.946335 
L 237.945051 127.946335 
L 237.945051 127.441917 
L 238.057809 127.441917 
L 238.057809 126.433082 
L 238.202036 126.433082 
L 238.202036 125.928664 
L 238.438702 125.928664 
L 238.438702 125.424246 
L 238.648971 125.424246 
L 238.648971 124.41541 
L 239.112131 124.41541 
L 239.112131 123.910992 
L 239.368681 123.910992 
L 239.368681 122.902156 
L 240.16391 122.902156 
L 240.221959 121.893321 
L 240.324228 121.893321 
L 240.324228 121.388903 
L 240.87425 121.388903 
L 240.945787 119.371231 
L 241.003814 119.371231 
L 241.003814 118.362395 
L 241.4279 118.362395 
L 241.4279 117.857977 
L 241.889712 117.857977 
L 241.889712 116.849142 
L 242.015241 116.849142 
L 242.015241 116.344724 
L 242.609881 116.344724 
L 242.688237 114.327052 
L 243.129955 114.327052 
L 243.169486 113.318216 
L 243.562391 113.318216 
L 243.562391 112.813799 
L 243.735395 112.813799 
L 243.735395 112.309381 
L 243.864933 112.309381 
L 243.864933 111.300545 
L 244.617594 111.300545 
L 244.684897 109.787291 
L 244.750926 109.787291 
L 244.750926 108.778455 
L 244.911075 108.778455 
L 244.911075 107.76962 
L 245.058417 107.76962 
L 245.058417 106.760784 
L 246.051767 106.760784 
L 246.051767 105.751948 
L 246.517273 105.751948 
L 246.537343 103.734277 
L 247.108102 103.734277 
L 247.180498 102.725441 
L 247.512698 102.725441 
L 247.512698 102.221023 
L 247.659266 102.221023 
L 247.659266 101.716605 
L 248.342999 101.716605 
L 248.342999 101.212187 
L 249.052904 101.212187 
L 249.052904 100.203351 
L 249.234722 100.203351 
L 249.234722 99.194516 
L 249.401149 99.194516 
L 249.401149 98.18568 
L 249.8075 98.18568 
L 249.808165 96.672426 
L 250.351197 96.672426 
L 250.351197 95.66359 
L 250.91666 95.66359 
L 251.018191 94.654755 
L 251.155233 94.654755 
L 251.155233 94.150337 
L 251.344273 94.150337 
L 251.344273 93.141501 
L 254.828316 93.141501 
L 254.828316 92.637083 
L 256.217702 92.637083 
L 256.221452 91.628247 
L 256.835104 91.628247 
L 256.835104 91.123829 
L 338.688 91.123829 
L 338.688 91.123829 
" style="fill:none;stroke:#ff00ff;stroke-linecap:square;stroke-width:1.5;"/>
   </g>
   <g id="line2d_36">
    <defs>
     <path d="M -0 8.485281 
L 5.091169 0 
L 0 -8.485281 
L -5.091169 -0 
z
" id="m6f2a99c45a" style="stroke:#ff00ff;stroke-linejoin:miter;stroke-width:1.5;"/>
    </defs>
    <g>
     <use style="fill-opacity:0;stroke:#ff00ff;stroke-linejoin:miter;stroke-width:1.5;" x="177.505109" xlink:href="#m6f2a99c45a" y="251.0243"/>
     <use style="fill-opacity:0;stroke:#ff00ff;stroke-linejoin:miter;stroke-width:1.5;" x="224.516523" xlink:href="#m6f2a99c45a" y="165.777677"/>
     <use style="fill-opacity:0;stroke:#ff00ff;stroke-linejoin:miter;stroke-width:1.5;" x="250.351197" xlink:href="#m6f2a99c45a" y="96.672426"/>
     <use style="fill-opacity:0;stroke:#ff00ff;stroke-linejoin:miter;stroke-width:1.5;" x="256.835104" xlink:href="#m6f2a99c45a" y="91.123829"/>
     <use style="fill-opacity:0;stroke:#ff00ff;stroke-linejoin:miter;stroke-width:1.5;" x="338.688" xlink:href="#m6f2a99c45a" y="91.123829"/>
    </g>
   </g>
   <g id="line2d_37">
    <path style="fill:none;stroke:#ff00ff;stroke-linecap:square;stroke-width:1.5;"/>
    <g/>
   </g>
   <g id="line2d_38">
    <path clip-path="url(#p2c74420fce)" d="M 258.377143 91.123829 
" style="fill:none;stroke:#ff00ff;stroke-linecap:square;stroke-width:1.5;"/>
    <defs>
     <path d="M -12 12 
L 12 -12 
M -12 -12 
L 12 12 
" id="m79a5587d85" style="stroke:#ff00ff;"/>
    </defs>
    <g clip-path="url(#p2c74420fce)">
     <use style="fill:#ff00ff;stroke:#ff00ff;" x="258.377143" xlink:href="#m79a5587d85" y="91.123829"/>
    </g>
   </g>
   <g id="line2d_39">
    <defs>
     <path d="M 0 1.5 
C 0.397805 1.5 0.77937 1.341951 1.06066 1.06066 
C 1.341951 0.77937 1.5 0.397805 1.5 0 
C 1.5 -0.397805 1.341951 -0.77937 1.06066 -1.06066 
C 0.77937 -1.341951 0.397805 -1.5 0 -1.5 
C -0.397805 -1.5 -0.77937 -1.341951 -1.06066 -1.06066 
C -1.341951 -0.77937 -1.5 -0.397805 -1.5 0 
C -1.5 0.397805 -1.341951 0.77937 -1.06066 1.06066 
C -0.77937 1.341951 -0.397805 1.5 0 1.5 
z
" id="m7a259b609c" style="stroke:#ff7500;"/>
    </defs>
    <g>
     <use style="fill:#ff7500;stroke:#ff7500;" x="257.400559" xlink:href="#m7a259b609c" y="41.690876"/>
     <use style="fill:#ff7500;stroke:#ff7500;" x="257.400559" xlink:href="#m7a259b609c" y="41.690876"/>
    </g>
   </g>
   <g id="line2d_40">
    <path d="M 38.440992 298.944 
L 38.440992 294.908657 
L 93.863965 294.908657 
L 93.863965 294.404239 
L 102.330873 294.404239 
L 102.330873 293.899821 
L 107.680028 293.899821 
L 107.680028 293.395403 
L 109.843417 293.395403 
L 109.843417 292.386567 
L 115.077025 292.386567 
L 115.077025 290.368896 
L 116.522527 290.368896 
L 116.522527 289.864478 
L 117.857331 289.864478 
L 117.857331 288.351224 
L 119.097192 288.351224 
L 119.097192 287.846806 
L 120.254726 287.846806 
L 120.254726 287.342389 
L 121.340187 287.342389 
L 121.340187 286.837971 
L 122.362027 286.837971 
L 122.362027 286.333553 
L 123.327293 286.333553 
L 123.327293 285.324717 
L 124.241922 285.324717 
L 124.241922 284.315881 
L 125.110962 284.315881 
L 125.110962 283.811463 
L 125.938745 283.811463 
L 125.938745 282.802628 
L 126.729009 282.802628 
L 126.729009 282.29821 
L 127.48501 282.29821 
L 127.48501 281.793792 
L 128.209594 281.793792 
L 128.209594 280.784956 
L 128.905271 280.784956 
L 128.905271 280.280538 
L 129.574256 280.280538 
L 129.574256 279.271702 
L 130.218525 279.271702 
L 130.218525 278.767284 
L 132.019755 278.767284 
L 132.019755 278.262867 
L 133.124876 278.262867 
L 133.124876 277.758449 
L 134.164119 277.758449 
L 134.164119 277.254031 
L 135.144899 277.254031 
L 135.144899 276.245195 
L 135.615352 276.245195 
L 135.615352 275.740777 
L 136.955041 275.740777 
L 136.955041 275.236359 
L 141.138789 275.236359 
L 141.138789 274.731941 
L 141.80232 274.731941 
L 141.80232 274.227523 
L 142.441528 274.227523 
L 142.441528 273.723105 
L 143.058132 273.723105 
L 143.058132 273.218688 
L 144.589967 273.218688 
L 144.589967 272.71427 
L 146.644018 272.71427 
L 146.644018 272.209852 
L 150.287105 272.209852 
L 150.287105 271.705434 
L 150.987572 271.705434 
L 150.987572 271.201016 
L 153.056874 271.201016 
L 153.056874 270.19218 
L 153.29909 270.19218 
L 153.29909 269.687762 
L 153.466662 269.687762 
L 153.466662 269.183344 
L 154.371897 269.183344 
L 154.371897 268.174509 
L 154.57429 268.174509 
L 154.57429 267.670091 
L 156.953214 267.670091 
L 156.953214 267.165673 
L 157.472107 267.165673 
L 157.472107 266.661255 
L 158.031107 266.661255 
L 158.031107 265.148001 
L 158.358103 265.148001 
L 158.358103 264.643583 
L 158.959517 264.643583 
L 159.046236 263.13033 
L 160.136022 263.13033 
L 160.136022 262.625912 
L 160.474035 262.625912 
L 160.474035 261.617076 
L 160.86807 261.617076 
L 160.86807 260.60824 
L 161.038665 260.60824 
L 161.038665 260.103822 
L 163.144084 260.103822 
L 163.144084 259.599405 
L 163.682792 259.599405 
L 163.682792 259.094987 
L 164.024234 259.094987 
L 164.076176 258.086151 
L 165.338904 258.086151 
L 165.338904 257.581733 
L 166.516342 257.581733 
L 166.516342 257.077315 
L 167.363449 257.077315 
L 167.363449 256.572897 
L 168.696445 256.572897 
L 168.696445 255.564061 
L 169.579021 255.564061 
L 169.579021 255.059644 
L 170.58055 255.059644 
L 170.58055 254.050808 
L 171.134225 254.050808 
L 171.168792 252.537554 
L 172.940467 252.537554 
L 172.940467 251.528718 
L 173.188276 251.528718 
L 173.188276 251.0243 
L 175.691027 251.0243 
L 175.691027 250.015465 
L 175.869961 250.015465 
L 175.869961 249.511047 
L 178.966907 249.511047 
L 178.966907 249.006629 
L 181.690637 249.006629 
L 181.690637 248.502211 
L 184.796844 248.502211 
L 184.796844 247.493375 
L 192.710009 247.493375 
L 192.710009 246.484539 
L 193.008676 246.484539 
L 193.008676 245.475704 
L 193.243981 245.475704 
L 193.243981 244.971286 
L 193.526532 244.971286 
L 193.526532 243.96245 
L 193.91972 243.96245 
L 193.91972 242.953614 
L 194.39564 242.953614 
L 194.39564 242.449196 
L 194.574761 242.449196 
L 194.574761 241.944778 
L 206.515506 241.944778 
L 206.515506 240.935943 
L 206.732539 240.935943 
L 206.732539 240.431525 
L 206.932472 240.431525 
L 207.035451 238.413853 
L 207.469411 238.413853 
L 207.483405 236.396182 
L 207.643001 236.396182 
L 207.643001 235.891764 
L 207.833875 235.891764 
L 207.833875 235.387346 
L 207.954737 235.387346 
L 207.954737 234.37851 
L 208.160887 234.37851 
L 208.202239 233.369674 
L 208.378945 233.369674 
L 208.441187 231.352003 
L 208.571074 231.352003 
L 208.571074 230.343167 
L 208.710033 230.343167 
L 208.786091 229.334331 
L 208.946126 229.334331 
L 208.946126 228.829913 
L 209.227815 228.829913 
L 209.227815 227.821078 
L 212.865075 227.821078 
L 212.865075 227.31666 
L 213.023994 227.31666 
L 213.023994 226.812242 
L 213.197769 226.812242 
L 213.197769 226.307824 
L 213.348318 226.307824 
L 213.348318 225.803406 
L 213.486905 225.803406 
L 213.592591 223.785734 
L 213.663701 223.785734 
L 213.771325 221.768063 
L 213.80281 221.768063 
L 213.876053 219.245973 
L 214.83515 219.245973 
L 214.902785 217.73272 
L 215.251562 217.73272 
L 215.289429 216.723884 
L 215.410055 216.723884 
L 215.517638 213.697377 
L 215.561705 213.697377 
L 215.631981 210.166451 
L 215.674415 210.166451 
L 215.765667 205.62669 
L 218.598375 205.62669 
L 218.598375 205.122272 
L 218.731554 205.122272 
L 218.835686 202.600183 
L 218.947009 202.600183 
L 219.056517 200.078094 
L 219.951368 200.078094 
L 219.951368 199.573676 
L 220.210019 199.573676 
L 220.268013 198.060422 
L 220.854096 198.060422 
L 220.862092 197.051586 
L 221.478607 197.051586 
L 221.478607 196.547168 
L 222.692657 196.547168 
L 222.692657 195.538333 
L 222.819949 195.538333 
L 222.834233 194.529497 
L 222.969357 194.529497 
L 222.969357 194.025079 
L 223.261775 194.025079 
L 223.365527 193.016243 
L 223.695656 193.016243 
L 223.704572 191.502989 
L 223.818388 191.502989 
L 223.915955 188.9809 
L 223.982926 188.9809 
L 224.090794 185.449975 
L 224.137233 185.449975 
L 224.221091 181.91905 
L 224.250326 181.91905 
L 224.318077 179.901378 
L 224.431635 179.901378 
L 224.459299 177.379288 
L 224.899238 177.379288 
L 224.949111 176.370453 
L 225.206488 176.370453 
L 225.30668 175.361617 
L 225.495781 175.361617 
L 225.581375 173.343945 
L 225.782615 173.343945 
L 225.782615 172.839527 
L 226.040691 172.839527 
L 226.040691 172.33511 
L 226.163519 172.33511 
L 226.163519 171.326274 
L 226.313654 171.326274 
L 226.313654 170.821856 
L 226.781384 170.821856 
L 226.781384 170.317438 
L 226.940777 170.317438 
L 227.044133 168.804184 
L 227.118283 168.804184 
L 227.140606 167.290931 
L 227.231002 167.290931 
L 227.30091 165.273259 
L 227.542042 165.273259 
L 227.542042 164.768841 
L 227.745577 164.768841 
L 227.854994 160.22908 
L 227.93178 160.22908 
L 228.035072 157.706991 
L 228.063197 157.706991 
L 228.148617 156.698155 
L 228.374162 156.698155 
L 228.431552 155.184901 
L 228.551556 155.184901 
L 228.638142 152.158394 
L 228.8401 152.158394 
L 228.890305 150.64514 
L 229.008457 150.64514 
L 229.109631 148.627469 
L 229.134211 148.627469 
L 229.134211 148.123051 
L 229.249183 148.123051 
L 229.249183 147.618633 
L 229.554447 147.618633 
L 229.649493 146.105379 
L 229.716379 146.105379 
L 229.716379 145.600961 
L 229.920567 145.600961 
L 229.968056 144.592126 
L 230.125035 144.592126 
L 230.222288 143.58329 
L 230.295746 143.58329 
L 230.295746 143.078872 
L 230.416048 143.078872 
L 230.4792 141.0612 
L 230.761012 141.0612 
L 230.809095 138.539111 
L 231.026631 138.539111 
L 231.026631 138.034693 
L 231.313253 138.034693 
L 231.417487 136.521439 
L 231.501026 136.521439 
L 231.501026 136.017022 
L 231.670139 136.017022 
L 231.727844 134.503768 
L 231.824575 134.503768 
L 231.908047 133.494932 
L 231.941695 133.494932 
L 231.941695 132.990514 
L 232.186918 132.990514 
L 232.186918 132.486096 
L 232.43646 132.486096 
L 232.439804 131.47726 
L 232.549044 131.47726 
L 232.549044 130.468425 
L 232.754631 130.468425 
L 232.75842 128.955171 
L 232.912067 128.955171 
L 232.95058 126.937499 
L 233.135703 126.937499 
L 233.227902 125.424246 
L 233.451191 125.424246 
L 233.45653 124.41541 
L 233.74819 124.41541 
L 233.758926 123.406574 
L 234.071401 123.406574 
L 234.082408 121.893321 
L 234.231832 121.893321 
L 234.274952 120.380067 
L 234.779971 120.380067 
L 234.818168 118.362395 
L 234.951201 118.362395 
L 234.953651 116.849142 
L 235.155584 116.849142 
L 235.170987 115.335888 
L 235.33321 115.335888 
L 235.369128 114.327052 
L 235.533405 114.327052 
L 235.586103 113.318216 
L 235.818647 113.318216 
L 235.818647 112.813799 
L 236.055242 112.813799 
L 236.1551 111.804963 
L 236.308255 111.804963 
L 236.308255 110.796127 
L 236.587486 110.796127 
L 236.678099 109.787291 
L 236.85393 109.787291 
L 236.876683 108.274038 
L 237.106722 108.274038 
L 237.106722 107.76962 
L 237.616681 107.76962 
L 237.691267 106.760784 
L 237.753401 106.760784 
L 237.764398 105.751948 
L 237.931727 105.751948 
L 237.931727 104.743112 
L 238.079417 104.743112 
L 238.133876 102.725441 
L 238.288335 102.725441 
L 238.288335 102.221023 
L 238.438702 102.221023 
L 238.438702 101.716605 
L 238.654376 101.716605 
L 238.654376 100.707769 
L 238.788769 100.707769 
L 238.845515 99.194516 
L 238.908292 99.194516 
L 238.908292 98.690098 
L 239.17081 98.690098 
L 239.238875 97.176844 
L 239.315869 97.176844 
L 239.315869 96.168008 
L 239.602075 96.168008 
L 239.67171 93.645919 
L 239.939804 93.645919 
L 239.956361 91.628247 
L 240.15978 91.628247 
L 240.15978 91.123829 
L 240.496218 91.123829 
L 240.578194 89.610576 
L 240.715731 89.610576 
L 240.72805 88.097322 
L 240.892637 88.097322 
L 240.892637 87.088486 
L 241.408223 87.088486 
L 241.479752 85.575233 
L 241.781498 85.575233 
L 241.876091 83.557561 
L 241.949906 83.557561 
L 242.036026 81.035471 
L 242.176707 81.035471 
L 242.176707 80.026636 
L 242.320935 80.026636 
L 242.409459 78.513382 
L 242.514578 78.513382 
L 242.589913 77.000128 
L 242.652756 77.000128 
L 242.652756 76.49571 
L 242.838801 76.49571 
L 242.855231 75.486875 
L 243.001278 75.486875 
L 243.078598 73.973621 
L 243.191301 73.973621 
L 243.252847 72.460367 
L 243.554233 72.460367 
L 243.554233 71.451532 
L 243.789151 71.451532 
L 243.88723 69.938278 
L 244.043045 69.938278 
L 244.043045 69.43386 
L 244.201675 69.43386 
L 244.201675 68.929442 
L 244.4167 68.929442 
L 244.489036 66.911771 
L 244.707316 66.911771 
L 244.775797 65.902935 
L 244.82303 65.902935 
L 244.921264 64.389681 
L 244.988159 64.389681 
L 244.988159 63.885263 
L 245.161293 63.885263 
L 245.161293 63.380845 
L 245.498351 63.380845 
L 245.498351 62.37201 
L 245.6383 62.37201 
L 245.6383 61.867592 
L 246.009405 61.867592 
L 246.085559 59.84992 
L 246.212135 59.84992 
L 246.212135 58.841084 
L 246.633358 58.841084 
L 246.727487 57.832249 
L 246.904697 57.832249 
L 246.904697 56.823413 
L 247.163699 56.823413 
L 247.269969 55.310159 
L 247.35439 55.310159 
L 247.416949 53.796905 
L 247.526674 53.796905 
L 247.55643 52.78807 
L 247.867067 52.78807 
L 247.867067 52.283652 
L 248.380473 52.283652 
L 248.380473 51.779234 
L 248.627653 51.779234 
L 248.627653 50.770398 
L 249.00173 50.770398 
L 249.00173 49.761562 
L 249.426418 49.761562 
L 249.426418 48.752727 
L 250.120243 48.752727 
L 250.120243 48.248309 
L 250.56449 48.248309 
L 250.56449 47.239473 
L 250.950688 47.239473 
L 250.950688 46.735055 
L 251.326254 46.735055 
L 251.326254 45.726219 
L 251.924668 45.726219 
L 251.924668 45.221801 
L 252.675617 45.221801 
L 252.675617 44.717383 
L 253.708709 44.717383 
L 253.708709 44.212966 
L 255.200376 44.212966 
L 255.200376 43.20413 
L 256.813563 43.20413 
L 256.813563 42.195294 
L 257.400559 42.195294 
L 257.400559 41.690876 
L 338.688 41.690876 
L 338.688 41.690876 
" style="fill:none;stroke:#ff7500;stroke-linecap:square;stroke-width:1.5;"/>
   </g>
   <g id="line2d_41">
    <defs>
     <path d="M 0 -6 
L -1.347084 -1.854102 
L -5.706339 -1.854102 
L -2.179628 0.708204 
L -3.526712 4.854102 
L -0 2.291796 
L 3.526712 4.854102 
L 2.179628 0.708204 
L 5.706339 -1.854102 
L 1.347084 -1.854102 
z
" id="m53f2751fec" style="stroke:#ff7500;stroke-linejoin:bevel;stroke-width:1.5;"/>
    </defs>
    <g>
     <use style="fill-opacity:0;stroke:#ff7500;stroke-linejoin:bevel;stroke-width:1.5;" x="119.097192" xlink:href="#m53f2751fec" y="287.846806"/>
     <use style="fill-opacity:0;stroke:#ff7500;stroke-linejoin:bevel;stroke-width:1.5;" x="173.188276" xlink:href="#m53f2751fec" y="251.0243"/>
     <use style="fill-opacity:0;stroke:#ff7500;stroke-linejoin:bevel;stroke-width:1.5;" x="232.95058" xlink:href="#m53f2751fec" y="127.946335"/>
     <use style="fill-opacity:0;stroke:#ff7500;stroke-linejoin:bevel;stroke-width:1.5;" x="257.400559" xlink:href="#m53f2751fec" y="42.195294"/>
     <use style="fill-opacity:0;stroke:#ff7500;stroke-linejoin:bevel;stroke-width:1.5;" x="257.400559" xlink:href="#m53f2751fec" y="41.690876"/>
     <use style="fill-opacity:0;stroke:#ff7500;stroke-linejoin:bevel;stroke-width:1.5;" x="338.688" xlink:href="#m53f2751fec" y="41.690876"/>
    </g>
   </g>
   <g id="line2d_42">
    <path style="fill:none;stroke:#ff7500;stroke-linecap:square;stroke-width:1.5;"/>
    <g/>
   </g>
   <g id="line2d_43">
    <path clip-path="url(#p2c74420fce)" d="M 258.377143 41.690876 
" style="fill:none;stroke:#ff7500;stroke-linecap:square;stroke-width:1.5;"/>
    <defs>
     <path d="M -12 12 
L 12 -12 
M -12 -12 
L 12 12 
" id="m7096c2d74c" style="stroke:#ff7500;"/>
    </defs>
    <g clip-path="url(#p2c74420fce)">
     <use style="fill:#ff7500;stroke:#ff7500;" x="258.377143" xlink:href="#m7096c2d74c" y="41.690876"/>
    </g>
   </g>
   <g id="line2d_44">
    <path d="M 338.688 124.41541 
L 369.60768 293.092752 
" style="fill:none;stroke:#000080;stroke-linecap:square;stroke-width:1.5;"/>
    <g>
     <use style="fill-opacity:0;stroke:#000080;stroke-width:1.5;" x="338.688" xlink:href="#m0296fdd749" y="124.41541"/>
     <use style="fill-opacity:0;stroke:#000080;stroke-width:1.5;" x="369.60768" xlink:href="#m0296fdd749" y="293.092752"/>
    </g>
   </g>
   <g id="line2d_45">
    <path d="M 338.688 91.123829 
L 369.60768 152.662812 
" style="fill:none;stroke:#ff00ff;stroke-linecap:square;stroke-width:1.5;"/>
    <g>
     <use style="fill-opacity:0;stroke:#ff00ff;stroke-linejoin:miter;stroke-width:1.5;" x="338.688" xlink:href="#m6f2a99c45a" y="91.123829"/>
     <use style="fill-opacity:0;stroke:#ff00ff;stroke-linejoin:miter;stroke-width:1.5;" x="369.60768" xlink:href="#m6f2a99c45a" y="152.662812"/>
    </g>
   </g>
   <g id="line2d_46">
    <path d="M 338.688 41.690876 
L 369.60768 12.232871 
" style="fill:none;stroke:#ff7500;stroke-linecap:square;stroke-width:1.5;"/>
    <g>
     <use style="fill-opacity:0;stroke:#ff7500;stroke-linejoin:bevel;stroke-width:1.5;" x="338.688" xlink:href="#m53f2751fec" y="41.690876"/>
     <use style="fill-opacity:0;stroke:#ff7500;stroke-linejoin:bevel;stroke-width:1.5;" x="369.60768" xlink:href="#m53f2751fec" y="12.232871"/>
    </g>
   </g>
   <g id="line2d_47">
    <path d="M 338.688 298.944 
L 338.688 6.381624 
" style="fill:none;stroke:#000000;stroke-linecap:square;stroke-width:1.5;"/>
   </g>
   <g id="patch_3">
    <path d="M 57.6 298.944 
L 57.6 3.456 
" style="fill:none;stroke:#000000;stroke-linecap:square;stroke-linejoin:miter;stroke-width:0.8;"/>
   </g>
   <g id="patch_4">
    <path d="M 338.688 298.944 
L 338.688 3.456 
" style="fill:none;stroke:#000000;stroke-linecap:square;stroke-linejoin:miter;stroke-width:0.8;"/>
   </g>
   <g id="patch_5">
    <path d="M 57.6 298.944 
L 338.688 298.944 
" style="fill:none;stroke:#000000;stroke-linecap:square;stroke-linejoin:miter;stroke-width:0.8;"/>
   </g>
   <g id="patch_6">
    <path d="M 57.6 3.456 
L 338.688 3.456 
" style="fill:none;stroke:#000000;stroke-linecap:square;stroke-linejoin:miter;stroke-width:0.8;"/>
   </g>
   <g id="text_13">
    <!-- f35 -->
    <g transform="translate(375.22944 297.78369)scale(0.17 -0.17)">
     <defs>
      <path d="M 40.578125 39.3125 
Q 47.65625 37.796875 51.625 33 
Q 55.609375 28.21875 55.609375 21.1875 
Q 55.609375 10.40625 48.1875 4.484375 
Q 40.765625 -1.421875 27.09375 -1.421875 
Q 22.515625 -1.421875 17.65625 -0.515625 
Q 12.796875 0.390625 7.625 2.203125 
L 7.625 11.71875 
Q 11.71875 9.328125 16.59375 8.109375 
Q 21.484375 6.890625 26.8125 6.890625 
Q 36.078125 6.890625 40.9375 10.546875 
Q 45.796875 14.203125 45.796875 21.1875 
Q 45.796875 27.640625 41.28125 31.265625 
Q 36.765625 34.90625 28.71875 34.90625 
L 20.21875 34.90625 
L 20.21875 43.015625 
L 29.109375 43.015625 
Q 36.375 43.015625 40.234375 45.921875 
Q 44.09375 48.828125 44.09375 54.296875 
Q 44.09375 59.90625 40.109375 62.90625 
Q 36.140625 65.921875 28.71875 65.921875 
Q 24.65625 65.921875 20.015625 65.03125 
Q 15.375 64.15625 9.8125 62.3125 
L 9.8125 71.09375 
Q 15.4375 72.65625 20.34375 73.4375 
Q 25.25 74.21875 29.59375 74.21875 
Q 40.828125 74.21875 47.359375 69.109375 
Q 53.90625 64.015625 53.90625 55.328125 
Q 53.90625 49.265625 50.4375 45.09375 
Q 46.96875 40.921875 40.578125 39.3125 
z
" id="DejaVuSans-51"/>
      <path d="M 10.796875 72.90625 
L 49.515625 72.90625 
L 49.515625 64.59375 
L 19.828125 64.59375 
L 19.828125 46.734375 
Q 21.96875 47.46875 24.109375 47.828125 
Q 26.265625 48.1875 28.421875 48.1875 
Q 40.625 48.1875 47.75 41.5 
Q 54.890625 34.8125 54.890625 23.390625 
Q 54.890625 11.625 47.5625 5.09375 
Q 40.234375 -1.421875 26.90625 -1.421875 
Q 22.3125 -1.421875 17.546875 -0.640625 
Q 12.796875 0.140625 7.71875 1.703125 
L 7.71875 11.625 
Q 12.109375 9.234375 16.796875 8.0625 
Q 21.484375 6.890625 26.703125 6.890625 
Q 35.15625 6.890625 40.078125 11.328125 
Q 45.015625 15.765625 45.015625 23.390625 
Q 45.015625 31 40.078125 35.4375 
Q 35.15625 39.890625 26.703125 39.890625 
Q 22.75 39.890625 18.8125 39.015625 
Q 14.890625 38.140625 10.796875 36.28125 
z
" id="DejaVuSans-53"/>
     </defs>
     <use xlink:href="#DejaVuSans-102"/>
     <use x="35.205078" xlink:href="#DejaVuSans-51"/>
     <use x="98.828125" xlink:href="#DejaVuSans-53"/>
    </g>
   </g>
   <g id="text_14">
    <!-- f36 -->
    <g transform="translate(375.22944 157.353749)scale(0.17 -0.17)">
     <use xlink:href="#DejaVuSans-102"/>
     <use x="35.205078" xlink:href="#DejaVuSans-51"/>
     <use x="98.828125" xlink:href="#DejaVuSans-54"/>
    </g>
   </g>
   <g id="text_15">
    <!-- f41 -->
    <g transform="translate(375.22944 16.923809)scale(0.17 -0.17)">
     <use xlink:href="#DejaVuSans-102"/>
     <use x="35.205078" xlink:href="#DejaVuSans-52"/>
     <use x="98.828125" xlink:href="#DejaVuSans-49"/>
    </g>
   </g>
   <g id="text_16">
    <!-- bbob-biobj -->
    <g transform="translate(60.41088 14.161286)scale(0.102 -0.102)">
     <defs>
      <path d="M 48.6875 27.296875 
Q 48.6875 37.203125 44.609375 42.84375 
Q 40.53125 48.484375 33.40625 48.484375 
Q 26.265625 48.484375 22.1875 42.84375 
Q 18.109375 37.203125 18.109375 27.296875 
Q 18.109375 17.390625 22.1875 11.75 
Q 26.265625 6.109375 33.40625 6.109375 
Q 40.53125 6.109375 44.609375 11.75 
Q 48.6875 17.390625 48.6875 27.296875 
z
M 18.109375 46.390625 
Q 20.953125 51.265625 25.265625 53.625 
Q 29.59375 56 35.59375 56 
Q 45.5625 56 51.78125 48.09375 
Q 58.015625 40.1875 58.015625 27.296875 
Q 58.015625 14.40625 51.78125 6.484375 
Q 45.5625 -1.421875 35.59375 -1.421875 
Q 29.59375 -1.421875 25.265625 0.953125 
Q 20.953125 3.328125 18.109375 8.203125 
L 18.109375 0 
L 9.078125 0 
L 9.078125 75.984375 
L 18.109375 75.984375 
z
" id="DejaVuSans-98"/>
      <path d="M 9.421875 54.6875 
L 18.40625 54.6875 
L 18.40625 -0.984375 
Q 18.40625 -11.421875 14.421875 -16.109375 
Q 10.453125 -20.796875 1.609375 -20.796875 
L -1.8125 -20.796875 
L -1.8125 -13.1875 
L 0.59375 -13.1875 
Q 5.71875 -13.1875 7.5625 -10.8125 
Q 9.421875 -8.453125 9.421875 -0.984375 
z
M 9.421875 75.984375 
L 18.40625 75.984375 
L 18.40625 64.59375 
L 9.421875 64.59375 
z
" id="DejaVuSans-106"/>
     </defs>
     <use xlink:href="#DejaVuSans-98"/>
     <use x="63.476562" xlink:href="#DejaVuSans-98"/>
     <use x="126.953125" xlink:href="#DejaVuSans-111"/>
     <use x="188.134766" xlink:href="#DejaVuSans-98"/>
     <use x="251.611328" xlink:href="#DejaVuSans-45"/>
     <use x="287.695312" xlink:href="#DejaVuSans-98"/>
     <use x="351.171875" xlink:href="#DejaVuSans-105"/>
     <use x="378.955078" xlink:href="#DejaVuSans-111"/>
     <use x="440.136719" xlink:href="#DejaVuSans-98"/>
     <use x="503.613281" xlink:href="#DejaVuSans-106"/>
    </g>
    <!-- 3-ill-conditioned 3-ill-conditioned, 3-D -->
    <g transform="translate(60.41088 25.583055)scale(0.102 -0.102)">
     <defs>
      <path d="M 19.671875 64.796875 
L 19.671875 8.109375 
L 31.59375 8.109375 
Q 46.6875 8.109375 53.6875 14.9375 
Q 60.6875 21.78125 60.6875 36.53125 
Q 60.6875 51.171875 53.6875 57.984375 
Q 46.6875 64.796875 31.59375 64.796875 
z
M 9.8125 72.90625 
L 30.078125 72.90625 
Q 51.265625 72.90625 61.171875 64.09375 
Q 71.09375 55.28125 71.09375 36.53125 
Q 71.09375 17.671875 61.125 8.828125 
Q 51.171875 0 30.078125 0 
L 9.8125 0 
z
" id="DejaVuSans-68"/>
     </defs>
     <use xlink:href="#DejaVuSans-51"/>
     <use x="63.623047" xlink:href="#DejaVuSans-45"/>
     <use x="99.707031" xlink:href="#DejaVuSans-105"/>
     <use x="127.490234" xlink:href="#DejaVuSans-108"/>
     <use x="155.273438" xlink:href="#DejaVuSans-108"/>
     <use x="183.056641" xlink:href="#DejaVuSans-45"/>
     <use x="219.140625" xlink:href="#DejaVuSans-99"/>
     <use x="274.121094" xlink:href="#DejaVuSans-111"/>
     <use x="335.302734" xlink:href="#DejaVuSans-110"/>
     <use x="398.681641" xlink:href="#DejaVuSans-100"/>
     <use x="462.158203" xlink:href="#DejaVuSans-105"/>
     <use x="489.941406" xlink:href="#DejaVuSans-116"/>
     <use x="529.150391" xlink:href="#DejaVuSans-105"/>
     <use x="556.933594" xlink:href="#DejaVuSans-111"/>
     <use x="618.115234" xlink:href="#DejaVuSans-110"/>
     <use x="681.494141" xlink:href="#DejaVuSans-101"/>
     <use x="743.017578" xlink:href="#DejaVuSans-100"/>
     <use x="806.494141" xlink:href="#DejaVuSans-32"/>
     <use x="838.28125" xlink:href="#DejaVuSans-51"/>
     <use x="901.904297" xlink:href="#DejaVuSans-45"/>
     <use x="937.988281" xlink:href="#DejaVuSans-105"/>
     <use x="965.771484" xlink:href="#DejaVuSans-108"/>
     <use x="993.554688" xlink:href="#DejaVuSans-108"/>
     <use x="1021.337891" xlink:href="#DejaVuSans-45"/>
     <use x="1057.421875" xlink:href="#DejaVuSans-99"/>
     <use x="1112.402344" xlink:href="#DejaVuSans-111"/>
     <use x="1173.583984" xlink:href="#DejaVuSans-110"/>
     <use x="1236.962891" xlink:href="#DejaVuSans-100"/>
     <use x="1300.439453" xlink:href="#DejaVuSans-105"/>
     <use x="1328.222656" xlink:href="#DejaVuSans-116"/>
     <use x="1367.431641" xlink:href="#DejaVuSans-105"/>
     <use x="1395.214844" xlink:href="#DejaVuSans-111"/>
     <use x="1456.396484" xlink:href="#DejaVuSans-110"/>
     <use x="1519.775391" xlink:href="#DejaVuSans-101"/>
     <use x="1581.298828" xlink:href="#DejaVuSans-100"/>
     <use x="1644.775391" xlink:href="#DejaVuSans-44"/>
     <use x="1676.5625" xlink:href="#DejaVuSans-32"/>
     <use x="1708.349609" xlink:href="#DejaVuSans-51"/>
     <use x="1771.972656" xlink:href="#DejaVuSans-45"/>
     <use x="1808.056641" xlink:href="#DejaVuSans-68"/>
    </g>
    <!-- 58 targets: 1..-1.0e-4 -->
    <g transform="translate(60.41088 37.004824)scale(0.102 -0.102)">
     <defs>
      <path d="M 11.71875 12.40625 
L 22.015625 12.40625 
L 22.015625 0 
L 11.71875 0 
z
M 11.71875 51.703125 
L 22.015625 51.703125 
L 22.015625 39.3125 
L 11.71875 39.3125 
z
" id="DejaVuSans-58"/>
     </defs>
     <use xlink:href="#DejaVuSans-53"/>
     <use x="63.623047" xlink:href="#DejaVuSans-56"/>
     <use x="127.246094" xlink:href="#DejaVuSans-32"/>
     <use x="159.033203" xlink:href="#DejaVuSans-116"/>
     <use x="198.242188" xlink:href="#DejaVuSans-97"/>
     <use x="259.521484" xlink:href="#DejaVuSans-114"/>
     <use x="298.884766" xlink:href="#DejaVuSans-103"/>
     <use x="362.361328" xlink:href="#DejaVuSans-101"/>
     <use x="423.884766" xlink:href="#DejaVuSans-116"/>
     <use x="463.09375" xlink:href="#DejaVuSans-115"/>
     <use x="515.193359" xlink:href="#DejaVuSans-58"/>
     <use x="548.884766" xlink:href="#DejaVuSans-32"/>
     <use x="580.671875" xlink:href="#DejaVuSans-49"/>
     <use x="644.294922" xlink:href="#DejaVuSans-46"/>
     <use x="676.082031" xlink:href="#DejaVuSans-46"/>
     <use x="707.869141" xlink:href="#DejaVuSans-45"/>
     <use x="743.953125" xlink:href="#DejaVuSans-49"/>
     <use x="807.576172" xlink:href="#DejaVuSans-46"/>
     <use x="839.363281" xlink:href="#DejaVuSans-48"/>
     <use x="902.986328" xlink:href="#DejaVuSans-101"/>
     <use x="964.509766" xlink:href="#DejaVuSans-45"/>
     <use x="1000.59375" xlink:href="#DejaVuSans-52"/>
    </g>
    <!-- 10 instances -->
    <g transform="translate(60.41088 48.426593)scale(0.102 -0.102)">
     <use xlink:href="#DejaVuSans-49"/>
     <use x="63.623047" xlink:href="#DejaVuSans-48"/>
     <use x="127.246094" xlink:href="#DejaVuSans-32"/>
     <use x="159.033203" xlink:href="#DejaVuSans-105"/>
     <use x="186.816406" xlink:href="#DejaVuSans-110"/>
     <use x="250.195312" xlink:href="#DejaVuSans-115"/>
     <use x="302.294922" xlink:href="#DejaVuSans-116"/>
     <use x="341.503906" xlink:href="#DejaVuSans-97"/>
     <use x="402.783203" xlink:href="#DejaVuSans-110"/>
     <use x="466.162109" xlink:href="#DejaVuSans-99"/>
     <use x="521.142578" xlink:href="#DejaVuSans-101"/>
     <use x="582.666016" xlink:href="#DejaVuSans-115"/>
    </g>
   </g>
   <g id="text_17">
    <!-- v2.4, hv-hash=ff0e71e8cd978373 -->
    <g style="fill:#808080;" transform="translate(112.648687 293.909432)scale(0.1 -0.1)">
     <defs>
      <path d="M 54.890625 33.015625 
L 54.890625 0 
L 45.90625 0 
L 45.90625 32.71875 
Q 45.90625 40.484375 42.875 44.328125 
Q 39.84375 48.1875 33.796875 48.1875 
Q 26.515625 48.1875 22.3125 43.546875 
Q 18.109375 38.921875 18.109375 30.90625 
L 18.109375 0 
L 9.078125 0 
L 9.078125 75.984375 
L 18.109375 75.984375 
L 18.109375 46.1875 
Q 21.34375 51.125 25.703125 53.5625 
Q 30.078125 56 35.796875 56 
Q 45.21875 56 50.046875 50.171875 
Q 54.890625 44.34375 54.890625 33.015625 
z
" id="DejaVuSans-104"/>
      <path d="M 10.59375 45.40625 
L 73.1875 45.40625 
L 73.1875 37.203125 
L 10.59375 37.203125 
z
M 10.59375 25.484375 
L 73.1875 25.484375 
L 73.1875 17.1875 
L 10.59375 17.1875 
z
" id="DejaVuSans-61"/>
      <path d="M 8.203125 72.90625 
L 55.078125 72.90625 
L 55.078125 68.703125 
L 28.609375 0 
L 18.3125 0 
L 43.21875 64.59375 
L 8.203125 64.59375 
z
" id="DejaVuSans-55"/>
      <path d="M 10.984375 1.515625 
L 10.984375 10.5 
Q 14.703125 8.734375 18.5 7.8125 
Q 22.3125 6.890625 25.984375 6.890625 
Q 35.75 6.890625 40.890625 13.453125 
Q 46.046875 20.015625 46.78125 33.40625 
Q 43.953125 29.203125 39.59375 26.953125 
Q 35.25 24.703125 29.984375 24.703125 
Q 19.046875 24.703125 12.671875 31.3125 
Q 6.296875 37.9375 6.296875 49.421875 
Q 6.296875 60.640625 12.9375 67.421875 
Q 19.578125 74.21875 30.609375 74.21875 
Q 43.265625 74.21875 49.921875 64.515625 
Q 56.59375 54.828125 56.59375 36.375 
Q 56.59375 19.140625 48.40625 8.859375 
Q 40.234375 -1.421875 26.421875 -1.421875 
Q 22.703125 -1.421875 18.890625 -0.6875 
Q 15.09375 0.046875 10.984375 1.515625 
z
M 30.609375 32.421875 
Q 37.25 32.421875 41.125 36.953125 
Q 45.015625 41.5 45.015625 49.421875 
Q 45.015625 57.28125 41.125 61.84375 
Q 37.25 66.40625 30.609375 66.40625 
Q 23.96875 66.40625 20.09375 61.84375 
Q 16.21875 57.28125 16.21875 49.421875 
Q 16.21875 41.5 20.09375 36.953125 
Q 23.96875 32.421875 30.609375 32.421875 
z
" id="DejaVuSans-57"/>
     </defs>
     <use xlink:href="#DejaVuSans-118"/>
     <use x="59.179688" xlink:href="#DejaVuSans-50"/>
     <use x="122.802734" xlink:href="#DejaVuSans-46"/>
     <use x="154.589844" xlink:href="#DejaVuSans-52"/>
     <use x="218.212891" xlink:href="#DejaVuSans-44"/>
     <use x="250" xlink:href="#DejaVuSans-32"/>
     <use x="281.787109" xlink:href="#DejaVuSans-104"/>
     <use x="345.166016" xlink:href="#DejaVuSans-118"/>
     <use x="401.720703" xlink:href="#DejaVuSans-45"/>
     <use x="437.804688" xlink:href="#DejaVuSans-104"/>
     <use x="501.183594" xlink:href="#DejaVuSans-97"/>
     <use x="562.462891" xlink:href="#DejaVuSans-115"/>
     <use x="614.5625" xlink:href="#DejaVuSans-104"/>
     <use x="677.941406" xlink:href="#DejaVuSans-61"/>
     <use x="761.730469" xlink:href="#DejaVuSans-102"/>
     <use x="796.935547" xlink:href="#DejaVuSans-102"/>
     <use x="832.140625" xlink:href="#DejaVuSans-48"/>
     <use x="895.763672" xlink:href="#DejaVuSans-101"/>
     <use x="957.287109" xlink:href="#DejaVuSans-55"/>
     <use x="1020.910156" xlink:href="#DejaVuSans-49"/>
     <use x="1084.533203" xlink:href="#DejaVuSans-101"/>
     <use x="1146.056641" xlink:href="#DejaVuSans-56"/>
     <use x="1209.679688" xlink:href="#DejaVuSans-99"/>
     <use x="1264.660156" xlink:href="#DejaVuSans-100"/>
     <use x="1328.136719" xlink:href="#DejaVuSans-57"/>
     <use x="1391.759766" xlink:href="#DejaVuSans-55"/>
     <use x="1455.382812" xlink:href="#DejaVuSans-56"/>
     <use x="1519.005859" xlink:href="#DejaVuSans-51"/>
     <use x="1582.628906" xlink:href="#DejaVuSans-55"/>
     <use x="1646.251953" xlink:href="#DejaVuSans-51"/>
    </g>
   </g>
  </g>
 </g>
 <defs>
  <clipPath id="p2c74420fce">
   <rect height="295.488" width="281.088" x="57.6" y="3.456"/>
  </clipPath>
 </defs>
</svg>
