<?xml version="1.0" encoding="utf-8" standalone="no"?>
<!DOCTYPE svg PUBLIC "-//W3C//DTD SVG 1.1//EN"
  "http://www.w3.org/Graphics/SVG/1.1/DTD/svg11.dtd">
<!-- Created with matplotlib (https://matplotlib.org/) -->
<svg height="345.6pt" version="1.1" viewBox="0 0 460.8 345.6" width="460.8pt" xmlns="http://www.w3.org/2000/svg" xmlns:xlink="http://www.w3.org/1999/xlink">
 <metadata>
  <rdf:RDF xmlns:cc="http://creativecommons.org/ns#" xmlns:dc="http://purl.org/dc/elements/1.1/" xmlns:rdf="http://www.w3.org/1999/02/22-rdf-syntax-ns#">
   <cc:Work>
    <dc:type rdf:resource="http://purl.org/dc/dcmitype/StillImage"/>
    <dc:date>2021-03-30T16:55:06.596742</dc:date>
    <dc:format>image/svg+xml</dc:format>
    <dc:creator>
     <cc:Agent>
      <dc:title>Matplotlib v3.3.4, https://matplotlib.org/</dc:title>
     </cc:Agent>
    </dc:creator>
   </cc:Work>
  </rdf:RDF>
 </metadata>
 <defs>
  <style type="text/css">*{stroke-linecap:butt;stroke-linejoin:round;}</style>
 </defs>
 <g id="figure_1">
  <g id="patch_1">
   <path d="M 0 345.6 
L 460.8 345.6 
L 460.8 0 
L 0 0 
z
" style="fill:#ffffff;"/>
  </g>
  <g id="axes_1">
   <g id="patch_2">
    <path d="M 57.6 298.944 
L 338.688 298.944 
L 338.688 3.456 
L 57.6 3.456 
z
" style="fill:#ffffff;"/>
   </g>
   <g id="matplotlib.axis_1">
    <g id="xtick_1">
     <g id="line2d_1">
      <path clip-path="url(#pfaf2044c74)" d="M 57.6 298.944 
L 57.6 3.456 
" style="fill:none;stroke:#b0b0b0;stroke-linecap:square;stroke-width:0.8;"/>
     </g>
     <g id="line2d_2">
      <defs>
       <path d="M 0 0 
L 0 3.5 
" id="m9392bf7a23" style="stroke:#000000;stroke-width:0.8;"/>
      </defs>
      <g>
       <use style="stroke:#000000;stroke-width:0.8;" x="57.6" xlink:href="#m9392bf7a23" y="298.944"/>
      </g>
     </g>
     <g id="text_1">
      <!-- 0 -->
      <g transform="translate(51.2375 321.140875)scale(0.2 -0.2)">
       <defs>
        <path d="M 31.78125 66.40625 
Q 24.171875 66.40625 20.328125 58.90625 
Q 16.5 51.421875 16.5 36.375 
Q 16.5 21.390625 20.328125 13.890625 
Q 24.171875 6.390625 31.78125 6.390625 
Q 39.453125 6.390625 43.28125 13.890625 
Q 47.125 21.390625 47.125 36.375 
Q 47.125 51.421875 43.28125 58.90625 
Q 39.453125 66.40625 31.78125 66.40625 
z
M 31.78125 74.21875 
Q 44.046875 74.21875 50.515625 64.515625 
Q 56.984375 54.828125 56.984375 36.375 
Q 56.984375 17.96875 50.515625 8.265625 
Q 44.046875 -1.421875 31.78125 -1.421875 
Q 19.53125 -1.421875 13.0625 8.265625 
Q 6.59375 17.96875 6.59375 36.375 
Q 6.59375 54.828125 13.0625 64.515625 
Q 19.53125 74.21875 31.78125 74.21875 
z
" id="DejaVuSans-48"/>
       </defs>
       <use xlink:href="#DejaVuSans-48"/>
      </g>
     </g>
    </g>
    <g id="xtick_2">
     <g id="line2d_3">
      <path clip-path="url(#pfaf2044c74)" d="M 137.910857 298.944 
L 137.910857 3.456 
" style="fill:none;stroke:#b0b0b0;stroke-linecap:square;stroke-width:0.8;"/>
     </g>
     <g id="line2d_4">
      <g>
       <use style="stroke:#000000;stroke-width:0.8;" x="137.910857" xlink:href="#m9392bf7a23" y="298.944"/>
      </g>
     </g>
     <g id="text_2">
      <!-- 2 -->
      <g transform="translate(131.548357 321.140875)scale(0.2 -0.2)">
       <defs>
        <path d="M 19.1875 8.296875 
L 53.609375 8.296875 
L 53.609375 0 
L 7.328125 0 
L 7.328125 8.296875 
Q 12.9375 14.109375 22.625 23.890625 
Q 32.328125 33.6875 34.8125 36.53125 
Q 39.546875 41.84375 41.421875 45.53125 
Q 43.3125 49.21875 43.3125 52.78125 
Q 43.3125 58.59375 39.234375 62.25 
Q 35.15625 65.921875 28.609375 65.921875 
Q 23.96875 65.921875 18.8125 64.3125 
Q 13.671875 62.703125 7.8125 59.421875 
L 7.8125 69.390625 
Q 13.765625 71.78125 18.9375 73 
Q 24.125 74.21875 28.421875 74.21875 
Q 39.75 74.21875 46.484375 68.546875 
Q 53.21875 62.890625 53.21875 53.421875 
Q 53.21875 48.921875 51.53125 44.890625 
Q 49.859375 40.875 45.40625 35.40625 
Q 44.1875 33.984375 37.640625 27.21875 
Q 31.109375 20.453125 19.1875 8.296875 
z
" id="DejaVuSans-50"/>
       </defs>
       <use xlink:href="#DejaVuSans-50"/>
      </g>
     </g>
    </g>
    <g id="xtick_3">
     <g id="line2d_5">
      <path clip-path="url(#pfaf2044c74)" d="M 218.221714 298.944 
L 218.221714 3.456 
" style="fill:none;stroke:#b0b0b0;stroke-linecap:square;stroke-width:0.8;"/>
     </g>
     <g id="line2d_6">
      <g>
       <use style="stroke:#000000;stroke-width:0.8;" x="218.221714" xlink:href="#m9392bf7a23" y="298.944"/>
      </g>
     </g>
     <g id="text_3">
      <!-- 4 -->
      <g transform="translate(211.859214 321.140875)scale(0.2 -0.2)">
       <defs>
        <path d="M 37.796875 64.3125 
L 12.890625 25.390625 
L 37.796875 25.390625 
z
M 35.203125 72.90625 
L 47.609375 72.90625 
L 47.609375 25.390625 
L 58.015625 25.390625 
L 58.015625 17.1875 
L 47.609375 17.1875 
L 47.609375 0 
L 37.796875 0 
L 37.796875 17.1875 
L 4.890625 17.1875 
L 4.890625 26.703125 
z
" id="DejaVuSans-52"/>
       </defs>
       <use xlink:href="#DejaVuSans-52"/>
      </g>
     </g>
    </g>
    <g id="xtick_4">
     <g id="line2d_7">
      <path clip-path="url(#pfaf2044c74)" d="M 298.532571 298.944 
L 298.532571 3.456 
" style="fill:none;stroke:#b0b0b0;stroke-linecap:square;stroke-width:0.8;"/>
     </g>
     <g id="line2d_8">
      <g>
       <use style="stroke:#000000;stroke-width:0.8;" x="298.532571" xlink:href="#m9392bf7a23" y="298.944"/>
      </g>
     </g>
     <g id="text_4">
      <!-- 6 -->
      <g transform="translate(292.170071 321.140875)scale(0.2 -0.2)">
       <defs>
        <path d="M 33.015625 40.375 
Q 26.375 40.375 22.484375 35.828125 
Q 18.609375 31.296875 18.609375 23.390625 
Q 18.609375 15.53125 22.484375 10.953125 
Q 26.375 6.390625 33.015625 6.390625 
Q 39.65625 6.390625 43.53125 10.953125 
Q 47.40625 15.53125 47.40625 23.390625 
Q 47.40625 31.296875 43.53125 35.828125 
Q 39.65625 40.375 33.015625 40.375 
z
M 52.59375 71.296875 
L 52.59375 62.3125 
Q 48.875 64.0625 45.09375 64.984375 
Q 41.3125 65.921875 37.59375 65.921875 
Q 27.828125 65.921875 22.671875 59.328125 
Q 17.53125 52.734375 16.796875 39.40625 
Q 19.671875 43.65625 24.015625 45.921875 
Q 28.375 48.1875 33.59375 48.1875 
Q 44.578125 48.1875 50.953125 41.515625 
Q 57.328125 34.859375 57.328125 23.390625 
Q 57.328125 12.15625 50.6875 5.359375 
Q 44.046875 -1.421875 33.015625 -1.421875 
Q 20.359375 -1.421875 13.671875 8.265625 
Q 6.984375 17.96875 6.984375 36.375 
Q 6.984375 53.65625 15.1875 63.9375 
Q 23.390625 74.21875 37.203125 74.21875 
Q 40.921875 74.21875 44.703125 73.484375 
Q 48.484375 72.75 52.59375 71.296875 
z
" id="DejaVuSans-54"/>
       </defs>
       <use xlink:href="#DejaVuSans-54"/>
      </g>
     </g>
    </g>
    <g id="xtick_5">
     <g id="line2d_9">
      <path clip-path="url(#pfaf2044c74)" d="M 97.755429 298.944 
L 97.755429 3.456 
" style="fill:none;stroke:#b0b0b0;stroke-linecap:square;stroke-width:0.8;"/>
     </g>
     <g id="line2d_10">
      <defs>
       <path d="M 0 0 
L 0 2 
" id="m52390773aa" style="stroke:#000000;stroke-width:0.6;"/>
      </defs>
      <g>
       <use style="stroke:#000000;stroke-width:0.6;" x="97.755429" xlink:href="#m52390773aa" y="298.944"/>
      </g>
     </g>
    </g>
    <g id="xtick_6">
     <g id="line2d_11">
      <path clip-path="url(#pfaf2044c74)" d="M 178.066286 298.944 
L 178.066286 3.456 
" style="fill:none;stroke:#b0b0b0;stroke-linecap:square;stroke-width:0.8;"/>
     </g>
     <g id="line2d_12">
      <g>
       <use style="stroke:#000000;stroke-width:0.6;" x="178.066286" xlink:href="#m52390773aa" y="298.944"/>
      </g>
     </g>
    </g>
    <g id="xtick_7">
     <g id="line2d_13">
      <path clip-path="url(#pfaf2044c74)" d="M 258.377143 298.944 
L 258.377143 3.456 
" style="fill:none;stroke:#b0b0b0;stroke-linecap:square;stroke-width:0.8;"/>
     </g>
     <g id="line2d_14">
      <g>
       <use style="stroke:#000000;stroke-width:0.6;" x="258.377143" xlink:href="#m52390773aa" y="298.944"/>
      </g>
     </g>
    </g>
    <g id="xtick_8">
     <g id="line2d_15">
      <path clip-path="url(#pfaf2044c74)" d="M 338.688 298.944 
L 338.688 3.456 
" style="fill:none;stroke:#b0b0b0;stroke-linecap:square;stroke-width:0.8;"/>
     </g>
     <g id="line2d_16">
      <g>
       <use style="stroke:#000000;stroke-width:0.6;" x="338.688" xlink:href="#m52390773aa" y="298.944"/>
      </g>
     </g>
    </g>
    <g id="text_5">
     <!-- log10(# f-evals / dimension) -->
     <g transform="translate(77.764078 342.217594)scale(0.17 -0.17)">
      <defs>
       <path d="M 9.421875 75.984375 
L 18.40625 75.984375 
L 18.40625 0 
L 9.421875 0 
z
" id="DejaVuSans-108"/>
       <path d="M 30.609375 48.390625 
Q 23.390625 48.390625 19.1875 42.75 
Q 14.984375 37.109375 14.984375 27.296875 
Q 14.984375 17.484375 19.15625 11.84375 
Q 23.34375 6.203125 30.609375 6.203125 
Q 37.796875 6.203125 41.984375 11.859375 
Q 46.1875 17.53125 46.1875 27.296875 
Q 46.1875 37.015625 41.984375 42.703125 
Q 37.796875 48.390625 30.609375 48.390625 
z
M 30.609375 56 
Q 42.328125 56 49.015625 48.375 
Q 55.71875 40.765625 55.71875 27.296875 
Q 55.71875 13.875 49.015625 6.21875 
Q 42.328125 -1.421875 30.609375 -1.421875 
Q 18.84375 -1.421875 12.171875 6.21875 
Q 5.515625 13.875 5.515625 27.296875 
Q 5.515625 40.765625 12.171875 48.375 
Q 18.84375 56 30.609375 56 
z
" id="DejaVuSans-111"/>
       <path d="M 45.40625 27.984375 
Q 45.40625 37.75 41.375 43.109375 
Q 37.359375 48.484375 30.078125 48.484375 
Q 22.859375 48.484375 18.828125 43.109375 
Q 14.796875 37.75 14.796875 27.984375 
Q 14.796875 18.265625 18.828125 12.890625 
Q 22.859375 7.515625 30.078125 7.515625 
Q 37.359375 7.515625 41.375 12.890625 
Q 45.40625 18.265625 45.40625 27.984375 
z
M 54.390625 6.78125 
Q 54.390625 -7.171875 48.1875 -13.984375 
Q 42 -20.796875 29.203125 -20.796875 
Q 24.46875 -20.796875 20.265625 -20.09375 
Q 16.0625 -19.390625 12.109375 -17.921875 
L 12.109375 -9.1875 
Q 16.0625 -11.328125 19.921875 -12.34375 
Q 23.78125 -13.375 27.78125 -13.375 
Q 36.625 -13.375 41.015625 -8.765625 
Q 45.40625 -4.15625 45.40625 5.171875 
L 45.40625 9.625 
Q 42.625 4.78125 38.28125 2.390625 
Q 33.9375 0 27.875 0 
Q 17.828125 0 11.671875 7.65625 
Q 5.515625 15.328125 5.515625 27.984375 
Q 5.515625 40.671875 11.671875 48.328125 
Q 17.828125 56 27.875 56 
Q 33.9375 56 38.28125 53.609375 
Q 42.625 51.21875 45.40625 46.390625 
L 45.40625 54.6875 
L 54.390625 54.6875 
z
" id="DejaVuSans-103"/>
       <path d="M 12.40625 8.296875 
L 28.515625 8.296875 
L 28.515625 63.921875 
L 10.984375 60.40625 
L 10.984375 69.390625 
L 28.421875 72.90625 
L 38.28125 72.90625 
L 38.28125 8.296875 
L 54.390625 8.296875 
L 54.390625 0 
L 12.40625 0 
z
" id="DejaVuSans-49"/>
       <path d="M 31 75.875 
Q 24.46875 64.65625 21.28125 53.65625 
Q 18.109375 42.671875 18.109375 31.390625 
Q 18.109375 20.125 21.3125 9.0625 
Q 24.515625 -2 31 -13.1875 
L 23.1875 -13.1875 
Q 15.875 -1.703125 12.234375 9.375 
Q 8.59375 20.453125 8.59375 31.390625 
Q 8.59375 42.28125 12.203125 53.3125 
Q 15.828125 64.359375 23.1875 75.875 
z
" id="DejaVuSans-40"/>
       <path d="M 51.125 44 
L 36.921875 44 
L 32.8125 27.6875 
L 47.125 27.6875 
z
M 43.796875 71.78125 
L 38.71875 51.515625 
L 52.984375 51.515625 
L 58.109375 71.78125 
L 65.921875 71.78125 
L 60.890625 51.515625 
L 76.125 51.515625 
L 76.125 44 
L 58.984375 44 
L 54.984375 27.6875 
L 70.515625 27.6875 
L 70.515625 20.21875 
L 53.078125 20.21875 
L 48 0 
L 40.1875 0 
L 45.21875 20.21875 
L 30.90625 20.21875 
L 25.875 0 
L 18.015625 0 
L 23.09375 20.21875 
L 7.71875 20.21875 
L 7.71875 27.6875 
L 24.90625 27.6875 
L 29 44 
L 13.28125 44 
L 13.28125 51.515625 
L 30.90625 51.515625 
L 35.890625 71.78125 
z
" id="DejaVuSans-35"/>
       <path id="DejaVuSans-32"/>
       <path d="M 37.109375 75.984375 
L 37.109375 68.5 
L 28.515625 68.5 
Q 23.6875 68.5 21.796875 66.546875 
Q 19.921875 64.59375 19.921875 59.515625 
L 19.921875 54.6875 
L 34.71875 54.6875 
L 34.71875 47.703125 
L 19.921875 47.703125 
L 19.921875 0 
L 10.890625 0 
L 10.890625 47.703125 
L 2.296875 47.703125 
L 2.296875 54.6875 
L 10.890625 54.6875 
L 10.890625 58.5 
Q 10.890625 67.625 15.140625 71.796875 
Q 19.390625 75.984375 28.609375 75.984375 
z
" id="DejaVuSans-102"/>
       <path d="M 4.890625 31.390625 
L 31.203125 31.390625 
L 31.203125 23.390625 
L 4.890625 23.390625 
z
" id="DejaVuSans-45"/>
       <path d="M 56.203125 29.59375 
L 56.203125 25.203125 
L 14.890625 25.203125 
Q 15.484375 15.921875 20.484375 11.0625 
Q 25.484375 6.203125 34.421875 6.203125 
Q 39.59375 6.203125 44.453125 7.46875 
Q 49.3125 8.734375 54.109375 11.28125 
L 54.109375 2.78125 
Q 49.265625 0.734375 44.1875 -0.34375 
Q 39.109375 -1.421875 33.890625 -1.421875 
Q 20.796875 -1.421875 13.15625 6.1875 
Q 5.515625 13.8125 5.515625 26.8125 
Q 5.515625 40.234375 12.765625 48.109375 
Q 20.015625 56 32.328125 56 
Q 43.359375 56 49.78125 48.890625 
Q 56.203125 41.796875 56.203125 29.59375 
z
M 47.21875 32.234375 
Q 47.125 39.59375 43.09375 43.984375 
Q 39.0625 48.390625 32.421875 48.390625 
Q 24.90625 48.390625 20.390625 44.140625 
Q 15.875 39.890625 15.1875 32.171875 
z
" id="DejaVuSans-101"/>
       <path d="M 2.984375 54.6875 
L 12.5 54.6875 
L 29.59375 8.796875 
L 46.6875 54.6875 
L 56.203125 54.6875 
L 35.6875 0 
L 23.484375 0 
z
" id="DejaVuSans-118"/>
       <path d="M 34.28125 27.484375 
Q 23.390625 27.484375 19.1875 25 
Q 14.984375 22.515625 14.984375 16.5 
Q 14.984375 11.71875 18.140625 8.90625 
Q 21.296875 6.109375 26.703125 6.109375 
Q 34.1875 6.109375 38.703125 11.40625 
Q 43.21875 16.703125 43.21875 25.484375 
L 43.21875 27.484375 
z
M 52.203125 31.203125 
L 52.203125 0 
L 43.21875 0 
L 43.21875 8.296875 
Q 40.140625 3.328125 35.546875 0.953125 
Q 30.953125 -1.421875 24.3125 -1.421875 
Q 15.921875 -1.421875 10.953125 3.296875 
Q 6 8.015625 6 15.921875 
Q 6 25.140625 12.171875 29.828125 
Q 18.359375 34.515625 30.609375 34.515625 
L 43.21875 34.515625 
L 43.21875 35.40625 
Q 43.21875 41.609375 39.140625 45 
Q 35.0625 48.390625 27.6875 48.390625 
Q 23 48.390625 18.546875 47.265625 
Q 14.109375 46.140625 10.015625 43.890625 
L 10.015625 52.203125 
Q 14.9375 54.109375 19.578125 55.046875 
Q 24.21875 56 28.609375 56 
Q 40.484375 56 46.34375 49.84375 
Q 52.203125 43.703125 52.203125 31.203125 
z
" id="DejaVuSans-97"/>
       <path d="M 44.28125 53.078125 
L 44.28125 44.578125 
Q 40.484375 46.53125 36.375 47.5 
Q 32.28125 48.484375 27.875 48.484375 
Q 21.1875 48.484375 17.84375 46.4375 
Q 14.5 44.390625 14.5 40.28125 
Q 14.5 37.15625 16.890625 35.375 
Q 19.28125 33.59375 26.515625 31.984375 
L 29.59375 31.296875 
Q 39.15625 29.25 43.1875 25.515625 
Q 47.21875 21.78125 47.21875 15.09375 
Q 47.21875 7.46875 41.1875 3.015625 
Q 35.15625 -1.421875 24.609375 -1.421875 
Q 20.21875 -1.421875 15.453125 -0.5625 
Q 10.6875 0.296875 5.421875 2 
L 5.421875 11.28125 
Q 10.40625 8.6875 15.234375 7.390625 
Q 20.0625 6.109375 24.8125 6.109375 
Q 31.15625 6.109375 34.5625 8.28125 
Q 37.984375 10.453125 37.984375 14.40625 
Q 37.984375 18.0625 35.515625 20.015625 
Q 33.0625 21.96875 24.703125 23.78125 
L 21.578125 24.515625 
Q 13.234375 26.265625 9.515625 29.90625 
Q 5.8125 33.546875 5.8125 39.890625 
Q 5.8125 47.609375 11.28125 51.796875 
Q 16.75 56 26.8125 56 
Q 31.78125 56 36.171875 55.265625 
Q 40.578125 54.546875 44.28125 53.078125 
z
" id="DejaVuSans-115"/>
       <path d="M 25.390625 72.90625 
L 33.6875 72.90625 
L 8.296875 -9.28125 
L 0 -9.28125 
z
" id="DejaVuSans-47"/>
       <path d="M 45.40625 46.390625 
L 45.40625 75.984375 
L 54.390625 75.984375 
L 54.390625 0 
L 45.40625 0 
L 45.40625 8.203125 
Q 42.578125 3.328125 38.25 0.953125 
Q 33.9375 -1.421875 27.875 -1.421875 
Q 17.96875 -1.421875 11.734375 6.484375 
Q 5.515625 14.40625 5.515625 27.296875 
Q 5.515625 40.1875 11.734375 48.09375 
Q 17.96875 56 27.875 56 
Q 33.9375 56 38.25 53.625 
Q 42.578125 51.265625 45.40625 46.390625 
z
M 14.796875 27.296875 
Q 14.796875 17.390625 18.875 11.75 
Q 22.953125 6.109375 30.078125 6.109375 
Q 37.203125 6.109375 41.296875 11.75 
Q 45.40625 17.390625 45.40625 27.296875 
Q 45.40625 37.203125 41.296875 42.84375 
Q 37.203125 48.484375 30.078125 48.484375 
Q 22.953125 48.484375 18.875 42.84375 
Q 14.796875 37.203125 14.796875 27.296875 
z
" id="DejaVuSans-100"/>
       <path d="M 9.421875 54.6875 
L 18.40625 54.6875 
L 18.40625 0 
L 9.421875 0 
z
M 9.421875 75.984375 
L 18.40625 75.984375 
L 18.40625 64.59375 
L 9.421875 64.59375 
z
" id="DejaVuSans-105"/>
       <path d="M 52 44.1875 
Q 55.375 50.25 60.0625 53.125 
Q 64.75 56 71.09375 56 
Q 79.640625 56 84.28125 50.015625 
Q 88.921875 44.046875 88.921875 33.015625 
L 88.921875 0 
L 79.890625 0 
L 79.890625 32.71875 
Q 79.890625 40.578125 77.09375 44.375 
Q 74.3125 48.1875 68.609375 48.1875 
Q 61.625 48.1875 57.5625 43.546875 
Q 53.515625 38.921875 53.515625 30.90625 
L 53.515625 0 
L 44.484375 0 
L 44.484375 32.71875 
Q 44.484375 40.625 41.703125 44.40625 
Q 38.921875 48.1875 33.109375 48.1875 
Q 26.21875 48.1875 22.15625 43.53125 
Q 18.109375 38.875 18.109375 30.90625 
L 18.109375 0 
L 9.078125 0 
L 9.078125 54.6875 
L 18.109375 54.6875 
L 18.109375 46.1875 
Q 21.1875 51.21875 25.484375 53.609375 
Q 29.78125 56 35.6875 56 
Q 41.65625 56 45.828125 52.96875 
Q 50 49.953125 52 44.1875 
z
" id="DejaVuSans-109"/>
       <path d="M 54.890625 33.015625 
L 54.890625 0 
L 45.90625 0 
L 45.90625 32.71875 
Q 45.90625 40.484375 42.875 44.328125 
Q 39.84375 48.1875 33.796875 48.1875 
Q 26.515625 48.1875 22.3125 43.546875 
Q 18.109375 38.921875 18.109375 30.90625 
L 18.109375 0 
L 9.078125 0 
L 9.078125 54.6875 
L 18.109375 54.6875 
L 18.109375 46.1875 
Q 21.34375 51.125 25.703125 53.5625 
Q 30.078125 56 35.796875 56 
Q 45.21875 56 50.046875 50.171875 
Q 54.890625 44.34375 54.890625 33.015625 
z
" id="DejaVuSans-110"/>
       <path d="M 8.015625 75.875 
L 15.828125 75.875 
Q 23.140625 64.359375 26.78125 53.3125 
Q 30.421875 42.28125 30.421875 31.390625 
Q 30.421875 20.453125 26.78125 9.375 
Q 23.140625 -1.703125 15.828125 -13.1875 
L 8.015625 -13.1875 
Q 14.5 -2 17.703125 9.0625 
Q 20.90625 20.125 20.90625 31.390625 
Q 20.90625 42.671875 17.703125 53.65625 
Q 14.5 64.65625 8.015625 75.875 
z
" id="DejaVuSans-41"/>
      </defs>
      <use xlink:href="#DejaVuSans-108"/>
      <use x="27.783203" xlink:href="#DejaVuSans-111"/>
      <use x="88.964844" xlink:href="#DejaVuSans-103"/>
      <use x="152.441406" xlink:href="#DejaVuSans-49"/>
      <use x="216.064453" xlink:href="#DejaVuSans-48"/>
      <use x="279.6875" xlink:href="#DejaVuSans-40"/>
      <use x="318.701172" xlink:href="#DejaVuSans-35"/>
      <use x="402.490234" xlink:href="#DejaVuSans-32"/>
      <use x="434.277344" xlink:href="#DejaVuSans-102"/>
      <use x="463.982422" xlink:href="#DejaVuSans-45"/>
      <use x="500.066406" xlink:href="#DejaVuSans-101"/>
      <use x="561.589844" xlink:href="#DejaVuSans-118"/>
      <use x="620.769531" xlink:href="#DejaVuSans-97"/>
      <use x="682.048828" xlink:href="#DejaVuSans-108"/>
      <use x="709.832031" xlink:href="#DejaVuSans-115"/>
      <use x="761.931641" xlink:href="#DejaVuSans-32"/>
      <use x="793.71875" xlink:href="#DejaVuSans-47"/>
      <use x="827.410156" xlink:href="#DejaVuSans-32"/>
      <use x="859.197266" xlink:href="#DejaVuSans-100"/>
      <use x="922.673828" xlink:href="#DejaVuSans-105"/>
      <use x="950.457031" xlink:href="#DejaVuSans-109"/>
      <use x="1047.869141" xlink:href="#DejaVuSans-101"/>
      <use x="1109.392578" xlink:href="#DejaVuSans-110"/>
      <use x="1172.771484" xlink:href="#DejaVuSans-115"/>
      <use x="1224.871094" xlink:href="#DejaVuSans-105"/>
      <use x="1252.654297" xlink:href="#DejaVuSans-111"/>
      <use x="1313.835938" xlink:href="#DejaVuSans-110"/>
      <use x="1377.214844" xlink:href="#DejaVuSans-41"/>
     </g>
    </g>
   </g>
   <g id="matplotlib.axis_2">
    <g id="ytick_1">
     <g id="line2d_17">
      <path clip-path="url(#pfaf2044c74)" d="M 57.6 298.944 
L 338.688 298.944 
" style="fill:none;stroke:#b0b0b0;stroke-linecap:square;stroke-width:0.8;"/>
     </g>
     <g id="line2d_18">
      <defs>
       <path d="M 0 0 
L -3.5 0 
" id="maabe2c79ac" style="stroke:#000000;stroke-width:0.8;"/>
      </defs>
      <g>
       <use style="stroke:#000000;stroke-width:0.8;" x="57.6" xlink:href="#maabe2c79ac" y="298.944"/>
      </g>
     </g>
     <g id="text_6">
      <!-- 0.0 -->
      <g transform="translate(25.155 305.02275)scale(0.16 -0.16)">
       <defs>
        <path d="M 10.6875 12.40625 
L 21 12.40625 
L 21 0 
L 10.6875 0 
z
" id="DejaVuSans-46"/>
       </defs>
       <use xlink:href="#DejaVuSans-48"/>
       <use x="63.623047" xlink:href="#DejaVuSans-46"/>
       <use x="95.410156" xlink:href="#DejaVuSans-48"/>
      </g>
     </g>
    </g>
    <g id="ytick_2">
     <g id="line2d_19">
      <path clip-path="url(#pfaf2044c74)" d="M 57.6 240.431525 
L 338.688 240.431525 
" style="fill:none;stroke:#b0b0b0;stroke-linecap:square;stroke-width:0.8;"/>
     </g>
     <g id="line2d_20">
      <g>
       <use style="stroke:#000000;stroke-width:0.8;" x="57.6" xlink:href="#maabe2c79ac" y="240.431525"/>
      </g>
     </g>
     <g id="text_7">
      <!-- 0.2 -->
      <g transform="translate(25.155 246.510275)scale(0.16 -0.16)">
       <use xlink:href="#DejaVuSans-48"/>
       <use x="63.623047" xlink:href="#DejaVuSans-46"/>
       <use x="95.410156" xlink:href="#DejaVuSans-50"/>
      </g>
     </g>
    </g>
    <g id="ytick_3">
     <g id="line2d_21">
      <path clip-path="url(#pfaf2044c74)" d="M 57.6 181.91905 
L 338.688 181.91905 
" style="fill:none;stroke:#b0b0b0;stroke-linecap:square;stroke-width:0.8;"/>
     </g>
     <g id="line2d_22">
      <g>
       <use style="stroke:#000000;stroke-width:0.8;" x="57.6" xlink:href="#maabe2c79ac" y="181.91905"/>
      </g>
     </g>
     <g id="text_8">
      <!-- 0.4 -->
      <g transform="translate(25.155 187.9978)scale(0.16 -0.16)">
       <use xlink:href="#DejaVuSans-48"/>
       <use x="63.623047" xlink:href="#DejaVuSans-46"/>
       <use x="95.410156" xlink:href="#DejaVuSans-52"/>
      </g>
     </g>
    </g>
    <g id="ytick_4">
     <g id="line2d_23">
      <path clip-path="url(#pfaf2044c74)" d="M 57.6 123.406574 
L 338.688 123.406574 
" style="fill:none;stroke:#b0b0b0;stroke-linecap:square;stroke-width:0.8;"/>
     </g>
     <g id="line2d_24">
      <g>
       <use style="stroke:#000000;stroke-width:0.8;" x="57.6" xlink:href="#maabe2c79ac" y="123.406574"/>
      </g>
     </g>
     <g id="text_9">
      <!-- 0.6 -->
      <g transform="translate(25.155 129.485324)scale(0.16 -0.16)">
       <use xlink:href="#DejaVuSans-48"/>
       <use x="63.623047" xlink:href="#DejaVuSans-46"/>
       <use x="95.410156" xlink:href="#DejaVuSans-54"/>
      </g>
     </g>
    </g>
    <g id="ytick_5">
     <g id="line2d_25">
      <path clip-path="url(#pfaf2044c74)" d="M 57.6 64.894099 
L 338.688 64.894099 
" style="fill:none;stroke:#b0b0b0;stroke-linecap:square;stroke-width:0.8;"/>
     </g>
     <g id="line2d_26">
      <g>
       <use style="stroke:#000000;stroke-width:0.8;" x="57.6" xlink:href="#maabe2c79ac" y="64.894099"/>
      </g>
     </g>
     <g id="text_10">
      <!-- 0.8 -->
      <g transform="translate(25.155 70.972849)scale(0.16 -0.16)">
       <defs>
        <path d="M 31.78125 34.625 
Q 24.75 34.625 20.71875 30.859375 
Q 16.703125 27.09375 16.703125 20.515625 
Q 16.703125 13.921875 20.71875 10.15625 
Q 24.75 6.390625 31.78125 6.390625 
Q 38.8125 6.390625 42.859375 10.171875 
Q 46.921875 13.96875 46.921875 20.515625 
Q 46.921875 27.09375 42.890625 30.859375 
Q 38.875 34.625 31.78125 34.625 
z
M 21.921875 38.8125 
Q 15.578125 40.375 12.03125 44.71875 
Q 8.5 49.078125 8.5 55.328125 
Q 8.5 64.0625 14.71875 69.140625 
Q 20.953125 74.21875 31.78125 74.21875 
Q 42.671875 74.21875 48.875 69.140625 
Q 55.078125 64.0625 55.078125 55.328125 
Q 55.078125 49.078125 51.53125 44.71875 
Q 48 40.375 41.703125 38.8125 
Q 48.828125 37.15625 52.796875 32.3125 
Q 56.78125 27.484375 56.78125 20.515625 
Q 56.78125 9.90625 50.3125 4.234375 
Q 43.84375 -1.421875 31.78125 -1.421875 
Q 19.734375 -1.421875 13.25 4.234375 
Q 6.78125 9.90625 6.78125 20.515625 
Q 6.78125 27.484375 10.78125 32.3125 
Q 14.796875 37.15625 21.921875 38.8125 
z
M 18.3125 54.390625 
Q 18.3125 48.734375 21.84375 45.5625 
Q 25.390625 42.390625 31.78125 42.390625 
Q 38.140625 42.390625 41.71875 45.5625 
Q 45.3125 48.734375 45.3125 54.390625 
Q 45.3125 60.0625 41.71875 63.234375 
Q 38.140625 66.40625 31.78125 66.40625 
Q 25.390625 66.40625 21.84375 63.234375 
Q 18.3125 60.0625 18.3125 54.390625 
z
" id="DejaVuSans-56"/>
       </defs>
       <use xlink:href="#DejaVuSans-48"/>
       <use x="63.623047" xlink:href="#DejaVuSans-46"/>
       <use x="95.410156" xlink:href="#DejaVuSans-56"/>
      </g>
     </g>
    </g>
    <g id="ytick_6">
     <g id="line2d_27">
      <path clip-path="url(#pfaf2044c74)" d="M 57.6 6.381624 
L 338.688 6.381624 
" style="fill:none;stroke:#b0b0b0;stroke-linecap:square;stroke-width:0.8;"/>
     </g>
     <g id="line2d_28">
      <g>
       <use style="stroke:#000000;stroke-width:0.8;" x="57.6" xlink:href="#maabe2c79ac" y="6.381624"/>
      </g>
     </g>
     <g id="text_11">
      <!-- 1.0 -->
      <g transform="translate(25.155 12.460374)scale(0.16 -0.16)">
       <use xlink:href="#DejaVuSans-49"/>
       <use x="63.623047" xlink:href="#DejaVuSans-46"/>
       <use x="95.410156" xlink:href="#DejaVuSans-48"/>
      </g>
     </g>
    </g>
    <g id="text_12">
     <!-- Fraction of function,target pairs -->
     <g transform="translate(17.619531 285.585)rotate(-90)scale(0.17 -0.17)">
      <defs>
       <path d="M 9.8125 72.90625 
L 51.703125 72.90625 
L 51.703125 64.59375 
L 19.671875 64.59375 
L 19.671875 43.109375 
L 48.578125 43.109375 
L 48.578125 34.8125 
L 19.671875 34.8125 
L 19.671875 0 
L 9.8125 0 
z
" id="DejaVuSans-70"/>
       <path d="M 41.109375 46.296875 
Q 39.59375 47.171875 37.8125 47.578125 
Q 36.03125 48 33.890625 48 
Q 26.265625 48 22.1875 43.046875 
Q 18.109375 38.09375 18.109375 28.8125 
L 18.109375 0 
L 9.078125 0 
L 9.078125 54.6875 
L 18.109375 54.6875 
L 18.109375 46.1875 
Q 20.953125 51.171875 25.484375 53.578125 
Q 30.03125 56 36.53125 56 
Q 37.453125 56 38.578125 55.875 
Q 39.703125 55.765625 41.0625 55.515625 
z
" id="DejaVuSans-114"/>
       <path d="M 48.78125 52.59375 
L 48.78125 44.1875 
Q 44.96875 46.296875 41.140625 47.34375 
Q 37.3125 48.390625 33.40625 48.390625 
Q 24.65625 48.390625 19.8125 42.84375 
Q 14.984375 37.3125 14.984375 27.296875 
Q 14.984375 17.28125 19.8125 11.734375 
Q 24.65625 6.203125 33.40625 6.203125 
Q 37.3125 6.203125 41.140625 7.25 
Q 44.96875 8.296875 48.78125 10.40625 
L 48.78125 2.09375 
Q 45.015625 0.34375 40.984375 -0.53125 
Q 36.96875 -1.421875 32.421875 -1.421875 
Q 20.0625 -1.421875 12.78125 6.34375 
Q 5.515625 14.109375 5.515625 27.296875 
Q 5.515625 40.671875 12.859375 48.328125 
Q 20.21875 56 33.015625 56 
Q 37.15625 56 41.109375 55.140625 
Q 45.0625 54.296875 48.78125 52.59375 
z
" id="DejaVuSans-99"/>
       <path d="M 18.3125 70.21875 
L 18.3125 54.6875 
L 36.8125 54.6875 
L 36.8125 47.703125 
L 18.3125 47.703125 
L 18.3125 18.015625 
Q 18.3125 11.328125 20.140625 9.421875 
Q 21.96875 7.515625 27.59375 7.515625 
L 36.8125 7.515625 
L 36.8125 0 
L 27.59375 0 
Q 17.1875 0 13.234375 3.875 
Q 9.28125 7.765625 9.28125 18.015625 
L 9.28125 47.703125 
L 2.6875 47.703125 
L 2.6875 54.6875 
L 9.28125 54.6875 
L 9.28125 70.21875 
z
" id="DejaVuSans-116"/>
       <path d="M 8.5 21.578125 
L 8.5 54.6875 
L 17.484375 54.6875 
L 17.484375 21.921875 
Q 17.484375 14.15625 20.5 10.265625 
Q 23.53125 6.390625 29.59375 6.390625 
Q 36.859375 6.390625 41.078125 11.03125 
Q 45.3125 15.671875 45.3125 23.6875 
L 45.3125 54.6875 
L 54.296875 54.6875 
L 54.296875 0 
L 45.3125 0 
L 45.3125 8.40625 
Q 42.046875 3.421875 37.71875 1 
Q 33.40625 -1.421875 27.6875 -1.421875 
Q 18.265625 -1.421875 13.375 4.4375 
Q 8.5 10.296875 8.5 21.578125 
z
M 31.109375 56 
z
" id="DejaVuSans-117"/>
       <path d="M 11.71875 12.40625 
L 22.015625 12.40625 
L 22.015625 4 
L 14.015625 -11.625 
L 7.71875 -11.625 
L 11.71875 4 
z
" id="DejaVuSans-44"/>
       <path d="M 18.109375 8.203125 
L 18.109375 -20.796875 
L 9.078125 -20.796875 
L 9.078125 54.6875 
L 18.109375 54.6875 
L 18.109375 46.390625 
Q 20.953125 51.265625 25.265625 53.625 
Q 29.59375 56 35.59375 56 
Q 45.5625 56 51.78125 48.09375 
Q 58.015625 40.1875 58.015625 27.296875 
Q 58.015625 14.40625 51.78125 6.484375 
Q 45.5625 -1.421875 35.59375 -1.421875 
Q 29.59375 -1.421875 25.265625 0.953125 
Q 20.953125 3.328125 18.109375 8.203125 
z
M 48.6875 27.296875 
Q 48.6875 37.203125 44.609375 42.84375 
Q 40.53125 48.484375 33.40625 48.484375 
Q 26.265625 48.484375 22.1875 42.84375 
Q 18.109375 37.203125 18.109375 27.296875 
Q 18.109375 17.390625 22.1875 11.75 
Q 26.265625 6.109375 33.40625 6.109375 
Q 40.53125 6.109375 44.609375 11.75 
Q 48.6875 17.390625 48.6875 27.296875 
z
" id="DejaVuSans-112"/>
      </defs>
      <use xlink:href="#DejaVuSans-70"/>
      <use x="50.269531" xlink:href="#DejaVuSans-114"/>
      <use x="91.382812" xlink:href="#DejaVuSans-97"/>
      <use x="152.662109" xlink:href="#DejaVuSans-99"/>
      <use x="207.642578" xlink:href="#DejaVuSans-116"/>
      <use x="246.851562" xlink:href="#DejaVuSans-105"/>
      <use x="274.634766" xlink:href="#DejaVuSans-111"/>
      <use x="335.816406" xlink:href="#DejaVuSans-110"/>
      <use x="399.195312" xlink:href="#DejaVuSans-32"/>
      <use x="430.982422" xlink:href="#DejaVuSans-111"/>
      <use x="492.164062" xlink:href="#DejaVuSans-102"/>
      <use x="527.369141" xlink:href="#DejaVuSans-32"/>
      <use x="559.15625" xlink:href="#DejaVuSans-102"/>
      <use x="594.361328" xlink:href="#DejaVuSans-117"/>
      <use x="657.740234" xlink:href="#DejaVuSans-110"/>
      <use x="721.119141" xlink:href="#DejaVuSans-99"/>
      <use x="776.099609" xlink:href="#DejaVuSans-116"/>
      <use x="815.308594" xlink:href="#DejaVuSans-105"/>
      <use x="843.091797" xlink:href="#DejaVuSans-111"/>
      <use x="904.273438" xlink:href="#DejaVuSans-110"/>
      <use x="967.652344" xlink:href="#DejaVuSans-44"/>
      <use x="999.439453" xlink:href="#DejaVuSans-116"/>
      <use x="1038.648438" xlink:href="#DejaVuSans-97"/>
      <use x="1099.927734" xlink:href="#DejaVuSans-114"/>
      <use x="1139.291016" xlink:href="#DejaVuSans-103"/>
      <use x="1202.767578" xlink:href="#DejaVuSans-101"/>
      <use x="1264.291016" xlink:href="#DejaVuSans-116"/>
      <use x="1303.5" xlink:href="#DejaVuSans-32"/>
      <use x="1335.287109" xlink:href="#DejaVuSans-112"/>
      <use x="1398.763672" xlink:href="#DejaVuSans-97"/>
      <use x="1460.042969" xlink:href="#DejaVuSans-105"/>
      <use x="1487.826172" xlink:href="#DejaVuSans-114"/>
      <use x="1528.939453" xlink:href="#DejaVuSans-115"/>
     </g>
    </g>
   </g>
   <g id="line2d_29">
    <defs>
     <path d="M 0 1.5 
C 0.397805 1.5 0.77937 1.341951 1.06066 1.06066 
C 1.341951 0.77937 1.5 0.397805 1.5 0 
C 1.5 -0.397805 1.341951 -0.77937 1.06066 -1.06066 
C 0.77937 -1.341951 0.397805 -1.5 0 -1.5 
C -0.397805 -1.5 -0.77937 -1.341951 -1.06066 -1.06066 
C -1.341951 -0.77937 -1.5 -0.397805 -1.5 0 
C -1.5 0.397805 -1.341951 0.77937 -1.06066 1.06066 
C -0.77937 1.341951 -0.397805 1.5 0 1.5 
z
" id="mf9fa0911d2" style="stroke:#000080;"/>
    </defs>
    <g>
     <use style="fill:#000080;stroke:#000080;" x="220.478174" xlink:href="#mf9fa0911d2" y="41.690876"/>
     <use style="fill:#000080;stroke:#000080;" x="220.478174" xlink:href="#mf9fa0911d2" y="41.690876"/>
    </g>
   </g>
   <g id="line2d_30">
    <path d="M 38.440992 298.944 
L 38.440992 293.899821 
L 98.880934 293.899821 
L 98.880934 293.395403 
L 102.330873 293.395403 
L 102.330873 292.890985 
L 107.680028 292.890985 
L 107.680028 292.386567 
L 109.843417 292.386567 
L 109.843417 291.88215 
L 111.767808 291.88215 
L 111.767808 291.377732 
L 113.500792 291.377732 
L 113.500792 290.873314 
L 116.522527 290.873314 
L 116.522527 290.368896 
L 119.097192 290.368896 
L 119.097192 289.864478 
L 121.340187 289.864478 
L 121.340187 288.855642 
L 122.362027 288.855642 
L 122.362027 288.351224 
L 123.327293 288.351224 
L 123.327293 287.342389 
L 125.110962 287.342389 
L 125.110962 286.837971 
L 125.938745 286.837971 
L 125.938745 285.324717 
L 126.729009 285.324717 
L 126.729009 284.820299 
L 128.209594 284.820299 
L 128.209594 284.315881 
L 128.905271 284.315881 
L 128.905271 283.811463 
L 129.574256 283.811463 
L 129.574256 282.29821 
L 130.839837 282.29821 
L 130.839837 281.793792 
L 132.019755 281.793792 
L 132.019755 281.289374 
L 133.652238 281.289374 
L 133.652238 280.280538 
L 135.548916 280.280538 
L 135.548916 279.77612 
L 136.519813 279.77612 
L 136.519813 279.271702 
L 137.439497 279.271702 
L 137.439497 278.767284 
L 137.558536 278.767284 
L 137.558536 277.758449 
L 138.650644 277.758449 
L 138.650644 277.254031 
L 139.253002 277.254031 
L 139.253002 276.749613 
L 140.093612 276.749613 
L 140.093612 276.245195 
L 140.348205 276.245195 
L 140.348205 275.236359 
L 140.499195 275.236359 
L 140.499195 274.731941 
L 140.747977 274.731941 
L 140.747977 274.227523 
L 141.138789 274.227523 
L 141.138789 273.723105 
L 141.521035 273.723105 
L 141.521035 273.218688 
L 141.662245 273.218688 
L 141.662245 272.71427 
L 142.033307 272.71427 
L 142.033307 271.705434 
L 142.261275 271.705434 
L 142.261275 270.696598 
L 142.619936 270.696598 
L 142.619936 269.687762 
L 142.752555 269.687762 
L 142.752555 269.183344 
L 142.971369 269.183344 
L 142.971369 268.678927 
L 143.101352 268.678927 
L 143.101352 268.174509 
L 143.31586 268.174509 
L 143.31586 267.670091 
L 143.44331 267.670091 
L 143.44331 267.165673 
L 143.653678 267.165673 
L 143.653678 266.661255 
L 143.985075 266.661255 
L 143.985075 266.156837 
L 144.107744 266.156837 
L 144.107744 264.643583 
L 144.310293 264.643583 
L 144.310293 264.139166 
L 144.430703 264.139166 
L 144.430703 263.13033 
L 144.629556 263.13033 
L 144.629556 261.112658 
L 144.747789 261.112658 
L 144.747789 260.60824 
L 145.059213 260.60824 
L 145.059213 260.103822 
L 145.251067 260.103822 
L 145.251067 258.590569 
L 145.553708 258.590569 
L 145.553708 258.086151 
L 145.665858 258.086151 
L 145.665858 256.572897 
L 145.851187 256.572897 
L 145.851187 255.564061 
L 146.431341 255.564061 
L 146.431341 254.555226 
L 146.714338 254.555226 
L 146.819289 253.54639 
L 146.992815 253.54639 
L 146.992815 252.537554 
L 147.266916 252.537554 
L 147.368603 251.0243 
L 147.802521 251.0243 
L 147.901141 250.015465 
L 148.064279 250.015465 
L 148.064279 249.006629 
L 148.322166 249.006629 
L 148.417899 247.997793 
L 148.670646 247.997793 
L 148.670646 247.493375 
L 148.826773 247.493375 
L 148.826773 246.988957 
L 148.981515 246.988957 
L 148.981515 246.484539 
L 149.407627 246.484539 
L 149.407627 245.475704 
L 149.940618 245.475704 
L 149.969756 244.466868 
L 150.114722 244.466868 
L 150.114722 243.458032 
L 150.344189 243.458032 
L 150.344189 242.953614 
L 150.822008 242.953614 
L 150.822008 241.944778 
L 151.015013 241.944778 
L 151.042412 240.431525 
L 151.260066 240.431525 
L 151.260066 239.927107 
L 151.923236 239.927107 
L 151.923236 239.422689 
L 152.078714 239.422689 
L 152.078714 238.918271 
L 152.283884 238.918271 
L 152.283884 238.413853 
L 152.511852 238.413853 
L 152.511852 237.405017 
L 152.662192 237.405017 
L 152.712018 234.882928 
L 153.226778 234.882928 
L 153.226778 233.874092 
L 153.418948 233.874092 
L 153.418948 233.369674 
L 153.632638 233.369674 
L 153.656221 232.360839 
L 153.773658 232.360839 
L 153.820412 231.352003 
L 153.983071 231.352003 
L 153.983071 230.343167 
L 154.144227 230.343167 
L 154.167129 228.829913 
L 154.281186 228.829913 
L 154.371897 227.31666 
L 154.394502 227.31666 
L 154.394502 226.812242 
L 154.507086 226.812242 
L 154.507086 226.307824 
L 154.641235 226.307824 
L 154.752243 223.281316 
L 154.81851 223.281316 
L 154.906477 221.263645 
L 154.994001 221.263645 
L 155.0376 220.254809 
L 155.167744 220.254809 
L 155.253971 218.741555 
L 155.361158 218.741555 
L 155.361158 218.237138 
L 155.55245 218.237138 
L 155.55245 217.228302 
L 155.762564 217.228302 
L 155.86668 214.706212 
L 155.887428 214.706212 
L 155.949527 212.688541 
L 156.216093 212.688541 
L 156.216093 212.184123 
L 156.337763 212.184123 
L 156.337763 211.679705 
L 156.518691 211.679705 
L 156.578586 208.653198 
L 156.677955 208.653198 
L 156.677955 208.14878 
L 156.894595 208.14878 
L 156.953214 205.62669 
L 157.011638 205.62669 
L 157.011638 204.617855 
L 157.147202 204.617855 
L 157.147202 203.609019 
L 157.319964 203.609019 
L 157.319964 203.104601 
L 157.547684 203.104601 
L 157.547684 202.095765 
L 158.031107 202.095765 
L 158.104304 200.582511 
L 158.39406 200.582511 
L 158.465753 198.56484 
L 158.608261 198.56484 
L 158.608261 198.060422 
L 159.063529 198.060422 
L 159.063529 197.051586 
L 159.456591 197.051586 
L 159.456591 196.547168 
L 159.708245 196.547168 
L 159.708245 196.04275 
L 168.845033 196.04275 
L 168.845033 195.538333 
L 171.796233 195.538333 
L 171.796233 194.529497 
L 173.740749 194.529497 
L 173.740749 193.520661 
L 174.261802 193.520661 
L 174.261802 193.016243 
L 175.354741 193.016243 
L 175.456309 189.989736 
L 175.530419 189.989736 
L 175.617599 187.467646 
L 175.724302 187.467646 
L 175.81052 185.954393 
L 175.843568 185.954393 
L 175.9292 182.927885 
L 176.04055 182.927885 
L 176.118724 181.414632 
L 176.241787 181.414632 
L 176.30621 180.405796 
L 176.396004 180.405796 
L 176.453486 179.39696 
L 176.580549 179.39696 
L 176.580549 178.388124 
L 176.844405 178.388124 
L 176.894213 177.379288 
L 176.968661 177.379288 
L 177.011942 176.370453 
L 177.08589 176.370453 
L 177.08589 175.866035 
L 177.287644 175.866035 
L 177.336204 173.848363 
L 177.493098 173.848363 
L 177.493098 172.839527 
L 177.618798 172.839527 
L 177.696161 171.326274 
L 177.802715 171.326274 
L 177.861631 170.317438 
L 177.943781 170.317438 
L 177.943781 169.308602 
L 178.141693 169.308602 
L 178.159048 168.299766 
L 178.297273 168.299766 
L 178.337383 166.786513 
L 178.468527 166.786513 
L 178.576125 163.760005 
L 178.621232 163.760005 
L 178.722297 162.75117 
L 178.73349 162.75117 
L 178.761442 161.237916 
L 178.894992 161.237916 
L 178.922687 160.22908 
L 179.071482 160.22908 
L 179.13174 158.211409 
L 179.267922 158.211409 
L 179.343721 157.202573 
L 179.419193 157.202573 
L 179.521099 155.689319 
L 179.643667 155.689319 
L 179.744273 153.671648 
L 179.802255 153.671648 
L 179.912415 151.653976 
L 179.933319 151.653976 
L 180.042657 149.131887 
L 180.089306 149.131887 
L 180.187382 146.609797 
L 180.279789 146.609797 
L 180.356423 145.600961 
L 180.422568 145.600961 
L 180.422568 144.592126 
L 180.549068 144.592126 
L 180.659634 142.574454 
L 180.674658 142.574454 
L 180.779458 141.0612 
L 180.794378 141.0612 
L 180.888578 139.043529 
L 180.952739 139.043529 
L 181.021571 137.025857 
L 181.143816 137.025857 
L 181.182753 133.494932 
L 181.332822 133.494932 
L 181.352092 131.47726 
L 181.534102 131.47726 
L 181.534102 130.972843 
L 181.657549 130.972843 
L 181.657549 130.468425 
L 181.784827 130.468425 
L 181.784827 129.459589 
L 181.906518 129.459589 
L 181.971695 127.946335 
L 182.0181 127.946335 
L 182.0181 127.441917 
L 182.179555 127.441917 
L 182.179555 126.937499 
L 182.32132 126.937499 
L 182.375889 125.424246 
L 182.466459 125.424246 
L 182.520577 124.41541 
L 182.681928 124.41541 
L 182.779802 123.406574 
L 182.815256 123.406574 
L 182.815256 122.902156 
L 183.07017 122.902156 
L 183.152872 121.388903 
L 183.325711 121.388903 
L 183.39437 119.875649 
L 183.602971 119.875649 
L 183.653679 117.857977 
L 184.04587 117.857977 
L 184.1364 115.840306 
L 184.218294 115.840306 
L 184.299805 113.822634 
L 184.449604 113.822634 
L 184.449604 113.318216 
L 184.745395 113.318216 
L 184.745395 112.813799 
L 184.918922 112.813799 
L 184.918922 111.804963 
L 185.141181 111.804963 
L 185.141181 111.300545 
L 185.414125 111.300545 
L 185.414125 110.796127 
L 185.550905 110.796127 
L 185.550905 110.291709 
L 185.839908 110.291709 
L 185.888232 109.282873 
L 185.977095 109.282873 
L 185.977095 108.778455 
L 186.270076 108.778455 
L 186.270076 108.274038 
L 186.497383 108.274038 
L 186.497383 107.76962 
L 187.075573 107.76962 
L 187.075573 107.265202 
L 187.289259 107.265202 
L 187.343981 106.256366 
L 187.418945 106.256366 
L 187.418945 105.751948 
L 187.591495 105.751948 
L 187.591495 105.24753 
L 188.741181 105.24753 
L 188.741181 104.743112 
L 188.919919 104.743112 
L 188.919919 104.238694 
L 189.164652 104.238694 
L 189.223003 101.716605 
L 189.469596 101.716605 
L 189.469596 101.212187 
L 189.679927 101.212187 
L 189.742535 99.698933 
L 189.840467 99.698933 
L 189.840467 98.690098 
L 190.14846 98.690098 
L 190.14846 98.18568 
L 190.751402 98.18568 
L 190.751402 97.176844 
L 190.938577 97.176844 
L 191.024506 95.159172 
L 191.184147 95.159172 
L 191.184147 94.150337 
L 191.404676 94.150337 
L 191.404676 93.141501 
L 191.848094 93.141501 
L 191.848094 92.132665 
L 194.216962 92.132665 
L 194.260655 90.114994 
L 194.436614 90.114994 
L 194.452523 88.097322 
L 195.249543 88.097322 
L 195.312364 86.07965 
L 195.637981 86.07965 
L 195.637981 85.070815 
L 195.775391 85.070815 
L 195.775391 84.061979 
L 196.059438 84.061979 
L 196.059438 83.053143 
L 196.296067 83.053143 
L 196.296067 82.044307 
L 196.714072 82.044307 
L 196.739992 81.035471 
L 197.269804 81.035471 
L 197.312273 80.026636 
L 197.950217 80.026636 
L 197.966938 79.0178 
L 198.08354 79.0178 
L 198.168188 78.008964 
L 198.31989 78.008964 
L 198.31989 77.504546 
L 198.637272 77.504546 
L 198.637272 77.000128 
L 200.032747 77.000128 
L 200.119956 75.991293 
L 200.156028 75.991293 
L 200.156028 75.486875 
L 200.51431 75.486875 
L 200.616706 73.973621 
L 200.87324 73.973621 
L 200.876384 72.964785 
L 201.119857 72.964785 
L 201.119857 72.460367 
L 201.366092 72.460367 
L 201.366092 71.955949 
L 202.852025 71.955949 
L 202.852025 71.451532 
L 202.97787 71.451532 
L 203.07374 70.442696 
L 203.196626 70.442696 
L 203.196626 69.938278 
L 203.480486 69.938278 
L 203.583062 68.929442 
L 203.932126 68.929442 
L 203.943993 67.920606 
L 204.19786 67.920606 
L 204.19786 67.416188 
L 204.350485 67.416188 
L 204.350485 66.911771 
L 209.593916 66.911771 
L 209.670021 63.885263 
L 209.799583 63.885263 
L 209.880425 60.858756 
L 210.061425 60.858756 
L 210.103142 58.841084 
L 210.214824 58.841084 
L 210.214824 57.832249 
L 210.343155 57.832249 
L 210.343155 56.823413 
L 215.767675 56.823413 
L 215.767675 55.814577 
L 215.933501 55.814577 
L 215.933501 54.805741 
L 216.3468 54.805741 
L 216.3468 53.796905 
L 216.493761 53.796905 
L 216.560387 51.779234 
L 216.648403 51.779234 
L 216.746103 48.752727 
L 216.836336 48.752727 
L 216.836336 47.743891 
L 216.986111 47.743891 
L 216.986111 46.735055 
L 219.673318 46.735055 
L 219.752302 45.221801 
L 219.825627 45.221801 
L 219.93346 44.212966 
L 220.09919 44.212966 
L 220.107018 42.699712 
L 220.243182 42.699712 
L 220.243182 42.195294 
L 220.478174 42.195294 
L 220.478174 41.690876 
L 338.688 41.690876 
L 338.688 41.690876 
" style="fill:none;stroke:#000080;stroke-linecap:square;stroke-width:1.5;"/>
   </g>
   <g id="line2d_31">
    <defs>
     <path d="M 0 6 
C 1.591219 6 3.117479 5.367802 4.242641 4.242641 
C 5.367802 3.117479 6 1.591219 6 0 
C 6 -1.591219 5.367802 -3.117479 4.242641 -4.242641 
C 3.117479 -5.367802 1.591219 -6 0 -6 
C -1.591219 -6 -3.117479 -5.367802 -4.242641 -4.242641 
C -5.367802 -3.117479 -6 -1.591219 -6 0 
C -6 1.591219 -5.367802 3.117479 -4.242641 4.242641 
C -3.117479 5.367802 -1.591219 6 0 6 
z
" id="mc27309a966" style="stroke:#000080;stroke-width:1.5;"/>
    </defs>
    <g>
     <use style="fill-opacity:0;stroke:#000080;stroke-width:1.5;" x="123.327293" xlink:href="#mc27309a966" y="288.351224"/>
     <use style="fill-opacity:0;stroke:#000080;stroke-width:1.5;" x="159.708245" xlink:href="#mc27309a966" y="196.547168"/>
     <use style="fill-opacity:0;stroke:#000080;stroke-width:1.5;" x="189.742535" xlink:href="#mc27309a966" y="100.203351"/>
     <use style="fill-opacity:0;stroke:#000080;stroke-width:1.5;" x="220.478174" xlink:href="#mc27309a966" y="41.690876"/>
     <use style="fill-opacity:0;stroke:#000080;stroke-width:1.5;" x="220.478174" xlink:href="#mc27309a966" y="41.690876"/>
     <use style="fill-opacity:0;stroke:#000080;stroke-width:1.5;" x="338.688" xlink:href="#mc27309a966" y="41.690876"/>
    </g>
   </g>
   <g id="line2d_32">
    <path style="fill:none;stroke:#000080;stroke-linecap:square;stroke-width:1.5;"/>
    <g/>
   </g>
   <g id="line2d_33">
    <path clip-path="url(#pfaf2044c74)" d="M 255.312931 41.690876 
" style="fill:none;stroke:#000080;stroke-linecap:square;stroke-width:1.5;"/>
    <defs>
     <path d="M -12 12 
L 12 -12 
M -12 -12 
L 12 12 
" id="m006d918fd9" style="stroke:#000080;"/>
    </defs>
    <g clip-path="url(#pfaf2044c74)">
     <use style="fill:#000080;stroke:#000080;" x="255.312931" xlink:href="#m006d918fd9" y="41.690876"/>
    </g>
   </g>
   <g id="line2d_34">
    <defs>
     <path d="M 0 1.5 
C 0.397805 1.5 0.77937 1.341951 1.06066 1.06066 
C 1.341951 0.77937 1.5 0.397805 1.5 0 
C 1.5 -0.397805 1.341951 -0.77937 1.06066 -1.06066 
C 0.77937 -1.341951 0.397805 -1.5 0 -1.5 
C -0.397805 -1.5 -0.77937 -1.341951 -1.06066 -1.06066 
C -1.341951 -0.77937 -1.5 -0.397805 -1.5 0 
C -1.5 0.397805 -1.341951 0.77937 -1.06066 1.06066 
C -0.77937 1.341951 -0.397805 1.5 0 1.5 
z
" id="ma57dc8ea08" style="stroke:#ff00ff;"/>
    </defs>
    <g>
     <use style="fill:#ff00ff;stroke:#ff00ff;" x="257.2065" xlink:href="#ma57dc8ea08" y="41.690876"/>
     <use style="fill:#ff00ff;stroke:#ff00ff;" x="257.2065" xlink:href="#ma57dc8ea08" y="41.690876"/>
    </g>
   </g>
   <g id="line2d_35">
    <path d="M 38.440992 298.944 
L 38.440992 294.404239 
L 107.680028 294.404239 
L 107.680028 293.899821 
L 111.767808 293.899821 
L 111.767808 293.395403 
L 113.500792 293.395403 
L 113.500792 292.890985 
L 115.077025 292.890985 
L 115.077025 292.386567 
L 116.522527 292.386567 
L 116.522527 291.88215 
L 120.254726 291.88215 
L 120.254726 290.873314 
L 122.362027 290.873314 
L 122.362027 290.368896 
L 123.327293 290.368896 
L 123.327293 289.36006 
L 124.241922 289.36006 
L 124.241922 288.855642 
L 125.938745 288.855642 
L 125.938745 288.351224 
L 126.729009 288.351224 
L 126.729009 287.846806 
L 127.48501 287.846806 
L 127.48501 286.837971 
L 128.209594 286.837971 
L 128.209594 285.324717 
L 128.905271 285.324717 
L 128.905271 282.802628 
L 129.574256 282.802628 
L 129.574256 281.289374 
L 130.218525 281.289374 
L 130.218525 280.280538 
L 130.839837 280.280538 
L 130.839837 277.758449 
L 132.019755 277.758449 
L 132.019755 277.254031 
L 132.581068 277.254031 
L 132.581068 276.245195 
L 133.124876 276.245195 
L 133.124876 275.236359 
L 133.652238 275.236359 
L 133.652238 274.731941 
L 134.661403 274.731941 
L 134.661403 273.723105 
L 136.073445 273.723105 
L 136.073445 273.218688 
L 136.32991 273.218688 
L 136.32991 272.71427 
L 139.360321 272.71427 
L 139.360321 272.209852 
L 140.44901 272.209852 
L 140.44901 271.705434 
L 141.138789 271.705434 
L 141.138789 271.201016 
L 142.441528 271.201016 
L 142.441528 270.696598 
L 143.358447 270.696598 
L 143.358447 270.19218 
L 143.653678 270.19218 
L 143.653678 269.687762 
L 144.787023 269.687762 
L 144.787023 268.678927 
L 145.059213 268.678927 
L 145.059213 267.670091 
L 145.327221 267.670091 
L 145.327221 267.165673 
L 145.591172 267.165673 
L 145.591172 266.661255 
L 146.107383 266.661255 
L 146.107383 266.156837 
L 146.359869 266.156837 
L 146.359869 264.139166 
L 146.608752 264.139166 
L 146.608752 263.634748 
L 146.749392 263.634748 
L 146.749392 263.13033 
L 148.79566 263.13033 
L 148.79566 262.625912 
L 149.527485 262.625912 
L 149.527485 262.121494 
L 150.172372 262.121494 
L 150.172372 261.617076 
L 150.766468 261.617076 
L 150.766468 260.60824 
L 151.871101 260.60824 
L 151.871101 260.103822 
L 152.001148 260.103822 
L 152.027042 258.590569 
L 152.155936 258.590569 
L 152.155936 258.086151 
L 152.309362 258.086151 
L 152.410901 257.077315 
L 152.612222 257.077315 
L 152.612222 256.068479 
L 152.860649 256.068479 
L 152.934492 254.050808 
L 152.983548 254.050808 
L 152.983548 253.54639 
L 153.29909 253.54639 
L 153.29909 252.537554 
L 153.936752 252.537554 
L 153.936752 252.033136 
L 154.303908 252.033136 
L 154.349264 250.519883 
L 154.752243 250.519883 
L 154.752243 250.015465 
L 155.0376 250.015465 
L 155.0376 249.511047 
L 155.167744 249.511047 
L 155.167744 249.006629 
L 155.339773 249.006629 
L 155.382516 247.493375 
L 155.949527 247.493375 
L 156.011405 242.449196 
L 156.418408 242.449196 
L 156.418408 241.944778 
L 156.658127 241.944778 
L 156.677955 239.422689 
L 156.796456 239.422689 
L 156.796456 238.413853 
L 156.914157 238.413853 
L 156.914157 237.909435 
L 157.20498 237.909435 
L 157.300853 235.387346 
L 157.339055 235.387346 
L 157.339055 234.882928 
L 157.566527 234.882928 
L 157.566527 232.865256 
L 157.697862 232.865256 
L 157.697862 231.856421 
L 157.957601 231.856421 
L 157.976006 229.334331 
L 158.195371 229.334331 
L 158.195371 228.325495 
L 158.322071 228.325495 
L 158.358103 226.307824 
L 158.51933 226.307824 
L 158.572743 224.290152 
L 159.201253 224.290152 
L 159.252621 221.263645 
L 159.658204 221.263645 
L 159.758143 219.750391 
L 159.874019 219.750391 
L 159.956318 217.73272 
L 160.136022 217.73272 
L 160.136022 216.219466 
L 160.664283 216.219466 
L 160.758635 214.201794 
L 161.023225 214.201794 
L 161.023225 213.697377 
L 161.495615 213.697377 
L 161.495615 212.688541 
L 161.955547 212.688541 
L 161.955547 211.679705 
L 162.868358 211.679705 
L 162.868358 210.166451 
L 163.225959 210.166451 
L 163.225959 209.157616 
L 163.880593 209.157616 
L 163.880593 208.14878 
L 164.037234 208.14878 
L 164.037234 206.131108 
L 164.886862 206.131108 
L 164.886862 205.122272 
L 165.542734 205.122272 
L 165.542734 204.113437 
L 166.128786 204.113437 
L 166.128786 203.104601 
L 166.884438 203.104601 
L 166.884438 201.591347 
L 167.158215 201.591347 
L 167.158215 200.582511 
L 167.682664 200.582511 
L 167.682664 198.56484 
L 167.881853 198.56484 
L 167.933895 197.051586 
L 168.71633 197.051586 
L 168.71633 196.547168 
L 172.434028 196.547168 
L 172.434028 196.04275 
L 175.422519 196.04275 
L 175.422519 195.033915 
L 179.18634 195.033915 
L 179.18634 194.529497 
L 183.846704 194.529497 
L 183.846704 194.025079 
L 203.639491 194.025079 
L 203.643515 192.511825 
L 204.03471 192.511825 
L 204.03471 192.007407 
L 204.276926 192.007407 
L 204.276926 190.998572 
L 204.440399 190.998572 
L 204.440399 190.494154 
L 204.765332 190.494154 
L 204.765332 189.989736 
L 205.033624 189.989736 
L 205.033624 188.9809 
L 205.225741 188.9809 
L 205.225741 188.476482 
L 205.770725 188.476482 
L 205.770725 187.467646 
L 206.108129 187.467646 
L 206.108129 186.963228 
L 206.334857 186.963228 
L 206.334857 186.458811 
L 206.701056 186.458811 
L 206.701056 185.954393 
L 207.599231 185.954393 
L 207.599231 185.449975 
L 207.903341 185.449975 
L 207.903341 184.441139 
L 208.697993 184.441139 
L 208.771106 183.432303 
L 208.91939 183.432303 
L 208.978748 181.91905 
L 209.332649 181.91905 
L 209.419532 180.405796 
L 209.695631 180.405796 
L 209.695631 179.39696 
L 209.807119 179.39696 
L 209.889801 177.883706 
L 209.940344 177.883706 
L 210.031698 175.866035 
L 210.201018 175.866035 
L 210.309331 173.848363 
L 210.414247 173.848363 
L 210.414247 173.343945 
L 210.620407 173.343945 
L 210.620407 172.839527 
L 210.777897 172.839527 
L 210.888009 171.830692 
L 210.900397 171.830692 
L 210.900397 171.326274 
L 211.06766 171.326274 
L 211.171609 167.795349 
L 211.297437 167.795349 
L 211.297437 167.290931 
L 211.482355 167.290931 
L 211.482355 166.786513 
L 211.594072 166.786513 
L 211.594072 165.777677 
L 211.806146 165.777677 
L 211.89076 164.264423 
L 211.919152 164.264423 
L 211.919152 163.760005 
L 212.216149 163.760005 
L 212.243197 162.246752 
L 212.342832 162.246752 
L 212.359111 161.237916 
L 212.707884 161.237916 
L 212.707884 159.724662 
L 212.885611 159.724662 
L 212.885611 159.220244 
L 213.026343 159.220244 
L 213.026343 158.715827 
L 213.452552 158.715827 
L 213.452552 157.706991 
L 213.60926 157.706991 
L 213.640282 156.193737 
L 214.3048 156.193737 
L 214.3048 155.184901 
L 214.48074 155.184901 
L 214.48074 154.680483 
L 214.664193 154.680483 
L 214.664193 153.671648 
L 215.327901 153.671648 
L 215.417566 152.662812 
L 215.636701 152.662812 
L 215.636701 151.653976 
L 216.403669 151.653976 
L 216.403669 151.149558 
L 217.042802 151.149558 
L 217.095589 150.140722 
L 217.230862 150.140722 
L 217.230862 149.636305 
L 218.269317 149.636305 
L 218.269317 149.131887 
L 218.941432 149.131887 
L 218.941432 148.627469 
L 219.449376 148.627469 
L 219.449376 147.618633 
L 219.812897 147.618633 
L 219.812897 146.609797 
L 221.756111 146.609797 
L 221.756111 145.600961 
L 223.192407 145.600961 
L 223.275702 143.078872 
L 223.711787 143.078872 
L 223.777432 142.070036 
L 223.956169 142.070036 
L 224.043814 140.556783 
L 224.075009 140.556783 
L 224.075009 139.547947 
L 224.359828 139.547947 
L 224.359828 139.043529 
L 224.680656 139.043529 
L 224.697506 138.034693 
L 224.924588 138.034693 
L 224.924588 137.530275 
L 225.719196 137.530275 
L 225.785629 136.521439 
L 226.247005 136.521439 
L 226.247005 135.512604 
L 226.474463 135.512604 
L 226.474463 134.503768 
L 227.574373 134.503768 
L 227.651386 132.990514 
L 227.713562 132.990514 
L 227.713562 132.486096 
L 227.87606 132.486096 
L 227.87606 131.981678 
L 228.024141 131.981678 
L 228.024141 131.47726 
L 229.944921 131.47726 
L 229.944921 130.972843 
L 230.269838 130.972843 
L 230.271877 129.964007 
L 230.800902 129.964007 
L 230.903179 126.433082 
L 230.986136 126.433082 
L 231.094284 124.41541 
L 231.176339 124.41541 
L 231.176339 123.910992 
L 231.363396 123.910992 
L 231.363396 123.406574 
L 231.52517 123.406574 
L 231.52517 122.397738 
L 231.67444 122.397738 
L 231.743379 121.388903 
L 232.183786 121.388903 
L 232.183786 120.884485 
L 232.302156 120.884485 
L 232.302156 119.875649 
L 232.505276 119.875649 
L 232.510401 117.857977 
L 232.79677 117.857977 
L 232.79677 116.849142 
L 233.166572 116.849142 
L 233.260326 115.840306 
L 233.384309 115.840306 
L 233.460413 114.83147 
L 233.51685 114.83147 
L 233.594064 113.318216 
L 233.638308 113.318216 
L 233.638308 112.813799 
L 233.751054 112.813799 
L 233.751054 112.309381 
L 233.903332 112.309381 
L 233.903332 111.804963 
L 234.131502 111.804963 
L 234.131502 111.300545 
L 234.259432 111.300545 
L 234.344277 109.787291 
L 234.462645 109.787291 
L 234.563371 107.265202 
L 234.594316 107.265202 
L 234.668046 105.751948 
L 234.741691 105.751948 
L 234.832975 104.238694 
L 234.921329 104.238694 
L 235.027211 103.229859 
L 235.04583 103.229859 
L 235.04583 102.725441 
L 235.260713 102.725441 
L 235.285422 101.212187 
L 235.407142 101.212187 
L 235.436411 99.698933 
L 235.518965 99.698933 
L 235.540297 98.18568 
L 235.693587 98.18568 
L 235.693587 97.681262 
L 235.836652 97.681262 
L 235.914809 96.168008 
L 235.976033 96.168008 
L 235.976033 95.66359 
L 236.282892 95.66359 
L 236.287637 94.654755 
L 236.501495 94.654755 
L 236.608766 93.141501 
L 236.733086 93.141501 
L 236.733086 92.132665 
L 238.149273 92.132665 
L 238.219404 89.106158 
L 238.280055 89.106158 
L 238.280055 88.097322 
L 238.589773 88.097322 
L 238.689824 87.088486 
L 239.102127 87.088486 
L 239.102127 86.584068 
L 239.250889 86.584068 
L 239.250889 86.07965 
L 239.532676 86.07965 
L 239.532676 85.575233 
L 239.739036 85.575233 
L 239.739036 84.566397 
L 240.082946 84.566397 
L 240.082946 84.061979 
L 240.327501 84.061979 
L 240.327501 83.557561 
L 240.735085 83.557561 
L 240.748349 82.548725 
L 241.02411 82.548725 
L 241.02411 82.044307 
L 241.167547 82.044307 
L 241.167547 81.035471 
L 241.499807 81.035471 
L 241.499807 80.531054 
L 241.944835 80.531054 
L 241.980148 78.513382 
L 242.066712 78.513382 
L 242.160805 76.49571 
L 242.227264 76.49571 
L 242.227264 75.991293 
L 242.339609 75.991293 
L 242.432535 74.478039 
L 242.517898 74.478039 
L 242.607153 73.469203 
L 242.908519 73.469203 
L 242.908519 72.964785 
L 243.05888 72.964785 
L 243.05888 71.955949 
L 243.215585 71.955949 
L 243.319415 69.938278 
L 243.376802 69.938278 
L 243.376802 69.43386 
L 243.49961 69.43386 
L 243.49961 68.929442 
L 243.67283 68.929442 
L 243.67283 67.920606 
L 244.029551 67.920606 
L 244.029551 67.416188 
L 244.328588 67.416188 
L 244.357705 65.902935 
L 245.310726 65.902935 
L 245.310726 64.894099 
L 245.567072 64.894099 
L 245.567072 64.389681 
L 245.730859 64.389681 
L 245.730859 63.885263 
L 245.940037 63.885263 
L 245.940037 63.380845 
L 246.43388 63.380845 
L 246.542385 61.867592 
L 246.580387 61.867592 
L 246.580387 60.858756 
L 246.697984 60.858756 
L 246.773683 59.345502 
L 246.809266 59.345502 
L 246.916253 57.327831 
L 247.043644 57.327831 
L 247.144891 55.310159 
L 247.197502 55.310159 
L 247.291607 54.301323 
L 247.426101 54.301323 
L 247.426101 53.796905 
L 247.748352 53.796905 
L 247.748352 53.292488 
L 247.875349 53.292488 
L 247.921041 51.779234 
L 248.016913 51.779234 
L 248.016913 50.770398 
L 248.561951 50.770398 
L 248.561951 49.761562 
L 248.968361 49.761562 
L 248.968361 49.257144 
L 249.850491 49.257144 
L 249.850491 48.248309 
L 250.228452 48.248309 
L 250.228452 47.743891 
L 250.657953 47.743891 
L 250.657953 47.239473 
L 251.681703 47.239473 
L 251.732916 45.726219 
L 253.321843 45.726219 
L 253.321843 44.717383 
L 255.252955 44.717383 
L 255.252955 43.708548 
L 256.074342 43.708548 
L 256.074342 42.699712 
L 256.653682 42.699712 
L 256.653682 42.195294 
L 257.2065 42.195294 
L 257.2065 41.690876 
L 338.688 41.690876 
L 338.688 41.690876 
" style="fill:none;stroke:#ff00ff;stroke-linecap:square;stroke-width:1.5;"/>
   </g>
   <g id="line2d_36">
    <defs>
     <path d="M -0 8.485281 
L 5.091169 0 
L 0 -8.485281 
L -5.091169 -0 
z
" id="mb1bd814afc" style="stroke:#ff00ff;stroke-linejoin:miter;stroke-width:1.5;"/>
    </defs>
    <g>
     <use style="fill-opacity:0;stroke:#ff00ff;stroke-linejoin:miter;stroke-width:1.5;" x="115.077025" xlink:href="#mb1bd814afc" y="292.890985"/>
     <use style="fill-opacity:0;stroke:#ff00ff;stroke-linejoin:miter;stroke-width:1.5;" x="161.955547" xlink:href="#mb1bd814afc" y="211.679705"/>
     <use style="fill-opacity:0;stroke:#ff00ff;stroke-linejoin:miter;stroke-width:1.5;" x="233.751054" xlink:href="#mb1bd814afc" y="112.813799"/>
     <use style="fill-opacity:0;stroke:#ff00ff;stroke-linejoin:miter;stroke-width:1.5;" x="257.2065" xlink:href="#mb1bd814afc" y="42.195294"/>
     <use style="fill-opacity:0;stroke:#ff00ff;stroke-linejoin:miter;stroke-width:1.5;" x="257.2065" xlink:href="#mb1bd814afc" y="41.690876"/>
     <use style="fill-opacity:0;stroke:#ff00ff;stroke-linejoin:miter;stroke-width:1.5;" x="338.688" xlink:href="#mb1bd814afc" y="41.690876"/>
    </g>
   </g>
   <g id="line2d_37">
    <path style="fill:none;stroke:#ff00ff;stroke-linecap:square;stroke-width:1.5;"/>
    <g/>
   </g>
   <g id="line2d_38">
    <path clip-path="url(#pfaf2044c74)" d="M 258.377143 41.690876 
" style="fill:none;stroke:#ff00ff;stroke-linecap:square;stroke-width:1.5;"/>
    <defs>
     <path d="M -12 12 
L 12 -12 
M -12 -12 
L 12 12 
" id="mbfb0aee6a1" style="stroke:#ff00ff;"/>
    </defs>
    <g clip-path="url(#pfaf2044c74)">
     <use style="fill:#ff00ff;stroke:#ff00ff;" x="258.377143" xlink:href="#mbfb0aee6a1" y="41.690876"/>
    </g>
   </g>
   <g id="line2d_39">
    <defs>
     <path d="M 0 1.5 
C 0.397805 1.5 0.77937 1.341951 1.06066 1.06066 
C 1.341951 0.77937 1.5 0.397805 1.5 0 
C 1.5 -0.397805 1.341951 -0.77937 1.06066 -1.06066 
C 0.77937 -1.341951 0.397805 -1.5 0 -1.5 
C -0.397805 -1.5 -0.77937 -1.341951 -1.06066 -1.06066 
C -1.341951 -0.77937 -1.5 -0.397805 -1.5 0 
C -1.5 0.397805 -1.341951 0.77937 -1.06066 1.06066 
C -0.77937 1.341951 -0.397805 1.5 0 1.5 
z
" id="m56e12a0165" style="stroke:#ff7500;"/>
    </defs>
    <g>
     <use style="fill:#ff7500;stroke:#ff7500;" x="258.369875" xlink:href="#m56e12a0165" y="207.139944"/>
     <use style="fill:#ff7500;stroke:#ff7500;" x="258.369875" xlink:href="#m56e12a0165" y="207.139944"/>
    </g>
   </g>
   <g id="line2d_40">
    <path d="M 38.440992 298.944 
L 38.440992 295.413075 
L 98.880934 295.413075 
L 98.880934 294.908657 
L 102.330873 294.908657 
L 102.330873 294.404239 
L 105.209745 294.404239 
L 105.209745 293.395403 
L 109.843417 293.395403 
L 109.843417 292.890985 
L 115.077025 292.890985 
L 115.077025 292.386567 
L 116.522527 292.386567 
L 116.522527 291.377732 
L 117.857331 291.377732 
L 117.857331 289.864478 
L 119.097192 289.864478 
L 119.097192 289.36006 
L 123.327293 289.36006 
L 123.327293 288.855642 
L 124.241922 288.855642 
L 124.241922 288.351224 
L 125.110962 288.351224 
L 125.110962 287.846806 
L 129.574256 287.846806 
L 129.574256 287.342389 
L 130.218525 287.342389 
L 130.218525 286.837971 
L 143.653678 286.837971 
L 143.653678 286.333553 
L 144.787023 286.333553 
L 144.787023 285.829135 
L 145.327221 285.829135 
L 145.327221 285.324717 
L 147.570215 285.324717 
L 147.570215 284.820299 
L 150.960087 284.820299 
L 150.960087 284.315881 
L 196.622044 284.315881 
L 196.622044 283.811463 
L 197.040234 283.811463 
L 197.040234 283.307045 
L 197.481122 283.307045 
L 197.481122 282.29821 
L 197.597213 282.29821 
L 197.597213 281.793792 
L 208.488992 281.793792 
L 208.488992 281.289374 
L 209.25311 281.289374 
L 209.25311 280.784956 
L 210.943687 280.784956 
L 210.943687 279.77612 
L 213.059982 279.77612 
L 213.10837 278.262867 
L 218.393514 278.262867 
L 218.393514 277.254031 
L 222.131305 277.254031 
L 222.131305 276.749613 
L 222.653026 276.749613 
L 222.653026 276.245195 
L 225.631618 276.245195 
L 225.631618 275.740777 
L 226.087408 275.740777 
L 226.087408 274.731941 
L 226.600757 274.731941 
L 226.646 273.723105 
L 226.97213 273.723105 
L 226.97213 273.218688 
L 228.483913 273.218688 
L 228.483913 272.71427 
L 228.843262 272.71427 
L 228.843262 271.705434 
L 229.403248 271.705434 
L 229.403248 271.201016 
L 229.637112 271.201016 
L 229.727803 269.687762 
L 229.792294 269.687762 
L 229.792294 269.183344 
L 235.36891 269.183344 
L 235.36891 268.678927 
L 236.235157 268.678927 
L 236.253357 266.661255 
L 236.884659 266.661255 
L 236.911154 265.148001 
L 237.799998 265.148001 
L 237.799998 264.139166 
L 237.98459 264.139166 
L 237.98459 263.634748 
L 238.129793 263.634748 
L 238.129793 263.13033 
L 240.434035 263.13033 
L 240.434035 262.625912 
L 240.725811 262.625912 
L 240.794294 260.103822 
L 240.856478 260.103822 
L 240.856478 259.094987 
L 241.404377 259.094987 
L 241.404377 258.590569 
L 242.221246 258.590569 
L 242.221246 258.086151 
L 242.355058 258.086151 
L 242.355058 257.581733 
L 242.738332 257.581733 
L 242.836251 255.564061 
L 243.407414 255.564061 
L 243.485143 254.555226 
L 243.616004 254.555226 
L 243.664183 252.537554 
L 243.734049 252.537554 
L 243.734049 252.033136 
L 244.096654 252.033136 
L 244.096654 251.528718 
L 244.261199 251.528718 
L 244.261199 251.0243 
L 244.615674 251.0243 
L 244.615674 250.015465 
L 245.898354 250.015465 
L 245.988955 248.502211 
L 246.505105 248.502211 
L 246.505105 247.997793 
L 246.710926 247.997793 
L 246.769047 246.988957 
L 247.096561 246.988957 
L 247.096561 246.484539 
L 247.632807 246.484539 
L 247.632807 245.980122 
L 248.031858 245.980122 
L 248.051731 242.953614 
L 248.231964 242.953614 
L 248.272582 241.440361 
L 249.224113 241.440361 
L 249.309972 239.927107 
L 249.406886 239.927107 
L 249.468227 238.413853 
L 249.543539 238.413853 
L 249.615742 235.891764 
L 249.983537 235.891764 
L 249.983537 235.387346 
L 250.715596 235.387346 
L 250.732275 232.865256 
L 250.832552 232.865256 
L 250.877829 229.838749 
L 251.088259 229.838749 
L 251.088259 229.334331 
L 251.244278 229.334331 
L 251.244278 228.829913 
L 251.618523 228.829913 
L 251.618523 228.325495 
L 252.076332 228.325495 
L 252.076332 227.31666 
L 253.367846 227.31666 
L 253.397261 226.307824 
L 253.86143 226.307824 
L 253.967373 224.290152 
L 254.073643 224.290152 
L 254.125275 222.776899 
L 254.320022 222.776899 
L 254.374441 220.759227 
L 255.112414 220.759227 
L 255.15736 219.245973 
L 255.270122 219.245973 
L 255.332462 217.73272 
L 255.726339 217.73272 
L 255.726339 216.723884 
L 255.906702 216.723884 
L 255.906702 216.219466 
L 256.654003 216.219466 
L 256.654003 215.21063 
L 256.858268 215.21063 
L 256.879438 213.697377 
L 257.458867 213.697377 
L 257.567107 212.184123 
L 257.602573 212.184123 
L 257.602573 211.679705 
L 257.718382 211.679705 
L 257.718382 211.175287 
L 257.952543 211.175287 
L 258.043379 209.662033 
L 258.319848 209.662033 
L 258.369875 207.139944 
L 338.688 207.139944 
L 338.688 207.139944 
" style="fill:none;stroke:#ff7500;stroke-linecap:square;stroke-width:1.5;"/>
   </g>
   <g id="line2d_41">
    <defs>
     <path d="M 0 -6 
L -1.347084 -1.854102 
L -5.706339 -1.854102 
L -2.179628 0.708204 
L -3.526712 4.854102 
L -0 2.291796 
L 3.526712 4.854102 
L 2.179628 0.708204 
L 5.706339 -1.854102 
L 1.347084 -1.854102 
z
" id="m89989aafa5" style="stroke:#ff7500;stroke-linejoin:bevel;stroke-width:1.5;"/>
    </defs>
    <g>
     <use style="fill-opacity:0;stroke:#ff7500;stroke-linejoin:bevel;stroke-width:1.5;" x="102.330873" xlink:href="#m89989aafa5" y="294.908657"/>
     <use style="fill-opacity:0;stroke:#ff7500;stroke-linejoin:bevel;stroke-width:1.5;" x="150.960087" xlink:href="#m89989aafa5" y="284.315881"/>
     <use style="fill-opacity:0;stroke:#ff7500;stroke-linejoin:bevel;stroke-width:1.5;" x="235.36891" xlink:href="#m89989aafa5" y="269.183344"/>
     <use style="fill-opacity:0;stroke:#ff7500;stroke-linejoin:bevel;stroke-width:1.5;" x="258.369875" xlink:href="#m89989aafa5" y="207.644362"/>
     <use style="fill-opacity:0;stroke:#ff7500;stroke-linejoin:bevel;stroke-width:1.5;" x="258.369875" xlink:href="#m89989aafa5" y="207.139944"/>
     <use style="fill-opacity:0;stroke:#ff7500;stroke-linejoin:bevel;stroke-width:1.5;" x="338.688" xlink:href="#m89989aafa5" y="207.139944"/>
    </g>
   </g>
   <g id="line2d_42">
    <path style="fill:none;stroke:#ff7500;stroke-linecap:square;stroke-width:1.5;"/>
    <g/>
   </g>
   <g id="line2d_43">
    <path clip-path="url(#pfaf2044c74)" d="M 258.377143 207.139944 
" style="fill:none;stroke:#ff7500;stroke-linecap:square;stroke-width:1.5;"/>
    <defs>
     <path d="M -12 12 
L 12 -12 
M -12 -12 
L 12 12 
" id="m15a6eb6398" style="stroke:#ff7500;"/>
    </defs>
    <g clip-path="url(#pfaf2044c74)">
     <use style="fill:#ff7500;stroke:#ff7500;" x="258.377143" xlink:href="#m15a6eb6398" y="207.139944"/>
    </g>
   </g>
   <g id="line2d_44">
    <path d="M 338.688 207.139944 
L 369.60768 293.092752 
" style="fill:none;stroke:#ff7500;stroke-linecap:square;stroke-width:1.5;"/>
    <g>
     <use style="fill-opacity:0;stroke:#ff7500;stroke-linejoin:bevel;stroke-width:1.5;" x="338.688" xlink:href="#m89989aafa5" y="207.139944"/>
     <use style="fill-opacity:0;stroke:#ff7500;stroke-linejoin:bevel;stroke-width:1.5;" x="369.60768" xlink:href="#m89989aafa5" y="293.092752"/>
    </g>
   </g>
   <g id="line2d_45">
    <path d="M 338.688 41.690876 
L 369.60768 152.662812 
" style="fill:none;stroke:#ff00ff;stroke-linecap:square;stroke-width:1.5;"/>
    <g>
     <use style="fill-opacity:0;stroke:#ff00ff;stroke-linejoin:miter;stroke-width:1.5;" x="338.688" xlink:href="#mb1bd814afc" y="41.690876"/>
     <use style="fill-opacity:0;stroke:#ff00ff;stroke-linejoin:miter;stroke-width:1.5;" x="369.60768" xlink:href="#mb1bd814afc" y="152.662812"/>
    </g>
   </g>
   <g id="line2d_46">
    <path d="M 338.688 41.690876 
L 369.60768 12.232871 
" style="fill:none;stroke:#000080;stroke-linecap:square;stroke-width:1.5;"/>
    <g>
     <use style="fill-opacity:0;stroke:#000080;stroke-width:1.5;" x="338.688" xlink:href="#mc27309a966" y="41.690876"/>
     <use style="fill-opacity:0;stroke:#000080;stroke-width:1.5;" x="369.60768" xlink:href="#mc27309a966" y="12.232871"/>
    </g>
   </g>
   <g id="line2d_47">
    <path d="M 338.688 298.944 
L 338.688 6.381624 
" style="fill:none;stroke:#000000;stroke-linecap:square;stroke-width:1.5;"/>
   </g>
   <g id="patch_3">
    <path d="M 57.6 298.944 
L 57.6 3.456 
" style="fill:none;stroke:#000000;stroke-linecap:square;stroke-linejoin:miter;stroke-width:0.8;"/>
   </g>
   <g id="patch_4">
    <path d="M 338.688 298.944 
L 338.688 3.456 
" style="fill:none;stroke:#000000;stroke-linecap:square;stroke-linejoin:miter;stroke-width:0.8;"/>
   </g>
   <g id="patch_5">
    <path d="M 57.6 298.944 
L 338.688 298.944 
" style="fill:none;stroke:#000000;stroke-linecap:square;stroke-linejoin:miter;stroke-width:0.8;"/>
   </g>
   <g id="patch_6">
    <path d="M 57.6 3.456 
L 338.688 3.456 
" style="fill:none;stroke:#000000;stroke-linecap:square;stroke-linejoin:miter;stroke-width:0.8;"/>
   </g>
   <g id="text_13">
    <!-- f11 -->
    <g transform="translate(375.22944 297.78369)scale(0.17 -0.17)">
     <use xlink:href="#DejaVuSans-102"/>
     <use x="35.205078" xlink:href="#DejaVuSans-49"/>
     <use x="98.828125" xlink:href="#DejaVuSans-49"/>
    </g>
   </g>
   <g id="text_14">
    <!-- f2 -->
    <g transform="translate(375.22944 157.353749)scale(0.17 -0.17)">
     <use xlink:href="#DejaVuSans-102"/>
     <use x="35.205078" xlink:href="#DejaVuSans-50"/>
    </g>
   </g>
   <g id="text_15">
    <!-- f1 -->
    <g transform="translate(375.22944 16.923809)scale(0.17 -0.17)">
     <use xlink:href="#DejaVuSans-102"/>
     <use x="35.205078" xlink:href="#DejaVuSans-49"/>
    </g>
   </g>
   <g id="text_16">
    <!-- bbob-biobj -->
    <g transform="translate(60.41088 14.161286)scale(0.102 -0.102)">
     <defs>
      <path d="M 48.6875 27.296875 
Q 48.6875 37.203125 44.609375 42.84375 
Q 40.53125 48.484375 33.40625 48.484375 
Q 26.265625 48.484375 22.1875 42.84375 
Q 18.109375 37.203125 18.109375 27.296875 
Q 18.109375 17.390625 22.1875 11.75 
Q 26.265625 6.109375 33.40625 6.109375 
Q 40.53125 6.109375 44.609375 11.75 
Q 48.6875 17.390625 48.6875 27.296875 
z
M 18.109375 46.390625 
Q 20.953125 51.265625 25.265625 53.625 
Q 29.59375 56 35.59375 56 
Q 45.5625 56 51.78125 48.09375 
Q 58.015625 40.1875 58.015625 27.296875 
Q 58.015625 14.40625 51.78125 6.484375 
Q 45.5625 -1.421875 35.59375 -1.421875 
Q 29.59375 -1.421875 25.265625 0.953125 
Q 20.953125 3.328125 18.109375 8.203125 
L 18.109375 0 
L 9.078125 0 
L 9.078125 75.984375 
L 18.109375 75.984375 
z
" id="DejaVuSans-98"/>
      <path d="M 9.421875 54.6875 
L 18.40625 54.6875 
L 18.40625 -0.984375 
Q 18.40625 -11.421875 14.421875 -16.109375 
Q 10.453125 -20.796875 1.609375 -20.796875 
L -1.8125 -20.796875 
L -1.8125 -13.1875 
L 0.59375 -13.1875 
Q 5.71875 -13.1875 7.5625 -10.8125 
Q 9.421875 -8.453125 9.421875 -0.984375 
z
M 9.421875 75.984375 
L 18.40625 75.984375 
L 18.40625 64.59375 
L 9.421875 64.59375 
z
" id="DejaVuSans-106"/>
     </defs>
     <use xlink:href="#DejaVuSans-98"/>
     <use x="63.476562" xlink:href="#DejaVuSans-98"/>
     <use x="126.953125" xlink:href="#DejaVuSans-111"/>
     <use x="188.134766" xlink:href="#DejaVuSans-98"/>
     <use x="251.611328" xlink:href="#DejaVuSans-45"/>
     <use x="287.695312" xlink:href="#DejaVuSans-98"/>
     <use x="351.171875" xlink:href="#DejaVuSans-105"/>
     <use x="378.955078" xlink:href="#DejaVuSans-111"/>
     <use x="440.136719" xlink:href="#DejaVuSans-98"/>
     <use x="503.613281" xlink:href="#DejaVuSans-106"/>
    </g>
    <!-- 1-separable 1-separable, 3-D -->
    <g transform="translate(60.41088 25.583055)scale(0.102 -0.102)">
     <defs>
      <path d="M 40.578125 39.3125 
Q 47.65625 37.796875 51.625 33 
Q 55.609375 28.21875 55.609375 21.1875 
Q 55.609375 10.40625 48.1875 4.484375 
Q 40.765625 -1.421875 27.09375 -1.421875 
Q 22.515625 -1.421875 17.65625 -0.515625 
Q 12.796875 0.390625 7.625 2.203125 
L 7.625 11.71875 
Q 11.71875 9.328125 16.59375 8.109375 
Q 21.484375 6.890625 26.8125 6.890625 
Q 36.078125 6.890625 40.9375 10.546875 
Q 45.796875 14.203125 45.796875 21.1875 
Q 45.796875 27.640625 41.28125 31.265625 
Q 36.765625 34.90625 28.71875 34.90625 
L 20.21875 34.90625 
L 20.21875 43.015625 
L 29.109375 43.015625 
Q 36.375 43.015625 40.234375 45.921875 
Q 44.09375 48.828125 44.09375 54.296875 
Q 44.09375 59.90625 40.109375 62.90625 
Q 36.140625 65.921875 28.71875 65.921875 
Q 24.65625 65.921875 20.015625 65.03125 
Q 15.375 64.15625 9.8125 62.3125 
L 9.8125 71.09375 
Q 15.4375 72.65625 20.34375 73.4375 
Q 25.25 74.21875 29.59375 74.21875 
Q 40.828125 74.21875 47.359375 69.109375 
Q 53.90625 64.015625 53.90625 55.328125 
Q 53.90625 49.265625 50.4375 45.09375 
Q 46.96875 40.921875 40.578125 39.3125 
z
" id="DejaVuSans-51"/>
      <path d="M 19.671875 64.796875 
L 19.671875 8.109375 
L 31.59375 8.109375 
Q 46.6875 8.109375 53.6875 14.9375 
Q 60.6875 21.78125 60.6875 36.53125 
Q 60.6875 51.171875 53.6875 57.984375 
Q 46.6875 64.796875 31.59375 64.796875 
z
M 9.8125 72.90625 
L 30.078125 72.90625 
Q 51.265625 72.90625 61.171875 64.09375 
Q 71.09375 55.28125 71.09375 36.53125 
Q 71.09375 17.671875 61.125 8.828125 
Q 51.171875 0 30.078125 0 
L 9.8125 0 
z
" id="DejaVuSans-68"/>
     </defs>
     <use xlink:href="#DejaVuSans-49"/>
     <use x="63.623047" xlink:href="#DejaVuSans-45"/>
     <use x="99.707031" xlink:href="#DejaVuSans-115"/>
     <use x="151.806641" xlink:href="#DejaVuSans-101"/>
     <use x="213.330078" xlink:href="#DejaVuSans-112"/>
     <use x="276.806641" xlink:href="#DejaVuSans-97"/>
     <use x="338.085938" xlink:href="#DejaVuSans-114"/>
     <use x="379.199219" xlink:href="#DejaVuSans-97"/>
     <use x="440.478516" xlink:href="#DejaVuSans-98"/>
     <use x="503.955078" xlink:href="#DejaVuSans-108"/>
     <use x="531.738281" xlink:href="#DejaVuSans-101"/>
     <use x="593.261719" xlink:href="#DejaVuSans-32"/>
     <use x="625.048828" xlink:href="#DejaVuSans-49"/>
     <use x="688.671875" xlink:href="#DejaVuSans-45"/>
     <use x="724.755859" xlink:href="#DejaVuSans-115"/>
     <use x="776.855469" xlink:href="#DejaVuSans-101"/>
     <use x="838.378906" xlink:href="#DejaVuSans-112"/>
     <use x="901.855469" xlink:href="#DejaVuSans-97"/>
     <use x="963.134766" xlink:href="#DejaVuSans-114"/>
     <use x="1004.248047" xlink:href="#DejaVuSans-97"/>
     <use x="1065.527344" xlink:href="#DejaVuSans-98"/>
     <use x="1129.003906" xlink:href="#DejaVuSans-108"/>
     <use x="1156.787109" xlink:href="#DejaVuSans-101"/>
     <use x="1218.310547" xlink:href="#DejaVuSans-44"/>
     <use x="1250.097656" xlink:href="#DejaVuSans-32"/>
     <use x="1281.884766" xlink:href="#DejaVuSans-51"/>
     <use x="1345.507812" xlink:href="#DejaVuSans-45"/>
     <use x="1381.591797" xlink:href="#DejaVuSans-68"/>
    </g>
    <!-- 58 targets: 1..-1.0e-4 -->
    <g transform="translate(60.41088 37.004824)scale(0.102 -0.102)">
     <defs>
      <path d="M 10.796875 72.90625 
L 49.515625 72.90625 
L 49.515625 64.59375 
L 19.828125 64.59375 
L 19.828125 46.734375 
Q 21.96875 47.46875 24.109375 47.828125 
Q 26.265625 48.1875 28.421875 48.1875 
Q 40.625 48.1875 47.75 41.5 
Q 54.890625 34.8125 54.890625 23.390625 
Q 54.890625 11.625 47.5625 5.09375 
Q 40.234375 -1.421875 26.90625 -1.421875 
Q 22.3125 -1.421875 17.546875 -0.640625 
Q 12.796875 0.140625 7.71875 1.703125 
L 7.71875 11.625 
Q 12.109375 9.234375 16.796875 8.0625 
Q 21.484375 6.890625 26.703125 6.890625 
Q 35.15625 6.890625 40.078125 11.328125 
Q 45.015625 15.765625 45.015625 23.390625 
Q 45.015625 31 40.078125 35.4375 
Q 35.15625 39.890625 26.703125 39.890625 
Q 22.75 39.890625 18.8125 39.015625 
Q 14.890625 38.140625 10.796875 36.28125 
z
" id="DejaVuSans-53"/>
      <path d="M 11.71875 12.40625 
L 22.015625 12.40625 
L 22.015625 0 
L 11.71875 0 
z
M 11.71875 51.703125 
L 22.015625 51.703125 
L 22.015625 39.3125 
L 11.71875 39.3125 
z
" id="DejaVuSans-58"/>
     </defs>
     <use xlink:href="#DejaVuSans-53"/>
     <use x="63.623047" xlink:href="#DejaVuSans-56"/>
     <use x="127.246094" xlink:href="#DejaVuSans-32"/>
     <use x="159.033203" xlink:href="#DejaVuSans-116"/>
     <use x="198.242188" xlink:href="#DejaVuSans-97"/>
     <use x="259.521484" xlink:href="#DejaVuSans-114"/>
     <use x="298.884766" xlink:href="#DejaVuSans-103"/>
     <use x="362.361328" xlink:href="#DejaVuSans-101"/>
     <use x="423.884766" xlink:href="#DejaVuSans-116"/>
     <use x="463.09375" xlink:href="#DejaVuSans-115"/>
     <use x="515.193359" xlink:href="#DejaVuSans-58"/>
     <use x="548.884766" xlink:href="#DejaVuSans-32"/>
     <use x="580.671875" xlink:href="#DejaVuSans-49"/>
     <use x="644.294922" xlink:href="#DejaVuSans-46"/>
     <use x="676.082031" xlink:href="#DejaVuSans-46"/>
     <use x="707.869141" xlink:href="#DejaVuSans-45"/>
     <use x="743.953125" xlink:href="#DejaVuSans-49"/>
     <use x="807.576172" xlink:href="#DejaVuSans-46"/>
     <use x="839.363281" xlink:href="#DejaVuSans-48"/>
     <use x="902.986328" xlink:href="#DejaVuSans-101"/>
     <use x="964.509766" xlink:href="#DejaVuSans-45"/>
     <use x="1000.59375" xlink:href="#DejaVuSans-52"/>
    </g>
    <!-- 10 instances -->
    <g transform="translate(60.41088 48.426593)scale(0.102 -0.102)">
     <use xlink:href="#DejaVuSans-49"/>
     <use x="63.623047" xlink:href="#DejaVuSans-48"/>
     <use x="127.246094" xlink:href="#DejaVuSans-32"/>
     <use x="159.033203" xlink:href="#DejaVuSans-105"/>
     <use x="186.816406" xlink:href="#DejaVuSans-110"/>
     <use x="250.195312" xlink:href="#DejaVuSans-115"/>
     <use x="302.294922" xlink:href="#DejaVuSans-116"/>
     <use x="341.503906" xlink:href="#DejaVuSans-97"/>
     <use x="402.783203" xlink:href="#DejaVuSans-110"/>
     <use x="466.162109" xlink:href="#DejaVuSans-99"/>
     <use x="521.142578" xlink:href="#DejaVuSans-101"/>
     <use x="582.666016" xlink:href="#DejaVuSans-115"/>
    </g>
   </g>
   <g id="text_17">
    <!-- v2.4, hv-hash=ff0e71e8cd978373 -->
    <g style="fill:#808080;" transform="translate(112.648687 293.909432)scale(0.1 -0.1)">
     <defs>
      <path d="M 54.890625 33.015625 
L 54.890625 0 
L 45.90625 0 
L 45.90625 32.71875 
Q 45.90625 40.484375 42.875 44.328125 
Q 39.84375 48.1875 33.796875 48.1875 
Q 26.515625 48.1875 22.3125 43.546875 
Q 18.109375 38.921875 18.109375 30.90625 
L 18.109375 0 
L 9.078125 0 
L 9.078125 75.984375 
L 18.109375 75.984375 
L 18.109375 46.1875 
Q 21.34375 51.125 25.703125 53.5625 
Q 30.078125 56 35.796875 56 
Q 45.21875 56 50.046875 50.171875 
Q 54.890625 44.34375 54.890625 33.015625 
z
" id="DejaVuSans-104"/>
      <path d="M 10.59375 45.40625 
L 73.1875 45.40625 
L 73.1875 37.203125 
L 10.59375 37.203125 
z
M 10.59375 25.484375 
L 73.1875 25.484375 
L 73.1875 17.1875 
L 10.59375 17.1875 
z
" id="DejaVuSans-61"/>
      <path d="M 8.203125 72.90625 
L 55.078125 72.90625 
L 55.078125 68.703125 
L 28.609375 0 
L 18.3125 0 
L 43.21875 64.59375 
L 8.203125 64.59375 
z
" id="DejaVuSans-55"/>
      <path d="M 10.984375 1.515625 
L 10.984375 10.5 
Q 14.703125 8.734375 18.5 7.8125 
Q 22.3125 6.890625 25.984375 6.890625 
Q 35.75 6.890625 40.890625 13.453125 
Q 46.046875 20.015625 46.78125 33.40625 
Q 43.953125 29.203125 39.59375 26.953125 
Q 35.25 24.703125 29.984375 24.703125 
Q 19.046875 24.703125 12.671875 31.3125 
Q 6.296875 37.9375 6.296875 49.421875 
Q 6.296875 60.640625 12.9375 67.421875 
Q 19.578125 74.21875 30.609375 74.21875 
Q 43.265625 74.21875 49.921875 64.515625 
Q 56.59375 54.828125 56.59375 36.375 
Q 56.59375 19.140625 48.40625 8.859375 
Q 40.234375 -1.421875 26.421875 -1.421875 
Q 22.703125 -1.421875 18.890625 -0.6875 
Q 15.09375 0.046875 10.984375 1.515625 
z
M 30.609375 32.421875 
Q 37.25 32.421875 41.125 36.953125 
Q 45.015625 41.5 45.015625 49.421875 
Q 45.015625 57.28125 41.125 61.84375 
Q 37.25 66.40625 30.609375 66.40625 
Q 23.96875 66.40625 20.09375 61.84375 
Q 16.21875 57.28125 16.21875 49.421875 
Q 16.21875 41.5 20.09375 36.953125 
Q 23.96875 32.421875 30.609375 32.421875 
z
" id="DejaVuSans-57"/>
     </defs>
     <use xlink:href="#DejaVuSans-118"/>
     <use x="59.179688" xlink:href="#DejaVuSans-50"/>
     <use x="122.802734" xlink:href="#DejaVuSans-46"/>
     <use x="154.589844" xlink:href="#DejaVuSans-52"/>
     <use x="218.212891" xlink:href="#DejaVuSans-44"/>
     <use x="250" xlink:href="#DejaVuSans-32"/>
     <use x="281.787109" xlink:href="#DejaVuSans-104"/>
     <use x="345.166016" xlink:href="#DejaVuSans-118"/>
     <use x="401.720703" xlink:href="#DejaVuSans-45"/>
     <use x="437.804688" xlink:href="#DejaVuSans-104"/>
     <use x="501.183594" xlink:href="#DejaVuSans-97"/>
     <use x="562.462891" xlink:href="#DejaVuSans-115"/>
     <use x="614.5625" xlink:href="#DejaVuSans-104"/>
     <use x="677.941406" xlink:href="#DejaVuSans-61"/>
     <use x="761.730469" xlink:href="#DejaVuSans-102"/>
     <use x="796.935547" xlink:href="#DejaVuSans-102"/>
     <use x="832.140625" xlink:href="#DejaVuSans-48"/>
     <use x="895.763672" xlink:href="#DejaVuSans-101"/>
     <use x="957.287109" xlink:href="#DejaVuSans-55"/>
     <use x="1020.910156" xlink:href="#DejaVuSans-49"/>
     <use x="1084.533203" xlink:href="#DejaVuSans-101"/>
     <use x="1146.056641" xlink:href="#DejaVuSans-56"/>
     <use x="1209.679688" xlink:href="#DejaVuSans-99"/>
     <use x="1264.660156" xlink:href="#DejaVuSans-100"/>
     <use x="1328.136719" xlink:href="#DejaVuSans-57"/>
     <use x="1391.759766" xlink:href="#DejaVuSans-55"/>
     <use x="1455.382812" xlink:href="#DejaVuSans-56"/>
     <use x="1519.005859" xlink:href="#DejaVuSans-51"/>
     <use x="1582.628906" xlink:href="#DejaVuSans-55"/>
     <use x="1646.251953" xlink:href="#DejaVuSans-51"/>
    </g>
   </g>
  </g>
 </g>
 <defs>
  <clipPath id="pfaf2044c74">
   <rect height="295.488" width="281.088" x="57.6" y="3.456"/>
  </clipPath>
 </defs>
</svg>
