<?xml version="1.0" encoding="utf-8" standalone="no"?>
<!DOCTYPE svg PUBLIC "-//W3C//DTD SVG 1.1//EN"
  "http://www.w3.org/Graphics/SVG/1.1/DTD/svg11.dtd">
<!-- Created with matplotlib (https://matplotlib.org/) -->
<svg height="345.6pt" version="1.1" viewBox="0 0 460.8 345.6" width="460.8pt" xmlns="http://www.w3.org/2000/svg" xmlns:xlink="http://www.w3.org/1999/xlink">
 <metadata>
  <rdf:RDF xmlns:cc="http://creativecommons.org/ns#" xmlns:dc="http://purl.org/dc/elements/1.1/" xmlns:rdf="http://www.w3.org/1999/02/22-rdf-syntax-ns#">
   <cc:Work>
    <dc:type rdf:resource="http://purl.org/dc/dcmitype/StillImage"/>
    <dc:date>2021-03-30T16:54:57.641659</dc:date>
    <dc:format>image/svg+xml</dc:format>
    <dc:creator>
     <cc:Agent>
      <dc:title>Matplotlib v3.3.4, https://matplotlib.org/</dc:title>
     </cc:Agent>
    </dc:creator>
   </cc:Work>
  </rdf:RDF>
 </metadata>
 <defs>
  <style type="text/css">*{stroke-linecap:butt;stroke-linejoin:round;}</style>
 </defs>
 <g id="figure_1">
  <g id="patch_1">
   <path d="M 0 345.6 
L 460.8 345.6 
L 460.8 0 
L 0 0 
z
" style="fill:#ffffff;"/>
  </g>
  <g id="axes_1">
   <g id="patch_2">
    <path d="M 57.6 298.944 
L 338.688 298.944 
L 338.688 27.648 
L 57.6 27.648 
z
" style="fill:#ffffff;"/>
   </g>
   <g id="matplotlib.axis_1">
    <g id="xtick_1">
     <g id="line2d_1">
      <path clip-path="url(#pa072b8ada0)" d="M 57.6 298.944 
L 57.6 27.648 
" style="fill:none;stroke:#b0b0b0;stroke-linecap:square;stroke-width:0.8;"/>
     </g>
     <g id="line2d_2">
      <defs>
       <path d="M 0 0 
L 0 3.5 
" id="m856fc472da" style="stroke:#000000;stroke-width:0.8;"/>
      </defs>
      <g>
       <use style="stroke:#000000;stroke-width:0.8;" x="57.6" xlink:href="#m856fc472da" y="298.944"/>
      </g>
     </g>
     <g id="text_1">
      <!-- 0 -->
      <g transform="translate(51.2375 321.140875)scale(0.2 -0.2)">
       <defs>
        <path d="M 31.78125 66.40625 
Q 24.171875 66.40625 20.328125 58.90625 
Q 16.5 51.421875 16.5 36.375 
Q 16.5 21.390625 20.328125 13.890625 
Q 24.171875 6.390625 31.78125 6.390625 
Q 39.453125 6.390625 43.28125 13.890625 
Q 47.125 21.390625 47.125 36.375 
Q 47.125 51.421875 43.28125 58.90625 
Q 39.453125 66.40625 31.78125 66.40625 
z
M 31.78125 74.21875 
Q 44.046875 74.21875 50.515625 64.515625 
Q 56.984375 54.828125 56.984375 36.375 
Q 56.984375 17.96875 50.515625 8.265625 
Q 44.046875 -1.421875 31.78125 -1.421875 
Q 19.53125 -1.421875 13.0625 8.265625 
Q 6.59375 17.96875 6.59375 36.375 
Q 6.59375 54.828125 13.0625 64.515625 
Q 19.53125 74.21875 31.78125 74.21875 
z
" id="DejaVuSans-48"/>
       </defs>
       <use xlink:href="#DejaVuSans-48"/>
      </g>
     </g>
    </g>
    <g id="xtick_2">
     <g id="line2d_3">
      <path clip-path="url(#pa072b8ada0)" d="M 137.910857 298.944 
L 137.910857 27.648 
" style="fill:none;stroke:#b0b0b0;stroke-linecap:square;stroke-width:0.8;"/>
     </g>
     <g id="line2d_4">
      <g>
       <use style="stroke:#000000;stroke-width:0.8;" x="137.910857" xlink:href="#m856fc472da" y="298.944"/>
      </g>
     </g>
     <g id="text_2">
      <!-- 2 -->
      <g transform="translate(131.548357 321.140875)scale(0.2 -0.2)">
       <defs>
        <path d="M 19.1875 8.296875 
L 53.609375 8.296875 
L 53.609375 0 
L 7.328125 0 
L 7.328125 8.296875 
Q 12.9375 14.109375 22.625 23.890625 
Q 32.328125 33.6875 34.8125 36.53125 
Q 39.546875 41.84375 41.421875 45.53125 
Q 43.3125 49.21875 43.3125 52.78125 
Q 43.3125 58.59375 39.234375 62.25 
Q 35.15625 65.921875 28.609375 65.921875 
Q 23.96875 65.921875 18.8125 64.3125 
Q 13.671875 62.703125 7.8125 59.421875 
L 7.8125 69.390625 
Q 13.765625 71.78125 18.9375 73 
Q 24.125 74.21875 28.421875 74.21875 
Q 39.75 74.21875 46.484375 68.546875 
Q 53.21875 62.890625 53.21875 53.421875 
Q 53.21875 48.921875 51.53125 44.890625 
Q 49.859375 40.875 45.40625 35.40625 
Q 44.1875 33.984375 37.640625 27.21875 
Q 31.109375 20.453125 19.1875 8.296875 
z
" id="DejaVuSans-50"/>
       </defs>
       <use xlink:href="#DejaVuSans-50"/>
      </g>
     </g>
    </g>
    <g id="xtick_3">
     <g id="line2d_5">
      <path clip-path="url(#pa072b8ada0)" d="M 218.221714 298.944 
L 218.221714 27.648 
" style="fill:none;stroke:#b0b0b0;stroke-linecap:square;stroke-width:0.8;"/>
     </g>
     <g id="line2d_6">
      <g>
       <use style="stroke:#000000;stroke-width:0.8;" x="218.221714" xlink:href="#m856fc472da" y="298.944"/>
      </g>
     </g>
     <g id="text_3">
      <!-- 4 -->
      <g transform="translate(211.859214 321.140875)scale(0.2 -0.2)">
       <defs>
        <path d="M 37.796875 64.3125 
L 12.890625 25.390625 
L 37.796875 25.390625 
z
M 35.203125 72.90625 
L 47.609375 72.90625 
L 47.609375 25.390625 
L 58.015625 25.390625 
L 58.015625 17.1875 
L 47.609375 17.1875 
L 47.609375 0 
L 37.796875 0 
L 37.796875 17.1875 
L 4.890625 17.1875 
L 4.890625 26.703125 
z
" id="DejaVuSans-52"/>
       </defs>
       <use xlink:href="#DejaVuSans-52"/>
      </g>
     </g>
    </g>
    <g id="xtick_4">
     <g id="line2d_7">
      <path clip-path="url(#pa072b8ada0)" d="M 298.532571 298.944 
L 298.532571 27.648 
" style="fill:none;stroke:#b0b0b0;stroke-linecap:square;stroke-width:0.8;"/>
     </g>
     <g id="line2d_8">
      <g>
       <use style="stroke:#000000;stroke-width:0.8;" x="298.532571" xlink:href="#m856fc472da" y="298.944"/>
      </g>
     </g>
     <g id="text_4">
      <!-- 6 -->
      <g transform="translate(292.170071 321.140875)scale(0.2 -0.2)">
       <defs>
        <path d="M 33.015625 40.375 
Q 26.375 40.375 22.484375 35.828125 
Q 18.609375 31.296875 18.609375 23.390625 
Q 18.609375 15.53125 22.484375 10.953125 
Q 26.375 6.390625 33.015625 6.390625 
Q 39.65625 6.390625 43.53125 10.953125 
Q 47.40625 15.53125 47.40625 23.390625 
Q 47.40625 31.296875 43.53125 35.828125 
Q 39.65625 40.375 33.015625 40.375 
z
M 52.59375 71.296875 
L 52.59375 62.3125 
Q 48.875 64.0625 45.09375 64.984375 
Q 41.3125 65.921875 37.59375 65.921875 
Q 27.828125 65.921875 22.671875 59.328125 
Q 17.53125 52.734375 16.796875 39.40625 
Q 19.671875 43.65625 24.015625 45.921875 
Q 28.375 48.1875 33.59375 48.1875 
Q 44.578125 48.1875 50.953125 41.515625 
Q 57.328125 34.859375 57.328125 23.390625 
Q 57.328125 12.15625 50.6875 5.359375 
Q 44.046875 -1.421875 33.015625 -1.421875 
Q 20.359375 -1.421875 13.671875 8.265625 
Q 6.984375 17.96875 6.984375 36.375 
Q 6.984375 53.65625 15.1875 63.9375 
Q 23.390625 74.21875 37.203125 74.21875 
Q 40.921875 74.21875 44.703125 73.484375 
Q 48.484375 72.75 52.59375 71.296875 
z
" id="DejaVuSans-54"/>
       </defs>
       <use xlink:href="#DejaVuSans-54"/>
      </g>
     </g>
    </g>
    <g id="xtick_5">
     <g id="line2d_9">
      <path clip-path="url(#pa072b8ada0)" d="M 97.755429 298.944 
L 97.755429 27.648 
" style="fill:none;stroke:#b0b0b0;stroke-linecap:square;stroke-width:0.8;"/>
     </g>
     <g id="line2d_10">
      <defs>
       <path d="M 0 0 
L 0 2 
" id="m263314a04e" style="stroke:#000000;stroke-width:0.6;"/>
      </defs>
      <g>
       <use style="stroke:#000000;stroke-width:0.6;" x="97.755429" xlink:href="#m263314a04e" y="298.944"/>
      </g>
     </g>
    </g>
    <g id="xtick_6">
     <g id="line2d_11">
      <path clip-path="url(#pa072b8ada0)" d="M 178.066286 298.944 
L 178.066286 27.648 
" style="fill:none;stroke:#b0b0b0;stroke-linecap:square;stroke-width:0.8;"/>
     </g>
     <g id="line2d_12">
      <g>
       <use style="stroke:#000000;stroke-width:0.6;" x="178.066286" xlink:href="#m263314a04e" y="298.944"/>
      </g>
     </g>
    </g>
    <g id="xtick_7">
     <g id="line2d_13">
      <path clip-path="url(#pa072b8ada0)" d="M 258.377143 298.944 
L 258.377143 27.648 
" style="fill:none;stroke:#b0b0b0;stroke-linecap:square;stroke-width:0.8;"/>
     </g>
     <g id="line2d_14">
      <g>
       <use style="stroke:#000000;stroke-width:0.6;" x="258.377143" xlink:href="#m263314a04e" y="298.944"/>
      </g>
     </g>
    </g>
    <g id="xtick_8">
     <g id="line2d_15">
      <path clip-path="url(#pa072b8ada0)" d="M 338.688 298.944 
L 338.688 27.648 
" style="fill:none;stroke:#b0b0b0;stroke-linecap:square;stroke-width:0.8;"/>
     </g>
     <g id="line2d_16">
      <g>
       <use style="stroke:#000000;stroke-width:0.6;" x="338.688" xlink:href="#m263314a04e" y="298.944"/>
      </g>
     </g>
    </g>
    <g id="text_5">
     <!-- log10(# f-evals / dimension) -->
     <g transform="translate(77.764078 342.217594)scale(0.17 -0.17)">
      <defs>
       <path d="M 9.421875 75.984375 
L 18.40625 75.984375 
L 18.40625 0 
L 9.421875 0 
z
" id="DejaVuSans-108"/>
       <path d="M 30.609375 48.390625 
Q 23.390625 48.390625 19.1875 42.75 
Q 14.984375 37.109375 14.984375 27.296875 
Q 14.984375 17.484375 19.15625 11.84375 
Q 23.34375 6.203125 30.609375 6.203125 
Q 37.796875 6.203125 41.984375 11.859375 
Q 46.1875 17.53125 46.1875 27.296875 
Q 46.1875 37.015625 41.984375 42.703125 
Q 37.796875 48.390625 30.609375 48.390625 
z
M 30.609375 56 
Q 42.328125 56 49.015625 48.375 
Q 55.71875 40.765625 55.71875 27.296875 
Q 55.71875 13.875 49.015625 6.21875 
Q 42.328125 -1.421875 30.609375 -1.421875 
Q 18.84375 -1.421875 12.171875 6.21875 
Q 5.515625 13.875 5.515625 27.296875 
Q 5.515625 40.765625 12.171875 48.375 
Q 18.84375 56 30.609375 56 
z
" id="DejaVuSans-111"/>
       <path d="M 45.40625 27.984375 
Q 45.40625 37.75 41.375 43.109375 
Q 37.359375 48.484375 30.078125 48.484375 
Q 22.859375 48.484375 18.828125 43.109375 
Q 14.796875 37.75 14.796875 27.984375 
Q 14.796875 18.265625 18.828125 12.890625 
Q 22.859375 7.515625 30.078125 7.515625 
Q 37.359375 7.515625 41.375 12.890625 
Q 45.40625 18.265625 45.40625 27.984375 
z
M 54.390625 6.78125 
Q 54.390625 -7.171875 48.1875 -13.984375 
Q 42 -20.796875 29.203125 -20.796875 
Q 24.46875 -20.796875 20.265625 -20.09375 
Q 16.0625 -19.390625 12.109375 -17.921875 
L 12.109375 -9.1875 
Q 16.0625 -11.328125 19.921875 -12.34375 
Q 23.78125 -13.375 27.78125 -13.375 
Q 36.625 -13.375 41.015625 -8.765625 
Q 45.40625 -4.15625 45.40625 5.171875 
L 45.40625 9.625 
Q 42.625 4.78125 38.28125 2.390625 
Q 33.9375 0 27.875 0 
Q 17.828125 0 11.671875 7.65625 
Q 5.515625 15.328125 5.515625 27.984375 
Q 5.515625 40.671875 11.671875 48.328125 
Q 17.828125 56 27.875 56 
Q 33.9375 56 38.28125 53.609375 
Q 42.625 51.21875 45.40625 46.390625 
L 45.40625 54.6875 
L 54.390625 54.6875 
z
" id="DejaVuSans-103"/>
       <path d="M 12.40625 8.296875 
L 28.515625 8.296875 
L 28.515625 63.921875 
L 10.984375 60.40625 
L 10.984375 69.390625 
L 28.421875 72.90625 
L 38.28125 72.90625 
L 38.28125 8.296875 
L 54.390625 8.296875 
L 54.390625 0 
L 12.40625 0 
z
" id="DejaVuSans-49"/>
       <path d="M 31 75.875 
Q 24.46875 64.65625 21.28125 53.65625 
Q 18.109375 42.671875 18.109375 31.390625 
Q 18.109375 20.125 21.3125 9.0625 
Q 24.515625 -2 31 -13.1875 
L 23.1875 -13.1875 
Q 15.875 -1.703125 12.234375 9.375 
Q 8.59375 20.453125 8.59375 31.390625 
Q 8.59375 42.28125 12.203125 53.3125 
Q 15.828125 64.359375 23.1875 75.875 
z
" id="DejaVuSans-40"/>
       <path d="M 51.125 44 
L 36.921875 44 
L 32.8125 27.6875 
L 47.125 27.6875 
z
M 43.796875 71.78125 
L 38.71875 51.515625 
L 52.984375 51.515625 
L 58.109375 71.78125 
L 65.921875 71.78125 
L 60.890625 51.515625 
L 76.125 51.515625 
L 76.125 44 
L 58.984375 44 
L 54.984375 27.6875 
L 70.515625 27.6875 
L 70.515625 20.21875 
L 53.078125 20.21875 
L 48 0 
L 40.1875 0 
L 45.21875 20.21875 
L 30.90625 20.21875 
L 25.875 0 
L 18.015625 0 
L 23.09375 20.21875 
L 7.71875 20.21875 
L 7.71875 27.6875 
L 24.90625 27.6875 
L 29 44 
L 13.28125 44 
L 13.28125 51.515625 
L 30.90625 51.515625 
L 35.890625 71.78125 
z
" id="DejaVuSans-35"/>
       <path id="DejaVuSans-32"/>
       <path d="M 37.109375 75.984375 
L 37.109375 68.5 
L 28.515625 68.5 
Q 23.6875 68.5 21.796875 66.546875 
Q 19.921875 64.59375 19.921875 59.515625 
L 19.921875 54.6875 
L 34.71875 54.6875 
L 34.71875 47.703125 
L 19.921875 47.703125 
L 19.921875 0 
L 10.890625 0 
L 10.890625 47.703125 
L 2.296875 47.703125 
L 2.296875 54.6875 
L 10.890625 54.6875 
L 10.890625 58.5 
Q 10.890625 67.625 15.140625 71.796875 
Q 19.390625 75.984375 28.609375 75.984375 
z
" id="DejaVuSans-102"/>
       <path d="M 4.890625 31.390625 
L 31.203125 31.390625 
L 31.203125 23.390625 
L 4.890625 23.390625 
z
" id="DejaVuSans-45"/>
       <path d="M 56.203125 29.59375 
L 56.203125 25.203125 
L 14.890625 25.203125 
Q 15.484375 15.921875 20.484375 11.0625 
Q 25.484375 6.203125 34.421875 6.203125 
Q 39.59375 6.203125 44.453125 7.46875 
Q 49.3125 8.734375 54.109375 11.28125 
L 54.109375 2.78125 
Q 49.265625 0.734375 44.1875 -0.34375 
Q 39.109375 -1.421875 33.890625 -1.421875 
Q 20.796875 -1.421875 13.15625 6.1875 
Q 5.515625 13.8125 5.515625 26.8125 
Q 5.515625 40.234375 12.765625 48.109375 
Q 20.015625 56 32.328125 56 
Q 43.359375 56 49.78125 48.890625 
Q 56.203125 41.796875 56.203125 29.59375 
z
M 47.21875 32.234375 
Q 47.125 39.59375 43.09375 43.984375 
Q 39.0625 48.390625 32.421875 48.390625 
Q 24.90625 48.390625 20.390625 44.140625 
Q 15.875 39.890625 15.1875 32.171875 
z
" id="DejaVuSans-101"/>
       <path d="M 2.984375 54.6875 
L 12.5 54.6875 
L 29.59375 8.796875 
L 46.6875 54.6875 
L 56.203125 54.6875 
L 35.6875 0 
L 23.484375 0 
z
" id="DejaVuSans-118"/>
       <path d="M 34.28125 27.484375 
Q 23.390625 27.484375 19.1875 25 
Q 14.984375 22.515625 14.984375 16.5 
Q 14.984375 11.71875 18.140625 8.90625 
Q 21.296875 6.109375 26.703125 6.109375 
Q 34.1875 6.109375 38.703125 11.40625 
Q 43.21875 16.703125 43.21875 25.484375 
L 43.21875 27.484375 
z
M 52.203125 31.203125 
L 52.203125 0 
L 43.21875 0 
L 43.21875 8.296875 
Q 40.140625 3.328125 35.546875 0.953125 
Q 30.953125 -1.421875 24.3125 -1.421875 
Q 15.921875 -1.421875 10.953125 3.296875 
Q 6 8.015625 6 15.921875 
Q 6 25.140625 12.171875 29.828125 
Q 18.359375 34.515625 30.609375 34.515625 
L 43.21875 34.515625 
L 43.21875 35.40625 
Q 43.21875 41.609375 39.140625 45 
Q 35.0625 48.390625 27.6875 48.390625 
Q 23 48.390625 18.546875 47.265625 
Q 14.109375 46.140625 10.015625 43.890625 
L 10.015625 52.203125 
Q 14.9375 54.109375 19.578125 55.046875 
Q 24.21875 56 28.609375 56 
Q 40.484375 56 46.34375 49.84375 
Q 52.203125 43.703125 52.203125 31.203125 
z
" id="DejaVuSans-97"/>
       <path d="M 44.28125 53.078125 
L 44.28125 44.578125 
Q 40.484375 46.53125 36.375 47.5 
Q 32.28125 48.484375 27.875 48.484375 
Q 21.1875 48.484375 17.84375 46.4375 
Q 14.5 44.390625 14.5 40.28125 
Q 14.5 37.15625 16.890625 35.375 
Q 19.28125 33.59375 26.515625 31.984375 
L 29.59375 31.296875 
Q 39.15625 29.25 43.1875 25.515625 
Q 47.21875 21.78125 47.21875 15.09375 
Q 47.21875 7.46875 41.1875 3.015625 
Q 35.15625 -1.421875 24.609375 -1.421875 
Q 20.21875 -1.421875 15.453125 -0.5625 
Q 10.6875 0.296875 5.421875 2 
L 5.421875 11.28125 
Q 10.40625 8.6875 15.234375 7.390625 
Q 20.0625 6.109375 24.8125 6.109375 
Q 31.15625 6.109375 34.5625 8.28125 
Q 37.984375 10.453125 37.984375 14.40625 
Q 37.984375 18.0625 35.515625 20.015625 
Q 33.0625 21.96875 24.703125 23.78125 
L 21.578125 24.515625 
Q 13.234375 26.265625 9.515625 29.90625 
Q 5.8125 33.546875 5.8125 39.890625 
Q 5.8125 47.609375 11.28125 51.796875 
Q 16.75 56 26.8125 56 
Q 31.78125 56 36.171875 55.265625 
Q 40.578125 54.546875 44.28125 53.078125 
z
" id="DejaVuSans-115"/>
       <path d="M 25.390625 72.90625 
L 33.6875 72.90625 
L 8.296875 -9.28125 
L 0 -9.28125 
z
" id="DejaVuSans-47"/>
       <path d="M 45.40625 46.390625 
L 45.40625 75.984375 
L 54.390625 75.984375 
L 54.390625 0 
L 45.40625 0 
L 45.40625 8.203125 
Q 42.578125 3.328125 38.25 0.953125 
Q 33.9375 -1.421875 27.875 -1.421875 
Q 17.96875 -1.421875 11.734375 6.484375 
Q 5.515625 14.40625 5.515625 27.296875 
Q 5.515625 40.1875 11.734375 48.09375 
Q 17.96875 56 27.875 56 
Q 33.9375 56 38.25 53.625 
Q 42.578125 51.265625 45.40625 46.390625 
z
M 14.796875 27.296875 
Q 14.796875 17.390625 18.875 11.75 
Q 22.953125 6.109375 30.078125 6.109375 
Q 37.203125 6.109375 41.296875 11.75 
Q 45.40625 17.390625 45.40625 27.296875 
Q 45.40625 37.203125 41.296875 42.84375 
Q 37.203125 48.484375 30.078125 48.484375 
Q 22.953125 48.484375 18.875 42.84375 
Q 14.796875 37.203125 14.796875 27.296875 
z
" id="DejaVuSans-100"/>
       <path d="M 9.421875 54.6875 
L 18.40625 54.6875 
L 18.40625 0 
L 9.421875 0 
z
M 9.421875 75.984375 
L 18.40625 75.984375 
L 18.40625 64.59375 
L 9.421875 64.59375 
z
" id="DejaVuSans-105"/>
       <path d="M 52 44.1875 
Q 55.375 50.25 60.0625 53.125 
Q 64.75 56 71.09375 56 
Q 79.640625 56 84.28125 50.015625 
Q 88.921875 44.046875 88.921875 33.015625 
L 88.921875 0 
L 79.890625 0 
L 79.890625 32.71875 
Q 79.890625 40.578125 77.09375 44.375 
Q 74.3125 48.1875 68.609375 48.1875 
Q 61.625 48.1875 57.5625 43.546875 
Q 53.515625 38.921875 53.515625 30.90625 
L 53.515625 0 
L 44.484375 0 
L 44.484375 32.71875 
Q 44.484375 40.625 41.703125 44.40625 
Q 38.921875 48.1875 33.109375 48.1875 
Q 26.21875 48.1875 22.15625 43.53125 
Q 18.109375 38.875 18.109375 30.90625 
L 18.109375 0 
L 9.078125 0 
L 9.078125 54.6875 
L 18.109375 54.6875 
L 18.109375 46.1875 
Q 21.1875 51.21875 25.484375 53.609375 
Q 29.78125 56 35.6875 56 
Q 41.65625 56 45.828125 52.96875 
Q 50 49.953125 52 44.1875 
z
" id="DejaVuSans-109"/>
       <path d="M 54.890625 33.015625 
L 54.890625 0 
L 45.90625 0 
L 45.90625 32.71875 
Q 45.90625 40.484375 42.875 44.328125 
Q 39.84375 48.1875 33.796875 48.1875 
Q 26.515625 48.1875 22.3125 43.546875 
Q 18.109375 38.921875 18.109375 30.90625 
L 18.109375 0 
L 9.078125 0 
L 9.078125 54.6875 
L 18.109375 54.6875 
L 18.109375 46.1875 
Q 21.34375 51.125 25.703125 53.5625 
Q 30.078125 56 35.796875 56 
Q 45.21875 56 50.046875 50.171875 
Q 54.890625 44.34375 54.890625 33.015625 
z
" id="DejaVuSans-110"/>
       <path d="M 8.015625 75.875 
L 15.828125 75.875 
Q 23.140625 64.359375 26.78125 53.3125 
Q 30.421875 42.28125 30.421875 31.390625 
Q 30.421875 20.453125 26.78125 9.375 
Q 23.140625 -1.703125 15.828125 -13.1875 
L 8.015625 -13.1875 
Q 14.5 -2 17.703125 9.0625 
Q 20.90625 20.125 20.90625 31.390625 
Q 20.90625 42.671875 17.703125 53.65625 
Q 14.5 64.65625 8.015625 75.875 
z
" id="DejaVuSans-41"/>
      </defs>
      <use xlink:href="#DejaVuSans-108"/>
      <use x="27.783203" xlink:href="#DejaVuSans-111"/>
      <use x="88.964844" xlink:href="#DejaVuSans-103"/>
      <use x="152.441406" xlink:href="#DejaVuSans-49"/>
      <use x="216.064453" xlink:href="#DejaVuSans-48"/>
      <use x="279.6875" xlink:href="#DejaVuSans-40"/>
      <use x="318.701172" xlink:href="#DejaVuSans-35"/>
      <use x="402.490234" xlink:href="#DejaVuSans-32"/>
      <use x="434.277344" xlink:href="#DejaVuSans-102"/>
      <use x="463.982422" xlink:href="#DejaVuSans-45"/>
      <use x="500.066406" xlink:href="#DejaVuSans-101"/>
      <use x="561.589844" xlink:href="#DejaVuSans-118"/>
      <use x="620.769531" xlink:href="#DejaVuSans-97"/>
      <use x="682.048828" xlink:href="#DejaVuSans-108"/>
      <use x="709.832031" xlink:href="#DejaVuSans-115"/>
      <use x="761.931641" xlink:href="#DejaVuSans-32"/>
      <use x="793.71875" xlink:href="#DejaVuSans-47"/>
      <use x="827.410156" xlink:href="#DejaVuSans-32"/>
      <use x="859.197266" xlink:href="#DejaVuSans-100"/>
      <use x="922.673828" xlink:href="#DejaVuSans-105"/>
      <use x="950.457031" xlink:href="#DejaVuSans-109"/>
      <use x="1047.869141" xlink:href="#DejaVuSans-101"/>
      <use x="1109.392578" xlink:href="#DejaVuSans-110"/>
      <use x="1172.771484" xlink:href="#DejaVuSans-115"/>
      <use x="1224.871094" xlink:href="#DejaVuSans-105"/>
      <use x="1252.654297" xlink:href="#DejaVuSans-111"/>
      <use x="1313.835938" xlink:href="#DejaVuSans-110"/>
      <use x="1377.214844" xlink:href="#DejaVuSans-41"/>
     </g>
    </g>
   </g>
   <g id="matplotlib.axis_2">
    <g id="ytick_1">
     <g id="line2d_17">
      <path clip-path="url(#pa072b8ada0)" d="M 57.6 298.944 
L 338.688 298.944 
" style="fill:none;stroke:#b0b0b0;stroke-linecap:square;stroke-width:0.8;"/>
     </g>
     <g id="line2d_18">
      <defs>
       <path d="M 0 0 
L -3.5 0 
" id="m3b15e438f6" style="stroke:#000000;stroke-width:0.8;"/>
      </defs>
      <g>
       <use style="stroke:#000000;stroke-width:0.8;" x="57.6" xlink:href="#m3b15e438f6" y="298.944"/>
      </g>
     </g>
     <g id="text_6">
      <!-- 0.0 -->
      <g transform="translate(25.155 305.02275)scale(0.16 -0.16)">
       <defs>
        <path d="M 10.6875 12.40625 
L 21 12.40625 
L 21 0 
L 10.6875 0 
z
" id="DejaVuSans-46"/>
       </defs>
       <use xlink:href="#DejaVuSans-48"/>
       <use x="63.623047" xlink:href="#DejaVuSans-46"/>
       <use x="95.410156" xlink:href="#DejaVuSans-48"/>
      </g>
     </g>
    </g>
    <g id="ytick_2">
     <g id="line2d_19">
      <path clip-path="url(#pa072b8ada0)" d="M 57.6 245.22202 
L 338.688 245.22202 
" style="fill:none;stroke:#b0b0b0;stroke-linecap:square;stroke-width:0.8;"/>
     </g>
     <g id="line2d_20">
      <g>
       <use style="stroke:#000000;stroke-width:0.8;" x="57.6" xlink:href="#m3b15e438f6" y="245.22202"/>
      </g>
     </g>
     <g id="text_7">
      <!-- 0.2 -->
      <g transform="translate(25.155 251.30077)scale(0.16 -0.16)">
       <use xlink:href="#DejaVuSans-48"/>
       <use x="63.623047" xlink:href="#DejaVuSans-46"/>
       <use x="95.410156" xlink:href="#DejaVuSans-50"/>
      </g>
     </g>
    </g>
    <g id="ytick_3">
     <g id="line2d_21">
      <path clip-path="url(#pa072b8ada0)" d="M 57.6 191.50004 
L 338.688 191.50004 
" style="fill:none;stroke:#b0b0b0;stroke-linecap:square;stroke-width:0.8;"/>
     </g>
     <g id="line2d_22">
      <g>
       <use style="stroke:#000000;stroke-width:0.8;" x="57.6" xlink:href="#m3b15e438f6" y="191.50004"/>
      </g>
     </g>
     <g id="text_8">
      <!-- 0.4 -->
      <g transform="translate(25.155 197.57879)scale(0.16 -0.16)">
       <use xlink:href="#DejaVuSans-48"/>
       <use x="63.623047" xlink:href="#DejaVuSans-46"/>
       <use x="95.410156" xlink:href="#DejaVuSans-52"/>
      </g>
     </g>
    </g>
    <g id="ytick_4">
     <g id="line2d_23">
      <path clip-path="url(#pa072b8ada0)" d="M 57.6 137.778059 
L 338.688 137.778059 
" style="fill:none;stroke:#b0b0b0;stroke-linecap:square;stroke-width:0.8;"/>
     </g>
     <g id="line2d_24">
      <g>
       <use style="stroke:#000000;stroke-width:0.8;" x="57.6" xlink:href="#m3b15e438f6" y="137.778059"/>
      </g>
     </g>
     <g id="text_9">
      <!-- 0.6 -->
      <g transform="translate(25.155 143.856809)scale(0.16 -0.16)">
       <use xlink:href="#DejaVuSans-48"/>
       <use x="63.623047" xlink:href="#DejaVuSans-46"/>
       <use x="95.410156" xlink:href="#DejaVuSans-54"/>
      </g>
     </g>
    </g>
    <g id="ytick_5">
     <g id="line2d_25">
      <path clip-path="url(#pa072b8ada0)" d="M 57.6 84.056079 
L 338.688 84.056079 
" style="fill:none;stroke:#b0b0b0;stroke-linecap:square;stroke-width:0.8;"/>
     </g>
     <g id="line2d_26">
      <g>
       <use style="stroke:#000000;stroke-width:0.8;" x="57.6" xlink:href="#m3b15e438f6" y="84.056079"/>
      </g>
     </g>
     <g id="text_10">
      <!-- 0.8 -->
      <g transform="translate(25.155 90.134829)scale(0.16 -0.16)">
       <defs>
        <path d="M 31.78125 34.625 
Q 24.75 34.625 20.71875 30.859375 
Q 16.703125 27.09375 16.703125 20.515625 
Q 16.703125 13.921875 20.71875 10.15625 
Q 24.75 6.390625 31.78125 6.390625 
Q 38.8125 6.390625 42.859375 10.171875 
Q 46.921875 13.96875 46.921875 20.515625 
Q 46.921875 27.09375 42.890625 30.859375 
Q 38.875 34.625 31.78125 34.625 
z
M 21.921875 38.8125 
Q 15.578125 40.375 12.03125 44.71875 
Q 8.5 49.078125 8.5 55.328125 
Q 8.5 64.0625 14.71875 69.140625 
Q 20.953125 74.21875 31.78125 74.21875 
Q 42.671875 74.21875 48.875 69.140625 
Q 55.078125 64.0625 55.078125 55.328125 
Q 55.078125 49.078125 51.53125 44.71875 
Q 48 40.375 41.703125 38.8125 
Q 48.828125 37.15625 52.796875 32.3125 
Q 56.78125 27.484375 56.78125 20.515625 
Q 56.78125 9.90625 50.3125 4.234375 
Q 43.84375 -1.421875 31.78125 -1.421875 
Q 19.734375 -1.421875 13.25 4.234375 
Q 6.78125 9.90625 6.78125 20.515625 
Q 6.78125 27.484375 10.78125 32.3125 
Q 14.796875 37.15625 21.921875 38.8125 
z
M 18.3125 54.390625 
Q 18.3125 48.734375 21.84375 45.5625 
Q 25.390625 42.390625 31.78125 42.390625 
Q 38.140625 42.390625 41.71875 45.5625 
Q 45.3125 48.734375 45.3125 54.390625 
Q 45.3125 60.0625 41.71875 63.234375 
Q 38.140625 66.40625 31.78125 66.40625 
Q 25.390625 66.40625 21.84375 63.234375 
Q 18.3125 60.0625 18.3125 54.390625 
z
" id="DejaVuSans-56"/>
       </defs>
       <use xlink:href="#DejaVuSans-48"/>
       <use x="63.623047" xlink:href="#DejaVuSans-46"/>
       <use x="95.410156" xlink:href="#DejaVuSans-56"/>
      </g>
     </g>
    </g>
    <g id="ytick_6">
     <g id="line2d_27">
      <path clip-path="url(#pa072b8ada0)" d="M 57.6 30.334099 
L 338.688 30.334099 
" style="fill:none;stroke:#b0b0b0;stroke-linecap:square;stroke-width:0.8;"/>
     </g>
     <g id="line2d_28">
      <g>
       <use style="stroke:#000000;stroke-width:0.8;" x="57.6" xlink:href="#m3b15e438f6" y="30.334099"/>
      </g>
     </g>
     <g id="text_11">
      <!-- 1.0 -->
      <g transform="translate(25.155 36.412849)scale(0.16 -0.16)">
       <use xlink:href="#DejaVuSans-49"/>
       <use x="63.623047" xlink:href="#DejaVuSans-46"/>
       <use x="95.410156" xlink:href="#DejaVuSans-48"/>
      </g>
     </g>
    </g>
    <g id="text_12">
     <!-- Fraction of function,target pairs -->
     <g transform="translate(17.619531 297.681)rotate(-90)scale(0.17 -0.17)">
      <defs>
       <path d="M 9.8125 72.90625 
L 51.703125 72.90625 
L 51.703125 64.59375 
L 19.671875 64.59375 
L 19.671875 43.109375 
L 48.578125 43.109375 
L 48.578125 34.8125 
L 19.671875 34.8125 
L 19.671875 0 
L 9.8125 0 
z
" id="DejaVuSans-70"/>
       <path d="M 41.109375 46.296875 
Q 39.59375 47.171875 37.8125 47.578125 
Q 36.03125 48 33.890625 48 
Q 26.265625 48 22.1875 43.046875 
Q 18.109375 38.09375 18.109375 28.8125 
L 18.109375 0 
L 9.078125 0 
L 9.078125 54.6875 
L 18.109375 54.6875 
L 18.109375 46.1875 
Q 20.953125 51.171875 25.484375 53.578125 
Q 30.03125 56 36.53125 56 
Q 37.453125 56 38.578125 55.875 
Q 39.703125 55.765625 41.0625 55.515625 
z
" id="DejaVuSans-114"/>
       <path d="M 48.78125 52.59375 
L 48.78125 44.1875 
Q 44.96875 46.296875 41.140625 47.34375 
Q 37.3125 48.390625 33.40625 48.390625 
Q 24.65625 48.390625 19.8125 42.84375 
Q 14.984375 37.3125 14.984375 27.296875 
Q 14.984375 17.28125 19.8125 11.734375 
Q 24.65625 6.203125 33.40625 6.203125 
Q 37.3125 6.203125 41.140625 7.25 
Q 44.96875 8.296875 48.78125 10.40625 
L 48.78125 2.09375 
Q 45.015625 0.34375 40.984375 -0.53125 
Q 36.96875 -1.421875 32.421875 -1.421875 
Q 20.0625 -1.421875 12.78125 6.34375 
Q 5.515625 14.109375 5.515625 27.296875 
Q 5.515625 40.671875 12.859375 48.328125 
Q 20.21875 56 33.015625 56 
Q 37.15625 56 41.109375 55.140625 
Q 45.0625 54.296875 48.78125 52.59375 
z
" id="DejaVuSans-99"/>
       <path d="M 18.3125 70.21875 
L 18.3125 54.6875 
L 36.8125 54.6875 
L 36.8125 47.703125 
L 18.3125 47.703125 
L 18.3125 18.015625 
Q 18.3125 11.328125 20.140625 9.421875 
Q 21.96875 7.515625 27.59375 7.515625 
L 36.8125 7.515625 
L 36.8125 0 
L 27.59375 0 
Q 17.1875 0 13.234375 3.875 
Q 9.28125 7.765625 9.28125 18.015625 
L 9.28125 47.703125 
L 2.6875 47.703125 
L 2.6875 54.6875 
L 9.28125 54.6875 
L 9.28125 70.21875 
z
" id="DejaVuSans-116"/>
       <path d="M 8.5 21.578125 
L 8.5 54.6875 
L 17.484375 54.6875 
L 17.484375 21.921875 
Q 17.484375 14.15625 20.5 10.265625 
Q 23.53125 6.390625 29.59375 6.390625 
Q 36.859375 6.390625 41.078125 11.03125 
Q 45.3125 15.671875 45.3125 23.6875 
L 45.3125 54.6875 
L 54.296875 54.6875 
L 54.296875 0 
L 45.3125 0 
L 45.3125 8.40625 
Q 42.046875 3.421875 37.71875 1 
Q 33.40625 -1.421875 27.6875 -1.421875 
Q 18.265625 -1.421875 13.375 4.4375 
Q 8.5 10.296875 8.5 21.578125 
z
M 31.109375 56 
z
" id="DejaVuSans-117"/>
       <path d="M 11.71875 12.40625 
L 22.015625 12.40625 
L 22.015625 4 
L 14.015625 -11.625 
L 7.71875 -11.625 
L 11.71875 4 
z
" id="DejaVuSans-44"/>
       <path d="M 18.109375 8.203125 
L 18.109375 -20.796875 
L 9.078125 -20.796875 
L 9.078125 54.6875 
L 18.109375 54.6875 
L 18.109375 46.390625 
Q 20.953125 51.265625 25.265625 53.625 
Q 29.59375 56 35.59375 56 
Q 45.5625 56 51.78125 48.09375 
Q 58.015625 40.1875 58.015625 27.296875 
Q 58.015625 14.40625 51.78125 6.484375 
Q 45.5625 -1.421875 35.59375 -1.421875 
Q 29.59375 -1.421875 25.265625 0.953125 
Q 20.953125 3.328125 18.109375 8.203125 
z
M 48.6875 27.296875 
Q 48.6875 37.203125 44.609375 42.84375 
Q 40.53125 48.484375 33.40625 48.484375 
Q 26.265625 48.484375 22.1875 42.84375 
Q 18.109375 37.203125 18.109375 27.296875 
Q 18.109375 17.390625 22.1875 11.75 
Q 26.265625 6.109375 33.40625 6.109375 
Q 40.53125 6.109375 44.609375 11.75 
Q 48.6875 17.390625 48.6875 27.296875 
z
" id="DejaVuSans-112"/>
      </defs>
      <use xlink:href="#DejaVuSans-70"/>
      <use x="50.269531" xlink:href="#DejaVuSans-114"/>
      <use x="91.382812" xlink:href="#DejaVuSans-97"/>
      <use x="152.662109" xlink:href="#DejaVuSans-99"/>
      <use x="207.642578" xlink:href="#DejaVuSans-116"/>
      <use x="246.851562" xlink:href="#DejaVuSans-105"/>
      <use x="274.634766" xlink:href="#DejaVuSans-111"/>
      <use x="335.816406" xlink:href="#DejaVuSans-110"/>
      <use x="399.195312" xlink:href="#DejaVuSans-32"/>
      <use x="430.982422" xlink:href="#DejaVuSans-111"/>
      <use x="492.164062" xlink:href="#DejaVuSans-102"/>
      <use x="527.369141" xlink:href="#DejaVuSans-32"/>
      <use x="559.15625" xlink:href="#DejaVuSans-102"/>
      <use x="594.361328" xlink:href="#DejaVuSans-117"/>
      <use x="657.740234" xlink:href="#DejaVuSans-110"/>
      <use x="721.119141" xlink:href="#DejaVuSans-99"/>
      <use x="776.099609" xlink:href="#DejaVuSans-116"/>
      <use x="815.308594" xlink:href="#DejaVuSans-105"/>
      <use x="843.091797" xlink:href="#DejaVuSans-111"/>
      <use x="904.273438" xlink:href="#DejaVuSans-110"/>
      <use x="967.652344" xlink:href="#DejaVuSans-44"/>
      <use x="999.439453" xlink:href="#DejaVuSans-116"/>
      <use x="1038.648438" xlink:href="#DejaVuSans-97"/>
      <use x="1099.927734" xlink:href="#DejaVuSans-114"/>
      <use x="1139.291016" xlink:href="#DejaVuSans-103"/>
      <use x="1202.767578" xlink:href="#DejaVuSans-101"/>
      <use x="1264.291016" xlink:href="#DejaVuSans-116"/>
      <use x="1303.5" xlink:href="#DejaVuSans-32"/>
      <use x="1335.287109" xlink:href="#DejaVuSans-112"/>
      <use x="1398.763672" xlink:href="#DejaVuSans-97"/>
      <use x="1460.042969" xlink:href="#DejaVuSans-105"/>
      <use x="1487.826172" xlink:href="#DejaVuSans-114"/>
      <use x="1528.939453" xlink:href="#DejaVuSans-115"/>
     </g>
    </g>
   </g>
   <g id="line2d_29">
    <defs>
     <path d="M 0 1.5 
C 0.397805 1.5 0.77937 1.341951 1.06066 1.06066 
C 1.341951 0.77937 1.5 0.397805 1.5 0 
C 1.5 -0.397805 1.341951 -0.77937 1.06066 -1.06066 
C 0.77937 -1.341951 0.397805 -1.5 0 -1.5 
C -0.397805 -1.5 -0.77937 -1.341951 -1.06066 -1.06066 
C -1.341951 -0.77937 -1.5 -0.397805 -1.5 0 
C -1.5 0.397805 -1.341951 0.77937 -1.06066 1.06066 
C -0.77937 1.341951 -0.397805 1.5 0 1.5 
z
" id="mc0e62eaa04" style="stroke:#00bfbf;"/>
    </defs>
    <g>
     <use style="fill:#00bfbf;stroke:#00bfbf;" x="257.943487" xlink:href="#mc0e62eaa04" y="82.203597"/>
     <use style="fill:#00bfbf;stroke:#00bfbf;" x="257.943487" xlink:href="#mc0e62eaa04" y="82.203597"/>
    </g>
   </g>
   <g id="line2d_30">
    <path d="M 45.512012 298.944 
L 45.512012 297.091518 
L 98.606294 297.091518 
L 98.606294 296.628397 
L 109.843417 296.628397 
L 109.843417 296.165277 
L 111.104637 296.165277 
L 111.104637 295.702156 
L 113.022974 295.702156 
L 113.022974 295.239036 
L 116.323218 295.239036 
L 116.323218 294.775915 
L 117.765302 294.775915 
L 117.765302 293.386554 
L 120.33454 293.386554 
L 120.33454 292.923433 
L 122.573415 292.923433 
L 122.573415 292.460313 
L 124.557288 292.460313 
L 124.557288 291.997192 
L 127.165014 291.997192 
L 127.165014 291.534072 
L 128.709321 291.534072 
L 128.709321 291.070951 
L 130.796184 291.070951 
L 130.796184 290.607831 
L 132.060454 290.607831 
L 132.060454 289.68159 
L 132.659801 289.68159 
L 132.659801 289.218469 
L 133.239232 289.218469 
L 133.239232 288.755349 
L 133.800029 288.755349 
L 133.800029 288.292228 
L 137.735587 288.292228 
L 137.735587 287.365987 
L 138.594838 287.365987 
L 138.594838 286.902867 
L 146.484754 286.902867 
L 146.484754 286.439746 
L 150.38688 286.439746 
L 150.38688 285.976625 
L 150.973835 285.976625 
L 150.973835 284.587264 
L 153.644434 284.587264 
L 153.644434 284.124143 
L 153.890309 284.124143 
L 153.890309 283.661023 
L 154.439623 283.661023 
L 154.439623 282.734782 
L 155.773004 282.734782 
L 155.773004 282.271661 
L 156.175347 282.271661 
L 156.175347 281.808541 
L 156.357959 281.808541 
L 156.38821 280.8823 
L 156.776762 280.8823 
L 156.776762 280.419179 
L 157.069866 280.419179 
L 157.069866 279.956059 
L 158.031107 279.956059 
L 158.031107 279.492938 
L 158.705563 279.492938 
L 158.705563 279.029818 
L 159.956318 279.029818 
L 159.956318 278.566697 
L 161.510643 278.566697 
L 161.510643 278.103577 
L 162.791763 278.103577 
L 162.791763 277.640456 
L 170.620687 277.640456 
L 170.620687 277.177336 
L 170.951613 277.177336 
L 171.030109 275.787974 
L 171.108254 275.787974 
L 171.18605 274.398612 
L 171.263501 274.398612 
L 171.263501 273.935492 
L 171.417378 273.935492 
L 171.49381 272.08301 
L 171.569909 272.08301 
L 171.569909 271.619889 
L 172.228073 271.619889 
L 172.228073 271.156769 
L 172.768032 271.156769 
L 172.768032 270.230528 
L 173.165193 270.230528 
L 173.165193 269.767407 
L 174.391462 269.767407 
L 174.391462 269.304287 
L 176.866214 269.304287 
L 176.866214 268.378046 
L 177.50811 268.378046 
L 177.50811 267.451805 
L 177.838089 267.451805 
L 177.838089 266.988684 
L 178.213893 266.988684 
L 178.213893 266.062443 
L 178.867253 266.062443 
L 178.867253 264.673082 
L 179.19724 264.673082 
L 179.19724 264.209961 
L 179.521099 264.209961 
L 179.521099 262.8206 
L 179.728427 262.8206 
L 179.831174 261.431238 
L 180.128086 261.431238 
L 180.128086 259.115635 
L 180.58684 259.115635 
L 180.58684 258.652515 
L 180.781946 258.652515 
L 180.781946 258.189394 
L 180.908345 258.189394 
L 180.908345 257.726274 
L 183.435008 257.726274 
L 183.435008 257.263153 
L 184.04587 257.263153 
L 184.04587 256.800033 
L 184.358664 256.800033 
L 184.358664 256.336912 
L 185.647145 256.336912 
L 185.647145 255.873792 
L 185.782116 255.873792 
L 185.882663 253.558189 
L 185.916051 253.558189 
L 186.015831 251.242587 
L 186.048964 251.242587 
L 186.147989 248.000743 
L 186.538558 248.000743 
L 186.618837 247.074502 
L 186.666828 247.074502 
L 186.762415 244.295779 
L 186.788874 244.295779 
L 186.889055 241.053935 
L 186.920572 241.053935 
L 187.014782 238.738333 
L 187.483428 238.738333 
L 187.483428 238.275212 
L 187.785676 238.275212 
L 187.785676 236.88585 
L 188.27321 236.88585 
L 188.27321 235.959609 
L 188.752209 235.959609 
L 188.752209 235.496489 
L 190.262931 235.496489 
L 190.353682 230.402163 
L 190.379524 230.402163 
L 190.379524 229.475922 
L 190.97605 229.475922 
L 190.97605 229.012802 
L 191.44791 229.012802 
L 191.44791 228.086561 
L 193.821074 228.086561 
L 193.821074 227.16032 
L 194.233072 227.16032 
L 194.233072 226.697199 
L 194.387661 226.697199 
L 194.476359 225.307837 
L 195.248458 225.307837 
L 195.248458 224.844717 
L 196.198718 224.844717 
L 196.198718 223.918476 
L 196.394908 223.918476 
L 196.394908 222.992235 
L 197.283328 222.992235 
L 197.283328 222.529114 
L 198.326258 222.529114 
L 198.421503 220.213512 
L 198.475696 220.213512 
L 198.559364 216.045427 
L 199.193878 216.045427 
L 199.193878 215.582307 
L 200.030272 215.582307 
L 200.09203 214.656066 
L 200.178126 214.656066 
L 200.178126 214.192945 
L 201.04686 214.192945 
L 201.04686 213.729825 
L 201.278769 213.729825 
L 201.292586 211.414222 
L 203.531849 211.414222 
L 203.531849 210.951101 
L 203.705095 210.951101 
L 203.705095 210.487981 
L 205.330753 210.487981 
L 205.330753 210.02486 
L 206.208554 210.02486 
L 206.208554 209.098619 
L 206.531991 209.098619 
L 206.591548 207.246137 
L 207.006169 207.246137 
L 207.108715 205.856776 
L 207.972533 205.856776 
L 208.046139 204.467414 
L 208.096077 204.467414 
L 208.200174 203.078053 
L 208.325198 203.078053 
L 208.383544 201.688691 
L 208.449333 201.688691 
L 208.449333 201.225571 
L 208.560455 201.225571 
L 208.560455 200.299329 
L 208.673889 200.299329 
L 208.735589 197.983727 
L 208.795575 197.983727 
L 208.903032 193.815642 
L 209.017223 193.815642 
L 209.017223 193.352522 
L 209.697053 193.352522 
L 209.697053 192.426281 
L 210.616361 192.426281 
L 210.693065 191.036919 
L 210.782796 191.036919 
L 210.890664 188.258196 
L 210.94104 188.258196 
L 210.94104 187.795075 
L 211.093924 187.795075 
L 211.192063 185.479473 
L 211.24548 185.479473 
L 211.347946 181.311388 
L 211.390571 181.311388 
L 211.48321 179.922027 
L 212.37253 179.922027 
L 212.37253 178.995786 
L 214.011265 178.995786 
L 214.011265 178.069545 
L 218.094819 178.069545 
L 218.094819 177.143304 
L 218.416811 177.143304 
L 218.473628 175.290821 
L 218.699061 175.290821 
L 218.699061 174.827701 
L 219.089181 174.827701 
L 219.089181 174.36458 
L 220.83409 174.36458 
L 220.83409 173.90146 
L 221.863765 173.90146 
L 221.949177 172.975219 
L 222.198768 172.975219 
L 222.198768 172.512098 
L 222.361137 172.512098 
L 222.361137 171.585857 
L 222.63611 171.585857 
L 222.63611 171.122737 
L 222.850067 171.122737 
L 222.850067 170.196496 
L 223.024394 170.196496 
L 223.024394 169.270255 
L 223.173381 169.270255 
L 223.173381 168.807134 
L 223.607733 168.807134 
L 223.607733 168.344014 
L 224.139925 168.344014 
L 224.139925 167.880893 
L 225.44841 167.880893 
L 225.44841 166.954652 
L 227.237416 166.954652 
L 227.237416 166.028411 
L 227.462148 166.028411 
L 227.530286 165.10217 
L 227.693649 165.10217 
L 227.796679 163.712808 
L 227.851481 163.712808 
L 227.851481 162.786567 
L 228.1422 162.786567 
L 228.1422 161.860326 
L 228.341492 161.860326 
L 228.362466 160.934085 
L 228.466962 160.934085 
L 228.57228 156.766001 
L 228.691801 156.766001 
L 228.691801 156.30288 
L 229.077843 156.30288 
L 229.077843 155.83976 
L 229.96939 155.83976 
L 229.96939 154.913519 
L 231.202455 154.913519 
L 231.202455 153.987278 
L 231.98175 153.987278 
L 232.047777 153.061037 
L 232.094674 153.061037 
L 232.094674 152.597916 
L 232.24125 152.597916 
L 232.335441 151.208554 
L 232.605447 151.208554 
L 232.605447 150.282313 
L 232.788325 150.282313 
L 232.788325 149.819193 
L 233.001841 149.819193 
L 233.001841 149.356072 
L 233.316925 149.356072 
L 233.316925 148.892952 
L 234.022724 148.892952 
L 234.022724 147.966711 
L 235.078254 147.966711 
L 235.078254 147.04047 
L 235.620326 147.04047 
L 235.64346 146.114229 
L 235.89372 146.114229 
L 235.909223 144.724867 
L 237.324244 144.724867 
L 237.324244 144.261747 
L 238.557653 144.261747 
L 238.557653 143.798626 
L 240.130179 143.798626 
L 240.170103 142.409265 
L 240.391369 142.409265 
L 240.449723 141.483024 
L 240.623141 141.483024 
L 240.623141 141.019903 
L 240.97719 141.019903 
L 241.014751 139.630541 
L 241.723665 139.630541 
L 241.723665 138.7043 
L 241.841991 138.7043 
L 241.841991 138.24118 
L 242.265964 138.24118 
L 242.265964 137.778059 
L 242.675798 137.778059 
L 242.675798 137.314939 
L 242.813632 137.314939 
L 242.813632 136.851818 
L 243.62034 136.851818 
L 243.652421 130.368131 
L 244.211762 130.368131 
L 244.211762 129.44189 
L 244.326116 129.44189 
L 244.433325 126.200046 
L 244.47498 126.200046 
L 244.537758 124.810685 
L 244.63064 124.810685 
L 244.679288 123.884444 
L 245.045125 123.884444 
L 245.045125 123.421323 
L 245.216398 123.421323 
L 245.216398 122.495082 
L 245.394636 122.495082 
L 245.394636 121.568841 
L 245.676514 121.568841 
L 245.676514 121.105721 
L 245.835105 121.105721 
L 245.835105 120.6426 
L 246.085147 120.6426 
L 246.085147 120.17948 
L 246.718415 120.17948 
L 246.78024 118.790118 
L 246.988053 118.790118 
L 246.988053 118.326998 
L 247.358546 118.326998 
L 247.358546 117.863877 
L 247.880921 117.863877 
L 247.880921 116.937636 
L 248.448299 116.937636 
L 248.448299 116.474516 
L 248.595444 116.474516 
L 248.595444 116.011395 
L 248.759076 116.011395 
L 248.759076 115.548274 
L 249.137287 115.548274 
L 249.157715 114.158913 
L 249.31486 114.158913 
L 249.337863 113.232672 
L 249.521385 113.232672 
L 249.566532 111.84331 
L 249.747104 111.84331 
L 249.747104 110.917069 
L 249.886142 110.917069 
L 249.886142 110.453949 
L 250.047994 110.453949 
L 250.047994 109.990828 
L 250.172245 109.990828 
L 250.281196 107.212105 
L 250.364639 107.212105 
L 250.392916 105.822744 
L 250.48008 105.822744 
L 250.537037 104.433382 
L 250.653654 104.433382 
L 250.653654 103.970262 
L 250.773813 103.970262 
L 250.777453 102.5809 
L 251.225586 102.5809 
L 251.225586 101.654659 
L 251.732065 101.654659 
L 251.732065 100.728418 
L 252.098719 100.728418 
L 252.098719 99.802177 
L 252.575574 99.802177 
L 252.575574 99.339056 
L 252.924492 99.339056 
L 252.924492 98.875936 
L 254.127463 98.875936 
L 254.127463 98.412815 
L 254.786192 98.412815 
L 254.873928 96.097213 
L 254.930863 96.097213 
L 254.970131 94.707851 
L 255.066017 94.707851 
L 255.144595 93.31849 
L 255.205362 93.31849 
L 255.277588 92.392249 
L 255.670079 92.392249 
L 255.670079 91.466008 
L 256.20806 91.466008 
L 256.20806 90.539766 
L 256.486946 90.539766 
L 256.486946 90.076646 
L 256.947842 90.076646 
L 257.020377 87.761043 
L 257.098619 87.761043 
L 257.151739 86.371682 
L 257.245498 86.371682 
L 257.33783 84.056079 
L 257.37989 84.056079 
L 257.37989 83.592959 
L 257.508122 83.592959 
L 257.508122 83.129838 
L 257.943487 83.129838 
L 257.943487 82.203597 
L 338.688 82.203597 
L 338.688 82.203597 
" style="fill:none;stroke:#00bfbf;stroke-linecap:square;stroke-width:1.5;"/>
   </g>
   <g id="line2d_31">
    <defs>
     <path d="M -6 0 
L 6 0 
M 0 6 
L 0 -6 
" id="mc40a6f02f9" style="stroke:#00bfbf;stroke-width:1.5;"/>
    </defs>
    <g>
     <use style="fill-opacity:0;stroke:#00bfbf;stroke-width:1.5;" x="186.920572" xlink:href="#mc40a6f02f9" y="240.590815"/>
     <use style="fill-opacity:0;stroke:#00bfbf;stroke-width:1.5;" x="219.089181" xlink:href="#mc40a6f02f9" y="174.827701"/>
     <use style="fill-opacity:0;stroke:#00bfbf;stroke-width:1.5;" x="250.537037" xlink:href="#mc40a6f02f9" y="104.896503"/>
     <use style="fill-opacity:0;stroke:#00bfbf;stroke-width:1.5;" x="257.943487" xlink:href="#mc40a6f02f9" y="82.203597"/>
     <use style="fill-opacity:0;stroke:#00bfbf;stroke-width:1.5;" x="338.688" xlink:href="#mc40a6f02f9" y="82.203597"/>
    </g>
   </g>
   <g id="line2d_32">
    <path style="fill:none;stroke:#00bfbf;stroke-linecap:square;stroke-width:1.5;"/>
    <g/>
   </g>
   <g id="line2d_33">
    <path clip-path="url(#pa072b8ada0)" d="M 258.377143 82.203597 
" style="fill:none;stroke:#00bfbf;stroke-linecap:square;stroke-width:1.5;"/>
    <defs>
     <path d="M -12 12 
L 12 -12 
M -12 -12 
L 12 12 
" id="mf12d40a491" style="stroke:#00bfbf;"/>
    </defs>
    <g clip-path="url(#pa072b8ada0)">
     <use style="fill:#00bfbf;stroke:#00bfbf;" x="258.377143" xlink:href="#mf12d40a491" y="82.203597"/>
    </g>
   </g>
   <g id="line2d_34">
    <defs>
     <path d="M 0 1.5 
C 0.397805 1.5 0.77937 1.341951 1.06066 1.06066 
C 1.341951 0.77937 1.5 0.397805 1.5 0 
C 1.5 -0.397805 1.341951 -0.77937 1.06066 -1.06066 
C 0.77937 -1.341951 0.397805 -1.5 0 -1.5 
C -0.397805 -1.5 -0.77937 -1.341951 -1.06066 -1.06066 
C -1.341951 -0.77937 -1.5 -0.397805 -1.5 0 
C -1.5 0.397805 -1.341951 0.77937 -1.06066 1.06066 
C -0.77937 1.341951 -0.397805 1.5 0 1.5 
z
" id="m09ed6f9bd2" style="stroke:#008000;"/>
    </defs>
    <g>
     <use style="fill:#008000;stroke:#008000;" x="256.8217" xlink:href="#m09ed6f9bd2" y="150.745434"/>
     <use style="fill:#008000;stroke:#008000;" x="256.8217" xlink:href="#m09ed6f9bd2" y="150.745434"/>
    </g>
   </g>
   <g id="line2d_35">
    <path d="M 38.440992 298.944 
L 38.440992 289.68159 
L 94.575872 289.68159 
L 94.575872 289.218469 
L 98.880934 289.218469 
L 98.880934 288.292228 
L 107.680028 288.292228 
L 107.680028 287.365987 
L 109.843417 287.365987 
L 109.843417 286.902867 
L 111.505558 286.902867 
L 111.505558 286.439746 
L 111.767808 286.439746 
L 111.767808 285.976625 
L 116.522527 285.976625 
L 116.522527 285.513505 
L 117.857331 285.513505 
L 117.857331 285.050384 
L 120.254726 285.050384 
L 120.254726 284.587264 
L 123.327293 284.587264 
L 123.327293 283.661023 
L 125.110962 283.661023 
L 125.110962 282.734782 
L 125.938745 282.734782 
L 125.938745 281.808541 
L 126.729009 281.808541 
L 126.729009 280.8823 
L 127.48501 280.8823 
L 127.48501 279.956059 
L 128.209594 279.956059 
L 128.209594 279.492938 
L 128.905271 279.492938 
L 128.905271 279.029818 
L 129.574256 279.029818 
L 129.574256 278.103577 
L 130.218525 278.103577 
L 130.218525 276.714215 
L 130.839837 276.714215 
L 130.839837 274.398612 
L 131.439773 274.398612 
L 131.439773 273.009251 
L 132.019755 273.009251 
L 132.019755 270.693648 
L 132.581068 270.693648 
L 132.581068 267.451805 
L 133.124876 267.451805 
L 133.124876 264.673082 
L 133.652238 264.673082 
L 133.652238 258.189394 
L 134.164119 258.189394 
L 134.164119 254.02131 
L 134.661403 254.02131 
L 134.661403 252.631948 
L 135.144899 252.631948 
L 135.144899 251.705707 
L 135.615352 251.705707 
L 135.615352 249.853225 
L 136.073445 249.853225 
L 136.073445 248.463863 
L 136.519813 248.463863 
L 136.519813 246.611381 
L 136.955041 246.611381 
L 136.955041 246.148261 
L 137.37967 246.148261 
L 137.37967 243.369538 
L 137.794206 243.369538 
L 137.794206 240.590815 
L 138.199116 240.590815 
L 138.199116 239.664574 
L 139.730821 239.664574 
L 139.730821 239.201453 
L 140.093612 239.201453 
L 140.093612 238.738333 
L 140.44901 238.738333 
L 140.44901 237.812091 
L 141.47371 237.812091 
L 141.47371 236.42273 
L 143.358447 236.42273 
L 143.358447 235.959609 
L 144.787023 235.959609 
L 144.787023 235.496489 
L 146.608752 235.496489 
L 146.608752 235.033368 
L 150.372662 235.033368 
L 150.372662 234.107127 
L 153.008024 234.107127 
L 153.008024 233.644007 
L 155.990803 233.644007 
L 155.990803 233.180886 
L 157.069866 233.180886 
L 157.069866 232.717766 
L 160.054568 232.717766 
L 160.054568 232.254645 
L 160.727241 232.254645 
L 160.727241 231.328404 
L 161.054091 231.328404 
L 161.054091 230.865284 
L 161.615474 230.865284 
L 161.615474 230.402163 
L 162.46065 230.402163 
L 162.46065 229.939043 
L 163.061823 229.939043 
L 163.061823 229.475922 
L 164.269589 229.475922 
L 164.269589 228.549681 
L 167.975417 228.549681 
L 167.975417 228.086561 
L 168.576655 228.086561 
L 168.576655 227.62344 
L 170.88154 227.62344 
L 170.88154 227.16032 
L 173.103489 227.16032 
L 173.103489 226.697199 
L 177.372536 226.697199 
L 177.372536 226.234079 
L 178.536561 226.234079 
L 178.536561 225.770958 
L 178.794926 225.770958 
L 178.794926 224.844717 
L 182.466459 224.844717 
L 182.466459 224.381596 
L 182.797538 224.381596 
L 182.797538 223.455355 
L 184.973775 223.455355 
L 184.973775 222.529114 
L 187.954653 222.529114 
L 187.954653 222.065994 
L 188.910557 222.065994 
L 188.910557 221.602873 
L 190.576387 221.602873 
L 190.576387 220.213512 
L 190.706405 220.213512 
L 190.706405 219.750391 
L 191.104509 219.750391 
L 191.104509 218.82415 
L 191.334192 218.82415 
L 191.334192 217.897909 
L 191.582327 217.897909 
L 191.582327 216.971668 
L 191.800554 216.971668 
L 191.800554 216.508548 
L 192.039578 216.508548 
L 192.039578 214.656066 
L 192.236722 214.656066 
L 192.236722 212.340463 
L 193.006208 212.340463 
L 193.006208 210.951101 
L 194.173159 210.951101 
L 194.173159 210.487981 
L 195.381422 210.487981 
L 195.381422 210.02486 
L 196.539608 210.02486 
L 196.539608 209.56174 
L 197.710652 209.56174 
L 197.710652 208.635499 
L 199.483116 208.635499 
L 199.483116 208.172378 
L 203.877961 208.172378 
L 203.877961 207.709258 
L 206.14651 207.709258 
L 206.14651 207.246137 
L 206.32796 207.246137 
L 206.32796 206.783017 
L 210.965732 206.783017 
L 211.065908 205.393655 
L 211.088675 205.393655 
L 211.167254 203.078053 
L 211.211625 203.078053 
L 211.211625 202.151812 
L 211.923323 202.151812 
L 212.016501 200.299329 
L 212.052971 200.299329 
L 212.100929 199.373088 
L 213.967547 199.373088 
L 213.967547 198.909968 
L 224.766341 198.909968 
L 224.842066 197.057486 
L 224.897653 197.057486 
L 224.932898 195.668124 
L 225.011449 195.668124 
L 225.116289 189.647558 
L 225.226728 189.647558 
L 225.329125 187.795075 
L 225.508034 187.795075 
L 225.508034 187.331955 
L 226.544579 187.331955 
L 226.544579 186.868834 
L 233.681961 186.868834 
L 233.777995 180.385147 
L 236.530003 180.385147 
L 236.533461 179.458906 
L 239.849887 179.458906 
L 239.849887 178.995786 
L 239.966388 178.995786 
L 239.966388 178.069545 
L 240.387455 178.069545 
L 240.387455 177.143304 
L 240.716371 177.143304 
L 240.716371 176.680183 
L 241.39068 176.680183 
L 241.39068 176.217062 
L 242.544722 176.217062 
L 242.544722 175.753942 
L 246.215522 175.753942 
L 246.220425 173.438339 
L 246.39498 173.438339 
L 246.495457 168.344014 
L 246.782614 168.344014 
L 246.782614 167.417773 
L 246.978836 167.417773 
L 246.978836 166.954652 
L 247.408664 166.954652 
L 247.408664 166.491532 
L 248.047001 166.491532 
L 248.047001 166.028411 
L 249.561281 166.028411 
L 249.561281 165.565291 
L 249.808545 165.565291 
L 249.908026 163.712808 
L 250.787427 163.712808 
L 250.787427 162.786567 
L 251.623661 162.786567 
L 251.623661 161.860326 
L 251.811699 161.860326 
L 251.811699 161.397206 
L 254.526034 161.397206 
L 254.526034 160.470965 
L 255.357156 160.470965 
L 255.357156 160.007844 
L 255.550382 160.007844 
L 255.550382 159.081603 
L 255.716998 159.081603 
L 255.716998 158.618483 
L 256.061269 158.618483 
L 256.061269 157.229121 
L 256.347228 157.229121 
L 256.347228 156.30288 
L 256.713386 156.30288 
L 256.8217 150.745434 
L 338.688 150.745434 
L 338.688 150.745434 
" style="fill:none;stroke:#008000;stroke-linecap:square;stroke-width:1.5;"/>
   </g>
   <g id="line2d_36">
    <defs>
     <path d="M -0 6 
L 6 -6 
L -6 -6 
z
" id="mc0027658c1" style="stroke:#008000;stroke-linejoin:miter;stroke-width:1.5;"/>
    </defs>
    <g>
     <use style="fill-opacity:0;stroke:#008000;stroke-linejoin:miter;stroke-width:1.5;" x="94.575872" xlink:href="#mc0027658c1" y="289.68159"/>
     <use style="fill-opacity:0;stroke:#008000;stroke-linejoin:miter;stroke-width:1.5;" x="160.054568" xlink:href="#mc0027658c1" y="232.717766"/>
     <use style="fill-opacity:0;stroke:#008000;stroke-linejoin:miter;stroke-width:1.5;" x="226.544579" xlink:href="#mc0027658c1" y="187.331955"/>
     <use style="fill-opacity:0;stroke:#008000;stroke-linejoin:miter;stroke-width:1.5;" x="256.8217" xlink:href="#mc0027658c1" y="152.134795"/>
     <use style="fill-opacity:0;stroke:#008000;stroke-linejoin:miter;stroke-width:1.5;" x="256.8217" xlink:href="#mc0027658c1" y="150.745434"/>
     <use style="fill-opacity:0;stroke:#008000;stroke-linejoin:miter;stroke-width:1.5;" x="338.688" xlink:href="#mc0027658c1" y="150.745434"/>
    </g>
   </g>
   <g id="line2d_37">
    <path style="fill:none;stroke:#008000;stroke-linecap:square;stroke-width:1.5;"/>
    <g/>
   </g>
   <g id="line2d_38">
    <path clip-path="url(#pa072b8ada0)" d="M 258.377143 150.745434 
" style="fill:none;stroke:#008000;stroke-linecap:square;stroke-width:1.5;"/>
    <defs>
     <path d="M -12 12 
L 12 -12 
M -12 -12 
L 12 12 
" id="mae80e33415" style="stroke:#008000;"/>
    </defs>
    <g clip-path="url(#pa072b8ada0)">
     <use style="fill:#008000;stroke:#008000;" x="258.377143" xlink:href="#mae80e33415" y="150.745434"/>
    </g>
   </g>
   <g id="line2d_39">
    <defs>
     <path d="M 0 1.5 
C 0.397805 1.5 0.77937 1.341951 1.06066 1.06066 
C 1.341951 0.77937 1.5 0.397805 1.5 0 
C 1.5 -0.397805 1.341951 -0.77937 1.06066 -1.06066 
C 0.77937 -1.341951 0.397805 -1.5 0 -1.5 
C -0.397805 -1.5 -0.77937 -1.341951 -1.06066 -1.06066 
C -1.341951 -0.77937 -1.5 -0.397805 -1.5 0 
C -1.5 0.397805 -1.341951 0.77937 -1.06066 1.06066 
C -0.77937 1.341951 -0.397805 1.5 0 1.5 
z
" id="m4f5af7eab4" style="stroke:#0000ff;"/>
    </defs>
    <g>
     <use style="fill:#0000ff;stroke:#0000ff;" x="257.922628" xlink:href="#m4f5af7eab4" y="167.880893"/>
     <use style="fill:#0000ff;stroke:#0000ff;" x="257.922628" xlink:href="#m4f5af7eab4" y="167.880893"/>
    </g>
   </g>
   <g id="line2d_40">
    <path d="M 29.53256 298.944 
L 29.53256 292.460313 
L 84.955534 292.460313 
L 84.955534 291.997192 
L 88.255778 291.997192 
L 88.255778 291.534072 
L 93.863965 291.534072 
L 93.863965 291.070951 
L 98.100772 291.070951 
L 98.100772 288.292228 
L 101.506816 288.292228 
L 101.506816 286.902867 
L 104.355088 286.902867 
L 104.355088 285.513505 
L 106.802819 285.513505 
L 106.802819 284.124143 
L 108.948899 284.124143 
L 108.948899 281.808541 
L 110.859585 281.808541 
L 110.859585 280.8823 
L 112.58145 280.8823 
L 112.58145 279.956059 
L 114.148479 279.956059 
L 114.148479 278.566697 
L 115.586238 278.566697 
L 115.586238 277.640456 
L 116.914437 277.640456 
L 116.914437 275.787974 
L 118.148599 275.787974 
L 118.148599 273.935492 
L 119.301163 273.935492 
L 119.301163 271.619889 
L 120.382253 271.619889 
L 120.382253 271.156769 
L 121.400219 271.156769 
L 121.400219 268.841166 
L 122.362027 268.841166 
L 122.362027 265.599323 
L 123.273551 265.599323 
L 123.273551 262.8206 
L 124.139788 262.8206 
L 124.139788 261.431238 
L 124.965026 261.431238 
L 124.965026 257.726274 
L 125.752972 257.726274 
L 125.752972 255.873792 
L 126.50685 255.873792 
L 126.50685 253.558189 
L 127.229484 253.558189 
L 127.229484 252.168828 
L 127.923363 252.168828 
L 127.923363 249.390104 
L 128.590686 249.390104 
L 128.590686 247.074502 
L 129.233413 247.074502 
L 129.233413 245.22202 
L 129.853291 245.22202 
L 129.853291 242.906417 
L 130.45189 242.906417 
L 130.45189 239.201453 
L 131.030622 239.201453 
L 131.030622 235.959609 
L 132.133473 235.959609 
L 132.133473 235.033368 
L 132.659801 235.033368 
L 132.659801 233.644007 
L 133.170708 233.644007 
L 133.170708 233.180886 
L 133.667073 233.180886 
L 133.667073 231.791525 
L 134.149701 231.791525 
L 134.149701 230.402163 
L 134.61933 230.402163 
L 134.61933 227.62344 
L 135.076644 227.62344 
L 135.076644 223.918476 
L 135.522271 223.918476 
L 135.522271 222.992235 
L 135.956794 222.992235 
L 135.956794 216.508548 
L 136.380754 216.508548 
L 136.380754 214.656066 
L 136.79465 214.656066 
L 136.79465 212.803583 
L 137.198951 212.803583 
L 137.198951 211.414222 
L 137.594091 211.414222 
L 137.594091 210.487981 
L 138.358484 210.487981 
L 138.358484 210.02486 
L 145.350002 210.02486 
L 145.350002 209.56174 
L 147.907696 209.56174 
L 147.907696 208.635499 
L 149.305096 208.635499 
L 149.305096 208.172378 
L 154.043103 208.172378 
L 154.043103 207.709258 
L 155.514359 207.709258 
L 155.514359 207.246137 
L 161.384008 207.246137 
L 161.384008 206.319896 
L 165.295432 206.319896 
L 165.295432 205.393655 
L 171.635594 205.393655 
L 171.635594 204.467414 
L 173.307818 204.467414 
L 173.307818 204.004294 
L 174.532984 204.004294 
L 174.532984 203.078053 
L 179.242944 203.078053 
L 179.242944 202.151812 
L 180.008367 202.151812 
L 180.008367 201.688691 
L 183.467024 201.688691 
L 183.467024 201.225571 
L 192.281031 201.225571 
L 192.281031 200.76245 
L 194.893945 200.76245 
L 194.893945 200.299329 
L 195.101346 200.299329 
L 195.101346 199.373088 
L 195.994682 199.373088 
L 195.994682 197.983727 
L 199.963327 197.983727 
L 199.963327 197.520606 
L 205.842513 197.520606 
L 205.842513 196.594365 
L 210.363966 196.594365 
L 210.363966 196.131245 
L 210.921437 196.131245 
L 210.921437 195.205004 
L 215.574024 195.205004 
L 215.574024 194.278763 
L 220.67422 194.278763 
L 220.67422 193.815642 
L 221.546573 193.815642 
L 221.546573 193.352522 
L 225.902777 193.352522 
L 225.902777 192.426281 
L 226.116118 192.426281 
L 226.116118 191.96316 
L 226.736848 191.96316 
L 226.736848 191.50004 
L 227.73554 191.50004 
L 227.73554 190.573799 
L 227.861216 190.573799 
L 227.930914 187.331955 
L 228.02023 187.331955 
L 228.02023 184.090111 
L 238.344824 184.090111 
L 238.383175 182.70075 
L 239.787209 182.70075 
L 239.787209 182.237629 
L 240.204103 182.237629 
L 240.204103 181.311388 
L 241.891926 181.311388 
L 241.947758 179.922027 
L 243.798193 179.922027 
L 243.798193 179.458906 
L 244.367755 179.458906 
L 244.424206 177.143304 
L 244.486973 177.143304 
L 244.486973 175.753942 
L 245.186477 175.753942 
L 245.186477 175.290821 
L 245.881153 175.290821 
L 245.881153 174.36458 
L 246.336664 174.36458 
L 246.336664 173.438339 
L 246.501936 173.438339 
L 246.501936 172.975219 
L 246.726512 172.975219 
L 246.821426 171.122737 
L 247.04115 171.122737 
L 247.04115 170.659616 
L 248.296639 170.659616 
L 248.296639 170.196496 
L 248.649478 170.196496 
L 248.649478 169.733375 
L 254.141187 169.733375 
L 254.141187 169.270255 
L 256.818992 169.270255 
L 256.842012 168.344014 
L 257.922628 168.344014 
L 257.922628 167.880893 
L 338.688 167.880893 
L 338.688 167.880893 
" style="fill:none;stroke:#0000ff;stroke-linecap:square;stroke-width:1.5;"/>
   </g>
   <g id="line2d_41">
    <defs>
     <path d="M 0 -6 
L -1.347084 -1.854102 
L -5.706339 -1.854102 
L -2.179628 0.708204 
L -3.526712 4.854102 
L -0 2.291796 
L 3.526712 4.854102 
L 2.179628 0.708204 
L 5.706339 -1.854102 
L 1.347084 -1.854102 
z
" id="m3c4afd9ece" style="stroke:#0000ff;stroke-linejoin:bevel;stroke-width:1.5;"/>
    </defs>
    <g>
     <use style="fill-opacity:0;stroke:#0000ff;stroke-linejoin:bevel;stroke-width:1.5;" x="124.965026" xlink:href="#m3c4afd9ece" y="261.431238"/>
     <use style="fill-opacity:0;stroke:#0000ff;stroke-linejoin:bevel;stroke-width:1.5;" x="199.963327" xlink:href="#m3c4afd9ece" y="197.983727"/>
     <use style="fill-opacity:0;stroke:#0000ff;stroke-linejoin:bevel;stroke-width:1.5;" x="257.922628" xlink:href="#m3c4afd9ece" y="168.344014"/>
     <use style="fill-opacity:0;stroke:#0000ff;stroke-linejoin:bevel;stroke-width:1.5;" x="257.922628" xlink:href="#m3c4afd9ece" y="167.880893"/>
     <use style="fill-opacity:0;stroke:#0000ff;stroke-linejoin:bevel;stroke-width:1.5;" x="257.922628" xlink:href="#m3c4afd9ece" y="167.880893"/>
     <use style="fill-opacity:0;stroke:#0000ff;stroke-linejoin:bevel;stroke-width:1.5;" x="338.688" xlink:href="#m3c4afd9ece" y="167.880893"/>
    </g>
   </g>
   <g id="line2d_42">
    <path style="fill:none;stroke:#0000ff;stroke-linecap:square;stroke-width:1.5;"/>
    <g/>
   </g>
   <g id="line2d_43">
    <path clip-path="url(#pa072b8ada0)" d="M 258.377143 167.880893 
" style="fill:none;stroke:#0000ff;stroke-linecap:square;stroke-width:1.5;"/>
    <defs>
     <path d="M -12 12 
L 12 -12 
M -12 -12 
L 12 12 
" id="m5b33907b6a" style="stroke:#0000ff;"/>
    </defs>
    <g clip-path="url(#pa072b8ada0)">
     <use style="fill:#0000ff;stroke:#0000ff;" x="258.377143" xlink:href="#m5b33907b6a" y="167.880893"/>
    </g>
   </g>
   <g id="line2d_44">
    <defs>
     <path d="M 0 1.5 
C 0.397805 1.5 0.77937 1.341951 1.06066 1.06066 
C 1.341951 0.77937 1.5 0.397805 1.5 0 
C 1.5 -0.397805 1.341951 -0.77937 1.06066 -1.06066 
C 0.77937 -1.341951 0.397805 -1.5 0 -1.5 
C -0.397805 -1.5 -0.77937 -1.341951 -1.06066 -1.06066 
C -1.341951 -0.77937 -1.5 -0.397805 -1.5 0 
C -1.5 0.397805 -1.341951 0.77937 -1.06066 1.06066 
C -0.77937 1.341951 -0.397805 1.5 0 1.5 
z
" id="m664cc0ef59" style="stroke:#000000;"/>
    </defs>
    <g>
     <use style="stroke:#000000;" x="257.594501" xlink:href="#m664cc0ef59" y="161.860326"/>
     <use style="stroke:#000000;" x="257.594501" xlink:href="#m664cc0ef59" y="161.860326"/>
    </g>
   </g>
   <g id="line2d_45">
    <path d="M 17.444571 298.944 
L 17.444571 298.480879 
L 94.294587 298.480879 
L 94.294587 298.017759 
L 104.23523 298.017759 
L 104.23523 297.554638 
L 106.593963 297.554638 
L 106.593963 297.091518 
L 108.671345 297.091518 
L 108.671345 296.628397 
L 110.527398 296.628397 
L 110.527398 295.239036 
L 112.204777 295.239036 
L 112.204777 294.775915 
L 113.73488 294.775915 
L 113.73488 293.849674 
L 115.141496 293.849674 
L 115.141496 291.534072 
L 116.443076 291.534072 
L 116.443076 290.607831 
L 117.654224 290.607831 
L 117.654224 289.68159 
L 118.786692 289.68159 
L 118.786692 288.292228 
L 119.850084 288.292228 
L 119.850084 286.439746 
L 120.852343 286.439746 
L 120.852343 283.661023 
L 121.800118 283.661023 
L 121.800118 280.8823 
L 122.699028 280.8823 
L 122.699028 276.714215 
L 123.553867 276.714215 
L 123.553867 273.935492 
L 124.368753 273.935492 
L 124.368753 272.08301 
L 125.147256 272.08301 
L 125.147256 269.767407 
L 125.892487 269.767407 
L 125.892487 265.136202 
L 126.607172 265.136202 
L 126.607172 263.746841 
L 127.293718 263.746841 
L 127.293718 260.968117 
L 127.954256 260.968117 
L 127.954256 259.115635 
L 128.590686 259.115635 
L 128.590686 257.726274 
L 129.204706 257.726274 
L 129.204706 254.02131 
L 129.79784 254.02131 
L 129.79784 251.242587 
L 130.371462 251.242587 
L 130.371462 247.074502 
L 130.926816 247.074502 
L 130.926816 243.369538 
L 131.465029 243.369538 
L 131.465029 242.443297 
L 131.987128 242.443297 
L 131.987128 240.127694 
L 132.494049 240.127694 
L 132.494049 239.201453 
L 132.986651 239.201453 
L 132.986651 236.88585 
L 133.46572 236.88585 
L 133.46572 235.496489 
L 133.931979 235.496489 
L 133.931979 233.180886 
L 134.386096 233.180886 
L 134.386096 228.549681 
L 134.828688 228.549681 
L 134.828688 225.770958 
L 135.260324 225.770958 
L 135.260324 225.307837 
L 135.681535 225.307837 
L 135.681535 224.381596 
L 136.092812 224.381596 
L 136.092812 223.455355 
L 136.494612 223.455355 
L 136.494612 222.992235 
L 136.887363 222.992235 
L 136.887363 222.529114 
L 137.271464 222.529114 
L 137.271464 222.065994 
L 138.375473 222.065994 
L 138.375473 221.139753 
L 139.413734 221.139753 
L 139.413734 220.676632 
L 140.393639 220.676632 
L 140.393639 219.750391 
L 140.708409 219.750391 
L 140.708409 217.897909 
L 141.321401 217.897909 
L 141.321401 217.434789 
L 142.20229 217.434789 
L 142.20229 216.971668 
L 142.765762 216.971668 
L 142.765762 216.045427 
L 143.840863 216.045427 
L 143.840863 215.119186 
L 145.576196 215.119186 
L 145.576196 213.729825 
L 147.368603 213.729825 
L 147.368603 212.803583 
L 147.580235 212.803583 
L 147.580235 212.340463 
L 149.18674 212.340463 
L 149.18674 211.877342 
L 152.0141 211.877342 
L 152.0141 211.414222 
L 152.654705 211.414222 
L 152.654705 210.951101 
L 177.46123 210.951101 
L 177.46123 210.487981 
L 181.279236 210.487981 
L 181.279236 210.02486 
L 191.602668 210.02486 
L 191.602668 209.56174 
L 198.682246 209.56174 
L 198.682246 209.098619 
L 203.499427 209.098619 
L 203.499427 208.635499 
L 205.694348 208.635499 
L 205.694348 207.709258 
L 211.271738 207.709258 
L 211.271738 206.783017 
L 215.402267 206.783017 
L 215.402267 205.856776 
L 216.251844 205.856776 
L 216.251844 205.393655 
L 217.440276 205.393655 
L 217.440276 204.467414 
L 218.210375 204.467414 
L 218.210375 204.004294 
L 220.485476 204.004294 
L 220.485476 203.541173 
L 221.594787 203.541173 
L 221.594787 202.614932 
L 222.91188 202.614932 
L 222.91188 201.688691 
L 224.158918 201.688691 
L 224.158918 201.225571 
L 226.587017 201.225571 
L 226.587017 200.76245 
L 227.934511 200.76245 
L 227.934511 199.373088 
L 228.118092 199.373088 
L 228.118092 198.446847 
L 238.379333 198.446847 
L 238.379333 197.520606 
L 238.737986 197.520606 
L 238.737986 196.594365 
L 239.174744 196.594365 
L 239.174744 195.205004 
L 239.332578 195.205004 
L 239.332578 191.96316 
L 239.57727 191.96316 
L 239.57727 188.721316 
L 239.803355 188.721316 
L 239.803355 185.942593 
L 240.18184 185.942593 
L 240.18476 183.626991 
L 241.21783 183.626991 
L 241.21783 182.70075 
L 243.397152 182.70075 
L 243.423769 181.311388 
L 243.612209 181.311388 
L 243.704842 178.069545 
L 245.282112 178.069545 
L 245.292788 177.143304 
L 245.433986 177.143304 
L 245.471457 173.438339 
L 246.53873 173.438339 
L 246.53873 172.975219 
L 246.909803 172.975219 
L 246.909803 172.048978 
L 248.156658 172.048978 
L 248.156658 171.585857 
L 251.050606 171.585857 
L 251.050606 171.122737 
L 252.389959 171.122737 
L 252.389959 170.659616 
L 255.990517 170.659616 
L 255.990517 170.196496 
L 256.126643 170.196496 
L 256.126643 169.270255 
L 256.534751 169.270255 
L 256.55329 166.491532 
L 256.673749 166.491532 
L 256.698325 162.323447 
L 257.594501 162.323447 
L 257.594501 161.860326 
L 338.688 161.860326 
L 338.688 161.860326 
" style="fill:none;stroke:#000000;stroke-linecap:square;stroke-width:1.5;"/>
   </g>
   <g id="line2d_46">
    <defs>
     <path d="M 0 6 
C 1.591219 6 3.117479 5.367802 4.242641 4.242641 
C 5.367802 3.117479 6 1.591219 6 0 
C 6 -1.591219 5.367802 -3.117479 4.242641 -4.242641 
C 3.117479 -5.367802 1.591219 -6 0 -6 
C -1.591219 -6 -3.117479 -5.367802 -4.242641 -4.242641 
C -5.367802 -3.117479 -6 -1.591219 -6 0 
C -6 1.591219 -5.367802 3.117479 -4.242641 4.242641 
C -3.117479 5.367802 -1.591219 6 0 6 
z
" id="m48cbee96a1" style="stroke:#000000;stroke-width:1.5;"/>
    </defs>
    <g>
     <use style="fill-opacity:0;stroke:#000000;stroke-width:1.5;" x="126.607172" xlink:href="#m48cbee96a1" y="265.136202"/>
     <use style="fill-opacity:0;stroke:#000000;stroke-width:1.5;" x="152.654705" xlink:href="#m48cbee96a1" y="210.951101"/>
     <use style="fill-opacity:0;stroke:#000000;stroke-width:1.5;" x="243.704842" xlink:href="#m48cbee96a1" y="179.922027"/>
     <use style="fill-opacity:0;stroke:#000000;stroke-width:1.5;" x="257.594501" xlink:href="#m48cbee96a1" y="161.860326"/>
     <use style="fill-opacity:0;stroke:#000000;stroke-width:1.5;" x="257.594501" xlink:href="#m48cbee96a1" y="161.860326"/>
     <use style="fill-opacity:0;stroke:#000000;stroke-width:1.5;" x="338.688" xlink:href="#m48cbee96a1" y="161.860326"/>
    </g>
   </g>
   <g id="line2d_47">
    <path style="fill:none;stroke:#000000;stroke-linecap:square;stroke-width:1.5;"/>
    <g/>
   </g>
   <g id="line2d_48">
    <path clip-path="url(#pa072b8ada0)" d="M 258.377143 161.860326 
" style="fill:none;stroke:#000000;stroke-linecap:square;stroke-width:1.5;"/>
    <defs>
     <path d="M -12 12 
L 12 -12 
M -12 -12 
L 12 12 
" id="m16a96e8124" style="stroke:#000000;"/>
    </defs>
    <g clip-path="url(#pa072b8ada0)">
     <use style="stroke:#000000;" x="258.377143" xlink:href="#m16a96e8124" y="161.860326"/>
    </g>
   </g>
   <g id="line2d_49">
    <defs>
     <path d="M 0 1.5 
C 0.397805 1.5 0.77937 1.341951 1.06066 1.06066 
C 1.341951 0.77937 1.5 0.397805 1.5 0 
C 1.5 -0.397805 1.341951 -0.77937 1.06066 -1.06066 
C 0.77937 -1.341951 0.397805 -1.5 0 -1.5 
C -0.397805 -1.5 -0.77937 -1.341951 -1.06066 -1.06066 
C -1.341951 -0.77937 -1.5 -0.397805 -1.5 0 
C -1.5 0.397805 -1.341951 0.77937 -1.06066 1.06066 
C -0.77937 1.341951 -0.397805 1.5 0 1.5 
z
" id="md787fc3c7c" style="stroke:#ff0000;"/>
    </defs>
    <g>
     <use style="fill:#ff0000;stroke:#ff0000;" x="257.268139" xlink:href="#md787fc3c7c" y="202.151812"/>
     <use style="fill:#ff0000;stroke:#ff0000;" x="257.268139" xlink:href="#md787fc3c7c" y="202.151812"/>
    </g>
   </g>
   <g id="line2d_50">
    <path d="M 5.356583 298.944 
L 5.356583 298.017759 
L 76.465904 298.017759 
L 76.465904 297.554638 
L 85.840967 297.554638 
L 85.840967 297.091518 
L 91.782644 297.091518 
L 91.782644 296.628397 
L 99.731799 296.628397 
L 99.731799 295.239036 
L 102.66306 295.239036 
L 102.66306 294.312795 
L 105.171792 294.312795 
L 105.171792 292.923433 
L 107.364602 292.923433 
L 107.364602 291.997192 
L 109.31223 291.997192 
L 109.31223 290.607831 
L 111.064034 290.607831 
L 111.064034 288.292228 
L 112.655818 288.292228 
L 112.655818 287.365987 
L 114.114385 287.365987 
L 114.114385 285.050384 
L 115.460322 285.050384 
L 115.460322 283.661023 
L 116.709783 283.661023 
L 116.709783 280.8823 
L 117.875678 280.8823 
L 117.875678 278.103577 
L 118.968488 278.103577 
L 118.968488 276.251095 
L 119.996839 276.251095 
L 119.996839 273.935492 
L 120.967912 273.935492 
L 120.967912 269.767407 
L 121.887753 269.767407 
L 121.887753 267.914925 
L 122.761498 267.914925 
L 122.761498 264.673082 
L 123.593547 264.673082 
L 123.593547 261.431238 
L 124.387699 261.431238 
L 124.387699 259.578756 
L 125.147256 259.578756 
L 125.147256 258.652515 
L 125.875108 258.652515 
L 125.875108 255.873792 
L 126.573795 255.873792 
L 126.573795 253.095069 
L 127.245565 253.095069 
L 127.245565 252.168828 
L 127.892415 252.168828 
L 127.892415 251.705707 
L 128.516128 251.705707 
L 128.516128 250.316346 
L 129.118302 250.316346 
L 129.118302 249.390104 
L 130.809292 249.390104 
L 130.809292 247.537622 
L 131.338382 247.537622 
L 131.338382 247.074502 
L 134.214491 247.074502 
L 134.214491 245.22202 
L 135.076644 245.22202 
L 135.076644 244.758899 
L 135.898175 244.758899 
L 135.898175 244.295779 
L 143.305197 244.295779 
L 143.305197 243.369538 
L 146.638733 243.369538 
L 146.638733 242.906417 
L 147.277111 242.906417 
L 147.277111 242.443297 
L 147.484815 242.443297 
L 147.484815 241.980176 
L 150.510097 241.980176 
L 150.510097 241.517056 
L 206.783801 241.517056 
L 206.783801 241.053935 
L 210.146284 241.053935 
L 210.146284 240.127694 
L 212.916252 240.127694 
L 212.916252 238.738333 
L 214.593871 238.738333 
L 214.593871 237.812091 
L 224.116993 237.812091 
L 224.116993 237.348971 
L 226.809152 237.348971 
L 226.809152 236.42273 
L 228.474374 236.42273 
L 228.474374 235.959609 
L 229.82215 235.959609 
L 229.82215 234.570248 
L 230.197338 234.570248 
L 230.197338 231.791525 
L 230.853355 231.791525 
L 230.853355 231.328404 
L 232.516741 231.328404 
L 232.516741 230.865284 
L 234.021174 230.865284 
L 234.028044 229.012802 
L 234.773312 229.012802 
L 234.773312 228.549681 
L 235.412381 228.549681 
L 235.432576 226.234079 
L 236.718943 226.234079 
L 236.718943 225.307837 
L 237.576452 225.307837 
L 237.576452 224.844717 
L 237.963576 224.844717 
L 237.963576 223.918476 
L 238.835215 223.918476 
L 238.835215 222.529114 
L 241.483336 222.529114 
L 241.483336 221.602873 
L 242.136864 221.602873 
L 242.136864 220.676632 
L 242.319782 220.676632 
L 242.319782 220.213512 
L 244.530738 220.213512 
L 244.555392 218.36103 
L 245.199514 218.36103 
L 245.199514 217.434789 
L 245.340325 217.434789 
L 245.340325 216.508548 
L 245.801278 216.508548 
L 245.801278 216.045427 
L 247.730967 216.045427 
L 247.763049 215.119186 
L 248.035088 215.119186 
L 248.051615 212.803583 
L 248.30343 212.803583 
L 248.38852 210.02486 
L 248.477028 210.02486 
L 248.479135 206.783017 
L 251.260057 206.783017 
L 251.260057 205.856776 
L 253.372482 205.856776 
L 253.372482 205.393655 
L 254.101376 205.393655 
L 254.101376 204.004294 
L 254.303108 204.004294 
L 254.303108 203.541173 
L 254.576237 203.541173 
L 254.576237 203.078053 
L 257.268139 203.078053 
L 257.268139 202.151812 
L 338.688 202.151812 
L 338.688 202.151812 
" style="fill:none;stroke:#ff0000;stroke-linecap:square;stroke-width:1.5;"/>
   </g>
   <g id="line2d_51">
    <defs>
     <path d="M -6 6 
L 6 6 
L 6 -6 
L -6 -6 
z
" id="m1409ac84f6" style="stroke:#ff0000;stroke-linejoin:miter;stroke-width:1.5;"/>
    </defs>
    <g>
     <use style="fill-opacity:0;stroke:#ff0000;stroke-linejoin:miter;stroke-width:1.5;" x="111.064034" xlink:href="#m1409ac84f6" y="290.607831"/>
     <use style="fill-opacity:0;stroke:#ff0000;stroke-linejoin:miter;stroke-width:1.5;" x="150.510097" xlink:href="#m1409ac84f6" y="241.517056"/>
     <use style="fill-opacity:0;stroke:#ff0000;stroke-linejoin:miter;stroke-width:1.5;" x="238.835215" xlink:href="#m1409ac84f6" y="223.918476"/>
     <use style="fill-opacity:0;stroke:#ff0000;stroke-linejoin:miter;stroke-width:1.5;" x="257.268139" xlink:href="#m1409ac84f6" y="202.151812"/>
     <use style="fill-opacity:0;stroke:#ff0000;stroke-linejoin:miter;stroke-width:1.5;" x="257.268139" xlink:href="#m1409ac84f6" y="202.151812"/>
     <use style="fill-opacity:0;stroke:#ff0000;stroke-linejoin:miter;stroke-width:1.5;" x="338.688" xlink:href="#m1409ac84f6" y="202.151812"/>
    </g>
   </g>
   <g id="line2d_52">
    <path style="fill:none;stroke:#ff0000;stroke-linecap:square;stroke-width:1.5;"/>
    <g/>
   </g>
   <g id="line2d_53">
    <path clip-path="url(#pa072b8ada0)" d="M 258.377143 202.151812 
" style="fill:none;stroke:#ff0000;stroke-linecap:square;stroke-width:1.5;"/>
    <defs>
     <path d="M -12 12 
L 12 -12 
M -12 -12 
L 12 12 
" id="mc8b3c87559" style="stroke:#ff0000;"/>
    </defs>
    <g clip-path="url(#pa072b8ada0)">
     <use style="fill:#ff0000;stroke:#ff0000;" x="258.377143" xlink:href="#mc8b3c87559" y="202.151812"/>
    </g>
   </g>
   <g id="line2d_54">
    <path d="M 338.688 202.151812 
L 369.60768 293.571802 
" style="fill:none;stroke:#ff0000;stroke-linecap:square;stroke-width:1.5;"/>
    <g>
     <use style="fill-opacity:0;stroke:#ff0000;stroke-linejoin:miter;stroke-width:1.5;" x="338.688" xlink:href="#m1409ac84f6" y="202.151812"/>
     <use style="fill-opacity:0;stroke:#ff0000;stroke-linejoin:miter;stroke-width:1.5;" x="369.60768" xlink:href="#m1409ac84f6" y="293.571802"/>
    </g>
   </g>
   <g id="line2d_55">
    <path d="M 338.688 167.880893 
L 369.60768 229.105426 
" style="fill:none;stroke:#0000ff;stroke-linecap:square;stroke-width:1.5;"/>
    <g>
     <use style="fill-opacity:0;stroke:#0000ff;stroke-linejoin:bevel;stroke-width:1.5;" x="338.688" xlink:href="#m3c4afd9ece" y="167.880893"/>
     <use style="fill-opacity:0;stroke:#0000ff;stroke-linejoin:bevel;stroke-width:1.5;" x="369.60768" xlink:href="#m3c4afd9ece" y="229.105426"/>
    </g>
   </g>
   <g id="line2d_56">
    <path d="M 338.688 161.860326 
L 369.60768 164.63905 
" style="fill:none;stroke:#000000;stroke-linecap:square;stroke-width:1.5;"/>
    <g>
     <use style="fill-opacity:0;stroke:#000000;stroke-width:1.5;" x="338.688" xlink:href="#m48cbee96a1" y="161.860326"/>
     <use style="fill-opacity:0;stroke:#000000;stroke-width:1.5;" x="369.60768" xlink:href="#m48cbee96a1" y="164.63905"/>
    </g>
   </g>
   <g id="line2d_57">
    <path d="M 338.688 150.745434 
L 369.60768 100.172673 
" style="fill:none;stroke:#008000;stroke-linecap:square;stroke-width:1.5;"/>
    <g>
     <use style="fill-opacity:0;stroke:#008000;stroke-linejoin:miter;stroke-width:1.5;" x="338.688" xlink:href="#mc0027658c1" y="150.745434"/>
     <use style="fill-opacity:0;stroke:#008000;stroke-linejoin:miter;stroke-width:1.5;" x="369.60768" xlink:href="#mc0027658c1" y="100.172673"/>
    </g>
   </g>
   <g id="line2d_58">
    <path d="M 338.688 82.203597 
L 369.60768 35.706297 
" style="fill:none;stroke:#00bfbf;stroke-linecap:square;stroke-width:1.5;"/>
    <g>
     <use style="fill-opacity:0;stroke:#00bfbf;stroke-width:1.5;" x="338.688" xlink:href="#mc40a6f02f9" y="82.203597"/>
     <use style="fill-opacity:0;stroke:#00bfbf;stroke-width:1.5;" x="369.60768" xlink:href="#mc40a6f02f9" y="35.706297"/>
    </g>
   </g>
   <g id="line2d_59">
    <path d="M 338.688 298.944 
L 338.688 30.334099 
" style="fill:none;stroke:#000000;stroke-linecap:square;stroke-width:1.5;"/>
   </g>
   <g id="patch_3">
    <path d="M 57.6 298.944 
L 57.6 27.648 
" style="fill:none;stroke:#000000;stroke-linecap:square;stroke-linejoin:miter;stroke-width:0.8;"/>
   </g>
   <g id="patch_4">
    <path d="M 338.688 298.944 
L 338.688 27.648 
" style="fill:none;stroke:#000000;stroke-linecap:square;stroke-linejoin:miter;stroke-width:0.8;"/>
   </g>
   <g id="patch_5">
    <path d="M 57.6 298.944 
L 338.688 298.944 
" style="fill:none;stroke:#000000;stroke-linecap:square;stroke-linejoin:miter;stroke-width:0.8;"/>
   </g>
   <g id="patch_6">
    <path d="M 57.6 27.648 
L 338.688 27.648 
" style="fill:none;stroke:#000000;stroke-linecap:square;stroke-linejoin:miter;stroke-width:0.8;"/>
   </g>
   <g id="text_13">
    <!-- 20-D -->
    <g transform="translate(375.22944 298.262739)scale(0.17 -0.17)">
     <defs>
      <path d="M 19.671875 64.796875 
L 19.671875 8.109375 
L 31.59375 8.109375 
Q 46.6875 8.109375 53.6875 14.9375 
Q 60.6875 21.78125 60.6875 36.53125 
Q 60.6875 51.171875 53.6875 57.984375 
Q 46.6875 64.796875 31.59375 64.796875 
z
M 9.8125 72.90625 
L 30.078125 72.90625 
Q 51.265625 72.90625 61.171875 64.09375 
Q 71.09375 55.28125 71.09375 36.53125 
Q 71.09375 17.671875 61.125 8.828125 
Q 51.171875 0 30.078125 0 
L 9.8125 0 
z
" id="DejaVuSans-68"/>
     </defs>
     <use xlink:href="#DejaVuSans-50"/>
     <use x="63.623047" xlink:href="#DejaVuSans-48"/>
     <use x="127.246094" xlink:href="#DejaVuSans-45"/>
     <use x="163.330078" xlink:href="#DejaVuSans-68"/>
    </g>
   </g>
   <g id="text_14">
    <!-- 5-D -->
    <g transform="translate(375.22944 233.796363)scale(0.17 -0.17)">
     <defs>
      <path d="M 10.796875 72.90625 
L 49.515625 72.90625 
L 49.515625 64.59375 
L 19.828125 64.59375 
L 19.828125 46.734375 
Q 21.96875 47.46875 24.109375 47.828125 
Q 26.265625 48.1875 28.421875 48.1875 
Q 40.625 48.1875 47.75 41.5 
Q 54.890625 34.8125 54.890625 23.390625 
Q 54.890625 11.625 47.5625 5.09375 
Q 40.234375 -1.421875 26.90625 -1.421875 
Q 22.3125 -1.421875 17.546875 -0.640625 
Q 12.796875 0.140625 7.71875 1.703125 
L 7.71875 11.625 
Q 12.109375 9.234375 16.796875 8.0625 
Q 21.484375 6.890625 26.703125 6.890625 
Q 35.15625 6.890625 40.078125 11.328125 
Q 45.015625 15.765625 45.015625 23.390625 
Q 45.015625 31 40.078125 35.4375 
Q 35.15625 39.890625 26.703125 39.890625 
Q 22.75 39.890625 18.8125 39.015625 
Q 14.890625 38.140625 10.796875 36.28125 
z
" id="DejaVuSans-53"/>
     </defs>
     <use xlink:href="#DejaVuSans-53"/>
     <use x="63.623047" xlink:href="#DejaVuSans-45"/>
     <use x="99.707031" xlink:href="#DejaVuSans-68"/>
    </g>
   </g>
   <g id="text_15">
    <!-- 10-D -->
    <g transform="translate(375.22944 169.329987)scale(0.17 -0.17)">
     <use xlink:href="#DejaVuSans-49"/>
     <use x="63.623047" xlink:href="#DejaVuSans-48"/>
     <use x="127.246094" xlink:href="#DejaVuSans-45"/>
     <use x="163.330078" xlink:href="#DejaVuSans-68"/>
    </g>
   </g>
   <g id="text_16">
    <!-- 3-D -->
    <g transform="translate(375.22944 104.863611)scale(0.17 -0.17)">
     <defs>
      <path d="M 40.578125 39.3125 
Q 47.65625 37.796875 51.625 33 
Q 55.609375 28.21875 55.609375 21.1875 
Q 55.609375 10.40625 48.1875 4.484375 
Q 40.765625 -1.421875 27.09375 -1.421875 
Q 22.515625 -1.421875 17.65625 -0.515625 
Q 12.796875 0.390625 7.625 2.203125 
L 7.625 11.71875 
Q 11.71875 9.328125 16.59375 8.109375 
Q 21.484375 6.890625 26.8125 6.890625 
Q 36.078125 6.890625 40.9375 10.546875 
Q 45.796875 14.203125 45.796875 21.1875 
Q 45.796875 27.640625 41.28125 31.265625 
Q 36.765625 34.90625 28.71875 34.90625 
L 20.21875 34.90625 
L 20.21875 43.015625 
L 29.109375 43.015625 
Q 36.375 43.015625 40.234375 45.921875 
Q 44.09375 48.828125 44.09375 54.296875 
Q 44.09375 59.90625 40.109375 62.90625 
Q 36.140625 65.921875 28.71875 65.921875 
Q 24.65625 65.921875 20.015625 65.03125 
Q 15.375 64.15625 9.8125 62.3125 
L 9.8125 71.09375 
Q 15.4375 72.65625 20.34375 73.4375 
Q 25.25 74.21875 29.59375 74.21875 
Q 40.828125 74.21875 47.359375 69.109375 
Q 53.90625 64.015625 53.90625 55.328125 
Q 53.90625 49.265625 50.4375 45.09375 
Q 46.96875 40.921875 40.578125 39.3125 
z
" id="DejaVuSans-51"/>
     </defs>
     <use xlink:href="#DejaVuSans-51"/>
     <use x="63.623047" xlink:href="#DejaVuSans-45"/>
     <use x="99.707031" xlink:href="#DejaVuSans-68"/>
    </g>
   </g>
   <g id="text_17">
    <!-- 2-D -->
    <g transform="translate(375.22944 40.397235)scale(0.17 -0.17)">
     <use xlink:href="#DejaVuSans-50"/>
     <use x="63.623047" xlink:href="#DejaVuSans-45"/>
     <use x="99.707031" xlink:href="#DejaVuSans-68"/>
    </g>
   </g>
   <g id="text_18">
    <!-- bbob-biobj f53 -->
    <g transform="translate(60.41088 38.111366)scale(0.102 -0.102)">
     <defs>
      <path d="M 48.6875 27.296875 
Q 48.6875 37.203125 44.609375 42.84375 
Q 40.53125 48.484375 33.40625 48.484375 
Q 26.265625 48.484375 22.1875 42.84375 
Q 18.109375 37.203125 18.109375 27.296875 
Q 18.109375 17.390625 22.1875 11.75 
Q 26.265625 6.109375 33.40625 6.109375 
Q 40.53125 6.109375 44.609375 11.75 
Q 48.6875 17.390625 48.6875 27.296875 
z
M 18.109375 46.390625 
Q 20.953125 51.265625 25.265625 53.625 
Q 29.59375 56 35.59375 56 
Q 45.5625 56 51.78125 48.09375 
Q 58.015625 40.1875 58.015625 27.296875 
Q 58.015625 14.40625 51.78125 6.484375 
Q 45.5625 -1.421875 35.59375 -1.421875 
Q 29.59375 -1.421875 25.265625 0.953125 
Q 20.953125 3.328125 18.109375 8.203125 
L 18.109375 0 
L 9.078125 0 
L 9.078125 75.984375 
L 18.109375 75.984375 
z
" id="DejaVuSans-98"/>
      <path d="M 9.421875 54.6875 
L 18.40625 54.6875 
L 18.40625 -0.984375 
Q 18.40625 -11.421875 14.421875 -16.109375 
Q 10.453125 -20.796875 1.609375 -20.796875 
L -1.8125 -20.796875 
L -1.8125 -13.1875 
L 0.59375 -13.1875 
Q 5.71875 -13.1875 7.5625 -10.8125 
Q 9.421875 -8.453125 9.421875 -0.984375 
z
M 9.421875 75.984375 
L 18.40625 75.984375 
L 18.40625 64.59375 
L 9.421875 64.59375 
z
" id="DejaVuSans-106"/>
     </defs>
     <use xlink:href="#DejaVuSans-98"/>
     <use x="63.476562" xlink:href="#DejaVuSans-98"/>
     <use x="126.953125" xlink:href="#DejaVuSans-111"/>
     <use x="188.134766" xlink:href="#DejaVuSans-98"/>
     <use x="251.611328" xlink:href="#DejaVuSans-45"/>
     <use x="287.695312" xlink:href="#DejaVuSans-98"/>
     <use x="351.171875" xlink:href="#DejaVuSans-105"/>
     <use x="378.955078" xlink:href="#DejaVuSans-111"/>
     <use x="440.136719" xlink:href="#DejaVuSans-98"/>
     <use x="503.613281" xlink:href="#DejaVuSans-106"/>
     <use x="531.396484" xlink:href="#DejaVuSans-32"/>
     <use x="563.183594" xlink:href="#DejaVuSans-102"/>
     <use x="598.388672" xlink:href="#DejaVuSans-53"/>
     <use x="662.011719" xlink:href="#DejaVuSans-51"/>
    </g>
    <!-- 58 targets: 1..-1.0e-4 -->
    <g transform="translate(60.41088 49.533135)scale(0.102 -0.102)">
     <defs>
      <path d="M 11.71875 12.40625 
L 22.015625 12.40625 
L 22.015625 0 
L 11.71875 0 
z
M 11.71875 51.703125 
L 22.015625 51.703125 
L 22.015625 39.3125 
L 11.71875 39.3125 
z
" id="DejaVuSans-58"/>
     </defs>
     <use xlink:href="#DejaVuSans-53"/>
     <use x="63.623047" xlink:href="#DejaVuSans-56"/>
     <use x="127.246094" xlink:href="#DejaVuSans-32"/>
     <use x="159.033203" xlink:href="#DejaVuSans-116"/>
     <use x="198.242188" xlink:href="#DejaVuSans-97"/>
     <use x="259.521484" xlink:href="#DejaVuSans-114"/>
     <use x="298.884766" xlink:href="#DejaVuSans-103"/>
     <use x="362.361328" xlink:href="#DejaVuSans-101"/>
     <use x="423.884766" xlink:href="#DejaVuSans-116"/>
     <use x="463.09375" xlink:href="#DejaVuSans-115"/>
     <use x="515.193359" xlink:href="#DejaVuSans-58"/>
     <use x="548.884766" xlink:href="#DejaVuSans-32"/>
     <use x="580.671875" xlink:href="#DejaVuSans-49"/>
     <use x="644.294922" xlink:href="#DejaVuSans-46"/>
     <use x="676.082031" xlink:href="#DejaVuSans-46"/>
     <use x="707.869141" xlink:href="#DejaVuSans-45"/>
     <use x="743.953125" xlink:href="#DejaVuSans-49"/>
     <use x="807.576172" xlink:href="#DejaVuSans-46"/>
     <use x="839.363281" xlink:href="#DejaVuSans-48"/>
     <use x="902.986328" xlink:href="#DejaVuSans-101"/>
     <use x="964.509766" xlink:href="#DejaVuSans-45"/>
     <use x="1000.59375" xlink:href="#DejaVuSans-52"/>
    </g>
    <!-- 10 instances -->
    <g transform="translate(60.41088 60.954904)scale(0.102 -0.102)">
     <use xlink:href="#DejaVuSans-49"/>
     <use x="63.623047" xlink:href="#DejaVuSans-48"/>
     <use x="127.246094" xlink:href="#DejaVuSans-32"/>
     <use x="159.033203" xlink:href="#DejaVuSans-105"/>
     <use x="186.816406" xlink:href="#DejaVuSans-110"/>
     <use x="250.195312" xlink:href="#DejaVuSans-115"/>
     <use x="302.294922" xlink:href="#DejaVuSans-116"/>
     <use x="341.503906" xlink:href="#DejaVuSans-97"/>
     <use x="402.783203" xlink:href="#DejaVuSans-110"/>
     <use x="466.162109" xlink:href="#DejaVuSans-99"/>
     <use x="521.142578" xlink:href="#DejaVuSans-101"/>
     <use x="582.666016" xlink:href="#DejaVuSans-115"/>
    </g>
   </g>
   <g id="text_19">
    <!-- v2.4, hv-hash=ff0e71e8cd978373 -->
    <g style="fill:#808080;" transform="translate(112.648687 294.151352)scale(0.1 -0.1)">
     <defs>
      <path d="M 54.890625 33.015625 
L 54.890625 0 
L 45.90625 0 
L 45.90625 32.71875 
Q 45.90625 40.484375 42.875 44.328125 
Q 39.84375 48.1875 33.796875 48.1875 
Q 26.515625 48.1875 22.3125 43.546875 
Q 18.109375 38.921875 18.109375 30.90625 
L 18.109375 0 
L 9.078125 0 
L 9.078125 75.984375 
L 18.109375 75.984375 
L 18.109375 46.1875 
Q 21.34375 51.125 25.703125 53.5625 
Q 30.078125 56 35.796875 56 
Q 45.21875 56 50.046875 50.171875 
Q 54.890625 44.34375 54.890625 33.015625 
z
" id="DejaVuSans-104"/>
      <path d="M 10.59375 45.40625 
L 73.1875 45.40625 
L 73.1875 37.203125 
L 10.59375 37.203125 
z
M 10.59375 25.484375 
L 73.1875 25.484375 
L 73.1875 17.1875 
L 10.59375 17.1875 
z
" id="DejaVuSans-61"/>
      <path d="M 8.203125 72.90625 
L 55.078125 72.90625 
L 55.078125 68.703125 
L 28.609375 0 
L 18.3125 0 
L 43.21875 64.59375 
L 8.203125 64.59375 
z
" id="DejaVuSans-55"/>
      <path d="M 10.984375 1.515625 
L 10.984375 10.5 
Q 14.703125 8.734375 18.5 7.8125 
Q 22.3125 6.890625 25.984375 6.890625 
Q 35.75 6.890625 40.890625 13.453125 
Q 46.046875 20.015625 46.78125 33.40625 
Q 43.953125 29.203125 39.59375 26.953125 
Q 35.25 24.703125 29.984375 24.703125 
Q 19.046875 24.703125 12.671875 31.3125 
Q 6.296875 37.9375 6.296875 49.421875 
Q 6.296875 60.640625 12.9375 67.421875 
Q 19.578125 74.21875 30.609375 74.21875 
Q 43.265625 74.21875 49.921875 64.515625 
Q 56.59375 54.828125 56.59375 36.375 
Q 56.59375 19.140625 48.40625 8.859375 
Q 40.234375 -1.421875 26.421875 -1.421875 
Q 22.703125 -1.421875 18.890625 -0.6875 
Q 15.09375 0.046875 10.984375 1.515625 
z
M 30.609375 32.421875 
Q 37.25 32.421875 41.125 36.953125 
Q 45.015625 41.5 45.015625 49.421875 
Q 45.015625 57.28125 41.125 61.84375 
Q 37.25 66.40625 30.609375 66.40625 
Q 23.96875 66.40625 20.09375 61.84375 
Q 16.21875 57.28125 16.21875 49.421875 
Q 16.21875 41.5 20.09375 36.953125 
Q 23.96875 32.421875 30.609375 32.421875 
z
" id="DejaVuSans-57"/>
     </defs>
     <use xlink:href="#DejaVuSans-118"/>
     <use x="59.179688" xlink:href="#DejaVuSans-50"/>
     <use x="122.802734" xlink:href="#DejaVuSans-46"/>
     <use x="154.589844" xlink:href="#DejaVuSans-52"/>
     <use x="218.212891" xlink:href="#DejaVuSans-44"/>
     <use x="250" xlink:href="#DejaVuSans-32"/>
     <use x="281.787109" xlink:href="#DejaVuSans-104"/>
     <use x="345.166016" xlink:href="#DejaVuSans-118"/>
     <use x="401.720703" xlink:href="#DejaVuSans-45"/>
     <use x="437.804688" xlink:href="#DejaVuSans-104"/>
     <use x="501.183594" xlink:href="#DejaVuSans-97"/>
     <use x="562.462891" xlink:href="#DejaVuSans-115"/>
     <use x="614.5625" xlink:href="#DejaVuSans-104"/>
     <use x="677.941406" xlink:href="#DejaVuSans-61"/>
     <use x="761.730469" xlink:href="#DejaVuSans-102"/>
     <use x="796.935547" xlink:href="#DejaVuSans-102"/>
     <use x="832.140625" xlink:href="#DejaVuSans-48"/>
     <use x="895.763672" xlink:href="#DejaVuSans-101"/>
     <use x="957.287109" xlink:href="#DejaVuSans-55"/>
     <use x="1020.910156" xlink:href="#DejaVuSans-49"/>
     <use x="1084.533203" xlink:href="#DejaVuSans-101"/>
     <use x="1146.056641" xlink:href="#DejaVuSans-56"/>
     <use x="1209.679688" xlink:href="#DejaVuSans-99"/>
     <use x="1264.660156" xlink:href="#DejaVuSans-100"/>
     <use x="1328.136719" xlink:href="#DejaVuSans-57"/>
     <use x="1391.759766" xlink:href="#DejaVuSans-55"/>
     <use x="1455.382812" xlink:href="#DejaVuSans-56"/>
     <use x="1519.005859" xlink:href="#DejaVuSans-51"/>
     <use x="1582.628906" xlink:href="#DejaVuSans-55"/>
     <use x="1646.251953" xlink:href="#DejaVuSans-51"/>
    </g>
   </g>
   <g id="text_20">
    <!-- 53 Schwefel/Schwefel -->
    <g transform="translate(88.93775 21.648)scale(0.2 -0.2)">
     <defs>
      <path d="M 53.515625 70.515625 
L 53.515625 60.890625 
Q 47.90625 63.578125 42.921875 64.890625 
Q 37.9375 66.21875 33.296875 66.21875 
Q 25.25 66.21875 20.875 63.09375 
Q 16.5 59.96875 16.5 54.203125 
Q 16.5 49.359375 19.40625 46.890625 
Q 22.3125 44.4375 30.421875 42.921875 
L 36.375 41.703125 
Q 47.40625 39.59375 52.65625 34.296875 
Q 57.90625 29 57.90625 20.125 
Q 57.90625 9.515625 50.796875 4.046875 
Q 43.703125 -1.421875 29.984375 -1.421875 
Q 24.8125 -1.421875 18.96875 -0.25 
Q 13.140625 0.921875 6.890625 3.21875 
L 6.890625 13.375 
Q 12.890625 10.015625 18.65625 8.296875 
Q 24.421875 6.59375 29.984375 6.59375 
Q 38.421875 6.59375 43.015625 9.90625 
Q 47.609375 13.234375 47.609375 19.390625 
Q 47.609375 24.75 44.3125 27.78125 
Q 41.015625 30.8125 33.5 32.328125 
L 27.484375 33.5 
Q 16.453125 35.6875 11.515625 40.375 
Q 6.59375 45.0625 6.59375 53.421875 
Q 6.59375 63.09375 13.40625 68.65625 
Q 20.21875 74.21875 32.171875 74.21875 
Q 37.3125 74.21875 42.625 73.28125 
Q 47.953125 72.359375 53.515625 70.515625 
z
" id="DejaVuSans-83"/>
      <path d="M 4.203125 54.6875 
L 13.1875 54.6875 
L 24.421875 12.015625 
L 35.59375 54.6875 
L 46.1875 54.6875 
L 57.421875 12.015625 
L 68.609375 54.6875 
L 77.59375 54.6875 
L 63.28125 0 
L 52.6875 0 
L 40.921875 44.828125 
L 29.109375 0 
L 18.5 0 
z
" id="DejaVuSans-119"/>
     </defs>
     <use xlink:href="#DejaVuSans-53"/>
     <use x="63.623047" xlink:href="#DejaVuSans-51"/>
     <use x="127.246094" xlink:href="#DejaVuSans-32"/>
     <use x="159.033203" xlink:href="#DejaVuSans-83"/>
     <use x="222.509766" xlink:href="#DejaVuSans-99"/>
     <use x="277.490234" xlink:href="#DejaVuSans-104"/>
     <use x="340.869141" xlink:href="#DejaVuSans-119"/>
     <use x="422.65625" xlink:href="#DejaVuSans-101"/>
     <use x="484.179688" xlink:href="#DejaVuSans-102"/>
     <use x="519.384766" xlink:href="#DejaVuSans-101"/>
     <use x="580.908203" xlink:href="#DejaVuSans-108"/>
     <use x="608.691406" xlink:href="#DejaVuSans-47"/>
     <use x="642.382812" xlink:href="#DejaVuSans-83"/>
     <use x="705.859375" xlink:href="#DejaVuSans-99"/>
     <use x="760.839844" xlink:href="#DejaVuSans-104"/>
     <use x="824.21875" xlink:href="#DejaVuSans-119"/>
     <use x="906.005859" xlink:href="#DejaVuSans-101"/>
     <use x="967.529297" xlink:href="#DejaVuSans-102"/>
     <use x="1002.734375" xlink:href="#DejaVuSans-101"/>
     <use x="1064.257812" xlink:href="#DejaVuSans-108"/>
    </g>
   </g>
  </g>
 </g>
 <defs>
  <clipPath id="pa072b8ada0">
   <rect height="271.296" width="281.088" x="57.6" y="27.648"/>
  </clipPath>
 </defs>
</svg>
