<?xml version="1.0" encoding="utf-8" standalone="no"?>
<!DOCTYPE svg PUBLIC "-//W3C//DTD SVG 1.1//EN"
  "http://www.w3.org/Graphics/SVG/1.1/DTD/svg11.dtd">
<!-- Created with matplotlib (https://matplotlib.org/) -->
<svg height="345.6pt" version="1.1" viewBox="0 0 460.8 345.6" width="460.8pt" xmlns="http://www.w3.org/2000/svg" xmlns:xlink="http://www.w3.org/1999/xlink">
 <metadata>
  <rdf:RDF xmlns:cc="http://creativecommons.org/ns#" xmlns:dc="http://purl.org/dc/elements/1.1/" xmlns:rdf="http://www.w3.org/1999/02/22-rdf-syntax-ns#">
   <cc:Work>
    <dc:type rdf:resource="http://purl.org/dc/dcmitype/StillImage"/>
    <dc:date>2021-03-30T16:55:24.738264</dc:date>
    <dc:format>image/svg+xml</dc:format>
    <dc:creator>
     <cc:Agent>
      <dc:title>Matplotlib v3.3.4, https://matplotlib.org/</dc:title>
     </cc:Agent>
    </dc:creator>
   </cc:Work>
  </rdf:RDF>
 </metadata>
 <defs>
  <style type="text/css">*{stroke-linecap:butt;stroke-linejoin:round;}</style>
 </defs>
 <g id="figure_1">
  <g id="patch_1">
   <path d="M 0 345.6 
L 460.8 345.6 
L 460.8 0 
L 0 0 
z
" style="fill:#ffffff;"/>
  </g>
  <g id="axes_1">
   <g id="patch_2">
    <path d="M 57.6 298.944 
L 338.688 298.944 
L 338.688 3.456 
L 57.6 3.456 
z
" style="fill:#ffffff;"/>
   </g>
   <g id="matplotlib.axis_1">
    <g id="xtick_1">
     <g id="line2d_1">
      <path clip-path="url(#pba16fdd8c7)" d="M 57.6 298.944 
L 57.6 3.456 
" style="fill:none;stroke:#b0b0b0;stroke-linecap:square;stroke-width:0.8;"/>
     </g>
     <g id="line2d_2">
      <defs>
       <path d="M 0 0 
L 0 3.5 
" id="m5c359f1932" style="stroke:#000000;stroke-width:0.8;"/>
      </defs>
      <g>
       <use style="stroke:#000000;stroke-width:0.8;" x="57.6" xlink:href="#m5c359f1932" y="298.944"/>
      </g>
     </g>
     <g id="text_1">
      <!-- 0 -->
      <g transform="translate(51.2375 321.140875)scale(0.2 -0.2)">
       <defs>
        <path d="M 31.78125 66.40625 
Q 24.171875 66.40625 20.328125 58.90625 
Q 16.5 51.421875 16.5 36.375 
Q 16.5 21.390625 20.328125 13.890625 
Q 24.171875 6.390625 31.78125 6.390625 
Q 39.453125 6.390625 43.28125 13.890625 
Q 47.125 21.390625 47.125 36.375 
Q 47.125 51.421875 43.28125 58.90625 
Q 39.453125 66.40625 31.78125 66.40625 
z
M 31.78125 74.21875 
Q 44.046875 74.21875 50.515625 64.515625 
Q 56.984375 54.828125 56.984375 36.375 
Q 56.984375 17.96875 50.515625 8.265625 
Q 44.046875 -1.421875 31.78125 -1.421875 
Q 19.53125 -1.421875 13.0625 8.265625 
Q 6.59375 17.96875 6.59375 36.375 
Q 6.59375 54.828125 13.0625 64.515625 
Q 19.53125 74.21875 31.78125 74.21875 
z
" id="DejaVuSans-48"/>
       </defs>
       <use xlink:href="#DejaVuSans-48"/>
      </g>
     </g>
    </g>
    <g id="xtick_2">
     <g id="line2d_3">
      <path clip-path="url(#pba16fdd8c7)" d="M 137.910857 298.944 
L 137.910857 3.456 
" style="fill:none;stroke:#b0b0b0;stroke-linecap:square;stroke-width:0.8;"/>
     </g>
     <g id="line2d_4">
      <g>
       <use style="stroke:#000000;stroke-width:0.8;" x="137.910857" xlink:href="#m5c359f1932" y="298.944"/>
      </g>
     </g>
     <g id="text_2">
      <!-- 2 -->
      <g transform="translate(131.548357 321.140875)scale(0.2 -0.2)">
       <defs>
        <path d="M 19.1875 8.296875 
L 53.609375 8.296875 
L 53.609375 0 
L 7.328125 0 
L 7.328125 8.296875 
Q 12.9375 14.109375 22.625 23.890625 
Q 32.328125 33.6875 34.8125 36.53125 
Q 39.546875 41.84375 41.421875 45.53125 
Q 43.3125 49.21875 43.3125 52.78125 
Q 43.3125 58.59375 39.234375 62.25 
Q 35.15625 65.921875 28.609375 65.921875 
Q 23.96875 65.921875 18.8125 64.3125 
Q 13.671875 62.703125 7.8125 59.421875 
L 7.8125 69.390625 
Q 13.765625 71.78125 18.9375 73 
Q 24.125 74.21875 28.421875 74.21875 
Q 39.75 74.21875 46.484375 68.546875 
Q 53.21875 62.890625 53.21875 53.421875 
Q 53.21875 48.921875 51.53125 44.890625 
Q 49.859375 40.875 45.40625 35.40625 
Q 44.1875 33.984375 37.640625 27.21875 
Q 31.109375 20.453125 19.1875 8.296875 
z
" id="DejaVuSans-50"/>
       </defs>
       <use xlink:href="#DejaVuSans-50"/>
      </g>
     </g>
    </g>
    <g id="xtick_3">
     <g id="line2d_5">
      <path clip-path="url(#pba16fdd8c7)" d="M 218.221714 298.944 
L 218.221714 3.456 
" style="fill:none;stroke:#b0b0b0;stroke-linecap:square;stroke-width:0.8;"/>
     </g>
     <g id="line2d_6">
      <g>
       <use style="stroke:#000000;stroke-width:0.8;" x="218.221714" xlink:href="#m5c359f1932" y="298.944"/>
      </g>
     </g>
     <g id="text_3">
      <!-- 4 -->
      <g transform="translate(211.859214 321.140875)scale(0.2 -0.2)">
       <defs>
        <path d="M 37.796875 64.3125 
L 12.890625 25.390625 
L 37.796875 25.390625 
z
M 35.203125 72.90625 
L 47.609375 72.90625 
L 47.609375 25.390625 
L 58.015625 25.390625 
L 58.015625 17.1875 
L 47.609375 17.1875 
L 47.609375 0 
L 37.796875 0 
L 37.796875 17.1875 
L 4.890625 17.1875 
L 4.890625 26.703125 
z
" id="DejaVuSans-52"/>
       </defs>
       <use xlink:href="#DejaVuSans-52"/>
      </g>
     </g>
    </g>
    <g id="xtick_4">
     <g id="line2d_7">
      <path clip-path="url(#pba16fdd8c7)" d="M 298.532571 298.944 
L 298.532571 3.456 
" style="fill:none;stroke:#b0b0b0;stroke-linecap:square;stroke-width:0.8;"/>
     </g>
     <g id="line2d_8">
      <g>
       <use style="stroke:#000000;stroke-width:0.8;" x="298.532571" xlink:href="#m5c359f1932" y="298.944"/>
      </g>
     </g>
     <g id="text_4">
      <!-- 6 -->
      <g transform="translate(292.170071 321.140875)scale(0.2 -0.2)">
       <defs>
        <path d="M 33.015625 40.375 
Q 26.375 40.375 22.484375 35.828125 
Q 18.609375 31.296875 18.609375 23.390625 
Q 18.609375 15.53125 22.484375 10.953125 
Q 26.375 6.390625 33.015625 6.390625 
Q 39.65625 6.390625 43.53125 10.953125 
Q 47.40625 15.53125 47.40625 23.390625 
Q 47.40625 31.296875 43.53125 35.828125 
Q 39.65625 40.375 33.015625 40.375 
z
M 52.59375 71.296875 
L 52.59375 62.3125 
Q 48.875 64.0625 45.09375 64.984375 
Q 41.3125 65.921875 37.59375 65.921875 
Q 27.828125 65.921875 22.671875 59.328125 
Q 17.53125 52.734375 16.796875 39.40625 
Q 19.671875 43.65625 24.015625 45.921875 
Q 28.375 48.1875 33.59375 48.1875 
Q 44.578125 48.1875 50.953125 41.515625 
Q 57.328125 34.859375 57.328125 23.390625 
Q 57.328125 12.15625 50.6875 5.359375 
Q 44.046875 -1.421875 33.015625 -1.421875 
Q 20.359375 -1.421875 13.671875 8.265625 
Q 6.984375 17.96875 6.984375 36.375 
Q 6.984375 53.65625 15.1875 63.9375 
Q 23.390625 74.21875 37.203125 74.21875 
Q 40.921875 74.21875 44.703125 73.484375 
Q 48.484375 72.75 52.59375 71.296875 
z
" id="DejaVuSans-54"/>
       </defs>
       <use xlink:href="#DejaVuSans-54"/>
      </g>
     </g>
    </g>
    <g id="xtick_5">
     <g id="line2d_9">
      <path clip-path="url(#pba16fdd8c7)" d="M 97.755429 298.944 
L 97.755429 3.456 
" style="fill:none;stroke:#b0b0b0;stroke-linecap:square;stroke-width:0.8;"/>
     </g>
     <g id="line2d_10">
      <defs>
       <path d="M 0 0 
L 0 2 
" id="maaa0e841b6" style="stroke:#000000;stroke-width:0.6;"/>
      </defs>
      <g>
       <use style="stroke:#000000;stroke-width:0.6;" x="97.755429" xlink:href="#maaa0e841b6" y="298.944"/>
      </g>
     </g>
    </g>
    <g id="xtick_6">
     <g id="line2d_11">
      <path clip-path="url(#pba16fdd8c7)" d="M 178.066286 298.944 
L 178.066286 3.456 
" style="fill:none;stroke:#b0b0b0;stroke-linecap:square;stroke-width:0.8;"/>
     </g>
     <g id="line2d_12">
      <g>
       <use style="stroke:#000000;stroke-width:0.6;" x="178.066286" xlink:href="#maaa0e841b6" y="298.944"/>
      </g>
     </g>
    </g>
    <g id="xtick_7">
     <g id="line2d_13">
      <path clip-path="url(#pba16fdd8c7)" d="M 258.377143 298.944 
L 258.377143 3.456 
" style="fill:none;stroke:#b0b0b0;stroke-linecap:square;stroke-width:0.8;"/>
     </g>
     <g id="line2d_14">
      <g>
       <use style="stroke:#000000;stroke-width:0.6;" x="258.377143" xlink:href="#maaa0e841b6" y="298.944"/>
      </g>
     </g>
    </g>
    <g id="xtick_8">
     <g id="line2d_15">
      <path clip-path="url(#pba16fdd8c7)" d="M 338.688 298.944 
L 338.688 3.456 
" style="fill:none;stroke:#b0b0b0;stroke-linecap:square;stroke-width:0.8;"/>
     </g>
     <g id="line2d_16">
      <g>
       <use style="stroke:#000000;stroke-width:0.6;" x="338.688" xlink:href="#maaa0e841b6" y="298.944"/>
      </g>
     </g>
    </g>
    <g id="text_5">
     <!-- log10(# f-evals / dimension) -->
     <g transform="translate(77.764078 342.217594)scale(0.17 -0.17)">
      <defs>
       <path d="M 9.421875 75.984375 
L 18.40625 75.984375 
L 18.40625 0 
L 9.421875 0 
z
" id="DejaVuSans-108"/>
       <path d="M 30.609375 48.390625 
Q 23.390625 48.390625 19.1875 42.75 
Q 14.984375 37.109375 14.984375 27.296875 
Q 14.984375 17.484375 19.15625 11.84375 
Q 23.34375 6.203125 30.609375 6.203125 
Q 37.796875 6.203125 41.984375 11.859375 
Q 46.1875 17.53125 46.1875 27.296875 
Q 46.1875 37.015625 41.984375 42.703125 
Q 37.796875 48.390625 30.609375 48.390625 
z
M 30.609375 56 
Q 42.328125 56 49.015625 48.375 
Q 55.71875 40.765625 55.71875 27.296875 
Q 55.71875 13.875 49.015625 6.21875 
Q 42.328125 -1.421875 30.609375 -1.421875 
Q 18.84375 -1.421875 12.171875 6.21875 
Q 5.515625 13.875 5.515625 27.296875 
Q 5.515625 40.765625 12.171875 48.375 
Q 18.84375 56 30.609375 56 
z
" id="DejaVuSans-111"/>
       <path d="M 45.40625 27.984375 
Q 45.40625 37.75 41.375 43.109375 
Q 37.359375 48.484375 30.078125 48.484375 
Q 22.859375 48.484375 18.828125 43.109375 
Q 14.796875 37.75 14.796875 27.984375 
Q 14.796875 18.265625 18.828125 12.890625 
Q 22.859375 7.515625 30.078125 7.515625 
Q 37.359375 7.515625 41.375 12.890625 
Q 45.40625 18.265625 45.40625 27.984375 
z
M 54.390625 6.78125 
Q 54.390625 -7.171875 48.1875 -13.984375 
Q 42 -20.796875 29.203125 -20.796875 
Q 24.46875 -20.796875 20.265625 -20.09375 
Q 16.0625 -19.390625 12.109375 -17.921875 
L 12.109375 -9.1875 
Q 16.0625 -11.328125 19.921875 -12.34375 
Q 23.78125 -13.375 27.78125 -13.375 
Q 36.625 -13.375 41.015625 -8.765625 
Q 45.40625 -4.15625 45.40625 5.171875 
L 45.40625 9.625 
Q 42.625 4.78125 38.28125 2.390625 
Q 33.9375 0 27.875 0 
Q 17.828125 0 11.671875 7.65625 
Q 5.515625 15.328125 5.515625 27.984375 
Q 5.515625 40.671875 11.671875 48.328125 
Q 17.828125 56 27.875 56 
Q 33.9375 56 38.28125 53.609375 
Q 42.625 51.21875 45.40625 46.390625 
L 45.40625 54.6875 
L 54.390625 54.6875 
z
" id="DejaVuSans-103"/>
       <path d="M 12.40625 8.296875 
L 28.515625 8.296875 
L 28.515625 63.921875 
L 10.984375 60.40625 
L 10.984375 69.390625 
L 28.421875 72.90625 
L 38.28125 72.90625 
L 38.28125 8.296875 
L 54.390625 8.296875 
L 54.390625 0 
L 12.40625 0 
z
" id="DejaVuSans-49"/>
       <path d="M 31 75.875 
Q 24.46875 64.65625 21.28125 53.65625 
Q 18.109375 42.671875 18.109375 31.390625 
Q 18.109375 20.125 21.3125 9.0625 
Q 24.515625 -2 31 -13.1875 
L 23.1875 -13.1875 
Q 15.875 -1.703125 12.234375 9.375 
Q 8.59375 20.453125 8.59375 31.390625 
Q 8.59375 42.28125 12.203125 53.3125 
Q 15.828125 64.359375 23.1875 75.875 
z
" id="DejaVuSans-40"/>
       <path d="M 51.125 44 
L 36.921875 44 
L 32.8125 27.6875 
L 47.125 27.6875 
z
M 43.796875 71.78125 
L 38.71875 51.515625 
L 52.984375 51.515625 
L 58.109375 71.78125 
L 65.921875 71.78125 
L 60.890625 51.515625 
L 76.125 51.515625 
L 76.125 44 
L 58.984375 44 
L 54.984375 27.6875 
L 70.515625 27.6875 
L 70.515625 20.21875 
L 53.078125 20.21875 
L 48 0 
L 40.1875 0 
L 45.21875 20.21875 
L 30.90625 20.21875 
L 25.875 0 
L 18.015625 0 
L 23.09375 20.21875 
L 7.71875 20.21875 
L 7.71875 27.6875 
L 24.90625 27.6875 
L 29 44 
L 13.28125 44 
L 13.28125 51.515625 
L 30.90625 51.515625 
L 35.890625 71.78125 
z
" id="DejaVuSans-35"/>
       <path id="DejaVuSans-32"/>
       <path d="M 37.109375 75.984375 
L 37.109375 68.5 
L 28.515625 68.5 
Q 23.6875 68.5 21.796875 66.546875 
Q 19.921875 64.59375 19.921875 59.515625 
L 19.921875 54.6875 
L 34.71875 54.6875 
L 34.71875 47.703125 
L 19.921875 47.703125 
L 19.921875 0 
L 10.890625 0 
L 10.890625 47.703125 
L 2.296875 47.703125 
L 2.296875 54.6875 
L 10.890625 54.6875 
L 10.890625 58.5 
Q 10.890625 67.625 15.140625 71.796875 
Q 19.390625 75.984375 28.609375 75.984375 
z
" id="DejaVuSans-102"/>
       <path d="M 4.890625 31.390625 
L 31.203125 31.390625 
L 31.203125 23.390625 
L 4.890625 23.390625 
z
" id="DejaVuSans-45"/>
       <path d="M 56.203125 29.59375 
L 56.203125 25.203125 
L 14.890625 25.203125 
Q 15.484375 15.921875 20.484375 11.0625 
Q 25.484375 6.203125 34.421875 6.203125 
Q 39.59375 6.203125 44.453125 7.46875 
Q 49.3125 8.734375 54.109375 11.28125 
L 54.109375 2.78125 
Q 49.265625 0.734375 44.1875 -0.34375 
Q 39.109375 -1.421875 33.890625 -1.421875 
Q 20.796875 -1.421875 13.15625 6.1875 
Q 5.515625 13.8125 5.515625 26.8125 
Q 5.515625 40.234375 12.765625 48.109375 
Q 20.015625 56 32.328125 56 
Q 43.359375 56 49.78125 48.890625 
Q 56.203125 41.796875 56.203125 29.59375 
z
M 47.21875 32.234375 
Q 47.125 39.59375 43.09375 43.984375 
Q 39.0625 48.390625 32.421875 48.390625 
Q 24.90625 48.390625 20.390625 44.140625 
Q 15.875 39.890625 15.1875 32.171875 
z
" id="DejaVuSans-101"/>
       <path d="M 2.984375 54.6875 
L 12.5 54.6875 
L 29.59375 8.796875 
L 46.6875 54.6875 
L 56.203125 54.6875 
L 35.6875 0 
L 23.484375 0 
z
" id="DejaVuSans-118"/>
       <path d="M 34.28125 27.484375 
Q 23.390625 27.484375 19.1875 25 
Q 14.984375 22.515625 14.984375 16.5 
Q 14.984375 11.71875 18.140625 8.90625 
Q 21.296875 6.109375 26.703125 6.109375 
Q 34.1875 6.109375 38.703125 11.40625 
Q 43.21875 16.703125 43.21875 25.484375 
L 43.21875 27.484375 
z
M 52.203125 31.203125 
L 52.203125 0 
L 43.21875 0 
L 43.21875 8.296875 
Q 40.140625 3.328125 35.546875 0.953125 
Q 30.953125 -1.421875 24.3125 -1.421875 
Q 15.921875 -1.421875 10.953125 3.296875 
Q 6 8.015625 6 15.921875 
Q 6 25.140625 12.171875 29.828125 
Q 18.359375 34.515625 30.609375 34.515625 
L 43.21875 34.515625 
L 43.21875 35.40625 
Q 43.21875 41.609375 39.140625 45 
Q 35.0625 48.390625 27.6875 48.390625 
Q 23 48.390625 18.546875 47.265625 
Q 14.109375 46.140625 10.015625 43.890625 
L 10.015625 52.203125 
Q 14.9375 54.109375 19.578125 55.046875 
Q 24.21875 56 28.609375 56 
Q 40.484375 56 46.34375 49.84375 
Q 52.203125 43.703125 52.203125 31.203125 
z
" id="DejaVuSans-97"/>
       <path d="M 44.28125 53.078125 
L 44.28125 44.578125 
Q 40.484375 46.53125 36.375 47.5 
Q 32.28125 48.484375 27.875 48.484375 
Q 21.1875 48.484375 17.84375 46.4375 
Q 14.5 44.390625 14.5 40.28125 
Q 14.5 37.15625 16.890625 35.375 
Q 19.28125 33.59375 26.515625 31.984375 
L 29.59375 31.296875 
Q 39.15625 29.25 43.1875 25.515625 
Q 47.21875 21.78125 47.21875 15.09375 
Q 47.21875 7.46875 41.1875 3.015625 
Q 35.15625 -1.421875 24.609375 -1.421875 
Q 20.21875 -1.421875 15.453125 -0.5625 
Q 10.6875 0.296875 5.421875 2 
L 5.421875 11.28125 
Q 10.40625 8.6875 15.234375 7.390625 
Q 20.0625 6.109375 24.8125 6.109375 
Q 31.15625 6.109375 34.5625 8.28125 
Q 37.984375 10.453125 37.984375 14.40625 
Q 37.984375 18.0625 35.515625 20.015625 
Q 33.0625 21.96875 24.703125 23.78125 
L 21.578125 24.515625 
Q 13.234375 26.265625 9.515625 29.90625 
Q 5.8125 33.546875 5.8125 39.890625 
Q 5.8125 47.609375 11.28125 51.796875 
Q 16.75 56 26.8125 56 
Q 31.78125 56 36.171875 55.265625 
Q 40.578125 54.546875 44.28125 53.078125 
z
" id="DejaVuSans-115"/>
       <path d="M 25.390625 72.90625 
L 33.6875 72.90625 
L 8.296875 -9.28125 
L 0 -9.28125 
z
" id="DejaVuSans-47"/>
       <path d="M 45.40625 46.390625 
L 45.40625 75.984375 
L 54.390625 75.984375 
L 54.390625 0 
L 45.40625 0 
L 45.40625 8.203125 
Q 42.578125 3.328125 38.25 0.953125 
Q 33.9375 -1.421875 27.875 -1.421875 
Q 17.96875 -1.421875 11.734375 6.484375 
Q 5.515625 14.40625 5.515625 27.296875 
Q 5.515625 40.1875 11.734375 48.09375 
Q 17.96875 56 27.875 56 
Q 33.9375 56 38.25 53.625 
Q 42.578125 51.265625 45.40625 46.390625 
z
M 14.796875 27.296875 
Q 14.796875 17.390625 18.875 11.75 
Q 22.953125 6.109375 30.078125 6.109375 
Q 37.203125 6.109375 41.296875 11.75 
Q 45.40625 17.390625 45.40625 27.296875 
Q 45.40625 37.203125 41.296875 42.84375 
Q 37.203125 48.484375 30.078125 48.484375 
Q 22.953125 48.484375 18.875 42.84375 
Q 14.796875 37.203125 14.796875 27.296875 
z
" id="DejaVuSans-100"/>
       <path d="M 9.421875 54.6875 
L 18.40625 54.6875 
L 18.40625 0 
L 9.421875 0 
z
M 9.421875 75.984375 
L 18.40625 75.984375 
L 18.40625 64.59375 
L 9.421875 64.59375 
z
" id="DejaVuSans-105"/>
       <path d="M 52 44.1875 
Q 55.375 50.25 60.0625 53.125 
Q 64.75 56 71.09375 56 
Q 79.640625 56 84.28125 50.015625 
Q 88.921875 44.046875 88.921875 33.015625 
L 88.921875 0 
L 79.890625 0 
L 79.890625 32.71875 
Q 79.890625 40.578125 77.09375 44.375 
Q 74.3125 48.1875 68.609375 48.1875 
Q 61.625 48.1875 57.5625 43.546875 
Q 53.515625 38.921875 53.515625 30.90625 
L 53.515625 0 
L 44.484375 0 
L 44.484375 32.71875 
Q 44.484375 40.625 41.703125 44.40625 
Q 38.921875 48.1875 33.109375 48.1875 
Q 26.21875 48.1875 22.15625 43.53125 
Q 18.109375 38.875 18.109375 30.90625 
L 18.109375 0 
L 9.078125 0 
L 9.078125 54.6875 
L 18.109375 54.6875 
L 18.109375 46.1875 
Q 21.1875 51.21875 25.484375 53.609375 
Q 29.78125 56 35.6875 56 
Q 41.65625 56 45.828125 52.96875 
Q 50 49.953125 52 44.1875 
z
" id="DejaVuSans-109"/>
       <path d="M 54.890625 33.015625 
L 54.890625 0 
L 45.90625 0 
L 45.90625 32.71875 
Q 45.90625 40.484375 42.875 44.328125 
Q 39.84375 48.1875 33.796875 48.1875 
Q 26.515625 48.1875 22.3125 43.546875 
Q 18.109375 38.921875 18.109375 30.90625 
L 18.109375 0 
L 9.078125 0 
L 9.078125 54.6875 
L 18.109375 54.6875 
L 18.109375 46.1875 
Q 21.34375 51.125 25.703125 53.5625 
Q 30.078125 56 35.796875 56 
Q 45.21875 56 50.046875 50.171875 
Q 54.890625 44.34375 54.890625 33.015625 
z
" id="DejaVuSans-110"/>
       <path d="M 8.015625 75.875 
L 15.828125 75.875 
Q 23.140625 64.359375 26.78125 53.3125 
Q 30.421875 42.28125 30.421875 31.390625 
Q 30.421875 20.453125 26.78125 9.375 
Q 23.140625 -1.703125 15.828125 -13.1875 
L 8.015625 -13.1875 
Q 14.5 -2 17.703125 9.0625 
Q 20.90625 20.125 20.90625 31.390625 
Q 20.90625 42.671875 17.703125 53.65625 
Q 14.5 64.65625 8.015625 75.875 
z
" id="DejaVuSans-41"/>
      </defs>
      <use xlink:href="#DejaVuSans-108"/>
      <use x="27.783203" xlink:href="#DejaVuSans-111"/>
      <use x="88.964844" xlink:href="#DejaVuSans-103"/>
      <use x="152.441406" xlink:href="#DejaVuSans-49"/>
      <use x="216.064453" xlink:href="#DejaVuSans-48"/>
      <use x="279.6875" xlink:href="#DejaVuSans-40"/>
      <use x="318.701172" xlink:href="#DejaVuSans-35"/>
      <use x="402.490234" xlink:href="#DejaVuSans-32"/>
      <use x="434.277344" xlink:href="#DejaVuSans-102"/>
      <use x="463.982422" xlink:href="#DejaVuSans-45"/>
      <use x="500.066406" xlink:href="#DejaVuSans-101"/>
      <use x="561.589844" xlink:href="#DejaVuSans-118"/>
      <use x="620.769531" xlink:href="#DejaVuSans-97"/>
      <use x="682.048828" xlink:href="#DejaVuSans-108"/>
      <use x="709.832031" xlink:href="#DejaVuSans-115"/>
      <use x="761.931641" xlink:href="#DejaVuSans-32"/>
      <use x="793.71875" xlink:href="#DejaVuSans-47"/>
      <use x="827.410156" xlink:href="#DejaVuSans-32"/>
      <use x="859.197266" xlink:href="#DejaVuSans-100"/>
      <use x="922.673828" xlink:href="#DejaVuSans-105"/>
      <use x="950.457031" xlink:href="#DejaVuSans-109"/>
      <use x="1047.869141" xlink:href="#DejaVuSans-101"/>
      <use x="1109.392578" xlink:href="#DejaVuSans-110"/>
      <use x="1172.771484" xlink:href="#DejaVuSans-115"/>
      <use x="1224.871094" xlink:href="#DejaVuSans-105"/>
      <use x="1252.654297" xlink:href="#DejaVuSans-111"/>
      <use x="1313.835938" xlink:href="#DejaVuSans-110"/>
      <use x="1377.214844" xlink:href="#DejaVuSans-41"/>
     </g>
    </g>
   </g>
   <g id="matplotlib.axis_2">
    <g id="ytick_1">
     <g id="line2d_17">
      <path clip-path="url(#pba16fdd8c7)" d="M 57.6 298.944 
L 338.688 298.944 
" style="fill:none;stroke:#b0b0b0;stroke-linecap:square;stroke-width:0.8;"/>
     </g>
     <g id="line2d_18">
      <defs>
       <path d="M 0 0 
L -3.5 0 
" id="m89d70aa851" style="stroke:#000000;stroke-width:0.8;"/>
      </defs>
      <g>
       <use style="stroke:#000000;stroke-width:0.8;" x="57.6" xlink:href="#m89d70aa851" y="298.944"/>
      </g>
     </g>
     <g id="text_6">
      <!-- 0.0 -->
      <g transform="translate(25.155 305.02275)scale(0.16 -0.16)">
       <defs>
        <path d="M 10.6875 12.40625 
L 21 12.40625 
L 21 0 
L 10.6875 0 
z
" id="DejaVuSans-46"/>
       </defs>
       <use xlink:href="#DejaVuSans-48"/>
       <use x="63.623047" xlink:href="#DejaVuSans-46"/>
       <use x="95.410156" xlink:href="#DejaVuSans-48"/>
      </g>
     </g>
    </g>
    <g id="ytick_2">
     <g id="line2d_19">
      <path clip-path="url(#pba16fdd8c7)" d="M 57.6 240.431525 
L 338.688 240.431525 
" style="fill:none;stroke:#b0b0b0;stroke-linecap:square;stroke-width:0.8;"/>
     </g>
     <g id="line2d_20">
      <g>
       <use style="stroke:#000000;stroke-width:0.8;" x="57.6" xlink:href="#m89d70aa851" y="240.431525"/>
      </g>
     </g>
     <g id="text_7">
      <!-- 0.2 -->
      <g transform="translate(25.155 246.510275)scale(0.16 -0.16)">
       <use xlink:href="#DejaVuSans-48"/>
       <use x="63.623047" xlink:href="#DejaVuSans-46"/>
       <use x="95.410156" xlink:href="#DejaVuSans-50"/>
      </g>
     </g>
    </g>
    <g id="ytick_3">
     <g id="line2d_21">
      <path clip-path="url(#pba16fdd8c7)" d="M 57.6 181.91905 
L 338.688 181.91905 
" style="fill:none;stroke:#b0b0b0;stroke-linecap:square;stroke-width:0.8;"/>
     </g>
     <g id="line2d_22">
      <g>
       <use style="stroke:#000000;stroke-width:0.8;" x="57.6" xlink:href="#m89d70aa851" y="181.91905"/>
      </g>
     </g>
     <g id="text_8">
      <!-- 0.4 -->
      <g transform="translate(25.155 187.9978)scale(0.16 -0.16)">
       <use xlink:href="#DejaVuSans-48"/>
       <use x="63.623047" xlink:href="#DejaVuSans-46"/>
       <use x="95.410156" xlink:href="#DejaVuSans-52"/>
      </g>
     </g>
    </g>
    <g id="ytick_4">
     <g id="line2d_23">
      <path clip-path="url(#pba16fdd8c7)" d="M 57.6 123.406574 
L 338.688 123.406574 
" style="fill:none;stroke:#b0b0b0;stroke-linecap:square;stroke-width:0.8;"/>
     </g>
     <g id="line2d_24">
      <g>
       <use style="stroke:#000000;stroke-width:0.8;" x="57.6" xlink:href="#m89d70aa851" y="123.406574"/>
      </g>
     </g>
     <g id="text_9">
      <!-- 0.6 -->
      <g transform="translate(25.155 129.485324)scale(0.16 -0.16)">
       <use xlink:href="#DejaVuSans-48"/>
       <use x="63.623047" xlink:href="#DejaVuSans-46"/>
       <use x="95.410156" xlink:href="#DejaVuSans-54"/>
      </g>
     </g>
    </g>
    <g id="ytick_5">
     <g id="line2d_25">
      <path clip-path="url(#pba16fdd8c7)" d="M 57.6 64.894099 
L 338.688 64.894099 
" style="fill:none;stroke:#b0b0b0;stroke-linecap:square;stroke-width:0.8;"/>
     </g>
     <g id="line2d_26">
      <g>
       <use style="stroke:#000000;stroke-width:0.8;" x="57.6" xlink:href="#m89d70aa851" y="64.894099"/>
      </g>
     </g>
     <g id="text_10">
      <!-- 0.8 -->
      <g transform="translate(25.155 70.972849)scale(0.16 -0.16)">
       <defs>
        <path d="M 31.78125 34.625 
Q 24.75 34.625 20.71875 30.859375 
Q 16.703125 27.09375 16.703125 20.515625 
Q 16.703125 13.921875 20.71875 10.15625 
Q 24.75 6.390625 31.78125 6.390625 
Q 38.8125 6.390625 42.859375 10.171875 
Q 46.921875 13.96875 46.921875 20.515625 
Q 46.921875 27.09375 42.890625 30.859375 
Q 38.875 34.625 31.78125 34.625 
z
M 21.921875 38.8125 
Q 15.578125 40.375 12.03125 44.71875 
Q 8.5 49.078125 8.5 55.328125 
Q 8.5 64.0625 14.71875 69.140625 
Q 20.953125 74.21875 31.78125 74.21875 
Q 42.671875 74.21875 48.875 69.140625 
Q 55.078125 64.0625 55.078125 55.328125 
Q 55.078125 49.078125 51.53125 44.71875 
Q 48 40.375 41.703125 38.8125 
Q 48.828125 37.15625 52.796875 32.3125 
Q 56.78125 27.484375 56.78125 20.515625 
Q 56.78125 9.90625 50.3125 4.234375 
Q 43.84375 -1.421875 31.78125 -1.421875 
Q 19.734375 -1.421875 13.25 4.234375 
Q 6.78125 9.90625 6.78125 20.515625 
Q 6.78125 27.484375 10.78125 32.3125 
Q 14.796875 37.15625 21.921875 38.8125 
z
M 18.3125 54.390625 
Q 18.3125 48.734375 21.84375 45.5625 
Q 25.390625 42.390625 31.78125 42.390625 
Q 38.140625 42.390625 41.71875 45.5625 
Q 45.3125 48.734375 45.3125 54.390625 
Q 45.3125 60.0625 41.71875 63.234375 
Q 38.140625 66.40625 31.78125 66.40625 
Q 25.390625 66.40625 21.84375 63.234375 
Q 18.3125 60.0625 18.3125 54.390625 
z
" id="DejaVuSans-56"/>
       </defs>
       <use xlink:href="#DejaVuSans-48"/>
       <use x="63.623047" xlink:href="#DejaVuSans-46"/>
       <use x="95.410156" xlink:href="#DejaVuSans-56"/>
      </g>
     </g>
    </g>
    <g id="ytick_6">
     <g id="line2d_27">
      <path clip-path="url(#pba16fdd8c7)" d="M 57.6 6.381624 
L 338.688 6.381624 
" style="fill:none;stroke:#b0b0b0;stroke-linecap:square;stroke-width:0.8;"/>
     </g>
     <g id="line2d_28">
      <g>
       <use style="stroke:#000000;stroke-width:0.8;" x="57.6" xlink:href="#m89d70aa851" y="6.381624"/>
      </g>
     </g>
     <g id="text_11">
      <!-- 1.0 -->
      <g transform="translate(25.155 12.460374)scale(0.16 -0.16)">
       <use xlink:href="#DejaVuSans-49"/>
       <use x="63.623047" xlink:href="#DejaVuSans-46"/>
       <use x="95.410156" xlink:href="#DejaVuSans-48"/>
      </g>
     </g>
    </g>
    <g id="text_12">
     <!-- Fraction of function,target pairs -->
     <g transform="translate(17.619531 285.585)rotate(-90)scale(0.17 -0.17)">
      <defs>
       <path d="M 9.8125 72.90625 
L 51.703125 72.90625 
L 51.703125 64.59375 
L 19.671875 64.59375 
L 19.671875 43.109375 
L 48.578125 43.109375 
L 48.578125 34.8125 
L 19.671875 34.8125 
L 19.671875 0 
L 9.8125 0 
z
" id="DejaVuSans-70"/>
       <path d="M 41.109375 46.296875 
Q 39.59375 47.171875 37.8125 47.578125 
Q 36.03125 48 33.890625 48 
Q 26.265625 48 22.1875 43.046875 
Q 18.109375 38.09375 18.109375 28.8125 
L 18.109375 0 
L 9.078125 0 
L 9.078125 54.6875 
L 18.109375 54.6875 
L 18.109375 46.1875 
Q 20.953125 51.171875 25.484375 53.578125 
Q 30.03125 56 36.53125 56 
Q 37.453125 56 38.578125 55.875 
Q 39.703125 55.765625 41.0625 55.515625 
z
" id="DejaVuSans-114"/>
       <path d="M 48.78125 52.59375 
L 48.78125 44.1875 
Q 44.96875 46.296875 41.140625 47.34375 
Q 37.3125 48.390625 33.40625 48.390625 
Q 24.65625 48.390625 19.8125 42.84375 
Q 14.984375 37.3125 14.984375 27.296875 
Q 14.984375 17.28125 19.8125 11.734375 
Q 24.65625 6.203125 33.40625 6.203125 
Q 37.3125 6.203125 41.140625 7.25 
Q 44.96875 8.296875 48.78125 10.40625 
L 48.78125 2.09375 
Q 45.015625 0.34375 40.984375 -0.53125 
Q 36.96875 -1.421875 32.421875 -1.421875 
Q 20.0625 -1.421875 12.78125 6.34375 
Q 5.515625 14.109375 5.515625 27.296875 
Q 5.515625 40.671875 12.859375 48.328125 
Q 20.21875 56 33.015625 56 
Q 37.15625 56 41.109375 55.140625 
Q 45.0625 54.296875 48.78125 52.59375 
z
" id="DejaVuSans-99"/>
       <path d="M 18.3125 70.21875 
L 18.3125 54.6875 
L 36.8125 54.6875 
L 36.8125 47.703125 
L 18.3125 47.703125 
L 18.3125 18.015625 
Q 18.3125 11.328125 20.140625 9.421875 
Q 21.96875 7.515625 27.59375 7.515625 
L 36.8125 7.515625 
L 36.8125 0 
L 27.59375 0 
Q 17.1875 0 13.234375 3.875 
Q 9.28125 7.765625 9.28125 18.015625 
L 9.28125 47.703125 
L 2.6875 47.703125 
L 2.6875 54.6875 
L 9.28125 54.6875 
L 9.28125 70.21875 
z
" id="DejaVuSans-116"/>
       <path d="M 8.5 21.578125 
L 8.5 54.6875 
L 17.484375 54.6875 
L 17.484375 21.921875 
Q 17.484375 14.15625 20.5 10.265625 
Q 23.53125 6.390625 29.59375 6.390625 
Q 36.859375 6.390625 41.078125 11.03125 
Q 45.3125 15.671875 45.3125 23.6875 
L 45.3125 54.6875 
L 54.296875 54.6875 
L 54.296875 0 
L 45.3125 0 
L 45.3125 8.40625 
Q 42.046875 3.421875 37.71875 1 
Q 33.40625 -1.421875 27.6875 -1.421875 
Q 18.265625 -1.421875 13.375 4.4375 
Q 8.5 10.296875 8.5 21.578125 
z
M 31.109375 56 
z
" id="DejaVuSans-117"/>
       <path d="M 11.71875 12.40625 
L 22.015625 12.40625 
L 22.015625 4 
L 14.015625 -11.625 
L 7.71875 -11.625 
L 11.71875 4 
z
" id="DejaVuSans-44"/>
       <path d="M 18.109375 8.203125 
L 18.109375 -20.796875 
L 9.078125 -20.796875 
L 9.078125 54.6875 
L 18.109375 54.6875 
L 18.109375 46.390625 
Q 20.953125 51.265625 25.265625 53.625 
Q 29.59375 56 35.59375 56 
Q 45.5625 56 51.78125 48.09375 
Q 58.015625 40.1875 58.015625 27.296875 
Q 58.015625 14.40625 51.78125 6.484375 
Q 45.5625 -1.421875 35.59375 -1.421875 
Q 29.59375 -1.421875 25.265625 0.953125 
Q 20.953125 3.328125 18.109375 8.203125 
z
M 48.6875 27.296875 
Q 48.6875 37.203125 44.609375 42.84375 
Q 40.53125 48.484375 33.40625 48.484375 
Q 26.265625 48.484375 22.1875 42.84375 
Q 18.109375 37.203125 18.109375 27.296875 
Q 18.109375 17.390625 22.1875 11.75 
Q 26.265625 6.109375 33.40625 6.109375 
Q 40.53125 6.109375 44.609375 11.75 
Q 48.6875 17.390625 48.6875 27.296875 
z
" id="DejaVuSans-112"/>
      </defs>
      <use xlink:href="#DejaVuSans-70"/>
      <use x="50.269531" xlink:href="#DejaVuSans-114"/>
      <use x="91.382812" xlink:href="#DejaVuSans-97"/>
      <use x="152.662109" xlink:href="#DejaVuSans-99"/>
      <use x="207.642578" xlink:href="#DejaVuSans-116"/>
      <use x="246.851562" xlink:href="#DejaVuSans-105"/>
      <use x="274.634766" xlink:href="#DejaVuSans-111"/>
      <use x="335.816406" xlink:href="#DejaVuSans-110"/>
      <use x="399.195312" xlink:href="#DejaVuSans-32"/>
      <use x="430.982422" xlink:href="#DejaVuSans-111"/>
      <use x="492.164062" xlink:href="#DejaVuSans-102"/>
      <use x="527.369141" xlink:href="#DejaVuSans-32"/>
      <use x="559.15625" xlink:href="#DejaVuSans-102"/>
      <use x="594.361328" xlink:href="#DejaVuSans-117"/>
      <use x="657.740234" xlink:href="#DejaVuSans-110"/>
      <use x="721.119141" xlink:href="#DejaVuSans-99"/>
      <use x="776.099609" xlink:href="#DejaVuSans-116"/>
      <use x="815.308594" xlink:href="#DejaVuSans-105"/>
      <use x="843.091797" xlink:href="#DejaVuSans-111"/>
      <use x="904.273438" xlink:href="#DejaVuSans-110"/>
      <use x="967.652344" xlink:href="#DejaVuSans-44"/>
      <use x="999.439453" xlink:href="#DejaVuSans-116"/>
      <use x="1038.648438" xlink:href="#DejaVuSans-97"/>
      <use x="1099.927734" xlink:href="#DejaVuSans-114"/>
      <use x="1139.291016" xlink:href="#DejaVuSans-103"/>
      <use x="1202.767578" xlink:href="#DejaVuSans-101"/>
      <use x="1264.291016" xlink:href="#DejaVuSans-116"/>
      <use x="1303.5" xlink:href="#DejaVuSans-32"/>
      <use x="1335.287109" xlink:href="#DejaVuSans-112"/>
      <use x="1398.763672" xlink:href="#DejaVuSans-97"/>
      <use x="1460.042969" xlink:href="#DejaVuSans-105"/>
      <use x="1487.826172" xlink:href="#DejaVuSans-114"/>
      <use x="1528.939453" xlink:href="#DejaVuSans-115"/>
     </g>
    </g>
   </g>
   <g id="line2d_29">
    <defs>
     <path d="M 0 1.5 
C 0.397805 1.5 0.77937 1.341951 1.06066 1.06066 
C 1.341951 0.77937 1.5 0.397805 1.5 0 
C 1.5 -0.397805 1.341951 -0.77937 1.06066 -1.06066 
C 0.77937 -1.341951 0.397805 -1.5 0 -1.5 
C -0.397805 -1.5 -0.77937 -1.341951 -1.06066 -1.06066 
C -1.341951 -0.77937 -1.5 -0.397805 -1.5 0 
C -1.5 0.397805 -1.341951 0.77937 -1.06066 1.06066 
C -0.77937 1.341951 -0.397805 1.5 0 1.5 
z
" id="m3ed09220d1" style="stroke:#000080;"/>
    </defs>
    <g>
     <use style="fill:#000080;stroke:#000080;" x="255.057201" xlink:href="#m3ed09220d1" y="155.184901"/>
     <use style="fill:#000080;stroke:#000080;" x="255.057201" xlink:href="#m3ed09220d1" y="155.184901"/>
    </g>
   </g>
   <g id="line2d_30">
    <path d="M 29.53256 298.944 
L 29.53256 297.430746 
L 87.009585 297.430746 
L 87.009585 296.926328 
L 93.863965 296.926328 
L 93.863965 296.421911 
L 101.506816 296.421911 
L 101.506816 295.917493 
L 106.802819 295.917493 
L 106.802819 295.413075 
L 112.58145 295.413075 
L 112.58145 294.404239 
L 115.586238 294.404239 
L 115.586238 293.899821 
L 116.914437 293.899821 
L 116.914437 293.395403 
L 118.148599 293.395403 
L 118.148599 292.386567 
L 119.301163 292.386567 
L 119.301163 291.88215 
L 120.382253 291.88215 
L 120.382253 291.377732 
L 121.400219 291.377732 
L 121.400219 290.368896 
L 122.362027 290.368896 
L 122.362027 289.864478 
L 124.139788 289.864478 
L 124.139788 288.855642 
L 124.965026 288.855642 
L 124.965026 286.837971 
L 126.50685 286.837971 
L 126.50685 286.333553 
L 127.229484 286.333553 
L 127.229484 285.829135 
L 127.923363 285.829135 
L 127.923363 285.324717 
L 128.590686 285.324717 
L 128.590686 283.811463 
L 129.233413 283.811463 
L 129.233413 283.307045 
L 129.853291 283.307045 
L 129.853291 282.29821 
L 130.45189 282.29821 
L 130.45189 281.793792 
L 131.030622 281.793792 
L 131.030622 281.289374 
L 131.590764 281.289374 
L 131.590764 280.784956 
L 132.133473 280.784956 
L 132.133473 280.280538 
L 133.170708 280.280538 
L 133.170708 279.77612 
L 133.667073 279.77612 
L 133.667073 278.767284 
L 134.61933 278.767284 
L 134.61933 278.262867 
L 135.076644 278.262867 
L 135.076644 277.758449 
L 135.956794 277.758449 
L 135.956794 276.749613 
L 136.380754 276.749613 
L 136.380754 276.245195 
L 136.79465 276.245195 
L 136.79465 275.740777 
L 137.594091 275.740777 
L 137.594091 275.236359 
L 137.980475 275.236359 
L 137.980475 274.227523 
L 139.793552 274.227523 
L 139.793552 272.71427 
L 140.134598 272.71427 
L 140.134598 271.201016 
L 140.79731 271.201016 
L 140.79731 270.19218 
L 141.746425 270.19218 
L 141.746425 269.687762 
L 142.351634 269.687762 
L 142.351634 269.183344 
L 142.646541 269.183344 
L 142.646541 268.678927 
L 142.936543 268.678927 
L 142.936543 268.174509 
L 143.502469 268.174509 
L 143.502469 267.670091 
L 145.097753 267.670091 
L 145.097753 266.661255 
L 149.359452 266.661255 
L 149.359452 266.156837 
L 153.423725 266.156837 
L 153.423725 265.652419 
L 156.003167 265.652419 
L 156.003167 265.148001 
L 157.720277 265.148001 
L 157.720277 264.139166 
L 159.847601 264.139166 
L 159.847601 263.634748 
L 160.942717 263.634748 
L 160.942717 263.13033 
L 162.346481 263.13033 
L 162.346481 262.625912 
L 163.637643 262.625912 
L 163.637643 262.121494 
L 164.341251 262.121494 
L 164.341251 261.617076 
L 164.951104 261.617076 
L 164.951104 261.112658 
L 165.454301 261.112658 
L 165.454301 260.60824 
L 165.936393 260.60824 
L 165.936393 259.599405 
L 166.459886 259.599405 
L 166.459886 258.590569 
L 166.968122 258.590569 
L 166.968122 258.086151 
L 167.829655 258.086151 
L 167.873511 257.077315 
L 168.403509 257.077315 
L 168.403509 256.572897 
L 168.542565 256.572897 
L 168.542565 256.068479 
L 168.82332 256.068479 
L 168.82332 255.564061 
L 168.994323 255.564061 
L 168.994323 254.555226 
L 169.204297 254.555226 
L 169.204297 254.050808 
L 169.525979 254.050808 
L 169.525979 253.041972 
L 169.836245 253.041972 
L 169.836245 252.537554 
L 170.58055 252.537554 
L 170.58055 252.033136 
L 170.772368 252.033136 
L 170.772368 251.0243 
L 170.930621 251.0243 
L 170.930621 250.519883 
L 171.180875 250.519883 
L 171.180875 250.015465 
L 171.49381 250.015465 
L 171.49381 249.006629 
L 171.685953 249.006629 
L 171.711078 247.493375 
L 172.014724 247.493375 
L 172.019658 245.980122 
L 172.414747 245.980122 
L 172.414747 245.475704 
L 172.620905 245.475704 
L 172.62567 243.458032 
L 173.24815 243.458032 
L 173.24815 242.953614 
L 173.417442 242.953614 
L 173.512801 240.935943 
L 173.813602 240.935943 
L 173.813602 240.431525 
L 174.100548 240.431525 
L 174.148644 239.422689 
L 174.408678 239.422689 
L 174.408678 238.413853 
L 174.963293 238.413853 
L 174.963293 237.405017 
L 175.215651 237.405017 
L 175.260772 235.387346 
L 175.561317 235.387346 
L 175.561317 234.37851 
L 175.931828 234.37851 
L 175.931828 233.874092 
L 176.073165 233.874092 
L 176.135616 231.352003 
L 176.25985 231.352003 
L 176.30621 230.343167 
L 176.501879 230.343167 
L 176.596999 228.829913 
L 176.733067 228.829913 
L 176.733067 227.821078 
L 177.16075 227.821078 
L 177.252352 226.307824 
L 177.332567 226.307824 
L 177.358012 224.79457 
L 177.506309 224.79457 
L 177.506309 223.785734 
L 177.883967 223.785734 
L 177.905102 222.272481 
L 178.394524 222.272481 
L 178.394524 221.768063 
L 178.635866 221.768063 
L 178.635866 221.263645 
L 178.927114 221.263645 
L 178.927114 220.759227 
L 179.948981 220.759227 
L 179.948981 220.254809 
L 180.083094 220.254809 
L 180.083094 219.245973 
L 181.135043 219.245973 
L 181.187615 217.228302 
L 181.622503 217.228302 
L 181.622503 216.723884 
L 182.218083 216.723884 
L 182.245551 215.21063 
L 182.444765 215.21063 
L 182.444765 214.201794 
L 183.047467 214.201794 
L 183.047467 213.192959 
L 183.232591 213.192959 
L 183.232591 212.688541 
L 183.571627 212.688541 
L 183.571627 211.679705 
L 184.37689 211.679705 
L 184.37689 210.670869 
L 185.19534 210.670869 
L 185.19534 209.662033 
L 185.756328 209.662033 
L 185.756328 209.157616 
L 185.943825 209.157616 
L 185.943825 208.14878 
L 186.225713 208.14878 
L 186.293303 205.62669 
L 186.3628 205.62669 
L 186.466528 202.600183 
L 186.492364 202.600183 
L 186.543922 201.591347 
L 187.213046 201.591347 
L 187.213046 200.582511 
L 188.108287 200.582511 
L 188.108287 199.573676 
L 189.644649 199.573676 
L 189.644649 199.069258 
L 192.896778 199.069258 
L 192.896778 198.060422 
L 205.172259 198.060422 
L 205.172259 197.556004 
L 205.541304 197.556004 
L 205.541304 197.051586 
L 205.773573 197.051586 
L 205.773573 196.547168 
L 207.091886 196.547168 
L 207.091886 196.04275 
L 207.262719 196.04275 
L 207.262719 195.033915 
L 207.684535 195.033915 
L 207.684535 194.529497 
L 207.845261 194.529497 
L 207.927904 193.016243 
L 207.996371 193.016243 
L 207.996371 192.511825 
L 208.307041 192.511825 
L 208.307041 192.007407 
L 208.611062 192.007407 
L 208.611062 191.502989 
L 208.845505 191.502989 
L 208.845505 190.998572 
L 209.233461 190.998572 
L 209.283611 188.9809 
L 209.705865 188.9809 
L 209.705865 188.476482 
L 210.050283 188.476482 
L 210.050283 187.972064 
L 210.360682 187.972064 
L 210.360682 187.467646 
L 210.611775 187.467646 
L 210.694139 186.458811 
L 210.825224 186.458811 
L 210.825224 185.449975 
L 211.316104 185.449975 
L 211.42099 181.414632 
L 211.435923 181.414632 
L 211.435923 180.910214 
L 211.60291 180.910214 
L 211.60291 180.405796 
L 211.803626 180.405796 
L 211.803626 179.39696 
L 211.929161 179.39696 
L 211.929161 178.892542 
L 213.024777 178.892542 
L 213.05623 177.379288 
L 213.242374 177.379288 
L 213.242374 176.874871 
L 213.634233 176.874871 
L 213.634233 176.370453 
L 214.048523 176.370453 
L 214.048523 175.866035 
L 215.059867 175.866035 
L 215.059867 175.361617 
L 215.653817 175.361617 
L 215.653817 174.352781 
L 215.93085 174.352781 
L 215.93085 173.848363 
L 217.35361 173.848363 
L 217.35361 172.839527 
L 217.709575 172.839527 
L 217.709575 172.33511 
L 218.237054 172.33511 
L 218.237054 171.830692 
L 218.606679 171.830692 
L 218.606679 171.326274 
L 219.645054 171.326274 
L 219.645054 170.821856 
L 220.304575 170.821856 
L 220.304575 170.317438 
L 222.172787 170.317438 
L 222.172787 169.81302 
L 222.97759 169.81302 
L 222.97759 168.804184 
L 224.267514 168.804184 
L 224.267514 168.299766 
L 225.073016 168.299766 
L 225.073016 167.795349 
L 225.827848 167.795349 
L 225.827848 167.290931 
L 226.211232 167.290931 
L 226.211232 166.786513 
L 226.334768 166.786513 
L 226.334768 166.282095 
L 226.661341 166.282095 
L 226.661341 165.273259 
L 227.676824 165.273259 
L 227.676824 164.264423 
L 228.173077 164.264423 
L 228.276457 162.75117 
L 229.198143 162.75117 
L 229.198143 162.246752 
L 230.33619 162.246752 
L 230.33619 161.742334 
L 236.420485 161.742334 
L 236.420485 160.733498 
L 238.360219 160.733498 
L 238.376258 159.220244 
L 243.805111 159.220244 
L 243.805111 158.715827 
L 245.155537 158.715827 
L 245.155537 158.211409 
L 248.80989 158.211409 
L 248.80989 157.202573 
L 255.056737 157.202573 
L 255.057201 155.184901 
L 338.688 155.184901 
L 338.688 155.184901 
" style="fill:none;stroke:#000080;stroke-linecap:square;stroke-width:1.5;"/>
   </g>
   <g id="line2d_31">
    <defs>
     <path d="M 0 6 
C 1.591219 6 3.117479 5.367802 4.242641 4.242641 
C 5.367802 3.117479 6 1.591219 6 0 
C 6 -1.591219 5.367802 -3.117479 4.242641 -4.242641 
C 3.117479 -5.367802 1.591219 -6 0 -6 
C -1.591219 -6 -3.117479 -5.367802 -4.242641 -4.242641 
C -5.367802 -3.117479 -6 -1.591219 -6 0 
C -6 1.591219 -5.367802 3.117479 -4.242641 4.242641 
C -3.117479 5.367802 -1.591219 6 0 6 
z
" id="m93e3477561" style="stroke:#000080;stroke-width:1.5;"/>
    </defs>
    <g>
     <use style="fill-opacity:0;stroke:#000080;stroke-width:1.5;" x="106.802819" xlink:href="#m93e3477561" y="295.413075"/>
     <use style="fill-opacity:0;stroke:#000080;stroke-width:1.5;" x="171.685953" xlink:href="#m93e3477561" y="248.502211"/>
     <use style="fill-opacity:0;stroke:#000080;stroke-width:1.5;" x="192.896778" xlink:href="#m93e3477561" y="199.069258"/>
     <use style="fill-opacity:0;stroke:#000080;stroke-width:1.5;" x="245.155537" xlink:href="#m93e3477561" y="158.715827"/>
     <use style="fill-opacity:0;stroke:#000080;stroke-width:1.5;" x="255.057201" xlink:href="#m93e3477561" y="155.184901"/>
     <use style="fill-opacity:0;stroke:#000080;stroke-width:1.5;" x="338.688" xlink:href="#m93e3477561" y="155.184901"/>
    </g>
   </g>
   <g id="line2d_32">
    <path style="fill:none;stroke:#000080;stroke-linecap:square;stroke-width:1.5;"/>
    <g/>
   </g>
   <g id="line2d_33">
    <path clip-path="url(#pba16fdd8c7)" d="M 258.377143 155.184901 
" style="fill:none;stroke:#000080;stroke-linecap:square;stroke-width:1.5;"/>
    <defs>
     <path d="M -12 12 
L 12 -12 
M -12 -12 
L 12 12 
" id="m54ec8d0d3c" style="stroke:#000080;"/>
    </defs>
    <g clip-path="url(#pba16fdd8c7)">
     <use style="fill:#000080;stroke:#000080;" x="258.377143" xlink:href="#m54ec8d0d3c" y="155.184901"/>
    </g>
   </g>
   <g id="line2d_34">
    <defs>
     <path d="M 0 1.5 
C 0.397805 1.5 0.77937 1.341951 1.06066 1.06066 
C 1.341951 0.77937 1.5 0.397805 1.5 0 
C 1.5 -0.397805 1.341951 -0.77937 1.06066 -1.06066 
C 0.77937 -1.341951 0.397805 -1.5 0 -1.5 
C -0.397805 -1.5 -0.77937 -1.341951 -1.06066 -1.06066 
C -1.341951 -0.77937 -1.5 -0.397805 -1.5 0 
C -1.5 0.397805 -1.341951 0.77937 -1.06066 1.06066 
C -0.77937 1.341951 -0.397805 1.5 0 1.5 
z
" id="mfd99517fcd" style="stroke:#ff00ff;"/>
    </defs>
    <g>
     <use style="fill:#ff00ff;stroke:#ff00ff;" x="256.103771" xlink:href="#mfd99517fcd" y="171.326274"/>
     <use style="fill:#ff00ff;stroke:#ff00ff;" x="256.103771" xlink:href="#mfd99517fcd" y="171.326274"/>
    </g>
   </g>
   <g id="line2d_35">
    <path d="M 29.53256 298.944 
L 29.53256 297.935164 
L 93.863965 297.935164 
L 93.863965 297.430746 
L 98.100772 297.430746 
L 98.100772 296.926328 
L 108.948899 296.926328 
L 108.948899 296.421911 
L 118.148599 296.421911 
L 118.148599 295.413075 
L 120.382253 295.413075 
L 120.382253 293.899821 
L 123.273551 293.899821 
L 123.273551 293.395403 
L 125.752972 293.395403 
L 125.752972 292.890985 
L 126.50685 292.890985 
L 126.50685 292.386567 
L 127.229484 292.386567 
L 127.229484 291.88215 
L 131.030622 291.88215 
L 131.030622 291.377732 
L 142.07914 291.377732 
L 142.07914 290.873314 
L 144.582038 290.873314 
L 144.582038 290.368896 
L 156.260804 290.368896 
L 156.260804 289.864478 
L 161.118732 289.864478 
L 161.21983 288.855642 
L 161.320345 288.855642 
L 161.320345 288.351224 
L 161.519653 288.351224 
L 161.519653 287.846806 
L 161.814408 287.846806 
L 161.814408 287.342389 
L 164.921483 287.342389 
L 164.921483 286.837971 
L 165.403908 286.837971 
L 165.403908 286.333553 
L 165.950372 286.333553 
L 165.950372 285.829135 
L 173.755642 285.829135 
L 173.755642 285.324717 
L 174.511615 285.324717 
L 174.511615 284.820299 
L 175.260772 284.820299 
L 175.350666 283.307045 
L 175.484643 283.307045 
L 175.484643 282.802628 
L 176.131719 282.802628 
L 176.131719 282.29821 
L 176.634902 282.29821 
L 176.634902 281.793792 
L 177.774364 281.793792 
L 177.774364 281.289374 
L 183.32829 281.289374 
L 183.32829 280.784956 
L 184.316062 280.784956 
L 184.316062 280.280538 
L 185.751839 280.280538 
L 185.751839 279.77612 
L 186.963553 279.77612 
L 186.963553 279.271702 
L 188.114169 279.271702 
L 188.114169 278.767284 
L 189.202756 278.767284 
L 189.202756 278.262867 
L 189.523924 278.262867 
L 189.523924 277.758449 
L 192.978544 277.758449 
L 192.978544 277.254031 
L 193.474232 277.254031 
L 193.537548 276.245195 
L 195.073747 276.245195 
L 195.073747 275.740777 
L 199.360797 275.740777 
L 199.360797 275.236359 
L 199.634312 275.236359 
L 199.634312 274.731941 
L 200.061426 274.731941 
L 200.061426 274.227523 
L 202.228306 274.227523 
L 202.228306 273.723105 
L 202.370838 273.723105 
L 202.370838 272.71427 
L 202.712821 272.71427 
L 202.712821 272.209852 
L 202.891834 272.209852 
L 202.891834 271.705434 
L 203.300333 271.705434 
L 203.308538 270.696598 
L 204.118695 270.696598 
L 204.118695 269.687762 
L 204.41065 269.687762 
L 204.41065 268.678927 
L 205.529032 268.678927 
L 205.529032 268.174509 
L 205.85882 268.174509 
L 205.85882 267.165673 
L 206.195699 267.165673 
L 206.195699 266.661255 
L 206.396121 266.661255 
L 206.396121 266.156837 
L 206.554136 266.156837 
L 206.554136 265.652419 
L 206.745789 265.652419 
L 206.745789 265.148001 
L 207.117618 265.148001 
L 207.117618 264.139166 
L 208.261409 264.139166 
L 208.279923 262.625912 
L 208.526737 262.625912 
L 208.526737 261.617076 
L 209.979368 261.617076 
L 210.077568 260.103822 
L 210.11425 260.103822 
L 210.11425 259.094987 
L 210.752045 259.094987 
L 210.752045 258.590569 
L 210.908179 258.590569 
L 210.908179 257.581733 
L 211.075018 257.581733 
L 211.134817 256.572897 
L 211.188149 256.572897 
L 211.188149 256.068479 
L 211.369918 256.068479 
L 211.369918 255.059644 
L 213.054354 255.059644 
L 213.054354 254.555226 
L 213.45408 254.555226 
L 213.45408 254.050808 
L 213.771625 254.050808 
L 213.771625 253.54639 
L 214.069778 253.54639 
L 214.069778 253.041972 
L 214.944083 253.041972 
L 214.944083 252.537554 
L 215.252802 252.537554 
L 215.25735 251.528718 
L 217.804856 251.528718 
L 217.804856 251.0243 
L 217.954602 251.0243 
L 218.043273 249.511047 
L 218.080936 249.511047 
L 218.180159 247.493375 
L 218.599513 247.493375 
L 218.599513 246.988957 
L 218.993342 246.988957 
L 218.993342 246.484539 
L 219.809819 246.484539 
L 219.809819 245.980122 
L 219.930404 245.980122 
L 219.930404 245.475704 
L 220.418415 245.475704 
L 220.418415 244.971286 
L 220.932299 244.971286 
L 220.932299 243.96245 
L 222.487494 243.96245 
L 222.557541 241.944778 
L 222.905215 241.944778 
L 222.905215 240.935943 
L 223.062355 240.935943 
L 223.062355 240.431525 
L 223.825977 240.431525 
L 223.825977 239.422689 
L 225.155237 239.422689 
L 225.155237 238.918271 
L 225.442532 238.918271 
L 225.533586 237.405017 
L 226.341338 237.405017 
L 226.341338 236.9006 
L 226.485469 236.9006 
L 226.485469 235.891764 
L 226.660266 235.891764 
L 226.744338 234.882928 
L 227.145765 234.882928 
L 227.145765 234.37851 
L 227.400648 234.37851 
L 227.480823 232.865256 
L 227.560835 232.865256 
L 227.647594 231.352003 
L 227.727453 231.352003 
L 227.727453 230.343167 
L 228.176428 230.343167 
L 228.271753 228.829913 
L 228.547698 228.829913 
L 228.547698 228.325495 
L 229.170985 228.325495 
L 229.170985 227.31666 
L 230.267973 227.31666 
L 230.267973 226.812242 
L 230.558178 226.812242 
L 230.632977 224.79457 
L 230.67111 224.79457 
L 230.67111 224.290152 
L 231.44033 224.290152 
L 231.44033 223.281316 
L 231.902265 223.281316 
L 231.971685 221.768063 
L 232.013964 221.768063 
L 232.089715 219.245973 
L 232.360964 219.245973 
L 232.360964 218.237138 
L 232.54526 218.237138 
L 232.54526 217.228302 
L 233.477775 217.228302 
L 233.548453 215.715048 
L 234.004885 215.715048 
L 234.075289 213.697377 
L 234.168209 213.697377 
L 234.168209 213.192959 
L 235.369476 213.192959 
L 235.369476 212.184123 
L 239.143614 212.184123 
L 239.143614 211.679705 
L 239.720136 211.679705 
L 239.778902 209.157616 
L 240.531675 209.157616 
L 240.531675 208.14878 
L 242.546509 208.14878 
L 242.546509 207.644362 
L 242.851011 207.644362 
L 242.851011 206.635526 
L 245.102976 206.635526 
L 245.102976 206.131108 
L 245.291163 206.131108 
L 245.291163 205.62669 
L 245.561328 205.62669 
L 245.561328 204.617855 
L 245.938542 204.617855 
L 245.938542 204.113437 
L 246.329288 204.113437 
L 246.387652 201.591347 
L 246.704661 201.591347 
L 246.786818 198.56484 
L 246.891382 198.56484 
L 246.891382 198.060422 
L 247.060048 198.060422 
L 247.170023 196.547168 
L 247.32742 196.547168 
L 247.391647 195.033915 
L 247.630008 195.033915 
L 247.700017 194.025079 
L 248.200255 194.025079 
L 248.200255 193.520661 
L 248.347918 193.520661 
L 248.423752 192.007407 
L 248.585571 192.007407 
L 248.585571 191.502989 
L 248.754686 191.502989 
L 248.754686 190.998572 
L 249.091697 190.998572 
L 249.181222 189.989736 
L 249.717645 189.989736 
L 249.742384 188.476482 
L 249.845884 188.476482 
L 249.845884 187.467646 
L 249.976744 187.467646 
L 250.066007 186.458811 
L 250.181176 186.458811 
L 250.181176 185.954393 
L 250.705797 185.954393 
L 250.705797 184.945557 
L 250.970148 184.945557 
L 250.970148 184.441139 
L 251.268343 184.441139 
L 251.268343 183.936721 
L 252.401312 183.936721 
L 252.401312 182.927885 
L 252.926852 182.927885 
L 252.970563 181.414632 
L 253.160507 181.414632 
L 253.18852 175.361617 
L 253.58648 175.361617 
L 253.662699 173.343945 
L 254.50986 173.343945 
L 254.50986 172.839527 
L 256.092204 172.839527 
L 256.103771 171.326274 
L 338.688 171.326274 
L 338.688 171.326274 
" style="fill:none;stroke:#ff00ff;stroke-linecap:square;stroke-width:1.5;"/>
   </g>
   <g id="line2d_36">
    <defs>
     <path d="M -0 8.485281 
L 5.091169 0 
L 0 -8.485281 
L -5.091169 -0 
z
" id="me11223ef17" style="stroke:#ff00ff;stroke-linejoin:miter;stroke-width:1.5;"/>
    </defs>
    <g>
     <use style="fill-opacity:0;stroke:#ff00ff;stroke-linejoin:miter;stroke-width:1.5;" x="93.863965" xlink:href="#me11223ef17" y="297.935164"/>
     <use style="fill-opacity:0;stroke:#ff00ff;stroke-linejoin:miter;stroke-width:1.5;" x="177.774364" xlink:href="#me11223ef17" y="281.793792"/>
     <use style="fill-opacity:0;stroke:#ff00ff;stroke-linejoin:miter;stroke-width:1.5;" x="229.170985" xlink:href="#me11223ef17" y="227.31666"/>
     <use style="fill-opacity:0;stroke:#ff00ff;stroke-linejoin:miter;stroke-width:1.5;" x="256.103771" xlink:href="#me11223ef17" y="171.830692"/>
     <use style="fill-opacity:0;stroke:#ff00ff;stroke-linejoin:miter;stroke-width:1.5;" x="256.103771" xlink:href="#me11223ef17" y="171.326274"/>
     <use style="fill-opacity:0;stroke:#ff00ff;stroke-linejoin:miter;stroke-width:1.5;" x="338.688" xlink:href="#me11223ef17" y="171.326274"/>
    </g>
   </g>
   <g id="line2d_37">
    <path style="fill:none;stroke:#ff00ff;stroke-linecap:square;stroke-width:1.5;"/>
    <g/>
   </g>
   <g id="line2d_38">
    <path clip-path="url(#pba16fdd8c7)" d="M 258.377108 171.326274 
" style="fill:none;stroke:#ff00ff;stroke-linecap:square;stroke-width:1.5;"/>
    <defs>
     <path d="M -12 12 
L 12 -12 
M -12 -12 
L 12 12 
" id="m54ed027944" style="stroke:#ff00ff;"/>
    </defs>
    <g clip-path="url(#pba16fdd8c7)">
     <use style="fill:#ff00ff;stroke:#ff00ff;" x="258.377108" xlink:href="#m54ed027944" y="171.326274"/>
    </g>
   </g>
   <g id="line2d_39">
    <defs>
     <path d="M 0 1.5 
C 0.397805 1.5 0.77937 1.341951 1.06066 1.06066 
C 1.341951 0.77937 1.5 0.397805 1.5 0 
C 1.5 -0.397805 1.341951 -0.77937 1.06066 -1.06066 
C 0.77937 -1.341951 0.397805 -1.5 0 -1.5 
C -0.397805 -1.5 -0.77937 -1.341951 -1.06066 -1.06066 
C -1.341951 -0.77937 -1.5 -0.397805 -1.5 0 
C -1.5 0.397805 -1.341951 0.77937 -1.06066 1.06066 
C -0.77937 1.341951 -0.397805 1.5 0 1.5 
z
" id="ma75effb467" style="stroke:#ff7500;"/>
    </defs>
    <g>
     <use style="fill:#ff7500;stroke:#ff7500;" x="258.162298" xlink:href="#ma75effb467" y="61.363174"/>
     <use style="fill:#ff7500;stroke:#ff7500;" x="258.162298" xlink:href="#ma75effb467" y="61.363174"/>
    </g>
   </g>
   <g id="line2d_40">
    <path d="M 29.53256 298.944 
L 29.53256 295.413075 
L 98.100772 295.413075 
L 98.100772 294.908657 
L 106.802819 294.908657 
L 106.802819 293.899821 
L 110.859585 293.899821 
L 110.859585 292.386567 
L 112.58145 292.386567 
L 112.58145 291.377732 
L 114.148479 291.377732 
L 114.148479 290.873314 
L 115.586238 290.873314 
L 115.586238 289.36006 
L 116.914437 289.36006 
L 116.914437 287.846806 
L 119.301163 287.846806 
L 119.301163 285.829135 
L 120.382253 285.829135 
L 120.382253 284.820299 
L 121.400219 284.820299 
L 121.400219 284.315881 
L 122.362027 284.315881 
L 122.362027 282.802628 
L 123.273551 282.802628 
L 123.273551 281.289374 
L 124.139788 281.289374 
L 124.139788 280.784956 
L 124.965026 280.784956 
L 124.965026 280.280538 
L 125.752972 280.280538 
L 125.752972 279.271702 
L 126.50685 279.271702 
L 126.50685 278.767284 
L 127.229484 278.767284 
L 127.229484 277.758449 
L 127.923363 277.758449 
L 127.923363 275.236359 
L 128.590686 275.236359 
L 128.590686 274.731941 
L 129.233413 274.731941 
L 129.233413 274.227523 
L 129.853291 274.227523 
L 129.853291 273.723105 
L 130.45189 273.723105 
L 130.45189 272.71427 
L 131.030622 272.71427 
L 131.030622 271.201016 
L 131.590764 271.201016 
L 131.590764 269.183344 
L 132.133473 269.183344 
L 132.133473 268.174509 
L 132.659801 268.174509 
L 132.659801 267.165673 
L 133.170708 267.165673 
L 133.170708 264.643583 
L 134.149701 264.643583 
L 134.149701 263.634748 
L 134.61933 263.634748 
L 134.61933 262.625912 
L 135.076644 262.625912 
L 135.076644 261.617076 
L 135.522271 261.617076 
L 135.522271 259.599405 
L 135.956794 259.599405 
L 135.956794 258.590569 
L 136.380754 258.590569 
L 136.380754 258.086151 
L 136.79465 258.086151 
L 136.79465 257.077315 
L 137.594091 257.077315 
L 137.594091 256.068479 
L 137.980475 256.068479 
L 137.980475 254.555226 
L 138.728473 254.555226 
L 138.728473 253.041972 
L 139.445704 253.041972 
L 139.445704 252.537554 
L 139.793552 252.537554 
L 139.793552 251.528718 
L 140.134598 251.528718 
L 140.134598 250.519883 
L 140.79731 250.519883 
L 140.79731 249.511047 
L 141.119455 249.511047 
L 141.119455 249.006629 
L 141.435758 249.006629 
L 141.435758 248.502211 
L 142.351634 248.502211 
L 142.351634 247.493375 
L 142.936543 247.493375 
L 142.936543 246.484539 
L 144.318346 246.484539 
L 144.318346 243.96245 
L 144.841802 243.96245 
L 144.841802 243.458032 
L 146.559258 243.458032 
L 146.559258 241.944778 
L 154.001564 241.944778 
L 154.001564 241.440361 
L 158.931675 241.440361 
L 158.931675 240.431525 
L 160.422949 240.431525 
L 160.422949 239.927107 
L 161.274728 239.927107 
L 161.274728 239.422689 
L 161.672119 239.422689 
L 161.672119 237.909435 
L 162.720437 237.909435 
L 162.720437 236.9006 
L 162.846111 236.9006 
L 162.846111 236.396182 
L 163.193255 236.396182 
L 163.193255 235.891764 
L 163.477355 235.891764 
L 163.477355 234.882928 
L 163.922502 234.882928 
L 163.922502 234.37851 
L 164.039833 234.37851 
L 164.125377 232.865256 
L 165.468672 232.865256 
L 165.468672 231.856421 
L 165.640207 231.856421 
L 165.640207 230.847585 
L 166.006178 230.847585 
L 166.006178 229.334331 
L 166.648858 229.334331 
L 166.648858 228.325495 
L 167.105982 228.325495 
L 167.105982 226.812242 
L 167.773105 226.812242 
L 167.817104 224.79457 
L 168.391365 224.79457 
L 168.494323 222.272481 
L 168.548585 222.272481 
L 168.548585 221.263645 
L 168.722291 221.263645 
L 168.722291 219.750391 
L 168.911979 219.750391 
L 168.911979 218.741555 
L 169.192698 218.741555 
L 169.192698 218.237138 
L 169.354388 218.237138 
L 169.457545 217.228302 
L 170.019789 217.228302 
L 170.019789 216.219466 
L 170.228776 216.219466 
L 170.267003 215.21063 
L 170.543006 215.21063 
L 170.623359 214.201794 
L 170.867492 214.201794 
L 170.867492 213.192959 
L 171.488725 213.192959 
L 171.488725 212.184123 
L 171.791236 212.184123 
L 171.791236 211.679705 
L 172.673253 211.679705 
L 172.673253 211.175287 
L 173.007413 211.175287 
L 173.007413 210.670869 
L 173.321559 210.670869 
L 173.321559 209.662033 
L 175.120928 209.662033 
L 175.120928 208.653198 
L 175.805227 208.653198 
L 175.805227 208.14878 
L 176.417742 208.14878 
L 176.417742 207.139944 
L 177.013177 207.139944 
L 177.013177 206.131108 
L 177.588952 206.131108 
L 177.588952 205.122272 
L 179.870531 205.122272 
L 179.870531 204.113437 
L 183.451664 204.113437 
L 183.451664 203.104601 
L 185.137306 203.104601 
L 185.137306 202.600183 
L 186.380131 202.600183 
L 186.380131 202.095765 
L 188.93738 202.095765 
L 188.93738 201.591347 
L 215.001651 201.591347 
L 215.001651 201.086929 
L 215.140377 201.086929 
L 215.191909 199.069258 
L 215.256937 199.069258 
L 215.322135 197.556004 
L 215.396526 197.556004 
L 215.48448 195.538333 
L 215.633195 195.538333 
L 215.690956 194.529497 
L 215.767407 194.529497 
L 215.819123 193.520661 
L 215.959861 193.520661 
L 216.045027 191.502989 
L 216.163957 191.502989 
L 216.163957 189.989736 
L 217.370465 189.989736 
L 217.370465 188.9809 
L 217.560961 188.9809 
L 217.560961 187.972064 
L 217.703467 187.972064 
L 217.703467 186.963228 
L 218.392133 186.963228 
L 218.392133 186.458811 
L 219.09648 186.458811 
L 219.09648 185.449975 
L 222.688428 185.449975 
L 222.688428 184.945557 
L 222.800109 184.945557 
L 222.800109 183.936721 
L 222.978387 183.936721 
L 223.078203 182.423467 
L 223.264648 182.423467 
L 223.264648 181.91905 
L 223.547314 181.91905 
L 223.586334 180.910214 
L 224.402621 180.910214 
L 224.48757 177.883706 
L 224.541303 177.883706 
L 224.638138 173.848363 
L 224.826151 173.848363 
L 224.826151 173.343945 
L 224.99561 173.343945 
L 225.097723 171.830692 
L 225.15594 171.830692 
L 225.238705 170.821856 
L 225.343815 170.821856 
L 225.343815 169.81302 
L 225.504436 169.81302 
L 225.504436 168.804184 
L 225.822435 168.804184 
L 225.822435 168.299766 
L 225.95882 168.299766 
L 226.039206 166.786513 
L 226.117005 166.786513 
L 226.218731 165.273259 
L 226.248473 165.273259 
L 226.358845 163.760005 
L 226.361907 163.760005 
L 226.452866 160.733498 
L 226.487206 160.733498 
L 226.541838 158.211409 
L 226.781953 158.211409 
L 226.781953 157.706991 
L 227.041118 157.706991 
L 227.041118 157.202573 
L 227.317825 157.202573 
L 227.317825 156.698155 
L 228.106916 156.698155 
L 228.165585 155.184901 
L 228.863168 155.184901 
L 228.915385 153.671648 
L 229.799359 153.671648 
L 229.799359 153.16723 
L 229.917832 153.16723 
L 229.917832 152.662812 
L 230.143414 152.662812 
L 230.143414 152.158394 
L 231.060462 152.158394 
L 231.060462 151.149558 
L 231.309411 151.149558 
L 231.338863 149.131887 
L 231.561025 149.131887 
L 231.561025 148.627469 
L 232.15761 148.627469 
L 232.15761 148.123051 
L 233.068441 148.123051 
L 233.148057 146.609797 
L 233.237635 146.609797 
L 233.237635 146.105379 
L 233.455365 146.105379 
L 233.455365 145.600961 
L 233.685937 145.600961 
L 233.685937 144.592126 
L 233.872746 144.592126 
L 233.872746 143.58329 
L 234.075711 143.58329 
L 234.075711 143.078872 
L 234.318243 143.078872 
L 234.389604 142.070036 
L 235.180178 142.070036 
L 235.180178 141.565618 
L 235.478342 141.565618 
L 235.478342 141.0612 
L 236.370909 141.0612 
L 236.394176 139.043529 
L 236.886054 139.043529 
L 236.899326 137.530275 
L 237.005609 137.530275 
L 237.005609 136.521439 
L 237.143217 136.521439 
L 237.143217 136.017022 
L 237.278813 136.017022 
L 237.292256 135.008186 
L 237.670354 135.008186 
L 237.680871 133.494932 
L 237.880623 133.494932 
L 237.880623 132.486096 
L 238.154575 132.486096 
L 238.248521 129.964007 
L 238.335031 129.964007 
L 238.420675 128.955171 
L 238.496525 128.955171 
L 238.562162 127.441917 
L 238.692484 127.441917 
L 238.692484 126.937499 
L 238.863109 126.937499 
L 238.863109 125.928664 
L 238.989937 125.928664 
L 239.043498 124.919828 
L 239.298761 124.919828 
L 239.348995 123.910992 
L 239.79875 123.910992 
L 239.79875 122.902156 
L 239.966856 122.902156 
L 239.966856 122.397738 
L 240.092104 122.397738 
L 240.112593 120.884485 
L 240.286279 120.884485 
L 240.286279 120.380067 
L 240.557664 120.380067 
L 240.557664 119.371231 
L 241.030084 119.371231 
L 241.035835 118.362395 
L 241.446357 118.362395 
L 241.4505 116.849142 
L 241.694139 116.849142 
L 241.696318 115.840306 
L 241.812124 115.840306 
L 241.812124 115.335888 
L 242.376926 115.335888 
L 242.404578 114.327052 
L 242.669189 114.327052 
L 242.669189 113.822634 
L 242.936694 113.822634 
L 243.0339 111.804963 
L 243.257357 111.804963 
L 243.257357 110.796127 
L 243.807846 110.796127 
L 243.807846 109.787291 
L 244.134187 109.787291 
L 244.134187 109.282873 
L 244.491923 109.282873 
L 244.520434 107.265202 
L 244.95089 107.265202 
L 244.95089 106.760784 
L 245.219366 106.760784 
L 245.219366 105.751948 
L 245.523758 105.751948 
L 245.523758 104.743112 
L 245.653234 104.743112 
L 245.716279 102.221023 
L 245.793673 102.221023 
L 245.793673 101.716605 
L 246.247739 101.716605 
L 246.247739 101.212187 
L 246.371691 101.212187 
L 246.371691 100.707769 
L 246.50607 100.707769 
L 246.50607 100.203351 
L 246.866565 100.203351 
L 246.866565 99.698933 
L 246.988623 99.698933 
L 246.988623 99.194516 
L 247.099913 99.194516 
L 247.099913 98.18568 
L 247.259327 98.18568 
L 247.259327 97.681262 
L 247.623612 97.681262 
L 247.623612 97.176844 
L 248.082326 97.176844 
L 248.082326 96.168008 
L 248.416344 96.168008 
L 248.517868 93.645919 
L 248.55117 93.645919 
L 248.619965 92.132665 
L 248.785604 92.132665 
L 248.896365 90.619411 
L 249.036664 90.619411 
L 249.036664 90.114994 
L 249.20638 90.114994 
L 249.226727 89.106158 
L 249.550079 89.106158 
L 249.550079 88.60174 
L 249.709391 88.60174 
L 249.709391 88.097322 
L 250.047685 88.097322 
L 250.047685 87.088486 
L 250.7229 87.088486 
L 250.777561 85.070815 
L 251.045561 85.070815 
L 251.045561 84.061979 
L 251.356363 84.061979 
L 251.443629 83.053143 
L 252.119928 83.053143 
L 252.137395 81.539889 
L 252.586929 81.539889 
L 252.586929 81.035471 
L 253.904801 81.035471 
L 253.904801 80.026636 
L 254.666371 80.026636 
L 254.666371 79.0178 
L 254.889271 79.0178 
L 254.889271 78.513382 
L 255.915648 78.513382 
L 255.915648 77.504546 
L 256.8217 77.504546 
L 256.86717 72.460367 
L 256.950075 72.460367 
L 256.971638 65.398517 
L 257.320403 65.398517 
L 257.320403 64.389681 
L 257.542257 64.389681 
L 257.542257 63.885263 
L 257.703126 63.885263 
L 257.703126 62.876427 
L 258.153398 62.876427 
L 258.162298 61.363174 
L 338.688 61.363174 
L 338.688 61.363174 
" style="fill:none;stroke:#ff7500;stroke-linecap:square;stroke-width:1.5;"/>
   </g>
   <g id="line2d_41">
    <defs>
     <path d="M 0 -6 
L -1.347084 -1.854102 
L -5.706339 -1.854102 
L -2.179628 0.708204 
L -3.526712 4.854102 
L -0 2.291796 
L 3.526712 4.854102 
L 2.179628 0.708204 
L 5.706339 -1.854102 
L 1.347084 -1.854102 
z
" id="mb5f5a97f89" style="stroke:#ff7500;stroke-linejoin:bevel;stroke-width:1.5;"/>
    </defs>
    <g>
     <use style="fill-opacity:0;stroke:#ff7500;stroke-linejoin:bevel;stroke-width:1.5;" x="127.229484" xlink:href="#mb5f5a97f89" y="277.758449"/>
     <use style="fill-opacity:0;stroke:#ff7500;stroke-linejoin:bevel;stroke-width:1.5;" x="215.140377" xlink:href="#mb5f5a97f89" y="200.078094"/>
     <use style="fill-opacity:0;stroke:#ff7500;stroke-linejoin:bevel;stroke-width:1.5;" x="241.035835" xlink:href="#mb5f5a97f89" y="118.866813"/>
     <use style="fill-opacity:0;stroke:#ff7500;stroke-linejoin:bevel;stroke-width:1.5;" x="258.162298" xlink:href="#mb5f5a97f89" y="61.363174"/>
     <use style="fill-opacity:0;stroke:#ff7500;stroke-linejoin:bevel;stroke-width:1.5;" x="258.162298" xlink:href="#mb5f5a97f89" y="61.363174"/>
     <use style="fill-opacity:0;stroke:#ff7500;stroke-linejoin:bevel;stroke-width:1.5;" x="338.688" xlink:href="#mb5f5a97f89" y="61.363174"/>
    </g>
   </g>
   <g id="line2d_42">
    <path style="fill:none;stroke:#ff7500;stroke-linecap:square;stroke-width:1.5;"/>
    <g/>
   </g>
   <g id="line2d_43">
    <path clip-path="url(#pba16fdd8c7)" d="M 258.377143 61.363174 
" style="fill:none;stroke:#ff7500;stroke-linecap:square;stroke-width:1.5;"/>
    <defs>
     <path d="M -12 12 
L 12 -12 
M -12 -12 
L 12 12 
" id="m5f97512e86" style="stroke:#ff7500;"/>
    </defs>
    <g clip-path="url(#pba16fdd8c7)">
     <use style="fill:#ff7500;stroke:#ff7500;" x="258.377143" xlink:href="#m5f97512e86" y="61.363174"/>
    </g>
   </g>
   <g id="line2d_44">
    <defs>
     <path d="M 0 1.5 
C 0.397805 1.5 0.77937 1.341951 1.06066 1.06066 
C 1.341951 0.77937 1.5 0.397805 1.5 0 
C 1.5 -0.397805 1.341951 -0.77937 1.06066 -1.06066 
C 0.77937 -1.341951 0.397805 -1.5 0 -1.5 
C -0.397805 -1.5 -0.77937 -1.341951 -1.06066 -1.06066 
C -1.341951 -0.77937 -1.5 -0.397805 -1.5 0 
C -1.5 0.397805 -1.341951 0.77937 -1.06066 1.06066 
C -0.77937 1.341951 -0.397805 1.5 0 1.5 
z
" id="m0ce55cde94" style="stroke:#6495ed;"/>
    </defs>
    <g>
     <use style="fill:#6495ed;stroke:#6495ed;" x="258.221802" xlink:href="#m0ce55cde94" y="110.796127"/>
     <use style="fill:#6495ed;stroke:#6495ed;" x="258.221802" xlink:href="#m0ce55cde94" y="110.796127"/>
    </g>
   </g>
   <g id="line2d_45">
    <path d="M 29.53256 298.944 
L 29.53256 294.908657 
L 93.863965 294.908657 
L 93.863965 292.890985 
L 98.100772 292.890985 
L 98.100772 291.88215 
L 104.355088 291.88215 
L 104.355088 290.873314 
L 106.802819 290.873314 
L 106.802819 290.368896 
L 108.948899 290.368896 
L 108.948899 289.864478 
L 112.58145 289.864478 
L 112.58145 289.36006 
L 115.586238 289.36006 
L 115.586238 288.855642 
L 116.914437 288.855642 
L 116.914437 287.846806 
L 123.273551 287.846806 
L 123.273551 287.342389 
L 124.139788 287.342389 
L 124.139788 286.837971 
L 124.965026 286.837971 
L 124.965026 286.333553 
L 126.50685 286.333553 
L 126.50685 285.829135 
L 129.233413 285.829135 
L 129.233413 285.324717 
L 145.843812 285.324717 
L 145.843812 284.820299 
L 147.246507 284.820299 
L 147.246507 284.315881 
L 148.54473 284.315881 
L 148.54473 283.811463 
L 149.104327 283.811463 
L 149.104327 283.307045 
L 151.421542 283.307045 
L 151.421542 282.802628 
L 167.513144 282.802628 
L 167.583271 281.793792 
L 167.653117 281.793792 
L 167.653117 281.289374 
L 167.791975 281.289374 
L 167.791975 280.784956 
L 167.929737 280.784956 
L 167.929737 280.280538 
L 170.014255 280.280538 
L 170.014255 279.77612 
L 171.580031 279.77612 
L 171.580031 279.271702 
L 171.970255 279.271702 
L 171.970255 278.767284 
L 172.400273 278.767284 
L 172.400273 278.262867 
L 173.544472 278.262867 
L 173.544472 277.758449 
L 173.813602 277.758449 
L 173.813602 277.254031 
L 174.49022 277.254031 
L 174.49022 276.749613 
L 174.984116 276.749613 
L 174.984116 276.245195 
L 176.665166 276.245195 
L 176.665166 275.740777 
L 178.740203 275.740777 
L 178.740203 275.236359 
L 179.072579 275.236359 
L 179.072579 274.731941 
L 192.217624 274.731941 
L 192.217624 274.227523 
L 195.269931 274.227523 
L 195.269931 273.723105 
L 198.998061 273.723105 
L 198.998061 273.218688 
L 199.640386 273.218688 
L 199.640386 272.71427 
L 202.820281 272.71427 
L 202.820281 272.209852 
L 206.32934 272.209852 
L 206.32934 271.705434 
L 206.841837 271.705434 
L 206.841837 271.201016 
L 207.748876 271.201016 
L 207.748876 270.696598 
L 208.015168 270.696598 
L 208.015168 269.687762 
L 208.35501 269.687762 
L 208.35501 269.183344 
L 208.566827 269.183344 
L 208.566827 268.678927 
L 208.876527 268.678927 
L 208.876527 268.174509 
L 212.082588 268.174509 
L 212.082588 267.165673 
L 213.515861 267.165673 
L 213.515861 266.156837 
L 213.667777 266.156837 
L 213.667777 265.652419 
L 213.893198 265.652419 
L 213.893198 264.643583 
L 214.024137 264.643583 
L 214.024137 264.139166 
L 214.195888 264.139166 
L 214.195888 263.634748 
L 215.006265 263.634748 
L 215.006265 263.13033 
L 215.173226 263.13033 
L 215.173226 262.625912 
L 215.286678 262.625912 
L 215.286678 261.617076 
L 218.588929 261.617076 
L 218.677498 260.60824 
L 218.727714 260.60824 
L 218.820976 258.086151 
L 221.250938 258.086151 
L 221.250938 257.077315 
L 221.462492 257.077315 
L 221.517725 256.068479 
L 221.660631 256.068479 
L 221.7141 254.555226 
L 221.781629 254.555226 
L 221.848615 253.041972 
L 221.937625 253.041972 
L 221.937625 252.537554 
L 222.115967 252.537554 
L 222.141894 251.528718 
L 222.468093 251.528718 
L 222.468093 250.519883 
L 222.592594 250.519883 
L 222.592594 249.511047 
L 222.7278 249.511047 
L 222.7278 248.502211 
L 223.301699 248.502211 
L 223.301699 247.997793 
L 224.845247 247.997793 
L 224.845247 247.493375 
L 224.985437 247.493375 
L 224.985437 246.988957 
L 225.106891 246.988957 
L 225.143515 245.475704 
L 225.218868 245.475704 
L 225.329898 243.96245 
L 225.404683 243.96245 
L 225.488348 241.944778 
L 225.517754 241.944778 
L 225.566579 240.431525 
L 225.718818 240.431525 
L 225.8028 239.422689 
L 225.888177 239.422689 
L 225.983198 236.9006 
L 226.261455 236.9006 
L 226.261455 235.891764 
L 227.48554 235.891764 
L 227.48554 234.882928 
L 227.909313 234.882928 
L 228.016452 233.874092 
L 228.08256 233.874092 
L 228.08256 233.369674 
L 228.53689 233.369674 
L 228.53689 232.865256 
L 228.830548 232.865256 
L 228.930491 230.343167 
L 229.021605 230.343167 
L 229.021605 229.334331 
L 229.757468 229.334331 
L 229.763407 228.325495 
L 229.898737 228.325495 
L 229.898737 227.821078 
L 230.145174 227.821078 
L 230.145174 226.812242 
L 230.472866 226.812242 
L 230.472866 226.307824 
L 231.909586 226.307824 
L 232.000357 223.785734 
L 232.034512 223.785734 
L 232.034512 223.281316 
L 232.213831 223.281316 
L 232.213831 222.272481 
L 232.852579 222.272481 
L 232.852579 221.263645 
L 233.269012 221.263645 
L 233.300038 218.741555 
L 233.383139 218.741555 
L 233.488824 215.715048 
L 234.212602 215.715048 
L 234.212602 214.706212 
L 234.656814 214.706212 
L 234.656814 214.201794 
L 235.378476 214.201794 
L 235.378476 213.697377 
L 235.759887 213.697377 
L 235.854934 211.679705 
L 235.98376 211.679705 
L 235.98376 211.175287 
L 236.713689 211.175287 
L 236.751336 210.166451 
L 237.621345 210.166451 
L 237.621345 209.662033 
L 237.800338 209.662033 
L 237.800338 209.157616 
L 237.952104 209.157616 
L 238.01724 207.644362 
L 238.327214 207.644362 
L 238.327214 207.139944 
L 239.733653 207.139944 
L 239.820598 205.122272 
L 239.863505 205.122272 
L 239.863505 204.617855 
L 240.702795 204.617855 
L 240.702795 204.113437 
L 240.878627 204.113437 
L 240.878627 203.104601 
L 241.034138 203.104601 
L 241.034138 202.600183 
L 241.285667 202.600183 
L 241.285667 202.095765 
L 241.996187 202.095765 
L 241.996187 201.591347 
L 242.107897 201.591347 
L 242.131819 200.582511 
L 242.266492 200.582511 
L 242.35937 199.069258 
L 242.442453 199.069258 
L 242.536564 195.033915 
L 242.609594 195.033915 
L 242.609594 194.529497 
L 242.821676 194.529497 
L 242.821676 194.025079 
L 243.050707 194.025079 
L 243.050707 193.520661 
L 243.32355 193.520661 
L 243.356842 192.007407 
L 243.483805 192.007407 
L 243.483805 191.502989 
L 243.613185 191.502989 
L 243.723682 189.989736 
L 243.794491 189.989736 
L 243.794491 188.9809 
L 243.922554 188.9809 
L 243.922554 188.476482 
L 244.15856 188.476482 
L 244.159506 187.467646 
L 244.702835 187.467646 
L 244.702835 186.963228 
L 244.818881 186.963228 
L 244.884708 184.945557 
L 245.195244 184.945557 
L 245.195244 184.441139 
L 245.465132 184.441139 
L 245.465132 183.432303 
L 245.587563 183.432303 
L 245.587563 182.423467 
L 245.722838 182.423467 
L 245.722838 181.414632 
L 245.861647 181.414632 
L 245.861647 180.910214 
L 246.277012 180.910214 
L 246.339029 179.901378 
L 246.449761 179.901378 
L 246.449761 179.39696 
L 246.967098 179.39696 
L 246.967098 178.892542 
L 247.109965 178.892542 
L 247.109965 178.388124 
L 247.592373 178.388124 
L 247.592373 177.883706 
L 247.829366 177.883706 
L 247.888592 176.370453 
L 248.105033 176.370453 
L 248.210067 173.848363 
L 248.317144 173.848363 
L 248.317144 172.839527 
L 248.550129 172.839527 
L 248.556133 171.326274 
L 248.798114 171.326274 
L 248.798114 170.317438 
L 249.025935 170.317438 
L 249.030347 169.308602 
L 249.151826 169.308602 
L 249.179863 167.290931 
L 249.39286 167.290931 
L 249.464467 166.282095 
L 249.63366 166.282095 
L 249.684145 164.768841 
L 249.812972 164.768841 
L 249.813086 163.760005 
L 249.96816 163.760005 
L 249.96816 163.255588 
L 250.206046 163.255588 
L 250.206046 162.246752 
L 250.429347 162.246752 
L 250.429347 161.237916 
L 250.671487 161.237916 
L 250.74901 158.715827 
L 250.912183 158.715827 
L 250.912183 158.211409 
L 251.094933 158.211409 
L 251.094933 157.706991 
L 251.424984 157.706991 
L 251.424984 156.698155 
L 251.54956 156.698155 
L 251.54956 156.193737 
L 251.728542 156.193737 
L 251.728542 155.689319 
L 251.876817 155.689319 
L 251.97472 153.16723 
L 251.995352 153.16723 
L 252.025651 151.653976 
L 252.167399 151.653976 
L 252.270967 149.131887 
L 252.876052 149.131887 
L 252.970943 146.105379 
L 253.150579 146.105379 
L 253.212597 139.547947 
L 253.320554 139.547947 
L 253.321766 138.034693 
L 253.440489 138.034693 
L 253.440489 137.530275 
L 253.777497 137.530275 
L 253.872859 134.503768 
L 253.888883 134.503768 
L 253.938485 127.946335 
L 254.020798 127.946335 
L 254.020798 126.937499 
L 254.18276 126.937499 
L 254.249795 125.928664 
L 254.297677 125.928664 
L 254.400192 124.919828 
L 254.432452 124.919828 
L 254.498624 123.406574 
L 255.036515 123.406574 
L 255.036515 122.902156 
L 255.154269 122.902156 
L 255.154269 122.397738 
L 255.313693 122.397738 
L 255.402647 120.380067 
L 255.453329 120.380067 
L 255.453329 119.875649 
L 255.62995 119.875649 
L 255.62995 119.371231 
L 255.903312 119.371231 
L 255.956409 118.362395 
L 256.04586 118.362395 
L 256.04586 117.857977 
L 256.433533 117.857977 
L 256.450252 116.344724 
L 256.860589 116.344724 
L 256.860589 115.335888 
L 257.079655 115.335888 
L 257.079655 114.327052 
L 257.351689 114.327052 
L 257.351689 113.822634 
L 257.528238 113.822634 
L 257.528238 112.813799 
L 257.68822 112.813799 
L 257.68822 112.309381 
L 257.866404 112.309381 
L 257.866404 111.804963 
L 258.212086 111.804963 
L 258.221802 110.796127 
L 338.688 110.796127 
L 338.688 110.796127 
" style="fill:none;stroke:#6495ed;stroke-linecap:square;stroke-width:1.5;"/>
   </g>
   <g id="line2d_46">
    <defs>
     <path d="M -0 6 
L 6 -6 
L -6 -6 
z
" id="m4fd69d3d35" style="stroke:#6495ed;stroke-linejoin:miter;stroke-width:1.5;"/>
    </defs>
    <g>
     <use style="fill-opacity:0;stroke:#6495ed;stroke-linejoin:miter;stroke-width:1.5;" x="129.233413" xlink:href="#m4fd69d3d35" y="285.829135"/>
     <use style="fill-opacity:0;stroke:#6495ed;stroke-linejoin:miter;stroke-width:1.5;" x="218.820976" xlink:href="#m4fd69d3d35" y="258.086151"/>
     <use style="fill-opacity:0;stroke:#6495ed;stroke-linejoin:miter;stroke-width:1.5;" x="252.270967" xlink:href="#m4fd69d3d35" y="149.131887"/>
     <use style="fill-opacity:0;stroke:#6495ed;stroke-linejoin:miter;stroke-width:1.5;" x="258.221802" xlink:href="#m4fd69d3d35" y="110.796127"/>
     <use style="fill-opacity:0;stroke:#6495ed;stroke-linejoin:miter;stroke-width:1.5;" x="258.221802" xlink:href="#m4fd69d3d35" y="110.796127"/>
     <use style="fill-opacity:0;stroke:#6495ed;stroke-linejoin:miter;stroke-width:1.5;" x="338.688" xlink:href="#m4fd69d3d35" y="110.796127"/>
    </g>
   </g>
   <g id="line2d_47">
    <path style="fill:none;stroke:#6495ed;stroke-linecap:square;stroke-width:1.5;"/>
    <g/>
   </g>
   <g id="line2d_48">
    <path clip-path="url(#pba16fdd8c7)" d="M 258.377108 110.796127 
" style="fill:none;stroke:#6495ed;stroke-linecap:square;stroke-width:1.5;"/>
    <defs>
     <path d="M -12 12 
L 12 -12 
M -12 -12 
L 12 12 
" id="mbae04af343" style="stroke:#6495ed;"/>
    </defs>
    <g clip-path="url(#pba16fdd8c7)">
     <use style="fill:#6495ed;stroke:#6495ed;" x="258.377108" xlink:href="#mbae04af343" y="110.796127"/>
    </g>
   </g>
   <g id="line2d_49">
    <path d="M 338.688 171.326274 
L 369.60768 293.092752 
" style="fill:none;stroke:#ff00ff;stroke-linecap:square;stroke-width:1.5;"/>
    <g>
     <use style="fill-opacity:0;stroke:#ff00ff;stroke-linejoin:miter;stroke-width:1.5;" x="338.688" xlink:href="#me11223ef17" y="171.326274"/>
     <use style="fill-opacity:0;stroke:#ff00ff;stroke-linejoin:miter;stroke-width:1.5;" x="369.60768" xlink:href="#me11223ef17" y="293.092752"/>
    </g>
   </g>
   <g id="line2d_50">
    <path d="M 338.688 155.184901 
L 369.60768 199.472792 
" style="fill:none;stroke:#000080;stroke-linecap:square;stroke-width:1.5;"/>
    <g>
     <use style="fill-opacity:0;stroke:#000080;stroke-width:1.5;" x="338.688" xlink:href="#m93e3477561" y="155.184901"/>
     <use style="fill-opacity:0;stroke:#000080;stroke-width:1.5;" x="369.60768" xlink:href="#m93e3477561" y="199.472792"/>
    </g>
   </g>
   <g id="line2d_51">
    <path d="M 338.688 110.796127 
L 369.60768 105.852832 
" style="fill:none;stroke:#6495ed;stroke-linecap:square;stroke-width:1.5;"/>
    <g>
     <use style="fill-opacity:0;stroke:#6495ed;stroke-linejoin:miter;stroke-width:1.5;" x="338.688" xlink:href="#m4fd69d3d35" y="110.796127"/>
     <use style="fill-opacity:0;stroke:#6495ed;stroke-linejoin:miter;stroke-width:1.5;" x="369.60768" xlink:href="#m4fd69d3d35" y="105.852832"/>
    </g>
   </g>
   <g id="line2d_52">
    <path d="M 338.688 61.363174 
L 369.60768 12.232871 
" style="fill:none;stroke:#ff7500;stroke-linecap:square;stroke-width:1.5;"/>
    <g>
     <use style="fill-opacity:0;stroke:#ff7500;stroke-linejoin:bevel;stroke-width:1.5;" x="338.688" xlink:href="#mb5f5a97f89" y="61.363174"/>
     <use style="fill-opacity:0;stroke:#ff7500;stroke-linejoin:bevel;stroke-width:1.5;" x="369.60768" xlink:href="#mb5f5a97f89" y="12.232871"/>
    </g>
   </g>
   <g id="line2d_53">
    <path d="M 338.688 298.944 
L 338.688 6.381624 
" style="fill:none;stroke:#000000;stroke-linecap:square;stroke-width:1.5;"/>
   </g>
   <g id="patch_3">
    <path d="M 57.6 298.944 
L 57.6 3.456 
" style="fill:none;stroke:#000000;stroke-linecap:square;stroke-linejoin:miter;stroke-width:0.8;"/>
   </g>
   <g id="patch_4">
    <path d="M 338.688 298.944 
L 338.688 3.456 
" style="fill:none;stroke:#000000;stroke-linecap:square;stroke-linejoin:miter;stroke-width:0.8;"/>
   </g>
   <g id="patch_5">
    <path d="M 57.6 298.944 
L 338.688 298.944 
" style="fill:none;stroke:#000000;stroke-linecap:square;stroke-linejoin:miter;stroke-width:0.8;"/>
   </g>
   <g id="patch_6">
    <path d="M 57.6 3.456 
L 338.688 3.456 
" style="fill:none;stroke:#000000;stroke-linecap:square;stroke-linejoin:miter;stroke-width:0.8;"/>
   </g>
   <g id="text_13">
    <!-- f40 -->
    <g transform="translate(375.22944 297.78369)scale(0.17 -0.17)">
     <use xlink:href="#DejaVuSans-102"/>
     <use x="35.205078" xlink:href="#DejaVuSans-52"/>
     <use x="98.828125" xlink:href="#DejaVuSans-48"/>
    </g>
   </g>
   <g id="text_14">
    <!-- f39 -->
    <g transform="translate(375.22944 204.16373)scale(0.17 -0.17)">
     <defs>
      <path d="M 40.578125 39.3125 
Q 47.65625 37.796875 51.625 33 
Q 55.609375 28.21875 55.609375 21.1875 
Q 55.609375 10.40625 48.1875 4.484375 
Q 40.765625 -1.421875 27.09375 -1.421875 
Q 22.515625 -1.421875 17.65625 -0.515625 
Q 12.796875 0.390625 7.625 2.203125 
L 7.625 11.71875 
Q 11.71875 9.328125 16.59375 8.109375 
Q 21.484375 6.890625 26.8125 6.890625 
Q 36.078125 6.890625 40.9375 10.546875 
Q 45.796875 14.203125 45.796875 21.1875 
Q 45.796875 27.640625 41.28125 31.265625 
Q 36.765625 34.90625 28.71875 34.90625 
L 20.21875 34.90625 
L 20.21875 43.015625 
L 29.109375 43.015625 
Q 36.375 43.015625 40.234375 45.921875 
Q 44.09375 48.828125 44.09375 54.296875 
Q 44.09375 59.90625 40.109375 62.90625 
Q 36.140625 65.921875 28.71875 65.921875 
Q 24.65625 65.921875 20.015625 65.03125 
Q 15.375 64.15625 9.8125 62.3125 
L 9.8125 71.09375 
Q 15.4375 72.65625 20.34375 73.4375 
Q 25.25 74.21875 29.59375 74.21875 
Q 40.828125 74.21875 47.359375 69.109375 
Q 53.90625 64.015625 53.90625 55.328125 
Q 53.90625 49.265625 50.4375 45.09375 
Q 46.96875 40.921875 40.578125 39.3125 
z
" id="DejaVuSans-51"/>
      <path d="M 10.984375 1.515625 
L 10.984375 10.5 
Q 14.703125 8.734375 18.5 7.8125 
Q 22.3125 6.890625 25.984375 6.890625 
Q 35.75 6.890625 40.890625 13.453125 
Q 46.046875 20.015625 46.78125 33.40625 
Q 43.953125 29.203125 39.59375 26.953125 
Q 35.25 24.703125 29.984375 24.703125 
Q 19.046875 24.703125 12.671875 31.3125 
Q 6.296875 37.9375 6.296875 49.421875 
Q 6.296875 60.640625 12.9375 67.421875 
Q 19.578125 74.21875 30.609375 74.21875 
Q 43.265625 74.21875 49.921875 64.515625 
Q 56.59375 54.828125 56.59375 36.375 
Q 56.59375 19.140625 48.40625 8.859375 
Q 40.234375 -1.421875 26.421875 -1.421875 
Q 22.703125 -1.421875 18.890625 -0.6875 
Q 15.09375 0.046875 10.984375 1.515625 
z
M 30.609375 32.421875 
Q 37.25 32.421875 41.125 36.953125 
Q 45.015625 41.5 45.015625 49.421875 
Q 45.015625 57.28125 41.125 61.84375 
Q 37.25 66.40625 30.609375 66.40625 
Q 23.96875 66.40625 20.09375 61.84375 
Q 16.21875 57.28125 16.21875 49.421875 
Q 16.21875 41.5 20.09375 36.953125 
Q 23.96875 32.421875 30.609375 32.421875 
z
" id="DejaVuSans-57"/>
     </defs>
     <use xlink:href="#DejaVuSans-102"/>
     <use x="35.205078" xlink:href="#DejaVuSans-51"/>
     <use x="98.828125" xlink:href="#DejaVuSans-57"/>
    </g>
   </g>
   <g id="text_15">
    <!-- f45 -->
    <g transform="translate(375.22944 110.543769)scale(0.17 -0.17)">
     <defs>
      <path d="M 10.796875 72.90625 
L 49.515625 72.90625 
L 49.515625 64.59375 
L 19.828125 64.59375 
L 19.828125 46.734375 
Q 21.96875 47.46875 24.109375 47.828125 
Q 26.265625 48.1875 28.421875 48.1875 
Q 40.625 48.1875 47.75 41.5 
Q 54.890625 34.8125 54.890625 23.390625 
Q 54.890625 11.625 47.5625 5.09375 
Q 40.234375 -1.421875 26.90625 -1.421875 
Q 22.3125 -1.421875 17.546875 -0.640625 
Q 12.796875 0.140625 7.71875 1.703125 
L 7.71875 11.625 
Q 12.109375 9.234375 16.796875 8.0625 
Q 21.484375 6.890625 26.703125 6.890625 
Q 35.15625 6.890625 40.078125 11.328125 
Q 45.015625 15.765625 45.015625 23.390625 
Q 45.015625 31 40.078125 35.4375 
Q 35.15625 39.890625 26.703125 39.890625 
Q 22.75 39.890625 18.8125 39.015625 
Q 14.890625 38.140625 10.796875 36.28125 
z
" id="DejaVuSans-53"/>
     </defs>
     <use xlink:href="#DejaVuSans-102"/>
     <use x="35.205078" xlink:href="#DejaVuSans-52"/>
     <use x="98.828125" xlink:href="#DejaVuSans-53"/>
    </g>
   </g>
   <g id="text_16">
    <!-- f44 -->
    <g transform="translate(375.22944 16.923809)scale(0.17 -0.17)">
     <use xlink:href="#DejaVuSans-102"/>
     <use x="35.205078" xlink:href="#DejaVuSans-52"/>
     <use x="98.828125" xlink:href="#DejaVuSans-52"/>
    </g>
   </g>
   <g id="text_17">
    <!-- bbob-biobj -->
    <g transform="translate(60.41088 14.161286)scale(0.102 -0.102)">
     <defs>
      <path d="M 48.6875 27.296875 
Q 48.6875 37.203125 44.609375 42.84375 
Q 40.53125 48.484375 33.40625 48.484375 
Q 26.265625 48.484375 22.1875 42.84375 
Q 18.109375 37.203125 18.109375 27.296875 
Q 18.109375 17.390625 22.1875 11.75 
Q 26.265625 6.109375 33.40625 6.109375 
Q 40.53125 6.109375 44.609375 11.75 
Q 48.6875 17.390625 48.6875 27.296875 
z
M 18.109375 46.390625 
Q 20.953125 51.265625 25.265625 53.625 
Q 29.59375 56 35.59375 56 
Q 45.5625 56 51.78125 48.09375 
Q 58.015625 40.1875 58.015625 27.296875 
Q 58.015625 14.40625 51.78125 6.484375 
Q 45.5625 -1.421875 35.59375 -1.421875 
Q 29.59375 -1.421875 25.265625 0.953125 
Q 20.953125 3.328125 18.109375 8.203125 
L 18.109375 0 
L 9.078125 0 
L 9.078125 75.984375 
L 18.109375 75.984375 
z
" id="DejaVuSans-98"/>
      <path d="M 9.421875 54.6875 
L 18.40625 54.6875 
L 18.40625 -0.984375 
Q 18.40625 -11.421875 14.421875 -16.109375 
Q 10.453125 -20.796875 1.609375 -20.796875 
L -1.8125 -20.796875 
L -1.8125 -13.1875 
L 0.59375 -13.1875 
Q 5.71875 -13.1875 7.5625 -10.8125 
Q 9.421875 -8.453125 9.421875 -0.984375 
z
M 9.421875 75.984375 
L 18.40625 75.984375 
L 18.40625 64.59375 
L 9.421875 64.59375 
z
" id="DejaVuSans-106"/>
     </defs>
     <use xlink:href="#DejaVuSans-98"/>
     <use x="63.476562" xlink:href="#DejaVuSans-98"/>
     <use x="126.953125" xlink:href="#DejaVuSans-111"/>
     <use x="188.134766" xlink:href="#DejaVuSans-98"/>
     <use x="251.611328" xlink:href="#DejaVuSans-45"/>
     <use x="287.695312" xlink:href="#DejaVuSans-98"/>
     <use x="351.171875" xlink:href="#DejaVuSans-105"/>
     <use x="378.955078" xlink:href="#DejaVuSans-111"/>
     <use x="440.136719" xlink:href="#DejaVuSans-98"/>
     <use x="503.613281" xlink:href="#DejaVuSans-106"/>
    </g>
    <!-- 3-ill-conditioned 5-weakly-structured, 5-D -->
    <g transform="translate(60.41088 25.583055)scale(0.102 -0.102)">
     <defs>
      <path d="M 4.203125 54.6875 
L 13.1875 54.6875 
L 24.421875 12.015625 
L 35.59375 54.6875 
L 46.1875 54.6875 
L 57.421875 12.015625 
L 68.609375 54.6875 
L 77.59375 54.6875 
L 63.28125 0 
L 52.6875 0 
L 40.921875 44.828125 
L 29.109375 0 
L 18.5 0 
z
" id="DejaVuSans-119"/>
      <path d="M 9.078125 75.984375 
L 18.109375 75.984375 
L 18.109375 31.109375 
L 44.921875 54.6875 
L 56.390625 54.6875 
L 27.390625 29.109375 
L 57.625 0 
L 45.90625 0 
L 18.109375 26.703125 
L 18.109375 0 
L 9.078125 0 
z
" id="DejaVuSans-107"/>
      <path d="M 32.171875 -5.078125 
Q 28.375 -14.84375 24.75 -17.8125 
Q 21.140625 -20.796875 15.09375 -20.796875 
L 7.90625 -20.796875 
L 7.90625 -13.28125 
L 13.1875 -13.28125 
Q 16.890625 -13.28125 18.9375 -11.515625 
Q 21 -9.765625 23.484375 -3.21875 
L 25.09375 0.875 
L 2.984375 54.6875 
L 12.5 54.6875 
L 29.59375 11.921875 
L 46.6875 54.6875 
L 56.203125 54.6875 
z
" id="DejaVuSans-121"/>
      <path d="M 19.671875 64.796875 
L 19.671875 8.109375 
L 31.59375 8.109375 
Q 46.6875 8.109375 53.6875 14.9375 
Q 60.6875 21.78125 60.6875 36.53125 
Q 60.6875 51.171875 53.6875 57.984375 
Q 46.6875 64.796875 31.59375 64.796875 
z
M 9.8125 72.90625 
L 30.078125 72.90625 
Q 51.265625 72.90625 61.171875 64.09375 
Q 71.09375 55.28125 71.09375 36.53125 
Q 71.09375 17.671875 61.125 8.828125 
Q 51.171875 0 30.078125 0 
L 9.8125 0 
z
" id="DejaVuSans-68"/>
     </defs>
     <use xlink:href="#DejaVuSans-51"/>
     <use x="63.623047" xlink:href="#DejaVuSans-45"/>
     <use x="99.707031" xlink:href="#DejaVuSans-105"/>
     <use x="127.490234" xlink:href="#DejaVuSans-108"/>
     <use x="155.273438" xlink:href="#DejaVuSans-108"/>
     <use x="183.056641" xlink:href="#DejaVuSans-45"/>
     <use x="219.140625" xlink:href="#DejaVuSans-99"/>
     <use x="274.121094" xlink:href="#DejaVuSans-111"/>
     <use x="335.302734" xlink:href="#DejaVuSans-110"/>
     <use x="398.681641" xlink:href="#DejaVuSans-100"/>
     <use x="462.158203" xlink:href="#DejaVuSans-105"/>
     <use x="489.941406" xlink:href="#DejaVuSans-116"/>
     <use x="529.150391" xlink:href="#DejaVuSans-105"/>
     <use x="556.933594" xlink:href="#DejaVuSans-111"/>
     <use x="618.115234" xlink:href="#DejaVuSans-110"/>
     <use x="681.494141" xlink:href="#DejaVuSans-101"/>
     <use x="743.017578" xlink:href="#DejaVuSans-100"/>
     <use x="806.494141" xlink:href="#DejaVuSans-32"/>
     <use x="838.28125" xlink:href="#DejaVuSans-53"/>
     <use x="901.904297" xlink:href="#DejaVuSans-45"/>
     <use x="937.988281" xlink:href="#DejaVuSans-119"/>
     <use x="1019.775391" xlink:href="#DejaVuSans-101"/>
     <use x="1081.298828" xlink:href="#DejaVuSans-97"/>
     <use x="1142.578125" xlink:href="#DejaVuSans-107"/>
     <use x="1200.488281" xlink:href="#DejaVuSans-108"/>
     <use x="1228.271484" xlink:href="#DejaVuSans-121"/>
     <use x="1285.701172" xlink:href="#DejaVuSans-45"/>
     <use x="1321.785156" xlink:href="#DejaVuSans-115"/>
     <use x="1373.884766" xlink:href="#DejaVuSans-116"/>
     <use x="1413.09375" xlink:href="#DejaVuSans-114"/>
     <use x="1454.207031" xlink:href="#DejaVuSans-117"/>
     <use x="1517.585938" xlink:href="#DejaVuSans-99"/>
     <use x="1572.566406" xlink:href="#DejaVuSans-116"/>
     <use x="1611.775391" xlink:href="#DejaVuSans-117"/>
     <use x="1675.154297" xlink:href="#DejaVuSans-114"/>
     <use x="1714.017578" xlink:href="#DejaVuSans-101"/>
     <use x="1775.541016" xlink:href="#DejaVuSans-100"/>
     <use x="1839.017578" xlink:href="#DejaVuSans-44"/>
     <use x="1870.804688" xlink:href="#DejaVuSans-32"/>
     <use x="1902.591797" xlink:href="#DejaVuSans-53"/>
     <use x="1966.214844" xlink:href="#DejaVuSans-45"/>
     <use x="2002.298828" xlink:href="#DejaVuSans-68"/>
    </g>
    <!-- 58 targets: 1..-1.0e-4 -->
    <g transform="translate(60.41088 37.004824)scale(0.102 -0.102)">
     <defs>
      <path d="M 11.71875 12.40625 
L 22.015625 12.40625 
L 22.015625 0 
L 11.71875 0 
z
M 11.71875 51.703125 
L 22.015625 51.703125 
L 22.015625 39.3125 
L 11.71875 39.3125 
z
" id="DejaVuSans-58"/>
     </defs>
     <use xlink:href="#DejaVuSans-53"/>
     <use x="63.623047" xlink:href="#DejaVuSans-56"/>
     <use x="127.246094" xlink:href="#DejaVuSans-32"/>
     <use x="159.033203" xlink:href="#DejaVuSans-116"/>
     <use x="198.242188" xlink:href="#DejaVuSans-97"/>
     <use x="259.521484" xlink:href="#DejaVuSans-114"/>
     <use x="298.884766" xlink:href="#DejaVuSans-103"/>
     <use x="362.361328" xlink:href="#DejaVuSans-101"/>
     <use x="423.884766" xlink:href="#DejaVuSans-116"/>
     <use x="463.09375" xlink:href="#DejaVuSans-115"/>
     <use x="515.193359" xlink:href="#DejaVuSans-58"/>
     <use x="548.884766" xlink:href="#DejaVuSans-32"/>
     <use x="580.671875" xlink:href="#DejaVuSans-49"/>
     <use x="644.294922" xlink:href="#DejaVuSans-46"/>
     <use x="676.082031" xlink:href="#DejaVuSans-46"/>
     <use x="707.869141" xlink:href="#DejaVuSans-45"/>
     <use x="743.953125" xlink:href="#DejaVuSans-49"/>
     <use x="807.576172" xlink:href="#DejaVuSans-46"/>
     <use x="839.363281" xlink:href="#DejaVuSans-48"/>
     <use x="902.986328" xlink:href="#DejaVuSans-101"/>
     <use x="964.509766" xlink:href="#DejaVuSans-45"/>
     <use x="1000.59375" xlink:href="#DejaVuSans-52"/>
    </g>
    <!-- 10 instances -->
    <g transform="translate(60.41088 48.426593)scale(0.102 -0.102)">
     <use xlink:href="#DejaVuSans-49"/>
     <use x="63.623047" xlink:href="#DejaVuSans-48"/>
     <use x="127.246094" xlink:href="#DejaVuSans-32"/>
     <use x="159.033203" xlink:href="#DejaVuSans-105"/>
     <use x="186.816406" xlink:href="#DejaVuSans-110"/>
     <use x="250.195312" xlink:href="#DejaVuSans-115"/>
     <use x="302.294922" xlink:href="#DejaVuSans-116"/>
     <use x="341.503906" xlink:href="#DejaVuSans-97"/>
     <use x="402.783203" xlink:href="#DejaVuSans-110"/>
     <use x="466.162109" xlink:href="#DejaVuSans-99"/>
     <use x="521.142578" xlink:href="#DejaVuSans-101"/>
     <use x="582.666016" xlink:href="#DejaVuSans-115"/>
    </g>
   </g>
   <g id="text_18">
    <!-- v2.4, hv-hash=ff0e71e8cd978373 -->
    <g style="fill:#808080;" transform="translate(112.648687 293.909432)scale(0.1 -0.1)">
     <defs>
      <path d="M 54.890625 33.015625 
L 54.890625 0 
L 45.90625 0 
L 45.90625 32.71875 
Q 45.90625 40.484375 42.875 44.328125 
Q 39.84375 48.1875 33.796875 48.1875 
Q 26.515625 48.1875 22.3125 43.546875 
Q 18.109375 38.921875 18.109375 30.90625 
L 18.109375 0 
L 9.078125 0 
L 9.078125 75.984375 
L 18.109375 75.984375 
L 18.109375 46.1875 
Q 21.34375 51.125 25.703125 53.5625 
Q 30.078125 56 35.796875 56 
Q 45.21875 56 50.046875 50.171875 
Q 54.890625 44.34375 54.890625 33.015625 
z
" id="DejaVuSans-104"/>
      <path d="M 10.59375 45.40625 
L 73.1875 45.40625 
L 73.1875 37.203125 
L 10.59375 37.203125 
z
M 10.59375 25.484375 
L 73.1875 25.484375 
L 73.1875 17.1875 
L 10.59375 17.1875 
z
" id="DejaVuSans-61"/>
      <path d="M 8.203125 72.90625 
L 55.078125 72.90625 
L 55.078125 68.703125 
L 28.609375 0 
L 18.3125 0 
L 43.21875 64.59375 
L 8.203125 64.59375 
z
" id="DejaVuSans-55"/>
     </defs>
     <use xlink:href="#DejaVuSans-118"/>
     <use x="59.179688" xlink:href="#DejaVuSans-50"/>
     <use x="122.802734" xlink:href="#DejaVuSans-46"/>
     <use x="154.589844" xlink:href="#DejaVuSans-52"/>
     <use x="218.212891" xlink:href="#DejaVuSans-44"/>
     <use x="250" xlink:href="#DejaVuSans-32"/>
     <use x="281.787109" xlink:href="#DejaVuSans-104"/>
     <use x="345.166016" xlink:href="#DejaVuSans-118"/>
     <use x="401.720703" xlink:href="#DejaVuSans-45"/>
     <use x="437.804688" xlink:href="#DejaVuSans-104"/>
     <use x="501.183594" xlink:href="#DejaVuSans-97"/>
     <use x="562.462891" xlink:href="#DejaVuSans-115"/>
     <use x="614.5625" xlink:href="#DejaVuSans-104"/>
     <use x="677.941406" xlink:href="#DejaVuSans-61"/>
     <use x="761.730469" xlink:href="#DejaVuSans-102"/>
     <use x="796.935547" xlink:href="#DejaVuSans-102"/>
     <use x="832.140625" xlink:href="#DejaVuSans-48"/>
     <use x="895.763672" xlink:href="#DejaVuSans-101"/>
     <use x="957.287109" xlink:href="#DejaVuSans-55"/>
     <use x="1020.910156" xlink:href="#DejaVuSans-49"/>
     <use x="1084.533203" xlink:href="#DejaVuSans-101"/>
     <use x="1146.056641" xlink:href="#DejaVuSans-56"/>
     <use x="1209.679688" xlink:href="#DejaVuSans-99"/>
     <use x="1264.660156" xlink:href="#DejaVuSans-100"/>
     <use x="1328.136719" xlink:href="#DejaVuSans-57"/>
     <use x="1391.759766" xlink:href="#DejaVuSans-55"/>
     <use x="1455.382812" xlink:href="#DejaVuSans-56"/>
     <use x="1519.005859" xlink:href="#DejaVuSans-51"/>
     <use x="1582.628906" xlink:href="#DejaVuSans-55"/>
     <use x="1646.251953" xlink:href="#DejaVuSans-51"/>
    </g>
   </g>
  </g>
 </g>
 <defs>
  <clipPath id="pba16fdd8c7">
   <rect height="295.488" width="281.088" x="57.6" y="3.456"/>
  </clipPath>
 </defs>
</svg>
