<?xml version="1.0" encoding="utf-8" standalone="no"?>
<!DOCTYPE svg PUBLIC "-//W3C//DTD SVG 1.1//EN"
  "http://www.w3.org/Graphics/SVG/1.1/DTD/svg11.dtd">
<!-- Created with matplotlib (https://matplotlib.org/) -->
<svg height="345.6pt" version="1.1" viewBox="0 0 460.8 345.6" width="460.8pt" xmlns="http://www.w3.org/2000/svg" xmlns:xlink="http://www.w3.org/1999/xlink">
 <metadata>
  <rdf:RDF xmlns:cc="http://creativecommons.org/ns#" xmlns:dc="http://purl.org/dc/elements/1.1/" xmlns:rdf="http://www.w3.org/1999/02/22-rdf-syntax-ns#">
   <cc:Work>
    <dc:type rdf:resource="http://purl.org/dc/dcmitype/StillImage"/>
    <dc:date>2021-03-30T16:54:32.133069</dc:date>
    <dc:format>image/svg+xml</dc:format>
    <dc:creator>
     <cc:Agent>
      <dc:title>Matplotlib v3.3.4, https://matplotlib.org/</dc:title>
     </cc:Agent>
    </dc:creator>
   </cc:Work>
  </rdf:RDF>
 </metadata>
 <defs>
  <style type="text/css">*{stroke-linecap:butt;stroke-linejoin:round;}</style>
 </defs>
 <g id="figure_1">
  <g id="patch_1">
   <path d="M 0 345.6 
L 460.8 345.6 
L 460.8 0 
L 0 0 
z
" style="fill:#ffffff;"/>
  </g>
  <g id="axes_1">
   <g id="patch_2">
    <path d="M 57.6 298.944 
L 338.688 298.944 
L 338.688 27.648 
L 57.6 27.648 
z
" style="fill:#ffffff;"/>
   </g>
   <g id="matplotlib.axis_1">
    <g id="xtick_1">
     <g id="line2d_1">
      <path clip-path="url(#p9edf69e424)" d="M 57.6 298.944 
L 57.6 27.648 
" style="fill:none;stroke:#b0b0b0;stroke-linecap:square;stroke-width:0.8;"/>
     </g>
     <g id="line2d_2">
      <defs>
       <path d="M 0 0 
L 0 3.5 
" id="m59f1f9b5f4" style="stroke:#000000;stroke-width:0.8;"/>
      </defs>
      <g>
       <use style="stroke:#000000;stroke-width:0.8;" x="57.6" xlink:href="#m59f1f9b5f4" y="298.944"/>
      </g>
     </g>
     <g id="text_1">
      <!-- 0 -->
      <g transform="translate(51.2375 321.140875)scale(0.2 -0.2)">
       <defs>
        <path d="M 31.78125 66.40625 
Q 24.171875 66.40625 20.328125 58.90625 
Q 16.5 51.421875 16.5 36.375 
Q 16.5 21.390625 20.328125 13.890625 
Q 24.171875 6.390625 31.78125 6.390625 
Q 39.453125 6.390625 43.28125 13.890625 
Q 47.125 21.390625 47.125 36.375 
Q 47.125 51.421875 43.28125 58.90625 
Q 39.453125 66.40625 31.78125 66.40625 
z
M 31.78125 74.21875 
Q 44.046875 74.21875 50.515625 64.515625 
Q 56.984375 54.828125 56.984375 36.375 
Q 56.984375 17.96875 50.515625 8.265625 
Q 44.046875 -1.421875 31.78125 -1.421875 
Q 19.53125 -1.421875 13.0625 8.265625 
Q 6.59375 17.96875 6.59375 36.375 
Q 6.59375 54.828125 13.0625 64.515625 
Q 19.53125 74.21875 31.78125 74.21875 
z
" id="DejaVuSans-48"/>
       </defs>
       <use xlink:href="#DejaVuSans-48"/>
      </g>
     </g>
    </g>
    <g id="xtick_2">
     <g id="line2d_3">
      <path clip-path="url(#p9edf69e424)" d="M 137.910857 298.944 
L 137.910857 27.648 
" style="fill:none;stroke:#b0b0b0;stroke-linecap:square;stroke-width:0.8;"/>
     </g>
     <g id="line2d_4">
      <g>
       <use style="stroke:#000000;stroke-width:0.8;" x="137.910857" xlink:href="#m59f1f9b5f4" y="298.944"/>
      </g>
     </g>
     <g id="text_2">
      <!-- 2 -->
      <g transform="translate(131.548357 321.140875)scale(0.2 -0.2)">
       <defs>
        <path d="M 19.1875 8.296875 
L 53.609375 8.296875 
L 53.609375 0 
L 7.328125 0 
L 7.328125 8.296875 
Q 12.9375 14.109375 22.625 23.890625 
Q 32.328125 33.6875 34.8125 36.53125 
Q 39.546875 41.84375 41.421875 45.53125 
Q 43.3125 49.21875 43.3125 52.78125 
Q 43.3125 58.59375 39.234375 62.25 
Q 35.15625 65.921875 28.609375 65.921875 
Q 23.96875 65.921875 18.8125 64.3125 
Q 13.671875 62.703125 7.8125 59.421875 
L 7.8125 69.390625 
Q 13.765625 71.78125 18.9375 73 
Q 24.125 74.21875 28.421875 74.21875 
Q 39.75 74.21875 46.484375 68.546875 
Q 53.21875 62.890625 53.21875 53.421875 
Q 53.21875 48.921875 51.53125 44.890625 
Q 49.859375 40.875 45.40625 35.40625 
Q 44.1875 33.984375 37.640625 27.21875 
Q 31.109375 20.453125 19.1875 8.296875 
z
" id="DejaVuSans-50"/>
       </defs>
       <use xlink:href="#DejaVuSans-50"/>
      </g>
     </g>
    </g>
    <g id="xtick_3">
     <g id="line2d_5">
      <path clip-path="url(#p9edf69e424)" d="M 218.221714 298.944 
L 218.221714 27.648 
" style="fill:none;stroke:#b0b0b0;stroke-linecap:square;stroke-width:0.8;"/>
     </g>
     <g id="line2d_6">
      <g>
       <use style="stroke:#000000;stroke-width:0.8;" x="218.221714" xlink:href="#m59f1f9b5f4" y="298.944"/>
      </g>
     </g>
     <g id="text_3">
      <!-- 4 -->
      <g transform="translate(211.859214 321.140875)scale(0.2 -0.2)">
       <defs>
        <path d="M 37.796875 64.3125 
L 12.890625 25.390625 
L 37.796875 25.390625 
z
M 35.203125 72.90625 
L 47.609375 72.90625 
L 47.609375 25.390625 
L 58.015625 25.390625 
L 58.015625 17.1875 
L 47.609375 17.1875 
L 47.609375 0 
L 37.796875 0 
L 37.796875 17.1875 
L 4.890625 17.1875 
L 4.890625 26.703125 
z
" id="DejaVuSans-52"/>
       </defs>
       <use xlink:href="#DejaVuSans-52"/>
      </g>
     </g>
    </g>
    <g id="xtick_4">
     <g id="line2d_7">
      <path clip-path="url(#p9edf69e424)" d="M 298.532571 298.944 
L 298.532571 27.648 
" style="fill:none;stroke:#b0b0b0;stroke-linecap:square;stroke-width:0.8;"/>
     </g>
     <g id="line2d_8">
      <g>
       <use style="stroke:#000000;stroke-width:0.8;" x="298.532571" xlink:href="#m59f1f9b5f4" y="298.944"/>
      </g>
     </g>
     <g id="text_4">
      <!-- 6 -->
      <g transform="translate(292.170071 321.140875)scale(0.2 -0.2)">
       <defs>
        <path d="M 33.015625 40.375 
Q 26.375 40.375 22.484375 35.828125 
Q 18.609375 31.296875 18.609375 23.390625 
Q 18.609375 15.53125 22.484375 10.953125 
Q 26.375 6.390625 33.015625 6.390625 
Q 39.65625 6.390625 43.53125 10.953125 
Q 47.40625 15.53125 47.40625 23.390625 
Q 47.40625 31.296875 43.53125 35.828125 
Q 39.65625 40.375 33.015625 40.375 
z
M 52.59375 71.296875 
L 52.59375 62.3125 
Q 48.875 64.0625 45.09375 64.984375 
Q 41.3125 65.921875 37.59375 65.921875 
Q 27.828125 65.921875 22.671875 59.328125 
Q 17.53125 52.734375 16.796875 39.40625 
Q 19.671875 43.65625 24.015625 45.921875 
Q 28.375 48.1875 33.59375 48.1875 
Q 44.578125 48.1875 50.953125 41.515625 
Q 57.328125 34.859375 57.328125 23.390625 
Q 57.328125 12.15625 50.6875 5.359375 
Q 44.046875 -1.421875 33.015625 -1.421875 
Q 20.359375 -1.421875 13.671875 8.265625 
Q 6.984375 17.96875 6.984375 36.375 
Q 6.984375 53.65625 15.1875 63.9375 
Q 23.390625 74.21875 37.203125 74.21875 
Q 40.921875 74.21875 44.703125 73.484375 
Q 48.484375 72.75 52.59375 71.296875 
z
" id="DejaVuSans-54"/>
       </defs>
       <use xlink:href="#DejaVuSans-54"/>
      </g>
     </g>
    </g>
    <g id="xtick_5">
     <g id="line2d_9">
      <path clip-path="url(#p9edf69e424)" d="M 97.755429 298.944 
L 97.755429 27.648 
" style="fill:none;stroke:#b0b0b0;stroke-linecap:square;stroke-width:0.8;"/>
     </g>
     <g id="line2d_10">
      <defs>
       <path d="M 0 0 
L 0 2 
" id="m21f9c14f7a" style="stroke:#000000;stroke-width:0.6;"/>
      </defs>
      <g>
       <use style="stroke:#000000;stroke-width:0.6;" x="97.755429" xlink:href="#m21f9c14f7a" y="298.944"/>
      </g>
     </g>
    </g>
    <g id="xtick_6">
     <g id="line2d_11">
      <path clip-path="url(#p9edf69e424)" d="M 178.066286 298.944 
L 178.066286 27.648 
" style="fill:none;stroke:#b0b0b0;stroke-linecap:square;stroke-width:0.8;"/>
     </g>
     <g id="line2d_12">
      <g>
       <use style="stroke:#000000;stroke-width:0.6;" x="178.066286" xlink:href="#m21f9c14f7a" y="298.944"/>
      </g>
     </g>
    </g>
    <g id="xtick_7">
     <g id="line2d_13">
      <path clip-path="url(#p9edf69e424)" d="M 258.377143 298.944 
L 258.377143 27.648 
" style="fill:none;stroke:#b0b0b0;stroke-linecap:square;stroke-width:0.8;"/>
     </g>
     <g id="line2d_14">
      <g>
       <use style="stroke:#000000;stroke-width:0.6;" x="258.377143" xlink:href="#m21f9c14f7a" y="298.944"/>
      </g>
     </g>
    </g>
    <g id="xtick_8">
     <g id="line2d_15">
      <path clip-path="url(#p9edf69e424)" d="M 338.688 298.944 
L 338.688 27.648 
" style="fill:none;stroke:#b0b0b0;stroke-linecap:square;stroke-width:0.8;"/>
     </g>
     <g id="line2d_16">
      <g>
       <use style="stroke:#000000;stroke-width:0.6;" x="338.688" xlink:href="#m21f9c14f7a" y="298.944"/>
      </g>
     </g>
    </g>
    <g id="text_5">
     <!-- log10(# f-evals / dimension) -->
     <g transform="translate(77.764078 342.217594)scale(0.17 -0.17)">
      <defs>
       <path d="M 9.421875 75.984375 
L 18.40625 75.984375 
L 18.40625 0 
L 9.421875 0 
z
" id="DejaVuSans-108"/>
       <path d="M 30.609375 48.390625 
Q 23.390625 48.390625 19.1875 42.75 
Q 14.984375 37.109375 14.984375 27.296875 
Q 14.984375 17.484375 19.15625 11.84375 
Q 23.34375 6.203125 30.609375 6.203125 
Q 37.796875 6.203125 41.984375 11.859375 
Q 46.1875 17.53125 46.1875 27.296875 
Q 46.1875 37.015625 41.984375 42.703125 
Q 37.796875 48.390625 30.609375 48.390625 
z
M 30.609375 56 
Q 42.328125 56 49.015625 48.375 
Q 55.71875 40.765625 55.71875 27.296875 
Q 55.71875 13.875 49.015625 6.21875 
Q 42.328125 -1.421875 30.609375 -1.421875 
Q 18.84375 -1.421875 12.171875 6.21875 
Q 5.515625 13.875 5.515625 27.296875 
Q 5.515625 40.765625 12.171875 48.375 
Q 18.84375 56 30.609375 56 
z
" id="DejaVuSans-111"/>
       <path d="M 45.40625 27.984375 
Q 45.40625 37.75 41.375 43.109375 
Q 37.359375 48.484375 30.078125 48.484375 
Q 22.859375 48.484375 18.828125 43.109375 
Q 14.796875 37.75 14.796875 27.984375 
Q 14.796875 18.265625 18.828125 12.890625 
Q 22.859375 7.515625 30.078125 7.515625 
Q 37.359375 7.515625 41.375 12.890625 
Q 45.40625 18.265625 45.40625 27.984375 
z
M 54.390625 6.78125 
Q 54.390625 -7.171875 48.1875 -13.984375 
Q 42 -20.796875 29.203125 -20.796875 
Q 24.46875 -20.796875 20.265625 -20.09375 
Q 16.0625 -19.390625 12.109375 -17.921875 
L 12.109375 -9.1875 
Q 16.0625 -11.328125 19.921875 -12.34375 
Q 23.78125 -13.375 27.78125 -13.375 
Q 36.625 -13.375 41.015625 -8.765625 
Q 45.40625 -4.15625 45.40625 5.171875 
L 45.40625 9.625 
Q 42.625 4.78125 38.28125 2.390625 
Q 33.9375 0 27.875 0 
Q 17.828125 0 11.671875 7.65625 
Q 5.515625 15.328125 5.515625 27.984375 
Q 5.515625 40.671875 11.671875 48.328125 
Q 17.828125 56 27.875 56 
Q 33.9375 56 38.28125 53.609375 
Q 42.625 51.21875 45.40625 46.390625 
L 45.40625 54.6875 
L 54.390625 54.6875 
z
" id="DejaVuSans-103"/>
       <path d="M 12.40625 8.296875 
L 28.515625 8.296875 
L 28.515625 63.921875 
L 10.984375 60.40625 
L 10.984375 69.390625 
L 28.421875 72.90625 
L 38.28125 72.90625 
L 38.28125 8.296875 
L 54.390625 8.296875 
L 54.390625 0 
L 12.40625 0 
z
" id="DejaVuSans-49"/>
       <path d="M 31 75.875 
Q 24.46875 64.65625 21.28125 53.65625 
Q 18.109375 42.671875 18.109375 31.390625 
Q 18.109375 20.125 21.3125 9.0625 
Q 24.515625 -2 31 -13.1875 
L 23.1875 -13.1875 
Q 15.875 -1.703125 12.234375 9.375 
Q 8.59375 20.453125 8.59375 31.390625 
Q 8.59375 42.28125 12.203125 53.3125 
Q 15.828125 64.359375 23.1875 75.875 
z
" id="DejaVuSans-40"/>
       <path d="M 51.125 44 
L 36.921875 44 
L 32.8125 27.6875 
L 47.125 27.6875 
z
M 43.796875 71.78125 
L 38.71875 51.515625 
L 52.984375 51.515625 
L 58.109375 71.78125 
L 65.921875 71.78125 
L 60.890625 51.515625 
L 76.125 51.515625 
L 76.125 44 
L 58.984375 44 
L 54.984375 27.6875 
L 70.515625 27.6875 
L 70.515625 20.21875 
L 53.078125 20.21875 
L 48 0 
L 40.1875 0 
L 45.21875 20.21875 
L 30.90625 20.21875 
L 25.875 0 
L 18.015625 0 
L 23.09375 20.21875 
L 7.71875 20.21875 
L 7.71875 27.6875 
L 24.90625 27.6875 
L 29 44 
L 13.28125 44 
L 13.28125 51.515625 
L 30.90625 51.515625 
L 35.890625 71.78125 
z
" id="DejaVuSans-35"/>
       <path id="DejaVuSans-32"/>
       <path d="M 37.109375 75.984375 
L 37.109375 68.5 
L 28.515625 68.5 
Q 23.6875 68.5 21.796875 66.546875 
Q 19.921875 64.59375 19.921875 59.515625 
L 19.921875 54.6875 
L 34.71875 54.6875 
L 34.71875 47.703125 
L 19.921875 47.703125 
L 19.921875 0 
L 10.890625 0 
L 10.890625 47.703125 
L 2.296875 47.703125 
L 2.296875 54.6875 
L 10.890625 54.6875 
L 10.890625 58.5 
Q 10.890625 67.625 15.140625 71.796875 
Q 19.390625 75.984375 28.609375 75.984375 
z
" id="DejaVuSans-102"/>
       <path d="M 4.890625 31.390625 
L 31.203125 31.390625 
L 31.203125 23.390625 
L 4.890625 23.390625 
z
" id="DejaVuSans-45"/>
       <path d="M 56.203125 29.59375 
L 56.203125 25.203125 
L 14.890625 25.203125 
Q 15.484375 15.921875 20.484375 11.0625 
Q 25.484375 6.203125 34.421875 6.203125 
Q 39.59375 6.203125 44.453125 7.46875 
Q 49.3125 8.734375 54.109375 11.28125 
L 54.109375 2.78125 
Q 49.265625 0.734375 44.1875 -0.34375 
Q 39.109375 -1.421875 33.890625 -1.421875 
Q 20.796875 -1.421875 13.15625 6.1875 
Q 5.515625 13.8125 5.515625 26.8125 
Q 5.515625 40.234375 12.765625 48.109375 
Q 20.015625 56 32.328125 56 
Q 43.359375 56 49.78125 48.890625 
Q 56.203125 41.796875 56.203125 29.59375 
z
M 47.21875 32.234375 
Q 47.125 39.59375 43.09375 43.984375 
Q 39.0625 48.390625 32.421875 48.390625 
Q 24.90625 48.390625 20.390625 44.140625 
Q 15.875 39.890625 15.1875 32.171875 
z
" id="DejaVuSans-101"/>
       <path d="M 2.984375 54.6875 
L 12.5 54.6875 
L 29.59375 8.796875 
L 46.6875 54.6875 
L 56.203125 54.6875 
L 35.6875 0 
L 23.484375 0 
z
" id="DejaVuSans-118"/>
       <path d="M 34.28125 27.484375 
Q 23.390625 27.484375 19.1875 25 
Q 14.984375 22.515625 14.984375 16.5 
Q 14.984375 11.71875 18.140625 8.90625 
Q 21.296875 6.109375 26.703125 6.109375 
Q 34.1875 6.109375 38.703125 11.40625 
Q 43.21875 16.703125 43.21875 25.484375 
L 43.21875 27.484375 
z
M 52.203125 31.203125 
L 52.203125 0 
L 43.21875 0 
L 43.21875 8.296875 
Q 40.140625 3.328125 35.546875 0.953125 
Q 30.953125 -1.421875 24.3125 -1.421875 
Q 15.921875 -1.421875 10.953125 3.296875 
Q 6 8.015625 6 15.921875 
Q 6 25.140625 12.171875 29.828125 
Q 18.359375 34.515625 30.609375 34.515625 
L 43.21875 34.515625 
L 43.21875 35.40625 
Q 43.21875 41.609375 39.140625 45 
Q 35.0625 48.390625 27.6875 48.390625 
Q 23 48.390625 18.546875 47.265625 
Q 14.109375 46.140625 10.015625 43.890625 
L 10.015625 52.203125 
Q 14.9375 54.109375 19.578125 55.046875 
Q 24.21875 56 28.609375 56 
Q 40.484375 56 46.34375 49.84375 
Q 52.203125 43.703125 52.203125 31.203125 
z
" id="DejaVuSans-97"/>
       <path d="M 44.28125 53.078125 
L 44.28125 44.578125 
Q 40.484375 46.53125 36.375 47.5 
Q 32.28125 48.484375 27.875 48.484375 
Q 21.1875 48.484375 17.84375 46.4375 
Q 14.5 44.390625 14.5 40.28125 
Q 14.5 37.15625 16.890625 35.375 
Q 19.28125 33.59375 26.515625 31.984375 
L 29.59375 31.296875 
Q 39.15625 29.25 43.1875 25.515625 
Q 47.21875 21.78125 47.21875 15.09375 
Q 47.21875 7.46875 41.1875 3.015625 
Q 35.15625 -1.421875 24.609375 -1.421875 
Q 20.21875 -1.421875 15.453125 -0.5625 
Q 10.6875 0.296875 5.421875 2 
L 5.421875 11.28125 
Q 10.40625 8.6875 15.234375 7.390625 
Q 20.0625 6.109375 24.8125 6.109375 
Q 31.15625 6.109375 34.5625 8.28125 
Q 37.984375 10.453125 37.984375 14.40625 
Q 37.984375 18.0625 35.515625 20.015625 
Q 33.0625 21.96875 24.703125 23.78125 
L 21.578125 24.515625 
Q 13.234375 26.265625 9.515625 29.90625 
Q 5.8125 33.546875 5.8125 39.890625 
Q 5.8125 47.609375 11.28125 51.796875 
Q 16.75 56 26.8125 56 
Q 31.78125 56 36.171875 55.265625 
Q 40.578125 54.546875 44.28125 53.078125 
z
" id="DejaVuSans-115"/>
       <path d="M 25.390625 72.90625 
L 33.6875 72.90625 
L 8.296875 -9.28125 
L 0 -9.28125 
z
" id="DejaVuSans-47"/>
       <path d="M 45.40625 46.390625 
L 45.40625 75.984375 
L 54.390625 75.984375 
L 54.390625 0 
L 45.40625 0 
L 45.40625 8.203125 
Q 42.578125 3.328125 38.25 0.953125 
Q 33.9375 -1.421875 27.875 -1.421875 
Q 17.96875 -1.421875 11.734375 6.484375 
Q 5.515625 14.40625 5.515625 27.296875 
Q 5.515625 40.1875 11.734375 48.09375 
Q 17.96875 56 27.875 56 
Q 33.9375 56 38.25 53.625 
Q 42.578125 51.265625 45.40625 46.390625 
z
M 14.796875 27.296875 
Q 14.796875 17.390625 18.875 11.75 
Q 22.953125 6.109375 30.078125 6.109375 
Q 37.203125 6.109375 41.296875 11.75 
Q 45.40625 17.390625 45.40625 27.296875 
Q 45.40625 37.203125 41.296875 42.84375 
Q 37.203125 48.484375 30.078125 48.484375 
Q 22.953125 48.484375 18.875 42.84375 
Q 14.796875 37.203125 14.796875 27.296875 
z
" id="DejaVuSans-100"/>
       <path d="M 9.421875 54.6875 
L 18.40625 54.6875 
L 18.40625 0 
L 9.421875 0 
z
M 9.421875 75.984375 
L 18.40625 75.984375 
L 18.40625 64.59375 
L 9.421875 64.59375 
z
" id="DejaVuSans-105"/>
       <path d="M 52 44.1875 
Q 55.375 50.25 60.0625 53.125 
Q 64.75 56 71.09375 56 
Q 79.640625 56 84.28125 50.015625 
Q 88.921875 44.046875 88.921875 33.015625 
L 88.921875 0 
L 79.890625 0 
L 79.890625 32.71875 
Q 79.890625 40.578125 77.09375 44.375 
Q 74.3125 48.1875 68.609375 48.1875 
Q 61.625 48.1875 57.5625 43.546875 
Q 53.515625 38.921875 53.515625 30.90625 
L 53.515625 0 
L 44.484375 0 
L 44.484375 32.71875 
Q 44.484375 40.625 41.703125 44.40625 
Q 38.921875 48.1875 33.109375 48.1875 
Q 26.21875 48.1875 22.15625 43.53125 
Q 18.109375 38.875 18.109375 30.90625 
L 18.109375 0 
L 9.078125 0 
L 9.078125 54.6875 
L 18.109375 54.6875 
L 18.109375 46.1875 
Q 21.1875 51.21875 25.484375 53.609375 
Q 29.78125 56 35.6875 56 
Q 41.65625 56 45.828125 52.96875 
Q 50 49.953125 52 44.1875 
z
" id="DejaVuSans-109"/>
       <path d="M 54.890625 33.015625 
L 54.890625 0 
L 45.90625 0 
L 45.90625 32.71875 
Q 45.90625 40.484375 42.875 44.328125 
Q 39.84375 48.1875 33.796875 48.1875 
Q 26.515625 48.1875 22.3125 43.546875 
Q 18.109375 38.921875 18.109375 30.90625 
L 18.109375 0 
L 9.078125 0 
L 9.078125 54.6875 
L 18.109375 54.6875 
L 18.109375 46.1875 
Q 21.34375 51.125 25.703125 53.5625 
Q 30.078125 56 35.796875 56 
Q 45.21875 56 50.046875 50.171875 
Q 54.890625 44.34375 54.890625 33.015625 
z
" id="DejaVuSans-110"/>
       <path d="M 8.015625 75.875 
L 15.828125 75.875 
Q 23.140625 64.359375 26.78125 53.3125 
Q 30.421875 42.28125 30.421875 31.390625 
Q 30.421875 20.453125 26.78125 9.375 
Q 23.140625 -1.703125 15.828125 -13.1875 
L 8.015625 -13.1875 
Q 14.5 -2 17.703125 9.0625 
Q 20.90625 20.125 20.90625 31.390625 
Q 20.90625 42.671875 17.703125 53.65625 
Q 14.5 64.65625 8.015625 75.875 
z
" id="DejaVuSans-41"/>
      </defs>
      <use xlink:href="#DejaVuSans-108"/>
      <use x="27.783203" xlink:href="#DejaVuSans-111"/>
      <use x="88.964844" xlink:href="#DejaVuSans-103"/>
      <use x="152.441406" xlink:href="#DejaVuSans-49"/>
      <use x="216.064453" xlink:href="#DejaVuSans-48"/>
      <use x="279.6875" xlink:href="#DejaVuSans-40"/>
      <use x="318.701172" xlink:href="#DejaVuSans-35"/>
      <use x="402.490234" xlink:href="#DejaVuSans-32"/>
      <use x="434.277344" xlink:href="#DejaVuSans-102"/>
      <use x="463.982422" xlink:href="#DejaVuSans-45"/>
      <use x="500.066406" xlink:href="#DejaVuSans-101"/>
      <use x="561.589844" xlink:href="#DejaVuSans-118"/>
      <use x="620.769531" xlink:href="#DejaVuSans-97"/>
      <use x="682.048828" xlink:href="#DejaVuSans-108"/>
      <use x="709.832031" xlink:href="#DejaVuSans-115"/>
      <use x="761.931641" xlink:href="#DejaVuSans-32"/>
      <use x="793.71875" xlink:href="#DejaVuSans-47"/>
      <use x="827.410156" xlink:href="#DejaVuSans-32"/>
      <use x="859.197266" xlink:href="#DejaVuSans-100"/>
      <use x="922.673828" xlink:href="#DejaVuSans-105"/>
      <use x="950.457031" xlink:href="#DejaVuSans-109"/>
      <use x="1047.869141" xlink:href="#DejaVuSans-101"/>
      <use x="1109.392578" xlink:href="#DejaVuSans-110"/>
      <use x="1172.771484" xlink:href="#DejaVuSans-115"/>
      <use x="1224.871094" xlink:href="#DejaVuSans-105"/>
      <use x="1252.654297" xlink:href="#DejaVuSans-111"/>
      <use x="1313.835938" xlink:href="#DejaVuSans-110"/>
      <use x="1377.214844" xlink:href="#DejaVuSans-41"/>
     </g>
    </g>
   </g>
   <g id="matplotlib.axis_2">
    <g id="ytick_1">
     <g id="line2d_17">
      <path clip-path="url(#p9edf69e424)" d="M 57.6 298.944 
L 338.688 298.944 
" style="fill:none;stroke:#b0b0b0;stroke-linecap:square;stroke-width:0.8;"/>
     </g>
     <g id="line2d_18">
      <defs>
       <path d="M 0 0 
L -3.5 0 
" id="m13dd89e783" style="stroke:#000000;stroke-width:0.8;"/>
      </defs>
      <g>
       <use style="stroke:#000000;stroke-width:0.8;" x="57.6" xlink:href="#m13dd89e783" y="298.944"/>
      </g>
     </g>
     <g id="text_6">
      <!-- 0.0 -->
      <g transform="translate(25.155 305.02275)scale(0.16 -0.16)">
       <defs>
        <path d="M 10.6875 12.40625 
L 21 12.40625 
L 21 0 
L 10.6875 0 
z
" id="DejaVuSans-46"/>
       </defs>
       <use xlink:href="#DejaVuSans-48"/>
       <use x="63.623047" xlink:href="#DejaVuSans-46"/>
       <use x="95.410156" xlink:href="#DejaVuSans-48"/>
      </g>
     </g>
    </g>
    <g id="ytick_2">
     <g id="line2d_19">
      <path clip-path="url(#p9edf69e424)" d="M 57.6 245.22202 
L 338.688 245.22202 
" style="fill:none;stroke:#b0b0b0;stroke-linecap:square;stroke-width:0.8;"/>
     </g>
     <g id="line2d_20">
      <g>
       <use style="stroke:#000000;stroke-width:0.8;" x="57.6" xlink:href="#m13dd89e783" y="245.22202"/>
      </g>
     </g>
     <g id="text_7">
      <!-- 0.2 -->
      <g transform="translate(25.155 251.30077)scale(0.16 -0.16)">
       <use xlink:href="#DejaVuSans-48"/>
       <use x="63.623047" xlink:href="#DejaVuSans-46"/>
       <use x="95.410156" xlink:href="#DejaVuSans-50"/>
      </g>
     </g>
    </g>
    <g id="ytick_3">
     <g id="line2d_21">
      <path clip-path="url(#p9edf69e424)" d="M 57.6 191.50004 
L 338.688 191.50004 
" style="fill:none;stroke:#b0b0b0;stroke-linecap:square;stroke-width:0.8;"/>
     </g>
     <g id="line2d_22">
      <g>
       <use style="stroke:#000000;stroke-width:0.8;" x="57.6" xlink:href="#m13dd89e783" y="191.50004"/>
      </g>
     </g>
     <g id="text_8">
      <!-- 0.4 -->
      <g transform="translate(25.155 197.57879)scale(0.16 -0.16)">
       <use xlink:href="#DejaVuSans-48"/>
       <use x="63.623047" xlink:href="#DejaVuSans-46"/>
       <use x="95.410156" xlink:href="#DejaVuSans-52"/>
      </g>
     </g>
    </g>
    <g id="ytick_4">
     <g id="line2d_23">
      <path clip-path="url(#p9edf69e424)" d="M 57.6 137.778059 
L 338.688 137.778059 
" style="fill:none;stroke:#b0b0b0;stroke-linecap:square;stroke-width:0.8;"/>
     </g>
     <g id="line2d_24">
      <g>
       <use style="stroke:#000000;stroke-width:0.8;" x="57.6" xlink:href="#m13dd89e783" y="137.778059"/>
      </g>
     </g>
     <g id="text_9">
      <!-- 0.6 -->
      <g transform="translate(25.155 143.856809)scale(0.16 -0.16)">
       <use xlink:href="#DejaVuSans-48"/>
       <use x="63.623047" xlink:href="#DejaVuSans-46"/>
       <use x="95.410156" xlink:href="#DejaVuSans-54"/>
      </g>
     </g>
    </g>
    <g id="ytick_5">
     <g id="line2d_25">
      <path clip-path="url(#p9edf69e424)" d="M 57.6 84.056079 
L 338.688 84.056079 
" style="fill:none;stroke:#b0b0b0;stroke-linecap:square;stroke-width:0.8;"/>
     </g>
     <g id="line2d_26">
      <g>
       <use style="stroke:#000000;stroke-width:0.8;" x="57.6" xlink:href="#m13dd89e783" y="84.056079"/>
      </g>
     </g>
     <g id="text_10">
      <!-- 0.8 -->
      <g transform="translate(25.155 90.134829)scale(0.16 -0.16)">
       <defs>
        <path d="M 31.78125 34.625 
Q 24.75 34.625 20.71875 30.859375 
Q 16.703125 27.09375 16.703125 20.515625 
Q 16.703125 13.921875 20.71875 10.15625 
Q 24.75 6.390625 31.78125 6.390625 
Q 38.8125 6.390625 42.859375 10.171875 
Q 46.921875 13.96875 46.921875 20.515625 
Q 46.921875 27.09375 42.890625 30.859375 
Q 38.875 34.625 31.78125 34.625 
z
M 21.921875 38.8125 
Q 15.578125 40.375 12.03125 44.71875 
Q 8.5 49.078125 8.5 55.328125 
Q 8.5 64.0625 14.71875 69.140625 
Q 20.953125 74.21875 31.78125 74.21875 
Q 42.671875 74.21875 48.875 69.140625 
Q 55.078125 64.0625 55.078125 55.328125 
Q 55.078125 49.078125 51.53125 44.71875 
Q 48 40.375 41.703125 38.8125 
Q 48.828125 37.15625 52.796875 32.3125 
Q 56.78125 27.484375 56.78125 20.515625 
Q 56.78125 9.90625 50.3125 4.234375 
Q 43.84375 -1.421875 31.78125 -1.421875 
Q 19.734375 -1.421875 13.25 4.234375 
Q 6.78125 9.90625 6.78125 20.515625 
Q 6.78125 27.484375 10.78125 32.3125 
Q 14.796875 37.15625 21.921875 38.8125 
z
M 18.3125 54.390625 
Q 18.3125 48.734375 21.84375 45.5625 
Q 25.390625 42.390625 31.78125 42.390625 
Q 38.140625 42.390625 41.71875 45.5625 
Q 45.3125 48.734375 45.3125 54.390625 
Q 45.3125 60.0625 41.71875 63.234375 
Q 38.140625 66.40625 31.78125 66.40625 
Q 25.390625 66.40625 21.84375 63.234375 
Q 18.3125 60.0625 18.3125 54.390625 
z
" id="DejaVuSans-56"/>
       </defs>
       <use xlink:href="#DejaVuSans-48"/>
       <use x="63.623047" xlink:href="#DejaVuSans-46"/>
       <use x="95.410156" xlink:href="#DejaVuSans-56"/>
      </g>
     </g>
    </g>
    <g id="ytick_6">
     <g id="line2d_27">
      <path clip-path="url(#p9edf69e424)" d="M 57.6 30.334099 
L 338.688 30.334099 
" style="fill:none;stroke:#b0b0b0;stroke-linecap:square;stroke-width:0.8;"/>
     </g>
     <g id="line2d_28">
      <g>
       <use style="stroke:#000000;stroke-width:0.8;" x="57.6" xlink:href="#m13dd89e783" y="30.334099"/>
      </g>
     </g>
     <g id="text_11">
      <!-- 1.0 -->
      <g transform="translate(25.155 36.412849)scale(0.16 -0.16)">
       <use xlink:href="#DejaVuSans-49"/>
       <use x="63.623047" xlink:href="#DejaVuSans-46"/>
       <use x="95.410156" xlink:href="#DejaVuSans-48"/>
      </g>
     </g>
    </g>
    <g id="text_12">
     <!-- Fraction of function,target pairs -->
     <g transform="translate(17.619531 297.681)rotate(-90)scale(0.17 -0.17)">
      <defs>
       <path d="M 9.8125 72.90625 
L 51.703125 72.90625 
L 51.703125 64.59375 
L 19.671875 64.59375 
L 19.671875 43.109375 
L 48.578125 43.109375 
L 48.578125 34.8125 
L 19.671875 34.8125 
L 19.671875 0 
L 9.8125 0 
z
" id="DejaVuSans-70"/>
       <path d="M 41.109375 46.296875 
Q 39.59375 47.171875 37.8125 47.578125 
Q 36.03125 48 33.890625 48 
Q 26.265625 48 22.1875 43.046875 
Q 18.109375 38.09375 18.109375 28.8125 
L 18.109375 0 
L 9.078125 0 
L 9.078125 54.6875 
L 18.109375 54.6875 
L 18.109375 46.1875 
Q 20.953125 51.171875 25.484375 53.578125 
Q 30.03125 56 36.53125 56 
Q 37.453125 56 38.578125 55.875 
Q 39.703125 55.765625 41.0625 55.515625 
z
" id="DejaVuSans-114"/>
       <path d="M 48.78125 52.59375 
L 48.78125 44.1875 
Q 44.96875 46.296875 41.140625 47.34375 
Q 37.3125 48.390625 33.40625 48.390625 
Q 24.65625 48.390625 19.8125 42.84375 
Q 14.984375 37.3125 14.984375 27.296875 
Q 14.984375 17.28125 19.8125 11.734375 
Q 24.65625 6.203125 33.40625 6.203125 
Q 37.3125 6.203125 41.140625 7.25 
Q 44.96875 8.296875 48.78125 10.40625 
L 48.78125 2.09375 
Q 45.015625 0.34375 40.984375 -0.53125 
Q 36.96875 -1.421875 32.421875 -1.421875 
Q 20.0625 -1.421875 12.78125 6.34375 
Q 5.515625 14.109375 5.515625 27.296875 
Q 5.515625 40.671875 12.859375 48.328125 
Q 20.21875 56 33.015625 56 
Q 37.15625 56 41.109375 55.140625 
Q 45.0625 54.296875 48.78125 52.59375 
z
" id="DejaVuSans-99"/>
       <path d="M 18.3125 70.21875 
L 18.3125 54.6875 
L 36.8125 54.6875 
L 36.8125 47.703125 
L 18.3125 47.703125 
L 18.3125 18.015625 
Q 18.3125 11.328125 20.140625 9.421875 
Q 21.96875 7.515625 27.59375 7.515625 
L 36.8125 7.515625 
L 36.8125 0 
L 27.59375 0 
Q 17.1875 0 13.234375 3.875 
Q 9.28125 7.765625 9.28125 18.015625 
L 9.28125 47.703125 
L 2.6875 47.703125 
L 2.6875 54.6875 
L 9.28125 54.6875 
L 9.28125 70.21875 
z
" id="DejaVuSans-116"/>
       <path d="M 8.5 21.578125 
L 8.5 54.6875 
L 17.484375 54.6875 
L 17.484375 21.921875 
Q 17.484375 14.15625 20.5 10.265625 
Q 23.53125 6.390625 29.59375 6.390625 
Q 36.859375 6.390625 41.078125 11.03125 
Q 45.3125 15.671875 45.3125 23.6875 
L 45.3125 54.6875 
L 54.296875 54.6875 
L 54.296875 0 
L 45.3125 0 
L 45.3125 8.40625 
Q 42.046875 3.421875 37.71875 1 
Q 33.40625 -1.421875 27.6875 -1.421875 
Q 18.265625 -1.421875 13.375 4.4375 
Q 8.5 10.296875 8.5 21.578125 
z
M 31.109375 56 
z
" id="DejaVuSans-117"/>
       <path d="M 11.71875 12.40625 
L 22.015625 12.40625 
L 22.015625 4 
L 14.015625 -11.625 
L 7.71875 -11.625 
L 11.71875 4 
z
" id="DejaVuSans-44"/>
       <path d="M 18.109375 8.203125 
L 18.109375 -20.796875 
L 9.078125 -20.796875 
L 9.078125 54.6875 
L 18.109375 54.6875 
L 18.109375 46.390625 
Q 20.953125 51.265625 25.265625 53.625 
Q 29.59375 56 35.59375 56 
Q 45.5625 56 51.78125 48.09375 
Q 58.015625 40.1875 58.015625 27.296875 
Q 58.015625 14.40625 51.78125 6.484375 
Q 45.5625 -1.421875 35.59375 -1.421875 
Q 29.59375 -1.421875 25.265625 0.953125 
Q 20.953125 3.328125 18.109375 8.203125 
z
M 48.6875 27.296875 
Q 48.6875 37.203125 44.609375 42.84375 
Q 40.53125 48.484375 33.40625 48.484375 
Q 26.265625 48.484375 22.1875 42.84375 
Q 18.109375 37.203125 18.109375 27.296875 
Q 18.109375 17.390625 22.1875 11.75 
Q 26.265625 6.109375 33.40625 6.109375 
Q 40.53125 6.109375 44.609375 11.75 
Q 48.6875 17.390625 48.6875 27.296875 
z
" id="DejaVuSans-112"/>
      </defs>
      <use xlink:href="#DejaVuSans-70"/>
      <use x="50.269531" xlink:href="#DejaVuSans-114"/>
      <use x="91.382812" xlink:href="#DejaVuSans-97"/>
      <use x="152.662109" xlink:href="#DejaVuSans-99"/>
      <use x="207.642578" xlink:href="#DejaVuSans-116"/>
      <use x="246.851562" xlink:href="#DejaVuSans-105"/>
      <use x="274.634766" xlink:href="#DejaVuSans-111"/>
      <use x="335.816406" xlink:href="#DejaVuSans-110"/>
      <use x="399.195312" xlink:href="#DejaVuSans-32"/>
      <use x="430.982422" xlink:href="#DejaVuSans-111"/>
      <use x="492.164062" xlink:href="#DejaVuSans-102"/>
      <use x="527.369141" xlink:href="#DejaVuSans-32"/>
      <use x="559.15625" xlink:href="#DejaVuSans-102"/>
      <use x="594.361328" xlink:href="#DejaVuSans-117"/>
      <use x="657.740234" xlink:href="#DejaVuSans-110"/>
      <use x="721.119141" xlink:href="#DejaVuSans-99"/>
      <use x="776.099609" xlink:href="#DejaVuSans-116"/>
      <use x="815.308594" xlink:href="#DejaVuSans-105"/>
      <use x="843.091797" xlink:href="#DejaVuSans-111"/>
      <use x="904.273438" xlink:href="#DejaVuSans-110"/>
      <use x="967.652344" xlink:href="#DejaVuSans-44"/>
      <use x="999.439453" xlink:href="#DejaVuSans-116"/>
      <use x="1038.648438" xlink:href="#DejaVuSans-97"/>
      <use x="1099.927734" xlink:href="#DejaVuSans-114"/>
      <use x="1139.291016" xlink:href="#DejaVuSans-103"/>
      <use x="1202.767578" xlink:href="#DejaVuSans-101"/>
      <use x="1264.291016" xlink:href="#DejaVuSans-116"/>
      <use x="1303.5" xlink:href="#DejaVuSans-32"/>
      <use x="1335.287109" xlink:href="#DejaVuSans-112"/>
      <use x="1398.763672" xlink:href="#DejaVuSans-97"/>
      <use x="1460.042969" xlink:href="#DejaVuSans-105"/>
      <use x="1487.826172" xlink:href="#DejaVuSans-114"/>
      <use x="1528.939453" xlink:href="#DejaVuSans-115"/>
     </g>
    </g>
   </g>
   <g id="line2d_29">
    <defs>
     <path d="M 0 1.5 
C 0.397805 1.5 0.77937 1.341951 1.06066 1.06066 
C 1.341951 0.77937 1.5 0.397805 1.5 0 
C 1.5 -0.397805 1.341951 -0.77937 1.06066 -1.06066 
C 0.77937 -1.341951 0.397805 -1.5 0 -1.5 
C -0.397805 -1.5 -0.77937 -1.341951 -1.06066 -1.06066 
C -1.341951 -0.77937 -1.5 -0.397805 -1.5 0 
C -1.5 0.397805 -1.341951 0.77937 -1.06066 1.06066 
C -0.77937 1.341951 -0.397805 1.5 0 1.5 
z
" id="m185cba4984" style="stroke:#00bfbf;"/>
    </defs>
    <g>
     <use style="fill:#00bfbf;stroke:#00bfbf;" x="256.321445" xlink:href="#m185cba4984" y="62.752535"/>
     <use style="fill:#00bfbf;stroke:#00bfbf;" x="256.321445" xlink:href="#m185cba4984" y="62.752535"/>
    </g>
   </g>
   <g id="line2d_30">
    <path d="M 45.512012 298.944 
L 45.512012 298.017759 
L 108.948899 298.017759 
L 108.948899 297.091518 
L 114.751048 297.091518 
L 114.751048 296.628397 
L 119.097192 296.628397 
L 119.097192 296.165277 
L 120.33454 296.165277 
L 120.33454 295.702156 
L 125.470548 295.702156 
L 125.470548 295.239036 
L 126.338353 295.239036 
L 126.338353 294.775915 
L 127.165014 294.775915 
L 127.165014 294.312795 
L 127.954256 294.312795 
L 127.954256 293.849674 
L 128.709321 293.849674 
L 128.709321 293.386554 
L 129.433047 293.386554 
L 129.433047 292.460313 
L 130.127931 292.460313 
L 130.127931 291.997192 
L 132.060454 291.997192 
L 132.060454 291.534072 
L 132.659801 291.534072 
L 132.659801 291.070951 
L 133.239232 291.070951 
L 133.239232 290.607831 
L 134.870259 290.607831 
L 134.870259 289.68159 
L 135.878591 289.68159 
L 135.878591 289.218469 
L 136.831795 289.218469 
L 136.831795 288.755349 
L 137.289545 288.755349 
L 137.289545 288.292228 
L 137.735587 288.292228 
L 137.735587 287.829108 
L 138.170504 287.829108 
L 138.170504 286.902867 
L 138.594838 286.902867 
L 138.594838 286.439746 
L 140.195896 286.439746 
L 140.195896 285.976625 
L 141.662245 285.976625 
L 141.662245 284.587264 
L 142.619936 284.587264 
L 142.686372 283.661023 
L 143.014805 283.661023 
L 143.014805 283.197902 
L 143.653678 283.197902 
L 143.653678 282.271661 
L 143.902815 282.271661 
L 143.902815 281.808541 
L 144.269971 281.808541 
L 144.269971 280.8823 
L 146.538004 280.8823 
L 146.538004 280.419179 
L 147.061745 280.419179 
L 147.113265 279.492938 
L 147.570215 279.492938 
L 147.570215 279.029818 
L 147.818997 279.029818 
L 147.818997 278.566697 
L 148.064279 278.566697 
L 148.064279 277.640456 
L 148.306159 277.640456 
L 148.306159 277.177336 
L 148.780082 277.177336 
L 148.780082 276.714215 
L 149.241465 276.714215 
L 149.241465 276.251095 
L 149.911431 276.251095 
L 149.911431 275.787974 
L 150.301393 275.787974 
L 150.344189 274.861733 
L 150.556607 274.861733 
L 150.556607 273.935492 
L 150.766468 273.935492 
L 150.766468 273.472371 
L 151.381313 273.472371 
L 151.381313 272.54613 
L 151.975216 272.54613 
L 151.975216 271.156769 
L 152.168773 271.156769 
L 152.168773 270.693648 
L 152.360205 270.693648 
L 152.360205 270.230528 
L 152.511852 270.230528 
L 152.511852 269.767407 
L 152.736878 269.767407 
L 152.774102 268.378046 
L 152.922207 268.378046 
L 152.922207 267.914925 
L 153.287059 267.914925 
L 153.287059 266.988684 
L 153.466662 266.988684 
L 153.466662 265.136202 
L 154.167129 265.136202 
L 154.167129 264.673082 
L 154.473387 264.673082 
L 154.473387 263.746841 
L 154.840544 263.746841 
L 154.840544 262.8206 
L 155.004911 262.8206 
L 155.004911 262.357479 
L 155.329071 262.357479 
L 155.361158 261.431238 
L 155.584129 261.431238 
L 155.584129 260.041876 
L 156.114049 260.041876 
L 156.114049 259.578756 
L 156.236431 259.578756 
L 156.236431 257.726274 
L 156.418408 257.726274 
L 156.418408 257.263153 
L 156.598505 257.263153 
L 156.598505 256.336912 
L 157.38669 256.336912 
L 157.38669 254.02131 
L 157.697862 254.02131 
L 157.697862 253.558189 
L 157.809652 253.558189 
L 157.809652 252.631948 
L 158.140788 252.631948 
L 158.140788 252.168828 
L 158.438903 252.168828 
L 158.465753 246.611381 
L 159.072168 246.611381 
L 159.123917 244.758899 
L 159.431225 244.758899 
L 159.431225 244.295779 
L 159.658204 244.295779 
L 159.658204 243.832658 
L 161.88953 243.832658 
L 161.88953 243.369538 
L 162.324991 243.369538 
L 162.324991 242.443297 
L 162.812686 242.443297 
L 162.812686 241.053935 
L 163.748975 241.053935 
L 163.748975 240.127694 
L 164.637547 240.127694 
L 164.637547 238.738333 
L 164.954803 238.738333 
L 165.047026 237.812091 
L 165.46508 237.812091 
L 165.46508 236.42273 
L 166.779265 236.42273 
L 166.779265 235.496489 
L 166.945039 235.496489 
L 166.945039 235.033368 
L 168.032349 235.033368 
L 168.032349 234.570248 
L 168.339657 234.570248 
L 168.339657 234.107127 
L 168.611679 234.107127 
L 168.611679 233.180886 
L 168.731229 233.180886 
L 168.790698 231.791525 
L 168.879523 231.791525 
L 168.879523 231.328404 
L 169.316986 231.328404 
L 169.316986 230.865284 
L 169.51744 230.865284 
L 169.545889 229.939043 
L 169.925477 229.939043 
L 169.925477 229.475922 
L 170.378471 229.475922 
L 170.419074 228.086561 
L 170.499999 228.086561 
L 170.499999 227.62344 
L 170.674059 227.62344 
L 170.674059 227.16032 
L 170.885928 227.16032 
L 170.885928 226.234079 
L 171.173108 226.234079 
L 171.173108 225.770958 
L 171.93311 225.770958 
L 171.93311 224.844717 
L 172.154799 224.844717 
L 172.154799 223.918476 
L 172.589897 223.918476 
L 172.589897 223.455355 
L 172.83878 223.455355 
L 172.83878 222.529114 
L 173.049317 222.529114 
L 173.049317 222.065994 
L 173.188276 222.065994 
L 173.188276 221.602873 
L 174.109302 221.602873 
L 174.142093 219.750391 
L 174.261802 219.750391 
L 174.261802 218.82415 
L 174.679722 218.82415 
L 174.743137 216.971668 
L 174.911127 216.971668 
L 174.984116 215.582307 
L 175.232072 215.582307 
L 175.232072 215.119186 
L 175.405599 215.119186 
L 175.405599 214.656066 
L 175.527057 214.656066 
L 175.527057 213.266704 
L 175.817135 213.266704 
L 175.817135 212.340463 
L 176.363988 212.340463 
L 176.363988 211.877342 
L 176.94078 211.877342 
L 176.94078 210.951101 
L 177.107399 210.951101 
L 177.107399 210.02486 
L 177.245042 210.02486 
L 177.245042 209.098619 
L 177.390674 209.098619 
L 177.390674 208.635499 
L 177.597911 208.635499 
L 177.597911 207.246137 
L 177.92621 207.246137 
L 177.996389 206.319896 
L 178.300141 206.319896 
L 178.300141 205.856776 
L 178.607149 205.856776 
L 178.640929 204.004294 
L 178.950337 204.004294 
L 178.950337 203.078053 
L 179.286902 203.078053 
L 179.286902 201.688691 
L 179.617095 201.688691 
L 179.617095 200.299329 
L 179.901953 200.299329 
L 179.901953 199.836209 
L 180.151313 199.836209 
L 180.151313 199.373088 
L 180.343674 199.373088 
L 180.374256 198.446847 
L 181.048539 198.446847 
L 181.048539 197.983727 
L 181.282137 197.983727 
L 181.282137 197.057486 
L 181.519801 197.057486 
L 181.519801 196.594365 
L 181.754271 196.594365 
L 181.754271 196.131245 
L 186.414741 196.131245 
L 186.414741 195.668124 
L 190.542309 195.668124 
L 190.542309 195.205004 
L 191.059035 195.205004 
L 191.059035 194.741883 
L 191.439811 194.741883 
L 191.439811 194.278763 
L 191.580988 194.278763 
L 191.580988 193.352522 
L 191.740946 193.352522 
L 191.740946 192.889401 
L 191.903394 192.889401 
L 191.903394 192.426281 
L 192.064343 192.426281 
L 192.064343 191.96316 
L 192.22382 191.96316 
L 192.22382 190.573799 
L 193.557646 190.573799 
L 193.557646 190.110678 
L 195.994058 190.110678 
L 195.994058 189.647558 
L 196.613015 189.647558 
L 196.613015 188.721316 
L 197.091078 188.721316 
L 197.091078 188.258196 
L 197.441934 188.258196 
L 197.441934 187.795075 
L 197.655916 187.795075 
L 197.655916 187.331955 
L 198.288014 187.331955 
L 198.288014 186.405714 
L 198.932297 186.405714 
L 199.037401 185.016352 
L 199.387521 185.016352 
L 199.492477 183.16387 
L 199.596805 183.16387 
L 199.700512 182.237629 
L 202.307538 182.237629 
L 202.381222 181.311388 
L 202.521228 181.311388 
L 202.521228 180.848268 
L 202.649474 180.848268 
L 202.73657 178.532665 
L 202.812687 178.532665 
L 202.886373 175.753942 
L 207.635003 175.753942 
L 207.687726 174.36458 
L 207.83862 174.36458 
L 207.83862 173.90146 
L 208.138102 173.90146 
L 208.138102 173.438339 
L 208.398866 173.438339 
L 208.398866 172.512098 
L 208.663333 172.512098 
L 208.663333 172.048978 
L 209.036428 172.048978 
L 209.036428 171.585857 
L 210.005646 171.585857 
L 210.005646 171.122737 
L 210.333563 171.122737 
L 210.333563 170.659616 
L 210.536609 170.659616 
L 210.536609 170.196496 
L 210.698435 170.196496 
L 210.698435 169.270255 
L 211.4511 169.270255 
L 211.4511 168.807134 
L 211.563868 168.807134 
L 211.563868 167.880893 
L 212.22312 167.880893 
L 212.22312 167.417773 
L 212.702301 167.417773 
L 212.702301 166.491532 
L 212.883243 166.491532 
L 212.883243 165.565291 
L 213.054119 165.565291 
L 213.054119 165.10217 
L 213.172162 165.10217 
L 213.208233 164.175929 
L 213.322932 164.175929 
L 213.344858 162.786567 
L 213.550089 162.786567 
L 213.61721 161.860326 
L 213.937845 161.860326 
L 213.951217 160.470965 
L 214.265825 160.470965 
L 214.265825 160.007844 
L 214.410722 160.007844 
L 214.425904 159.081603 
L 214.693751 159.081603 
L 214.693751 158.618483 
L 214.882733 158.618483 
L 214.914384 157.229121 
L 214.998505 157.229121 
L 214.998505 156.766001 
L 215.543752 156.766001 
L 215.613763 154.450398 
L 215.93085 154.450398 
L 215.93085 153.987278 
L 216.412377 153.987278 
L 216.412377 153.524157 
L 216.588498 153.524157 
L 216.614334 152.597916 
L 216.815869 152.597916 
L 216.837595 151.208554 
L 216.959884 151.208554 
L 216.959884 150.282313 
L 217.156561 150.282313 
L 217.161194 148.892952 
L 217.411435 148.892952 
L 217.411435 148.429831 
L 217.901396 148.429831 
L 217.901396 147.966711 
L 218.027938 147.966711 
L 218.027938 147.50359 
L 218.185053 147.50359 
L 218.218226 146.114229 
L 218.345096 146.114229 
L 218.424569 144.724867 
L 218.922456 144.724867 
L 218.966793 143.798626 
L 219.236237 143.798626 
L 219.236237 143.335506 
L 219.453709 143.335506 
L 219.546896 141.483024 
L 219.579193 141.483024 
L 219.668504 140.093662 
L 219.758158 140.093662 
L 219.790066 139.167421 
L 220.046391 139.167421 
L 220.046391 138.7043 
L 220.499102 138.7043 
L 220.499102 138.24118 
L 220.793507 138.24118 
L 220.793507 137.778059 
L 221.099297 137.778059 
L 221.111861 136.851818 
L 221.408536 136.851818 
L 221.428136 135.462457 
L 221.539509 135.462457 
L 221.539509 134.536216 
L 221.863057 134.536216 
L 221.863057 133.609975 
L 222.006823 133.609975 
L 222.058682 132.220613 
L 222.120152 132.220613 
L 222.214033 128.515649 
L 222.236212 128.515649 
L 222.293609 126.200046 
L 222.360449 126.200046 
L 222.439361 124.347564 
L 222.569641 124.347564 
L 222.569641 123.421323 
L 222.705024 123.421323 
L 222.799171 122.495082 
L 222.881468 122.495082 
L 222.975997 120.6426 
L 223.054823 120.6426 
L 223.122763 118.790118 
L 223.308735 118.790118 
L 223.415231 115.085154 
L 223.50563 115.085154 
L 223.590437 113.695792 
L 223.679935 113.695792 
L 223.759457 112.306431 
L 223.956378 112.306431 
L 223.997751 111.38019 
L 224.12377 111.38019 
L 224.206868 109.527708 
L 224.396992 109.527708 
L 224.477583 108.601467 
L 224.530496 108.601467 
L 224.530496 107.675226 
L 224.754954 107.675226 
L 224.818387 106.748985 
L 225.156175 106.748985 
L 225.156175 106.285864 
L 225.457625 106.285864 
L 225.465685 105.359623 
L 225.588425 105.359623 
L 225.624395 103.970262 
L 225.901655 103.970262 
L 226.01022 101.654659 
L 226.075926 101.654659 
L 226.083705 100.265297 
L 226.356001 100.265297 
L 226.356001 99.802177 
L 226.566928 99.802177 
L 226.621418 98.412815 
L 226.828645 98.412815 
L 226.828645 97.949695 
L 227.006588 97.949695 
L 227.023967 97.023454 
L 227.219207 97.023454 
L 227.272738 95.634092 
L 227.33438 95.634092 
L 227.372087 94.707851 
L 227.814798 94.707851 
L 227.817313 93.31849 
L 228.04368 93.31849 
L 228.055591 91.929128 
L 228.380007 91.929128 
L 228.464539 89.613525 
L 228.671698 89.613525 
L 228.671698 88.687284 
L 229.012684 88.687284 
L 229.097016 87.297923 
L 229.270482 87.297923 
L 229.270482 86.371682 
L 229.450944 86.371682 
L 229.536834 84.98232 
L 229.627291 84.98232 
L 229.627291 84.5192 
L 229.822957 84.5192 
L 229.830576 83.592959 
L 230.081506 83.592959 
L 230.089455 82.666718 
L 230.447364 82.666718 
L 230.447364 82.203597 
L 230.768375 82.203597 
L 230.768375 81.277356 
L 230.957594 81.277356 
L 230.982361 79.424874 
L 231.216533 79.424874 
L 231.219844 78.035512 
L 231.617501 78.035512 
L 231.617501 77.109271 
L 231.869285 77.109271 
L 231.869285 76.18303 
L 232.10805 76.18303 
L 232.110017 75.256789 
L 232.501175 75.256789 
L 232.501175 74.793669 
L 232.716695 74.793669 
L 232.716695 73.867428 
L 233.196895 73.867428 
L 233.198003 72.478066 
L 233.52084 72.478066 
L 233.52084 72.014946 
L 233.945029 72.014946 
L 233.945029 71.088705 
L 234.370893 71.088705 
L 234.392296 70.162464 
L 235.067968 70.162464 
L 235.067968 69.699343 
L 236.414772 69.699343 
L 236.414772 69.236223 
L 236.663366 69.236223 
L 236.663366 68.773102 
L 237.502372 68.773102 
L 237.502372 67.846861 
L 238.345539 67.846861 
L 238.345539 66.92062 
L 238.790288 66.92062 
L 238.790288 66.457499 
L 239.175793 66.457499 
L 239.175793 65.994379 
L 239.612137 65.994379 
L 239.612137 65.531258 
L 241.021122 65.531258 
L 241.021122 64.605017 
L 242.899625 64.605017 
L 242.899625 63.678776 
L 244.072709 63.678776 
L 244.072709 63.215656 
L 256.321445 63.215656 
L 256.321445 62.752535 
L 338.688 62.752535 
L 338.688 62.752535 
" style="fill:none;stroke:#00bfbf;stroke-linecap:square;stroke-width:1.5;"/>
   </g>
   <g id="line2d_31">
    <defs>
     <path d="M -6 0 
L 6 0 
M 0 6 
L 0 -6 
" id="m81a5a43bd6" style="stroke:#00bfbf;stroke-width:1.5;"/>
    </defs>
    <g>
     <use style="fill-opacity:0;stroke:#00bfbf;stroke-width:1.5;" x="153.466662" xlink:href="#m81a5a43bd6" y="265.136202"/>
     <use style="fill-opacity:0;stroke:#00bfbf;stroke-width:1.5;" x="199.037401" xlink:href="#m81a5a43bd6" y="185.016352"/>
     <use style="fill-opacity:0;stroke:#00bfbf;stroke-width:1.5;" x="227.219207" xlink:href="#m81a5a43bd6" y="96.560333"/>
     <use style="fill-opacity:0;stroke:#00bfbf;stroke-width:1.5;" x="256.321445" xlink:href="#m81a5a43bd6" y="62.752535"/>
     <use style="fill-opacity:0;stroke:#00bfbf;stroke-width:1.5;" x="256.321445" xlink:href="#m81a5a43bd6" y="62.752535"/>
     <use style="fill-opacity:0;stroke:#00bfbf;stroke-width:1.5;" x="338.688" xlink:href="#m81a5a43bd6" y="62.752535"/>
    </g>
   </g>
   <g id="line2d_32">
    <path style="fill:none;stroke:#00bfbf;stroke-linecap:square;stroke-width:1.5;"/>
    <g/>
   </g>
   <g id="line2d_33">
    <path clip-path="url(#p9edf69e424)" d="M 258.377143 62.752535 
" style="fill:none;stroke:#00bfbf;stroke-linecap:square;stroke-width:1.5;"/>
    <defs>
     <path d="M -12 12 
L 12 -12 
M -12 -12 
L 12 12 
" id="m901297c642" style="stroke:#00bfbf;"/>
    </defs>
    <g clip-path="url(#p9edf69e424)">
     <use style="fill:#00bfbf;stroke:#00bfbf;" x="258.377143" xlink:href="#m901297c642" y="62.752535"/>
    </g>
   </g>
   <g id="line2d_34">
    <defs>
     <path d="M 0 1.5 
C 0.397805 1.5 0.77937 1.341951 1.06066 1.06066 
C 1.341951 0.77937 1.5 0.397805 1.5 0 
C 1.5 -0.397805 1.341951 -0.77937 1.06066 -1.06066 
C 0.77937 -1.341951 0.397805 -1.5 0 -1.5 
C -0.397805 -1.5 -0.77937 -1.341951 -1.06066 -1.06066 
C -1.341951 -0.77937 -1.5 -0.397805 -1.5 0 
C -1.5 0.397805 -1.341951 0.77937 -1.06066 1.06066 
C -0.77937 1.341951 -0.397805 1.5 0 1.5 
z
" id="mb48fcb6ed9" style="stroke:#008000;"/>
    </defs>
    <g>
     <use style="fill:#008000;stroke:#008000;" x="258.351779" xlink:href="#mb48fcb6ed9" y="78.035512"/>
     <use style="fill:#008000;stroke:#008000;" x="258.351779" xlink:href="#mb48fcb6ed9" y="78.035512"/>
    </g>
   </g>
   <g id="line2d_35">
    <path d="M 38.440992 298.944 
L 38.440992 294.775915 
L 105.209745 294.775915 
L 105.209745 293.849674 
L 115.077025 293.849674 
L 115.077025 293.386554 
L 116.522527 293.386554 
L 116.522527 291.997192 
L 119.097192 291.997192 
L 119.097192 291.534072 
L 120.254726 291.534072 
L 120.254726 291.070951 
L 122.362027 291.070951 
L 122.362027 289.68159 
L 124.241922 289.68159 
L 124.241922 288.755349 
L 125.110962 288.755349 
L 125.110962 287.829108 
L 125.938745 287.829108 
L 125.938745 286.902867 
L 126.729009 286.902867 
L 126.729009 285.976625 
L 127.48501 285.976625 
L 127.48501 284.587264 
L 128.209594 284.587264 
L 128.209594 284.124143 
L 128.905271 284.124143 
L 128.905271 283.661023 
L 129.574256 283.661023 
L 129.574256 281.808541 
L 130.218525 281.808541 
L 130.218525 280.419179 
L 130.839837 280.419179 
L 130.839837 279.956059 
L 131.439773 279.956059 
L 131.439773 279.029818 
L 132.019755 279.029818 
L 132.019755 278.566697 
L 132.581068 278.566697 
L 132.581068 277.177336 
L 133.124876 277.177336 
L 133.124876 276.251095 
L 133.652238 276.251095 
L 133.652238 274.861733 
L 134.164119 274.861733 
L 134.164119 274.398612 
L 134.661403 274.398612 
L 134.661403 273.935492 
L 135.144899 273.935492 
L 135.144899 273.472371 
L 135.615352 273.472371 
L 135.615352 272.54613 
L 136.073445 272.54613 
L 136.073445 272.08301 
L 136.519813 272.08301 
L 136.519813 270.693648 
L 136.955041 270.693648 
L 136.955041 270.230528 
L 137.37967 270.230528 
L 137.37967 268.841166 
L 137.794206 268.841166 
L 137.794206 267.914925 
L 138.199116 267.914925 
L 138.199116 266.988684 
L 138.594838 266.988684 
L 138.594838 266.525564 
L 138.981779 266.525564 
L 138.981779 265.599323 
L 140.44901 265.599323 
L 140.44901 264.209961 
L 140.79731 264.209961 
L 140.846504 263.28372 
L 141.138789 263.28372 
L 141.138789 262.8206 
L 142.441528 262.8206 
L 142.441528 262.357479 
L 143.653678 262.357479 
L 143.653678 261.894358 
L 145.327221 261.894358 
L 145.327221 260.968117 
L 147.769524 260.968117 
L 147.769524 260.504997 
L 148.48143 260.504997 
L 148.48143 260.041876 
L 150.372662 260.041876 
L 150.372662 259.578756 
L 154.57429 259.578756 
L 154.57429 259.115635 
L 158.086033 259.115635 
L 158.086033 258.189394 
L 162.630514 258.189394 
L 162.630514 257.726274 
L 168.099393 257.726274 
L 168.099393 256.800033 
L 178.536561 256.800033 
L 178.536561 256.336912 
L 179.542477 256.336912 
L 179.542477 255.873792 
L 180.432721 255.873792 
L 180.432721 255.410671 
L 181.48161 255.410671 
L 181.48161 254.947551 
L 181.990272 254.947551 
L 181.990272 254.02131 
L 182.484517 254.02131 
L 182.484517 253.558189 
L 182.730934 253.558189 
L 182.730934 253.095069 
L 182.973917 253.095069 
L 182.973917 252.631948 
L 183.513876 252.631948 
L 183.513876 251.705707 
L 184.04587 251.705707 
L 184.04587 250.779466 
L 184.336361 250.779466 
L 184.336361 250.316346 
L 184.626084 250.316346 
L 184.626084 249.390104 
L 188.144854 249.390104 
L 188.144854 248.463863 
L 188.287773 248.463863 
L 188.287773 248.000743 
L 189.363471 248.000743 
L 189.363471 247.537622 
L 189.95256 247.537622 
L 189.95256 246.611381 
L 190.261486 246.611381 
L 190.261486 246.148261 
L 190.542309 246.148261 
L 190.542309 245.68514 
L 190.779466 245.68514 
L 190.779466 245.22202 
L 191.134759 245.22202 
L 191.134759 244.295779 
L 191.293399 244.295779 
L 191.293399 243.369538 
L 191.43171 243.369538 
L 191.43171 241.980176 
L 191.797909 241.980176 
L 191.797909 241.053935 
L 209.680459 241.053935 
L 209.773181 239.664574 
L 209.843811 239.664574 
L 209.843811 239.201453 
L 209.973026 239.201453 
L 210.038205 237.348971 
L 210.109623 237.348971 
L 210.201018 235.496489 
L 210.319394 235.496489 
L 210.319394 235.033368 
L 213.567558 235.033368 
L 213.567558 234.570248 
L 216.454564 234.570248 
L 216.47835 233.644007 
L 216.61529 233.644007 
L 216.722046 232.254645 
L 216.835706 232.254645 
L 216.918589 229.475922 
L 216.953633 229.475922 
L 216.99921 227.16032 
L 217.077597 227.16032 
L 217.155016 221.602873 
L 217.199453 221.602873 
L 217.199453 221.139753 
L 222.139201 221.139753 
L 222.139201 220.213512 
L 222.280257 220.213512 
L 222.280257 219.750391 
L 222.399607 219.750391 
L 222.46308 218.82415 
L 222.608784 218.82415 
L 222.697155 216.971668 
L 222.72771 216.971668 
L 222.782843 215.582307 
L 222.844939 215.582307 
L 222.876127 213.729825 
L 223.00916 213.729825 
L 223.00916 213.266704 
L 223.761784 213.266704 
L 223.761784 212.803583 
L 224.065449 212.803583 
L 224.065449 211.877342 
L 224.373723 211.877342 
L 224.373723 211.414222 
L 224.559824 211.414222 
L 224.559824 210.487981 
L 224.671422 210.487981 
L 224.758751 208.635499 
L 224.783907 208.635499 
L 224.860747 205.856776 
L 224.902409 205.856776 
L 224.950692 204.004294 
L 226.030664 204.004294 
L 226.030664 203.541173 
L 226.216158 203.541173 
L 226.216158 203.078053 
L 226.651378 203.078053 
L 226.651378 202.151812 
L 227.63208 202.151812 
L 227.63208 201.688691 
L 227.845289 201.688691 
L 227.946431 200.299329 
L 228.024804 200.299329 
L 228.135781 196.131245 
L 228.154538 196.131245 
L 228.228709 194.741883 
L 228.454843 194.741883 
L 228.454843 194.278763 
L 228.629823 194.278763 
L 228.629823 193.815642 
L 228.80148 193.815642 
L 228.891882 191.96316 
L 229.280352 191.96316 
L 229.346823 191.036919 
L 229.548983 191.036919 
L 229.609903 189.647558 
L 229.690499 189.647558 
L 229.690499 188.721316 
L 229.861022 188.721316 
L 229.945515 186.868834 
L 230.085039 186.868834 
L 230.118865 185.479473 
L 230.454428 185.479473 
L 230.454428 185.016352 
L 230.641363 185.016352 
L 230.750246 182.70075 
L 231.052832 182.70075 
L 231.07204 181.311388 
L 231.227429 181.311388 
L 231.31243 180.385147 
L 231.350805 180.385147 
L 231.350805 179.922027 
L 231.569301 179.922027 
L 231.569301 179.458906 
L 231.921832 179.458906 
L 231.921832 178.532665 
L 232.094281 178.532665 
L 232.094281 178.069545 
L 232.28789 178.069545 
L 232.28789 177.606424 
L 232.642354 177.606424 
L 232.642354 176.680183 
L 232.773821 176.680183 
L 232.773821 175.753942 
L 232.926332 175.753942 
L 232.926332 175.290821 
L 233.17126 175.290821 
L 233.279458 172.048978 
L 233.357728 172.048978 
L 233.387233 171.122737 
L 233.538601 171.122737 
L 233.588526 170.196496 
L 233.944911 170.196496 
L 234.046552 168.344014 
L 234.117723 168.344014 
L 234.2179 166.028411 
L 234.460354 166.028411 
L 234.562232 163.249688 
L 234.584993 163.249688 
L 234.66148 158.618483 
L 234.720262 158.618483 
L 234.720262 158.155362 
L 235.005686 158.155362 
L 235.050924 157.229121 
L 235.800412 157.229121 
L 235.891821 156.30288 
L 235.966159 156.30288 
L 236.0249 155.376639 
L 236.110349 155.376639 
L 236.20181 153.987278 
L 236.374276 153.987278 
L 236.461098 152.597916 
L 236.605322 152.597916 
L 236.605322 152.134795 
L 236.801928 152.134795 
L 236.801928 151.671675 
L 237.11184 151.671675 
L 237.196055 147.966711 
L 237.554633 147.966711 
L 237.618784 146.577349 
L 237.750176 146.577349 
L 237.806617 144.261747 
L 237.945239 144.261747 
L 238.051843 140.556783 
L 238.076252 140.556783 
L 238.161691 136.388698 
L 238.222359 136.388698 
L 238.29422 134.536216 
L 238.362307 134.536216 
L 238.394331 133.609975 
L 238.677237 133.609975 
L 238.683172 132.220613 
L 238.857092 132.220613 
L 238.896572 130.368131 
L 239.030352 130.368131 
L 239.061878 129.44189 
L 239.161714 129.44189 
L 239.161714 128.97877 
L 239.29956 128.97877 
L 239.354671 127.589408 
L 239.456979 127.589408 
L 239.487228 126.663167 
L 239.77049 126.663167 
L 239.778429 125.736926 
L 239.983087 125.736926 
L 239.983087 124.810685 
L 240.282276 124.810685 
L 240.282276 124.347564 
L 240.478219 124.347564 
L 240.587709 122.495082 
L 240.720691 122.495082 
L 240.720691 121.568841 
L 241.059766 121.568841 
L 241.059766 121.105721 
L 241.486338 121.105721 
L 241.592435 119.716359 
L 241.701975 119.716359 
L 241.768697 117.863877 
L 241.96183 117.863877 
L 242.072783 116.937636 
L 242.441525 116.937636 
L 242.507792 115.548274 
L 242.734199 115.548274 
L 242.734199 115.085154 
L 242.996925 115.085154 
L 242.996925 114.158913 
L 243.432084 114.158913 
L 243.532731 111.84331 
L 243.733646 111.84331 
L 243.733646 111.38019 
L 244.162842 111.38019 
L 244.246304 110.453949 
L 244.35108 110.453949 
L 244.35108 109.527708 
L 244.807468 109.527708 
L 244.807468 109.064587 
L 245.133985 109.064587 
L 245.133985 108.138346 
L 246.080735 108.138346 
L 246.080735 107.675226 
L 246.198584 107.675226 
L 246.198584 107.212105 
L 246.848942 107.212105 
L 246.848942 106.748985 
L 247.112316 106.748985 
L 247.193529 104.896503 
L 247.770472 104.896503 
L 247.832303 103.507141 
L 247.891052 103.507141 
L 247.971365 102.5809 
L 248.211983 102.5809 
L 248.211983 102.117779 
L 248.353021 102.117779 
L 248.353021 101.191538 
L 248.495898 101.191538 
L 248.555418 99.339056 
L 248.768205 99.339056 
L 248.768205 98.875936 
L 249.236391 98.875936 
L 249.236391 97.949695 
L 249.352938 97.949695 
L 249.352938 97.486574 
L 249.794477 97.486574 
L 249.794477 96.560333 
L 250.487438 96.560333 
L 250.487438 96.097213 
L 250.941875 96.097213 
L 251.007284 94.707851 
L 251.091702 94.707851 
L 251.091702 93.78161 
L 251.660697 93.78161 
L 251.660697 93.31849 
L 251.7967 93.31849 
L 251.903616 92.392249 
L 252.155493 92.392249 
L 252.227681 91.466008 
L 252.608338 91.466008 
L 252.608338 91.002887 
L 253.346683 91.002887 
L 253.346683 90.539766 
L 253.739148 90.539766 
L 253.739148 89.613525 
L 255.192563 89.613525 
L 255.192563 88.687284 
L 255.357225 88.687284 
L 255.357225 87.761043 
L 256.024851 87.761043 
L 256.024851 87.297923 
L 256.243605 87.297923 
L 256.272225 86.371682 
L 256.942667 86.371682 
L 256.942667 85.445441 
L 257.303212 85.445441 
L 257.368437 83.592959 
L 257.479565 83.592959 
L 257.54822 82.203597 
L 257.633175 82.203597 
L 257.731658 81.277356 
L 257.985569 81.277356 
L 258.08924 79.424874 
L 258.216018 79.424874 
L 258.216018 78.498633 
L 258.351779 78.498633 
L 258.351779 78.035512 
L 338.688 78.035512 
L 338.688 78.035512 
" style="fill:none;stroke:#008000;stroke-linecap:square;stroke-width:1.5;"/>
   </g>
   <g id="line2d_36">
    <defs>
     <path d="M -0 6 
L 6 -6 
L -6 -6 
z
" id="m20cc8405bb" style="stroke:#008000;stroke-linejoin:miter;stroke-width:1.5;"/>
    </defs>
    <g>
     <use style="fill-opacity:0;stroke:#008000;stroke-linejoin:miter;stroke-width:1.5;" x="105.209745" xlink:href="#m20cc8405bb" y="293.849674"/>
     <use style="fill-opacity:0;stroke:#008000;stroke-linejoin:miter;stroke-width:1.5;" x="184.626084" xlink:href="#m20cc8405bb" y="249.390104"/>
     <use style="fill-opacity:0;stroke:#008000;stroke-linejoin:miter;stroke-width:1.5;" x="226.651378" xlink:href="#m20cc8405bb" y="203.078053"/>
     <use style="fill-opacity:0;stroke:#008000;stroke-linejoin:miter;stroke-width:1.5;" x="258.351779" xlink:href="#m20cc8405bb" y="78.498633"/>
     <use style="fill-opacity:0;stroke:#008000;stroke-linejoin:miter;stroke-width:1.5;" x="258.351779" xlink:href="#m20cc8405bb" y="78.035512"/>
     <use style="fill-opacity:0;stroke:#008000;stroke-linejoin:miter;stroke-width:1.5;" x="338.688" xlink:href="#m20cc8405bb" y="78.035512"/>
    </g>
   </g>
   <g id="line2d_37">
    <path style="fill:none;stroke:#008000;stroke-linecap:square;stroke-width:1.5;"/>
    <g/>
   </g>
   <g id="line2d_38">
    <path clip-path="url(#p9edf69e424)" d="M 258.377143 78.035512 
" style="fill:none;stroke:#008000;stroke-linecap:square;stroke-width:1.5;"/>
    <defs>
     <path d="M -12 12 
L 12 -12 
M -12 -12 
L 12 12 
" id="m77961a1994" style="stroke:#008000;"/>
    </defs>
    <g clip-path="url(#p9edf69e424)">
     <use style="fill:#008000;stroke:#008000;" x="258.377143" xlink:href="#m77961a1994" y="78.035512"/>
    </g>
   </g>
   <g id="line2d_39">
    <defs>
     <path d="M 0 1.5 
C 0.397805 1.5 0.77937 1.341951 1.06066 1.06066 
C 1.341951 0.77937 1.5 0.397805 1.5 0 
C 1.5 -0.397805 1.341951 -0.77937 1.06066 -1.06066 
C 0.77937 -1.341951 0.397805 -1.5 0 -1.5 
C -0.397805 -1.5 -0.77937 -1.341951 -1.06066 -1.06066 
C -1.341951 -0.77937 -1.5 -0.397805 -1.5 0 
C -1.5 0.397805 -1.341951 0.77937 -1.06066 1.06066 
C -0.77937 1.341951 -0.397805 1.5 0 1.5 
z
" id="mdf2a7c6046" style="stroke:#0000ff;"/>
    </defs>
    <g>
     <use style="fill:#0000ff;stroke:#0000ff;" x="258.371317" xlink:href="#mdf2a7c6046" y="192.426281"/>
     <use style="fill:#0000ff;stroke:#0000ff;" x="258.371317" xlink:href="#mdf2a7c6046" y="192.426281"/>
    </g>
   </g>
   <g id="line2d_40">
    <path d="M 29.53256 298.944 
L 29.53256 297.554638 
L 101.506816 297.554638 
L 101.506816 297.091518 
L 106.802819 297.091518 
L 106.802819 296.628397 
L 108.948899 296.628397 
L 108.948899 296.165277 
L 110.859585 296.165277 
L 110.859585 295.702156 
L 112.58145 295.702156 
L 112.58145 294.775915 
L 114.148479 294.775915 
L 114.148479 293.849674 
L 116.914437 293.849674 
L 116.914437 293.386554 
L 118.148599 293.386554 
L 118.148599 291.997192 
L 119.301163 291.997192 
L 119.301163 291.534072 
L 121.400219 291.534072 
L 121.400219 291.070951 
L 122.362027 291.070951 
L 122.362027 290.14471 
L 124.965026 290.14471 
L 124.965026 289.68159 
L 127.923363 289.68159 
L 127.923363 287.829108 
L 128.590686 287.829108 
L 128.590686 287.365987 
L 130.45189 287.365987 
L 130.45189 286.439746 
L 131.030622 286.439746 
L 131.030622 285.976625 
L 131.590764 285.976625 
L 131.590764 285.513505 
L 132.133473 285.513505 
L 132.133473 284.124143 
L 133.170708 284.124143 
L 133.170708 283.197902 
L 134.149701 283.197902 
L 134.149701 281.34542 
L 134.61933 281.34542 
L 134.61933 279.956059 
L 135.522271 279.956059 
L 135.522271 279.492938 
L 135.956794 279.492938 
L 135.956794 279.029818 
L 136.380754 279.029818 
L 136.380754 278.566697 
L 137.198951 278.566697 
L 137.198951 277.640456 
L 137.594091 277.640456 
L 137.594091 277.177336 
L 137.980475 277.177336 
L 137.980475 276.714215 
L 139.090775 276.714215 
L 139.123342 275.787974 
L 139.793552 275.787974 
L 139.793552 274.861733 
L 141.746425 274.861733 
L 141.746425 274.398612 
L 142.351634 274.398612 
L 142.351634 273.009251 
L 142.699628 273.009251 
L 142.699628 272.54613 
L 143.502469 272.54613 
L 143.502469 272.08301 
L 144.318346 272.08301 
L 144.318346 271.156769 
L 145.097753 271.156769 
L 145.097753 270.693648 
L 146.559258 270.693648 
L 146.559258 270.230528 
L 146.791364 270.230528 
L 146.791364 269.767407 
L 147.02042 269.767407 
L 147.02042 269.304287 
L 150.327083 269.304287 
L 150.327083 268.841166 
L 153.265382 268.841166 
L 153.265382 267.914925 
L 161.274728 267.914925 
L 161.274728 267.451805 
L 167.525915 267.451805 
L 167.525915 266.988684 
L 171.381595 266.988684 
L 171.381595 266.525564 
L 177.463036 266.525564 
L 177.463036 266.062443 
L 177.950805 266.062443 
L 177.950805 264.673082 
L 179.405201 264.673082 
L 179.405201 263.746841 
L 181.035305 263.746841 
L 181.035305 263.28372 
L 181.988415 263.28372 
L 181.988415 262.357479 
L 183.502813 262.357479 
L 183.502813 261.894358 
L 187.040861 261.894358 
L 187.040861 261.431238 
L 187.270751 261.431238 
L 187.270751 260.968117 
L 188.903689 260.968117 
L 188.903689 260.504997 
L 189.812627 260.504997 
L 189.812627 260.041876 
L 191.021741 260.041876 
L 191.021741 259.578756 
L 191.953801 259.578756 
L 191.953801 259.115635 
L 196.667719 259.115635 
L 196.667719 258.189394 
L 196.886018 258.189394 
L 196.886018 257.263153 
L 201.693988 257.263153 
L 201.693988 256.800033 
L 202.094275 256.800033 
L 202.094275 255.873792 
L 202.243135 255.873792 
L 202.243135 255.410671 
L 202.601279 255.410671 
L 202.601279 254.947551 
L 202.725548 254.947551 
L 202.725548 254.48443 
L 203.027399 254.48443 
L 203.027399 253.558189 
L 203.297871 253.558189 
L 203.297871 252.168828 
L 203.463692 252.168828 
L 203.463692 251.242587 
L 203.601355 251.242587 
L 203.601355 250.316346 
L 203.909952 250.316346 
L 203.909952 249.853225 
L 208.741897 249.853225 
L 208.741897 248.926984 
L 209.158551 248.926984 
L 209.158551 248.463863 
L 210.252504 248.463863 
L 210.252504 247.537622 
L 210.686081 247.537622 
L 210.781994 246.148261 
L 210.877914 246.148261 
L 210.877914 245.22202 
L 211.02819 245.22202 
L 211.105993 243.832658 
L 211.284462 243.832658 
L 211.284462 243.369538 
L 211.829812 243.369538 
L 211.829812 242.443297 
L 213.469661 242.443297 
L 213.469661 241.517056 
L 213.829153 241.517056 
L 213.829153 241.053935 
L 214.361614 241.053935 
L 214.361614 240.590815 
L 220.808248 240.590815 
L 220.917364 239.201453 
L 221.300998 239.201453 
L 221.300998 238.275212 
L 221.440755 238.275212 
L 221.525807 236.88585 
L 221.568178 236.88585 
L 221.649746 235.959609 
L 221.723518 235.959609 
L 221.771957 234.570248 
L 222.710822 234.570248 
L 222.710822 234.107127 
L 227.154753 234.107127 
L 227.154753 233.180886 
L 228.717996 233.180886 
L 228.812315 232.254645 
L 232.192554 232.254645 
L 232.192554 231.791525 
L 233.128929 231.791525 
L 233.128929 231.328404 
L 234.169747 231.328404 
L 234.169747 230.402163 
L 234.32046 230.402163 
L 234.403676 228.086561 
L 236.840065 228.086561 
L 236.840065 227.62344 
L 238.823766 227.62344 
L 238.823766 226.697199 
L 243.605783 226.697199 
L 243.690193 220.676632 
L 244.998128 220.676632 
L 244.998128 220.213512 
L 246.611093 220.213512 
L 246.663334 218.82415 
L 246.794477 218.82415 
L 246.794477 218.36103 
L 247.765773 218.36103 
L 247.765773 217.897909 
L 248.50405 217.897909 
L 248.50405 216.971668 
L 248.666408 216.971668 
L 248.666408 216.508548 
L 248.836251 216.508548 
L 248.930152 214.192945 
L 248.972548 214.192945 
L 249.044766 209.098619 
L 250.684503 209.098619 
L 250.684503 208.635499 
L 250.849191 208.635499 
L 250.849191 208.172378 
L 251.468267 208.172378 
L 251.468267 207.709258 
L 251.643206 207.709258 
L 251.723945 205.856776 
L 252.032477 205.856776 
L 252.090293 204.004294 
L 252.164311 204.004294 
L 252.164311 203.078053 
L 252.317535 203.078053 
L 252.317535 202.151812 
L 252.622332 202.151812 
L 252.622332 200.76245 
L 252.932095 200.76245 
L 252.932095 199.373088 
L 253.221927 199.373088 
L 253.221927 198.909968 
L 254.001713 198.909968 
L 254.097465 197.057486 
L 255.106202 197.057486 
L 255.106202 196.594365 
L 255.948232 196.594365 
L 255.948232 196.131245 
L 256.904175 196.131245 
L 256.904175 195.668124 
L 257.017814 195.668124 
L 257.017814 195.205004 
L 257.31299 195.205004 
L 257.388382 193.352522 
L 258.073974 193.352522 
L 258.073974 192.889401 
L 258.371317 192.889401 
L 258.371317 192.426281 
L 338.688 192.426281 
L 338.688 192.426281 
" style="fill:none;stroke:#0000ff;stroke-linecap:square;stroke-width:1.5;"/>
   </g>
   <g id="line2d_41">
    <defs>
     <path d="M 0 -6 
L -1.347084 -1.854102 
L -5.706339 -1.854102 
L -2.179628 0.708204 
L -3.526712 4.854102 
L -0 2.291796 
L 3.526712 4.854102 
L 2.179628 0.708204 
L 5.706339 -1.854102 
L 1.347084 -1.854102 
z
" id="m1cc96b2c8d" style="stroke:#0000ff;stroke-linejoin:bevel;stroke-width:1.5;"/>
    </defs>
    <g>
     <use style="fill-opacity:0;stroke:#0000ff;stroke-linejoin:bevel;stroke-width:1.5;" x="136.380754" xlink:href="#m1cc96b2c8d" y="279.029818"/>
     <use style="fill-opacity:0;stroke:#0000ff;stroke-linejoin:bevel;stroke-width:1.5;" x="210.877914" xlink:href="#m1cc96b2c8d" y="245.22202"/>
     <use style="fill-opacity:0;stroke:#0000ff;stroke-linejoin:bevel;stroke-width:1.5;" x="258.371317" xlink:href="#m1cc96b2c8d" y="192.889401"/>
     <use style="fill-opacity:0;stroke:#0000ff;stroke-linejoin:bevel;stroke-width:1.5;" x="258.371317" xlink:href="#m1cc96b2c8d" y="192.426281"/>
     <use style="fill-opacity:0;stroke:#0000ff;stroke-linejoin:bevel;stroke-width:1.5;" x="258.371317" xlink:href="#m1cc96b2c8d" y="192.426281"/>
     <use style="fill-opacity:0;stroke:#0000ff;stroke-linejoin:bevel;stroke-width:1.5;" x="338.688" xlink:href="#m1cc96b2c8d" y="192.426281"/>
    </g>
   </g>
   <g id="line2d_42">
    <path style="fill:none;stroke:#0000ff;stroke-linecap:square;stroke-width:1.5;"/>
    <g/>
   </g>
   <g id="line2d_43">
    <path clip-path="url(#p9edf69e424)" d="M 258.377143 192.426281 
" style="fill:none;stroke:#0000ff;stroke-linecap:square;stroke-width:1.5;"/>
    <defs>
     <path d="M -12 12 
L 12 -12 
M -12 -12 
L 12 12 
" id="mcebb665f98" style="stroke:#0000ff;"/>
    </defs>
    <g clip-path="url(#p9edf69e424)">
     <use style="fill:#0000ff;stroke:#0000ff;" x="258.377143" xlink:href="#mcebb665f98" y="192.426281"/>
    </g>
   </g>
   <g id="line2d_44">
    <defs>
     <path d="M 0 1.5 
C 0.397805 1.5 0.77937 1.341951 1.06066 1.06066 
C 1.341951 0.77937 1.5 0.397805 1.5 0 
C 1.5 -0.397805 1.341951 -0.77937 1.06066 -1.06066 
C 0.77937 -1.341951 0.397805 -1.5 0 -1.5 
C -0.397805 -1.5 -0.77937 -1.341951 -1.06066 -1.06066 
C -1.341951 -0.77937 -1.5 -0.397805 -1.5 0 
C -1.5 0.397805 -1.341951 0.77937 -1.06066 1.06066 
C -0.77937 1.341951 -0.397805 1.5 0 1.5 
z
" id="m892c2f6819" style="stroke:#000000;"/>
    </defs>
    <g>
     <use style="stroke:#000000;" x="257.899343" xlink:href="#m892c2f6819" y="188.258196"/>
     <use style="stroke:#000000;" x="257.899343" xlink:href="#m892c2f6819" y="188.258196"/>
    </g>
   </g>
   <g id="line2d_45">
    <path d="M 98.270913 298.944 
L 98.270913 298.480879 
L 101.506816 298.480879 
L 101.506816 298.017759 
L 104.23523 298.017759 
L 104.23523 297.091518 
L 106.593963 297.091518 
L 106.593963 296.628397 
L 108.671345 296.628397 
L 108.671345 295.239036 
L 112.204777 295.239036 
L 112.204777 293.849674 
L 113.73488 293.849674 
L 113.73488 292.923433 
L 115.141496 292.923433 
L 115.141496 291.070951 
L 116.443076 291.070951 
L 116.443076 289.68159 
L 117.654224 289.68159 
L 117.654224 288.292228 
L 118.786692 288.292228 
L 118.786692 285.976625 
L 119.850084 285.976625 
L 119.850084 285.513505 
L 120.852343 285.513505 
L 120.852343 283.661023 
L 121.800118 283.661023 
L 121.800118 283.197902 
L 122.699028 283.197902 
L 122.699028 282.734782 
L 123.553867 282.734782 
L 123.553867 281.808541 
L 124.368753 281.808541 
L 124.368753 279.492938 
L 125.147256 279.492938 
L 125.147256 278.103577 
L 126.607172 278.103577 
L 126.607172 277.177336 
L 127.293718 277.177336 
L 127.293718 275.324854 
L 127.954256 275.324854 
L 127.954256 273.935492 
L 128.590686 273.935492 
L 128.590686 273.472371 
L 129.204706 273.472371 
L 129.204706 272.08301 
L 129.79784 272.08301 
L 129.79784 269.767407 
L 130.371462 269.767407 
L 130.371462 267.914925 
L 130.926816 267.914925 
L 130.926816 267.451805 
L 131.465029 267.451805 
L 131.465029 266.525564 
L 131.987128 266.525564 
L 131.987128 265.599323 
L 132.494049 265.599323 
L 132.494049 264.209961 
L 132.986651 264.209961 
L 132.986651 262.8206 
L 133.46572 262.8206 
L 133.46572 261.894358 
L 133.931979 261.894358 
L 133.931979 261.431238 
L 134.386096 261.431238 
L 134.386096 260.504997 
L 135.260324 260.504997 
L 135.260324 259.115635 
L 135.681535 259.115635 
L 135.681535 258.189394 
L 136.092812 258.189394 
L 136.092812 257.263153 
L 137.271464 257.263153 
L 137.271464 256.336912 
L 137.647286 256.336912 
L 137.647286 255.410671 
L 138.375473 255.410671 
L 138.375473 254.48443 
L 138.728473 254.48443 
L 138.728473 254.02131 
L 139.074469 254.02131 
L 139.074469 253.558189 
L 140.708409 253.558189 
L 140.708409 252.631948 
L 141.620002 252.631948 
L 141.620002 251.705707 
L 142.486301 251.705707 
L 142.486301 250.779466 
L 143.578237 250.779466 
L 143.578237 249.853225 
L 143.840863 249.853225 
L 143.840863 249.390104 
L 144.099593 249.390104 
L 144.099593 248.926984 
L 144.853518 248.926984 
L 144.853518 248.463863 
L 146.937474 248.463863 
L 146.937474 248.000743 
L 148.993835 248.000743 
L 148.993835 247.537622 
L 152.654705 247.537622 
L 152.654705 247.074502 
L 172.23782 247.074502 
L 172.23782 246.148261 
L 179.70463 246.148261 
L 179.70463 245.22202 
L 182.224954 245.22202 
L 182.224954 244.758899 
L 185.566793 244.758899 
L 185.566793 243.832658 
L 192.026791 243.832658 
L 192.026791 242.906417 
L 204.249747 242.906417 
L 204.249747 241.980176 
L 208.894102 241.980176 
L 208.894102 241.517056 
L 221.802519 241.517056 
L 221.802519 241.053935 
L 223.33594 241.053935 
L 223.33594 240.590815 
L 223.447312 240.590815 
L 223.447312 239.664574 
L 223.601841 239.664574 
L 223.601841 239.201453 
L 228.148814 239.201453 
L 228.148814 238.275212 
L 230.497814 238.275212 
L 230.497814 237.348971 
L 231.252009 237.348971 
L 231.252009 236.42273 
L 231.365722 236.42273 
L 231.365722 235.959609 
L 231.591433 235.959609 
L 231.591433 235.033368 
L 233.053547 235.033368 
L 233.053547 234.107127 
L 233.92378 234.107127 
L 233.92378 233.180886 
L 234.98967 233.180886 
L 234.98967 232.717766 
L 235.183541 232.717766 
L 235.183541 231.791525 
L 235.331989 231.791525 
L 235.331989 231.328404 
L 235.469263 231.328404 
L 235.469263 230.865284 
L 236.853551 230.865284 
L 236.853551 230.402163 
L 237.69886 230.402163 
L 237.806636 226.697199 
L 237.842112 226.697199 
L 237.842112 226.234079 
L 238.091736 226.234079 
L 238.091736 225.770958 
L 238.488671 225.770958 
L 238.488671 224.844717 
L 238.683046 224.844717 
L 238.683046 224.381596 
L 239.592024 224.381596 
L 239.592024 223.455355 
L 240.728434 223.455355 
L 240.728434 222.992235 
L 240.988207 222.992235 
L 241.015035 221.602873 
L 242.794252 221.602873 
L 242.794252 221.139753 
L 243.943274 221.139753 
L 243.943274 220.213512 
L 244.28962 220.213512 
L 244.28962 219.287271 
L 244.619973 219.287271 
L 244.619973 218.82415 
L 244.882175 218.82415 
L 244.925073 216.971668 
L 245.778487 216.971668 
L 245.778487 216.508548 
L 246.159483 216.508548 
L 246.159483 215.582307 
L 247.760132 215.582307 
L 247.864868 213.266704 
L 247.954624 213.266704 
L 248.023945 211.877342 
L 248.126423 211.877342 
L 248.126423 210.487981 
L 248.99753 210.487981 
L 248.99753 210.02486 
L 249.243046 210.02486 
L 249.243046 209.56174 
L 249.890767 209.56174 
L 249.890767 209.098619 
L 250.162052 209.098619 
L 250.162052 208.172378 
L 250.454636 208.172378 
L 250.561951 207.246137 
L 250.621553 207.246137 
L 250.640723 205.856776 
L 250.863633 205.856776 
L 250.863633 204.930535 
L 251.451698 204.930535 
L 251.451698 204.467414 
L 253.031541 204.467414 
L 253.046959 203.078053 
L 253.265981 203.078053 
L 253.265981 202.151812 
L 253.785827 202.151812 
L 253.785827 201.225571 
L 253.940194 201.225571 
L 253.940194 200.299329 
L 254.052202 200.299329 
L 254.052202 199.836209 
L 254.302987 199.836209 
L 254.37123 198.446847 
L 254.494223 198.446847 
L 254.494223 197.983727 
L 255.157311 197.983727 
L 255.157311 197.057486 
L 255.274567 197.057486 
L 255.274567 196.131245 
L 255.777898 196.131245 
L 255.777898 195.205004 
L 255.930041 195.205004 
L 255.930041 194.278763 
L 256.044903 194.278763 
L 256.044903 193.352522 
L 256.273504 193.352522 
L 256.273504 192.889401 
L 256.914249 192.889401 
L 256.914249 192.426281 
L 257.197608 192.426281 
L 257.296021 191.036919 
L 257.333017 191.036919 
L 257.333017 190.110678 
L 257.501302 190.110678 
L 257.501302 189.184437 
L 257.730276 189.184437 
L 257.730276 188.721316 
L 257.899343 188.721316 
L 257.899343 188.258196 
L 338.688 188.258196 
L 338.688 188.258196 
" style="fill:none;stroke:#000000;stroke-linecap:square;stroke-width:1.5;"/>
   </g>
   <g id="line2d_46">
    <defs>
     <path d="M 0 6 
C 1.591219 6 3.117479 5.367802 4.242641 4.242641 
C 5.367802 3.117479 6 1.591219 6 0 
C 6 -1.591219 5.367802 -3.117479 4.242641 -4.242641 
C 3.117479 -5.367802 1.591219 -6 0 -6 
C -1.591219 -6 -3.117479 -5.367802 -4.242641 -4.242641 
C -5.367802 -3.117479 -6 -1.591219 -6 0 
C -6 1.591219 -5.367802 3.117479 -4.242641 4.242641 
C -3.117479 5.367802 -1.591219 6 0 6 
z
" id="mb53a65c2cb" style="stroke:#000000;stroke-width:1.5;"/>
    </defs>
    <g>
     <use style="fill-opacity:0;stroke:#000000;stroke-width:1.5;" x="143.840863" xlink:href="#mb53a65c2cb" y="249.853225"/>
     <use style="fill-opacity:0;stroke:#000000;stroke-width:1.5;" x="221.802519" xlink:href="#mb53a65c2cb" y="241.517056"/>
     <use style="fill-opacity:0;stroke:#000000;stroke-width:1.5;" x="257.899343" xlink:href="#mb53a65c2cb" y="188.721316"/>
     <use style="fill-opacity:0;stroke:#000000;stroke-width:1.5;" x="257.899343" xlink:href="#mb53a65c2cb" y="188.258196"/>
     <use style="fill-opacity:0;stroke:#000000;stroke-width:1.5;" x="338.688" xlink:href="#mb53a65c2cb" y="188.258196"/>
    </g>
   </g>
   <g id="line2d_47">
    <path style="fill:none;stroke:#000000;stroke-linecap:square;stroke-width:1.5;"/>
    <g/>
   </g>
   <g id="line2d_48">
    <path clip-path="url(#p9edf69e424)" d="M 258.377143 188.258196 
" style="fill:none;stroke:#000000;stroke-linecap:square;stroke-width:1.5;"/>
    <defs>
     <path d="M -12 12 
L 12 -12 
M -12 -12 
L 12 12 
" id="m85836cd803" style="stroke:#000000;"/>
    </defs>
    <g clip-path="url(#p9edf69e424)">
     <use style="stroke:#000000;" x="258.377143" xlink:href="#m85836cd803" y="188.258196"/>
    </g>
   </g>
   <g id="line2d_49">
    <defs>
     <path d="M 0 1.5 
C 0.397805 1.5 0.77937 1.341951 1.06066 1.06066 
C 1.341951 0.77937 1.5 0.397805 1.5 0 
C 1.5 -0.397805 1.341951 -0.77937 1.06066 -1.06066 
C 0.77937 -1.341951 0.397805 -1.5 0 -1.5 
C -0.397805 -1.5 -0.77937 -1.341951 -1.06066 -1.06066 
C -1.341951 -0.77937 -1.5 -0.397805 -1.5 0 
C -1.5 0.397805 -1.341951 0.77937 -1.06066 1.06066 
C -0.77937 1.341951 -0.397805 1.5 0 1.5 
z
" id="mfc2e063ab6" style="stroke:#ff0000;"/>
    </defs>
    <g>
     <use style="fill:#ff0000;stroke:#ff0000;" x="257.977119" xlink:href="#mfc2e063ab6" y="225.307837"/>
     <use style="fill:#ff0000;stroke:#ff0000;" x="257.977119" xlink:href="#mfc2e063ab6" y="225.307837"/>
    </g>
   </g>
   <g id="line2d_50">
    <path d="M 5.356583 298.944 
L 5.356583 298.017759 
L 91.782644 298.017759 
L 91.782644 297.554638 
L 96.206276 297.554638 
L 96.206276 296.628397 
L 99.731799 296.628397 
L 99.731799 296.165277 
L 102.66306 296.165277 
L 102.66306 295.239036 
L 105.171792 295.239036 
L 105.171792 292.923433 
L 107.364602 292.923433 
L 107.364602 292.460313 
L 109.31223 292.460313 
L 109.31223 291.997192 
L 111.064034 291.997192 
L 111.064034 291.070951 
L 112.655818 291.070951 
L 112.655818 289.218469 
L 114.114385 289.218469 
L 114.114385 286.902867 
L 115.460322 286.902867 
L 115.460322 286.439746 
L 116.709783 286.439746 
L 116.709783 284.587264 
L 117.875678 284.587264 
L 117.875678 284.124143 
L 118.968488 284.124143 
L 118.968488 282.734782 
L 119.996839 282.734782 
L 119.996839 280.419179 
L 120.967912 280.419179 
L 120.967912 279.492938 
L 121.887753 279.492938 
L 121.887753 277.177336 
L 122.761498 277.177336 
L 122.761498 275.787974 
L 123.593547 275.787974 
L 123.593547 275.324854 
L 124.387699 275.324854 
L 124.387699 273.935492 
L 125.147256 273.935492 
L 125.147256 273.009251 
L 125.875108 273.009251 
L 125.875108 272.54613 
L 126.573795 272.54613 
L 126.573795 271.619889 
L 127.245565 271.619889 
L 127.245565 270.230528 
L 127.892415 270.230528 
L 127.892415 269.304287 
L 128.516128 269.304287 
L 128.516128 268.378046 
L 129.700375 268.378046 
L 129.700375 266.988684 
L 130.263646 266.988684 
L 130.263646 266.525564 
L 130.809292 266.525564 
L 130.809292 266.062443 
L 131.338382 266.062443 
L 131.338382 264.209961 
L 131.851892 264.209961 
L 131.851892 263.28372 
L 132.350712 263.28372 
L 132.350712 262.8206 
L 133.307488 262.8206 
L 133.307488 261.431238 
L 134.214491 261.431238 
L 134.214491 260.041876 
L 135.076644 260.041876 
L 135.076644 259.115635 
L 135.492247 259.115635 
L 135.492247 258.652515 
L 136.68274 258.652515 
L 136.68274 258.189394 
L 137.062172 258.189394 
L 137.062172 257.726274 
L 137.797132 257.726274 
L 137.797132 256.336912 
L 138.502366 256.336912 
L 138.502366 255.873792 
L 138.84457 255.873792 
L 138.84457 254.947551 
L 139.509467 254.947551 
L 139.509467 254.02131 
L 140.46157 254.02131 
L 140.46157 253.095069 
L 143.565632 253.095069 
L 143.565632 252.631948 
L 146.638733 252.631948 
L 146.638733 250.779466 
L 148.681621 250.779466 
L 148.681621 249.853225 
L 150.853863 249.853225 
L 150.853863 249.390104 
L 179.444725 249.390104 
L 179.444725 248.926984 
L 198.554517 248.926984 
L 198.554517 248.463863 
L 202.276889 248.463863 
L 202.276889 248.000743 
L 202.436713 248.000743 
L 202.436713 247.537622 
L 211.776013 247.537622 
L 211.776013 246.611381 
L 219.243639 246.611381 
L 219.243639 246.148261 
L 220.733664 246.148261 
L 220.733664 245.68514 
L 222.862099 245.68514 
L 222.862099 245.22202 
L 234.214589 245.22202 
L 234.214589 244.758899 
L 238.391406 244.758899 
L 238.391406 244.295779 
L 238.887679 244.295779 
L 238.887679 243.832658 
L 241.729487 243.832658 
L 241.729487 243.369538 
L 242.09435 243.369538 
L 242.09435 242.443297 
L 244.361134 242.443297 
L 244.361134 241.517056 
L 244.688905 241.517056 
L 244.688905 241.053935 
L 244.942885 241.053935 
L 244.942885 240.127694 
L 248.515182 240.127694 
L 248.515182 239.664574 
L 249.103262 239.664574 
L 249.103262 239.201453 
L 250.704186 239.201453 
L 250.704186 238.275212 
L 254.172343 238.275212 
L 254.172343 237.812091 
L 254.341374 237.812091 
L 254.341374 237.348971 
L 254.551813 237.348971 
L 254.551813 236.42273 
L 254.930608 236.42273 
L 255.035099 232.717766 
L 255.045236 232.717766 
L 255.045236 232.254645 
L 255.217961 232.254645 
L 255.217961 231.328404 
L 255.359492 231.328404 
L 255.359492 230.865284 
L 255.647487 230.865284 
L 255.647487 229.939043 
L 255.765546 229.939043 
L 255.783585 228.086561 
L 256.529507 228.086561 
L 256.529507 227.16032 
L 257.657451 227.16032 
L 257.657451 226.234079 
L 257.977119 226.234079 
L 257.977119 225.307837 
L 338.688 225.307837 
L 338.688 225.307837 
" style="fill:none;stroke:#ff0000;stroke-linecap:square;stroke-width:1.5;"/>
   </g>
   <g id="line2d_51">
    <defs>
     <path d="M -6 6 
L 6 6 
L 6 -6 
L -6 -6 
z
" id="me4eb8e5bbd" style="stroke:#ff0000;stroke-linejoin:miter;stroke-width:1.5;"/>
    </defs>
    <g>
     <use style="fill-opacity:0;stroke:#ff0000;stroke-linejoin:miter;stroke-width:1.5;" x="130.809292" xlink:href="#me4eb8e5bbd" y="266.525564"/>
     <use style="fill-opacity:0;stroke:#ff0000;stroke-linejoin:miter;stroke-width:1.5;" x="202.436713" xlink:href="#me4eb8e5bbd" y="248.000743"/>
     <use style="fill-opacity:0;stroke:#ff0000;stroke-linejoin:miter;stroke-width:1.5;" x="257.977119" xlink:href="#me4eb8e5bbd" y="226.234079"/>
     <use style="fill-opacity:0;stroke:#ff0000;stroke-linejoin:miter;stroke-width:1.5;" x="257.977119" xlink:href="#me4eb8e5bbd" y="225.307837"/>
     <use style="fill-opacity:0;stroke:#ff0000;stroke-linejoin:miter;stroke-width:1.5;" x="338.688" xlink:href="#me4eb8e5bbd" y="225.307837"/>
    </g>
   </g>
   <g id="line2d_52">
    <path style="fill:none;stroke:#ff0000;stroke-linecap:square;stroke-width:1.5;"/>
    <g/>
   </g>
   <g id="line2d_53">
    <path clip-path="url(#p9edf69e424)" d="M 258.377143 225.307837 
" style="fill:none;stroke:#ff0000;stroke-linecap:square;stroke-width:1.5;"/>
    <defs>
     <path d="M -12 12 
L 12 -12 
M -12 -12 
L 12 12 
" id="m11c1b8922a" style="stroke:#ff0000;"/>
    </defs>
    <g clip-path="url(#p9edf69e424)">
     <use style="fill:#ff0000;stroke:#ff0000;" x="258.377143" xlink:href="#m11c1b8922a" y="225.307837"/>
    </g>
   </g>
   <g id="line2d_54">
    <path d="M 338.688 225.307837 
L 369.60768 293.571802 
" style="fill:none;stroke:#ff0000;stroke-linecap:square;stroke-width:1.5;"/>
    <g>
     <use style="fill-opacity:0;stroke:#ff0000;stroke-linejoin:miter;stroke-width:1.5;" x="338.688" xlink:href="#me4eb8e5bbd" y="225.307837"/>
     <use style="fill-opacity:0;stroke:#ff0000;stroke-linejoin:miter;stroke-width:1.5;" x="369.60768" xlink:href="#me4eb8e5bbd" y="293.571802"/>
    </g>
   </g>
   <g id="line2d_55">
    <path d="M 338.688 192.426281 
L 369.60768 229.105426 
" style="fill:none;stroke:#0000ff;stroke-linecap:square;stroke-width:1.5;"/>
    <g>
     <use style="fill-opacity:0;stroke:#0000ff;stroke-linejoin:bevel;stroke-width:1.5;" x="338.688" xlink:href="#m1cc96b2c8d" y="192.426281"/>
     <use style="fill-opacity:0;stroke:#0000ff;stroke-linejoin:bevel;stroke-width:1.5;" x="369.60768" xlink:href="#m1cc96b2c8d" y="229.105426"/>
    </g>
   </g>
   <g id="line2d_56">
    <path d="M 338.688 188.258196 
L 369.60768 164.63905 
" style="fill:none;stroke:#000000;stroke-linecap:square;stroke-width:1.5;"/>
    <g>
     <use style="fill-opacity:0;stroke:#000000;stroke-width:1.5;" x="338.688" xlink:href="#mb53a65c2cb" y="188.258196"/>
     <use style="fill-opacity:0;stroke:#000000;stroke-width:1.5;" x="369.60768" xlink:href="#mb53a65c2cb" y="164.63905"/>
    </g>
   </g>
   <g id="line2d_57">
    <path d="M 338.688 78.035512 
L 369.60768 100.172673 
" style="fill:none;stroke:#008000;stroke-linecap:square;stroke-width:1.5;"/>
    <g>
     <use style="fill-opacity:0;stroke:#008000;stroke-linejoin:miter;stroke-width:1.5;" x="338.688" xlink:href="#m20cc8405bb" y="78.035512"/>
     <use style="fill-opacity:0;stroke:#008000;stroke-linejoin:miter;stroke-width:1.5;" x="369.60768" xlink:href="#m20cc8405bb" y="100.172673"/>
    </g>
   </g>
   <g id="line2d_58">
    <path d="M 338.688 62.752535 
L 369.60768 35.706297 
" style="fill:none;stroke:#00bfbf;stroke-linecap:square;stroke-width:1.5;"/>
    <g>
     <use style="fill-opacity:0;stroke:#00bfbf;stroke-width:1.5;" x="338.688" xlink:href="#m81a5a43bd6" y="62.752535"/>
     <use style="fill-opacity:0;stroke:#00bfbf;stroke-width:1.5;" x="369.60768" xlink:href="#m81a5a43bd6" y="35.706297"/>
    </g>
   </g>
   <g id="line2d_59">
    <path d="M 338.688 298.944 
L 338.688 30.334099 
" style="fill:none;stroke:#000000;stroke-linecap:square;stroke-width:1.5;"/>
   </g>
   <g id="patch_3">
    <path d="M 57.6 298.944 
L 57.6 27.648 
" style="fill:none;stroke:#000000;stroke-linecap:square;stroke-linejoin:miter;stroke-width:0.8;"/>
   </g>
   <g id="patch_4">
    <path d="M 338.688 298.944 
L 338.688 27.648 
" style="fill:none;stroke:#000000;stroke-linecap:square;stroke-linejoin:miter;stroke-width:0.8;"/>
   </g>
   <g id="patch_5">
    <path d="M 57.6 298.944 
L 338.688 298.944 
" style="fill:none;stroke:#000000;stroke-linecap:square;stroke-linejoin:miter;stroke-width:0.8;"/>
   </g>
   <g id="patch_6">
    <path d="M 57.6 27.648 
L 338.688 27.648 
" style="fill:none;stroke:#000000;stroke-linecap:square;stroke-linejoin:miter;stroke-width:0.8;"/>
   </g>
   <g id="text_13">
    <!-- 20-D -->
    <g transform="translate(375.22944 298.262739)scale(0.17 -0.17)">
     <defs>
      <path d="M 19.671875 64.796875 
L 19.671875 8.109375 
L 31.59375 8.109375 
Q 46.6875 8.109375 53.6875 14.9375 
Q 60.6875 21.78125 60.6875 36.53125 
Q 60.6875 51.171875 53.6875 57.984375 
Q 46.6875 64.796875 31.59375 64.796875 
z
M 9.8125 72.90625 
L 30.078125 72.90625 
Q 51.265625 72.90625 61.171875 64.09375 
Q 71.09375 55.28125 71.09375 36.53125 
Q 71.09375 17.671875 61.125 8.828125 
Q 51.171875 0 30.078125 0 
L 9.8125 0 
z
" id="DejaVuSans-68"/>
     </defs>
     <use xlink:href="#DejaVuSans-50"/>
     <use x="63.623047" xlink:href="#DejaVuSans-48"/>
     <use x="127.246094" xlink:href="#DejaVuSans-45"/>
     <use x="163.330078" xlink:href="#DejaVuSans-68"/>
    </g>
   </g>
   <g id="text_14">
    <!-- 5-D -->
    <g transform="translate(375.22944 233.796363)scale(0.17 -0.17)">
     <defs>
      <path d="M 10.796875 72.90625 
L 49.515625 72.90625 
L 49.515625 64.59375 
L 19.828125 64.59375 
L 19.828125 46.734375 
Q 21.96875 47.46875 24.109375 47.828125 
Q 26.265625 48.1875 28.421875 48.1875 
Q 40.625 48.1875 47.75 41.5 
Q 54.890625 34.8125 54.890625 23.390625 
Q 54.890625 11.625 47.5625 5.09375 
Q 40.234375 -1.421875 26.90625 -1.421875 
Q 22.3125 -1.421875 17.546875 -0.640625 
Q 12.796875 0.140625 7.71875 1.703125 
L 7.71875 11.625 
Q 12.109375 9.234375 16.796875 8.0625 
Q 21.484375 6.890625 26.703125 6.890625 
Q 35.15625 6.890625 40.078125 11.328125 
Q 45.015625 15.765625 45.015625 23.390625 
Q 45.015625 31 40.078125 35.4375 
Q 35.15625 39.890625 26.703125 39.890625 
Q 22.75 39.890625 18.8125 39.015625 
Q 14.890625 38.140625 10.796875 36.28125 
z
" id="DejaVuSans-53"/>
     </defs>
     <use xlink:href="#DejaVuSans-53"/>
     <use x="63.623047" xlink:href="#DejaVuSans-45"/>
     <use x="99.707031" xlink:href="#DejaVuSans-68"/>
    </g>
   </g>
   <g id="text_15">
    <!-- 10-D -->
    <g transform="translate(375.22944 169.329987)scale(0.17 -0.17)">
     <use xlink:href="#DejaVuSans-49"/>
     <use x="63.623047" xlink:href="#DejaVuSans-48"/>
     <use x="127.246094" xlink:href="#DejaVuSans-45"/>
     <use x="163.330078" xlink:href="#DejaVuSans-68"/>
    </g>
   </g>
   <g id="text_16">
    <!-- 3-D -->
    <g transform="translate(375.22944 104.863611)scale(0.17 -0.17)">
     <defs>
      <path d="M 40.578125 39.3125 
Q 47.65625 37.796875 51.625 33 
Q 55.609375 28.21875 55.609375 21.1875 
Q 55.609375 10.40625 48.1875 4.484375 
Q 40.765625 -1.421875 27.09375 -1.421875 
Q 22.515625 -1.421875 17.65625 -0.515625 
Q 12.796875 0.390625 7.625 2.203125 
L 7.625 11.71875 
Q 11.71875 9.328125 16.59375 8.109375 
Q 21.484375 6.890625 26.8125 6.890625 
Q 36.078125 6.890625 40.9375 10.546875 
Q 45.796875 14.203125 45.796875 21.1875 
Q 45.796875 27.640625 41.28125 31.265625 
Q 36.765625 34.90625 28.71875 34.90625 
L 20.21875 34.90625 
L 20.21875 43.015625 
L 29.109375 43.015625 
Q 36.375 43.015625 40.234375 45.921875 
Q 44.09375 48.828125 44.09375 54.296875 
Q 44.09375 59.90625 40.109375 62.90625 
Q 36.140625 65.921875 28.71875 65.921875 
Q 24.65625 65.921875 20.015625 65.03125 
Q 15.375 64.15625 9.8125 62.3125 
L 9.8125 71.09375 
Q 15.4375 72.65625 20.34375 73.4375 
Q 25.25 74.21875 29.59375 74.21875 
Q 40.828125 74.21875 47.359375 69.109375 
Q 53.90625 64.015625 53.90625 55.328125 
Q 53.90625 49.265625 50.4375 45.09375 
Q 46.96875 40.921875 40.578125 39.3125 
z
" id="DejaVuSans-51"/>
     </defs>
     <use xlink:href="#DejaVuSans-51"/>
     <use x="63.623047" xlink:href="#DejaVuSans-45"/>
     <use x="99.707031" xlink:href="#DejaVuSans-68"/>
    </g>
   </g>
   <g id="text_17">
    <!-- 2-D -->
    <g transform="translate(375.22944 40.397235)scale(0.17 -0.17)">
     <use xlink:href="#DejaVuSans-50"/>
     <use x="63.623047" xlink:href="#DejaVuSans-45"/>
     <use x="99.707031" xlink:href="#DejaVuSans-68"/>
    </g>
   </g>
   <g id="text_18">
    <!-- bbob-biobj f15 -->
    <g transform="translate(60.41088 38.111366)scale(0.102 -0.102)">
     <defs>
      <path d="M 48.6875 27.296875 
Q 48.6875 37.203125 44.609375 42.84375 
Q 40.53125 48.484375 33.40625 48.484375 
Q 26.265625 48.484375 22.1875 42.84375 
Q 18.109375 37.203125 18.109375 27.296875 
Q 18.109375 17.390625 22.1875 11.75 
Q 26.265625 6.109375 33.40625 6.109375 
Q 40.53125 6.109375 44.609375 11.75 
Q 48.6875 17.390625 48.6875 27.296875 
z
M 18.109375 46.390625 
Q 20.953125 51.265625 25.265625 53.625 
Q 29.59375 56 35.59375 56 
Q 45.5625 56 51.78125 48.09375 
Q 58.015625 40.1875 58.015625 27.296875 
Q 58.015625 14.40625 51.78125 6.484375 
Q 45.5625 -1.421875 35.59375 -1.421875 
Q 29.59375 -1.421875 25.265625 0.953125 
Q 20.953125 3.328125 18.109375 8.203125 
L 18.109375 0 
L 9.078125 0 
L 9.078125 75.984375 
L 18.109375 75.984375 
z
" id="DejaVuSans-98"/>
      <path d="M 9.421875 54.6875 
L 18.40625 54.6875 
L 18.40625 -0.984375 
Q 18.40625 -11.421875 14.421875 -16.109375 
Q 10.453125 -20.796875 1.609375 -20.796875 
L -1.8125 -20.796875 
L -1.8125 -13.1875 
L 0.59375 -13.1875 
Q 5.71875 -13.1875 7.5625 -10.8125 
Q 9.421875 -8.453125 9.421875 -0.984375 
z
M 9.421875 75.984375 
L 18.40625 75.984375 
L 18.40625 64.59375 
L 9.421875 64.59375 
z
" id="DejaVuSans-106"/>
     </defs>
     <use xlink:href="#DejaVuSans-98"/>
     <use x="63.476562" xlink:href="#DejaVuSans-98"/>
     <use x="126.953125" xlink:href="#DejaVuSans-111"/>
     <use x="188.134766" xlink:href="#DejaVuSans-98"/>
     <use x="251.611328" xlink:href="#DejaVuSans-45"/>
     <use x="287.695312" xlink:href="#DejaVuSans-98"/>
     <use x="351.171875" xlink:href="#DejaVuSans-105"/>
     <use x="378.955078" xlink:href="#DejaVuSans-111"/>
     <use x="440.136719" xlink:href="#DejaVuSans-98"/>
     <use x="503.613281" xlink:href="#DejaVuSans-106"/>
     <use x="531.396484" xlink:href="#DejaVuSans-32"/>
     <use x="563.183594" xlink:href="#DejaVuSans-102"/>
     <use x="598.388672" xlink:href="#DejaVuSans-49"/>
     <use x="662.011719" xlink:href="#DejaVuSans-53"/>
    </g>
    <!-- 58 targets: 1..-1.0e-4 -->
    <g transform="translate(60.41088 49.533135)scale(0.102 -0.102)">
     <defs>
      <path d="M 11.71875 12.40625 
L 22.015625 12.40625 
L 22.015625 0 
L 11.71875 0 
z
M 11.71875 51.703125 
L 22.015625 51.703125 
L 22.015625 39.3125 
L 11.71875 39.3125 
z
" id="DejaVuSans-58"/>
     </defs>
     <use xlink:href="#DejaVuSans-53"/>
     <use x="63.623047" xlink:href="#DejaVuSans-56"/>
     <use x="127.246094" xlink:href="#DejaVuSans-32"/>
     <use x="159.033203" xlink:href="#DejaVuSans-116"/>
     <use x="198.242188" xlink:href="#DejaVuSans-97"/>
     <use x="259.521484" xlink:href="#DejaVuSans-114"/>
     <use x="298.884766" xlink:href="#DejaVuSans-103"/>
     <use x="362.361328" xlink:href="#DejaVuSans-101"/>
     <use x="423.884766" xlink:href="#DejaVuSans-116"/>
     <use x="463.09375" xlink:href="#DejaVuSans-115"/>
     <use x="515.193359" xlink:href="#DejaVuSans-58"/>
     <use x="548.884766" xlink:href="#DejaVuSans-32"/>
     <use x="580.671875" xlink:href="#DejaVuSans-49"/>
     <use x="644.294922" xlink:href="#DejaVuSans-46"/>
     <use x="676.082031" xlink:href="#DejaVuSans-46"/>
     <use x="707.869141" xlink:href="#DejaVuSans-45"/>
     <use x="743.953125" xlink:href="#DejaVuSans-49"/>
     <use x="807.576172" xlink:href="#DejaVuSans-46"/>
     <use x="839.363281" xlink:href="#DejaVuSans-48"/>
     <use x="902.986328" xlink:href="#DejaVuSans-101"/>
     <use x="964.509766" xlink:href="#DejaVuSans-45"/>
     <use x="1000.59375" xlink:href="#DejaVuSans-52"/>
    </g>
    <!-- 10 instances -->
    <g transform="translate(60.41088 60.954904)scale(0.102 -0.102)">
     <use xlink:href="#DejaVuSans-49"/>
     <use x="63.623047" xlink:href="#DejaVuSans-48"/>
     <use x="127.246094" xlink:href="#DejaVuSans-32"/>
     <use x="159.033203" xlink:href="#DejaVuSans-105"/>
     <use x="186.816406" xlink:href="#DejaVuSans-110"/>
     <use x="250.195312" xlink:href="#DejaVuSans-115"/>
     <use x="302.294922" xlink:href="#DejaVuSans-116"/>
     <use x="341.503906" xlink:href="#DejaVuSans-97"/>
     <use x="402.783203" xlink:href="#DejaVuSans-110"/>
     <use x="466.162109" xlink:href="#DejaVuSans-99"/>
     <use x="521.142578" xlink:href="#DejaVuSans-101"/>
     <use x="582.666016" xlink:href="#DejaVuSans-115"/>
    </g>
   </g>
   <g id="text_19">
    <!-- v2.4, hv-hash=ff0e71e8cd978373 -->
    <g style="fill:#808080;" transform="translate(112.648687 294.151352)scale(0.1 -0.1)">
     <defs>
      <path d="M 54.890625 33.015625 
L 54.890625 0 
L 45.90625 0 
L 45.90625 32.71875 
Q 45.90625 40.484375 42.875 44.328125 
Q 39.84375 48.1875 33.796875 48.1875 
Q 26.515625 48.1875 22.3125 43.546875 
Q 18.109375 38.921875 18.109375 30.90625 
L 18.109375 0 
L 9.078125 0 
L 9.078125 75.984375 
L 18.109375 75.984375 
L 18.109375 46.1875 
Q 21.34375 51.125 25.703125 53.5625 
Q 30.078125 56 35.796875 56 
Q 45.21875 56 50.046875 50.171875 
Q 54.890625 44.34375 54.890625 33.015625 
z
" id="DejaVuSans-104"/>
      <path d="M 10.59375 45.40625 
L 73.1875 45.40625 
L 73.1875 37.203125 
L 10.59375 37.203125 
z
M 10.59375 25.484375 
L 73.1875 25.484375 
L 73.1875 17.1875 
L 10.59375 17.1875 
z
" id="DejaVuSans-61"/>
      <path d="M 8.203125 72.90625 
L 55.078125 72.90625 
L 55.078125 68.703125 
L 28.609375 0 
L 18.3125 0 
L 43.21875 64.59375 
L 8.203125 64.59375 
z
" id="DejaVuSans-55"/>
      <path d="M 10.984375 1.515625 
L 10.984375 10.5 
Q 14.703125 8.734375 18.5 7.8125 
Q 22.3125 6.890625 25.984375 6.890625 
Q 35.75 6.890625 40.890625 13.453125 
Q 46.046875 20.015625 46.78125 33.40625 
Q 43.953125 29.203125 39.59375 26.953125 
Q 35.25 24.703125 29.984375 24.703125 
Q 19.046875 24.703125 12.671875 31.3125 
Q 6.296875 37.9375 6.296875 49.421875 
Q 6.296875 60.640625 12.9375 67.421875 
Q 19.578125 74.21875 30.609375 74.21875 
Q 43.265625 74.21875 49.921875 64.515625 
Q 56.59375 54.828125 56.59375 36.375 
Q 56.59375 19.140625 48.40625 8.859375 
Q 40.234375 -1.421875 26.421875 -1.421875 
Q 22.703125 -1.421875 18.890625 -0.6875 
Q 15.09375 0.046875 10.984375 1.515625 
z
M 30.609375 32.421875 
Q 37.25 32.421875 41.125 36.953125 
Q 45.015625 41.5 45.015625 49.421875 
Q 45.015625 57.28125 41.125 61.84375 
Q 37.25 66.40625 30.609375 66.40625 
Q 23.96875 66.40625 20.09375 61.84375 
Q 16.21875 57.28125 16.21875 49.421875 
Q 16.21875 41.5 20.09375 36.953125 
Q 23.96875 32.421875 30.609375 32.421875 
z
" id="DejaVuSans-57"/>
     </defs>
     <use xlink:href="#DejaVuSans-118"/>
     <use x="59.179688" xlink:href="#DejaVuSans-50"/>
     <use x="122.802734" xlink:href="#DejaVuSans-46"/>
     <use x="154.589844" xlink:href="#DejaVuSans-52"/>
     <use x="218.212891" xlink:href="#DejaVuSans-44"/>
     <use x="250" xlink:href="#DejaVuSans-32"/>
     <use x="281.787109" xlink:href="#DejaVuSans-104"/>
     <use x="345.166016" xlink:href="#DejaVuSans-118"/>
     <use x="401.720703" xlink:href="#DejaVuSans-45"/>
     <use x="437.804688" xlink:href="#DejaVuSans-104"/>
     <use x="501.183594" xlink:href="#DejaVuSans-97"/>
     <use x="562.462891" xlink:href="#DejaVuSans-115"/>
     <use x="614.5625" xlink:href="#DejaVuSans-104"/>
     <use x="677.941406" xlink:href="#DejaVuSans-61"/>
     <use x="761.730469" xlink:href="#DejaVuSans-102"/>
     <use x="796.935547" xlink:href="#DejaVuSans-102"/>
     <use x="832.140625" xlink:href="#DejaVuSans-48"/>
     <use x="895.763672" xlink:href="#DejaVuSans-101"/>
     <use x="957.287109" xlink:href="#DejaVuSans-55"/>
     <use x="1020.910156" xlink:href="#DejaVuSans-49"/>
     <use x="1084.533203" xlink:href="#DejaVuSans-101"/>
     <use x="1146.056641" xlink:href="#DejaVuSans-56"/>
     <use x="1209.679688" xlink:href="#DejaVuSans-99"/>
     <use x="1264.660156" xlink:href="#DejaVuSans-100"/>
     <use x="1328.136719" xlink:href="#DejaVuSans-57"/>
     <use x="1391.759766" xlink:href="#DejaVuSans-55"/>
     <use x="1455.382812" xlink:href="#DejaVuSans-56"/>
     <use x="1519.005859" xlink:href="#DejaVuSans-51"/>
     <use x="1582.628906" xlink:href="#DejaVuSans-55"/>
     <use x="1646.251953" xlink:href="#DejaVuSans-51"/>
    </g>
   </g>
   <g id="text_20">
    <!-- 15 sep. Ellipsoid/Diff. Powers -->
    <g transform="translate(54.761187 21.648)scale(0.2 -0.2)">
     <defs>
      <path d="M 9.8125 72.90625 
L 55.90625 72.90625 
L 55.90625 64.59375 
L 19.671875 64.59375 
L 19.671875 43.015625 
L 54.390625 43.015625 
L 54.390625 34.71875 
L 19.671875 34.71875 
L 19.671875 8.296875 
L 56.78125 8.296875 
L 56.78125 0 
L 9.8125 0 
z
" id="DejaVuSans-69"/>
      <path d="M 19.671875 64.796875 
L 19.671875 37.40625 
L 32.078125 37.40625 
Q 38.96875 37.40625 42.71875 40.96875 
Q 46.484375 44.53125 46.484375 51.125 
Q 46.484375 57.671875 42.71875 61.234375 
Q 38.96875 64.796875 32.078125 64.796875 
z
M 9.8125 72.90625 
L 32.078125 72.90625 
Q 44.34375 72.90625 50.609375 67.359375 
Q 56.890625 61.8125 56.890625 51.125 
Q 56.890625 40.328125 50.609375 34.8125 
Q 44.34375 29.296875 32.078125 29.296875 
L 19.671875 29.296875 
L 19.671875 0 
L 9.8125 0 
z
" id="DejaVuSans-80"/>
      <path d="M 4.203125 54.6875 
L 13.1875 54.6875 
L 24.421875 12.015625 
L 35.59375 54.6875 
L 46.1875 54.6875 
L 57.421875 12.015625 
L 68.609375 54.6875 
L 77.59375 54.6875 
L 63.28125 0 
L 52.6875 0 
L 40.921875 44.828125 
L 29.109375 0 
L 18.5 0 
z
" id="DejaVuSans-119"/>
     </defs>
     <use xlink:href="#DejaVuSans-49"/>
     <use x="63.623047" xlink:href="#DejaVuSans-53"/>
     <use x="127.246094" xlink:href="#DejaVuSans-32"/>
     <use x="159.033203" xlink:href="#DejaVuSans-115"/>
     <use x="211.132812" xlink:href="#DejaVuSans-101"/>
     <use x="272.65625" xlink:href="#DejaVuSans-112"/>
     <use x="336.132812" xlink:href="#DejaVuSans-46"/>
     <use x="367.919922" xlink:href="#DejaVuSans-32"/>
     <use x="399.707031" xlink:href="#DejaVuSans-69"/>
     <use x="462.890625" xlink:href="#DejaVuSans-108"/>
     <use x="490.673828" xlink:href="#DejaVuSans-108"/>
     <use x="518.457031" xlink:href="#DejaVuSans-105"/>
     <use x="546.240234" xlink:href="#DejaVuSans-112"/>
     <use x="609.716797" xlink:href="#DejaVuSans-115"/>
     <use x="661.816406" xlink:href="#DejaVuSans-111"/>
     <use x="722.998047" xlink:href="#DejaVuSans-105"/>
     <use x="750.78125" xlink:href="#DejaVuSans-100"/>
     <use x="814.257812" xlink:href="#DejaVuSans-47"/>
     <use x="847.949219" xlink:href="#DejaVuSans-68"/>
     <use x="924.951172" xlink:href="#DejaVuSans-105"/>
     <use x="952.734375" xlink:href="#DejaVuSans-102"/>
     <use x="987.939453" xlink:href="#DejaVuSans-102"/>
     <use x="1015.894531" xlink:href="#DejaVuSans-46"/>
     <use x="1047.681641" xlink:href="#DejaVuSans-32"/>
     <use x="1079.46875" xlink:href="#DejaVuSans-80"/>
     <use x="1136.146484" xlink:href="#DejaVuSans-111"/>
     <use x="1197.328125" xlink:href="#DejaVuSans-119"/>
     <use x="1279.115234" xlink:href="#DejaVuSans-101"/>
     <use x="1340.638672" xlink:href="#DejaVuSans-114"/>
     <use x="1381.751953" xlink:href="#DejaVuSans-115"/>
    </g>
   </g>
  </g>
 </g>
 <defs>
  <clipPath id="p9edf69e424">
   <rect height="271.296" width="281.088" x="57.6" y="27.648"/>
  </clipPath>
 </defs>
</svg>
