<?xml version="1.0" encoding="utf-8" standalone="no"?>
<!DOCTYPE svg PUBLIC "-//W3C//DTD SVG 1.1//EN"
  "http://www.w3.org/Graphics/SVG/1.1/DTD/svg11.dtd">
<!-- Created with matplotlib (https://matplotlib.org/) -->
<svg height="345.6pt" version="1.1" viewBox="0 0 460.8 345.6" width="460.8pt" xmlns="http://www.w3.org/2000/svg" xmlns:xlink="http://www.w3.org/1999/xlink">
 <metadata>
  <rdf:RDF xmlns:cc="http://creativecommons.org/ns#" xmlns:dc="http://purl.org/dc/elements/1.1/" xmlns:rdf="http://www.w3.org/1999/02/22-rdf-syntax-ns#">
   <cc:Work>
    <dc:type rdf:resource="http://purl.org/dc/dcmitype/StillImage"/>
    <dc:date>2021-03-30T16:54:43.584531</dc:date>
    <dc:format>image/svg+xml</dc:format>
    <dc:creator>
     <cc:Agent>
      <dc:title>Matplotlib v3.3.4, https://matplotlib.org/</dc:title>
     </cc:Agent>
    </dc:creator>
   </cc:Work>
  </rdf:RDF>
 </metadata>
 <defs>
  <style type="text/css">*{stroke-linecap:butt;stroke-linejoin:round;}</style>
 </defs>
 <g id="figure_1">
  <g id="patch_1">
   <path d="M 0 345.6 
L 460.8 345.6 
L 460.8 0 
L 0 0 
z
" style="fill:#ffffff;"/>
  </g>
  <g id="axes_1">
   <g id="patch_2">
    <path d="M 57.6 298.944 
L 338.688 298.944 
L 338.688 27.648 
L 57.6 27.648 
z
" style="fill:#ffffff;"/>
   </g>
   <g id="matplotlib.axis_1">
    <g id="xtick_1">
     <g id="line2d_1">
      <path clip-path="url(#pb5607fcf8f)" d="M 57.6 298.944 
L 57.6 27.648 
" style="fill:none;stroke:#b0b0b0;stroke-linecap:square;stroke-width:0.8;"/>
     </g>
     <g id="line2d_2">
      <defs>
       <path d="M 0 0 
L 0 3.5 
" id="me61dc65e80" style="stroke:#000000;stroke-width:0.8;"/>
      </defs>
      <g>
       <use style="stroke:#000000;stroke-width:0.8;" x="57.6" xlink:href="#me61dc65e80" y="298.944"/>
      </g>
     </g>
     <g id="text_1">
      <!-- 0 -->
      <g transform="translate(51.2375 321.140875)scale(0.2 -0.2)">
       <defs>
        <path d="M 31.78125 66.40625 
Q 24.171875 66.40625 20.328125 58.90625 
Q 16.5 51.421875 16.5 36.375 
Q 16.5 21.390625 20.328125 13.890625 
Q 24.171875 6.390625 31.78125 6.390625 
Q 39.453125 6.390625 43.28125 13.890625 
Q 47.125 21.390625 47.125 36.375 
Q 47.125 51.421875 43.28125 58.90625 
Q 39.453125 66.40625 31.78125 66.40625 
z
M 31.78125 74.21875 
Q 44.046875 74.21875 50.515625 64.515625 
Q 56.984375 54.828125 56.984375 36.375 
Q 56.984375 17.96875 50.515625 8.265625 
Q 44.046875 -1.421875 31.78125 -1.421875 
Q 19.53125 -1.421875 13.0625 8.265625 
Q 6.59375 17.96875 6.59375 36.375 
Q 6.59375 54.828125 13.0625 64.515625 
Q 19.53125 74.21875 31.78125 74.21875 
z
" id="DejaVuSans-48"/>
       </defs>
       <use xlink:href="#DejaVuSans-48"/>
      </g>
     </g>
    </g>
    <g id="xtick_2">
     <g id="line2d_3">
      <path clip-path="url(#pb5607fcf8f)" d="M 137.910857 298.944 
L 137.910857 27.648 
" style="fill:none;stroke:#b0b0b0;stroke-linecap:square;stroke-width:0.8;"/>
     </g>
     <g id="line2d_4">
      <g>
       <use style="stroke:#000000;stroke-width:0.8;" x="137.910857" xlink:href="#me61dc65e80" y="298.944"/>
      </g>
     </g>
     <g id="text_2">
      <!-- 2 -->
      <g transform="translate(131.548357 321.140875)scale(0.2 -0.2)">
       <defs>
        <path d="M 19.1875 8.296875 
L 53.609375 8.296875 
L 53.609375 0 
L 7.328125 0 
L 7.328125 8.296875 
Q 12.9375 14.109375 22.625 23.890625 
Q 32.328125 33.6875 34.8125 36.53125 
Q 39.546875 41.84375 41.421875 45.53125 
Q 43.3125 49.21875 43.3125 52.78125 
Q 43.3125 58.59375 39.234375 62.25 
Q 35.15625 65.921875 28.609375 65.921875 
Q 23.96875 65.921875 18.8125 64.3125 
Q 13.671875 62.703125 7.8125 59.421875 
L 7.8125 69.390625 
Q 13.765625 71.78125 18.9375 73 
Q 24.125 74.21875 28.421875 74.21875 
Q 39.75 74.21875 46.484375 68.546875 
Q 53.21875 62.890625 53.21875 53.421875 
Q 53.21875 48.921875 51.53125 44.890625 
Q 49.859375 40.875 45.40625 35.40625 
Q 44.1875 33.984375 37.640625 27.21875 
Q 31.109375 20.453125 19.1875 8.296875 
z
" id="DejaVuSans-50"/>
       </defs>
       <use xlink:href="#DejaVuSans-50"/>
      </g>
     </g>
    </g>
    <g id="xtick_3">
     <g id="line2d_5">
      <path clip-path="url(#pb5607fcf8f)" d="M 218.221714 298.944 
L 218.221714 27.648 
" style="fill:none;stroke:#b0b0b0;stroke-linecap:square;stroke-width:0.8;"/>
     </g>
     <g id="line2d_6">
      <g>
       <use style="stroke:#000000;stroke-width:0.8;" x="218.221714" xlink:href="#me61dc65e80" y="298.944"/>
      </g>
     </g>
     <g id="text_3">
      <!-- 4 -->
      <g transform="translate(211.859214 321.140875)scale(0.2 -0.2)">
       <defs>
        <path d="M 37.796875 64.3125 
L 12.890625 25.390625 
L 37.796875 25.390625 
z
M 35.203125 72.90625 
L 47.609375 72.90625 
L 47.609375 25.390625 
L 58.015625 25.390625 
L 58.015625 17.1875 
L 47.609375 17.1875 
L 47.609375 0 
L 37.796875 0 
L 37.796875 17.1875 
L 4.890625 17.1875 
L 4.890625 26.703125 
z
" id="DejaVuSans-52"/>
       </defs>
       <use xlink:href="#DejaVuSans-52"/>
      </g>
     </g>
    </g>
    <g id="xtick_4">
     <g id="line2d_7">
      <path clip-path="url(#pb5607fcf8f)" d="M 298.532571 298.944 
L 298.532571 27.648 
" style="fill:none;stroke:#b0b0b0;stroke-linecap:square;stroke-width:0.8;"/>
     </g>
     <g id="line2d_8">
      <g>
       <use style="stroke:#000000;stroke-width:0.8;" x="298.532571" xlink:href="#me61dc65e80" y="298.944"/>
      </g>
     </g>
     <g id="text_4">
      <!-- 6 -->
      <g transform="translate(292.170071 321.140875)scale(0.2 -0.2)">
       <defs>
        <path d="M 33.015625 40.375 
Q 26.375 40.375 22.484375 35.828125 
Q 18.609375 31.296875 18.609375 23.390625 
Q 18.609375 15.53125 22.484375 10.953125 
Q 26.375 6.390625 33.015625 6.390625 
Q 39.65625 6.390625 43.53125 10.953125 
Q 47.40625 15.53125 47.40625 23.390625 
Q 47.40625 31.296875 43.53125 35.828125 
Q 39.65625 40.375 33.015625 40.375 
z
M 52.59375 71.296875 
L 52.59375 62.3125 
Q 48.875 64.0625 45.09375 64.984375 
Q 41.3125 65.921875 37.59375 65.921875 
Q 27.828125 65.921875 22.671875 59.328125 
Q 17.53125 52.734375 16.796875 39.40625 
Q 19.671875 43.65625 24.015625 45.921875 
Q 28.375 48.1875 33.59375 48.1875 
Q 44.578125 48.1875 50.953125 41.515625 
Q 57.328125 34.859375 57.328125 23.390625 
Q 57.328125 12.15625 50.6875 5.359375 
Q 44.046875 -1.421875 33.015625 -1.421875 
Q 20.359375 -1.421875 13.671875 8.265625 
Q 6.984375 17.96875 6.984375 36.375 
Q 6.984375 53.65625 15.1875 63.9375 
Q 23.390625 74.21875 37.203125 74.21875 
Q 40.921875 74.21875 44.703125 73.484375 
Q 48.484375 72.75 52.59375 71.296875 
z
" id="DejaVuSans-54"/>
       </defs>
       <use xlink:href="#DejaVuSans-54"/>
      </g>
     </g>
    </g>
    <g id="xtick_5">
     <g id="line2d_9">
      <path clip-path="url(#pb5607fcf8f)" d="M 97.755429 298.944 
L 97.755429 27.648 
" style="fill:none;stroke:#b0b0b0;stroke-linecap:square;stroke-width:0.8;"/>
     </g>
     <g id="line2d_10">
      <defs>
       <path d="M 0 0 
L 0 2 
" id="m272d21651d" style="stroke:#000000;stroke-width:0.6;"/>
      </defs>
      <g>
       <use style="stroke:#000000;stroke-width:0.6;" x="97.755429" xlink:href="#m272d21651d" y="298.944"/>
      </g>
     </g>
    </g>
    <g id="xtick_6">
     <g id="line2d_11">
      <path clip-path="url(#pb5607fcf8f)" d="M 178.066286 298.944 
L 178.066286 27.648 
" style="fill:none;stroke:#b0b0b0;stroke-linecap:square;stroke-width:0.8;"/>
     </g>
     <g id="line2d_12">
      <g>
       <use style="stroke:#000000;stroke-width:0.6;" x="178.066286" xlink:href="#m272d21651d" y="298.944"/>
      </g>
     </g>
    </g>
    <g id="xtick_7">
     <g id="line2d_13">
      <path clip-path="url(#pb5607fcf8f)" d="M 258.377143 298.944 
L 258.377143 27.648 
" style="fill:none;stroke:#b0b0b0;stroke-linecap:square;stroke-width:0.8;"/>
     </g>
     <g id="line2d_14">
      <g>
       <use style="stroke:#000000;stroke-width:0.6;" x="258.377143" xlink:href="#m272d21651d" y="298.944"/>
      </g>
     </g>
    </g>
    <g id="xtick_8">
     <g id="line2d_15">
      <path clip-path="url(#pb5607fcf8f)" d="M 338.688 298.944 
L 338.688 27.648 
" style="fill:none;stroke:#b0b0b0;stroke-linecap:square;stroke-width:0.8;"/>
     </g>
     <g id="line2d_16">
      <g>
       <use style="stroke:#000000;stroke-width:0.6;" x="338.688" xlink:href="#m272d21651d" y="298.944"/>
      </g>
     </g>
    </g>
    <g id="text_5">
     <!-- log10(# f-evals / dimension) -->
     <g transform="translate(77.764078 342.217594)scale(0.17 -0.17)">
      <defs>
       <path d="M 9.421875 75.984375 
L 18.40625 75.984375 
L 18.40625 0 
L 9.421875 0 
z
" id="DejaVuSans-108"/>
       <path d="M 30.609375 48.390625 
Q 23.390625 48.390625 19.1875 42.75 
Q 14.984375 37.109375 14.984375 27.296875 
Q 14.984375 17.484375 19.15625 11.84375 
Q 23.34375 6.203125 30.609375 6.203125 
Q 37.796875 6.203125 41.984375 11.859375 
Q 46.1875 17.53125 46.1875 27.296875 
Q 46.1875 37.015625 41.984375 42.703125 
Q 37.796875 48.390625 30.609375 48.390625 
z
M 30.609375 56 
Q 42.328125 56 49.015625 48.375 
Q 55.71875 40.765625 55.71875 27.296875 
Q 55.71875 13.875 49.015625 6.21875 
Q 42.328125 -1.421875 30.609375 -1.421875 
Q 18.84375 -1.421875 12.171875 6.21875 
Q 5.515625 13.875 5.515625 27.296875 
Q 5.515625 40.765625 12.171875 48.375 
Q 18.84375 56 30.609375 56 
z
" id="DejaVuSans-111"/>
       <path d="M 45.40625 27.984375 
Q 45.40625 37.75 41.375 43.109375 
Q 37.359375 48.484375 30.078125 48.484375 
Q 22.859375 48.484375 18.828125 43.109375 
Q 14.796875 37.75 14.796875 27.984375 
Q 14.796875 18.265625 18.828125 12.890625 
Q 22.859375 7.515625 30.078125 7.515625 
Q 37.359375 7.515625 41.375 12.890625 
Q 45.40625 18.265625 45.40625 27.984375 
z
M 54.390625 6.78125 
Q 54.390625 -7.171875 48.1875 -13.984375 
Q 42 -20.796875 29.203125 -20.796875 
Q 24.46875 -20.796875 20.265625 -20.09375 
Q 16.0625 -19.390625 12.109375 -17.921875 
L 12.109375 -9.1875 
Q 16.0625 -11.328125 19.921875 -12.34375 
Q 23.78125 -13.375 27.78125 -13.375 
Q 36.625 -13.375 41.015625 -8.765625 
Q 45.40625 -4.15625 45.40625 5.171875 
L 45.40625 9.625 
Q 42.625 4.78125 38.28125 2.390625 
Q 33.9375 0 27.875 0 
Q 17.828125 0 11.671875 7.65625 
Q 5.515625 15.328125 5.515625 27.984375 
Q 5.515625 40.671875 11.671875 48.328125 
Q 17.828125 56 27.875 56 
Q 33.9375 56 38.28125 53.609375 
Q 42.625 51.21875 45.40625 46.390625 
L 45.40625 54.6875 
L 54.390625 54.6875 
z
" id="DejaVuSans-103"/>
       <path d="M 12.40625 8.296875 
L 28.515625 8.296875 
L 28.515625 63.921875 
L 10.984375 60.40625 
L 10.984375 69.390625 
L 28.421875 72.90625 
L 38.28125 72.90625 
L 38.28125 8.296875 
L 54.390625 8.296875 
L 54.390625 0 
L 12.40625 0 
z
" id="DejaVuSans-49"/>
       <path d="M 31 75.875 
Q 24.46875 64.65625 21.28125 53.65625 
Q 18.109375 42.671875 18.109375 31.390625 
Q 18.109375 20.125 21.3125 9.0625 
Q 24.515625 -2 31 -13.1875 
L 23.1875 -13.1875 
Q 15.875 -1.703125 12.234375 9.375 
Q 8.59375 20.453125 8.59375 31.390625 
Q 8.59375 42.28125 12.203125 53.3125 
Q 15.828125 64.359375 23.1875 75.875 
z
" id="DejaVuSans-40"/>
       <path d="M 51.125 44 
L 36.921875 44 
L 32.8125 27.6875 
L 47.125 27.6875 
z
M 43.796875 71.78125 
L 38.71875 51.515625 
L 52.984375 51.515625 
L 58.109375 71.78125 
L 65.921875 71.78125 
L 60.890625 51.515625 
L 76.125 51.515625 
L 76.125 44 
L 58.984375 44 
L 54.984375 27.6875 
L 70.515625 27.6875 
L 70.515625 20.21875 
L 53.078125 20.21875 
L 48 0 
L 40.1875 0 
L 45.21875 20.21875 
L 30.90625 20.21875 
L 25.875 0 
L 18.015625 0 
L 23.09375 20.21875 
L 7.71875 20.21875 
L 7.71875 27.6875 
L 24.90625 27.6875 
L 29 44 
L 13.28125 44 
L 13.28125 51.515625 
L 30.90625 51.515625 
L 35.890625 71.78125 
z
" id="DejaVuSans-35"/>
       <path id="DejaVuSans-32"/>
       <path d="M 37.109375 75.984375 
L 37.109375 68.5 
L 28.515625 68.5 
Q 23.6875 68.5 21.796875 66.546875 
Q 19.921875 64.59375 19.921875 59.515625 
L 19.921875 54.6875 
L 34.71875 54.6875 
L 34.71875 47.703125 
L 19.921875 47.703125 
L 19.921875 0 
L 10.890625 0 
L 10.890625 47.703125 
L 2.296875 47.703125 
L 2.296875 54.6875 
L 10.890625 54.6875 
L 10.890625 58.5 
Q 10.890625 67.625 15.140625 71.796875 
Q 19.390625 75.984375 28.609375 75.984375 
z
" id="DejaVuSans-102"/>
       <path d="M 4.890625 31.390625 
L 31.203125 31.390625 
L 31.203125 23.390625 
L 4.890625 23.390625 
z
" id="DejaVuSans-45"/>
       <path d="M 56.203125 29.59375 
L 56.203125 25.203125 
L 14.890625 25.203125 
Q 15.484375 15.921875 20.484375 11.0625 
Q 25.484375 6.203125 34.421875 6.203125 
Q 39.59375 6.203125 44.453125 7.46875 
Q 49.3125 8.734375 54.109375 11.28125 
L 54.109375 2.78125 
Q 49.265625 0.734375 44.1875 -0.34375 
Q 39.109375 -1.421875 33.890625 -1.421875 
Q 20.796875 -1.421875 13.15625 6.1875 
Q 5.515625 13.8125 5.515625 26.8125 
Q 5.515625 40.234375 12.765625 48.109375 
Q 20.015625 56 32.328125 56 
Q 43.359375 56 49.78125 48.890625 
Q 56.203125 41.796875 56.203125 29.59375 
z
M 47.21875 32.234375 
Q 47.125 39.59375 43.09375 43.984375 
Q 39.0625 48.390625 32.421875 48.390625 
Q 24.90625 48.390625 20.390625 44.140625 
Q 15.875 39.890625 15.1875 32.171875 
z
" id="DejaVuSans-101"/>
       <path d="M 2.984375 54.6875 
L 12.5 54.6875 
L 29.59375 8.796875 
L 46.6875 54.6875 
L 56.203125 54.6875 
L 35.6875 0 
L 23.484375 0 
z
" id="DejaVuSans-118"/>
       <path d="M 34.28125 27.484375 
Q 23.390625 27.484375 19.1875 25 
Q 14.984375 22.515625 14.984375 16.5 
Q 14.984375 11.71875 18.140625 8.90625 
Q 21.296875 6.109375 26.703125 6.109375 
Q 34.1875 6.109375 38.703125 11.40625 
Q 43.21875 16.703125 43.21875 25.484375 
L 43.21875 27.484375 
z
M 52.203125 31.203125 
L 52.203125 0 
L 43.21875 0 
L 43.21875 8.296875 
Q 40.140625 3.328125 35.546875 0.953125 
Q 30.953125 -1.421875 24.3125 -1.421875 
Q 15.921875 -1.421875 10.953125 3.296875 
Q 6 8.015625 6 15.921875 
Q 6 25.140625 12.171875 29.828125 
Q 18.359375 34.515625 30.609375 34.515625 
L 43.21875 34.515625 
L 43.21875 35.40625 
Q 43.21875 41.609375 39.140625 45 
Q 35.0625 48.390625 27.6875 48.390625 
Q 23 48.390625 18.546875 47.265625 
Q 14.109375 46.140625 10.015625 43.890625 
L 10.015625 52.203125 
Q 14.9375 54.109375 19.578125 55.046875 
Q 24.21875 56 28.609375 56 
Q 40.484375 56 46.34375 49.84375 
Q 52.203125 43.703125 52.203125 31.203125 
z
" id="DejaVuSans-97"/>
       <path d="M 44.28125 53.078125 
L 44.28125 44.578125 
Q 40.484375 46.53125 36.375 47.5 
Q 32.28125 48.484375 27.875 48.484375 
Q 21.1875 48.484375 17.84375 46.4375 
Q 14.5 44.390625 14.5 40.28125 
Q 14.5 37.15625 16.890625 35.375 
Q 19.28125 33.59375 26.515625 31.984375 
L 29.59375 31.296875 
Q 39.15625 29.25 43.1875 25.515625 
Q 47.21875 21.78125 47.21875 15.09375 
Q 47.21875 7.46875 41.1875 3.015625 
Q 35.15625 -1.421875 24.609375 -1.421875 
Q 20.21875 -1.421875 15.453125 -0.5625 
Q 10.6875 0.296875 5.421875 2 
L 5.421875 11.28125 
Q 10.40625 8.6875 15.234375 7.390625 
Q 20.0625 6.109375 24.8125 6.109375 
Q 31.15625 6.109375 34.5625 8.28125 
Q 37.984375 10.453125 37.984375 14.40625 
Q 37.984375 18.0625 35.515625 20.015625 
Q 33.0625 21.96875 24.703125 23.78125 
L 21.578125 24.515625 
Q 13.234375 26.265625 9.515625 29.90625 
Q 5.8125 33.546875 5.8125 39.890625 
Q 5.8125 47.609375 11.28125 51.796875 
Q 16.75 56 26.8125 56 
Q 31.78125 56 36.171875 55.265625 
Q 40.578125 54.546875 44.28125 53.078125 
z
" id="DejaVuSans-115"/>
       <path d="M 25.390625 72.90625 
L 33.6875 72.90625 
L 8.296875 -9.28125 
L 0 -9.28125 
z
" id="DejaVuSans-47"/>
       <path d="M 45.40625 46.390625 
L 45.40625 75.984375 
L 54.390625 75.984375 
L 54.390625 0 
L 45.40625 0 
L 45.40625 8.203125 
Q 42.578125 3.328125 38.25 0.953125 
Q 33.9375 -1.421875 27.875 -1.421875 
Q 17.96875 -1.421875 11.734375 6.484375 
Q 5.515625 14.40625 5.515625 27.296875 
Q 5.515625 40.1875 11.734375 48.09375 
Q 17.96875 56 27.875 56 
Q 33.9375 56 38.25 53.625 
Q 42.578125 51.265625 45.40625 46.390625 
z
M 14.796875 27.296875 
Q 14.796875 17.390625 18.875 11.75 
Q 22.953125 6.109375 30.078125 6.109375 
Q 37.203125 6.109375 41.296875 11.75 
Q 45.40625 17.390625 45.40625 27.296875 
Q 45.40625 37.203125 41.296875 42.84375 
Q 37.203125 48.484375 30.078125 48.484375 
Q 22.953125 48.484375 18.875 42.84375 
Q 14.796875 37.203125 14.796875 27.296875 
z
" id="DejaVuSans-100"/>
       <path d="M 9.421875 54.6875 
L 18.40625 54.6875 
L 18.40625 0 
L 9.421875 0 
z
M 9.421875 75.984375 
L 18.40625 75.984375 
L 18.40625 64.59375 
L 9.421875 64.59375 
z
" id="DejaVuSans-105"/>
       <path d="M 52 44.1875 
Q 55.375 50.25 60.0625 53.125 
Q 64.75 56 71.09375 56 
Q 79.640625 56 84.28125 50.015625 
Q 88.921875 44.046875 88.921875 33.015625 
L 88.921875 0 
L 79.890625 0 
L 79.890625 32.71875 
Q 79.890625 40.578125 77.09375 44.375 
Q 74.3125 48.1875 68.609375 48.1875 
Q 61.625 48.1875 57.5625 43.546875 
Q 53.515625 38.921875 53.515625 30.90625 
L 53.515625 0 
L 44.484375 0 
L 44.484375 32.71875 
Q 44.484375 40.625 41.703125 44.40625 
Q 38.921875 48.1875 33.109375 48.1875 
Q 26.21875 48.1875 22.15625 43.53125 
Q 18.109375 38.875 18.109375 30.90625 
L 18.109375 0 
L 9.078125 0 
L 9.078125 54.6875 
L 18.109375 54.6875 
L 18.109375 46.1875 
Q 21.1875 51.21875 25.484375 53.609375 
Q 29.78125 56 35.6875 56 
Q 41.65625 56 45.828125 52.96875 
Q 50 49.953125 52 44.1875 
z
" id="DejaVuSans-109"/>
       <path d="M 54.890625 33.015625 
L 54.890625 0 
L 45.90625 0 
L 45.90625 32.71875 
Q 45.90625 40.484375 42.875 44.328125 
Q 39.84375 48.1875 33.796875 48.1875 
Q 26.515625 48.1875 22.3125 43.546875 
Q 18.109375 38.921875 18.109375 30.90625 
L 18.109375 0 
L 9.078125 0 
L 9.078125 54.6875 
L 18.109375 54.6875 
L 18.109375 46.1875 
Q 21.34375 51.125 25.703125 53.5625 
Q 30.078125 56 35.796875 56 
Q 45.21875 56 50.046875 50.171875 
Q 54.890625 44.34375 54.890625 33.015625 
z
" id="DejaVuSans-110"/>
       <path d="M 8.015625 75.875 
L 15.828125 75.875 
Q 23.140625 64.359375 26.78125 53.3125 
Q 30.421875 42.28125 30.421875 31.390625 
Q 30.421875 20.453125 26.78125 9.375 
Q 23.140625 -1.703125 15.828125 -13.1875 
L 8.015625 -13.1875 
Q 14.5 -2 17.703125 9.0625 
Q 20.90625 20.125 20.90625 31.390625 
Q 20.90625 42.671875 17.703125 53.65625 
Q 14.5 64.65625 8.015625 75.875 
z
" id="DejaVuSans-41"/>
      </defs>
      <use xlink:href="#DejaVuSans-108"/>
      <use x="27.783203" xlink:href="#DejaVuSans-111"/>
      <use x="88.964844" xlink:href="#DejaVuSans-103"/>
      <use x="152.441406" xlink:href="#DejaVuSans-49"/>
      <use x="216.064453" xlink:href="#DejaVuSans-48"/>
      <use x="279.6875" xlink:href="#DejaVuSans-40"/>
      <use x="318.701172" xlink:href="#DejaVuSans-35"/>
      <use x="402.490234" xlink:href="#DejaVuSans-32"/>
      <use x="434.277344" xlink:href="#DejaVuSans-102"/>
      <use x="463.982422" xlink:href="#DejaVuSans-45"/>
      <use x="500.066406" xlink:href="#DejaVuSans-101"/>
      <use x="561.589844" xlink:href="#DejaVuSans-118"/>
      <use x="620.769531" xlink:href="#DejaVuSans-97"/>
      <use x="682.048828" xlink:href="#DejaVuSans-108"/>
      <use x="709.832031" xlink:href="#DejaVuSans-115"/>
      <use x="761.931641" xlink:href="#DejaVuSans-32"/>
      <use x="793.71875" xlink:href="#DejaVuSans-47"/>
      <use x="827.410156" xlink:href="#DejaVuSans-32"/>
      <use x="859.197266" xlink:href="#DejaVuSans-100"/>
      <use x="922.673828" xlink:href="#DejaVuSans-105"/>
      <use x="950.457031" xlink:href="#DejaVuSans-109"/>
      <use x="1047.869141" xlink:href="#DejaVuSans-101"/>
      <use x="1109.392578" xlink:href="#DejaVuSans-110"/>
      <use x="1172.771484" xlink:href="#DejaVuSans-115"/>
      <use x="1224.871094" xlink:href="#DejaVuSans-105"/>
      <use x="1252.654297" xlink:href="#DejaVuSans-111"/>
      <use x="1313.835938" xlink:href="#DejaVuSans-110"/>
      <use x="1377.214844" xlink:href="#DejaVuSans-41"/>
     </g>
    </g>
   </g>
   <g id="matplotlib.axis_2">
    <g id="ytick_1">
     <g id="line2d_17">
      <path clip-path="url(#pb5607fcf8f)" d="M 57.6 298.944 
L 338.688 298.944 
" style="fill:none;stroke:#b0b0b0;stroke-linecap:square;stroke-width:0.8;"/>
     </g>
     <g id="line2d_18">
      <defs>
       <path d="M 0 0 
L -3.5 0 
" id="m576d1fdc7e" style="stroke:#000000;stroke-width:0.8;"/>
      </defs>
      <g>
       <use style="stroke:#000000;stroke-width:0.8;" x="57.6" xlink:href="#m576d1fdc7e" y="298.944"/>
      </g>
     </g>
     <g id="text_6">
      <!-- 0.0 -->
      <g transform="translate(25.155 305.02275)scale(0.16 -0.16)">
       <defs>
        <path d="M 10.6875 12.40625 
L 21 12.40625 
L 21 0 
L 10.6875 0 
z
" id="DejaVuSans-46"/>
       </defs>
       <use xlink:href="#DejaVuSans-48"/>
       <use x="63.623047" xlink:href="#DejaVuSans-46"/>
       <use x="95.410156" xlink:href="#DejaVuSans-48"/>
      </g>
     </g>
    </g>
    <g id="ytick_2">
     <g id="line2d_19">
      <path clip-path="url(#pb5607fcf8f)" d="M 57.6 245.22202 
L 338.688 245.22202 
" style="fill:none;stroke:#b0b0b0;stroke-linecap:square;stroke-width:0.8;"/>
     </g>
     <g id="line2d_20">
      <g>
       <use style="stroke:#000000;stroke-width:0.8;" x="57.6" xlink:href="#m576d1fdc7e" y="245.22202"/>
      </g>
     </g>
     <g id="text_7">
      <!-- 0.2 -->
      <g transform="translate(25.155 251.30077)scale(0.16 -0.16)">
       <use xlink:href="#DejaVuSans-48"/>
       <use x="63.623047" xlink:href="#DejaVuSans-46"/>
       <use x="95.410156" xlink:href="#DejaVuSans-50"/>
      </g>
     </g>
    </g>
    <g id="ytick_3">
     <g id="line2d_21">
      <path clip-path="url(#pb5607fcf8f)" d="M 57.6 191.50004 
L 338.688 191.50004 
" style="fill:none;stroke:#b0b0b0;stroke-linecap:square;stroke-width:0.8;"/>
     </g>
     <g id="line2d_22">
      <g>
       <use style="stroke:#000000;stroke-width:0.8;" x="57.6" xlink:href="#m576d1fdc7e" y="191.50004"/>
      </g>
     </g>
     <g id="text_8">
      <!-- 0.4 -->
      <g transform="translate(25.155 197.57879)scale(0.16 -0.16)">
       <use xlink:href="#DejaVuSans-48"/>
       <use x="63.623047" xlink:href="#DejaVuSans-46"/>
       <use x="95.410156" xlink:href="#DejaVuSans-52"/>
      </g>
     </g>
    </g>
    <g id="ytick_4">
     <g id="line2d_23">
      <path clip-path="url(#pb5607fcf8f)" d="M 57.6 137.778059 
L 338.688 137.778059 
" style="fill:none;stroke:#b0b0b0;stroke-linecap:square;stroke-width:0.8;"/>
     </g>
     <g id="line2d_24">
      <g>
       <use style="stroke:#000000;stroke-width:0.8;" x="57.6" xlink:href="#m576d1fdc7e" y="137.778059"/>
      </g>
     </g>
     <g id="text_9">
      <!-- 0.6 -->
      <g transform="translate(25.155 143.856809)scale(0.16 -0.16)">
       <use xlink:href="#DejaVuSans-48"/>
       <use x="63.623047" xlink:href="#DejaVuSans-46"/>
       <use x="95.410156" xlink:href="#DejaVuSans-54"/>
      </g>
     </g>
    </g>
    <g id="ytick_5">
     <g id="line2d_25">
      <path clip-path="url(#pb5607fcf8f)" d="M 57.6 84.056079 
L 338.688 84.056079 
" style="fill:none;stroke:#b0b0b0;stroke-linecap:square;stroke-width:0.8;"/>
     </g>
     <g id="line2d_26">
      <g>
       <use style="stroke:#000000;stroke-width:0.8;" x="57.6" xlink:href="#m576d1fdc7e" y="84.056079"/>
      </g>
     </g>
     <g id="text_10">
      <!-- 0.8 -->
      <g transform="translate(25.155 90.134829)scale(0.16 -0.16)">
       <defs>
        <path d="M 31.78125 34.625 
Q 24.75 34.625 20.71875 30.859375 
Q 16.703125 27.09375 16.703125 20.515625 
Q 16.703125 13.921875 20.71875 10.15625 
Q 24.75 6.390625 31.78125 6.390625 
Q 38.8125 6.390625 42.859375 10.171875 
Q 46.921875 13.96875 46.921875 20.515625 
Q 46.921875 27.09375 42.890625 30.859375 
Q 38.875 34.625 31.78125 34.625 
z
M 21.921875 38.8125 
Q 15.578125 40.375 12.03125 44.71875 
Q 8.5 49.078125 8.5 55.328125 
Q 8.5 64.0625 14.71875 69.140625 
Q 20.953125 74.21875 31.78125 74.21875 
Q 42.671875 74.21875 48.875 69.140625 
Q 55.078125 64.0625 55.078125 55.328125 
Q 55.078125 49.078125 51.53125 44.71875 
Q 48 40.375 41.703125 38.8125 
Q 48.828125 37.15625 52.796875 32.3125 
Q 56.78125 27.484375 56.78125 20.515625 
Q 56.78125 9.90625 50.3125 4.234375 
Q 43.84375 -1.421875 31.78125 -1.421875 
Q 19.734375 -1.421875 13.25 4.234375 
Q 6.78125 9.90625 6.78125 20.515625 
Q 6.78125 27.484375 10.78125 32.3125 
Q 14.796875 37.15625 21.921875 38.8125 
z
M 18.3125 54.390625 
Q 18.3125 48.734375 21.84375 45.5625 
Q 25.390625 42.390625 31.78125 42.390625 
Q 38.140625 42.390625 41.71875 45.5625 
Q 45.3125 48.734375 45.3125 54.390625 
Q 45.3125 60.0625 41.71875 63.234375 
Q 38.140625 66.40625 31.78125 66.40625 
Q 25.390625 66.40625 21.84375 63.234375 
Q 18.3125 60.0625 18.3125 54.390625 
z
" id="DejaVuSans-56"/>
       </defs>
       <use xlink:href="#DejaVuSans-48"/>
       <use x="63.623047" xlink:href="#DejaVuSans-46"/>
       <use x="95.410156" xlink:href="#DejaVuSans-56"/>
      </g>
     </g>
    </g>
    <g id="ytick_6">
     <g id="line2d_27">
      <path clip-path="url(#pb5607fcf8f)" d="M 57.6 30.334099 
L 338.688 30.334099 
" style="fill:none;stroke:#b0b0b0;stroke-linecap:square;stroke-width:0.8;"/>
     </g>
     <g id="line2d_28">
      <g>
       <use style="stroke:#000000;stroke-width:0.8;" x="57.6" xlink:href="#m576d1fdc7e" y="30.334099"/>
      </g>
     </g>
     <g id="text_11">
      <!-- 1.0 -->
      <g transform="translate(25.155 36.412849)scale(0.16 -0.16)">
       <use xlink:href="#DejaVuSans-49"/>
       <use x="63.623047" xlink:href="#DejaVuSans-46"/>
       <use x="95.410156" xlink:href="#DejaVuSans-48"/>
      </g>
     </g>
    </g>
    <g id="text_12">
     <!-- Fraction of function,target pairs -->
     <g transform="translate(17.619531 297.681)rotate(-90)scale(0.17 -0.17)">
      <defs>
       <path d="M 9.8125 72.90625 
L 51.703125 72.90625 
L 51.703125 64.59375 
L 19.671875 64.59375 
L 19.671875 43.109375 
L 48.578125 43.109375 
L 48.578125 34.8125 
L 19.671875 34.8125 
L 19.671875 0 
L 9.8125 0 
z
" id="DejaVuSans-70"/>
       <path d="M 41.109375 46.296875 
Q 39.59375 47.171875 37.8125 47.578125 
Q 36.03125 48 33.890625 48 
Q 26.265625 48 22.1875 43.046875 
Q 18.109375 38.09375 18.109375 28.8125 
L 18.109375 0 
L 9.078125 0 
L 9.078125 54.6875 
L 18.109375 54.6875 
L 18.109375 46.1875 
Q 20.953125 51.171875 25.484375 53.578125 
Q 30.03125 56 36.53125 56 
Q 37.453125 56 38.578125 55.875 
Q 39.703125 55.765625 41.0625 55.515625 
z
" id="DejaVuSans-114"/>
       <path d="M 48.78125 52.59375 
L 48.78125 44.1875 
Q 44.96875 46.296875 41.140625 47.34375 
Q 37.3125 48.390625 33.40625 48.390625 
Q 24.65625 48.390625 19.8125 42.84375 
Q 14.984375 37.3125 14.984375 27.296875 
Q 14.984375 17.28125 19.8125 11.734375 
Q 24.65625 6.203125 33.40625 6.203125 
Q 37.3125 6.203125 41.140625 7.25 
Q 44.96875 8.296875 48.78125 10.40625 
L 48.78125 2.09375 
Q 45.015625 0.34375 40.984375 -0.53125 
Q 36.96875 -1.421875 32.421875 -1.421875 
Q 20.0625 -1.421875 12.78125 6.34375 
Q 5.515625 14.109375 5.515625 27.296875 
Q 5.515625 40.671875 12.859375 48.328125 
Q 20.21875 56 33.015625 56 
Q 37.15625 56 41.109375 55.140625 
Q 45.0625 54.296875 48.78125 52.59375 
z
" id="DejaVuSans-99"/>
       <path d="M 18.3125 70.21875 
L 18.3125 54.6875 
L 36.8125 54.6875 
L 36.8125 47.703125 
L 18.3125 47.703125 
L 18.3125 18.015625 
Q 18.3125 11.328125 20.140625 9.421875 
Q 21.96875 7.515625 27.59375 7.515625 
L 36.8125 7.515625 
L 36.8125 0 
L 27.59375 0 
Q 17.1875 0 13.234375 3.875 
Q 9.28125 7.765625 9.28125 18.015625 
L 9.28125 47.703125 
L 2.6875 47.703125 
L 2.6875 54.6875 
L 9.28125 54.6875 
L 9.28125 70.21875 
z
" id="DejaVuSans-116"/>
       <path d="M 8.5 21.578125 
L 8.5 54.6875 
L 17.484375 54.6875 
L 17.484375 21.921875 
Q 17.484375 14.15625 20.5 10.265625 
Q 23.53125 6.390625 29.59375 6.390625 
Q 36.859375 6.390625 41.078125 11.03125 
Q 45.3125 15.671875 45.3125 23.6875 
L 45.3125 54.6875 
L 54.296875 54.6875 
L 54.296875 0 
L 45.3125 0 
L 45.3125 8.40625 
Q 42.046875 3.421875 37.71875 1 
Q 33.40625 -1.421875 27.6875 -1.421875 
Q 18.265625 -1.421875 13.375 4.4375 
Q 8.5 10.296875 8.5 21.578125 
z
M 31.109375 56 
z
" id="DejaVuSans-117"/>
       <path d="M 11.71875 12.40625 
L 22.015625 12.40625 
L 22.015625 4 
L 14.015625 -11.625 
L 7.71875 -11.625 
L 11.71875 4 
z
" id="DejaVuSans-44"/>
       <path d="M 18.109375 8.203125 
L 18.109375 -20.796875 
L 9.078125 -20.796875 
L 9.078125 54.6875 
L 18.109375 54.6875 
L 18.109375 46.390625 
Q 20.953125 51.265625 25.265625 53.625 
Q 29.59375 56 35.59375 56 
Q 45.5625 56 51.78125 48.09375 
Q 58.015625 40.1875 58.015625 27.296875 
Q 58.015625 14.40625 51.78125 6.484375 
Q 45.5625 -1.421875 35.59375 -1.421875 
Q 29.59375 -1.421875 25.265625 0.953125 
Q 20.953125 3.328125 18.109375 8.203125 
z
M 48.6875 27.296875 
Q 48.6875 37.203125 44.609375 42.84375 
Q 40.53125 48.484375 33.40625 48.484375 
Q 26.265625 48.484375 22.1875 42.84375 
Q 18.109375 37.203125 18.109375 27.296875 
Q 18.109375 17.390625 22.1875 11.75 
Q 26.265625 6.109375 33.40625 6.109375 
Q 40.53125 6.109375 44.609375 11.75 
Q 48.6875 17.390625 48.6875 27.296875 
z
" id="DejaVuSans-112"/>
      </defs>
      <use xlink:href="#DejaVuSans-70"/>
      <use x="50.269531" xlink:href="#DejaVuSans-114"/>
      <use x="91.382812" xlink:href="#DejaVuSans-97"/>
      <use x="152.662109" xlink:href="#DejaVuSans-99"/>
      <use x="207.642578" xlink:href="#DejaVuSans-116"/>
      <use x="246.851562" xlink:href="#DejaVuSans-105"/>
      <use x="274.634766" xlink:href="#DejaVuSans-111"/>
      <use x="335.816406" xlink:href="#DejaVuSans-110"/>
      <use x="399.195312" xlink:href="#DejaVuSans-32"/>
      <use x="430.982422" xlink:href="#DejaVuSans-111"/>
      <use x="492.164062" xlink:href="#DejaVuSans-102"/>
      <use x="527.369141" xlink:href="#DejaVuSans-32"/>
      <use x="559.15625" xlink:href="#DejaVuSans-102"/>
      <use x="594.361328" xlink:href="#DejaVuSans-117"/>
      <use x="657.740234" xlink:href="#DejaVuSans-110"/>
      <use x="721.119141" xlink:href="#DejaVuSans-99"/>
      <use x="776.099609" xlink:href="#DejaVuSans-116"/>
      <use x="815.308594" xlink:href="#DejaVuSans-105"/>
      <use x="843.091797" xlink:href="#DejaVuSans-111"/>
      <use x="904.273438" xlink:href="#DejaVuSans-110"/>
      <use x="967.652344" xlink:href="#DejaVuSans-44"/>
      <use x="999.439453" xlink:href="#DejaVuSans-116"/>
      <use x="1038.648438" xlink:href="#DejaVuSans-97"/>
      <use x="1099.927734" xlink:href="#DejaVuSans-114"/>
      <use x="1139.291016" xlink:href="#DejaVuSans-103"/>
      <use x="1202.767578" xlink:href="#DejaVuSans-101"/>
      <use x="1264.291016" xlink:href="#DejaVuSans-116"/>
      <use x="1303.5" xlink:href="#DejaVuSans-32"/>
      <use x="1335.287109" xlink:href="#DejaVuSans-112"/>
      <use x="1398.763672" xlink:href="#DejaVuSans-97"/>
      <use x="1460.042969" xlink:href="#DejaVuSans-105"/>
      <use x="1487.826172" xlink:href="#DejaVuSans-114"/>
      <use x="1528.939453" xlink:href="#DejaVuSans-115"/>
     </g>
    </g>
   </g>
   <g id="line2d_29">
    <defs>
     <path d="M 0 1.5 
C 0.397805 1.5 0.77937 1.341951 1.06066 1.06066 
C 1.341951 0.77937 1.5 0.397805 1.5 0 
C 1.5 -0.397805 1.341951 -0.77937 1.06066 -1.06066 
C 0.77937 -1.341951 0.397805 -1.5 0 -1.5 
C -0.397805 -1.5 -0.77937 -1.341951 -1.06066 -1.06066 
C -1.341951 -0.77937 -1.5 -0.397805 -1.5 0 
C -1.5 0.397805 -1.341951 0.77937 -1.06066 1.06066 
C -0.77937 1.341951 -0.397805 1.5 0 1.5 
z
" id="m02025faf3a" style="stroke:#00bfbf;"/>
    </defs>
    <g>
     <use style="fill:#00bfbf;stroke:#00bfbf;" x="257.389489" xlink:href="#m02025faf3a" y="109.990828"/>
     <use style="fill:#00bfbf;stroke:#00bfbf;" x="257.389489" xlink:href="#m02025faf3a" y="109.990828"/>
    </g>
   </g>
   <g id="line2d_30">
    <path d="M 45.512012 298.944 
L 45.512012 293.386554 
L 95.918017 293.386554 
L 95.918017 292.460313 
L 100.192776 292.460313 
L 100.192776 291.534072 
L 103.623262 291.534072 
L 103.623262 291.070951 
L 106.48859 291.070951 
L 106.48859 289.218469 
L 111.104637 289.218469 
L 111.104637 287.365987 
L 113.022974 287.365987 
L 113.022974 285.976625 
L 114.751048 285.976625 
L 114.751048 285.050384 
L 116.323218 285.050384 
L 116.323218 282.734782 
L 117.765302 282.734782 
L 117.765302 282.271661 
L 119.097192 282.271661 
L 119.097192 279.492938 
L 123.593547 279.492938 
L 123.593547 278.566697 
L 124.557288 278.566697 
L 124.557288 278.103577 
L 125.470548 278.103577 
L 125.470548 277.177336 
L 126.338353 277.177336 
L 126.338353 276.714215 
L 127.954256 276.714215 
L 127.954256 276.251095 
L 130.127931 276.251095 
L 130.127931 275.787974 
L 130.796184 275.787974 
L 130.796184 275.324854 
L 132.060454 275.324854 
L 132.060454 274.861733 
L 132.659801 274.861733 
L 132.659801 273.472371 
L 133.800029 273.472371 
L 133.800029 273.009251 
L 134.343353 273.009251 
L 134.343353 272.08301 
L 134.870259 272.08301 
L 134.870259 271.619889 
L 135.381712 271.619889 
L 135.381712 270.693648 
L 135.878591 270.693648 
L 135.878591 270.230528 
L 136.361705 270.230528 
L 136.361705 267.914925 
L 136.831795 267.914925 
L 136.831795 266.062443 
L 137.289545 266.062443 
L 137.289545 263.28372 
L 137.735587 263.28372 
L 137.735587 261.894358 
L 138.170504 261.894358 
L 138.170504 259.115635 
L 138.594838 259.115635 
L 138.594838 258.189394 
L 140.944478 258.189394 
L 140.944478 257.726274 
L 142.686372 257.726274 
L 142.686372 257.263153 
L 143.014805 257.263153 
L 143.014805 256.800033 
L 143.337167 256.800033 
L 143.337167 256.336912 
L 143.964547 256.336912 
L 143.964547 255.410671 
L 144.269971 255.410671 
L 144.269971 254.947551 
L 144.570138 254.947551 
L 144.570138 254.48443 
L 144.865226 254.48443 
L 144.865226 254.02131 
L 145.155404 254.02131 
L 145.155404 253.558189 
L 145.440832 253.558189 
L 145.440832 252.168828 
L 145.998045 252.168828 
L 145.998045 251.705707 
L 146.270114 251.705707 
L 146.270114 251.242587 
L 146.801841 251.242587 
L 146.801841 249.390104 
L 148.064279 249.390104 
L 148.064279 248.926984 
L 148.54473 248.926984 
L 148.54473 248.000743 
L 159.906985 248.000743 
L 159.906985 247.074502 
L 174.07645 247.074502 
L 174.07645 246.611381 
L 176.063387 246.611381 
L 176.063387 245.68514 
L 181.901854 245.68514 
L 181.901854 245.22202 
L 182.574526 245.22202 
L 182.60816 243.369538 
L 184.395097 243.369538 
L 184.425399 240.590815 
L 184.979642 240.590815 
L 184.979642 239.201453 
L 185.096566 239.201453 
L 185.096566 238.275212 
L 185.356816 238.275212 
L 185.356816 237.348971 
L 190.327801 237.348971 
L 190.327801 236.88585 
L 193.460531 236.88585 
L 193.460531 236.42273 
L 193.728971 236.42273 
L 193.728971 235.959609 
L 194.540892 235.959609 
L 194.540892 235.496489 
L 195.532608 235.496489 
L 195.628428 234.570248 
L 195.676142 234.570248 
L 195.723725 232.717766 
L 195.881405 232.717766 
L 195.881405 232.254645 
L 196.330776 232.254645 
L 196.330776 231.791525 
L 196.594944 231.791525 
L 196.685116 222.529114 
L 197.85329 222.529114 
L 197.9372 220.213512 
L 197.965081 220.213512 
L 198.062313 216.045427 
L 198.537811 216.045427 
L 198.551284 214.192945 
L 199.413178 214.192945 
L 199.477157 211.414222 
L 199.566334 211.414222 
L 199.566334 210.951101 
L 204.079892 210.951101 
L 204.117129 209.56174 
L 213.187298 209.56174 
L 213.187298 209.098619 
L 215.170733 209.098619 
L 215.170733 208.172378 
L 218.506256 208.172378 
L 218.506256 207.246137 
L 224.910135 207.246137 
L 224.96057 202.614932 
L 231.835364 202.614932 
L 231.835364 201.688691 
L 236.694835 201.688691 
L 236.702391 199.836209 
L 236.950523 199.836209 
L 236.950523 199.373088 
L 237.231855 199.373088 
L 237.237717 198.446847 
L 238.394148 198.446847 
L 238.408403 196.131245 
L 238.916102 196.131245 
L 239.020654 189.647558 
L 239.035728 189.647558 
L 239.118008 187.795075 
L 239.221099 187.795075 
L 239.281411 186.405714 
L 239.356575 186.405714 
L 239.358132 185.479473 
L 239.481732 185.479473 
L 239.481732 185.016352 
L 239.79708 185.016352 
L 239.79708 184.090111 
L 240.294741 184.090111 
L 240.307525 181.774509 
L 242.354694 181.774509 
L 242.354694 180.848268 
L 242.625093 180.848268 
L 242.732987 177.606424 
L 242.739615 177.606424 
L 242.822782 172.048978 
L 242.874826 172.048978 
L 242.905766 170.659616 
L 243.028351 170.659616 
L 243.119361 169.270255 
L 243.24025 169.270255 
L 243.24025 168.807134 
L 243.393076 168.807134 
L 243.486304 167.880893 
L 243.541308 167.880893 
L 243.580869 166.491532 
L 243.93134 166.491532 
L 243.93134 165.565291 
L 244.198791 165.565291 
L 244.198791 165.10217 
L 244.383402 165.10217 
L 244.383402 164.63905 
L 244.678331 164.63905 
L 244.6812 163.249688 
L 244.801265 163.249688 
L 244.801265 161.860326 
L 245.057482 161.860326 
L 245.057482 161.397206 
L 245.759765 161.397206 
L 245.759765 160.934085 
L 245.89657 160.934085 
L 245.89657 160.007844 
L 246.114764 160.007844 
L 246.114764 159.081603 
L 246.55842 159.081603 
L 246.55842 158.618483 
L 246.901218 158.618483 
L 246.996093 152.134795 
L 247.056944 152.134795 
L 247.10727 150.745434 
L 247.21923 150.745434 
L 247.310257 148.892952 
L 247.346076 148.892952 
L 247.346076 147.966711 
L 247.502778 147.966711 
L 247.53317 147.04047 
L 247.674682 147.04047 
L 247.674682 146.577349 
L 247.897309 146.577349 
L 248.004641 136.851818 
L 248.026597 136.851818 
L 248.111632 134.073095 
L 248.167779 134.073095 
L 248.253532 133.146854 
L 248.327542 133.146854 
L 248.433501 131.757493 
L 248.50706 131.757493 
L 248.557817 130.831252 
L 248.621551 130.831252 
L 248.621551 129.905011 
L 249.085964 129.905011 
L 249.085964 128.97877 
L 249.585887 128.97877 
L 249.585887 128.515649 
L 251.0263 128.515649 
L 251.029888 126.663167 
L 251.657236 126.663167 
L 251.657236 125.736926 
L 253.216465 125.736926 
L 253.321067 116.474516 
L 253.34517 116.474516 
L 253.445187 114.622033 
L 253.547049 114.622033 
L 253.641342 113.232672 
L 254.966102 113.232672 
L 254.966102 112.769551 
L 255.31546 112.769551 
L 255.347338 110.453949 
L 257.389489 110.453949 
L 257.389489 109.990828 
L 338.688 109.990828 
L 338.688 109.990828 
" style="fill:none;stroke:#00bfbf;stroke-linecap:square;stroke-width:1.5;"/>
   </g>
   <g id="line2d_31">
    <defs>
     <path d="M -6 0 
L 6 0 
M 0 6 
L 0 -6 
" id="md08e91ac17" style="stroke:#00bfbf;stroke-width:1.5;"/>
    </defs>
    <g>
     <use style="fill-opacity:0;stroke:#00bfbf;stroke-width:1.5;" x="138.594838" xlink:href="#md08e91ac17" y="259.115635"/>
     <use style="fill-opacity:0;stroke:#00bfbf;stroke-width:1.5;" x="197.923243" xlink:href="#md08e91ac17" y="221.602873"/>
     <use style="fill-opacity:0;stroke:#00bfbf;stroke-width:1.5;" x="243.119361" xlink:href="#md08e91ac17" y="169.733375"/>
     <use style="fill-opacity:0;stroke:#00bfbf;stroke-width:1.5;" x="257.389489" xlink:href="#md08e91ac17" y="110.453949"/>
     <use style="fill-opacity:0;stroke:#00bfbf;stroke-width:1.5;" x="257.389489" xlink:href="#md08e91ac17" y="109.990828"/>
     <use style="fill-opacity:0;stroke:#00bfbf;stroke-width:1.5;" x="338.688" xlink:href="#md08e91ac17" y="109.990828"/>
    </g>
   </g>
   <g id="line2d_32">
    <path style="fill:none;stroke:#00bfbf;stroke-linecap:square;stroke-width:1.5;"/>
    <g/>
   </g>
   <g id="line2d_33">
    <path clip-path="url(#pb5607fcf8f)" d="M 258.377143 109.990828 
" style="fill:none;stroke:#00bfbf;stroke-linecap:square;stroke-width:1.5;"/>
    <defs>
     <path d="M -12 12 
L 12 -12 
M -12 -12 
L 12 12 
" id="m3b1a43e94b" style="stroke:#00bfbf;"/>
    </defs>
    <g clip-path="url(#pb5607fcf8f)">
     <use style="fill:#00bfbf;stroke:#00bfbf;" x="258.377143" xlink:href="#m3b1a43e94b" y="109.990828"/>
    </g>
   </g>
   <g id="line2d_34">
    <defs>
     <path d="M 0 1.5 
C 0.397805 1.5 0.77937 1.341951 1.06066 1.06066 
C 1.341951 0.77937 1.5 0.397805 1.5 0 
C 1.5 -0.397805 1.341951 -0.77937 1.06066 -1.06066 
C 0.77937 -1.341951 0.397805 -1.5 0 -1.5 
C -0.397805 -1.5 -0.77937 -1.341951 -1.06066 -1.06066 
C -1.341951 -0.77937 -1.5 -0.397805 -1.5 0 
C -1.5 0.397805 -1.341951 0.77937 -1.06066 1.06066 
C -0.77937 1.341951 -0.397805 1.5 0 1.5 
z
" id="m86b3c0b4c0" style="stroke:#008000;"/>
    </defs>
    <g>
     <use style="fill:#008000;stroke:#008000;" x="258.284644" xlink:href="#m86b3c0b4c0" y="104.896503"/>
     <use style="fill:#008000;stroke:#008000;" x="258.284644" xlink:href="#m86b3c0b4c0" y="104.896503"/>
    </g>
   </g>
   <g id="line2d_35">
    <path d="M 38.440992 298.944 
L 38.440992 296.628397 
L 93.121756 296.628397 
L 93.121756 296.165277 
L 105.209745 296.165277 
L 105.209745 295.702156 
L 107.680028 295.702156 
L 107.680028 295.239036 
L 109.843417 295.239036 
L 109.843417 294.775915 
L 111.767808 294.775915 
L 111.767808 294.312795 
L 113.500792 294.312795 
L 113.500792 293.849674 
L 115.077025 293.849674 
L 115.077025 293.386554 
L 116.522527 293.386554 
L 116.522527 291.997192 
L 121.340187 291.997192 
L 121.340187 291.534072 
L 123.327293 291.534072 
L 123.327293 291.070951 
L 124.241922 291.070951 
L 124.241922 289.68159 
L 125.110962 289.68159 
L 125.110962 288.292228 
L 125.938745 288.292228 
L 125.938745 287.829108 
L 126.729009 287.829108 
L 126.729009 286.902867 
L 128.209594 286.902867 
L 128.209594 285.976625 
L 129.574256 285.976625 
L 129.574256 285.050384 
L 130.218525 285.050384 
L 130.218525 284.587264 
L 130.839837 284.587264 
L 130.839837 283.197902 
L 131.439773 283.197902 
L 131.439773 282.734782 
L 132.581068 282.734782 
L 132.581068 282.271661 
L 133.124876 282.271661 
L 133.124876 281.808541 
L 133.652238 281.808541 
L 133.652238 281.34542 
L 134.164119 281.34542 
L 134.164119 280.8823 
L 134.661403 280.8823 
L 134.661403 279.956059 
L 135.144899 279.956059 
L 135.144899 279.492938 
L 136.073445 279.492938 
L 136.073445 279.029818 
L 136.519813 279.029818 
L 136.519813 278.103577 
L 137.37967 278.103577 
L 137.37967 277.640456 
L 137.794206 277.640456 
L 137.794206 276.714215 
L 138.594838 276.714215 
L 138.594838 276.251095 
L 139.360321 276.251095 
L 139.360321 275.787974 
L 139.730821 275.787974 
L 139.730821 275.324854 
L 140.44901 275.324854 
L 140.44901 274.861733 
L 140.79731 274.861733 
L 140.79731 274.398612 
L 141.80232 274.398612 
L 141.80232 273.935492 
L 144.510517 273.935492 
L 144.510517 273.472371 
L 150.570677 273.472371 
L 150.570677 273.009251 
L 152.587184 273.009251 
L 152.587184 272.08301 
L 153.703291 272.08301 
L 153.703291 271.619889 
L 154.212841 271.619889 
L 154.212841 271.156769 
L 155.102793 271.156769 
L 155.102793 270.230528 
L 155.55245 270.230528 
L 155.55245 269.767407 
L 157.772468 269.767407 
L 157.772468 268.841166 
L 159.132527 268.841166 
L 159.132527 267.914925 
L 159.456591 267.914925 
L 159.456591 267.451805 
L 160.505887 267.451805 
L 160.505887 266.988684 
L 160.852479 266.988684 
L 160.852479 266.062443 
L 162.770815 266.062443 
L 162.770815 265.136202 
L 164.320806 265.136202 
L 164.320806 264.209961 
L 167.470505 264.209961 
L 167.470505 263.28372 
L 169.446113 263.28372 
L 169.446113 262.8206 
L 173.088028 262.8206 
L 173.088028 261.894358 
L 196.525494 261.894358 
L 196.525494 261.431238 
L 196.914446 261.431238 
L 196.914446 260.504997 
L 197.279465 260.504997 
L 197.279465 260.041876 
L 197.456281 260.041876 
L 197.456281 259.578756 
L 197.797125 259.578756 
L 197.797125 259.115635 
L 198.788509 259.115635 
L 198.788509 258.189394 
L 201.127605 258.189394 
L 201.127605 257.726274 
L 201.278769 257.726274 
L 201.375259 256.800033 
L 201.399679 256.800033 
L 201.481847 255.410671 
L 201.522786 255.410671 
L 201.522786 254.947551 
L 202.022898 254.947551 
L 202.022898 254.48443 
L 202.210261 254.48443 
L 202.210261 254.02131 
L 202.372569 254.02131 
L 202.372569 253.558189 
L 202.570501 253.558189 
L 202.570501 253.095069 
L 205.367236 253.095069 
L 205.367236 252.631948 
L 205.76835 252.631948 
L 205.867794 250.316346 
L 205.896103 250.316346 
L 205.957281 248.000743 
L 206.015904 248.000743 
L 206.091821 245.22202 
L 206.99566 245.22202 
L 206.99566 244.295779 
L 210.209302 244.295779 
L 210.209302 243.832658 
L 210.335847 243.832658 
L 210.335847 242.906417 
L 210.608717 242.906417 
L 210.608717 242.443297 
L 210.736872 242.443297 
L 210.736872 241.980176 
L 210.850791 241.980176 
L 210.92868 240.590815 
L 210.98687 240.590815 
L 210.98687 240.127694 
L 211.182927 240.127694 
L 211.182927 239.664574 
L 211.430947 239.664574 
L 211.430947 239.201453 
L 211.620404 239.201453 
L 211.712678 237.348971 
L 211.752315 237.348971 
L 211.814541 235.959609 
L 211.919986 235.959609 
L 211.928327 234.107127 
L 212.519463 234.107127 
L 212.519463 233.644007 
L 213.425021 233.644007 
L 213.425021 233.180886 
L 213.555408 233.180886 
L 213.630451 230.865284 
L 213.681056 230.865284 
L 213.742791 227.62344 
L 214.798405 227.62344 
L 214.798405 227.16032 
L 214.990461 227.16032 
L 214.990461 226.234079 
L 216.308568 226.234079 
L 216.366855 224.844717 
L 216.43139 224.844717 
L 216.43139 224.381596 
L 216.982367 224.381596 
L 216.996092 223.455355 
L 217.217936 223.455355 
L 217.217936 222.529114 
L 217.597992 222.529114 
L 217.597992 222.065994 
L 217.939839 222.065994 
L 217.939839 221.602873 
L 218.111499 221.602873 
L 218.111499 221.139753 
L 218.890597 221.139753 
L 218.890597 220.676632 
L 219.538004 220.676632 
L 219.538004 219.750391 
L 219.793253 219.750391 
L 219.793253 219.287271 
L 220.039583 219.287271 
L 220.039583 218.82415 
L 220.265945 218.82415 
L 220.265945 218.36103 
L 221.159817 218.36103 
L 221.267055 216.971668 
L 221.618868 216.971668 
L 221.628912 215.582307 
L 221.855507 215.582307 
L 221.855507 214.656066 
L 221.979664 214.656066 
L 221.979664 214.192945 
L 222.956069 214.192945 
L 222.956069 213.266704 
L 223.405733 213.266704 
L 223.405733 212.340463 
L 223.724512 212.340463 
L 223.724512 211.877342 
L 224.334052 211.877342 
L 224.334052 211.414222 
L 224.486514 211.414222 
L 224.486514 210.951101 
L 224.978335 210.951101 
L 224.978335 210.487981 
L 225.655167 210.487981 
L 225.655167 210.02486 
L 226.229018 210.02486 
L 226.328634 209.098619 
L 226.4077 209.098619 
L 226.4077 208.635499 
L 226.896294 208.635499 
L 226.896294 207.709258 
L 227.035017 207.709258 
L 227.035017 207.246137 
L 228.204785 207.246137 
L 228.204785 206.319896 
L 228.586242 206.319896 
L 228.586242 205.393655 
L 229.928589 205.393655 
L 229.928589 204.467414 
L 230.702569 204.467414 
L 230.724437 200.299329 
L 230.827727 200.299329 
L 230.848875 198.909968 
L 231.208667 198.909968 
L 231.273694 197.057486 
L 231.344233 197.057486 
L 231.344233 196.594365 
L 231.678471 196.594365 
L 231.77307 192.889401 
L 232.008006 192.889401 
L 232.008006 191.96316 
L 232.224721 191.96316 
L 232.224721 191.50004 
L 232.650997 191.50004 
L 232.650997 190.110678 
L 232.942335 190.110678 
L 233.018397 189.184437 
L 233.106017 189.184437 
L 233.21462 186.405714 
L 233.233064 186.405714 
L 233.239208 185.016352 
L 234.376304 185.016352 
L 234.38735 184.090111 
L 234.552891 184.090111 
L 234.64834 182.70075 
L 234.965896 182.70075 
L 234.965896 181.774509 
L 235.195164 181.774509 
L 235.195164 181.311388 
L 235.414518 181.311388 
L 235.414518 180.848268 
L 235.543957 180.848268 
L 235.543957 179.922027 
L 235.704683 179.922027 
L 235.704683 179.458906 
L 236.050641 179.458906 
L 236.050641 178.532665 
L 236.336051 178.532665 
L 236.356407 176.217062 
L 236.627592 176.217062 
L 236.627592 175.290821 
L 237.122069 175.290821 
L 237.122069 174.36458 
L 237.29545 174.36458 
L 237.336293 172.975219 
L 241.009323 172.975219 
L 241.109124 168.807134 
L 241.128047 168.807134 
L 241.128047 168.344014 
L 242.352436 168.344014 
L 242.352436 166.954652 
L 242.539245 166.954652 
L 242.539245 166.491532 
L 243.079856 166.491532 
L 243.079856 166.028411 
L 244.106012 166.028411 
L 244.106012 165.10217 
L 245.036695 165.10217 
L 245.036695 164.63905 
L 245.292024 164.63905 
L 245.39378 153.061037 
L 245.404669 153.061037 
L 245.460597 151.208554 
L 245.531046 151.208554 
L 245.531046 150.282313 
L 245.652293 150.282313 
L 245.659889 148.429831 
L 247.057556 148.429831 
L 247.057556 147.966711 
L 247.438622 147.966711 
L 247.438622 147.50359 
L 248.57919 147.50359 
L 248.580617 146.114229 
L 248.891018 146.114229 
L 248.891018 145.651108 
L 249.496302 145.651108 
L 249.496302 145.187988 
L 249.884108 145.187988 
L 249.884108 144.724867 
L 250.004971 144.724867 
L 250.004971 144.261747 
L 250.595852 144.261747 
L 250.600301 142.872385 
L 250.936443 142.872385 
L 250.936443 142.409265 
L 251.244978 142.409265 
L 251.249878 141.483024 
L 251.90985 141.483024 
L 251.90985 141.019903 
L 252.131974 141.019903 
L 252.131974 140.093662 
L 252.671505 140.093662 
L 252.671505 139.630541 
L 253.510894 139.630541 
L 253.560923 135.462457 
L 253.648129 135.462457 
L 253.749308 133.609975 
L 253.777785 133.609975 
L 253.777785 133.146854 
L 253.899722 133.146854 
L 253.899722 132.683734 
L 254.02805 132.683734 
L 254.02805 132.220613 
L 254.229042 132.220613 
L 254.319801 130.368131 
L 254.438967 130.368131 
L 254.438967 129.44189 
L 254.56955 129.44189 
L 254.674739 119.716359 
L 254.735158 119.716359 
L 254.789799 117.400757 
L 254.866109 117.400757 
L 254.866109 116.937636 
L 255.232917 116.937636 
L 255.232917 116.011395 
L 255.715305 116.011395 
L 255.715305 115.085154 
L 255.860762 115.085154 
L 255.860762 114.622033 
L 257.531753 114.622033 
L 257.531753 113.695792 
L 258.038875 113.695792 
L 258.117171 107.212105 
L 258.155129 107.212105 
L 258.243219 105.359623 
L 258.284644 105.359623 
L 258.284644 104.896503 
L 338.688 104.896503 
L 338.688 104.896503 
" style="fill:none;stroke:#008000;stroke-linecap:square;stroke-width:1.5;"/>
   </g>
   <g id="line2d_36">
    <defs>
     <path d="M -0 6 
L 6 -6 
L -6 -6 
z
" id="mbce3087919" style="stroke:#008000;stroke-linejoin:miter;stroke-width:1.5;"/>
    </defs>
    <g>
     <use style="fill-opacity:0;stroke:#008000;stroke-linejoin:miter;stroke-width:1.5;" x="115.077025" xlink:href="#mbce3087919" y="293.849674"/>
     <use style="fill-opacity:0;stroke:#008000;stroke-linejoin:miter;stroke-width:1.5;" x="173.088028" xlink:href="#mbce3087919" y="261.894358"/>
     <use style="fill-opacity:0;stroke:#008000;stroke-linejoin:miter;stroke-width:1.5;" x="235.414518" xlink:href="#mbce3087919" y="180.848268"/>
     <use style="fill-opacity:0;stroke:#008000;stroke-linejoin:miter;stroke-width:1.5;" x="258.284644" xlink:href="#mbce3087919" y="105.359623"/>
     <use style="fill-opacity:0;stroke:#008000;stroke-linejoin:miter;stroke-width:1.5;" x="258.284644" xlink:href="#mbce3087919" y="104.896503"/>
     <use style="fill-opacity:0;stroke:#008000;stroke-linejoin:miter;stroke-width:1.5;" x="338.688" xlink:href="#mbce3087919" y="104.896503"/>
    </g>
   </g>
   <g id="line2d_37">
    <path style="fill:none;stroke:#008000;stroke-linecap:square;stroke-width:1.5;"/>
    <g/>
   </g>
   <g id="line2d_38">
    <path clip-path="url(#pb5607fcf8f)" d="M 258.377143 104.896503 
" style="fill:none;stroke:#008000;stroke-linecap:square;stroke-width:1.5;"/>
    <defs>
     <path d="M -12 12 
L 12 -12 
M -12 -12 
L 12 12 
" id="m45001b56b1" style="stroke:#008000;"/>
    </defs>
    <g clip-path="url(#pb5607fcf8f)">
     <use style="fill:#008000;stroke:#008000;" x="258.377143" xlink:href="#m45001b56b1" y="104.896503"/>
    </g>
   </g>
   <g id="line2d_39">
    <defs>
     <path d="M 0 1.5 
C 0.397805 1.5 0.77937 1.341951 1.06066 1.06066 
C 1.341951 0.77937 1.5 0.397805 1.5 0 
C 1.5 -0.397805 1.341951 -0.77937 1.06066 -1.06066 
C 0.77937 -1.341951 0.397805 -1.5 0 -1.5 
C -0.397805 -1.5 -0.77937 -1.341951 -1.06066 -1.06066 
C -1.341951 -0.77937 -1.5 -0.397805 -1.5 0 
C -1.5 0.397805 -1.341951 0.77937 -1.06066 1.06066 
C -0.77937 1.341951 -0.397805 1.5 0 1.5 
z
" id="me1ab70a267" style="stroke:#0000ff;"/>
    </defs>
    <g>
     <use style="fill:#0000ff;stroke:#0000ff;" x="255.85735" xlink:href="#me1ab70a267" y="148.429831"/>
     <use style="fill:#0000ff;stroke:#0000ff;" x="255.85735" xlink:href="#me1ab70a267" y="148.429831"/>
    </g>
   </g>
   <g id="line2d_40">
    <path d="M 29.53256 298.944 
L 29.53256 298.480879 
L 106.802819 298.480879 
L 106.802819 298.017759 
L 108.948899 298.017759 
L 108.948899 297.091518 
L 112.58145 297.091518 
L 112.58145 296.165277 
L 114.148479 296.165277 
L 114.148479 295.702156 
L 115.586238 295.702156 
L 115.586238 294.775915 
L 118.148599 294.775915 
L 118.148599 293.386554 
L 121.400219 293.386554 
L 121.400219 291.997192 
L 122.362027 291.997192 
L 122.362027 291.070951 
L 123.273551 291.070951 
L 123.273551 290.14471 
L 124.965026 290.14471 
L 124.965026 288.755349 
L 126.50685 288.755349 
L 126.50685 287.829108 
L 127.923363 287.829108 
L 127.923363 286.902867 
L 129.233413 286.902867 
L 129.233413 285.513505 
L 133.170708 285.513505 
L 133.170708 285.050384 
L 133.667073 285.050384 
L 133.667073 284.587264 
L 134.61933 284.587264 
L 134.61933 284.124143 
L 135.956794 284.124143 
L 135.956794 283.197902 
L 136.79465 283.197902 
L 136.79465 282.734782 
L 137.198951 282.734782 
L 137.198951 282.271661 
L 140.134598 282.271661 
L 140.134598 281.808541 
L 140.469102 281.808541 
L 140.469102 281.34542 
L 140.79731 281.34542 
L 140.79731 280.419179 
L 143.221802 280.419179 
L 143.221802 279.956059 
L 143.502469 279.956059 
L 143.502469 279.492938 
L 144.841802 279.492938 
L 144.841802 279.029818 
L 146.08557 279.029818 
L 146.08557 278.103577 
L 151.113448 278.103577 
L 151.113448 277.640456 
L 157.77619 277.640456 
L 157.77619 277.177336 
L 162.610782 277.177336 
L 162.610782 276.714215 
L 165.547501 276.714215 
L 165.547501 275.787974 
L 166.855717 275.787974 
L 166.855717 275.324854 
L 168.888381 275.324854 
L 168.888381 274.861733 
L 170.650062 274.861733 
L 170.650062 274.398612 
L 175.681699 274.398612 
L 175.681699 273.472371 
L 199.143437 273.472371 
L 199.143437 273.009251 
L 200.068341 273.009251 
L 200.068341 272.54613 
L 200.755893 272.54613 
L 200.755893 272.08301 
L 201.310992 272.08301 
L 201.310992 271.156769 
L 201.582053 271.156769 
L 201.582053 270.693648 
L 202.232668 270.693648 
L 202.232668 270.230528 
L 203.537517 270.230528 
L 203.537517 269.767407 
L 206.15255 269.767407 
L 206.15255 269.304287 
L 206.424272 269.304287 
L 206.424272 268.378046 
L 206.53983 268.378046 
L 206.53983 267.914925 
L 206.662073 267.914925 
L 206.662073 267.451805 
L 206.82039 267.451805 
L 206.82039 266.988684 
L 207.096507 266.988684 
L 207.096507 266.062443 
L 207.294075 266.062443 
L 207.372869 264.673082 
L 207.502978 264.673082 
L 207.602651 261.894358 
L 207.633403 261.894358 
L 207.633403 260.968117 
L 207.893254 260.968117 
L 207.893254 260.041876 
L 208.988227 260.041876 
L 208.988227 259.578756 
L 209.133901 259.578756 
L 209.192535 258.189394 
L 209.308632 258.189394 
L 209.308632 257.726274 
L 209.419917 257.726274 
L 209.419917 257.263153 
L 209.650646 257.263153 
L 209.650646 256.800033 
L 209.771671 256.800033 
L 209.771671 256.336912 
L 210.021282 256.336912 
L 210.021282 254.947551 
L 210.215008 254.947551 
L 210.215008 254.02131 
L 210.392403 254.02131 
L 210.392403 253.095069 
L 210.545278 253.095069 
L 210.545278 252.631948 
L 210.836946 252.631948 
L 210.836946 251.705707 
L 210.972253 251.705707 
L 211.004465 250.316346 
L 211.176137 250.316346 
L 211.176137 249.390104 
L 211.321803 249.390104 
L 211.333715 247.537622 
L 212.040381 247.537622 
L 212.104397 246.148261 
L 212.549908 246.148261 
L 212.549908 245.68514 
L 212.960757 245.68514 
L 212.960757 245.22202 
L 213.34555 245.22202 
L 213.34555 244.758899 
L 213.461872 244.758899 
L 213.540968 243.369538 
L 213.602897 243.369538 
L 213.61244 242.443297 
L 213.789173 242.443297 
L 213.845298 241.517056 
L 213.940521 241.517056 
L 213.940521 240.590815 
L 214.109562 240.590815 
L 214.219159 237.812091 
L 214.346375 237.812091 
L 214.346375 236.88585 
L 214.858429 236.88585 
L 214.858429 236.42273 
L 215.046063 236.42273 
L 215.046063 235.959609 
L 215.225903 235.959609 
L 215.29988 234.107127 
L 215.358754 234.107127 
L 215.358754 233.180886 
L 215.473051 233.180886 
L 215.563465 231.791525 
L 215.648967 231.791525 
L 215.716746 230.865284 
L 215.795489 230.865284 
L 215.829128 228.086561 
L 215.907367 228.086561 
L 216.01299 225.770958 
L 216.106956 225.770958 
L 216.106956 224.844717 
L 216.31246 224.844717 
L 216.337347 223.455355 
L 216.476294 223.455355 
L 216.476294 222.992235 
L 216.651584 222.992235 
L 216.651584 222.065994 
L 216.833818 222.065994 
L 216.833818 221.602873 
L 217.267617 221.602873 
L 217.377056 220.213512 
L 217.720706 220.213512 
L 217.720706 219.287271 
L 218.051375 219.287271 
L 218.051375 218.82415 
L 218.363095 218.82415 
L 218.363095 217.897909 
L 218.574237 217.897909 
L 218.574237 217.434789 
L 219.037666 217.434789 
L 219.093494 216.508548 
L 219.900969 216.508548 
L 219.900969 216.045427 
L 220.561738 216.045427 
L 220.597081 215.119186 
L 220.800428 215.119186 
L 220.800428 214.656066 
L 220.943045 214.656066 
L 221.046578 211.414222 
L 221.150089 211.414222 
L 221.206319 210.487981 
L 221.281401 210.487981 
L 221.343043 209.098619 
L 221.468573 209.098619 
L 221.570768 206.319896 
L 221.869566 206.319896 
L 221.869566 205.856776 
L 222.055603 205.856776 
L 222.055603 205.393655 
L 222.671412 205.393655 
L 222.671412 204.930535 
L 223.171149 204.930535 
L 223.237462 204.004294 
L 223.757045 204.004294 
L 223.757045 203.541173 
L 224.147251 203.541173 
L 224.147251 202.614932 
L 224.299051 202.614932 
L 224.299051 201.688691 
L 224.73732 201.688691 
L 224.73732 201.225571 
L 225.163438 201.225571 
L 225.163438 200.299329 
L 225.325025 200.299329 
L 225.331755 199.373088 
L 225.982974 199.373088 
L 225.982974 198.909968 
L 226.606437 198.909968 
L 226.606437 198.446847 
L 226.721216 198.446847 
L 226.721216 197.983727 
L 227.413007 197.983727 
L 227.413007 197.520606 
L 227.560223 197.520606 
L 227.560223 196.594365 
L 227.754732 196.594365 
L 227.754732 195.668124 
L 228.605675 195.668124 
L 228.605675 195.205004 
L 229.011463 195.205004 
L 229.024609 194.278763 
L 229.146581 194.278763 
L 229.146581 193.815642 
L 229.934411 193.815642 
L 229.934411 193.352522 
L 230.253458 193.352522 
L 230.253458 192.426281 
L 230.508593 192.426281 
L 230.508593 191.96316 
L 231.4063 191.96316 
L 231.4063 191.50004 
L 232.573312 191.50004 
L 232.662531 190.110678 
L 232.708946 190.110678 
L 232.79929 186.405714 
L 232.846851 186.405714 
L 232.848811 185.016352 
L 233.530774 185.016352 
L 233.530774 184.090111 
L 233.861795 184.090111 
L 233.861795 183.626991 
L 234.454489 183.626991 
L 234.461775 182.70075 
L 234.782895 182.70075 
L 234.782895 182.237629 
L 234.994536 182.237629 
L 235.089328 180.848268 
L 235.170943 180.848268 
L 235.170943 180.385147 
L 235.357468 180.385147 
L 235.367519 178.995786 
L 235.592975 178.995786 
L 235.592975 178.069545 
L 235.750826 178.069545 
L 235.750826 177.606424 
L 235.951611 177.606424 
L 236.054656 175.753942 
L 236.279507 175.753942 
L 236.279507 175.290821 
L 236.691932 175.290821 
L 236.691932 174.827701 
L 236.937887 174.827701 
L 236.937887 174.36458 
L 237.638995 174.36458 
L 237.638995 173.90146 
L 238.073756 173.90146 
L 238.073756 172.975219 
L 238.241329 172.975219 
L 238.249959 171.585857 
L 238.600797 171.585857 
L 238.600797 171.122737 
L 239.108797 171.122737 
L 239.132682 169.733375 
L 239.356367 169.733375 
L 239.356367 169.270255 
L 240.08653 169.270255 
L 240.132463 168.344014 
L 240.762464 168.344014 
L 240.764667 166.954652 
L 241.065602 166.954652 
L 241.065602 166.491532 
L 241.576082 166.491532 
L 241.576082 165.565291 
L 242.064934 165.565291 
L 242.064934 164.63905 
L 242.535439 164.63905 
L 242.535439 164.175929 
L 242.919439 164.175929 
L 242.920454 162.786567 
L 243.41172 162.786567 
L 243.41172 161.860326 
L 243.559509 161.860326 
L 243.559509 161.397206 
L 243.768475 161.397206 
L 243.768475 160.934085 
L 243.930222 160.934085 
L 243.930222 160.007844 
L 244.28649 160.007844 
L 244.28649 159.081603 
L 244.695881 159.081603 
L 244.695881 158.618483 
L 245.195615 158.618483 
L 245.195615 158.155362 
L 245.550487 158.155362 
L 245.550487 157.229121 
L 245.985879 157.229121 
L 245.985879 156.766001 
L 246.569064 156.766001 
L 246.569064 155.83976 
L 246.980177 155.83976 
L 246.980177 154.913519 
L 247.125132 154.913519 
L 247.125132 154.450398 
L 248.751173 154.450398 
L 248.752384 152.597916 
L 248.925595 152.597916 
L 248.926254 151.208554 
L 249.358613 151.208554 
L 249.358613 150.745434 
L 249.705319 150.745434 
L 249.705319 150.282313 
L 251.554718 150.282313 
L 251.576264 148.892952 
L 255.85735 148.892952 
L 255.85735 148.429831 
L 338.688 148.429831 
L 338.688 148.429831 
" style="fill:none;stroke:#0000ff;stroke-linecap:square;stroke-width:1.5;"/>
   </g>
   <g id="line2d_41">
    <defs>
     <path d="M 0 -6 
L -1.347084 -1.854102 
L -5.706339 -1.854102 
L -2.179628 0.708204 
L -3.526712 4.854102 
L -0 2.291796 
L 3.526712 4.854102 
L 2.179628 0.708204 
L 5.706339 -1.854102 
L 1.347084 -1.854102 
z
" id="m94193d03d9" style="stroke:#0000ff;stroke-linejoin:bevel;stroke-width:1.5;"/>
    </defs>
    <g>
     <use style="fill-opacity:0;stroke:#0000ff;stroke-linejoin:bevel;stroke-width:1.5;" x="124.965026" xlink:href="#m94193d03d9" y="288.755349"/>
     <use style="fill-opacity:0;stroke:#0000ff;stroke-linejoin:bevel;stroke-width:1.5;" x="215.2317" xlink:href="#m94193d03d9" y="235.496489"/>
     <use style="fill-opacity:0;stroke:#0000ff;stroke-linejoin:bevel;stroke-width:1.5;" x="251.576264" xlink:href="#m94193d03d9" y="148.892952"/>
     <use style="fill-opacity:0;stroke:#0000ff;stroke-linejoin:bevel;stroke-width:1.5;" x="255.85735" xlink:href="#m94193d03d9" y="148.429831"/>
     <use style="fill-opacity:0;stroke:#0000ff;stroke-linejoin:bevel;stroke-width:1.5;" x="255.85735" xlink:href="#m94193d03d9" y="148.429831"/>
     <use style="fill-opacity:0;stroke:#0000ff;stroke-linejoin:bevel;stroke-width:1.5;" x="338.688" xlink:href="#m94193d03d9" y="148.429831"/>
    </g>
   </g>
   <g id="line2d_42">
    <path style="fill:none;stroke:#0000ff;stroke-linecap:square;stroke-width:1.5;"/>
    <g/>
   </g>
   <g id="line2d_43">
    <path clip-path="url(#pb5607fcf8f)" d="M 258.377143 148.429831 
" style="fill:none;stroke:#0000ff;stroke-linecap:square;stroke-width:1.5;"/>
    <defs>
     <path d="M -12 12 
L 12 -12 
M -12 -12 
L 12 12 
" id="m684b07f44b" style="stroke:#0000ff;"/>
    </defs>
    <g clip-path="url(#pb5607fcf8f)">
     <use style="fill:#0000ff;stroke:#0000ff;" x="258.377143" xlink:href="#m684b07f44b" y="148.429831"/>
    </g>
   </g>
   <g id="line2d_44">
    <defs>
     <path d="M 0 1.5 
C 0.397805 1.5 0.77937 1.341951 1.06066 1.06066 
C 1.341951 0.77937 1.5 0.397805 1.5 0 
C 1.5 -0.397805 1.341951 -0.77937 1.06066 -1.06066 
C 0.77937 -1.341951 0.397805 -1.5 0 -1.5 
C -0.397805 -1.5 -0.77937 -1.341951 -1.06066 -1.06066 
C -1.341951 -0.77937 -1.5 -0.397805 -1.5 0 
C -1.5 0.397805 -1.341951 0.77937 -1.06066 1.06066 
C -0.77937 1.341951 -0.397805 1.5 0 1.5 
z
" id="m88013756bb" style="stroke:#000000;"/>
    </defs>
    <g>
     <use style="stroke:#000000;" x="257.504621" xlink:href="#m88013756bb" y="128.97877"/>
     <use style="stroke:#000000;" x="257.504621" xlink:href="#m88013756bb" y="128.97877"/>
    </g>
   </g>
   <g id="line2d_45">
    <path d="M 17.444571 298.944 
L 17.444571 297.554638 
L 94.294587 297.554638 
L 94.294587 297.091518 
L 101.506816 297.091518 
L 101.506816 295.702156 
L 106.593963 295.702156 
L 106.593963 295.239036 
L 110.527398 295.239036 
L 110.527398 293.849674 
L 112.204777 293.849674 
L 112.204777 292.923433 
L 115.141496 292.923433 
L 115.141496 292.460313 
L 116.443076 292.460313 
L 116.443076 291.534072 
L 117.654224 291.534072 
L 117.654224 290.14471 
L 118.786692 290.14471 
L 118.786692 289.218469 
L 120.852343 289.218469 
L 120.852343 288.755349 
L 121.800118 288.755349 
L 121.800118 288.292228 
L 122.699028 288.292228 
L 122.699028 287.365987 
L 123.553867 287.365987 
L 123.553867 285.050384 
L 125.147256 285.050384 
L 125.147256 284.124143 
L 127.293718 284.124143 
L 127.293718 282.734782 
L 128.590686 282.734782 
L 128.590686 282.271661 
L 129.204706 282.271661 
L 129.204706 281.34542 
L 129.79784 281.34542 
L 129.79784 279.956059 
L 130.371462 279.956059 
L 130.371462 279.492938 
L 133.931979 279.492938 
L 133.931979 279.029818 
L 134.828688 279.029818 
L 134.828688 278.566697 
L 137.271464 278.566697 
L 137.271464 278.103577 
L 214.570988 278.103577 
L 214.570988 277.640456 
L 214.919864 277.640456 
L 214.919864 277.177336 
L 215.084936 277.177336 
L 215.084936 276.251095 
L 215.222175 276.251095 
L 215.286059 275.324854 
L 215.349709 275.324854 
L 215.349709 274.861733 
L 215.480603 274.861733 
L 215.480603 273.935492 
L 215.627529 273.935492 
L 215.627529 272.54613 
L 215.832128 272.54613 
L 215.832128 271.619889 
L 218.926476 271.619889 
L 218.926476 270.693648 
L 219.091338 270.693648 
L 219.165012 269.304287 
L 219.366066 269.304287 
L 219.462482 267.914925 
L 219.490558 267.914925 
L 219.490558 267.451805 
L 219.626882 267.451805 
L 219.733229 264.673082 
L 219.776033 264.673082 
L 219.867994 262.8206 
L 219.923761 262.8206 
L 219.989124 260.504997 
L 220.072601 260.504997 
L 220.09705 259.115635 
L 220.236813 259.115635 
L 220.273905 257.726274 
L 220.428867 257.726274 
L 220.428867 257.263153 
L 220.599667 257.263153 
L 220.599667 256.336912 
L 220.82508 256.336912 
L 220.82508 255.410671 
L 221.63484 255.410671 
L 221.63484 254.947551 
L 221.95664 254.947551 
L 221.95664 254.48443 
L 222.155956 254.48443 
L 222.259194 253.558189 
L 222.481075 253.558189 
L 222.533179 251.705707 
L 222.630422 251.705707 
L 222.686538 250.779466 
L 222.748125 250.779466 
L 222.826378 249.390104 
L 222.9566 249.390104 
L 222.9566 248.000743 
L 223.132504 248.000743 
L 223.132504 247.074502 
L 223.516575 247.074502 
L 223.516575 246.148261 
L 223.857564 246.148261 
L 223.857564 245.68514 
L 224.501201 245.68514 
L 224.501201 245.22202 
L 224.863368 245.22202 
L 224.863368 244.758899 
L 225.186965 244.758899 
L 225.291688 243.369538 
L 225.344162 243.369538 
L 225.344162 242.906417 
L 225.494325 242.906417 
L 225.603164 240.127694 
L 225.650156 240.127694 
L 225.713712 239.201453 
L 225.774662 239.201453 
L 225.829877 237.812091 
L 226.436868 237.812091 
L 226.473848 236.42273 
L 226.568009 236.42273 
L 226.666392 234.570248 
L 226.71318 234.570248 
L 226.778003 232.717766 
L 226.835457 232.717766 
L 226.912971 230.402163 
L 226.996785 230.402163 
L 226.996785 229.475922 
L 227.275955 229.475922 
L 227.275955 229.012802 
L 227.624521 229.012802 
L 227.624521 228.086561 
L 228.193566 228.086561 
L 228.193566 227.62344 
L 228.331434 227.62344 
L 228.331434 227.16032 
L 228.70911 227.16032 
L 228.70911 226.234079 
L 228.841839 226.234079 
L 228.928226 223.455355 
L 229.02902 223.455355 
L 229.033899 222.529114 
L 229.204555 222.529114 
L 229.265762 221.139753 
L 229.326755 221.139753 
L 229.419773 219.750391 
L 229.478311 219.750391 
L 229.581985 217.434789 
L 229.657098 217.434789 
L 229.765927 215.582307 
L 229.806361 215.582307 
L 229.86943 214.192945 
L 229.939667 214.192945 
L 230.049938 212.340463 
L 230.150807 212.340463 
L 230.150807 211.414222 
L 230.263952 211.414222 
L 230.263952 210.02486 
L 230.385312 210.02486 
L 230.409952 208.635499 
L 230.673843 208.635499 
L 230.773809 206.319896 
L 230.810874 206.319896 
L 230.87405 204.930535 
L 230.958098 204.930535 
L 231.012287 203.078053 
L 231.069814 203.078053 
L 231.116582 201.688691 
L 231.517632 201.688691 
L 231.517632 201.225571 
L 231.829691 201.225571 
L 231.829691 200.299329 
L 232.01602 200.299329 
L 232.01602 199.373088 
L 232.163961 199.373088 
L 232.163961 198.909968 
L 232.37437 198.909968 
L 232.37437 198.446847 
L 232.549018 198.446847 
L 232.606211 197.520606 
L 232.719657 197.520606 
L 232.818254 195.668124 
L 232.862148 195.668124 
L 232.963765 193.352522 
L 233.111414 193.352522 
L 233.111414 192.426281 
L 233.236013 192.426281 
L 233.236013 191.96316 
L 234.154786 191.96316 
L 234.154786 191.50004 
L 234.379872 191.50004 
L 234.379872 191.036919 
L 234.797058 191.036919 
L 234.797058 190.573799 
L 235.064384 190.573799 
L 235.064384 190.110678 
L 235.277379 190.110678 
L 235.277379 189.184437 
L 235.509498 189.184437 
L 235.509498 188.721316 
L 235.83265 188.721316 
L 235.83265 188.258196 
L 236.559052 188.258196 
L 236.559052 187.795075 
L 236.970888 187.795075 
L 237.019858 186.405714 
L 237.252129 186.405714 
L 237.252129 185.479473 
L 238.000362 185.479473 
L 238.000362 185.016352 
L 238.689141 185.016352 
L 238.727819 183.626991 
L 238.88584 183.626991 
L 238.88584 183.16387 
L 239.99505 183.16387 
L 239.99505 182.70075 
L 240.377815 182.70075 
L 240.458545 181.774509 
L 240.694961 181.774509 
L 240.777972 180.848268 
L 240.94405 180.848268 
L 240.94405 179.922027 
L 241.137173 179.922027 
L 241.180283 178.995786 
L 241.396329 178.995786 
L 241.396329 178.532665 
L 241.701673 178.532665 
L 241.733315 177.143304 
L 241.956256 177.143304 
L 241.956256 176.680183 
L 242.277294 176.680183 
L 242.277294 175.753942 
L 242.71052 175.753942 
L 242.728154 174.827701 
L 243.05965 174.827701 
L 243.155632 173.438339 
L 243.211396 173.438339 
L 243.211396 172.975219 
L 243.344582 172.975219 
L 243.411062 171.585857 
L 243.556857 171.585857 
L 243.556857 171.122737 
L 243.915921 171.122737 
L 243.915921 170.659616 
L 244.189431 170.659616 
L 244.189431 169.733375 
L 244.311238 169.733375 
L 244.384958 168.807134 
L 244.4862 168.807134 
L 244.563846 167.880893 
L 244.802974 167.880893 
L 244.857279 166.491532 
L 245.337894 166.491532 
L 245.406968 165.565291 
L 245.47036 165.565291 
L 245.47036 165.10217 
L 245.713792 165.10217 
L 245.791519 164.175929 
L 245.852423 164.175929 
L 245.852423 163.249688 
L 246.076217 163.249688 
L 246.14827 161.860326 
L 246.272614 161.860326 
L 246.298848 160.934085 
L 246.51282 160.934085 
L 246.606367 159.544724 
L 246.690487 159.544724 
L 246.690487 159.081603 
L 246.866228 159.081603 
L 246.866228 158.618483 
L 247.163787 158.618483 
L 247.163787 157.692242 
L 247.298378 157.692242 
L 247.298378 157.229121 
L 247.526479 157.229121 
L 247.542976 156.30288 
L 247.742427 156.30288 
L 247.742427 155.376639 
L 248.080469 155.376639 
L 248.080469 154.913519 
L 248.210442 154.913519 
L 248.210442 154.450398 
L 248.483795 154.450398 
L 248.483795 153.524157 
L 248.922506 153.524157 
L 248.922506 152.597916 
L 249.149606 152.597916 
L 249.149606 152.134795 
L 249.712802 152.134795 
L 249.822715 150.282313 
L 249.922116 150.282313 
L 250.001203 148.429831 
L 250.122287 148.429831 
L 250.122287 147.50359 
L 250.468364 147.50359 
L 250.547559 146.577349 
L 250.734825 146.577349 
L 250.833798 145.187988 
L 251.268134 145.187988 
L 251.343394 143.798626 
L 251.654621 143.798626 
L 251.654621 143.335506 
L 252.264629 143.335506 
L 252.354524 141.946144 
L 252.446481 141.946144 
L 252.518518 141.019903 
L 253.105572 141.019903 
L 253.129668 139.167421 
L 253.498787 139.167421 
L 253.498787 138.7043 
L 253.793155 138.7043 
L 253.793155 137.778059 
L 253.944175 137.778059 
L 253.944175 136.851818 
L 254.391603 136.851818 
L 254.391603 136.388698 
L 254.876933 136.388698 
L 254.876933 135.925577 
L 255.352814 135.925577 
L 255.352814 134.999336 
L 255.54018 134.999336 
L 255.54018 134.536216 
L 255.742743 134.536216 
L 255.742743 134.073095 
L 256.258269 134.073095 
L 256.258269 133.146854 
L 256.399246 133.146854 
L 256.480064 131.294372 
L 256.645537 131.294372 
L 256.645537 130.831252 
L 256.821318 130.831252 
L 256.821318 129.905011 
L 257.063247 129.905011 
L 257.063247 129.44189 
L 257.504621 129.44189 
L 257.504621 128.97877 
L 338.688 128.97877 
L 338.688 128.97877 
" style="fill:none;stroke:#000000;stroke-linecap:square;stroke-width:1.5;"/>
   </g>
   <g id="line2d_46">
    <defs>
     <path d="M 0 6 
C 1.591219 6 3.117479 5.367802 4.242641 4.242641 
C 5.367802 3.117479 6 1.591219 6 0 
C 6 -1.591219 5.367802 -3.117479 4.242641 -4.242641 
C 3.117479 -5.367802 1.591219 -6 0 -6 
C -1.591219 -6 -3.117479 -5.367802 -4.242641 -4.242641 
C -5.367802 -3.117479 -6 -1.591219 -6 0 
C -6 1.591219 -5.367802 3.117479 -4.242641 4.242641 
C -3.117479 5.367802 -1.591219 6 0 6 
z
" id="mf7db7eb5c0" style="stroke:#000000;stroke-width:1.5;"/>
    </defs>
    <g>
     <use style="fill-opacity:0;stroke:#000000;stroke-width:1.5;" x="118.786692" xlink:href="#mf7db7eb5c0" y="290.14471"/>
     <use style="fill-opacity:0;stroke:#000000;stroke-width:1.5;" x="215.349709" xlink:href="#mf7db7eb5c0" y="274.861733"/>
     <use style="fill-opacity:0;stroke:#000000;stroke-width:1.5;" x="241.701673" xlink:href="#mf7db7eb5c0" y="178.532665"/>
     <use style="fill-opacity:0;stroke:#000000;stroke-width:1.5;" x="257.504621" xlink:href="#mf7db7eb5c0" y="128.97877"/>
     <use style="fill-opacity:0;stroke:#000000;stroke-width:1.5;" x="257.504621" xlink:href="#mf7db7eb5c0" y="128.97877"/>
     <use style="fill-opacity:0;stroke:#000000;stroke-width:1.5;" x="338.688" xlink:href="#mf7db7eb5c0" y="128.97877"/>
    </g>
   </g>
   <g id="line2d_47">
    <path style="fill:none;stroke:#000000;stroke-linecap:square;stroke-width:1.5;"/>
    <g/>
   </g>
   <g id="line2d_48">
    <path clip-path="url(#pb5607fcf8f)" d="M 258.377143 128.97877 
" style="fill:none;stroke:#000000;stroke-linecap:square;stroke-width:1.5;"/>
    <defs>
     <path d="M -12 12 
L 12 -12 
M -12 -12 
L 12 12 
" id="mcab0463816" style="stroke:#000000;"/>
    </defs>
    <g clip-path="url(#pb5607fcf8f)">
     <use style="stroke:#000000;" x="258.377143" xlink:href="#mcab0463816" y="128.97877"/>
    </g>
   </g>
   <g id="line2d_49">
    <defs>
     <path d="M 0 1.5 
C 0.397805 1.5 0.77937 1.341951 1.06066 1.06066 
C 1.341951 0.77937 1.5 0.397805 1.5 0 
C 1.5 -0.397805 1.341951 -0.77937 1.06066 -1.06066 
C 0.77937 -1.341951 0.397805 -1.5 0 -1.5 
C -0.397805 -1.5 -0.77937 -1.341951 -1.06066 -1.06066 
C -1.341951 -0.77937 -1.5 -0.397805 -1.5 0 
C -1.5 0.397805 -1.341951 0.77937 -1.06066 1.06066 
C -0.77937 1.341951 -0.397805 1.5 0 1.5 
z
" id="m6cface5593" style="stroke:#ff0000;"/>
    </defs>
    <g>
     <use style="fill:#ff0000;stroke:#ff0000;" x="257.823981" xlink:href="#m6cface5593" y="202.614932"/>
     <use style="fill:#ff0000;stroke:#ff0000;" x="257.823981" xlink:href="#m6cface5593" y="202.614932"/>
    </g>
   </g>
   <g id="line2d_50">
    <path d="M 76.759008 298.944 
L 76.759008 298.480879 
L 85.840967 298.480879 
L 85.840967 298.017759 
L 91.782644 298.017759 
L 91.782644 297.091518 
L 99.731799 297.091518 
L 99.731799 296.165277 
L 107.364602 296.165277 
L 107.364602 295.239036 
L 109.31223 295.239036 
L 109.31223 294.775915 
L 111.064034 294.775915 
L 111.064034 293.849674 
L 112.655818 293.849674 
L 112.655818 291.997192 
L 114.114385 291.997192 
L 114.114385 291.534072 
L 116.709783 291.534072 
L 116.709783 291.070951 
L 118.968488 291.070951 
L 118.968488 288.755349 
L 119.996839 288.755349 
L 119.996839 287.829108 
L 120.967912 287.829108 
L 120.967912 286.902867 
L 122.761498 286.902867 
L 122.761498 285.976625 
L 123.593547 285.976625 
L 123.593547 285.513505 
L 124.387699 285.513505 
L 124.387699 283.661023 
L 125.875108 283.661023 
L 125.875108 282.271661 
L 126.573795 282.271661 
L 126.573795 281.34542 
L 127.245565 281.34542 
L 127.245565 280.419179 
L 128.516128 280.419179 
L 128.516128 279.956059 
L 129.118302 279.956059 
L 129.118302 279.492938 
L 129.700375 279.492938 
L 129.700375 279.029818 
L 130.263646 279.029818 
L 130.263646 278.566697 
L 132.835661 278.566697 
L 132.835661 278.103577 
L 133.307488 278.103577 
L 133.307488 277.640456 
L 133.766885 277.640456 
L 133.766885 277.177336 
L 161.647545 277.177336 
L 161.647545 276.714215 
L 212.420024 276.714215 
L 212.420024 276.251095 
L 213.079548 276.251095 
L 213.079548 275.787974 
L 213.380229 275.787974 
L 213.380229 275.324854 
L 213.64818 275.324854 
L 213.738055 273.935492 
L 213.907274 273.935492 
L 213.907274 273.472371 
L 214.01859 273.472371 
L 214.120155 272.54613 
L 214.234618 272.54613 
L 214.234618 271.619889 
L 214.434249 271.619889 
L 214.527719 269.767407 
L 215.406879 269.767407 
L 215.406879 269.304287 
L 215.639869 269.304287 
L 215.740788 267.914925 
L 215.841126 267.914925 
L 215.841126 267.451805 
L 216.044138 267.451805 
L 216.044138 266.988684 
L 216.260628 266.988684 
L 216.260628 266.062443 
L 216.517782 266.062443 
L 216.517782 264.673082 
L 216.821634 264.673082 
L 216.821634 263.746841 
L 220.994591 263.746841 
L 221.100332 262.357479 
L 221.152964 262.357479 
L 221.25768 261.431238 
L 221.309766 261.431238 
L 221.413474 260.041876 
L 221.468066 260.041876 
L 221.525446 258.652515 
L 221.698319 258.652515 
L 221.698319 257.726274 
L 223.214687 257.726274 
L 223.214687 256.800033 
L 225.016825 256.800033 
L 225.110416 255.873792 
L 225.279592 255.873792 
L 225.369588 254.02131 
L 225.415538 254.02131 
L 225.463728 253.095069 
L 225.573787 253.095069 
L 225.630838 251.242587 
L 225.690033 251.242587 
L 225.769912 249.853225 
L 226.993094 249.853225 
L 227.096822 248.000743 
L 227.136301 248.000743 
L 227.219259 246.611381 
L 227.325173 246.611381 
L 227.325173 245.22202 
L 227.447256 245.22202 
L 227.447256 244.295779 
L 228.002573 244.295779 
L 228.002573 243.832658 
L 228.162134 243.832658 
L 228.209359 242.443297 
L 228.293399 242.443297 
L 228.380981 241.053935 
L 228.476021 241.053935 
L 228.582392 238.275212 
L 228.713315 238.275212 
L 228.78707 235.959609 
L 228.860515 235.959609 
L 228.943321 234.570248 
L 229.043091 234.570248 
L 229.099493 232.717766 
L 229.159532 232.717766 
L 229.240285 231.328404 
L 231.800056 231.328404 
L 231.800056 230.865284 
L 231.937526 230.865284 
L 231.937526 230.402163 
L 232.04971 230.402163 
L 232.135557 228.549681 
L 232.168312 228.549681 
L 232.264534 225.770958 
L 232.297009 225.770958 
L 232.382849 222.065994 
L 232.458521 222.065994 
L 232.562127 219.287271 
L 232.592523 219.287271 
L 232.643206 217.897909 
L 234.258934 217.897909 
L 234.355827 216.971668 
L 234.469642 216.971668 
L 234.563974 215.119186 
L 234.595305 215.119186 
L 234.634952 214.192945 
L 234.719461 214.192945 
L 234.818751 211.877342 
L 234.879881 211.877342 
L 234.879881 210.951101 
L 249.571041 210.951101 
L 249.638784 210.02486 
L 249.912301 210.02486 
L 249.912301 209.56174 
L 250.042159 209.56174 
L 250.042159 208.635499 
L 250.301477 208.635499 
L 250.301477 208.172378 
L 250.609061 208.172378 
L 250.609061 207.709258 
L 251.270257 207.709258 
L 251.270257 207.246137 
L 251.723524 207.246137 
L 251.723524 206.319896 
L 252.165917 206.319896 
L 252.165917 205.856776 
L 252.745523 205.856776 
L 252.745523 205.393655 
L 253.961784 205.393655 
L 253.961784 204.930535 
L 254.823691 204.930535 
L 254.823691 204.004294 
L 255.545084 204.004294 
L 255.545084 203.541173 
L 256.343505 203.541173 
L 256.343505 203.078053 
L 257.823981 203.078053 
L 257.823981 202.614932 
L 338.688 202.614932 
L 338.688 202.614932 
" style="fill:none;stroke:#ff0000;stroke-linecap:square;stroke-width:1.5;"/>
   </g>
   <g id="line2d_51">
    <defs>
     <path d="M -6 6 
L 6 6 
L 6 -6 
L -6 -6 
z
" id="m0d7bc5f25b" style="stroke:#ff0000;stroke-linejoin:miter;stroke-width:1.5;"/>
    </defs>
    <g>
     <use style="fill-opacity:0;stroke:#ff0000;stroke-linejoin:miter;stroke-width:1.5;" x="161.647545" xlink:href="#m0d7bc5f25b" y="276.714215"/>
     <use style="fill-opacity:0;stroke:#ff0000;stroke-linejoin:miter;stroke-width:1.5;" x="234.879881" xlink:href="#m0d7bc5f25b" y="211.877342"/>
     <use style="fill-opacity:0;stroke:#ff0000;stroke-linejoin:miter;stroke-width:1.5;" x="257.823981" xlink:href="#m0d7bc5f25b" y="202.614932"/>
     <use style="fill-opacity:0;stroke:#ff0000;stroke-linejoin:miter;stroke-width:1.5;" x="257.823981" xlink:href="#m0d7bc5f25b" y="202.614932"/>
     <use style="fill-opacity:0;stroke:#ff0000;stroke-linejoin:miter;stroke-width:1.5;" x="338.688" xlink:href="#m0d7bc5f25b" y="202.614932"/>
    </g>
   </g>
   <g id="line2d_52">
    <path style="fill:none;stroke:#ff0000;stroke-linecap:square;stroke-width:1.5;"/>
    <g/>
   </g>
   <g id="line2d_53">
    <path clip-path="url(#pb5607fcf8f)" d="M 258.377143 202.614932 
" style="fill:none;stroke:#ff0000;stroke-linecap:square;stroke-width:1.5;"/>
    <defs>
     <path d="M -12 12 
L 12 -12 
M -12 -12 
L 12 12 
" id="m88166835fa" style="stroke:#ff0000;"/>
    </defs>
    <g clip-path="url(#pb5607fcf8f)">
     <use style="fill:#ff0000;stroke:#ff0000;" x="258.377143" xlink:href="#m88166835fa" y="202.614932"/>
    </g>
   </g>
   <g id="line2d_54">
    <path d="M 338.688 202.614932 
L 369.60768 293.571802 
" style="fill:none;stroke:#ff0000;stroke-linecap:square;stroke-width:1.5;"/>
    <g>
     <use style="fill-opacity:0;stroke:#ff0000;stroke-linejoin:miter;stroke-width:1.5;" x="338.688" xlink:href="#m0d7bc5f25b" y="202.614932"/>
     <use style="fill-opacity:0;stroke:#ff0000;stroke-linejoin:miter;stroke-width:1.5;" x="369.60768" xlink:href="#m0d7bc5f25b" y="293.571802"/>
    </g>
   </g>
   <g id="line2d_55">
    <path d="M 338.688 148.429831 
L 369.60768 229.105426 
" style="fill:none;stroke:#0000ff;stroke-linecap:square;stroke-width:1.5;"/>
    <g>
     <use style="fill-opacity:0;stroke:#0000ff;stroke-linejoin:bevel;stroke-width:1.5;" x="338.688" xlink:href="#m94193d03d9" y="148.429831"/>
     <use style="fill-opacity:0;stroke:#0000ff;stroke-linejoin:bevel;stroke-width:1.5;" x="369.60768" xlink:href="#m94193d03d9" y="229.105426"/>
    </g>
   </g>
   <g id="line2d_56">
    <path d="M 338.688 128.97877 
L 369.60768 164.63905 
" style="fill:none;stroke:#000000;stroke-linecap:square;stroke-width:1.5;"/>
    <g>
     <use style="fill-opacity:0;stroke:#000000;stroke-width:1.5;" x="338.688" xlink:href="#mf7db7eb5c0" y="128.97877"/>
     <use style="fill-opacity:0;stroke:#000000;stroke-width:1.5;" x="369.60768" xlink:href="#mf7db7eb5c0" y="164.63905"/>
    </g>
   </g>
   <g id="line2d_57">
    <path d="M 338.688 109.990828 
L 369.60768 100.172673 
" style="fill:none;stroke:#00bfbf;stroke-linecap:square;stroke-width:1.5;"/>
    <g>
     <use style="fill-opacity:0;stroke:#00bfbf;stroke-width:1.5;" x="338.688" xlink:href="#md08e91ac17" y="109.990828"/>
     <use style="fill-opacity:0;stroke:#00bfbf;stroke-width:1.5;" x="369.60768" xlink:href="#md08e91ac17" y="100.172673"/>
    </g>
   </g>
   <g id="line2d_58">
    <path d="M 338.688 104.896503 
L 369.60768 35.706297 
" style="fill:none;stroke:#008000;stroke-linecap:square;stroke-width:1.5;"/>
    <g>
     <use style="fill-opacity:0;stroke:#008000;stroke-linejoin:miter;stroke-width:1.5;" x="338.688" xlink:href="#mbce3087919" y="104.896503"/>
     <use style="fill-opacity:0;stroke:#008000;stroke-linejoin:miter;stroke-width:1.5;" x="369.60768" xlink:href="#mbce3087919" y="35.706297"/>
    </g>
   </g>
   <g id="line2d_59">
    <path d="M 338.688 298.944 
L 338.688 30.334099 
" style="fill:none;stroke:#000000;stroke-linecap:square;stroke-width:1.5;"/>
   </g>
   <g id="patch_3">
    <path d="M 57.6 298.944 
L 57.6 27.648 
" style="fill:none;stroke:#000000;stroke-linecap:square;stroke-linejoin:miter;stroke-width:0.8;"/>
   </g>
   <g id="patch_4">
    <path d="M 338.688 298.944 
L 338.688 27.648 
" style="fill:none;stroke:#000000;stroke-linecap:square;stroke-linejoin:miter;stroke-width:0.8;"/>
   </g>
   <g id="patch_5">
    <path d="M 57.6 298.944 
L 338.688 298.944 
" style="fill:none;stroke:#000000;stroke-linecap:square;stroke-linejoin:miter;stroke-width:0.8;"/>
   </g>
   <g id="patch_6">
    <path d="M 57.6 27.648 
L 338.688 27.648 
" style="fill:none;stroke:#000000;stroke-linecap:square;stroke-linejoin:miter;stroke-width:0.8;"/>
   </g>
   <g id="text_13">
    <!-- 20-D -->
    <g transform="translate(375.22944 298.262739)scale(0.17 -0.17)">
     <defs>
      <path d="M 19.671875 64.796875 
L 19.671875 8.109375 
L 31.59375 8.109375 
Q 46.6875 8.109375 53.6875 14.9375 
Q 60.6875 21.78125 60.6875 36.53125 
Q 60.6875 51.171875 53.6875 57.984375 
Q 46.6875 64.796875 31.59375 64.796875 
z
M 9.8125 72.90625 
L 30.078125 72.90625 
Q 51.265625 72.90625 61.171875 64.09375 
Q 71.09375 55.28125 71.09375 36.53125 
Q 71.09375 17.671875 61.125 8.828125 
Q 51.171875 0 30.078125 0 
L 9.8125 0 
z
" id="DejaVuSans-68"/>
     </defs>
     <use xlink:href="#DejaVuSans-50"/>
     <use x="63.623047" xlink:href="#DejaVuSans-48"/>
     <use x="127.246094" xlink:href="#DejaVuSans-45"/>
     <use x="163.330078" xlink:href="#DejaVuSans-68"/>
    </g>
   </g>
   <g id="text_14">
    <!-- 5-D -->
    <g transform="translate(375.22944 233.796363)scale(0.17 -0.17)">
     <defs>
      <path d="M 10.796875 72.90625 
L 49.515625 72.90625 
L 49.515625 64.59375 
L 19.828125 64.59375 
L 19.828125 46.734375 
Q 21.96875 47.46875 24.109375 47.828125 
Q 26.265625 48.1875 28.421875 48.1875 
Q 40.625 48.1875 47.75 41.5 
Q 54.890625 34.8125 54.890625 23.390625 
Q 54.890625 11.625 47.5625 5.09375 
Q 40.234375 -1.421875 26.90625 -1.421875 
Q 22.3125 -1.421875 17.546875 -0.640625 
Q 12.796875 0.140625 7.71875 1.703125 
L 7.71875 11.625 
Q 12.109375 9.234375 16.796875 8.0625 
Q 21.484375 6.890625 26.703125 6.890625 
Q 35.15625 6.890625 40.078125 11.328125 
Q 45.015625 15.765625 45.015625 23.390625 
Q 45.015625 31 40.078125 35.4375 
Q 35.15625 39.890625 26.703125 39.890625 
Q 22.75 39.890625 18.8125 39.015625 
Q 14.890625 38.140625 10.796875 36.28125 
z
" id="DejaVuSans-53"/>
     </defs>
     <use xlink:href="#DejaVuSans-53"/>
     <use x="63.623047" xlink:href="#DejaVuSans-45"/>
     <use x="99.707031" xlink:href="#DejaVuSans-68"/>
    </g>
   </g>
   <g id="text_15">
    <!-- 10-D -->
    <g transform="translate(375.22944 169.329987)scale(0.17 -0.17)">
     <use xlink:href="#DejaVuSans-49"/>
     <use x="63.623047" xlink:href="#DejaVuSans-48"/>
     <use x="127.246094" xlink:href="#DejaVuSans-45"/>
     <use x="163.330078" xlink:href="#DejaVuSans-68"/>
    </g>
   </g>
   <g id="text_16">
    <!-- 2-D -->
    <g transform="translate(375.22944 104.863611)scale(0.17 -0.17)">
     <use xlink:href="#DejaVuSans-50"/>
     <use x="63.623047" xlink:href="#DejaVuSans-45"/>
     <use x="99.707031" xlink:href="#DejaVuSans-68"/>
    </g>
   </g>
   <g id="text_17">
    <!-- 3-D -->
    <g transform="translate(375.22944 40.397235)scale(0.17 -0.17)">
     <defs>
      <path d="M 40.578125 39.3125 
Q 47.65625 37.796875 51.625 33 
Q 55.609375 28.21875 55.609375 21.1875 
Q 55.609375 10.40625 48.1875 4.484375 
Q 40.765625 -1.421875 27.09375 -1.421875 
Q 22.515625 -1.421875 17.65625 -0.515625 
Q 12.796875 0.390625 7.625 2.203125 
L 7.625 11.71875 
Q 11.71875 9.328125 16.59375 8.109375 
Q 21.484375 6.890625 26.8125 6.890625 
Q 36.078125 6.890625 40.9375 10.546875 
Q 45.796875 14.203125 45.796875 21.1875 
Q 45.796875 27.640625 41.28125 31.265625 
Q 36.765625 34.90625 28.71875 34.90625 
L 20.21875 34.90625 
L 20.21875 43.015625 
L 29.109375 43.015625 
Q 36.375 43.015625 40.234375 45.921875 
Q 44.09375 48.828125 44.09375 54.296875 
Q 44.09375 59.90625 40.109375 62.90625 
Q 36.140625 65.921875 28.71875 65.921875 
Q 24.65625 65.921875 20.015625 65.03125 
Q 15.375 64.15625 9.8125 62.3125 
L 9.8125 71.09375 
Q 15.4375 72.65625 20.34375 73.4375 
Q 25.25 74.21875 29.59375 74.21875 
Q 40.828125 74.21875 47.359375 69.109375 
Q 53.90625 64.015625 53.90625 55.328125 
Q 53.90625 49.265625 50.4375 45.09375 
Q 46.96875 40.921875 40.578125 39.3125 
z
" id="DejaVuSans-51"/>
     </defs>
     <use xlink:href="#DejaVuSans-51"/>
     <use x="63.623047" xlink:href="#DejaVuSans-45"/>
     <use x="99.707031" xlink:href="#DejaVuSans-68"/>
    </g>
   </g>
   <g id="text_18">
    <!-- bbob-biobj f29 -->
    <g transform="translate(60.41088 38.111366)scale(0.102 -0.102)">
     <defs>
      <path d="M 48.6875 27.296875 
Q 48.6875 37.203125 44.609375 42.84375 
Q 40.53125 48.484375 33.40625 48.484375 
Q 26.265625 48.484375 22.1875 42.84375 
Q 18.109375 37.203125 18.109375 27.296875 
Q 18.109375 17.390625 22.1875 11.75 
Q 26.265625 6.109375 33.40625 6.109375 
Q 40.53125 6.109375 44.609375 11.75 
Q 48.6875 17.390625 48.6875 27.296875 
z
M 18.109375 46.390625 
Q 20.953125 51.265625 25.265625 53.625 
Q 29.59375 56 35.59375 56 
Q 45.5625 56 51.78125 48.09375 
Q 58.015625 40.1875 58.015625 27.296875 
Q 58.015625 14.40625 51.78125 6.484375 
Q 45.5625 -1.421875 35.59375 -1.421875 
Q 29.59375 -1.421875 25.265625 0.953125 
Q 20.953125 3.328125 18.109375 8.203125 
L 18.109375 0 
L 9.078125 0 
L 9.078125 75.984375 
L 18.109375 75.984375 
z
" id="DejaVuSans-98"/>
      <path d="M 9.421875 54.6875 
L 18.40625 54.6875 
L 18.40625 -0.984375 
Q 18.40625 -11.421875 14.421875 -16.109375 
Q 10.453125 -20.796875 1.609375 -20.796875 
L -1.8125 -20.796875 
L -1.8125 -13.1875 
L 0.59375 -13.1875 
Q 5.71875 -13.1875 7.5625 -10.8125 
Q 9.421875 -8.453125 9.421875 -0.984375 
z
M 9.421875 75.984375 
L 18.40625 75.984375 
L 18.40625 64.59375 
L 9.421875 64.59375 
z
" id="DejaVuSans-106"/>
      <path d="M 10.984375 1.515625 
L 10.984375 10.5 
Q 14.703125 8.734375 18.5 7.8125 
Q 22.3125 6.890625 25.984375 6.890625 
Q 35.75 6.890625 40.890625 13.453125 
Q 46.046875 20.015625 46.78125 33.40625 
Q 43.953125 29.203125 39.59375 26.953125 
Q 35.25 24.703125 29.984375 24.703125 
Q 19.046875 24.703125 12.671875 31.3125 
Q 6.296875 37.9375 6.296875 49.421875 
Q 6.296875 60.640625 12.9375 67.421875 
Q 19.578125 74.21875 30.609375 74.21875 
Q 43.265625 74.21875 49.921875 64.515625 
Q 56.59375 54.828125 56.59375 36.375 
Q 56.59375 19.140625 48.40625 8.859375 
Q 40.234375 -1.421875 26.421875 -1.421875 
Q 22.703125 -1.421875 18.890625 -0.6875 
Q 15.09375 0.046875 10.984375 1.515625 
z
M 30.609375 32.421875 
Q 37.25 32.421875 41.125 36.953125 
Q 45.015625 41.5 45.015625 49.421875 
Q 45.015625 57.28125 41.125 61.84375 
Q 37.25 66.40625 30.609375 66.40625 
Q 23.96875 66.40625 20.09375 61.84375 
Q 16.21875 57.28125 16.21875 49.421875 
Q 16.21875 41.5 20.09375 36.953125 
Q 23.96875 32.421875 30.609375 32.421875 
z
" id="DejaVuSans-57"/>
     </defs>
     <use xlink:href="#DejaVuSans-98"/>
     <use x="63.476562" xlink:href="#DejaVuSans-98"/>
     <use x="126.953125" xlink:href="#DejaVuSans-111"/>
     <use x="188.134766" xlink:href="#DejaVuSans-98"/>
     <use x="251.611328" xlink:href="#DejaVuSans-45"/>
     <use x="287.695312" xlink:href="#DejaVuSans-98"/>
     <use x="351.171875" xlink:href="#DejaVuSans-105"/>
     <use x="378.955078" xlink:href="#DejaVuSans-111"/>
     <use x="440.136719" xlink:href="#DejaVuSans-98"/>
     <use x="503.613281" xlink:href="#DejaVuSans-106"/>
     <use x="531.396484" xlink:href="#DejaVuSans-32"/>
     <use x="563.183594" xlink:href="#DejaVuSans-102"/>
     <use x="598.388672" xlink:href="#DejaVuSans-50"/>
     <use x="662.011719" xlink:href="#DejaVuSans-57"/>
    </g>
    <!-- 58 targets: 1..-1.0e-4 -->
    <g transform="translate(60.41088 49.533135)scale(0.102 -0.102)">
     <defs>
      <path d="M 11.71875 12.40625 
L 22.015625 12.40625 
L 22.015625 0 
L 11.71875 0 
z
M 11.71875 51.703125 
L 22.015625 51.703125 
L 22.015625 39.3125 
L 11.71875 39.3125 
z
" id="DejaVuSans-58"/>
     </defs>
     <use xlink:href="#DejaVuSans-53"/>
     <use x="63.623047" xlink:href="#DejaVuSans-56"/>
     <use x="127.246094" xlink:href="#DejaVuSans-32"/>
     <use x="159.033203" xlink:href="#DejaVuSans-116"/>
     <use x="198.242188" xlink:href="#DejaVuSans-97"/>
     <use x="259.521484" xlink:href="#DejaVuSans-114"/>
     <use x="298.884766" xlink:href="#DejaVuSans-103"/>
     <use x="362.361328" xlink:href="#DejaVuSans-101"/>
     <use x="423.884766" xlink:href="#DejaVuSans-116"/>
     <use x="463.09375" xlink:href="#DejaVuSans-115"/>
     <use x="515.193359" xlink:href="#DejaVuSans-58"/>
     <use x="548.884766" xlink:href="#DejaVuSans-32"/>
     <use x="580.671875" xlink:href="#DejaVuSans-49"/>
     <use x="644.294922" xlink:href="#DejaVuSans-46"/>
     <use x="676.082031" xlink:href="#DejaVuSans-46"/>
     <use x="707.869141" xlink:href="#DejaVuSans-45"/>
     <use x="743.953125" xlink:href="#DejaVuSans-49"/>
     <use x="807.576172" xlink:href="#DejaVuSans-46"/>
     <use x="839.363281" xlink:href="#DejaVuSans-48"/>
     <use x="902.986328" xlink:href="#DejaVuSans-101"/>
     <use x="964.509766" xlink:href="#DejaVuSans-45"/>
     <use x="1000.59375" xlink:href="#DejaVuSans-52"/>
    </g>
    <!-- 10 instances -->
    <g transform="translate(60.41088 60.954904)scale(0.102 -0.102)">
     <use xlink:href="#DejaVuSans-49"/>
     <use x="63.623047" xlink:href="#DejaVuSans-48"/>
     <use x="127.246094" xlink:href="#DejaVuSans-32"/>
     <use x="159.033203" xlink:href="#DejaVuSans-105"/>
     <use x="186.816406" xlink:href="#DejaVuSans-110"/>
     <use x="250.195312" xlink:href="#DejaVuSans-115"/>
     <use x="302.294922" xlink:href="#DejaVuSans-116"/>
     <use x="341.503906" xlink:href="#DejaVuSans-97"/>
     <use x="402.783203" xlink:href="#DejaVuSans-110"/>
     <use x="466.162109" xlink:href="#DejaVuSans-99"/>
     <use x="521.142578" xlink:href="#DejaVuSans-101"/>
     <use x="582.666016" xlink:href="#DejaVuSans-115"/>
    </g>
   </g>
   <g id="text_19">
    <!-- v2.4, hv-hash=ff0e71e8cd978373 -->
    <g style="fill:#808080;" transform="translate(112.648687 294.151352)scale(0.1 -0.1)">
     <defs>
      <path d="M 54.890625 33.015625 
L 54.890625 0 
L 45.90625 0 
L 45.90625 32.71875 
Q 45.90625 40.484375 42.875 44.328125 
Q 39.84375 48.1875 33.796875 48.1875 
Q 26.515625 48.1875 22.3125 43.546875 
Q 18.109375 38.921875 18.109375 30.90625 
L 18.109375 0 
L 9.078125 0 
L 9.078125 75.984375 
L 18.109375 75.984375 
L 18.109375 46.1875 
Q 21.34375 51.125 25.703125 53.5625 
Q 30.078125 56 35.796875 56 
Q 45.21875 56 50.046875 50.171875 
Q 54.890625 44.34375 54.890625 33.015625 
z
" id="DejaVuSans-104"/>
      <path d="M 10.59375 45.40625 
L 73.1875 45.40625 
L 73.1875 37.203125 
L 10.59375 37.203125 
z
M 10.59375 25.484375 
L 73.1875 25.484375 
L 73.1875 17.1875 
L 10.59375 17.1875 
z
" id="DejaVuSans-61"/>
      <path d="M 8.203125 72.90625 
L 55.078125 72.90625 
L 55.078125 68.703125 
L 28.609375 0 
L 18.3125 0 
L 43.21875 64.59375 
L 8.203125 64.59375 
z
" id="DejaVuSans-55"/>
     </defs>
     <use xlink:href="#DejaVuSans-118"/>
     <use x="59.179688" xlink:href="#DejaVuSans-50"/>
     <use x="122.802734" xlink:href="#DejaVuSans-46"/>
     <use x="154.589844" xlink:href="#DejaVuSans-52"/>
     <use x="218.212891" xlink:href="#DejaVuSans-44"/>
     <use x="250" xlink:href="#DejaVuSans-32"/>
     <use x="281.787109" xlink:href="#DejaVuSans-104"/>
     <use x="345.166016" xlink:href="#DejaVuSans-118"/>
     <use x="401.720703" xlink:href="#DejaVuSans-45"/>
     <use x="437.804688" xlink:href="#DejaVuSans-104"/>
     <use x="501.183594" xlink:href="#DejaVuSans-97"/>
     <use x="562.462891" xlink:href="#DejaVuSans-115"/>
     <use x="614.5625" xlink:href="#DejaVuSans-104"/>
     <use x="677.941406" xlink:href="#DejaVuSans-61"/>
     <use x="761.730469" xlink:href="#DejaVuSans-102"/>
     <use x="796.935547" xlink:href="#DejaVuSans-102"/>
     <use x="832.140625" xlink:href="#DejaVuSans-48"/>
     <use x="895.763672" xlink:href="#DejaVuSans-101"/>
     <use x="957.287109" xlink:href="#DejaVuSans-55"/>
     <use x="1020.910156" xlink:href="#DejaVuSans-49"/>
     <use x="1084.533203" xlink:href="#DejaVuSans-101"/>
     <use x="1146.056641" xlink:href="#DejaVuSans-56"/>
     <use x="1209.679688" xlink:href="#DejaVuSans-99"/>
     <use x="1264.660156" xlink:href="#DejaVuSans-100"/>
     <use x="1328.136719" xlink:href="#DejaVuSans-57"/>
     <use x="1391.759766" xlink:href="#DejaVuSans-55"/>
     <use x="1455.382812" xlink:href="#DejaVuSans-56"/>
     <use x="1519.005859" xlink:href="#DejaVuSans-51"/>
     <use x="1582.628906" xlink:href="#DejaVuSans-55"/>
     <use x="1646.251953" xlink:href="#DejaVuSans-51"/>
    </g>
   </g>
   <g id="text_20">
    <!-- 29 Rosenbrock/Sharp ridge -->
    <g transform="translate(62.722125 21.648)scale(0.2 -0.2)">
     <defs>
      <path d="M 44.390625 34.1875 
Q 47.5625 33.109375 50.5625 29.59375 
Q 53.5625 26.078125 56.59375 19.921875 
L 66.609375 0 
L 56 0 
L 46.6875 18.703125 
Q 43.0625 26.03125 39.671875 28.421875 
Q 36.28125 30.8125 30.421875 30.8125 
L 19.671875 30.8125 
L 19.671875 0 
L 9.8125 0 
L 9.8125 72.90625 
L 32.078125 72.90625 
Q 44.578125 72.90625 50.734375 67.671875 
Q 56.890625 62.453125 56.890625 51.90625 
Q 56.890625 45.015625 53.6875 40.46875 
Q 50.484375 35.9375 44.390625 34.1875 
z
M 19.671875 64.796875 
L 19.671875 38.921875 
L 32.078125 38.921875 
Q 39.203125 38.921875 42.84375 42.21875 
Q 46.484375 45.515625 46.484375 51.90625 
Q 46.484375 58.296875 42.84375 61.546875 
Q 39.203125 64.796875 32.078125 64.796875 
z
" id="DejaVuSans-82"/>
      <path d="M 9.078125 75.984375 
L 18.109375 75.984375 
L 18.109375 31.109375 
L 44.921875 54.6875 
L 56.390625 54.6875 
L 27.390625 29.109375 
L 57.625 0 
L 45.90625 0 
L 18.109375 26.703125 
L 18.109375 0 
L 9.078125 0 
z
" id="DejaVuSans-107"/>
      <path d="M 53.515625 70.515625 
L 53.515625 60.890625 
Q 47.90625 63.578125 42.921875 64.890625 
Q 37.9375 66.21875 33.296875 66.21875 
Q 25.25 66.21875 20.875 63.09375 
Q 16.5 59.96875 16.5 54.203125 
Q 16.5 49.359375 19.40625 46.890625 
Q 22.3125 44.4375 30.421875 42.921875 
L 36.375 41.703125 
Q 47.40625 39.59375 52.65625 34.296875 
Q 57.90625 29 57.90625 20.125 
Q 57.90625 9.515625 50.796875 4.046875 
Q 43.703125 -1.421875 29.984375 -1.421875 
Q 24.8125 -1.421875 18.96875 -0.25 
Q 13.140625 0.921875 6.890625 3.21875 
L 6.890625 13.375 
Q 12.890625 10.015625 18.65625 8.296875 
Q 24.421875 6.59375 29.984375 6.59375 
Q 38.421875 6.59375 43.015625 9.90625 
Q 47.609375 13.234375 47.609375 19.390625 
Q 47.609375 24.75 44.3125 27.78125 
Q 41.015625 30.8125 33.5 32.328125 
L 27.484375 33.5 
Q 16.453125 35.6875 11.515625 40.375 
Q 6.59375 45.0625 6.59375 53.421875 
Q 6.59375 63.09375 13.40625 68.65625 
Q 20.21875 74.21875 32.171875 74.21875 
Q 37.3125 74.21875 42.625 73.28125 
Q 47.953125 72.359375 53.515625 70.515625 
z
" id="DejaVuSans-83"/>
     </defs>
     <use xlink:href="#DejaVuSans-50"/>
     <use x="63.623047" xlink:href="#DejaVuSans-57"/>
     <use x="127.246094" xlink:href="#DejaVuSans-32"/>
     <use x="159.033203" xlink:href="#DejaVuSans-82"/>
     <use x="224.015625" xlink:href="#DejaVuSans-111"/>
     <use x="285.197266" xlink:href="#DejaVuSans-115"/>
     <use x="337.296875" xlink:href="#DejaVuSans-101"/>
     <use x="398.820312" xlink:href="#DejaVuSans-110"/>
     <use x="462.199219" xlink:href="#DejaVuSans-98"/>
     <use x="525.675781" xlink:href="#DejaVuSans-114"/>
     <use x="564.539062" xlink:href="#DejaVuSans-111"/>
     <use x="625.720703" xlink:href="#DejaVuSans-99"/>
     <use x="680.701172" xlink:href="#DejaVuSans-107"/>
     <use x="738.611328" xlink:href="#DejaVuSans-47"/>
     <use x="772.302734" xlink:href="#DejaVuSans-83"/>
     <use x="835.779297" xlink:href="#DejaVuSans-104"/>
     <use x="899.158203" xlink:href="#DejaVuSans-97"/>
     <use x="960.4375" xlink:href="#DejaVuSans-114"/>
     <use x="1001.550781" xlink:href="#DejaVuSans-112"/>
     <use x="1065.027344" xlink:href="#DejaVuSans-32"/>
     <use x="1096.814453" xlink:href="#DejaVuSans-114"/>
     <use x="1137.927734" xlink:href="#DejaVuSans-105"/>
     <use x="1165.710938" xlink:href="#DejaVuSans-100"/>
     <use x="1229.1875" xlink:href="#DejaVuSans-103"/>
     <use x="1292.664062" xlink:href="#DejaVuSans-101"/>
    </g>
   </g>
  </g>
 </g>
 <defs>
  <clipPath id="pb5607fcf8f">
   <rect height="271.296" width="281.088" x="57.6" y="27.648"/>
  </clipPath>
 </defs>
</svg>
