<?xml version="1.0" encoding="utf-8" standalone="no"?>
<!DOCTYPE svg PUBLIC "-//W3C//DTD SVG 1.1//EN"
  "http://www.w3.org/Graphics/SVG/1.1/DTD/svg11.dtd">
<!-- Created with matplotlib (https://matplotlib.org/) -->
<svg height="345.6pt" version="1.1" viewBox="0 0 460.8 345.6" width="460.8pt" xmlns="http://www.w3.org/2000/svg" xmlns:xlink="http://www.w3.org/1999/xlink">
 <metadata>
  <rdf:RDF xmlns:cc="http://creativecommons.org/ns#" xmlns:dc="http://purl.org/dc/elements/1.1/" xmlns:rdf="http://www.w3.org/1999/02/22-rdf-syntax-ns#">
   <cc:Work>
    <dc:type rdf:resource="http://purl.org/dc/dcmitype/StillImage"/>
    <dc:date>2021-03-30T16:55:21.442296</dc:date>
    <dc:format>image/svg+xml</dc:format>
    <dc:creator>
     <cc:Agent>
      <dc:title>Matplotlib v3.3.4, https://matplotlib.org/</dc:title>
     </cc:Agent>
    </dc:creator>
   </cc:Work>
  </rdf:RDF>
 </metadata>
 <defs>
  <style type="text/css">*{stroke-linecap:butt;stroke-linejoin:round;}</style>
 </defs>
 <g id="figure_1">
  <g id="patch_1">
   <path d="M 0 345.6 
L 460.8 345.6 
L 460.8 0 
L 0 0 
z
" style="fill:#ffffff;"/>
  </g>
  <g id="axes_1">
   <g id="patch_2">
    <path d="M 57.6 298.944 
L 338.688 298.944 
L 338.688 3.456 
L 57.6 3.456 
z
" style="fill:#ffffff;"/>
   </g>
   <g id="matplotlib.axis_1">
    <g id="xtick_1">
     <g id="line2d_1">
      <path clip-path="url(#p6c73f6968f)" d="M 57.6 298.944 
L 57.6 3.456 
" style="fill:none;stroke:#b0b0b0;stroke-linecap:square;stroke-width:0.8;"/>
     </g>
     <g id="line2d_2">
      <defs>
       <path d="M 0 0 
L 0 3.5 
" id="m1f8afbccbc" style="stroke:#000000;stroke-width:0.8;"/>
      </defs>
      <g>
       <use style="stroke:#000000;stroke-width:0.8;" x="57.6" xlink:href="#m1f8afbccbc" y="298.944"/>
      </g>
     </g>
     <g id="text_1">
      <!-- 0 -->
      <g transform="translate(51.2375 321.140875)scale(0.2 -0.2)">
       <defs>
        <path d="M 31.78125 66.40625 
Q 24.171875 66.40625 20.328125 58.90625 
Q 16.5 51.421875 16.5 36.375 
Q 16.5 21.390625 20.328125 13.890625 
Q 24.171875 6.390625 31.78125 6.390625 
Q 39.453125 6.390625 43.28125 13.890625 
Q 47.125 21.390625 47.125 36.375 
Q 47.125 51.421875 43.28125 58.90625 
Q 39.453125 66.40625 31.78125 66.40625 
z
M 31.78125 74.21875 
Q 44.046875 74.21875 50.515625 64.515625 
Q 56.984375 54.828125 56.984375 36.375 
Q 56.984375 17.96875 50.515625 8.265625 
Q 44.046875 -1.421875 31.78125 -1.421875 
Q 19.53125 -1.421875 13.0625 8.265625 
Q 6.59375 17.96875 6.59375 36.375 
Q 6.59375 54.828125 13.0625 64.515625 
Q 19.53125 74.21875 31.78125 74.21875 
z
" id="DejaVuSans-48"/>
       </defs>
       <use xlink:href="#DejaVuSans-48"/>
      </g>
     </g>
    </g>
    <g id="xtick_2">
     <g id="line2d_3">
      <path clip-path="url(#p6c73f6968f)" d="M 137.910857 298.944 
L 137.910857 3.456 
" style="fill:none;stroke:#b0b0b0;stroke-linecap:square;stroke-width:0.8;"/>
     </g>
     <g id="line2d_4">
      <g>
       <use style="stroke:#000000;stroke-width:0.8;" x="137.910857" xlink:href="#m1f8afbccbc" y="298.944"/>
      </g>
     </g>
     <g id="text_2">
      <!-- 2 -->
      <g transform="translate(131.548357 321.140875)scale(0.2 -0.2)">
       <defs>
        <path d="M 19.1875 8.296875 
L 53.609375 8.296875 
L 53.609375 0 
L 7.328125 0 
L 7.328125 8.296875 
Q 12.9375 14.109375 22.625 23.890625 
Q 32.328125 33.6875 34.8125 36.53125 
Q 39.546875 41.84375 41.421875 45.53125 
Q 43.3125 49.21875 43.3125 52.78125 
Q 43.3125 58.59375 39.234375 62.25 
Q 35.15625 65.921875 28.609375 65.921875 
Q 23.96875 65.921875 18.8125 64.3125 
Q 13.671875 62.703125 7.8125 59.421875 
L 7.8125 69.390625 
Q 13.765625 71.78125 18.9375 73 
Q 24.125 74.21875 28.421875 74.21875 
Q 39.75 74.21875 46.484375 68.546875 
Q 53.21875 62.890625 53.21875 53.421875 
Q 53.21875 48.921875 51.53125 44.890625 
Q 49.859375 40.875 45.40625 35.40625 
Q 44.1875 33.984375 37.640625 27.21875 
Q 31.109375 20.453125 19.1875 8.296875 
z
" id="DejaVuSans-50"/>
       </defs>
       <use xlink:href="#DejaVuSans-50"/>
      </g>
     </g>
    </g>
    <g id="xtick_3">
     <g id="line2d_5">
      <path clip-path="url(#p6c73f6968f)" d="M 218.221714 298.944 
L 218.221714 3.456 
" style="fill:none;stroke:#b0b0b0;stroke-linecap:square;stroke-width:0.8;"/>
     </g>
     <g id="line2d_6">
      <g>
       <use style="stroke:#000000;stroke-width:0.8;" x="218.221714" xlink:href="#m1f8afbccbc" y="298.944"/>
      </g>
     </g>
     <g id="text_3">
      <!-- 4 -->
      <g transform="translate(211.859214 321.140875)scale(0.2 -0.2)">
       <defs>
        <path d="M 37.796875 64.3125 
L 12.890625 25.390625 
L 37.796875 25.390625 
z
M 35.203125 72.90625 
L 47.609375 72.90625 
L 47.609375 25.390625 
L 58.015625 25.390625 
L 58.015625 17.1875 
L 47.609375 17.1875 
L 47.609375 0 
L 37.796875 0 
L 37.796875 17.1875 
L 4.890625 17.1875 
L 4.890625 26.703125 
z
" id="DejaVuSans-52"/>
       </defs>
       <use xlink:href="#DejaVuSans-52"/>
      </g>
     </g>
    </g>
    <g id="xtick_4">
     <g id="line2d_7">
      <path clip-path="url(#p6c73f6968f)" d="M 298.532571 298.944 
L 298.532571 3.456 
" style="fill:none;stroke:#b0b0b0;stroke-linecap:square;stroke-width:0.8;"/>
     </g>
     <g id="line2d_8">
      <g>
       <use style="stroke:#000000;stroke-width:0.8;" x="298.532571" xlink:href="#m1f8afbccbc" y="298.944"/>
      </g>
     </g>
     <g id="text_4">
      <!-- 6 -->
      <g transform="translate(292.170071 321.140875)scale(0.2 -0.2)">
       <defs>
        <path d="M 33.015625 40.375 
Q 26.375 40.375 22.484375 35.828125 
Q 18.609375 31.296875 18.609375 23.390625 
Q 18.609375 15.53125 22.484375 10.953125 
Q 26.375 6.390625 33.015625 6.390625 
Q 39.65625 6.390625 43.53125 10.953125 
Q 47.40625 15.53125 47.40625 23.390625 
Q 47.40625 31.296875 43.53125 35.828125 
Q 39.65625 40.375 33.015625 40.375 
z
M 52.59375 71.296875 
L 52.59375 62.3125 
Q 48.875 64.0625 45.09375 64.984375 
Q 41.3125 65.921875 37.59375 65.921875 
Q 27.828125 65.921875 22.671875 59.328125 
Q 17.53125 52.734375 16.796875 39.40625 
Q 19.671875 43.65625 24.015625 45.921875 
Q 28.375 48.1875 33.59375 48.1875 
Q 44.578125 48.1875 50.953125 41.515625 
Q 57.328125 34.859375 57.328125 23.390625 
Q 57.328125 12.15625 50.6875 5.359375 
Q 44.046875 -1.421875 33.015625 -1.421875 
Q 20.359375 -1.421875 13.671875 8.265625 
Q 6.984375 17.96875 6.984375 36.375 
Q 6.984375 53.65625 15.1875 63.9375 
Q 23.390625 74.21875 37.203125 74.21875 
Q 40.921875 74.21875 44.703125 73.484375 
Q 48.484375 72.75 52.59375 71.296875 
z
" id="DejaVuSans-54"/>
       </defs>
       <use xlink:href="#DejaVuSans-54"/>
      </g>
     </g>
    </g>
    <g id="xtick_5">
     <g id="line2d_9">
      <path clip-path="url(#p6c73f6968f)" d="M 97.755429 298.944 
L 97.755429 3.456 
" style="fill:none;stroke:#b0b0b0;stroke-linecap:square;stroke-width:0.8;"/>
     </g>
     <g id="line2d_10">
      <defs>
       <path d="M 0 0 
L 0 2 
" id="mc39ad83ea0" style="stroke:#000000;stroke-width:0.6;"/>
      </defs>
      <g>
       <use style="stroke:#000000;stroke-width:0.6;" x="97.755429" xlink:href="#mc39ad83ea0" y="298.944"/>
      </g>
     </g>
    </g>
    <g id="xtick_6">
     <g id="line2d_11">
      <path clip-path="url(#p6c73f6968f)" d="M 178.066286 298.944 
L 178.066286 3.456 
" style="fill:none;stroke:#b0b0b0;stroke-linecap:square;stroke-width:0.8;"/>
     </g>
     <g id="line2d_12">
      <g>
       <use style="stroke:#000000;stroke-width:0.6;" x="178.066286" xlink:href="#mc39ad83ea0" y="298.944"/>
      </g>
     </g>
    </g>
    <g id="xtick_7">
     <g id="line2d_13">
      <path clip-path="url(#p6c73f6968f)" d="M 258.377143 298.944 
L 258.377143 3.456 
" style="fill:none;stroke:#b0b0b0;stroke-linecap:square;stroke-width:0.8;"/>
     </g>
     <g id="line2d_14">
      <g>
       <use style="stroke:#000000;stroke-width:0.6;" x="258.377143" xlink:href="#mc39ad83ea0" y="298.944"/>
      </g>
     </g>
    </g>
    <g id="xtick_8">
     <g id="line2d_15">
      <path clip-path="url(#p6c73f6968f)" d="M 338.688 298.944 
L 338.688 3.456 
" style="fill:none;stroke:#b0b0b0;stroke-linecap:square;stroke-width:0.8;"/>
     </g>
     <g id="line2d_16">
      <g>
       <use style="stroke:#000000;stroke-width:0.6;" x="338.688" xlink:href="#mc39ad83ea0" y="298.944"/>
      </g>
     </g>
    </g>
    <g id="text_5">
     <!-- log10(# f-evals / dimension) -->
     <g transform="translate(77.764078 342.217594)scale(0.17 -0.17)">
      <defs>
       <path d="M 9.421875 75.984375 
L 18.40625 75.984375 
L 18.40625 0 
L 9.421875 0 
z
" id="DejaVuSans-108"/>
       <path d="M 30.609375 48.390625 
Q 23.390625 48.390625 19.1875 42.75 
Q 14.984375 37.109375 14.984375 27.296875 
Q 14.984375 17.484375 19.15625 11.84375 
Q 23.34375 6.203125 30.609375 6.203125 
Q 37.796875 6.203125 41.984375 11.859375 
Q 46.1875 17.53125 46.1875 27.296875 
Q 46.1875 37.015625 41.984375 42.703125 
Q 37.796875 48.390625 30.609375 48.390625 
z
M 30.609375 56 
Q 42.328125 56 49.015625 48.375 
Q 55.71875 40.765625 55.71875 27.296875 
Q 55.71875 13.875 49.015625 6.21875 
Q 42.328125 -1.421875 30.609375 -1.421875 
Q 18.84375 -1.421875 12.171875 6.21875 
Q 5.515625 13.875 5.515625 27.296875 
Q 5.515625 40.765625 12.171875 48.375 
Q 18.84375 56 30.609375 56 
z
" id="DejaVuSans-111"/>
       <path d="M 45.40625 27.984375 
Q 45.40625 37.75 41.375 43.109375 
Q 37.359375 48.484375 30.078125 48.484375 
Q 22.859375 48.484375 18.828125 43.109375 
Q 14.796875 37.75 14.796875 27.984375 
Q 14.796875 18.265625 18.828125 12.890625 
Q 22.859375 7.515625 30.078125 7.515625 
Q 37.359375 7.515625 41.375 12.890625 
Q 45.40625 18.265625 45.40625 27.984375 
z
M 54.390625 6.78125 
Q 54.390625 -7.171875 48.1875 -13.984375 
Q 42 -20.796875 29.203125 -20.796875 
Q 24.46875 -20.796875 20.265625 -20.09375 
Q 16.0625 -19.390625 12.109375 -17.921875 
L 12.109375 -9.1875 
Q 16.0625 -11.328125 19.921875 -12.34375 
Q 23.78125 -13.375 27.78125 -13.375 
Q 36.625 -13.375 41.015625 -8.765625 
Q 45.40625 -4.15625 45.40625 5.171875 
L 45.40625 9.625 
Q 42.625 4.78125 38.28125 2.390625 
Q 33.9375 0 27.875 0 
Q 17.828125 0 11.671875 7.65625 
Q 5.515625 15.328125 5.515625 27.984375 
Q 5.515625 40.671875 11.671875 48.328125 
Q 17.828125 56 27.875 56 
Q 33.9375 56 38.28125 53.609375 
Q 42.625 51.21875 45.40625 46.390625 
L 45.40625 54.6875 
L 54.390625 54.6875 
z
" id="DejaVuSans-103"/>
       <path d="M 12.40625 8.296875 
L 28.515625 8.296875 
L 28.515625 63.921875 
L 10.984375 60.40625 
L 10.984375 69.390625 
L 28.421875 72.90625 
L 38.28125 72.90625 
L 38.28125 8.296875 
L 54.390625 8.296875 
L 54.390625 0 
L 12.40625 0 
z
" id="DejaVuSans-49"/>
       <path d="M 31 75.875 
Q 24.46875 64.65625 21.28125 53.65625 
Q 18.109375 42.671875 18.109375 31.390625 
Q 18.109375 20.125 21.3125 9.0625 
Q 24.515625 -2 31 -13.1875 
L 23.1875 -13.1875 
Q 15.875 -1.703125 12.234375 9.375 
Q 8.59375 20.453125 8.59375 31.390625 
Q 8.59375 42.28125 12.203125 53.3125 
Q 15.828125 64.359375 23.1875 75.875 
z
" id="DejaVuSans-40"/>
       <path d="M 51.125 44 
L 36.921875 44 
L 32.8125 27.6875 
L 47.125 27.6875 
z
M 43.796875 71.78125 
L 38.71875 51.515625 
L 52.984375 51.515625 
L 58.109375 71.78125 
L 65.921875 71.78125 
L 60.890625 51.515625 
L 76.125 51.515625 
L 76.125 44 
L 58.984375 44 
L 54.984375 27.6875 
L 70.515625 27.6875 
L 70.515625 20.21875 
L 53.078125 20.21875 
L 48 0 
L 40.1875 0 
L 45.21875 20.21875 
L 30.90625 20.21875 
L 25.875 0 
L 18.015625 0 
L 23.09375 20.21875 
L 7.71875 20.21875 
L 7.71875 27.6875 
L 24.90625 27.6875 
L 29 44 
L 13.28125 44 
L 13.28125 51.515625 
L 30.90625 51.515625 
L 35.890625 71.78125 
z
" id="DejaVuSans-35"/>
       <path id="DejaVuSans-32"/>
       <path d="M 37.109375 75.984375 
L 37.109375 68.5 
L 28.515625 68.5 
Q 23.6875 68.5 21.796875 66.546875 
Q 19.921875 64.59375 19.921875 59.515625 
L 19.921875 54.6875 
L 34.71875 54.6875 
L 34.71875 47.703125 
L 19.921875 47.703125 
L 19.921875 0 
L 10.890625 0 
L 10.890625 47.703125 
L 2.296875 47.703125 
L 2.296875 54.6875 
L 10.890625 54.6875 
L 10.890625 58.5 
Q 10.890625 67.625 15.140625 71.796875 
Q 19.390625 75.984375 28.609375 75.984375 
z
" id="DejaVuSans-102"/>
       <path d="M 4.890625 31.390625 
L 31.203125 31.390625 
L 31.203125 23.390625 
L 4.890625 23.390625 
z
" id="DejaVuSans-45"/>
       <path d="M 56.203125 29.59375 
L 56.203125 25.203125 
L 14.890625 25.203125 
Q 15.484375 15.921875 20.484375 11.0625 
Q 25.484375 6.203125 34.421875 6.203125 
Q 39.59375 6.203125 44.453125 7.46875 
Q 49.3125 8.734375 54.109375 11.28125 
L 54.109375 2.78125 
Q 49.265625 0.734375 44.1875 -0.34375 
Q 39.109375 -1.421875 33.890625 -1.421875 
Q 20.796875 -1.421875 13.15625 6.1875 
Q 5.515625 13.8125 5.515625 26.8125 
Q 5.515625 40.234375 12.765625 48.109375 
Q 20.015625 56 32.328125 56 
Q 43.359375 56 49.78125 48.890625 
Q 56.203125 41.796875 56.203125 29.59375 
z
M 47.21875 32.234375 
Q 47.125 39.59375 43.09375 43.984375 
Q 39.0625 48.390625 32.421875 48.390625 
Q 24.90625 48.390625 20.390625 44.140625 
Q 15.875 39.890625 15.1875 32.171875 
z
" id="DejaVuSans-101"/>
       <path d="M 2.984375 54.6875 
L 12.5 54.6875 
L 29.59375 8.796875 
L 46.6875 54.6875 
L 56.203125 54.6875 
L 35.6875 0 
L 23.484375 0 
z
" id="DejaVuSans-118"/>
       <path d="M 34.28125 27.484375 
Q 23.390625 27.484375 19.1875 25 
Q 14.984375 22.515625 14.984375 16.5 
Q 14.984375 11.71875 18.140625 8.90625 
Q 21.296875 6.109375 26.703125 6.109375 
Q 34.1875 6.109375 38.703125 11.40625 
Q 43.21875 16.703125 43.21875 25.484375 
L 43.21875 27.484375 
z
M 52.203125 31.203125 
L 52.203125 0 
L 43.21875 0 
L 43.21875 8.296875 
Q 40.140625 3.328125 35.546875 0.953125 
Q 30.953125 -1.421875 24.3125 -1.421875 
Q 15.921875 -1.421875 10.953125 3.296875 
Q 6 8.015625 6 15.921875 
Q 6 25.140625 12.171875 29.828125 
Q 18.359375 34.515625 30.609375 34.515625 
L 43.21875 34.515625 
L 43.21875 35.40625 
Q 43.21875 41.609375 39.140625 45 
Q 35.0625 48.390625 27.6875 48.390625 
Q 23 48.390625 18.546875 47.265625 
Q 14.109375 46.140625 10.015625 43.890625 
L 10.015625 52.203125 
Q 14.9375 54.109375 19.578125 55.046875 
Q 24.21875 56 28.609375 56 
Q 40.484375 56 46.34375 49.84375 
Q 52.203125 43.703125 52.203125 31.203125 
z
" id="DejaVuSans-97"/>
       <path d="M 44.28125 53.078125 
L 44.28125 44.578125 
Q 40.484375 46.53125 36.375 47.5 
Q 32.28125 48.484375 27.875 48.484375 
Q 21.1875 48.484375 17.84375 46.4375 
Q 14.5 44.390625 14.5 40.28125 
Q 14.5 37.15625 16.890625 35.375 
Q 19.28125 33.59375 26.515625 31.984375 
L 29.59375 31.296875 
Q 39.15625 29.25 43.1875 25.515625 
Q 47.21875 21.78125 47.21875 15.09375 
Q 47.21875 7.46875 41.1875 3.015625 
Q 35.15625 -1.421875 24.609375 -1.421875 
Q 20.21875 -1.421875 15.453125 -0.5625 
Q 10.6875 0.296875 5.421875 2 
L 5.421875 11.28125 
Q 10.40625 8.6875 15.234375 7.390625 
Q 20.0625 6.109375 24.8125 6.109375 
Q 31.15625 6.109375 34.5625 8.28125 
Q 37.984375 10.453125 37.984375 14.40625 
Q 37.984375 18.0625 35.515625 20.015625 
Q 33.0625 21.96875 24.703125 23.78125 
L 21.578125 24.515625 
Q 13.234375 26.265625 9.515625 29.90625 
Q 5.8125 33.546875 5.8125 39.890625 
Q 5.8125 47.609375 11.28125 51.796875 
Q 16.75 56 26.8125 56 
Q 31.78125 56 36.171875 55.265625 
Q 40.578125 54.546875 44.28125 53.078125 
z
" id="DejaVuSans-115"/>
       <path d="M 25.390625 72.90625 
L 33.6875 72.90625 
L 8.296875 -9.28125 
L 0 -9.28125 
z
" id="DejaVuSans-47"/>
       <path d="M 45.40625 46.390625 
L 45.40625 75.984375 
L 54.390625 75.984375 
L 54.390625 0 
L 45.40625 0 
L 45.40625 8.203125 
Q 42.578125 3.328125 38.25 0.953125 
Q 33.9375 -1.421875 27.875 -1.421875 
Q 17.96875 -1.421875 11.734375 6.484375 
Q 5.515625 14.40625 5.515625 27.296875 
Q 5.515625 40.1875 11.734375 48.09375 
Q 17.96875 56 27.875 56 
Q 33.9375 56 38.25 53.625 
Q 42.578125 51.265625 45.40625 46.390625 
z
M 14.796875 27.296875 
Q 14.796875 17.390625 18.875 11.75 
Q 22.953125 6.109375 30.078125 6.109375 
Q 37.203125 6.109375 41.296875 11.75 
Q 45.40625 17.390625 45.40625 27.296875 
Q 45.40625 37.203125 41.296875 42.84375 
Q 37.203125 48.484375 30.078125 48.484375 
Q 22.953125 48.484375 18.875 42.84375 
Q 14.796875 37.203125 14.796875 27.296875 
z
" id="DejaVuSans-100"/>
       <path d="M 9.421875 54.6875 
L 18.40625 54.6875 
L 18.40625 0 
L 9.421875 0 
z
M 9.421875 75.984375 
L 18.40625 75.984375 
L 18.40625 64.59375 
L 9.421875 64.59375 
z
" id="DejaVuSans-105"/>
       <path d="M 52 44.1875 
Q 55.375 50.25 60.0625 53.125 
Q 64.75 56 71.09375 56 
Q 79.640625 56 84.28125 50.015625 
Q 88.921875 44.046875 88.921875 33.015625 
L 88.921875 0 
L 79.890625 0 
L 79.890625 32.71875 
Q 79.890625 40.578125 77.09375 44.375 
Q 74.3125 48.1875 68.609375 48.1875 
Q 61.625 48.1875 57.5625 43.546875 
Q 53.515625 38.921875 53.515625 30.90625 
L 53.515625 0 
L 44.484375 0 
L 44.484375 32.71875 
Q 44.484375 40.625 41.703125 44.40625 
Q 38.921875 48.1875 33.109375 48.1875 
Q 26.21875 48.1875 22.15625 43.53125 
Q 18.109375 38.875 18.109375 30.90625 
L 18.109375 0 
L 9.078125 0 
L 9.078125 54.6875 
L 18.109375 54.6875 
L 18.109375 46.1875 
Q 21.1875 51.21875 25.484375 53.609375 
Q 29.78125 56 35.6875 56 
Q 41.65625 56 45.828125 52.96875 
Q 50 49.953125 52 44.1875 
z
" id="DejaVuSans-109"/>
       <path d="M 54.890625 33.015625 
L 54.890625 0 
L 45.90625 0 
L 45.90625 32.71875 
Q 45.90625 40.484375 42.875 44.328125 
Q 39.84375 48.1875 33.796875 48.1875 
Q 26.515625 48.1875 22.3125 43.546875 
Q 18.109375 38.921875 18.109375 30.90625 
L 18.109375 0 
L 9.078125 0 
L 9.078125 54.6875 
L 18.109375 54.6875 
L 18.109375 46.1875 
Q 21.34375 51.125 25.703125 53.5625 
Q 30.078125 56 35.796875 56 
Q 45.21875 56 50.046875 50.171875 
Q 54.890625 44.34375 54.890625 33.015625 
z
" id="DejaVuSans-110"/>
       <path d="M 8.015625 75.875 
L 15.828125 75.875 
Q 23.140625 64.359375 26.78125 53.3125 
Q 30.421875 42.28125 30.421875 31.390625 
Q 30.421875 20.453125 26.78125 9.375 
Q 23.140625 -1.703125 15.828125 -13.1875 
L 8.015625 -13.1875 
Q 14.5 -2 17.703125 9.0625 
Q 20.90625 20.125 20.90625 31.390625 
Q 20.90625 42.671875 17.703125 53.65625 
Q 14.5 64.65625 8.015625 75.875 
z
" id="DejaVuSans-41"/>
      </defs>
      <use xlink:href="#DejaVuSans-108"/>
      <use x="27.783203" xlink:href="#DejaVuSans-111"/>
      <use x="88.964844" xlink:href="#DejaVuSans-103"/>
      <use x="152.441406" xlink:href="#DejaVuSans-49"/>
      <use x="216.064453" xlink:href="#DejaVuSans-48"/>
      <use x="279.6875" xlink:href="#DejaVuSans-40"/>
      <use x="318.701172" xlink:href="#DejaVuSans-35"/>
      <use x="402.490234" xlink:href="#DejaVuSans-32"/>
      <use x="434.277344" xlink:href="#DejaVuSans-102"/>
      <use x="463.982422" xlink:href="#DejaVuSans-45"/>
      <use x="500.066406" xlink:href="#DejaVuSans-101"/>
      <use x="561.589844" xlink:href="#DejaVuSans-118"/>
      <use x="620.769531" xlink:href="#DejaVuSans-97"/>
      <use x="682.048828" xlink:href="#DejaVuSans-108"/>
      <use x="709.832031" xlink:href="#DejaVuSans-115"/>
      <use x="761.931641" xlink:href="#DejaVuSans-32"/>
      <use x="793.71875" xlink:href="#DejaVuSans-47"/>
      <use x="827.410156" xlink:href="#DejaVuSans-32"/>
      <use x="859.197266" xlink:href="#DejaVuSans-100"/>
      <use x="922.673828" xlink:href="#DejaVuSans-105"/>
      <use x="950.457031" xlink:href="#DejaVuSans-109"/>
      <use x="1047.869141" xlink:href="#DejaVuSans-101"/>
      <use x="1109.392578" xlink:href="#DejaVuSans-110"/>
      <use x="1172.771484" xlink:href="#DejaVuSans-115"/>
      <use x="1224.871094" xlink:href="#DejaVuSans-105"/>
      <use x="1252.654297" xlink:href="#DejaVuSans-111"/>
      <use x="1313.835938" xlink:href="#DejaVuSans-110"/>
      <use x="1377.214844" xlink:href="#DejaVuSans-41"/>
     </g>
    </g>
   </g>
   <g id="matplotlib.axis_2">
    <g id="ytick_1">
     <g id="line2d_17">
      <path clip-path="url(#p6c73f6968f)" d="M 57.6 298.944 
L 338.688 298.944 
" style="fill:none;stroke:#b0b0b0;stroke-linecap:square;stroke-width:0.8;"/>
     </g>
     <g id="line2d_18">
      <defs>
       <path d="M 0 0 
L -3.5 0 
" id="m9763c41173" style="stroke:#000000;stroke-width:0.8;"/>
      </defs>
      <g>
       <use style="stroke:#000000;stroke-width:0.8;" x="57.6" xlink:href="#m9763c41173" y="298.944"/>
      </g>
     </g>
     <g id="text_6">
      <!-- 0.0 -->
      <g transform="translate(25.155 305.02275)scale(0.16 -0.16)">
       <defs>
        <path d="M 10.6875 12.40625 
L 21 12.40625 
L 21 0 
L 10.6875 0 
z
" id="DejaVuSans-46"/>
       </defs>
       <use xlink:href="#DejaVuSans-48"/>
       <use x="63.623047" xlink:href="#DejaVuSans-46"/>
       <use x="95.410156" xlink:href="#DejaVuSans-48"/>
      </g>
     </g>
    </g>
    <g id="ytick_2">
     <g id="line2d_19">
      <path clip-path="url(#p6c73f6968f)" d="M 57.6 240.431525 
L 338.688 240.431525 
" style="fill:none;stroke:#b0b0b0;stroke-linecap:square;stroke-width:0.8;"/>
     </g>
     <g id="line2d_20">
      <g>
       <use style="stroke:#000000;stroke-width:0.8;" x="57.6" xlink:href="#m9763c41173" y="240.431525"/>
      </g>
     </g>
     <g id="text_7">
      <!-- 0.2 -->
      <g transform="translate(25.155 246.510275)scale(0.16 -0.16)">
       <use xlink:href="#DejaVuSans-48"/>
       <use x="63.623047" xlink:href="#DejaVuSans-46"/>
       <use x="95.410156" xlink:href="#DejaVuSans-50"/>
      </g>
     </g>
    </g>
    <g id="ytick_3">
     <g id="line2d_21">
      <path clip-path="url(#p6c73f6968f)" d="M 57.6 181.91905 
L 338.688 181.91905 
" style="fill:none;stroke:#b0b0b0;stroke-linecap:square;stroke-width:0.8;"/>
     </g>
     <g id="line2d_22">
      <g>
       <use style="stroke:#000000;stroke-width:0.8;" x="57.6" xlink:href="#m9763c41173" y="181.91905"/>
      </g>
     </g>
     <g id="text_8">
      <!-- 0.4 -->
      <g transform="translate(25.155 187.9978)scale(0.16 -0.16)">
       <use xlink:href="#DejaVuSans-48"/>
       <use x="63.623047" xlink:href="#DejaVuSans-46"/>
       <use x="95.410156" xlink:href="#DejaVuSans-52"/>
      </g>
     </g>
    </g>
    <g id="ytick_4">
     <g id="line2d_23">
      <path clip-path="url(#p6c73f6968f)" d="M 57.6 123.406574 
L 338.688 123.406574 
" style="fill:none;stroke:#b0b0b0;stroke-linecap:square;stroke-width:0.8;"/>
     </g>
     <g id="line2d_24">
      <g>
       <use style="stroke:#000000;stroke-width:0.8;" x="57.6" xlink:href="#m9763c41173" y="123.406574"/>
      </g>
     </g>
     <g id="text_9">
      <!-- 0.6 -->
      <g transform="translate(25.155 129.485324)scale(0.16 -0.16)">
       <use xlink:href="#DejaVuSans-48"/>
       <use x="63.623047" xlink:href="#DejaVuSans-46"/>
       <use x="95.410156" xlink:href="#DejaVuSans-54"/>
      </g>
     </g>
    </g>
    <g id="ytick_5">
     <g id="line2d_25">
      <path clip-path="url(#p6c73f6968f)" d="M 57.6 64.894099 
L 338.688 64.894099 
" style="fill:none;stroke:#b0b0b0;stroke-linecap:square;stroke-width:0.8;"/>
     </g>
     <g id="line2d_26">
      <g>
       <use style="stroke:#000000;stroke-width:0.8;" x="57.6" xlink:href="#m9763c41173" y="64.894099"/>
      </g>
     </g>
     <g id="text_10">
      <!-- 0.8 -->
      <g transform="translate(25.155 70.972849)scale(0.16 -0.16)">
       <defs>
        <path d="M 31.78125 34.625 
Q 24.75 34.625 20.71875 30.859375 
Q 16.703125 27.09375 16.703125 20.515625 
Q 16.703125 13.921875 20.71875 10.15625 
Q 24.75 6.390625 31.78125 6.390625 
Q 38.8125 6.390625 42.859375 10.171875 
Q 46.921875 13.96875 46.921875 20.515625 
Q 46.921875 27.09375 42.890625 30.859375 
Q 38.875 34.625 31.78125 34.625 
z
M 21.921875 38.8125 
Q 15.578125 40.375 12.03125 44.71875 
Q 8.5 49.078125 8.5 55.328125 
Q 8.5 64.0625 14.71875 69.140625 
Q 20.953125 74.21875 31.78125 74.21875 
Q 42.671875 74.21875 48.875 69.140625 
Q 55.078125 64.0625 55.078125 55.328125 
Q 55.078125 49.078125 51.53125 44.71875 
Q 48 40.375 41.703125 38.8125 
Q 48.828125 37.15625 52.796875 32.3125 
Q 56.78125 27.484375 56.78125 20.515625 
Q 56.78125 9.90625 50.3125 4.234375 
Q 43.84375 -1.421875 31.78125 -1.421875 
Q 19.734375 -1.421875 13.25 4.234375 
Q 6.78125 9.90625 6.78125 20.515625 
Q 6.78125 27.484375 10.78125 32.3125 
Q 14.796875 37.15625 21.921875 38.8125 
z
M 18.3125 54.390625 
Q 18.3125 48.734375 21.84375 45.5625 
Q 25.390625 42.390625 31.78125 42.390625 
Q 38.140625 42.390625 41.71875 45.5625 
Q 45.3125 48.734375 45.3125 54.390625 
Q 45.3125 60.0625 41.71875 63.234375 
Q 38.140625 66.40625 31.78125 66.40625 
Q 25.390625 66.40625 21.84375 63.234375 
Q 18.3125 60.0625 18.3125 54.390625 
z
" id="DejaVuSans-56"/>
       </defs>
       <use xlink:href="#DejaVuSans-48"/>
       <use x="63.623047" xlink:href="#DejaVuSans-46"/>
       <use x="95.410156" xlink:href="#DejaVuSans-56"/>
      </g>
     </g>
    </g>
    <g id="ytick_6">
     <g id="line2d_27">
      <path clip-path="url(#p6c73f6968f)" d="M 57.6 6.381624 
L 338.688 6.381624 
" style="fill:none;stroke:#b0b0b0;stroke-linecap:square;stroke-width:0.8;"/>
     </g>
     <g id="line2d_28">
      <g>
       <use style="stroke:#000000;stroke-width:0.8;" x="57.6" xlink:href="#m9763c41173" y="6.381624"/>
      </g>
     </g>
     <g id="text_11">
      <!-- 1.0 -->
      <g transform="translate(25.155 12.460374)scale(0.16 -0.16)">
       <use xlink:href="#DejaVuSans-49"/>
       <use x="63.623047" xlink:href="#DejaVuSans-46"/>
       <use x="95.410156" xlink:href="#DejaVuSans-48"/>
      </g>
     </g>
    </g>
    <g id="text_12">
     <!-- Fraction of function,target pairs -->
     <g transform="translate(17.619531 285.585)rotate(-90)scale(0.17 -0.17)">
      <defs>
       <path d="M 9.8125 72.90625 
L 51.703125 72.90625 
L 51.703125 64.59375 
L 19.671875 64.59375 
L 19.671875 43.109375 
L 48.578125 43.109375 
L 48.578125 34.8125 
L 19.671875 34.8125 
L 19.671875 0 
L 9.8125 0 
z
" id="DejaVuSans-70"/>
       <path d="M 41.109375 46.296875 
Q 39.59375 47.171875 37.8125 47.578125 
Q 36.03125 48 33.890625 48 
Q 26.265625 48 22.1875 43.046875 
Q 18.109375 38.09375 18.109375 28.8125 
L 18.109375 0 
L 9.078125 0 
L 9.078125 54.6875 
L 18.109375 54.6875 
L 18.109375 46.1875 
Q 20.953125 51.171875 25.484375 53.578125 
Q 30.03125 56 36.53125 56 
Q 37.453125 56 38.578125 55.875 
Q 39.703125 55.765625 41.0625 55.515625 
z
" id="DejaVuSans-114"/>
       <path d="M 48.78125 52.59375 
L 48.78125 44.1875 
Q 44.96875 46.296875 41.140625 47.34375 
Q 37.3125 48.390625 33.40625 48.390625 
Q 24.65625 48.390625 19.8125 42.84375 
Q 14.984375 37.3125 14.984375 27.296875 
Q 14.984375 17.28125 19.8125 11.734375 
Q 24.65625 6.203125 33.40625 6.203125 
Q 37.3125 6.203125 41.140625 7.25 
Q 44.96875 8.296875 48.78125 10.40625 
L 48.78125 2.09375 
Q 45.015625 0.34375 40.984375 -0.53125 
Q 36.96875 -1.421875 32.421875 -1.421875 
Q 20.0625 -1.421875 12.78125 6.34375 
Q 5.515625 14.109375 5.515625 27.296875 
Q 5.515625 40.671875 12.859375 48.328125 
Q 20.21875 56 33.015625 56 
Q 37.15625 56 41.109375 55.140625 
Q 45.0625 54.296875 48.78125 52.59375 
z
" id="DejaVuSans-99"/>
       <path d="M 18.3125 70.21875 
L 18.3125 54.6875 
L 36.8125 54.6875 
L 36.8125 47.703125 
L 18.3125 47.703125 
L 18.3125 18.015625 
Q 18.3125 11.328125 20.140625 9.421875 
Q 21.96875 7.515625 27.59375 7.515625 
L 36.8125 7.515625 
L 36.8125 0 
L 27.59375 0 
Q 17.1875 0 13.234375 3.875 
Q 9.28125 7.765625 9.28125 18.015625 
L 9.28125 47.703125 
L 2.6875 47.703125 
L 2.6875 54.6875 
L 9.28125 54.6875 
L 9.28125 70.21875 
z
" id="DejaVuSans-116"/>
       <path d="M 8.5 21.578125 
L 8.5 54.6875 
L 17.484375 54.6875 
L 17.484375 21.921875 
Q 17.484375 14.15625 20.5 10.265625 
Q 23.53125 6.390625 29.59375 6.390625 
Q 36.859375 6.390625 41.078125 11.03125 
Q 45.3125 15.671875 45.3125 23.6875 
L 45.3125 54.6875 
L 54.296875 54.6875 
L 54.296875 0 
L 45.3125 0 
L 45.3125 8.40625 
Q 42.046875 3.421875 37.71875 1 
Q 33.40625 -1.421875 27.6875 -1.421875 
Q 18.265625 -1.421875 13.375 4.4375 
Q 8.5 10.296875 8.5 21.578125 
z
M 31.109375 56 
z
" id="DejaVuSans-117"/>
       <path d="M 11.71875 12.40625 
L 22.015625 12.40625 
L 22.015625 4 
L 14.015625 -11.625 
L 7.71875 -11.625 
L 11.71875 4 
z
" id="DejaVuSans-44"/>
       <path d="M 18.109375 8.203125 
L 18.109375 -20.796875 
L 9.078125 -20.796875 
L 9.078125 54.6875 
L 18.109375 54.6875 
L 18.109375 46.390625 
Q 20.953125 51.265625 25.265625 53.625 
Q 29.59375 56 35.59375 56 
Q 45.5625 56 51.78125 48.09375 
Q 58.015625 40.1875 58.015625 27.296875 
Q 58.015625 14.40625 51.78125 6.484375 
Q 45.5625 -1.421875 35.59375 -1.421875 
Q 29.59375 -1.421875 25.265625 0.953125 
Q 20.953125 3.328125 18.109375 8.203125 
z
M 48.6875 27.296875 
Q 48.6875 37.203125 44.609375 42.84375 
Q 40.53125 48.484375 33.40625 48.484375 
Q 26.265625 48.484375 22.1875 42.84375 
Q 18.109375 37.203125 18.109375 27.296875 
Q 18.109375 17.390625 22.1875 11.75 
Q 26.265625 6.109375 33.40625 6.109375 
Q 40.53125 6.109375 44.609375 11.75 
Q 48.6875 17.390625 48.6875 27.296875 
z
" id="DejaVuSans-112"/>
      </defs>
      <use xlink:href="#DejaVuSans-70"/>
      <use x="50.269531" xlink:href="#DejaVuSans-114"/>
      <use x="91.382812" xlink:href="#DejaVuSans-97"/>
      <use x="152.662109" xlink:href="#DejaVuSans-99"/>
      <use x="207.642578" xlink:href="#DejaVuSans-116"/>
      <use x="246.851562" xlink:href="#DejaVuSans-105"/>
      <use x="274.634766" xlink:href="#DejaVuSans-111"/>
      <use x="335.816406" xlink:href="#DejaVuSans-110"/>
      <use x="399.195312" xlink:href="#DejaVuSans-32"/>
      <use x="430.982422" xlink:href="#DejaVuSans-111"/>
      <use x="492.164062" xlink:href="#DejaVuSans-102"/>
      <use x="527.369141" xlink:href="#DejaVuSans-32"/>
      <use x="559.15625" xlink:href="#DejaVuSans-102"/>
      <use x="594.361328" xlink:href="#DejaVuSans-117"/>
      <use x="657.740234" xlink:href="#DejaVuSans-110"/>
      <use x="721.119141" xlink:href="#DejaVuSans-99"/>
      <use x="776.099609" xlink:href="#DejaVuSans-116"/>
      <use x="815.308594" xlink:href="#DejaVuSans-105"/>
      <use x="843.091797" xlink:href="#DejaVuSans-111"/>
      <use x="904.273438" xlink:href="#DejaVuSans-110"/>
      <use x="967.652344" xlink:href="#DejaVuSans-44"/>
      <use x="999.439453" xlink:href="#DejaVuSans-116"/>
      <use x="1038.648438" xlink:href="#DejaVuSans-97"/>
      <use x="1099.927734" xlink:href="#DejaVuSans-114"/>
      <use x="1139.291016" xlink:href="#DejaVuSans-103"/>
      <use x="1202.767578" xlink:href="#DejaVuSans-101"/>
      <use x="1264.291016" xlink:href="#DejaVuSans-116"/>
      <use x="1303.5" xlink:href="#DejaVuSans-32"/>
      <use x="1335.287109" xlink:href="#DejaVuSans-112"/>
      <use x="1398.763672" xlink:href="#DejaVuSans-97"/>
      <use x="1460.042969" xlink:href="#DejaVuSans-105"/>
      <use x="1487.826172" xlink:href="#DejaVuSans-114"/>
      <use x="1528.939453" xlink:href="#DejaVuSans-115"/>
     </g>
    </g>
   </g>
   <g id="line2d_29">
    <defs>
     <path d="M 0 1.5 
C 0.397805 1.5 0.77937 1.341951 1.06066 1.06066 
C 1.341951 0.77937 1.5 0.397805 1.5 0 
C 1.5 -0.397805 1.341951 -0.77937 1.06066 -1.06066 
C 0.77937 -1.341951 0.397805 -1.5 0 -1.5 
C -0.397805 -1.5 -0.77937 -1.341951 -1.06066 -1.06066 
C -1.341951 -0.77937 -1.5 -0.397805 -1.5 0 
C -1.5 0.397805 -1.341951 0.77937 -1.06066 1.06066 
C -0.77937 1.341951 -0.397805 1.5 0 1.5 
z
" id="mc5d01ff462" style="stroke:#000080;"/>
    </defs>
    <g>
     <use style="fill:#000080;stroke:#000080;" x="258.304969" xlink:href="#mc5d01ff462" y="86.584068"/>
     <use style="fill:#000080;stroke:#000080;" x="258.304969" xlink:href="#mc5d01ff462" y="86.584068"/>
    </g>
   </g>
   <g id="line2d_30">
    <path d="M 29.53256 298.944 
L 29.53256 297.430746 
L 104.355088 297.430746 
L 104.355088 296.926328 
L 106.802819 296.926328 
L 106.802819 296.421911 
L 114.148479 296.421911 
L 114.148479 295.917493 
L 115.586238 295.917493 
L 115.586238 295.413075 
L 116.914437 295.413075 
L 116.914437 292.386567 
L 120.382253 292.386567 
L 120.382253 291.88215 
L 121.400219 291.88215 
L 121.400219 291.377732 
L 124.965026 291.377732 
L 124.965026 290.873314 
L 127.229484 290.873314 
L 127.229484 289.36006 
L 127.923363 289.36006 
L 127.923363 288.855642 
L 129.233413 288.855642 
L 129.233413 288.351224 
L 129.853291 288.351224 
L 129.853291 287.342389 
L 130.45189 287.342389 
L 130.45189 286.837971 
L 131.030622 286.837971 
L 131.030622 286.333553 
L 133.170708 286.333553 
L 133.170708 285.324717 
L 133.667073 285.324717 
L 133.667073 284.820299 
L 134.61933 284.820299 
L 134.61933 284.315881 
L 135.076644 284.315881 
L 135.076644 282.802628 
L 135.522271 282.802628 
L 135.522271 280.784956 
L 135.956794 280.784956 
L 135.956794 278.767284 
L 136.380754 278.767284 
L 136.380754 277.254031 
L 136.79465 277.254031 
L 136.79465 275.740777 
L 137.198951 275.740777 
L 137.198951 274.227523 
L 137.594091 274.227523 
L 137.594091 273.723105 
L 137.980475 273.723105 
L 137.980475 272.71427 
L 138.358484 272.71427 
L 138.358484 271.201016 
L 138.728473 271.201016 
L 138.728473 270.19218 
L 139.090775 270.19218 
L 139.090775 268.678927 
L 139.445704 268.678927 
L 139.445704 267.165673 
L 140.134598 267.165673 
L 140.134598 266.661255 
L 140.469102 266.661255 
L 140.469102 266.156837 
L 141.119455 266.156837 
L 141.119455 264.643583 
L 141.435758 264.643583 
L 141.435758 264.139166 
L 141.746425 264.139166 
L 141.746425 263.634748 
L 142.051655 263.634748 
L 142.051655 263.13033 
L 142.351634 263.13033 
L 142.351634 262.121494 
L 142.646541 262.121494 
L 142.646541 261.617076 
L 142.936543 261.617076 
L 142.936543 261.112658 
L 143.221802 261.112658 
L 143.221802 260.103822 
L 144.050606 260.103822 
L 144.050606 259.599405 
L 144.318346 259.599405 
L 144.318346 258.086151 
L 144.582038 258.086151 
L 144.582038 256.572897 
L 144.841802 256.572897 
L 144.841802 254.555226 
L 145.097753 254.555226 
L 145.097753 252.537554 
L 146.324022 252.537554 
L 146.324022 252.033136 
L 147.4697 252.033136 
L 147.4697 251.0243 
L 150.137805 251.0243 
L 150.137805 250.519883 
L 150.998554 250.519883 
L 150.998554 250.015465 
L 151.944047 250.015465 
L 151.944047 249.006629 
L 152.781537 249.006629 
L 152.781537 248.502211 
L 152.944315 248.502211 
L 152.944315 247.493375 
L 153.890309 247.493375 
L 153.890309 246.988957 
L 154.68128 246.988957 
L 154.787617 245.475704 
L 155.373976 245.475704 
L 155.373976 244.971286 
L 157.2549 244.971286 
L 157.2549 244.466868 
L 157.630442 244.466868 
L 157.630442 243.458032 
L 158.67908 243.458032 
L 158.67908 242.953614 
L 158.816356 242.953614 
L 158.816356 242.449196 
L 159.293606 242.449196 
L 159.293606 241.944778 
L 160.113253 241.944778 
L 160.113253 241.440361 
L 162.034438 241.440361 
L 162.034438 240.431525 
L 163.677486 240.431525 
L 163.677486 239.927107 
L 163.906798 239.927107 
L 163.906798 238.918271 
L 165.054383 238.918271 
L 165.054383 237.909435 
L 165.193576 237.909435 
L 165.193576 237.405017 
L 166.398707 237.405017 
L 166.398707 236.396182 
L 167.716371 236.396182 
L 167.716371 235.891764 
L 167.960895 235.891764 
L 167.960895 235.387346 
L 168.348793 235.387346 
L 168.348793 234.37851 
L 168.704401 234.37851 
L 168.704401 233.874092 
L 170.505381 233.874092 
L 170.505381 232.865256 
L 170.851674 232.865256 
L 170.851674 232.360839 
L 171.716099 232.360839 
L 171.716099 230.847585 
L 172.83878 230.847585 
L 172.848191 229.334331 
L 174.47737 229.334331 
L 174.47737 228.829913 
L 181.730258 228.829913 
L 181.730258 227.821078 
L 183.423468 227.821078 
L 183.423468 226.307824 
L 186.26935 226.307824 
L 186.26935 225.298988 
L 204.26373 225.298988 
L 204.26373 224.79457 
L 211.420475 224.79457 
L 211.420475 223.785734 
L 213.474698 223.785734 
L 213.474698 223.281316 
L 216.485544 223.281316 
L 216.485544 222.776899 
L 217.37669 222.776899 
L 217.37669 221.768063 
L 217.64336 221.768063 
L 217.64336 220.759227 
L 218.063698 220.759227 
L 218.063698 220.254809 
L 222.293885 220.254809 
L 222.293885 219.750391 
L 222.958993 219.750391 
L 222.958993 219.245973 
L 223.131188 219.245973 
L 223.1722 218.237138 
L 223.294139 218.237138 
L 223.367258 215.715048 
L 223.419632 215.715048 
L 223.471075 212.688541 
L 224.574287 212.688541 
L 224.652376 210.670869 
L 224.763465 210.670869 
L 224.841191 209.157616 
L 224.918571 209.157616 
L 224.958437 207.644362 
L 225.03176 207.644362 
L 225.097018 205.62669 
L 225.170464 205.62669 
L 225.170464 205.122272 
L 225.353086 205.122272 
L 225.353086 204.617855 
L 227.435641 204.617855 
L 227.435641 204.113437 
L 227.747866 204.113437 
L 227.747866 202.600183 
L 227.978221 202.600183 
L 227.978221 202.095765 
L 228.475004 202.095765 
L 228.475004 201.591347 
L 228.635455 201.591347 
L 228.635455 201.086929 
L 228.795774 201.086929 
L 228.795774 200.078094 
L 229.220433 200.078094 
L 229.220433 199.573676 
L 229.608693 199.573676 
L 229.689113 197.556004 
L 229.736395 197.556004 
L 229.746124 196.547168 
L 229.854221 196.547168 
L 229.884447 195.033915 
L 230.01654 195.033915 
L 230.077971 194.025079 
L 230.190008 194.025079 
L 230.281428 193.016243 
L 230.324868 193.016243 
L 230.324868 192.007407 
L 230.639139 192.007407 
L 230.639139 191.502989 
L 230.959106 191.502989 
L 230.959106 190.998572 
L 231.22274 190.998572 
L 231.22274 189.989736 
L 231.577735 189.989736 
L 231.619361 188.476482 
L 232.372123 188.476482 
L 232.463146 187.467646 
L 233.052653 187.467646 
L 233.052653 186.458811 
L 233.307382 186.458811 
L 233.307382 185.954393 
L 233.93887 185.954393 
L 233.93887 184.945557 
L 234.153107 184.945557 
L 234.153107 183.936721 
L 234.606316 183.936721 
L 234.606316 183.432303 
L 234.965184 183.432303 
L 234.965184 182.927885 
L 235.168831 182.927885 
L 235.168831 182.423467 
L 235.608811 182.423467 
L 235.608811 181.91905 
L 236.112517 181.91905 
L 236.112517 180.910214 
L 236.276658 180.910214 
L 236.276658 179.901378 
L 236.816184 179.901378 
L 236.816184 179.39696 
L 237.66292 179.39696 
L 237.772964 177.883706 
L 237.940961 177.883706 
L 237.940961 177.379288 
L 238.45088 177.379288 
L 238.548141 176.370453 
L 238.595051 176.370453 
L 238.692376 175.361617 
L 238.789591 175.361617 
L 238.897141 172.33511 
L 238.950455 172.33511 
L 239.052902 169.81302 
L 239.076336 169.81302 
L 239.122901 168.299766 
L 239.245562 168.299766 
L 239.245562 167.290931 
L 239.598117 167.290931 
L 239.650049 164.768841 
L 239.792069 164.768841 
L 239.792069 163.760005 
L 240.327076 163.760005 
L 240.327076 162.75117 
L 240.519735 162.75117 
L 240.519735 161.742334 
L 240.631249 161.742334 
L 240.631249 161.237916 
L 240.822981 161.237916 
L 240.910847 159.724662 
L 240.945756 159.724662 
L 241.018385 158.715827 
L 241.270512 158.715827 
L 241.270512 158.211409 
L 241.391942 158.211409 
L 241.391942 157.706991 
L 241.524454 157.706991 
L 241.526654 155.689319 
L 241.734583 155.689319 
L 241.806713 153.671648 
L 242.133058 153.671648 
L 242.133058 153.16723 
L 242.281157 153.16723 
L 242.349929 150.140722 
L 242.463487 150.140722 
L 242.525747 148.627469 
L 242.70341 148.627469 
L 242.70341 148.123051 
L 242.819804 148.123051 
L 242.823803 146.609797 
L 242.994257 146.609797 
L 242.994257 146.105379 
L 243.119863 146.105379 
L 243.177909 144.592126 
L 243.499529 144.592126 
L 243.506076 143.078872 
L 243.719398 143.078872 
L 243.719398 142.070036 
L 243.921595 142.070036 
L 243.921595 141.565618 
L 244.143025 141.565618 
L 244.158796 140.556783 
L 244.316667 140.556783 
L 244.316667 139.547947 
L 244.475212 139.547947 
L 244.475212 139.043529 
L 244.616365 139.043529 
L 244.705509 138.034693 
L 244.886674 138.034693 
L 244.979188 136.017022 
L 245.228634 136.017022 
L 245.263959 134.503768 
L 245.480264 134.503768 
L 245.550269 133.494932 
L 245.94267 133.494932 
L 245.94267 132.990514 
L 246.274709 132.990514 
L 246.274709 132.486096 
L 246.481319 132.486096 
L 246.481319 131.47726 
L 246.906201 131.47726 
L 246.991906 129.964007 
L 247.345419 129.964007 
L 247.44996 127.441917 
L 247.468747 127.441917 
L 247.55284 124.41541 
L 247.708121 124.41541 
L 247.803355 122.902156 
L 247.966318 122.902156 
L 247.966318 122.397738 
L 248.434796 122.397738 
L 248.434796 121.893321 
L 248.750688 121.893321 
L 248.750688 121.388903 
L 249.046553 121.388903 
L 249.10933 115.335888 
L 249.494502 115.335888 
L 249.548343 114.327052 
L 249.610381 114.327052 
L 249.610381 113.822634 
L 249.721828 113.822634 
L 249.721828 112.813799 
L 249.874418 112.813799 
L 249.874418 112.309381 
L 250.020391 112.309381 
L 250.074488 111.300545 
L 250.148947 111.300545 
L 250.148947 110.291709 
L 250.562252 110.291709 
L 250.593236 108.778455 
L 250.678322 108.778455 
L 250.678322 108.274038 
L 250.967321 108.274038 
L 251.0626 106.760784 
L 251.768786 106.760784 
L 251.768786 106.256366 
L 252.226358 106.256366 
L 252.226358 105.24753 
L 252.562021 105.24753 
L 252.562021 104.238694 
L 252.679099 104.238694 
L 252.679099 103.229859 
L 252.874187 103.229859 
L 252.874187 102.221023 
L 253.119439 102.221023 
L 253.145871 101.212187 
L 253.239637 101.212187 
L 253.239637 100.707769 
L 253.508266 100.707769 
L 253.508266 100.203351 
L 253.753689 100.203351 
L 253.753689 99.698933 
L 254.053454 99.698933 
L 254.053454 99.194516 
L 254.676335 99.194516 
L 254.774725 97.681262 
L 255.588663 97.681262 
L 255.588663 96.672426 
L 256.338762 96.672426 
L 256.430062 95.159172 
L 257.501779 95.159172 
L 257.5864 91.123829 
L 257.765334 91.123829 
L 257.765334 90.619411 
L 258.142831 90.619411 
L 258.235696 87.592904 
L 258.264541 87.592904 
L 258.304969 86.584068 
L 338.688 86.584068 
L 338.688 86.584068 
" style="fill:none;stroke:#000080;stroke-linecap:square;stroke-width:1.5;"/>
   </g>
   <g id="line2d_31">
    <defs>
     <path d="M 0 6 
C 1.591219 6 3.117479 5.367802 4.242641 4.242641 
C 5.367802 3.117479 6 1.591219 6 0 
C 6 -1.591219 5.367802 -3.117479 4.242641 -4.242641 
C 3.117479 -5.367802 1.591219 -6 0 -6 
C -1.591219 -6 -3.117479 -5.367802 -4.242641 -4.242641 
C -5.367802 -3.117479 -6 -1.591219 -6 0 
C -6 1.591219 -5.367802 3.117479 -4.242641 4.242641 
C -3.117479 5.367802 -1.591219 6 0 6 
z
" id="md0dd66dfd8" style="stroke:#000080;stroke-width:1.5;"/>
    </defs>
    <g>
     <use style="fill-opacity:0;stroke:#000080;stroke-width:1.5;" x="137.198951" xlink:href="#md0dd66dfd8" y="275.740777"/>
     <use style="fill-opacity:0;stroke:#000080;stroke-width:1.5;" x="204.26373" xlink:href="#md0dd66dfd8" y="224.79457"/>
     <use style="fill-opacity:0;stroke:#000080;stroke-width:1.5;" x="243.719398" xlink:href="#md0dd66dfd8" y="143.078872"/>
     <use style="fill-opacity:0;stroke:#000080;stroke-width:1.5;" x="258.304969" xlink:href="#md0dd66dfd8" y="86.584068"/>
     <use style="fill-opacity:0;stroke:#000080;stroke-width:1.5;" x="258.304969" xlink:href="#md0dd66dfd8" y="86.584068"/>
     <use style="fill-opacity:0;stroke:#000080;stroke-width:1.5;" x="338.688" xlink:href="#md0dd66dfd8" y="86.584068"/>
    </g>
   </g>
   <g id="line2d_32">
    <path style="fill:none;stroke:#000080;stroke-linecap:square;stroke-width:1.5;"/>
    <g/>
   </g>
   <g id="line2d_33">
    <path clip-path="url(#p6c73f6968f)" d="M 258.377143 86.584068 
" style="fill:none;stroke:#000080;stroke-linecap:square;stroke-width:1.5;"/>
    <defs>
     <path d="M -12 12 
L 12 -12 
M -12 -12 
L 12 12 
" id="mf1eaa63110" style="stroke:#000080;"/>
    </defs>
    <g clip-path="url(#p6c73f6968f)">
     <use style="fill:#000080;stroke:#000080;" x="258.377143" xlink:href="#mf1eaa63110" y="86.584068"/>
    </g>
   </g>
   <g id="line2d_34">
    <defs>
     <path d="M 0 1.5 
C 0.397805 1.5 0.77937 1.341951 1.06066 1.06066 
C 1.341951 0.77937 1.5 0.397805 1.5 0 
C 1.5 -0.397805 1.341951 -0.77937 1.06066 -1.06066 
C 0.77937 -1.341951 0.397805 -1.5 0 -1.5 
C -0.397805 -1.5 -0.77937 -1.341951 -1.06066 -1.06066 
C -1.341951 -0.77937 -1.5 -0.397805 -1.5 0 
C -1.5 0.397805 -1.341951 0.77937 -1.06066 1.06066 
C -0.77937 1.341951 -0.397805 1.5 0 1.5 
z
" id="ma75f3b35d4" style="stroke:#ff00ff;"/>
    </defs>
    <g>
     <use style="fill:#ff00ff;stroke:#ff00ff;" x="258.240091" xlink:href="#ma75f3b35d4" y="62.37201"/>
     <use style="fill:#ff00ff;stroke:#ff00ff;" x="258.240091" xlink:href="#ma75f3b35d4" y="62.37201"/>
    </g>
   </g>
   <g id="line2d_35">
    <path d="M 101.506816 298.944 
L 101.506816 298.439582 
L 104.355088 298.439582 
L 104.355088 297.935164 
L 106.802819 297.935164 
L 106.802819 297.430746 
L 108.948899 297.430746 
L 108.948899 296.926328 
L 110.859585 296.926328 
L 110.859585 295.413075 
L 112.58145 295.413075 
L 112.58145 294.908657 
L 114.148479 294.908657 
L 114.148479 294.404239 
L 115.586238 294.404239 
L 115.586238 292.890985 
L 116.914437 292.890985 
L 116.914437 291.88215 
L 118.148599 291.88215 
L 118.148599 290.873314 
L 119.301163 290.873314 
L 119.301163 288.855642 
L 120.382253 288.855642 
L 120.382253 288.351224 
L 121.400219 288.351224 
L 121.400219 286.333553 
L 122.362027 286.333553 
L 122.362027 285.829135 
L 123.273551 285.829135 
L 123.273551 284.820299 
L 124.139788 284.820299 
L 124.139788 283.811463 
L 124.965026 283.811463 
L 124.965026 283.307045 
L 126.50685 283.307045 
L 126.50685 282.29821 
L 127.229484 282.29821 
L 127.229484 281.793792 
L 127.923363 281.793792 
L 127.923363 280.784956 
L 128.590686 280.784956 
L 128.590686 280.280538 
L 129.853291 280.280538 
L 129.853291 277.758449 
L 130.45189 277.758449 
L 130.45189 277.254031 
L 131.030622 277.254031 
L 131.030622 276.749613 
L 131.590764 276.749613 
L 131.590764 274.227523 
L 132.133473 274.227523 
L 132.133473 273.723105 
L 132.659801 273.723105 
L 132.659801 272.71427 
L 133.667073 272.71427 
L 133.667073 271.201016 
L 134.149701 271.201016 
L 134.149701 269.687762 
L 134.61933 269.687762 
L 134.61933 269.183344 
L 135.076644 269.183344 
L 135.076644 267.670091 
L 135.956794 267.670091 
L 135.956794 266.156837 
L 136.380754 266.156837 
L 136.380754 265.652419 
L 136.79465 265.652419 
L 136.79465 265.148001 
L 137.198951 265.148001 
L 137.198951 263.13033 
L 137.980475 263.13033 
L 137.980475 261.617076 
L 138.358484 261.617076 
L 138.358484 260.103822 
L 138.728473 260.103822 
L 138.728473 259.094987 
L 139.090775 259.094987 
L 139.090775 258.590569 
L 139.445704 258.590569 
L 139.445704 258.086151 
L 139.793552 258.086151 
L 139.793552 257.581733 
L 140.134598 257.581733 
L 140.134598 256.068479 
L 140.469102 256.068479 
L 140.469102 254.555226 
L 140.79731 254.555226 
L 140.79731 252.537554 
L 141.119455 252.537554 
L 141.119455 252.033136 
L 141.435758 252.033136 
L 141.435758 250.519883 
L 142.351634 250.519883 
L 142.351634 250.015465 
L 142.936543 250.015465 
L 142.936543 249.511047 
L 143.221802 249.511047 
L 143.221802 249.006629 
L 143.502469 249.006629 
L 143.502469 248.502211 
L 143.778691 248.502211 
L 143.778691 247.997793 
L 144.318346 247.997793 
L 144.318346 246.988957 
L 144.582038 246.988957 
L 144.582038 246.484539 
L 144.841802 246.484539 
L 144.841802 245.980122 
L 145.097753 245.980122 
L 145.097753 244.971286 
L 146.08557 244.971286 
L 146.08557 243.458032 
L 146.324022 243.458032 
L 146.324022 242.953614 
L 146.559258 242.953614 
L 146.559258 241.944778 
L 147.4697 241.944778 
L 147.4697 241.440361 
L 147.907696 241.440361 
L 147.907696 240.935943 
L 152.587184 240.935943 
L 152.587184 239.927107 
L 155.437927 239.927107 
L 155.437927 239.422689 
L 158.086033 239.422689 
L 158.086033 238.413853 
L 158.249784 238.413853 
L 158.249784 237.909435 
L 159.180664 237.909435 
L 159.180664 237.405017 
L 161.164758 237.405017 
L 161.164758 236.9006 
L 161.564634 236.9006 
L 161.663187 235.891764 
L 162.474869 235.891764 
L 162.474869 235.387346 
L 163.02881 235.387346 
L 163.02881 234.37851 
L 164.272154 234.37851 
L 164.272154 233.874092 
L 164.516598 233.874092 
L 164.516598 232.360839 
L 165.611735 232.360839 
L 165.611735 231.856421 
L 166.303112 231.856421 
L 166.303112 230.343167 
L 166.635428 230.343167 
L 166.635428 229.838749 
L 166.941739 229.838749 
L 166.941739 229.334331 
L 167.51953 229.334331 
L 167.51953 228.325495 
L 168.078792 228.325495 
L 168.183606 226.307824 
L 168.33661 226.307824 
L 168.33661 225.803406 
L 169.267955 225.803406 
L 169.348639 223.281316 
L 169.953269 223.281316 
L 169.953269 221.768063 
L 170.35949 221.768063 
L 170.35949 220.759227 
L 171.345738 220.759227 
L 171.345738 220.254809 
L 171.945501 220.254809 
L 172.034451 217.73272 
L 172.701741 217.73272 
L 172.701741 217.228302 
L 173.376414 217.228302 
L 173.376414 216.723884 
L 175.025688 216.723884 
L 175.025688 215.21063 
L 175.166295 215.21063 
L 175.166295 214.201794 
L 175.745565 214.201794 
L 175.745565 213.192959 
L 176.608379 213.192959 
L 176.608379 212.184123 
L 177.588952 212.184123 
L 177.588952 211.679705 
L 178.893883 211.679705 
L 178.893883 210.670869 
L 180.117237 210.670869 
L 180.117237 209.662033 
L 184.801586 209.662033 
L 184.801586 209.157616 
L 191.001818 209.157616 
L 191.001818 208.653198 
L 199.702025 208.653198 
L 199.702025 208.14878 
L 199.93349 208.14878 
L 199.93349 207.644362 
L 200.297951 207.644362 
L 200.297951 207.139944 
L 200.51784 207.139944 
L 200.51784 206.635526 
L 200.660679 206.635526 
L 200.660679 206.131108 
L 200.850589 206.131108 
L 200.850589 205.62669 
L 201.021629 205.62669 
L 201.021629 204.617855 
L 201.21137 204.617855 
L 201.299951 203.609019 
L 201.377091 203.609019 
L 201.454804 202.600183 
L 201.540345 202.600183 
L 201.540345 202.095765 
L 201.672379 202.095765 
L 201.772992 199.573676 
L 201.902394 199.573676 
L 201.902394 199.069258 
L 202.030843 199.069258 
L 202.093395 197.556004 
L 202.25098 197.556004 
L 202.306669 195.033915 
L 202.396786 195.033915 
L 202.463208 194.025079 
L 202.531951 194.025079 
L 202.531951 193.520661 
L 202.81775 193.520661 
L 202.81775 192.511825 
L 202.950541 192.511825 
L 202.950541 191.502989 
L 203.1006 191.502989 
L 203.1006 190.998572 
L 203.24938 190.998572 
L 203.24938 189.989736 
L 203.595707 189.989736 
L 203.595707 188.9809 
L 204.329611 188.9809 
L 204.329611 188.476482 
L 204.634817 188.476482 
L 204.676577 181.91905 
L 206.082729 181.91905 
L 206.082729 180.405796 
L 206.254683 180.405796 
L 206.254683 179.39696 
L 206.560944 179.39696 
L 206.560944 176.874871 
L 207.019103 176.874871 
L 207.019103 175.866035 
L 208.381398 175.866035 
L 208.381398 175.361617 
L 220.05487 175.361617 
L 220.111296 173.343945 
L 220.167228 173.343945 
L 220.264911 170.821856 
L 220.316951 170.821856 
L 220.316951 169.81302 
L 220.431326 169.81302 
L 220.486548 168.299766 
L 220.557162 168.299766 
L 220.557162 167.795349 
L 220.905407 167.795349 
L 220.905407 167.290931 
L 221.113782 167.290931 
L 221.113782 166.282095 
L 221.500104 166.282095 
L 221.500104 165.777677 
L 221.891622 165.777677 
L 221.891622 165.273259 
L 222.901748 165.273259 
L 222.901748 164.768841 
L 223.585052 164.768841 
L 223.585052 163.760005 
L 224.296343 163.760005 
L 224.296343 163.255588 
L 225.170698 163.255588 
L 225.170698 162.75117 
L 226.530362 162.75117 
L 226.530362 161.742334 
L 226.95107 161.742334 
L 226.95107 161.237916 
L 227.943701 161.237916 
L 227.943701 160.22908 
L 229.163351 160.22908 
L 229.26641 159.220244 
L 230.102343 159.220244 
L 230.102343 158.715827 
L 230.645127 158.715827 
L 230.645127 158.211409 
L 230.831451 158.211409 
L 230.903909 156.698155 
L 230.942969 156.698155 
L 230.942969 156.193737 
L 231.05662 156.193737 
L 231.05662 155.689319 
L 232.20257 155.689319 
L 232.295258 151.653976 
L 232.531448 151.653976 
L 232.531448 151.149558 
L 232.991152 151.149558 
L 232.991152 150.64514 
L 233.184624 150.64514 
L 233.245006 149.131887 
L 233.431906 149.131887 
L 233.431906 148.627469 
L 233.633841 148.627469 
L 233.738451 147.114215 
L 233.829046 147.114215 
L 233.849557 146.105379 
L 234.076133 146.105379 
L 234.076133 145.600961 
L 234.470981 145.600961 
L 234.495005 141.565618 
L 234.908339 141.565618 
L 234.99387 140.556783 
L 235.242455 140.556783 
L 235.314852 137.025857 
L 235.459271 137.025857 
L 235.459271 136.017022 
L 235.665089 136.017022 
L 235.676118 133.99935 
L 235.832841 133.99935 
L 235.935199 132.990514 
L 235.963973 132.990514 
L 235.963973 132.486096 
L 236.084863 132.486096 
L 236.084863 131.981678 
L 236.507241 131.981678 
L 236.507241 131.47726 
L 236.673055 131.47726 
L 236.673055 130.972843 
L 237.135083 130.972843 
L 237.175715 129.459589 
L 237.698575 129.459589 
L 237.698575 128.955171 
L 237.895981 128.955171 
L 237.895981 128.450753 
L 238.043675 128.450753 
L 238.043675 127.441917 
L 238.296904 127.441917 
L 238.296904 126.937499 
L 238.814452 126.937499 
L 238.814452 125.928664 
L 239.50501 125.928664 
L 239.50501 124.919828 
L 239.627986 124.919828 
L 239.687674 123.406574 
L 240.134647 123.406574 
L 240.134647 122.902156 
L 240.435629 122.902156 
L 240.435629 121.893321 
L 240.665084 121.893321 
L 240.759591 120.380067 
L 240.79576 120.380067 
L 240.79576 119.875649 
L 240.947746 119.875649 
L 241.021027 118.362395 
L 241.132954 118.362395 
L 241.230095 117.35356 
L 241.260463 117.35356 
L 241.260463 116.849142 
L 241.421845 116.849142 
L 241.421845 116.344724 
L 241.596909 116.344724 
L 241.596909 115.840306 
L 241.795886 115.840306 
L 241.871268 114.327052 
L 242.05969 114.327052 
L 242.05969 113.822634 
L 242.242139 113.822634 
L 242.346257 111.804963 
L 242.362166 111.804963 
L 242.466962 107.76962 
L 242.482588 107.76962 
L 242.568887 104.238694 
L 243.08469 104.238694 
L 243.130401 102.221023 
L 243.374741 102.221023 
L 243.413201 99.698933 
L 243.498956 99.698933 
L 243.56269 98.18568 
L 243.949697 98.18568 
L 243.962615 96.672426 
L 244.417062 96.672426 
L 244.417062 96.168008 
L 244.895214 96.168008 
L 244.895214 95.159172 
L 245.34802 95.159172 
L 245.349566 94.150337 
L 245.467764 94.150337 
L 245.467764 93.141501 
L 245.743795 93.141501 
L 245.743795 92.132665 
L 245.910976 92.132665 
L 245.910976 91.628247 
L 246.458329 91.628247 
L 246.476558 89.610576 
L 246.602051 89.610576 
L 246.602051 89.106158 
L 246.753567 89.106158 
L 246.753567 88.60174 
L 247.014806 88.60174 
L 247.025642 87.592904 
L 247.324331 87.592904 
L 247.382804 86.584068 
L 247.988797 86.584068 
L 247.988797 85.575233 
L 248.39917 85.575233 
L 248.39917 85.070815 
L 248.582513 85.070815 
L 248.582513 84.061979 
L 248.744569 84.061979 
L 248.766309 82.044307 
L 249.150465 82.044307 
L 249.150465 81.539889 
L 249.775829 81.539889 
L 249.775829 80.531054 
L 250.050553 80.531054 
L 250.050553 79.522218 
L 250.310827 79.522218 
L 250.38368 78.513382 
L 250.450021 78.513382 
L 250.515727 77.000128 
L 250.599666 77.000128 
L 250.62226 75.991293 
L 250.889425 75.991293 
L 250.889425 75.486875 
L 251.066525 75.486875 
L 251.066525 74.478039 
L 251.282599 74.478039 
L 251.282599 73.973621 
L 251.542232 73.973621 
L 251.542232 73.469203 
L 252.209526 73.469203 
L 252.209526 72.964785 
L 252.596066 72.964785 
L 252.596066 71.955949 
L 253.057136 71.955949 
L 253.057136 71.451532 
L 253.529925 71.451532 
L 253.529925 70.947114 
L 254.46522 70.947114 
L 254.46522 70.442696 
L 254.6624 70.442696 
L 254.6624 69.43386 
L 254.919066 69.43386 
L 254.919066 68.425024 
L 255.946708 68.425024 
L 255.946708 67.416188 
L 256.373423 67.416188 
L 256.373423 66.911771 
L 256.755414 66.911771 
L 256.755414 66.407353 
L 257.331628 66.407353 
L 257.331628 65.902935 
L 258.026032 65.902935 
L 258.122847 64.894099 
L 258.142513 64.894099 
L 258.240091 62.37201 
L 338.688 62.37201 
L 338.688 62.37201 
" style="fill:none;stroke:#ff00ff;stroke-linecap:square;stroke-width:1.5;"/>
   </g>
   <g id="line2d_36">
    <defs>
     <path d="M -0 8.485281 
L 5.091169 0 
L 0 -8.485281 
L -5.091169 -0 
z
" id="mc22858c49f" style="stroke:#ff00ff;stroke-linejoin:miter;stroke-width:1.5;"/>
    </defs>
    <g>
     <use style="fill-opacity:0;stroke:#ff00ff;stroke-linejoin:miter;stroke-width:1.5;" x="142.351634" xlink:href="#mc22858c49f" y="250.519883"/>
     <use style="fill-opacity:0;stroke:#ff00ff;stroke-linejoin:miter;stroke-width:1.5;" x="208.381398" xlink:href="#mc22858c49f" y="175.866035"/>
     <use style="fill-opacity:0;stroke:#ff00ff;stroke-linejoin:miter;stroke-width:1.5;" x="247.014806" xlink:href="#mc22858c49f" y="88.097322"/>
     <use style="fill-opacity:0;stroke:#ff00ff;stroke-linejoin:miter;stroke-width:1.5;" x="258.240091" xlink:href="#mc22858c49f" y="62.37201"/>
     <use style="fill-opacity:0;stroke:#ff00ff;stroke-linejoin:miter;stroke-width:1.5;" x="338.688" xlink:href="#mc22858c49f" y="62.37201"/>
    </g>
   </g>
   <g id="line2d_37">
    <path style="fill:none;stroke:#ff00ff;stroke-linecap:square;stroke-width:1.5;"/>
    <g/>
   </g>
   <g id="line2d_38">
    <path clip-path="url(#p6c73f6968f)" d="M 258.377143 62.37201 
" style="fill:none;stroke:#ff00ff;stroke-linecap:square;stroke-width:1.5;"/>
    <defs>
     <path d="M -12 12 
L 12 -12 
M -12 -12 
L 12 12 
" id="ma89a2ecdda" style="stroke:#ff00ff;"/>
    </defs>
    <g clip-path="url(#p6c73f6968f)">
     <use style="fill:#ff00ff;stroke:#ff00ff;" x="258.377143" xlink:href="#ma89a2ecdda" y="62.37201"/>
    </g>
   </g>
   <g id="line2d_39">
    <defs>
     <path d="M 0 1.5 
C 0.397805 1.5 0.77937 1.341951 1.06066 1.06066 
C 1.341951 0.77937 1.5 0.397805 1.5 0 
C 1.5 -0.397805 1.341951 -0.77937 1.06066 -1.06066 
C 0.77937 -1.341951 0.397805 -1.5 0 -1.5 
C -0.397805 -1.5 -0.77937 -1.341951 -1.06066 -1.06066 
C -1.341951 -0.77937 -1.5 -0.397805 -1.5 0 
C -1.5 0.397805 -1.341951 0.77937 -1.06066 1.06066 
C -0.77937 1.341951 -0.397805 1.5 0 1.5 
z
" id="mc450ecccda" style="stroke:#ff7500;"/>
    </defs>
    <g>
     <use style="fill:#ff7500;stroke:#ff7500;" x="258.010758" xlink:href="#mc450ecccda" y="68.425024"/>
     <use style="fill:#ff7500;stroke:#ff7500;" x="258.010758" xlink:href="#mc450ecccda" y="68.425024"/>
    </g>
   </g>
   <g id="line2d_40">
    <path d="M 29.53256 298.944 
L 29.53256 297.935164 
L 98.100772 297.935164 
L 98.100772 297.430746 
L 101.506816 297.430746 
L 101.506816 296.926328 
L 104.355088 296.926328 
L 104.355088 295.917493 
L 106.802819 295.917493 
L 106.802819 294.908657 
L 108.948899 294.908657 
L 108.948899 294.404239 
L 110.859585 294.404239 
L 110.859585 293.395403 
L 112.58145 293.395403 
L 112.58145 292.386567 
L 115.586238 292.386567 
L 115.586238 291.377732 
L 116.914437 291.377732 
L 116.914437 289.864478 
L 118.148599 289.864478 
L 118.148599 289.36006 
L 119.301163 289.36006 
L 119.301163 288.351224 
L 120.382253 288.351224 
L 120.382253 286.837971 
L 121.400219 286.837971 
L 121.400219 285.829135 
L 122.362027 285.829135 
L 122.362027 284.315881 
L 123.273551 284.315881 
L 123.273551 282.29821 
L 124.139788 282.29821 
L 124.139788 280.784956 
L 124.965026 280.784956 
L 124.965026 279.271702 
L 125.752972 279.271702 
L 125.752972 278.767284 
L 126.50685 278.767284 
L 126.50685 277.254031 
L 127.229484 277.254031 
L 127.229484 274.731941 
L 127.923363 274.731941 
L 127.923363 273.723105 
L 128.590686 273.723105 
L 128.590686 271.201016 
L 129.233413 271.201016 
L 129.233413 269.183344 
L 129.853291 269.183344 
L 129.853291 267.165673 
L 130.45189 267.165673 
L 130.45189 265.652419 
L 131.030622 265.652419 
L 131.030622 263.13033 
L 131.590764 263.13033 
L 131.590764 261.617076 
L 132.133473 261.617076 
L 132.133473 261.112658 
L 132.659801 261.112658 
L 132.659801 259.599405 
L 133.170708 259.599405 
L 133.170708 257.077315 
L 133.667073 257.077315 
L 133.667073 256.572897 
L 134.149701 256.572897 
L 134.149701 256.068479 
L 135.076644 256.068479 
L 135.076644 255.564061 
L 135.522271 255.564061 
L 135.522271 255.059644 
L 136.380754 255.059644 
L 136.380754 254.555226 
L 138.358484 254.555226 
L 138.358484 254.050808 
L 138.728473 254.050808 
L 138.728473 253.54639 
L 139.090775 253.54639 
L 139.090775 253.041972 
L 141.746425 253.041972 
L 141.746425 252.537554 
L 142.646541 252.537554 
L 142.646541 252.033136 
L 142.936543 252.033136 
L 142.936543 251.528718 
L 144.050606 251.528718 
L 144.050606 250.015465 
L 150.137805 250.015465 
L 150.137805 249.511047 
L 151.243836 249.511047 
L 151.243836 249.006629 
L 156.101764 249.006629 
L 156.101764 248.502211 
L 159.608019 248.502211 
L 159.62811 246.988957 
L 163.242288 246.988957 
L 163.242288 246.484539 
L 163.9617 246.484539 
L 163.9617 245.980122 
L 166.789256 245.980122 
L 166.789256 244.971286 
L 167.404208 244.971286 
L 167.404208 243.96245 
L 170.596616 243.96245 
L 170.596616 242.953614 
L 171.371357 242.953614 
L 171.371357 241.944778 
L 171.645677 241.944778 
L 171.645677 241.440361 
L 172.42921 241.440361 
L 172.42921 240.935943 
L 174.174823 240.935943 
L 174.174823 239.927107 
L 175.03399 239.927107 
L 175.03399 238.918271 
L 183.229997 238.918271 
L 183.229997 238.413853 
L 184.987852 238.413853 
L 184.987852 237.405017 
L 186.419063 237.405017 
L 186.419063 236.9006 
L 187.542272 236.9006 
L 187.542272 236.396182 
L 188.38455 236.396182 
L 188.38455 235.891764 
L 188.792796 235.891764 
L 188.792796 234.882928 
L 189.456895 234.882928 
L 189.456895 233.874092 
L 190.038793 233.874092 
L 190.038793 233.369674 
L 190.637559 233.369674 
L 190.637559 232.360839 
L 190.941912 232.360839 
L 190.941912 231.352003 
L 191.22465 231.352003 
L 191.22465 230.847585 
L 191.449529 230.847585 
L 191.449529 230.343167 
L 191.618711 230.343167 
L 191.618711 228.829913 
L 191.821171 228.829913 
L 191.821171 228.325495 
L 194.288194 228.325495 
L 194.288194 227.31666 
L 203.458001 227.31666 
L 203.458001 226.812242 
L 204.052011 226.812242 
L 204.052011 226.307824 
L 204.228752 226.307824 
L 204.228752 225.298988 
L 204.445266 225.298988 
L 204.445266 224.79457 
L 204.675061 224.79457 
L 204.675061 224.290152 
L 204.902615 224.290152 
L 204.902615 223.785734 
L 205.405099 223.785734 
L 205.405099 222.776899 
L 205.698639 222.776899 
L 205.698639 221.768063 
L 205.889266 221.768063 
L 205.889266 221.263645 
L 206.165088 221.263645 
L 206.165088 220.254809 
L 206.45991 220.254809 
L 206.45991 219.245973 
L 206.7922 219.245973 
L 206.7922 218.741555 
L 208.182196 218.741555 
L 208.182196 218.237138 
L 210.457852 218.237138 
L 210.457852 217.73272 
L 211.017122 217.73272 
L 211.017122 216.723884 
L 211.610555 216.723884 
L 211.610555 216.219466 
L 212.093 216.219466 
L 212.093 215.715048 
L 212.268078 215.715048 
L 212.268078 214.706212 
L 212.417592 214.706212 
L 212.500104 212.688541 
L 212.530584 212.688541 
L 212.638045 211.679705 
L 212.664448 211.679705 
L 212.664448 211.175287 
L 212.840083 211.175287 
L 212.840083 209.662033 
L 213.226125 209.662033 
L 213.226125 209.157616 
L 213.505808 209.157616 
L 213.505808 208.653198 
L 213.643759 208.653198 
L 213.750004 206.635526 
L 213.972146 206.635526 
L 214.061811 204.113437 
L 214.238454 204.113437 
L 214.321093 202.095765 
L 214.567978 202.095765 
L 214.567978 201.591347 
L 216.871545 201.591347 
L 216.871545 201.086929 
L 218.06581 201.086929 
L 218.06581 200.078094 
L 218.276388 200.078094 
L 218.276388 199.573676 
L 218.466235 199.573676 
L 218.466235 198.56484 
L 218.86574 198.56484 
L 218.86574 197.556004 
L 219.077562 197.556004 
L 219.184496 196.547168 
L 219.457934 196.547168 
L 219.555784 195.033915 
L 219.602893 195.033915 
L 219.656943 194.025079 
L 219.754325 194.025079 
L 219.851483 191.502989 
L 219.95221 191.502989 
L 220.044192 189.485318 
L 223.188997 189.485318 
L 223.260207 187.972064 
L 223.507949 187.972064 
L 223.507949 187.467646 
L 223.712806 187.467646 
L 223.712806 186.963228 
L 223.870436 186.963228 
L 223.870436 186.458811 
L 224.058129 186.458811 
L 224.058129 185.449975 
L 224.192138 185.449975 
L 224.233697 183.936721 
L 224.341093 183.936721 
L 224.44002 181.414632 
L 224.489518 181.414632 
L 224.585914 178.388124 
L 224.646103 178.388124 
L 224.74116 176.874871 
L 224.810859 176.874871 
L 224.810859 176.370453 
L 226.990774 176.370453 
L 226.990774 175.361617 
L 229.420874 175.361617 
L 229.420874 174.857199 
L 229.715657 174.857199 
L 229.785886 171.830692 
L 229.936727 171.830692 
L 229.936727 170.821856 
L 230.17367 170.821856 
L 230.17367 169.308602 
L 230.412986 169.308602 
L 230.421305 165.777677 
L 230.600935 165.777677 
L 230.686818 163.255588 
L 230.911324 163.255588 
L 230.911324 162.75117 
L 231.458953 162.75117 
L 231.509819 161.237916 
L 231.709399 161.237916 
L 231.798815 159.220244 
L 231.935977 159.220244 
L 232.007162 156.193737 
L 232.060874 156.193737 
L 232.084202 153.671648 
L 232.80987 153.671648 
L 232.80987 152.662812 
L 234.536795 152.662812 
L 234.536795 152.158394 
L 234.905392 152.158394 
L 234.905392 151.149558 
L 235.219571 151.149558 
L 235.219571 150.64514 
L 235.353159 150.64514 
L 235.353159 150.140722 
L 235.690214 150.140722 
L 235.690214 149.131887 
L 235.979603 149.131887 
L 236.052523 148.123051 
L 236.295722 148.123051 
L 236.295722 147.618633 
L 236.760495 147.618633 
L 236.760495 147.114215 
L 237.62765 147.114215 
L 237.62765 146.609797 
L 237.79137 146.609797 
L 237.79137 146.105379 
L 238.104344 146.105379 
L 238.104344 145.600961 
L 238.250844 145.600961 
L 238.250844 144.592126 
L 238.522788 144.592126 
L 238.624955 142.070036 
L 238.693563 142.070036 
L 238.72599 141.0612 
L 238.835963 141.0612 
L 238.946949 137.530275 
L 238.968297 137.530275 
L 239.072644 133.494932 
L 239.480186 133.494932 
L 239.48132 131.47726 
L 241.034233 131.47726 
L 241.034233 130.972843 
L 242.332346 130.972843 
L 242.332346 129.964007 
L 243.391717 129.964007 
L 243.392705 128.955171 
L 243.631555 128.955171 
L 243.631555 128.450753 
L 243.76646 128.450753 
L 243.871746 125.928664 
L 243.954483 125.928664 
L 244.051031 122.902156 
L 244.1476 122.902156 
L 244.242225 120.380067 
L 244.310183 120.380067 
L 244.399735 117.857977 
L 244.436312 117.857977 
L 244.515261 116.849142 
L 244.558839 116.849142 
L 244.558839 116.344724 
L 244.688466 116.344724 
L 244.688466 115.335888 
L 245.39023 115.335888 
L 245.445887 113.822634 
L 245.577829 113.822634 
L 245.577829 113.318216 
L 245.830952 113.318216 
L 245.830952 112.309381 
L 246.092309 112.309381 
L 246.092309 111.804963 
L 246.232419 111.804963 
L 246.232419 110.796127 
L 246.452871 110.796127 
L 246.452871 109.787291 
L 246.862988 109.787291 
L 246.967366 108.274038 
L 247.074591 108.274038 
L 247.074591 107.76962 
L 247.367597 107.76962 
L 247.384049 106.760784 
L 247.584085 106.760784 
L 247.584085 105.751948 
L 247.83441 105.751948 
L 247.83441 105.24753 
L 248.555765 105.24753 
L 248.555765 104.743112 
L 249.074284 104.743112 
L 249.074284 104.238694 
L 249.217706 104.238694 
L 249.217706 103.734277 
L 249.410717 103.734277 
L 249.445909 101.716605 
L 249.566272 101.716605 
L 249.600806 100.707769 
L 249.713518 100.707769 
L 249.726812 99.194516 
L 249.885319 99.194516 
L 249.885319 98.690098 
L 250.064266 98.690098 
L 250.128809 97.681262 
L 250.414707 97.681262 
L 250.414707 97.176844 
L 250.989552 97.176844 
L 251.057878 93.645919 
L 251.486244 93.645919 
L 251.486244 92.637083 
L 251.807769 92.637083 
L 251.869423 91.123829 
L 252.166552 91.123829 
L 252.190141 90.114994 
L 252.364571 90.114994 
L 252.415064 88.60174 
L 252.803367 88.60174 
L 252.803367 87.592904 
L 253.034029 87.592904 
L 253.074588 85.575233 
L 253.193967 85.575233 
L 253.193967 85.070815 
L 253.539502 85.070815 
L 253.618767 83.053143 
L 253.909714 83.053143 
L 254.016902 81.035471 
L 254.122456 81.035471 
L 254.122456 80.531054 
L 254.440716 80.531054 
L 254.440716 80.026636 
L 254.757349 80.026636 
L 254.810537 78.513382 
L 255.235729 78.513382 
L 255.235729 77.504546 
L 255.813569 77.504546 
L 255.922635 75.991293 
L 255.93953 75.991293 
L 255.93953 75.486875 
L 256.799416 75.486875 
L 256.799416 74.478039 
L 256.916468 74.478039 
L 256.916468 73.973621 
L 257.366848 73.973621 
L 257.366848 73.469203 
L 257.659168 73.469203 
L 257.761396 70.442696 
L 257.839627 70.442696 
L 257.839627 69.43386 
L 258.010758 69.43386 
L 258.010758 68.425024 
L 338.688 68.425024 
L 338.688 68.425024 
" style="fill:none;stroke:#ff7500;stroke-linecap:square;stroke-width:1.5;"/>
   </g>
   <g id="line2d_41">
    <defs>
     <path d="M 0 -6 
L -1.347084 -1.854102 
L -5.706339 -1.854102 
L -2.179628 0.708204 
L -3.526712 4.854102 
L -0 2.291796 
L 3.526712 4.854102 
L 2.179628 0.708204 
L 5.706339 -1.854102 
L 1.347084 -1.854102 
z
" id="ma3f3fc24eb" style="stroke:#ff7500;stroke-linejoin:bevel;stroke-width:1.5;"/>
    </defs>
    <g>
     <use style="fill-opacity:0;stroke:#ff7500;stroke-linejoin:bevel;stroke-width:1.5;" x="159.62811" xlink:href="#ma3f3fc24eb" y="247.493375"/>
     <use style="fill-opacity:0;stroke:#ff7500;stroke-linejoin:bevel;stroke-width:1.5;" x="214.567978" xlink:href="#ma3f3fc24eb" y="202.095765"/>
     <use style="fill-opacity:0;stroke:#ff7500;stroke-linejoin:bevel;stroke-width:1.5;" x="252.803367" xlink:href="#ma3f3fc24eb" y="87.592904"/>
     <use style="fill-opacity:0;stroke:#ff7500;stroke-linejoin:bevel;stroke-width:1.5;" x="258.010758" xlink:href="#ma3f3fc24eb" y="68.425024"/>
     <use style="fill-opacity:0;stroke:#ff7500;stroke-linejoin:bevel;stroke-width:1.5;" x="338.688" xlink:href="#ma3f3fc24eb" y="68.425024"/>
    </g>
   </g>
   <g id="line2d_42">
    <path style="fill:none;stroke:#ff7500;stroke-linecap:square;stroke-width:1.5;"/>
    <g/>
   </g>
   <g id="line2d_43">
    <path clip-path="url(#p6c73f6968f)" d="M 258.377143 68.425024 
" style="fill:none;stroke:#ff7500;stroke-linecap:square;stroke-width:1.5;"/>
    <defs>
     <path d="M -12 12 
L 12 -12 
M -12 -12 
L 12 12 
" id="m9b7339ef8a" style="stroke:#ff7500;"/>
    </defs>
    <g clip-path="url(#p6c73f6968f)">
     <use style="fill:#ff7500;stroke:#ff7500;" x="258.377143" xlink:href="#m9b7339ef8a" y="68.425024"/>
    </g>
   </g>
   <g id="line2d_44">
    <path d="M 338.688 86.584068 
L 369.60768 293.092752 
" style="fill:none;stroke:#000080;stroke-linecap:square;stroke-width:1.5;"/>
    <g>
     <use style="fill-opacity:0;stroke:#000080;stroke-width:1.5;" x="338.688" xlink:href="#md0dd66dfd8" y="86.584068"/>
     <use style="fill-opacity:0;stroke:#000080;stroke-width:1.5;" x="369.60768" xlink:href="#md0dd66dfd8" y="293.092752"/>
    </g>
   </g>
   <g id="line2d_45">
    <path d="M 338.688 68.425024 
L 369.60768 152.662812 
" style="fill:none;stroke:#ff7500;stroke-linecap:square;stroke-width:1.5;"/>
    <g>
     <use style="fill-opacity:0;stroke:#ff7500;stroke-linejoin:bevel;stroke-width:1.5;" x="338.688" xlink:href="#ma3f3fc24eb" y="68.425024"/>
     <use style="fill-opacity:0;stroke:#ff7500;stroke-linejoin:bevel;stroke-width:1.5;" x="369.60768" xlink:href="#ma3f3fc24eb" y="152.662812"/>
    </g>
   </g>
   <g id="line2d_46">
    <path d="M 338.688 62.37201 
L 369.60768 12.232871 
" style="fill:none;stroke:#ff00ff;stroke-linecap:square;stroke-width:1.5;"/>
    <g>
     <use style="fill-opacity:0;stroke:#ff00ff;stroke-linejoin:miter;stroke-width:1.5;" x="338.688" xlink:href="#mc22858c49f" y="62.37201"/>
     <use style="fill-opacity:0;stroke:#ff00ff;stroke-linejoin:miter;stroke-width:1.5;" x="369.60768" xlink:href="#mc22858c49f" y="12.232871"/>
    </g>
   </g>
   <g id="line2d_47">
    <path d="M 338.688 298.944 
L 338.688 6.381624 
" style="fill:none;stroke:#000000;stroke-linecap:square;stroke-width:1.5;"/>
   </g>
   <g id="patch_3">
    <path d="M 57.6 298.944 
L 57.6 3.456 
" style="fill:none;stroke:#000000;stroke-linecap:square;stroke-linejoin:miter;stroke-width:0.8;"/>
   </g>
   <g id="patch_4">
    <path d="M 338.688 298.944 
L 338.688 3.456 
" style="fill:none;stroke:#000000;stroke-linecap:square;stroke-linejoin:miter;stroke-width:0.8;"/>
   </g>
   <g id="patch_5">
    <path d="M 57.6 298.944 
L 338.688 298.944 
" style="fill:none;stroke:#000000;stroke-linecap:square;stroke-linejoin:miter;stroke-width:0.8;"/>
   </g>
   <g id="patch_6">
    <path d="M 57.6 3.456 
L 338.688 3.456 
" style="fill:none;stroke:#000000;stroke-linecap:square;stroke-linejoin:miter;stroke-width:0.8;"/>
   </g>
   <g id="text_13">
    <!-- f20 -->
    <g transform="translate(375.22944 297.78369)scale(0.17 -0.17)">
     <use xlink:href="#DejaVuSans-102"/>
     <use x="35.205078" xlink:href="#DejaVuSans-50"/>
     <use x="98.828125" xlink:href="#DejaVuSans-48"/>
    </g>
   </g>
   <g id="text_14">
    <!-- f28 -->
    <g transform="translate(375.22944 157.353749)scale(0.17 -0.17)">
     <use xlink:href="#DejaVuSans-102"/>
     <use x="35.205078" xlink:href="#DejaVuSans-50"/>
     <use x="98.828125" xlink:href="#DejaVuSans-56"/>
    </g>
   </g>
   <g id="text_15">
    <!-- f21 -->
    <g transform="translate(375.22944 16.923809)scale(0.17 -0.17)">
     <use xlink:href="#DejaVuSans-102"/>
     <use x="35.205078" xlink:href="#DejaVuSans-50"/>
     <use x="98.828125" xlink:href="#DejaVuSans-49"/>
    </g>
   </g>
   <g id="text_16">
    <!-- bbob-biobj -->
    <g transform="translate(60.41088 14.161286)scale(0.102 -0.102)">
     <defs>
      <path d="M 48.6875 27.296875 
Q 48.6875 37.203125 44.609375 42.84375 
Q 40.53125 48.484375 33.40625 48.484375 
Q 26.265625 48.484375 22.1875 42.84375 
Q 18.109375 37.203125 18.109375 27.296875 
Q 18.109375 17.390625 22.1875 11.75 
Q 26.265625 6.109375 33.40625 6.109375 
Q 40.53125 6.109375 44.609375 11.75 
Q 48.6875 17.390625 48.6875 27.296875 
z
M 18.109375 46.390625 
Q 20.953125 51.265625 25.265625 53.625 
Q 29.59375 56 35.59375 56 
Q 45.5625 56 51.78125 48.09375 
Q 58.015625 40.1875 58.015625 27.296875 
Q 58.015625 14.40625 51.78125 6.484375 
Q 45.5625 -1.421875 35.59375 -1.421875 
Q 29.59375 -1.421875 25.265625 0.953125 
Q 20.953125 3.328125 18.109375 8.203125 
L 18.109375 0 
L 9.078125 0 
L 9.078125 75.984375 
L 18.109375 75.984375 
z
" id="DejaVuSans-98"/>
      <path d="M 9.421875 54.6875 
L 18.40625 54.6875 
L 18.40625 -0.984375 
Q 18.40625 -11.421875 14.421875 -16.109375 
Q 10.453125 -20.796875 1.609375 -20.796875 
L -1.8125 -20.796875 
L -1.8125 -13.1875 
L 0.59375 -13.1875 
Q 5.71875 -13.1875 7.5625 -10.8125 
Q 9.421875 -8.453125 9.421875 -0.984375 
z
M 9.421875 75.984375 
L 18.40625 75.984375 
L 18.40625 64.59375 
L 9.421875 64.59375 
z
" id="DejaVuSans-106"/>
     </defs>
     <use xlink:href="#DejaVuSans-98"/>
     <use x="63.476562" xlink:href="#DejaVuSans-98"/>
     <use x="126.953125" xlink:href="#DejaVuSans-111"/>
     <use x="188.134766" xlink:href="#DejaVuSans-98"/>
     <use x="251.611328" xlink:href="#DejaVuSans-45"/>
     <use x="287.695312" xlink:href="#DejaVuSans-98"/>
     <use x="351.171875" xlink:href="#DejaVuSans-105"/>
     <use x="378.955078" xlink:href="#DejaVuSans-111"/>
     <use x="440.136719" xlink:href="#DejaVuSans-98"/>
     <use x="503.613281" xlink:href="#DejaVuSans-106"/>
    </g>
    <!-- 2-moderate 2-moderate, 5-D -->
    <g transform="translate(60.41088 25.583055)scale(0.102 -0.102)">
     <defs>
      <path d="M 10.796875 72.90625 
L 49.515625 72.90625 
L 49.515625 64.59375 
L 19.828125 64.59375 
L 19.828125 46.734375 
Q 21.96875 47.46875 24.109375 47.828125 
Q 26.265625 48.1875 28.421875 48.1875 
Q 40.625 48.1875 47.75 41.5 
Q 54.890625 34.8125 54.890625 23.390625 
Q 54.890625 11.625 47.5625 5.09375 
Q 40.234375 -1.421875 26.90625 -1.421875 
Q 22.3125 -1.421875 17.546875 -0.640625 
Q 12.796875 0.140625 7.71875 1.703125 
L 7.71875 11.625 
Q 12.109375 9.234375 16.796875 8.0625 
Q 21.484375 6.890625 26.703125 6.890625 
Q 35.15625 6.890625 40.078125 11.328125 
Q 45.015625 15.765625 45.015625 23.390625 
Q 45.015625 31 40.078125 35.4375 
Q 35.15625 39.890625 26.703125 39.890625 
Q 22.75 39.890625 18.8125 39.015625 
Q 14.890625 38.140625 10.796875 36.28125 
z
" id="DejaVuSans-53"/>
      <path d="M 19.671875 64.796875 
L 19.671875 8.109375 
L 31.59375 8.109375 
Q 46.6875 8.109375 53.6875 14.9375 
Q 60.6875 21.78125 60.6875 36.53125 
Q 60.6875 51.171875 53.6875 57.984375 
Q 46.6875 64.796875 31.59375 64.796875 
z
M 9.8125 72.90625 
L 30.078125 72.90625 
Q 51.265625 72.90625 61.171875 64.09375 
Q 71.09375 55.28125 71.09375 36.53125 
Q 71.09375 17.671875 61.125 8.828125 
Q 51.171875 0 30.078125 0 
L 9.8125 0 
z
" id="DejaVuSans-68"/>
     </defs>
     <use xlink:href="#DejaVuSans-50"/>
     <use x="63.623047" xlink:href="#DejaVuSans-45"/>
     <use x="99.707031" xlink:href="#DejaVuSans-109"/>
     <use x="197.119141" xlink:href="#DejaVuSans-111"/>
     <use x="258.300781" xlink:href="#DejaVuSans-100"/>
     <use x="321.777344" xlink:href="#DejaVuSans-101"/>
     <use x="383.300781" xlink:href="#DejaVuSans-114"/>
     <use x="424.414062" xlink:href="#DejaVuSans-97"/>
     <use x="485.693359" xlink:href="#DejaVuSans-116"/>
     <use x="524.902344" xlink:href="#DejaVuSans-101"/>
     <use x="586.425781" xlink:href="#DejaVuSans-32"/>
     <use x="618.212891" xlink:href="#DejaVuSans-50"/>
     <use x="681.835938" xlink:href="#DejaVuSans-45"/>
     <use x="717.919922" xlink:href="#DejaVuSans-109"/>
     <use x="815.332031" xlink:href="#DejaVuSans-111"/>
     <use x="876.513672" xlink:href="#DejaVuSans-100"/>
     <use x="939.990234" xlink:href="#DejaVuSans-101"/>
     <use x="1001.513672" xlink:href="#DejaVuSans-114"/>
     <use x="1042.626953" xlink:href="#DejaVuSans-97"/>
     <use x="1103.90625" xlink:href="#DejaVuSans-116"/>
     <use x="1143.115234" xlink:href="#DejaVuSans-101"/>
     <use x="1204.638672" xlink:href="#DejaVuSans-44"/>
     <use x="1236.425781" xlink:href="#DejaVuSans-32"/>
     <use x="1268.212891" xlink:href="#DejaVuSans-53"/>
     <use x="1331.835938" xlink:href="#DejaVuSans-45"/>
     <use x="1367.919922" xlink:href="#DejaVuSans-68"/>
    </g>
    <!-- 58 targets: 1..-1.0e-4 -->
    <g transform="translate(60.41088 37.004824)scale(0.102 -0.102)">
     <defs>
      <path d="M 11.71875 12.40625 
L 22.015625 12.40625 
L 22.015625 0 
L 11.71875 0 
z
M 11.71875 51.703125 
L 22.015625 51.703125 
L 22.015625 39.3125 
L 11.71875 39.3125 
z
" id="DejaVuSans-58"/>
     </defs>
     <use xlink:href="#DejaVuSans-53"/>
     <use x="63.623047" xlink:href="#DejaVuSans-56"/>
     <use x="127.246094" xlink:href="#DejaVuSans-32"/>
     <use x="159.033203" xlink:href="#DejaVuSans-116"/>
     <use x="198.242188" xlink:href="#DejaVuSans-97"/>
     <use x="259.521484" xlink:href="#DejaVuSans-114"/>
     <use x="298.884766" xlink:href="#DejaVuSans-103"/>
     <use x="362.361328" xlink:href="#DejaVuSans-101"/>
     <use x="423.884766" xlink:href="#DejaVuSans-116"/>
     <use x="463.09375" xlink:href="#DejaVuSans-115"/>
     <use x="515.193359" xlink:href="#DejaVuSans-58"/>
     <use x="548.884766" xlink:href="#DejaVuSans-32"/>
     <use x="580.671875" xlink:href="#DejaVuSans-49"/>
     <use x="644.294922" xlink:href="#DejaVuSans-46"/>
     <use x="676.082031" xlink:href="#DejaVuSans-46"/>
     <use x="707.869141" xlink:href="#DejaVuSans-45"/>
     <use x="743.953125" xlink:href="#DejaVuSans-49"/>
     <use x="807.576172" xlink:href="#DejaVuSans-46"/>
     <use x="839.363281" xlink:href="#DejaVuSans-48"/>
     <use x="902.986328" xlink:href="#DejaVuSans-101"/>
     <use x="964.509766" xlink:href="#DejaVuSans-45"/>
     <use x="1000.59375" xlink:href="#DejaVuSans-52"/>
    </g>
    <!-- 10 instances -->
    <g transform="translate(60.41088 48.426593)scale(0.102 -0.102)">
     <use xlink:href="#DejaVuSans-49"/>
     <use x="63.623047" xlink:href="#DejaVuSans-48"/>
     <use x="127.246094" xlink:href="#DejaVuSans-32"/>
     <use x="159.033203" xlink:href="#DejaVuSans-105"/>
     <use x="186.816406" xlink:href="#DejaVuSans-110"/>
     <use x="250.195312" xlink:href="#DejaVuSans-115"/>
     <use x="302.294922" xlink:href="#DejaVuSans-116"/>
     <use x="341.503906" xlink:href="#DejaVuSans-97"/>
     <use x="402.783203" xlink:href="#DejaVuSans-110"/>
     <use x="466.162109" xlink:href="#DejaVuSans-99"/>
     <use x="521.142578" xlink:href="#DejaVuSans-101"/>
     <use x="582.666016" xlink:href="#DejaVuSans-115"/>
    </g>
   </g>
   <g id="text_17">
    <!-- v2.4, hv-hash=ff0e71e8cd978373 -->
    <g style="fill:#808080;" transform="translate(112.648687 293.909432)scale(0.1 -0.1)">
     <defs>
      <path d="M 54.890625 33.015625 
L 54.890625 0 
L 45.90625 0 
L 45.90625 32.71875 
Q 45.90625 40.484375 42.875 44.328125 
Q 39.84375 48.1875 33.796875 48.1875 
Q 26.515625 48.1875 22.3125 43.546875 
Q 18.109375 38.921875 18.109375 30.90625 
L 18.109375 0 
L 9.078125 0 
L 9.078125 75.984375 
L 18.109375 75.984375 
L 18.109375 46.1875 
Q 21.34375 51.125 25.703125 53.5625 
Q 30.078125 56 35.796875 56 
Q 45.21875 56 50.046875 50.171875 
Q 54.890625 44.34375 54.890625 33.015625 
z
" id="DejaVuSans-104"/>
      <path d="M 10.59375 45.40625 
L 73.1875 45.40625 
L 73.1875 37.203125 
L 10.59375 37.203125 
z
M 10.59375 25.484375 
L 73.1875 25.484375 
L 73.1875 17.1875 
L 10.59375 17.1875 
z
" id="DejaVuSans-61"/>
      <path d="M 8.203125 72.90625 
L 55.078125 72.90625 
L 55.078125 68.703125 
L 28.609375 0 
L 18.3125 0 
L 43.21875 64.59375 
L 8.203125 64.59375 
z
" id="DejaVuSans-55"/>
      <path d="M 10.984375 1.515625 
L 10.984375 10.5 
Q 14.703125 8.734375 18.5 7.8125 
Q 22.3125 6.890625 25.984375 6.890625 
Q 35.75 6.890625 40.890625 13.453125 
Q 46.046875 20.015625 46.78125 33.40625 
Q 43.953125 29.203125 39.59375 26.953125 
Q 35.25 24.703125 29.984375 24.703125 
Q 19.046875 24.703125 12.671875 31.3125 
Q 6.296875 37.9375 6.296875 49.421875 
Q 6.296875 60.640625 12.9375 67.421875 
Q 19.578125 74.21875 30.609375 74.21875 
Q 43.265625 74.21875 49.921875 64.515625 
Q 56.59375 54.828125 56.59375 36.375 
Q 56.59375 19.140625 48.40625 8.859375 
Q 40.234375 -1.421875 26.421875 -1.421875 
Q 22.703125 -1.421875 18.890625 -0.6875 
Q 15.09375 0.046875 10.984375 1.515625 
z
M 30.609375 32.421875 
Q 37.25 32.421875 41.125 36.953125 
Q 45.015625 41.5 45.015625 49.421875 
Q 45.015625 57.28125 41.125 61.84375 
Q 37.25 66.40625 30.609375 66.40625 
Q 23.96875 66.40625 20.09375 61.84375 
Q 16.21875 57.28125 16.21875 49.421875 
Q 16.21875 41.5 20.09375 36.953125 
Q 23.96875 32.421875 30.609375 32.421875 
z
" id="DejaVuSans-57"/>
      <path d="M 40.578125 39.3125 
Q 47.65625 37.796875 51.625 33 
Q 55.609375 28.21875 55.609375 21.1875 
Q 55.609375 10.40625 48.1875 4.484375 
Q 40.765625 -1.421875 27.09375 -1.421875 
Q 22.515625 -1.421875 17.65625 -0.515625 
Q 12.796875 0.390625 7.625 2.203125 
L 7.625 11.71875 
Q 11.71875 9.328125 16.59375 8.109375 
Q 21.484375 6.890625 26.8125 6.890625 
Q 36.078125 6.890625 40.9375 10.546875 
Q 45.796875 14.203125 45.796875 21.1875 
Q 45.796875 27.640625 41.28125 31.265625 
Q 36.765625 34.90625 28.71875 34.90625 
L 20.21875 34.90625 
L 20.21875 43.015625 
L 29.109375 43.015625 
Q 36.375 43.015625 40.234375 45.921875 
Q 44.09375 48.828125 44.09375 54.296875 
Q 44.09375 59.90625 40.109375 62.90625 
Q 36.140625 65.921875 28.71875 65.921875 
Q 24.65625 65.921875 20.015625 65.03125 
Q 15.375 64.15625 9.8125 62.3125 
L 9.8125 71.09375 
Q 15.4375 72.65625 20.34375 73.4375 
Q 25.25 74.21875 29.59375 74.21875 
Q 40.828125 74.21875 47.359375 69.109375 
Q 53.90625 64.015625 53.90625 55.328125 
Q 53.90625 49.265625 50.4375 45.09375 
Q 46.96875 40.921875 40.578125 39.3125 
z
" id="DejaVuSans-51"/>
     </defs>
     <use xlink:href="#DejaVuSans-118"/>
     <use x="59.179688" xlink:href="#DejaVuSans-50"/>
     <use x="122.802734" xlink:href="#DejaVuSans-46"/>
     <use x="154.589844" xlink:href="#DejaVuSans-52"/>
     <use x="218.212891" xlink:href="#DejaVuSans-44"/>
     <use x="250" xlink:href="#DejaVuSans-32"/>
     <use x="281.787109" xlink:href="#DejaVuSans-104"/>
     <use x="345.166016" xlink:href="#DejaVuSans-118"/>
     <use x="401.720703" xlink:href="#DejaVuSans-45"/>
     <use x="437.804688" xlink:href="#DejaVuSans-104"/>
     <use x="501.183594" xlink:href="#DejaVuSans-97"/>
     <use x="562.462891" xlink:href="#DejaVuSans-115"/>
     <use x="614.5625" xlink:href="#DejaVuSans-104"/>
     <use x="677.941406" xlink:href="#DejaVuSans-61"/>
     <use x="761.730469" xlink:href="#DejaVuSans-102"/>
     <use x="796.935547" xlink:href="#DejaVuSans-102"/>
     <use x="832.140625" xlink:href="#DejaVuSans-48"/>
     <use x="895.763672" xlink:href="#DejaVuSans-101"/>
     <use x="957.287109" xlink:href="#DejaVuSans-55"/>
     <use x="1020.910156" xlink:href="#DejaVuSans-49"/>
     <use x="1084.533203" xlink:href="#DejaVuSans-101"/>
     <use x="1146.056641" xlink:href="#DejaVuSans-56"/>
     <use x="1209.679688" xlink:href="#DejaVuSans-99"/>
     <use x="1264.660156" xlink:href="#DejaVuSans-100"/>
     <use x="1328.136719" xlink:href="#DejaVuSans-57"/>
     <use x="1391.759766" xlink:href="#DejaVuSans-55"/>
     <use x="1455.382812" xlink:href="#DejaVuSans-56"/>
     <use x="1519.005859" xlink:href="#DejaVuSans-51"/>
     <use x="1582.628906" xlink:href="#DejaVuSans-55"/>
     <use x="1646.251953" xlink:href="#DejaVuSans-51"/>
    </g>
   </g>
  </g>
 </g>
 <defs>
  <clipPath id="p6c73f6968f">
   <rect height="295.488" width="281.088" x="57.6" y="3.456"/>
  </clipPath>
 </defs>
</svg>
