<?xml version="1.0" encoding="utf-8" standalone="no"?>
<!DOCTYPE svg PUBLIC "-//W3C//DTD SVG 1.1//EN"
  "http://www.w3.org/Graphics/SVG/1.1/DTD/svg11.dtd">
<!-- Created with matplotlib (https://matplotlib.org/) -->
<svg height="345.6pt" version="1.1" viewBox="0 0 460.8 345.6" width="460.8pt" xmlns="http://www.w3.org/2000/svg" xmlns:xlink="http://www.w3.org/1999/xlink">
 <metadata>
  <rdf:RDF xmlns:cc="http://creativecommons.org/ns#" xmlns:dc="http://purl.org/dc/elements/1.1/" xmlns:rdf="http://www.w3.org/1999/02/22-rdf-syntax-ns#">
   <cc:Work>
    <dc:type rdf:resource="http://purl.org/dc/dcmitype/StillImage"/>
    <dc:date>2021-03-30T18:29:22.380989</dc:date>
    <dc:format>image/svg+xml</dc:format>
    <dc:creator>
     <cc:Agent>
      <dc:title>Matplotlib v3.3.4, https://matplotlib.org/</dc:title>
     </cc:Agent>
    </dc:creator>
   </cc:Work>
  </rdf:RDF>
 </metadata>
 <defs>
  <style type="text/css">*{stroke-linecap:butt;stroke-linejoin:round;}</style>
 </defs>
 <g id="figure_1">
  <g id="patch_1">
   <path d="M 0 345.6 
L 460.8 345.6 
L 460.8 0 
L 0 0 
z
" style="fill:#ffffff;"/>
  </g>
  <g id="axes_1">
   <g id="patch_2">
    <path d="M 57.6 298.944 
L 338.688 298.944 
L 338.688 27.648 
L 57.6 27.648 
z
" style="fill:#ffffff;"/>
   </g>
   <g id="line2d_1">
    <path d="M 29.53256 298.944 
L 29.53256 294.312795 
L 81.334453 294.312795 
L 81.334453 285.050384 
L 111.426108 285.050384 
L 111.426108 275.787974 
L 159.288488 275.787974 
L 159.288488 271.156769 
L 167.268694 271.156769 
L 167.268694 257.263153 
L 180.729632 257.263153 
L 180.729632 248.000743 
L 199.489924 248.000743 
L 199.489924 243.369538 
L 222.28477 243.369538 
L 222.28477 234.107127 
L 233.829616 234.107127 
L 233.829616 220.213512 
L 245.976791 220.213512 
L 245.976791 210.951101 
L 260.584511 210.951101 
L 260.584511 201.688691 
L 271.015552 201.688691 
L 271.015552 192.426281 
L 281.399307 192.426281 
L 281.399307 187.795075 
L 291.428034 187.795075 
L 291.428034 173.90146 
L 303.466401 173.90146 
L 303.466401 169.270255 
L 312.936555 169.270255 
L 312.936555 155.376639 
L 319.656031 155.376639 
L 319.656031 146.114229 
L 320.432489 146.114229 
L 320.432489 141.483024 
L 328.319406 141.483024 
L 328.319406 127.589408 
L 338.688 127.589408 
" style="fill:none;stroke:#f5deb3;stroke-linecap:square;stroke-width:4;"/>
   </g>
   <g id="line2d_2">
    <defs>
     <path d="M -0 7.778175 
L 7.778175 0 
L 0 -7.778175 
L -7.778175 -0 
z
" id="m73b2214d0f" style="stroke:#f5deb3;stroke-linejoin:miter;stroke-width:1.5;"/>
    </defs>
    <g>
     <use style="fill:#f5deb3;stroke:#f5deb3;stroke-linejoin:miter;stroke-width:1.5;" x="81.334453" xlink:href="#m73b2214d0f" y="294.312795"/>
     <use style="fill:#f5deb3;stroke:#f5deb3;stroke-linejoin:miter;stroke-width:1.5;" x="167.268694" xlink:href="#m73b2214d0f" y="257.263153"/>
     <use style="fill:#f5deb3;stroke:#f5deb3;stroke-linejoin:miter;stroke-width:1.5;" x="245.976791" xlink:href="#m73b2214d0f" y="210.951101"/>
     <use style="fill:#f5deb3;stroke:#f5deb3;stroke-linejoin:miter;stroke-width:1.5;" x="303.466401" xlink:href="#m73b2214d0f" y="169.270255"/>
     <use style="fill:#f5deb3;stroke:#f5deb3;stroke-linejoin:miter;stroke-width:1.5;" x="328.319406" xlink:href="#m73b2214d0f" y="127.589408"/>
     <use style="fill:#f5deb3;stroke:#f5deb3;stroke-linejoin:miter;stroke-width:1.5;" x="338.688" xlink:href="#m73b2214d0f" y="127.589408"/>
    </g>
   </g>
   <g id="line2d_3">
    <path style="fill:none;stroke:#f5deb3;stroke-linecap:square;stroke-width:4;"/>
    <g/>
   </g>
   <g id="line2d_4">
    <path d="M 338.688 127.589408 
L 369.60768 35.706297 
" style="fill:none;stroke:#f5deb3;stroke-linecap:square;stroke-width:4;"/>
    <g>
     <use style="fill:#f5deb3;stroke:#f5deb3;stroke-linejoin:miter;stroke-width:1.5;" x="338.688" xlink:href="#m73b2214d0f" y="127.589408"/>
     <use style="fill:#f5deb3;stroke:#f5deb3;stroke-linejoin:miter;stroke-width:1.5;" x="369.60768" xlink:href="#m73b2214d0f" y="35.706297"/>
    </g>
   </g>
   <g id="matplotlib.axis_1">
    <g id="xtick_1">
     <g id="line2d_5">
      <path clip-path="url(#pef1221ab12)" d="M 57.6 298.944 
L 57.6 27.648 
" style="fill:none;stroke:#b0b0b0;stroke-linecap:square;stroke-width:0.8;"/>
     </g>
     <g id="line2d_6">
      <defs>
       <path d="M 0 0 
L 0 3.5 
" id="mea4dd2b6e1" style="stroke:#000000;stroke-width:0.8;"/>
      </defs>
      <g>
       <use style="stroke:#000000;stroke-width:0.8;" x="57.6" xlink:href="#mea4dd2b6e1" y="298.944"/>
      </g>
     </g>
     <g id="text_1">
      <!-- 0 -->
      <g transform="translate(51.2375 321.140875)scale(0.2 -0.2)">
       <defs>
        <path d="M 31.78125 66.40625 
Q 24.171875 66.40625 20.328125 58.90625 
Q 16.5 51.421875 16.5 36.375 
Q 16.5 21.390625 20.328125 13.890625 
Q 24.171875 6.390625 31.78125 6.390625 
Q 39.453125 6.390625 43.28125 13.890625 
Q 47.125 21.390625 47.125 36.375 
Q 47.125 51.421875 43.28125 58.90625 
Q 39.453125 66.40625 31.78125 66.40625 
z
M 31.78125 74.21875 
Q 44.046875 74.21875 50.515625 64.515625 
Q 56.984375 54.828125 56.984375 36.375 
Q 56.984375 17.96875 50.515625 8.265625 
Q 44.046875 -1.421875 31.78125 -1.421875 
Q 19.53125 -1.421875 13.0625 8.265625 
Q 6.59375 17.96875 6.59375 36.375 
Q 6.59375 54.828125 13.0625 64.515625 
Q 19.53125 74.21875 31.78125 74.21875 
z
" id="DejaVuSans-48"/>
       </defs>
       <use xlink:href="#DejaVuSans-48"/>
      </g>
     </g>
    </g>
    <g id="xtick_2">
     <g id="line2d_7">
      <path clip-path="url(#pef1221ab12)" d="M 137.910857 298.944 
L 137.910857 27.648 
" style="fill:none;stroke:#b0b0b0;stroke-linecap:square;stroke-width:0.8;"/>
     </g>
     <g id="line2d_8">
      <g>
       <use style="stroke:#000000;stroke-width:0.8;" x="137.910857" xlink:href="#mea4dd2b6e1" y="298.944"/>
      </g>
     </g>
     <g id="text_2">
      <!-- 2 -->
      <g transform="translate(131.548357 321.140875)scale(0.2 -0.2)">
       <defs>
        <path d="M 19.1875 8.296875 
L 53.609375 8.296875 
L 53.609375 0 
L 7.328125 0 
L 7.328125 8.296875 
Q 12.9375 14.109375 22.625 23.890625 
Q 32.328125 33.6875 34.8125 36.53125 
Q 39.546875 41.84375 41.421875 45.53125 
Q 43.3125 49.21875 43.3125 52.78125 
Q 43.3125 58.59375 39.234375 62.25 
Q 35.15625 65.921875 28.609375 65.921875 
Q 23.96875 65.921875 18.8125 64.3125 
Q 13.671875 62.703125 7.8125 59.421875 
L 7.8125 69.390625 
Q 13.765625 71.78125 18.9375 73 
Q 24.125 74.21875 28.421875 74.21875 
Q 39.75 74.21875 46.484375 68.546875 
Q 53.21875 62.890625 53.21875 53.421875 
Q 53.21875 48.921875 51.53125 44.890625 
Q 49.859375 40.875 45.40625 35.40625 
Q 44.1875 33.984375 37.640625 27.21875 
Q 31.109375 20.453125 19.1875 8.296875 
z
" id="DejaVuSans-50"/>
       </defs>
       <use xlink:href="#DejaVuSans-50"/>
      </g>
     </g>
    </g>
    <g id="xtick_3">
     <g id="line2d_9">
      <path clip-path="url(#pef1221ab12)" d="M 218.221714 298.944 
L 218.221714 27.648 
" style="fill:none;stroke:#b0b0b0;stroke-linecap:square;stroke-width:0.8;"/>
     </g>
     <g id="line2d_10">
      <g>
       <use style="stroke:#000000;stroke-width:0.8;" x="218.221714" xlink:href="#mea4dd2b6e1" y="298.944"/>
      </g>
     </g>
     <g id="text_3">
      <!-- 4 -->
      <g transform="translate(211.859214 321.140875)scale(0.2 -0.2)">
       <defs>
        <path d="M 37.796875 64.3125 
L 12.890625 25.390625 
L 37.796875 25.390625 
z
M 35.203125 72.90625 
L 47.609375 72.90625 
L 47.609375 25.390625 
L 58.015625 25.390625 
L 58.015625 17.1875 
L 47.609375 17.1875 
L 47.609375 0 
L 37.796875 0 
L 37.796875 17.1875 
L 4.890625 17.1875 
L 4.890625 26.703125 
z
" id="DejaVuSans-52"/>
       </defs>
       <use xlink:href="#DejaVuSans-52"/>
      </g>
     </g>
    </g>
    <g id="xtick_4">
     <g id="line2d_11">
      <path clip-path="url(#pef1221ab12)" d="M 298.532571 298.944 
L 298.532571 27.648 
" style="fill:none;stroke:#b0b0b0;stroke-linecap:square;stroke-width:0.8;"/>
     </g>
     <g id="line2d_12">
      <g>
       <use style="stroke:#000000;stroke-width:0.8;" x="298.532571" xlink:href="#mea4dd2b6e1" y="298.944"/>
      </g>
     </g>
     <g id="text_4">
      <!-- 6 -->
      <g transform="translate(292.170071 321.140875)scale(0.2 -0.2)">
       <defs>
        <path d="M 33.015625 40.375 
Q 26.375 40.375 22.484375 35.828125 
Q 18.609375 31.296875 18.609375 23.390625 
Q 18.609375 15.53125 22.484375 10.953125 
Q 26.375 6.390625 33.015625 6.390625 
Q 39.65625 6.390625 43.53125 10.953125 
Q 47.40625 15.53125 47.40625 23.390625 
Q 47.40625 31.296875 43.53125 35.828125 
Q 39.65625 40.375 33.015625 40.375 
z
M 52.59375 71.296875 
L 52.59375 62.3125 
Q 48.875 64.0625 45.09375 64.984375 
Q 41.3125 65.921875 37.59375 65.921875 
Q 27.828125 65.921875 22.671875 59.328125 
Q 17.53125 52.734375 16.796875 39.40625 
Q 19.671875 43.65625 24.015625 45.921875 
Q 28.375 48.1875 33.59375 48.1875 
Q 44.578125 48.1875 50.953125 41.515625 
Q 57.328125 34.859375 57.328125 23.390625 
Q 57.328125 12.15625 50.6875 5.359375 
Q 44.046875 -1.421875 33.015625 -1.421875 
Q 20.359375 -1.421875 13.671875 8.265625 
Q 6.984375 17.96875 6.984375 36.375 
Q 6.984375 53.65625 15.1875 63.9375 
Q 23.390625 74.21875 37.203125 74.21875 
Q 40.921875 74.21875 44.703125 73.484375 
Q 48.484375 72.75 52.59375 71.296875 
z
" id="DejaVuSans-54"/>
       </defs>
       <use xlink:href="#DejaVuSans-54"/>
      </g>
     </g>
    </g>
    <g id="xtick_5">
     <g id="line2d_13">
      <path clip-path="url(#pef1221ab12)" d="M 97.755429 298.944 
L 97.755429 27.648 
" style="fill:none;stroke:#b0b0b0;stroke-linecap:square;stroke-width:0.8;"/>
     </g>
     <g id="line2d_14">
      <defs>
       <path d="M 0 0 
L 0 2 
" id="m1dac9a16d4" style="stroke:#000000;stroke-width:0.6;"/>
      </defs>
      <g>
       <use style="stroke:#000000;stroke-width:0.6;" x="97.755429" xlink:href="#m1dac9a16d4" y="298.944"/>
      </g>
     </g>
    </g>
    <g id="xtick_6">
     <g id="line2d_15">
      <path clip-path="url(#pef1221ab12)" d="M 178.066286 298.944 
L 178.066286 27.648 
" style="fill:none;stroke:#b0b0b0;stroke-linecap:square;stroke-width:0.8;"/>
     </g>
     <g id="line2d_16">
      <g>
       <use style="stroke:#000000;stroke-width:0.6;" x="178.066286" xlink:href="#m1dac9a16d4" y="298.944"/>
      </g>
     </g>
    </g>
    <g id="xtick_7">
     <g id="line2d_17">
      <path clip-path="url(#pef1221ab12)" d="M 258.377143 298.944 
L 258.377143 27.648 
" style="fill:none;stroke:#b0b0b0;stroke-linecap:square;stroke-width:0.8;"/>
     </g>
     <g id="line2d_18">
      <g>
       <use style="stroke:#000000;stroke-width:0.6;" x="258.377143" xlink:href="#m1dac9a16d4" y="298.944"/>
      </g>
     </g>
    </g>
    <g id="xtick_8">
     <g id="line2d_19">
      <path clip-path="url(#pef1221ab12)" d="M 338.688 298.944 
L 338.688 27.648 
" style="fill:none;stroke:#b0b0b0;stroke-linecap:square;stroke-width:0.8;"/>
     </g>
     <g id="line2d_20">
      <g>
       <use style="stroke:#000000;stroke-width:0.6;" x="338.688" xlink:href="#m1dac9a16d4" y="298.944"/>
      </g>
     </g>
    </g>
    <g id="text_5">
     <!-- log10(# f-evals / dimension) -->
     <g transform="translate(77.764078 342.217594)scale(0.17 -0.17)">
      <defs>
       <path d="M 9.421875 75.984375 
L 18.40625 75.984375 
L 18.40625 0 
L 9.421875 0 
z
" id="DejaVuSans-108"/>
       <path d="M 30.609375 48.390625 
Q 23.390625 48.390625 19.1875 42.75 
Q 14.984375 37.109375 14.984375 27.296875 
Q 14.984375 17.484375 19.15625 11.84375 
Q 23.34375 6.203125 30.609375 6.203125 
Q 37.796875 6.203125 41.984375 11.859375 
Q 46.1875 17.53125 46.1875 27.296875 
Q 46.1875 37.015625 41.984375 42.703125 
Q 37.796875 48.390625 30.609375 48.390625 
z
M 30.609375 56 
Q 42.328125 56 49.015625 48.375 
Q 55.71875 40.765625 55.71875 27.296875 
Q 55.71875 13.875 49.015625 6.21875 
Q 42.328125 -1.421875 30.609375 -1.421875 
Q 18.84375 -1.421875 12.171875 6.21875 
Q 5.515625 13.875 5.515625 27.296875 
Q 5.515625 40.765625 12.171875 48.375 
Q 18.84375 56 30.609375 56 
z
" id="DejaVuSans-111"/>
       <path d="M 45.40625 27.984375 
Q 45.40625 37.75 41.375 43.109375 
Q 37.359375 48.484375 30.078125 48.484375 
Q 22.859375 48.484375 18.828125 43.109375 
Q 14.796875 37.75 14.796875 27.984375 
Q 14.796875 18.265625 18.828125 12.890625 
Q 22.859375 7.515625 30.078125 7.515625 
Q 37.359375 7.515625 41.375 12.890625 
Q 45.40625 18.265625 45.40625 27.984375 
z
M 54.390625 6.78125 
Q 54.390625 -7.171875 48.1875 -13.984375 
Q 42 -20.796875 29.203125 -20.796875 
Q 24.46875 -20.796875 20.265625 -20.09375 
Q 16.0625 -19.390625 12.109375 -17.921875 
L 12.109375 -9.1875 
Q 16.0625 -11.328125 19.921875 -12.34375 
Q 23.78125 -13.375 27.78125 -13.375 
Q 36.625 -13.375 41.015625 -8.765625 
Q 45.40625 -4.15625 45.40625 5.171875 
L 45.40625 9.625 
Q 42.625 4.78125 38.28125 2.390625 
Q 33.9375 0 27.875 0 
Q 17.828125 0 11.671875 7.65625 
Q 5.515625 15.328125 5.515625 27.984375 
Q 5.515625 40.671875 11.671875 48.328125 
Q 17.828125 56 27.875 56 
Q 33.9375 56 38.28125 53.609375 
Q 42.625 51.21875 45.40625 46.390625 
L 45.40625 54.6875 
L 54.390625 54.6875 
z
" id="DejaVuSans-103"/>
       <path d="M 12.40625 8.296875 
L 28.515625 8.296875 
L 28.515625 63.921875 
L 10.984375 60.40625 
L 10.984375 69.390625 
L 28.421875 72.90625 
L 38.28125 72.90625 
L 38.28125 8.296875 
L 54.390625 8.296875 
L 54.390625 0 
L 12.40625 0 
z
" id="DejaVuSans-49"/>
       <path d="M 31 75.875 
Q 24.46875 64.65625 21.28125 53.65625 
Q 18.109375 42.671875 18.109375 31.390625 
Q 18.109375 20.125 21.3125 9.0625 
Q 24.515625 -2 31 -13.1875 
L 23.1875 -13.1875 
Q 15.875 -1.703125 12.234375 9.375 
Q 8.59375 20.453125 8.59375 31.390625 
Q 8.59375 42.28125 12.203125 53.3125 
Q 15.828125 64.359375 23.1875 75.875 
z
" id="DejaVuSans-40"/>
       <path d="M 51.125 44 
L 36.921875 44 
L 32.8125 27.6875 
L 47.125 27.6875 
z
M 43.796875 71.78125 
L 38.71875 51.515625 
L 52.984375 51.515625 
L 58.109375 71.78125 
L 65.921875 71.78125 
L 60.890625 51.515625 
L 76.125 51.515625 
L 76.125 44 
L 58.984375 44 
L 54.984375 27.6875 
L 70.515625 27.6875 
L 70.515625 20.21875 
L 53.078125 20.21875 
L 48 0 
L 40.1875 0 
L 45.21875 20.21875 
L 30.90625 20.21875 
L 25.875 0 
L 18.015625 0 
L 23.09375 20.21875 
L 7.71875 20.21875 
L 7.71875 27.6875 
L 24.90625 27.6875 
L 29 44 
L 13.28125 44 
L 13.28125 51.515625 
L 30.90625 51.515625 
L 35.890625 71.78125 
z
" id="DejaVuSans-35"/>
       <path id="DejaVuSans-32"/>
       <path d="M 37.109375 75.984375 
L 37.109375 68.5 
L 28.515625 68.5 
Q 23.6875 68.5 21.796875 66.546875 
Q 19.921875 64.59375 19.921875 59.515625 
L 19.921875 54.6875 
L 34.71875 54.6875 
L 34.71875 47.703125 
L 19.921875 47.703125 
L 19.921875 0 
L 10.890625 0 
L 10.890625 47.703125 
L 2.296875 47.703125 
L 2.296875 54.6875 
L 10.890625 54.6875 
L 10.890625 58.5 
Q 10.890625 67.625 15.140625 71.796875 
Q 19.390625 75.984375 28.609375 75.984375 
z
" id="DejaVuSans-102"/>
       <path d="M 4.890625 31.390625 
L 31.203125 31.390625 
L 31.203125 23.390625 
L 4.890625 23.390625 
z
" id="DejaVuSans-45"/>
       <path d="M 56.203125 29.59375 
L 56.203125 25.203125 
L 14.890625 25.203125 
Q 15.484375 15.921875 20.484375 11.0625 
Q 25.484375 6.203125 34.421875 6.203125 
Q 39.59375 6.203125 44.453125 7.46875 
Q 49.3125 8.734375 54.109375 11.28125 
L 54.109375 2.78125 
Q 49.265625 0.734375 44.1875 -0.34375 
Q 39.109375 -1.421875 33.890625 -1.421875 
Q 20.796875 -1.421875 13.15625 6.1875 
Q 5.515625 13.8125 5.515625 26.8125 
Q 5.515625 40.234375 12.765625 48.109375 
Q 20.015625 56 32.328125 56 
Q 43.359375 56 49.78125 48.890625 
Q 56.203125 41.796875 56.203125 29.59375 
z
M 47.21875 32.234375 
Q 47.125 39.59375 43.09375 43.984375 
Q 39.0625 48.390625 32.421875 48.390625 
Q 24.90625 48.390625 20.390625 44.140625 
Q 15.875 39.890625 15.1875 32.171875 
z
" id="DejaVuSans-101"/>
       <path d="M 2.984375 54.6875 
L 12.5 54.6875 
L 29.59375 8.796875 
L 46.6875 54.6875 
L 56.203125 54.6875 
L 35.6875 0 
L 23.484375 0 
z
" id="DejaVuSans-118"/>
       <path d="M 34.28125 27.484375 
Q 23.390625 27.484375 19.1875 25 
Q 14.984375 22.515625 14.984375 16.5 
Q 14.984375 11.71875 18.140625 8.90625 
Q 21.296875 6.109375 26.703125 6.109375 
Q 34.1875 6.109375 38.703125 11.40625 
Q 43.21875 16.703125 43.21875 25.484375 
L 43.21875 27.484375 
z
M 52.203125 31.203125 
L 52.203125 0 
L 43.21875 0 
L 43.21875 8.296875 
Q 40.140625 3.328125 35.546875 0.953125 
Q 30.953125 -1.421875 24.3125 -1.421875 
Q 15.921875 -1.421875 10.953125 3.296875 
Q 6 8.015625 6 15.921875 
Q 6 25.140625 12.171875 29.828125 
Q 18.359375 34.515625 30.609375 34.515625 
L 43.21875 34.515625 
L 43.21875 35.40625 
Q 43.21875 41.609375 39.140625 45 
Q 35.0625 48.390625 27.6875 48.390625 
Q 23 48.390625 18.546875 47.265625 
Q 14.109375 46.140625 10.015625 43.890625 
L 10.015625 52.203125 
Q 14.9375 54.109375 19.578125 55.046875 
Q 24.21875 56 28.609375 56 
Q 40.484375 56 46.34375 49.84375 
Q 52.203125 43.703125 52.203125 31.203125 
z
" id="DejaVuSans-97"/>
       <path d="M 44.28125 53.078125 
L 44.28125 44.578125 
Q 40.484375 46.53125 36.375 47.5 
Q 32.28125 48.484375 27.875 48.484375 
Q 21.1875 48.484375 17.84375 46.4375 
Q 14.5 44.390625 14.5 40.28125 
Q 14.5 37.15625 16.890625 35.375 
Q 19.28125 33.59375 26.515625 31.984375 
L 29.59375 31.296875 
Q 39.15625 29.25 43.1875 25.515625 
Q 47.21875 21.78125 47.21875 15.09375 
Q 47.21875 7.46875 41.1875 3.015625 
Q 35.15625 -1.421875 24.609375 -1.421875 
Q 20.21875 -1.421875 15.453125 -0.5625 
Q 10.6875 0.296875 5.421875 2 
L 5.421875 11.28125 
Q 10.40625 8.6875 15.234375 7.390625 
Q 20.0625 6.109375 24.8125 6.109375 
Q 31.15625 6.109375 34.5625 8.28125 
Q 37.984375 10.453125 37.984375 14.40625 
Q 37.984375 18.0625 35.515625 20.015625 
Q 33.0625 21.96875 24.703125 23.78125 
L 21.578125 24.515625 
Q 13.234375 26.265625 9.515625 29.90625 
Q 5.8125 33.546875 5.8125 39.890625 
Q 5.8125 47.609375 11.28125 51.796875 
Q 16.75 56 26.8125 56 
Q 31.78125 56 36.171875 55.265625 
Q 40.578125 54.546875 44.28125 53.078125 
z
" id="DejaVuSans-115"/>
       <path d="M 25.390625 72.90625 
L 33.6875 72.90625 
L 8.296875 -9.28125 
L 0 -9.28125 
z
" id="DejaVuSans-47"/>
       <path d="M 45.40625 46.390625 
L 45.40625 75.984375 
L 54.390625 75.984375 
L 54.390625 0 
L 45.40625 0 
L 45.40625 8.203125 
Q 42.578125 3.328125 38.25 0.953125 
Q 33.9375 -1.421875 27.875 -1.421875 
Q 17.96875 -1.421875 11.734375 6.484375 
Q 5.515625 14.40625 5.515625 27.296875 
Q 5.515625 40.1875 11.734375 48.09375 
Q 17.96875 56 27.875 56 
Q 33.9375 56 38.25 53.625 
Q 42.578125 51.265625 45.40625 46.390625 
z
M 14.796875 27.296875 
Q 14.796875 17.390625 18.875 11.75 
Q 22.953125 6.109375 30.078125 6.109375 
Q 37.203125 6.109375 41.296875 11.75 
Q 45.40625 17.390625 45.40625 27.296875 
Q 45.40625 37.203125 41.296875 42.84375 
Q 37.203125 48.484375 30.078125 48.484375 
Q 22.953125 48.484375 18.875 42.84375 
Q 14.796875 37.203125 14.796875 27.296875 
z
" id="DejaVuSans-100"/>
       <path d="M 9.421875 54.6875 
L 18.40625 54.6875 
L 18.40625 0 
L 9.421875 0 
z
M 9.421875 75.984375 
L 18.40625 75.984375 
L 18.40625 64.59375 
L 9.421875 64.59375 
z
" id="DejaVuSans-105"/>
       <path d="M 52 44.1875 
Q 55.375 50.25 60.0625 53.125 
Q 64.75 56 71.09375 56 
Q 79.640625 56 84.28125 50.015625 
Q 88.921875 44.046875 88.921875 33.015625 
L 88.921875 0 
L 79.890625 0 
L 79.890625 32.71875 
Q 79.890625 40.578125 77.09375 44.375 
Q 74.3125 48.1875 68.609375 48.1875 
Q 61.625 48.1875 57.5625 43.546875 
Q 53.515625 38.921875 53.515625 30.90625 
L 53.515625 0 
L 44.484375 0 
L 44.484375 32.71875 
Q 44.484375 40.625 41.703125 44.40625 
Q 38.921875 48.1875 33.109375 48.1875 
Q 26.21875 48.1875 22.15625 43.53125 
Q 18.109375 38.875 18.109375 30.90625 
L 18.109375 0 
L 9.078125 0 
L 9.078125 54.6875 
L 18.109375 54.6875 
L 18.109375 46.1875 
Q 21.1875 51.21875 25.484375 53.609375 
Q 29.78125 56 35.6875 56 
Q 41.65625 56 45.828125 52.96875 
Q 50 49.953125 52 44.1875 
z
" id="DejaVuSans-109"/>
       <path d="M 54.890625 33.015625 
L 54.890625 0 
L 45.90625 0 
L 45.90625 32.71875 
Q 45.90625 40.484375 42.875 44.328125 
Q 39.84375 48.1875 33.796875 48.1875 
Q 26.515625 48.1875 22.3125 43.546875 
Q 18.109375 38.921875 18.109375 30.90625 
L 18.109375 0 
L 9.078125 0 
L 9.078125 54.6875 
L 18.109375 54.6875 
L 18.109375 46.1875 
Q 21.34375 51.125 25.703125 53.5625 
Q 30.078125 56 35.796875 56 
Q 45.21875 56 50.046875 50.171875 
Q 54.890625 44.34375 54.890625 33.015625 
z
" id="DejaVuSans-110"/>
       <path d="M 8.015625 75.875 
L 15.828125 75.875 
Q 23.140625 64.359375 26.78125 53.3125 
Q 30.421875 42.28125 30.421875 31.390625 
Q 30.421875 20.453125 26.78125 9.375 
Q 23.140625 -1.703125 15.828125 -13.1875 
L 8.015625 -13.1875 
Q 14.5 -2 17.703125 9.0625 
Q 20.90625 20.125 20.90625 31.390625 
Q 20.90625 42.671875 17.703125 53.65625 
Q 14.5 64.65625 8.015625 75.875 
z
" id="DejaVuSans-41"/>
      </defs>
      <use xlink:href="#DejaVuSans-108"/>
      <use x="27.783203" xlink:href="#DejaVuSans-111"/>
      <use x="88.964844" xlink:href="#DejaVuSans-103"/>
      <use x="152.441406" xlink:href="#DejaVuSans-49"/>
      <use x="216.064453" xlink:href="#DejaVuSans-48"/>
      <use x="279.6875" xlink:href="#DejaVuSans-40"/>
      <use x="318.701172" xlink:href="#DejaVuSans-35"/>
      <use x="402.490234" xlink:href="#DejaVuSans-32"/>
      <use x="434.277344" xlink:href="#DejaVuSans-102"/>
      <use x="463.982422" xlink:href="#DejaVuSans-45"/>
      <use x="500.066406" xlink:href="#DejaVuSans-101"/>
      <use x="561.589844" xlink:href="#DejaVuSans-118"/>
      <use x="620.769531" xlink:href="#DejaVuSans-97"/>
      <use x="682.048828" xlink:href="#DejaVuSans-108"/>
      <use x="709.832031" xlink:href="#DejaVuSans-115"/>
      <use x="761.931641" xlink:href="#DejaVuSans-32"/>
      <use x="793.71875" xlink:href="#DejaVuSans-47"/>
      <use x="827.410156" xlink:href="#DejaVuSans-32"/>
      <use x="859.197266" xlink:href="#DejaVuSans-100"/>
      <use x="922.673828" xlink:href="#DejaVuSans-105"/>
      <use x="950.457031" xlink:href="#DejaVuSans-109"/>
      <use x="1047.869141" xlink:href="#DejaVuSans-101"/>
      <use x="1109.392578" xlink:href="#DejaVuSans-110"/>
      <use x="1172.771484" xlink:href="#DejaVuSans-115"/>
      <use x="1224.871094" xlink:href="#DejaVuSans-105"/>
      <use x="1252.654297" xlink:href="#DejaVuSans-111"/>
      <use x="1313.835938" xlink:href="#DejaVuSans-110"/>
      <use x="1377.214844" xlink:href="#DejaVuSans-41"/>
     </g>
    </g>
   </g>
   <g id="matplotlib.axis_2">
    <g id="ytick_1">
     <g id="line2d_21">
      <path clip-path="url(#pef1221ab12)" d="M 57.6 298.944 
L 338.688 298.944 
" style="fill:none;stroke:#b0b0b0;stroke-linecap:square;stroke-width:0.8;"/>
     </g>
     <g id="line2d_22">
      <defs>
       <path d="M 0 0 
L -3.5 0 
" id="m05212e8dcb" style="stroke:#000000;stroke-width:0.8;"/>
      </defs>
      <g>
       <use style="stroke:#000000;stroke-width:0.8;" x="57.6" xlink:href="#m05212e8dcb" y="298.944"/>
      </g>
     </g>
     <g id="text_6">
      <!-- 0.0 -->
      <g transform="translate(25.155 305.02275)scale(0.16 -0.16)">
       <defs>
        <path d="M 10.6875 12.40625 
L 21 12.40625 
L 21 0 
L 10.6875 0 
z
" id="DejaVuSans-46"/>
       </defs>
       <use xlink:href="#DejaVuSans-48"/>
       <use x="63.623047" xlink:href="#DejaVuSans-46"/>
       <use x="95.410156" xlink:href="#DejaVuSans-48"/>
      </g>
     </g>
    </g>
    <g id="ytick_2">
     <g id="line2d_23">
      <path clip-path="url(#pef1221ab12)" d="M 57.6 245.22202 
L 338.688 245.22202 
" style="fill:none;stroke:#b0b0b0;stroke-linecap:square;stroke-width:0.8;"/>
     </g>
     <g id="line2d_24">
      <g>
       <use style="stroke:#000000;stroke-width:0.8;" x="57.6" xlink:href="#m05212e8dcb" y="245.22202"/>
      </g>
     </g>
     <g id="text_7">
      <!-- 0.2 -->
      <g transform="translate(25.155 251.30077)scale(0.16 -0.16)">
       <use xlink:href="#DejaVuSans-48"/>
       <use x="63.623047" xlink:href="#DejaVuSans-46"/>
       <use x="95.410156" xlink:href="#DejaVuSans-50"/>
      </g>
     </g>
    </g>
    <g id="ytick_3">
     <g id="line2d_25">
      <path clip-path="url(#pef1221ab12)" d="M 57.6 191.50004 
L 338.688 191.50004 
" style="fill:none;stroke:#b0b0b0;stroke-linecap:square;stroke-width:0.8;"/>
     </g>
     <g id="line2d_26">
      <g>
       <use style="stroke:#000000;stroke-width:0.8;" x="57.6" xlink:href="#m05212e8dcb" y="191.50004"/>
      </g>
     </g>
     <g id="text_8">
      <!-- 0.4 -->
      <g transform="translate(25.155 197.57879)scale(0.16 -0.16)">
       <use xlink:href="#DejaVuSans-48"/>
       <use x="63.623047" xlink:href="#DejaVuSans-46"/>
       <use x="95.410156" xlink:href="#DejaVuSans-52"/>
      </g>
     </g>
    </g>
    <g id="ytick_4">
     <g id="line2d_27">
      <path clip-path="url(#pef1221ab12)" d="M 57.6 137.778059 
L 338.688 137.778059 
" style="fill:none;stroke:#b0b0b0;stroke-linecap:square;stroke-width:0.8;"/>
     </g>
     <g id="line2d_28">
      <g>
       <use style="stroke:#000000;stroke-width:0.8;" x="57.6" xlink:href="#m05212e8dcb" y="137.778059"/>
      </g>
     </g>
     <g id="text_9">
      <!-- 0.6 -->
      <g transform="translate(25.155 143.856809)scale(0.16 -0.16)">
       <use xlink:href="#DejaVuSans-48"/>
       <use x="63.623047" xlink:href="#DejaVuSans-46"/>
       <use x="95.410156" xlink:href="#DejaVuSans-54"/>
      </g>
     </g>
    </g>
    <g id="ytick_5">
     <g id="line2d_29">
      <path clip-path="url(#pef1221ab12)" d="M 57.6 84.056079 
L 338.688 84.056079 
" style="fill:none;stroke:#b0b0b0;stroke-linecap:square;stroke-width:0.8;"/>
     </g>
     <g id="line2d_30">
      <g>
       <use style="stroke:#000000;stroke-width:0.8;" x="57.6" xlink:href="#m05212e8dcb" y="84.056079"/>
      </g>
     </g>
     <g id="text_10">
      <!-- 0.8 -->
      <g transform="translate(25.155 90.134829)scale(0.16 -0.16)">
       <defs>
        <path d="M 31.78125 34.625 
Q 24.75 34.625 20.71875 30.859375 
Q 16.703125 27.09375 16.703125 20.515625 
Q 16.703125 13.921875 20.71875 10.15625 
Q 24.75 6.390625 31.78125 6.390625 
Q 38.8125 6.390625 42.859375 10.171875 
Q 46.921875 13.96875 46.921875 20.515625 
Q 46.921875 27.09375 42.890625 30.859375 
Q 38.875 34.625 31.78125 34.625 
z
M 21.921875 38.8125 
Q 15.578125 40.375 12.03125 44.71875 
Q 8.5 49.078125 8.5 55.328125 
Q 8.5 64.0625 14.71875 69.140625 
Q 20.953125 74.21875 31.78125 74.21875 
Q 42.671875 74.21875 48.875 69.140625 
Q 55.078125 64.0625 55.078125 55.328125 
Q 55.078125 49.078125 51.53125 44.71875 
Q 48 40.375 41.703125 38.8125 
Q 48.828125 37.15625 52.796875 32.3125 
Q 56.78125 27.484375 56.78125 20.515625 
Q 56.78125 9.90625 50.3125 4.234375 
Q 43.84375 -1.421875 31.78125 -1.421875 
Q 19.734375 -1.421875 13.25 4.234375 
Q 6.78125 9.90625 6.78125 20.515625 
Q 6.78125 27.484375 10.78125 32.3125 
Q 14.796875 37.15625 21.921875 38.8125 
z
M 18.3125 54.390625 
Q 18.3125 48.734375 21.84375 45.5625 
Q 25.390625 42.390625 31.78125 42.390625 
Q 38.140625 42.390625 41.71875 45.5625 
Q 45.3125 48.734375 45.3125 54.390625 
Q 45.3125 60.0625 41.71875 63.234375 
Q 38.140625 66.40625 31.78125 66.40625 
Q 25.390625 66.40625 21.84375 63.234375 
Q 18.3125 60.0625 18.3125 54.390625 
z
" id="DejaVuSans-56"/>
       </defs>
       <use xlink:href="#DejaVuSans-48"/>
       <use x="63.623047" xlink:href="#DejaVuSans-46"/>
       <use x="95.410156" xlink:href="#DejaVuSans-56"/>
      </g>
     </g>
    </g>
    <g id="ytick_6">
     <g id="line2d_31">
      <path clip-path="url(#pef1221ab12)" d="M 57.6 30.334099 
L 338.688 30.334099 
" style="fill:none;stroke:#b0b0b0;stroke-linecap:square;stroke-width:0.8;"/>
     </g>
     <g id="line2d_32">
      <g>
       <use style="stroke:#000000;stroke-width:0.8;" x="57.6" xlink:href="#m05212e8dcb" y="30.334099"/>
      </g>
     </g>
     <g id="text_11">
      <!-- 1.0 -->
      <g transform="translate(25.155 36.412849)scale(0.16 -0.16)">
       <use xlink:href="#DejaVuSans-49"/>
       <use x="63.623047" xlink:href="#DejaVuSans-46"/>
       <use x="95.410156" xlink:href="#DejaVuSans-48"/>
      </g>
     </g>
    </g>
    <g id="text_12">
     <!-- Fraction of function,target pairs -->
     <g transform="translate(17.619531 297.681)rotate(-90)scale(0.17 -0.17)">
      <defs>
       <path d="M 9.8125 72.90625 
L 51.703125 72.90625 
L 51.703125 64.59375 
L 19.671875 64.59375 
L 19.671875 43.109375 
L 48.578125 43.109375 
L 48.578125 34.8125 
L 19.671875 34.8125 
L 19.671875 0 
L 9.8125 0 
z
" id="DejaVuSans-70"/>
       <path d="M 41.109375 46.296875 
Q 39.59375 47.171875 37.8125 47.578125 
Q 36.03125 48 33.890625 48 
Q 26.265625 48 22.1875 43.046875 
Q 18.109375 38.09375 18.109375 28.8125 
L 18.109375 0 
L 9.078125 0 
L 9.078125 54.6875 
L 18.109375 54.6875 
L 18.109375 46.1875 
Q 20.953125 51.171875 25.484375 53.578125 
Q 30.03125 56 36.53125 56 
Q 37.453125 56 38.578125 55.875 
Q 39.703125 55.765625 41.0625 55.515625 
z
" id="DejaVuSans-114"/>
       <path d="M 48.78125 52.59375 
L 48.78125 44.1875 
Q 44.96875 46.296875 41.140625 47.34375 
Q 37.3125 48.390625 33.40625 48.390625 
Q 24.65625 48.390625 19.8125 42.84375 
Q 14.984375 37.3125 14.984375 27.296875 
Q 14.984375 17.28125 19.8125 11.734375 
Q 24.65625 6.203125 33.40625 6.203125 
Q 37.3125 6.203125 41.140625 7.25 
Q 44.96875 8.296875 48.78125 10.40625 
L 48.78125 2.09375 
Q 45.015625 0.34375 40.984375 -0.53125 
Q 36.96875 -1.421875 32.421875 -1.421875 
Q 20.0625 -1.421875 12.78125 6.34375 
Q 5.515625 14.109375 5.515625 27.296875 
Q 5.515625 40.671875 12.859375 48.328125 
Q 20.21875 56 33.015625 56 
Q 37.15625 56 41.109375 55.140625 
Q 45.0625 54.296875 48.78125 52.59375 
z
" id="DejaVuSans-99"/>
       <path d="M 18.3125 70.21875 
L 18.3125 54.6875 
L 36.8125 54.6875 
L 36.8125 47.703125 
L 18.3125 47.703125 
L 18.3125 18.015625 
Q 18.3125 11.328125 20.140625 9.421875 
Q 21.96875 7.515625 27.59375 7.515625 
L 36.8125 7.515625 
L 36.8125 0 
L 27.59375 0 
Q 17.1875 0 13.234375 3.875 
Q 9.28125 7.765625 9.28125 18.015625 
L 9.28125 47.703125 
L 2.6875 47.703125 
L 2.6875 54.6875 
L 9.28125 54.6875 
L 9.28125 70.21875 
z
" id="DejaVuSans-116"/>
       <path d="M 8.5 21.578125 
L 8.5 54.6875 
L 17.484375 54.6875 
L 17.484375 21.921875 
Q 17.484375 14.15625 20.5 10.265625 
Q 23.53125 6.390625 29.59375 6.390625 
Q 36.859375 6.390625 41.078125 11.03125 
Q 45.3125 15.671875 45.3125 23.6875 
L 45.3125 54.6875 
L 54.296875 54.6875 
L 54.296875 0 
L 45.3125 0 
L 45.3125 8.40625 
Q 42.046875 3.421875 37.71875 1 
Q 33.40625 -1.421875 27.6875 -1.421875 
Q 18.265625 -1.421875 13.375 4.4375 
Q 8.5 10.296875 8.5 21.578125 
z
M 31.109375 56 
z
" id="DejaVuSans-117"/>
       <path d="M 11.71875 12.40625 
L 22.015625 12.40625 
L 22.015625 4 
L 14.015625 -11.625 
L 7.71875 -11.625 
L 11.71875 4 
z
" id="DejaVuSans-44"/>
       <path d="M 18.109375 8.203125 
L 18.109375 -20.796875 
L 9.078125 -20.796875 
L 9.078125 54.6875 
L 18.109375 54.6875 
L 18.109375 46.390625 
Q 20.953125 51.265625 25.265625 53.625 
Q 29.59375 56 35.59375 56 
Q 45.5625 56 51.78125 48.09375 
Q 58.015625 40.1875 58.015625 27.296875 
Q 58.015625 14.40625 51.78125 6.484375 
Q 45.5625 -1.421875 35.59375 -1.421875 
Q 29.59375 -1.421875 25.265625 0.953125 
Q 20.953125 3.328125 18.109375 8.203125 
z
M 48.6875 27.296875 
Q 48.6875 37.203125 44.609375 42.84375 
Q 40.53125 48.484375 33.40625 48.484375 
Q 26.265625 48.484375 22.1875 42.84375 
Q 18.109375 37.203125 18.109375 27.296875 
Q 18.109375 17.390625 22.1875 11.75 
Q 26.265625 6.109375 33.40625 6.109375 
Q 40.53125 6.109375 44.609375 11.75 
Q 48.6875 17.390625 48.6875 27.296875 
z
" id="DejaVuSans-112"/>
      </defs>
      <use xlink:href="#DejaVuSans-70"/>
      <use x="50.269531" xlink:href="#DejaVuSans-114"/>
      <use x="91.382812" xlink:href="#DejaVuSans-97"/>
      <use x="152.662109" xlink:href="#DejaVuSans-99"/>
      <use x="207.642578" xlink:href="#DejaVuSans-116"/>
      <use x="246.851562" xlink:href="#DejaVuSans-105"/>
      <use x="274.634766" xlink:href="#DejaVuSans-111"/>
      <use x="335.816406" xlink:href="#DejaVuSans-110"/>
      <use x="399.195312" xlink:href="#DejaVuSans-32"/>
      <use x="430.982422" xlink:href="#DejaVuSans-111"/>
      <use x="492.164062" xlink:href="#DejaVuSans-102"/>
      <use x="527.369141" xlink:href="#DejaVuSans-32"/>
      <use x="559.15625" xlink:href="#DejaVuSans-102"/>
      <use x="594.361328" xlink:href="#DejaVuSans-117"/>
      <use x="657.740234" xlink:href="#DejaVuSans-110"/>
      <use x="721.119141" xlink:href="#DejaVuSans-99"/>
      <use x="776.099609" xlink:href="#DejaVuSans-116"/>
      <use x="815.308594" xlink:href="#DejaVuSans-105"/>
      <use x="843.091797" xlink:href="#DejaVuSans-111"/>
      <use x="904.273438" xlink:href="#DejaVuSans-110"/>
      <use x="967.652344" xlink:href="#DejaVuSans-44"/>
      <use x="999.439453" xlink:href="#DejaVuSans-116"/>
      <use x="1038.648438" xlink:href="#DejaVuSans-97"/>
      <use x="1099.927734" xlink:href="#DejaVuSans-114"/>
      <use x="1139.291016" xlink:href="#DejaVuSans-103"/>
      <use x="1202.767578" xlink:href="#DejaVuSans-101"/>
      <use x="1264.291016" xlink:href="#DejaVuSans-116"/>
      <use x="1303.5" xlink:href="#DejaVuSans-32"/>
      <use x="1335.287109" xlink:href="#DejaVuSans-112"/>
      <use x="1398.763672" xlink:href="#DejaVuSans-97"/>
      <use x="1460.042969" xlink:href="#DejaVuSans-105"/>
      <use x="1487.826172" xlink:href="#DejaVuSans-114"/>
      <use x="1528.939453" xlink:href="#DejaVuSans-115"/>
     </g>
    </g>
   </g>
   <g id="line2d_33">
    <defs>
     <path d="M 0 1.5 
C 0.397805 1.5 0.77937 1.341951 1.06066 1.06066 
C 1.341951 0.77937 1.5 0.397805 1.5 0 
C 1.5 -0.397805 1.341951 -0.77937 1.06066 -1.06066 
C 0.77937 -1.341951 0.397805 -1.5 0 -1.5 
C -0.397805 -1.5 -0.77937 -1.341951 -1.06066 -1.06066 
C -1.341951 -0.77937 -1.5 -0.397805 -1.5 0 
C -1.5 0.397805 -1.341951 0.77937 -1.06066 1.06066 
C -0.77937 1.341951 -0.397805 1.5 0 1.5 
z
" id="m5c4e5596f1" style="stroke:#f5deb3;"/>
    </defs>
    <g>
     <use style="fill:#f5deb3;stroke:#f5deb3;" x="328.319406" xlink:href="#m5c4e5596f1" y="127.589408"/>
     <use style="fill:#f5deb3;stroke:#f5deb3;" x="328.319406" xlink:href="#m5c4e5596f1" y="127.589408"/>
    </g>
   </g>
   <g id="line2d_34">
    <defs>
     <path d="M 0 1.5 
C 0.397805 1.5 0.77937 1.341951 1.06066 1.06066 
C 1.341951 0.77937 1.5 0.397805 1.5 0 
C 1.5 -0.397805 1.341951 -0.77937 1.06066 -1.06066 
C 0.77937 -1.341951 0.397805 -1.5 0 -1.5 
C -0.397805 -1.5 -0.77937 -1.341951 -1.06066 -1.06066 
C -1.341951 -0.77937 -1.5 -0.397805 -1.5 0 
C -1.5 0.397805 -1.341951 0.77937 -1.06066 1.06066 
C -0.77937 1.341951 -0.397805 1.5 0 1.5 
z
" id="m571194a189" style="stroke:#000080;"/>
    </defs>
    <g>
     <use style="fill:#000080;stroke:#000080;" x="254.525918" xlink:href="#m571194a189" y="275.324854"/>
     <use style="fill:#000080;stroke:#000080;" x="254.525918" xlink:href="#m571194a189" y="275.324854"/>
    </g>
   </g>
   <g id="line2d_35">
    <path d="M 17.444571 298.944 
L 17.444571 296.628397 
L 81.334453 296.628397 
L 81.334453 296.165277 
L 94.505975 296.165277 
L 94.505975 295.702156 
L 98.270913 295.702156 
L 98.270913 295.239036 
L 104.23523 295.239036 
L 104.23523 294.775915 
L 110.527398 294.775915 
L 110.527398 294.312795 
L 119.996839 294.312795 
L 119.996839 293.849674 
L 126.607172 293.849674 
L 126.607172 293.386554 
L 127.453273 293.386554 
L 127.453273 292.923433 
L 128.138476 292.923433 
L 128.138476 292.460313 
L 130.371462 292.460313 
L 130.371462 291.997192 
L 135.260324 291.997192 
L 135.260324 291.534072 
L 135.760625 291.534072 
L 135.760625 291.070951 
L 136.227776 291.070951 
L 136.227776 290.607831 
L 136.887363 290.607831 
L 136.887363 290.14471 
L 138.728473 290.14471 
L 138.728473 289.68159 
L 139.493548 289.68159 
L 139.493548 289.218469 
L 140.841591 289.218469 
L 140.841591 288.755349 
L 142.20229 288.755349 
L 142.20229 288.292228 
L 144.35454 288.292228 
L 144.35454 287.829108 
L 145.452153 287.829108 
L 145.452153 287.365987 
L 149.377533 287.365987 
L 149.377533 286.902867 
L 150.068464 286.902867 
L 150.068464 286.439746 
L 151.517715 286.439746 
L 151.517715 285.976625 
L 153.287059 285.976625 
L 153.287059 285.513505 
L 154.621179 285.513505 
L 154.621179 285.050384 
L 156.610446 285.050384 
L 156.610446 284.587264 
L 168.097334 284.587264 
L 168.097334 284.124143 
L 173.220541 284.124143 
L 173.220541 283.661023 
L 178.471368 283.661023 
L 178.471368 283.197902 
L 184.730328 283.197902 
L 184.730328 282.734782 
L 187.949706 282.734782 
L 187.949706 282.271661 
L 190.600201 282.271661 
L 190.600201 281.808541 
L 195.969087 281.808541 
L 195.969087 281.34542 
L 196.525494 281.34542 
L 196.525494 280.8823 
L 196.862293 280.8823 
L 196.862293 280.419179 
L 200.206567 280.419179 
L 200.206567 279.956059 
L 200.884555 279.956059 
L 200.884555 279.492938 
L 205.36104 279.492938 
L 205.36104 279.029818 
L 207.650357 279.029818 
L 207.650357 278.566697 
L 215.097248 278.566697 
L 215.097248 278.103577 
L 225.198891 278.103577 
L 225.198891 277.640456 
L 228.001229 277.640456 
L 228.001229 277.177336 
L 228.892228 277.177336 
L 228.892228 276.714215 
L 248.754625 276.714215 
L 248.754625 276.251095 
L 252.148117 276.251095 
L 252.148117 275.787974 
L 254.525918 275.787974 
L 254.525918 275.324854 
L 338.688 275.324854 
" style="fill:none;stroke:#000080;stroke-linecap:square;stroke-width:1.5;"/>
   </g>
   <g id="line2d_36">
    <defs>
     <path d="M 0 6 
C 1.591219 6 3.117479 5.367802 4.242641 4.242641 
C 5.367802 3.117479 6 1.591219 6 0 
C 6 -1.591219 5.367802 -3.117479 4.242641 -4.242641 
C 3.117479 -5.367802 1.591219 -6 0 -6 
C -1.591219 -6 -3.117479 -5.367802 -4.242641 -4.242641 
C -5.367802 -3.117479 -6 -1.591219 -6 0 
C -6 1.591219 -5.367802 3.117479 -4.242641 4.242641 
C -3.117479 5.367802 -1.591219 6 0 6 
z
" id="ma74fe7f9c5" style="stroke:#000080;stroke-width:1.5;"/>
    </defs>
    <g>
     <use style="fill-opacity:0;stroke:#000080;stroke-width:1.5;" x="128.138476" xlink:href="#ma74fe7f9c5" y="292.923433"/>
     <use style="fill-opacity:0;stroke:#000080;stroke-width:1.5;" x="178.471368" xlink:href="#ma74fe7f9c5" y="283.197902"/>
     <use style="fill-opacity:0;stroke:#000080;stroke-width:1.5;" x="254.525918" xlink:href="#ma74fe7f9c5" y="275.787974"/>
     <use style="fill-opacity:0;stroke:#000080;stroke-width:1.5;" x="254.525918" xlink:href="#ma74fe7f9c5" y="275.324854"/>
     <use style="fill-opacity:0;stroke:#000080;stroke-width:1.5;" x="254.525918" xlink:href="#ma74fe7f9c5" y="275.324854"/>
     <use style="fill-opacity:0;stroke:#000080;stroke-width:1.5;" x="338.688" xlink:href="#ma74fe7f9c5" y="275.324854"/>
    </g>
   </g>
   <g id="line2d_37">
    <path style="fill:none;stroke:#000080;stroke-linecap:square;stroke-width:1.5;"/>
    <g/>
   </g>
   <g id="line2d_38">
    <path clip-path="url(#pef1221ab12)" d="M 258.377143 275.324854 
" style="fill:none;stroke:#000080;stroke-linecap:square;stroke-width:1.5;"/>
    <defs>
     <path d="M -12 12 
L 12 -12 
M -12 -12 
L 12 12 
" id="mabbb2ec5fd" style="stroke:#000080;"/>
    </defs>
    <g clip-path="url(#pef1221ab12)">
     <use style="fill:#000080;stroke:#000080;" x="258.377143" xlink:href="#mabbb2ec5fd" y="275.324854"/>
    </g>
   </g>
   <g id="line2d_39">
    <defs>
     <path d="M 0 1.5 
C 0.397805 1.5 0.77937 1.341951 1.06066 1.06066 
C 1.341951 0.77937 1.5 0.397805 1.5 0 
C 1.5 -0.397805 1.341951 -0.77937 1.06066 -1.06066 
C 0.77937 -1.341951 0.397805 -1.5 0 -1.5 
C -0.397805 -1.5 -0.77937 -1.341951 -1.06066 -1.06066 
C -1.341951 -0.77937 -1.5 -0.397805 -1.5 0 
C -1.5 0.397805 -1.341951 0.77937 -1.06066 1.06066 
C -0.77937 1.341951 -0.397805 1.5 0 1.5 
z
" id="mef49071add" style="stroke:#ff00ff;"/>
    </defs>
    <g>
     <use style="fill:#ff00ff;stroke:#ff00ff;" x="254.398374" xlink:href="#mef49071add" y="240.590815"/>
     <use style="fill:#ff00ff;stroke:#ff00ff;" x="254.398374" xlink:href="#mef49071add" y="240.590815"/>
    </g>
   </g>
   <g id="line2d_40">
    <path d="M 17.444571 298.944 
L 17.444571 291.997192 
L 51.379845 291.997192 
L 51.379845 291.534072 
L 55.762588 291.534072 
L 55.762588 291.070951 
L 57.6 291.070951 
L 57.6 290.607831 
L 60.779557 290.607831 
L 60.779557 289.68159 
L 65.796525 289.68159 
L 65.796525 289.218469 
L 80.881459 289.218469 
L 80.881459 288.755349 
L 84.588378 288.755349 
L 84.588378 288.292228 
L 138.187677 288.292228 
L 138.187677 287.829108 
L 139.445704 287.829108 
L 139.445704 287.365987 
L 142.633244 287.365987 
L 142.633244 286.902867 
L 144.318346 286.902867 
L 144.318346 286.439746 
L 145.843812 286.439746 
L 145.843812 285.050384 
L 146.495417 285.050384 
L 146.516724 284.124143 
L 147.995947 284.124143 
L 147.995947 283.661023 
L 148.45922 283.661023 
L 148.45922 283.197902 
L 148.714503 283.197902 
L 148.714503 282.734782 
L 149.467659 282.734782 
L 149.467659 282.271661 
L 149.637625 282.271661 
L 149.646525 281.34542 
L 150.042389 281.34542 
L 150.042389 280.8823 
L 150.841405 280.8823 
L 150.841405 280.419179 
L 152.863116 280.419179 
L 152.863116 279.956059 
L 153.025137 279.956059 
L 153.025137 279.492938 
L 153.25815 279.492938 
L 153.308709 278.566697 
L 153.473807 278.566697 
L 153.473807 278.103577 
L 153.876352 278.103577 
L 153.876352 277.640456 
L 154.820715 277.640456 
L 154.820715 277.177336 
L 155.083261 277.177336 
L 155.083261 276.714215 
L 156.138594 276.714215 
L 156.138594 276.251095 
L 156.430472 276.251095 
L 156.514691 275.324854 
L 156.894595 275.324854 
L 156.894595 274.861733 
L 157.139484 274.861733 
L 157.139484 274.398612 
L 157.38669 274.398612 
L 157.38669 273.935492 
L 159.542562 273.935492 
L 159.542562 273.472371 
L 159.867418 273.472371 
L 159.867418 273.009251 
L 160.054568 273.009251 
L 160.054568 272.54613 
L 160.547209 272.54613 
L 160.547209 272.08301 
L 161.863054 272.08301 
L 161.863054 271.619889 
L 162.436452 271.619889 
L 162.436452 271.156769 
L 163.008145 271.156769 
L 163.008145 270.693648 
L 163.291183 270.693648 
L 163.400698 269.767407 
L 163.461244 269.767407 
L 163.461244 268.841166 
L 164.329754 268.841166 
L 164.329754 268.378046 
L 164.524182 268.378046 
L 164.524182 267.914925 
L 165.193576 267.914925 
L 165.193576 266.988684 
L 165.425523 266.988684 
L 165.425523 266.525564 
L 166.759266 266.525564 
L 166.759266 265.599323 
L 167.560988 265.599323 
L 167.66262 264.209961 
L 168.497342 264.209961 
L 168.497342 263.746841 
L 168.698434 263.746841 
L 168.698434 262.8206 
L 169.428951 262.8206 
L 169.494647 261.894358 
L 170.000413 261.894358 
L 170.000413 261.431238 
L 170.930621 261.431238 
L 170.930621 260.504997 
L 171.175698 260.504997 
L 171.276376 258.652515 
L 171.688467 258.652515 
L 171.688467 258.189394 
L 172.930325 258.189394 
L 172.986423 257.263153 
L 173.330714 257.263153 
L 173.330714 256.800033 
L 173.49921 256.800033 
L 173.49921 255.873792 
L 174.862995 255.873792 
L 174.862995 255.410671 
L 175.713661 255.410671 
L 175.72962 254.48443 
L 175.97317 254.48443 
L 175.97317 253.558189 
L 176.778188 253.558189 
L 176.778188 252.631948 
L 177.567431 252.631948 
L 177.567431 252.168828 
L 177.850452 252.168828 
L 177.850452 251.705707 
L 179.04787 251.705707 
L 179.04787 251.242587 
L 179.303155 251.242587 
L 179.338858 250.316346 
L 179.861094 250.316346 
L 179.861094 249.853225 
L 181.152584 249.853225 
L 181.152584 249.390104 
L 182.833841 249.390104 
L 182.833841 248.926984 
L 183.432444 248.926984 
L 183.432444 248.463863 
L 183.786508 248.463863 
L 183.786508 248.000743 
L 184.62768 248.000743 
L 184.62768 247.537622 
L 185.196499 247.537622 
L 185.196499 247.074502 
L 186.916373 247.074502 
L 186.916373 246.611381 
L 187.087706 246.611381 
L 187.087706 246.148261 
L 188.076882 246.148261 
L 188.076882 245.22202 
L 188.490389 245.22202 
L 188.490389 244.758899 
L 189.3184 244.758899 
L 189.3184 243.832658 
L 190.200427 243.832658 
L 190.200427 242.906417 
L 192.899013 242.906417 
L 192.899013 242.443297 
L 220.670432 242.443297 
L 220.670432 241.517056 
L 254.398374 241.517056 
L 254.398374 240.590815 
L 338.688 240.590815 
L 338.688 240.590815 
" style="fill:none;stroke:#ff00ff;stroke-linecap:square;stroke-width:1.5;"/>
   </g>
   <g id="line2d_41">
    <defs>
     <path d="M -0 8.485281 
L 5.091169 0 
L 0 -8.485281 
L -5.091169 -0 
z
" id="m3289d9c5e0" style="stroke:#ff00ff;stroke-linejoin:miter;stroke-width:1.5;"/>
    </defs>
    <g>
     <use style="fill-opacity:0;stroke:#ff00ff;stroke-linejoin:miter;stroke-width:1.5;" x="84.588378" xlink:href="#m3289d9c5e0" y="288.755349"/>
     <use style="fill-opacity:0;stroke:#ff00ff;stroke-linejoin:miter;stroke-width:1.5;" x="150.841405" xlink:href="#m3289d9c5e0" y="280.8823"/>
     <use style="fill-opacity:0;stroke:#ff00ff;stroke-linejoin:miter;stroke-width:1.5;" x="220.670432" xlink:href="#m3289d9c5e0" y="242.443297"/>
     <use style="fill-opacity:0;stroke:#ff00ff;stroke-linejoin:miter;stroke-width:1.5;" x="254.398374" xlink:href="#m3289d9c5e0" y="241.517056"/>
     <use style="fill-opacity:0;stroke:#ff00ff;stroke-linejoin:miter;stroke-width:1.5;" x="254.398374" xlink:href="#m3289d9c5e0" y="240.590815"/>
     <use style="fill-opacity:0;stroke:#ff00ff;stroke-linejoin:miter;stroke-width:1.5;" x="338.688" xlink:href="#m3289d9c5e0" y="240.590815"/>
    </g>
   </g>
   <g id="line2d_42">
    <path style="fill:none;stroke:#ff00ff;stroke-linecap:square;stroke-width:1.5;"/>
    <g/>
   </g>
   <g id="line2d_43">
    <path clip-path="url(#pef1221ab12)" d="M 258.37716 240.590815 
" style="fill:none;stroke:#ff00ff;stroke-linecap:square;stroke-width:1.5;"/>
    <defs>
     <path d="M -12 12 
L 12 -12 
M -12 -12 
L 12 12 
" id="m05c959ef45" style="stroke:#ff00ff;"/>
    </defs>
    <g clip-path="url(#pef1221ab12)">
     <use style="fill:#ff00ff;stroke:#ff00ff;" x="258.37716" xlink:href="#m05c959ef45" y="240.590815"/>
    </g>
   </g>
   <g id="line2d_44">
    <defs>
     <path d="M 0 1.5 
C 0.397805 1.5 0.77937 1.341951 1.06066 1.06066 
C 1.341951 0.77937 1.5 0.397805 1.5 0 
C 1.5 -0.397805 1.341951 -0.77937 1.06066 -1.06066 
C 0.77937 -1.341951 0.397805 -1.5 0 -1.5 
C -0.397805 -1.5 -0.77937 -1.341951 -1.06066 -1.06066 
C -1.341951 -0.77937 -1.5 -0.397805 -1.5 0 
C -1.5 0.397805 -1.341951 0.77937 -1.06066 1.06066 
C -0.77937 1.341951 -0.397805 1.5 0 1.5 
z
" id="m26a8eb198a" style="stroke:#ff7500;"/>
    </defs>
    <g>
     <use style="fill:#ff7500;stroke:#ff7500;" x="253.327288" xlink:href="#m26a8eb198a" y="222.065994"/>
     <use style="fill:#ff7500;stroke:#ff7500;" x="253.327288" xlink:href="#m26a8eb198a" y="222.065994"/>
    </g>
   </g>
   <g id="line2d_45">
    <path d="M 146.291697 298.944 
L 146.291697 298.480879 
L 146.569876 298.480879 
L 146.569876 298.017759 
L 148.219468 298.017759 
L 148.306159 297.091518 
L 148.440161 297.091518 
L 148.440161 296.628397 
L 148.836097 296.628397 
L 148.836097 296.165277 
L 149.113504 296.165277 
L 149.113504 295.702156 
L 149.485628 295.702156 
L 149.485628 294.775915 
L 150.146453 294.775915 
L 150.155097 293.849674 
L 150.352736 293.849674 
L 150.352736 293.386554 
L 150.965587 293.386554 
L 151.006785 292.460313 
L 151.097081 292.460313 
L 151.097081 291.997192 
L 151.357131 291.997192 
L 151.357131 291.534072 
L 151.668912 291.534072 
L 151.747966 290.607831 
L 151.810952 290.607831 
L 151.810952 290.14471 
L 152.0141 290.14471 
L 152.122515 288.292228 
L 152.184165 288.292228 
L 152.184165 287.829108 
L 152.677155 287.829108 
L 152.677155 287.365987 
L 152.848312 287.365987 
L 152.922207 286.439746 
L 153.545105 286.439746 
L 153.545105 285.976625 
L 153.925152 285.976625 
L 154.029268 284.587264 
L 154.132765 284.587264 
L 154.132765 284.124143 
L 154.439623 284.124143 
L 154.446381 283.197902 
L 154.707925 283.197902 
L 154.707925 282.734782 
L 154.86035 282.734782 
L 154.86035 282.271661 
L 155.34833 282.271661 
L 155.380382 280.8823 
L 155.641006 280.8823 
L 155.641006 280.419179 
L 155.872907 280.419179 
L 155.94746 279.492938 
L 156.107908 279.492938 
L 156.107908 279.029818 
L 156.496678 279.029818 
L 156.526689 277.640456 
L 156.723476 277.640456 
L 156.747178 276.714215 
L 156.906335 276.714215 
L 156.906335 276.251095 
L 157.26065 276.251095 
L 157.26065 275.787974 
L 157.415209 275.787974 
L 157.415209 275.324854 
L 158.20082 275.324854 
L 158.20082 274.861733 
L 158.790041 274.861733 
L 158.790041 274.398612 
L 159.180664 274.398612 
L 159.185813 273.472371 
L 159.788013 273.472371 
L 159.788013 273.009251 
L 160.044768 273.009251 
L 160.142522 272.08301 
L 160.244578 272.08301 
L 160.312284 271.156769 
L 160.442124 271.156769 
L 160.499521 270.230528 
L 161.215247 270.230528 
L 161.315788 269.304287 
L 161.796686 269.304287 
L 161.796686 268.378046 
L 163.098888 268.378046 
L 163.098888 267.914925 
L 163.2749 267.914925 
L 163.2749 267.451805 
L 163.768781 267.451805 
L 163.788565 266.062443 
L 163.883215 266.062443 
L 163.883215 265.136202 
L 164.144761 265.136202 
L 164.144761 264.209961 
L 164.283689 264.209961 
L 164.283689 263.746841 
L 164.535552 263.746841 
L 164.535552 263.28372 
L 165.098459 263.28372 
L 165.098459 262.8206 
L 166.034014 262.8206 
L 166.034014 262.357479 
L 166.354389 262.357479 
L 166.361214 260.968117 
L 166.987883 260.968117 
L 166.987883 260.041876 
L 167.330128 260.041876 
L 167.330128 259.578756 
L 169.471824 259.578756 
L 169.471824 259.115635 
L 169.740933 259.115635 
L 169.799863 257.263153 
L 170.367627 257.263153 
L 170.367627 256.336912 
L 170.499999 256.336912 
L 170.499999 255.873792 
L 171.064015 255.873792 
L 171.064015 255.410671 
L 171.219655 255.410671 
L 171.219655 254.947551 
L 171.61036 254.947551 
L 171.61036 254.48443 
L 172.570788 254.48443 
L 172.570788 253.558189 
L 172.927984 253.558189 
L 172.927984 253.095069 
L 173.084161 253.095069 
L 173.084161 252.631948 
L 173.467457 252.631948 
L 173.467457 252.168828 
L 173.795789 252.168828 
L 173.795789 251.705707 
L 174.041339 251.705707 
L 174.041339 251.242587 
L 174.833633 251.242587 
L 174.833633 250.779466 
L 177.109241 250.779466 
L 177.109241 250.316346 
L 177.423274 250.316346 
L 177.423274 249.853225 
L 177.861043 249.853225 
L 177.861043 249.390104 
L 177.982376 249.390104 
L 177.982376 248.926984 
L 178.709976 248.926984 
L 178.709976 248.463863 
L 179.29178 248.463863 
L 179.29178 248.000743 
L 180.023962 248.000743 
L 180.023962 247.537622 
L 183.945327 247.537622 
L 183.945327 247.074502 
L 184.308748 247.074502 
L 184.308748 246.148261 
L 185.422134 246.148261 
L 185.422134 245.22202 
L 185.608713 245.22202 
L 185.608713 244.758899 
L 188.115149 244.758899 
L 188.115149 244.295779 
L 189.520307 244.295779 
L 189.520307 243.369538 
L 191.002648 243.369538 
L 191.002648 242.906417 
L 191.192638 242.906417 
L 191.192638 242.443297 
L 191.381394 242.443297 
L 191.381394 241.517056 
L 192.284118 241.517056 
L 192.284118 241.053935 
L 194.798 241.053935 
L 194.798 240.590815 
L 196.81296 240.590815 
L 196.81296 239.664574 
L 199.420355 239.664574 
L 199.420355 239.201453 
L 200.249142 239.201453 
L 200.249142 238.275212 
L 204.240808 238.275212 
L 204.240808 237.348971 
L 204.958296 237.348971 
L 205.066904 236.42273 
L 206.827765 236.42273 
L 206.827765 235.496489 
L 211.699248 235.496489 
L 211.699248 234.570248 
L 214.452983 234.570248 
L 214.452983 234.107127 
L 216.754135 234.107127 
L 216.754135 233.180886 
L 220.718557 233.180886 
L 220.718557 232.254645 
L 221.047171 232.254645 
L 221.047171 231.328404 
L 224.454665 231.328404 
L 224.454665 230.865284 
L 225.140701 230.865284 
L 225.140701 229.939043 
L 228.400157 229.939043 
L 228.455425 228.086561 
L 237.83713 228.086561 
L 237.83713 227.16032 
L 238.174749 227.16032 
L 238.174749 226.697199 
L 241.853645 226.697199 
L 241.853645 225.770958 
L 243.171279 225.770958 
L 243.171279 224.844717 
L 247.070089 224.844717 
L 247.070089 224.381596 
L 252.320349 224.381596 
L 252.320349 223.918476 
L 253.085954 223.918476 
L 253.085954 222.992235 
L 253.327288 222.992235 
L 253.327288 222.065994 
L 338.688 222.065994 
L 338.688 222.065994 
" style="fill:none;stroke:#ff7500;stroke-linecap:square;stroke-width:1.5;"/>
   </g>
   <g id="line2d_46">
    <defs>
     <path d="M 0 -6 
L -1.347084 -1.854102 
L -5.706339 -1.854102 
L -2.179628 0.708204 
L -3.526712 4.854102 
L -0 2.291796 
L 3.526712 4.854102 
L 2.179628 0.708204 
L 5.706339 -1.854102 
L 1.347084 -1.854102 
z
" id="mfacd7997c2" style="stroke:#ff7500;stroke-linejoin:bevel;stroke-width:1.5;"/>
    </defs>
    <g>
     <use style="fill-opacity:0;stroke:#ff7500;stroke-linejoin:bevel;stroke-width:1.5;" x="196.81296" xlink:href="#mfacd7997c2" y="240.590815"/>
     <use style="fill-opacity:0;stroke:#ff7500;stroke-linejoin:bevel;stroke-width:1.5;" x="253.327288" xlink:href="#mfacd7997c2" y="222.992235"/>
     <use style="fill-opacity:0;stroke:#ff7500;stroke-linejoin:bevel;stroke-width:1.5;" x="253.327288" xlink:href="#mfacd7997c2" y="222.065994"/>
     <use style="fill-opacity:0;stroke:#ff7500;stroke-linejoin:bevel;stroke-width:1.5;" x="253.327288" xlink:href="#mfacd7997c2" y="222.065994"/>
     <use style="fill-opacity:0;stroke:#ff7500;stroke-linejoin:bevel;stroke-width:1.5;" x="338.688" xlink:href="#mfacd7997c2" y="222.065994"/>
    </g>
   </g>
   <g id="line2d_47">
    <path style="fill:none;stroke:#ff7500;stroke-linecap:square;stroke-width:1.5;"/>
    <g/>
   </g>
   <g id="line2d_48">
    <path clip-path="url(#pef1221ab12)" d="M 258.377143 222.065994 
" style="fill:none;stroke:#ff7500;stroke-linecap:square;stroke-width:1.5;"/>
    <defs>
     <path d="M -12 12 
L 12 -12 
M -12 -12 
L 12 12 
" id="mf8d9085233" style="stroke:#ff7500;"/>
    </defs>
    <g clip-path="url(#pef1221ab12)">
     <use style="fill:#ff7500;stroke:#ff7500;" x="258.377143" xlink:href="#mf8d9085233" y="222.065994"/>
    </g>
   </g>
   <g id="line2d_49">
    <defs>
     <path d="M 0 1.5 
C 0.397805 1.5 0.77937 1.341951 1.06066 1.06066 
C 1.341951 0.77937 1.5 0.397805 1.5 0 
C 1.5 -0.397805 1.341951 -0.77937 1.06066 -1.06066 
C 0.77937 -1.341951 0.397805 -1.5 0 -1.5 
C -0.397805 -1.5 -0.77937 -1.341951 -1.06066 -1.06066 
C -1.341951 -0.77937 -1.5 -0.397805 -1.5 0 
C -1.5 0.397805 -1.341951 0.77937 -1.06066 1.06066 
C -0.77937 1.341951 -0.397805 1.5 0 1.5 
z
" id="mef775eda8d" style="stroke:#6495ed;"/>
    </defs>
    <g>
     <use style="fill:#6495ed;stroke:#6495ed;" x="257.095747" xlink:href="#mef775eda8d" y="244.295779"/>
     <use style="fill:#6495ed;stroke:#6495ed;" x="257.095747" xlink:href="#mef775eda8d" y="244.295779"/>
    </g>
   </g>
   <g id="line2d_50">
    <path d="M 17.444571 298.944 
L 17.444571 293.386554 
L 116.680349 293.386554 
L 116.680349 292.923433 
L 121.931406 292.923433 
L 121.931406 292.460313 
L 132.422528 292.460313 
L 132.422528 291.997192 
L 133.33018 291.997192 
L 133.352844 291.070951 
L 134.279041 291.070951 
L 134.279041 290.607831 
L 135.014985 290.607831 
L 135.014985 290.14471 
L 136.607732 290.14471 
L 136.607732 289.68159 
L 136.813232 289.68159 
L 136.813232 289.218469 
L 137.071324 289.218469 
L 137.071324 288.755349 
L 137.325651 288.755349 
L 137.325651 288.292228 
L 138.221972 288.292228 
L 138.239095 287.365987 
L 138.578062 287.365987 
L 138.578062 286.902867 
L 138.728473 286.902867 
L 138.728473 286.439746 
L 138.861092 286.439746 
L 138.861092 285.976625 
L 138.976312 285.976625 
L 138.976312 285.513505 
L 139.667863 285.513505 
L 139.667863 285.050384 
L 141.220721 285.050384 
L 141.220721 284.587264 
L 142.297475 284.587264 
L 142.297475 283.661023 
L 142.712875 283.661023 
L 142.739338 282.734782 
L 142.884173 282.734782 
L 142.949611 281.808541 
L 143.014805 281.808541 
L 143.014805 281.34542 
L 144.629556 281.34542 
L 144.712404 280.419179 
L 146.885432 280.419179 
L 146.885432 279.956059 
L 147.650212 279.956059 
L 147.650212 279.492938 
L 149.359452 279.492938 
L 149.359452 279.029818 
L 149.841182 279.029818 
L 149.841182 278.566697 
L 150.590355 278.566697 
L 150.590355 278.103577 
L 151.195055 278.103577 
L 151.195055 277.640456 
L 151.645126 277.640456 
L 151.645126 277.177336 
L 153.537988 277.177336 
L 153.537988 276.714215 
L 155.316219 276.714215 
L 155.316219 276.251095 
L 160.083935 276.251095 
L 160.083935 275.787974 
L 162.812686 275.787974 
L 162.812686 275.324854 
L 163.748975 275.324854 
L 163.748975 274.861733 
L 164.832318 274.861733 
L 164.832318 274.398612 
L 166.127634 274.398612 
L 166.127634 273.935492 
L 168.9532 273.935492 
L 168.9532 273.472371 
L 172.213443 273.472371 
L 172.213443 273.009251 
L 174.719912 273.009251 
L 174.719912 272.54613 
L 175.104402 272.54613 
L 175.104402 271.619889 
L 175.892364 271.619889 
L 175.892364 271.156769 
L 176.203666 271.156769 
L 176.203666 270.693648 
L 176.983512 270.693648 
L 176.983512 270.230528 
L 177.419654 270.230528 
L 177.419654 269.767407 
L 180.511214 269.767407 
L 180.511214 268.841166 
L 182.496245 268.841166 
L 182.496245 268.378046 
L 184.176576 268.378046 
L 184.176576 267.914925 
L 185.59173 267.914925 
L 185.59173 267.451805 
L 186.200573 267.451805 
L 186.200573 266.988684 
L 186.340027 266.988684 
L 186.340027 266.062443 
L 186.922671 266.062443 
L 186.922671 265.599323 
L 193.854253 265.599323 
L 193.854253 265.136202 
L 195.570999 265.136202 
L 195.570999 264.673082 
L 197.675754 264.673082 
L 197.675754 264.209961 
L 198.184885 264.209961 
L 198.184885 263.746841 
L 199.355653 263.746841 
L 199.355653 262.8206 
L 201.297189 262.8206 
L 201.297189 261.894358 
L 202.999452 261.894358 
L 202.999452 261.431238 
L 204.329611 261.431238 
L 204.329611 260.504997 
L 204.928796 260.504997 
L 204.928796 260.041876 
L 211.089725 260.041876 
L 211.089725 259.578756 
L 211.395989 259.578756 
L 211.395989 258.652515 
L 211.664739 258.652515 
L 211.664739 257.726274 
L 215.590458 257.726274 
L 215.590458 256.800033 
L 218.550808 256.800033 
L 218.550808 256.336912 
L 220.046076 256.336912 
L 220.046076 255.873792 
L 221.487672 255.873792 
L 221.487672 255.410671 
L 221.753167 255.410671 
L 221.81487 254.48443 
L 222.271365 254.48443 
L 222.271365 254.02131 
L 222.921872 254.02131 
L 222.921872 253.558189 
L 223.566963 253.558189 
L 223.566963 253.095069 
L 225.453479 253.095069 
L 225.453479 252.631948 
L 225.820179 252.631948 
L 225.851847 251.705707 
L 225.962177 251.705707 
L 226.047558 250.779466 
L 233.114384 250.779466 
L 233.114384 250.316346 
L 242.468091 250.316346 
L 242.468091 249.390104 
L 246.658998 249.390104 
L 246.658998 248.926984 
L 246.859174 248.926984 
L 246.859174 248.463863 
L 247.223297 248.463863 
L 247.223297 248.000743 
L 247.752051 248.000743 
L 247.752051 247.537622 
L 249.780226 247.537622 
L 249.780226 246.611381 
L 250.122567 246.611381 
L 250.122567 246.148261 
L 253.079551 246.148261 
L 253.079551 245.68514 
L 253.276334 245.68514 
L 253.276334 245.22202 
L 254.054035 245.22202 
L 254.054035 244.758899 
L 257.095747 244.758899 
L 257.095747 244.295779 
L 338.688 244.295779 
L 338.688 244.295779 
" style="fill:none;stroke:#6495ed;stroke-linecap:square;stroke-width:1.5;"/>
   </g>
   <g id="line2d_51">
    <defs>
     <path d="M -0 6 
L 6 -6 
L -6 -6 
z
" id="m171f5c36e7" style="stroke:#6495ed;stroke-linejoin:miter;stroke-width:1.5;"/>
    </defs>
    <g>
     <use style="fill-opacity:0;stroke:#6495ed;stroke-linejoin:miter;stroke-width:1.5;" x="153.537988" xlink:href="#m171f5c36e7" y="277.177336"/>
     <use style="fill-opacity:0;stroke:#6495ed;stroke-linejoin:miter;stroke-width:1.5;" x="204.329611" xlink:href="#m171f5c36e7" y="260.504997"/>
     <use style="fill-opacity:0;stroke:#6495ed;stroke-linejoin:miter;stroke-width:1.5;" x="257.095747" xlink:href="#m171f5c36e7" y="244.758899"/>
     <use style="fill-opacity:0;stroke:#6495ed;stroke-linejoin:miter;stroke-width:1.5;" x="257.095747" xlink:href="#m171f5c36e7" y="244.295779"/>
     <use style="fill-opacity:0;stroke:#6495ed;stroke-linejoin:miter;stroke-width:1.5;" x="338.688" xlink:href="#m171f5c36e7" y="244.295779"/>
    </g>
   </g>
   <g id="line2d_52">
    <path style="fill:none;stroke:#6495ed;stroke-linecap:square;stroke-width:1.5;"/>
    <g/>
   </g>
   <g id="line2d_53">
    <path clip-path="url(#pef1221ab12)" d="M 258.378276 244.295779 
" style="fill:none;stroke:#6495ed;stroke-linecap:square;stroke-width:1.5;"/>
    <defs>
     <path d="M -12 12 
L 12 -12 
M -12 -12 
L 12 12 
" id="m8d147de515" style="stroke:#6495ed;"/>
    </defs>
    <g clip-path="url(#pef1221ab12)">
     <use style="fill:#6495ed;stroke:#6495ed;" x="258.378276" xlink:href="#m8d147de515" y="244.295779"/>
    </g>
   </g>
   <g id="line2d_54">
    <defs>
     <path d="M 0 1.5 
C 0.397805 1.5 0.77937 1.341951 1.06066 1.06066 
C 1.341951 0.77937 1.5 0.397805 1.5 0 
C 1.5 -0.397805 1.341951 -0.77937 1.06066 -1.06066 
C 0.77937 -1.341951 0.397805 -1.5 0 -1.5 
C -0.397805 -1.5 -0.77937 -1.341951 -1.06066 -1.06066 
C -1.341951 -0.77937 -1.5 -0.397805 -1.5 0 
C -1.5 0.397805 -1.341951 0.77937 -1.06066 1.06066 
C -0.77937 1.341951 -0.397805 1.5 0 1.5 
z
" id="mea4f3a7b6d" style="stroke:#ff0000;"/>
    </defs>
    <g>
     <use style="fill:#ff0000;stroke:#ff0000;" x="299.253127" xlink:href="#mea4f3a7b6d" y="157.229121"/>
     <use style="fill:#ff0000;stroke:#ff0000;" x="299.253127" xlink:href="#mea4f3a7b6d" y="157.229121"/>
    </g>
   </g>
   <g id="line2d_55">
    <path d="M 17.444571 298.944 
L 17.444571 291.997192 
L 29.53256 291.997192 
L 29.53256 289.68159 
L 41.620548 289.68159 
L 41.620548 289.218469 
L 62.175444 289.218469 
L 62.175444 286.902867 
L 64.67102 286.902867 
L 64.67102 286.439746 
L 70.538854 286.439746 
L 70.538854 285.976625 
L 72.125336 285.976625 
L 72.125336 285.513505 
L 74.263433 285.513505 
L 74.263433 285.050384 
L 76.759008 285.050384 
L 76.759008 284.587264 
L 78.421149 284.587264 
L 78.421149 284.124143 
L 84.588378 284.124143 
L 84.588378 283.661023 
L 85.66744 283.661023 
L 85.66744 283.197902 
L 88.846997 283.197902 
L 88.846997 282.734782 
L 90.242884 282.734782 
L 90.242884 282.271661 
L 92.026554 282.271661 
L 92.026554 281.34542 
L 92.504372 281.34542 
L 92.504372 280.8823 
L 93.644601 280.8823 
L 93.644601 280.419179 
L 94.294587 280.419179 
L 94.294587 279.956059 
L 94.921215 279.956059 
L 94.921215 279.492938 
L 95.125186 279.492938 
L 95.125186 279.029818 
L 95.723163 279.029818 
L 95.723163 278.566697 
L 96.110718 278.566697 
L 96.110718 278.103577 
L 97.224242 278.103577 
L 97.224242 277.640456 
L 99.097574 277.640456 
L 99.097574 277.177336 
L 99.258306 277.177336 
L 99.258306 276.714215 
L 99.41757 276.714215 
L 99.41757 276.251095 
L 102.330873 276.251095 
L 102.330873 275.787974 
L 104.114542 275.787974 
L 104.114542 274.861733 
L 109.222105 274.861733 
L 109.222105 273.935492 
L 110.274038 273.935492 
L 110.274038 273.472371 
L 111.819788 273.472371 
L 111.819788 273.009251 
L 123.152022 273.009251 
L 123.152022 272.54613 
L 123.394238 272.54613 
L 123.394238 272.08301 
L 123.553867 272.08301 
L 123.553867 271.619889 
L 126.773103 271.619889 
L 126.773103 271.156769 
L 128.91501 271.156769 
L 128.91501 270.693648 
L 129.175952 270.693648 
L 129.175952 270.230528 
L 129.347769 270.230528 
L 129.347769 269.767407 
L 129.79784 269.767407 
L 129.908566 268.841166 
L 131.864229 268.841166 
L 131.864229 268.378046 
L 132.823992 268.378046 
L 132.823992 267.451805 
L 136.2853 267.451805 
L 136.2853 266.988684 
L 137.629572 266.988684 
L 137.629572 266.062443 
L 138.460171 266.062443 
L 138.460171 265.136202 
L 140.767727 265.136202 
L 140.767727 264.673082 
L 144.257856 264.673082 
L 144.257856 264.209961 
L 144.55823 264.209961 
L 144.55823 263.28372 
L 145.699363 263.28372 
L 145.699363 262.8206 
L 146.019967 262.8206 
L 146.019967 262.357479 
L 147.749695 262.357479 
L 147.749695 261.894358 
L 157.174189 261.894358 
L 157.174189 261.431238 
L 159.39565 261.431238 
L 159.39565 260.968117 
L 167.779397 260.968117 
L 167.779397 260.504997 
L 168.596677 260.504997 
L 168.596677 259.578756 
L 169.508896 259.578756 
L 169.508896 259.115635 
L 173.284893 259.115635 
L 173.284893 258.652515 
L 179.831174 258.652515 
L 179.900384 257.726274 
L 180.022403 257.726274 
L 180.022403 256.800033 
L 184.384175 256.800033 
L 184.384175 256.336912 
L 185.542955 256.336912 
L 185.542955 255.873792 
L 187.253254 255.873792 
L 187.253254 255.410671 
L 187.865398 255.410671 
L 187.865398 254.947551 
L 188.199236 254.947551 
L 188.199236 254.48443 
L 192.413288 254.48443 
L 192.413288 254.02131 
L 195.189762 254.02131 
L 195.189762 253.558189 
L 197.954492 253.558189 
L 197.954492 253.095069 
L 198.23488 253.095069 
L 198.275977 251.705707 
L 203.003626 251.705707 
L 203.003626 250.779466 
L 203.147851 250.779466 
L 203.18052 248.463863 
L 203.463286 248.463863 
L 203.463286 248.000743 
L 203.694268 248.000743 
L 203.694268 247.074502 
L 204.072828 247.074502 
L 204.072828 246.611381 
L 204.231864 246.611381 
L 204.231864 246.148261 
L 205.322716 246.148261 
L 205.322716 245.68514 
L 206.107547 245.68514 
L 206.107547 244.758899 
L 206.30967 244.758899 
L 206.30967 244.295779 
L 207.134751 244.295779 
L 207.134751 243.369538 
L 207.438045 243.369538 
L 207.530042 241.980176 
L 207.643321 241.980176 
L 207.643321 241.517056 
L 207.7708 241.517056 
L 207.7708 241.053935 
L 208.074871 241.053935 
L 208.074871 240.590815 
L 209.681408 240.590815 
L 209.699327 239.664574 
L 210.305304 239.664574 
L 210.305304 239.201453 
L 211.302106 239.201453 
L 211.302106 238.738333 
L 212.320749 238.738333 
L 212.320749 237.812091 
L 212.498652 237.812091 
L 212.498652 236.88585 
L 213.260926 236.88585 
L 213.260926 235.959609 
L 216.905618 235.959609 
L 216.905618 235.496489 
L 217.682615 235.496489 
L 217.682615 234.570248 
L 220.937225 234.570248 
L 220.937225 233.644007 
L 221.0885 233.644007 
L 221.0885 232.717766 
L 221.822532 232.717766 
L 221.822532 231.791525 
L 222.64572 231.791525 
L 222.64572 230.865284 
L 223.201716 230.865284 
L 223.201716 229.939043 
L 224.404946 229.939043 
L 224.404946 229.012802 
L 226.69817 229.012802 
L 226.69817 228.086561 
L 227.018597 228.086561 
L 227.018597 227.62344 
L 228.37952 227.62344 
L 228.37952 226.697199 
L 230.322952 226.697199 
L 230.421998 223.918476 
L 230.955326 223.918476 
L 230.955326 222.992235 
L 231.314433 222.992235 
L 231.314433 222.529114 
L 231.601557 222.529114 
L 231.601557 221.602873 
L 232.178616 221.602873 
L 232.178616 221.139753 
L 234.206815 221.139753 
L 234.206815 220.213512 
L 234.441215 220.213512 
L 234.441215 219.287271 
L 236.891496 219.287271 
L 236.936813 217.897909 
L 237.020452 217.897909 
L 237.020452 217.434789 
L 237.155823 217.434789 
L 237.174598 216.045427 
L 237.491516 216.045427 
L 237.491516 215.119186 
L 237.82971 215.119186 
L 237.82971 214.656066 
L 239.325352 214.656066 
L 239.325352 214.192945 
L 242.05351 214.192945 
L 242.05351 213.729825 
L 242.198138 213.729825 
L 242.198138 213.266704 
L 242.828525 213.266704 
L 242.828525 212.340463 
L 243.892407 212.340463 
L 243.982413 210.487981 
L 246.126492 210.487981 
L 246.126492 210.02486 
L 246.252214 210.02486 
L 246.252214 209.098619 
L 249.818984 209.098619 
L 249.818984 208.172378 
L 250.119655 208.172378 
L 250.119655 207.709258 
L 250.678322 207.709258 
L 250.678322 206.783017 
L 250.824953 206.783017 
L 250.824953 205.856776 
L 251.277333 205.856776 
L 251.277333 205.393655 
L 251.501306 205.393655 
L 251.501306 204.467414 
L 252.322348 204.467414 
L 252.322348 204.004294 
L 254.56717 204.004294 
L 254.56717 203.078053 
L 255.470663 203.078053 
L 255.470663 202.151812 
L 257.731688 202.151812 
L 257.731688 201.225571 
L 258.132612 201.225571 
L 258.132612 200.76245 
L 259.106675 200.76245 
L 259.106675 200.299329 
L 259.615426 200.299329 
L 259.708854 198.909968 
L 260.071074 198.909968 
L 260.071074 197.983727 
L 260.899704 197.983727 
L 260.899704 197.520606 
L 262.916961 197.520606 
L 262.916961 197.057486 
L 268.36406 197.057486 
L 268.36406 196.594365 
L 268.550584 196.594365 
L 268.550584 195.668124 
L 268.852319 195.668124 
L 268.927382 194.278763 
L 269.014437 194.278763 
L 269.014437 193.815642 
L 269.371685 193.815642 
L 269.371685 192.889401 
L 270.63921 192.889401 
L 270.63921 192.426281 
L 271.547066 192.426281 
L 271.547066 191.50004 
L 271.675704 191.50004 
L 271.675704 191.036919 
L 272.298005 191.036919 
L 272.298005 190.110678 
L 272.881456 190.110678 
L 272.881456 189.647558 
L 273.987738 189.647558 
L 273.987738 188.721316 
L 274.569975 188.721316 
L 274.569975 187.795075 
L 275.534289 187.795075 
L 275.534289 187.331955 
L 276.789981 187.331955 
L 276.789981 186.868834 
L 277.274138 186.868834 
L 277.274138 186.405714 
L 278.249626 186.405714 
L 278.249626 185.942593 
L 279.393661 185.942593 
L 279.393661 185.479473 
L 279.874706 185.479473 
L 279.874706 184.553232 
L 280.073033 184.553232 
L 280.073033 184.090111 
L 280.370776 184.090111 
L 280.370776 183.626991 
L 281.20564 183.626991 
L 281.20564 183.16387 
L 281.582667 183.16387 
L 281.582667 182.70075 
L 281.774554 182.70075 
L 281.838034 181.311388 
L 282.496289 181.311388 
L 282.588842 180.385147 
L 282.8412 180.385147 
L 282.8412 179.922027 
L 283.992789 179.922027 
L 283.992789 179.458906 
L 284.171135 179.458906 
L 284.171135 178.532665 
L 284.482766 178.532665 
L 284.482766 178.069545 
L 285.067319 178.069545 
L 285.067319 177.143304 
L 286.820729 177.143304 
L 286.820729 176.217062 
L 290.50902 176.217062 
L 290.50902 175.290821 
L 291.577588 175.290821 
L 291.577588 174.827701 
L 292.033859 174.827701 
L 292.119746 173.438339 
L 292.31291 173.438339 
L 292.371344 172.512098 
L 292.469611 172.512098 
L 292.522788 171.585857 
L 292.594194 171.585857 
L 292.594194 171.122737 
L 292.768645 171.122737 
L 292.768645 170.659616 
L 293.296758 170.659616 
L 293.406698 169.733375 
L 293.599107 169.733375 
L 293.599107 169.270255 
L 293.78474 169.270255 
L 293.848203 167.880893 
L 294.041502 167.880893 
L 294.128762 166.491532 
L 294.198775 166.491532 
L 294.198775 165.565291 
L 294.647632 165.565291 
L 294.647632 164.63905 
L 294.897205 164.63905 
L 294.897205 164.175929 
L 295.418358 164.175929 
L 295.418358 163.712808 
L 295.69151 163.712808 
L 295.69151 163.249688 
L 295.867336 163.249688 
L 295.935234 161.860326 
L 296.030713 161.860326 
L 296.030713 161.397206 
L 296.263969 161.397206 
L 296.36704 160.470965 
L 296.860348 160.470965 
L 296.860348 160.007844 
L 297.165569 160.007844 
L 297.165569 159.544724 
L 297.378377 159.544724 
L 297.462213 158.618483 
L 298.082587 158.618483 
L 298.082587 157.692242 
L 299.253127 157.692242 
L 299.253127 157.229121 
L 338.688 157.229121 
L 338.688 157.229121 
" style="fill:none;stroke:#ff0000;stroke-linecap:square;stroke-width:1.5;"/>
   </g>
   <g id="line2d_56">
    <defs>
     <path d="M 0 -6 
L -5.196152 -3 
L -5.196152 3 
L -0 6 
L 5.196152 3 
L 5.196152 -3 
z
" id="m04d37f3e19" style="stroke:#ff0000;stroke-linejoin:miter;stroke-width:1.5;"/>
    </defs>
    <g>
     <use style="fill-opacity:0;stroke:#ff0000;stroke-linejoin:miter;stroke-width:1.5;" x="84.588378" xlink:href="#m04d37f3e19" y="284.124143"/>
     <use style="fill-opacity:0;stroke:#ff0000;stroke-linejoin:miter;stroke-width:1.5;" x="132.823992" xlink:href="#m04d37f3e19" y="268.378046"/>
     <use style="fill-opacity:0;stroke:#ff0000;stroke-linejoin:miter;stroke-width:1.5;" x="224.404946" xlink:href="#m04d37f3e19" y="229.012802"/>
     <use style="fill-opacity:0;stroke:#ff0000;stroke-linejoin:miter;stroke-width:1.5;" x="279.874706" xlink:href="#m04d37f3e19" y="184.553232"/>
     <use style="fill-opacity:0;stroke:#ff0000;stroke-linejoin:miter;stroke-width:1.5;" x="299.253127" xlink:href="#m04d37f3e19" y="157.229121"/>
     <use style="fill-opacity:0;stroke:#ff0000;stroke-linejoin:miter;stroke-width:1.5;" x="338.688" xlink:href="#m04d37f3e19" y="157.229121"/>
    </g>
   </g>
   <g id="line2d_57">
    <path style="fill:none;stroke:#ff0000;stroke-linecap:square;stroke-width:1.5;"/>
    <g/>
   </g>
   <g id="line2d_58">
    <path clip-path="url(#pef1221ab12)" d="M 300.995698 157.229121 
" style="fill:none;stroke:#ff0000;stroke-linecap:square;stroke-width:1.5;"/>
    <defs>
     <path d="M -12 12 
L 12 -12 
M -12 -12 
L 12 12 
" id="ma259b4df78" style="stroke:#ff0000;"/>
    </defs>
    <g clip-path="url(#pef1221ab12)">
     <use style="fill:#ff0000;stroke:#ff0000;" x="300.995698" xlink:href="#ma259b4df78" y="157.229121"/>
    </g>
   </g>
   <g id="line2d_59">
    <path d="M 338.688 275.324854 
L 369.60768 293.571802 
" style="fill:none;stroke:#000080;stroke-linecap:square;stroke-width:1.5;"/>
    <g>
     <use style="fill-opacity:0;stroke:#000080;stroke-width:1.5;" x="338.688" xlink:href="#ma74fe7f9c5" y="275.324854"/>
     <use style="fill-opacity:0;stroke:#000080;stroke-width:1.5;" x="369.60768" xlink:href="#ma74fe7f9c5" y="293.571802"/>
    </g>
   </g>
   <g id="line2d_60">
    <path d="M 338.688 244.295779 
L 369.60768 241.998701 
" style="fill:none;stroke:#6495ed;stroke-linecap:square;stroke-width:1.5;"/>
    <g>
     <use style="fill-opacity:0;stroke:#6495ed;stroke-linejoin:miter;stroke-width:1.5;" x="338.688" xlink:href="#m171f5c36e7" y="244.295779"/>
     <use style="fill-opacity:0;stroke:#6495ed;stroke-linejoin:miter;stroke-width:1.5;" x="369.60768" xlink:href="#m171f5c36e7" y="241.998701"/>
    </g>
   </g>
   <g id="line2d_61">
    <path d="M 338.688 240.590815 
L 369.60768 190.4256 
" style="fill:none;stroke:#ff00ff;stroke-linecap:square;stroke-width:1.5;"/>
    <g>
     <use style="fill-opacity:0;stroke:#ff00ff;stroke-linejoin:miter;stroke-width:1.5;" x="338.688" xlink:href="#m3289d9c5e0" y="240.590815"/>
     <use style="fill-opacity:0;stroke:#ff00ff;stroke-linejoin:miter;stroke-width:1.5;" x="369.60768" xlink:href="#m3289d9c5e0" y="190.4256"/>
    </g>
   </g>
   <g id="line2d_62">
    <path d="M 338.688 222.065994 
L 369.60768 138.852499 
" style="fill:none;stroke:#ff7500;stroke-linecap:square;stroke-width:1.5;"/>
    <g>
     <use style="fill-opacity:0;stroke:#ff7500;stroke-linejoin:bevel;stroke-width:1.5;" x="338.688" xlink:href="#mfacd7997c2" y="222.065994"/>
     <use style="fill-opacity:0;stroke:#ff7500;stroke-linejoin:bevel;stroke-width:1.5;" x="369.60768" xlink:href="#mfacd7997c2" y="138.852499"/>
    </g>
   </g>
   <g id="line2d_63">
    <path d="M 338.688 157.229121 
L 369.60768 87.279398 
" style="fill:none;stroke:#ff0000;stroke-linecap:square;stroke-width:1.5;"/>
    <g>
     <use style="fill-opacity:0;stroke:#ff0000;stroke-linejoin:miter;stroke-width:1.5;" x="338.688" xlink:href="#m04d37f3e19" y="157.229121"/>
     <use style="fill-opacity:0;stroke:#ff0000;stroke-linejoin:miter;stroke-width:1.5;" x="369.60768" xlink:href="#m04d37f3e19" y="87.279398"/>
    </g>
   </g>
   <g id="line2d_64">
    <path d="M 338.688 298.944 
L 338.688 30.334099 
" style="fill:none;stroke:#000000;stroke-linecap:square;stroke-width:1.5;"/>
   </g>
   <g id="patch_3">
    <path d="M 57.6 298.944 
L 57.6 27.648 
" style="fill:none;stroke:#000000;stroke-linecap:square;stroke-linejoin:miter;stroke-width:0.8;"/>
   </g>
   <g id="patch_4">
    <path d="M 338.688 298.944 
L 338.688 27.648 
" style="fill:none;stroke:#000000;stroke-linecap:square;stroke-linejoin:miter;stroke-width:0.8;"/>
   </g>
   <g id="patch_5">
    <path d="M 57.6 298.944 
L 338.688 298.944 
" style="fill:none;stroke:#000000;stroke-linecap:square;stroke-linejoin:miter;stroke-width:0.8;"/>
   </g>
   <g id="patch_6">
    <path d="M 57.6 27.648 
L 338.688 27.648 
" style="fill:none;stroke:#000000;stroke-linecap:square;stroke-linejoin:miter;stroke-width:0.8;"/>
   </g>
   <g id="text_13">
    <!-- MOLE -->
    <g transform="translate(375.22944 298.262739)scale(0.17 -0.17)">
     <defs>
      <path d="M 9.8125 72.90625 
L 24.515625 72.90625 
L 43.109375 23.296875 
L 61.8125 72.90625 
L 76.515625 72.90625 
L 76.515625 0 
L 66.890625 0 
L 66.890625 64.015625 
L 48.09375 14.015625 
L 38.1875 14.015625 
L 19.390625 64.015625 
L 19.390625 0 
L 9.8125 0 
z
" id="DejaVuSans-77"/>
      <path d="M 39.40625 66.21875 
Q 28.65625 66.21875 22.328125 58.203125 
Q 16.015625 50.203125 16.015625 36.375 
Q 16.015625 22.609375 22.328125 14.59375 
Q 28.65625 6.59375 39.40625 6.59375 
Q 50.140625 6.59375 56.421875 14.59375 
Q 62.703125 22.609375 62.703125 36.375 
Q 62.703125 50.203125 56.421875 58.203125 
Q 50.140625 66.21875 39.40625 66.21875 
z
M 39.40625 74.21875 
Q 54.734375 74.21875 63.90625 63.9375 
Q 73.09375 53.65625 73.09375 36.375 
Q 73.09375 19.140625 63.90625 8.859375 
Q 54.734375 -1.421875 39.40625 -1.421875 
Q 24.03125 -1.421875 14.8125 8.828125 
Q 5.609375 19.09375 5.609375 36.375 
Q 5.609375 53.65625 14.8125 63.9375 
Q 24.03125 74.21875 39.40625 74.21875 
z
" id="DejaVuSans-79"/>
      <path d="M 9.8125 72.90625 
L 19.671875 72.90625 
L 19.671875 8.296875 
L 55.171875 8.296875 
L 55.171875 0 
L 9.8125 0 
z
" id="DejaVuSans-76"/>
      <path d="M 9.8125 72.90625 
L 55.90625 72.90625 
L 55.90625 64.59375 
L 19.671875 64.59375 
L 19.671875 43.015625 
L 54.390625 43.015625 
L 54.390625 34.71875 
L 19.671875 34.71875 
L 19.671875 8.296875 
L 56.78125 8.296875 
L 56.78125 0 
L 9.8125 0 
z
" id="DejaVuSans-69"/>
     </defs>
     <use xlink:href="#DejaVuSans-77"/>
     <use x="86.279297" xlink:href="#DejaVuSans-79"/>
     <use x="164.990234" xlink:href="#DejaVuSans-76"/>
     <use x="220.703125" xlink:href="#DejaVuSans-69"/>
    </g>
   </g>
   <g id="text_14">
    <!-- NSGA-II-M -->
    <g transform="translate(375.22944 246.689638)scale(0.17 -0.17)">
     <defs>
      <path d="M 9.8125 72.90625 
L 23.09375 72.90625 
L 55.421875 11.921875 
L 55.421875 72.90625 
L 64.984375 72.90625 
L 64.984375 0 
L 51.703125 0 
L 19.390625 60.984375 
L 19.390625 0 
L 9.8125 0 
z
" id="DejaVuSans-78"/>
      <path d="M 53.515625 70.515625 
L 53.515625 60.890625 
Q 47.90625 63.578125 42.921875 64.890625 
Q 37.9375 66.21875 33.296875 66.21875 
Q 25.25 66.21875 20.875 63.09375 
Q 16.5 59.96875 16.5 54.203125 
Q 16.5 49.359375 19.40625 46.890625 
Q 22.3125 44.4375 30.421875 42.921875 
L 36.375 41.703125 
Q 47.40625 39.59375 52.65625 34.296875 
Q 57.90625 29 57.90625 20.125 
Q 57.90625 9.515625 50.796875 4.046875 
Q 43.703125 -1.421875 29.984375 -1.421875 
Q 24.8125 -1.421875 18.96875 -0.25 
Q 13.140625 0.921875 6.890625 3.21875 
L 6.890625 13.375 
Q 12.890625 10.015625 18.65625 8.296875 
Q 24.421875 6.59375 29.984375 6.59375 
Q 38.421875 6.59375 43.015625 9.90625 
Q 47.609375 13.234375 47.609375 19.390625 
Q 47.609375 24.75 44.3125 27.78125 
Q 41.015625 30.8125 33.5 32.328125 
L 27.484375 33.5 
Q 16.453125 35.6875 11.515625 40.375 
Q 6.59375 45.0625 6.59375 53.421875 
Q 6.59375 63.09375 13.40625 68.65625 
Q 20.21875 74.21875 32.171875 74.21875 
Q 37.3125 74.21875 42.625 73.28125 
Q 47.953125 72.359375 53.515625 70.515625 
z
" id="DejaVuSans-83"/>
      <path d="M 59.515625 10.40625 
L 59.515625 29.984375 
L 43.40625 29.984375 
L 43.40625 38.09375 
L 69.28125 38.09375 
L 69.28125 6.78125 
Q 63.578125 2.734375 56.6875 0.65625 
Q 49.8125 -1.421875 42 -1.421875 
Q 24.90625 -1.421875 15.25 8.5625 
Q 5.609375 18.5625 5.609375 36.375 
Q 5.609375 54.25 15.25 64.234375 
Q 24.90625 74.21875 42 74.21875 
Q 49.125 74.21875 55.546875 72.453125 
Q 61.96875 70.703125 67.390625 67.28125 
L 67.390625 56.78125 
Q 61.921875 61.421875 55.765625 63.765625 
Q 49.609375 66.109375 42.828125 66.109375 
Q 29.4375 66.109375 22.71875 58.640625 
Q 16.015625 51.171875 16.015625 36.375 
Q 16.015625 21.625 22.71875 14.15625 
Q 29.4375 6.6875 42.828125 6.6875 
Q 48.046875 6.6875 52.140625 7.59375 
Q 56.25 8.5 59.515625 10.40625 
z
" id="DejaVuSans-71"/>
      <path d="M 34.1875 63.1875 
L 20.796875 26.90625 
L 47.609375 26.90625 
z
M 28.609375 72.90625 
L 39.796875 72.90625 
L 67.578125 0 
L 57.328125 0 
L 50.6875 18.703125 
L 17.828125 18.703125 
L 11.1875 0 
L 0.78125 0 
z
" id="DejaVuSans-65"/>
      <path d="M 9.8125 72.90625 
L 19.671875 72.90625 
L 19.671875 0 
L 9.8125 0 
z
" id="DejaVuSans-73"/>
     </defs>
     <use xlink:href="#DejaVuSans-78"/>
     <use x="74.804688" xlink:href="#DejaVuSans-83"/>
     <use x="138.28125" xlink:href="#DejaVuSans-71"/>
     <use x="215.771484" xlink:href="#DejaVuSans-65"/>
     <use x="281.929688" xlink:href="#DejaVuSans-45"/>
     <use x="318.013672" xlink:href="#DejaVuSans-73"/>
     <use x="347.505859" xlink:href="#DejaVuSans-73"/>
     <use x="376.998047" xlink:href="#DejaVuSans-45"/>
     <use x="413.082031" xlink:href="#DejaVuSans-77"/>
    </g>
   </g>
   <g id="text_15">
    <!-- SMS-EMOA- -->
    <g transform="translate(375.22944 195.116537)scale(0.17 -0.17)">
     <use xlink:href="#DejaVuSans-83"/>
     <use x="63.476562" xlink:href="#DejaVuSans-77"/>
     <use x="149.755859" xlink:href="#DejaVuSans-83"/>
     <use x="213.232422" xlink:href="#DejaVuSans-45"/>
     <use x="249.316406" xlink:href="#DejaVuSans-69"/>
     <use x="312.5" xlink:href="#DejaVuSans-77"/>
     <use x="398.779297" xlink:href="#DejaVuSans-79"/>
     <use x="475.740234" xlink:href="#DejaVuSans-65"/>
     <use x="541.898438" xlink:href="#DejaVuSans-45"/>
    </g>
   </g>
   <g id="text_16">
    <!-- RM-MEDA A -->
    <g transform="translate(375.22944 143.543437)scale(0.17 -0.17)">
     <defs>
      <path d="M 44.390625 34.1875 
Q 47.5625 33.109375 50.5625 29.59375 
Q 53.5625 26.078125 56.59375 19.921875 
L 66.609375 0 
L 56 0 
L 46.6875 18.703125 
Q 43.0625 26.03125 39.671875 28.421875 
Q 36.28125 30.8125 30.421875 30.8125 
L 19.671875 30.8125 
L 19.671875 0 
L 9.8125 0 
L 9.8125 72.90625 
L 32.078125 72.90625 
Q 44.578125 72.90625 50.734375 67.671875 
Q 56.890625 62.453125 56.890625 51.90625 
Q 56.890625 45.015625 53.6875 40.46875 
Q 50.484375 35.9375 44.390625 34.1875 
z
M 19.671875 64.796875 
L 19.671875 38.921875 
L 32.078125 38.921875 
Q 39.203125 38.921875 42.84375 42.21875 
Q 46.484375 45.515625 46.484375 51.90625 
Q 46.484375 58.296875 42.84375 61.546875 
Q 39.203125 64.796875 32.078125 64.796875 
z
" id="DejaVuSans-82"/>
      <path d="M 19.671875 64.796875 
L 19.671875 8.109375 
L 31.59375 8.109375 
Q 46.6875 8.109375 53.6875 14.9375 
Q 60.6875 21.78125 60.6875 36.53125 
Q 60.6875 51.171875 53.6875 57.984375 
Q 46.6875 64.796875 31.59375 64.796875 
z
M 9.8125 72.90625 
L 30.078125 72.90625 
Q 51.265625 72.90625 61.171875 64.09375 
Q 71.09375 55.28125 71.09375 36.53125 
Q 71.09375 17.671875 61.125 8.828125 
Q 51.171875 0 30.078125 0 
L 9.8125 0 
z
" id="DejaVuSans-68"/>
     </defs>
     <use xlink:href="#DejaVuSans-82"/>
     <use x="69.482422" xlink:href="#DejaVuSans-77"/>
     <use x="155.761719" xlink:href="#DejaVuSans-45"/>
     <use x="191.845703" xlink:href="#DejaVuSans-77"/>
     <use x="278.125" xlink:href="#DejaVuSans-69"/>
     <use x="341.308594" xlink:href="#DejaVuSans-68"/>
     <use x="416.560547" xlink:href="#DejaVuSans-65"/>
     <use x="484.96875" xlink:href="#DejaVuSans-32"/>
     <use x="516.755859" xlink:href="#DejaVuSans-65"/>
    </g>
   </g>
   <g id="text_17">
    <!-- HMO-CMA-E -->
    <g transform="translate(375.22944 91.970336)scale(0.17 -0.17)">
     <defs>
      <path d="M 9.8125 72.90625 
L 19.671875 72.90625 
L 19.671875 43.015625 
L 55.515625 43.015625 
L 55.515625 72.90625 
L 65.375 72.90625 
L 65.375 0 
L 55.515625 0 
L 55.515625 34.71875 
L 19.671875 34.71875 
L 19.671875 0 
L 9.8125 0 
z
" id="DejaVuSans-72"/>
      <path d="M 64.40625 67.28125 
L 64.40625 56.890625 
Q 59.421875 61.53125 53.78125 63.8125 
Q 48.140625 66.109375 41.796875 66.109375 
Q 29.296875 66.109375 22.65625 58.46875 
Q 16.015625 50.828125 16.015625 36.375 
Q 16.015625 21.96875 22.65625 14.328125 
Q 29.296875 6.6875 41.796875 6.6875 
Q 48.140625 6.6875 53.78125 8.984375 
Q 59.421875 11.28125 64.40625 15.921875 
L 64.40625 5.609375 
Q 59.234375 2.09375 53.4375 0.328125 
Q 47.65625 -1.421875 41.21875 -1.421875 
Q 24.65625 -1.421875 15.125 8.703125 
Q 5.609375 18.84375 5.609375 36.375 
Q 5.609375 53.953125 15.125 64.078125 
Q 24.65625 74.21875 41.21875 74.21875 
Q 47.75 74.21875 53.53125 72.484375 
Q 59.328125 70.75 64.40625 67.28125 
z
" id="DejaVuSans-67"/>
     </defs>
     <use xlink:href="#DejaVuSans-72"/>
     <use x="75.195312" xlink:href="#DejaVuSans-77"/>
     <use x="161.474609" xlink:href="#DejaVuSans-79"/>
     <use x="242.935547" xlink:href="#DejaVuSans-45"/>
     <use x="279.019531" xlink:href="#DejaVuSans-67"/>
     <use x="348.84375" xlink:href="#DejaVuSans-77"/>
     <use x="435.123047" xlink:href="#DejaVuSans-65"/>
     <use x="501.28125" xlink:href="#DejaVuSans-45"/>
     <use x="537.365234" xlink:href="#DejaVuSans-69"/>
    </g>
   </g>
   <g id="text_18">
    <!-- best 2016 -->
    <g transform="translate(375.22944 40.397235)scale(0.17 -0.17)">
     <defs>
      <path d="M 48.6875 27.296875 
Q 48.6875 37.203125 44.609375 42.84375 
Q 40.53125 48.484375 33.40625 48.484375 
Q 26.265625 48.484375 22.1875 42.84375 
Q 18.109375 37.203125 18.109375 27.296875 
Q 18.109375 17.390625 22.1875 11.75 
Q 26.265625 6.109375 33.40625 6.109375 
Q 40.53125 6.109375 44.609375 11.75 
Q 48.6875 17.390625 48.6875 27.296875 
z
M 18.109375 46.390625 
Q 20.953125 51.265625 25.265625 53.625 
Q 29.59375 56 35.59375 56 
Q 45.5625 56 51.78125 48.09375 
Q 58.015625 40.1875 58.015625 27.296875 
Q 58.015625 14.40625 51.78125 6.484375 
Q 45.5625 -1.421875 35.59375 -1.421875 
Q 29.59375 -1.421875 25.265625 0.953125 
Q 20.953125 3.328125 18.109375 8.203125 
L 18.109375 0 
L 9.078125 0 
L 9.078125 75.984375 
L 18.109375 75.984375 
z
" id="DejaVuSans-98"/>
     </defs>
     <use xlink:href="#DejaVuSans-98"/>
     <use x="63.476562" xlink:href="#DejaVuSans-101"/>
     <use x="125" xlink:href="#DejaVuSans-115"/>
     <use x="177.099609" xlink:href="#DejaVuSans-116"/>
     <use x="216.308594" xlink:href="#DejaVuSans-32"/>
     <use x="248.095703" xlink:href="#DejaVuSans-50"/>
     <use x="311.71875" xlink:href="#DejaVuSans-48"/>
     <use x="375.341797" xlink:href="#DejaVuSans-49"/>
     <use x="438.964844" xlink:href="#DejaVuSans-54"/>
    </g>
   </g>
   <g id="text_19">
    <!-- bbob-biobj f38, 10-D -->
    <g transform="translate(60.41088 38.111366)scale(0.102 -0.102)">
     <defs>
      <path d="M 9.421875 54.6875 
L 18.40625 54.6875 
L 18.40625 -0.984375 
Q 18.40625 -11.421875 14.421875 -16.109375 
Q 10.453125 -20.796875 1.609375 -20.796875 
L -1.8125 -20.796875 
L -1.8125 -13.1875 
L 0.59375 -13.1875 
Q 5.71875 -13.1875 7.5625 -10.8125 
Q 9.421875 -8.453125 9.421875 -0.984375 
z
M 9.421875 75.984375 
L 18.40625 75.984375 
L 18.40625 64.59375 
L 9.421875 64.59375 
z
" id="DejaVuSans-106"/>
      <path d="M 40.578125 39.3125 
Q 47.65625 37.796875 51.625 33 
Q 55.609375 28.21875 55.609375 21.1875 
Q 55.609375 10.40625 48.1875 4.484375 
Q 40.765625 -1.421875 27.09375 -1.421875 
Q 22.515625 -1.421875 17.65625 -0.515625 
Q 12.796875 0.390625 7.625 2.203125 
L 7.625 11.71875 
Q 11.71875 9.328125 16.59375 8.109375 
Q 21.484375 6.890625 26.8125 6.890625 
Q 36.078125 6.890625 40.9375 10.546875 
Q 45.796875 14.203125 45.796875 21.1875 
Q 45.796875 27.640625 41.28125 31.265625 
Q 36.765625 34.90625 28.71875 34.90625 
L 20.21875 34.90625 
L 20.21875 43.015625 
L 29.109375 43.015625 
Q 36.375 43.015625 40.234375 45.921875 
Q 44.09375 48.828125 44.09375 54.296875 
Q 44.09375 59.90625 40.109375 62.90625 
Q 36.140625 65.921875 28.71875 65.921875 
Q 24.65625 65.921875 20.015625 65.03125 
Q 15.375 64.15625 9.8125 62.3125 
L 9.8125 71.09375 
Q 15.4375 72.65625 20.34375 73.4375 
Q 25.25 74.21875 29.59375 74.21875 
Q 40.828125 74.21875 47.359375 69.109375 
Q 53.90625 64.015625 53.90625 55.328125 
Q 53.90625 49.265625 50.4375 45.09375 
Q 46.96875 40.921875 40.578125 39.3125 
z
" id="DejaVuSans-51"/>
     </defs>
     <use xlink:href="#DejaVuSans-98"/>
     <use x="63.476562" xlink:href="#DejaVuSans-98"/>
     <use x="126.953125" xlink:href="#DejaVuSans-111"/>
     <use x="188.134766" xlink:href="#DejaVuSans-98"/>
     <use x="251.611328" xlink:href="#DejaVuSans-45"/>
     <use x="287.695312" xlink:href="#DejaVuSans-98"/>
     <use x="351.171875" xlink:href="#DejaVuSans-105"/>
     <use x="378.955078" xlink:href="#DejaVuSans-111"/>
     <use x="440.136719" xlink:href="#DejaVuSans-98"/>
     <use x="503.613281" xlink:href="#DejaVuSans-106"/>
     <use x="531.396484" xlink:href="#DejaVuSans-32"/>
     <use x="563.183594" xlink:href="#DejaVuSans-102"/>
     <use x="598.388672" xlink:href="#DejaVuSans-51"/>
     <use x="662.011719" xlink:href="#DejaVuSans-56"/>
     <use x="725.634766" xlink:href="#DejaVuSans-44"/>
     <use x="757.421875" xlink:href="#DejaVuSans-32"/>
     <use x="789.208984" xlink:href="#DejaVuSans-49"/>
     <use x="852.832031" xlink:href="#DejaVuSans-48"/>
     <use x="916.455078" xlink:href="#DejaVuSans-45"/>
     <use x="952.539062" xlink:href="#DejaVuSans-68"/>
    </g>
    <!-- 58 targets: 1..-1.0e-4 -->
    <g transform="translate(60.41088 49.533135)scale(0.102 -0.102)">
     <defs>
      <path d="M 10.796875 72.90625 
L 49.515625 72.90625 
L 49.515625 64.59375 
L 19.828125 64.59375 
L 19.828125 46.734375 
Q 21.96875 47.46875 24.109375 47.828125 
Q 26.265625 48.1875 28.421875 48.1875 
Q 40.625 48.1875 47.75 41.5 
Q 54.890625 34.8125 54.890625 23.390625 
Q 54.890625 11.625 47.5625 5.09375 
Q 40.234375 -1.421875 26.90625 -1.421875 
Q 22.3125 -1.421875 17.546875 -0.640625 
Q 12.796875 0.140625 7.71875 1.703125 
L 7.71875 11.625 
Q 12.109375 9.234375 16.796875 8.0625 
Q 21.484375 6.890625 26.703125 6.890625 
Q 35.15625 6.890625 40.078125 11.328125 
Q 45.015625 15.765625 45.015625 23.390625 
Q 45.015625 31 40.078125 35.4375 
Q 35.15625 39.890625 26.703125 39.890625 
Q 22.75 39.890625 18.8125 39.015625 
Q 14.890625 38.140625 10.796875 36.28125 
z
" id="DejaVuSans-53"/>
      <path d="M 11.71875 12.40625 
L 22.015625 12.40625 
L 22.015625 0 
L 11.71875 0 
z
M 11.71875 51.703125 
L 22.015625 51.703125 
L 22.015625 39.3125 
L 11.71875 39.3125 
z
" id="DejaVuSans-58"/>
     </defs>
     <use xlink:href="#DejaVuSans-53"/>
     <use x="63.623047" xlink:href="#DejaVuSans-56"/>
     <use x="127.246094" xlink:href="#DejaVuSans-32"/>
     <use x="159.033203" xlink:href="#DejaVuSans-116"/>
     <use x="198.242188" xlink:href="#DejaVuSans-97"/>
     <use x="259.521484" xlink:href="#DejaVuSans-114"/>
     <use x="298.884766" xlink:href="#DejaVuSans-103"/>
     <use x="362.361328" xlink:href="#DejaVuSans-101"/>
     <use x="423.884766" xlink:href="#DejaVuSans-116"/>
     <use x="463.09375" xlink:href="#DejaVuSans-115"/>
     <use x="515.193359" xlink:href="#DejaVuSans-58"/>
     <use x="548.884766" xlink:href="#DejaVuSans-32"/>
     <use x="580.671875" xlink:href="#DejaVuSans-49"/>
     <use x="644.294922" xlink:href="#DejaVuSans-46"/>
     <use x="676.082031" xlink:href="#DejaVuSans-46"/>
     <use x="707.869141" xlink:href="#DejaVuSans-45"/>
     <use x="743.953125" xlink:href="#DejaVuSans-49"/>
     <use x="807.576172" xlink:href="#DejaVuSans-46"/>
     <use x="839.363281" xlink:href="#DejaVuSans-48"/>
     <use x="902.986328" xlink:href="#DejaVuSans-101"/>
     <use x="964.509766" xlink:href="#DejaVuSans-45"/>
     <use x="1000.59375" xlink:href="#DejaVuSans-52"/>
    </g>
    <!-- 10 instances -->
    <g transform="translate(60.41088 60.954904)scale(0.102 -0.102)">
     <use xlink:href="#DejaVuSans-49"/>
     <use x="63.623047" xlink:href="#DejaVuSans-48"/>
     <use x="127.246094" xlink:href="#DejaVuSans-32"/>
     <use x="159.033203" xlink:href="#DejaVuSans-105"/>
     <use x="186.816406" xlink:href="#DejaVuSans-110"/>
     <use x="250.195312" xlink:href="#DejaVuSans-115"/>
     <use x="302.294922" xlink:href="#DejaVuSans-116"/>
     <use x="341.503906" xlink:href="#DejaVuSans-97"/>
     <use x="402.783203" xlink:href="#DejaVuSans-110"/>
     <use x="466.162109" xlink:href="#DejaVuSans-99"/>
     <use x="521.142578" xlink:href="#DejaVuSans-101"/>
     <use x="582.666016" xlink:href="#DejaVuSans-115"/>
    </g>
   </g>
   <g id="text_20">
    <!-- v2.4, hv-hash=ff0e71e8cd978373 -->
    <g style="fill:#808080;" transform="translate(112.648687 294.151352)scale(0.1 -0.1)">
     <defs>
      <path d="M 54.890625 33.015625 
L 54.890625 0 
L 45.90625 0 
L 45.90625 32.71875 
Q 45.90625 40.484375 42.875 44.328125 
Q 39.84375 48.1875 33.796875 48.1875 
Q 26.515625 48.1875 22.3125 43.546875 
Q 18.109375 38.921875 18.109375 30.90625 
L 18.109375 0 
L 9.078125 0 
L 9.078125 75.984375 
L 18.109375 75.984375 
L 18.109375 46.1875 
Q 21.34375 51.125 25.703125 53.5625 
Q 30.078125 56 35.796875 56 
Q 45.21875 56 50.046875 50.171875 
Q 54.890625 44.34375 54.890625 33.015625 
z
" id="DejaVuSans-104"/>
      <path d="M 10.59375 45.40625 
L 73.1875 45.40625 
L 73.1875 37.203125 
L 10.59375 37.203125 
z
M 10.59375 25.484375 
L 73.1875 25.484375 
L 73.1875 17.1875 
L 10.59375 17.1875 
z
" id="DejaVuSans-61"/>
      <path d="M 8.203125 72.90625 
L 55.078125 72.90625 
L 55.078125 68.703125 
L 28.609375 0 
L 18.3125 0 
L 43.21875 64.59375 
L 8.203125 64.59375 
z
" id="DejaVuSans-55"/>
      <path d="M 10.984375 1.515625 
L 10.984375 10.5 
Q 14.703125 8.734375 18.5 7.8125 
Q 22.3125 6.890625 25.984375 6.890625 
Q 35.75 6.890625 40.890625 13.453125 
Q 46.046875 20.015625 46.78125 33.40625 
Q 43.953125 29.203125 39.59375 26.953125 
Q 35.25 24.703125 29.984375 24.703125 
Q 19.046875 24.703125 12.671875 31.3125 
Q 6.296875 37.9375 6.296875 49.421875 
Q 6.296875 60.640625 12.9375 67.421875 
Q 19.578125 74.21875 30.609375 74.21875 
Q 43.265625 74.21875 49.921875 64.515625 
Q 56.59375 54.828125 56.59375 36.375 
Q 56.59375 19.140625 48.40625 8.859375 
Q 40.234375 -1.421875 26.421875 -1.421875 
Q 22.703125 -1.421875 18.890625 -0.6875 
Q 15.09375 0.046875 10.984375 1.515625 
z
M 30.609375 32.421875 
Q 37.25 32.421875 41.125 36.953125 
Q 45.015625 41.5 45.015625 49.421875 
Q 45.015625 57.28125 41.125 61.84375 
Q 37.25 66.40625 30.609375 66.40625 
Q 23.96875 66.40625 20.09375 61.84375 
Q 16.21875 57.28125 16.21875 49.421875 
Q 16.21875 41.5 20.09375 36.953125 
Q 23.96875 32.421875 30.609375 32.421875 
z
" id="DejaVuSans-57"/>
     </defs>
     <use xlink:href="#DejaVuSans-118"/>
     <use x="59.179688" xlink:href="#DejaVuSans-50"/>
     <use x="122.802734" xlink:href="#DejaVuSans-46"/>
     <use x="154.589844" xlink:href="#DejaVuSans-52"/>
     <use x="218.212891" xlink:href="#DejaVuSans-44"/>
     <use x="250" xlink:href="#DejaVuSans-32"/>
     <use x="281.787109" xlink:href="#DejaVuSans-104"/>
     <use x="345.166016" xlink:href="#DejaVuSans-118"/>
     <use x="401.720703" xlink:href="#DejaVuSans-45"/>
     <use x="437.804688" xlink:href="#DejaVuSans-104"/>
     <use x="501.183594" xlink:href="#DejaVuSans-97"/>
     <use x="562.462891" xlink:href="#DejaVuSans-115"/>
     <use x="614.5625" xlink:href="#DejaVuSans-104"/>
     <use x="677.941406" xlink:href="#DejaVuSans-61"/>
     <use x="761.730469" xlink:href="#DejaVuSans-102"/>
     <use x="796.935547" xlink:href="#DejaVuSans-102"/>
     <use x="832.140625" xlink:href="#DejaVuSans-48"/>
     <use x="895.763672" xlink:href="#DejaVuSans-101"/>
     <use x="957.287109" xlink:href="#DejaVuSans-55"/>
     <use x="1020.910156" xlink:href="#DejaVuSans-49"/>
     <use x="1084.533203" xlink:href="#DejaVuSans-101"/>
     <use x="1146.056641" xlink:href="#DejaVuSans-56"/>
     <use x="1209.679688" xlink:href="#DejaVuSans-99"/>
     <use x="1264.660156" xlink:href="#DejaVuSans-100"/>
     <use x="1328.136719" xlink:href="#DejaVuSans-57"/>
     <use x="1391.759766" xlink:href="#DejaVuSans-55"/>
     <use x="1455.382812" xlink:href="#DejaVuSans-56"/>
     <use x="1519.005859" xlink:href="#DejaVuSans-51"/>
     <use x="1582.628906" xlink:href="#DejaVuSans-55"/>
     <use x="1646.251953" xlink:href="#DejaVuSans-51"/>
    </g>
   </g>
   <g id="text_21">
    <!-- 38 Sharp ridge/Schaffer F7 -->
    <g transform="translate(63.772125 21.648)scale(0.2 -0.2)">
     <use xlink:href="#DejaVuSans-51"/>
     <use x="63.623047" xlink:href="#DejaVuSans-56"/>
     <use x="127.246094" xlink:href="#DejaVuSans-32"/>
     <use x="159.033203" xlink:href="#DejaVuSans-83"/>
     <use x="222.509766" xlink:href="#DejaVuSans-104"/>
     <use x="285.888672" xlink:href="#DejaVuSans-97"/>
     <use x="347.167969" xlink:href="#DejaVuSans-114"/>
     <use x="388.28125" xlink:href="#DejaVuSans-112"/>
     <use x="451.757812" xlink:href="#DejaVuSans-32"/>
     <use x="483.544922" xlink:href="#DejaVuSans-114"/>
     <use x="524.658203" xlink:href="#DejaVuSans-105"/>
     <use x="552.441406" xlink:href="#DejaVuSans-100"/>
     <use x="615.917969" xlink:href="#DejaVuSans-103"/>
     <use x="679.394531" xlink:href="#DejaVuSans-101"/>
     <use x="740.917969" xlink:href="#DejaVuSans-47"/>
     <use x="774.609375" xlink:href="#DejaVuSans-83"/>
     <use x="838.085938" xlink:href="#DejaVuSans-99"/>
     <use x="893.066406" xlink:href="#DejaVuSans-104"/>
     <use x="956.445312" xlink:href="#DejaVuSans-97"/>
     <use x="1017.724609" xlink:href="#DejaVuSans-102"/>
     <use x="1052.929688" xlink:href="#DejaVuSans-102"/>
     <use x="1088.134766" xlink:href="#DejaVuSans-101"/>
     <use x="1149.658203" xlink:href="#DejaVuSans-114"/>
     <use x="1190.771484" xlink:href="#DejaVuSans-32"/>
     <use x="1222.558594" xlink:href="#DejaVuSans-70"/>
     <use x="1280.078125" xlink:href="#DejaVuSans-55"/>
    </g>
   </g>
  </g>
 </g>
 <defs>
  <clipPath id="pef1221ab12">
   <rect height="271.296" width="281.088" x="57.6" y="27.648"/>
  </clipPath>
 </defs>
</svg>
