<?xml version="1.0" encoding="utf-8" standalone="no"?>
<!DOCTYPE svg PUBLIC "-//W3C//DTD SVG 1.1//EN"
  "http://www.w3.org/Graphics/SVG/1.1/DTD/svg11.dtd">
<!-- Created with matplotlib (https://matplotlib.org/) -->
<svg height="345.6pt" version="1.1" viewBox="0 0 460.8 345.6" width="460.8pt" xmlns="http://www.w3.org/2000/svg" xmlns:xlink="http://www.w3.org/1999/xlink">
 <metadata>
  <rdf:RDF xmlns:cc="http://creativecommons.org/ns#" xmlns:dc="http://purl.org/dc/elements/1.1/" xmlns:rdf="http://www.w3.org/1999/02/22-rdf-syntax-ns#">
   <cc:Work>
    <dc:type rdf:resource="http://purl.org/dc/dcmitype/StillImage"/>
    <dc:date>2021-03-30T18:27:11.191791</dc:date>
    <dc:format>image/svg+xml</dc:format>
    <dc:creator>
     <cc:Agent>
      <dc:title>Matplotlib v3.3.4, https://matplotlib.org/</dc:title>
     </cc:Agent>
    </dc:creator>
   </cc:Work>
  </rdf:RDF>
 </metadata>
 <defs>
  <style type="text/css">*{stroke-linecap:butt;stroke-linejoin:round;}</style>
 </defs>
 <g id="figure_1">
  <g id="patch_1">
   <path d="M 0 345.6 
L 460.8 345.6 
L 460.8 0 
L 0 0 
z
" style="fill:#ffffff;"/>
  </g>
  <g id="axes_1">
   <g id="patch_2">
    <path d="M 57.6 298.944 
L 338.688 298.944 
L 338.688 27.648 
L 57.6 27.648 
z
" style="fill:#ffffff;"/>
   </g>
   <g id="line2d_1">
    <path d="M 41.620548 298.944 
L 41.620548 294.312795 
L 70.538854 294.312795 
L 70.538854 285.050384 
L 103.372333 285.050384 
L 103.372333 275.787974 
L 155.245367 275.787974 
L 155.245367 271.156769 
L 163.657576 271.156769 
L 163.657576 257.263153 
L 173.091121 257.263153 
L 173.091121 248.000743 
L 192.101035 248.000743 
L 192.101035 243.369538 
L 216.277792 243.369538 
L 216.277792 234.107127 
L 236.963388 234.107127 
L 236.963388 220.213512 
L 246.799694 220.213512 
L 246.799694 210.951101 
L 264.847248 210.951101 
L 264.847248 201.688691 
L 275.140151 201.688691 
L 275.140151 192.426281 
L 286.211501 192.426281 
L 286.211501 187.795075 
L 291.460192 187.795075 
L 291.460192 173.90146 
L 298.538934 173.90146 
L 298.538934 169.270255 
L 310.19532 169.270255 
L 310.19532 155.376639 
L 328.116743 155.376639 
L 328.116743 146.114229 
L 338.688 146.114229 
" style="fill:none;stroke:#f5deb3;stroke-linecap:square;stroke-width:4;"/>
   </g>
   <g id="line2d_2">
    <defs>
     <path d="M -0 7.778175 
L 7.778175 0 
L 0 -7.778175 
L -7.778175 -0 
z
" id="mf0c6232041" style="stroke:#f5deb3;stroke-linejoin:miter;stroke-width:1.5;"/>
    </defs>
    <g>
     <use style="fill:#f5deb3;stroke:#f5deb3;stroke-linejoin:miter;stroke-width:1.5;" x="163.657576" xlink:href="#mf0c6232041" y="271.156769"/>
     <use style="fill:#f5deb3;stroke:#f5deb3;stroke-linejoin:miter;stroke-width:1.5;" x="216.277792" xlink:href="#mf0c6232041" y="243.369538"/>
     <use style="fill:#f5deb3;stroke:#f5deb3;stroke-linejoin:miter;stroke-width:1.5;" x="275.140151" xlink:href="#mf0c6232041" y="192.426281"/>
     <use style="fill:#f5deb3;stroke:#f5deb3;stroke-linejoin:miter;stroke-width:1.5;" x="310.19532" xlink:href="#mf0c6232041" y="155.376639"/>
     <use style="fill:#f5deb3;stroke:#f5deb3;stroke-linejoin:miter;stroke-width:1.5;" x="328.116743" xlink:href="#mf0c6232041" y="146.114229"/>
     <use style="fill:#f5deb3;stroke:#f5deb3;stroke-linejoin:miter;stroke-width:1.5;" x="338.688" xlink:href="#mf0c6232041" y="146.114229"/>
    </g>
   </g>
   <g id="line2d_3">
    <path style="fill:none;stroke:#f5deb3;stroke-linecap:square;stroke-width:4;"/>
    <g/>
   </g>
   <g id="line2d_4">
    <path d="M 338.688 146.114229 
L 369.60768 35.706297 
" style="fill:none;stroke:#f5deb3;stroke-linecap:square;stroke-width:4;"/>
    <g>
     <use style="fill:#f5deb3;stroke:#f5deb3;stroke-linejoin:miter;stroke-width:1.5;" x="338.688" xlink:href="#mf0c6232041" y="146.114229"/>
     <use style="fill:#f5deb3;stroke:#f5deb3;stroke-linejoin:miter;stroke-width:1.5;" x="369.60768" xlink:href="#mf0c6232041" y="35.706297"/>
    </g>
   </g>
   <g id="matplotlib.axis_1">
    <g id="xtick_1">
     <g id="line2d_5">
      <path clip-path="url(#pbe191bd293)" d="M 57.6 298.944 
L 57.6 27.648 
" style="fill:none;stroke:#b0b0b0;stroke-linecap:square;stroke-width:0.8;"/>
     </g>
     <g id="line2d_6">
      <defs>
       <path d="M 0 0 
L 0 3.5 
" id="m0730f2ec0e" style="stroke:#000000;stroke-width:0.8;"/>
      </defs>
      <g>
       <use style="stroke:#000000;stroke-width:0.8;" x="57.6" xlink:href="#m0730f2ec0e" y="298.944"/>
      </g>
     </g>
     <g id="text_1">
      <!-- 0 -->
      <g transform="translate(51.2375 321.140875)scale(0.2 -0.2)">
       <defs>
        <path d="M 31.78125 66.40625 
Q 24.171875 66.40625 20.328125 58.90625 
Q 16.5 51.421875 16.5 36.375 
Q 16.5 21.390625 20.328125 13.890625 
Q 24.171875 6.390625 31.78125 6.390625 
Q 39.453125 6.390625 43.28125 13.890625 
Q 47.125 21.390625 47.125 36.375 
Q 47.125 51.421875 43.28125 58.90625 
Q 39.453125 66.40625 31.78125 66.40625 
z
M 31.78125 74.21875 
Q 44.046875 74.21875 50.515625 64.515625 
Q 56.984375 54.828125 56.984375 36.375 
Q 56.984375 17.96875 50.515625 8.265625 
Q 44.046875 -1.421875 31.78125 -1.421875 
Q 19.53125 -1.421875 13.0625 8.265625 
Q 6.59375 17.96875 6.59375 36.375 
Q 6.59375 54.828125 13.0625 64.515625 
Q 19.53125 74.21875 31.78125 74.21875 
z
" id="DejaVuSans-48"/>
       </defs>
       <use xlink:href="#DejaVuSans-48"/>
      </g>
     </g>
    </g>
    <g id="xtick_2">
     <g id="line2d_7">
      <path clip-path="url(#pbe191bd293)" d="M 137.910857 298.944 
L 137.910857 27.648 
" style="fill:none;stroke:#b0b0b0;stroke-linecap:square;stroke-width:0.8;"/>
     </g>
     <g id="line2d_8">
      <g>
       <use style="stroke:#000000;stroke-width:0.8;" x="137.910857" xlink:href="#m0730f2ec0e" y="298.944"/>
      </g>
     </g>
     <g id="text_2">
      <!-- 2 -->
      <g transform="translate(131.548357 321.140875)scale(0.2 -0.2)">
       <defs>
        <path d="M 19.1875 8.296875 
L 53.609375 8.296875 
L 53.609375 0 
L 7.328125 0 
L 7.328125 8.296875 
Q 12.9375 14.109375 22.625 23.890625 
Q 32.328125 33.6875 34.8125 36.53125 
Q 39.546875 41.84375 41.421875 45.53125 
Q 43.3125 49.21875 43.3125 52.78125 
Q 43.3125 58.59375 39.234375 62.25 
Q 35.15625 65.921875 28.609375 65.921875 
Q 23.96875 65.921875 18.8125 64.3125 
Q 13.671875 62.703125 7.8125 59.421875 
L 7.8125 69.390625 
Q 13.765625 71.78125 18.9375 73 
Q 24.125 74.21875 28.421875 74.21875 
Q 39.75 74.21875 46.484375 68.546875 
Q 53.21875 62.890625 53.21875 53.421875 
Q 53.21875 48.921875 51.53125 44.890625 
Q 49.859375 40.875 45.40625 35.40625 
Q 44.1875 33.984375 37.640625 27.21875 
Q 31.109375 20.453125 19.1875 8.296875 
z
" id="DejaVuSans-50"/>
       </defs>
       <use xlink:href="#DejaVuSans-50"/>
      </g>
     </g>
    </g>
    <g id="xtick_3">
     <g id="line2d_9">
      <path clip-path="url(#pbe191bd293)" d="M 218.221714 298.944 
L 218.221714 27.648 
" style="fill:none;stroke:#b0b0b0;stroke-linecap:square;stroke-width:0.8;"/>
     </g>
     <g id="line2d_10">
      <g>
       <use style="stroke:#000000;stroke-width:0.8;" x="218.221714" xlink:href="#m0730f2ec0e" y="298.944"/>
      </g>
     </g>
     <g id="text_3">
      <!-- 4 -->
      <g transform="translate(211.859214 321.140875)scale(0.2 -0.2)">
       <defs>
        <path d="M 37.796875 64.3125 
L 12.890625 25.390625 
L 37.796875 25.390625 
z
M 35.203125 72.90625 
L 47.609375 72.90625 
L 47.609375 25.390625 
L 58.015625 25.390625 
L 58.015625 17.1875 
L 47.609375 17.1875 
L 47.609375 0 
L 37.796875 0 
L 37.796875 17.1875 
L 4.890625 17.1875 
L 4.890625 26.703125 
z
" id="DejaVuSans-52"/>
       </defs>
       <use xlink:href="#DejaVuSans-52"/>
      </g>
     </g>
    </g>
    <g id="xtick_4">
     <g id="line2d_11">
      <path clip-path="url(#pbe191bd293)" d="M 298.532571 298.944 
L 298.532571 27.648 
" style="fill:none;stroke:#b0b0b0;stroke-linecap:square;stroke-width:0.8;"/>
     </g>
     <g id="line2d_12">
      <g>
       <use style="stroke:#000000;stroke-width:0.8;" x="298.532571" xlink:href="#m0730f2ec0e" y="298.944"/>
      </g>
     </g>
     <g id="text_4">
      <!-- 6 -->
      <g transform="translate(292.170071 321.140875)scale(0.2 -0.2)">
       <defs>
        <path d="M 33.015625 40.375 
Q 26.375 40.375 22.484375 35.828125 
Q 18.609375 31.296875 18.609375 23.390625 
Q 18.609375 15.53125 22.484375 10.953125 
Q 26.375 6.390625 33.015625 6.390625 
Q 39.65625 6.390625 43.53125 10.953125 
Q 47.40625 15.53125 47.40625 23.390625 
Q 47.40625 31.296875 43.53125 35.828125 
Q 39.65625 40.375 33.015625 40.375 
z
M 52.59375 71.296875 
L 52.59375 62.3125 
Q 48.875 64.0625 45.09375 64.984375 
Q 41.3125 65.921875 37.59375 65.921875 
Q 27.828125 65.921875 22.671875 59.328125 
Q 17.53125 52.734375 16.796875 39.40625 
Q 19.671875 43.65625 24.015625 45.921875 
Q 28.375 48.1875 33.59375 48.1875 
Q 44.578125 48.1875 50.953125 41.515625 
Q 57.328125 34.859375 57.328125 23.390625 
Q 57.328125 12.15625 50.6875 5.359375 
Q 44.046875 -1.421875 33.015625 -1.421875 
Q 20.359375 -1.421875 13.671875 8.265625 
Q 6.984375 17.96875 6.984375 36.375 
Q 6.984375 53.65625 15.1875 63.9375 
Q 23.390625 74.21875 37.203125 74.21875 
Q 40.921875 74.21875 44.703125 73.484375 
Q 48.484375 72.75 52.59375 71.296875 
z
" id="DejaVuSans-54"/>
       </defs>
       <use xlink:href="#DejaVuSans-54"/>
      </g>
     </g>
    </g>
    <g id="xtick_5">
     <g id="line2d_13">
      <path clip-path="url(#pbe191bd293)" d="M 97.755429 298.944 
L 97.755429 27.648 
" style="fill:none;stroke:#b0b0b0;stroke-linecap:square;stroke-width:0.8;"/>
     </g>
     <g id="line2d_14">
      <defs>
       <path d="M 0 0 
L 0 2 
" id="mce7a765013" style="stroke:#000000;stroke-width:0.6;"/>
      </defs>
      <g>
       <use style="stroke:#000000;stroke-width:0.6;" x="97.755429" xlink:href="#mce7a765013" y="298.944"/>
      </g>
     </g>
    </g>
    <g id="xtick_6">
     <g id="line2d_15">
      <path clip-path="url(#pbe191bd293)" d="M 178.066286 298.944 
L 178.066286 27.648 
" style="fill:none;stroke:#b0b0b0;stroke-linecap:square;stroke-width:0.8;"/>
     </g>
     <g id="line2d_16">
      <g>
       <use style="stroke:#000000;stroke-width:0.6;" x="178.066286" xlink:href="#mce7a765013" y="298.944"/>
      </g>
     </g>
    </g>
    <g id="xtick_7">
     <g id="line2d_17">
      <path clip-path="url(#pbe191bd293)" d="M 258.377143 298.944 
L 258.377143 27.648 
" style="fill:none;stroke:#b0b0b0;stroke-linecap:square;stroke-width:0.8;"/>
     </g>
     <g id="line2d_18">
      <g>
       <use style="stroke:#000000;stroke-width:0.6;" x="258.377143" xlink:href="#mce7a765013" y="298.944"/>
      </g>
     </g>
    </g>
    <g id="xtick_8">
     <g id="line2d_19">
      <path clip-path="url(#pbe191bd293)" d="M 338.688 298.944 
L 338.688 27.648 
" style="fill:none;stroke:#b0b0b0;stroke-linecap:square;stroke-width:0.8;"/>
     </g>
     <g id="line2d_20">
      <g>
       <use style="stroke:#000000;stroke-width:0.6;" x="338.688" xlink:href="#mce7a765013" y="298.944"/>
      </g>
     </g>
    </g>
    <g id="text_5">
     <!-- log10(# f-evals / dimension) -->
     <g transform="translate(77.764078 342.217594)scale(0.17 -0.17)">
      <defs>
       <path d="M 9.421875 75.984375 
L 18.40625 75.984375 
L 18.40625 0 
L 9.421875 0 
z
" id="DejaVuSans-108"/>
       <path d="M 30.609375 48.390625 
Q 23.390625 48.390625 19.1875 42.75 
Q 14.984375 37.109375 14.984375 27.296875 
Q 14.984375 17.484375 19.15625 11.84375 
Q 23.34375 6.203125 30.609375 6.203125 
Q 37.796875 6.203125 41.984375 11.859375 
Q 46.1875 17.53125 46.1875 27.296875 
Q 46.1875 37.015625 41.984375 42.703125 
Q 37.796875 48.390625 30.609375 48.390625 
z
M 30.609375 56 
Q 42.328125 56 49.015625 48.375 
Q 55.71875 40.765625 55.71875 27.296875 
Q 55.71875 13.875 49.015625 6.21875 
Q 42.328125 -1.421875 30.609375 -1.421875 
Q 18.84375 -1.421875 12.171875 6.21875 
Q 5.515625 13.875 5.515625 27.296875 
Q 5.515625 40.765625 12.171875 48.375 
Q 18.84375 56 30.609375 56 
z
" id="DejaVuSans-111"/>
       <path d="M 45.40625 27.984375 
Q 45.40625 37.75 41.375 43.109375 
Q 37.359375 48.484375 30.078125 48.484375 
Q 22.859375 48.484375 18.828125 43.109375 
Q 14.796875 37.75 14.796875 27.984375 
Q 14.796875 18.265625 18.828125 12.890625 
Q 22.859375 7.515625 30.078125 7.515625 
Q 37.359375 7.515625 41.375 12.890625 
Q 45.40625 18.265625 45.40625 27.984375 
z
M 54.390625 6.78125 
Q 54.390625 -7.171875 48.1875 -13.984375 
Q 42 -20.796875 29.203125 -20.796875 
Q 24.46875 -20.796875 20.265625 -20.09375 
Q 16.0625 -19.390625 12.109375 -17.921875 
L 12.109375 -9.1875 
Q 16.0625 -11.328125 19.921875 -12.34375 
Q 23.78125 -13.375 27.78125 -13.375 
Q 36.625 -13.375 41.015625 -8.765625 
Q 45.40625 -4.15625 45.40625 5.171875 
L 45.40625 9.625 
Q 42.625 4.78125 38.28125 2.390625 
Q 33.9375 0 27.875 0 
Q 17.828125 0 11.671875 7.65625 
Q 5.515625 15.328125 5.515625 27.984375 
Q 5.515625 40.671875 11.671875 48.328125 
Q 17.828125 56 27.875 56 
Q 33.9375 56 38.28125 53.609375 
Q 42.625 51.21875 45.40625 46.390625 
L 45.40625 54.6875 
L 54.390625 54.6875 
z
" id="DejaVuSans-103"/>
       <path d="M 12.40625 8.296875 
L 28.515625 8.296875 
L 28.515625 63.921875 
L 10.984375 60.40625 
L 10.984375 69.390625 
L 28.421875 72.90625 
L 38.28125 72.90625 
L 38.28125 8.296875 
L 54.390625 8.296875 
L 54.390625 0 
L 12.40625 0 
z
" id="DejaVuSans-49"/>
       <path d="M 31 75.875 
Q 24.46875 64.65625 21.28125 53.65625 
Q 18.109375 42.671875 18.109375 31.390625 
Q 18.109375 20.125 21.3125 9.0625 
Q 24.515625 -2 31 -13.1875 
L 23.1875 -13.1875 
Q 15.875 -1.703125 12.234375 9.375 
Q 8.59375 20.453125 8.59375 31.390625 
Q 8.59375 42.28125 12.203125 53.3125 
Q 15.828125 64.359375 23.1875 75.875 
z
" id="DejaVuSans-40"/>
       <path d="M 51.125 44 
L 36.921875 44 
L 32.8125 27.6875 
L 47.125 27.6875 
z
M 43.796875 71.78125 
L 38.71875 51.515625 
L 52.984375 51.515625 
L 58.109375 71.78125 
L 65.921875 71.78125 
L 60.890625 51.515625 
L 76.125 51.515625 
L 76.125 44 
L 58.984375 44 
L 54.984375 27.6875 
L 70.515625 27.6875 
L 70.515625 20.21875 
L 53.078125 20.21875 
L 48 0 
L 40.1875 0 
L 45.21875 20.21875 
L 30.90625 20.21875 
L 25.875 0 
L 18.015625 0 
L 23.09375 20.21875 
L 7.71875 20.21875 
L 7.71875 27.6875 
L 24.90625 27.6875 
L 29 44 
L 13.28125 44 
L 13.28125 51.515625 
L 30.90625 51.515625 
L 35.890625 71.78125 
z
" id="DejaVuSans-35"/>
       <path id="DejaVuSans-32"/>
       <path d="M 37.109375 75.984375 
L 37.109375 68.5 
L 28.515625 68.5 
Q 23.6875 68.5 21.796875 66.546875 
Q 19.921875 64.59375 19.921875 59.515625 
L 19.921875 54.6875 
L 34.71875 54.6875 
L 34.71875 47.703125 
L 19.921875 47.703125 
L 19.921875 0 
L 10.890625 0 
L 10.890625 47.703125 
L 2.296875 47.703125 
L 2.296875 54.6875 
L 10.890625 54.6875 
L 10.890625 58.5 
Q 10.890625 67.625 15.140625 71.796875 
Q 19.390625 75.984375 28.609375 75.984375 
z
" id="DejaVuSans-102"/>
       <path d="M 4.890625 31.390625 
L 31.203125 31.390625 
L 31.203125 23.390625 
L 4.890625 23.390625 
z
" id="DejaVuSans-45"/>
       <path d="M 56.203125 29.59375 
L 56.203125 25.203125 
L 14.890625 25.203125 
Q 15.484375 15.921875 20.484375 11.0625 
Q 25.484375 6.203125 34.421875 6.203125 
Q 39.59375 6.203125 44.453125 7.46875 
Q 49.3125 8.734375 54.109375 11.28125 
L 54.109375 2.78125 
Q 49.265625 0.734375 44.1875 -0.34375 
Q 39.109375 -1.421875 33.890625 -1.421875 
Q 20.796875 -1.421875 13.15625 6.1875 
Q 5.515625 13.8125 5.515625 26.8125 
Q 5.515625 40.234375 12.765625 48.109375 
Q 20.015625 56 32.328125 56 
Q 43.359375 56 49.78125 48.890625 
Q 56.203125 41.796875 56.203125 29.59375 
z
M 47.21875 32.234375 
Q 47.125 39.59375 43.09375 43.984375 
Q 39.0625 48.390625 32.421875 48.390625 
Q 24.90625 48.390625 20.390625 44.140625 
Q 15.875 39.890625 15.1875 32.171875 
z
" id="DejaVuSans-101"/>
       <path d="M 2.984375 54.6875 
L 12.5 54.6875 
L 29.59375 8.796875 
L 46.6875 54.6875 
L 56.203125 54.6875 
L 35.6875 0 
L 23.484375 0 
z
" id="DejaVuSans-118"/>
       <path d="M 34.28125 27.484375 
Q 23.390625 27.484375 19.1875 25 
Q 14.984375 22.515625 14.984375 16.5 
Q 14.984375 11.71875 18.140625 8.90625 
Q 21.296875 6.109375 26.703125 6.109375 
Q 34.1875 6.109375 38.703125 11.40625 
Q 43.21875 16.703125 43.21875 25.484375 
L 43.21875 27.484375 
z
M 52.203125 31.203125 
L 52.203125 0 
L 43.21875 0 
L 43.21875 8.296875 
Q 40.140625 3.328125 35.546875 0.953125 
Q 30.953125 -1.421875 24.3125 -1.421875 
Q 15.921875 -1.421875 10.953125 3.296875 
Q 6 8.015625 6 15.921875 
Q 6 25.140625 12.171875 29.828125 
Q 18.359375 34.515625 30.609375 34.515625 
L 43.21875 34.515625 
L 43.21875 35.40625 
Q 43.21875 41.609375 39.140625 45 
Q 35.0625 48.390625 27.6875 48.390625 
Q 23 48.390625 18.546875 47.265625 
Q 14.109375 46.140625 10.015625 43.890625 
L 10.015625 52.203125 
Q 14.9375 54.109375 19.578125 55.046875 
Q 24.21875 56 28.609375 56 
Q 40.484375 56 46.34375 49.84375 
Q 52.203125 43.703125 52.203125 31.203125 
z
" id="DejaVuSans-97"/>
       <path d="M 44.28125 53.078125 
L 44.28125 44.578125 
Q 40.484375 46.53125 36.375 47.5 
Q 32.28125 48.484375 27.875 48.484375 
Q 21.1875 48.484375 17.84375 46.4375 
Q 14.5 44.390625 14.5 40.28125 
Q 14.5 37.15625 16.890625 35.375 
Q 19.28125 33.59375 26.515625 31.984375 
L 29.59375 31.296875 
Q 39.15625 29.25 43.1875 25.515625 
Q 47.21875 21.78125 47.21875 15.09375 
Q 47.21875 7.46875 41.1875 3.015625 
Q 35.15625 -1.421875 24.609375 -1.421875 
Q 20.21875 -1.421875 15.453125 -0.5625 
Q 10.6875 0.296875 5.421875 2 
L 5.421875 11.28125 
Q 10.40625 8.6875 15.234375 7.390625 
Q 20.0625 6.109375 24.8125 6.109375 
Q 31.15625 6.109375 34.5625 8.28125 
Q 37.984375 10.453125 37.984375 14.40625 
Q 37.984375 18.0625 35.515625 20.015625 
Q 33.0625 21.96875 24.703125 23.78125 
L 21.578125 24.515625 
Q 13.234375 26.265625 9.515625 29.90625 
Q 5.8125 33.546875 5.8125 39.890625 
Q 5.8125 47.609375 11.28125 51.796875 
Q 16.75 56 26.8125 56 
Q 31.78125 56 36.171875 55.265625 
Q 40.578125 54.546875 44.28125 53.078125 
z
" id="DejaVuSans-115"/>
       <path d="M 25.390625 72.90625 
L 33.6875 72.90625 
L 8.296875 -9.28125 
L 0 -9.28125 
z
" id="DejaVuSans-47"/>
       <path d="M 45.40625 46.390625 
L 45.40625 75.984375 
L 54.390625 75.984375 
L 54.390625 0 
L 45.40625 0 
L 45.40625 8.203125 
Q 42.578125 3.328125 38.25 0.953125 
Q 33.9375 -1.421875 27.875 -1.421875 
Q 17.96875 -1.421875 11.734375 6.484375 
Q 5.515625 14.40625 5.515625 27.296875 
Q 5.515625 40.1875 11.734375 48.09375 
Q 17.96875 56 27.875 56 
Q 33.9375 56 38.25 53.625 
Q 42.578125 51.265625 45.40625 46.390625 
z
M 14.796875 27.296875 
Q 14.796875 17.390625 18.875 11.75 
Q 22.953125 6.109375 30.078125 6.109375 
Q 37.203125 6.109375 41.296875 11.75 
Q 45.40625 17.390625 45.40625 27.296875 
Q 45.40625 37.203125 41.296875 42.84375 
Q 37.203125 48.484375 30.078125 48.484375 
Q 22.953125 48.484375 18.875 42.84375 
Q 14.796875 37.203125 14.796875 27.296875 
z
" id="DejaVuSans-100"/>
       <path d="M 9.421875 54.6875 
L 18.40625 54.6875 
L 18.40625 0 
L 9.421875 0 
z
M 9.421875 75.984375 
L 18.40625 75.984375 
L 18.40625 64.59375 
L 9.421875 64.59375 
z
" id="DejaVuSans-105"/>
       <path d="M 52 44.1875 
Q 55.375 50.25 60.0625 53.125 
Q 64.75 56 71.09375 56 
Q 79.640625 56 84.28125 50.015625 
Q 88.921875 44.046875 88.921875 33.015625 
L 88.921875 0 
L 79.890625 0 
L 79.890625 32.71875 
Q 79.890625 40.578125 77.09375 44.375 
Q 74.3125 48.1875 68.609375 48.1875 
Q 61.625 48.1875 57.5625 43.546875 
Q 53.515625 38.921875 53.515625 30.90625 
L 53.515625 0 
L 44.484375 0 
L 44.484375 32.71875 
Q 44.484375 40.625 41.703125 44.40625 
Q 38.921875 48.1875 33.109375 48.1875 
Q 26.21875 48.1875 22.15625 43.53125 
Q 18.109375 38.875 18.109375 30.90625 
L 18.109375 0 
L 9.078125 0 
L 9.078125 54.6875 
L 18.109375 54.6875 
L 18.109375 46.1875 
Q 21.1875 51.21875 25.484375 53.609375 
Q 29.78125 56 35.6875 56 
Q 41.65625 56 45.828125 52.96875 
Q 50 49.953125 52 44.1875 
z
" id="DejaVuSans-109"/>
       <path d="M 54.890625 33.015625 
L 54.890625 0 
L 45.90625 0 
L 45.90625 32.71875 
Q 45.90625 40.484375 42.875 44.328125 
Q 39.84375 48.1875 33.796875 48.1875 
Q 26.515625 48.1875 22.3125 43.546875 
Q 18.109375 38.921875 18.109375 30.90625 
L 18.109375 0 
L 9.078125 0 
L 9.078125 54.6875 
L 18.109375 54.6875 
L 18.109375 46.1875 
Q 21.34375 51.125 25.703125 53.5625 
Q 30.078125 56 35.796875 56 
Q 45.21875 56 50.046875 50.171875 
Q 54.890625 44.34375 54.890625 33.015625 
z
" id="DejaVuSans-110"/>
       <path d="M 8.015625 75.875 
L 15.828125 75.875 
Q 23.140625 64.359375 26.78125 53.3125 
Q 30.421875 42.28125 30.421875 31.390625 
Q 30.421875 20.453125 26.78125 9.375 
Q 23.140625 -1.703125 15.828125 -13.1875 
L 8.015625 -13.1875 
Q 14.5 -2 17.703125 9.0625 
Q 20.90625 20.125 20.90625 31.390625 
Q 20.90625 42.671875 17.703125 53.65625 
Q 14.5 64.65625 8.015625 75.875 
z
" id="DejaVuSans-41"/>
      </defs>
      <use xlink:href="#DejaVuSans-108"/>
      <use x="27.783203" xlink:href="#DejaVuSans-111"/>
      <use x="88.964844" xlink:href="#DejaVuSans-103"/>
      <use x="152.441406" xlink:href="#DejaVuSans-49"/>
      <use x="216.064453" xlink:href="#DejaVuSans-48"/>
      <use x="279.6875" xlink:href="#DejaVuSans-40"/>
      <use x="318.701172" xlink:href="#DejaVuSans-35"/>
      <use x="402.490234" xlink:href="#DejaVuSans-32"/>
      <use x="434.277344" xlink:href="#DejaVuSans-102"/>
      <use x="463.982422" xlink:href="#DejaVuSans-45"/>
      <use x="500.066406" xlink:href="#DejaVuSans-101"/>
      <use x="561.589844" xlink:href="#DejaVuSans-118"/>
      <use x="620.769531" xlink:href="#DejaVuSans-97"/>
      <use x="682.048828" xlink:href="#DejaVuSans-108"/>
      <use x="709.832031" xlink:href="#DejaVuSans-115"/>
      <use x="761.931641" xlink:href="#DejaVuSans-32"/>
      <use x="793.71875" xlink:href="#DejaVuSans-47"/>
      <use x="827.410156" xlink:href="#DejaVuSans-32"/>
      <use x="859.197266" xlink:href="#DejaVuSans-100"/>
      <use x="922.673828" xlink:href="#DejaVuSans-105"/>
      <use x="950.457031" xlink:href="#DejaVuSans-109"/>
      <use x="1047.869141" xlink:href="#DejaVuSans-101"/>
      <use x="1109.392578" xlink:href="#DejaVuSans-110"/>
      <use x="1172.771484" xlink:href="#DejaVuSans-115"/>
      <use x="1224.871094" xlink:href="#DejaVuSans-105"/>
      <use x="1252.654297" xlink:href="#DejaVuSans-111"/>
      <use x="1313.835938" xlink:href="#DejaVuSans-110"/>
      <use x="1377.214844" xlink:href="#DejaVuSans-41"/>
     </g>
    </g>
   </g>
   <g id="matplotlib.axis_2">
    <g id="ytick_1">
     <g id="line2d_21">
      <path clip-path="url(#pbe191bd293)" d="M 57.6 298.944 
L 338.688 298.944 
" style="fill:none;stroke:#b0b0b0;stroke-linecap:square;stroke-width:0.8;"/>
     </g>
     <g id="line2d_22">
      <defs>
       <path d="M 0 0 
L -3.5 0 
" id="md2892705ed" style="stroke:#000000;stroke-width:0.8;"/>
      </defs>
      <g>
       <use style="stroke:#000000;stroke-width:0.8;" x="57.6" xlink:href="#md2892705ed" y="298.944"/>
      </g>
     </g>
     <g id="text_6">
      <!-- 0.0 -->
      <g transform="translate(25.155 305.02275)scale(0.16 -0.16)">
       <defs>
        <path d="M 10.6875 12.40625 
L 21 12.40625 
L 21 0 
L 10.6875 0 
z
" id="DejaVuSans-46"/>
       </defs>
       <use xlink:href="#DejaVuSans-48"/>
       <use x="63.623047" xlink:href="#DejaVuSans-46"/>
       <use x="95.410156" xlink:href="#DejaVuSans-48"/>
      </g>
     </g>
    </g>
    <g id="ytick_2">
     <g id="line2d_23">
      <path clip-path="url(#pbe191bd293)" d="M 57.6 245.22202 
L 338.688 245.22202 
" style="fill:none;stroke:#b0b0b0;stroke-linecap:square;stroke-width:0.8;"/>
     </g>
     <g id="line2d_24">
      <g>
       <use style="stroke:#000000;stroke-width:0.8;" x="57.6" xlink:href="#md2892705ed" y="245.22202"/>
      </g>
     </g>
     <g id="text_7">
      <!-- 0.2 -->
      <g transform="translate(25.155 251.30077)scale(0.16 -0.16)">
       <use xlink:href="#DejaVuSans-48"/>
       <use x="63.623047" xlink:href="#DejaVuSans-46"/>
       <use x="95.410156" xlink:href="#DejaVuSans-50"/>
      </g>
     </g>
    </g>
    <g id="ytick_3">
     <g id="line2d_25">
      <path clip-path="url(#pbe191bd293)" d="M 57.6 191.50004 
L 338.688 191.50004 
" style="fill:none;stroke:#b0b0b0;stroke-linecap:square;stroke-width:0.8;"/>
     </g>
     <g id="line2d_26">
      <g>
       <use style="stroke:#000000;stroke-width:0.8;" x="57.6" xlink:href="#md2892705ed" y="191.50004"/>
      </g>
     </g>
     <g id="text_8">
      <!-- 0.4 -->
      <g transform="translate(25.155 197.57879)scale(0.16 -0.16)">
       <use xlink:href="#DejaVuSans-48"/>
       <use x="63.623047" xlink:href="#DejaVuSans-46"/>
       <use x="95.410156" xlink:href="#DejaVuSans-52"/>
      </g>
     </g>
    </g>
    <g id="ytick_4">
     <g id="line2d_27">
      <path clip-path="url(#pbe191bd293)" d="M 57.6 137.778059 
L 338.688 137.778059 
" style="fill:none;stroke:#b0b0b0;stroke-linecap:square;stroke-width:0.8;"/>
     </g>
     <g id="line2d_28">
      <g>
       <use style="stroke:#000000;stroke-width:0.8;" x="57.6" xlink:href="#md2892705ed" y="137.778059"/>
      </g>
     </g>
     <g id="text_9">
      <!-- 0.6 -->
      <g transform="translate(25.155 143.856809)scale(0.16 -0.16)">
       <use xlink:href="#DejaVuSans-48"/>
       <use x="63.623047" xlink:href="#DejaVuSans-46"/>
       <use x="95.410156" xlink:href="#DejaVuSans-54"/>
      </g>
     </g>
    </g>
    <g id="ytick_5">
     <g id="line2d_29">
      <path clip-path="url(#pbe191bd293)" d="M 57.6 84.056079 
L 338.688 84.056079 
" style="fill:none;stroke:#b0b0b0;stroke-linecap:square;stroke-width:0.8;"/>
     </g>
     <g id="line2d_30">
      <g>
       <use style="stroke:#000000;stroke-width:0.8;" x="57.6" xlink:href="#md2892705ed" y="84.056079"/>
      </g>
     </g>
     <g id="text_10">
      <!-- 0.8 -->
      <g transform="translate(25.155 90.134829)scale(0.16 -0.16)">
       <defs>
        <path d="M 31.78125 34.625 
Q 24.75 34.625 20.71875 30.859375 
Q 16.703125 27.09375 16.703125 20.515625 
Q 16.703125 13.921875 20.71875 10.15625 
Q 24.75 6.390625 31.78125 6.390625 
Q 38.8125 6.390625 42.859375 10.171875 
Q 46.921875 13.96875 46.921875 20.515625 
Q 46.921875 27.09375 42.890625 30.859375 
Q 38.875 34.625 31.78125 34.625 
z
M 21.921875 38.8125 
Q 15.578125 40.375 12.03125 44.71875 
Q 8.5 49.078125 8.5 55.328125 
Q 8.5 64.0625 14.71875 69.140625 
Q 20.953125 74.21875 31.78125 74.21875 
Q 42.671875 74.21875 48.875 69.140625 
Q 55.078125 64.0625 55.078125 55.328125 
Q 55.078125 49.078125 51.53125 44.71875 
Q 48 40.375 41.703125 38.8125 
Q 48.828125 37.15625 52.796875 32.3125 
Q 56.78125 27.484375 56.78125 20.515625 
Q 56.78125 9.90625 50.3125 4.234375 
Q 43.84375 -1.421875 31.78125 -1.421875 
Q 19.734375 -1.421875 13.25 4.234375 
Q 6.78125 9.90625 6.78125 20.515625 
Q 6.78125 27.484375 10.78125 32.3125 
Q 14.796875 37.15625 21.921875 38.8125 
z
M 18.3125 54.390625 
Q 18.3125 48.734375 21.84375 45.5625 
Q 25.390625 42.390625 31.78125 42.390625 
Q 38.140625 42.390625 41.71875 45.5625 
Q 45.3125 48.734375 45.3125 54.390625 
Q 45.3125 60.0625 41.71875 63.234375 
Q 38.140625 66.40625 31.78125 66.40625 
Q 25.390625 66.40625 21.84375 63.234375 
Q 18.3125 60.0625 18.3125 54.390625 
z
" id="DejaVuSans-56"/>
       </defs>
       <use xlink:href="#DejaVuSans-48"/>
       <use x="63.623047" xlink:href="#DejaVuSans-46"/>
       <use x="95.410156" xlink:href="#DejaVuSans-56"/>
      </g>
     </g>
    </g>
    <g id="ytick_6">
     <g id="line2d_31">
      <path clip-path="url(#pbe191bd293)" d="M 57.6 30.334099 
L 338.688 30.334099 
" style="fill:none;stroke:#b0b0b0;stroke-linecap:square;stroke-width:0.8;"/>
     </g>
     <g id="line2d_32">
      <g>
       <use style="stroke:#000000;stroke-width:0.8;" x="57.6" xlink:href="#md2892705ed" y="30.334099"/>
      </g>
     </g>
     <g id="text_11">
      <!-- 1.0 -->
      <g transform="translate(25.155 36.412849)scale(0.16 -0.16)">
       <use xlink:href="#DejaVuSans-49"/>
       <use x="63.623047" xlink:href="#DejaVuSans-46"/>
       <use x="95.410156" xlink:href="#DejaVuSans-48"/>
      </g>
     </g>
    </g>
    <g id="text_12">
     <!-- Fraction of function,target pairs -->
     <g transform="translate(17.619531 297.681)rotate(-90)scale(0.17 -0.17)">
      <defs>
       <path d="M 9.8125 72.90625 
L 51.703125 72.90625 
L 51.703125 64.59375 
L 19.671875 64.59375 
L 19.671875 43.109375 
L 48.578125 43.109375 
L 48.578125 34.8125 
L 19.671875 34.8125 
L 19.671875 0 
L 9.8125 0 
z
" id="DejaVuSans-70"/>
       <path d="M 41.109375 46.296875 
Q 39.59375 47.171875 37.8125 47.578125 
Q 36.03125 48 33.890625 48 
Q 26.265625 48 22.1875 43.046875 
Q 18.109375 38.09375 18.109375 28.8125 
L 18.109375 0 
L 9.078125 0 
L 9.078125 54.6875 
L 18.109375 54.6875 
L 18.109375 46.1875 
Q 20.953125 51.171875 25.484375 53.578125 
Q 30.03125 56 36.53125 56 
Q 37.453125 56 38.578125 55.875 
Q 39.703125 55.765625 41.0625 55.515625 
z
" id="DejaVuSans-114"/>
       <path d="M 48.78125 52.59375 
L 48.78125 44.1875 
Q 44.96875 46.296875 41.140625 47.34375 
Q 37.3125 48.390625 33.40625 48.390625 
Q 24.65625 48.390625 19.8125 42.84375 
Q 14.984375 37.3125 14.984375 27.296875 
Q 14.984375 17.28125 19.8125 11.734375 
Q 24.65625 6.203125 33.40625 6.203125 
Q 37.3125 6.203125 41.140625 7.25 
Q 44.96875 8.296875 48.78125 10.40625 
L 48.78125 2.09375 
Q 45.015625 0.34375 40.984375 -0.53125 
Q 36.96875 -1.421875 32.421875 -1.421875 
Q 20.0625 -1.421875 12.78125 6.34375 
Q 5.515625 14.109375 5.515625 27.296875 
Q 5.515625 40.671875 12.859375 48.328125 
Q 20.21875 56 33.015625 56 
Q 37.15625 56 41.109375 55.140625 
Q 45.0625 54.296875 48.78125 52.59375 
z
" id="DejaVuSans-99"/>
       <path d="M 18.3125 70.21875 
L 18.3125 54.6875 
L 36.8125 54.6875 
L 36.8125 47.703125 
L 18.3125 47.703125 
L 18.3125 18.015625 
Q 18.3125 11.328125 20.140625 9.421875 
Q 21.96875 7.515625 27.59375 7.515625 
L 36.8125 7.515625 
L 36.8125 0 
L 27.59375 0 
Q 17.1875 0 13.234375 3.875 
Q 9.28125 7.765625 9.28125 18.015625 
L 9.28125 47.703125 
L 2.6875 47.703125 
L 2.6875 54.6875 
L 9.28125 54.6875 
L 9.28125 70.21875 
z
" id="DejaVuSans-116"/>
       <path d="M 8.5 21.578125 
L 8.5 54.6875 
L 17.484375 54.6875 
L 17.484375 21.921875 
Q 17.484375 14.15625 20.5 10.265625 
Q 23.53125 6.390625 29.59375 6.390625 
Q 36.859375 6.390625 41.078125 11.03125 
Q 45.3125 15.671875 45.3125 23.6875 
L 45.3125 54.6875 
L 54.296875 54.6875 
L 54.296875 0 
L 45.3125 0 
L 45.3125 8.40625 
Q 42.046875 3.421875 37.71875 1 
Q 33.40625 -1.421875 27.6875 -1.421875 
Q 18.265625 -1.421875 13.375 4.4375 
Q 8.5 10.296875 8.5 21.578125 
z
M 31.109375 56 
z
" id="DejaVuSans-117"/>
       <path d="M 11.71875 12.40625 
L 22.015625 12.40625 
L 22.015625 4 
L 14.015625 -11.625 
L 7.71875 -11.625 
L 11.71875 4 
z
" id="DejaVuSans-44"/>
       <path d="M 18.109375 8.203125 
L 18.109375 -20.796875 
L 9.078125 -20.796875 
L 9.078125 54.6875 
L 18.109375 54.6875 
L 18.109375 46.390625 
Q 20.953125 51.265625 25.265625 53.625 
Q 29.59375 56 35.59375 56 
Q 45.5625 56 51.78125 48.09375 
Q 58.015625 40.1875 58.015625 27.296875 
Q 58.015625 14.40625 51.78125 6.484375 
Q 45.5625 -1.421875 35.59375 -1.421875 
Q 29.59375 -1.421875 25.265625 0.953125 
Q 20.953125 3.328125 18.109375 8.203125 
z
M 48.6875 27.296875 
Q 48.6875 37.203125 44.609375 42.84375 
Q 40.53125 48.484375 33.40625 48.484375 
Q 26.265625 48.484375 22.1875 42.84375 
Q 18.109375 37.203125 18.109375 27.296875 
Q 18.109375 17.390625 22.1875 11.75 
Q 26.265625 6.109375 33.40625 6.109375 
Q 40.53125 6.109375 44.609375 11.75 
Q 48.6875 17.390625 48.6875 27.296875 
z
" id="DejaVuSans-112"/>
      </defs>
      <use xlink:href="#DejaVuSans-70"/>
      <use x="50.269531" xlink:href="#DejaVuSans-114"/>
      <use x="91.382812" xlink:href="#DejaVuSans-97"/>
      <use x="152.662109" xlink:href="#DejaVuSans-99"/>
      <use x="207.642578" xlink:href="#DejaVuSans-116"/>
      <use x="246.851562" xlink:href="#DejaVuSans-105"/>
      <use x="274.634766" xlink:href="#DejaVuSans-111"/>
      <use x="335.816406" xlink:href="#DejaVuSans-110"/>
      <use x="399.195312" xlink:href="#DejaVuSans-32"/>
      <use x="430.982422" xlink:href="#DejaVuSans-111"/>
      <use x="492.164062" xlink:href="#DejaVuSans-102"/>
      <use x="527.369141" xlink:href="#DejaVuSans-32"/>
      <use x="559.15625" xlink:href="#DejaVuSans-102"/>
      <use x="594.361328" xlink:href="#DejaVuSans-117"/>
      <use x="657.740234" xlink:href="#DejaVuSans-110"/>
      <use x="721.119141" xlink:href="#DejaVuSans-99"/>
      <use x="776.099609" xlink:href="#DejaVuSans-116"/>
      <use x="815.308594" xlink:href="#DejaVuSans-105"/>
      <use x="843.091797" xlink:href="#DejaVuSans-111"/>
      <use x="904.273438" xlink:href="#DejaVuSans-110"/>
      <use x="967.652344" xlink:href="#DejaVuSans-44"/>
      <use x="999.439453" xlink:href="#DejaVuSans-116"/>
      <use x="1038.648438" xlink:href="#DejaVuSans-97"/>
      <use x="1099.927734" xlink:href="#DejaVuSans-114"/>
      <use x="1139.291016" xlink:href="#DejaVuSans-103"/>
      <use x="1202.767578" xlink:href="#DejaVuSans-101"/>
      <use x="1264.291016" xlink:href="#DejaVuSans-116"/>
      <use x="1303.5" xlink:href="#DejaVuSans-32"/>
      <use x="1335.287109" xlink:href="#DejaVuSans-112"/>
      <use x="1398.763672" xlink:href="#DejaVuSans-97"/>
      <use x="1460.042969" xlink:href="#DejaVuSans-105"/>
      <use x="1487.826172" xlink:href="#DejaVuSans-114"/>
      <use x="1528.939453" xlink:href="#DejaVuSans-115"/>
     </g>
    </g>
   </g>
   <g id="line2d_33">
    <defs>
     <path d="M 0 1.5 
C 0.397805 1.5 0.77937 1.341951 1.06066 1.06066 
C 1.341951 0.77937 1.5 0.397805 1.5 0 
C 1.5 -0.397805 1.341951 -0.77937 1.06066 -1.06066 
C 0.77937 -1.341951 0.397805 -1.5 0 -1.5 
C -0.397805 -1.5 -0.77937 -1.341951 -1.06066 -1.06066 
C -1.341951 -0.77937 -1.5 -0.397805 -1.5 0 
C -1.5 0.397805 -1.341951 0.77937 -1.06066 1.06066 
C -0.77937 1.341951 -0.397805 1.5 0 1.5 
z
" id="m80620b353f" style="stroke:#f5deb3;"/>
    </defs>
    <g>
     <use style="fill:#f5deb3;stroke:#f5deb3;" x="328.116743" xlink:href="#m80620b353f" y="146.114229"/>
     <use style="fill:#f5deb3;stroke:#f5deb3;" x="328.116743" xlink:href="#m80620b353f" y="146.114229"/>
    </g>
   </g>
   <g id="line2d_34">
    <defs>
     <path d="M 0 1.5 
C 0.397805 1.5 0.77937 1.341951 1.06066 1.06066 
C 1.341951 0.77937 1.5 0.397805 1.5 0 
C 1.5 -0.397805 1.341951 -0.77937 1.06066 -1.06066 
C 0.77937 -1.341951 0.397805 -1.5 0 -1.5 
C -0.397805 -1.5 -0.77937 -1.341951 -1.06066 -1.06066 
C -1.341951 -0.77937 -1.5 -0.397805 -1.5 0 
C -1.5 0.397805 -1.341951 0.77937 -1.06066 1.06066 
C -0.77937 1.341951 -0.397805 1.5 0 1.5 
z
" id="m3d15f9b2e8" style="stroke:#000080;"/>
    </defs>
    <g>
     <use style="fill:#000080;stroke:#000080;" x="252.586249" xlink:href="#m3d15f9b2e8" y="272.54613"/>
     <use style="fill:#000080;stroke:#000080;" x="252.586249" xlink:href="#m3d15f9b2e8" y="272.54613"/>
    </g>
   </g>
   <g id="line2d_35">
    <path d="M 108.764355 298.944 
L 108.764355 298.480879 
L 115.141496 298.480879 
L 115.141496 298.017759 
L 120.852343 298.017759 
L 120.852343 297.554638 
L 122.699028 297.554638 
L 122.699028 297.091518 
L 125.147256 297.091518 
L 125.147256 296.628397 
L 126.607172 296.628397 
L 126.607172 296.165277 
L 129.175952 296.165277 
L 129.175952 295.702156 
L 129.204706 295.702156 
L 129.204706 294.775915 
L 132.986651 294.775915 
L 132.986651 294.312795 
L 133.953874 294.312795 
L 133.953874 293.849674 
L 136.092812 293.849674 
L 136.092812 293.386554 
L 137.647286 293.386554 
L 137.647286 292.460313 
L 138.032507 292.460313 
L 138.032507 291.997192 
L 139.413734 291.997192 
L 139.413734 290.607831 
L 139.762215 290.607831 
L 139.762215 290.14471 
L 140.408758 290.14471 
L 140.408758 289.68159 
L 141.017599 289.68159 
L 141.017599 289.218469 
L 141.321401 289.218469 
L 141.321401 288.755349 
L 142.20229 288.755349 
L 142.20229 288.292228 
L 143.311596 288.292228 
L 143.311596 287.829108 
L 143.840863 287.829108 
L 143.840863 287.365987 
L 144.124035 287.365987 
L 144.124035 286.902867 
L 145.097753 286.902867 
L 145.097753 286.439746 
L 145.350002 286.439746 
L 145.350002 285.976625 
L 146.041862 285.976625 
L 146.041862 285.513505 
L 146.717846 285.513505 
L 146.717846 285.050384 
L 146.927079 285.050384 
L 146.927079 284.587264 
L 148.993835 284.587264 
L 148.993835 284.124143 
L 149.58413 284.124143 
L 149.58413 283.661023 
L 151.349063 283.661023 
L 151.349063 283.197902 
L 151.858043 283.197902 
L 151.858043 282.734782 
L 156.580579 282.734782 
L 156.580579 282.271661 
L 159.3651 282.271661 
L 159.3651 281.808541 
L 159.471793 281.808541 
L 159.471793 281.34542 
L 160.604262 281.34542 
L 160.604262 280.8823 
L 168.515445 280.8823 
L 168.515445 280.419179 
L 170.130094 280.419179 
L 170.130094 279.956059 
L 170.429886 279.956059 
L 170.429886 279.492938 
L 171.61541 279.492938 
L 171.61541 279.029818 
L 171.910786 279.029818 
L 171.910786 278.566697 
L 174.222715 278.566697 
L 174.222715 278.103577 
L 177.522509 278.103577 
L 177.522509 277.640456 
L 204.785441 277.640456 
L 204.785441 277.177336 
L 209.45426 277.177336 
L 209.45426 276.714215 
L 213.050366 276.714215 
L 213.050366 276.251095 
L 218.748539 276.251095 
L 218.748539 275.787974 
L 218.847579 275.787974 
L 218.847579 275.324854 
L 230.546999 275.324854 
L 230.546999 274.861733 
L 234.779049 274.861733 
L 234.779049 274.398612 
L 242.986419 274.398612 
L 242.986419 273.935492 
L 246.304982 273.935492 
L 246.304982 273.472371 
L 246.435448 273.472371 
L 246.435448 273.009251 
L 252.586249 273.009251 
L 252.586249 272.54613 
L 338.688 272.54613 
" style="fill:none;stroke:#000080;stroke-linecap:square;stroke-width:1.5;"/>
   </g>
   <g id="line2d_36">
    <defs>
     <path d="M 0 6 
C 1.591219 6 3.117479 5.367802 4.242641 4.242641 
C 5.367802 3.117479 6 1.591219 6 0 
C 6 -1.591219 5.367802 -3.117479 4.242641 -4.242641 
C 3.117479 -5.367802 1.591219 -6 0 -6 
C -1.591219 -6 -3.117479 -5.367802 -4.242641 -4.242641 
C -5.367802 -3.117479 -6 -1.591219 -6 0 
C -6 1.591219 -5.367802 3.117479 -4.242641 4.242641 
C -3.117479 5.367802 -1.591219 6 0 6 
z
" id="m338742777b" style="stroke:#000080;stroke-width:1.5;"/>
    </defs>
    <g>
     <use style="fill-opacity:0;stroke:#000080;stroke-width:1.5;" x="160.604262" xlink:href="#m338742777b" y="280.8823"/>
     <use style="fill-opacity:0;stroke:#000080;stroke-width:1.5;" x="213.050366" xlink:href="#m338742777b" y="276.251095"/>
     <use style="fill-opacity:0;stroke:#000080;stroke-width:1.5;" x="252.586249" xlink:href="#m338742777b" y="273.009251"/>
     <use style="fill-opacity:0;stroke:#000080;stroke-width:1.5;" x="252.586249" xlink:href="#m338742777b" y="272.54613"/>
     <use style="fill-opacity:0;stroke:#000080;stroke-width:1.5;" x="338.688" xlink:href="#m338742777b" y="272.54613"/>
    </g>
   </g>
   <g id="line2d_37">
    <path style="fill:none;stroke:#000080;stroke-linecap:square;stroke-width:1.5;"/>
    <g/>
   </g>
   <g id="line2d_38">
    <path clip-path="url(#pbe191bd293)" d="M 258.377143 272.54613 
" style="fill:none;stroke:#000080;stroke-linecap:square;stroke-width:1.5;"/>
    <defs>
     <path d="M -12 12 
L 12 -12 
M -12 -12 
L 12 12 
" id="mfd9c06c656" style="stroke:#000080;"/>
    </defs>
    <g clip-path="url(#pbe191bd293)">
     <use style="fill:#000080;stroke:#000080;" x="258.377143" xlink:href="#mfd9c06c656" y="272.54613"/>
    </g>
   </g>
   <g id="line2d_39">
    <defs>
     <path d="M 0 1.5 
C 0.397805 1.5 0.77937 1.341951 1.06066 1.06066 
C 1.341951 0.77937 1.5 0.397805 1.5 0 
C 1.5 -0.397805 1.341951 -0.77937 1.06066 -1.06066 
C 0.77937 -1.341951 0.397805 -1.5 0 -1.5 
C -0.397805 -1.5 -0.77937 -1.341951 -1.06066 -1.06066 
C -1.341951 -0.77937 -1.5 -0.397805 -1.5 0 
C -1.5 0.397805 -1.341951 0.77937 -1.06066 1.06066 
C -0.77937 1.341951 -0.397805 1.5 0 1.5 
z
" id="m0d2b05504b" style="stroke:#ff00ff;"/>
    </defs>
    <g>
     <use style="fill:#ff00ff;stroke:#ff00ff;" x="236.234247" xlink:href="#m0d2b05504b" y="236.88585"/>
     <use style="fill:#ff00ff;stroke:#ff00ff;" x="236.234247" xlink:href="#m0d2b05504b" y="236.88585"/>
    </g>
   </g>
   <g id="line2d_40">
    <path d="M 17.444571 298.944 
L 17.444571 294.312795 
L 41.620548 294.312795 
L 41.620548 293.849674 
L 69.687988 293.849674 
L 69.687988 293.386554 
L 80.881459 293.386554 
L 80.881459 292.460313 
L 81.775977 292.460313 
L 81.775977 291.997192 
L 127.642832 291.997192 
L 127.642832 291.534072 
L 134.55603 291.534072 
L 134.55603 291.070951 
L 136.342635 291.070951 
L 136.342635 290.607831 
L 137.753193 290.607831 
L 137.753193 290.14471 
L 138.307417 290.14471 
L 138.307417 289.68159 
L 138.943469 289.68159 
L 138.943469 289.218469 
L 139.074469 289.218469 
L 139.074469 288.755349 
L 139.413734 288.755349 
L 139.413734 288.292228 
L 142.818488 288.292228 
L 142.818488 287.829108 
L 143.066785 287.829108 
L 143.066785 287.365987 
L 143.86567 287.365987 
L 143.86567 286.902867 
L 145.212864 286.902867 
L 145.212864 286.439746 
L 145.943118 286.439746 
L 145.943118 285.976625 
L 146.074653 285.976625 
L 146.074653 285.513505 
L 146.495417 285.513505 
L 146.495417 285.050384 
L 146.927079 285.050384 
L 146.927079 284.587264 
L 147.660186 284.587264 
L 147.660186 284.124143 
L 148.296548 284.124143 
L 148.296548 283.661023 
L 149.575199 283.661023 
L 149.664311 282.734782 
L 150.707961 282.734782 
L 150.707961 282.271661 
L 150.866312 282.271661 
L 150.866312 281.808541 
L 151.227591 281.808541 
L 151.316753 280.8823 
L 151.373256 280.8823 
L 151.373256 280.419179 
L 151.747966 280.419179 
L 151.747966 279.956059 
L 151.897188 279.956059 
L 151.897188 279.492938 
L 152.237931 279.492938 
L 152.237931 279.029818 
L 152.443774 279.029818 
L 152.443774 278.566697 
L 153.423725 278.566697 
L 153.423725 278.103577 
L 153.757264 278.103577 
L 153.757264 277.640456 
L 154.24249 277.640456 
L 154.24249 277.177336 
L 154.707925 277.177336 
L 154.707925 276.714215 
L 154.985269 276.714215 
L 154.985269 276.251095 
L 155.373976 276.251095 
L 155.373976 275.787974 
L 155.672525 275.787974 
L 155.672525 275.324854 
L 156.687861 275.324854 
L 156.687861 274.861733 
L 156.823991 274.861733 
L 156.823991 274.398612 
L 157.029126 274.398612 
L 157.029126 273.935492 
L 157.455057 273.935492 
L 157.56276 272.54613 
L 158.978632 272.54613 
L 158.978632 272.08301 
L 159.288488 272.08301 
L 159.288488 271.619889 
L 159.936602 271.619889 
L 160.020244 270.230528 
L 160.147395 270.230528 
L 160.147395 269.767407 
L 160.764907 269.767407 
L 160.764907 269.304287 
L 161.12334 269.304287 
L 161.146363 267.914925 
L 162.779197 267.914925 
L 162.829407 266.525564 
L 163.024679 266.525564 
L 163.024679 266.062443 
L 163.376421 266.062443 
L 163.376421 265.136202 
L 164.086545 265.136202 
L 164.086545 264.673082 
L 164.558269 264.673082 
L 164.558269 264.209961 
L 164.940002 264.209961 
L 165.006508 263.28372 
L 165.461488 263.28372 
L 165.461488 262.8206 
L 165.601045 262.8206 
L 165.601045 262.357479 
L 166.385083 262.357479 
L 166.385083 261.894358 
L 167.22004 261.894358 
L 167.22004 261.431238 
L 167.776251 261.431238 
L 167.776251 260.968117 
L 167.982673 260.968117 
L 167.982673 260.504997 
L 168.376172 260.504997 
L 168.476198 259.115635 
L 168.683507 259.115635 
L 168.683507 258.652515 
L 168.941432 258.652515 
L 168.941432 257.726274 
L 169.377364 257.726274 
L 169.377364 256.800033 
L 170.626031 256.800033 
L 170.626031 256.336912 
L 170.985671 256.336912 
L 170.985671 255.410671 
L 171.653236 255.410671 
L 171.653236 254.947551 
L 171.836163 254.947551 
L 171.836163 254.48443 
L 172.130306 254.48443 
L 172.130306 254.02131 
L 173.29636 254.02131 
L 173.29636 253.558189 
L 173.494678 253.558189 
L 173.567059 252.631948 
L 174.118053 252.631948 
L 174.118053 252.168828 
L 175.436043 252.168828 
L 175.436043 251.242587 
L 176.517133 251.242587 
L 176.517133 250.779466 
L 176.753762 250.779466 
L 176.753762 250.316346 
L 176.871817 250.316346 
L 176.871817 249.853225 
L 177.406981 249.853225 
L 177.406981 248.926984 
L 177.813334 248.926984 
L 177.813334 248.463863 
L 178.15847 248.463863 
L 178.15847 247.537622 
L 180.732625 247.537622 
L 180.732625 247.074502 
L 182.448835 247.074502 
L 182.448835 246.611381 
L 184.698166 246.611381 
L 184.698166 246.148261 
L 184.924415 246.148261 
L 184.924415 245.68514 
L 185.294709 245.68514 
L 185.294709 244.758899 
L 187.214078 244.758899 
L 187.214078 243.832658 
L 187.560494 243.832658 
L 187.560494 243.369538 
L 189.180641 243.369538 
L 189.180641 242.906417 
L 189.950796 242.906417 
L 189.950796 242.443297 
L 193.166632 242.443297 
L 193.166632 241.517056 
L 194.302635 241.517056 
L 194.302635 240.590815 
L 202.860303 240.590815 
L 202.860303 239.664574 
L 205.797413 239.664574 
L 205.804524 238.275212 
L 206.600719 238.275212 
L 206.600719 237.812091 
L 213.4215 237.812091 
L 213.4215 237.348971 
L 236.234247 237.348971 
L 236.234247 236.88585 
L 338.688 236.88585 
L 338.688 236.88585 
" style="fill:none;stroke:#ff00ff;stroke-linecap:square;stroke-width:1.5;"/>
   </g>
   <g id="line2d_41">
    <defs>
     <path d="M -0 8.485281 
L 5.091169 0 
L 0 -8.485281 
L -5.091169 -0 
z
" id="mb01c4c8704" style="stroke:#ff00ff;stroke-linejoin:miter;stroke-width:1.5;"/>
    </defs>
    <g>
     <use style="fill-opacity:0;stroke:#ff00ff;stroke-linejoin:miter;stroke-width:1.5;" x="139.074469" xlink:href="#mb01c4c8704" y="289.218469"/>
     <use style="fill-opacity:0;stroke:#ff00ff;stroke-linejoin:miter;stroke-width:1.5;" x="189.950796" xlink:href="#mb01c4c8704" y="242.443297"/>
     <use style="fill-opacity:0;stroke:#ff00ff;stroke-linejoin:miter;stroke-width:1.5;" x="236.234247" xlink:href="#mb01c4c8704" y="237.348971"/>
     <use style="fill-opacity:0;stroke:#ff00ff;stroke-linejoin:miter;stroke-width:1.5;" x="236.234247" xlink:href="#mb01c4c8704" y="236.88585"/>
     <use style="fill-opacity:0;stroke:#ff00ff;stroke-linejoin:miter;stroke-width:1.5;" x="338.688" xlink:href="#mb01c4c8704" y="236.88585"/>
    </g>
   </g>
   <g id="line2d_42">
    <path style="fill:none;stroke:#ff00ff;stroke-linecap:square;stroke-width:1.5;"/>
    <g/>
   </g>
   <g id="line2d_43">
    <path clip-path="url(#pbe191bd293)" d="M 258.37716 236.88585 
" style="fill:none;stroke:#ff00ff;stroke-linecap:square;stroke-width:1.5;"/>
    <defs>
     <path d="M -12 12 
L 12 -12 
M -12 -12 
L 12 12 
" id="m14e80b6858" style="stroke:#ff00ff;"/>
    </defs>
    <g clip-path="url(#pbe191bd293)">
     <use style="fill:#ff00ff;stroke:#ff00ff;" x="258.37716" xlink:href="#m14e80b6858" y="236.88585"/>
    </g>
   </g>
   <g id="line2d_44">
    <defs>
     <path d="M 0 1.5 
C 0.397805 1.5 0.77937 1.341951 1.06066 1.06066 
C 1.341951 0.77937 1.5 0.397805 1.5 0 
C 1.5 -0.397805 1.341951 -0.77937 1.06066 -1.06066 
C 0.77937 -1.341951 0.397805 -1.5 0 -1.5 
C -0.397805 -1.5 -0.77937 -1.341951 -1.06066 -1.06066 
C -1.341951 -0.77937 -1.5 -0.397805 -1.5 0 
C -1.5 0.397805 -1.341951 0.77937 -1.06066 1.06066 
C -0.77937 1.341951 -0.397805 1.5 0 1.5 
z
" id="m707ba4df7d" style="stroke:#ff7500;"/>
    </defs>
    <g>
     <use style="fill:#ff7500;stroke:#ff7500;" x="256.267325" xlink:href="#m707ba4df7d" y="219.750391"/>
     <use style="fill:#ff7500;stroke:#ff7500;" x="256.267325" xlink:href="#m707ba4df7d" y="219.750391"/>
    </g>
   </g>
   <g id="line2d_45">
    <path d="M 147.71991 298.944 
L 147.809113 297.091518 
L 148.151743 297.091518 
L 148.248413 296.165277 
L 148.325365 296.165277 
L 148.382858 295.239036 
L 148.686322 295.239036 
L 148.686322 294.775915 
L 149.268764 294.775915 
L 149.341352 293.849674 
L 149.530471 293.849674 
L 149.530471 293.386554 
L 149.673197 293.386554 
L 149.673197 292.923433 
L 149.963932 292.923433 
L 150.068464 291.534072 
L 150.111834 291.534072 
L 150.111834 291.070951 
L 150.327083 291.070951 
L 150.327083 290.607831 
L 150.505862 290.607831 
L 150.505862 290.14471 
L 150.649257 290.14471 
L 150.649257 289.68159 
L 150.858013 289.68159 
L 150.907745 288.755349 
L 151.235715 288.755349 
L 151.235715 288.292228 
L 151.676833 288.292228 
L 151.771612 286.902867 
L 151.897188 286.902867 
L 151.897188 286.439746 
L 152.329717 286.439746 
L 152.329717 285.976625 
L 152.669675 285.976625 
L 152.669675 285.513505 
L 152.892686 285.513505 
L 152.936949 284.587264 
L 153.076375 284.587264 
L 153.076375 284.124143 
L 153.287059 284.124143 
L 153.366312 283.197902 
L 153.459513 283.197902 
L 153.459513 282.734782 
L 153.616112 282.734782 
L 153.722083 281.808541 
L 153.813407 281.808541 
L 153.911223 280.8823 
L 154.146519 280.8823 
L 154.146519 280.419179 
L 154.446381 280.419179 
L 154.459889 279.492938 
L 154.880133 279.492938 
L 154.880133 279.029818 
L 155.031067 279.029818 
L 155.031067 278.566697 
L 155.16126 278.566697 
L 155.238912 277.640456 
L 155.296925 277.640456 
L 155.296925 277.177336 
L 155.910223 277.177336 
L 155.953659 276.251095 
L 156.08947 276.251095 
L 156.138594 275.324854 
L 156.212023 275.324854 
L 156.212023 274.861733 
L 156.532685 274.861733 
L 156.538679 273.935492 
L 156.658127 273.935492 
L 156.658127 273.472371 
L 156.776762 273.472371 
L 156.776762 273.009251 
L 156.976607 273.009251 
L 156.976607 272.08301 
L 157.11051 272.08301 
L 157.11051 271.619889 
L 157.295115 271.619889 
L 157.38669 270.693648 
L 157.415209 270.693648 
L 157.415209 269.767407 
L 157.697862 269.767407 
L 157.697862 269.304287 
L 158.0201 269.304287 
L 158.113432 268.378046 
L 159.32939 268.378046 
L 159.32939 267.451805 
L 159.476858 267.451805 
L 159.527421 266.525564 
L 159.837683 266.525564 
L 159.837683 266.062443 
L 159.971091 266.062443 
L 159.971091 265.599323 
L 160.470846 265.599323 
L 160.470846 265.136202 
L 160.731954 265.136202 
L 160.731954 264.673082 
L 160.863394 264.673082 
L 160.863394 264.209961 
L 161.100288 264.209961 
L 161.173949 263.28372 
L 161.61398 263.28372 
L 161.61398 262.8206 
L 161.840959 262.8206 
L 161.840959 262.357479 
L 162.500433 262.357479 
L 162.568423 260.968117 
L 163.103002 260.968117 
L 163.213702 259.578756 
L 163.851722 259.578756 
L 163.906798 257.726274 
L 164.474827 257.726274 
L 164.474827 256.800033 
L 164.630012 256.800033 
L 164.630012 256.336912 
L 165.324425 256.336912 
L 165.375047 254.947551 
L 166.333896 254.947551 
L 166.419124 254.02131 
L 167.417059 254.02131 
L 167.481174 253.095069 
L 168.050941 253.095069 
L 168.050941 252.631948 
L 168.96202 252.631948 
L 169.061673 251.705707 
L 169.380234 251.705707 
L 169.380234 251.242587 
L 169.827856 251.242587 
L 169.827856 250.316346 
L 171.690981 250.316346 
L 171.690981 249.853225 
L 172.242691 249.853225 
L 172.242691 248.926984 
L 173.362717 248.926984 
L 173.462916 247.537622 
L 174.207491 247.537622 
L 174.207491 247.074502 
L 174.814731 247.074502 
L 174.814731 246.611381 
L 176.228874 246.611381 
L 176.228874 246.148261 
L 176.727419 246.148261 
L 176.727419 245.68514 
L 178.397946 245.68514 
L 178.397946 245.22202 
L 179.004957 245.22202 
L 179.004957 244.295779 
L 181.263273 244.295779 
L 181.263273 243.832658 
L 181.734498 243.832658 
L 181.734498 242.906417 
L 182.060685 242.906417 
L 182.060685 242.443297 
L 182.821896 242.443297 
L 182.821896 241.980176 
L 183.899206 241.980176 
L 183.899206 241.517056 
L 184.937356 241.517056 
L 184.937356 241.053935 
L 185.060404 241.053935 
L 185.060404 240.590815 
L 185.189545 240.590815 
L 185.189545 239.664574 
L 187.062738 239.664574 
L 187.062738 239.201453 
L 187.768688 239.201453 
L 187.768688 238.738333 
L 192.855003 238.738333 
L 192.855003 238.275212 
L 193.224494 238.275212 
L 193.224494 237.812091 
L 195.399505 237.812091 
L 195.399505 236.88585 
L 198.995435 236.88585 
L 198.995435 235.959609 
L 200.344193 235.959609 
L 200.396614 234.107127 
L 205.692201 234.107127 
L 205.692201 233.180886 
L 208.956809 233.180886 
L 208.956809 232.254645 
L 210.733836 232.254645 
L 210.733836 231.328404 
L 212.779669 231.328404 
L 212.779669 230.402163 
L 215.09704 230.402163 
L 215.09704 229.475922 
L 215.325842 229.475922 
L 215.325842 228.549681 
L 218.479127 228.549681 
L 218.479127 228.086561 
L 221.617624 228.086561 
L 221.617624 227.16032 
L 228.162528 227.16032 
L 228.162528 226.234079 
L 228.710543 226.234079 
L 228.710543 225.307837 
L 234.880451 225.307837 
L 234.880451 224.381596 
L 239.780979 224.381596 
L 239.780979 223.918476 
L 241.373827 223.918476 
L 241.373827 222.992235 
L 241.998105 222.992235 
L 241.998105 222.529114 
L 243.198867 222.529114 
L 243.198867 221.602873 
L 250.624165 221.602873 
L 250.624165 221.139753 
L 251.635225 221.139753 
L 251.635225 220.676632 
L 252.227921 220.676632 
L 252.227921 220.213512 
L 256.267325 220.213512 
L 256.267325 219.750391 
L 338.688 219.750391 
L 338.688 219.750391 
" style="fill:none;stroke:#ff7500;stroke-linecap:square;stroke-width:1.5;"/>
   </g>
   <g id="line2d_46">
    <defs>
     <path d="M 0 -6 
L -1.347084 -1.854102 
L -5.706339 -1.854102 
L -2.179628 0.708204 
L -3.526712 4.854102 
L -0 2.291796 
L 3.526712 4.854102 
L 2.179628 0.708204 
L 5.706339 -1.854102 
L 1.347084 -1.854102 
z
" id="m0383287b4d" style="stroke:#ff7500;stroke-linejoin:bevel;stroke-width:1.5;"/>
    </defs>
    <g>
     <use style="fill-opacity:0;stroke:#ff7500;stroke-linejoin:bevel;stroke-width:1.5;" x="187.768688" xlink:href="#m0383287b4d" y="238.738333"/>
     <use style="fill-opacity:0;stroke:#ff7500;stroke-linejoin:bevel;stroke-width:1.5;" x="243.198867" xlink:href="#m0383287b4d" y="222.529114"/>
     <use style="fill-opacity:0;stroke:#ff7500;stroke-linejoin:bevel;stroke-width:1.5;" x="256.267325" xlink:href="#m0383287b4d" y="219.750391"/>
     <use style="fill-opacity:0;stroke:#ff7500;stroke-linejoin:bevel;stroke-width:1.5;" x="256.267325" xlink:href="#m0383287b4d" y="219.750391"/>
     <use style="fill-opacity:0;stroke:#ff7500;stroke-linejoin:bevel;stroke-width:1.5;" x="338.688" xlink:href="#m0383287b4d" y="219.750391"/>
    </g>
   </g>
   <g id="line2d_47">
    <path style="fill:none;stroke:#ff7500;stroke-linecap:square;stroke-width:1.5;"/>
    <g/>
   </g>
   <g id="line2d_48">
    <path clip-path="url(#pbe191bd293)" d="M 258.377143 219.750391 
" style="fill:none;stroke:#ff7500;stroke-linecap:square;stroke-width:1.5;"/>
    <defs>
     <path d="M -12 12 
L 12 -12 
M -12 -12 
L 12 12 
" id="m93e3fa469e" style="stroke:#ff7500;"/>
    </defs>
    <g clip-path="url(#pbe191bd293)">
     <use style="fill:#ff7500;stroke:#ff7500;" x="258.377143" xlink:href="#m93e3fa469e" y="219.750391"/>
    </g>
   </g>
   <g id="line2d_49">
    <defs>
     <path d="M 0 1.5 
C 0.397805 1.5 0.77937 1.341951 1.06066 1.06066 
C 1.341951 0.77937 1.5 0.397805 1.5 0 
C 1.5 -0.397805 1.341951 -0.77937 1.06066 -1.06066 
C 0.77937 -1.341951 0.397805 -1.5 0 -1.5 
C -0.397805 -1.5 -0.77937 -1.341951 -1.06066 -1.06066 
C -1.341951 -0.77937 -1.5 -0.397805 -1.5 0 
C -1.5 0.397805 -1.341951 0.77937 -1.06066 1.06066 
C -0.77937 1.341951 -0.397805 1.5 0 1.5 
z
" id="m7696ce9be8" style="stroke:#6495ed;"/>
    </defs>
    <g>
     <use style="fill:#6495ed;stroke:#6495ed;" x="258.214938" xlink:href="#m7696ce9be8" y="241.517056"/>
     <use style="fill:#6495ed;stroke:#6495ed;" x="258.214938" xlink:href="#m7696ce9be8" y="241.517056"/>
    </g>
   </g>
   <g id="line2d_50">
    <path d="M 17.444571 298.944 
L 17.444571 296.165277 
L 132.060454 296.165277 
L 132.060454 295.702156 
L 133.124876 295.702156 
L 133.124876 295.239036 
L 133.398082 295.239036 
L 133.398082 294.775915 
L 134.149701 294.775915 
L 134.149701 294.312795 
L 134.450015 294.312795 
L 134.450015 293.849674 
L 134.870259 293.849674 
L 134.973757 292.460313 
L 135.076644 292.460313 
L 135.076644 291.997192 
L 136.189322 291.997192 
L 136.189322 291.534072 
L 136.399782 291.534072 
L 136.399782 290.607831 
L 136.738785 290.607831 
L 136.738785 290.14471 
L 138.032507 290.14471 
L 138.049816 289.218469 
L 138.170504 289.218469 
L 138.187677 288.292228 
L 138.409402 288.292228 
L 138.443265 286.902867 
L 139.236847 286.902867 
L 139.236847 286.439746 
L 139.746525 286.439746 
L 139.746525 285.976625 
L 141.148448 285.976625 
L 141.249546 285.050384 
L 141.278324 285.050384 
L 141.321401 283.661023 
L 141.478449 283.661023 
L 141.563518 282.734782 
L 142.07914 282.734782 
L 142.07914 282.271661 
L 142.646541 282.271661 
L 142.646541 281.808541 
L 142.844792 281.808541 
L 142.844792 281.34542 
L 144.099593 281.34542 
L 144.124035 280.419179 
L 145.109299 280.419179 
L 145.109299 279.956059 
L 145.338615 279.956059 
L 145.406826 279.029818 
L 145.463466 279.029818 
L 145.463466 278.566697 
L 145.710517 278.566697 
L 145.710517 278.103577 
L 147.650212 278.103577 
L 147.660186 277.177336 
L 148.929057 277.177336 
L 148.929057 276.714215 
L 149.18674 276.714215 
L 149.18674 276.251095 
L 149.314167 276.251095 
L 149.314167 275.787974 
L 150.275665 275.787974 
L 150.369816 274.861733 
L 151.61336 274.861733 
L 151.61336 274.398612 
L 154.132765 274.398612 
L 154.132765 273.935492 
L 155.180705 273.935492 
L 155.193657 273.009251 
L 156.859328 273.009251 
L 156.859328 272.54613 
L 157.792929 272.54613 
L 157.792929 271.619889 
L 159.822797 271.619889 
L 159.822797 271.156769 
L 165.472262 271.156769 
L 165.472262 270.693648 
L 166.544502 270.693648 
L 166.648858 269.304287 
L 168.254155 269.304287 
L 168.254155 268.841166 
L 169.270843 268.841166 
L 169.270843 268.378046 
L 171.564846 268.378046 
L 171.564846 267.914925 
L 173.469727 267.914925 
L 173.469727 267.451805 
L 173.766803 267.451805 
L 173.766803 266.988684 
L 178.213893 266.988684 
L 178.213893 266.525564 
L 178.688113 266.525564 
L 178.688113 266.062443 
L 180.172963 266.062443 
L 180.172963 265.136202 
L 186.037927 265.136202 
L 186.037927 264.673082 
L 186.733794 264.673082 
L 186.733794 264.209961 
L 188.399021 264.209961 
L 188.399021 263.28372 
L 188.530631 263.28372 
L 188.530631 262.8206 
L 189.153882 262.8206 
L 189.153882 262.357479 
L 189.402357 262.357479 
L 189.402357 261.894358 
L 191.277055 261.894358 
L 191.277055 260.968117 
L 195.365261 260.968117 
L 195.365261 260.504997 
L 199.351022 260.504997 
L 199.351022 259.578756 
L 201.66517 259.578756 
L 201.66517 259.115635 
L 204.699313 259.115635 
L 204.699313 258.189394 
L 206.789513 258.189394 
L 206.789513 257.726274 
L 206.914694 257.726274 
L 206.914694 257.263153 
L 207.104756 257.263153 
L 207.104756 256.800033 
L 207.617073 256.800033 
L 207.617073 256.336912 
L 208.985857 256.336912 
L 208.985857 255.410671 
L 210.247546 255.410671 
L 210.247546 254.947551 
L 210.7491 254.947551 
L 210.7491 254.48443 
L 210.982028 254.48443 
L 210.982028 253.558189 
L 211.112548 253.558189 
L 211.112548 253.095069 
L 212.826544 253.095069 
L 212.826544 252.631948 
L 215.109343 252.631948 
L 215.109343 252.168828 
L 215.436263 252.168828 
L 215.436263 251.705707 
L 218.231652 251.705707 
L 218.231652 251.242587 
L 224.963887 251.242587 
L 224.963887 250.779466 
L 225.244652 250.779466 
L 225.244652 250.316346 
L 228.061346 250.316346 
L 228.061346 249.853225 
L 228.307195 249.853225 
L 228.307195 248.926984 
L 228.663842 248.926984 
L 228.663842 248.463863 
L 228.776172 248.463863 
L 228.776172 248.000743 
L 229.87104 248.000743 
L 229.87104 247.537622 
L 231.051189 247.537622 
L 231.051189 247.074502 
L 233.638884 247.074502 
L 233.638884 246.611381 
L 245.994005 246.611381 
L 245.994005 246.148261 
L 246.119802 246.148261 
L 246.119802 245.68514 
L 249.4907 245.68514 
L 249.4907 245.22202 
L 251.371407 245.22202 
L 251.371407 244.295779 
L 255.854146 244.295779 
L 255.854146 243.369538 
L 257.128824 243.369538 
L 257.128824 242.443297 
L 258.214938 242.443297 
L 258.214938 241.517056 
L 338.688 241.517056 
L 338.688 241.517056 
" style="fill:none;stroke:#6495ed;stroke-linecap:square;stroke-width:1.5;"/>
   </g>
   <g id="line2d_51">
    <defs>
     <path d="M -0 6 
L 6 -6 
L -6 -6 
z
" id="m327cd4810a" style="stroke:#6495ed;stroke-linejoin:miter;stroke-width:1.5;"/>
    </defs>
    <g>
     <use style="fill-opacity:0;stroke:#6495ed;stroke-linejoin:miter;stroke-width:1.5;" x="173.766803" xlink:href="#m327cd4810a" y="267.451805"/>
     <use style="fill-opacity:0;stroke:#6495ed;stroke-linejoin:miter;stroke-width:1.5;" x="251.371407" xlink:href="#m327cd4810a" y="244.295779"/>
     <use style="fill-opacity:0;stroke:#6495ed;stroke-linejoin:miter;stroke-width:1.5;" x="258.214938" xlink:href="#m327cd4810a" y="241.517056"/>
     <use style="fill-opacity:0;stroke:#6495ed;stroke-linejoin:miter;stroke-width:1.5;" x="258.214938" xlink:href="#m327cd4810a" y="241.517056"/>
     <use style="fill-opacity:0;stroke:#6495ed;stroke-linejoin:miter;stroke-width:1.5;" x="338.688" xlink:href="#m327cd4810a" y="241.517056"/>
    </g>
   </g>
   <g id="line2d_52">
    <path style="fill:none;stroke:#6495ed;stroke-linecap:square;stroke-width:1.5;"/>
    <g/>
   </g>
   <g id="line2d_53">
    <path clip-path="url(#pbe191bd293)" d="M 258.378207 241.517056 
" style="fill:none;stroke:#6495ed;stroke-linecap:square;stroke-width:1.5;"/>
    <defs>
     <path d="M -12 12 
L 12 -12 
M -12 -12 
L 12 12 
" id="m427dffe5d1" style="stroke:#6495ed;"/>
    </defs>
    <g clip-path="url(#pbe191bd293)">
     <use style="fill:#6495ed;stroke:#6495ed;" x="258.378207" xlink:href="#m427dffe5d1" y="241.517056"/>
    </g>
   </g>
   <g id="line2d_54">
    <defs>
     <path d="M 0 1.5 
C 0.397805 1.5 0.77937 1.341951 1.06066 1.06066 
C 1.341951 0.77937 1.5 0.397805 1.5 0 
C 1.5 -0.397805 1.341951 -0.77937 1.06066 -1.06066 
C 0.77937 -1.341951 0.397805 -1.5 0 -1.5 
C -0.397805 -1.5 -0.77937 -1.341951 -1.06066 -1.06066 
C -1.341951 -0.77937 -1.5 -0.397805 -1.5 0 
C -1.5 0.397805 -1.341951 0.77937 -1.06066 1.06066 
C -0.77937 1.341951 -0.397805 1.5 0 1.5 
z
" id="m34ca7d718c" style="stroke:#ff0000;"/>
    </defs>
    <g>
     <use style="fill:#ff0000;stroke:#ff0000;" x="301.178916" xlink:href="#m34ca7d718c" y="161.397206"/>
     <use style="fill:#ff0000;stroke:#ff0000;" x="301.178916" xlink:href="#m34ca7d718c" y="161.397206"/>
    </g>
   </g>
   <g id="line2d_55">
    <path d="M 17.444571 298.944 
L 17.444571 294.312795 
L 29.53256 294.312795 
L 29.53256 292.923433 
L 36.60358 292.923433 
L 36.60358 292.460313 
L 41.620548 292.460313 
L 41.620548 291.997192 
L 48.691568 291.997192 
L 48.691568 291.534072 
L 53.708537 291.534072 
L 53.708537 291.070951 
L 60.779557 291.070951 
L 60.779557 290.607831 
L 62.175444 290.607831 
L 62.175444 288.755349 
L 63.467834 288.755349 
L 63.467834 286.902867 
L 64.67102 286.902867 
L 64.67102 285.976625 
L 66.853775 285.976625 
L 66.853775 285.513505 
L 67.850577 285.513505 
L 67.850577 285.050384 
L 68.79347 285.050384 
L 68.79347 284.124143 
L 69.687988 284.124143 
L 69.687988 283.661023 
L 70.538854 283.661023 
L 70.538854 283.197902 
L 75.555822 283.197902 
L 75.555822 282.734782 
L 76.759008 282.734782 
L 76.759008 282.271661 
L 79.938565 282.271661 
L 79.938565 281.808541 
L 80.881459 281.808541 
L 80.881459 281.34542 
L 83.037197 281.34542 
L 83.037197 280.8823 
L 85.66744 280.8823 
L 85.66744 279.956059 
L 87.952479 279.956059 
L 87.952479 279.029818 
L 92.026554 279.029818 
L 92.026554 278.103577 
L 92.504372 278.103577 
L 92.504372 277.640456 
L 92.73846 277.640456 
L 92.73846 277.177336 
L 94.294587 277.177336 
L 94.294587 276.714215 
L 96.489848 276.714215 
L 96.489848 276.251095 
L 97.403108 276.251095 
L 97.403108 275.787974 
L 97.755429 275.787974 
L 97.755429 275.324854 
L 103.498249 275.324854 
L 103.498249 274.861733 
L 105.732589 274.861733 
L 105.732589 274.398612 
L 109.222105 274.398612 
L 109.222105 273.935492 
L 109.843417 273.935492 
L 109.843417 273.472371 
L 123.514096 273.472371 
L 123.514096 273.009251 
L 123.985457 273.009251 
L 123.985457 272.08301 
L 125.110962 272.08301 
L 125.110962 271.619889 
L 126.372183 271.619889 
L 126.372183 271.156769 
L 129.002426 271.156769 
L 129.002426 270.693648 
L 132.398622 270.693648 
L 132.398622 270.230528 
L 134.47127 270.230528 
L 134.47127 269.767407 
L 135.760625 269.767407 
L 135.760625 268.841166 
L 136.227776 268.841166 
L 136.227776 268.378046 
L 136.86886 268.378046 
L 136.86886 267.914925 
L 147.419225 267.914925 
L 147.419225 267.451805 
L 147.927346 267.451805 
L 147.927346 266.525564 
L 167.973343 266.525564 
L 167.973343 266.062443 
L 179.264123 266.062443 
L 179.309652 264.209961 
L 179.439084 264.209961 
L 179.439084 263.746841 
L 179.561161 263.746841 
L 179.605922 262.357479 
L 179.687158 262.357479 
L 179.780666 261.431238 
L 179.856373 261.431238 
L 179.922347 260.504997 
L 180.172963 260.504997 
L 180.172963 260.041876 
L 181.568375 260.041876 
L 181.568375 259.115635 
L 181.985629 259.115635 
L 181.985629 258.652515 
L 182.22358 258.652515 
L 182.22358 258.189394 
L 183.012044 258.189394 
L 183.012044 257.726274 
L 183.572899 257.726274 
L 183.572899 256.800033 
L 186.971927 256.800033 
L 186.971927 256.336912 
L 187.893215 256.336912 
L 187.916032 254.947551 
L 188.932705 254.947551 
L 188.932705 254.02131 
L 189.371377 254.02131 
L 189.371377 253.558189 
L 191.206599 253.558189 
L 191.206599 253.095069 
L 191.391956 253.095069 
L 191.391956 252.168828 
L 191.901817 252.168828 
L 191.901817 251.242587 
L 192.25013 251.242587 
L 192.348823 249.853225 
L 198.196435 249.853225 
L 198.196435 249.390104 
L 199.012233 249.390104 
L 199.012233 248.926984 
L 200.885968 248.926984 
L 200.885968 248.463863 
L 201.965408 248.463863 
L 201.965408 248.000743 
L 203.292946 248.000743 
L 203.292946 247.537622 
L 203.452714 247.537622 
L 203.452714 247.074502 
L 203.953086 247.074502 
L 203.973232 245.68514 
L 204.09362 245.68514 
L 204.09362 244.758899 
L 204.377508 244.758899 
L 204.377508 244.295779 
L 204.588004 244.295779 
L 204.588004 243.832658 
L 205.099132 243.832658 
L 205.15087 242.443297 
L 205.56222 242.443297 
L 205.56222 241.517056 
L 208.335039 241.517056 
L 208.335039 240.590815 
L 211.739 240.590815 
L 211.833082 239.201453 
L 212.344461 239.201453 
L 212.344461 238.275212 
L 213.203118 238.275212 
L 213.203118 237.812091 
L 213.858293 237.812091 
L 213.858293 236.88585 
L 216.967568 236.88585 
L 216.967568 236.42273 
L 220.896284 236.42273 
L 220.951547 235.496489 
L 221.137405 235.496489 
L 221.137405 234.570248 
L 221.501838 234.570248 
L 221.501838 234.107127 
L 221.634409 234.107127 
L 221.635843 232.717766 
L 221.902499 232.717766 
L 221.902499 232.254645 
L 222.535222 232.254645 
L 222.535222 231.328404 
L 223.277442 231.328404 
L 223.286966 229.475922 
L 226.034081 229.475922 
L 226.034081 229.012802 
L 228.676966 229.012802 
L 228.676966 228.549681 
L 229.284174 228.549681 
L 229.284174 228.086561 
L 229.776718 228.086561 
L 229.776718 227.16032 
L 230.882828 227.16032 
L 230.882828 226.697199 
L 231.030703 226.697199 
L 231.030703 225.770958 
L 231.476659 225.770958 
L 231.476659 225.307837 
L 231.849819 225.307837 
L 231.849819 224.844717 
L 232.136656 224.844717 
L 232.136656 223.918476 
L 232.292301 223.918476 
L 232.292301 222.992235 
L 232.670453 222.992235 
L 232.670453 222.529114 
L 233.568139 222.529114 
L 233.668037 220.676632 
L 234.009964 220.676632 
L 234.009964 219.750391 
L 235.930588 219.750391 
L 236.029486 218.36103 
L 237.700573 218.36103 
L 237.700573 217.434789 
L 240.308066 217.434789 
L 240.308066 216.971668 
L 241.931197 216.971668 
L 241.931197 216.045427 
L 242.09415 216.045427 
L 242.09415 215.582307 
L 242.487837 215.582307 
L 242.487837 214.656066 
L 242.952623 214.656066 
L 242.952623 214.192945 
L 243.285141 214.192945 
L 243.290858 212.340463 
L 243.462408 212.340463 
L 243.462408 211.877342 
L 243.841712 211.877342 
L 243.841712 211.414222 
L 245.223667 211.414222 
L 245.282814 209.56174 
L 246.040343 209.56174 
L 246.040343 209.098619 
L 247.834346 209.098619 
L 247.834346 208.635499 
L 249.898057 208.635499 
L 249.898057 208.172378 
L 250.27573 208.172378 
L 250.27573 207.246137 
L 251.448455 207.246137 
L 251.448455 206.783017 
L 252.819828 206.783017 
L 252.819828 205.856776 
L 254.008413 205.856776 
L 254.008413 205.393655 
L 255.433148 205.393655 
L 255.433148 204.467414 
L 257.520839 204.467414 
L 257.520839 203.541173 
L 258.97809 203.541173 
L 258.97809 203.078053 
L 259.090009 203.078053 
L 259.183423 201.688691 
L 261.053642 201.688691 
L 261.143562 200.299329 
L 261.828284 200.299329 
L 261.828284 199.836209 
L 262.336834 199.836209 
L 262.336834 198.909968 
L 263.584767 198.909968 
L 263.584767 197.983727 
L 263.828769 197.983727 
L 263.828769 197.520606 
L 266.153661 197.520606 
L 266.153661 197.057486 
L 267.797638 197.057486 
L 267.797638 196.594365 
L 269.317448 196.594365 
L 269.317448 196.131245 
L 269.439816 196.131245 
L 269.439816 195.205004 
L 270.86724 195.205004 
L 270.86724 194.741883 
L 271.392751 194.741883 
L 271.392751 194.278763 
L 271.874619 194.278763 
L 271.893717 192.889401 
L 273.079939 192.889401 
L 273.079939 191.96316 
L 274.357229 191.96316 
L 274.357229 191.50004 
L 275.898358 191.50004 
L 275.898358 190.573799 
L 277.133064 190.573799 
L 277.133064 190.110678 
L 279.754191 190.110678 
L 279.754191 189.647558 
L 279.973534 189.647558 
L 279.973534 189.184437 
L 280.253229 189.184437 
L 280.253229 188.721316 
L 280.571208 188.721316 
L 280.669268 187.331955 
L 280.721254 187.331955 
L 280.721254 186.868834 
L 281.368341 186.868834 
L 281.368341 186.405714 
L 281.496899 186.405714 
L 281.496899 185.479473 
L 282.737974 185.479473 
L 282.772537 184.553232 
L 282.988811 184.553232 
L 282.988811 183.626991 
L 284.0507 183.626991 
L 284.127328 182.70075 
L 284.247324 182.70075 
L 284.247324 182.237629 
L 284.757937 182.237629 
L 284.757937 181.311388 
L 286.495605 181.311388 
L 286.495605 180.385147 
L 287.952182 180.385147 
L 287.994732 179.458906 
L 290.927973 179.458906 
L 290.927973 178.995786 
L 291.046145 178.995786 
L 291.076308 177.606424 
L 291.291897 177.606424 
L 291.291897 177.143304 
L 292.279061 177.143304 
L 292.297562 176.217062 
L 292.424836 176.217062 
L 292.424836 175.290821 
L 292.559691 175.290821 
L 292.559691 174.827701 
L 292.798941 174.827701 
L 292.798941 173.90146 
L 293.050175 173.90146 
L 293.154924 172.512098 
L 293.405336 172.512098 
L 293.409398 171.585857 
L 293.615314 171.585857 
L 293.615314 171.122737 
L 293.787884 171.122737 
L 293.787884 170.659616 
L 293.950545 170.659616 
L 293.959508 169.733375 
L 294.470446 169.733375 
L 294.483427 168.807134 
L 295.617495 168.807134 
L 295.617495 168.344014 
L 295.866361 168.344014 
L 295.866361 167.417773 
L 296.236838 167.417773 
L 296.236838 166.491532 
L 296.43497 166.491532 
L 296.43497 166.028411 
L 297.245899 166.028411 
L 297.245899 165.565291 
L 297.69725 165.565291 
L 297.749907 163.712808 
L 298.641288 163.712808 
L 298.641288 162.786567 
L 298.79402 162.786567 
L 298.79402 162.323447 
L 299.969811 162.323447 
L 299.969811 161.860326 
L 301.178916 161.860326 
L 301.178916 161.397206 
L 338.688 161.397206 
L 338.688 161.397206 
" style="fill:none;stroke:#ff0000;stroke-linecap:square;stroke-width:1.5;"/>
   </g>
   <g id="line2d_56">
    <defs>
     <path d="M 0 -6 
L -5.196152 -3 
L -5.196152 3 
L -0 6 
L 5.196152 3 
L 5.196152 -3 
z
" id="m63017baa53" style="stroke:#ff0000;stroke-linejoin:miter;stroke-width:1.5;"/>
    </defs>
    <g>
     <use style="fill-opacity:0;stroke:#ff0000;stroke-linejoin:miter;stroke-width:1.5;" x="92.73846" xlink:href="#m63017baa53" y="277.640456"/>
     <use style="fill-opacity:0;stroke:#ff0000;stroke-linejoin:miter;stroke-width:1.5;" x="167.973343" xlink:href="#m63017baa53" y="266.062443"/>
     <use style="fill-opacity:0;stroke:#ff0000;stroke-linejoin:miter;stroke-width:1.5;" x="231.476659" xlink:href="#m63017baa53" y="225.307837"/>
     <use style="fill-opacity:0;stroke:#ff0000;stroke-linejoin:miter;stroke-width:1.5;" x="293.950545" xlink:href="#m63017baa53" y="170.196496"/>
     <use style="fill-opacity:0;stroke:#ff0000;stroke-linejoin:miter;stroke-width:1.5;" x="301.178916" xlink:href="#m63017baa53" y="161.397206"/>
     <use style="fill-opacity:0;stroke:#ff0000;stroke-linejoin:miter;stroke-width:1.5;" x="338.688" xlink:href="#m63017baa53" y="161.397206"/>
    </g>
   </g>
   <g id="line2d_57">
    <path style="fill:none;stroke:#ff0000;stroke-linecap:square;stroke-width:1.5;"/>
    <g/>
   </g>
   <g id="line2d_58">
    <path clip-path="url(#pbe191bd293)" d="M 301.364982 161.397206 
" style="fill:none;stroke:#ff0000;stroke-linecap:square;stroke-width:1.5;"/>
    <defs>
     <path d="M -12 12 
L 12 -12 
M -12 -12 
L 12 12 
" id="m97a0134e6a" style="stroke:#ff0000;"/>
    </defs>
    <g clip-path="url(#pbe191bd293)">
     <use style="fill:#ff0000;stroke:#ff0000;" x="301.364982" xlink:href="#m97a0134e6a" y="161.397206"/>
    </g>
   </g>
   <g id="line2d_59">
    <path d="M 338.688 272.54613 
L 369.60768 293.571802 
" style="fill:none;stroke:#000080;stroke-linecap:square;stroke-width:1.5;"/>
    <g>
     <use style="fill-opacity:0;stroke:#000080;stroke-width:1.5;" x="338.688" xlink:href="#m338742777b" y="272.54613"/>
     <use style="fill-opacity:0;stroke:#000080;stroke-width:1.5;" x="369.60768" xlink:href="#m338742777b" y="293.571802"/>
    </g>
   </g>
   <g id="line2d_60">
    <path d="M 338.688 241.517056 
L 369.60768 241.998701 
" style="fill:none;stroke:#6495ed;stroke-linecap:square;stroke-width:1.5;"/>
    <g>
     <use style="fill-opacity:0;stroke:#6495ed;stroke-linejoin:miter;stroke-width:1.5;" x="338.688" xlink:href="#m327cd4810a" y="241.517056"/>
     <use style="fill-opacity:0;stroke:#6495ed;stroke-linejoin:miter;stroke-width:1.5;" x="369.60768" xlink:href="#m327cd4810a" y="241.998701"/>
    </g>
   </g>
   <g id="line2d_61">
    <path d="M 338.688 236.88585 
L 369.60768 190.4256 
" style="fill:none;stroke:#ff00ff;stroke-linecap:square;stroke-width:1.5;"/>
    <g>
     <use style="fill-opacity:0;stroke:#ff00ff;stroke-linejoin:miter;stroke-width:1.5;" x="338.688" xlink:href="#mb01c4c8704" y="236.88585"/>
     <use style="fill-opacity:0;stroke:#ff00ff;stroke-linejoin:miter;stroke-width:1.5;" x="369.60768" xlink:href="#mb01c4c8704" y="190.4256"/>
    </g>
   </g>
   <g id="line2d_62">
    <path d="M 338.688 219.750391 
L 369.60768 138.852499 
" style="fill:none;stroke:#ff7500;stroke-linecap:square;stroke-width:1.5;"/>
    <g>
     <use style="fill-opacity:0;stroke:#ff7500;stroke-linejoin:bevel;stroke-width:1.5;" x="338.688" xlink:href="#m0383287b4d" y="219.750391"/>
     <use style="fill-opacity:0;stroke:#ff7500;stroke-linejoin:bevel;stroke-width:1.5;" x="369.60768" xlink:href="#m0383287b4d" y="138.852499"/>
    </g>
   </g>
   <g id="line2d_63">
    <path d="M 338.688 161.397206 
L 369.60768 87.279398 
" style="fill:none;stroke:#ff0000;stroke-linecap:square;stroke-width:1.5;"/>
    <g>
     <use style="fill-opacity:0;stroke:#ff0000;stroke-linejoin:miter;stroke-width:1.5;" x="338.688" xlink:href="#m63017baa53" y="161.397206"/>
     <use style="fill-opacity:0;stroke:#ff0000;stroke-linejoin:miter;stroke-width:1.5;" x="369.60768" xlink:href="#m63017baa53" y="87.279398"/>
    </g>
   </g>
   <g id="line2d_64">
    <path d="M 338.688 298.944 
L 338.688 30.334099 
" style="fill:none;stroke:#000000;stroke-linecap:square;stroke-width:1.5;"/>
   </g>
   <g id="patch_3">
    <path d="M 57.6 298.944 
L 57.6 27.648 
" style="fill:none;stroke:#000000;stroke-linecap:square;stroke-linejoin:miter;stroke-width:0.8;"/>
   </g>
   <g id="patch_4">
    <path d="M 338.688 298.944 
L 338.688 27.648 
" style="fill:none;stroke:#000000;stroke-linecap:square;stroke-linejoin:miter;stroke-width:0.8;"/>
   </g>
   <g id="patch_5">
    <path d="M 57.6 298.944 
L 338.688 298.944 
" style="fill:none;stroke:#000000;stroke-linecap:square;stroke-linejoin:miter;stroke-width:0.8;"/>
   </g>
   <g id="patch_6">
    <path d="M 57.6 27.648 
L 338.688 27.648 
" style="fill:none;stroke:#000000;stroke-linecap:square;stroke-linejoin:miter;stroke-width:0.8;"/>
   </g>
   <g id="text_13">
    <!-- MOLE -->
    <g transform="translate(375.22944 298.262739)scale(0.17 -0.17)">
     <defs>
      <path d="M 9.8125 72.90625 
L 24.515625 72.90625 
L 43.109375 23.296875 
L 61.8125 72.90625 
L 76.515625 72.90625 
L 76.515625 0 
L 66.890625 0 
L 66.890625 64.015625 
L 48.09375 14.015625 
L 38.1875 14.015625 
L 19.390625 64.015625 
L 19.390625 0 
L 9.8125 0 
z
" id="DejaVuSans-77"/>
      <path d="M 39.40625 66.21875 
Q 28.65625 66.21875 22.328125 58.203125 
Q 16.015625 50.203125 16.015625 36.375 
Q 16.015625 22.609375 22.328125 14.59375 
Q 28.65625 6.59375 39.40625 6.59375 
Q 50.140625 6.59375 56.421875 14.59375 
Q 62.703125 22.609375 62.703125 36.375 
Q 62.703125 50.203125 56.421875 58.203125 
Q 50.140625 66.21875 39.40625 66.21875 
z
M 39.40625 74.21875 
Q 54.734375 74.21875 63.90625 63.9375 
Q 73.09375 53.65625 73.09375 36.375 
Q 73.09375 19.140625 63.90625 8.859375 
Q 54.734375 -1.421875 39.40625 -1.421875 
Q 24.03125 -1.421875 14.8125 8.828125 
Q 5.609375 19.09375 5.609375 36.375 
Q 5.609375 53.65625 14.8125 63.9375 
Q 24.03125 74.21875 39.40625 74.21875 
z
" id="DejaVuSans-79"/>
      <path d="M 9.8125 72.90625 
L 19.671875 72.90625 
L 19.671875 8.296875 
L 55.171875 8.296875 
L 55.171875 0 
L 9.8125 0 
z
" id="DejaVuSans-76"/>
      <path d="M 9.8125 72.90625 
L 55.90625 72.90625 
L 55.90625 64.59375 
L 19.671875 64.59375 
L 19.671875 43.015625 
L 54.390625 43.015625 
L 54.390625 34.71875 
L 19.671875 34.71875 
L 19.671875 8.296875 
L 56.78125 8.296875 
L 56.78125 0 
L 9.8125 0 
z
" id="DejaVuSans-69"/>
     </defs>
     <use xlink:href="#DejaVuSans-77"/>
     <use x="86.279297" xlink:href="#DejaVuSans-79"/>
     <use x="164.990234" xlink:href="#DejaVuSans-76"/>
     <use x="220.703125" xlink:href="#DejaVuSans-69"/>
    </g>
   </g>
   <g id="text_14">
    <!-- NSGA-II-M -->
    <g transform="translate(375.22944 246.689638)scale(0.17 -0.17)">
     <defs>
      <path d="M 9.8125 72.90625 
L 23.09375 72.90625 
L 55.421875 11.921875 
L 55.421875 72.90625 
L 64.984375 72.90625 
L 64.984375 0 
L 51.703125 0 
L 19.390625 60.984375 
L 19.390625 0 
L 9.8125 0 
z
" id="DejaVuSans-78"/>
      <path d="M 53.515625 70.515625 
L 53.515625 60.890625 
Q 47.90625 63.578125 42.921875 64.890625 
Q 37.9375 66.21875 33.296875 66.21875 
Q 25.25 66.21875 20.875 63.09375 
Q 16.5 59.96875 16.5 54.203125 
Q 16.5 49.359375 19.40625 46.890625 
Q 22.3125 44.4375 30.421875 42.921875 
L 36.375 41.703125 
Q 47.40625 39.59375 52.65625 34.296875 
Q 57.90625 29 57.90625 20.125 
Q 57.90625 9.515625 50.796875 4.046875 
Q 43.703125 -1.421875 29.984375 -1.421875 
Q 24.8125 -1.421875 18.96875 -0.25 
Q 13.140625 0.921875 6.890625 3.21875 
L 6.890625 13.375 
Q 12.890625 10.015625 18.65625 8.296875 
Q 24.421875 6.59375 29.984375 6.59375 
Q 38.421875 6.59375 43.015625 9.90625 
Q 47.609375 13.234375 47.609375 19.390625 
Q 47.609375 24.75 44.3125 27.78125 
Q 41.015625 30.8125 33.5 32.328125 
L 27.484375 33.5 
Q 16.453125 35.6875 11.515625 40.375 
Q 6.59375 45.0625 6.59375 53.421875 
Q 6.59375 63.09375 13.40625 68.65625 
Q 20.21875 74.21875 32.171875 74.21875 
Q 37.3125 74.21875 42.625 73.28125 
Q 47.953125 72.359375 53.515625 70.515625 
z
" id="DejaVuSans-83"/>
      <path d="M 59.515625 10.40625 
L 59.515625 29.984375 
L 43.40625 29.984375 
L 43.40625 38.09375 
L 69.28125 38.09375 
L 69.28125 6.78125 
Q 63.578125 2.734375 56.6875 0.65625 
Q 49.8125 -1.421875 42 -1.421875 
Q 24.90625 -1.421875 15.25 8.5625 
Q 5.609375 18.5625 5.609375 36.375 
Q 5.609375 54.25 15.25 64.234375 
Q 24.90625 74.21875 42 74.21875 
Q 49.125 74.21875 55.546875 72.453125 
Q 61.96875 70.703125 67.390625 67.28125 
L 67.390625 56.78125 
Q 61.921875 61.421875 55.765625 63.765625 
Q 49.609375 66.109375 42.828125 66.109375 
Q 29.4375 66.109375 22.71875 58.640625 
Q 16.015625 51.171875 16.015625 36.375 
Q 16.015625 21.625 22.71875 14.15625 
Q 29.4375 6.6875 42.828125 6.6875 
Q 48.046875 6.6875 52.140625 7.59375 
Q 56.25 8.5 59.515625 10.40625 
z
" id="DejaVuSans-71"/>
      <path d="M 34.1875 63.1875 
L 20.796875 26.90625 
L 47.609375 26.90625 
z
M 28.609375 72.90625 
L 39.796875 72.90625 
L 67.578125 0 
L 57.328125 0 
L 50.6875 18.703125 
L 17.828125 18.703125 
L 11.1875 0 
L 0.78125 0 
z
" id="DejaVuSans-65"/>
      <path d="M 9.8125 72.90625 
L 19.671875 72.90625 
L 19.671875 0 
L 9.8125 0 
z
" id="DejaVuSans-73"/>
     </defs>
     <use xlink:href="#DejaVuSans-78"/>
     <use x="74.804688" xlink:href="#DejaVuSans-83"/>
     <use x="138.28125" xlink:href="#DejaVuSans-71"/>
     <use x="215.771484" xlink:href="#DejaVuSans-65"/>
     <use x="281.929688" xlink:href="#DejaVuSans-45"/>
     <use x="318.013672" xlink:href="#DejaVuSans-73"/>
     <use x="347.505859" xlink:href="#DejaVuSans-73"/>
     <use x="376.998047" xlink:href="#DejaVuSans-45"/>
     <use x="413.082031" xlink:href="#DejaVuSans-77"/>
    </g>
   </g>
   <g id="text_15">
    <!-- SMS-EMOA- -->
    <g transform="translate(375.22944 195.116537)scale(0.17 -0.17)">
     <use xlink:href="#DejaVuSans-83"/>
     <use x="63.476562" xlink:href="#DejaVuSans-77"/>
     <use x="149.755859" xlink:href="#DejaVuSans-83"/>
     <use x="213.232422" xlink:href="#DejaVuSans-45"/>
     <use x="249.316406" xlink:href="#DejaVuSans-69"/>
     <use x="312.5" xlink:href="#DejaVuSans-77"/>
     <use x="398.779297" xlink:href="#DejaVuSans-79"/>
     <use x="475.740234" xlink:href="#DejaVuSans-65"/>
     <use x="541.898438" xlink:href="#DejaVuSans-45"/>
    </g>
   </g>
   <g id="text_16">
    <!-- RM-MEDA A -->
    <g transform="translate(375.22944 143.543437)scale(0.17 -0.17)">
     <defs>
      <path d="M 44.390625 34.1875 
Q 47.5625 33.109375 50.5625 29.59375 
Q 53.5625 26.078125 56.59375 19.921875 
L 66.609375 0 
L 56 0 
L 46.6875 18.703125 
Q 43.0625 26.03125 39.671875 28.421875 
Q 36.28125 30.8125 30.421875 30.8125 
L 19.671875 30.8125 
L 19.671875 0 
L 9.8125 0 
L 9.8125 72.90625 
L 32.078125 72.90625 
Q 44.578125 72.90625 50.734375 67.671875 
Q 56.890625 62.453125 56.890625 51.90625 
Q 56.890625 45.015625 53.6875 40.46875 
Q 50.484375 35.9375 44.390625 34.1875 
z
M 19.671875 64.796875 
L 19.671875 38.921875 
L 32.078125 38.921875 
Q 39.203125 38.921875 42.84375 42.21875 
Q 46.484375 45.515625 46.484375 51.90625 
Q 46.484375 58.296875 42.84375 61.546875 
Q 39.203125 64.796875 32.078125 64.796875 
z
" id="DejaVuSans-82"/>
      <path d="M 19.671875 64.796875 
L 19.671875 8.109375 
L 31.59375 8.109375 
Q 46.6875 8.109375 53.6875 14.9375 
Q 60.6875 21.78125 60.6875 36.53125 
Q 60.6875 51.171875 53.6875 57.984375 
Q 46.6875 64.796875 31.59375 64.796875 
z
M 9.8125 72.90625 
L 30.078125 72.90625 
Q 51.265625 72.90625 61.171875 64.09375 
Q 71.09375 55.28125 71.09375 36.53125 
Q 71.09375 17.671875 61.125 8.828125 
Q 51.171875 0 30.078125 0 
L 9.8125 0 
z
" id="DejaVuSans-68"/>
     </defs>
     <use xlink:href="#DejaVuSans-82"/>
     <use x="69.482422" xlink:href="#DejaVuSans-77"/>
     <use x="155.761719" xlink:href="#DejaVuSans-45"/>
     <use x="191.845703" xlink:href="#DejaVuSans-77"/>
     <use x="278.125" xlink:href="#DejaVuSans-69"/>
     <use x="341.308594" xlink:href="#DejaVuSans-68"/>
     <use x="416.560547" xlink:href="#DejaVuSans-65"/>
     <use x="484.96875" xlink:href="#DejaVuSans-32"/>
     <use x="516.755859" xlink:href="#DejaVuSans-65"/>
    </g>
   </g>
   <g id="text_17">
    <!-- HMO-CMA-E -->
    <g transform="translate(375.22944 91.970336)scale(0.17 -0.17)">
     <defs>
      <path d="M 9.8125 72.90625 
L 19.671875 72.90625 
L 19.671875 43.015625 
L 55.515625 43.015625 
L 55.515625 72.90625 
L 65.375 72.90625 
L 65.375 0 
L 55.515625 0 
L 55.515625 34.71875 
L 19.671875 34.71875 
L 19.671875 0 
L 9.8125 0 
z
" id="DejaVuSans-72"/>
      <path d="M 64.40625 67.28125 
L 64.40625 56.890625 
Q 59.421875 61.53125 53.78125 63.8125 
Q 48.140625 66.109375 41.796875 66.109375 
Q 29.296875 66.109375 22.65625 58.46875 
Q 16.015625 50.828125 16.015625 36.375 
Q 16.015625 21.96875 22.65625 14.328125 
Q 29.296875 6.6875 41.796875 6.6875 
Q 48.140625 6.6875 53.78125 8.984375 
Q 59.421875 11.28125 64.40625 15.921875 
L 64.40625 5.609375 
Q 59.234375 2.09375 53.4375 0.328125 
Q 47.65625 -1.421875 41.21875 -1.421875 
Q 24.65625 -1.421875 15.125 8.703125 
Q 5.609375 18.84375 5.609375 36.375 
Q 5.609375 53.953125 15.125 64.078125 
Q 24.65625 74.21875 41.21875 74.21875 
Q 47.75 74.21875 53.53125 72.484375 
Q 59.328125 70.75 64.40625 67.28125 
z
" id="DejaVuSans-67"/>
     </defs>
     <use xlink:href="#DejaVuSans-72"/>
     <use x="75.195312" xlink:href="#DejaVuSans-77"/>
     <use x="161.474609" xlink:href="#DejaVuSans-79"/>
     <use x="242.935547" xlink:href="#DejaVuSans-45"/>
     <use x="279.019531" xlink:href="#DejaVuSans-67"/>
     <use x="348.84375" xlink:href="#DejaVuSans-77"/>
     <use x="435.123047" xlink:href="#DejaVuSans-65"/>
     <use x="501.28125" xlink:href="#DejaVuSans-45"/>
     <use x="537.365234" xlink:href="#DejaVuSans-69"/>
    </g>
   </g>
   <g id="text_18">
    <!-- best 2016 -->
    <g transform="translate(375.22944 40.397235)scale(0.17 -0.17)">
     <defs>
      <path d="M 48.6875 27.296875 
Q 48.6875 37.203125 44.609375 42.84375 
Q 40.53125 48.484375 33.40625 48.484375 
Q 26.265625 48.484375 22.1875 42.84375 
Q 18.109375 37.203125 18.109375 27.296875 
Q 18.109375 17.390625 22.1875 11.75 
Q 26.265625 6.109375 33.40625 6.109375 
Q 40.53125 6.109375 44.609375 11.75 
Q 48.6875 17.390625 48.6875 27.296875 
z
M 18.109375 46.390625 
Q 20.953125 51.265625 25.265625 53.625 
Q 29.59375 56 35.59375 56 
Q 45.5625 56 51.78125 48.09375 
Q 58.015625 40.1875 58.015625 27.296875 
Q 58.015625 14.40625 51.78125 6.484375 
Q 45.5625 -1.421875 35.59375 -1.421875 
Q 29.59375 -1.421875 25.265625 0.953125 
Q 20.953125 3.328125 18.109375 8.203125 
L 18.109375 0 
L 9.078125 0 
L 9.078125 75.984375 
L 18.109375 75.984375 
z
" id="DejaVuSans-98"/>
     </defs>
     <use xlink:href="#DejaVuSans-98"/>
     <use x="63.476562" xlink:href="#DejaVuSans-101"/>
     <use x="125" xlink:href="#DejaVuSans-115"/>
     <use x="177.099609" xlink:href="#DejaVuSans-116"/>
     <use x="216.308594" xlink:href="#DejaVuSans-32"/>
     <use x="248.095703" xlink:href="#DejaVuSans-50"/>
     <use x="311.71875" xlink:href="#DejaVuSans-48"/>
     <use x="375.341797" xlink:href="#DejaVuSans-49"/>
     <use x="438.964844" xlink:href="#DejaVuSans-54"/>
    </g>
   </g>
   <g id="text_19">
    <!-- bbob-biobj f8, 10-D -->
    <g transform="translate(60.41088 38.111366)scale(0.102 -0.102)">
     <defs>
      <path d="M 9.421875 54.6875 
L 18.40625 54.6875 
L 18.40625 -0.984375 
Q 18.40625 -11.421875 14.421875 -16.109375 
Q 10.453125 -20.796875 1.609375 -20.796875 
L -1.8125 -20.796875 
L -1.8125 -13.1875 
L 0.59375 -13.1875 
Q 5.71875 -13.1875 7.5625 -10.8125 
Q 9.421875 -8.453125 9.421875 -0.984375 
z
M 9.421875 75.984375 
L 18.40625 75.984375 
L 18.40625 64.59375 
L 9.421875 64.59375 
z
" id="DejaVuSans-106"/>
     </defs>
     <use xlink:href="#DejaVuSans-98"/>
     <use x="63.476562" xlink:href="#DejaVuSans-98"/>
     <use x="126.953125" xlink:href="#DejaVuSans-111"/>
     <use x="188.134766" xlink:href="#DejaVuSans-98"/>
     <use x="251.611328" xlink:href="#DejaVuSans-45"/>
     <use x="287.695312" xlink:href="#DejaVuSans-98"/>
     <use x="351.171875" xlink:href="#DejaVuSans-105"/>
     <use x="378.955078" xlink:href="#DejaVuSans-111"/>
     <use x="440.136719" xlink:href="#DejaVuSans-98"/>
     <use x="503.613281" xlink:href="#DejaVuSans-106"/>
     <use x="531.396484" xlink:href="#DejaVuSans-32"/>
     <use x="563.183594" xlink:href="#DejaVuSans-102"/>
     <use x="598.388672" xlink:href="#DejaVuSans-56"/>
     <use x="662.011719" xlink:href="#DejaVuSans-44"/>
     <use x="693.798828" xlink:href="#DejaVuSans-32"/>
     <use x="725.585938" xlink:href="#DejaVuSans-49"/>
     <use x="789.208984" xlink:href="#DejaVuSans-48"/>
     <use x="852.832031" xlink:href="#DejaVuSans-45"/>
     <use x="888.916016" xlink:href="#DejaVuSans-68"/>
    </g>
    <!-- 58 targets: 1..-1.0e-4 -->
    <g transform="translate(60.41088 49.533135)scale(0.102 -0.102)">
     <defs>
      <path d="M 10.796875 72.90625 
L 49.515625 72.90625 
L 49.515625 64.59375 
L 19.828125 64.59375 
L 19.828125 46.734375 
Q 21.96875 47.46875 24.109375 47.828125 
Q 26.265625 48.1875 28.421875 48.1875 
Q 40.625 48.1875 47.75 41.5 
Q 54.890625 34.8125 54.890625 23.390625 
Q 54.890625 11.625 47.5625 5.09375 
Q 40.234375 -1.421875 26.90625 -1.421875 
Q 22.3125 -1.421875 17.546875 -0.640625 
Q 12.796875 0.140625 7.71875 1.703125 
L 7.71875 11.625 
Q 12.109375 9.234375 16.796875 8.0625 
Q 21.484375 6.890625 26.703125 6.890625 
Q 35.15625 6.890625 40.078125 11.328125 
Q 45.015625 15.765625 45.015625 23.390625 
Q 45.015625 31 40.078125 35.4375 
Q 35.15625 39.890625 26.703125 39.890625 
Q 22.75 39.890625 18.8125 39.015625 
Q 14.890625 38.140625 10.796875 36.28125 
z
" id="DejaVuSans-53"/>
      <path d="M 11.71875 12.40625 
L 22.015625 12.40625 
L 22.015625 0 
L 11.71875 0 
z
M 11.71875 51.703125 
L 22.015625 51.703125 
L 22.015625 39.3125 
L 11.71875 39.3125 
z
" id="DejaVuSans-58"/>
     </defs>
     <use xlink:href="#DejaVuSans-53"/>
     <use x="63.623047" xlink:href="#DejaVuSans-56"/>
     <use x="127.246094" xlink:href="#DejaVuSans-32"/>
     <use x="159.033203" xlink:href="#DejaVuSans-116"/>
     <use x="198.242188" xlink:href="#DejaVuSans-97"/>
     <use x="259.521484" xlink:href="#DejaVuSans-114"/>
     <use x="298.884766" xlink:href="#DejaVuSans-103"/>
     <use x="362.361328" xlink:href="#DejaVuSans-101"/>
     <use x="423.884766" xlink:href="#DejaVuSans-116"/>
     <use x="463.09375" xlink:href="#DejaVuSans-115"/>
     <use x="515.193359" xlink:href="#DejaVuSans-58"/>
     <use x="548.884766" xlink:href="#DejaVuSans-32"/>
     <use x="580.671875" xlink:href="#DejaVuSans-49"/>
     <use x="644.294922" xlink:href="#DejaVuSans-46"/>
     <use x="676.082031" xlink:href="#DejaVuSans-46"/>
     <use x="707.869141" xlink:href="#DejaVuSans-45"/>
     <use x="743.953125" xlink:href="#DejaVuSans-49"/>
     <use x="807.576172" xlink:href="#DejaVuSans-46"/>
     <use x="839.363281" xlink:href="#DejaVuSans-48"/>
     <use x="902.986328" xlink:href="#DejaVuSans-101"/>
     <use x="964.509766" xlink:href="#DejaVuSans-45"/>
     <use x="1000.59375" xlink:href="#DejaVuSans-52"/>
    </g>
    <!-- 10 instances -->
    <g transform="translate(60.41088 60.954904)scale(0.102 -0.102)">
     <use xlink:href="#DejaVuSans-49"/>
     <use x="63.623047" xlink:href="#DejaVuSans-48"/>
     <use x="127.246094" xlink:href="#DejaVuSans-32"/>
     <use x="159.033203" xlink:href="#DejaVuSans-105"/>
     <use x="186.816406" xlink:href="#DejaVuSans-110"/>
     <use x="250.195312" xlink:href="#DejaVuSans-115"/>
     <use x="302.294922" xlink:href="#DejaVuSans-116"/>
     <use x="341.503906" xlink:href="#DejaVuSans-97"/>
     <use x="402.783203" xlink:href="#DejaVuSans-110"/>
     <use x="466.162109" xlink:href="#DejaVuSans-99"/>
     <use x="521.142578" xlink:href="#DejaVuSans-101"/>
     <use x="582.666016" xlink:href="#DejaVuSans-115"/>
    </g>
   </g>
   <g id="text_20">
    <!-- v2.4, hv-hash=ff0e71e8cd978373 -->
    <g style="fill:#808080;" transform="translate(112.648687 294.151352)scale(0.1 -0.1)">
     <defs>
      <path d="M 54.890625 33.015625 
L 54.890625 0 
L 45.90625 0 
L 45.90625 32.71875 
Q 45.90625 40.484375 42.875 44.328125 
Q 39.84375 48.1875 33.796875 48.1875 
Q 26.515625 48.1875 22.3125 43.546875 
Q 18.109375 38.921875 18.109375 30.90625 
L 18.109375 0 
L 9.078125 0 
L 9.078125 75.984375 
L 18.109375 75.984375 
L 18.109375 46.1875 
Q 21.34375 51.125 25.703125 53.5625 
Q 30.078125 56 35.796875 56 
Q 45.21875 56 50.046875 50.171875 
Q 54.890625 44.34375 54.890625 33.015625 
z
" id="DejaVuSans-104"/>
      <path d="M 10.59375 45.40625 
L 73.1875 45.40625 
L 73.1875 37.203125 
L 10.59375 37.203125 
z
M 10.59375 25.484375 
L 73.1875 25.484375 
L 73.1875 17.1875 
L 10.59375 17.1875 
z
" id="DejaVuSans-61"/>
      <path d="M 8.203125 72.90625 
L 55.078125 72.90625 
L 55.078125 68.703125 
L 28.609375 0 
L 18.3125 0 
L 43.21875 64.59375 
L 8.203125 64.59375 
z
" id="DejaVuSans-55"/>
      <path d="M 10.984375 1.515625 
L 10.984375 10.5 
Q 14.703125 8.734375 18.5 7.8125 
Q 22.3125 6.890625 25.984375 6.890625 
Q 35.75 6.890625 40.890625 13.453125 
Q 46.046875 20.015625 46.78125 33.40625 
Q 43.953125 29.203125 39.59375 26.953125 
Q 35.25 24.703125 29.984375 24.703125 
Q 19.046875 24.703125 12.671875 31.3125 
Q 6.296875 37.9375 6.296875 49.421875 
Q 6.296875 60.640625 12.9375 67.421875 
Q 19.578125 74.21875 30.609375 74.21875 
Q 43.265625 74.21875 49.921875 64.515625 
Q 56.59375 54.828125 56.59375 36.375 
Q 56.59375 19.140625 48.40625 8.859375 
Q 40.234375 -1.421875 26.421875 -1.421875 
Q 22.703125 -1.421875 18.890625 -0.6875 
Q 15.09375 0.046875 10.984375 1.515625 
z
M 30.609375 32.421875 
Q 37.25 32.421875 41.125 36.953125 
Q 45.015625 41.5 45.015625 49.421875 
Q 45.015625 57.28125 41.125 61.84375 
Q 37.25 66.40625 30.609375 66.40625 
Q 23.96875 66.40625 20.09375 61.84375 
Q 16.21875 57.28125 16.21875 49.421875 
Q 16.21875 41.5 20.09375 36.953125 
Q 23.96875 32.421875 30.609375 32.421875 
z
" id="DejaVuSans-57"/>
      <path d="M 40.578125 39.3125 
Q 47.65625 37.796875 51.625 33 
Q 55.609375 28.21875 55.609375 21.1875 
Q 55.609375 10.40625 48.1875 4.484375 
Q 40.765625 -1.421875 27.09375 -1.421875 
Q 22.515625 -1.421875 17.65625 -0.515625 
Q 12.796875 0.390625 7.625 2.203125 
L 7.625 11.71875 
Q 11.71875 9.328125 16.59375 8.109375 
Q 21.484375 6.890625 26.8125 6.890625 
Q 36.078125 6.890625 40.9375 10.546875 
Q 45.796875 14.203125 45.796875 21.1875 
Q 45.796875 27.640625 41.28125 31.265625 
Q 36.765625 34.90625 28.71875 34.90625 
L 20.21875 34.90625 
L 20.21875 43.015625 
L 29.109375 43.015625 
Q 36.375 43.015625 40.234375 45.921875 
Q 44.09375 48.828125 44.09375 54.296875 
Q 44.09375 59.90625 40.109375 62.90625 
Q 36.140625 65.921875 28.71875 65.921875 
Q 24.65625 65.921875 20.015625 65.03125 
Q 15.375 64.15625 9.8125 62.3125 
L 9.8125 71.09375 
Q 15.4375 72.65625 20.34375 73.4375 
Q 25.25 74.21875 29.59375 74.21875 
Q 40.828125 74.21875 47.359375 69.109375 
Q 53.90625 64.015625 53.90625 55.328125 
Q 53.90625 49.265625 50.4375 45.09375 
Q 46.96875 40.921875 40.578125 39.3125 
z
" id="DejaVuSans-51"/>
     </defs>
     <use xlink:href="#DejaVuSans-118"/>
     <use x="59.179688" xlink:href="#DejaVuSans-50"/>
     <use x="122.802734" xlink:href="#DejaVuSans-46"/>
     <use x="154.589844" xlink:href="#DejaVuSans-52"/>
     <use x="218.212891" xlink:href="#DejaVuSans-44"/>
     <use x="250" xlink:href="#DejaVuSans-32"/>
     <use x="281.787109" xlink:href="#DejaVuSans-104"/>
     <use x="345.166016" xlink:href="#DejaVuSans-118"/>
     <use x="401.720703" xlink:href="#DejaVuSans-45"/>
     <use x="437.804688" xlink:href="#DejaVuSans-104"/>
     <use x="501.183594" xlink:href="#DejaVuSans-97"/>
     <use x="562.462891" xlink:href="#DejaVuSans-115"/>
     <use x="614.5625" xlink:href="#DejaVuSans-104"/>
     <use x="677.941406" xlink:href="#DejaVuSans-61"/>
     <use x="761.730469" xlink:href="#DejaVuSans-102"/>
     <use x="796.935547" xlink:href="#DejaVuSans-102"/>
     <use x="832.140625" xlink:href="#DejaVuSans-48"/>
     <use x="895.763672" xlink:href="#DejaVuSans-101"/>
     <use x="957.287109" xlink:href="#DejaVuSans-55"/>
     <use x="1020.910156" xlink:href="#DejaVuSans-49"/>
     <use x="1084.533203" xlink:href="#DejaVuSans-101"/>
     <use x="1146.056641" xlink:href="#DejaVuSans-56"/>
     <use x="1209.679688" xlink:href="#DejaVuSans-99"/>
     <use x="1264.660156" xlink:href="#DejaVuSans-100"/>
     <use x="1328.136719" xlink:href="#DejaVuSans-57"/>
     <use x="1391.759766" xlink:href="#DejaVuSans-55"/>
     <use x="1455.382812" xlink:href="#DejaVuSans-56"/>
     <use x="1519.005859" xlink:href="#DejaVuSans-51"/>
     <use x="1582.628906" xlink:href="#DejaVuSans-55"/>
     <use x="1646.251953" xlink:href="#DejaVuSans-51"/>
    </g>
   </g>
   <g id="text_21">
    <!-- 8 Sphere/Schaffer F7 -->
    <g transform="translate(93.098687 21.648)scale(0.2 -0.2)">
     <use xlink:href="#DejaVuSans-56"/>
     <use x="63.623047" xlink:href="#DejaVuSans-32"/>
     <use x="95.410156" xlink:href="#DejaVuSans-83"/>
     <use x="158.886719" xlink:href="#DejaVuSans-112"/>
     <use x="222.363281" xlink:href="#DejaVuSans-104"/>
     <use x="285.742188" xlink:href="#DejaVuSans-101"/>
     <use x="347.265625" xlink:href="#DejaVuSans-114"/>
     <use x="386.128906" xlink:href="#DejaVuSans-101"/>
     <use x="447.652344" xlink:href="#DejaVuSans-47"/>
     <use x="481.34375" xlink:href="#DejaVuSans-83"/>
     <use x="544.820312" xlink:href="#DejaVuSans-99"/>
     <use x="599.800781" xlink:href="#DejaVuSans-104"/>
     <use x="663.179688" xlink:href="#DejaVuSans-97"/>
     <use x="724.458984" xlink:href="#DejaVuSans-102"/>
     <use x="759.664062" xlink:href="#DejaVuSans-102"/>
     <use x="794.869141" xlink:href="#DejaVuSans-101"/>
     <use x="856.392578" xlink:href="#DejaVuSans-114"/>
     <use x="897.505859" xlink:href="#DejaVuSans-32"/>
     <use x="929.292969" xlink:href="#DejaVuSans-70"/>
     <use x="986.8125" xlink:href="#DejaVuSans-55"/>
    </g>
   </g>
  </g>
 </g>
 <defs>
  <clipPath id="pbe191bd293">
   <rect height="271.296" width="281.088" x="57.6" y="27.648"/>
  </clipPath>
 </defs>
</svg>
