<?xml version="1.0" encoding="utf-8" standalone="no"?>
<!DOCTYPE svg PUBLIC "-//W3C//DTD SVG 1.1//EN"
  "http://www.w3.org/Graphics/SVG/1.1/DTD/svg11.dtd">
<!-- Created with matplotlib (https://matplotlib.org/) -->
<svg height="345.6pt" version="1.1" viewBox="0 0 460.8 345.6" width="460.8pt" xmlns="http://www.w3.org/2000/svg" xmlns:xlink="http://www.w3.org/1999/xlink">
 <metadata>
  <rdf:RDF xmlns:cc="http://creativecommons.org/ns#" xmlns:dc="http://purl.org/dc/elements/1.1/" xmlns:rdf="http://www.w3.org/1999/02/22-rdf-syntax-ns#">
   <cc:Work>
    <dc:type rdf:resource="http://purl.org/dc/dcmitype/StillImage"/>
    <dc:date>2021-03-30T18:28:11.420409</dc:date>
    <dc:format>image/svg+xml</dc:format>
    <dc:creator>
     <cc:Agent>
      <dc:title>Matplotlib v3.3.4, https://matplotlib.org/</dc:title>
     </cc:Agent>
    </dc:creator>
   </cc:Work>
  </rdf:RDF>
 </metadata>
 <defs>
  <style type="text/css">*{stroke-linecap:butt;stroke-linejoin:round;}</style>
 </defs>
 <g id="figure_1">
  <g id="patch_1">
   <path d="M 0 345.6 
L 460.8 345.6 
L 460.8 0 
L 0 0 
z
" style="fill:#ffffff;"/>
  </g>
  <g id="axes_1">
   <g id="patch_2">
    <path d="M 57.6 298.944 
L 338.688 298.944 
L 338.688 27.648 
L 57.6 27.648 
z
" style="fill:#ffffff;"/>
   </g>
   <g id="line2d_1">
    <path d="M 29.53256 298.944 
L 29.53256 294.312795 
L 59.262141 294.312795 
L 59.262141 285.050384 
L 122.018385 285.050384 
L 122.018385 275.787974 
L 146.854132 275.787974 
L 146.854132 271.156769 
L 164.607388 271.156769 
L 164.607388 257.263153 
L 173.860276 257.263153 
L 173.860276 248.000743 
L 191.88998 248.000743 
L 191.88998 243.369538 
L 216.739522 243.369538 
L 216.739522 234.107127 
L 217.202843 234.107127 
L 217.202843 220.213512 
L 244.506069 220.213512 
L 244.506069 210.951101 
L 256.324604 210.951101 
L 256.324604 201.688691 
L 264.078977 201.688691 
L 264.078977 192.426281 
L 275.198655 192.426281 
L 275.198655 187.795075 
L 282.060114 187.795075 
L 282.060114 173.90146 
L 291.241518 173.90146 
L 291.241518 169.270255 
L 305.319833 169.270255 
L 305.319833 155.376639 
L 319.312658 155.376639 
L 319.312658 146.114229 
L 319.576217 146.114229 
L 319.576217 141.483024 
L 327.888024 141.483024 
L 327.888024 127.589408 
L 338.688 127.589408 
" style="fill:none;stroke:#f5deb3;stroke-linecap:square;stroke-width:4;"/>
   </g>
   <g id="line2d_2">
    <defs>
     <path d="M -0 7.778175 
L 7.778175 0 
L 0 -7.778175 
L -7.778175 -0 
z
" id="mffb8f5c7fe" style="stroke:#f5deb3;stroke-linejoin:miter;stroke-width:1.5;"/>
    </defs>
    <g>
     <use style="fill:#f5deb3;stroke:#f5deb3;stroke-linejoin:miter;stroke-width:1.5;" x="146.854132" xlink:href="#mffb8f5c7fe" y="271.156769"/>
     <use style="fill:#f5deb3;stroke:#f5deb3;stroke-linejoin:miter;stroke-width:1.5;" x="217.202843" xlink:href="#mffb8f5c7fe" y="220.213512"/>
     <use style="fill:#f5deb3;stroke:#f5deb3;stroke-linejoin:miter;stroke-width:1.5;" x="291.241518" xlink:href="#mffb8f5c7fe" y="169.270255"/>
     <use style="fill:#f5deb3;stroke:#f5deb3;stroke-linejoin:miter;stroke-width:1.5;" x="327.888024" xlink:href="#mffb8f5c7fe" y="127.589408"/>
     <use style="fill:#f5deb3;stroke:#f5deb3;stroke-linejoin:miter;stroke-width:1.5;" x="327.888024" xlink:href="#mffb8f5c7fe" y="127.589408"/>
     <use style="fill:#f5deb3;stroke:#f5deb3;stroke-linejoin:miter;stroke-width:1.5;" x="338.688" xlink:href="#mffb8f5c7fe" y="127.589408"/>
    </g>
   </g>
   <g id="line2d_3">
    <path style="fill:none;stroke:#f5deb3;stroke-linecap:square;stroke-width:4;"/>
    <g/>
   </g>
   <g id="line2d_4">
    <path d="M 338.688 127.589408 
L 369.60768 35.706297 
" style="fill:none;stroke:#f5deb3;stroke-linecap:square;stroke-width:4;"/>
    <g>
     <use style="fill:#f5deb3;stroke:#f5deb3;stroke-linejoin:miter;stroke-width:1.5;" x="338.688" xlink:href="#mffb8f5c7fe" y="127.589408"/>
     <use style="fill:#f5deb3;stroke:#f5deb3;stroke-linejoin:miter;stroke-width:1.5;" x="369.60768" xlink:href="#mffb8f5c7fe" y="35.706297"/>
    </g>
   </g>
   <g id="matplotlib.axis_1">
    <g id="xtick_1">
     <g id="line2d_5">
      <path clip-path="url(#p901079364e)" d="M 57.6 298.944 
L 57.6 27.648 
" style="fill:none;stroke:#b0b0b0;stroke-linecap:square;stroke-width:0.8;"/>
     </g>
     <g id="line2d_6">
      <defs>
       <path d="M 0 0 
L 0 3.5 
" id="m20b46f0a44" style="stroke:#000000;stroke-width:0.8;"/>
      </defs>
      <g>
       <use style="stroke:#000000;stroke-width:0.8;" x="57.6" xlink:href="#m20b46f0a44" y="298.944"/>
      </g>
     </g>
     <g id="text_1">
      <!-- 0 -->
      <g transform="translate(51.2375 321.140875)scale(0.2 -0.2)">
       <defs>
        <path d="M 31.78125 66.40625 
Q 24.171875 66.40625 20.328125 58.90625 
Q 16.5 51.421875 16.5 36.375 
Q 16.5 21.390625 20.328125 13.890625 
Q 24.171875 6.390625 31.78125 6.390625 
Q 39.453125 6.390625 43.28125 13.890625 
Q 47.125 21.390625 47.125 36.375 
Q 47.125 51.421875 43.28125 58.90625 
Q 39.453125 66.40625 31.78125 66.40625 
z
M 31.78125 74.21875 
Q 44.046875 74.21875 50.515625 64.515625 
Q 56.984375 54.828125 56.984375 36.375 
Q 56.984375 17.96875 50.515625 8.265625 
Q 44.046875 -1.421875 31.78125 -1.421875 
Q 19.53125 -1.421875 13.0625 8.265625 
Q 6.59375 17.96875 6.59375 36.375 
Q 6.59375 54.828125 13.0625 64.515625 
Q 19.53125 74.21875 31.78125 74.21875 
z
" id="DejaVuSans-48"/>
       </defs>
       <use xlink:href="#DejaVuSans-48"/>
      </g>
     </g>
    </g>
    <g id="xtick_2">
     <g id="line2d_7">
      <path clip-path="url(#p901079364e)" d="M 137.910857 298.944 
L 137.910857 27.648 
" style="fill:none;stroke:#b0b0b0;stroke-linecap:square;stroke-width:0.8;"/>
     </g>
     <g id="line2d_8">
      <g>
       <use style="stroke:#000000;stroke-width:0.8;" x="137.910857" xlink:href="#m20b46f0a44" y="298.944"/>
      </g>
     </g>
     <g id="text_2">
      <!-- 2 -->
      <g transform="translate(131.548357 321.140875)scale(0.2 -0.2)">
       <defs>
        <path d="M 19.1875 8.296875 
L 53.609375 8.296875 
L 53.609375 0 
L 7.328125 0 
L 7.328125 8.296875 
Q 12.9375 14.109375 22.625 23.890625 
Q 32.328125 33.6875 34.8125 36.53125 
Q 39.546875 41.84375 41.421875 45.53125 
Q 43.3125 49.21875 43.3125 52.78125 
Q 43.3125 58.59375 39.234375 62.25 
Q 35.15625 65.921875 28.609375 65.921875 
Q 23.96875 65.921875 18.8125 64.3125 
Q 13.671875 62.703125 7.8125 59.421875 
L 7.8125 69.390625 
Q 13.765625 71.78125 18.9375 73 
Q 24.125 74.21875 28.421875 74.21875 
Q 39.75 74.21875 46.484375 68.546875 
Q 53.21875 62.890625 53.21875 53.421875 
Q 53.21875 48.921875 51.53125 44.890625 
Q 49.859375 40.875 45.40625 35.40625 
Q 44.1875 33.984375 37.640625 27.21875 
Q 31.109375 20.453125 19.1875 8.296875 
z
" id="DejaVuSans-50"/>
       </defs>
       <use xlink:href="#DejaVuSans-50"/>
      </g>
     </g>
    </g>
    <g id="xtick_3">
     <g id="line2d_9">
      <path clip-path="url(#p901079364e)" d="M 218.221714 298.944 
L 218.221714 27.648 
" style="fill:none;stroke:#b0b0b0;stroke-linecap:square;stroke-width:0.8;"/>
     </g>
     <g id="line2d_10">
      <g>
       <use style="stroke:#000000;stroke-width:0.8;" x="218.221714" xlink:href="#m20b46f0a44" y="298.944"/>
      </g>
     </g>
     <g id="text_3">
      <!-- 4 -->
      <g transform="translate(211.859214 321.140875)scale(0.2 -0.2)">
       <defs>
        <path d="M 37.796875 64.3125 
L 12.890625 25.390625 
L 37.796875 25.390625 
z
M 35.203125 72.90625 
L 47.609375 72.90625 
L 47.609375 25.390625 
L 58.015625 25.390625 
L 58.015625 17.1875 
L 47.609375 17.1875 
L 47.609375 0 
L 37.796875 0 
L 37.796875 17.1875 
L 4.890625 17.1875 
L 4.890625 26.703125 
z
" id="DejaVuSans-52"/>
       </defs>
       <use xlink:href="#DejaVuSans-52"/>
      </g>
     </g>
    </g>
    <g id="xtick_4">
     <g id="line2d_11">
      <path clip-path="url(#p901079364e)" d="M 298.532571 298.944 
L 298.532571 27.648 
" style="fill:none;stroke:#b0b0b0;stroke-linecap:square;stroke-width:0.8;"/>
     </g>
     <g id="line2d_12">
      <g>
       <use style="stroke:#000000;stroke-width:0.8;" x="298.532571" xlink:href="#m20b46f0a44" y="298.944"/>
      </g>
     </g>
     <g id="text_4">
      <!-- 6 -->
      <g transform="translate(292.170071 321.140875)scale(0.2 -0.2)">
       <defs>
        <path d="M 33.015625 40.375 
Q 26.375 40.375 22.484375 35.828125 
Q 18.609375 31.296875 18.609375 23.390625 
Q 18.609375 15.53125 22.484375 10.953125 
Q 26.375 6.390625 33.015625 6.390625 
Q 39.65625 6.390625 43.53125 10.953125 
Q 47.40625 15.53125 47.40625 23.390625 
Q 47.40625 31.296875 43.53125 35.828125 
Q 39.65625 40.375 33.015625 40.375 
z
M 52.59375 71.296875 
L 52.59375 62.3125 
Q 48.875 64.0625 45.09375 64.984375 
Q 41.3125 65.921875 37.59375 65.921875 
Q 27.828125 65.921875 22.671875 59.328125 
Q 17.53125 52.734375 16.796875 39.40625 
Q 19.671875 43.65625 24.015625 45.921875 
Q 28.375 48.1875 33.59375 48.1875 
Q 44.578125 48.1875 50.953125 41.515625 
Q 57.328125 34.859375 57.328125 23.390625 
Q 57.328125 12.15625 50.6875 5.359375 
Q 44.046875 -1.421875 33.015625 -1.421875 
Q 20.359375 -1.421875 13.671875 8.265625 
Q 6.984375 17.96875 6.984375 36.375 
Q 6.984375 53.65625 15.1875 63.9375 
Q 23.390625 74.21875 37.203125 74.21875 
Q 40.921875 74.21875 44.703125 73.484375 
Q 48.484375 72.75 52.59375 71.296875 
z
" id="DejaVuSans-54"/>
       </defs>
       <use xlink:href="#DejaVuSans-54"/>
      </g>
     </g>
    </g>
    <g id="xtick_5">
     <g id="line2d_13">
      <path clip-path="url(#p901079364e)" d="M 97.755429 298.944 
L 97.755429 27.648 
" style="fill:none;stroke:#b0b0b0;stroke-linecap:square;stroke-width:0.8;"/>
     </g>
     <g id="line2d_14">
      <defs>
       <path d="M 0 0 
L 0 2 
" id="mc166dc633b" style="stroke:#000000;stroke-width:0.6;"/>
      </defs>
      <g>
       <use style="stroke:#000000;stroke-width:0.6;" x="97.755429" xlink:href="#mc166dc633b" y="298.944"/>
      </g>
     </g>
    </g>
    <g id="xtick_6">
     <g id="line2d_15">
      <path clip-path="url(#p901079364e)" d="M 178.066286 298.944 
L 178.066286 27.648 
" style="fill:none;stroke:#b0b0b0;stroke-linecap:square;stroke-width:0.8;"/>
     </g>
     <g id="line2d_16">
      <g>
       <use style="stroke:#000000;stroke-width:0.6;" x="178.066286" xlink:href="#mc166dc633b" y="298.944"/>
      </g>
     </g>
    </g>
    <g id="xtick_7">
     <g id="line2d_17">
      <path clip-path="url(#p901079364e)" d="M 258.377143 298.944 
L 258.377143 27.648 
" style="fill:none;stroke:#b0b0b0;stroke-linecap:square;stroke-width:0.8;"/>
     </g>
     <g id="line2d_18">
      <g>
       <use style="stroke:#000000;stroke-width:0.6;" x="258.377143" xlink:href="#mc166dc633b" y="298.944"/>
      </g>
     </g>
    </g>
    <g id="xtick_8">
     <g id="line2d_19">
      <path clip-path="url(#p901079364e)" d="M 338.688 298.944 
L 338.688 27.648 
" style="fill:none;stroke:#b0b0b0;stroke-linecap:square;stroke-width:0.8;"/>
     </g>
     <g id="line2d_20">
      <g>
       <use style="stroke:#000000;stroke-width:0.6;" x="338.688" xlink:href="#mc166dc633b" y="298.944"/>
      </g>
     </g>
    </g>
    <g id="text_5">
     <!-- log10(# f-evals / dimension) -->
     <g transform="translate(77.764078 342.217594)scale(0.17 -0.17)">
      <defs>
       <path d="M 9.421875 75.984375 
L 18.40625 75.984375 
L 18.40625 0 
L 9.421875 0 
z
" id="DejaVuSans-108"/>
       <path d="M 30.609375 48.390625 
Q 23.390625 48.390625 19.1875 42.75 
Q 14.984375 37.109375 14.984375 27.296875 
Q 14.984375 17.484375 19.15625 11.84375 
Q 23.34375 6.203125 30.609375 6.203125 
Q 37.796875 6.203125 41.984375 11.859375 
Q 46.1875 17.53125 46.1875 27.296875 
Q 46.1875 37.015625 41.984375 42.703125 
Q 37.796875 48.390625 30.609375 48.390625 
z
M 30.609375 56 
Q 42.328125 56 49.015625 48.375 
Q 55.71875 40.765625 55.71875 27.296875 
Q 55.71875 13.875 49.015625 6.21875 
Q 42.328125 -1.421875 30.609375 -1.421875 
Q 18.84375 -1.421875 12.171875 6.21875 
Q 5.515625 13.875 5.515625 27.296875 
Q 5.515625 40.765625 12.171875 48.375 
Q 18.84375 56 30.609375 56 
z
" id="DejaVuSans-111"/>
       <path d="M 45.40625 27.984375 
Q 45.40625 37.75 41.375 43.109375 
Q 37.359375 48.484375 30.078125 48.484375 
Q 22.859375 48.484375 18.828125 43.109375 
Q 14.796875 37.75 14.796875 27.984375 
Q 14.796875 18.265625 18.828125 12.890625 
Q 22.859375 7.515625 30.078125 7.515625 
Q 37.359375 7.515625 41.375 12.890625 
Q 45.40625 18.265625 45.40625 27.984375 
z
M 54.390625 6.78125 
Q 54.390625 -7.171875 48.1875 -13.984375 
Q 42 -20.796875 29.203125 -20.796875 
Q 24.46875 -20.796875 20.265625 -20.09375 
Q 16.0625 -19.390625 12.109375 -17.921875 
L 12.109375 -9.1875 
Q 16.0625 -11.328125 19.921875 -12.34375 
Q 23.78125 -13.375 27.78125 -13.375 
Q 36.625 -13.375 41.015625 -8.765625 
Q 45.40625 -4.15625 45.40625 5.171875 
L 45.40625 9.625 
Q 42.625 4.78125 38.28125 2.390625 
Q 33.9375 0 27.875 0 
Q 17.828125 0 11.671875 7.65625 
Q 5.515625 15.328125 5.515625 27.984375 
Q 5.515625 40.671875 11.671875 48.328125 
Q 17.828125 56 27.875 56 
Q 33.9375 56 38.28125 53.609375 
Q 42.625 51.21875 45.40625 46.390625 
L 45.40625 54.6875 
L 54.390625 54.6875 
z
" id="DejaVuSans-103"/>
       <path d="M 12.40625 8.296875 
L 28.515625 8.296875 
L 28.515625 63.921875 
L 10.984375 60.40625 
L 10.984375 69.390625 
L 28.421875 72.90625 
L 38.28125 72.90625 
L 38.28125 8.296875 
L 54.390625 8.296875 
L 54.390625 0 
L 12.40625 0 
z
" id="DejaVuSans-49"/>
       <path d="M 31 75.875 
Q 24.46875 64.65625 21.28125 53.65625 
Q 18.109375 42.671875 18.109375 31.390625 
Q 18.109375 20.125 21.3125 9.0625 
Q 24.515625 -2 31 -13.1875 
L 23.1875 -13.1875 
Q 15.875 -1.703125 12.234375 9.375 
Q 8.59375 20.453125 8.59375 31.390625 
Q 8.59375 42.28125 12.203125 53.3125 
Q 15.828125 64.359375 23.1875 75.875 
z
" id="DejaVuSans-40"/>
       <path d="M 51.125 44 
L 36.921875 44 
L 32.8125 27.6875 
L 47.125 27.6875 
z
M 43.796875 71.78125 
L 38.71875 51.515625 
L 52.984375 51.515625 
L 58.109375 71.78125 
L 65.921875 71.78125 
L 60.890625 51.515625 
L 76.125 51.515625 
L 76.125 44 
L 58.984375 44 
L 54.984375 27.6875 
L 70.515625 27.6875 
L 70.515625 20.21875 
L 53.078125 20.21875 
L 48 0 
L 40.1875 0 
L 45.21875 20.21875 
L 30.90625 20.21875 
L 25.875 0 
L 18.015625 0 
L 23.09375 20.21875 
L 7.71875 20.21875 
L 7.71875 27.6875 
L 24.90625 27.6875 
L 29 44 
L 13.28125 44 
L 13.28125 51.515625 
L 30.90625 51.515625 
L 35.890625 71.78125 
z
" id="DejaVuSans-35"/>
       <path id="DejaVuSans-32"/>
       <path d="M 37.109375 75.984375 
L 37.109375 68.5 
L 28.515625 68.5 
Q 23.6875 68.5 21.796875 66.546875 
Q 19.921875 64.59375 19.921875 59.515625 
L 19.921875 54.6875 
L 34.71875 54.6875 
L 34.71875 47.703125 
L 19.921875 47.703125 
L 19.921875 0 
L 10.890625 0 
L 10.890625 47.703125 
L 2.296875 47.703125 
L 2.296875 54.6875 
L 10.890625 54.6875 
L 10.890625 58.5 
Q 10.890625 67.625 15.140625 71.796875 
Q 19.390625 75.984375 28.609375 75.984375 
z
" id="DejaVuSans-102"/>
       <path d="M 4.890625 31.390625 
L 31.203125 31.390625 
L 31.203125 23.390625 
L 4.890625 23.390625 
z
" id="DejaVuSans-45"/>
       <path d="M 56.203125 29.59375 
L 56.203125 25.203125 
L 14.890625 25.203125 
Q 15.484375 15.921875 20.484375 11.0625 
Q 25.484375 6.203125 34.421875 6.203125 
Q 39.59375 6.203125 44.453125 7.46875 
Q 49.3125 8.734375 54.109375 11.28125 
L 54.109375 2.78125 
Q 49.265625 0.734375 44.1875 -0.34375 
Q 39.109375 -1.421875 33.890625 -1.421875 
Q 20.796875 -1.421875 13.15625 6.1875 
Q 5.515625 13.8125 5.515625 26.8125 
Q 5.515625 40.234375 12.765625 48.109375 
Q 20.015625 56 32.328125 56 
Q 43.359375 56 49.78125 48.890625 
Q 56.203125 41.796875 56.203125 29.59375 
z
M 47.21875 32.234375 
Q 47.125 39.59375 43.09375 43.984375 
Q 39.0625 48.390625 32.421875 48.390625 
Q 24.90625 48.390625 20.390625 44.140625 
Q 15.875 39.890625 15.1875 32.171875 
z
" id="DejaVuSans-101"/>
       <path d="M 2.984375 54.6875 
L 12.5 54.6875 
L 29.59375 8.796875 
L 46.6875 54.6875 
L 56.203125 54.6875 
L 35.6875 0 
L 23.484375 0 
z
" id="DejaVuSans-118"/>
       <path d="M 34.28125 27.484375 
Q 23.390625 27.484375 19.1875 25 
Q 14.984375 22.515625 14.984375 16.5 
Q 14.984375 11.71875 18.140625 8.90625 
Q 21.296875 6.109375 26.703125 6.109375 
Q 34.1875 6.109375 38.703125 11.40625 
Q 43.21875 16.703125 43.21875 25.484375 
L 43.21875 27.484375 
z
M 52.203125 31.203125 
L 52.203125 0 
L 43.21875 0 
L 43.21875 8.296875 
Q 40.140625 3.328125 35.546875 0.953125 
Q 30.953125 -1.421875 24.3125 -1.421875 
Q 15.921875 -1.421875 10.953125 3.296875 
Q 6 8.015625 6 15.921875 
Q 6 25.140625 12.171875 29.828125 
Q 18.359375 34.515625 30.609375 34.515625 
L 43.21875 34.515625 
L 43.21875 35.40625 
Q 43.21875 41.609375 39.140625 45 
Q 35.0625 48.390625 27.6875 48.390625 
Q 23 48.390625 18.546875 47.265625 
Q 14.109375 46.140625 10.015625 43.890625 
L 10.015625 52.203125 
Q 14.9375 54.109375 19.578125 55.046875 
Q 24.21875 56 28.609375 56 
Q 40.484375 56 46.34375 49.84375 
Q 52.203125 43.703125 52.203125 31.203125 
z
" id="DejaVuSans-97"/>
       <path d="M 44.28125 53.078125 
L 44.28125 44.578125 
Q 40.484375 46.53125 36.375 47.5 
Q 32.28125 48.484375 27.875 48.484375 
Q 21.1875 48.484375 17.84375 46.4375 
Q 14.5 44.390625 14.5 40.28125 
Q 14.5 37.15625 16.890625 35.375 
Q 19.28125 33.59375 26.515625 31.984375 
L 29.59375 31.296875 
Q 39.15625 29.25 43.1875 25.515625 
Q 47.21875 21.78125 47.21875 15.09375 
Q 47.21875 7.46875 41.1875 3.015625 
Q 35.15625 -1.421875 24.609375 -1.421875 
Q 20.21875 -1.421875 15.453125 -0.5625 
Q 10.6875 0.296875 5.421875 2 
L 5.421875 11.28125 
Q 10.40625 8.6875 15.234375 7.390625 
Q 20.0625 6.109375 24.8125 6.109375 
Q 31.15625 6.109375 34.5625 8.28125 
Q 37.984375 10.453125 37.984375 14.40625 
Q 37.984375 18.0625 35.515625 20.015625 
Q 33.0625 21.96875 24.703125 23.78125 
L 21.578125 24.515625 
Q 13.234375 26.265625 9.515625 29.90625 
Q 5.8125 33.546875 5.8125 39.890625 
Q 5.8125 47.609375 11.28125 51.796875 
Q 16.75 56 26.8125 56 
Q 31.78125 56 36.171875 55.265625 
Q 40.578125 54.546875 44.28125 53.078125 
z
" id="DejaVuSans-115"/>
       <path d="M 25.390625 72.90625 
L 33.6875 72.90625 
L 8.296875 -9.28125 
L 0 -9.28125 
z
" id="DejaVuSans-47"/>
       <path d="M 45.40625 46.390625 
L 45.40625 75.984375 
L 54.390625 75.984375 
L 54.390625 0 
L 45.40625 0 
L 45.40625 8.203125 
Q 42.578125 3.328125 38.25 0.953125 
Q 33.9375 -1.421875 27.875 -1.421875 
Q 17.96875 -1.421875 11.734375 6.484375 
Q 5.515625 14.40625 5.515625 27.296875 
Q 5.515625 40.1875 11.734375 48.09375 
Q 17.96875 56 27.875 56 
Q 33.9375 56 38.25 53.625 
Q 42.578125 51.265625 45.40625 46.390625 
z
M 14.796875 27.296875 
Q 14.796875 17.390625 18.875 11.75 
Q 22.953125 6.109375 30.078125 6.109375 
Q 37.203125 6.109375 41.296875 11.75 
Q 45.40625 17.390625 45.40625 27.296875 
Q 45.40625 37.203125 41.296875 42.84375 
Q 37.203125 48.484375 30.078125 48.484375 
Q 22.953125 48.484375 18.875 42.84375 
Q 14.796875 37.203125 14.796875 27.296875 
z
" id="DejaVuSans-100"/>
       <path d="M 9.421875 54.6875 
L 18.40625 54.6875 
L 18.40625 0 
L 9.421875 0 
z
M 9.421875 75.984375 
L 18.40625 75.984375 
L 18.40625 64.59375 
L 9.421875 64.59375 
z
" id="DejaVuSans-105"/>
       <path d="M 52 44.1875 
Q 55.375 50.25 60.0625 53.125 
Q 64.75 56 71.09375 56 
Q 79.640625 56 84.28125 50.015625 
Q 88.921875 44.046875 88.921875 33.015625 
L 88.921875 0 
L 79.890625 0 
L 79.890625 32.71875 
Q 79.890625 40.578125 77.09375 44.375 
Q 74.3125 48.1875 68.609375 48.1875 
Q 61.625 48.1875 57.5625 43.546875 
Q 53.515625 38.921875 53.515625 30.90625 
L 53.515625 0 
L 44.484375 0 
L 44.484375 32.71875 
Q 44.484375 40.625 41.703125 44.40625 
Q 38.921875 48.1875 33.109375 48.1875 
Q 26.21875 48.1875 22.15625 43.53125 
Q 18.109375 38.875 18.109375 30.90625 
L 18.109375 0 
L 9.078125 0 
L 9.078125 54.6875 
L 18.109375 54.6875 
L 18.109375 46.1875 
Q 21.1875 51.21875 25.484375 53.609375 
Q 29.78125 56 35.6875 56 
Q 41.65625 56 45.828125 52.96875 
Q 50 49.953125 52 44.1875 
z
" id="DejaVuSans-109"/>
       <path d="M 54.890625 33.015625 
L 54.890625 0 
L 45.90625 0 
L 45.90625 32.71875 
Q 45.90625 40.484375 42.875 44.328125 
Q 39.84375 48.1875 33.796875 48.1875 
Q 26.515625 48.1875 22.3125 43.546875 
Q 18.109375 38.921875 18.109375 30.90625 
L 18.109375 0 
L 9.078125 0 
L 9.078125 54.6875 
L 18.109375 54.6875 
L 18.109375 46.1875 
Q 21.34375 51.125 25.703125 53.5625 
Q 30.078125 56 35.796875 56 
Q 45.21875 56 50.046875 50.171875 
Q 54.890625 44.34375 54.890625 33.015625 
z
" id="DejaVuSans-110"/>
       <path d="M 8.015625 75.875 
L 15.828125 75.875 
Q 23.140625 64.359375 26.78125 53.3125 
Q 30.421875 42.28125 30.421875 31.390625 
Q 30.421875 20.453125 26.78125 9.375 
Q 23.140625 -1.703125 15.828125 -13.1875 
L 8.015625 -13.1875 
Q 14.5 -2 17.703125 9.0625 
Q 20.90625 20.125 20.90625 31.390625 
Q 20.90625 42.671875 17.703125 53.65625 
Q 14.5 64.65625 8.015625 75.875 
z
" id="DejaVuSans-41"/>
      </defs>
      <use xlink:href="#DejaVuSans-108"/>
      <use x="27.783203" xlink:href="#DejaVuSans-111"/>
      <use x="88.964844" xlink:href="#DejaVuSans-103"/>
      <use x="152.441406" xlink:href="#DejaVuSans-49"/>
      <use x="216.064453" xlink:href="#DejaVuSans-48"/>
      <use x="279.6875" xlink:href="#DejaVuSans-40"/>
      <use x="318.701172" xlink:href="#DejaVuSans-35"/>
      <use x="402.490234" xlink:href="#DejaVuSans-32"/>
      <use x="434.277344" xlink:href="#DejaVuSans-102"/>
      <use x="463.982422" xlink:href="#DejaVuSans-45"/>
      <use x="500.066406" xlink:href="#DejaVuSans-101"/>
      <use x="561.589844" xlink:href="#DejaVuSans-118"/>
      <use x="620.769531" xlink:href="#DejaVuSans-97"/>
      <use x="682.048828" xlink:href="#DejaVuSans-108"/>
      <use x="709.832031" xlink:href="#DejaVuSans-115"/>
      <use x="761.931641" xlink:href="#DejaVuSans-32"/>
      <use x="793.71875" xlink:href="#DejaVuSans-47"/>
      <use x="827.410156" xlink:href="#DejaVuSans-32"/>
      <use x="859.197266" xlink:href="#DejaVuSans-100"/>
      <use x="922.673828" xlink:href="#DejaVuSans-105"/>
      <use x="950.457031" xlink:href="#DejaVuSans-109"/>
      <use x="1047.869141" xlink:href="#DejaVuSans-101"/>
      <use x="1109.392578" xlink:href="#DejaVuSans-110"/>
      <use x="1172.771484" xlink:href="#DejaVuSans-115"/>
      <use x="1224.871094" xlink:href="#DejaVuSans-105"/>
      <use x="1252.654297" xlink:href="#DejaVuSans-111"/>
      <use x="1313.835938" xlink:href="#DejaVuSans-110"/>
      <use x="1377.214844" xlink:href="#DejaVuSans-41"/>
     </g>
    </g>
   </g>
   <g id="matplotlib.axis_2">
    <g id="ytick_1">
     <g id="line2d_21">
      <path clip-path="url(#p901079364e)" d="M 57.6 298.944 
L 338.688 298.944 
" style="fill:none;stroke:#b0b0b0;stroke-linecap:square;stroke-width:0.8;"/>
     </g>
     <g id="line2d_22">
      <defs>
       <path d="M 0 0 
L -3.5 0 
" id="mb42809184c" style="stroke:#000000;stroke-width:0.8;"/>
      </defs>
      <g>
       <use style="stroke:#000000;stroke-width:0.8;" x="57.6" xlink:href="#mb42809184c" y="298.944"/>
      </g>
     </g>
     <g id="text_6">
      <!-- 0.0 -->
      <g transform="translate(25.155 305.02275)scale(0.16 -0.16)">
       <defs>
        <path d="M 10.6875 12.40625 
L 21 12.40625 
L 21 0 
L 10.6875 0 
z
" id="DejaVuSans-46"/>
       </defs>
       <use xlink:href="#DejaVuSans-48"/>
       <use x="63.623047" xlink:href="#DejaVuSans-46"/>
       <use x="95.410156" xlink:href="#DejaVuSans-48"/>
      </g>
     </g>
    </g>
    <g id="ytick_2">
     <g id="line2d_23">
      <path clip-path="url(#p901079364e)" d="M 57.6 245.22202 
L 338.688 245.22202 
" style="fill:none;stroke:#b0b0b0;stroke-linecap:square;stroke-width:0.8;"/>
     </g>
     <g id="line2d_24">
      <g>
       <use style="stroke:#000000;stroke-width:0.8;" x="57.6" xlink:href="#mb42809184c" y="245.22202"/>
      </g>
     </g>
     <g id="text_7">
      <!-- 0.2 -->
      <g transform="translate(25.155 251.30077)scale(0.16 -0.16)">
       <use xlink:href="#DejaVuSans-48"/>
       <use x="63.623047" xlink:href="#DejaVuSans-46"/>
       <use x="95.410156" xlink:href="#DejaVuSans-50"/>
      </g>
     </g>
    </g>
    <g id="ytick_3">
     <g id="line2d_25">
      <path clip-path="url(#p901079364e)" d="M 57.6 191.50004 
L 338.688 191.50004 
" style="fill:none;stroke:#b0b0b0;stroke-linecap:square;stroke-width:0.8;"/>
     </g>
     <g id="line2d_26">
      <g>
       <use style="stroke:#000000;stroke-width:0.8;" x="57.6" xlink:href="#mb42809184c" y="191.50004"/>
      </g>
     </g>
     <g id="text_8">
      <!-- 0.4 -->
      <g transform="translate(25.155 197.57879)scale(0.16 -0.16)">
       <use xlink:href="#DejaVuSans-48"/>
       <use x="63.623047" xlink:href="#DejaVuSans-46"/>
       <use x="95.410156" xlink:href="#DejaVuSans-52"/>
      </g>
     </g>
    </g>
    <g id="ytick_4">
     <g id="line2d_27">
      <path clip-path="url(#p901079364e)" d="M 57.6 137.778059 
L 338.688 137.778059 
" style="fill:none;stroke:#b0b0b0;stroke-linecap:square;stroke-width:0.8;"/>
     </g>
     <g id="line2d_28">
      <g>
       <use style="stroke:#000000;stroke-width:0.8;" x="57.6" xlink:href="#mb42809184c" y="137.778059"/>
      </g>
     </g>
     <g id="text_9">
      <!-- 0.6 -->
      <g transform="translate(25.155 143.856809)scale(0.16 -0.16)">
       <use xlink:href="#DejaVuSans-48"/>
       <use x="63.623047" xlink:href="#DejaVuSans-46"/>
       <use x="95.410156" xlink:href="#DejaVuSans-54"/>
      </g>
     </g>
    </g>
    <g id="ytick_5">
     <g id="line2d_29">
      <path clip-path="url(#p901079364e)" d="M 57.6 84.056079 
L 338.688 84.056079 
" style="fill:none;stroke:#b0b0b0;stroke-linecap:square;stroke-width:0.8;"/>
     </g>
     <g id="line2d_30">
      <g>
       <use style="stroke:#000000;stroke-width:0.8;" x="57.6" xlink:href="#mb42809184c" y="84.056079"/>
      </g>
     </g>
     <g id="text_10">
      <!-- 0.8 -->
      <g transform="translate(25.155 90.134829)scale(0.16 -0.16)">
       <defs>
        <path d="M 31.78125 34.625 
Q 24.75 34.625 20.71875 30.859375 
Q 16.703125 27.09375 16.703125 20.515625 
Q 16.703125 13.921875 20.71875 10.15625 
Q 24.75 6.390625 31.78125 6.390625 
Q 38.8125 6.390625 42.859375 10.171875 
Q 46.921875 13.96875 46.921875 20.515625 
Q 46.921875 27.09375 42.890625 30.859375 
Q 38.875 34.625 31.78125 34.625 
z
M 21.921875 38.8125 
Q 15.578125 40.375 12.03125 44.71875 
Q 8.5 49.078125 8.5 55.328125 
Q 8.5 64.0625 14.71875 69.140625 
Q 20.953125 74.21875 31.78125 74.21875 
Q 42.671875 74.21875 48.875 69.140625 
Q 55.078125 64.0625 55.078125 55.328125 
Q 55.078125 49.078125 51.53125 44.71875 
Q 48 40.375 41.703125 38.8125 
Q 48.828125 37.15625 52.796875 32.3125 
Q 56.78125 27.484375 56.78125 20.515625 
Q 56.78125 9.90625 50.3125 4.234375 
Q 43.84375 -1.421875 31.78125 -1.421875 
Q 19.734375 -1.421875 13.25 4.234375 
Q 6.78125 9.90625 6.78125 20.515625 
Q 6.78125 27.484375 10.78125 32.3125 
Q 14.796875 37.15625 21.921875 38.8125 
z
M 18.3125 54.390625 
Q 18.3125 48.734375 21.84375 45.5625 
Q 25.390625 42.390625 31.78125 42.390625 
Q 38.140625 42.390625 41.71875 45.5625 
Q 45.3125 48.734375 45.3125 54.390625 
Q 45.3125 60.0625 41.71875 63.234375 
Q 38.140625 66.40625 31.78125 66.40625 
Q 25.390625 66.40625 21.84375 63.234375 
Q 18.3125 60.0625 18.3125 54.390625 
z
" id="DejaVuSans-56"/>
       </defs>
       <use xlink:href="#DejaVuSans-48"/>
       <use x="63.623047" xlink:href="#DejaVuSans-46"/>
       <use x="95.410156" xlink:href="#DejaVuSans-56"/>
      </g>
     </g>
    </g>
    <g id="ytick_6">
     <g id="line2d_31">
      <path clip-path="url(#p901079364e)" d="M 57.6 30.334099 
L 338.688 30.334099 
" style="fill:none;stroke:#b0b0b0;stroke-linecap:square;stroke-width:0.8;"/>
     </g>
     <g id="line2d_32">
      <g>
       <use style="stroke:#000000;stroke-width:0.8;" x="57.6" xlink:href="#mb42809184c" y="30.334099"/>
      </g>
     </g>
     <g id="text_11">
      <!-- 1.0 -->
      <g transform="translate(25.155 36.412849)scale(0.16 -0.16)">
       <use xlink:href="#DejaVuSans-49"/>
       <use x="63.623047" xlink:href="#DejaVuSans-46"/>
       <use x="95.410156" xlink:href="#DejaVuSans-48"/>
      </g>
     </g>
    </g>
    <g id="text_12">
     <!-- Fraction of function,target pairs -->
     <g transform="translate(17.619531 297.681)rotate(-90)scale(0.17 -0.17)">
      <defs>
       <path d="M 9.8125 72.90625 
L 51.703125 72.90625 
L 51.703125 64.59375 
L 19.671875 64.59375 
L 19.671875 43.109375 
L 48.578125 43.109375 
L 48.578125 34.8125 
L 19.671875 34.8125 
L 19.671875 0 
L 9.8125 0 
z
" id="DejaVuSans-70"/>
       <path d="M 41.109375 46.296875 
Q 39.59375 47.171875 37.8125 47.578125 
Q 36.03125 48 33.890625 48 
Q 26.265625 48 22.1875 43.046875 
Q 18.109375 38.09375 18.109375 28.8125 
L 18.109375 0 
L 9.078125 0 
L 9.078125 54.6875 
L 18.109375 54.6875 
L 18.109375 46.1875 
Q 20.953125 51.171875 25.484375 53.578125 
Q 30.03125 56 36.53125 56 
Q 37.453125 56 38.578125 55.875 
Q 39.703125 55.765625 41.0625 55.515625 
z
" id="DejaVuSans-114"/>
       <path d="M 48.78125 52.59375 
L 48.78125 44.1875 
Q 44.96875 46.296875 41.140625 47.34375 
Q 37.3125 48.390625 33.40625 48.390625 
Q 24.65625 48.390625 19.8125 42.84375 
Q 14.984375 37.3125 14.984375 27.296875 
Q 14.984375 17.28125 19.8125 11.734375 
Q 24.65625 6.203125 33.40625 6.203125 
Q 37.3125 6.203125 41.140625 7.25 
Q 44.96875 8.296875 48.78125 10.40625 
L 48.78125 2.09375 
Q 45.015625 0.34375 40.984375 -0.53125 
Q 36.96875 -1.421875 32.421875 -1.421875 
Q 20.0625 -1.421875 12.78125 6.34375 
Q 5.515625 14.109375 5.515625 27.296875 
Q 5.515625 40.671875 12.859375 48.328125 
Q 20.21875 56 33.015625 56 
Q 37.15625 56 41.109375 55.140625 
Q 45.0625 54.296875 48.78125 52.59375 
z
" id="DejaVuSans-99"/>
       <path d="M 18.3125 70.21875 
L 18.3125 54.6875 
L 36.8125 54.6875 
L 36.8125 47.703125 
L 18.3125 47.703125 
L 18.3125 18.015625 
Q 18.3125 11.328125 20.140625 9.421875 
Q 21.96875 7.515625 27.59375 7.515625 
L 36.8125 7.515625 
L 36.8125 0 
L 27.59375 0 
Q 17.1875 0 13.234375 3.875 
Q 9.28125 7.765625 9.28125 18.015625 
L 9.28125 47.703125 
L 2.6875 47.703125 
L 2.6875 54.6875 
L 9.28125 54.6875 
L 9.28125 70.21875 
z
" id="DejaVuSans-116"/>
       <path d="M 8.5 21.578125 
L 8.5 54.6875 
L 17.484375 54.6875 
L 17.484375 21.921875 
Q 17.484375 14.15625 20.5 10.265625 
Q 23.53125 6.390625 29.59375 6.390625 
Q 36.859375 6.390625 41.078125 11.03125 
Q 45.3125 15.671875 45.3125 23.6875 
L 45.3125 54.6875 
L 54.296875 54.6875 
L 54.296875 0 
L 45.3125 0 
L 45.3125 8.40625 
Q 42.046875 3.421875 37.71875 1 
Q 33.40625 -1.421875 27.6875 -1.421875 
Q 18.265625 -1.421875 13.375 4.4375 
Q 8.5 10.296875 8.5 21.578125 
z
M 31.109375 56 
z
" id="DejaVuSans-117"/>
       <path d="M 11.71875 12.40625 
L 22.015625 12.40625 
L 22.015625 4 
L 14.015625 -11.625 
L 7.71875 -11.625 
L 11.71875 4 
z
" id="DejaVuSans-44"/>
       <path d="M 18.109375 8.203125 
L 18.109375 -20.796875 
L 9.078125 -20.796875 
L 9.078125 54.6875 
L 18.109375 54.6875 
L 18.109375 46.390625 
Q 20.953125 51.265625 25.265625 53.625 
Q 29.59375 56 35.59375 56 
Q 45.5625 56 51.78125 48.09375 
Q 58.015625 40.1875 58.015625 27.296875 
Q 58.015625 14.40625 51.78125 6.484375 
Q 45.5625 -1.421875 35.59375 -1.421875 
Q 29.59375 -1.421875 25.265625 0.953125 
Q 20.953125 3.328125 18.109375 8.203125 
z
M 48.6875 27.296875 
Q 48.6875 37.203125 44.609375 42.84375 
Q 40.53125 48.484375 33.40625 48.484375 
Q 26.265625 48.484375 22.1875 42.84375 
Q 18.109375 37.203125 18.109375 27.296875 
Q 18.109375 17.390625 22.1875 11.75 
Q 26.265625 6.109375 33.40625 6.109375 
Q 40.53125 6.109375 44.609375 11.75 
Q 48.6875 17.390625 48.6875 27.296875 
z
" id="DejaVuSans-112"/>
      </defs>
      <use xlink:href="#DejaVuSans-70"/>
      <use x="50.269531" xlink:href="#DejaVuSans-114"/>
      <use x="91.382812" xlink:href="#DejaVuSans-97"/>
      <use x="152.662109" xlink:href="#DejaVuSans-99"/>
      <use x="207.642578" xlink:href="#DejaVuSans-116"/>
      <use x="246.851562" xlink:href="#DejaVuSans-105"/>
      <use x="274.634766" xlink:href="#DejaVuSans-111"/>
      <use x="335.816406" xlink:href="#DejaVuSans-110"/>
      <use x="399.195312" xlink:href="#DejaVuSans-32"/>
      <use x="430.982422" xlink:href="#DejaVuSans-111"/>
      <use x="492.164062" xlink:href="#DejaVuSans-102"/>
      <use x="527.369141" xlink:href="#DejaVuSans-32"/>
      <use x="559.15625" xlink:href="#DejaVuSans-102"/>
      <use x="594.361328" xlink:href="#DejaVuSans-117"/>
      <use x="657.740234" xlink:href="#DejaVuSans-110"/>
      <use x="721.119141" xlink:href="#DejaVuSans-99"/>
      <use x="776.099609" xlink:href="#DejaVuSans-116"/>
      <use x="815.308594" xlink:href="#DejaVuSans-105"/>
      <use x="843.091797" xlink:href="#DejaVuSans-111"/>
      <use x="904.273438" xlink:href="#DejaVuSans-110"/>
      <use x="967.652344" xlink:href="#DejaVuSans-44"/>
      <use x="999.439453" xlink:href="#DejaVuSans-116"/>
      <use x="1038.648438" xlink:href="#DejaVuSans-97"/>
      <use x="1099.927734" xlink:href="#DejaVuSans-114"/>
      <use x="1139.291016" xlink:href="#DejaVuSans-103"/>
      <use x="1202.767578" xlink:href="#DejaVuSans-101"/>
      <use x="1264.291016" xlink:href="#DejaVuSans-116"/>
      <use x="1303.5" xlink:href="#DejaVuSans-32"/>
      <use x="1335.287109" xlink:href="#DejaVuSans-112"/>
      <use x="1398.763672" xlink:href="#DejaVuSans-97"/>
      <use x="1460.042969" xlink:href="#DejaVuSans-105"/>
      <use x="1487.826172" xlink:href="#DejaVuSans-114"/>
      <use x="1528.939453" xlink:href="#DejaVuSans-115"/>
     </g>
    </g>
   </g>
   <g id="line2d_33">
    <defs>
     <path d="M 0 1.5 
C 0.397805 1.5 0.77937 1.341951 1.06066 1.06066 
C 1.341951 0.77937 1.5 0.397805 1.5 0 
C 1.5 -0.397805 1.341951 -0.77937 1.06066 -1.06066 
C 0.77937 -1.341951 0.397805 -1.5 0 -1.5 
C -0.397805 -1.5 -0.77937 -1.341951 -1.06066 -1.06066 
C -1.341951 -0.77937 -1.5 -0.397805 -1.5 0 
C -1.5 0.397805 -1.341951 0.77937 -1.06066 1.06066 
C -0.77937 1.341951 -0.397805 1.5 0 1.5 
z
" id="m05c5c27596" style="stroke:#f5deb3;"/>
    </defs>
    <g>
     <use style="fill:#f5deb3;stroke:#f5deb3;" x="327.888024" xlink:href="#m05c5c27596" y="127.589408"/>
     <use style="fill:#f5deb3;stroke:#f5deb3;" x="327.888024" xlink:href="#m05c5c27596" y="127.589408"/>
    </g>
   </g>
   <g id="line2d_34">
    <defs>
     <path d="M 0 1.5 
C 0.397805 1.5 0.77937 1.341951 1.06066 1.06066 
C 1.341951 0.77937 1.5 0.397805 1.5 0 
C 1.5 -0.397805 1.341951 -0.77937 1.06066 -1.06066 
C 0.77937 -1.341951 0.397805 -1.5 0 -1.5 
C -0.397805 -1.5 -0.77937 -1.341951 -1.06066 -1.06066 
C -1.341951 -0.77937 -1.5 -0.397805 -1.5 0 
C -1.5 0.397805 -1.341951 0.77937 -1.06066 1.06066 
C -0.77937 1.341951 -0.397805 1.5 0 1.5 
z
" id="md7ea57a649" style="stroke:#000080;"/>
    </defs>
    <g>
     <use style="fill:#000080;stroke:#000080;" x="249.70919" xlink:href="#md7ea57a649" y="275.787974"/>
     <use style="fill:#000080;stroke:#000080;" x="249.70919" xlink:href="#md7ea57a649" y="275.787974"/>
    </g>
   </g>
   <g id="line2d_35">
    <path d="M 17.444571 298.944 
L 17.444571 296.628397 
L 80.881459 296.628397 
L 80.881459 296.165277 
L 81.334453 296.165277 
L 81.334453 295.702156 
L 89.135256 295.702156 
L 89.135256 295.239036 
L 104.23523 295.239036 
L 104.23523 294.775915 
L 108.671345 294.775915 
L 108.671345 294.312795 
L 108.764355 294.312795 
L 108.764355 293.849674 
L 112.204777 293.849674 
L 112.204777 293.386554 
L 116.502698 293.386554 
L 116.502698 292.923433 
L 116.680349 292.923433 
L 116.680349 292.460313 
L 117.654224 292.460313 
L 117.654224 291.997192 
L 120.045484 291.997192 
L 120.045484 291.534072 
L 123.593547 291.534072 
L 123.593547 291.070951 
L 124.406624 291.070951 
L 124.406624 290.607831 
L 128.650105 290.607831 
L 128.650105 290.14471 
L 129.233413 290.14471 
L 129.233413 289.68159 
L 131.615802 289.68159 
L 131.615802 289.218469 
L 133.533096 289.218469 
L 133.533096 288.755349 
L 134.828688 288.755349 
L 134.828688 288.292228 
L 135.076644 288.292228 
L 135.076644 287.829108 
L 136.092812 287.829108 
L 136.092812 287.365987 
L 138.828032 287.365987 
L 138.828032 286.902867 
L 139.824833 286.902867 
L 139.824833 286.439746 
L 143.565632 286.439746 
L 143.565632 285.976625 
L 147.917524 285.976625 
L 147.917524 285.513505 
L 154.269814 285.513505 
L 154.269814 285.050384 
L 154.446381 285.050384 
L 154.446381 284.587264 
L 156.604476 284.587264 
L 156.604476 283.661023 
L 156.723476 283.661023 
L 156.723476 283.197902 
L 159.542562 283.197902 
L 159.542562 282.734782 
L 163.400698 282.734782 
L 163.400698 282.271661 
L 163.748975 282.271661 
L 163.748975 281.808541 
L 167.455557 281.808541 
L 167.455557 281.34542 
L 171.348301 281.34542 
L 171.348301 280.8823 
L 177.963089 280.8823 
L 177.963089 280.419179 
L 182.259268 280.419179 
L 182.259268 279.956059 
L 199.887642 279.956059 
L 199.887642 279.492938 
L 229.33441 279.492938 
L 229.33441 279.029818 
L 229.519416 279.029818 
L 229.519416 278.566697 
L 230.136546 278.566697 
L 230.136546 278.103577 
L 237.104813 278.103577 
L 237.104813 277.640456 
L 239.472196 277.640456 
L 239.472196 277.177336 
L 240.106976 277.177336 
L 240.106976 276.714215 
L 242.614503 276.714215 
L 242.614503 276.251095 
L 249.70919 276.251095 
L 249.70919 275.787974 
L 338.688 275.787974 
" style="fill:none;stroke:#000080;stroke-linecap:square;stroke-width:1.5;"/>
   </g>
   <g id="line2d_36">
    <defs>
     <path d="M 0 6 
C 1.591219 6 3.117479 5.367802 4.242641 4.242641 
C 5.367802 3.117479 6 1.591219 6 0 
C 6 -1.591219 5.367802 -3.117479 4.242641 -4.242641 
C 3.117479 -5.367802 1.591219 -6 0 -6 
C -1.591219 -6 -3.117479 -5.367802 -4.242641 -4.242641 
C -5.367802 -3.117479 -6 -1.591219 -6 0 
C -6 1.591219 -5.367802 3.117479 -4.242641 4.242641 
C -3.117479 5.367802 -1.591219 6 0 6 
z
" id="m01870e21bc" style="stroke:#000080;stroke-width:1.5;"/>
    </defs>
    <g>
     <use style="fill-opacity:0;stroke:#000080;stroke-width:1.5;" x="89.135256" xlink:href="#m01870e21bc" y="295.702156"/>
     <use style="fill-opacity:0;stroke:#000080;stroke-width:1.5;" x="138.828032" xlink:href="#m01870e21bc" y="287.365987"/>
     <use style="fill-opacity:0;stroke:#000080;stroke-width:1.5;" x="199.887642" xlink:href="#m01870e21bc" y="279.492938"/>
     <use style="fill-opacity:0;stroke:#000080;stroke-width:1.5;" x="249.70919" xlink:href="#m01870e21bc" y="275.787974"/>
     <use style="fill-opacity:0;stroke:#000080;stroke-width:1.5;" x="249.70919" xlink:href="#m01870e21bc" y="275.787974"/>
     <use style="fill-opacity:0;stroke:#000080;stroke-width:1.5;" x="338.688" xlink:href="#m01870e21bc" y="275.787974"/>
    </g>
   </g>
   <g id="line2d_37">
    <path style="fill:none;stroke:#000080;stroke-linecap:square;stroke-width:1.5;"/>
    <g/>
   </g>
   <g id="line2d_38">
    <path clip-path="url(#p901079364e)" d="M 258.377143 275.787974 
" style="fill:none;stroke:#000080;stroke-linecap:square;stroke-width:1.5;"/>
    <defs>
     <path d="M -12 12 
L 12 -12 
M -12 -12 
L 12 12 
" id="m3407a0728a" style="stroke:#000080;"/>
    </defs>
    <g clip-path="url(#p901079364e)">
     <use style="fill:#000080;stroke:#000080;" x="258.377143" xlink:href="#m3407a0728a" y="275.787974"/>
    </g>
   </g>
   <g id="line2d_39">
    <defs>
     <path d="M 0 1.5 
C 0.397805 1.5 0.77937 1.341951 1.06066 1.06066 
C 1.341951 0.77937 1.5 0.397805 1.5 0 
C 1.5 -0.397805 1.341951 -0.77937 1.06066 -1.06066 
C 0.77937 -1.341951 0.397805 -1.5 0 -1.5 
C -0.397805 -1.5 -0.77937 -1.341951 -1.06066 -1.06066 
C -1.341951 -0.77937 -1.5 -0.397805 -1.5 0 
C -1.5 0.397805 -1.341951 0.77937 -1.06066 1.06066 
C -0.77937 1.341951 -0.397805 1.5 0 1.5 
z
" id="m01076d1000" style="stroke:#ff00ff;"/>
    </defs>
    <g>
     <use style="fill:#ff00ff;stroke:#ff00ff;" x="230.694667" xlink:href="#m01076d1000" y="231.328404"/>
     <use style="fill:#ff00ff;stroke:#ff00ff;" x="230.694667" xlink:href="#m01076d1000" y="231.328404"/>
    </g>
   </g>
   <g id="line2d_40">
    <path d="M 17.444571 298.944 
L 17.444571 289.218469 
L 29.53256 289.218469 
L 29.53256 288.292228 
L 45.512012 288.292228 
L 45.512012 287.829108 
L 48.691568 287.829108 
L 48.691568 286.439746 
L 60.779557 286.439746 
L 60.779557 285.513505 
L 63.467834 285.513505 
L 63.467834 284.587264 
L 68.79347 284.587264 
L 68.79347 284.124143 
L 80.416384 284.124143 
L 80.416384 283.661023 
L 84.955534 283.661023 
L 84.955534 282.271661 
L 110.188761 282.271661 
L 110.188761 281.34542 
L 125.434921 281.34542 
L 125.434921 280.8823 
L 128.290519 280.8823 
L 128.290519 280.419179 
L 128.856489 280.419179 
L 128.856489 279.956059 
L 129.88095 279.956059 
L 129.88095 279.492938 
L 132.517825 279.492938 
L 132.517825 279.029818 
L 132.870621 279.029818 
L 132.870621 278.566697 
L 134.766144 278.566697 
L 134.766144 278.103577 
L 135.341343 278.103577 
L 135.341343 277.640456 
L 138.01518 277.640456 
L 138.01518 277.177336 
L 139.301378 277.177336 
L 139.301378 276.714215 
L 141.45 276.714215 
L 141.45 276.251095 
L 142.351634 276.251095 
L 142.351634 275.787974 
L 143.066785 275.787974 
L 143.066785 275.324854 
L 143.93988 275.324854 
L 143.93988 274.398612 
L 144.221461 274.398612 
L 144.221461 273.935492 
L 146.280909 273.935492 
L 146.280909 273.472371 
L 146.442037 273.472371 
L 146.442037 273.009251 
L 146.895853 273.009251 
L 146.895853 272.54613 
L 148.27731 272.54613 
L 148.27731 271.619889 
L 148.53525 271.619889 
L 148.601505 270.693648 
L 148.882639 270.693648 
L 148.882639 269.767407 
L 150.042389 269.767407 
L 150.042389 269.304287 
L 150.198253 269.304287 
L 150.198253 268.841166 
L 150.808139 268.841166 
L 150.808139 268.378046 
L 150.998554 268.378046 
L 150.998554 267.914925 
L 151.13797 267.914925 
L 151.13797 267.451805 
L 151.653058 267.451805 
L 151.653058 266.988684 
L 152.375429 266.988684 
L 152.375429 266.525564 
L 152.759222 266.525564 
L 152.759222 266.062443 
L 153.351929 266.062443 
L 153.351929 265.599323 
L 153.70094 265.599323 
L 153.70094 265.136202 
L 154.324333 265.136202 
L 154.324333 264.673082 
L 154.873541 264.673082 
L 154.880133 263.746841 
L 155.609431 263.746841 
L 155.609431 263.28372 
L 155.729115 263.28372 
L 155.729115 262.8206 
L 156.303376 262.8206 
L 156.303376 262.357479 
L 158.673779 262.357479 
L 158.673779 261.431238 
L 158.915995 261.431238 
L 158.915995 260.968117 
L 160.005512 260.968117 
L 160.005512 260.041876 
L 160.336402 260.041876 
L 160.336402 259.115635 
L 160.580512 259.115635 
L 160.609008 258.189394 
L 160.905434 258.189394 
L 160.905434 257.263153 
L 161.447441 257.263153 
L 161.447441 256.800033 
L 161.578106 256.800033 
L 161.578106 256.336912 
L 161.858637 256.336912 
L 161.858637 255.873792 
L 163.641632 255.873792 
L 163.697374 254.947551 
L 164.268307 254.947551 
L 164.268307 254.02131 
L 164.686444 254.02131 
L 164.686444 253.558189 
L 165.080107 253.558189 
L 165.080107 252.631948 
L 165.273656 252.631948 
L 165.273656 251.705707 
L 165.59035 251.705707 
L 165.59035 251.242587 
L 166.749257 251.242587 
L 166.81587 250.316346 
L 167.898523 250.316346 
L 167.898523 249.390104 
L 169.212991 249.390104 
L 169.212991 248.926984 
L 169.633787 248.926984 
L 169.633787 248.463863 
L 169.808266 248.463863 
L 169.808266 247.537622 
L 170.160306 247.537622 
L 170.160306 247.074502 
L 170.559106 247.074502 
L 170.559106 246.611381 
L 170.88856 246.611381 
L 170.88856 245.68514 
L 171.846131 245.68514 
L 171.915749 244.295779 
L 172.315598 244.295779 
L 172.315598 243.832658 
L 172.841133 243.832658 
L 172.841133 243.369538 
L 174.496641 243.369538 
L 174.496641 242.906417 
L 175.176589 242.906417 
L 175.176589 242.443297 
L 175.371032 242.443297 
L 175.371032 241.980176 
L 176.286908 241.980176 
L 176.286908 241.053935 
L 177.266964 241.053935 
L 177.266964 240.590815 
L 178.081974 240.590815 
L 178.081974 240.127694 
L 182.056524 240.127694 
L 182.056524 239.664574 
L 182.735382 239.664574 
L 182.735382 239.201453 
L 183.611009 239.201453 
L 183.611009 238.275212 
L 184.206035 238.275212 
L 184.206035 237.348971 
L 185.410692 237.348971 
L 185.410692 236.88585 
L 187.296451 236.88585 
L 187.296451 236.42273 
L 190.026501 236.42273 
L 190.026501 235.959609 
L 191.784679 235.959609 
L 191.784679 235.033368 
L 192.73359 235.033368 
L 192.73359 234.107127 
L 197.779677 234.107127 
L 197.779677 233.644007 
L 199.137187 233.644007 
L 199.137187 232.717766 
L 202.786084 232.717766 
L 202.786084 232.254645 
L 230.694667 232.254645 
L 230.694667 231.328404 
L 338.688 231.328404 
L 338.688 231.328404 
" style="fill:none;stroke:#ff00ff;stroke-linecap:square;stroke-width:1.5;"/>
   </g>
   <g id="line2d_41">
    <defs>
     <path d="M -0 8.485281 
L 5.091169 0 
L 0 -8.485281 
L -5.091169 -0 
z
" id="mb4bcb1e7ce" style="stroke:#ff00ff;stroke-linejoin:miter;stroke-width:1.5;"/>
    </defs>
    <g>
     <use style="fill-opacity:0;stroke:#ff00ff;stroke-linejoin:miter;stroke-width:1.5;" x="68.79347" xlink:href="#mb4bcb1e7ce" y="284.124143"/>
     <use style="fill-opacity:0;stroke:#ff00ff;stroke-linejoin:miter;stroke-width:1.5;" x="160.336402" xlink:href="#mb4bcb1e7ce" y="259.115635"/>
     <use style="fill-opacity:0;stroke:#ff00ff;stroke-linejoin:miter;stroke-width:1.5;" x="202.786084" xlink:href="#mb4bcb1e7ce" y="232.717766"/>
     <use style="fill-opacity:0;stroke:#ff00ff;stroke-linejoin:miter;stroke-width:1.5;" x="230.694667" xlink:href="#mb4bcb1e7ce" y="232.254645"/>
     <use style="fill-opacity:0;stroke:#ff00ff;stroke-linejoin:miter;stroke-width:1.5;" x="230.694667" xlink:href="#mb4bcb1e7ce" y="231.328404"/>
     <use style="fill-opacity:0;stroke:#ff00ff;stroke-linejoin:miter;stroke-width:1.5;" x="338.688" xlink:href="#mb4bcb1e7ce" y="231.328404"/>
    </g>
   </g>
   <g id="line2d_42">
    <path style="fill:none;stroke:#ff00ff;stroke-linecap:square;stroke-width:1.5;"/>
    <g/>
   </g>
   <g id="line2d_43">
    <path clip-path="url(#p901079364e)" d="M 258.37716 231.328404 
" style="fill:none;stroke:#ff00ff;stroke-linecap:square;stroke-width:1.5;"/>
    <defs>
     <path d="M -12 12 
L 12 -12 
M -12 -12 
L 12 12 
" id="maf10bd4047" style="stroke:#ff00ff;"/>
    </defs>
    <g clip-path="url(#p901079364e)">
     <use style="fill:#ff00ff;stroke:#ff00ff;" x="258.37716" xlink:href="#maf10bd4047" y="231.328404"/>
    </g>
   </g>
   <g id="line2d_44">
    <defs>
     <path d="M 0 1.5 
C 0.397805 1.5 0.77937 1.341951 1.06066 1.06066 
C 1.341951 0.77937 1.5 0.397805 1.5 0 
C 1.5 -0.397805 1.341951 -0.77937 1.06066 -1.06066 
C 0.77937 -1.341951 0.397805 -1.5 0 -1.5 
C -0.397805 -1.5 -0.77937 -1.341951 -1.06066 -1.06066 
C -1.341951 -0.77937 -1.5 -0.397805 -1.5 0 
C -1.5 0.397805 -1.341951 0.77937 -1.06066 1.06066 
C -0.77937 1.341951 -0.397805 1.5 0 1.5 
z
" id="m0cc0204320" style="stroke:#ff7500;"/>
    </defs>
    <g>
     <use style="fill:#ff7500;stroke:#ff7500;" x="255.686468" xlink:href="#m0cc0204320" y="213.266704"/>
     <use style="fill:#ff7500;stroke:#ff7500;" x="255.686468" xlink:href="#m0cc0204320" y="213.266704"/>
    </g>
   </g>
   <g id="line2d_45">
    <path d="M 150.042389 298.944 
L 150.042389 298.017759 
L 150.891184 298.017759 
L 150.891184 297.554638 
L 151.740076 297.554638 
L 151.740076 297.091518 
L 151.998557 297.091518 
L 151.998557 296.165277 
L 152.496747 296.165277 
L 152.526944 293.849674 
L 153.003132 293.849674 
L 153.003132 293.386554 
L 153.366312 293.386554 
L 153.40939 292.460313 
L 153.750233 292.460313 
L 153.750233 291.997192 
L 154.036187 291.997192 
L 154.119001 291.070951 
L 154.173993 291.070951 
L 154.235652 289.68159 
L 154.290278 289.68159 
L 154.358321 288.755349 
L 154.500352 288.755349 
L 154.580996 287.829108 
L 154.654594 287.829108 
L 154.654594 287.365987 
L 154.886723 287.365987 
L 154.972161 285.976625 
L 155.024532 285.976625 
L 155.115803 284.587264 
L 155.141793 284.587264 
L 155.206599 283.661023 
L 155.399584 283.661023 
L 155.412374 282.734782 
L 155.760475 282.734782 
L 155.86045 281.808541 
L 156.009346 281.808541 
L 156.046372 280.419179 
L 156.248622 280.419179 
L 156.357959 278.566697 
L 156.370066 278.566697 
L 156.370066 278.103577 
L 156.538679 278.103577 
L 156.646219 274.861733 
L 156.675973 274.861733 
L 156.753099 273.935492 
L 156.800392 273.935492 
L 156.800392 273.472371 
L 156.953214 273.472371 
L 156.953214 273.009251 
L 157.380981 273.009251 
L 157.380981 272.54613 
L 157.602273 272.54613 
L 157.697862 271.619889 
L 158.211713 271.619889 
L 158.233478 270.230528 
L 158.363501 270.230528 
L 158.363501 269.767407 
L 158.487203 269.767407 
L 158.487203 269.304287 
L 158.710855 269.304287 
L 158.73729 268.378046 
L 158.863624 268.378046 
L 158.863624 267.451805 
L 159.051426 267.451805 
L 159.051426 266.988684 
L 159.360003 266.988684 
L 159.415988 266.062443 
L 159.663214 266.062443 
L 159.663214 265.599323 
L 159.827761 265.599323 
L 159.827761 265.136202 
L 160.863394 265.136202 
L 160.863394 264.673082 
L 161.003133 264.673082 
L 161.054091 262.357479 
L 161.854219 262.357479 
L 161.96433 260.041876 
L 162.095552 260.041876 
L 162.095552 259.578756 
L 163.258601 259.578756 
L 163.258601 258.652515 
L 163.428979 258.652515 
L 163.428979 258.189394 
L 164.035935 258.189394 
L 164.035935 257.726274 
L 164.348911 257.726274 
L 164.348911 257.263153 
L 164.584735 257.263153 
L 164.584735 256.800033 
L 164.716466 256.800033 
L 164.783829 255.410671 
L 164.839766 255.410671 
L 164.839766 254.947551 
L 167.066705 254.947551 
L 167.066705 254.48443 
L 167.343034 254.48443 
L 167.343034 254.02131 
L 167.554616 254.02131 
L 167.554616 253.095069 
L 167.979563 253.095069 
L 167.979563 252.168828 
L 168.433833 252.168828 
L 168.433833 251.242587 
L 168.737185 251.242587 
L 168.737185 250.779466 
L 169.189797 250.779466 
L 169.189797 250.316346 
L 169.836245 250.316346 
L 169.836245 249.853225 
L 170.176764 249.853225 
L 170.176764 249.390104 
L 170.639386 249.390104 
L 170.639386 248.926984 
L 171.590146 248.926984 
L 171.590146 248.463863 
L 171.808721 248.463863 
L 171.836163 247.074502 
L 172.23782 247.074502 
L 172.23782 246.148261 
L 173.652623 246.148261 
L 173.652623 245.68514 
L 174.07645 245.68514 
L 174.07645 245.22202 
L 174.216192 245.22202 
L 174.216192 244.758899 
L 175.878531 244.758899 
L 175.906187 243.369538 
L 176.164813 243.369538 
L 176.164813 242.906417 
L 177.068663 242.906417 
L 177.08343 241.517056 
L 177.265139 241.517056 
L 177.265139 241.053935 
L 177.448587 241.053935 
L 177.448587 240.590815 
L 178.394524 240.590815 
L 178.394524 239.664574 
L 179.368015 239.664574 
L 179.368015 238.738333 
L 179.812251 238.738333 
L 179.845353 237.348971 
L 181.376149 237.348971 
L 181.376149 236.88585 
L 183.671813 236.88585 
L 183.671813 236.42273 
L 184.794473 236.42273 
L 184.794473 235.959609 
L 185.128002 235.959609 
L 185.128002 235.496489 
L 185.456414 235.496489 
L 185.456414 235.033368 
L 191.281959 235.033368 
L 191.288497 233.644007 
L 192.904972 233.644007 
L 192.904972 232.717766 
L 195.727526 232.717766 
L 195.727526 231.791525 
L 197.613897 231.791525 
L 197.613897 230.865284 
L 198.284185 230.865284 
L 198.284185 229.939043 
L 198.485974 229.939043 
L 198.485974 229.475922 
L 202.847253 229.475922 
L 202.847253 228.549681 
L 203.049475 228.549681 
L 203.049475 228.086561 
L 203.642845 228.086561 
L 203.74394 226.697199 
L 205.837547 226.697199 
L 205.837547 225.770958 
L 212.250158 225.770958 
L 212.250158 225.307837 
L 215.671387 225.307837 
L 215.671387 224.381596 
L 218.690236 224.381596 
L 218.721954 222.529114 
L 220.070092 222.529114 
L 220.070092 222.065994 
L 226.738132 222.065994 
L 226.738132 221.139753 
L 227.247084 221.139753 
L 227.247084 220.213512 
L 227.393022 220.213512 
L 227.393022 219.750391 
L 228.791209 219.750391 
L 228.791209 219.287271 
L 230.994774 219.287271 
L 230.994774 218.36103 
L 237.415218 218.36103 
L 237.415218 217.434789 
L 243.625055 217.434789 
L 243.685739 215.582307 
L 244.580934 215.582307 
L 244.580934 215.119186 
L 245.667228 215.119186 
L 245.667228 214.656066 
L 246.032664 214.656066 
L 246.032664 214.192945 
L 255.686468 214.192945 
L 255.686468 213.266704 
L 338.688 213.266704 
L 338.688 213.266704 
" style="fill:none;stroke:#ff7500;stroke-linecap:square;stroke-width:1.5;"/>
   </g>
   <g id="line2d_46">
    <defs>
     <path d="M 0 -6 
L -1.347084 -1.854102 
L -5.706339 -1.854102 
L -2.179628 0.708204 
L -3.526712 4.854102 
L -0 2.291796 
L 3.526712 4.854102 
L 2.179628 0.708204 
L 5.706339 -1.854102 
L 1.347084 -1.854102 
z
" id="ma739b4b7c0" style="stroke:#ff7500;stroke-linejoin:bevel;stroke-width:1.5;"/>
    </defs>
    <g>
     <use style="fill-opacity:0;stroke:#ff7500;stroke-linejoin:bevel;stroke-width:1.5;" x="170.639386" xlink:href="#ma739b4b7c0" y="249.390104"/>
     <use style="fill-opacity:0;stroke:#ff7500;stroke-linejoin:bevel;stroke-width:1.5;" x="228.791209" xlink:href="#ma739b4b7c0" y="219.287271"/>
     <use style="fill-opacity:0;stroke:#ff7500;stroke-linejoin:bevel;stroke-width:1.5;" x="255.686468" xlink:href="#ma739b4b7c0" y="213.266704"/>
     <use style="fill-opacity:0;stroke:#ff7500;stroke-linejoin:bevel;stroke-width:1.5;" x="255.686468" xlink:href="#ma739b4b7c0" y="213.266704"/>
     <use style="fill-opacity:0;stroke:#ff7500;stroke-linejoin:bevel;stroke-width:1.5;" x="338.688" xlink:href="#ma739b4b7c0" y="213.266704"/>
    </g>
   </g>
   <g id="line2d_47">
    <path style="fill:none;stroke:#ff7500;stroke-linecap:square;stroke-width:1.5;"/>
    <g/>
   </g>
   <g id="line2d_48">
    <path clip-path="url(#p901079364e)" d="M 258.377143 213.266704 
" style="fill:none;stroke:#ff7500;stroke-linecap:square;stroke-width:1.5;"/>
    <defs>
     <path d="M -12 12 
L 12 -12 
M -12 -12 
L 12 12 
" id="md296500e12" style="stroke:#ff7500;"/>
    </defs>
    <g clip-path="url(#p901079364e)">
     <use style="fill:#ff7500;stroke:#ff7500;" x="258.377143" xlink:href="#md296500e12" y="213.266704"/>
    </g>
   </g>
   <g id="line2d_49">
    <defs>
     <path d="M 0 1.5 
C 0.397805 1.5 0.77937 1.341951 1.06066 1.06066 
C 1.341951 0.77937 1.5 0.397805 1.5 0 
C 1.5 -0.397805 1.341951 -0.77937 1.06066 -1.06066 
C 0.77937 -1.341951 0.397805 -1.5 0 -1.5 
C -0.397805 -1.5 -0.77937 -1.341951 -1.06066 -1.06066 
C -1.341951 -0.77937 -1.5 -0.397805 -1.5 0 
C -1.5 0.397805 -1.341951 0.77937 -1.06066 1.06066 
C -0.77937 1.341951 -0.397805 1.5 0 1.5 
z
" id="m565d193b37" style="stroke:#6495ed;"/>
    </defs>
    <g>
     <use style="fill:#6495ed;stroke:#6495ed;" x="256.753347" xlink:href="#m565d193b37" y="240.127694"/>
     <use style="fill:#6495ed;stroke:#6495ed;" x="256.753347" xlink:href="#m565d193b37" y="240.127694"/>
    </g>
   </g>
   <g id="line2d_50">
    <path d="M 17.444571 298.944 
L 17.444571 292.460313 
L 116.856209 292.460313 
L 116.856209 291.997192 
L 121.219499 291.997192 
L 121.219499 291.070951 
L 121.400219 291.070951 
L 121.400219 290.607831 
L 121.800118 290.607831 
L 121.800118 290.14471 
L 126.839037 290.14471 
L 126.839037 289.68159 
L 131.790072 289.68159 
L 131.864229 287.829108 
L 131.987128 287.829108 
L 131.987128 287.365987 
L 132.870621 287.365987 
L 132.870621 286.439746 
L 134.106373 286.439746 
L 134.106373 285.976625 
L 135.321124 285.976625 
L 135.321124 285.513505 
L 135.740886 285.513505 
L 135.740886 285.050384 
L 136.150782 285.050384 
L 136.20856 284.124143 
L 136.399782 284.124143 
L 136.494612 282.734782 
L 137.162581 282.734782 
L 137.217107 281.34542 
L 137.307607 281.34542 
L 137.307607 280.8823 
L 137.540732 280.8823 
L 137.540732 280.419179 
L 137.858461 280.419179 
L 137.858461 279.956059 
L 138.392446 279.956059 
L 138.460171 278.566697 
L 139.041811 278.566697 
L 139.041811 278.103577 
L 139.220677 278.103577 
L 139.253002 277.177336 
L 139.525372 277.177336 
L 139.620495 276.251095 
L 139.667863 276.251095 
L 139.77789 275.324854 
L 139.8092 275.324854 
L 139.824833 274.398612 
L 140.514223 274.398612 
L 140.514223 273.935492 
L 141.133958 273.935492 
L 141.133958 273.472371 
L 141.364373 273.472371 
L 141.364373 273.009251 
L 142.010346 273.009251 
L 142.010346 272.54613 
L 142.51311 272.54613 
L 142.51311 272.08301 
L 142.646541 272.08301 
L 142.726112 271.156769 
L 142.884173 271.156769 
L 142.884173 270.693648 
L 143.131543 270.693648 
L 143.131543 270.230528 
L 143.853271 270.230528 
L 143.853271 269.767407 
L 144.257856 269.767407 
L 144.366588 267.914925 
L 144.981877 267.914925 
L 144.981877 267.451805 
L 146.129168 267.451805 
L 146.129168 266.988684 
L 146.377764 266.988684 
L 146.377764 266.062443 
L 147.995947 266.062443 
L 148.015498 265.136202 
L 153.13475 265.136202 
L 153.149313 263.746841 
L 153.973817 263.746841 
L 154.050017 262.8206 
L 154.93935 262.8206 
L 154.93935 262.357479 
L 161.007772 262.357479 
L 161.007772 261.894358 
L 161.689969 261.894358 
L 161.689969 261.431238 
L 168.032349 261.431238 
L 168.032349 260.504997 
L 170.601968 260.504997 
L 170.601968 260.041876 
L 172.051695 260.041876 
L 172.051695 259.578756 
L 173.492411 259.578756 
L 173.492411 258.652515 
L 186.126032 258.652515 
L 186.126032 258.189394 
L 186.999115 258.189394 
L 186.999115 257.726274 
L 187.384569 257.726274 
L 187.384569 256.800033 
L 188.51148 256.800033 
L 188.51148 256.336912 
L 189.443276 256.336912 
L 189.443276 255.873792 
L 192.012688 255.873792 
L 192.012688 255.410671 
L 194.761884 255.410671 
L 194.761884 254.947551 
L 199.906594 254.947551 
L 199.906594 254.48443 
L 200.505803 254.48443 
L 200.591323 253.095069 
L 201.570276 253.095069 
L 201.577524 251.705707 
L 202.932112 251.705707 
L 202.932112 251.242587 
L 203.757935 251.242587 
L 203.757935 250.779466 
L 206.311741 250.779466 
L 206.311741 250.316346 
L 208.294103 250.316346 
L 208.294103 249.853225 
L 208.779998 249.853225 
L 208.779998 249.390104 
L 209.002435 249.390104 
L 209.002435 248.463863 
L 213.569456 248.463863 
L 213.569456 248.000743 
L 213.913303 248.000743 
L 213.913303 247.537622 
L 216.533831 247.537622 
L 216.533831 247.074502 
L 218.02688 247.074502 
L 218.02688 246.148261 
L 222.32203 246.148261 
L 222.32203 245.68514 
L 228.482267 245.68514 
L 228.482267 244.758899 
L 240.643306 244.758899 
L 240.643306 243.832658 
L 240.955751 243.832658 
L 240.955751 243.369538 
L 242.987051 243.369538 
L 242.987051 242.443297 
L 247.913999 242.443297 
L 247.913999 241.980176 
L 250.374355 241.980176 
L 250.374355 241.053935 
L 256.753347 241.053935 
L 256.753347 240.127694 
L 338.688 240.127694 
L 338.688 240.127694 
" style="fill:none;stroke:#6495ed;stroke-linecap:square;stroke-width:1.5;"/>
   </g>
   <g id="line2d_51">
    <defs>
     <path d="M -0 6 
L 6 -6 
L -6 -6 
z
" id="m6bfd865458" style="stroke:#6495ed;stroke-linejoin:miter;stroke-width:1.5;"/>
    </defs>
    <g>
     <use style="fill-opacity:0;stroke:#6495ed;stroke-linejoin:miter;stroke-width:1.5;" x="153.13475" xlink:href="#m6bfd865458" y="264.209961"/>
     <use style="fill-opacity:0;stroke:#6495ed;stroke-linejoin:miter;stroke-width:1.5;" x="209.002435" xlink:href="#m6bfd865458" y="248.463863"/>
     <use style="fill-opacity:0;stroke:#6495ed;stroke-linejoin:miter;stroke-width:1.5;" x="256.753347" xlink:href="#m6bfd865458" y="240.127694"/>
     <use style="fill-opacity:0;stroke:#6495ed;stroke-linejoin:miter;stroke-width:1.5;" x="256.753347" xlink:href="#m6bfd865458" y="240.127694"/>
     <use style="fill-opacity:0;stroke:#6495ed;stroke-linejoin:miter;stroke-width:1.5;" x="338.688" xlink:href="#m6bfd865458" y="240.127694"/>
    </g>
   </g>
   <g id="line2d_52">
    <path style="fill:none;stroke:#6495ed;stroke-linecap:square;stroke-width:1.5;"/>
    <g/>
   </g>
   <g id="line2d_53">
    <path clip-path="url(#p901079364e)" d="M 258.378381 240.127694 
" style="fill:none;stroke:#6495ed;stroke-linecap:square;stroke-width:1.5;"/>
    <defs>
     <path d="M -12 12 
L 12 -12 
M -12 -12 
L 12 12 
" id="m3158e81d54" style="stroke:#6495ed;"/>
    </defs>
    <g clip-path="url(#p901079364e)">
     <use style="fill:#6495ed;stroke:#6495ed;" x="258.378381" xlink:href="#m3158e81d54" y="240.127694"/>
    </g>
   </g>
   <g id="line2d_54">
    <defs>
     <path d="M 0 1.5 
C 0.397805 1.5 0.77937 1.341951 1.06066 1.06066 
C 1.341951 0.77937 1.5 0.397805 1.5 0 
C 1.5 -0.397805 1.341951 -0.77937 1.06066 -1.06066 
C 0.77937 -1.341951 0.397805 -1.5 0 -1.5 
C -0.397805 -1.5 -0.77937 -1.341951 -1.06066 -1.06066 
C -1.341951 -0.77937 -1.5 -0.397805 -1.5 0 
C -1.5 0.397805 -1.341951 0.77937 -1.06066 1.06066 
C -0.77937 1.341951 -0.397805 1.5 0 1.5 
z
" id="m3f5e38505c" style="stroke:#ff0000;"/>
    </defs>
    <g>
     <use style="fill:#ff0000;stroke:#ff0000;" x="298.858761" xlink:href="#m3f5e38505c" y="152.134795"/>
     <use style="fill:#ff0000;stroke:#ff0000;" x="298.858761" xlink:href="#m3f5e38505c" y="152.134795"/>
    </g>
   </g>
   <g id="line2d_55">
    <path d="M 17.444571 298.944 
L 17.444571 289.218469 
L 29.53256 289.218469 
L 29.53256 288.292228 
L 36.60358 288.292228 
L 36.60358 287.829108 
L 41.620548 287.829108 
L 41.620548 286.902867 
L 45.512012 286.902867 
L 45.512012 285.513505 
L 53.708537 285.513505 
L 53.708537 285.050384 
L 57.6 285.050384 
L 57.6 284.587264 
L 59.262141 284.587264 
L 59.262141 284.124143 
L 60.779557 284.124143 
L 60.779557 283.661023 
L 62.175444 283.661023 
L 62.175444 280.8823 
L 63.467834 280.8823 
L 63.467834 278.103577 
L 64.67102 278.103577 
L 64.67102 277.640456 
L 65.796525 277.640456 
L 65.796525 277.177336 
L 66.853775 277.177336 
L 66.853775 274.861733 
L 67.850577 274.861733 
L 67.850577 274.398612 
L 70.538854 274.398612 
L 70.538854 273.935492 
L 73.579452 273.935492 
L 73.579452 273.472371 
L 74.921597 273.472371 
L 74.921597 273.009251 
L 78.421149 273.009251 
L 78.421149 272.54613 
L 81.775977 272.54613 
L 81.775977 272.08301 
L 83.830028 272.08301 
L 83.830028 271.619889 
L 86.012784 271.619889 
L 86.012784 271.156769 
L 90.771388 271.156769 
L 90.771388 270.693648 
L 95.326798 270.693648 
L 95.326798 270.230528 
L 96.301313 270.230528 
L 96.301313 269.767407 
L 100.934985 269.767407 
L 100.934985 269.304287 
L 102.330873 269.304287 
L 102.330873 268.841166 
L 103.372333 268.841166 
L 103.372333 267.914925 
L 105.285403 267.914925 
L 105.285403 267.451805 
L 108.483824 267.451805 
L 108.483824 266.988684 
L 109.756002 266.988684 
L 109.756002 266.525564 
L 117.429921 266.525564 
L 117.429921 266.062443 
L 120.8059 266.062443 
L 120.8059 265.599323 
L 126.673734 265.599323 
L 126.673734 265.136202 
L 128.973336 265.136202 
L 128.973336 264.209961 
L 129.79784 264.209961 
L 129.79784 263.746841 
L 133.755823 263.746841 
L 133.755823 263.28372 
L 138.711825 263.28372 
L 138.711825 262.357479 
L 139.762215 262.357479 
L 139.762215 261.894358 
L 140.272217 261.894358 
L 140.272217 260.968117 
L 142.778958 260.968117 
L 142.871056 260.041876 
L 145.132366 260.041876 
L 145.132366 259.578756 
L 161.999419 259.578756 
L 161.999419 259.115635 
L 177.387048 259.115635 
L 177.387048 258.652515 
L 178.15153 258.652515 
L 178.15153 257.726274 
L 179.358302 257.726274 
L 179.358302 257.263153 
L 179.588351 257.263153 
L 179.620286 256.336912 
L 179.839052 256.336912 
L 179.839052 255.410671 
L 180.859381 255.410671 
L 180.859381 254.48443 
L 180.992596 254.48443 
L 180.992596 254.02131 
L 181.260369 254.02131 
L 181.286487 253.095069 
L 181.508353 253.095069 
L 181.618236 251.705707 
L 182.282564 251.705707 
L 182.354991 248.926984 
L 182.931748 248.926984 
L 182.931748 248.000743 
L 183.431162 248.000743 
L 183.506643 247.074502 
L 184.253798 247.074502 
L 184.314843 246.148261 
L 184.562917 246.148261 
L 184.562917 245.68514 
L 192.529336 245.68514 
L 192.56886 243.832658 
L 192.883361 243.832658 
L 192.924324 241.980176 
L 193.09827 241.980176 
L 193.09827 241.517056 
L 194.028289 241.517056 
L 194.028289 241.053935 
L 199.604921 241.053935 
L 199.604921 240.127694 
L 200.404851 240.127694 
L 200.404851 239.201453 
L 206.783465 239.201453 
L 206.783465 238.738333 
L 207.060825 238.738333 
L 207.146603 237.812091 
L 207.28167 237.812091 
L 207.364746 236.88585 
L 207.424122 236.88585 
L 207.493947 235.959609 
L 207.977868 235.959609 
L 207.977868 235.496489 
L 208.123794 235.496489 
L 208.123794 234.570248 
L 208.320892 234.570248 
L 208.320892 233.644007 
L 208.794377 233.644007 
L 208.794377 233.180886 
L 209.877517 233.180886 
L 209.877517 232.717766 
L 212.860728 232.717766 
L 212.942119 230.865284 
L 215.041878 230.865284 
L 215.131635 229.475922 
L 220.189675 229.475922 
L 220.189675 229.012802 
L 221.362134 229.012802 
L 221.368542 227.16032 
L 221.524797 227.16032 
L 221.524797 226.234079 
L 222.831065 226.234079 
L 222.831065 225.770958 
L 223.256418 225.770958 
L 223.256418 224.844717 
L 223.565423 224.844717 
L 223.565423 223.918476 
L 226.611612 223.918476 
L 226.611612 223.455355 
L 228.097415 223.455355 
L 228.190809 221.602873 
L 228.284392 221.602873 
L 228.284392 221.139753 
L 229.600612 221.139753 
L 229.600612 220.213512 
L 230.37185 220.213512 
L 230.46725 218.36103 
L 230.544504 218.36103 
L 230.57081 216.971668 
L 230.700296 216.971668 
L 230.702427 216.045427 
L 230.982949 216.045427 
L 230.982949 215.119186 
L 231.513807 215.119186 
L 231.513807 214.656066 
L 231.98064 214.656066 
L 232.017127 212.803583 
L 233.099455 212.803583 
L 233.099455 212.340463 
L 234.015393 212.340463 
L 234.100636 210.487981 
L 234.132039 210.487981 
L 234.168209 209.56174 
L 234.331749 209.56174 
L 234.331749 208.635499 
L 235.008395 208.635499 
L 235.008395 207.709258 
L 236.107827 207.709258 
L 236.107827 207.246137 
L 239.543052 207.246137 
L 239.543052 206.783017 
L 241.57992 206.783017 
L 241.57992 206.319896 
L 241.77665 206.319896 
L 241.77665 205.393655 
L 241.942881 205.393655 
L 241.942881 204.467414 
L 242.518692 204.467414 
L 242.518692 204.004294 
L 242.711719 204.004294 
L 242.711719 203.078053 
L 245.706617 203.078053 
L 245.706617 202.151812 
L 246.325982 202.151812 
L 246.325982 201.225571 
L 248.048115 201.225571 
L 248.048115 200.76245 
L 248.39815 200.76245 
L 248.39815 199.836209 
L 250.265514 199.836209 
L 250.265514 198.909968 
L 250.419249 198.909968 
L 250.419249 198.446847 
L 250.942686 198.446847 
L 250.942686 197.520606 
L 251.412847 197.520606 
L 251.412847 196.594365 
L 251.882867 196.594365 
L 251.882867 196.131245 
L 254.785528 196.131245 
L 254.785528 195.668124 
L 256.090156 195.668124 
L 256.090156 195.205004 
L 257.59523 195.205004 
L 257.59523 194.741883 
L 258.513905 194.741883 
L 258.513905 193.815642 
L 258.730469 193.815642 
L 258.730469 193.352522 
L 258.869212 193.352522 
L 258.870789 192.426281 
L 259.32566 192.426281 
L 259.32566 191.96316 
L 260.234255 191.96316 
L 260.234255 191.036919 
L 260.471174 191.036919 
L 260.471174 190.573799 
L 261.752414 190.573799 
L 261.752414 190.110678 
L 262.000403 190.110678 
L 262.000403 189.647558 
L 262.273781 189.647558 
L 262.273781 189.184437 
L 262.980293 189.184437 
L 262.980293 188.721316 
L 266.631992 188.721316 
L 266.675456 187.795075 
L 270.503377 187.795075 
L 270.503377 187.331955 
L 271.682544 187.331955 
L 271.682544 186.405714 
L 272.147466 186.405714 
L 272.211925 185.016352 
L 272.893166 185.016352 
L 272.893166 184.553232 
L 273.312887 184.553232 
L 273.312887 184.090111 
L 275.648682 184.090111 
L 275.680962 182.237629 
L 278.233609 182.237629 
L 278.233609 181.311388 
L 278.781861 181.311388 
L 278.781861 180.385147 
L 279.750633 180.385147 
L 279.750633 179.458906 
L 280.771425 179.458906 
L 280.771425 178.995786 
L 281.042144 178.995786 
L 281.084474 178.069545 
L 281.229382 178.069545 
L 281.229382 177.606424 
L 282.225557 177.606424 
L 282.225557 177.143304 
L 282.511945 177.143304 
L 282.511945 176.217062 
L 282.626732 176.217062 
L 282.626732 175.753942 
L 282.871326 175.753942 
L 282.871326 174.827701 
L 283.474236 174.827701 
L 283.474236 174.36458 
L 283.60945 174.36458 
L 283.618308 172.975219 
L 283.877078 172.975219 
L 283.877078 172.512098 
L 284.179299 172.512098 
L 284.179299 172.048978 
L 284.319619 172.048978 
L 284.319619 171.122737 
L 284.637512 171.122737 
L 284.637512 170.659616 
L 285.096113 170.659616 
L 285.096113 170.196496 
L 285.45446 170.196496 
L 285.45446 169.733375 
L 285.628373 169.733375 
L 285.628373 169.270255 
L 285.905146 169.270255 
L 285.905146 168.807134 
L 287.301234 168.807134 
L 287.301234 168.344014 
L 289.090463 168.344014 
L 289.090463 167.880893 
L 289.934459 167.880893 
L 289.934459 166.954652 
L 290.561227 166.954652 
L 290.561227 166.491532 
L 291.16416 166.491532 
L 291.262441 165.565291 
L 291.929451 165.565291 
L 291.974786 163.712808 
L 292.756511 163.712808 
L 292.756511 163.249688 
L 293.514229 163.249688 
L 293.514229 162.786567 
L 293.755686 162.786567 
L 293.755686 162.323447 
L 293.972553 162.323447 
L 294.035098 161.397206 
L 294.427312 161.397206 
L 294.4772 160.470965 
L 294.836472 160.470965 
L 294.836472 160.007844 
L 295.319209 160.007844 
L 295.319209 159.544724 
L 295.605255 159.544724 
L 295.605255 158.618483 
L 295.8578 158.618483 
L 295.8578 157.692242 
L 296.046308 157.692242 
L 296.046308 157.229121 
L 296.467016 157.229121 
L 296.467016 156.30288 
L 296.775598 156.30288 
L 296.870277 154.913519 
L 297.071691 154.913519 
L 297.071691 154.450398 
L 297.255241 154.450398 
L 297.255241 153.987278 
L 297.525335 153.987278 
L 297.525335 153.061037 
L 298.858761 153.061037 
L 298.858761 152.134795 
L 338.688 152.134795 
L 338.688 152.134795 
" style="fill:none;stroke:#ff0000;stroke-linecap:square;stroke-width:1.5;"/>
   </g>
   <g id="line2d_56">
    <defs>
     <path d="M 0 -6 
L -5.196152 -3 
L -5.196152 3 
L -0 6 
L 5.196152 3 
L 5.196152 -3 
z
" id="m9f8a0e2a00" style="stroke:#ff0000;stroke-linejoin:miter;stroke-width:1.5;"/>
    </defs>
    <g>
     <use style="fill-opacity:0;stroke:#ff0000;stroke-linejoin:miter;stroke-width:1.5;" x="140.272217" xlink:href="#m9f8a0e2a00" y="260.968117"/>
     <use style="fill-opacity:0;stroke:#ff0000;stroke-linejoin:miter;stroke-width:1.5;" x="200.404851" xlink:href="#m9f8a0e2a00" y="239.201453"/>
     <use style="fill-opacity:0;stroke:#ff0000;stroke-linejoin:miter;stroke-width:1.5;" x="262.980293" xlink:href="#m9f8a0e2a00" y="188.721316"/>
     <use style="fill-opacity:0;stroke:#ff0000;stroke-linejoin:miter;stroke-width:1.5;" x="298.858761" xlink:href="#m9f8a0e2a00" y="152.134795"/>
     <use style="fill-opacity:0;stroke:#ff0000;stroke-linejoin:miter;stroke-width:1.5;" x="338.688" xlink:href="#m9f8a0e2a00" y="152.134795"/>
    </g>
   </g>
   <g id="line2d_57">
    <path style="fill:none;stroke:#ff0000;stroke-linecap:square;stroke-width:1.5;"/>
    <g/>
   </g>
   <g id="line2d_58">
    <path clip-path="url(#p901079364e)" d="M 301.568705 152.134795 
" style="fill:none;stroke:#ff0000;stroke-linecap:square;stroke-width:1.5;"/>
    <defs>
     <path d="M -12 12 
L 12 -12 
M -12 -12 
L 12 12 
" id="mb4f173e6ef" style="stroke:#ff0000;"/>
    </defs>
    <g clip-path="url(#p901079364e)">
     <use style="fill:#ff0000;stroke:#ff0000;" x="301.568705" xlink:href="#mb4f173e6ef" y="152.134795"/>
    </g>
   </g>
   <g id="line2d_59">
    <path d="M 338.688 275.787974 
L 369.60768 293.571802 
" style="fill:none;stroke:#000080;stroke-linecap:square;stroke-width:1.5;"/>
    <g>
     <use style="fill-opacity:0;stroke:#000080;stroke-width:1.5;" x="338.688" xlink:href="#m01870e21bc" y="275.787974"/>
     <use style="fill-opacity:0;stroke:#000080;stroke-width:1.5;" x="369.60768" xlink:href="#m01870e21bc" y="293.571802"/>
    </g>
   </g>
   <g id="line2d_60">
    <path d="M 338.688 240.127694 
L 369.60768 241.998701 
" style="fill:none;stroke:#6495ed;stroke-linecap:square;stroke-width:1.5;"/>
    <g>
     <use style="fill-opacity:0;stroke:#6495ed;stroke-linejoin:miter;stroke-width:1.5;" x="338.688" xlink:href="#m6bfd865458" y="240.127694"/>
     <use style="fill-opacity:0;stroke:#6495ed;stroke-linejoin:miter;stroke-width:1.5;" x="369.60768" xlink:href="#m6bfd865458" y="241.998701"/>
    </g>
   </g>
   <g id="line2d_61">
    <path d="M 338.688 231.328404 
L 369.60768 190.4256 
" style="fill:none;stroke:#ff00ff;stroke-linecap:square;stroke-width:1.5;"/>
    <g>
     <use style="fill-opacity:0;stroke:#ff00ff;stroke-linejoin:miter;stroke-width:1.5;" x="338.688" xlink:href="#mb4bcb1e7ce" y="231.328404"/>
     <use style="fill-opacity:0;stroke:#ff00ff;stroke-linejoin:miter;stroke-width:1.5;" x="369.60768" xlink:href="#mb4bcb1e7ce" y="190.4256"/>
    </g>
   </g>
   <g id="line2d_62">
    <path d="M 338.688 213.266704 
L 369.60768 138.852499 
" style="fill:none;stroke:#ff7500;stroke-linecap:square;stroke-width:1.5;"/>
    <g>
     <use style="fill-opacity:0;stroke:#ff7500;stroke-linejoin:bevel;stroke-width:1.5;" x="338.688" xlink:href="#ma739b4b7c0" y="213.266704"/>
     <use style="fill-opacity:0;stroke:#ff7500;stroke-linejoin:bevel;stroke-width:1.5;" x="369.60768" xlink:href="#ma739b4b7c0" y="138.852499"/>
    </g>
   </g>
   <g id="line2d_63">
    <path d="M 338.688 152.134795 
L 369.60768 87.279398 
" style="fill:none;stroke:#ff0000;stroke-linecap:square;stroke-width:1.5;"/>
    <g>
     <use style="fill-opacity:0;stroke:#ff0000;stroke-linejoin:miter;stroke-width:1.5;" x="338.688" xlink:href="#m9f8a0e2a00" y="152.134795"/>
     <use style="fill-opacity:0;stroke:#ff0000;stroke-linejoin:miter;stroke-width:1.5;" x="369.60768" xlink:href="#m9f8a0e2a00" y="87.279398"/>
    </g>
   </g>
   <g id="line2d_64">
    <path d="M 338.688 298.944 
L 338.688 30.334099 
" style="fill:none;stroke:#000000;stroke-linecap:square;stroke-width:1.5;"/>
   </g>
   <g id="patch_3">
    <path d="M 57.6 298.944 
L 57.6 27.648 
" style="fill:none;stroke:#000000;stroke-linecap:square;stroke-linejoin:miter;stroke-width:0.8;"/>
   </g>
   <g id="patch_4">
    <path d="M 338.688 298.944 
L 338.688 27.648 
" style="fill:none;stroke:#000000;stroke-linecap:square;stroke-linejoin:miter;stroke-width:0.8;"/>
   </g>
   <g id="patch_5">
    <path d="M 57.6 298.944 
L 338.688 298.944 
" style="fill:none;stroke:#000000;stroke-linecap:square;stroke-linejoin:miter;stroke-width:0.8;"/>
   </g>
   <g id="patch_6">
    <path d="M 57.6 27.648 
L 338.688 27.648 
" style="fill:none;stroke:#000000;stroke-linecap:square;stroke-linejoin:miter;stroke-width:0.8;"/>
   </g>
   <g id="text_13">
    <!-- MOLE -->
    <g transform="translate(375.22944 298.262739)scale(0.17 -0.17)">
     <defs>
      <path d="M 9.8125 72.90625 
L 24.515625 72.90625 
L 43.109375 23.296875 
L 61.8125 72.90625 
L 76.515625 72.90625 
L 76.515625 0 
L 66.890625 0 
L 66.890625 64.015625 
L 48.09375 14.015625 
L 38.1875 14.015625 
L 19.390625 64.015625 
L 19.390625 0 
L 9.8125 0 
z
" id="DejaVuSans-77"/>
      <path d="M 39.40625 66.21875 
Q 28.65625 66.21875 22.328125 58.203125 
Q 16.015625 50.203125 16.015625 36.375 
Q 16.015625 22.609375 22.328125 14.59375 
Q 28.65625 6.59375 39.40625 6.59375 
Q 50.140625 6.59375 56.421875 14.59375 
Q 62.703125 22.609375 62.703125 36.375 
Q 62.703125 50.203125 56.421875 58.203125 
Q 50.140625 66.21875 39.40625 66.21875 
z
M 39.40625 74.21875 
Q 54.734375 74.21875 63.90625 63.9375 
Q 73.09375 53.65625 73.09375 36.375 
Q 73.09375 19.140625 63.90625 8.859375 
Q 54.734375 -1.421875 39.40625 -1.421875 
Q 24.03125 -1.421875 14.8125 8.828125 
Q 5.609375 19.09375 5.609375 36.375 
Q 5.609375 53.65625 14.8125 63.9375 
Q 24.03125 74.21875 39.40625 74.21875 
z
" id="DejaVuSans-79"/>
      <path d="M 9.8125 72.90625 
L 19.671875 72.90625 
L 19.671875 8.296875 
L 55.171875 8.296875 
L 55.171875 0 
L 9.8125 0 
z
" id="DejaVuSans-76"/>
      <path d="M 9.8125 72.90625 
L 55.90625 72.90625 
L 55.90625 64.59375 
L 19.671875 64.59375 
L 19.671875 43.015625 
L 54.390625 43.015625 
L 54.390625 34.71875 
L 19.671875 34.71875 
L 19.671875 8.296875 
L 56.78125 8.296875 
L 56.78125 0 
L 9.8125 0 
z
" id="DejaVuSans-69"/>
     </defs>
     <use xlink:href="#DejaVuSans-77"/>
     <use x="86.279297" xlink:href="#DejaVuSans-79"/>
     <use x="164.990234" xlink:href="#DejaVuSans-76"/>
     <use x="220.703125" xlink:href="#DejaVuSans-69"/>
    </g>
   </g>
   <g id="text_14">
    <!-- NSGA-II-M -->
    <g transform="translate(375.22944 246.689638)scale(0.17 -0.17)">
     <defs>
      <path d="M 9.8125 72.90625 
L 23.09375 72.90625 
L 55.421875 11.921875 
L 55.421875 72.90625 
L 64.984375 72.90625 
L 64.984375 0 
L 51.703125 0 
L 19.390625 60.984375 
L 19.390625 0 
L 9.8125 0 
z
" id="DejaVuSans-78"/>
      <path d="M 53.515625 70.515625 
L 53.515625 60.890625 
Q 47.90625 63.578125 42.921875 64.890625 
Q 37.9375 66.21875 33.296875 66.21875 
Q 25.25 66.21875 20.875 63.09375 
Q 16.5 59.96875 16.5 54.203125 
Q 16.5 49.359375 19.40625 46.890625 
Q 22.3125 44.4375 30.421875 42.921875 
L 36.375 41.703125 
Q 47.40625 39.59375 52.65625 34.296875 
Q 57.90625 29 57.90625 20.125 
Q 57.90625 9.515625 50.796875 4.046875 
Q 43.703125 -1.421875 29.984375 -1.421875 
Q 24.8125 -1.421875 18.96875 -0.25 
Q 13.140625 0.921875 6.890625 3.21875 
L 6.890625 13.375 
Q 12.890625 10.015625 18.65625 8.296875 
Q 24.421875 6.59375 29.984375 6.59375 
Q 38.421875 6.59375 43.015625 9.90625 
Q 47.609375 13.234375 47.609375 19.390625 
Q 47.609375 24.75 44.3125 27.78125 
Q 41.015625 30.8125 33.5 32.328125 
L 27.484375 33.5 
Q 16.453125 35.6875 11.515625 40.375 
Q 6.59375 45.0625 6.59375 53.421875 
Q 6.59375 63.09375 13.40625 68.65625 
Q 20.21875 74.21875 32.171875 74.21875 
Q 37.3125 74.21875 42.625 73.28125 
Q 47.953125 72.359375 53.515625 70.515625 
z
" id="DejaVuSans-83"/>
      <path d="M 59.515625 10.40625 
L 59.515625 29.984375 
L 43.40625 29.984375 
L 43.40625 38.09375 
L 69.28125 38.09375 
L 69.28125 6.78125 
Q 63.578125 2.734375 56.6875 0.65625 
Q 49.8125 -1.421875 42 -1.421875 
Q 24.90625 -1.421875 15.25 8.5625 
Q 5.609375 18.5625 5.609375 36.375 
Q 5.609375 54.25 15.25 64.234375 
Q 24.90625 74.21875 42 74.21875 
Q 49.125 74.21875 55.546875 72.453125 
Q 61.96875 70.703125 67.390625 67.28125 
L 67.390625 56.78125 
Q 61.921875 61.421875 55.765625 63.765625 
Q 49.609375 66.109375 42.828125 66.109375 
Q 29.4375 66.109375 22.71875 58.640625 
Q 16.015625 51.171875 16.015625 36.375 
Q 16.015625 21.625 22.71875 14.15625 
Q 29.4375 6.6875 42.828125 6.6875 
Q 48.046875 6.6875 52.140625 7.59375 
Q 56.25 8.5 59.515625 10.40625 
z
" id="DejaVuSans-71"/>
      <path d="M 34.1875 63.1875 
L 20.796875 26.90625 
L 47.609375 26.90625 
z
M 28.609375 72.90625 
L 39.796875 72.90625 
L 67.578125 0 
L 57.328125 0 
L 50.6875 18.703125 
L 17.828125 18.703125 
L 11.1875 0 
L 0.78125 0 
z
" id="DejaVuSans-65"/>
      <path d="M 9.8125 72.90625 
L 19.671875 72.90625 
L 19.671875 0 
L 9.8125 0 
z
" id="DejaVuSans-73"/>
     </defs>
     <use xlink:href="#DejaVuSans-78"/>
     <use x="74.804688" xlink:href="#DejaVuSans-83"/>
     <use x="138.28125" xlink:href="#DejaVuSans-71"/>
     <use x="215.771484" xlink:href="#DejaVuSans-65"/>
     <use x="281.929688" xlink:href="#DejaVuSans-45"/>
     <use x="318.013672" xlink:href="#DejaVuSans-73"/>
     <use x="347.505859" xlink:href="#DejaVuSans-73"/>
     <use x="376.998047" xlink:href="#DejaVuSans-45"/>
     <use x="413.082031" xlink:href="#DejaVuSans-77"/>
    </g>
   </g>
   <g id="text_15">
    <!-- SMS-EMOA- -->
    <g transform="translate(375.22944 195.116537)scale(0.17 -0.17)">
     <use xlink:href="#DejaVuSans-83"/>
     <use x="63.476562" xlink:href="#DejaVuSans-77"/>
     <use x="149.755859" xlink:href="#DejaVuSans-83"/>
     <use x="213.232422" xlink:href="#DejaVuSans-45"/>
     <use x="249.316406" xlink:href="#DejaVuSans-69"/>
     <use x="312.5" xlink:href="#DejaVuSans-77"/>
     <use x="398.779297" xlink:href="#DejaVuSans-79"/>
     <use x="475.740234" xlink:href="#DejaVuSans-65"/>
     <use x="541.898438" xlink:href="#DejaVuSans-45"/>
    </g>
   </g>
   <g id="text_16">
    <!-- RM-MEDA A -->
    <g transform="translate(375.22944 143.543437)scale(0.17 -0.17)">
     <defs>
      <path d="M 44.390625 34.1875 
Q 47.5625 33.109375 50.5625 29.59375 
Q 53.5625 26.078125 56.59375 19.921875 
L 66.609375 0 
L 56 0 
L 46.6875 18.703125 
Q 43.0625 26.03125 39.671875 28.421875 
Q 36.28125 30.8125 30.421875 30.8125 
L 19.671875 30.8125 
L 19.671875 0 
L 9.8125 0 
L 9.8125 72.90625 
L 32.078125 72.90625 
Q 44.578125 72.90625 50.734375 67.671875 
Q 56.890625 62.453125 56.890625 51.90625 
Q 56.890625 45.015625 53.6875 40.46875 
Q 50.484375 35.9375 44.390625 34.1875 
z
M 19.671875 64.796875 
L 19.671875 38.921875 
L 32.078125 38.921875 
Q 39.203125 38.921875 42.84375 42.21875 
Q 46.484375 45.515625 46.484375 51.90625 
Q 46.484375 58.296875 42.84375 61.546875 
Q 39.203125 64.796875 32.078125 64.796875 
z
" id="DejaVuSans-82"/>
      <path d="M 19.671875 64.796875 
L 19.671875 8.109375 
L 31.59375 8.109375 
Q 46.6875 8.109375 53.6875 14.9375 
Q 60.6875 21.78125 60.6875 36.53125 
Q 60.6875 51.171875 53.6875 57.984375 
Q 46.6875 64.796875 31.59375 64.796875 
z
M 9.8125 72.90625 
L 30.078125 72.90625 
Q 51.265625 72.90625 61.171875 64.09375 
Q 71.09375 55.28125 71.09375 36.53125 
Q 71.09375 17.671875 61.125 8.828125 
Q 51.171875 0 30.078125 0 
L 9.8125 0 
z
" id="DejaVuSans-68"/>
     </defs>
     <use xlink:href="#DejaVuSans-82"/>
     <use x="69.482422" xlink:href="#DejaVuSans-77"/>
     <use x="155.761719" xlink:href="#DejaVuSans-45"/>
     <use x="191.845703" xlink:href="#DejaVuSans-77"/>
     <use x="278.125" xlink:href="#DejaVuSans-69"/>
     <use x="341.308594" xlink:href="#DejaVuSans-68"/>
     <use x="416.560547" xlink:href="#DejaVuSans-65"/>
     <use x="484.96875" xlink:href="#DejaVuSans-32"/>
     <use x="516.755859" xlink:href="#DejaVuSans-65"/>
    </g>
   </g>
   <g id="text_17">
    <!-- HMO-CMA-E -->
    <g transform="translate(375.22944 91.970336)scale(0.17 -0.17)">
     <defs>
      <path d="M 9.8125 72.90625 
L 19.671875 72.90625 
L 19.671875 43.015625 
L 55.515625 43.015625 
L 55.515625 72.90625 
L 65.375 72.90625 
L 65.375 0 
L 55.515625 0 
L 55.515625 34.71875 
L 19.671875 34.71875 
L 19.671875 0 
L 9.8125 0 
z
" id="DejaVuSans-72"/>
      <path d="M 64.40625 67.28125 
L 64.40625 56.890625 
Q 59.421875 61.53125 53.78125 63.8125 
Q 48.140625 66.109375 41.796875 66.109375 
Q 29.296875 66.109375 22.65625 58.46875 
Q 16.015625 50.828125 16.015625 36.375 
Q 16.015625 21.96875 22.65625 14.328125 
Q 29.296875 6.6875 41.796875 6.6875 
Q 48.140625 6.6875 53.78125 8.984375 
Q 59.421875 11.28125 64.40625 15.921875 
L 64.40625 5.609375 
Q 59.234375 2.09375 53.4375 0.328125 
Q 47.65625 -1.421875 41.21875 -1.421875 
Q 24.65625 -1.421875 15.125 8.703125 
Q 5.609375 18.84375 5.609375 36.375 
Q 5.609375 53.953125 15.125 64.078125 
Q 24.65625 74.21875 41.21875 74.21875 
Q 47.75 74.21875 53.53125 72.484375 
Q 59.328125 70.75 64.40625 67.28125 
z
" id="DejaVuSans-67"/>
     </defs>
     <use xlink:href="#DejaVuSans-72"/>
     <use x="75.195312" xlink:href="#DejaVuSans-77"/>
     <use x="161.474609" xlink:href="#DejaVuSans-79"/>
     <use x="242.935547" xlink:href="#DejaVuSans-45"/>
     <use x="279.019531" xlink:href="#DejaVuSans-67"/>
     <use x="348.84375" xlink:href="#DejaVuSans-77"/>
     <use x="435.123047" xlink:href="#DejaVuSans-65"/>
     <use x="501.28125" xlink:href="#DejaVuSans-45"/>
     <use x="537.365234" xlink:href="#DejaVuSans-69"/>
    </g>
   </g>
   <g id="text_18">
    <!-- best 2016 -->
    <g transform="translate(375.22944 40.397235)scale(0.17 -0.17)">
     <defs>
      <path d="M 48.6875 27.296875 
Q 48.6875 37.203125 44.609375 42.84375 
Q 40.53125 48.484375 33.40625 48.484375 
Q 26.265625 48.484375 22.1875 42.84375 
Q 18.109375 37.203125 18.109375 27.296875 
Q 18.109375 17.390625 22.1875 11.75 
Q 26.265625 6.109375 33.40625 6.109375 
Q 40.53125 6.109375 44.609375 11.75 
Q 48.6875 17.390625 48.6875 27.296875 
z
M 18.109375 46.390625 
Q 20.953125 51.265625 25.265625 53.625 
Q 29.59375 56 35.59375 56 
Q 45.5625 56 51.78125 48.09375 
Q 58.015625 40.1875 58.015625 27.296875 
Q 58.015625 14.40625 51.78125 6.484375 
Q 45.5625 -1.421875 35.59375 -1.421875 
Q 29.59375 -1.421875 25.265625 0.953125 
Q 20.953125 3.328125 18.109375 8.203125 
L 18.109375 0 
L 9.078125 0 
L 9.078125 75.984375 
L 18.109375 75.984375 
z
" id="DejaVuSans-98"/>
     </defs>
     <use xlink:href="#DejaVuSans-98"/>
     <use x="63.476562" xlink:href="#DejaVuSans-101"/>
     <use x="125" xlink:href="#DejaVuSans-115"/>
     <use x="177.099609" xlink:href="#DejaVuSans-116"/>
     <use x="216.308594" xlink:href="#DejaVuSans-32"/>
     <use x="248.095703" xlink:href="#DejaVuSans-50"/>
     <use x="311.71875" xlink:href="#DejaVuSans-48"/>
     <use x="375.341797" xlink:href="#DejaVuSans-49"/>
     <use x="438.964844" xlink:href="#DejaVuSans-54"/>
    </g>
   </g>
   <g id="text_19">
    <!-- bbob-biobj f25, 10-D -->
    <g transform="translate(60.41088 38.111366)scale(0.102 -0.102)">
     <defs>
      <path d="M 9.421875 54.6875 
L 18.40625 54.6875 
L 18.40625 -0.984375 
Q 18.40625 -11.421875 14.421875 -16.109375 
Q 10.453125 -20.796875 1.609375 -20.796875 
L -1.8125 -20.796875 
L -1.8125 -13.1875 
L 0.59375 -13.1875 
Q 5.71875 -13.1875 7.5625 -10.8125 
Q 9.421875 -8.453125 9.421875 -0.984375 
z
M 9.421875 75.984375 
L 18.40625 75.984375 
L 18.40625 64.59375 
L 9.421875 64.59375 
z
" id="DejaVuSans-106"/>
      <path d="M 10.796875 72.90625 
L 49.515625 72.90625 
L 49.515625 64.59375 
L 19.828125 64.59375 
L 19.828125 46.734375 
Q 21.96875 47.46875 24.109375 47.828125 
Q 26.265625 48.1875 28.421875 48.1875 
Q 40.625 48.1875 47.75 41.5 
Q 54.890625 34.8125 54.890625 23.390625 
Q 54.890625 11.625 47.5625 5.09375 
Q 40.234375 -1.421875 26.90625 -1.421875 
Q 22.3125 -1.421875 17.546875 -0.640625 
Q 12.796875 0.140625 7.71875 1.703125 
L 7.71875 11.625 
Q 12.109375 9.234375 16.796875 8.0625 
Q 21.484375 6.890625 26.703125 6.890625 
Q 35.15625 6.890625 40.078125 11.328125 
Q 45.015625 15.765625 45.015625 23.390625 
Q 45.015625 31 40.078125 35.4375 
Q 35.15625 39.890625 26.703125 39.890625 
Q 22.75 39.890625 18.8125 39.015625 
Q 14.890625 38.140625 10.796875 36.28125 
z
" id="DejaVuSans-53"/>
     </defs>
     <use xlink:href="#DejaVuSans-98"/>
     <use x="63.476562" xlink:href="#DejaVuSans-98"/>
     <use x="126.953125" xlink:href="#DejaVuSans-111"/>
     <use x="188.134766" xlink:href="#DejaVuSans-98"/>
     <use x="251.611328" xlink:href="#DejaVuSans-45"/>
     <use x="287.695312" xlink:href="#DejaVuSans-98"/>
     <use x="351.171875" xlink:href="#DejaVuSans-105"/>
     <use x="378.955078" xlink:href="#DejaVuSans-111"/>
     <use x="440.136719" xlink:href="#DejaVuSans-98"/>
     <use x="503.613281" xlink:href="#DejaVuSans-106"/>
     <use x="531.396484" xlink:href="#DejaVuSans-32"/>
     <use x="563.183594" xlink:href="#DejaVuSans-102"/>
     <use x="598.388672" xlink:href="#DejaVuSans-50"/>
     <use x="662.011719" xlink:href="#DejaVuSans-53"/>
     <use x="725.634766" xlink:href="#DejaVuSans-44"/>
     <use x="757.421875" xlink:href="#DejaVuSans-32"/>
     <use x="789.208984" xlink:href="#DejaVuSans-49"/>
     <use x="852.832031" xlink:href="#DejaVuSans-48"/>
     <use x="916.455078" xlink:href="#DejaVuSans-45"/>
     <use x="952.539062" xlink:href="#DejaVuSans-68"/>
    </g>
    <!-- 58 targets: 1..-1.0e-4 -->
    <g transform="translate(60.41088 49.533135)scale(0.102 -0.102)">
     <defs>
      <path d="M 11.71875 12.40625 
L 22.015625 12.40625 
L 22.015625 0 
L 11.71875 0 
z
M 11.71875 51.703125 
L 22.015625 51.703125 
L 22.015625 39.3125 
L 11.71875 39.3125 
z
" id="DejaVuSans-58"/>
     </defs>
     <use xlink:href="#DejaVuSans-53"/>
     <use x="63.623047" xlink:href="#DejaVuSans-56"/>
     <use x="127.246094" xlink:href="#DejaVuSans-32"/>
     <use x="159.033203" xlink:href="#DejaVuSans-116"/>
     <use x="198.242188" xlink:href="#DejaVuSans-97"/>
     <use x="259.521484" xlink:href="#DejaVuSans-114"/>
     <use x="298.884766" xlink:href="#DejaVuSans-103"/>
     <use x="362.361328" xlink:href="#DejaVuSans-101"/>
     <use x="423.884766" xlink:href="#DejaVuSans-116"/>
     <use x="463.09375" xlink:href="#DejaVuSans-115"/>
     <use x="515.193359" xlink:href="#DejaVuSans-58"/>
     <use x="548.884766" xlink:href="#DejaVuSans-32"/>
     <use x="580.671875" xlink:href="#DejaVuSans-49"/>
     <use x="644.294922" xlink:href="#DejaVuSans-46"/>
     <use x="676.082031" xlink:href="#DejaVuSans-46"/>
     <use x="707.869141" xlink:href="#DejaVuSans-45"/>
     <use x="743.953125" xlink:href="#DejaVuSans-49"/>
     <use x="807.576172" xlink:href="#DejaVuSans-46"/>
     <use x="839.363281" xlink:href="#DejaVuSans-48"/>
     <use x="902.986328" xlink:href="#DejaVuSans-101"/>
     <use x="964.509766" xlink:href="#DejaVuSans-45"/>
     <use x="1000.59375" xlink:href="#DejaVuSans-52"/>
    </g>
    <!-- 10 instances -->
    <g transform="translate(60.41088 60.954904)scale(0.102 -0.102)">
     <use xlink:href="#DejaVuSans-49"/>
     <use x="63.623047" xlink:href="#DejaVuSans-48"/>
     <use x="127.246094" xlink:href="#DejaVuSans-32"/>
     <use x="159.033203" xlink:href="#DejaVuSans-105"/>
     <use x="186.816406" xlink:href="#DejaVuSans-110"/>
     <use x="250.195312" xlink:href="#DejaVuSans-115"/>
     <use x="302.294922" xlink:href="#DejaVuSans-116"/>
     <use x="341.503906" xlink:href="#DejaVuSans-97"/>
     <use x="402.783203" xlink:href="#DejaVuSans-110"/>
     <use x="466.162109" xlink:href="#DejaVuSans-99"/>
     <use x="521.142578" xlink:href="#DejaVuSans-101"/>
     <use x="582.666016" xlink:href="#DejaVuSans-115"/>
    </g>
   </g>
   <g id="text_20">
    <!-- v2.4, hv-hash=ff0e71e8cd978373 -->
    <g style="fill:#808080;" transform="translate(112.648687 294.151352)scale(0.1 -0.1)">
     <defs>
      <path d="M 54.890625 33.015625 
L 54.890625 0 
L 45.90625 0 
L 45.90625 32.71875 
Q 45.90625 40.484375 42.875 44.328125 
Q 39.84375 48.1875 33.796875 48.1875 
Q 26.515625 48.1875 22.3125 43.546875 
Q 18.109375 38.921875 18.109375 30.90625 
L 18.109375 0 
L 9.078125 0 
L 9.078125 75.984375 
L 18.109375 75.984375 
L 18.109375 46.1875 
Q 21.34375 51.125 25.703125 53.5625 
Q 30.078125 56 35.796875 56 
Q 45.21875 56 50.046875 50.171875 
Q 54.890625 44.34375 54.890625 33.015625 
z
" id="DejaVuSans-104"/>
      <path d="M 10.59375 45.40625 
L 73.1875 45.40625 
L 73.1875 37.203125 
L 10.59375 37.203125 
z
M 10.59375 25.484375 
L 73.1875 25.484375 
L 73.1875 17.1875 
L 10.59375 17.1875 
z
" id="DejaVuSans-61"/>
      <path d="M 8.203125 72.90625 
L 55.078125 72.90625 
L 55.078125 68.703125 
L 28.609375 0 
L 18.3125 0 
L 43.21875 64.59375 
L 8.203125 64.59375 
z
" id="DejaVuSans-55"/>
      <path d="M 10.984375 1.515625 
L 10.984375 10.5 
Q 14.703125 8.734375 18.5 7.8125 
Q 22.3125 6.890625 25.984375 6.890625 
Q 35.75 6.890625 40.890625 13.453125 
Q 46.046875 20.015625 46.78125 33.40625 
Q 43.953125 29.203125 39.59375 26.953125 
Q 35.25 24.703125 29.984375 24.703125 
Q 19.046875 24.703125 12.671875 31.3125 
Q 6.296875 37.9375 6.296875 49.421875 
Q 6.296875 60.640625 12.9375 67.421875 
Q 19.578125 74.21875 30.609375 74.21875 
Q 43.265625 74.21875 49.921875 64.515625 
Q 56.59375 54.828125 56.59375 36.375 
Q 56.59375 19.140625 48.40625 8.859375 
Q 40.234375 -1.421875 26.421875 -1.421875 
Q 22.703125 -1.421875 18.890625 -0.6875 
Q 15.09375 0.046875 10.984375 1.515625 
z
M 30.609375 32.421875 
Q 37.25 32.421875 41.125 36.953125 
Q 45.015625 41.5 45.015625 49.421875 
Q 45.015625 57.28125 41.125 61.84375 
Q 37.25 66.40625 30.609375 66.40625 
Q 23.96875 66.40625 20.09375 61.84375 
Q 16.21875 57.28125 16.21875 49.421875 
Q 16.21875 41.5 20.09375 36.953125 
Q 23.96875 32.421875 30.609375 32.421875 
z
" id="DejaVuSans-57"/>
      <path d="M 40.578125 39.3125 
Q 47.65625 37.796875 51.625 33 
Q 55.609375 28.21875 55.609375 21.1875 
Q 55.609375 10.40625 48.1875 4.484375 
Q 40.765625 -1.421875 27.09375 -1.421875 
Q 22.515625 -1.421875 17.65625 -0.515625 
Q 12.796875 0.390625 7.625 2.203125 
L 7.625 11.71875 
Q 11.71875 9.328125 16.59375 8.109375 
Q 21.484375 6.890625 26.8125 6.890625 
Q 36.078125 6.890625 40.9375 10.546875 
Q 45.796875 14.203125 45.796875 21.1875 
Q 45.796875 27.640625 41.28125 31.265625 
Q 36.765625 34.90625 28.71875 34.90625 
L 20.21875 34.90625 
L 20.21875 43.015625 
L 29.109375 43.015625 
Q 36.375 43.015625 40.234375 45.921875 
Q 44.09375 48.828125 44.09375 54.296875 
Q 44.09375 59.90625 40.109375 62.90625 
Q 36.140625 65.921875 28.71875 65.921875 
Q 24.65625 65.921875 20.015625 65.03125 
Q 15.375 64.15625 9.8125 62.3125 
L 9.8125 71.09375 
Q 15.4375 72.65625 20.34375 73.4375 
Q 25.25 74.21875 29.59375 74.21875 
Q 40.828125 74.21875 47.359375 69.109375 
Q 53.90625 64.015625 53.90625 55.328125 
Q 53.90625 49.265625 50.4375 45.09375 
Q 46.96875 40.921875 40.578125 39.3125 
z
" id="DejaVuSans-51"/>
     </defs>
     <use xlink:href="#DejaVuSans-118"/>
     <use x="59.179688" xlink:href="#DejaVuSans-50"/>
     <use x="122.802734" xlink:href="#DejaVuSans-46"/>
     <use x="154.589844" xlink:href="#DejaVuSans-52"/>
     <use x="218.212891" xlink:href="#DejaVuSans-44"/>
     <use x="250" xlink:href="#DejaVuSans-32"/>
     <use x="281.787109" xlink:href="#DejaVuSans-104"/>
     <use x="345.166016" xlink:href="#DejaVuSans-118"/>
     <use x="401.720703" xlink:href="#DejaVuSans-45"/>
     <use x="437.804688" xlink:href="#DejaVuSans-104"/>
     <use x="501.183594" xlink:href="#DejaVuSans-97"/>
     <use x="562.462891" xlink:href="#DejaVuSans-115"/>
     <use x="614.5625" xlink:href="#DejaVuSans-104"/>
     <use x="677.941406" xlink:href="#DejaVuSans-61"/>
     <use x="761.730469" xlink:href="#DejaVuSans-102"/>
     <use x="796.935547" xlink:href="#DejaVuSans-102"/>
     <use x="832.140625" xlink:href="#DejaVuSans-48"/>
     <use x="895.763672" xlink:href="#DejaVuSans-101"/>
     <use x="957.287109" xlink:href="#DejaVuSans-55"/>
     <use x="1020.910156" xlink:href="#DejaVuSans-49"/>
     <use x="1084.533203" xlink:href="#DejaVuSans-101"/>
     <use x="1146.056641" xlink:href="#DejaVuSans-56"/>
     <use x="1209.679688" xlink:href="#DejaVuSans-99"/>
     <use x="1264.660156" xlink:href="#DejaVuSans-100"/>
     <use x="1328.136719" xlink:href="#DejaVuSans-57"/>
     <use x="1391.759766" xlink:href="#DejaVuSans-55"/>
     <use x="1455.382812" xlink:href="#DejaVuSans-56"/>
     <use x="1519.005859" xlink:href="#DejaVuSans-51"/>
     <use x="1582.628906" xlink:href="#DejaVuSans-55"/>
     <use x="1646.251953" xlink:href="#DejaVuSans-51"/>
    </g>
   </g>
   <g id="text_21">
    <!-- 25 Attr. sector/Schaffer F7 -->
    <g transform="translate(66.890875 21.648)scale(0.2 -0.2)">
     <use xlink:href="#DejaVuSans-50"/>
     <use x="63.623047" xlink:href="#DejaVuSans-53"/>
     <use x="127.246094" xlink:href="#DejaVuSans-32"/>
     <use x="159.033203" xlink:href="#DejaVuSans-65"/>
     <use x="225.691406" xlink:href="#DejaVuSans-116"/>
     <use x="264.900391" xlink:href="#DejaVuSans-116"/>
     <use x="304.109375" xlink:href="#DejaVuSans-114"/>
     <use x="336.097656" xlink:href="#DejaVuSans-46"/>
     <use x="367.884766" xlink:href="#DejaVuSans-32"/>
     <use x="399.671875" xlink:href="#DejaVuSans-115"/>
     <use x="451.771484" xlink:href="#DejaVuSans-101"/>
     <use x="513.294922" xlink:href="#DejaVuSans-99"/>
     <use x="568.275391" xlink:href="#DejaVuSans-116"/>
     <use x="607.484375" xlink:href="#DejaVuSans-111"/>
     <use x="668.666016" xlink:href="#DejaVuSans-114"/>
     <use x="709.779297" xlink:href="#DejaVuSans-47"/>
     <use x="743.470703" xlink:href="#DejaVuSans-83"/>
     <use x="806.947266" xlink:href="#DejaVuSans-99"/>
     <use x="861.927734" xlink:href="#DejaVuSans-104"/>
     <use x="925.306641" xlink:href="#DejaVuSans-97"/>
     <use x="986.585938" xlink:href="#DejaVuSans-102"/>
     <use x="1021.791016" xlink:href="#DejaVuSans-102"/>
     <use x="1056.996094" xlink:href="#DejaVuSans-101"/>
     <use x="1118.519531" xlink:href="#DejaVuSans-114"/>
     <use x="1159.632812" xlink:href="#DejaVuSans-32"/>
     <use x="1191.419922" xlink:href="#DejaVuSans-70"/>
     <use x="1248.939453" xlink:href="#DejaVuSans-55"/>
    </g>
   </g>
  </g>
 </g>
 <defs>
  <clipPath id="p901079364e">
   <rect height="271.296" width="281.088" x="57.6" y="27.648"/>
  </clipPath>
 </defs>
</svg>
