<?xml version="1.0" encoding="utf-8" standalone="no"?>
<!DOCTYPE svg PUBLIC "-//W3C//DTD SVG 1.1//EN"
  "http://www.w3.org/Graphics/SVG/1.1/DTD/svg11.dtd">
<!-- Created with matplotlib (https://matplotlib.org/) -->
<svg height="345.6pt" version="1.1" viewBox="0 0 460.8 345.6" width="460.8pt" xmlns="http://www.w3.org/2000/svg" xmlns:xlink="http://www.w3.org/1999/xlink">
 <metadata>
  <rdf:RDF xmlns:cc="http://creativecommons.org/ns#" xmlns:dc="http://purl.org/dc/elements/1.1/" xmlns:rdf="http://www.w3.org/1999/02/22-rdf-syntax-ns#">
   <cc:Work>
    <dc:type rdf:resource="http://purl.org/dc/dcmitype/StillImage"/>
    <dc:date>2021-03-30T18:29:50.051376</dc:date>
    <dc:format>image/svg+xml</dc:format>
    <dc:creator>
     <cc:Agent>
      <dc:title>Matplotlib v3.3.4, https://matplotlib.org/</dc:title>
     </cc:Agent>
    </dc:creator>
   </cc:Work>
  </rdf:RDF>
 </metadata>
 <defs>
  <style type="text/css">*{stroke-linecap:butt;stroke-linejoin:round;}</style>
 </defs>
 <g id="figure_1">
  <g id="patch_1">
   <path d="M 0 345.6 
L 460.8 345.6 
L 460.8 0 
L 0 0 
z
" style="fill:#ffffff;"/>
  </g>
  <g id="axes_1">
   <g id="patch_2">
    <path d="M 57.6 298.944 
L 338.688 298.944 
L 338.688 27.648 
L 57.6 27.648 
z
" style="fill:#ffffff;"/>
   </g>
   <g id="line2d_1">
    <path d="M 17.444571 298.944 
L 17.444571 294.312795 
L 70.538854 294.312795 
L 70.538854 285.050384 
L 89.135256 285.050384 
L 89.135256 275.787974 
L 140.393639 275.787974 
L 140.393639 271.156769 
L 168.140524 271.156769 
L 168.140524 257.263153 
L 188.480794 257.263153 
L 188.480794 248.000743 
L 203.883781 248.000743 
L 203.883781 243.369538 
L 215.924684 243.369538 
L 215.924684 234.107127 
L 225.353086 234.107127 
L 225.353086 220.213512 
L 235.832904 220.213512 
L 235.832904 210.951101 
L 250.503707 210.951101 
L 250.503707 201.688691 
L 263.994957 201.688691 
L 263.994957 192.426281 
L 277.203631 192.426281 
L 277.203631 187.795075 
L 290.834889 187.795075 
L 290.834889 173.90146 
L 300.942188 173.90146 
L 300.942188 169.270255 
L 303.492765 169.270255 
L 303.492765 155.376639 
L 308.682802 155.376639 
L 308.682802 146.114229 
L 328.029428 146.114229 
L 328.029428 141.483024 
L 338.688 141.483024 
" style="fill:none;stroke:#f5deb3;stroke-linecap:square;stroke-width:4;"/>
   </g>
   <g id="line2d_2">
    <defs>
     <path d="M -0 7.778175 
L 7.778175 0 
L 0 -7.778175 
L -7.778175 -0 
z
" id="m8bc0277d46" style="stroke:#f5deb3;stroke-linejoin:miter;stroke-width:1.5;"/>
    </defs>
    <g>
     <use style="fill:#f5deb3;stroke:#f5deb3;stroke-linejoin:miter;stroke-width:1.5;" x="70.538854" xlink:href="#m8bc0277d46" y="285.050384"/>
     <use style="fill:#f5deb3;stroke:#f5deb3;stroke-linejoin:miter;stroke-width:1.5;" x="168.140524" xlink:href="#m8bc0277d46" y="271.156769"/>
     <use style="fill:#f5deb3;stroke:#f5deb3;stroke-linejoin:miter;stroke-width:1.5;" x="215.924684" xlink:href="#m8bc0277d46" y="234.107127"/>
     <use style="fill:#f5deb3;stroke:#f5deb3;stroke-linejoin:miter;stroke-width:1.5;" x="290.834889" xlink:href="#m8bc0277d46" y="173.90146"/>
     <use style="fill:#f5deb3;stroke:#f5deb3;stroke-linejoin:miter;stroke-width:1.5;" x="328.029428" xlink:href="#m8bc0277d46" y="141.483024"/>
     <use style="fill:#f5deb3;stroke:#f5deb3;stroke-linejoin:miter;stroke-width:1.5;" x="338.688" xlink:href="#m8bc0277d46" y="141.483024"/>
    </g>
   </g>
   <g id="line2d_3">
    <path style="fill:none;stroke:#f5deb3;stroke-linecap:square;stroke-width:4;"/>
    <g/>
   </g>
   <g id="line2d_4">
    <path d="M 338.688 141.483024 
L 369.60768 35.706297 
" style="fill:none;stroke:#f5deb3;stroke-linecap:square;stroke-width:4;"/>
    <g>
     <use style="fill:#f5deb3;stroke:#f5deb3;stroke-linejoin:miter;stroke-width:1.5;" x="338.688" xlink:href="#m8bc0277d46" y="141.483024"/>
     <use style="fill:#f5deb3;stroke:#f5deb3;stroke-linejoin:miter;stroke-width:1.5;" x="369.60768" xlink:href="#m8bc0277d46" y="35.706297"/>
    </g>
   </g>
   <g id="matplotlib.axis_1">
    <g id="xtick_1">
     <g id="line2d_5">
      <path clip-path="url(#p31bb9571f1)" d="M 57.6 298.944 
L 57.6 27.648 
" style="fill:none;stroke:#b0b0b0;stroke-linecap:square;stroke-width:0.8;"/>
     </g>
     <g id="line2d_6">
      <defs>
       <path d="M 0 0 
L 0 3.5 
" id="m4840fac962" style="stroke:#000000;stroke-width:0.8;"/>
      </defs>
      <g>
       <use style="stroke:#000000;stroke-width:0.8;" x="57.6" xlink:href="#m4840fac962" y="298.944"/>
      </g>
     </g>
     <g id="text_1">
      <!-- 0 -->
      <g transform="translate(51.2375 321.140875)scale(0.2 -0.2)">
       <defs>
        <path d="M 31.78125 66.40625 
Q 24.171875 66.40625 20.328125 58.90625 
Q 16.5 51.421875 16.5 36.375 
Q 16.5 21.390625 20.328125 13.890625 
Q 24.171875 6.390625 31.78125 6.390625 
Q 39.453125 6.390625 43.28125 13.890625 
Q 47.125 21.390625 47.125 36.375 
Q 47.125 51.421875 43.28125 58.90625 
Q 39.453125 66.40625 31.78125 66.40625 
z
M 31.78125 74.21875 
Q 44.046875 74.21875 50.515625 64.515625 
Q 56.984375 54.828125 56.984375 36.375 
Q 56.984375 17.96875 50.515625 8.265625 
Q 44.046875 -1.421875 31.78125 -1.421875 
Q 19.53125 -1.421875 13.0625 8.265625 
Q 6.59375 17.96875 6.59375 36.375 
Q 6.59375 54.828125 13.0625 64.515625 
Q 19.53125 74.21875 31.78125 74.21875 
z
" id="DejaVuSans-48"/>
       </defs>
       <use xlink:href="#DejaVuSans-48"/>
      </g>
     </g>
    </g>
    <g id="xtick_2">
     <g id="line2d_7">
      <path clip-path="url(#p31bb9571f1)" d="M 137.910857 298.944 
L 137.910857 27.648 
" style="fill:none;stroke:#b0b0b0;stroke-linecap:square;stroke-width:0.8;"/>
     </g>
     <g id="line2d_8">
      <g>
       <use style="stroke:#000000;stroke-width:0.8;" x="137.910857" xlink:href="#m4840fac962" y="298.944"/>
      </g>
     </g>
     <g id="text_2">
      <!-- 2 -->
      <g transform="translate(131.548357 321.140875)scale(0.2 -0.2)">
       <defs>
        <path d="M 19.1875 8.296875 
L 53.609375 8.296875 
L 53.609375 0 
L 7.328125 0 
L 7.328125 8.296875 
Q 12.9375 14.109375 22.625 23.890625 
Q 32.328125 33.6875 34.8125 36.53125 
Q 39.546875 41.84375 41.421875 45.53125 
Q 43.3125 49.21875 43.3125 52.78125 
Q 43.3125 58.59375 39.234375 62.25 
Q 35.15625 65.921875 28.609375 65.921875 
Q 23.96875 65.921875 18.8125 64.3125 
Q 13.671875 62.703125 7.8125 59.421875 
L 7.8125 69.390625 
Q 13.765625 71.78125 18.9375 73 
Q 24.125 74.21875 28.421875 74.21875 
Q 39.75 74.21875 46.484375 68.546875 
Q 53.21875 62.890625 53.21875 53.421875 
Q 53.21875 48.921875 51.53125 44.890625 
Q 49.859375 40.875 45.40625 35.40625 
Q 44.1875 33.984375 37.640625 27.21875 
Q 31.109375 20.453125 19.1875 8.296875 
z
" id="DejaVuSans-50"/>
       </defs>
       <use xlink:href="#DejaVuSans-50"/>
      </g>
     </g>
    </g>
    <g id="xtick_3">
     <g id="line2d_9">
      <path clip-path="url(#p31bb9571f1)" d="M 218.221714 298.944 
L 218.221714 27.648 
" style="fill:none;stroke:#b0b0b0;stroke-linecap:square;stroke-width:0.8;"/>
     </g>
     <g id="line2d_10">
      <g>
       <use style="stroke:#000000;stroke-width:0.8;" x="218.221714" xlink:href="#m4840fac962" y="298.944"/>
      </g>
     </g>
     <g id="text_3">
      <!-- 4 -->
      <g transform="translate(211.859214 321.140875)scale(0.2 -0.2)">
       <defs>
        <path d="M 37.796875 64.3125 
L 12.890625 25.390625 
L 37.796875 25.390625 
z
M 35.203125 72.90625 
L 47.609375 72.90625 
L 47.609375 25.390625 
L 58.015625 25.390625 
L 58.015625 17.1875 
L 47.609375 17.1875 
L 47.609375 0 
L 37.796875 0 
L 37.796875 17.1875 
L 4.890625 17.1875 
L 4.890625 26.703125 
z
" id="DejaVuSans-52"/>
       </defs>
       <use xlink:href="#DejaVuSans-52"/>
      </g>
     </g>
    </g>
    <g id="xtick_4">
     <g id="line2d_11">
      <path clip-path="url(#p31bb9571f1)" d="M 298.532571 298.944 
L 298.532571 27.648 
" style="fill:none;stroke:#b0b0b0;stroke-linecap:square;stroke-width:0.8;"/>
     </g>
     <g id="line2d_12">
      <g>
       <use style="stroke:#000000;stroke-width:0.8;" x="298.532571" xlink:href="#m4840fac962" y="298.944"/>
      </g>
     </g>
     <g id="text_4">
      <!-- 6 -->
      <g transform="translate(292.170071 321.140875)scale(0.2 -0.2)">
       <defs>
        <path d="M 33.015625 40.375 
Q 26.375 40.375 22.484375 35.828125 
Q 18.609375 31.296875 18.609375 23.390625 
Q 18.609375 15.53125 22.484375 10.953125 
Q 26.375 6.390625 33.015625 6.390625 
Q 39.65625 6.390625 43.53125 10.953125 
Q 47.40625 15.53125 47.40625 23.390625 
Q 47.40625 31.296875 43.53125 35.828125 
Q 39.65625 40.375 33.015625 40.375 
z
M 52.59375 71.296875 
L 52.59375 62.3125 
Q 48.875 64.0625 45.09375 64.984375 
Q 41.3125 65.921875 37.59375 65.921875 
Q 27.828125 65.921875 22.671875 59.328125 
Q 17.53125 52.734375 16.796875 39.40625 
Q 19.671875 43.65625 24.015625 45.921875 
Q 28.375 48.1875 33.59375 48.1875 
Q 44.578125 48.1875 50.953125 41.515625 
Q 57.328125 34.859375 57.328125 23.390625 
Q 57.328125 12.15625 50.6875 5.359375 
Q 44.046875 -1.421875 33.015625 -1.421875 
Q 20.359375 -1.421875 13.671875 8.265625 
Q 6.984375 17.96875 6.984375 36.375 
Q 6.984375 53.65625 15.1875 63.9375 
Q 23.390625 74.21875 37.203125 74.21875 
Q 40.921875 74.21875 44.703125 73.484375 
Q 48.484375 72.75 52.59375 71.296875 
z
" id="DejaVuSans-54"/>
       </defs>
       <use xlink:href="#DejaVuSans-54"/>
      </g>
     </g>
    </g>
    <g id="xtick_5">
     <g id="line2d_13">
      <path clip-path="url(#p31bb9571f1)" d="M 97.755429 298.944 
L 97.755429 27.648 
" style="fill:none;stroke:#b0b0b0;stroke-linecap:square;stroke-width:0.8;"/>
     </g>
     <g id="line2d_14">
      <defs>
       <path d="M 0 0 
L 0 2 
" id="m636b9d926a" style="stroke:#000000;stroke-width:0.6;"/>
      </defs>
      <g>
       <use style="stroke:#000000;stroke-width:0.6;" x="97.755429" xlink:href="#m636b9d926a" y="298.944"/>
      </g>
     </g>
    </g>
    <g id="xtick_6">
     <g id="line2d_15">
      <path clip-path="url(#p31bb9571f1)" d="M 178.066286 298.944 
L 178.066286 27.648 
" style="fill:none;stroke:#b0b0b0;stroke-linecap:square;stroke-width:0.8;"/>
     </g>
     <g id="line2d_16">
      <g>
       <use style="stroke:#000000;stroke-width:0.6;" x="178.066286" xlink:href="#m636b9d926a" y="298.944"/>
      </g>
     </g>
    </g>
    <g id="xtick_7">
     <g id="line2d_17">
      <path clip-path="url(#p31bb9571f1)" d="M 258.377143 298.944 
L 258.377143 27.648 
" style="fill:none;stroke:#b0b0b0;stroke-linecap:square;stroke-width:0.8;"/>
     </g>
     <g id="line2d_18">
      <g>
       <use style="stroke:#000000;stroke-width:0.6;" x="258.377143" xlink:href="#m636b9d926a" y="298.944"/>
      </g>
     </g>
    </g>
    <g id="xtick_8">
     <g id="line2d_19">
      <path clip-path="url(#p31bb9571f1)" d="M 338.688 298.944 
L 338.688 27.648 
" style="fill:none;stroke:#b0b0b0;stroke-linecap:square;stroke-width:0.8;"/>
     </g>
     <g id="line2d_20">
      <g>
       <use style="stroke:#000000;stroke-width:0.6;" x="338.688" xlink:href="#m636b9d926a" y="298.944"/>
      </g>
     </g>
    </g>
    <g id="text_5">
     <!-- log10(# f-evals / dimension) -->
     <g transform="translate(77.764078 342.217594)scale(0.17 -0.17)">
      <defs>
       <path d="M 9.421875 75.984375 
L 18.40625 75.984375 
L 18.40625 0 
L 9.421875 0 
z
" id="DejaVuSans-108"/>
       <path d="M 30.609375 48.390625 
Q 23.390625 48.390625 19.1875 42.75 
Q 14.984375 37.109375 14.984375 27.296875 
Q 14.984375 17.484375 19.15625 11.84375 
Q 23.34375 6.203125 30.609375 6.203125 
Q 37.796875 6.203125 41.984375 11.859375 
Q 46.1875 17.53125 46.1875 27.296875 
Q 46.1875 37.015625 41.984375 42.703125 
Q 37.796875 48.390625 30.609375 48.390625 
z
M 30.609375 56 
Q 42.328125 56 49.015625 48.375 
Q 55.71875 40.765625 55.71875 27.296875 
Q 55.71875 13.875 49.015625 6.21875 
Q 42.328125 -1.421875 30.609375 -1.421875 
Q 18.84375 -1.421875 12.171875 6.21875 
Q 5.515625 13.875 5.515625 27.296875 
Q 5.515625 40.765625 12.171875 48.375 
Q 18.84375 56 30.609375 56 
z
" id="DejaVuSans-111"/>
       <path d="M 45.40625 27.984375 
Q 45.40625 37.75 41.375 43.109375 
Q 37.359375 48.484375 30.078125 48.484375 
Q 22.859375 48.484375 18.828125 43.109375 
Q 14.796875 37.75 14.796875 27.984375 
Q 14.796875 18.265625 18.828125 12.890625 
Q 22.859375 7.515625 30.078125 7.515625 
Q 37.359375 7.515625 41.375 12.890625 
Q 45.40625 18.265625 45.40625 27.984375 
z
M 54.390625 6.78125 
Q 54.390625 -7.171875 48.1875 -13.984375 
Q 42 -20.796875 29.203125 -20.796875 
Q 24.46875 -20.796875 20.265625 -20.09375 
Q 16.0625 -19.390625 12.109375 -17.921875 
L 12.109375 -9.1875 
Q 16.0625 -11.328125 19.921875 -12.34375 
Q 23.78125 -13.375 27.78125 -13.375 
Q 36.625 -13.375 41.015625 -8.765625 
Q 45.40625 -4.15625 45.40625 5.171875 
L 45.40625 9.625 
Q 42.625 4.78125 38.28125 2.390625 
Q 33.9375 0 27.875 0 
Q 17.828125 0 11.671875 7.65625 
Q 5.515625 15.328125 5.515625 27.984375 
Q 5.515625 40.671875 11.671875 48.328125 
Q 17.828125 56 27.875 56 
Q 33.9375 56 38.28125 53.609375 
Q 42.625 51.21875 45.40625 46.390625 
L 45.40625 54.6875 
L 54.390625 54.6875 
z
" id="DejaVuSans-103"/>
       <path d="M 12.40625 8.296875 
L 28.515625 8.296875 
L 28.515625 63.921875 
L 10.984375 60.40625 
L 10.984375 69.390625 
L 28.421875 72.90625 
L 38.28125 72.90625 
L 38.28125 8.296875 
L 54.390625 8.296875 
L 54.390625 0 
L 12.40625 0 
z
" id="DejaVuSans-49"/>
       <path d="M 31 75.875 
Q 24.46875 64.65625 21.28125 53.65625 
Q 18.109375 42.671875 18.109375 31.390625 
Q 18.109375 20.125 21.3125 9.0625 
Q 24.515625 -2 31 -13.1875 
L 23.1875 -13.1875 
Q 15.875 -1.703125 12.234375 9.375 
Q 8.59375 20.453125 8.59375 31.390625 
Q 8.59375 42.28125 12.203125 53.3125 
Q 15.828125 64.359375 23.1875 75.875 
z
" id="DejaVuSans-40"/>
       <path d="M 51.125 44 
L 36.921875 44 
L 32.8125 27.6875 
L 47.125 27.6875 
z
M 43.796875 71.78125 
L 38.71875 51.515625 
L 52.984375 51.515625 
L 58.109375 71.78125 
L 65.921875 71.78125 
L 60.890625 51.515625 
L 76.125 51.515625 
L 76.125 44 
L 58.984375 44 
L 54.984375 27.6875 
L 70.515625 27.6875 
L 70.515625 20.21875 
L 53.078125 20.21875 
L 48 0 
L 40.1875 0 
L 45.21875 20.21875 
L 30.90625 20.21875 
L 25.875 0 
L 18.015625 0 
L 23.09375 20.21875 
L 7.71875 20.21875 
L 7.71875 27.6875 
L 24.90625 27.6875 
L 29 44 
L 13.28125 44 
L 13.28125 51.515625 
L 30.90625 51.515625 
L 35.890625 71.78125 
z
" id="DejaVuSans-35"/>
       <path id="DejaVuSans-32"/>
       <path d="M 37.109375 75.984375 
L 37.109375 68.5 
L 28.515625 68.5 
Q 23.6875 68.5 21.796875 66.546875 
Q 19.921875 64.59375 19.921875 59.515625 
L 19.921875 54.6875 
L 34.71875 54.6875 
L 34.71875 47.703125 
L 19.921875 47.703125 
L 19.921875 0 
L 10.890625 0 
L 10.890625 47.703125 
L 2.296875 47.703125 
L 2.296875 54.6875 
L 10.890625 54.6875 
L 10.890625 58.5 
Q 10.890625 67.625 15.140625 71.796875 
Q 19.390625 75.984375 28.609375 75.984375 
z
" id="DejaVuSans-102"/>
       <path d="M 4.890625 31.390625 
L 31.203125 31.390625 
L 31.203125 23.390625 
L 4.890625 23.390625 
z
" id="DejaVuSans-45"/>
       <path d="M 56.203125 29.59375 
L 56.203125 25.203125 
L 14.890625 25.203125 
Q 15.484375 15.921875 20.484375 11.0625 
Q 25.484375 6.203125 34.421875 6.203125 
Q 39.59375 6.203125 44.453125 7.46875 
Q 49.3125 8.734375 54.109375 11.28125 
L 54.109375 2.78125 
Q 49.265625 0.734375 44.1875 -0.34375 
Q 39.109375 -1.421875 33.890625 -1.421875 
Q 20.796875 -1.421875 13.15625 6.1875 
Q 5.515625 13.8125 5.515625 26.8125 
Q 5.515625 40.234375 12.765625 48.109375 
Q 20.015625 56 32.328125 56 
Q 43.359375 56 49.78125 48.890625 
Q 56.203125 41.796875 56.203125 29.59375 
z
M 47.21875 32.234375 
Q 47.125 39.59375 43.09375 43.984375 
Q 39.0625 48.390625 32.421875 48.390625 
Q 24.90625 48.390625 20.390625 44.140625 
Q 15.875 39.890625 15.1875 32.171875 
z
" id="DejaVuSans-101"/>
       <path d="M 2.984375 54.6875 
L 12.5 54.6875 
L 29.59375 8.796875 
L 46.6875 54.6875 
L 56.203125 54.6875 
L 35.6875 0 
L 23.484375 0 
z
" id="DejaVuSans-118"/>
       <path d="M 34.28125 27.484375 
Q 23.390625 27.484375 19.1875 25 
Q 14.984375 22.515625 14.984375 16.5 
Q 14.984375 11.71875 18.140625 8.90625 
Q 21.296875 6.109375 26.703125 6.109375 
Q 34.1875 6.109375 38.703125 11.40625 
Q 43.21875 16.703125 43.21875 25.484375 
L 43.21875 27.484375 
z
M 52.203125 31.203125 
L 52.203125 0 
L 43.21875 0 
L 43.21875 8.296875 
Q 40.140625 3.328125 35.546875 0.953125 
Q 30.953125 -1.421875 24.3125 -1.421875 
Q 15.921875 -1.421875 10.953125 3.296875 
Q 6 8.015625 6 15.921875 
Q 6 25.140625 12.171875 29.828125 
Q 18.359375 34.515625 30.609375 34.515625 
L 43.21875 34.515625 
L 43.21875 35.40625 
Q 43.21875 41.609375 39.140625 45 
Q 35.0625 48.390625 27.6875 48.390625 
Q 23 48.390625 18.546875 47.265625 
Q 14.109375 46.140625 10.015625 43.890625 
L 10.015625 52.203125 
Q 14.9375 54.109375 19.578125 55.046875 
Q 24.21875 56 28.609375 56 
Q 40.484375 56 46.34375 49.84375 
Q 52.203125 43.703125 52.203125 31.203125 
z
" id="DejaVuSans-97"/>
       <path d="M 44.28125 53.078125 
L 44.28125 44.578125 
Q 40.484375 46.53125 36.375 47.5 
Q 32.28125 48.484375 27.875 48.484375 
Q 21.1875 48.484375 17.84375 46.4375 
Q 14.5 44.390625 14.5 40.28125 
Q 14.5 37.15625 16.890625 35.375 
Q 19.28125 33.59375 26.515625 31.984375 
L 29.59375 31.296875 
Q 39.15625 29.25 43.1875 25.515625 
Q 47.21875 21.78125 47.21875 15.09375 
Q 47.21875 7.46875 41.1875 3.015625 
Q 35.15625 -1.421875 24.609375 -1.421875 
Q 20.21875 -1.421875 15.453125 -0.5625 
Q 10.6875 0.296875 5.421875 2 
L 5.421875 11.28125 
Q 10.40625 8.6875 15.234375 7.390625 
Q 20.0625 6.109375 24.8125 6.109375 
Q 31.15625 6.109375 34.5625 8.28125 
Q 37.984375 10.453125 37.984375 14.40625 
Q 37.984375 18.0625 35.515625 20.015625 
Q 33.0625 21.96875 24.703125 23.78125 
L 21.578125 24.515625 
Q 13.234375 26.265625 9.515625 29.90625 
Q 5.8125 33.546875 5.8125 39.890625 
Q 5.8125 47.609375 11.28125 51.796875 
Q 16.75 56 26.8125 56 
Q 31.78125 56 36.171875 55.265625 
Q 40.578125 54.546875 44.28125 53.078125 
z
" id="DejaVuSans-115"/>
       <path d="M 25.390625 72.90625 
L 33.6875 72.90625 
L 8.296875 -9.28125 
L 0 -9.28125 
z
" id="DejaVuSans-47"/>
       <path d="M 45.40625 46.390625 
L 45.40625 75.984375 
L 54.390625 75.984375 
L 54.390625 0 
L 45.40625 0 
L 45.40625 8.203125 
Q 42.578125 3.328125 38.25 0.953125 
Q 33.9375 -1.421875 27.875 -1.421875 
Q 17.96875 -1.421875 11.734375 6.484375 
Q 5.515625 14.40625 5.515625 27.296875 
Q 5.515625 40.1875 11.734375 48.09375 
Q 17.96875 56 27.875 56 
Q 33.9375 56 38.25 53.625 
Q 42.578125 51.265625 45.40625 46.390625 
z
M 14.796875 27.296875 
Q 14.796875 17.390625 18.875 11.75 
Q 22.953125 6.109375 30.078125 6.109375 
Q 37.203125 6.109375 41.296875 11.75 
Q 45.40625 17.390625 45.40625 27.296875 
Q 45.40625 37.203125 41.296875 42.84375 
Q 37.203125 48.484375 30.078125 48.484375 
Q 22.953125 48.484375 18.875 42.84375 
Q 14.796875 37.203125 14.796875 27.296875 
z
" id="DejaVuSans-100"/>
       <path d="M 9.421875 54.6875 
L 18.40625 54.6875 
L 18.40625 0 
L 9.421875 0 
z
M 9.421875 75.984375 
L 18.40625 75.984375 
L 18.40625 64.59375 
L 9.421875 64.59375 
z
" id="DejaVuSans-105"/>
       <path d="M 52 44.1875 
Q 55.375 50.25 60.0625 53.125 
Q 64.75 56 71.09375 56 
Q 79.640625 56 84.28125 50.015625 
Q 88.921875 44.046875 88.921875 33.015625 
L 88.921875 0 
L 79.890625 0 
L 79.890625 32.71875 
Q 79.890625 40.578125 77.09375 44.375 
Q 74.3125 48.1875 68.609375 48.1875 
Q 61.625 48.1875 57.5625 43.546875 
Q 53.515625 38.921875 53.515625 30.90625 
L 53.515625 0 
L 44.484375 0 
L 44.484375 32.71875 
Q 44.484375 40.625 41.703125 44.40625 
Q 38.921875 48.1875 33.109375 48.1875 
Q 26.21875 48.1875 22.15625 43.53125 
Q 18.109375 38.875 18.109375 30.90625 
L 18.109375 0 
L 9.078125 0 
L 9.078125 54.6875 
L 18.109375 54.6875 
L 18.109375 46.1875 
Q 21.1875 51.21875 25.484375 53.609375 
Q 29.78125 56 35.6875 56 
Q 41.65625 56 45.828125 52.96875 
Q 50 49.953125 52 44.1875 
z
" id="DejaVuSans-109"/>
       <path d="M 54.890625 33.015625 
L 54.890625 0 
L 45.90625 0 
L 45.90625 32.71875 
Q 45.90625 40.484375 42.875 44.328125 
Q 39.84375 48.1875 33.796875 48.1875 
Q 26.515625 48.1875 22.3125 43.546875 
Q 18.109375 38.921875 18.109375 30.90625 
L 18.109375 0 
L 9.078125 0 
L 9.078125 54.6875 
L 18.109375 54.6875 
L 18.109375 46.1875 
Q 21.34375 51.125 25.703125 53.5625 
Q 30.078125 56 35.796875 56 
Q 45.21875 56 50.046875 50.171875 
Q 54.890625 44.34375 54.890625 33.015625 
z
" id="DejaVuSans-110"/>
       <path d="M 8.015625 75.875 
L 15.828125 75.875 
Q 23.140625 64.359375 26.78125 53.3125 
Q 30.421875 42.28125 30.421875 31.390625 
Q 30.421875 20.453125 26.78125 9.375 
Q 23.140625 -1.703125 15.828125 -13.1875 
L 8.015625 -13.1875 
Q 14.5 -2 17.703125 9.0625 
Q 20.90625 20.125 20.90625 31.390625 
Q 20.90625 42.671875 17.703125 53.65625 
Q 14.5 64.65625 8.015625 75.875 
z
" id="DejaVuSans-41"/>
      </defs>
      <use xlink:href="#DejaVuSans-108"/>
      <use x="27.783203" xlink:href="#DejaVuSans-111"/>
      <use x="88.964844" xlink:href="#DejaVuSans-103"/>
      <use x="152.441406" xlink:href="#DejaVuSans-49"/>
      <use x="216.064453" xlink:href="#DejaVuSans-48"/>
      <use x="279.6875" xlink:href="#DejaVuSans-40"/>
      <use x="318.701172" xlink:href="#DejaVuSans-35"/>
      <use x="402.490234" xlink:href="#DejaVuSans-32"/>
      <use x="434.277344" xlink:href="#DejaVuSans-102"/>
      <use x="463.982422" xlink:href="#DejaVuSans-45"/>
      <use x="500.066406" xlink:href="#DejaVuSans-101"/>
      <use x="561.589844" xlink:href="#DejaVuSans-118"/>
      <use x="620.769531" xlink:href="#DejaVuSans-97"/>
      <use x="682.048828" xlink:href="#DejaVuSans-108"/>
      <use x="709.832031" xlink:href="#DejaVuSans-115"/>
      <use x="761.931641" xlink:href="#DejaVuSans-32"/>
      <use x="793.71875" xlink:href="#DejaVuSans-47"/>
      <use x="827.410156" xlink:href="#DejaVuSans-32"/>
      <use x="859.197266" xlink:href="#DejaVuSans-100"/>
      <use x="922.673828" xlink:href="#DejaVuSans-105"/>
      <use x="950.457031" xlink:href="#DejaVuSans-109"/>
      <use x="1047.869141" xlink:href="#DejaVuSans-101"/>
      <use x="1109.392578" xlink:href="#DejaVuSans-110"/>
      <use x="1172.771484" xlink:href="#DejaVuSans-115"/>
      <use x="1224.871094" xlink:href="#DejaVuSans-105"/>
      <use x="1252.654297" xlink:href="#DejaVuSans-111"/>
      <use x="1313.835938" xlink:href="#DejaVuSans-110"/>
      <use x="1377.214844" xlink:href="#DejaVuSans-41"/>
     </g>
    </g>
   </g>
   <g id="matplotlib.axis_2">
    <g id="ytick_1">
     <g id="line2d_21">
      <path clip-path="url(#p31bb9571f1)" d="M 57.6 298.944 
L 338.688 298.944 
" style="fill:none;stroke:#b0b0b0;stroke-linecap:square;stroke-width:0.8;"/>
     </g>
     <g id="line2d_22">
      <defs>
       <path d="M 0 0 
L -3.5 0 
" id="md2fee6d86c" style="stroke:#000000;stroke-width:0.8;"/>
      </defs>
      <g>
       <use style="stroke:#000000;stroke-width:0.8;" x="57.6" xlink:href="#md2fee6d86c" y="298.944"/>
      </g>
     </g>
     <g id="text_6">
      <!-- 0.0 -->
      <g transform="translate(25.155 305.02275)scale(0.16 -0.16)">
       <defs>
        <path d="M 10.6875 12.40625 
L 21 12.40625 
L 21 0 
L 10.6875 0 
z
" id="DejaVuSans-46"/>
       </defs>
       <use xlink:href="#DejaVuSans-48"/>
       <use x="63.623047" xlink:href="#DejaVuSans-46"/>
       <use x="95.410156" xlink:href="#DejaVuSans-48"/>
      </g>
     </g>
    </g>
    <g id="ytick_2">
     <g id="line2d_23">
      <path clip-path="url(#p31bb9571f1)" d="M 57.6 245.22202 
L 338.688 245.22202 
" style="fill:none;stroke:#b0b0b0;stroke-linecap:square;stroke-width:0.8;"/>
     </g>
     <g id="line2d_24">
      <g>
       <use style="stroke:#000000;stroke-width:0.8;" x="57.6" xlink:href="#md2fee6d86c" y="245.22202"/>
      </g>
     </g>
     <g id="text_7">
      <!-- 0.2 -->
      <g transform="translate(25.155 251.30077)scale(0.16 -0.16)">
       <use xlink:href="#DejaVuSans-48"/>
       <use x="63.623047" xlink:href="#DejaVuSans-46"/>
       <use x="95.410156" xlink:href="#DejaVuSans-50"/>
      </g>
     </g>
    </g>
    <g id="ytick_3">
     <g id="line2d_25">
      <path clip-path="url(#p31bb9571f1)" d="M 57.6 191.50004 
L 338.688 191.50004 
" style="fill:none;stroke:#b0b0b0;stroke-linecap:square;stroke-width:0.8;"/>
     </g>
     <g id="line2d_26">
      <g>
       <use style="stroke:#000000;stroke-width:0.8;" x="57.6" xlink:href="#md2fee6d86c" y="191.50004"/>
      </g>
     </g>
     <g id="text_8">
      <!-- 0.4 -->
      <g transform="translate(25.155 197.57879)scale(0.16 -0.16)">
       <use xlink:href="#DejaVuSans-48"/>
       <use x="63.623047" xlink:href="#DejaVuSans-46"/>
       <use x="95.410156" xlink:href="#DejaVuSans-52"/>
      </g>
     </g>
    </g>
    <g id="ytick_4">
     <g id="line2d_27">
      <path clip-path="url(#p31bb9571f1)" d="M 57.6 137.778059 
L 338.688 137.778059 
" style="fill:none;stroke:#b0b0b0;stroke-linecap:square;stroke-width:0.8;"/>
     </g>
     <g id="line2d_28">
      <g>
       <use style="stroke:#000000;stroke-width:0.8;" x="57.6" xlink:href="#md2fee6d86c" y="137.778059"/>
      </g>
     </g>
     <g id="text_9">
      <!-- 0.6 -->
      <g transform="translate(25.155 143.856809)scale(0.16 -0.16)">
       <use xlink:href="#DejaVuSans-48"/>
       <use x="63.623047" xlink:href="#DejaVuSans-46"/>
       <use x="95.410156" xlink:href="#DejaVuSans-54"/>
      </g>
     </g>
    </g>
    <g id="ytick_5">
     <g id="line2d_29">
      <path clip-path="url(#p31bb9571f1)" d="M 57.6 84.056079 
L 338.688 84.056079 
" style="fill:none;stroke:#b0b0b0;stroke-linecap:square;stroke-width:0.8;"/>
     </g>
     <g id="line2d_30">
      <g>
       <use style="stroke:#000000;stroke-width:0.8;" x="57.6" xlink:href="#md2fee6d86c" y="84.056079"/>
      </g>
     </g>
     <g id="text_10">
      <!-- 0.8 -->
      <g transform="translate(25.155 90.134829)scale(0.16 -0.16)">
       <defs>
        <path d="M 31.78125 34.625 
Q 24.75 34.625 20.71875 30.859375 
Q 16.703125 27.09375 16.703125 20.515625 
Q 16.703125 13.921875 20.71875 10.15625 
Q 24.75 6.390625 31.78125 6.390625 
Q 38.8125 6.390625 42.859375 10.171875 
Q 46.921875 13.96875 46.921875 20.515625 
Q 46.921875 27.09375 42.890625 30.859375 
Q 38.875 34.625 31.78125 34.625 
z
M 21.921875 38.8125 
Q 15.578125 40.375 12.03125 44.71875 
Q 8.5 49.078125 8.5 55.328125 
Q 8.5 64.0625 14.71875 69.140625 
Q 20.953125 74.21875 31.78125 74.21875 
Q 42.671875 74.21875 48.875 69.140625 
Q 55.078125 64.0625 55.078125 55.328125 
Q 55.078125 49.078125 51.53125 44.71875 
Q 48 40.375 41.703125 38.8125 
Q 48.828125 37.15625 52.796875 32.3125 
Q 56.78125 27.484375 56.78125 20.515625 
Q 56.78125 9.90625 50.3125 4.234375 
Q 43.84375 -1.421875 31.78125 -1.421875 
Q 19.734375 -1.421875 13.25 4.234375 
Q 6.78125 9.90625 6.78125 20.515625 
Q 6.78125 27.484375 10.78125 32.3125 
Q 14.796875 37.15625 21.921875 38.8125 
z
M 18.3125 54.390625 
Q 18.3125 48.734375 21.84375 45.5625 
Q 25.390625 42.390625 31.78125 42.390625 
Q 38.140625 42.390625 41.71875 45.5625 
Q 45.3125 48.734375 45.3125 54.390625 
Q 45.3125 60.0625 41.71875 63.234375 
Q 38.140625 66.40625 31.78125 66.40625 
Q 25.390625 66.40625 21.84375 63.234375 
Q 18.3125 60.0625 18.3125 54.390625 
z
" id="DejaVuSans-56"/>
       </defs>
       <use xlink:href="#DejaVuSans-48"/>
       <use x="63.623047" xlink:href="#DejaVuSans-46"/>
       <use x="95.410156" xlink:href="#DejaVuSans-56"/>
      </g>
     </g>
    </g>
    <g id="ytick_6">
     <g id="line2d_31">
      <path clip-path="url(#p31bb9571f1)" d="M 57.6 30.334099 
L 338.688 30.334099 
" style="fill:none;stroke:#b0b0b0;stroke-linecap:square;stroke-width:0.8;"/>
     </g>
     <g id="line2d_32">
      <g>
       <use style="stroke:#000000;stroke-width:0.8;" x="57.6" xlink:href="#md2fee6d86c" y="30.334099"/>
      </g>
     </g>
     <g id="text_11">
      <!-- 1.0 -->
      <g transform="translate(25.155 36.412849)scale(0.16 -0.16)">
       <use xlink:href="#DejaVuSans-49"/>
       <use x="63.623047" xlink:href="#DejaVuSans-46"/>
       <use x="95.410156" xlink:href="#DejaVuSans-48"/>
      </g>
     </g>
    </g>
    <g id="text_12">
     <!-- Fraction of function,target pairs -->
     <g transform="translate(17.619531 297.681)rotate(-90)scale(0.17 -0.17)">
      <defs>
       <path d="M 9.8125 72.90625 
L 51.703125 72.90625 
L 51.703125 64.59375 
L 19.671875 64.59375 
L 19.671875 43.109375 
L 48.578125 43.109375 
L 48.578125 34.8125 
L 19.671875 34.8125 
L 19.671875 0 
L 9.8125 0 
z
" id="DejaVuSans-70"/>
       <path d="M 41.109375 46.296875 
Q 39.59375 47.171875 37.8125 47.578125 
Q 36.03125 48 33.890625 48 
Q 26.265625 48 22.1875 43.046875 
Q 18.109375 38.09375 18.109375 28.8125 
L 18.109375 0 
L 9.078125 0 
L 9.078125 54.6875 
L 18.109375 54.6875 
L 18.109375 46.1875 
Q 20.953125 51.171875 25.484375 53.578125 
Q 30.03125 56 36.53125 56 
Q 37.453125 56 38.578125 55.875 
Q 39.703125 55.765625 41.0625 55.515625 
z
" id="DejaVuSans-114"/>
       <path d="M 48.78125 52.59375 
L 48.78125 44.1875 
Q 44.96875 46.296875 41.140625 47.34375 
Q 37.3125 48.390625 33.40625 48.390625 
Q 24.65625 48.390625 19.8125 42.84375 
Q 14.984375 37.3125 14.984375 27.296875 
Q 14.984375 17.28125 19.8125 11.734375 
Q 24.65625 6.203125 33.40625 6.203125 
Q 37.3125 6.203125 41.140625 7.25 
Q 44.96875 8.296875 48.78125 10.40625 
L 48.78125 2.09375 
Q 45.015625 0.34375 40.984375 -0.53125 
Q 36.96875 -1.421875 32.421875 -1.421875 
Q 20.0625 -1.421875 12.78125 6.34375 
Q 5.515625 14.109375 5.515625 27.296875 
Q 5.515625 40.671875 12.859375 48.328125 
Q 20.21875 56 33.015625 56 
Q 37.15625 56 41.109375 55.140625 
Q 45.0625 54.296875 48.78125 52.59375 
z
" id="DejaVuSans-99"/>
       <path d="M 18.3125 70.21875 
L 18.3125 54.6875 
L 36.8125 54.6875 
L 36.8125 47.703125 
L 18.3125 47.703125 
L 18.3125 18.015625 
Q 18.3125 11.328125 20.140625 9.421875 
Q 21.96875 7.515625 27.59375 7.515625 
L 36.8125 7.515625 
L 36.8125 0 
L 27.59375 0 
Q 17.1875 0 13.234375 3.875 
Q 9.28125 7.765625 9.28125 18.015625 
L 9.28125 47.703125 
L 2.6875 47.703125 
L 2.6875 54.6875 
L 9.28125 54.6875 
L 9.28125 70.21875 
z
" id="DejaVuSans-116"/>
       <path d="M 8.5 21.578125 
L 8.5 54.6875 
L 17.484375 54.6875 
L 17.484375 21.921875 
Q 17.484375 14.15625 20.5 10.265625 
Q 23.53125 6.390625 29.59375 6.390625 
Q 36.859375 6.390625 41.078125 11.03125 
Q 45.3125 15.671875 45.3125 23.6875 
L 45.3125 54.6875 
L 54.296875 54.6875 
L 54.296875 0 
L 45.3125 0 
L 45.3125 8.40625 
Q 42.046875 3.421875 37.71875 1 
Q 33.40625 -1.421875 27.6875 -1.421875 
Q 18.265625 -1.421875 13.375 4.4375 
Q 8.5 10.296875 8.5 21.578125 
z
M 31.109375 56 
z
" id="DejaVuSans-117"/>
       <path d="M 11.71875 12.40625 
L 22.015625 12.40625 
L 22.015625 4 
L 14.015625 -11.625 
L 7.71875 -11.625 
L 11.71875 4 
z
" id="DejaVuSans-44"/>
       <path d="M 18.109375 8.203125 
L 18.109375 -20.796875 
L 9.078125 -20.796875 
L 9.078125 54.6875 
L 18.109375 54.6875 
L 18.109375 46.390625 
Q 20.953125 51.265625 25.265625 53.625 
Q 29.59375 56 35.59375 56 
Q 45.5625 56 51.78125 48.09375 
Q 58.015625 40.1875 58.015625 27.296875 
Q 58.015625 14.40625 51.78125 6.484375 
Q 45.5625 -1.421875 35.59375 -1.421875 
Q 29.59375 -1.421875 25.265625 0.953125 
Q 20.953125 3.328125 18.109375 8.203125 
z
M 48.6875 27.296875 
Q 48.6875 37.203125 44.609375 42.84375 
Q 40.53125 48.484375 33.40625 48.484375 
Q 26.265625 48.484375 22.1875 42.84375 
Q 18.109375 37.203125 18.109375 27.296875 
Q 18.109375 17.390625 22.1875 11.75 
Q 26.265625 6.109375 33.40625 6.109375 
Q 40.53125 6.109375 44.609375 11.75 
Q 48.6875 17.390625 48.6875 27.296875 
z
" id="DejaVuSans-112"/>
      </defs>
      <use xlink:href="#DejaVuSans-70"/>
      <use x="50.269531" xlink:href="#DejaVuSans-114"/>
      <use x="91.382812" xlink:href="#DejaVuSans-97"/>
      <use x="152.662109" xlink:href="#DejaVuSans-99"/>
      <use x="207.642578" xlink:href="#DejaVuSans-116"/>
      <use x="246.851562" xlink:href="#DejaVuSans-105"/>
      <use x="274.634766" xlink:href="#DejaVuSans-111"/>
      <use x="335.816406" xlink:href="#DejaVuSans-110"/>
      <use x="399.195312" xlink:href="#DejaVuSans-32"/>
      <use x="430.982422" xlink:href="#DejaVuSans-111"/>
      <use x="492.164062" xlink:href="#DejaVuSans-102"/>
      <use x="527.369141" xlink:href="#DejaVuSans-32"/>
      <use x="559.15625" xlink:href="#DejaVuSans-102"/>
      <use x="594.361328" xlink:href="#DejaVuSans-117"/>
      <use x="657.740234" xlink:href="#DejaVuSans-110"/>
      <use x="721.119141" xlink:href="#DejaVuSans-99"/>
      <use x="776.099609" xlink:href="#DejaVuSans-116"/>
      <use x="815.308594" xlink:href="#DejaVuSans-105"/>
      <use x="843.091797" xlink:href="#DejaVuSans-111"/>
      <use x="904.273438" xlink:href="#DejaVuSans-110"/>
      <use x="967.652344" xlink:href="#DejaVuSans-44"/>
      <use x="999.439453" xlink:href="#DejaVuSans-116"/>
      <use x="1038.648438" xlink:href="#DejaVuSans-97"/>
      <use x="1099.927734" xlink:href="#DejaVuSans-114"/>
      <use x="1139.291016" xlink:href="#DejaVuSans-103"/>
      <use x="1202.767578" xlink:href="#DejaVuSans-101"/>
      <use x="1264.291016" xlink:href="#DejaVuSans-116"/>
      <use x="1303.5" xlink:href="#DejaVuSans-32"/>
      <use x="1335.287109" xlink:href="#DejaVuSans-112"/>
      <use x="1398.763672" xlink:href="#DejaVuSans-97"/>
      <use x="1460.042969" xlink:href="#DejaVuSans-105"/>
      <use x="1487.826172" xlink:href="#DejaVuSans-114"/>
      <use x="1528.939453" xlink:href="#DejaVuSans-115"/>
     </g>
    </g>
   </g>
   <g id="line2d_33">
    <defs>
     <path d="M 0 1.5 
C 0.397805 1.5 0.77937 1.341951 1.06066 1.06066 
C 1.341951 0.77937 1.5 0.397805 1.5 0 
C 1.5 -0.397805 1.341951 -0.77937 1.06066 -1.06066 
C 0.77937 -1.341951 0.397805 -1.5 0 -1.5 
C -0.397805 -1.5 -0.77937 -1.341951 -1.06066 -1.06066 
C -1.341951 -0.77937 -1.5 -0.397805 -1.5 0 
C -1.5 0.397805 -1.341951 0.77937 -1.06066 1.06066 
C -0.77937 1.341951 -0.397805 1.5 0 1.5 
z
" id="md214c89ceb" style="stroke:#f5deb3;"/>
    </defs>
    <g>
     <use style="fill:#f5deb3;stroke:#f5deb3;" x="328.029428" xlink:href="#md214c89ceb" y="141.483024"/>
     <use style="fill:#f5deb3;stroke:#f5deb3;" x="328.029428" xlink:href="#md214c89ceb" y="141.483024"/>
    </g>
   </g>
   <g id="line2d_34">
    <defs>
     <path d="M 0 1.5 
C 0.397805 1.5 0.77937 1.341951 1.06066 1.06066 
C 1.341951 0.77937 1.5 0.397805 1.5 0 
C 1.5 -0.397805 1.341951 -0.77937 1.06066 -1.06066 
C 0.77937 -1.341951 0.397805 -1.5 0 -1.5 
C -0.397805 -1.5 -0.77937 -1.341951 -1.06066 -1.06066 
C -1.341951 -0.77937 -1.5 -0.397805 -1.5 0 
C -1.5 0.397805 -1.341951 0.77937 -1.06066 1.06066 
C -0.77937 1.341951 -0.397805 1.5 0 1.5 
z
" id="me0a2e407e8" style="stroke:#000080;"/>
    </defs>
    <g>
     <use style="fill:#000080;stroke:#000080;" x="255.240385" xlink:href="#me0a2e407e8" y="275.324854"/>
     <use style="fill:#000080;stroke:#000080;" x="255.240385" xlink:href="#me0a2e407e8" y="275.324854"/>
    </g>
   </g>
   <g id="line2d_35">
    <path d="M 98.270913 298.944 
L 98.270913 298.480879 
L 101.506816 298.480879 
L 101.506816 298.017759 
L 108.671345 298.017759 
L 108.671345 297.554638 
L 116.38325 297.554638 
L 116.38325 297.091518 
L 116.502698 297.091518 
L 116.502698 296.628397 
L 117.654224 296.628397 
L 117.654224 296.165277 
L 119.850084 296.165277 
L 119.850084 295.702156 
L 120.8059 295.702156 
L 120.8059 295.239036 
L 122.740699 295.239036 
L 122.740699 294.775915 
L 123.553867 294.775915 
L 123.553867 294.312795 
L 124.330801 294.312795 
L 124.330801 293.849674 
L 125.892487 293.849674 
L 125.892487 293.386554 
L 127.923363 293.386554 
L 127.923363 292.923433 
L 127.954256 292.923433 
L 127.954256 292.460313 
L 130.344571 292.460313 
L 130.344571 291.997192 
L 130.926816 291.997192 
L 130.926816 291.534072 
L 132.517825 291.534072 
L 132.517825 291.070951 
L 133.443203 291.070951 
L 133.443203 290.607831 
L 133.931979 290.607831 
L 133.931979 290.14471 
L 135.260324 290.14471 
L 135.260324 289.68159 
L 136.494612 289.68159 
L 136.494612 289.218469 
L 137.647286 289.218469 
L 137.647286 288.755349 
L 138.032507 288.755349 
L 138.032507 288.292228 
L 139.730821 288.292228 
L 139.730821 287.829108 
L 140.514223 287.829108 
L 140.514223 287.365987 
L 141.017599 287.365987 
L 141.017599 286.439746 
L 141.913576 286.439746 
L 141.913576 285.976625 
L 141.968939 285.976625 
L 141.968939 285.513505 
L 145.338615 285.513505 
L 145.338615 285.050384 
L 145.361382 285.050384 
L 145.361382 284.124143 
L 146.041862 284.124143 
L 146.041862 283.661023 
L 146.506074 283.661023 
L 146.506074 283.197902 
L 159.557689 283.197902 
L 159.557689 282.734782 
L 174.436617 282.734782 
L 174.436617 282.271661 
L 199.521038 282.271661 
L 199.521038 281.808541 
L 201.808785 281.808541 
L 201.808785 281.34542 
L 204.396399 281.34542 
L 204.396399 280.8823 
L 204.509317 280.8823 
L 204.509317 280.419179 
L 204.669371 280.419179 
L 204.669371 279.956059 
L 225.038013 279.956059 
L 225.038013 279.492938 
L 225.09737 279.492938 
L 225.09737 279.029818 
L 239.446242 279.029818 
L 239.446242 278.566697 
L 247.888337 278.566697 
L 247.888337 277.640456 
L 248.838722 277.640456 
L 248.838722 277.177336 
L 248.843151 277.177336 
L 248.843151 276.714215 
L 248.860225 276.714215 
L 248.860225 276.251095 
L 254.880898 276.251095 
L 254.880898 275.787974 
L 255.240385 275.787974 
L 255.240385 275.324854 
L 338.688 275.324854 
" style="fill:none;stroke:#000080;stroke-linecap:square;stroke-width:1.5;"/>
   </g>
   <g id="line2d_36">
    <defs>
     <path d="M 0 6 
C 1.591219 6 3.117479 5.367802 4.242641 4.242641 
C 5.367802 3.117479 6 1.591219 6 0 
C 6 -1.591219 5.367802 -3.117479 4.242641 -4.242641 
C 3.117479 -5.367802 1.591219 -6 0 -6 
C -1.591219 -6 -3.117479 -5.367802 -4.242641 -4.242641 
C -5.367802 -3.117479 -6 -1.591219 -6 0 
C -6 1.591219 -5.367802 3.117479 -4.242641 4.242641 
C -3.117479 5.367802 -1.591219 6 0 6 
z
" id="m493ca0c195" style="stroke:#000080;stroke-width:1.5;"/>
    </defs>
    <g>
     <use style="fill-opacity:0;stroke:#000080;stroke-width:1.5;" x="140.514223" xlink:href="#m493ca0c195" y="287.365987"/>
     <use style="fill-opacity:0;stroke:#000080;stroke-width:1.5;" x="225.09737" xlink:href="#m493ca0c195" y="279.492938"/>
     <use style="fill-opacity:0;stroke:#000080;stroke-width:1.5;" x="255.240385" xlink:href="#m493ca0c195" y="275.324854"/>
     <use style="fill-opacity:0;stroke:#000080;stroke-width:1.5;" x="255.240385" xlink:href="#m493ca0c195" y="275.324854"/>
     <use style="fill-opacity:0;stroke:#000080;stroke-width:1.5;" x="338.688" xlink:href="#m493ca0c195" y="275.324854"/>
    </g>
   </g>
   <g id="line2d_37">
    <path style="fill:none;stroke:#000080;stroke-linecap:square;stroke-width:1.5;"/>
    <g/>
   </g>
   <g id="line2d_38">
    <path clip-path="url(#p31bb9571f1)" d="M 258.377143 275.324854 
" style="fill:none;stroke:#000080;stroke-linecap:square;stroke-width:1.5;"/>
    <defs>
     <path d="M -12 12 
L 12 -12 
M -12 -12 
L 12 12 
" id="mc42963ed14" style="stroke:#000080;"/>
    </defs>
    <g clip-path="url(#p31bb9571f1)">
     <use style="fill:#000080;stroke:#000080;" x="258.377143" xlink:href="#mc42963ed14" y="275.324854"/>
    </g>
   </g>
   <g id="line2d_39">
    <defs>
     <path d="M 0 1.5 
C 0.397805 1.5 0.77937 1.341951 1.06066 1.06066 
C 1.341951 0.77937 1.5 0.397805 1.5 0 
C 1.5 -0.397805 1.341951 -0.77937 1.06066 -1.06066 
C 0.77937 -1.341951 0.397805 -1.5 0 -1.5 
C -0.397805 -1.5 -0.77937 -1.341951 -1.06066 -1.06066 
C -1.341951 -0.77937 -1.5 -0.397805 -1.5 0 
C -1.5 0.397805 -1.341951 0.77937 -1.06066 1.06066 
C -0.77937 1.341951 -0.397805 1.5 0 1.5 
z
" id="m2a199d5c06" style="stroke:#ff00ff;"/>
    </defs>
    <g>
     <use style="fill:#ff00ff;stroke:#ff00ff;" x="243.492733" xlink:href="#m2a199d5c06" y="233.644007"/>
     <use style="fill:#ff00ff;stroke:#ff00ff;" x="243.492733" xlink:href="#m2a199d5c06" y="233.644007"/>
    </g>
   </g>
   <g id="line2d_40">
    <path d="M 17.444571 298.944 
L 17.444571 287.829108 
L 51.379845 287.829108 
L 51.379845 287.365987 
L 57.6 287.365987 
L 57.6 286.902867 
L 66.853775 286.902867 
L 66.853775 285.976625 
L 76.16779 285.976625 
L 76.16779 285.513505 
L 88.255778 285.513505 
L 88.255778 285.050384 
L 89.697862 285.050384 
L 89.697862 284.587264 
L 94.921215 284.587264 
L 94.921215 284.124143 
L 127.642832 284.124143 
L 127.642832 283.661023 
L 129.347769 283.661023 
L 129.347769 283.197902 
L 130.073348 283.197902 
L 130.073348 282.734782 
L 132.612604 282.734782 
L 132.612604 282.271661 
L 136.607732 282.271661 
L 136.607732 281.808541 
L 138.01518 281.808541 
L 138.01518 281.34542 
L 138.910565 281.34542 
L 138.910565 280.8823 
L 142.739338 280.8823 
L 142.752555 279.956059 
L 143.40093 279.956059 
L 143.40093 279.492938 
L 143.964547 279.492938 
L 143.964547 279.029818 
L 144.700592 279.029818 
L 144.700592 278.566697 
L 146.334784 278.566697 
L 146.334784 278.103577 
L 146.527367 278.103577 
L 146.527367 277.640456 
L 146.864572 277.640456 
L 146.916676 276.714215 
L 148.035027 276.714215 
L 148.035027 276.251095 
L 148.200145 276.251095 
L 148.200145 275.787974 
L 148.601505 275.787974 
L 148.601505 275.324854 
L 150.206871 275.324854 
L 150.206871 274.861733 
L 150.841405 274.861733 
L 150.841405 274.398612 
L 150.965587 274.398612 
L 150.965587 273.935492 
L 151.203194 273.935492 
L 151.203194 273.472371 
L 151.469695 273.472371 
L 151.509721 272.08301 
L 152.60972 272.08301 
L 152.60972 271.156769 
L 153.250915 271.156769 
L 153.250915 270.693648 
L 154.036187 270.693648 
L 154.036187 269.767407 
L 154.276638 269.767407 
L 154.324333 268.841166 
L 155.972241 268.841166 
L 155.972241 268.378046 
L 156.181465 268.378046 
L 156.212023 267.451805 
L 156.876971 267.451805 
L 156.876971 266.988684 
L 157.034952 266.988684 
L 157.034952 266.525564 
L 157.363842 266.525564 
L 157.369557 265.599323 
L 157.781772 265.599323 
L 157.781772 265.136202 
L 158.417392 265.136202 
L 158.417392 264.673082 
L 158.863624 264.673082 
L 158.957778 263.746841 
L 159.502158 263.746841 
L 159.502158 263.28372 
L 159.902044 263.28372 
L 159.902044 262.8206 
L 160.528149 262.8206 
L 160.528149 261.894358 
L 161.823263 261.894358 
L 161.858637 260.504997 
L 162.462072 260.504997 
L 162.462072 259.578756 
L 163.36427 259.578756 
L 163.36427 258.652515 
L 163.50953 258.652515 
L 163.50953 258.189394 
L 163.752938 258.189394 
L 163.752938 257.726274 
L 165.338904 257.726274 
L 165.385876 256.800033 
L 165.55465 256.800033 
L 165.55465 256.336912 
L 165.753633 256.336912 
L 165.753633 255.873792 
L 168.174383 255.873792 
L 168.174383 255.410671 
L 168.95614 255.410671 
L 168.95614 254.947551 
L 169.102542 254.947551 
L 169.102542 254.48443 
L 169.911564 254.48443 
L 169.961597 253.558189 
L 170.256089 253.558189 
L 170.256089 253.095069 
L 172.091045 253.095069 
L 172.091045 252.168828 
L 173.449287 252.168828 
L 173.449287 251.705707 
L 173.80915 251.705707 
L 173.80915 251.242587 
L 174.227062 251.242587 
L 174.227062 250.316346 
L 174.520166 250.316346 
L 174.582034 248.926984 
L 176.467508 248.926984 
L 176.467508 248.000743 
L 177.565636 248.000743 
L 177.565636 247.074502 
L 177.864572 247.074502 
L 177.864572 246.611381 
L 178.654423 246.611381 
L 178.654423 246.148261 
L 179.128459 246.148261 
L 179.128459 245.68514 
L 179.395508 245.68514 
L 179.395508 244.758899 
L 181.038247 244.758899 
L 181.038247 243.832658 
L 183.125928 243.832658 
L 183.125928 243.369538 
L 185.10938 243.369538 
L 185.10938 242.443297 
L 185.994813 242.443297 
L 185.994813 241.980176 
L 187.239861 241.980176 
L 187.324164 240.590815 
L 188.264466 240.590815 
L 188.264466 239.664574 
L 189.077994 239.664574 
L 189.077994 239.201453 
L 189.24782 239.201453 
L 189.24782 238.275212 
L 189.565461 238.275212 
L 189.565461 237.812091 
L 193.438154 237.812091 
L 193.438154 237.348971 
L 196.64129 237.348971 
L 196.64129 236.42273 
L 198.2261 236.42273 
L 198.2261 235.496489 
L 206.709719 235.496489 
L 206.709719 234.570248 
L 213.240982 234.570248 
L 213.240982 234.107127 
L 243.492733 234.107127 
L 243.492733 233.644007 
L 338.688 233.644007 
L 338.688 233.644007 
" style="fill:none;stroke:#ff00ff;stroke-linecap:square;stroke-width:1.5;"/>
   </g>
   <g id="line2d_41">
    <defs>
     <path d="M -0 8.485281 
L 5.091169 0 
L 0 -8.485281 
L -5.091169 -0 
z
" id="m4704c2a55f" style="stroke:#ff00ff;stroke-linejoin:miter;stroke-width:1.5;"/>
    </defs>
    <g>
     <use style="fill-opacity:0;stroke:#ff00ff;stroke-linejoin:miter;stroke-width:1.5;" x="66.853775" xlink:href="#m4704c2a55f" y="285.976625"/>
     <use style="fill-opacity:0;stroke:#ff00ff;stroke-linejoin:miter;stroke-width:1.5;" x="142.739338" xlink:href="#m4704c2a55f" y="280.8823"/>
     <use style="fill-opacity:0;stroke:#ff00ff;stroke-linejoin:miter;stroke-width:1.5;" x="193.438154" xlink:href="#m4704c2a55f" y="237.812091"/>
     <use style="fill-opacity:0;stroke:#ff00ff;stroke-linejoin:miter;stroke-width:1.5;" x="243.492733" xlink:href="#m4704c2a55f" y="234.107127"/>
     <use style="fill-opacity:0;stroke:#ff00ff;stroke-linejoin:miter;stroke-width:1.5;" x="243.492733" xlink:href="#m4704c2a55f" y="233.644007"/>
     <use style="fill-opacity:0;stroke:#ff00ff;stroke-linejoin:miter;stroke-width:1.5;" x="338.688" xlink:href="#m4704c2a55f" y="233.644007"/>
    </g>
   </g>
   <g id="line2d_42">
    <path style="fill:none;stroke:#ff00ff;stroke-linecap:square;stroke-width:1.5;"/>
    <g/>
   </g>
   <g id="line2d_43">
    <path clip-path="url(#p31bb9571f1)" d="M 258.37716 233.644007 
" style="fill:none;stroke:#ff00ff;stroke-linecap:square;stroke-width:1.5;"/>
    <defs>
     <path d="M -12 12 
L 12 -12 
M -12 -12 
L 12 12 
" id="mf5093fd986" style="stroke:#ff00ff;"/>
    </defs>
    <g clip-path="url(#p31bb9571f1)">
     <use style="fill:#ff00ff;stroke:#ff00ff;" x="258.37716" xlink:href="#mf5093fd986" y="233.644007"/>
    </g>
   </g>
   <g id="line2d_44">
    <defs>
     <path d="M 0 1.5 
C 0.397805 1.5 0.77937 1.341951 1.06066 1.06066 
C 1.341951 0.77937 1.5 0.397805 1.5 0 
C 1.5 -0.397805 1.341951 -0.77937 1.06066 -1.06066 
C 0.77937 -1.341951 0.397805 -1.5 0 -1.5 
C -0.397805 -1.5 -0.77937 -1.341951 -1.06066 -1.06066 
C -1.341951 -0.77937 -1.5 -0.397805 -1.5 0 
C -1.5 0.397805 -1.341951 0.77937 -1.06066 1.06066 
C -0.77937 1.341951 -0.397805 1.5 0 1.5 
z
" id="m8830d44da3" style="stroke:#ff7500;"/>
    </defs>
    <g>
     <use style="fill:#ff7500;stroke:#ff7500;" x="251.761295" xlink:href="#m8830d44da3" y="226.234079"/>
     <use style="fill:#ff7500;stroke:#ff7500;" x="251.761295" xlink:href="#m8830d44da3" y="226.234079"/>
    </g>
   </g>
   <g id="line2d_45">
    <path d="M 152.489189 298.944 
L 152.489189 298.480879 
L 154.439623 298.480879 
L 154.439623 298.017759 
L 155.290488 298.017759 
L 155.290488 297.554638 
L 155.82927 297.554638 
L 155.82927 297.091518 
L 156.071012 297.091518 
L 156.071012 296.628397 
L 156.303376 296.628397 
L 156.303376 296.165277 
L 156.562634 296.165277 
L 156.562634 295.702156 
L 156.812195 295.702156 
L 156.812195 295.239036 
L 156.970762 295.239036 
L 156.970762 294.312795 
L 157.098907 294.312795 
L 157.098907 293.849674 
L 157.352406 293.849674 
L 157.352406 293.386554 
L 157.477787 293.386554 
L 157.477787 292.923433 
L 157.759435 292.923433 
L 157.84305 291.534072 
L 157.898572 291.534072 
L 157.953917 290.607831 
L 158.28235 290.607831 
L 158.368898 289.68159 
L 158.747853 289.68159 
L 158.821615 288.292228 
L 159.020266 288.292228 
L 159.020266 287.829108 
L 159.283369 287.829108 
L 159.283369 287.365987 
L 159.46166 287.365987 
L 159.46166 286.902867 
L 159.602992 286.902867 
L 159.602992 286.439746 
L 159.906985 286.439746 
L 159.956318 284.124143 
L 160.113253 284.124143 
L 160.147395 283.197902 
L 160.713095 283.197902 
L 160.713095 282.734782 
L 160.839995 282.734782 
L 160.839995 282.271661 
L 161.12334 282.271661 
L 161.12334 281.808541 
L 161.374928 281.808541 
L 161.374928 281.34542 
L 161.528659 281.34542 
L 161.573617 280.419179 
L 161.649781 280.419179 
L 161.7523 279.492938 
L 161.801118 279.492938 
L 161.805549 278.566697 
L 162.457805 278.566697 
L 162.521708 277.640456 
L 162.695193 277.640456 
L 162.695193 277.177336 
L 162.866969 277.177336 
L 162.933547 275.324854 
L 162.979172 275.324854 
L 163.020547 274.398612 
L 163.48138 274.398612 
L 163.48138 273.935492 
L 163.609699 273.935492 
L 163.609699 273.472371 
L 163.93427 273.472371 
L 163.992995 271.619889 
L 164.191193 271.619889 
L 164.191193 271.156769 
L 164.314412 271.156769 
L 164.314412 270.693648 
L 164.546914 270.693648 
L 164.599841 269.304287 
L 164.858371 269.304287 
L 164.954803 267.914925 
L 165.010195 267.914925 
L 165.010195 267.451805 
L 165.529617 267.451805 
L 165.529617 266.525564 
L 165.697012 266.525564 
L 165.697012 266.062443 
L 165.848767 266.062443 
L 165.848767 265.599323 
L 166.051389 265.599323 
L 166.155277 264.209961 
L 166.186323 264.209961 
L 166.186323 263.746841 
L 166.732564 263.746841 
L 166.732564 263.28372 
L 166.865664 263.28372 
L 166.865664 262.8206 
L 167.835927 262.8206 
L 167.926618 261.894358 
L 167.991998 261.894358 
L 167.991998 260.968117 
L 168.379212 260.968117 
L 168.379212 260.504997 
L 169.285276 260.504997 
L 169.285276 260.041876 
L 169.709984 260.041876 
L 169.709984 259.578756 
L 170.201421 259.578756 
L 170.201421 258.652515 
L 170.663398 258.652515 
L 170.663398 257.726274 
L 170.977818 257.726274 
L 170.977818 257.263153 
L 171.758716 257.263153 
L 171.758716 256.800033 
L 172.012256 256.800033 
L 172.012256 256.336912 
L 173.172121 256.336912 
L 173.172121 255.410671 
L 173.330714 255.410671 
L 173.330714 254.947551 
L 173.688525 254.947551 
L 173.688525 254.48443 
L 173.900183 254.48443 
L 173.900183 253.558189 
L 174.361294 253.558189 
L 174.361294 252.631948 
L 175.352703 252.631948 
L 175.352703 252.168828 
L 175.697687 252.168828 
L 175.697687 251.705707 
L 175.918026 251.705707 
L 175.918026 251.242587 
L 176.394725 251.242587 
L 176.394725 250.316346 
L 177.175439 250.316346 
L 177.175439 249.853225 
L 177.536897 249.853225 
L 177.536897 249.390104 
L 179.311276 249.390104 
L 179.311276 248.926984 
L 179.952111 248.926984 
L 179.952111 248.463863 
L 180.135832 248.463863 
L 180.135832 248.000743 
L 180.491498 248.000743 
L 180.491498 247.537622 
L 180.866809 247.537622 
L 180.866809 247.074502 
L 183.931628 247.074502 
L 183.931628 246.611381 
L 187.888251 246.611381 
L 187.888251 246.148261 
L 188.200211 246.148261 
L 188.200211 245.22202 
L 191.993081 245.22202 
L 191.993081 244.758899 
L 192.265587 244.758899 
L 192.265587 244.295779 
L 198.181583 244.295779 
L 198.181583 243.369538 
L 200.552939 243.369538 
L 200.552939 242.443297 
L 202.058623 242.443297 
L 202.058623 241.980176 
L 204.275762 241.980176 
L 204.275762 241.053935 
L 210.145592 241.053935 
L 210.145592 240.127694 
L 212.148426 240.127694 
L 212.148426 239.201453 
L 214.029682 239.201453 
L 214.029682 238.275212 
L 214.41159 238.275212 
L 214.41159 237.812091 
L 217.614131 237.812091 
L 217.614131 237.348971 
L 218.499736 237.348971 
L 218.499736 236.88585 
L 218.733812 236.88585 
L 218.733812 235.959609 
L 219.286841 235.959609 
L 219.286841 235.033368 
L 219.913635 235.033368 
L 219.913635 234.570248 
L 222.785484 234.570248 
L 222.785484 233.644007 
L 226.315811 233.644007 
L 226.315811 233.180886 
L 226.795185 233.180886 
L 226.795185 232.717766 
L 228.040304 232.717766 
L 228.040304 232.254645 
L 230.772196 232.254645 
L 230.772196 231.791525 
L 233.36617 231.791525 
L 233.36617 230.865284 
L 241.018196 230.865284 
L 241.018196 229.939043 
L 243.218469 229.939043 
L 243.218469 229.012802 
L 243.869462 229.012802 
L 243.869462 228.549681 
L 245.908302 228.549681 
L 245.908302 227.62344 
L 246.321526 227.62344 
L 246.321526 227.16032 
L 251.761295 227.16032 
L 251.761295 226.234079 
L 338.688 226.234079 
L 338.688 226.234079 
" style="fill:none;stroke:#ff7500;stroke-linecap:square;stroke-width:1.5;"/>
   </g>
   <g id="line2d_46">
    <defs>
     <path d="M 0 -6 
L -1.347084 -1.854102 
L -5.706339 -1.854102 
L -2.179628 0.708204 
L -3.526712 4.854102 
L -0 2.291796 
L 3.526712 4.854102 
L 2.179628 0.708204 
L 5.706339 -1.854102 
L 1.347084 -1.854102 
z
" id="m2096583c2f" style="stroke:#ff7500;stroke-linejoin:bevel;stroke-width:1.5;"/>
    </defs>
    <g>
     <use style="fill-opacity:0;stroke:#ff7500;stroke-linejoin:bevel;stroke-width:1.5;" x="175.918026" xlink:href="#m2096583c2f" y="251.705707"/>
     <use style="fill-opacity:0;stroke:#ff7500;stroke-linejoin:bevel;stroke-width:1.5;" x="251.761295" xlink:href="#m2096583c2f" y="227.16032"/>
     <use style="fill-opacity:0;stroke:#ff7500;stroke-linejoin:bevel;stroke-width:1.5;" x="251.761295" xlink:href="#m2096583c2f" y="226.234079"/>
     <use style="fill-opacity:0;stroke:#ff7500;stroke-linejoin:bevel;stroke-width:1.5;" x="338.688" xlink:href="#m2096583c2f" y="226.234079"/>
    </g>
   </g>
   <g id="line2d_47">
    <path style="fill:none;stroke:#ff7500;stroke-linecap:square;stroke-width:1.5;"/>
    <g/>
   </g>
   <g id="line2d_48">
    <path clip-path="url(#p31bb9571f1)" d="M 258.377143 226.234079 
" style="fill:none;stroke:#ff7500;stroke-linecap:square;stroke-width:1.5;"/>
    <defs>
     <path d="M -12 12 
L 12 -12 
M -12 -12 
L 12 12 
" id="m986b7ebc13" style="stroke:#ff7500;"/>
    </defs>
    <g clip-path="url(#p31bb9571f1)">
     <use style="fill:#ff7500;stroke:#ff7500;" x="258.377143" xlink:href="#m986b7ebc13" y="226.234079"/>
    </g>
   </g>
   <g id="line2d_49">
    <defs>
     <path d="M 0 1.5 
C 0.397805 1.5 0.77937 1.341951 1.06066 1.06066 
C 1.341951 0.77937 1.5 0.397805 1.5 0 
C 1.5 -0.397805 1.341951 -0.77937 1.06066 -1.06066 
C 0.77937 -1.341951 0.397805 -1.5 0 -1.5 
C -0.397805 -1.5 -0.77937 -1.341951 -1.06066 -1.06066 
C -1.341951 -0.77937 -1.5 -0.397805 -1.5 0 
C -1.5 0.397805 -1.341951 0.77937 -1.06066 1.06066 
C -0.77937 1.341951 -0.397805 1.5 0 1.5 
z
" id="md4db8c245a" style="stroke:#6495ed;"/>
    </defs>
    <g>
     <use style="fill:#6495ed;stroke:#6495ed;" x="252.8772" xlink:href="#md4db8c245a" y="238.275212"/>
     <use style="fill:#6495ed;stroke:#6495ed;" x="252.8772" xlink:href="#md4db8c245a" y="238.275212"/>
    </g>
   </g>
   <g id="line2d_50">
    <path d="M 17.444571 298.944 
L 17.444571 290.607831 
L 121.974949 290.607831 
L 121.974949 290.14471 
L 128.531065 290.14471 
L 128.590686 289.218469 
L 133.975741 289.218469 
L 133.975741 288.755349 
L 134.724323 288.755349 
L 134.724323 288.292228 
L 135.621981 288.292228 
L 135.621981 287.829108 
L 136.304433 287.829108 
L 136.361705 286.902867 
L 136.757427 286.902867 
L 136.776048 285.513505 
L 138.049816 285.513505 
L 138.136107 283.661023 
L 138.239095 283.661023 
L 138.239095 283.197902 
L 138.561269 283.197902 
L 138.578062 281.808541 
L 138.84457 281.808541 
L 138.84457 281.34542 
L 139.918342 281.34542 
L 139.918342 280.8823 
L 140.088482 280.8823 
L 140.088482 280.419179 
L 140.393639 280.419179 
L 140.393639 279.956059 
L 141.119455 279.956059 
L 141.119455 279.492938 
L 141.364373 279.492938 
L 141.364373 279.029818 
L 141.591783 279.029818 
L 141.676303 278.103577 
L 141.955115 278.103577 
L 141.955115 277.640456 
L 142.147664 277.640456 
L 142.147664 277.177336 
L 143.439077 277.177336 
L 143.439077 276.714215 
L 144.474645 276.714215 
L 144.474645 276.251095 
L 144.77134 276.251095 
L 144.77134 275.324854 
L 145.395476 275.324854 
L 145.395476 274.861733 
L 145.531191 274.861733 
L 145.531191 274.398612 
L 145.976095 274.398612 
L 145.976095 273.935492 
L 146.194362 273.935492 
L 146.194362 273.472371 
L 147.799224 273.472371 
L 147.799224 272.54613 
L 148.440161 272.54613 
L 148.440161 272.08301 
L 149.049169 272.08301 
L 149.049169 271.619889 
L 149.277854 271.619889 
L 149.277854 271.156769 
L 150.369816 271.156769 
L 150.369816 270.230528 
L 150.66605 270.230528 
L 150.66605 269.767407 
L 154.351528 269.767407 
L 154.351528 269.304287 
L 154.741174 269.304287 
L 154.741174 268.841166 
L 155.16126 268.841166 
L 155.16126 268.378046 
L 157.023299 268.378046 
L 157.023299 267.914925 
L 158.471118 267.914925 
L 158.471118 267.451805 
L 159.380382 267.451805 
L 159.380382 266.988684 
L 162.086834 266.988684 
L 162.086834 266.525564 
L 163.283043 266.525564 
L 163.283043 266.062443 
L 166.439517 266.062443 
L 166.439517 265.599323 
L 167.138646 265.599323 
L 167.138646 264.673082 
L 171.496352 264.673082 
L 171.496352 263.746841 
L 175.174531 263.746841 
L 175.174531 263.28372 
L 175.605554 263.28372 
L 175.605554 262.8206 
L 177.697942 262.8206 
L 177.697942 262.357479 
L 178.122002 262.357479 
L 178.122002 261.894358 
L 185.956031 261.894358 
L 185.956031 261.431238 
L 187.572631 261.431238 
L 187.572631 260.968117 
L 190.173447 260.968117 
L 190.215205 259.115635 
L 190.69091 259.115635 
L 190.69091 258.652515 
L 194.03876 258.652515 
L 194.03876 258.189394 
L 196.953459 258.189394 
L 196.953459 257.263153 
L 198.556671 257.263153 
L 198.556671 256.800033 
L 198.941255 256.800033 
L 198.941255 256.336912 
L 200.109284 256.336912 
L 200.109284 255.873792 
L 201.205356 255.873792 
L 201.205356 255.410671 
L 202.350486 255.410671 
L 202.350486 254.48443 
L 206.152898 254.48443 
L 206.152898 254.02131 
L 206.848199 254.02131 
L 206.848199 253.558189 
L 208.464292 253.558189 
L 208.464292 253.095069 
L 208.929495 253.095069 
L 208.929495 252.631948 
L 210.287447 252.631948 
L 210.287447 251.705707 
L 211.545976 251.705707 
L 211.545976 250.779466 
L 212.683145 250.779466 
L 212.683145 250.316346 
L 213.041684 250.316346 
L 213.041684 249.853225 
L 213.385868 249.853225 
L 213.385868 249.390104 
L 222.234411 249.390104 
L 222.234411 248.463863 
L 222.442921 248.463863 
L 222.442921 248.000743 
L 222.752161 248.000743 
L 222.752161 247.537622 
L 225.268186 247.537622 
L 225.268186 247.074502 
L 226.848223 247.074502 
L 226.848223 246.611381 
L 228.665951 246.611381 
L 228.665951 245.68514 
L 229.103184 245.68514 
L 229.103184 245.22202 
L 229.540298 245.22202 
L 229.540298 244.758899 
L 230.63349 244.758899 
L 230.63349 244.295779 
L 232.427427 244.295779 
L 232.427427 243.832658 
L 234.367508 243.832658 
L 234.367508 243.369538 
L 235.679322 243.369538 
L 235.679322 242.443297 
L 238.237566 242.443297 
L 238.237566 241.980176 
L 241.148089 241.980176 
L 241.148089 241.053935 
L 242.185786 241.053935 
L 242.185786 240.127694 
L 245.980022 240.127694 
L 245.980022 239.664574 
L 249.636136 239.664574 
L 249.636136 239.201453 
L 252.8772 239.201453 
L 252.8772 238.275212 
L 338.688 238.275212 
L 338.688 238.275212 
" style="fill:none;stroke:#6495ed;stroke-linecap:square;stroke-width:1.5;"/>
   </g>
   <g id="line2d_51">
    <defs>
     <path d="M -0 6 
L 6 -6 
L -6 -6 
z
" id="m517bea7669" style="stroke:#6495ed;stroke-linejoin:miter;stroke-width:1.5;"/>
    </defs>
    <g>
     <use style="fill-opacity:0;stroke:#6495ed;stroke-linejoin:miter;stroke-width:1.5;" x="140.393639" xlink:href="#m517bea7669" y="280.419179"/>
     <use style="fill-opacity:0;stroke:#6495ed;stroke-linejoin:miter;stroke-width:1.5;" x="201.205356" xlink:href="#m517bea7669" y="255.873792"/>
     <use style="fill-opacity:0;stroke:#6495ed;stroke-linejoin:miter;stroke-width:1.5;" x="252.8772" xlink:href="#m517bea7669" y="239.201453"/>
     <use style="fill-opacity:0;stroke:#6495ed;stroke-linejoin:miter;stroke-width:1.5;" x="252.8772" xlink:href="#m517bea7669" y="238.275212"/>
     <use style="fill-opacity:0;stroke:#6495ed;stroke-linejoin:miter;stroke-width:1.5;" x="252.8772" xlink:href="#m517bea7669" y="238.275212"/>
     <use style="fill-opacity:0;stroke:#6495ed;stroke-linejoin:miter;stroke-width:1.5;" x="338.688" xlink:href="#m517bea7669" y="238.275212"/>
    </g>
   </g>
   <g id="line2d_52">
    <path style="fill:none;stroke:#6495ed;stroke-linecap:square;stroke-width:1.5;"/>
    <g/>
   </g>
   <g id="line2d_53">
    <path clip-path="url(#p31bb9571f1)" d="M 258.379602 238.275212 
" style="fill:none;stroke:#6495ed;stroke-linecap:square;stroke-width:1.5;"/>
    <defs>
     <path d="M -12 12 
L 12 -12 
M -12 -12 
L 12 12 
" id="mee326441da" style="stroke:#6495ed;"/>
    </defs>
    <g clip-path="url(#p31bb9571f1)">
     <use style="fill:#6495ed;stroke:#6495ed;" x="258.379602" xlink:href="#mee326441da" y="238.275212"/>
    </g>
   </g>
   <g id="line2d_54">
    <defs>
     <path d="M 0 1.5 
C 0.397805 1.5 0.77937 1.341951 1.06066 1.06066 
C 1.341951 0.77937 1.5 0.397805 1.5 0 
C 1.5 -0.397805 1.341951 -0.77937 1.06066 -1.06066 
C 0.77937 -1.341951 0.397805 -1.5 0 -1.5 
C -0.397805 -1.5 -0.77937 -1.341951 -1.06066 -1.06066 
C -1.341951 -0.77937 -1.5 -0.397805 -1.5 0 
C -1.5 0.397805 -1.341951 0.77937 -1.06066 1.06066 
C -0.77937 1.341951 -0.397805 1.5 0 1.5 
z
" id="ma7dc15bd40" style="stroke:#ff0000;"/>
    </defs>
    <g>
     <use style="fill:#ff0000;stroke:#ff0000;" x="299.385782" xlink:href="#ma7dc15bd40" y="156.766001"/>
     <use style="fill:#ff0000;stroke:#ff0000;" x="299.385782" xlink:href="#ma7dc15bd40" y="156.766001"/>
    </g>
   </g>
   <g id="line2d_55">
    <path d="M 17.444571 298.944 
L 17.444571 287.829108 
L 36.60358 287.829108 
L 36.60358 287.365987 
L 45.512012 287.365987 
L 45.512012 286.902867 
L 48.691568 286.902867 
L 48.691568 285.976625 
L 51.379845 285.976625 
L 51.379845 285.513505 
L 53.708537 285.513505 
L 53.708537 285.050384 
L 55.762588 285.050384 
L 55.762588 284.124143 
L 59.262141 284.124143 
L 59.262141 283.197902 
L 60.779557 283.197902 
L 60.779557 282.271661 
L 62.175444 282.271661 
L 62.175444 280.8823 
L 63.467834 280.8823 
L 63.467834 279.492938 
L 65.796525 279.492938 
L 65.796525 279.029818 
L 68.79347 279.029818 
L 68.79347 278.566697 
L 72.867545 278.566697 
L 72.867545 278.103577 
L 74.921597 278.103577 
L 74.921597 277.640456 
L 80.416384 277.640456 
L 80.416384 277.177336 
L 82.626842 277.177336 
L 82.626842 276.714215 
L 83.438118 276.714215 
L 83.438118 276.251095 
L 86.012784 276.251095 
L 86.012784 275.787974 
L 87.329581 275.787974 
L 87.329581 275.324854 
L 91.782644 275.324854 
L 91.782644 274.861733 
L 93.422441 274.861733 
L 93.422441 274.398612 
L 96.301313 274.398612 
L 96.301313 273.472371 
L 96.676366 273.472371 
L 96.676366 273.009251 
L 98.270913 273.009251 
L 98.270913 271.619889 
L 98.43941 271.619889 
L 98.43941 271.156769 
L 99.731799 271.156769 
L 99.731799 270.693648 
L 100.493461 270.693648 
L 100.493461 270.230528 
L 101.365607 270.230528 
L 101.365607 269.767407 
L 101.923711 269.767407 
L 101.923711 269.304287 
L 105.621863 269.304287 
L 105.621863 268.841166 
L 107.314272 268.841166 
L 107.314272 268.378046 
L 108.948899 268.378046 
L 108.948899 267.914925 
L 110.016944 267.914925 
L 110.016944 267.451805 
L 110.694282 267.451805 
L 110.694282 266.525564 
L 113.022974 266.525564 
L 113.022974 266.062443 
L 114.816733 266.062443 
L 114.816733 265.599323 
L 117.654224 265.599323 
L 117.654224 265.136202 
L 126.202373 265.136202 
L 126.202373 264.209961 
L 131.938072 264.209961 
L 131.938072 263.746841 
L 132.157744 263.746841 
L 132.157744 263.28372 
L 136.720123 263.28372 
L 136.720123 262.8206 
L 136.979586 262.8206 
L 136.979586 262.357479 
L 137.805906 262.357479 
L 137.805906 261.894358 
L 140.026805 261.894358 
L 140.026805 261.431238 
L 142.092866 261.431238 
L 142.106582 260.041876 
L 146.885432 260.041876 
L 146.885432 259.578756 
L 147.205618 259.578756 
L 147.205618 258.652515 
L 149.232356 258.652515 
L 149.232356 258.189394 
L 156.818094 258.189394 
L 156.818094 257.726274 
L 159.708245 257.726274 
L 159.708245 257.263153 
L 164.268307 257.263153 
L 164.348911 256.336912 
L 169.69308 256.336912 
L 169.69308 255.873792 
L 178.798828 255.873792 
L 178.798828 254.947551 
L 181.774021 254.947551 
L 181.774021 254.48443 
L 185.433568 254.48443 
L 185.433568 254.02131 
L 185.80451 254.02131 
L 185.80451 253.095069 
L 187.323138 253.095069 
L 187.323138 252.631948 
L 187.865398 252.631948 
L 187.865398 252.168828 
L 190.856691 252.168828 
L 190.856691 251.705707 
L 192.906461 251.705707 
L 192.906461 250.779466 
L 195.61377 250.779466 
L 195.61377 250.316346 
L 196.030203 250.316346 
L 196.030203 249.853225 
L 197.2897 249.853225 
L 197.2897 249.390104 
L 198.026262 249.390104 
L 198.026262 248.463863 
L 198.15074 248.463863 
L 198.179382 246.611381 
L 198.435067 246.611381 
L 198.491921 244.758899 
L 199.004361 244.758899 
L 199.004361 244.295779 
L 199.232779 244.295779 
L 199.24935 242.906417 
L 199.404972 242.906417 
L 199.49707 241.980176 
L 199.684869 241.980176 
L 199.686384 241.053935 
L 200.242787 241.053935 
L 200.242787 240.127694 
L 202.079319 240.127694 
L 202.079319 239.664574 
L 203.91827 239.664574 
L 203.91827 239.201453 
L 204.327677 239.201453 
L 204.327677 238.275212 
L 205.743282 238.275212 
L 205.743282 237.348971 
L 206.303453 237.348971 
L 206.303453 236.42273 
L 207.150552 236.42273 
L 207.150552 235.959609 
L 207.421531 235.959609 
L 207.497495 234.107127 
L 207.880322 234.107127 
L 207.880322 233.644007 
L 208.096701 233.644007 
L 208.096701 232.717766 
L 209.409803 232.717766 
L 209.409803 231.791525 
L 210.418067 231.791525 
L 210.418067 230.865284 
L 211.351308 230.865284 
L 211.431805 229.012802 
L 211.514749 229.012802 
L 211.514749 228.086561 
L 211.97588 228.086561 
L 211.97588 227.62344 
L 212.319771 227.62344 
L 212.319771 226.697199 
L 212.523573 226.697199 
L 212.534934 225.307837 
L 214.187978 225.307837 
L 214.187978 224.844717 
L 214.881466 224.844717 
L 214.881466 223.918476 
L 215.012975 223.918476 
L 215.012975 222.992235 
L 217.463241 222.992235 
L 217.463241 222.529114 
L 217.971063 222.529114 
L 217.971063 221.602873 
L 220.320353 221.602873 
L 220.320353 220.676632 
L 220.587795 220.676632 
L 220.587795 220.213512 
L 221.008122 220.213512 
L 221.008122 219.750391 
L 221.260463 219.750391 
L 221.260463 218.82415 
L 221.479572 218.82415 
L 221.479572 217.897909 
L 222.547201 217.897909 
L 222.547201 217.434789 
L 224.614463 217.434789 
L 224.614463 216.508548 
L 226.413552 216.508548 
L 226.413552 215.582307 
L 227.724217 215.582307 
L 227.806848 214.192945 
L 228.416202 214.192945 
L 228.416202 213.729825 
L 230.506869 213.729825 
L 230.549665 211.877342 
L 230.881815 211.877342 
L 230.881815 210.951101 
L 231.885624 210.951101 
L 231.885624 210.487981 
L 232.441631 210.487981 
L 232.441631 209.56174 
L 232.559981 209.56174 
L 232.559981 209.098619 
L 232.966087 209.098619 
L 232.966087 208.635499 
L 234.871324 208.635499 
L 234.871324 208.172378 
L 236.352543 208.172378 
L 236.352543 207.709258 
L 236.963924 207.709258 
L 236.963924 207.246137 
L 237.224877 207.246137 
L 237.224877 206.319896 
L 239.391005 206.319896 
L 239.391005 205.856776 
L 242.415688 205.856776 
L 242.415688 204.930535 
L 243.176242 204.930535 
L 243.176242 204.467414 
L 247.153766 204.467414 
L 247.153766 203.541173 
L 247.952215 203.541173 
L 247.952215 202.614932 
L 248.209724 202.614932 
L 248.209724 201.688691 
L 248.900089 201.688691 
L 248.900089 201.225571 
L 249.193628 201.225571 
L 249.193628 200.299329 
L 249.415994 200.299329 
L 249.415994 199.836209 
L 250.068872 199.836209 
L 250.068872 199.373088 
L 251.739696 199.373088 
L 251.739696 198.909968 
L 252.393228 198.909968 
L 252.393228 198.446847 
L 252.533421 198.446847 
L 252.533421 197.520606 
L 254.433589 197.520606 
L 254.433589 196.594365 
L 257.001536 196.594365 
L 257.001536 195.668124 
L 257.472727 195.668124 
L 257.472727 195.205004 
L 257.91826 195.205004 
L 257.91826 194.278763 
L 258.0586 194.278763 
L 258.0586 193.352522 
L 260.776492 193.352522 
L 260.795828 191.96316 
L 262.212277 191.96316 
L 262.212277 191.50004 
L 262.509866 191.50004 
L 262.509866 191.036919 
L 263.189208 191.036919 
L 263.189208 190.573799 
L 263.876989 190.573799 
L 263.876989 190.110678 
L 268.180799 190.110678 
L 268.180799 189.184437 
L 268.292741 189.184437 
L 268.377747 186.868834 
L 268.526531 186.868834 
L 268.526531 186.405714 
L 268.769303 186.405714 
L 268.769303 185.942593 
L 268.96131 185.942593 
L 268.96131 185.479473 
L 269.457498 185.479473 
L 269.561836 184.553232 
L 270.099878 184.553232 
L 270.099878 184.090111 
L 270.289685 184.090111 
L 270.289685 183.626991 
L 272.502402 183.626991 
L 272.502402 183.16387 
L 273.245303 183.16387 
L 273.245303 182.70075 
L 273.574317 182.70075 
L 273.574317 182.237629 
L 277.138418 182.237629 
L 277.138418 181.774509 
L 278.245741 181.774509 
L 278.245741 181.311388 
L 278.427357 181.311388 
L 278.427357 180.848268 
L 279.120344 180.848268 
L 279.120344 180.385147 
L 279.922553 180.385147 
L 279.999926 178.995786 
L 280.215592 178.995786 
L 280.215592 178.532665 
L 280.375622 178.532665 
L 280.375622 178.069545 
L 281.013404 178.069545 
L 281.013404 177.606424 
L 281.173375 177.606424 
L 281.173375 177.143304 
L 281.514644 177.143304 
L 281.514644 176.217062 
L 282.118199 176.217062 
L 282.118199 175.753942 
L 282.44777 175.753942 
L 282.44777 175.290821 
L 282.751355 175.290821 
L 282.751355 174.36458 
L 283.046372 174.36458 
L 283.046372 173.90146 
L 283.189283 173.90146 
L 283.189283 172.975219 
L 283.549052 172.975219 
L 283.549052 172.512098 
L 284.604067 172.512098 
L 284.604067 171.585857 
L 285.011583 171.585857 
L 285.011583 170.659616 
L 285.205943 170.659616 
L 285.205943 170.196496 
L 286.61011 170.196496 
L 286.61011 169.270255 
L 286.765423 169.270255 
L 286.765423 168.807134 
L 288.042292 168.807134 
L 288.042292 168.344014 
L 288.721402 168.344014 
L 288.721402 167.880893 
L 288.906301 167.880893 
L 288.906301 167.417773 
L 289.265803 167.417773 
L 289.265803 166.491532 
L 290.057719 166.491532 
L 290.057719 166.028411 
L 290.321399 166.028411 
L 290.321399 165.565291 
L 291.294555 165.565291 
L 291.300026 164.63905 
L 291.558393 164.63905 
L 291.558393 164.175929 
L 291.900191 164.175929 
L 291.900191 163.249688 
L 292.442498 163.249688 
L 292.537775 162.323447 
L 292.834769 162.323447 
L 292.834769 161.860326 
L 294.938559 161.860326 
L 295.027083 160.007844 
L 296.072689 160.007844 
L 296.072689 159.544724 
L 296.327038 159.544724 
L 296.327038 159.081603 
L 298.270514 159.081603 
L 298.293296 157.692242 
L 299.385782 157.692242 
L 299.385782 156.766001 
L 338.688 156.766001 
L 338.688 156.766001 
" style="fill:none;stroke:#ff0000;stroke-linecap:square;stroke-width:1.5;"/>
   </g>
   <g id="line2d_56">
    <defs>
     <path d="M 0 -6 
L -5.196152 -3 
L -5.196152 3 
L -0 6 
L 5.196152 3 
L 5.196152 -3 
z
" id="m294ee380fe" style="stroke:#ff0000;stroke-linejoin:miter;stroke-width:1.5;"/>
    </defs>
    <g>
     <use style="fill-opacity:0;stroke:#ff0000;stroke-linejoin:miter;stroke-width:1.5;" x="142.106582" xlink:href="#m294ee380fe" y="260.968117"/>
     <use style="fill-opacity:0;stroke:#ff0000;stroke-linejoin:miter;stroke-width:1.5;" x="211.514749" xlink:href="#m294ee380fe" y="229.012802"/>
     <use style="fill-opacity:0;stroke:#ff0000;stroke-linejoin:miter;stroke-width:1.5;" x="262.509866" xlink:href="#m294ee380fe" y="191.036919"/>
     <use style="fill-opacity:0;stroke:#ff0000;stroke-linejoin:miter;stroke-width:1.5;" x="299.385782" xlink:href="#m294ee380fe" y="156.766001"/>
     <use style="fill-opacity:0;stroke:#ff0000;stroke-linejoin:miter;stroke-width:1.5;" x="299.385782" xlink:href="#m294ee380fe" y="156.766001"/>
     <use style="fill-opacity:0;stroke:#ff0000;stroke-linejoin:miter;stroke-width:1.5;" x="338.688" xlink:href="#m294ee380fe" y="156.766001"/>
    </g>
   </g>
   <g id="line2d_57">
    <path style="fill:none;stroke:#ff0000;stroke-linecap:square;stroke-width:1.5;"/>
    <g/>
   </g>
   <g id="line2d_58">
    <path clip-path="url(#p31bb9571f1)" d="M 301.40368 156.766001 
" style="fill:none;stroke:#ff0000;stroke-linecap:square;stroke-width:1.5;"/>
    <defs>
     <path d="M -12 12 
L 12 -12 
M -12 -12 
L 12 12 
" id="m1078ef42f0" style="stroke:#ff0000;"/>
    </defs>
    <g clip-path="url(#p31bb9571f1)">
     <use style="fill:#ff0000;stroke:#ff0000;" x="301.40368" xlink:href="#m1078ef42f0" y="156.766001"/>
    </g>
   </g>
   <g id="line2d_59">
    <path d="M 338.688 275.324854 
L 369.60768 293.571802 
" style="fill:none;stroke:#000080;stroke-linecap:square;stroke-width:1.5;"/>
    <g>
     <use style="fill-opacity:0;stroke:#000080;stroke-width:1.5;" x="338.688" xlink:href="#m493ca0c195" y="275.324854"/>
     <use style="fill-opacity:0;stroke:#000080;stroke-width:1.5;" x="369.60768" xlink:href="#m493ca0c195" y="293.571802"/>
    </g>
   </g>
   <g id="line2d_60">
    <path d="M 338.688 238.275212 
L 369.60768 241.998701 
" style="fill:none;stroke:#6495ed;stroke-linecap:square;stroke-width:1.5;"/>
    <g>
     <use style="fill-opacity:0;stroke:#6495ed;stroke-linejoin:miter;stroke-width:1.5;" x="338.688" xlink:href="#m517bea7669" y="238.275212"/>
     <use style="fill-opacity:0;stroke:#6495ed;stroke-linejoin:miter;stroke-width:1.5;" x="369.60768" xlink:href="#m517bea7669" y="241.998701"/>
    </g>
   </g>
   <g id="line2d_61">
    <path d="M 338.688 233.644007 
L 369.60768 190.4256 
" style="fill:none;stroke:#ff00ff;stroke-linecap:square;stroke-width:1.5;"/>
    <g>
     <use style="fill-opacity:0;stroke:#ff00ff;stroke-linejoin:miter;stroke-width:1.5;" x="338.688" xlink:href="#m4704c2a55f" y="233.644007"/>
     <use style="fill-opacity:0;stroke:#ff00ff;stroke-linejoin:miter;stroke-width:1.5;" x="369.60768" xlink:href="#m4704c2a55f" y="190.4256"/>
    </g>
   </g>
   <g id="line2d_62">
    <path d="M 338.688 226.234079 
L 369.60768 138.852499 
" style="fill:none;stroke:#ff7500;stroke-linecap:square;stroke-width:1.5;"/>
    <g>
     <use style="fill-opacity:0;stroke:#ff7500;stroke-linejoin:bevel;stroke-width:1.5;" x="338.688" xlink:href="#m2096583c2f" y="226.234079"/>
     <use style="fill-opacity:0;stroke:#ff7500;stroke-linejoin:bevel;stroke-width:1.5;" x="369.60768" xlink:href="#m2096583c2f" y="138.852499"/>
    </g>
   </g>
   <g id="line2d_63">
    <path d="M 338.688 156.766001 
L 369.60768 87.279398 
" style="fill:none;stroke:#ff0000;stroke-linecap:square;stroke-width:1.5;"/>
    <g>
     <use style="fill-opacity:0;stroke:#ff0000;stroke-linejoin:miter;stroke-width:1.5;" x="338.688" xlink:href="#m294ee380fe" y="156.766001"/>
     <use style="fill-opacity:0;stroke:#ff0000;stroke-linejoin:miter;stroke-width:1.5;" x="369.60768" xlink:href="#m294ee380fe" y="87.279398"/>
    </g>
   </g>
   <g id="line2d_64">
    <path d="M 338.688 298.944 
L 338.688 30.334099 
" style="fill:none;stroke:#000000;stroke-linecap:square;stroke-width:1.5;"/>
   </g>
   <g id="patch_3">
    <path d="M 57.6 298.944 
L 57.6 27.648 
" style="fill:none;stroke:#000000;stroke-linecap:square;stroke-linejoin:miter;stroke-width:0.8;"/>
   </g>
   <g id="patch_4">
    <path d="M 338.688 298.944 
L 338.688 27.648 
" style="fill:none;stroke:#000000;stroke-linecap:square;stroke-linejoin:miter;stroke-width:0.8;"/>
   </g>
   <g id="patch_5">
    <path d="M 57.6 298.944 
L 338.688 298.944 
" style="fill:none;stroke:#000000;stroke-linecap:square;stroke-linejoin:miter;stroke-width:0.8;"/>
   </g>
   <g id="patch_6">
    <path d="M 57.6 27.648 
L 338.688 27.648 
" style="fill:none;stroke:#000000;stroke-linecap:square;stroke-linejoin:miter;stroke-width:0.8;"/>
   </g>
   <g id="text_13">
    <!-- MOLE -->
    <g transform="translate(375.22944 298.262739)scale(0.17 -0.17)">
     <defs>
      <path d="M 9.8125 72.90625 
L 24.515625 72.90625 
L 43.109375 23.296875 
L 61.8125 72.90625 
L 76.515625 72.90625 
L 76.515625 0 
L 66.890625 0 
L 66.890625 64.015625 
L 48.09375 14.015625 
L 38.1875 14.015625 
L 19.390625 64.015625 
L 19.390625 0 
L 9.8125 0 
z
" id="DejaVuSans-77"/>
      <path d="M 39.40625 66.21875 
Q 28.65625 66.21875 22.328125 58.203125 
Q 16.015625 50.203125 16.015625 36.375 
Q 16.015625 22.609375 22.328125 14.59375 
Q 28.65625 6.59375 39.40625 6.59375 
Q 50.140625 6.59375 56.421875 14.59375 
Q 62.703125 22.609375 62.703125 36.375 
Q 62.703125 50.203125 56.421875 58.203125 
Q 50.140625 66.21875 39.40625 66.21875 
z
M 39.40625 74.21875 
Q 54.734375 74.21875 63.90625 63.9375 
Q 73.09375 53.65625 73.09375 36.375 
Q 73.09375 19.140625 63.90625 8.859375 
Q 54.734375 -1.421875 39.40625 -1.421875 
Q 24.03125 -1.421875 14.8125 8.828125 
Q 5.609375 19.09375 5.609375 36.375 
Q 5.609375 53.65625 14.8125 63.9375 
Q 24.03125 74.21875 39.40625 74.21875 
z
" id="DejaVuSans-79"/>
      <path d="M 9.8125 72.90625 
L 19.671875 72.90625 
L 19.671875 8.296875 
L 55.171875 8.296875 
L 55.171875 0 
L 9.8125 0 
z
" id="DejaVuSans-76"/>
      <path d="M 9.8125 72.90625 
L 55.90625 72.90625 
L 55.90625 64.59375 
L 19.671875 64.59375 
L 19.671875 43.015625 
L 54.390625 43.015625 
L 54.390625 34.71875 
L 19.671875 34.71875 
L 19.671875 8.296875 
L 56.78125 8.296875 
L 56.78125 0 
L 9.8125 0 
z
" id="DejaVuSans-69"/>
     </defs>
     <use xlink:href="#DejaVuSans-77"/>
     <use x="86.279297" xlink:href="#DejaVuSans-79"/>
     <use x="164.990234" xlink:href="#DejaVuSans-76"/>
     <use x="220.703125" xlink:href="#DejaVuSans-69"/>
    </g>
   </g>
   <g id="text_14">
    <!-- NSGA-II-M -->
    <g transform="translate(375.22944 246.689638)scale(0.17 -0.17)">
     <defs>
      <path d="M 9.8125 72.90625 
L 23.09375 72.90625 
L 55.421875 11.921875 
L 55.421875 72.90625 
L 64.984375 72.90625 
L 64.984375 0 
L 51.703125 0 
L 19.390625 60.984375 
L 19.390625 0 
L 9.8125 0 
z
" id="DejaVuSans-78"/>
      <path d="M 53.515625 70.515625 
L 53.515625 60.890625 
Q 47.90625 63.578125 42.921875 64.890625 
Q 37.9375 66.21875 33.296875 66.21875 
Q 25.25 66.21875 20.875 63.09375 
Q 16.5 59.96875 16.5 54.203125 
Q 16.5 49.359375 19.40625 46.890625 
Q 22.3125 44.4375 30.421875 42.921875 
L 36.375 41.703125 
Q 47.40625 39.59375 52.65625 34.296875 
Q 57.90625 29 57.90625 20.125 
Q 57.90625 9.515625 50.796875 4.046875 
Q 43.703125 -1.421875 29.984375 -1.421875 
Q 24.8125 -1.421875 18.96875 -0.25 
Q 13.140625 0.921875 6.890625 3.21875 
L 6.890625 13.375 
Q 12.890625 10.015625 18.65625 8.296875 
Q 24.421875 6.59375 29.984375 6.59375 
Q 38.421875 6.59375 43.015625 9.90625 
Q 47.609375 13.234375 47.609375 19.390625 
Q 47.609375 24.75 44.3125 27.78125 
Q 41.015625 30.8125 33.5 32.328125 
L 27.484375 33.5 
Q 16.453125 35.6875 11.515625 40.375 
Q 6.59375 45.0625 6.59375 53.421875 
Q 6.59375 63.09375 13.40625 68.65625 
Q 20.21875 74.21875 32.171875 74.21875 
Q 37.3125 74.21875 42.625 73.28125 
Q 47.953125 72.359375 53.515625 70.515625 
z
" id="DejaVuSans-83"/>
      <path d="M 59.515625 10.40625 
L 59.515625 29.984375 
L 43.40625 29.984375 
L 43.40625 38.09375 
L 69.28125 38.09375 
L 69.28125 6.78125 
Q 63.578125 2.734375 56.6875 0.65625 
Q 49.8125 -1.421875 42 -1.421875 
Q 24.90625 -1.421875 15.25 8.5625 
Q 5.609375 18.5625 5.609375 36.375 
Q 5.609375 54.25 15.25 64.234375 
Q 24.90625 74.21875 42 74.21875 
Q 49.125 74.21875 55.546875 72.453125 
Q 61.96875 70.703125 67.390625 67.28125 
L 67.390625 56.78125 
Q 61.921875 61.421875 55.765625 63.765625 
Q 49.609375 66.109375 42.828125 66.109375 
Q 29.4375 66.109375 22.71875 58.640625 
Q 16.015625 51.171875 16.015625 36.375 
Q 16.015625 21.625 22.71875 14.15625 
Q 29.4375 6.6875 42.828125 6.6875 
Q 48.046875 6.6875 52.140625 7.59375 
Q 56.25 8.5 59.515625 10.40625 
z
" id="DejaVuSans-71"/>
      <path d="M 34.1875 63.1875 
L 20.796875 26.90625 
L 47.609375 26.90625 
z
M 28.609375 72.90625 
L 39.796875 72.90625 
L 67.578125 0 
L 57.328125 0 
L 50.6875 18.703125 
L 17.828125 18.703125 
L 11.1875 0 
L 0.78125 0 
z
" id="DejaVuSans-65"/>
      <path d="M 9.8125 72.90625 
L 19.671875 72.90625 
L 19.671875 0 
L 9.8125 0 
z
" id="DejaVuSans-73"/>
     </defs>
     <use xlink:href="#DejaVuSans-78"/>
     <use x="74.804688" xlink:href="#DejaVuSans-83"/>
     <use x="138.28125" xlink:href="#DejaVuSans-71"/>
     <use x="215.771484" xlink:href="#DejaVuSans-65"/>
     <use x="281.929688" xlink:href="#DejaVuSans-45"/>
     <use x="318.013672" xlink:href="#DejaVuSans-73"/>
     <use x="347.505859" xlink:href="#DejaVuSans-73"/>
     <use x="376.998047" xlink:href="#DejaVuSans-45"/>
     <use x="413.082031" xlink:href="#DejaVuSans-77"/>
    </g>
   </g>
   <g id="text_15">
    <!-- SMS-EMOA- -->
    <g transform="translate(375.22944 195.116537)scale(0.17 -0.17)">
     <use xlink:href="#DejaVuSans-83"/>
     <use x="63.476562" xlink:href="#DejaVuSans-77"/>
     <use x="149.755859" xlink:href="#DejaVuSans-83"/>
     <use x="213.232422" xlink:href="#DejaVuSans-45"/>
     <use x="249.316406" xlink:href="#DejaVuSans-69"/>
     <use x="312.5" xlink:href="#DejaVuSans-77"/>
     <use x="398.779297" xlink:href="#DejaVuSans-79"/>
     <use x="475.740234" xlink:href="#DejaVuSans-65"/>
     <use x="541.898438" xlink:href="#DejaVuSans-45"/>
    </g>
   </g>
   <g id="text_16">
    <!-- RM-MEDA A -->
    <g transform="translate(375.22944 143.543437)scale(0.17 -0.17)">
     <defs>
      <path d="M 44.390625 34.1875 
Q 47.5625 33.109375 50.5625 29.59375 
Q 53.5625 26.078125 56.59375 19.921875 
L 66.609375 0 
L 56 0 
L 46.6875 18.703125 
Q 43.0625 26.03125 39.671875 28.421875 
Q 36.28125 30.8125 30.421875 30.8125 
L 19.671875 30.8125 
L 19.671875 0 
L 9.8125 0 
L 9.8125 72.90625 
L 32.078125 72.90625 
Q 44.578125 72.90625 50.734375 67.671875 
Q 56.890625 62.453125 56.890625 51.90625 
Q 56.890625 45.015625 53.6875 40.46875 
Q 50.484375 35.9375 44.390625 34.1875 
z
M 19.671875 64.796875 
L 19.671875 38.921875 
L 32.078125 38.921875 
Q 39.203125 38.921875 42.84375 42.21875 
Q 46.484375 45.515625 46.484375 51.90625 
Q 46.484375 58.296875 42.84375 61.546875 
Q 39.203125 64.796875 32.078125 64.796875 
z
" id="DejaVuSans-82"/>
      <path d="M 19.671875 64.796875 
L 19.671875 8.109375 
L 31.59375 8.109375 
Q 46.6875 8.109375 53.6875 14.9375 
Q 60.6875 21.78125 60.6875 36.53125 
Q 60.6875 51.171875 53.6875 57.984375 
Q 46.6875 64.796875 31.59375 64.796875 
z
M 9.8125 72.90625 
L 30.078125 72.90625 
Q 51.265625 72.90625 61.171875 64.09375 
Q 71.09375 55.28125 71.09375 36.53125 
Q 71.09375 17.671875 61.125 8.828125 
Q 51.171875 0 30.078125 0 
L 9.8125 0 
z
" id="DejaVuSans-68"/>
     </defs>
     <use xlink:href="#DejaVuSans-82"/>
     <use x="69.482422" xlink:href="#DejaVuSans-77"/>
     <use x="155.761719" xlink:href="#DejaVuSans-45"/>
     <use x="191.845703" xlink:href="#DejaVuSans-77"/>
     <use x="278.125" xlink:href="#DejaVuSans-69"/>
     <use x="341.308594" xlink:href="#DejaVuSans-68"/>
     <use x="416.560547" xlink:href="#DejaVuSans-65"/>
     <use x="484.96875" xlink:href="#DejaVuSans-32"/>
     <use x="516.755859" xlink:href="#DejaVuSans-65"/>
    </g>
   </g>
   <g id="text_17">
    <!-- HMO-CMA-E -->
    <g transform="translate(375.22944 91.970336)scale(0.17 -0.17)">
     <defs>
      <path d="M 9.8125 72.90625 
L 19.671875 72.90625 
L 19.671875 43.015625 
L 55.515625 43.015625 
L 55.515625 72.90625 
L 65.375 72.90625 
L 65.375 0 
L 55.515625 0 
L 55.515625 34.71875 
L 19.671875 34.71875 
L 19.671875 0 
L 9.8125 0 
z
" id="DejaVuSans-72"/>
      <path d="M 64.40625 67.28125 
L 64.40625 56.890625 
Q 59.421875 61.53125 53.78125 63.8125 
Q 48.140625 66.109375 41.796875 66.109375 
Q 29.296875 66.109375 22.65625 58.46875 
Q 16.015625 50.828125 16.015625 36.375 
Q 16.015625 21.96875 22.65625 14.328125 
Q 29.296875 6.6875 41.796875 6.6875 
Q 48.140625 6.6875 53.78125 8.984375 
Q 59.421875 11.28125 64.40625 15.921875 
L 64.40625 5.609375 
Q 59.234375 2.09375 53.4375 0.328125 
Q 47.65625 -1.421875 41.21875 -1.421875 
Q 24.65625 -1.421875 15.125 8.703125 
Q 5.609375 18.84375 5.609375 36.375 
Q 5.609375 53.953125 15.125 64.078125 
Q 24.65625 74.21875 41.21875 74.21875 
Q 47.75 74.21875 53.53125 72.484375 
Q 59.328125 70.75 64.40625 67.28125 
z
" id="DejaVuSans-67"/>
     </defs>
     <use xlink:href="#DejaVuSans-72"/>
     <use x="75.195312" xlink:href="#DejaVuSans-77"/>
     <use x="161.474609" xlink:href="#DejaVuSans-79"/>
     <use x="242.935547" xlink:href="#DejaVuSans-45"/>
     <use x="279.019531" xlink:href="#DejaVuSans-67"/>
     <use x="348.84375" xlink:href="#DejaVuSans-77"/>
     <use x="435.123047" xlink:href="#DejaVuSans-65"/>
     <use x="501.28125" xlink:href="#DejaVuSans-45"/>
     <use x="537.365234" xlink:href="#DejaVuSans-69"/>
    </g>
   </g>
   <g id="text_18">
    <!-- best 2016 -->
    <g transform="translate(375.22944 40.397235)scale(0.17 -0.17)">
     <defs>
      <path d="M 48.6875 27.296875 
Q 48.6875 37.203125 44.609375 42.84375 
Q 40.53125 48.484375 33.40625 48.484375 
Q 26.265625 48.484375 22.1875 42.84375 
Q 18.109375 37.203125 18.109375 27.296875 
Q 18.109375 17.390625 22.1875 11.75 
Q 26.265625 6.109375 33.40625 6.109375 
Q 40.53125 6.109375 44.609375 11.75 
Q 48.6875 17.390625 48.6875 27.296875 
z
M 18.109375 46.390625 
Q 20.953125 51.265625 25.265625 53.625 
Q 29.59375 56 35.59375 56 
Q 45.5625 56 51.78125 48.09375 
Q 58.015625 40.1875 58.015625 27.296875 
Q 58.015625 14.40625 51.78125 6.484375 
Q 45.5625 -1.421875 35.59375 -1.421875 
Q 29.59375 -1.421875 25.265625 0.953125 
Q 20.953125 3.328125 18.109375 8.203125 
L 18.109375 0 
L 9.078125 0 
L 9.078125 75.984375 
L 18.109375 75.984375 
z
" id="DejaVuSans-98"/>
     </defs>
     <use xlink:href="#DejaVuSans-98"/>
     <use x="63.476562" xlink:href="#DejaVuSans-101"/>
     <use x="125" xlink:href="#DejaVuSans-115"/>
     <use x="177.099609" xlink:href="#DejaVuSans-116"/>
     <use x="216.308594" xlink:href="#DejaVuSans-32"/>
     <use x="248.095703" xlink:href="#DejaVuSans-50"/>
     <use x="311.71875" xlink:href="#DejaVuSans-48"/>
     <use x="375.341797" xlink:href="#DejaVuSans-49"/>
     <use x="438.964844" xlink:href="#DejaVuSans-54"/>
    </g>
   </g>
   <g id="text_19">
    <!-- bbob-biobj f42, 10-D -->
    <g transform="translate(60.41088 38.111366)scale(0.102 -0.102)">
     <defs>
      <path d="M 9.421875 54.6875 
L 18.40625 54.6875 
L 18.40625 -0.984375 
Q 18.40625 -11.421875 14.421875 -16.109375 
Q 10.453125 -20.796875 1.609375 -20.796875 
L -1.8125 -20.796875 
L -1.8125 -13.1875 
L 0.59375 -13.1875 
Q 5.71875 -13.1875 7.5625 -10.8125 
Q 9.421875 -8.453125 9.421875 -0.984375 
z
M 9.421875 75.984375 
L 18.40625 75.984375 
L 18.40625 64.59375 
L 9.421875 64.59375 
z
" id="DejaVuSans-106"/>
     </defs>
     <use xlink:href="#DejaVuSans-98"/>
     <use x="63.476562" xlink:href="#DejaVuSans-98"/>
     <use x="126.953125" xlink:href="#DejaVuSans-111"/>
     <use x="188.134766" xlink:href="#DejaVuSans-98"/>
     <use x="251.611328" xlink:href="#DejaVuSans-45"/>
     <use x="287.695312" xlink:href="#DejaVuSans-98"/>
     <use x="351.171875" xlink:href="#DejaVuSans-105"/>
     <use x="378.955078" xlink:href="#DejaVuSans-111"/>
     <use x="440.136719" xlink:href="#DejaVuSans-98"/>
     <use x="503.613281" xlink:href="#DejaVuSans-106"/>
     <use x="531.396484" xlink:href="#DejaVuSans-32"/>
     <use x="563.183594" xlink:href="#DejaVuSans-102"/>
     <use x="598.388672" xlink:href="#DejaVuSans-52"/>
     <use x="662.011719" xlink:href="#DejaVuSans-50"/>
     <use x="725.634766" xlink:href="#DejaVuSans-44"/>
     <use x="757.421875" xlink:href="#DejaVuSans-32"/>
     <use x="789.208984" xlink:href="#DejaVuSans-49"/>
     <use x="852.832031" xlink:href="#DejaVuSans-48"/>
     <use x="916.455078" xlink:href="#DejaVuSans-45"/>
     <use x="952.539062" xlink:href="#DejaVuSans-68"/>
    </g>
    <!-- 58 targets: 1..-1.0e-4 -->
    <g transform="translate(60.41088 49.533135)scale(0.102 -0.102)">
     <defs>
      <path d="M 10.796875 72.90625 
L 49.515625 72.90625 
L 49.515625 64.59375 
L 19.828125 64.59375 
L 19.828125 46.734375 
Q 21.96875 47.46875 24.109375 47.828125 
Q 26.265625 48.1875 28.421875 48.1875 
Q 40.625 48.1875 47.75 41.5 
Q 54.890625 34.8125 54.890625 23.390625 
Q 54.890625 11.625 47.5625 5.09375 
Q 40.234375 -1.421875 26.90625 -1.421875 
Q 22.3125 -1.421875 17.546875 -0.640625 
Q 12.796875 0.140625 7.71875 1.703125 
L 7.71875 11.625 
Q 12.109375 9.234375 16.796875 8.0625 
Q 21.484375 6.890625 26.703125 6.890625 
Q 35.15625 6.890625 40.078125 11.328125 
Q 45.015625 15.765625 45.015625 23.390625 
Q 45.015625 31 40.078125 35.4375 
Q 35.15625 39.890625 26.703125 39.890625 
Q 22.75 39.890625 18.8125 39.015625 
Q 14.890625 38.140625 10.796875 36.28125 
z
" id="DejaVuSans-53"/>
      <path d="M 11.71875 12.40625 
L 22.015625 12.40625 
L 22.015625 0 
L 11.71875 0 
z
M 11.71875 51.703125 
L 22.015625 51.703125 
L 22.015625 39.3125 
L 11.71875 39.3125 
z
" id="DejaVuSans-58"/>
     </defs>
     <use xlink:href="#DejaVuSans-53"/>
     <use x="63.623047" xlink:href="#DejaVuSans-56"/>
     <use x="127.246094" xlink:href="#DejaVuSans-32"/>
     <use x="159.033203" xlink:href="#DejaVuSans-116"/>
     <use x="198.242188" xlink:href="#DejaVuSans-97"/>
     <use x="259.521484" xlink:href="#DejaVuSans-114"/>
     <use x="298.884766" xlink:href="#DejaVuSans-103"/>
     <use x="362.361328" xlink:href="#DejaVuSans-101"/>
     <use x="423.884766" xlink:href="#DejaVuSans-116"/>
     <use x="463.09375" xlink:href="#DejaVuSans-115"/>
     <use x="515.193359" xlink:href="#DejaVuSans-58"/>
     <use x="548.884766" xlink:href="#DejaVuSans-32"/>
     <use x="580.671875" xlink:href="#DejaVuSans-49"/>
     <use x="644.294922" xlink:href="#DejaVuSans-46"/>
     <use x="676.082031" xlink:href="#DejaVuSans-46"/>
     <use x="707.869141" xlink:href="#DejaVuSans-45"/>
     <use x="743.953125" xlink:href="#DejaVuSans-49"/>
     <use x="807.576172" xlink:href="#DejaVuSans-46"/>
     <use x="839.363281" xlink:href="#DejaVuSans-48"/>
     <use x="902.986328" xlink:href="#DejaVuSans-101"/>
     <use x="964.509766" xlink:href="#DejaVuSans-45"/>
     <use x="1000.59375" xlink:href="#DejaVuSans-52"/>
    </g>
    <!-- 10 instances -->
    <g transform="translate(60.41088 60.954904)scale(0.102 -0.102)">
     <use xlink:href="#DejaVuSans-49"/>
     <use x="63.623047" xlink:href="#DejaVuSans-48"/>
     <use x="127.246094" xlink:href="#DejaVuSans-32"/>
     <use x="159.033203" xlink:href="#DejaVuSans-105"/>
     <use x="186.816406" xlink:href="#DejaVuSans-110"/>
     <use x="250.195312" xlink:href="#DejaVuSans-115"/>
     <use x="302.294922" xlink:href="#DejaVuSans-116"/>
     <use x="341.503906" xlink:href="#DejaVuSans-97"/>
     <use x="402.783203" xlink:href="#DejaVuSans-110"/>
     <use x="466.162109" xlink:href="#DejaVuSans-99"/>
     <use x="521.142578" xlink:href="#DejaVuSans-101"/>
     <use x="582.666016" xlink:href="#DejaVuSans-115"/>
    </g>
   </g>
   <g id="text_20">
    <!-- v2.4, hv-hash=ff0e71e8cd978373 -->
    <g style="fill:#808080;" transform="translate(112.648687 294.151352)scale(0.1 -0.1)">
     <defs>
      <path d="M 54.890625 33.015625 
L 54.890625 0 
L 45.90625 0 
L 45.90625 32.71875 
Q 45.90625 40.484375 42.875 44.328125 
Q 39.84375 48.1875 33.796875 48.1875 
Q 26.515625 48.1875 22.3125 43.546875 
Q 18.109375 38.921875 18.109375 30.90625 
L 18.109375 0 
L 9.078125 0 
L 9.078125 75.984375 
L 18.109375 75.984375 
L 18.109375 46.1875 
Q 21.34375 51.125 25.703125 53.5625 
Q 30.078125 56 35.796875 56 
Q 45.21875 56 50.046875 50.171875 
Q 54.890625 44.34375 54.890625 33.015625 
z
" id="DejaVuSans-104"/>
      <path d="M 10.59375 45.40625 
L 73.1875 45.40625 
L 73.1875 37.203125 
L 10.59375 37.203125 
z
M 10.59375 25.484375 
L 73.1875 25.484375 
L 73.1875 17.1875 
L 10.59375 17.1875 
z
" id="DejaVuSans-61"/>
      <path d="M 8.203125 72.90625 
L 55.078125 72.90625 
L 55.078125 68.703125 
L 28.609375 0 
L 18.3125 0 
L 43.21875 64.59375 
L 8.203125 64.59375 
z
" id="DejaVuSans-55"/>
      <path d="M 10.984375 1.515625 
L 10.984375 10.5 
Q 14.703125 8.734375 18.5 7.8125 
Q 22.3125 6.890625 25.984375 6.890625 
Q 35.75 6.890625 40.890625 13.453125 
Q 46.046875 20.015625 46.78125 33.40625 
Q 43.953125 29.203125 39.59375 26.953125 
Q 35.25 24.703125 29.984375 24.703125 
Q 19.046875 24.703125 12.671875 31.3125 
Q 6.296875 37.9375 6.296875 49.421875 
Q 6.296875 60.640625 12.9375 67.421875 
Q 19.578125 74.21875 30.609375 74.21875 
Q 43.265625 74.21875 49.921875 64.515625 
Q 56.59375 54.828125 56.59375 36.375 
Q 56.59375 19.140625 48.40625 8.859375 
Q 40.234375 -1.421875 26.421875 -1.421875 
Q 22.703125 -1.421875 18.890625 -0.6875 
Q 15.09375 0.046875 10.984375 1.515625 
z
M 30.609375 32.421875 
Q 37.25 32.421875 41.125 36.953125 
Q 45.015625 41.5 45.015625 49.421875 
Q 45.015625 57.28125 41.125 61.84375 
Q 37.25 66.40625 30.609375 66.40625 
Q 23.96875 66.40625 20.09375 61.84375 
Q 16.21875 57.28125 16.21875 49.421875 
Q 16.21875 41.5 20.09375 36.953125 
Q 23.96875 32.421875 30.609375 32.421875 
z
" id="DejaVuSans-57"/>
      <path d="M 40.578125 39.3125 
Q 47.65625 37.796875 51.625 33 
Q 55.609375 28.21875 55.609375 21.1875 
Q 55.609375 10.40625 48.1875 4.484375 
Q 40.765625 -1.421875 27.09375 -1.421875 
Q 22.515625 -1.421875 17.65625 -0.515625 
Q 12.796875 0.390625 7.625 2.203125 
L 7.625 11.71875 
Q 11.71875 9.328125 16.59375 8.109375 
Q 21.484375 6.890625 26.8125 6.890625 
Q 36.078125 6.890625 40.9375 10.546875 
Q 45.796875 14.203125 45.796875 21.1875 
Q 45.796875 27.640625 41.28125 31.265625 
Q 36.765625 34.90625 28.71875 34.90625 
L 20.21875 34.90625 
L 20.21875 43.015625 
L 29.109375 43.015625 
Q 36.375 43.015625 40.234375 45.921875 
Q 44.09375 48.828125 44.09375 54.296875 
Q 44.09375 59.90625 40.109375 62.90625 
Q 36.140625 65.921875 28.71875 65.921875 
Q 24.65625 65.921875 20.015625 65.03125 
Q 15.375 64.15625 9.8125 62.3125 
L 9.8125 71.09375 
Q 15.4375 72.65625 20.34375 73.4375 
Q 25.25 74.21875 29.59375 74.21875 
Q 40.828125 74.21875 47.359375 69.109375 
Q 53.90625 64.015625 53.90625 55.328125 
Q 53.90625 49.265625 50.4375 45.09375 
Q 46.96875 40.921875 40.578125 39.3125 
z
" id="DejaVuSans-51"/>
     </defs>
     <use xlink:href="#DejaVuSans-118"/>
     <use x="59.179688" xlink:href="#DejaVuSans-50"/>
     <use x="122.802734" xlink:href="#DejaVuSans-46"/>
     <use x="154.589844" xlink:href="#DejaVuSans-52"/>
     <use x="218.212891" xlink:href="#DejaVuSans-44"/>
     <use x="250" xlink:href="#DejaVuSans-32"/>
     <use x="281.787109" xlink:href="#DejaVuSans-104"/>
     <use x="345.166016" xlink:href="#DejaVuSans-118"/>
     <use x="401.720703" xlink:href="#DejaVuSans-45"/>
     <use x="437.804688" xlink:href="#DejaVuSans-104"/>
     <use x="501.183594" xlink:href="#DejaVuSans-97"/>
     <use x="562.462891" xlink:href="#DejaVuSans-115"/>
     <use x="614.5625" xlink:href="#DejaVuSans-104"/>
     <use x="677.941406" xlink:href="#DejaVuSans-61"/>
     <use x="761.730469" xlink:href="#DejaVuSans-102"/>
     <use x="796.935547" xlink:href="#DejaVuSans-102"/>
     <use x="832.140625" xlink:href="#DejaVuSans-48"/>
     <use x="895.763672" xlink:href="#DejaVuSans-101"/>
     <use x="957.287109" xlink:href="#DejaVuSans-55"/>
     <use x="1020.910156" xlink:href="#DejaVuSans-49"/>
     <use x="1084.533203" xlink:href="#DejaVuSans-101"/>
     <use x="1146.056641" xlink:href="#DejaVuSans-56"/>
     <use x="1209.679688" xlink:href="#DejaVuSans-99"/>
     <use x="1264.660156" xlink:href="#DejaVuSans-100"/>
     <use x="1328.136719" xlink:href="#DejaVuSans-57"/>
     <use x="1391.759766" xlink:href="#DejaVuSans-55"/>
     <use x="1455.382812" xlink:href="#DejaVuSans-56"/>
     <use x="1519.005859" xlink:href="#DejaVuSans-51"/>
     <use x="1582.628906" xlink:href="#DejaVuSans-55"/>
     <use x="1646.251953" xlink:href="#DejaVuSans-51"/>
    </g>
   </g>
   <g id="text_21">
    <!-- 42 Diff. Powers/Rastrigin -->
    <g transform="translate(75.95025 21.648)scale(0.2 -0.2)">
     <defs>
      <path d="M 19.671875 64.796875 
L 19.671875 37.40625 
L 32.078125 37.40625 
Q 38.96875 37.40625 42.71875 40.96875 
Q 46.484375 44.53125 46.484375 51.125 
Q 46.484375 57.671875 42.71875 61.234375 
Q 38.96875 64.796875 32.078125 64.796875 
z
M 9.8125 72.90625 
L 32.078125 72.90625 
Q 44.34375 72.90625 50.609375 67.359375 
Q 56.890625 61.8125 56.890625 51.125 
Q 56.890625 40.328125 50.609375 34.8125 
Q 44.34375 29.296875 32.078125 29.296875 
L 19.671875 29.296875 
L 19.671875 0 
L 9.8125 0 
z
" id="DejaVuSans-80"/>
      <path d="M 4.203125 54.6875 
L 13.1875 54.6875 
L 24.421875 12.015625 
L 35.59375 54.6875 
L 46.1875 54.6875 
L 57.421875 12.015625 
L 68.609375 54.6875 
L 77.59375 54.6875 
L 63.28125 0 
L 52.6875 0 
L 40.921875 44.828125 
L 29.109375 0 
L 18.5 0 
z
" id="DejaVuSans-119"/>
     </defs>
     <use xlink:href="#DejaVuSans-52"/>
     <use x="63.623047" xlink:href="#DejaVuSans-50"/>
     <use x="127.246094" xlink:href="#DejaVuSans-32"/>
     <use x="159.033203" xlink:href="#DejaVuSans-68"/>
     <use x="236.035156" xlink:href="#DejaVuSans-105"/>
     <use x="263.818359" xlink:href="#DejaVuSans-102"/>
     <use x="299.023438" xlink:href="#DejaVuSans-102"/>
     <use x="326.978516" xlink:href="#DejaVuSans-46"/>
     <use x="358.765625" xlink:href="#DejaVuSans-32"/>
     <use x="390.552734" xlink:href="#DejaVuSans-80"/>
     <use x="447.230469" xlink:href="#DejaVuSans-111"/>
     <use x="508.412109" xlink:href="#DejaVuSans-119"/>
     <use x="590.199219" xlink:href="#DejaVuSans-101"/>
     <use x="651.722656" xlink:href="#DejaVuSans-114"/>
     <use x="692.835938" xlink:href="#DejaVuSans-115"/>
     <use x="744.935547" xlink:href="#DejaVuSans-47"/>
     <use x="778.626953" xlink:href="#DejaVuSans-82"/>
     <use x="845.859375" xlink:href="#DejaVuSans-97"/>
     <use x="907.138672" xlink:href="#DejaVuSans-115"/>
     <use x="959.238281" xlink:href="#DejaVuSans-116"/>
     <use x="998.447266" xlink:href="#DejaVuSans-114"/>
     <use x="1039.560547" xlink:href="#DejaVuSans-105"/>
     <use x="1067.34375" xlink:href="#DejaVuSans-103"/>
     <use x="1130.820312" xlink:href="#DejaVuSans-105"/>
     <use x="1158.603516" xlink:href="#DejaVuSans-110"/>
    </g>
   </g>
  </g>
 </g>
 <defs>
  <clipPath id="p31bb9571f1">
   <rect height="271.296" width="281.088" x="57.6" y="27.648"/>
  </clipPath>
 </defs>
</svg>
