<?xml version="1.0" encoding="utf-8" standalone="no"?>
<!DOCTYPE svg PUBLIC "-//W3C//DTD SVG 1.1//EN"
  "http://www.w3.org/Graphics/SVG/1.1/DTD/svg11.dtd">
<!-- Created with matplotlib (https://matplotlib.org/) -->
<svg height="345.6pt" version="1.1" viewBox="0 0 460.8 345.6" width="460.8pt" xmlns="http://www.w3.org/2000/svg" xmlns:xlink="http://www.w3.org/1999/xlink">
 <metadata>
  <rdf:RDF xmlns:cc="http://creativecommons.org/ns#" xmlns:dc="http://purl.org/dc/elements/1.1/" xmlns:rdf="http://www.w3.org/1999/02/22-rdf-syntax-ns#">
   <cc:Work>
    <dc:type rdf:resource="http://purl.org/dc/dcmitype/StillImage"/>
    <dc:date>2021-03-30T18:30:28.581419</dc:date>
    <dc:format>image/svg+xml</dc:format>
    <dc:creator>
     <cc:Agent>
      <dc:title>Matplotlib v3.3.4, https://matplotlib.org/</dc:title>
     </cc:Agent>
    </dc:creator>
   </cc:Work>
  </rdf:RDF>
 </metadata>
 <defs>
  <style type="text/css">*{stroke-linecap:butt;stroke-linejoin:round;}</style>
 </defs>
 <g id="figure_1">
  <g id="patch_1">
   <path d="M 0 345.6 
L 460.8 345.6 
L 460.8 0 
L 0 0 
z
" style="fill:#ffffff;"/>
  </g>
  <g id="axes_1">
   <g id="patch_2">
    <path d="M 57.6 298.944 
L 338.688 298.944 
L 338.688 27.648 
L 57.6 27.648 
z
" style="fill:#ffffff;"/>
   </g>
   <g id="line2d_1">
    <path d="M 67.850577 298.944 
L 67.850577 294.312795 
L 97.043522 294.312795 
L 97.043522 285.050384 
L 114.284194 285.050384 
L 114.284194 275.787974 
L 129.06046 275.787974 
L 129.06046 271.156769 
L 167.867253 271.156769 
L 167.867253 257.263153 
L 172.988756 257.263153 
L 172.988756 248.000743 
L 180.878686 248.000743 
L 180.878686 243.369538 
L 205.911182 243.369538 
L 205.911182 234.107127 
L 217.760146 234.107127 
L 217.760146 220.213512 
L 236.011072 220.213512 
L 236.011072 210.951101 
L 242.823038 210.951101 
L 242.823038 201.688691 
L 248.352504 201.688691 
L 248.352504 192.426281 
L 254.287097 192.426281 
L 254.287097 187.795075 
L 264.186007 187.795075 
L 264.186007 173.90146 
L 271.482829 173.90146 
L 271.482829 169.270255 
L 275.565903 169.270255 
L 275.565903 155.376639 
L 288.714703 155.376639 
L 288.714703 146.114229 
L 297.81705 146.114229 
L 297.81705 141.483024 
L 312.745426 141.483024 
L 312.745426 127.589408 
L 313.188813 127.589408 
L 313.188813 122.958203 
L 313.659828 122.958203 
L 313.659828 109.064587 
L 314.008385 109.064587 
L 314.008385 99.802177 
L 327.658295 99.802177 
L 327.658295 90.539766 
L 338.688 90.539766 
" style="fill:none;stroke:#f5deb3;stroke-linecap:square;stroke-width:4;"/>
   </g>
   <g id="line2d_2">
    <defs>
     <path d="M -0 7.778175 
L 7.778175 0 
L 0 -7.778175 
L -7.778175 -0 
z
" id="m745c04c60b" style="stroke:#f5deb3;stroke-linejoin:miter;stroke-width:1.5;"/>
    </defs>
    <g>
     <use style="fill:#f5deb3;stroke:#f5deb3;stroke-linejoin:miter;stroke-width:1.5;" x="205.911182" xlink:href="#m745c04c60b" y="243.369538"/>
     <use style="fill:#f5deb3;stroke:#f5deb3;stroke-linejoin:miter;stroke-width:1.5;" x="271.482829" xlink:href="#m745c04c60b" y="173.90146"/>
     <use style="fill:#f5deb3;stroke:#f5deb3;stroke-linejoin:miter;stroke-width:1.5;" x="314.008385" xlink:href="#m745c04c60b" y="99.802177"/>
     <use style="fill:#f5deb3;stroke:#f5deb3;stroke-linejoin:miter;stroke-width:1.5;" x="327.658295" xlink:href="#m745c04c60b" y="90.539766"/>
     <use style="fill:#f5deb3;stroke:#f5deb3;stroke-linejoin:miter;stroke-width:1.5;" x="338.688" xlink:href="#m745c04c60b" y="90.539766"/>
    </g>
   </g>
   <g id="line2d_3">
    <path style="fill:none;stroke:#f5deb3;stroke-linecap:square;stroke-width:4;"/>
    <g/>
   </g>
   <g id="line2d_4">
    <path d="M 338.688 90.539766 
L 369.60768 35.706297 
" style="fill:none;stroke:#f5deb3;stroke-linecap:square;stroke-width:4;"/>
    <g>
     <use style="fill:#f5deb3;stroke:#f5deb3;stroke-linejoin:miter;stroke-width:1.5;" x="338.688" xlink:href="#m745c04c60b" y="90.539766"/>
     <use style="fill:#f5deb3;stroke:#f5deb3;stroke-linejoin:miter;stroke-width:1.5;" x="369.60768" xlink:href="#m745c04c60b" y="35.706297"/>
    </g>
   </g>
   <g id="matplotlib.axis_1">
    <g id="xtick_1">
     <g id="line2d_5">
      <path clip-path="url(#pf8288e555f)" d="M 57.6 298.944 
L 57.6 27.648 
" style="fill:none;stroke:#b0b0b0;stroke-linecap:square;stroke-width:0.8;"/>
     </g>
     <g id="line2d_6">
      <defs>
       <path d="M 0 0 
L 0 3.5 
" id="m2d0f356a06" style="stroke:#000000;stroke-width:0.8;"/>
      </defs>
      <g>
       <use style="stroke:#000000;stroke-width:0.8;" x="57.6" xlink:href="#m2d0f356a06" y="298.944"/>
      </g>
     </g>
     <g id="text_1">
      <!-- 0 -->
      <g transform="translate(51.2375 321.140875)scale(0.2 -0.2)">
       <defs>
        <path d="M 31.78125 66.40625 
Q 24.171875 66.40625 20.328125 58.90625 
Q 16.5 51.421875 16.5 36.375 
Q 16.5 21.390625 20.328125 13.890625 
Q 24.171875 6.390625 31.78125 6.390625 
Q 39.453125 6.390625 43.28125 13.890625 
Q 47.125 21.390625 47.125 36.375 
Q 47.125 51.421875 43.28125 58.90625 
Q 39.453125 66.40625 31.78125 66.40625 
z
M 31.78125 74.21875 
Q 44.046875 74.21875 50.515625 64.515625 
Q 56.984375 54.828125 56.984375 36.375 
Q 56.984375 17.96875 50.515625 8.265625 
Q 44.046875 -1.421875 31.78125 -1.421875 
Q 19.53125 -1.421875 13.0625 8.265625 
Q 6.59375 17.96875 6.59375 36.375 
Q 6.59375 54.828125 13.0625 64.515625 
Q 19.53125 74.21875 31.78125 74.21875 
z
" id="DejaVuSans-48"/>
       </defs>
       <use xlink:href="#DejaVuSans-48"/>
      </g>
     </g>
    </g>
    <g id="xtick_2">
     <g id="line2d_7">
      <path clip-path="url(#pf8288e555f)" d="M 137.910857 298.944 
L 137.910857 27.648 
" style="fill:none;stroke:#b0b0b0;stroke-linecap:square;stroke-width:0.8;"/>
     </g>
     <g id="line2d_8">
      <g>
       <use style="stroke:#000000;stroke-width:0.8;" x="137.910857" xlink:href="#m2d0f356a06" y="298.944"/>
      </g>
     </g>
     <g id="text_2">
      <!-- 2 -->
      <g transform="translate(131.548357 321.140875)scale(0.2 -0.2)">
       <defs>
        <path d="M 19.1875 8.296875 
L 53.609375 8.296875 
L 53.609375 0 
L 7.328125 0 
L 7.328125 8.296875 
Q 12.9375 14.109375 22.625 23.890625 
Q 32.328125 33.6875 34.8125 36.53125 
Q 39.546875 41.84375 41.421875 45.53125 
Q 43.3125 49.21875 43.3125 52.78125 
Q 43.3125 58.59375 39.234375 62.25 
Q 35.15625 65.921875 28.609375 65.921875 
Q 23.96875 65.921875 18.8125 64.3125 
Q 13.671875 62.703125 7.8125 59.421875 
L 7.8125 69.390625 
Q 13.765625 71.78125 18.9375 73 
Q 24.125 74.21875 28.421875 74.21875 
Q 39.75 74.21875 46.484375 68.546875 
Q 53.21875 62.890625 53.21875 53.421875 
Q 53.21875 48.921875 51.53125 44.890625 
Q 49.859375 40.875 45.40625 35.40625 
Q 44.1875 33.984375 37.640625 27.21875 
Q 31.109375 20.453125 19.1875 8.296875 
z
" id="DejaVuSans-50"/>
       </defs>
       <use xlink:href="#DejaVuSans-50"/>
      </g>
     </g>
    </g>
    <g id="xtick_3">
     <g id="line2d_9">
      <path clip-path="url(#pf8288e555f)" d="M 218.221714 298.944 
L 218.221714 27.648 
" style="fill:none;stroke:#b0b0b0;stroke-linecap:square;stroke-width:0.8;"/>
     </g>
     <g id="line2d_10">
      <g>
       <use style="stroke:#000000;stroke-width:0.8;" x="218.221714" xlink:href="#m2d0f356a06" y="298.944"/>
      </g>
     </g>
     <g id="text_3">
      <!-- 4 -->
      <g transform="translate(211.859214 321.140875)scale(0.2 -0.2)">
       <defs>
        <path d="M 37.796875 64.3125 
L 12.890625 25.390625 
L 37.796875 25.390625 
z
M 35.203125 72.90625 
L 47.609375 72.90625 
L 47.609375 25.390625 
L 58.015625 25.390625 
L 58.015625 17.1875 
L 47.609375 17.1875 
L 47.609375 0 
L 37.796875 0 
L 37.796875 17.1875 
L 4.890625 17.1875 
L 4.890625 26.703125 
z
" id="DejaVuSans-52"/>
       </defs>
       <use xlink:href="#DejaVuSans-52"/>
      </g>
     </g>
    </g>
    <g id="xtick_4">
     <g id="line2d_11">
      <path clip-path="url(#pf8288e555f)" d="M 298.532571 298.944 
L 298.532571 27.648 
" style="fill:none;stroke:#b0b0b0;stroke-linecap:square;stroke-width:0.8;"/>
     </g>
     <g id="line2d_12">
      <g>
       <use style="stroke:#000000;stroke-width:0.8;" x="298.532571" xlink:href="#m2d0f356a06" y="298.944"/>
      </g>
     </g>
     <g id="text_4">
      <!-- 6 -->
      <g transform="translate(292.170071 321.140875)scale(0.2 -0.2)">
       <defs>
        <path d="M 33.015625 40.375 
Q 26.375 40.375 22.484375 35.828125 
Q 18.609375 31.296875 18.609375 23.390625 
Q 18.609375 15.53125 22.484375 10.953125 
Q 26.375 6.390625 33.015625 6.390625 
Q 39.65625 6.390625 43.53125 10.953125 
Q 47.40625 15.53125 47.40625 23.390625 
Q 47.40625 31.296875 43.53125 35.828125 
Q 39.65625 40.375 33.015625 40.375 
z
M 52.59375 71.296875 
L 52.59375 62.3125 
Q 48.875 64.0625 45.09375 64.984375 
Q 41.3125 65.921875 37.59375 65.921875 
Q 27.828125 65.921875 22.671875 59.328125 
Q 17.53125 52.734375 16.796875 39.40625 
Q 19.671875 43.65625 24.015625 45.921875 
Q 28.375 48.1875 33.59375 48.1875 
Q 44.578125 48.1875 50.953125 41.515625 
Q 57.328125 34.859375 57.328125 23.390625 
Q 57.328125 12.15625 50.6875 5.359375 
Q 44.046875 -1.421875 33.015625 -1.421875 
Q 20.359375 -1.421875 13.671875 8.265625 
Q 6.984375 17.96875 6.984375 36.375 
Q 6.984375 53.65625 15.1875 63.9375 
Q 23.390625 74.21875 37.203125 74.21875 
Q 40.921875 74.21875 44.703125 73.484375 
Q 48.484375 72.75 52.59375 71.296875 
z
" id="DejaVuSans-54"/>
       </defs>
       <use xlink:href="#DejaVuSans-54"/>
      </g>
     </g>
    </g>
    <g id="xtick_5">
     <g id="line2d_13">
      <path clip-path="url(#pf8288e555f)" d="M 97.755429 298.944 
L 97.755429 27.648 
" style="fill:none;stroke:#b0b0b0;stroke-linecap:square;stroke-width:0.8;"/>
     </g>
     <g id="line2d_14">
      <defs>
       <path d="M 0 0 
L 0 2 
" id="m8e3fce5b84" style="stroke:#000000;stroke-width:0.6;"/>
      </defs>
      <g>
       <use style="stroke:#000000;stroke-width:0.6;" x="97.755429" xlink:href="#m8e3fce5b84" y="298.944"/>
      </g>
     </g>
    </g>
    <g id="xtick_6">
     <g id="line2d_15">
      <path clip-path="url(#pf8288e555f)" d="M 178.066286 298.944 
L 178.066286 27.648 
" style="fill:none;stroke:#b0b0b0;stroke-linecap:square;stroke-width:0.8;"/>
     </g>
     <g id="line2d_16">
      <g>
       <use style="stroke:#000000;stroke-width:0.6;" x="178.066286" xlink:href="#m8e3fce5b84" y="298.944"/>
      </g>
     </g>
    </g>
    <g id="xtick_7">
     <g id="line2d_17">
      <path clip-path="url(#pf8288e555f)" d="M 258.377143 298.944 
L 258.377143 27.648 
" style="fill:none;stroke:#b0b0b0;stroke-linecap:square;stroke-width:0.8;"/>
     </g>
     <g id="line2d_18">
      <g>
       <use style="stroke:#000000;stroke-width:0.6;" x="258.377143" xlink:href="#m8e3fce5b84" y="298.944"/>
      </g>
     </g>
    </g>
    <g id="xtick_8">
     <g id="line2d_19">
      <path clip-path="url(#pf8288e555f)" d="M 338.688 298.944 
L 338.688 27.648 
" style="fill:none;stroke:#b0b0b0;stroke-linecap:square;stroke-width:0.8;"/>
     </g>
     <g id="line2d_20">
      <g>
       <use style="stroke:#000000;stroke-width:0.6;" x="338.688" xlink:href="#m8e3fce5b84" y="298.944"/>
      </g>
     </g>
    </g>
    <g id="text_5">
     <!-- log10(# f-evals / dimension) -->
     <g transform="translate(77.764078 342.217594)scale(0.17 -0.17)">
      <defs>
       <path d="M 9.421875 75.984375 
L 18.40625 75.984375 
L 18.40625 0 
L 9.421875 0 
z
" id="DejaVuSans-108"/>
       <path d="M 30.609375 48.390625 
Q 23.390625 48.390625 19.1875 42.75 
Q 14.984375 37.109375 14.984375 27.296875 
Q 14.984375 17.484375 19.15625 11.84375 
Q 23.34375 6.203125 30.609375 6.203125 
Q 37.796875 6.203125 41.984375 11.859375 
Q 46.1875 17.53125 46.1875 27.296875 
Q 46.1875 37.015625 41.984375 42.703125 
Q 37.796875 48.390625 30.609375 48.390625 
z
M 30.609375 56 
Q 42.328125 56 49.015625 48.375 
Q 55.71875 40.765625 55.71875 27.296875 
Q 55.71875 13.875 49.015625 6.21875 
Q 42.328125 -1.421875 30.609375 -1.421875 
Q 18.84375 -1.421875 12.171875 6.21875 
Q 5.515625 13.875 5.515625 27.296875 
Q 5.515625 40.765625 12.171875 48.375 
Q 18.84375 56 30.609375 56 
z
" id="DejaVuSans-111"/>
       <path d="M 45.40625 27.984375 
Q 45.40625 37.75 41.375 43.109375 
Q 37.359375 48.484375 30.078125 48.484375 
Q 22.859375 48.484375 18.828125 43.109375 
Q 14.796875 37.75 14.796875 27.984375 
Q 14.796875 18.265625 18.828125 12.890625 
Q 22.859375 7.515625 30.078125 7.515625 
Q 37.359375 7.515625 41.375 12.890625 
Q 45.40625 18.265625 45.40625 27.984375 
z
M 54.390625 6.78125 
Q 54.390625 -7.171875 48.1875 -13.984375 
Q 42 -20.796875 29.203125 -20.796875 
Q 24.46875 -20.796875 20.265625 -20.09375 
Q 16.0625 -19.390625 12.109375 -17.921875 
L 12.109375 -9.1875 
Q 16.0625 -11.328125 19.921875 -12.34375 
Q 23.78125 -13.375 27.78125 -13.375 
Q 36.625 -13.375 41.015625 -8.765625 
Q 45.40625 -4.15625 45.40625 5.171875 
L 45.40625 9.625 
Q 42.625 4.78125 38.28125 2.390625 
Q 33.9375 0 27.875 0 
Q 17.828125 0 11.671875 7.65625 
Q 5.515625 15.328125 5.515625 27.984375 
Q 5.515625 40.671875 11.671875 48.328125 
Q 17.828125 56 27.875 56 
Q 33.9375 56 38.28125 53.609375 
Q 42.625 51.21875 45.40625 46.390625 
L 45.40625 54.6875 
L 54.390625 54.6875 
z
" id="DejaVuSans-103"/>
       <path d="M 12.40625 8.296875 
L 28.515625 8.296875 
L 28.515625 63.921875 
L 10.984375 60.40625 
L 10.984375 69.390625 
L 28.421875 72.90625 
L 38.28125 72.90625 
L 38.28125 8.296875 
L 54.390625 8.296875 
L 54.390625 0 
L 12.40625 0 
z
" id="DejaVuSans-49"/>
       <path d="M 31 75.875 
Q 24.46875 64.65625 21.28125 53.65625 
Q 18.109375 42.671875 18.109375 31.390625 
Q 18.109375 20.125 21.3125 9.0625 
Q 24.515625 -2 31 -13.1875 
L 23.1875 -13.1875 
Q 15.875 -1.703125 12.234375 9.375 
Q 8.59375 20.453125 8.59375 31.390625 
Q 8.59375 42.28125 12.203125 53.3125 
Q 15.828125 64.359375 23.1875 75.875 
z
" id="DejaVuSans-40"/>
       <path d="M 51.125 44 
L 36.921875 44 
L 32.8125 27.6875 
L 47.125 27.6875 
z
M 43.796875 71.78125 
L 38.71875 51.515625 
L 52.984375 51.515625 
L 58.109375 71.78125 
L 65.921875 71.78125 
L 60.890625 51.515625 
L 76.125 51.515625 
L 76.125 44 
L 58.984375 44 
L 54.984375 27.6875 
L 70.515625 27.6875 
L 70.515625 20.21875 
L 53.078125 20.21875 
L 48 0 
L 40.1875 0 
L 45.21875 20.21875 
L 30.90625 20.21875 
L 25.875 0 
L 18.015625 0 
L 23.09375 20.21875 
L 7.71875 20.21875 
L 7.71875 27.6875 
L 24.90625 27.6875 
L 29 44 
L 13.28125 44 
L 13.28125 51.515625 
L 30.90625 51.515625 
L 35.890625 71.78125 
z
" id="DejaVuSans-35"/>
       <path id="DejaVuSans-32"/>
       <path d="M 37.109375 75.984375 
L 37.109375 68.5 
L 28.515625 68.5 
Q 23.6875 68.5 21.796875 66.546875 
Q 19.921875 64.59375 19.921875 59.515625 
L 19.921875 54.6875 
L 34.71875 54.6875 
L 34.71875 47.703125 
L 19.921875 47.703125 
L 19.921875 0 
L 10.890625 0 
L 10.890625 47.703125 
L 2.296875 47.703125 
L 2.296875 54.6875 
L 10.890625 54.6875 
L 10.890625 58.5 
Q 10.890625 67.625 15.140625 71.796875 
Q 19.390625 75.984375 28.609375 75.984375 
z
" id="DejaVuSans-102"/>
       <path d="M 4.890625 31.390625 
L 31.203125 31.390625 
L 31.203125 23.390625 
L 4.890625 23.390625 
z
" id="DejaVuSans-45"/>
       <path d="M 56.203125 29.59375 
L 56.203125 25.203125 
L 14.890625 25.203125 
Q 15.484375 15.921875 20.484375 11.0625 
Q 25.484375 6.203125 34.421875 6.203125 
Q 39.59375 6.203125 44.453125 7.46875 
Q 49.3125 8.734375 54.109375 11.28125 
L 54.109375 2.78125 
Q 49.265625 0.734375 44.1875 -0.34375 
Q 39.109375 -1.421875 33.890625 -1.421875 
Q 20.796875 -1.421875 13.15625 6.1875 
Q 5.515625 13.8125 5.515625 26.8125 
Q 5.515625 40.234375 12.765625 48.109375 
Q 20.015625 56 32.328125 56 
Q 43.359375 56 49.78125 48.890625 
Q 56.203125 41.796875 56.203125 29.59375 
z
M 47.21875 32.234375 
Q 47.125 39.59375 43.09375 43.984375 
Q 39.0625 48.390625 32.421875 48.390625 
Q 24.90625 48.390625 20.390625 44.140625 
Q 15.875 39.890625 15.1875 32.171875 
z
" id="DejaVuSans-101"/>
       <path d="M 2.984375 54.6875 
L 12.5 54.6875 
L 29.59375 8.796875 
L 46.6875 54.6875 
L 56.203125 54.6875 
L 35.6875 0 
L 23.484375 0 
z
" id="DejaVuSans-118"/>
       <path d="M 34.28125 27.484375 
Q 23.390625 27.484375 19.1875 25 
Q 14.984375 22.515625 14.984375 16.5 
Q 14.984375 11.71875 18.140625 8.90625 
Q 21.296875 6.109375 26.703125 6.109375 
Q 34.1875 6.109375 38.703125 11.40625 
Q 43.21875 16.703125 43.21875 25.484375 
L 43.21875 27.484375 
z
M 52.203125 31.203125 
L 52.203125 0 
L 43.21875 0 
L 43.21875 8.296875 
Q 40.140625 3.328125 35.546875 0.953125 
Q 30.953125 -1.421875 24.3125 -1.421875 
Q 15.921875 -1.421875 10.953125 3.296875 
Q 6 8.015625 6 15.921875 
Q 6 25.140625 12.171875 29.828125 
Q 18.359375 34.515625 30.609375 34.515625 
L 43.21875 34.515625 
L 43.21875 35.40625 
Q 43.21875 41.609375 39.140625 45 
Q 35.0625 48.390625 27.6875 48.390625 
Q 23 48.390625 18.546875 47.265625 
Q 14.109375 46.140625 10.015625 43.890625 
L 10.015625 52.203125 
Q 14.9375 54.109375 19.578125 55.046875 
Q 24.21875 56 28.609375 56 
Q 40.484375 56 46.34375 49.84375 
Q 52.203125 43.703125 52.203125 31.203125 
z
" id="DejaVuSans-97"/>
       <path d="M 44.28125 53.078125 
L 44.28125 44.578125 
Q 40.484375 46.53125 36.375 47.5 
Q 32.28125 48.484375 27.875 48.484375 
Q 21.1875 48.484375 17.84375 46.4375 
Q 14.5 44.390625 14.5 40.28125 
Q 14.5 37.15625 16.890625 35.375 
Q 19.28125 33.59375 26.515625 31.984375 
L 29.59375 31.296875 
Q 39.15625 29.25 43.1875 25.515625 
Q 47.21875 21.78125 47.21875 15.09375 
Q 47.21875 7.46875 41.1875 3.015625 
Q 35.15625 -1.421875 24.609375 -1.421875 
Q 20.21875 -1.421875 15.453125 -0.5625 
Q 10.6875 0.296875 5.421875 2 
L 5.421875 11.28125 
Q 10.40625 8.6875 15.234375 7.390625 
Q 20.0625 6.109375 24.8125 6.109375 
Q 31.15625 6.109375 34.5625 8.28125 
Q 37.984375 10.453125 37.984375 14.40625 
Q 37.984375 18.0625 35.515625 20.015625 
Q 33.0625 21.96875 24.703125 23.78125 
L 21.578125 24.515625 
Q 13.234375 26.265625 9.515625 29.90625 
Q 5.8125 33.546875 5.8125 39.890625 
Q 5.8125 47.609375 11.28125 51.796875 
Q 16.75 56 26.8125 56 
Q 31.78125 56 36.171875 55.265625 
Q 40.578125 54.546875 44.28125 53.078125 
z
" id="DejaVuSans-115"/>
       <path d="M 25.390625 72.90625 
L 33.6875 72.90625 
L 8.296875 -9.28125 
L 0 -9.28125 
z
" id="DejaVuSans-47"/>
       <path d="M 45.40625 46.390625 
L 45.40625 75.984375 
L 54.390625 75.984375 
L 54.390625 0 
L 45.40625 0 
L 45.40625 8.203125 
Q 42.578125 3.328125 38.25 0.953125 
Q 33.9375 -1.421875 27.875 -1.421875 
Q 17.96875 -1.421875 11.734375 6.484375 
Q 5.515625 14.40625 5.515625 27.296875 
Q 5.515625 40.1875 11.734375 48.09375 
Q 17.96875 56 27.875 56 
Q 33.9375 56 38.25 53.625 
Q 42.578125 51.265625 45.40625 46.390625 
z
M 14.796875 27.296875 
Q 14.796875 17.390625 18.875 11.75 
Q 22.953125 6.109375 30.078125 6.109375 
Q 37.203125 6.109375 41.296875 11.75 
Q 45.40625 17.390625 45.40625 27.296875 
Q 45.40625 37.203125 41.296875 42.84375 
Q 37.203125 48.484375 30.078125 48.484375 
Q 22.953125 48.484375 18.875 42.84375 
Q 14.796875 37.203125 14.796875 27.296875 
z
" id="DejaVuSans-100"/>
       <path d="M 9.421875 54.6875 
L 18.40625 54.6875 
L 18.40625 0 
L 9.421875 0 
z
M 9.421875 75.984375 
L 18.40625 75.984375 
L 18.40625 64.59375 
L 9.421875 64.59375 
z
" id="DejaVuSans-105"/>
       <path d="M 52 44.1875 
Q 55.375 50.25 60.0625 53.125 
Q 64.75 56 71.09375 56 
Q 79.640625 56 84.28125 50.015625 
Q 88.921875 44.046875 88.921875 33.015625 
L 88.921875 0 
L 79.890625 0 
L 79.890625 32.71875 
Q 79.890625 40.578125 77.09375 44.375 
Q 74.3125 48.1875 68.609375 48.1875 
Q 61.625 48.1875 57.5625 43.546875 
Q 53.515625 38.921875 53.515625 30.90625 
L 53.515625 0 
L 44.484375 0 
L 44.484375 32.71875 
Q 44.484375 40.625 41.703125 44.40625 
Q 38.921875 48.1875 33.109375 48.1875 
Q 26.21875 48.1875 22.15625 43.53125 
Q 18.109375 38.875 18.109375 30.90625 
L 18.109375 0 
L 9.078125 0 
L 9.078125 54.6875 
L 18.109375 54.6875 
L 18.109375 46.1875 
Q 21.1875 51.21875 25.484375 53.609375 
Q 29.78125 56 35.6875 56 
Q 41.65625 56 45.828125 52.96875 
Q 50 49.953125 52 44.1875 
z
" id="DejaVuSans-109"/>
       <path d="M 54.890625 33.015625 
L 54.890625 0 
L 45.90625 0 
L 45.90625 32.71875 
Q 45.90625 40.484375 42.875 44.328125 
Q 39.84375 48.1875 33.796875 48.1875 
Q 26.515625 48.1875 22.3125 43.546875 
Q 18.109375 38.921875 18.109375 30.90625 
L 18.109375 0 
L 9.078125 0 
L 9.078125 54.6875 
L 18.109375 54.6875 
L 18.109375 46.1875 
Q 21.34375 51.125 25.703125 53.5625 
Q 30.078125 56 35.796875 56 
Q 45.21875 56 50.046875 50.171875 
Q 54.890625 44.34375 54.890625 33.015625 
z
" id="DejaVuSans-110"/>
       <path d="M 8.015625 75.875 
L 15.828125 75.875 
Q 23.140625 64.359375 26.78125 53.3125 
Q 30.421875 42.28125 30.421875 31.390625 
Q 30.421875 20.453125 26.78125 9.375 
Q 23.140625 -1.703125 15.828125 -13.1875 
L 8.015625 -13.1875 
Q 14.5 -2 17.703125 9.0625 
Q 20.90625 20.125 20.90625 31.390625 
Q 20.90625 42.671875 17.703125 53.65625 
Q 14.5 64.65625 8.015625 75.875 
z
" id="DejaVuSans-41"/>
      </defs>
      <use xlink:href="#DejaVuSans-108"/>
      <use x="27.783203" xlink:href="#DejaVuSans-111"/>
      <use x="88.964844" xlink:href="#DejaVuSans-103"/>
      <use x="152.441406" xlink:href="#DejaVuSans-49"/>
      <use x="216.064453" xlink:href="#DejaVuSans-48"/>
      <use x="279.6875" xlink:href="#DejaVuSans-40"/>
      <use x="318.701172" xlink:href="#DejaVuSans-35"/>
      <use x="402.490234" xlink:href="#DejaVuSans-32"/>
      <use x="434.277344" xlink:href="#DejaVuSans-102"/>
      <use x="463.982422" xlink:href="#DejaVuSans-45"/>
      <use x="500.066406" xlink:href="#DejaVuSans-101"/>
      <use x="561.589844" xlink:href="#DejaVuSans-118"/>
      <use x="620.769531" xlink:href="#DejaVuSans-97"/>
      <use x="682.048828" xlink:href="#DejaVuSans-108"/>
      <use x="709.832031" xlink:href="#DejaVuSans-115"/>
      <use x="761.931641" xlink:href="#DejaVuSans-32"/>
      <use x="793.71875" xlink:href="#DejaVuSans-47"/>
      <use x="827.410156" xlink:href="#DejaVuSans-32"/>
      <use x="859.197266" xlink:href="#DejaVuSans-100"/>
      <use x="922.673828" xlink:href="#DejaVuSans-105"/>
      <use x="950.457031" xlink:href="#DejaVuSans-109"/>
      <use x="1047.869141" xlink:href="#DejaVuSans-101"/>
      <use x="1109.392578" xlink:href="#DejaVuSans-110"/>
      <use x="1172.771484" xlink:href="#DejaVuSans-115"/>
      <use x="1224.871094" xlink:href="#DejaVuSans-105"/>
      <use x="1252.654297" xlink:href="#DejaVuSans-111"/>
      <use x="1313.835938" xlink:href="#DejaVuSans-110"/>
      <use x="1377.214844" xlink:href="#DejaVuSans-41"/>
     </g>
    </g>
   </g>
   <g id="matplotlib.axis_2">
    <g id="ytick_1">
     <g id="line2d_21">
      <path clip-path="url(#pf8288e555f)" d="M 57.6 298.944 
L 338.688 298.944 
" style="fill:none;stroke:#b0b0b0;stroke-linecap:square;stroke-width:0.8;"/>
     </g>
     <g id="line2d_22">
      <defs>
       <path d="M 0 0 
L -3.5 0 
" id="m07c9af6702" style="stroke:#000000;stroke-width:0.8;"/>
      </defs>
      <g>
       <use style="stroke:#000000;stroke-width:0.8;" x="57.6" xlink:href="#m07c9af6702" y="298.944"/>
      </g>
     </g>
     <g id="text_6">
      <!-- 0.0 -->
      <g transform="translate(25.155 305.02275)scale(0.16 -0.16)">
       <defs>
        <path d="M 10.6875 12.40625 
L 21 12.40625 
L 21 0 
L 10.6875 0 
z
" id="DejaVuSans-46"/>
       </defs>
       <use xlink:href="#DejaVuSans-48"/>
       <use x="63.623047" xlink:href="#DejaVuSans-46"/>
       <use x="95.410156" xlink:href="#DejaVuSans-48"/>
      </g>
     </g>
    </g>
    <g id="ytick_2">
     <g id="line2d_23">
      <path clip-path="url(#pf8288e555f)" d="M 57.6 245.22202 
L 338.688 245.22202 
" style="fill:none;stroke:#b0b0b0;stroke-linecap:square;stroke-width:0.8;"/>
     </g>
     <g id="line2d_24">
      <g>
       <use style="stroke:#000000;stroke-width:0.8;" x="57.6" xlink:href="#m07c9af6702" y="245.22202"/>
      </g>
     </g>
     <g id="text_7">
      <!-- 0.2 -->
      <g transform="translate(25.155 251.30077)scale(0.16 -0.16)">
       <use xlink:href="#DejaVuSans-48"/>
       <use x="63.623047" xlink:href="#DejaVuSans-46"/>
       <use x="95.410156" xlink:href="#DejaVuSans-50"/>
      </g>
     </g>
    </g>
    <g id="ytick_3">
     <g id="line2d_25">
      <path clip-path="url(#pf8288e555f)" d="M 57.6 191.50004 
L 338.688 191.50004 
" style="fill:none;stroke:#b0b0b0;stroke-linecap:square;stroke-width:0.8;"/>
     </g>
     <g id="line2d_26">
      <g>
       <use style="stroke:#000000;stroke-width:0.8;" x="57.6" xlink:href="#m07c9af6702" y="191.50004"/>
      </g>
     </g>
     <g id="text_8">
      <!-- 0.4 -->
      <g transform="translate(25.155 197.57879)scale(0.16 -0.16)">
       <use xlink:href="#DejaVuSans-48"/>
       <use x="63.623047" xlink:href="#DejaVuSans-46"/>
       <use x="95.410156" xlink:href="#DejaVuSans-52"/>
      </g>
     </g>
    </g>
    <g id="ytick_4">
     <g id="line2d_27">
      <path clip-path="url(#pf8288e555f)" d="M 57.6 137.778059 
L 338.688 137.778059 
" style="fill:none;stroke:#b0b0b0;stroke-linecap:square;stroke-width:0.8;"/>
     </g>
     <g id="line2d_28">
      <g>
       <use style="stroke:#000000;stroke-width:0.8;" x="57.6" xlink:href="#m07c9af6702" y="137.778059"/>
      </g>
     </g>
     <g id="text_9">
      <!-- 0.6 -->
      <g transform="translate(25.155 143.856809)scale(0.16 -0.16)">
       <use xlink:href="#DejaVuSans-48"/>
       <use x="63.623047" xlink:href="#DejaVuSans-46"/>
       <use x="95.410156" xlink:href="#DejaVuSans-54"/>
      </g>
     </g>
    </g>
    <g id="ytick_5">
     <g id="line2d_29">
      <path clip-path="url(#pf8288e555f)" d="M 57.6 84.056079 
L 338.688 84.056079 
" style="fill:none;stroke:#b0b0b0;stroke-linecap:square;stroke-width:0.8;"/>
     </g>
     <g id="line2d_30">
      <g>
       <use style="stroke:#000000;stroke-width:0.8;" x="57.6" xlink:href="#m07c9af6702" y="84.056079"/>
      </g>
     </g>
     <g id="text_10">
      <!-- 0.8 -->
      <g transform="translate(25.155 90.134829)scale(0.16 -0.16)">
       <defs>
        <path d="M 31.78125 34.625 
Q 24.75 34.625 20.71875 30.859375 
Q 16.703125 27.09375 16.703125 20.515625 
Q 16.703125 13.921875 20.71875 10.15625 
Q 24.75 6.390625 31.78125 6.390625 
Q 38.8125 6.390625 42.859375 10.171875 
Q 46.921875 13.96875 46.921875 20.515625 
Q 46.921875 27.09375 42.890625 30.859375 
Q 38.875 34.625 31.78125 34.625 
z
M 21.921875 38.8125 
Q 15.578125 40.375 12.03125 44.71875 
Q 8.5 49.078125 8.5 55.328125 
Q 8.5 64.0625 14.71875 69.140625 
Q 20.953125 74.21875 31.78125 74.21875 
Q 42.671875 74.21875 48.875 69.140625 
Q 55.078125 64.0625 55.078125 55.328125 
Q 55.078125 49.078125 51.53125 44.71875 
Q 48 40.375 41.703125 38.8125 
Q 48.828125 37.15625 52.796875 32.3125 
Q 56.78125 27.484375 56.78125 20.515625 
Q 56.78125 9.90625 50.3125 4.234375 
Q 43.84375 -1.421875 31.78125 -1.421875 
Q 19.734375 -1.421875 13.25 4.234375 
Q 6.78125 9.90625 6.78125 20.515625 
Q 6.78125 27.484375 10.78125 32.3125 
Q 14.796875 37.15625 21.921875 38.8125 
z
M 18.3125 54.390625 
Q 18.3125 48.734375 21.84375 45.5625 
Q 25.390625 42.390625 31.78125 42.390625 
Q 38.140625 42.390625 41.71875 45.5625 
Q 45.3125 48.734375 45.3125 54.390625 
Q 45.3125 60.0625 41.71875 63.234375 
Q 38.140625 66.40625 31.78125 66.40625 
Q 25.390625 66.40625 21.84375 63.234375 
Q 18.3125 60.0625 18.3125 54.390625 
z
" id="DejaVuSans-56"/>
       </defs>
       <use xlink:href="#DejaVuSans-48"/>
       <use x="63.623047" xlink:href="#DejaVuSans-46"/>
       <use x="95.410156" xlink:href="#DejaVuSans-56"/>
      </g>
     </g>
    </g>
    <g id="ytick_6">
     <g id="line2d_31">
      <path clip-path="url(#pf8288e555f)" d="M 57.6 30.334099 
L 338.688 30.334099 
" style="fill:none;stroke:#b0b0b0;stroke-linecap:square;stroke-width:0.8;"/>
     </g>
     <g id="line2d_32">
      <g>
       <use style="stroke:#000000;stroke-width:0.8;" x="57.6" xlink:href="#m07c9af6702" y="30.334099"/>
      </g>
     </g>
     <g id="text_11">
      <!-- 1.0 -->
      <g transform="translate(25.155 36.412849)scale(0.16 -0.16)">
       <use xlink:href="#DejaVuSans-49"/>
       <use x="63.623047" xlink:href="#DejaVuSans-46"/>
       <use x="95.410156" xlink:href="#DejaVuSans-48"/>
      </g>
     </g>
    </g>
    <g id="text_12">
     <!-- Fraction of function,target pairs -->
     <g transform="translate(17.619531 297.681)rotate(-90)scale(0.17 -0.17)">
      <defs>
       <path d="M 9.8125 72.90625 
L 51.703125 72.90625 
L 51.703125 64.59375 
L 19.671875 64.59375 
L 19.671875 43.109375 
L 48.578125 43.109375 
L 48.578125 34.8125 
L 19.671875 34.8125 
L 19.671875 0 
L 9.8125 0 
z
" id="DejaVuSans-70"/>
       <path d="M 41.109375 46.296875 
Q 39.59375 47.171875 37.8125 47.578125 
Q 36.03125 48 33.890625 48 
Q 26.265625 48 22.1875 43.046875 
Q 18.109375 38.09375 18.109375 28.8125 
L 18.109375 0 
L 9.078125 0 
L 9.078125 54.6875 
L 18.109375 54.6875 
L 18.109375 46.1875 
Q 20.953125 51.171875 25.484375 53.578125 
Q 30.03125 56 36.53125 56 
Q 37.453125 56 38.578125 55.875 
Q 39.703125 55.765625 41.0625 55.515625 
z
" id="DejaVuSans-114"/>
       <path d="M 48.78125 52.59375 
L 48.78125 44.1875 
Q 44.96875 46.296875 41.140625 47.34375 
Q 37.3125 48.390625 33.40625 48.390625 
Q 24.65625 48.390625 19.8125 42.84375 
Q 14.984375 37.3125 14.984375 27.296875 
Q 14.984375 17.28125 19.8125 11.734375 
Q 24.65625 6.203125 33.40625 6.203125 
Q 37.3125 6.203125 41.140625 7.25 
Q 44.96875 8.296875 48.78125 10.40625 
L 48.78125 2.09375 
Q 45.015625 0.34375 40.984375 -0.53125 
Q 36.96875 -1.421875 32.421875 -1.421875 
Q 20.0625 -1.421875 12.78125 6.34375 
Q 5.515625 14.109375 5.515625 27.296875 
Q 5.515625 40.671875 12.859375 48.328125 
Q 20.21875 56 33.015625 56 
Q 37.15625 56 41.109375 55.140625 
Q 45.0625 54.296875 48.78125 52.59375 
z
" id="DejaVuSans-99"/>
       <path d="M 18.3125 70.21875 
L 18.3125 54.6875 
L 36.8125 54.6875 
L 36.8125 47.703125 
L 18.3125 47.703125 
L 18.3125 18.015625 
Q 18.3125 11.328125 20.140625 9.421875 
Q 21.96875 7.515625 27.59375 7.515625 
L 36.8125 7.515625 
L 36.8125 0 
L 27.59375 0 
Q 17.1875 0 13.234375 3.875 
Q 9.28125 7.765625 9.28125 18.015625 
L 9.28125 47.703125 
L 2.6875 47.703125 
L 2.6875 54.6875 
L 9.28125 54.6875 
L 9.28125 70.21875 
z
" id="DejaVuSans-116"/>
       <path d="M 8.5 21.578125 
L 8.5 54.6875 
L 17.484375 54.6875 
L 17.484375 21.921875 
Q 17.484375 14.15625 20.5 10.265625 
Q 23.53125 6.390625 29.59375 6.390625 
Q 36.859375 6.390625 41.078125 11.03125 
Q 45.3125 15.671875 45.3125 23.6875 
L 45.3125 54.6875 
L 54.296875 54.6875 
L 54.296875 0 
L 45.3125 0 
L 45.3125 8.40625 
Q 42.046875 3.421875 37.71875 1 
Q 33.40625 -1.421875 27.6875 -1.421875 
Q 18.265625 -1.421875 13.375 4.4375 
Q 8.5 10.296875 8.5 21.578125 
z
M 31.109375 56 
z
" id="DejaVuSans-117"/>
       <path d="M 11.71875 12.40625 
L 22.015625 12.40625 
L 22.015625 4 
L 14.015625 -11.625 
L 7.71875 -11.625 
L 11.71875 4 
z
" id="DejaVuSans-44"/>
       <path d="M 18.109375 8.203125 
L 18.109375 -20.796875 
L 9.078125 -20.796875 
L 9.078125 54.6875 
L 18.109375 54.6875 
L 18.109375 46.390625 
Q 20.953125 51.265625 25.265625 53.625 
Q 29.59375 56 35.59375 56 
Q 45.5625 56 51.78125 48.09375 
Q 58.015625 40.1875 58.015625 27.296875 
Q 58.015625 14.40625 51.78125 6.484375 
Q 45.5625 -1.421875 35.59375 -1.421875 
Q 29.59375 -1.421875 25.265625 0.953125 
Q 20.953125 3.328125 18.109375 8.203125 
z
M 48.6875 27.296875 
Q 48.6875 37.203125 44.609375 42.84375 
Q 40.53125 48.484375 33.40625 48.484375 
Q 26.265625 48.484375 22.1875 42.84375 
Q 18.109375 37.203125 18.109375 27.296875 
Q 18.109375 17.390625 22.1875 11.75 
Q 26.265625 6.109375 33.40625 6.109375 
Q 40.53125 6.109375 44.609375 11.75 
Q 48.6875 17.390625 48.6875 27.296875 
z
" id="DejaVuSans-112"/>
      </defs>
      <use xlink:href="#DejaVuSans-70"/>
      <use x="50.269531" xlink:href="#DejaVuSans-114"/>
      <use x="91.382812" xlink:href="#DejaVuSans-97"/>
      <use x="152.662109" xlink:href="#DejaVuSans-99"/>
      <use x="207.642578" xlink:href="#DejaVuSans-116"/>
      <use x="246.851562" xlink:href="#DejaVuSans-105"/>
      <use x="274.634766" xlink:href="#DejaVuSans-111"/>
      <use x="335.816406" xlink:href="#DejaVuSans-110"/>
      <use x="399.195312" xlink:href="#DejaVuSans-32"/>
      <use x="430.982422" xlink:href="#DejaVuSans-111"/>
      <use x="492.164062" xlink:href="#DejaVuSans-102"/>
      <use x="527.369141" xlink:href="#DejaVuSans-32"/>
      <use x="559.15625" xlink:href="#DejaVuSans-102"/>
      <use x="594.361328" xlink:href="#DejaVuSans-117"/>
      <use x="657.740234" xlink:href="#DejaVuSans-110"/>
      <use x="721.119141" xlink:href="#DejaVuSans-99"/>
      <use x="776.099609" xlink:href="#DejaVuSans-116"/>
      <use x="815.308594" xlink:href="#DejaVuSans-105"/>
      <use x="843.091797" xlink:href="#DejaVuSans-111"/>
      <use x="904.273438" xlink:href="#DejaVuSans-110"/>
      <use x="967.652344" xlink:href="#DejaVuSans-44"/>
      <use x="999.439453" xlink:href="#DejaVuSans-116"/>
      <use x="1038.648438" xlink:href="#DejaVuSans-97"/>
      <use x="1099.927734" xlink:href="#DejaVuSans-114"/>
      <use x="1139.291016" xlink:href="#DejaVuSans-103"/>
      <use x="1202.767578" xlink:href="#DejaVuSans-101"/>
      <use x="1264.291016" xlink:href="#DejaVuSans-116"/>
      <use x="1303.5" xlink:href="#DejaVuSans-32"/>
      <use x="1335.287109" xlink:href="#DejaVuSans-112"/>
      <use x="1398.763672" xlink:href="#DejaVuSans-97"/>
      <use x="1460.042969" xlink:href="#DejaVuSans-105"/>
      <use x="1487.826172" xlink:href="#DejaVuSans-114"/>
      <use x="1528.939453" xlink:href="#DejaVuSans-115"/>
     </g>
    </g>
   </g>
   <g id="line2d_33">
    <defs>
     <path d="M 0 1.5 
C 0.397805 1.5 0.77937 1.341951 1.06066 1.06066 
C 1.341951 0.77937 1.5 0.397805 1.5 0 
C 1.5 -0.397805 1.341951 -0.77937 1.06066 -1.06066 
C 0.77937 -1.341951 0.397805 -1.5 0 -1.5 
C -0.397805 -1.5 -0.77937 -1.341951 -1.06066 -1.06066 
C -1.341951 -0.77937 -1.5 -0.397805 -1.5 0 
C -1.5 0.397805 -1.341951 0.77937 -1.06066 1.06066 
C -0.77937 1.341951 -0.397805 1.5 0 1.5 
z
" id="mb0e60d8185" style="stroke:#f5deb3;"/>
    </defs>
    <g>
     <use style="fill:#f5deb3;stroke:#f5deb3;" x="340.794713" xlink:href="#mb0e60d8185" y="62.752535"/>
     <use style="fill:#f5deb3;stroke:#f5deb3;" x="340.794713" xlink:href="#mb0e60d8185" y="62.752535"/>
    </g>
   </g>
   <g id="line2d_34">
    <defs>
     <path d="M 0 1.5 
C 0.397805 1.5 0.77937 1.341951 1.06066 1.06066 
C 1.341951 0.77937 1.5 0.397805 1.5 0 
C 1.5 -0.397805 1.341951 -0.77937 1.06066 -1.06066 
C 0.77937 -1.341951 0.397805 -1.5 0 -1.5 
C -0.397805 -1.5 -0.77937 -1.341951 -1.06066 -1.06066 
C -1.341951 -0.77937 -1.5 -0.397805 -1.5 0 
C -1.5 0.397805 -1.341951 0.77937 -1.06066 1.06066 
C -0.77937 1.341951 -0.397805 1.5 0 1.5 
z
" id="m5ab6ff12f0" style="stroke:#000080;"/>
    </defs>
    <g>
     <use style="fill:#000080;stroke:#000080;" x="253.752415" xlink:href="#m5ab6ff12f0" y="284.587264"/>
     <use style="fill:#000080;stroke:#000080;" x="253.752415" xlink:href="#m5ab6ff12f0" y="284.587264"/>
    </g>
   </g>
   <g id="line2d_35">
    <path d="M 29.53256 298.944 
L 29.53256 297.554638 
L 87.643811 297.554638 
L 87.643811 297.091518 
L 93.863965 297.091518 
L 93.863965 296.628397 
L 112.58145 296.628397 
L 112.58145 296.165277 
L 114.284194 296.165277 
L 114.284194 295.702156 
L 116.914437 295.702156 
L 116.914437 295.239036 
L 118.148599 295.239036 
L 118.148599 294.312795 
L 120.382253 294.312795 
L 120.382253 293.849674 
L 120.47729 293.849674 
L 120.47729 293.386554 
L 122.44689 293.386554 
L 122.44689 292.923433 
L 124.965026 292.923433 
L 124.965026 291.997192 
L 125.752972 291.997192 
L 125.752972 291.534072 
L 128.590686 291.534072 
L 128.590686 290.607831 
L 129.853291 290.607831 
L 129.853291 290.14471 
L 133.216421 290.14471 
L 133.216421 289.68159 
L 159.62811 289.68159 
L 159.62811 289.218469 
L 209.623256 289.218469 
L 209.623256 288.755349 
L 218.545844 288.755349 
L 218.545844 288.292228 
L 219.281918 288.292228 
L 219.281918 287.829108 
L 226.481343 287.829108 
L 226.481343 287.365987 
L 227.615873 287.365987 
L 227.615873 286.902867 
L 239.669942 286.902867 
L 239.669942 286.439746 
L 241.736123 286.439746 
L 241.736123 285.976625 
L 249.556269 285.976625 
L 249.556269 285.513505 
L 249.56633 285.513505 
L 249.56633 285.050384 
L 253.752415 285.050384 
L 253.752415 284.587264 
L 338.688 284.587264 
" style="fill:none;stroke:#000080;stroke-linecap:square;stroke-width:1.5;"/>
   </g>
   <g id="line2d_36">
    <defs>
     <path d="M 0 6 
C 1.591219 6 3.117479 5.367802 4.242641 4.242641 
C 5.367802 3.117479 6 1.591219 6 0 
C 6 -1.591219 5.367802 -3.117479 4.242641 -4.242641 
C 3.117479 -5.367802 1.591219 -6 0 -6 
C -1.591219 -6 -3.117479 -5.367802 -4.242641 -4.242641 
C -5.367802 -3.117479 -6 -1.591219 -6 0 
C -6 1.591219 -5.367802 3.117479 -4.242641 4.242641 
C -3.117479 5.367802 -1.591219 6 0 6 
z
" id="mcf4bcd53e7" style="stroke:#000080;stroke-width:1.5;"/>
    </defs>
    <g>
     <use style="fill-opacity:0;stroke:#000080;stroke-width:1.5;" x="133.216421" xlink:href="#mcf4bcd53e7" y="290.14471"/>
     <use style="fill-opacity:0;stroke:#000080;stroke-width:1.5;" x="209.623256" xlink:href="#mcf4bcd53e7" y="288.755349"/>
     <use style="fill-opacity:0;stroke:#000080;stroke-width:1.5;" x="253.752415" xlink:href="#mcf4bcd53e7" y="285.050384"/>
     <use style="fill-opacity:0;stroke:#000080;stroke-width:1.5;" x="253.752415" xlink:href="#mcf4bcd53e7" y="284.587264"/>
     <use style="fill-opacity:0;stroke:#000080;stroke-width:1.5;" x="338.688" xlink:href="#mcf4bcd53e7" y="284.587264"/>
    </g>
   </g>
   <g id="line2d_37">
    <path style="fill:none;stroke:#000080;stroke-linecap:square;stroke-width:1.5;"/>
    <g/>
   </g>
   <g id="line2d_38">
    <path clip-path="url(#pf8288e555f)" d="M 258.377143 284.587264 
" style="fill:none;stroke:#000080;stroke-linecap:square;stroke-width:1.5;"/>
    <defs>
     <path d="M -12 12 
L 12 -12 
M -12 -12 
L 12 12 
" id="m4c38df5d59" style="stroke:#000080;"/>
    </defs>
    <g clip-path="url(#pf8288e555f)">
     <use style="fill:#000080;stroke:#000080;" x="258.377143" xlink:href="#m4c38df5d59" y="284.587264"/>
    </g>
   </g>
   <g id="line2d_39">
    <defs>
     <path d="M 0 1.5 
C 0.397805 1.5 0.77937 1.341951 1.06066 1.06066 
C 1.341951 0.77937 1.5 0.397805 1.5 0 
C 1.5 -0.397805 1.341951 -0.77937 1.06066 -1.06066 
C 0.77937 -1.341951 0.397805 -1.5 0 -1.5 
C -0.397805 -1.5 -0.77937 -1.341951 -1.06066 -1.06066 
C -1.341951 -0.77937 -1.5 -0.397805 -1.5 0 
C -1.5 0.397805 -1.341951 0.77937 -1.06066 1.06066 
C -0.77937 1.341951 -0.397805 1.5 0 1.5 
z
" id="m6b16249e44" style="stroke:#ff00ff;"/>
    </defs>
    <g>
     <use style="fill:#ff00ff;stroke:#ff00ff;" x="224.769217" xlink:href="#m6b16249e44" y="229.012802"/>
     <use style="fill:#ff00ff;stroke:#ff00ff;" x="224.769217" xlink:href="#m6b16249e44" y="229.012802"/>
    </g>
   </g>
   <g id="line2d_40">
    <path d="M 29.53256 298.944 
L 29.53256 295.239036 
L 41.620548 295.239036 
L 41.620548 293.386554 
L 48.691568 293.386554 
L 48.691568 292.923433 
L 53.708537 292.923433 
L 53.708537 292.460313 
L 57.6 292.460313 
L 57.6 291.997192 
L 60.779557 291.997192 
L 60.779557 291.070951 
L 65.796525 291.070951 
L 65.796525 290.607831 
L 69.687988 290.607831 
L 69.687988 290.14471 
L 81.775977 290.14471 
L 81.775977 289.68159 
L 88.846997 289.68159 
L 88.846997 287.829108 
L 90.509138 287.829108 
L 90.509138 287.365987 
L 91.535274 287.365987 
L 91.535274 286.902867 
L 100.641881 286.902867 
L 100.641881 286.439746 
L 125.110962 286.439746 
L 125.110962 285.976625 
L 131.938072 285.976625 
L 131.938072 285.513505 
L 140.317849 285.513505 
L 140.317849 284.587264 
L 140.79731 284.587264 
L 140.79731 284.124143 
L 140.915143 284.124143 
L 140.915143 283.661023 
L 142.673105 283.661023 
L 142.673105 283.197902 
L 143.11861 283.197902 
L 143.11861 282.734782 
L 143.553018 282.734782 
L 143.553018 282.271661 
L 146.40993 282.271661 
L 146.40993 281.808541 
L 146.854132 281.808541 
L 146.854132 281.34542 
L 150.749772 281.34542 
L 150.749772 280.8823 
L 151.357131 280.8823 
L 151.357131 280.419179 
L 151.645126 280.419179 
L 151.645126 279.956059 
L 151.944047 279.956059 
L 151.944047 279.492938 
L 152.736878 279.492938 
L 152.736878 279.029818 
L 152.944315 279.029818 
L 152.944315 277.640456 
L 153.580644 277.640456 
L 153.665645 276.251095 
L 154.276638 276.251095 
L 154.276638 275.787974 
L 154.998366 275.787974 
L 155.011454 274.398612 
L 155.206599 274.398612 
L 155.206599 273.935492 
L 156.040206 273.935492 
L 156.064855 273.009251 
L 156.272978 273.009251 
L 156.272978 272.54613 
L 156.941506 272.54613 
L 156.941506 272.08301 
L 157.483465 272.08301 
L 157.483465 271.619889 
L 158.271501 271.619889 
L 158.271501 270.230528 
L 158.753132 270.230528 
L 158.753132 269.304287 
L 159.293606 269.304287 
L 159.293606 268.841166 
L 159.405822 268.841166 
L 159.405822 268.378046 
L 160.355672 268.378046 
L 160.355672 267.914925 
L 160.698938 267.914925 
L 160.698938 267.451805 
L 160.821253 267.451805 
L 160.821253 266.525564 
L 161.955547 266.525564 
L 161.955547 266.062443 
L 162.389382 266.062443 
L 162.389382 265.599323 
L 162.55145 265.599323 
L 162.593851 264.209961 
L 162.90445 264.209961 
L 162.995734 262.8206 
L 163.266752 262.8206 
L 163.266752 262.357479 
L 163.89108 262.357479 
L 163.89108 261.894358 
L 164.032036 261.894358 
L 164.032036 261.431238 
L 164.341251 261.431238 
L 164.341251 260.968117 
L 164.697709 260.968117 
L 164.697709 260.504997 
L 165.039666 260.504997 
L 165.039666 260.041876 
L 165.711185 260.041876 
L 165.711185 259.578756 
L 165.943384 259.578756 
L 165.943384 259.115635 
L 166.096483 259.115635 
L 166.117256 257.726274 
L 166.702476 257.726274 
L 166.702476 256.800033 
L 166.895472 256.800033 
L 166.902089 255.873792 
L 167.04047 255.873792 
L 167.099442 254.48443 
L 169.565775 254.48443 
L 169.565775 253.558189 
L 169.802665 253.558189 
L 169.802665 253.095069 
L 170.014255 253.095069 
L 170.014255 252.168828 
L 170.195944 252.168828 
L 170.195944 251.705707 
L 170.381181 251.705707 
L 170.381181 251.242587 
L 170.788258 251.242587 
L 170.788258 250.779466 
L 171.024887 250.779466 
L 171.024887 250.316346 
L 172.122951 250.316346 
L 172.176814 248.463863 
L 172.520528 248.463863 
L 172.520528 247.537622 
L 173.026049 247.537622 
L 173.030705 246.148261 
L 173.266531 246.148261 
L 173.266531 245.68514 
L 173.920102 245.68514 
L 174.012759 243.832658 
L 174.69877 243.832658 
L 174.808425 242.906417 
L 176.25985 242.906417 
L 176.25985 241.980176 
L 176.467508 241.980176 
L 176.467508 241.517056 
L 177.387048 241.517056 
L 177.437743 240.127694 
L 177.588952 240.127694 
L 177.588952 239.201453 
L 179.782247 239.201453 
L 179.782247 238.738333 
L 179.999004 238.738333 
L 179.999004 238.275212 
L 180.111034 238.275212 
L 180.111034 237.348971 
L 181.008809 237.348971 
L 181.008809 236.88585 
L 181.679299 236.88585 
L 181.682134 235.496489 
L 184.677886 235.496489 
L 184.677886 234.570248 
L 187.013738 234.570248 
L 187.013738 234.107127 
L 187.623113 234.107127 
L 187.623113 233.180886 
L 190.451679 233.180886 
L 190.451679 232.717766 
L 191.942787 232.717766 
L 191.942787 231.791525 
L 195.913397 231.791525 
L 195.913397 231.328404 
L 206.566389 231.328404 
L 206.566389 230.402163 
L 224.134831 230.402163 
L 224.223564 229.475922 
L 224.769217 229.475922 
L 224.769217 229.012802 
L 338.688 229.012802 
L 338.688 229.012802 
" style="fill:none;stroke:#ff00ff;stroke-linecap:square;stroke-width:1.5;"/>
   </g>
   <g id="line2d_41">
    <defs>
     <path d="M -0 8.485281 
L 5.091169 0 
L 0 -8.485281 
L -5.091169 -0 
z
" id="mbcc1a53c5f" style="stroke:#ff00ff;stroke-linejoin:miter;stroke-width:1.5;"/>
    </defs>
    <g>
     <use style="fill-opacity:0;stroke:#ff00ff;stroke-linejoin:miter;stroke-width:1.5;" x="100.641881" xlink:href="#mbcc1a53c5f" y="286.439746"/>
     <use style="fill-opacity:0;stroke:#ff00ff;stroke-linejoin:miter;stroke-width:1.5;" x="173.266531" xlink:href="#mbcc1a53c5f" y="245.68514"/>
     <use style="fill-opacity:0;stroke:#ff00ff;stroke-linejoin:miter;stroke-width:1.5;" x="224.769217" xlink:href="#mbcc1a53c5f" y="229.475922"/>
     <use style="fill-opacity:0;stroke:#ff00ff;stroke-linejoin:miter;stroke-width:1.5;" x="224.769217" xlink:href="#mbcc1a53c5f" y="229.012802"/>
     <use style="fill-opacity:0;stroke:#ff00ff;stroke-linejoin:miter;stroke-width:1.5;" x="224.769217" xlink:href="#mbcc1a53c5f" y="229.012802"/>
     <use style="fill-opacity:0;stroke:#ff00ff;stroke-linejoin:miter;stroke-width:1.5;" x="338.688" xlink:href="#mbcc1a53c5f" y="229.012802"/>
    </g>
   </g>
   <g id="line2d_42">
    <path style="fill:none;stroke:#ff00ff;stroke-linecap:square;stroke-width:1.5;"/>
    <g/>
   </g>
   <g id="line2d_43">
    <path clip-path="url(#pf8288e555f)" d="M 258.377178 229.012802 
" style="fill:none;stroke:#ff00ff;stroke-linecap:square;stroke-width:1.5;"/>
    <defs>
     <path d="M -12 12 
L 12 -12 
M -12 -12 
L 12 12 
" id="m48fc0bfe70" style="stroke:#ff00ff;"/>
    </defs>
    <g clip-path="url(#pf8288e555f)">
     <use style="fill:#ff00ff;stroke:#ff00ff;" x="258.377178" xlink:href="#m48fc0bfe70" y="229.012802"/>
    </g>
   </g>
   <g id="line2d_44">
    <defs>
     <path d="M 0 1.5 
C 0.397805 1.5 0.77937 1.341951 1.06066 1.06066 
C 1.341951 0.77937 1.5 0.397805 1.5 0 
C 1.5 -0.397805 1.341951 -0.77937 1.06066 -1.06066 
C 0.77937 -1.341951 0.397805 -1.5 0 -1.5 
C -0.397805 -1.5 -0.77937 -1.341951 -1.06066 -1.06066 
C -1.341951 -0.77937 -1.5 -0.397805 -1.5 0 
C -1.5 0.397805 -1.341951 0.77937 -1.06066 1.06066 
C -0.77937 1.341951 -0.397805 1.5 0 1.5 
z
" id="m0d5bff1c50" style="stroke:#ff7500;"/>
    </defs>
    <g>
     <use style="fill:#ff7500;stroke:#ff7500;" x="258.016207" xlink:href="#m0d5bff1c50" y="207.246137"/>
     <use style="fill:#ff7500;stroke:#ff7500;" x="258.016207" xlink:href="#m0d5bff1c50" y="207.246137"/>
    </g>
   </g>
   <g id="line2d_45">
    <path d="M 145.350002 298.944 
L 145.350002 298.480879 
L 150.866312 298.480879 
L 150.866312 298.017759 
L 151.031458 298.017759 
L 151.031458 297.554638 
L 151.162458 297.554638 
L 151.162458 297.091518 
L 151.565603 297.091518 
L 151.565603 296.628397 
L 152.26858 296.628397 
L 152.299175 295.702156 
L 152.900071 295.702156 
L 152.900071 295.239036 
L 153.707991 295.239036 
L 153.707991 293.386554 
L 154.734529 293.386554 
L 154.734529 292.923433 
L 155.115803 292.923433 
L 155.115803 291.070951 
L 155.245367 291.070951 
L 155.245367 290.14471 
L 155.55245 290.14471 
L 155.55245 289.218469 
L 156.394253 289.218469 
L 156.49067 287.365987 
L 156.847557 287.365987 
L 156.847557 286.902867 
L 157.081488 286.902867 
L 157.116308 285.976625 
L 157.528821 285.976625 
L 157.528821 285.050384 
L 157.652944 285.050384 
L 157.652944 284.587264 
L 158.042106 284.587264 
L 158.042106 284.124143 
L 158.304027 284.124143 
L 158.304027 282.734782 
L 159.201253 282.734782 
L 159.201253 282.271661 
L 159.648178 282.271661 
L 159.648178 281.808541 
L 159.837683 281.808541 
L 159.837683 281.34542 
L 160.103486 281.34542 
L 160.103486 280.8823 
L 160.403753 280.8823 
L 160.432539 279.029818 
L 160.651664 279.029818 
L 160.746084 277.640456 
L 161.365843 277.640456 
L 161.365843 276.714215 
L 161.582595 276.714215 
L 161.582595 276.251095 
L 161.7078 276.251095 
L 161.7078 275.787974 
L 162.182487 275.787974 
L 162.225793 274.398612 
L 162.38081 274.398612 
L 162.432178 273.009251 
L 162.602318 273.009251 
L 162.602318 272.54613 
L 163.045324 272.54613 
L 163.111226 270.230528 
L 164.086545 270.230528 
L 164.086545 269.304287 
L 164.645079 269.304287 
L 164.645079 268.841166 
L 164.958502 268.841166 
L 164.958502 268.378046 
L 165.288176 268.378046 
L 165.360599 266.062443 
L 165.547501 266.062443 
L 165.633093 264.673082 
L 166.061806 264.673082 
L 166.165632 263.28372 
L 166.186323 263.28372 
L 166.186323 262.8206 
L 166.682389 262.8206 
L 166.682389 262.357479 
L 166.915315 262.357479 
L 166.915315 261.894358 
L 167.262214 261.894358 
L 167.281645 259.578756 
L 167.608702 259.578756 
L 167.608702 258.652515 
L 167.879768 258.652515 
L 167.954668 257.726274 
L 168.470152 257.726274 
L 168.470152 257.263153 
L 168.614678 257.263153 
L 168.632659 255.410671 
L 169.181091 255.410671 
L 169.181091 254.947551 
L 169.325624 254.947551 
L 169.325624 254.48443 
L 169.491796 254.48443 
L 169.594146 253.558189 
L 170.644724 253.558189 
L 170.682051 252.631948 
L 170.998753 252.631948 
L 171.045766 251.705707 
L 171.514136 251.705707 
L 171.514136 251.242587 
L 171.796233 251.242587 
L 171.796233 250.316346 
L 171.910786 250.316346 
L 171.910786 249.853225 
L 172.577957 249.853225 
L 172.630434 248.926984 
L 174.087407 248.926984 
L 174.087407 248.000743 
L 175.334356 248.000743 
L 175.334356 247.074502 
L 175.516968 247.074502 
L 175.516968 246.611381 
L 175.797284 246.611381 
L 175.797284 246.148261 
L 175.923943 246.148261 
L 175.923943 245.22202 
L 177.394299 245.22202 
L 177.394299 244.295779 
L 177.964843 244.295779 
L 178.055819 242.906417 
L 178.10461 242.906417 
L 178.10461 241.053935 
L 180.360501 241.053935 
L 180.360501 240.590815 
L 180.884622 240.590815 
L 180.884622 240.127694 
L 181.44525 240.127694 
L 181.44525 239.201453 
L 182.404016 239.201453 
L 182.404016 238.275212 
L 183.456786 238.275212 
L 183.456786 237.348971 
L 183.919165 237.348971 
L 183.919165 236.88585 
L 184.080492 236.88585 
L 184.080492 236.42273 
L 184.950287 236.42273 
L 184.950287 235.959609 
L 185.715886 235.959609 
L 185.715886 235.496489 
L 185.966012 235.496489 
L 185.966012 234.570248 
L 189.387785 234.570248 
L 189.387785 233.644007 
L 189.922543 233.644007 
L 189.927844 232.254645 
L 190.868413 232.254645 
L 190.868413 231.328404 
L 192.659729 231.328404 
L 192.659729 230.402163 
L 193.546164 230.402163 
L 193.546164 229.475922 
L 193.881737 229.475922 
L 193.881737 228.549681 
L 196.472163 228.549681 
L 196.472163 227.62344 
L 197.066457 227.62344 
L 197.066457 226.697199 
L 197.285646 226.697199 
L 197.285646 225.770958 
L 199.113207 225.770958 
L 199.113207 224.844717 
L 199.855676 224.844717 
L 199.855676 224.381596 
L 200.217833 224.381596 
L 200.217833 223.918476 
L 200.501468 223.918476 
L 200.501468 223.455355 
L 203.47507 223.455355 
L 203.539946 222.529114 
L 203.590866 222.529114 
L 203.590866 222.065994 
L 208.475579 222.065994 
L 208.475579 221.602873 
L 210.799085 221.602873 
L 210.799085 220.676632 
L 212.670682 220.676632 
L 212.670682 219.750391 
L 213.596077 219.750391 
L 213.596077 218.82415 
L 215.388322 218.82415 
L 215.388322 217.897909 
L 216.557446 217.897909 
L 216.557446 217.434789 
L 226.991407 217.434789 
L 226.991407 216.508548 
L 228.999623 216.508548 
L 228.999623 216.045427 
L 233.529759 216.045427 
L 233.529759 215.119186 
L 235.504902 215.119186 
L 235.504902 214.656066 
L 240.886806 214.656066 
L 240.886806 213.729825 
L 242.765418 213.729825 
L 242.765418 212.803583 
L 243.911285 212.803583 
L 243.911285 211.877342 
L 248.352814 211.877342 
L 248.352814 210.951101 
L 248.713334 210.951101 
L 248.713334 210.02486 
L 251.666591 210.02486 
L 251.666591 209.56174 
L 255.558925 209.56174 
L 255.558925 209.098619 
L 256.720777 209.098619 
L 256.720777 208.635499 
L 257.66876 208.635499 
L 257.66876 208.172378 
L 258.016207 208.172378 
L 258.016207 207.246137 
L 338.688 207.246137 
L 338.688 207.246137 
" style="fill:none;stroke:#ff7500;stroke-linecap:square;stroke-width:1.5;"/>
   </g>
   <g id="line2d_46">
    <defs>
     <path d="M 0 -6 
L -1.347084 -1.854102 
L -5.706339 -1.854102 
L -2.179628 0.708204 
L -3.526712 4.854102 
L -0 2.291796 
L 3.526712 4.854102 
L 2.179628 0.708204 
L 5.706339 -1.854102 
L 1.347084 -1.854102 
z
" id="maf93849ed5" style="stroke:#ff7500;stroke-linejoin:bevel;stroke-width:1.5;"/>
    </defs>
    <g>
     <use style="fill-opacity:0;stroke:#ff7500;stroke-linejoin:bevel;stroke-width:1.5;" x="168.632659" xlink:href="#maf93849ed5" y="255.873792"/>
     <use style="fill-opacity:0;stroke:#ff7500;stroke-linejoin:bevel;stroke-width:1.5;" x="199.113207" xlink:href="#maf93849ed5" y="224.844717"/>
     <use style="fill-opacity:0;stroke:#ff7500;stroke-linejoin:bevel;stroke-width:1.5;" x="258.016207" xlink:href="#maf93849ed5" y="208.172378"/>
     <use style="fill-opacity:0;stroke:#ff7500;stroke-linejoin:bevel;stroke-width:1.5;" x="258.016207" xlink:href="#maf93849ed5" y="207.246137"/>
     <use style="fill-opacity:0;stroke:#ff7500;stroke-linejoin:bevel;stroke-width:1.5;" x="338.688" xlink:href="#maf93849ed5" y="207.246137"/>
    </g>
   </g>
   <g id="line2d_47">
    <path style="fill:none;stroke:#ff7500;stroke-linecap:square;stroke-width:1.5;"/>
    <g/>
   </g>
   <g id="line2d_48">
    <path clip-path="url(#pf8288e555f)" d="M 258.377143 207.246137 
" style="fill:none;stroke:#ff7500;stroke-linecap:square;stroke-width:1.5;"/>
    <defs>
     <path d="M -12 12 
L 12 -12 
M -12 -12 
L 12 12 
" id="m933a73efb4" style="stroke:#ff7500;"/>
    </defs>
    <g clip-path="url(#pf8288e555f)">
     <use style="fill:#ff7500;stroke:#ff7500;" x="258.377143" xlink:href="#m933a73efb4" y="207.246137"/>
    </g>
   </g>
   <g id="line2d_49">
    <defs>
     <path d="M 0 1.5 
C 0.397805 1.5 0.77937 1.341951 1.06066 1.06066 
C 1.341951 0.77937 1.5 0.397805 1.5 0 
C 1.5 -0.397805 1.341951 -0.77937 1.06066 -1.06066 
C 0.77937 -1.341951 0.397805 -1.5 0 -1.5 
C -0.397805 -1.5 -0.77937 -1.341951 -1.06066 -1.06066 
C -1.341951 -0.77937 -1.5 -0.397805 -1.5 0 
C -1.5 0.397805 -1.341951 0.77937 -1.06066 1.06066 
C -0.77937 1.341951 -0.397805 1.5 0 1.5 
z
" id="mb5259ede7d" style="stroke:#6495ed;"/>
    </defs>
    <g>
     <use style="fill:#6495ed;stroke:#6495ed;" x="257.464478" xlink:href="#mb5259ede7d" y="202.151812"/>
     <use style="fill:#6495ed;stroke:#6495ed;" x="257.464478" xlink:href="#mb5259ede7d" y="202.151812"/>
    </g>
   </g>
   <g id="line2d_50">
    <path d="M 29.53256 298.944 
L 29.53256 294.775915 
L 133.975741 294.775915 
L 133.975741 294.312795 
L 141.292695 294.312795 
L 141.292695 293.849674 
L 141.492656 293.849674 
L 141.492656 293.386554 
L 143.040814 293.386554 
L 143.092717 291.997192 
L 143.828447 291.997192 
L 143.828447 291.534072 
L 145.097753 291.534072 
L 145.097753 291.070951 
L 145.463466 291.070951 
L 145.463466 290.607831 
L 145.976095 290.607831 
L 146.041862 289.68159 
L 146.367029 289.68159 
L 146.388493 288.292228 
L 146.516724 288.292228 
L 146.516724 287.365987 
L 146.791364 287.365987 
L 146.895853 285.976625 
L 147.102973 285.976625 
L 147.102973 285.050384 
L 147.287301 285.050384 
L 147.287301 284.587264 
L 148.54473 284.587264 
L 148.563676 283.661023 
L 148.752007 283.661023 
L 148.826773 281.808541 
L 149.214124 281.808541 
L 149.25057 280.419179 
L 149.485628 280.419179 
L 149.485628 279.956059 
L 149.628721 279.956059 
L 149.628721 279.492938 
L 150.429467 279.492938 
L 150.51433 278.566697 
L 150.54816 278.566697 
L 150.598782 276.251095 
L 150.833094 276.251095 
L 150.833094 275.787974 
L 150.982078 275.787974 
L 151.047887 272.08301 
L 151.1298 272.08301 
L 151.1298 271.619889 
L 151.834513 271.619889 
L 151.834513 270.693648 
L 151.975216 270.693648 
L 151.975216 270.230528 
L 152.39064 270.230528 
L 152.39064 269.304287 
L 153.323128 269.304287 
L 153.323128 268.841166 
L 153.452361 268.841166 
L 153.537988 267.451805 
L 154.139643 267.451805 
L 154.19457 266.525564 
L 154.959044 266.525564 
L 154.959044 266.062443 
L 156.052535 266.062443 
L 156.052535 265.599323 
L 156.741256 265.599323 
L 156.741256 265.136202 
L 157.116308 265.136202 
L 157.116308 264.673082 
L 157.675417 264.673082 
L 157.675417 264.209961 
L 158.064083 264.209961 
L 158.064083 263.746841 
L 158.336493 263.746841 
L 158.379686 262.8206 
L 158.668475 262.8206 
L 158.668475 262.357479 
L 158.805835 262.357479 
L 158.805835 261.894358 
L 159.567767 261.894358 
L 159.567767 260.968117 
L 159.748174 260.968117 
L 159.748174 260.041876 
L 160.278464 260.041876 
L 160.278464 259.578756 
L 161.201492 259.578756 
L 161.201492 258.652515 
L 162.217141 258.652515 
L 162.29486 257.263153 
L 162.440724 257.263153 
L 162.440724 256.336912 
L 162.946002 256.336912 
L 163.01228 254.947551 
L 163.094774 254.947551 
L 163.094774 254.02131 
L 164.279845 254.02131 
L 164.279845 253.558189 
L 164.780093 253.558189 
L 164.780093 253.095069 
L 165.647318 253.095069 
L 165.647318 252.631948 
L 165.866327 252.631948 
L 165.866327 252.168828 
L 166.473452 252.168828 
L 166.473452 251.705707 
L 169.400311 251.705707 
L 169.400311 250.779466 
L 170.97258 250.779466 
L 171.077038 249.853225 
L 171.376477 249.853225 
L 171.376477 248.926984 
L 172.682755 248.926984 
L 172.786927 247.537622 
L 175.998714 247.537622 
L 175.998714 246.611381 
L 177.061275 246.611381 
L 177.061275 246.148261 
L 177.394299 246.148261 
L 177.394299 245.68514 
L 178.52071 245.68514 
L 178.52071 245.22202 
L 181.205103 245.22202 
L 181.205103 244.758899 
L 181.896254 244.758899 
L 181.896254 244.295779 
L 185.33154 244.295779 
L 185.33154 243.832658 
L 186.260631 243.832658 
L 186.260631 243.369538 
L 187.637221 243.369538 
L 187.637221 242.906417 
L 187.86341 242.906417 
L 187.86341 241.980176 
L 189.073356 241.980176 
L 189.073356 241.517056 
L 192.945884 241.517056 
L 192.945884 240.590815 
L 195.250411 240.590815 
L 195.254317 239.201453 
L 198.624401 239.201453 
L 198.624401 238.738333 
L 200.917513 238.738333 
L 200.917513 238.275212 
L 202.189866 238.275212 
L 202.189866 237.348971 
L 204.485182 237.348971 
L 204.485182 236.42273 
L 205.745778 236.42273 
L 205.745778 235.496489 
L 206.260916 235.496489 
L 206.260916 234.570248 
L 208.658204 234.570248 
L 208.658204 233.644007 
L 211.399857 233.644007 
L 211.435408 231.791525 
L 211.831824 231.791525 
L 211.831824 231.328404 
L 214.415929 231.328404 
L 214.415929 230.865284 
L 215.457936 230.865284 
L 215.457936 230.402163 
L 215.830328 230.402163 
L 215.830328 229.939043 
L 215.951123 229.939043 
L 215.951123 229.475922 
L 219.232617 229.475922 
L 219.232617 229.012802 
L 219.592256 229.012802 
L 219.592256 228.086561 
L 220.600428 228.086561 
L 220.600428 227.16032 
L 220.95766 227.16032 
L 220.95766 226.234079 
L 227.411153 226.234079 
L 227.411153 225.770958 
L 234.188465 225.770958 
L 234.188465 224.844717 
L 234.377455 224.844717 
L 234.379526 223.918476 
L 234.809323 223.918476 
L 234.809323 222.992235 
L 236.722022 222.992235 
L 236.80357 220.213512 
L 236.869541 220.213512 
L 236.869541 219.750391 
L 240.987782 219.750391 
L 240.987782 219.287271 
L 241.15029 219.287271 
L 241.15029 218.36103 
L 241.684241 218.36103 
L 241.684241 217.434789 
L 243.324873 217.434789 
L 243.324873 216.971668 
L 243.99821 216.971668 
L 244.098473 215.119186 
L 244.125423 215.119186 
L 244.125423 214.656066 
L 244.395692 214.656066 
L 244.395692 213.729825 
L 244.519353 213.729825 
L 244.57524 212.803583 
L 245.235824 212.803583 
L 245.235824 212.340463 
L 245.402491 212.340463 
L 245.402491 211.877342 
L 245.657647 211.877342 
L 245.657647 210.951101 
L 246.243963 210.951101 
L 246.243963 210.02486 
L 247.619152 210.02486 
L 247.619152 209.098619 
L 248.925535 209.098619 
L 248.925535 208.635499 
L 249.345505 208.635499 
L 249.345505 208.172378 
L 253.978702 208.172378 
L 253.978702 207.246137 
L 255.143986 207.246137 
L 255.143986 206.319896 
L 255.259059 206.319896 
L 255.259059 205.856776 
L 256.81121 205.856776 
L 256.898178 204.004294 
L 257.107024 204.004294 
L 257.107024 203.078053 
L 257.464478 203.078053 
L 257.464478 202.151812 
L 338.688 202.151812 
L 338.688 202.151812 
" style="fill:none;stroke:#6495ed;stroke-linecap:square;stroke-width:1.5;"/>
   </g>
   <g id="line2d_51">
    <defs>
     <path d="M -0 6 
L 6 -6 
L -6 -6 
z
" id="m974ce2cad3" style="stroke:#6495ed;stroke-linejoin:miter;stroke-width:1.5;"/>
    </defs>
    <g>
     <use style="fill-opacity:0;stroke:#6495ed;stroke-linejoin:miter;stroke-width:1.5;" x="145.976095" xlink:href="#m974ce2cad3" y="290.14471"/>
     <use style="fill-opacity:0;stroke:#6495ed;stroke-linejoin:miter;stroke-width:1.5;" x="198.624401" xlink:href="#m974ce2cad3" y="238.738333"/>
     <use style="fill-opacity:0;stroke:#6495ed;stroke-linejoin:miter;stroke-width:1.5;" x="253.978702" xlink:href="#m974ce2cad3" y="207.246137"/>
     <use style="fill-opacity:0;stroke:#6495ed;stroke-linejoin:miter;stroke-width:1.5;" x="257.464478" xlink:href="#m974ce2cad3" y="202.151812"/>
     <use style="fill-opacity:0;stroke:#6495ed;stroke-linejoin:miter;stroke-width:1.5;" x="257.464478" xlink:href="#m974ce2cad3" y="202.151812"/>
     <use style="fill-opacity:0;stroke:#6495ed;stroke-linejoin:miter;stroke-width:1.5;" x="338.688" xlink:href="#m974ce2cad3" y="202.151812"/>
    </g>
   </g>
   <g id="line2d_52">
    <path style="fill:none;stroke:#6495ed;stroke-linecap:square;stroke-width:1.5;"/>
    <g/>
   </g>
   <g id="line2d_53">
    <path clip-path="url(#pf8288e555f)" d="M 258.381432 202.151812 
" style="fill:none;stroke:#6495ed;stroke-linecap:square;stroke-width:1.5;"/>
    <defs>
     <path d="M -12 12 
L 12 -12 
M -12 -12 
L 12 12 
" id="m3ceaa60c29" style="stroke:#6495ed;"/>
    </defs>
    <g clip-path="url(#pf8288e555f)">
     <use style="fill:#6495ed;stroke:#6495ed;" x="258.381432" xlink:href="#m3ceaa60c29" y="202.151812"/>
    </g>
   </g>
   <g id="line2d_54">
    <defs>
     <path d="M 0 1.5 
C 0.397805 1.5 0.77937 1.341951 1.06066 1.06066 
C 1.341951 0.77937 1.5 0.397805 1.5 0 
C 1.5 -0.397805 1.341951 -0.77937 1.06066 -1.06066 
C 0.77937 -1.341951 0.397805 -1.5 0 -1.5 
C -0.397805 -1.5 -0.77937 -1.341951 -1.06066 -1.06066 
C -1.341951 -0.77937 -1.5 -0.397805 -1.5 0 
C -1.5 0.397805 -1.341951 0.77937 -1.06066 1.06066 
C -0.77937 1.341951 -0.397805 1.5 0 1.5 
z
" id="mba786d63f0" style="stroke:#ff0000;"/>
    </defs>
    <g>
     <use style="fill:#ff0000;stroke:#ff0000;" x="300.092132" xlink:href="#mba786d63f0" y="119.253239"/>
     <use style="fill:#ff0000;stroke:#ff0000;" x="300.092132" xlink:href="#mba786d63f0" y="119.253239"/>
    </g>
   </g>
   <g id="line2d_55">
    <path d="M 29.53256 298.944 
L 29.53256 295.239036 
L 41.620548 295.239036 
L 41.620548 292.923433 
L 48.691568 292.923433 
L 48.691568 292.460313 
L 53.708537 292.460313 
L 53.708537 291.997192 
L 60.779557 291.997192 
L 60.779557 289.68159 
L 65.796525 289.68159 
L 65.796525 289.218469 
L 67.850577 289.218469 
L 67.850577 288.755349 
L 69.687988 288.755349 
L 69.687988 288.292228 
L 71.35013 288.292228 
L 71.35013 287.829108 
L 74.263433 287.829108 
L 74.263433 286.439746 
L 75.555822 286.439746 
L 75.555822 285.976625 
L 79.938565 285.976625 
L 79.938565 285.513505 
L 81.775977 285.513505 
L 81.775977 285.050384 
L 82.626842 285.050384 
L 82.626842 284.587264 
L 87.643811 284.587264 
L 87.643811 281.808541 
L 88.846997 281.808541 
L 88.846997 280.8823 
L 90.509138 280.8823 
L 90.509138 278.566697 
L 91.029752 278.566697 
L 91.029752 278.103577 
L 91.535274 278.103577 
L 91.535274 277.640456 
L 92.026554 277.640456 
L 92.026554 277.177336 
L 93.422441 277.177336 
L 93.422441 276.714215 
L 94.294587 276.714215 
L 94.294587 276.251095 
L 94.714831 276.251095 
L 94.714831 275.787974 
L 95.918017 275.787974 
L 95.918017 275.324854 
L 96.676366 275.324854 
L 96.676366 274.861733 
L 97.755429 274.861733 
L 97.755429 274.398612 
L 99.731799 274.398612 
L 99.731799 273.935492 
L 100.040467 273.935492 
L 100.040467 273.472371 
L 100.934985 273.472371 
L 100.934985 272.08301 
L 103.870632 272.08301 
L 103.870632 271.619889 
L 106.168594 271.619889 
L 106.168594 271.156769 
L 106.382575 271.156769 
L 106.382575 270.693648 
L 109.668146 270.693648 
L 109.668146 270.230528 
L 113.311233 270.230528 
L 113.311233 269.767407 
L 113.594805 269.767407 
L 113.594805 269.304287 
L 115.33349 269.304287 
L 115.33349 268.841166 
L 116.797786 268.841166 
L 116.797786 268.378046 
L 118.890808 268.378046 
L 118.890808 267.914925 
L 120.47729 267.914925 
L 120.47729 267.451805 
L 121.931406 267.451805 
L 121.931406 266.988684 
L 122.104932 266.988684 
L 122.104932 266.525564 
L 124.292765 266.525564 
L 124.292765 266.062443 
L 125.470548 266.062443 
L 125.470548 265.599323 
L 126.50685 265.599323 
L 126.50685 265.136202 
L 128.885774 265.136202 
L 128.885774 264.673082 
L 129.002426 264.673082 
L 129.002426 263.746841 
L 131.740458 263.746841 
L 131.740458 262.8206 
L 132.659801 262.8206 
L 132.659801 262.357479 
L 133.533096 262.357479 
L 133.533096 261.894358 
L 136.905847 261.894358 
L 136.905847 261.431238 
L 137.126135 261.431238 
L 137.126135 260.968117 
L 138.256201 260.968117 
L 138.256201 260.041876 
L 138.927025 260.041876 
L 138.927025 259.578756 
L 140.79731 259.578756 
L 140.79731 257.726274 
L 141.378673 257.726274 
L 141.378673 257.263153 
L 143.853271 257.263153 
L 143.853271 256.800033 
L 144.390658 256.800033 
L 144.390658 255.873792 
L 144.93531 255.873792 
L 144.93531 254.947551 
L 149.214124 254.947551 
L 149.214124 254.48443 
L 149.557321 254.48443 
L 149.557321 254.02131 
L 152.436193 254.02131 
L 152.436193 253.558189 
L 160.083935 253.558189 
L 160.191194 252.168828 
L 178.170609 252.168828 
L 178.170609 251.242587 
L 179.472902 251.242587 
L 179.472902 250.316346 
L 179.857946 250.316346 
L 179.857946 249.853225 
L 180.111034 249.853225 
L 180.111034 249.390104 
L 180.369672 249.390104 
L 180.381893 248.463863 
L 180.606449 248.463863 
L 180.606449 247.537622 
L 181.263273 247.537622 
L 181.263273 247.074502 
L 181.502625 247.074502 
L 181.502625 246.611381 
L 181.628191 246.611381 
L 181.628191 245.68514 
L 182.847104 245.68514 
L 182.847104 245.22202 
L 183.110264 245.22202 
L 183.214426 242.443297 
L 183.451664 242.443297 
L 183.451664 241.980176 
L 183.60974 241.980176 
L 183.60974 241.517056 
L 184.447185 241.517056 
L 184.447185 241.053935 
L 194.521897 241.053935 
L 194.521897 240.127694 
L 195.043469 240.127694 
L 195.043469 239.664574 
L 197.06059 239.664574 
L 197.06059 238.738333 
L 197.999591 238.738333 
L 197.999591 238.275212 
L 198.228295 238.275212 
L 198.285279 236.88585 
L 198.462705 236.88585 
L 198.462705 235.959609 
L 199.307226 235.959609 
L 199.307226 235.496489 
L 200.165853 235.496489 
L 200.165853 234.570248 
L 203.665763 234.570248 
L 203.665763 233.644007 
L 206.106499 233.644007 
L 206.106499 233.180886 
L 206.590869 233.180886 
L 206.590869 232.717766 
L 207.845261 232.717766 
L 207.845261 231.791525 
L 212.562458 231.791525 
L 212.562458 231.328404 
L 216.026445 231.328404 
L 216.026445 230.865284 
L 216.743698 230.865284 
L 216.743698 229.939043 
L 223.727565 229.939043 
L 223.727565 229.475922 
L 223.896149 229.475922 
L 223.896149 228.549681 
L 224.79005 228.549681 
L 224.79005 227.16032 
L 227.378174 227.16032 
L 227.389105 225.770958 
L 230.480639 225.770958 
L 230.480639 224.844717 
L 230.915872 224.844717 
L 230.915872 223.918476 
L 231.194915 223.918476 
L 231.244242 220.676632 
L 231.328338 220.676632 
L 231.371384 219.750391 
L 231.611271 219.750391 
L 231.611271 219.287271 
L 232.752812 219.287271 
L 232.752812 218.82415 
L 233.090164 218.82415 
L 233.090164 217.897909 
L 233.614805 217.897909 
L 233.716374 216.508548 
L 234.011656 216.508548 
L 234.011656 215.582307 
L 234.127486 215.582307 
L 234.127486 214.656066 
L 235.783984 214.656066 
L 235.783984 214.192945 
L 236.101135 214.192945 
L 236.153105 212.340463 
L 237.082889 212.340463 
L 237.082889 211.414222 
L 237.422527 211.414222 
L 237.422527 210.951101 
L 237.539509 210.951101 
L 237.544923 209.56174 
L 237.874182 209.56174 
L 237.919669 208.172378 
L 238.110032 208.172378 
L 238.110032 207.709258 
L 239.304489 207.709258 
L 239.304489 207.246137 
L 239.642494 207.246137 
L 239.704472 205.856776 
L 239.902585 205.856776 
L 239.902585 204.930535 
L 240.61165 204.930535 
L 240.683469 203.078053 
L 241.240907 203.078053 
L 241.240907 202.614932 
L 242.419999 202.614932 
L 242.419999 201.688691 
L 242.723619 201.688691 
L 242.723619 200.76245 
L 244.291654 200.76245 
L 244.291654 199.836209 
L 244.458949 199.836209 
L 244.458949 199.373088 
L 246.496491 199.373088 
L 246.534913 197.983727 
L 246.855291 197.983727 
L 246.855291 197.520606 
L 247.251011 197.520606 
L 247.251011 197.057486 
L 247.710372 197.057486 
L 247.821382 195.205004 
L 247.911806 195.205004 
L 248.006506 194.278763 
L 248.388783 194.278763 
L 248.388783 193.352522 
L 248.502391 193.352522 
L 248.579761 191.036919 
L 248.619659 191.036919 
L 248.619659 190.573799 
L 248.857336 190.573799 
L 248.968181 189.184437 
L 249.039048 189.184437 
L 249.078683 187.795075 
L 249.380712 187.795075 
L 249.419288 186.868834 
L 249.539313 186.868834 
L 249.539313 186.405714 
L 250.329705 186.405714 
L 250.329705 185.942593 
L 250.514851 185.942593 
L 250.514851 185.479473 
L 251.24132 185.479473 
L 251.267085 183.626991 
L 251.694652 183.626991 
L 251.756452 182.237629 
L 252.142184 182.237629 
L 252.142184 181.774509 
L 252.715473 181.774509 
L 252.715473 180.848268 
L 254.81135 180.848268 
L 254.820976 179.458906 
L 257.060783 179.458906 
L 257.060783 178.995786 
L 257.212082 178.995786 
L 257.212082 178.532665 
L 257.486149 178.532665 
L 257.486149 177.606424 
L 257.810935 177.606424 
L 257.8275 176.680183 
L 257.935869 176.680183 
L 257.946383 175.753942 
L 258.112828 175.753942 
L 258.112828 174.827701 
L 258.447456 174.827701 
L 258.447456 174.36458 
L 258.730008 174.36458 
L 258.730008 173.90146 
L 258.920406 173.90146 
L 258.920406 173.438339 
L 259.301596 173.438339 
L 259.301596 172.975219 
L 260.207253 172.975219 
L 260.207253 172.512098 
L 260.630119 172.512098 
L 260.630119 171.585857 
L 261.930004 171.585857 
L 261.930004 171.122737 
L 262.071027 171.122737 
L 262.071027 170.659616 
L 262.508338 170.659616 
L 262.508338 169.733375 
L 265.253481 169.733375 
L 265.253481 169.270255 
L 267.746658 169.270255 
L 267.764707 164.63905 
L 268.050687 164.63905 
L 268.050687 164.175929 
L 268.586864 164.175929 
L 268.586864 163.712808 
L 268.993587 163.712808 
L 268.993587 163.249688 
L 269.33611 163.249688 
L 269.33611 162.323447 
L 270.033424 162.323447 
L 270.033424 161.397206 
L 277.339153 161.397206 
L 277.339153 160.470965 
L 278.281654 160.470965 
L 278.281654 160.007844 
L 278.603421 160.007844 
L 278.603421 159.544724 
L 278.73452 159.544724 
L 278.73452 159.081603 
L 279.029597 159.081603 
L 279.046493 158.155362 
L 279.168737 158.155362 
L 279.249394 156.766001 
L 279.429519 156.766001 
L 279.500944 153.987278 
L 279.673958 153.987278 
L 279.673958 153.524157 
L 279.931909 153.524157 
L 280.014385 152.597916 
L 280.357366 152.597916 
L 280.413153 151.208554 
L 280.666849 151.208554 
L 280.744111 150.282313 
L 280.990077 150.282313 
L 280.990077 149.819193 
L 281.523235 149.819193 
L 281.523235 149.356072 
L 281.723319 149.356072 
L 281.723319 148.892952 
L 281.96078 148.892952 
L 281.96078 147.966711 
L 283.291397 147.966711 
L 283.303128 146.577349 
L 284.483738 146.577349 
L 284.483738 146.114229 
L 288.034668 146.114229 
L 288.035592 144.724867 
L 288.800903 144.724867 
L 288.828585 138.7043 
L 289.384059 138.7043 
L 289.384059 137.778059 
L 289.901743 137.778059 
L 290.009053 136.851818 
L 290.406036 136.851818 
L 290.406036 136.388698 
L 290.535649 136.388698 
L 290.535649 135.925577 
L 290.81631 135.925577 
L 290.890643 133.146854 
L 290.963184 133.146854 
L 291.046772 132.220613 
L 291.530801 132.220613 
L 291.603531 131.294372 
L 291.680046 131.294372 
L 291.703203 129.905011 
L 291.897451 129.905011 
L 291.897451 128.97877 
L 292.208383 128.97877 
L 292.291063 127.589408 
L 292.346903 127.589408 
L 292.418265 124.810685 
L 293.021255 124.810685 
L 293.081451 123.421323 
L 293.235722 123.421323 
L 293.235722 122.495082 
L 293.36553 122.495082 
L 293.36553 121.568841 
L 293.477865 121.568841 
L 293.477865 121.105721 
L 293.693439 121.105721 
L 293.693439 120.17948 
L 296.418561 120.17948 
L 296.418561 119.716359 
L 300.092132 119.716359 
L 300.092132 119.253239 
L 338.688 119.253239 
L 338.688 119.253239 
" style="fill:none;stroke:#ff0000;stroke-linecap:square;stroke-width:1.5;"/>
   </g>
   <g id="line2d_56">
    <defs>
     <path d="M 0 -6 
L -5.196152 -3 
L -5.196152 3 
L -0 6 
L 5.196152 3 
L 5.196152 -3 
z
" id="m4dbee668ea" style="stroke:#ff0000;stroke-linejoin:miter;stroke-width:1.5;"/>
    </defs>
    <g>
     <use style="fill-opacity:0;stroke:#ff0000;stroke-linejoin:miter;stroke-width:1.5;" x="96.676366" xlink:href="#m4dbee668ea" y="274.861733"/>
     <use style="fill-opacity:0;stroke:#ff0000;stroke-linejoin:miter;stroke-width:1.5;" x="181.502625" xlink:href="#m4dbee668ea" y="246.611381"/>
     <use style="fill-opacity:0;stroke:#ff0000;stroke-linejoin:miter;stroke-width:1.5;" x="252.715473" xlink:href="#m4dbee668ea" y="181.774509"/>
     <use style="fill-opacity:0;stroke:#ff0000;stroke-linejoin:miter;stroke-width:1.5;" x="290.535649" xlink:href="#m4dbee668ea" y="136.388698"/>
     <use style="fill-opacity:0;stroke:#ff0000;stroke-linejoin:miter;stroke-width:1.5;" x="300.092132" xlink:href="#m4dbee668ea" y="119.253239"/>
     <use style="fill-opacity:0;stroke:#ff0000;stroke-linejoin:miter;stroke-width:1.5;" x="338.688" xlink:href="#m4dbee668ea" y="119.253239"/>
    </g>
   </g>
   <g id="line2d_57">
    <path style="fill:none;stroke:#ff0000;stroke-linecap:square;stroke-width:1.5;"/>
    <g/>
   </g>
   <g id="line2d_58">
    <path clip-path="url(#pf8288e555f)" d="M 301.352172 119.253239 
" style="fill:none;stroke:#ff0000;stroke-linecap:square;stroke-width:1.5;"/>
    <defs>
     <path d="M -12 12 
L 12 -12 
M -12 -12 
L 12 12 
" id="m084f1be0b5" style="stroke:#ff0000;"/>
    </defs>
    <g clip-path="url(#pf8288e555f)">
     <use style="fill:#ff0000;stroke:#ff0000;" x="301.352172" xlink:href="#m084f1be0b5" y="119.253239"/>
    </g>
   </g>
   <g id="line2d_59">
    <path d="M 338.688 284.587264 
L 369.60768 293.571802 
" style="fill:none;stroke:#000080;stroke-linecap:square;stroke-width:1.5;"/>
    <g>
     <use style="fill-opacity:0;stroke:#000080;stroke-width:1.5;" x="338.688" xlink:href="#mcf4bcd53e7" y="284.587264"/>
     <use style="fill-opacity:0;stroke:#000080;stroke-width:1.5;" x="369.60768" xlink:href="#mcf4bcd53e7" y="293.571802"/>
    </g>
   </g>
   <g id="line2d_60">
    <path d="M 338.688 229.012802 
L 369.60768 241.998701 
" style="fill:none;stroke:#ff00ff;stroke-linecap:square;stroke-width:1.5;"/>
    <g>
     <use style="fill-opacity:0;stroke:#ff00ff;stroke-linejoin:miter;stroke-width:1.5;" x="338.688" xlink:href="#mbcc1a53c5f" y="229.012802"/>
     <use style="fill-opacity:0;stroke:#ff00ff;stroke-linejoin:miter;stroke-width:1.5;" x="369.60768" xlink:href="#mbcc1a53c5f" y="241.998701"/>
    </g>
   </g>
   <g id="line2d_61">
    <path d="M 338.688 207.246137 
L 369.60768 190.4256 
" style="fill:none;stroke:#ff7500;stroke-linecap:square;stroke-width:1.5;"/>
    <g>
     <use style="fill-opacity:0;stroke:#ff7500;stroke-linejoin:bevel;stroke-width:1.5;" x="338.688" xlink:href="#maf93849ed5" y="207.246137"/>
     <use style="fill-opacity:0;stroke:#ff7500;stroke-linejoin:bevel;stroke-width:1.5;" x="369.60768" xlink:href="#maf93849ed5" y="190.4256"/>
    </g>
   </g>
   <g id="line2d_62">
    <path d="M 338.688 202.151812 
L 369.60768 138.852499 
" style="fill:none;stroke:#6495ed;stroke-linecap:square;stroke-width:1.5;"/>
    <g>
     <use style="fill-opacity:0;stroke:#6495ed;stroke-linejoin:miter;stroke-width:1.5;" x="338.688" xlink:href="#m974ce2cad3" y="202.151812"/>
     <use style="fill-opacity:0;stroke:#6495ed;stroke-linejoin:miter;stroke-width:1.5;" x="369.60768" xlink:href="#m974ce2cad3" y="138.852499"/>
    </g>
   </g>
   <g id="line2d_63">
    <path d="M 338.688 119.253239 
L 369.60768 87.279398 
" style="fill:none;stroke:#ff0000;stroke-linecap:square;stroke-width:1.5;"/>
    <g>
     <use style="fill-opacity:0;stroke:#ff0000;stroke-linejoin:miter;stroke-width:1.5;" x="338.688" xlink:href="#m4dbee668ea" y="119.253239"/>
     <use style="fill-opacity:0;stroke:#ff0000;stroke-linejoin:miter;stroke-width:1.5;" x="369.60768" xlink:href="#m4dbee668ea" y="87.279398"/>
    </g>
   </g>
   <g id="line2d_64">
    <path d="M 338.688 298.944 
L 338.688 30.334099 
" style="fill:none;stroke:#000000;stroke-linecap:square;stroke-width:1.5;"/>
   </g>
   <g id="patch_3">
    <path d="M 57.6 298.944 
L 57.6 27.648 
" style="fill:none;stroke:#000000;stroke-linecap:square;stroke-linejoin:miter;stroke-width:0.8;"/>
   </g>
   <g id="patch_4">
    <path d="M 338.688 298.944 
L 338.688 27.648 
" style="fill:none;stroke:#000000;stroke-linecap:square;stroke-linejoin:miter;stroke-width:0.8;"/>
   </g>
   <g id="patch_5">
    <path d="M 57.6 298.944 
L 338.688 298.944 
" style="fill:none;stroke:#000000;stroke-linecap:square;stroke-linejoin:miter;stroke-width:0.8;"/>
   </g>
   <g id="patch_6">
    <path d="M 57.6 27.648 
L 338.688 27.648 
" style="fill:none;stroke:#000000;stroke-linecap:square;stroke-linejoin:miter;stroke-width:0.8;"/>
   </g>
   <g id="text_13">
    <!-- MOLE -->
    <g transform="translate(375.22944 298.262739)scale(0.17 -0.17)">
     <defs>
      <path d="M 9.8125 72.90625 
L 24.515625 72.90625 
L 43.109375 23.296875 
L 61.8125 72.90625 
L 76.515625 72.90625 
L 76.515625 0 
L 66.890625 0 
L 66.890625 64.015625 
L 48.09375 14.015625 
L 38.1875 14.015625 
L 19.390625 64.015625 
L 19.390625 0 
L 9.8125 0 
z
" id="DejaVuSans-77"/>
      <path d="M 39.40625 66.21875 
Q 28.65625 66.21875 22.328125 58.203125 
Q 16.015625 50.203125 16.015625 36.375 
Q 16.015625 22.609375 22.328125 14.59375 
Q 28.65625 6.59375 39.40625 6.59375 
Q 50.140625 6.59375 56.421875 14.59375 
Q 62.703125 22.609375 62.703125 36.375 
Q 62.703125 50.203125 56.421875 58.203125 
Q 50.140625 66.21875 39.40625 66.21875 
z
M 39.40625 74.21875 
Q 54.734375 74.21875 63.90625 63.9375 
Q 73.09375 53.65625 73.09375 36.375 
Q 73.09375 19.140625 63.90625 8.859375 
Q 54.734375 -1.421875 39.40625 -1.421875 
Q 24.03125 -1.421875 14.8125 8.828125 
Q 5.609375 19.09375 5.609375 36.375 
Q 5.609375 53.65625 14.8125 63.9375 
Q 24.03125 74.21875 39.40625 74.21875 
z
" id="DejaVuSans-79"/>
      <path d="M 9.8125 72.90625 
L 19.671875 72.90625 
L 19.671875 8.296875 
L 55.171875 8.296875 
L 55.171875 0 
L 9.8125 0 
z
" id="DejaVuSans-76"/>
      <path d="M 9.8125 72.90625 
L 55.90625 72.90625 
L 55.90625 64.59375 
L 19.671875 64.59375 
L 19.671875 43.015625 
L 54.390625 43.015625 
L 54.390625 34.71875 
L 19.671875 34.71875 
L 19.671875 8.296875 
L 56.78125 8.296875 
L 56.78125 0 
L 9.8125 0 
z
" id="DejaVuSans-69"/>
     </defs>
     <use xlink:href="#DejaVuSans-77"/>
     <use x="86.279297" xlink:href="#DejaVuSans-79"/>
     <use x="164.990234" xlink:href="#DejaVuSans-76"/>
     <use x="220.703125" xlink:href="#DejaVuSans-69"/>
    </g>
   </g>
   <g id="text_14">
    <!-- SMS-EMOA- -->
    <g transform="translate(375.22944 246.689638)scale(0.17 -0.17)">
     <defs>
      <path d="M 53.515625 70.515625 
L 53.515625 60.890625 
Q 47.90625 63.578125 42.921875 64.890625 
Q 37.9375 66.21875 33.296875 66.21875 
Q 25.25 66.21875 20.875 63.09375 
Q 16.5 59.96875 16.5 54.203125 
Q 16.5 49.359375 19.40625 46.890625 
Q 22.3125 44.4375 30.421875 42.921875 
L 36.375 41.703125 
Q 47.40625 39.59375 52.65625 34.296875 
Q 57.90625 29 57.90625 20.125 
Q 57.90625 9.515625 50.796875 4.046875 
Q 43.703125 -1.421875 29.984375 -1.421875 
Q 24.8125 -1.421875 18.96875 -0.25 
Q 13.140625 0.921875 6.890625 3.21875 
L 6.890625 13.375 
Q 12.890625 10.015625 18.65625 8.296875 
Q 24.421875 6.59375 29.984375 6.59375 
Q 38.421875 6.59375 43.015625 9.90625 
Q 47.609375 13.234375 47.609375 19.390625 
Q 47.609375 24.75 44.3125 27.78125 
Q 41.015625 30.8125 33.5 32.328125 
L 27.484375 33.5 
Q 16.453125 35.6875 11.515625 40.375 
Q 6.59375 45.0625 6.59375 53.421875 
Q 6.59375 63.09375 13.40625 68.65625 
Q 20.21875 74.21875 32.171875 74.21875 
Q 37.3125 74.21875 42.625 73.28125 
Q 47.953125 72.359375 53.515625 70.515625 
z
" id="DejaVuSans-83"/>
      <path d="M 34.1875 63.1875 
L 20.796875 26.90625 
L 47.609375 26.90625 
z
M 28.609375 72.90625 
L 39.796875 72.90625 
L 67.578125 0 
L 57.328125 0 
L 50.6875 18.703125 
L 17.828125 18.703125 
L 11.1875 0 
L 0.78125 0 
z
" id="DejaVuSans-65"/>
     </defs>
     <use xlink:href="#DejaVuSans-83"/>
     <use x="63.476562" xlink:href="#DejaVuSans-77"/>
     <use x="149.755859" xlink:href="#DejaVuSans-83"/>
     <use x="213.232422" xlink:href="#DejaVuSans-45"/>
     <use x="249.316406" xlink:href="#DejaVuSans-69"/>
     <use x="312.5" xlink:href="#DejaVuSans-77"/>
     <use x="398.779297" xlink:href="#DejaVuSans-79"/>
     <use x="475.740234" xlink:href="#DejaVuSans-65"/>
     <use x="541.898438" xlink:href="#DejaVuSans-45"/>
    </g>
   </g>
   <g id="text_15">
    <!-- RM-MEDA A -->
    <g transform="translate(375.22944 195.116537)scale(0.17 -0.17)">
     <defs>
      <path d="M 44.390625 34.1875 
Q 47.5625 33.109375 50.5625 29.59375 
Q 53.5625 26.078125 56.59375 19.921875 
L 66.609375 0 
L 56 0 
L 46.6875 18.703125 
Q 43.0625 26.03125 39.671875 28.421875 
Q 36.28125 30.8125 30.421875 30.8125 
L 19.671875 30.8125 
L 19.671875 0 
L 9.8125 0 
L 9.8125 72.90625 
L 32.078125 72.90625 
Q 44.578125 72.90625 50.734375 67.671875 
Q 56.890625 62.453125 56.890625 51.90625 
Q 56.890625 45.015625 53.6875 40.46875 
Q 50.484375 35.9375 44.390625 34.1875 
z
M 19.671875 64.796875 
L 19.671875 38.921875 
L 32.078125 38.921875 
Q 39.203125 38.921875 42.84375 42.21875 
Q 46.484375 45.515625 46.484375 51.90625 
Q 46.484375 58.296875 42.84375 61.546875 
Q 39.203125 64.796875 32.078125 64.796875 
z
" id="DejaVuSans-82"/>
      <path d="M 19.671875 64.796875 
L 19.671875 8.109375 
L 31.59375 8.109375 
Q 46.6875 8.109375 53.6875 14.9375 
Q 60.6875 21.78125 60.6875 36.53125 
Q 60.6875 51.171875 53.6875 57.984375 
Q 46.6875 64.796875 31.59375 64.796875 
z
M 9.8125 72.90625 
L 30.078125 72.90625 
Q 51.265625 72.90625 61.171875 64.09375 
Q 71.09375 55.28125 71.09375 36.53125 
Q 71.09375 17.671875 61.125 8.828125 
Q 51.171875 0 30.078125 0 
L 9.8125 0 
z
" id="DejaVuSans-68"/>
     </defs>
     <use xlink:href="#DejaVuSans-82"/>
     <use x="69.482422" xlink:href="#DejaVuSans-77"/>
     <use x="155.761719" xlink:href="#DejaVuSans-45"/>
     <use x="191.845703" xlink:href="#DejaVuSans-77"/>
     <use x="278.125" xlink:href="#DejaVuSans-69"/>
     <use x="341.308594" xlink:href="#DejaVuSans-68"/>
     <use x="416.560547" xlink:href="#DejaVuSans-65"/>
     <use x="484.96875" xlink:href="#DejaVuSans-32"/>
     <use x="516.755859" xlink:href="#DejaVuSans-65"/>
    </g>
   </g>
   <g id="text_16">
    <!-- NSGA-II-M -->
    <g transform="translate(375.22944 143.543437)scale(0.17 -0.17)">
     <defs>
      <path d="M 9.8125 72.90625 
L 23.09375 72.90625 
L 55.421875 11.921875 
L 55.421875 72.90625 
L 64.984375 72.90625 
L 64.984375 0 
L 51.703125 0 
L 19.390625 60.984375 
L 19.390625 0 
L 9.8125 0 
z
" id="DejaVuSans-78"/>
      <path d="M 59.515625 10.40625 
L 59.515625 29.984375 
L 43.40625 29.984375 
L 43.40625 38.09375 
L 69.28125 38.09375 
L 69.28125 6.78125 
Q 63.578125 2.734375 56.6875 0.65625 
Q 49.8125 -1.421875 42 -1.421875 
Q 24.90625 -1.421875 15.25 8.5625 
Q 5.609375 18.5625 5.609375 36.375 
Q 5.609375 54.25 15.25 64.234375 
Q 24.90625 74.21875 42 74.21875 
Q 49.125 74.21875 55.546875 72.453125 
Q 61.96875 70.703125 67.390625 67.28125 
L 67.390625 56.78125 
Q 61.921875 61.421875 55.765625 63.765625 
Q 49.609375 66.109375 42.828125 66.109375 
Q 29.4375 66.109375 22.71875 58.640625 
Q 16.015625 51.171875 16.015625 36.375 
Q 16.015625 21.625 22.71875 14.15625 
Q 29.4375 6.6875 42.828125 6.6875 
Q 48.046875 6.6875 52.140625 7.59375 
Q 56.25 8.5 59.515625 10.40625 
z
" id="DejaVuSans-71"/>
      <path d="M 9.8125 72.90625 
L 19.671875 72.90625 
L 19.671875 0 
L 9.8125 0 
z
" id="DejaVuSans-73"/>
     </defs>
     <use xlink:href="#DejaVuSans-78"/>
     <use x="74.804688" xlink:href="#DejaVuSans-83"/>
     <use x="138.28125" xlink:href="#DejaVuSans-71"/>
     <use x="215.771484" xlink:href="#DejaVuSans-65"/>
     <use x="281.929688" xlink:href="#DejaVuSans-45"/>
     <use x="318.013672" xlink:href="#DejaVuSans-73"/>
     <use x="347.505859" xlink:href="#DejaVuSans-73"/>
     <use x="376.998047" xlink:href="#DejaVuSans-45"/>
     <use x="413.082031" xlink:href="#DejaVuSans-77"/>
    </g>
   </g>
   <g id="text_17">
    <!-- HMO-CMA-E -->
    <g transform="translate(375.22944 91.970336)scale(0.17 -0.17)">
     <defs>
      <path d="M 9.8125 72.90625 
L 19.671875 72.90625 
L 19.671875 43.015625 
L 55.515625 43.015625 
L 55.515625 72.90625 
L 65.375 72.90625 
L 65.375 0 
L 55.515625 0 
L 55.515625 34.71875 
L 19.671875 34.71875 
L 19.671875 0 
L 9.8125 0 
z
" id="DejaVuSans-72"/>
      <path d="M 64.40625 67.28125 
L 64.40625 56.890625 
Q 59.421875 61.53125 53.78125 63.8125 
Q 48.140625 66.109375 41.796875 66.109375 
Q 29.296875 66.109375 22.65625 58.46875 
Q 16.015625 50.828125 16.015625 36.375 
Q 16.015625 21.96875 22.65625 14.328125 
Q 29.296875 6.6875 41.796875 6.6875 
Q 48.140625 6.6875 53.78125 8.984375 
Q 59.421875 11.28125 64.40625 15.921875 
L 64.40625 5.609375 
Q 59.234375 2.09375 53.4375 0.328125 
Q 47.65625 -1.421875 41.21875 -1.421875 
Q 24.65625 -1.421875 15.125 8.703125 
Q 5.609375 18.84375 5.609375 36.375 
Q 5.609375 53.953125 15.125 64.078125 
Q 24.65625 74.21875 41.21875 74.21875 
Q 47.75 74.21875 53.53125 72.484375 
Q 59.328125 70.75 64.40625 67.28125 
z
" id="DejaVuSans-67"/>
     </defs>
     <use xlink:href="#DejaVuSans-72"/>
     <use x="75.195312" xlink:href="#DejaVuSans-77"/>
     <use x="161.474609" xlink:href="#DejaVuSans-79"/>
     <use x="242.935547" xlink:href="#DejaVuSans-45"/>
     <use x="279.019531" xlink:href="#DejaVuSans-67"/>
     <use x="348.84375" xlink:href="#DejaVuSans-77"/>
     <use x="435.123047" xlink:href="#DejaVuSans-65"/>
     <use x="501.28125" xlink:href="#DejaVuSans-45"/>
     <use x="537.365234" xlink:href="#DejaVuSans-69"/>
    </g>
   </g>
   <g id="text_18">
    <!-- best 2016 -->
    <g transform="translate(375.22944 40.397235)scale(0.17 -0.17)">
     <defs>
      <path d="M 48.6875 27.296875 
Q 48.6875 37.203125 44.609375 42.84375 
Q 40.53125 48.484375 33.40625 48.484375 
Q 26.265625 48.484375 22.1875 42.84375 
Q 18.109375 37.203125 18.109375 27.296875 
Q 18.109375 17.390625 22.1875 11.75 
Q 26.265625 6.109375 33.40625 6.109375 
Q 40.53125 6.109375 44.609375 11.75 
Q 48.6875 17.390625 48.6875 27.296875 
z
M 18.109375 46.390625 
Q 20.953125 51.265625 25.265625 53.625 
Q 29.59375 56 35.59375 56 
Q 45.5625 56 51.78125 48.09375 
Q 58.015625 40.1875 58.015625 27.296875 
Q 58.015625 14.40625 51.78125 6.484375 
Q 45.5625 -1.421875 35.59375 -1.421875 
Q 29.59375 -1.421875 25.265625 0.953125 
Q 20.953125 3.328125 18.109375 8.203125 
L 18.109375 0 
L 9.078125 0 
L 9.078125 75.984375 
L 18.109375 75.984375 
z
" id="DejaVuSans-98"/>
     </defs>
     <use xlink:href="#DejaVuSans-98"/>
     <use x="63.476562" xlink:href="#DejaVuSans-101"/>
     <use x="125" xlink:href="#DejaVuSans-115"/>
     <use x="177.099609" xlink:href="#DejaVuSans-116"/>
     <use x="216.308594" xlink:href="#DejaVuSans-32"/>
     <use x="248.095703" xlink:href="#DejaVuSans-50"/>
     <use x="311.71875" xlink:href="#DejaVuSans-48"/>
     <use x="375.341797" xlink:href="#DejaVuSans-49"/>
     <use x="438.964844" xlink:href="#DejaVuSans-54"/>
    </g>
   </g>
   <g id="text_19">
    <!-- bbob-biobj f49, 5-D -->
    <g transform="translate(60.41088 38.111366)scale(0.102 -0.102)">
     <defs>
      <path d="M 9.421875 54.6875 
L 18.40625 54.6875 
L 18.40625 -0.984375 
Q 18.40625 -11.421875 14.421875 -16.109375 
Q 10.453125 -20.796875 1.609375 -20.796875 
L -1.8125 -20.796875 
L -1.8125 -13.1875 
L 0.59375 -13.1875 
Q 5.71875 -13.1875 7.5625 -10.8125 
Q 9.421875 -8.453125 9.421875 -0.984375 
z
M 9.421875 75.984375 
L 18.40625 75.984375 
L 18.40625 64.59375 
L 9.421875 64.59375 
z
" id="DejaVuSans-106"/>
      <path d="M 10.984375 1.515625 
L 10.984375 10.5 
Q 14.703125 8.734375 18.5 7.8125 
Q 22.3125 6.890625 25.984375 6.890625 
Q 35.75 6.890625 40.890625 13.453125 
Q 46.046875 20.015625 46.78125 33.40625 
Q 43.953125 29.203125 39.59375 26.953125 
Q 35.25 24.703125 29.984375 24.703125 
Q 19.046875 24.703125 12.671875 31.3125 
Q 6.296875 37.9375 6.296875 49.421875 
Q 6.296875 60.640625 12.9375 67.421875 
Q 19.578125 74.21875 30.609375 74.21875 
Q 43.265625 74.21875 49.921875 64.515625 
Q 56.59375 54.828125 56.59375 36.375 
Q 56.59375 19.140625 48.40625 8.859375 
Q 40.234375 -1.421875 26.421875 -1.421875 
Q 22.703125 -1.421875 18.890625 -0.6875 
Q 15.09375 0.046875 10.984375 1.515625 
z
M 30.609375 32.421875 
Q 37.25 32.421875 41.125 36.953125 
Q 45.015625 41.5 45.015625 49.421875 
Q 45.015625 57.28125 41.125 61.84375 
Q 37.25 66.40625 30.609375 66.40625 
Q 23.96875 66.40625 20.09375 61.84375 
Q 16.21875 57.28125 16.21875 49.421875 
Q 16.21875 41.5 20.09375 36.953125 
Q 23.96875 32.421875 30.609375 32.421875 
z
" id="DejaVuSans-57"/>
      <path d="M 10.796875 72.90625 
L 49.515625 72.90625 
L 49.515625 64.59375 
L 19.828125 64.59375 
L 19.828125 46.734375 
Q 21.96875 47.46875 24.109375 47.828125 
Q 26.265625 48.1875 28.421875 48.1875 
Q 40.625 48.1875 47.75 41.5 
Q 54.890625 34.8125 54.890625 23.390625 
Q 54.890625 11.625 47.5625 5.09375 
Q 40.234375 -1.421875 26.90625 -1.421875 
Q 22.3125 -1.421875 17.546875 -0.640625 
Q 12.796875 0.140625 7.71875 1.703125 
L 7.71875 11.625 
Q 12.109375 9.234375 16.796875 8.0625 
Q 21.484375 6.890625 26.703125 6.890625 
Q 35.15625 6.890625 40.078125 11.328125 
Q 45.015625 15.765625 45.015625 23.390625 
Q 45.015625 31 40.078125 35.4375 
Q 35.15625 39.890625 26.703125 39.890625 
Q 22.75 39.890625 18.8125 39.015625 
Q 14.890625 38.140625 10.796875 36.28125 
z
" id="DejaVuSans-53"/>
     </defs>
     <use xlink:href="#DejaVuSans-98"/>
     <use x="63.476562" xlink:href="#DejaVuSans-98"/>
     <use x="126.953125" xlink:href="#DejaVuSans-111"/>
     <use x="188.134766" xlink:href="#DejaVuSans-98"/>
     <use x="251.611328" xlink:href="#DejaVuSans-45"/>
     <use x="287.695312" xlink:href="#DejaVuSans-98"/>
     <use x="351.171875" xlink:href="#DejaVuSans-105"/>
     <use x="378.955078" xlink:href="#DejaVuSans-111"/>
     <use x="440.136719" xlink:href="#DejaVuSans-98"/>
     <use x="503.613281" xlink:href="#DejaVuSans-106"/>
     <use x="531.396484" xlink:href="#DejaVuSans-32"/>
     <use x="563.183594" xlink:href="#DejaVuSans-102"/>
     <use x="598.388672" xlink:href="#DejaVuSans-52"/>
     <use x="662.011719" xlink:href="#DejaVuSans-57"/>
     <use x="725.634766" xlink:href="#DejaVuSans-44"/>
     <use x="757.421875" xlink:href="#DejaVuSans-32"/>
     <use x="789.208984" xlink:href="#DejaVuSans-53"/>
     <use x="852.832031" xlink:href="#DejaVuSans-45"/>
     <use x="888.916016" xlink:href="#DejaVuSans-68"/>
    </g>
    <!-- 58 targets: 1..-1.0e-4 -->
    <g transform="translate(60.41088 49.533135)scale(0.102 -0.102)">
     <defs>
      <path d="M 11.71875 12.40625 
L 22.015625 12.40625 
L 22.015625 0 
L 11.71875 0 
z
M 11.71875 51.703125 
L 22.015625 51.703125 
L 22.015625 39.3125 
L 11.71875 39.3125 
z
" id="DejaVuSans-58"/>
     </defs>
     <use xlink:href="#DejaVuSans-53"/>
     <use x="63.623047" xlink:href="#DejaVuSans-56"/>
     <use x="127.246094" xlink:href="#DejaVuSans-32"/>
     <use x="159.033203" xlink:href="#DejaVuSans-116"/>
     <use x="198.242188" xlink:href="#DejaVuSans-97"/>
     <use x="259.521484" xlink:href="#DejaVuSans-114"/>
     <use x="298.884766" xlink:href="#DejaVuSans-103"/>
     <use x="362.361328" xlink:href="#DejaVuSans-101"/>
     <use x="423.884766" xlink:href="#DejaVuSans-116"/>
     <use x="463.09375" xlink:href="#DejaVuSans-115"/>
     <use x="515.193359" xlink:href="#DejaVuSans-58"/>
     <use x="548.884766" xlink:href="#DejaVuSans-32"/>
     <use x="580.671875" xlink:href="#DejaVuSans-49"/>
     <use x="644.294922" xlink:href="#DejaVuSans-46"/>
     <use x="676.082031" xlink:href="#DejaVuSans-46"/>
     <use x="707.869141" xlink:href="#DejaVuSans-45"/>
     <use x="743.953125" xlink:href="#DejaVuSans-49"/>
     <use x="807.576172" xlink:href="#DejaVuSans-46"/>
     <use x="839.363281" xlink:href="#DejaVuSans-48"/>
     <use x="902.986328" xlink:href="#DejaVuSans-101"/>
     <use x="964.509766" xlink:href="#DejaVuSans-45"/>
     <use x="1000.59375" xlink:href="#DejaVuSans-52"/>
    </g>
    <!-- 10 instances -->
    <g transform="translate(60.41088 60.954904)scale(0.102 -0.102)">
     <use xlink:href="#DejaVuSans-49"/>
     <use x="63.623047" xlink:href="#DejaVuSans-48"/>
     <use x="127.246094" xlink:href="#DejaVuSans-32"/>
     <use x="159.033203" xlink:href="#DejaVuSans-105"/>
     <use x="186.816406" xlink:href="#DejaVuSans-110"/>
     <use x="250.195312" xlink:href="#DejaVuSans-115"/>
     <use x="302.294922" xlink:href="#DejaVuSans-116"/>
     <use x="341.503906" xlink:href="#DejaVuSans-97"/>
     <use x="402.783203" xlink:href="#DejaVuSans-110"/>
     <use x="466.162109" xlink:href="#DejaVuSans-99"/>
     <use x="521.142578" xlink:href="#DejaVuSans-101"/>
     <use x="582.666016" xlink:href="#DejaVuSans-115"/>
    </g>
   </g>
   <g id="text_20">
    <!-- v2.4, hv-hash=ff0e71e8cd978373 -->
    <g style="fill:#808080;" transform="translate(112.648687 294.151352)scale(0.1 -0.1)">
     <defs>
      <path d="M 54.890625 33.015625 
L 54.890625 0 
L 45.90625 0 
L 45.90625 32.71875 
Q 45.90625 40.484375 42.875 44.328125 
Q 39.84375 48.1875 33.796875 48.1875 
Q 26.515625 48.1875 22.3125 43.546875 
Q 18.109375 38.921875 18.109375 30.90625 
L 18.109375 0 
L 9.078125 0 
L 9.078125 75.984375 
L 18.109375 75.984375 
L 18.109375 46.1875 
Q 21.34375 51.125 25.703125 53.5625 
Q 30.078125 56 35.796875 56 
Q 45.21875 56 50.046875 50.171875 
Q 54.890625 44.34375 54.890625 33.015625 
z
" id="DejaVuSans-104"/>
      <path d="M 10.59375 45.40625 
L 73.1875 45.40625 
L 73.1875 37.203125 
L 10.59375 37.203125 
z
M 10.59375 25.484375 
L 73.1875 25.484375 
L 73.1875 17.1875 
L 10.59375 17.1875 
z
" id="DejaVuSans-61"/>
      <path d="M 8.203125 72.90625 
L 55.078125 72.90625 
L 55.078125 68.703125 
L 28.609375 0 
L 18.3125 0 
L 43.21875 64.59375 
L 8.203125 64.59375 
z
" id="DejaVuSans-55"/>
      <path d="M 40.578125 39.3125 
Q 47.65625 37.796875 51.625 33 
Q 55.609375 28.21875 55.609375 21.1875 
Q 55.609375 10.40625 48.1875 4.484375 
Q 40.765625 -1.421875 27.09375 -1.421875 
Q 22.515625 -1.421875 17.65625 -0.515625 
Q 12.796875 0.390625 7.625 2.203125 
L 7.625 11.71875 
Q 11.71875 9.328125 16.59375 8.109375 
Q 21.484375 6.890625 26.8125 6.890625 
Q 36.078125 6.890625 40.9375 10.546875 
Q 45.796875 14.203125 45.796875 21.1875 
Q 45.796875 27.640625 41.28125 31.265625 
Q 36.765625 34.90625 28.71875 34.90625 
L 20.21875 34.90625 
L 20.21875 43.015625 
L 29.109375 43.015625 
Q 36.375 43.015625 40.234375 45.921875 
Q 44.09375 48.828125 44.09375 54.296875 
Q 44.09375 59.90625 40.109375 62.90625 
Q 36.140625 65.921875 28.71875 65.921875 
Q 24.65625 65.921875 20.015625 65.03125 
Q 15.375 64.15625 9.8125 62.3125 
L 9.8125 71.09375 
Q 15.4375 72.65625 20.34375 73.4375 
Q 25.25 74.21875 29.59375 74.21875 
Q 40.828125 74.21875 47.359375 69.109375 
Q 53.90625 64.015625 53.90625 55.328125 
Q 53.90625 49.265625 50.4375 45.09375 
Q 46.96875 40.921875 40.578125 39.3125 
z
" id="DejaVuSans-51"/>
     </defs>
     <use xlink:href="#DejaVuSans-118"/>
     <use x="59.179688" xlink:href="#DejaVuSans-50"/>
     <use x="122.802734" xlink:href="#DejaVuSans-46"/>
     <use x="154.589844" xlink:href="#DejaVuSans-52"/>
     <use x="218.212891" xlink:href="#DejaVuSans-44"/>
     <use x="250" xlink:href="#DejaVuSans-32"/>
     <use x="281.787109" xlink:href="#DejaVuSans-104"/>
     <use x="345.166016" xlink:href="#DejaVuSans-118"/>
     <use x="401.720703" xlink:href="#DejaVuSans-45"/>
     <use x="437.804688" xlink:href="#DejaVuSans-104"/>
     <use x="501.183594" xlink:href="#DejaVuSans-97"/>
     <use x="562.462891" xlink:href="#DejaVuSans-115"/>
     <use x="614.5625" xlink:href="#DejaVuSans-104"/>
     <use x="677.941406" xlink:href="#DejaVuSans-61"/>
     <use x="761.730469" xlink:href="#DejaVuSans-102"/>
     <use x="796.935547" xlink:href="#DejaVuSans-102"/>
     <use x="832.140625" xlink:href="#DejaVuSans-48"/>
     <use x="895.763672" xlink:href="#DejaVuSans-101"/>
     <use x="957.287109" xlink:href="#DejaVuSans-55"/>
     <use x="1020.910156" xlink:href="#DejaVuSans-49"/>
     <use x="1084.533203" xlink:href="#DejaVuSans-101"/>
     <use x="1146.056641" xlink:href="#DejaVuSans-56"/>
     <use x="1209.679688" xlink:href="#DejaVuSans-99"/>
     <use x="1264.660156" xlink:href="#DejaVuSans-100"/>
     <use x="1328.136719" xlink:href="#DejaVuSans-57"/>
     <use x="1391.759766" xlink:href="#DejaVuSans-55"/>
     <use x="1455.382812" xlink:href="#DejaVuSans-56"/>
     <use x="1519.005859" xlink:href="#DejaVuSans-51"/>
     <use x="1582.628906" xlink:href="#DejaVuSans-55"/>
     <use x="1646.251953" xlink:href="#DejaVuSans-51"/>
    </g>
   </g>
   <g id="text_21">
    <!-- 49 Rastrigin/Gallagher 101 -->
    <g transform="translate(63.761187 21.648)scale(0.2 -0.2)">
     <use xlink:href="#DejaVuSans-52"/>
     <use x="63.623047" xlink:href="#DejaVuSans-57"/>
     <use x="127.246094" xlink:href="#DejaVuSans-32"/>
     <use x="159.033203" xlink:href="#DejaVuSans-82"/>
     <use x="226.265625" xlink:href="#DejaVuSans-97"/>
     <use x="287.544922" xlink:href="#DejaVuSans-115"/>
     <use x="339.644531" xlink:href="#DejaVuSans-116"/>
     <use x="378.853516" xlink:href="#DejaVuSans-114"/>
     <use x="419.966797" xlink:href="#DejaVuSans-105"/>
     <use x="447.75" xlink:href="#DejaVuSans-103"/>
     <use x="511.226562" xlink:href="#DejaVuSans-105"/>
     <use x="539.009766" xlink:href="#DejaVuSans-110"/>
     <use x="602.388672" xlink:href="#DejaVuSans-47"/>
     <use x="636.080078" xlink:href="#DejaVuSans-71"/>
     <use x="713.570312" xlink:href="#DejaVuSans-97"/>
     <use x="774.849609" xlink:href="#DejaVuSans-108"/>
     <use x="802.632812" xlink:href="#DejaVuSans-108"/>
     <use x="830.416016" xlink:href="#DejaVuSans-97"/>
     <use x="891.695312" xlink:href="#DejaVuSans-103"/>
     <use x="955.171875" xlink:href="#DejaVuSans-104"/>
     <use x="1018.550781" xlink:href="#DejaVuSans-101"/>
     <use x="1080.074219" xlink:href="#DejaVuSans-114"/>
     <use x="1121.1875" xlink:href="#DejaVuSans-32"/>
     <use x="1152.974609" xlink:href="#DejaVuSans-49"/>
     <use x="1216.597656" xlink:href="#DejaVuSans-48"/>
     <use x="1280.220703" xlink:href="#DejaVuSans-49"/>
    </g>
   </g>
  </g>
 </g>
 <defs>
  <clipPath id="pf8288e555f">
   <rect height="271.296" width="281.088" x="57.6" y="27.648"/>
  </clipPath>
 </defs>
</svg>
