<?xml version="1.0" encoding="utf-8" standalone="no"?>
<!DOCTYPE svg PUBLIC "-//W3C//DTD SVG 1.1//EN"
  "http://www.w3.org/Graphics/SVG/1.1/DTD/svg11.dtd">
<!-- Created with matplotlib (https://matplotlib.org/) -->
<svg height="345.6pt" version="1.1" viewBox="0 0 460.8 345.6" width="460.8pt" xmlns="http://www.w3.org/2000/svg" xmlns:xlink="http://www.w3.org/1999/xlink">
 <metadata>
  <rdf:RDF xmlns:cc="http://creativecommons.org/ns#" xmlns:dc="http://purl.org/dc/elements/1.1/" xmlns:rdf="http://www.w3.org/1999/02/22-rdf-syntax-ns#">
   <cc:Work>
    <dc:type rdf:resource="http://purl.org/dc/dcmitype/StillImage"/>
    <dc:date>2021-03-30T18:30:37.343506</dc:date>
    <dc:format>image/svg+xml</dc:format>
    <dc:creator>
     <cc:Agent>
      <dc:title>Matplotlib v3.3.4, https://matplotlib.org/</dc:title>
     </cc:Agent>
    </dc:creator>
   </cc:Work>
  </rdf:RDF>
 </metadata>
 <defs>
  <style type="text/css">*{stroke-linecap:butt;stroke-linejoin:round;}</style>
 </defs>
 <g id="figure_1">
  <g id="patch_1">
   <path d="M 0 345.6 
L 460.8 345.6 
L 460.8 0 
L 0 0 
z
" style="fill:#ffffff;"/>
  </g>
  <g id="axes_1">
   <g id="patch_2">
    <path d="M 57.6 298.944 
L 338.688 298.944 
L 338.688 27.648 
L 57.6 27.648 
z
" style="fill:#ffffff;"/>
   </g>
   <g id="line2d_1">
    <path d="M 17.444571 298.944 
L 17.444571 294.312795 
L 63.467834 294.312795 
L 63.467834 285.050384 
L 91.535274 285.050384 
L 91.535274 275.787974 
L 138.307417 275.787974 
L 138.307417 271.156769 
L 154.807483 271.156769 
L 154.807483 257.263153 
L 161.370386 257.263153 
L 161.370386 248.000743 
L 167.079807 248.000743 
L 167.079807 243.369538 
L 176.559013 243.369538 
L 176.559013 234.107127 
L 217.966109 234.107127 
L 217.966109 220.213512 
L 226.807447 220.213512 
L 226.807447 210.951101 
L 241.791914 210.951101 
L 241.791914 201.688691 
L 253.150555 201.688691 
L 253.150555 192.426281 
L 269.791613 192.426281 
L 269.791613 187.795075 
L 283.558722 187.795075 
L 283.558722 173.90146 
L 290.809905 173.90146 
L 290.809905 169.270255 
L 296.139037 169.270255 
L 296.139037 155.376639 
L 299.260541 155.376639 
L 299.260541 146.114229 
L 308.093568 146.114229 
L 308.093568 141.483024 
L 313.982706 141.483024 
L 313.982706 127.589408 
L 320.844807 127.589408 
L 320.844807 122.958203 
L 338.688 122.958203 
" style="fill:none;stroke:#f5deb3;stroke-linecap:square;stroke-width:4;"/>
   </g>
   <g id="line2d_2">
    <defs>
     <path d="M -0 7.778175 
L 7.778175 0 
L 0 -7.778175 
L -7.778175 -0 
z
" id="m6c698c369f" style="stroke:#f5deb3;stroke-linejoin:miter;stroke-width:1.5;"/>
    </defs>
    <g>
     <use style="fill:#f5deb3;stroke:#f5deb3;stroke-linejoin:miter;stroke-width:1.5;" x="154.807483" xlink:href="#m6c698c369f" y="271.156769"/>
     <use style="fill:#f5deb3;stroke:#f5deb3;stroke-linejoin:miter;stroke-width:1.5;" x="217.966109" xlink:href="#m6c698c369f" y="234.107127"/>
     <use style="fill:#f5deb3;stroke:#f5deb3;stroke-linejoin:miter;stroke-width:1.5;" x="283.558722" xlink:href="#m6c698c369f" y="187.795075"/>
     <use style="fill:#f5deb3;stroke:#f5deb3;stroke-linejoin:miter;stroke-width:1.5;" x="320.844807" xlink:href="#m6c698c369f" y="122.958203"/>
     <use style="fill:#f5deb3;stroke:#f5deb3;stroke-linejoin:miter;stroke-width:1.5;" x="320.844807" xlink:href="#m6c698c369f" y="122.958203"/>
     <use style="fill:#f5deb3;stroke:#f5deb3;stroke-linejoin:miter;stroke-width:1.5;" x="338.688" xlink:href="#m6c698c369f" y="122.958203"/>
    </g>
   </g>
   <g id="line2d_3">
    <path style="fill:none;stroke:#f5deb3;stroke-linecap:square;stroke-width:4;"/>
    <g/>
   </g>
   <g id="line2d_4">
    <path d="M 338.688 122.958203 
L 369.60768 35.706297 
" style="fill:none;stroke:#f5deb3;stroke-linecap:square;stroke-width:4;"/>
    <g>
     <use style="fill:#f5deb3;stroke:#f5deb3;stroke-linejoin:miter;stroke-width:1.5;" x="338.688" xlink:href="#m6c698c369f" y="122.958203"/>
     <use style="fill:#f5deb3;stroke:#f5deb3;stroke-linejoin:miter;stroke-width:1.5;" x="369.60768" xlink:href="#m6c698c369f" y="35.706297"/>
    </g>
   </g>
   <g id="matplotlib.axis_1">
    <g id="xtick_1">
     <g id="line2d_5">
      <path clip-path="url(#p70550b1d33)" d="M 57.6 298.944 
L 57.6 27.648 
" style="fill:none;stroke:#b0b0b0;stroke-linecap:square;stroke-width:0.8;"/>
     </g>
     <g id="line2d_6">
      <defs>
       <path d="M 0 0 
L 0 3.5 
" id="m1101a32815" style="stroke:#000000;stroke-width:0.8;"/>
      </defs>
      <g>
       <use style="stroke:#000000;stroke-width:0.8;" x="57.6" xlink:href="#m1101a32815" y="298.944"/>
      </g>
     </g>
     <g id="text_1">
      <!-- 0 -->
      <g transform="translate(51.2375 321.140875)scale(0.2 -0.2)">
       <defs>
        <path d="M 31.78125 66.40625 
Q 24.171875 66.40625 20.328125 58.90625 
Q 16.5 51.421875 16.5 36.375 
Q 16.5 21.390625 20.328125 13.890625 
Q 24.171875 6.390625 31.78125 6.390625 
Q 39.453125 6.390625 43.28125 13.890625 
Q 47.125 21.390625 47.125 36.375 
Q 47.125 51.421875 43.28125 58.90625 
Q 39.453125 66.40625 31.78125 66.40625 
z
M 31.78125 74.21875 
Q 44.046875 74.21875 50.515625 64.515625 
Q 56.984375 54.828125 56.984375 36.375 
Q 56.984375 17.96875 50.515625 8.265625 
Q 44.046875 -1.421875 31.78125 -1.421875 
Q 19.53125 -1.421875 13.0625 8.265625 
Q 6.59375 17.96875 6.59375 36.375 
Q 6.59375 54.828125 13.0625 64.515625 
Q 19.53125 74.21875 31.78125 74.21875 
z
" id="DejaVuSans-48"/>
       </defs>
       <use xlink:href="#DejaVuSans-48"/>
      </g>
     </g>
    </g>
    <g id="xtick_2">
     <g id="line2d_7">
      <path clip-path="url(#p70550b1d33)" d="M 137.910857 298.944 
L 137.910857 27.648 
" style="fill:none;stroke:#b0b0b0;stroke-linecap:square;stroke-width:0.8;"/>
     </g>
     <g id="line2d_8">
      <g>
       <use style="stroke:#000000;stroke-width:0.8;" x="137.910857" xlink:href="#m1101a32815" y="298.944"/>
      </g>
     </g>
     <g id="text_2">
      <!-- 2 -->
      <g transform="translate(131.548357 321.140875)scale(0.2 -0.2)">
       <defs>
        <path d="M 19.1875 8.296875 
L 53.609375 8.296875 
L 53.609375 0 
L 7.328125 0 
L 7.328125 8.296875 
Q 12.9375 14.109375 22.625 23.890625 
Q 32.328125 33.6875 34.8125 36.53125 
Q 39.546875 41.84375 41.421875 45.53125 
Q 43.3125 49.21875 43.3125 52.78125 
Q 43.3125 58.59375 39.234375 62.25 
Q 35.15625 65.921875 28.609375 65.921875 
Q 23.96875 65.921875 18.8125 64.3125 
Q 13.671875 62.703125 7.8125 59.421875 
L 7.8125 69.390625 
Q 13.765625 71.78125 18.9375 73 
Q 24.125 74.21875 28.421875 74.21875 
Q 39.75 74.21875 46.484375 68.546875 
Q 53.21875 62.890625 53.21875 53.421875 
Q 53.21875 48.921875 51.53125 44.890625 
Q 49.859375 40.875 45.40625 35.40625 
Q 44.1875 33.984375 37.640625 27.21875 
Q 31.109375 20.453125 19.1875 8.296875 
z
" id="DejaVuSans-50"/>
       </defs>
       <use xlink:href="#DejaVuSans-50"/>
      </g>
     </g>
    </g>
    <g id="xtick_3">
     <g id="line2d_9">
      <path clip-path="url(#p70550b1d33)" d="M 218.221714 298.944 
L 218.221714 27.648 
" style="fill:none;stroke:#b0b0b0;stroke-linecap:square;stroke-width:0.8;"/>
     </g>
     <g id="line2d_10">
      <g>
       <use style="stroke:#000000;stroke-width:0.8;" x="218.221714" xlink:href="#m1101a32815" y="298.944"/>
      </g>
     </g>
     <g id="text_3">
      <!-- 4 -->
      <g transform="translate(211.859214 321.140875)scale(0.2 -0.2)">
       <defs>
        <path d="M 37.796875 64.3125 
L 12.890625 25.390625 
L 37.796875 25.390625 
z
M 35.203125 72.90625 
L 47.609375 72.90625 
L 47.609375 25.390625 
L 58.015625 25.390625 
L 58.015625 17.1875 
L 47.609375 17.1875 
L 47.609375 0 
L 37.796875 0 
L 37.796875 17.1875 
L 4.890625 17.1875 
L 4.890625 26.703125 
z
" id="DejaVuSans-52"/>
       </defs>
       <use xlink:href="#DejaVuSans-52"/>
      </g>
     </g>
    </g>
    <g id="xtick_4">
     <g id="line2d_11">
      <path clip-path="url(#p70550b1d33)" d="M 298.532571 298.944 
L 298.532571 27.648 
" style="fill:none;stroke:#b0b0b0;stroke-linecap:square;stroke-width:0.8;"/>
     </g>
     <g id="line2d_12">
      <g>
       <use style="stroke:#000000;stroke-width:0.8;" x="298.532571" xlink:href="#m1101a32815" y="298.944"/>
      </g>
     </g>
     <g id="text_4">
      <!-- 6 -->
      <g transform="translate(292.170071 321.140875)scale(0.2 -0.2)">
       <defs>
        <path d="M 33.015625 40.375 
Q 26.375 40.375 22.484375 35.828125 
Q 18.609375 31.296875 18.609375 23.390625 
Q 18.609375 15.53125 22.484375 10.953125 
Q 26.375 6.390625 33.015625 6.390625 
Q 39.65625 6.390625 43.53125 10.953125 
Q 47.40625 15.53125 47.40625 23.390625 
Q 47.40625 31.296875 43.53125 35.828125 
Q 39.65625 40.375 33.015625 40.375 
z
M 52.59375 71.296875 
L 52.59375 62.3125 
Q 48.875 64.0625 45.09375 64.984375 
Q 41.3125 65.921875 37.59375 65.921875 
Q 27.828125 65.921875 22.671875 59.328125 
Q 17.53125 52.734375 16.796875 39.40625 
Q 19.671875 43.65625 24.015625 45.921875 
Q 28.375 48.1875 33.59375 48.1875 
Q 44.578125 48.1875 50.953125 41.515625 
Q 57.328125 34.859375 57.328125 23.390625 
Q 57.328125 12.15625 50.6875 5.359375 
Q 44.046875 -1.421875 33.015625 -1.421875 
Q 20.359375 -1.421875 13.671875 8.265625 
Q 6.984375 17.96875 6.984375 36.375 
Q 6.984375 53.65625 15.1875 63.9375 
Q 23.390625 74.21875 37.203125 74.21875 
Q 40.921875 74.21875 44.703125 73.484375 
Q 48.484375 72.75 52.59375 71.296875 
z
" id="DejaVuSans-54"/>
       </defs>
       <use xlink:href="#DejaVuSans-54"/>
      </g>
     </g>
    </g>
    <g id="xtick_5">
     <g id="line2d_13">
      <path clip-path="url(#p70550b1d33)" d="M 97.755429 298.944 
L 97.755429 27.648 
" style="fill:none;stroke:#b0b0b0;stroke-linecap:square;stroke-width:0.8;"/>
     </g>
     <g id="line2d_14">
      <defs>
       <path d="M 0 0 
L 0 2 
" id="m26e1a0a8b6" style="stroke:#000000;stroke-width:0.6;"/>
      </defs>
      <g>
       <use style="stroke:#000000;stroke-width:0.6;" x="97.755429" xlink:href="#m26e1a0a8b6" y="298.944"/>
      </g>
     </g>
    </g>
    <g id="xtick_6">
     <g id="line2d_15">
      <path clip-path="url(#p70550b1d33)" d="M 178.066286 298.944 
L 178.066286 27.648 
" style="fill:none;stroke:#b0b0b0;stroke-linecap:square;stroke-width:0.8;"/>
     </g>
     <g id="line2d_16">
      <g>
       <use style="stroke:#000000;stroke-width:0.6;" x="178.066286" xlink:href="#m26e1a0a8b6" y="298.944"/>
      </g>
     </g>
    </g>
    <g id="xtick_7">
     <g id="line2d_17">
      <path clip-path="url(#p70550b1d33)" d="M 258.377143 298.944 
L 258.377143 27.648 
" style="fill:none;stroke:#b0b0b0;stroke-linecap:square;stroke-width:0.8;"/>
     </g>
     <g id="line2d_18">
      <g>
       <use style="stroke:#000000;stroke-width:0.6;" x="258.377143" xlink:href="#m26e1a0a8b6" y="298.944"/>
      </g>
     </g>
    </g>
    <g id="xtick_8">
     <g id="line2d_19">
      <path clip-path="url(#p70550b1d33)" d="M 338.688 298.944 
L 338.688 27.648 
" style="fill:none;stroke:#b0b0b0;stroke-linecap:square;stroke-width:0.8;"/>
     </g>
     <g id="line2d_20">
      <g>
       <use style="stroke:#000000;stroke-width:0.6;" x="338.688" xlink:href="#m26e1a0a8b6" y="298.944"/>
      </g>
     </g>
    </g>
    <g id="text_5">
     <!-- log10(# f-evals / dimension) -->
     <g transform="translate(77.764078 342.217594)scale(0.17 -0.17)">
      <defs>
       <path d="M 9.421875 75.984375 
L 18.40625 75.984375 
L 18.40625 0 
L 9.421875 0 
z
" id="DejaVuSans-108"/>
       <path d="M 30.609375 48.390625 
Q 23.390625 48.390625 19.1875 42.75 
Q 14.984375 37.109375 14.984375 27.296875 
Q 14.984375 17.484375 19.15625 11.84375 
Q 23.34375 6.203125 30.609375 6.203125 
Q 37.796875 6.203125 41.984375 11.859375 
Q 46.1875 17.53125 46.1875 27.296875 
Q 46.1875 37.015625 41.984375 42.703125 
Q 37.796875 48.390625 30.609375 48.390625 
z
M 30.609375 56 
Q 42.328125 56 49.015625 48.375 
Q 55.71875 40.765625 55.71875 27.296875 
Q 55.71875 13.875 49.015625 6.21875 
Q 42.328125 -1.421875 30.609375 -1.421875 
Q 18.84375 -1.421875 12.171875 6.21875 
Q 5.515625 13.875 5.515625 27.296875 
Q 5.515625 40.765625 12.171875 48.375 
Q 18.84375 56 30.609375 56 
z
" id="DejaVuSans-111"/>
       <path d="M 45.40625 27.984375 
Q 45.40625 37.75 41.375 43.109375 
Q 37.359375 48.484375 30.078125 48.484375 
Q 22.859375 48.484375 18.828125 43.109375 
Q 14.796875 37.75 14.796875 27.984375 
Q 14.796875 18.265625 18.828125 12.890625 
Q 22.859375 7.515625 30.078125 7.515625 
Q 37.359375 7.515625 41.375 12.890625 
Q 45.40625 18.265625 45.40625 27.984375 
z
M 54.390625 6.78125 
Q 54.390625 -7.171875 48.1875 -13.984375 
Q 42 -20.796875 29.203125 -20.796875 
Q 24.46875 -20.796875 20.265625 -20.09375 
Q 16.0625 -19.390625 12.109375 -17.921875 
L 12.109375 -9.1875 
Q 16.0625 -11.328125 19.921875 -12.34375 
Q 23.78125 -13.375 27.78125 -13.375 
Q 36.625 -13.375 41.015625 -8.765625 
Q 45.40625 -4.15625 45.40625 5.171875 
L 45.40625 9.625 
Q 42.625 4.78125 38.28125 2.390625 
Q 33.9375 0 27.875 0 
Q 17.828125 0 11.671875 7.65625 
Q 5.515625 15.328125 5.515625 27.984375 
Q 5.515625 40.671875 11.671875 48.328125 
Q 17.828125 56 27.875 56 
Q 33.9375 56 38.28125 53.609375 
Q 42.625 51.21875 45.40625 46.390625 
L 45.40625 54.6875 
L 54.390625 54.6875 
z
" id="DejaVuSans-103"/>
       <path d="M 12.40625 8.296875 
L 28.515625 8.296875 
L 28.515625 63.921875 
L 10.984375 60.40625 
L 10.984375 69.390625 
L 28.421875 72.90625 
L 38.28125 72.90625 
L 38.28125 8.296875 
L 54.390625 8.296875 
L 54.390625 0 
L 12.40625 0 
z
" id="DejaVuSans-49"/>
       <path d="M 31 75.875 
Q 24.46875 64.65625 21.28125 53.65625 
Q 18.109375 42.671875 18.109375 31.390625 
Q 18.109375 20.125 21.3125 9.0625 
Q 24.515625 -2 31 -13.1875 
L 23.1875 -13.1875 
Q 15.875 -1.703125 12.234375 9.375 
Q 8.59375 20.453125 8.59375 31.390625 
Q 8.59375 42.28125 12.203125 53.3125 
Q 15.828125 64.359375 23.1875 75.875 
z
" id="DejaVuSans-40"/>
       <path d="M 51.125 44 
L 36.921875 44 
L 32.8125 27.6875 
L 47.125 27.6875 
z
M 43.796875 71.78125 
L 38.71875 51.515625 
L 52.984375 51.515625 
L 58.109375 71.78125 
L 65.921875 71.78125 
L 60.890625 51.515625 
L 76.125 51.515625 
L 76.125 44 
L 58.984375 44 
L 54.984375 27.6875 
L 70.515625 27.6875 
L 70.515625 20.21875 
L 53.078125 20.21875 
L 48 0 
L 40.1875 0 
L 45.21875 20.21875 
L 30.90625 20.21875 
L 25.875 0 
L 18.015625 0 
L 23.09375 20.21875 
L 7.71875 20.21875 
L 7.71875 27.6875 
L 24.90625 27.6875 
L 29 44 
L 13.28125 44 
L 13.28125 51.515625 
L 30.90625 51.515625 
L 35.890625 71.78125 
z
" id="DejaVuSans-35"/>
       <path id="DejaVuSans-32"/>
       <path d="M 37.109375 75.984375 
L 37.109375 68.5 
L 28.515625 68.5 
Q 23.6875 68.5 21.796875 66.546875 
Q 19.921875 64.59375 19.921875 59.515625 
L 19.921875 54.6875 
L 34.71875 54.6875 
L 34.71875 47.703125 
L 19.921875 47.703125 
L 19.921875 0 
L 10.890625 0 
L 10.890625 47.703125 
L 2.296875 47.703125 
L 2.296875 54.6875 
L 10.890625 54.6875 
L 10.890625 58.5 
Q 10.890625 67.625 15.140625 71.796875 
Q 19.390625 75.984375 28.609375 75.984375 
z
" id="DejaVuSans-102"/>
       <path d="M 4.890625 31.390625 
L 31.203125 31.390625 
L 31.203125 23.390625 
L 4.890625 23.390625 
z
" id="DejaVuSans-45"/>
       <path d="M 56.203125 29.59375 
L 56.203125 25.203125 
L 14.890625 25.203125 
Q 15.484375 15.921875 20.484375 11.0625 
Q 25.484375 6.203125 34.421875 6.203125 
Q 39.59375 6.203125 44.453125 7.46875 
Q 49.3125 8.734375 54.109375 11.28125 
L 54.109375 2.78125 
Q 49.265625 0.734375 44.1875 -0.34375 
Q 39.109375 -1.421875 33.890625 -1.421875 
Q 20.796875 -1.421875 13.15625 6.1875 
Q 5.515625 13.8125 5.515625 26.8125 
Q 5.515625 40.234375 12.765625 48.109375 
Q 20.015625 56 32.328125 56 
Q 43.359375 56 49.78125 48.890625 
Q 56.203125 41.796875 56.203125 29.59375 
z
M 47.21875 32.234375 
Q 47.125 39.59375 43.09375 43.984375 
Q 39.0625 48.390625 32.421875 48.390625 
Q 24.90625 48.390625 20.390625 44.140625 
Q 15.875 39.890625 15.1875 32.171875 
z
" id="DejaVuSans-101"/>
       <path d="M 2.984375 54.6875 
L 12.5 54.6875 
L 29.59375 8.796875 
L 46.6875 54.6875 
L 56.203125 54.6875 
L 35.6875 0 
L 23.484375 0 
z
" id="DejaVuSans-118"/>
       <path d="M 34.28125 27.484375 
Q 23.390625 27.484375 19.1875 25 
Q 14.984375 22.515625 14.984375 16.5 
Q 14.984375 11.71875 18.140625 8.90625 
Q 21.296875 6.109375 26.703125 6.109375 
Q 34.1875 6.109375 38.703125 11.40625 
Q 43.21875 16.703125 43.21875 25.484375 
L 43.21875 27.484375 
z
M 52.203125 31.203125 
L 52.203125 0 
L 43.21875 0 
L 43.21875 8.296875 
Q 40.140625 3.328125 35.546875 0.953125 
Q 30.953125 -1.421875 24.3125 -1.421875 
Q 15.921875 -1.421875 10.953125 3.296875 
Q 6 8.015625 6 15.921875 
Q 6 25.140625 12.171875 29.828125 
Q 18.359375 34.515625 30.609375 34.515625 
L 43.21875 34.515625 
L 43.21875 35.40625 
Q 43.21875 41.609375 39.140625 45 
Q 35.0625 48.390625 27.6875 48.390625 
Q 23 48.390625 18.546875 47.265625 
Q 14.109375 46.140625 10.015625 43.890625 
L 10.015625 52.203125 
Q 14.9375 54.109375 19.578125 55.046875 
Q 24.21875 56 28.609375 56 
Q 40.484375 56 46.34375 49.84375 
Q 52.203125 43.703125 52.203125 31.203125 
z
" id="DejaVuSans-97"/>
       <path d="M 44.28125 53.078125 
L 44.28125 44.578125 
Q 40.484375 46.53125 36.375 47.5 
Q 32.28125 48.484375 27.875 48.484375 
Q 21.1875 48.484375 17.84375 46.4375 
Q 14.5 44.390625 14.5 40.28125 
Q 14.5 37.15625 16.890625 35.375 
Q 19.28125 33.59375 26.515625 31.984375 
L 29.59375 31.296875 
Q 39.15625 29.25 43.1875 25.515625 
Q 47.21875 21.78125 47.21875 15.09375 
Q 47.21875 7.46875 41.1875 3.015625 
Q 35.15625 -1.421875 24.609375 -1.421875 
Q 20.21875 -1.421875 15.453125 -0.5625 
Q 10.6875 0.296875 5.421875 2 
L 5.421875 11.28125 
Q 10.40625 8.6875 15.234375 7.390625 
Q 20.0625 6.109375 24.8125 6.109375 
Q 31.15625 6.109375 34.5625 8.28125 
Q 37.984375 10.453125 37.984375 14.40625 
Q 37.984375 18.0625 35.515625 20.015625 
Q 33.0625 21.96875 24.703125 23.78125 
L 21.578125 24.515625 
Q 13.234375 26.265625 9.515625 29.90625 
Q 5.8125 33.546875 5.8125 39.890625 
Q 5.8125 47.609375 11.28125 51.796875 
Q 16.75 56 26.8125 56 
Q 31.78125 56 36.171875 55.265625 
Q 40.578125 54.546875 44.28125 53.078125 
z
" id="DejaVuSans-115"/>
       <path d="M 25.390625 72.90625 
L 33.6875 72.90625 
L 8.296875 -9.28125 
L 0 -9.28125 
z
" id="DejaVuSans-47"/>
       <path d="M 45.40625 46.390625 
L 45.40625 75.984375 
L 54.390625 75.984375 
L 54.390625 0 
L 45.40625 0 
L 45.40625 8.203125 
Q 42.578125 3.328125 38.25 0.953125 
Q 33.9375 -1.421875 27.875 -1.421875 
Q 17.96875 -1.421875 11.734375 6.484375 
Q 5.515625 14.40625 5.515625 27.296875 
Q 5.515625 40.1875 11.734375 48.09375 
Q 17.96875 56 27.875 56 
Q 33.9375 56 38.25 53.625 
Q 42.578125 51.265625 45.40625 46.390625 
z
M 14.796875 27.296875 
Q 14.796875 17.390625 18.875 11.75 
Q 22.953125 6.109375 30.078125 6.109375 
Q 37.203125 6.109375 41.296875 11.75 
Q 45.40625 17.390625 45.40625 27.296875 
Q 45.40625 37.203125 41.296875 42.84375 
Q 37.203125 48.484375 30.078125 48.484375 
Q 22.953125 48.484375 18.875 42.84375 
Q 14.796875 37.203125 14.796875 27.296875 
z
" id="DejaVuSans-100"/>
       <path d="M 9.421875 54.6875 
L 18.40625 54.6875 
L 18.40625 0 
L 9.421875 0 
z
M 9.421875 75.984375 
L 18.40625 75.984375 
L 18.40625 64.59375 
L 9.421875 64.59375 
z
" id="DejaVuSans-105"/>
       <path d="M 52 44.1875 
Q 55.375 50.25 60.0625 53.125 
Q 64.75 56 71.09375 56 
Q 79.640625 56 84.28125 50.015625 
Q 88.921875 44.046875 88.921875 33.015625 
L 88.921875 0 
L 79.890625 0 
L 79.890625 32.71875 
Q 79.890625 40.578125 77.09375 44.375 
Q 74.3125 48.1875 68.609375 48.1875 
Q 61.625 48.1875 57.5625 43.546875 
Q 53.515625 38.921875 53.515625 30.90625 
L 53.515625 0 
L 44.484375 0 
L 44.484375 32.71875 
Q 44.484375 40.625 41.703125 44.40625 
Q 38.921875 48.1875 33.109375 48.1875 
Q 26.21875 48.1875 22.15625 43.53125 
Q 18.109375 38.875 18.109375 30.90625 
L 18.109375 0 
L 9.078125 0 
L 9.078125 54.6875 
L 18.109375 54.6875 
L 18.109375 46.1875 
Q 21.1875 51.21875 25.484375 53.609375 
Q 29.78125 56 35.6875 56 
Q 41.65625 56 45.828125 52.96875 
Q 50 49.953125 52 44.1875 
z
" id="DejaVuSans-109"/>
       <path d="M 54.890625 33.015625 
L 54.890625 0 
L 45.90625 0 
L 45.90625 32.71875 
Q 45.90625 40.484375 42.875 44.328125 
Q 39.84375 48.1875 33.796875 48.1875 
Q 26.515625 48.1875 22.3125 43.546875 
Q 18.109375 38.921875 18.109375 30.90625 
L 18.109375 0 
L 9.078125 0 
L 9.078125 54.6875 
L 18.109375 54.6875 
L 18.109375 46.1875 
Q 21.34375 51.125 25.703125 53.5625 
Q 30.078125 56 35.796875 56 
Q 45.21875 56 50.046875 50.171875 
Q 54.890625 44.34375 54.890625 33.015625 
z
" id="DejaVuSans-110"/>
       <path d="M 8.015625 75.875 
L 15.828125 75.875 
Q 23.140625 64.359375 26.78125 53.3125 
Q 30.421875 42.28125 30.421875 31.390625 
Q 30.421875 20.453125 26.78125 9.375 
Q 23.140625 -1.703125 15.828125 -13.1875 
L 8.015625 -13.1875 
Q 14.5 -2 17.703125 9.0625 
Q 20.90625 20.125 20.90625 31.390625 
Q 20.90625 42.671875 17.703125 53.65625 
Q 14.5 64.65625 8.015625 75.875 
z
" id="DejaVuSans-41"/>
      </defs>
      <use xlink:href="#DejaVuSans-108"/>
      <use x="27.783203" xlink:href="#DejaVuSans-111"/>
      <use x="88.964844" xlink:href="#DejaVuSans-103"/>
      <use x="152.441406" xlink:href="#DejaVuSans-49"/>
      <use x="216.064453" xlink:href="#DejaVuSans-48"/>
      <use x="279.6875" xlink:href="#DejaVuSans-40"/>
      <use x="318.701172" xlink:href="#DejaVuSans-35"/>
      <use x="402.490234" xlink:href="#DejaVuSans-32"/>
      <use x="434.277344" xlink:href="#DejaVuSans-102"/>
      <use x="463.982422" xlink:href="#DejaVuSans-45"/>
      <use x="500.066406" xlink:href="#DejaVuSans-101"/>
      <use x="561.589844" xlink:href="#DejaVuSans-118"/>
      <use x="620.769531" xlink:href="#DejaVuSans-97"/>
      <use x="682.048828" xlink:href="#DejaVuSans-108"/>
      <use x="709.832031" xlink:href="#DejaVuSans-115"/>
      <use x="761.931641" xlink:href="#DejaVuSans-32"/>
      <use x="793.71875" xlink:href="#DejaVuSans-47"/>
      <use x="827.410156" xlink:href="#DejaVuSans-32"/>
      <use x="859.197266" xlink:href="#DejaVuSans-100"/>
      <use x="922.673828" xlink:href="#DejaVuSans-105"/>
      <use x="950.457031" xlink:href="#DejaVuSans-109"/>
      <use x="1047.869141" xlink:href="#DejaVuSans-101"/>
      <use x="1109.392578" xlink:href="#DejaVuSans-110"/>
      <use x="1172.771484" xlink:href="#DejaVuSans-115"/>
      <use x="1224.871094" xlink:href="#DejaVuSans-105"/>
      <use x="1252.654297" xlink:href="#DejaVuSans-111"/>
      <use x="1313.835938" xlink:href="#DejaVuSans-110"/>
      <use x="1377.214844" xlink:href="#DejaVuSans-41"/>
     </g>
    </g>
   </g>
   <g id="matplotlib.axis_2">
    <g id="ytick_1">
     <g id="line2d_21">
      <path clip-path="url(#p70550b1d33)" d="M 57.6 298.944 
L 338.688 298.944 
" style="fill:none;stroke:#b0b0b0;stroke-linecap:square;stroke-width:0.8;"/>
     </g>
     <g id="line2d_22">
      <defs>
       <path d="M 0 0 
L -3.5 0 
" id="ma2eb394488" style="stroke:#000000;stroke-width:0.8;"/>
      </defs>
      <g>
       <use style="stroke:#000000;stroke-width:0.8;" x="57.6" xlink:href="#ma2eb394488" y="298.944"/>
      </g>
     </g>
     <g id="text_6">
      <!-- 0.0 -->
      <g transform="translate(25.155 305.02275)scale(0.16 -0.16)">
       <defs>
        <path d="M 10.6875 12.40625 
L 21 12.40625 
L 21 0 
L 10.6875 0 
z
" id="DejaVuSans-46"/>
       </defs>
       <use xlink:href="#DejaVuSans-48"/>
       <use x="63.623047" xlink:href="#DejaVuSans-46"/>
       <use x="95.410156" xlink:href="#DejaVuSans-48"/>
      </g>
     </g>
    </g>
    <g id="ytick_2">
     <g id="line2d_23">
      <path clip-path="url(#p70550b1d33)" d="M 57.6 245.22202 
L 338.688 245.22202 
" style="fill:none;stroke:#b0b0b0;stroke-linecap:square;stroke-width:0.8;"/>
     </g>
     <g id="line2d_24">
      <g>
       <use style="stroke:#000000;stroke-width:0.8;" x="57.6" xlink:href="#ma2eb394488" y="245.22202"/>
      </g>
     </g>
     <g id="text_7">
      <!-- 0.2 -->
      <g transform="translate(25.155 251.30077)scale(0.16 -0.16)">
       <use xlink:href="#DejaVuSans-48"/>
       <use x="63.623047" xlink:href="#DejaVuSans-46"/>
       <use x="95.410156" xlink:href="#DejaVuSans-50"/>
      </g>
     </g>
    </g>
    <g id="ytick_3">
     <g id="line2d_25">
      <path clip-path="url(#p70550b1d33)" d="M 57.6 191.50004 
L 338.688 191.50004 
" style="fill:none;stroke:#b0b0b0;stroke-linecap:square;stroke-width:0.8;"/>
     </g>
     <g id="line2d_26">
      <g>
       <use style="stroke:#000000;stroke-width:0.8;" x="57.6" xlink:href="#ma2eb394488" y="191.50004"/>
      </g>
     </g>
     <g id="text_8">
      <!-- 0.4 -->
      <g transform="translate(25.155 197.57879)scale(0.16 -0.16)">
       <use xlink:href="#DejaVuSans-48"/>
       <use x="63.623047" xlink:href="#DejaVuSans-46"/>
       <use x="95.410156" xlink:href="#DejaVuSans-52"/>
      </g>
     </g>
    </g>
    <g id="ytick_4">
     <g id="line2d_27">
      <path clip-path="url(#p70550b1d33)" d="M 57.6 137.778059 
L 338.688 137.778059 
" style="fill:none;stroke:#b0b0b0;stroke-linecap:square;stroke-width:0.8;"/>
     </g>
     <g id="line2d_28">
      <g>
       <use style="stroke:#000000;stroke-width:0.8;" x="57.6" xlink:href="#ma2eb394488" y="137.778059"/>
      </g>
     </g>
     <g id="text_9">
      <!-- 0.6 -->
      <g transform="translate(25.155 143.856809)scale(0.16 -0.16)">
       <use xlink:href="#DejaVuSans-48"/>
       <use x="63.623047" xlink:href="#DejaVuSans-46"/>
       <use x="95.410156" xlink:href="#DejaVuSans-54"/>
      </g>
     </g>
    </g>
    <g id="ytick_5">
     <g id="line2d_29">
      <path clip-path="url(#p70550b1d33)" d="M 57.6 84.056079 
L 338.688 84.056079 
" style="fill:none;stroke:#b0b0b0;stroke-linecap:square;stroke-width:0.8;"/>
     </g>
     <g id="line2d_30">
      <g>
       <use style="stroke:#000000;stroke-width:0.8;" x="57.6" xlink:href="#ma2eb394488" y="84.056079"/>
      </g>
     </g>
     <g id="text_10">
      <!-- 0.8 -->
      <g transform="translate(25.155 90.134829)scale(0.16 -0.16)">
       <defs>
        <path d="M 31.78125 34.625 
Q 24.75 34.625 20.71875 30.859375 
Q 16.703125 27.09375 16.703125 20.515625 
Q 16.703125 13.921875 20.71875 10.15625 
Q 24.75 6.390625 31.78125 6.390625 
Q 38.8125 6.390625 42.859375 10.171875 
Q 46.921875 13.96875 46.921875 20.515625 
Q 46.921875 27.09375 42.890625 30.859375 
Q 38.875 34.625 31.78125 34.625 
z
M 21.921875 38.8125 
Q 15.578125 40.375 12.03125 44.71875 
Q 8.5 49.078125 8.5 55.328125 
Q 8.5 64.0625 14.71875 69.140625 
Q 20.953125 74.21875 31.78125 74.21875 
Q 42.671875 74.21875 48.875 69.140625 
Q 55.078125 64.0625 55.078125 55.328125 
Q 55.078125 49.078125 51.53125 44.71875 
Q 48 40.375 41.703125 38.8125 
Q 48.828125 37.15625 52.796875 32.3125 
Q 56.78125 27.484375 56.78125 20.515625 
Q 56.78125 9.90625 50.3125 4.234375 
Q 43.84375 -1.421875 31.78125 -1.421875 
Q 19.734375 -1.421875 13.25 4.234375 
Q 6.78125 9.90625 6.78125 20.515625 
Q 6.78125 27.484375 10.78125 32.3125 
Q 14.796875 37.15625 21.921875 38.8125 
z
M 18.3125 54.390625 
Q 18.3125 48.734375 21.84375 45.5625 
Q 25.390625 42.390625 31.78125 42.390625 
Q 38.140625 42.390625 41.71875 45.5625 
Q 45.3125 48.734375 45.3125 54.390625 
Q 45.3125 60.0625 41.71875 63.234375 
Q 38.140625 66.40625 31.78125 66.40625 
Q 25.390625 66.40625 21.84375 63.234375 
Q 18.3125 60.0625 18.3125 54.390625 
z
" id="DejaVuSans-56"/>
       </defs>
       <use xlink:href="#DejaVuSans-48"/>
       <use x="63.623047" xlink:href="#DejaVuSans-46"/>
       <use x="95.410156" xlink:href="#DejaVuSans-56"/>
      </g>
     </g>
    </g>
    <g id="ytick_6">
     <g id="line2d_31">
      <path clip-path="url(#p70550b1d33)" d="M 57.6 30.334099 
L 338.688 30.334099 
" style="fill:none;stroke:#b0b0b0;stroke-linecap:square;stroke-width:0.8;"/>
     </g>
     <g id="line2d_32">
      <g>
       <use style="stroke:#000000;stroke-width:0.8;" x="57.6" xlink:href="#ma2eb394488" y="30.334099"/>
      </g>
     </g>
     <g id="text_11">
      <!-- 1.0 -->
      <g transform="translate(25.155 36.412849)scale(0.16 -0.16)">
       <use xlink:href="#DejaVuSans-49"/>
       <use x="63.623047" xlink:href="#DejaVuSans-46"/>
       <use x="95.410156" xlink:href="#DejaVuSans-48"/>
      </g>
     </g>
    </g>
    <g id="text_12">
     <!-- Fraction of function,target pairs -->
     <g transform="translate(17.619531 297.681)rotate(-90)scale(0.17 -0.17)">
      <defs>
       <path d="M 9.8125 72.90625 
L 51.703125 72.90625 
L 51.703125 64.59375 
L 19.671875 64.59375 
L 19.671875 43.109375 
L 48.578125 43.109375 
L 48.578125 34.8125 
L 19.671875 34.8125 
L 19.671875 0 
L 9.8125 0 
z
" id="DejaVuSans-70"/>
       <path d="M 41.109375 46.296875 
Q 39.59375 47.171875 37.8125 47.578125 
Q 36.03125 48 33.890625 48 
Q 26.265625 48 22.1875 43.046875 
Q 18.109375 38.09375 18.109375 28.8125 
L 18.109375 0 
L 9.078125 0 
L 9.078125 54.6875 
L 18.109375 54.6875 
L 18.109375 46.1875 
Q 20.953125 51.171875 25.484375 53.578125 
Q 30.03125 56 36.53125 56 
Q 37.453125 56 38.578125 55.875 
Q 39.703125 55.765625 41.0625 55.515625 
z
" id="DejaVuSans-114"/>
       <path d="M 48.78125 52.59375 
L 48.78125 44.1875 
Q 44.96875 46.296875 41.140625 47.34375 
Q 37.3125 48.390625 33.40625 48.390625 
Q 24.65625 48.390625 19.8125 42.84375 
Q 14.984375 37.3125 14.984375 27.296875 
Q 14.984375 17.28125 19.8125 11.734375 
Q 24.65625 6.203125 33.40625 6.203125 
Q 37.3125 6.203125 41.140625 7.25 
Q 44.96875 8.296875 48.78125 10.40625 
L 48.78125 2.09375 
Q 45.015625 0.34375 40.984375 -0.53125 
Q 36.96875 -1.421875 32.421875 -1.421875 
Q 20.0625 -1.421875 12.78125 6.34375 
Q 5.515625 14.109375 5.515625 27.296875 
Q 5.515625 40.671875 12.859375 48.328125 
Q 20.21875 56 33.015625 56 
Q 37.15625 56 41.109375 55.140625 
Q 45.0625 54.296875 48.78125 52.59375 
z
" id="DejaVuSans-99"/>
       <path d="M 18.3125 70.21875 
L 18.3125 54.6875 
L 36.8125 54.6875 
L 36.8125 47.703125 
L 18.3125 47.703125 
L 18.3125 18.015625 
Q 18.3125 11.328125 20.140625 9.421875 
Q 21.96875 7.515625 27.59375 7.515625 
L 36.8125 7.515625 
L 36.8125 0 
L 27.59375 0 
Q 17.1875 0 13.234375 3.875 
Q 9.28125 7.765625 9.28125 18.015625 
L 9.28125 47.703125 
L 2.6875 47.703125 
L 2.6875 54.6875 
L 9.28125 54.6875 
L 9.28125 70.21875 
z
" id="DejaVuSans-116"/>
       <path d="M 8.5 21.578125 
L 8.5 54.6875 
L 17.484375 54.6875 
L 17.484375 21.921875 
Q 17.484375 14.15625 20.5 10.265625 
Q 23.53125 6.390625 29.59375 6.390625 
Q 36.859375 6.390625 41.078125 11.03125 
Q 45.3125 15.671875 45.3125 23.6875 
L 45.3125 54.6875 
L 54.296875 54.6875 
L 54.296875 0 
L 45.3125 0 
L 45.3125 8.40625 
Q 42.046875 3.421875 37.71875 1 
Q 33.40625 -1.421875 27.6875 -1.421875 
Q 18.265625 -1.421875 13.375 4.4375 
Q 8.5 10.296875 8.5 21.578125 
z
M 31.109375 56 
z
" id="DejaVuSans-117"/>
       <path d="M 11.71875 12.40625 
L 22.015625 12.40625 
L 22.015625 4 
L 14.015625 -11.625 
L 7.71875 -11.625 
L 11.71875 4 
z
" id="DejaVuSans-44"/>
       <path d="M 18.109375 8.203125 
L 18.109375 -20.796875 
L 9.078125 -20.796875 
L 9.078125 54.6875 
L 18.109375 54.6875 
L 18.109375 46.390625 
Q 20.953125 51.265625 25.265625 53.625 
Q 29.59375 56 35.59375 56 
Q 45.5625 56 51.78125 48.09375 
Q 58.015625 40.1875 58.015625 27.296875 
Q 58.015625 14.40625 51.78125 6.484375 
Q 45.5625 -1.421875 35.59375 -1.421875 
Q 29.59375 -1.421875 25.265625 0.953125 
Q 20.953125 3.328125 18.109375 8.203125 
z
M 48.6875 27.296875 
Q 48.6875 37.203125 44.609375 42.84375 
Q 40.53125 48.484375 33.40625 48.484375 
Q 26.265625 48.484375 22.1875 42.84375 
Q 18.109375 37.203125 18.109375 27.296875 
Q 18.109375 17.390625 22.1875 11.75 
Q 26.265625 6.109375 33.40625 6.109375 
Q 40.53125 6.109375 44.609375 11.75 
Q 48.6875 17.390625 48.6875 27.296875 
z
" id="DejaVuSans-112"/>
      </defs>
      <use xlink:href="#DejaVuSans-70"/>
      <use x="50.269531" xlink:href="#DejaVuSans-114"/>
      <use x="91.382812" xlink:href="#DejaVuSans-97"/>
      <use x="152.662109" xlink:href="#DejaVuSans-99"/>
      <use x="207.642578" xlink:href="#DejaVuSans-116"/>
      <use x="246.851562" xlink:href="#DejaVuSans-105"/>
      <use x="274.634766" xlink:href="#DejaVuSans-111"/>
      <use x="335.816406" xlink:href="#DejaVuSans-110"/>
      <use x="399.195312" xlink:href="#DejaVuSans-32"/>
      <use x="430.982422" xlink:href="#DejaVuSans-111"/>
      <use x="492.164062" xlink:href="#DejaVuSans-102"/>
      <use x="527.369141" xlink:href="#DejaVuSans-32"/>
      <use x="559.15625" xlink:href="#DejaVuSans-102"/>
      <use x="594.361328" xlink:href="#DejaVuSans-117"/>
      <use x="657.740234" xlink:href="#DejaVuSans-110"/>
      <use x="721.119141" xlink:href="#DejaVuSans-99"/>
      <use x="776.099609" xlink:href="#DejaVuSans-116"/>
      <use x="815.308594" xlink:href="#DejaVuSans-105"/>
      <use x="843.091797" xlink:href="#DejaVuSans-111"/>
      <use x="904.273438" xlink:href="#DejaVuSans-110"/>
      <use x="967.652344" xlink:href="#DejaVuSans-44"/>
      <use x="999.439453" xlink:href="#DejaVuSans-116"/>
      <use x="1038.648438" xlink:href="#DejaVuSans-97"/>
      <use x="1099.927734" xlink:href="#DejaVuSans-114"/>
      <use x="1139.291016" xlink:href="#DejaVuSans-103"/>
      <use x="1202.767578" xlink:href="#DejaVuSans-101"/>
      <use x="1264.291016" xlink:href="#DejaVuSans-116"/>
      <use x="1303.5" xlink:href="#DejaVuSans-32"/>
      <use x="1335.287109" xlink:href="#DejaVuSans-112"/>
      <use x="1398.763672" xlink:href="#DejaVuSans-97"/>
      <use x="1460.042969" xlink:href="#DejaVuSans-105"/>
      <use x="1487.826172" xlink:href="#DejaVuSans-114"/>
      <use x="1528.939453" xlink:href="#DejaVuSans-115"/>
     </g>
    </g>
   </g>
   <g id="line2d_33">
    <defs>
     <path d="M 0 1.5 
C 0.397805 1.5 0.77937 1.341951 1.06066 1.06066 
C 1.341951 0.77937 1.5 0.397805 1.5 0 
C 1.5 -0.397805 1.341951 -0.77937 1.06066 -1.06066 
C 0.77937 -1.341951 0.397805 -1.5 0 -1.5 
C -0.397805 -1.5 -0.77937 -1.341951 -1.06066 -1.06066 
C -1.341951 -0.77937 -1.5 -0.397805 -1.5 0 
C -1.5 0.397805 -1.341951 0.77937 -1.06066 1.06066 
C -0.77937 1.341951 -0.397805 1.5 0 1.5 
z
" id="mb12a265f40" style="stroke:#f5deb3;"/>
    </defs>
    <g>
     <use style="fill:#f5deb3;stroke:#f5deb3;" x="341.07583" xlink:href="#mb12a265f40" y="109.064587"/>
     <use style="fill:#f5deb3;stroke:#f5deb3;" x="341.07583" xlink:href="#mb12a265f40" y="109.064587"/>
    </g>
   </g>
   <g id="line2d_34">
    <defs>
     <path d="M 0 1.5 
C 0.397805 1.5 0.77937 1.341951 1.06066 1.06066 
C 1.341951 0.77937 1.5 0.397805 1.5 0 
C 1.5 -0.397805 1.341951 -0.77937 1.06066 -1.06066 
C 0.77937 -1.341951 0.397805 -1.5 0 -1.5 
C -0.397805 -1.5 -0.77937 -1.341951 -1.06066 -1.06066 
C -1.341951 -0.77937 -1.5 -0.397805 -1.5 0 
C -1.5 0.397805 -1.341951 0.77937 -1.06066 1.06066 
C -0.77937 1.341951 -0.397805 1.5 0 1.5 
z
" id="meae24fd65c" style="stroke:#000080;"/>
    </defs>
    <g>
     <use style="fill:#000080;stroke:#000080;" x="254.151856" xlink:href="#meae24fd65c" y="278.566697"/>
     <use style="fill:#000080;stroke:#000080;" x="254.151856" xlink:href="#meae24fd65c" y="278.566697"/>
    </g>
   </g>
   <g id="line2d_35">
    <path d="M 17.444571 298.944 
L 17.444571 298.017759 
L 89.135256 298.017759 
L 89.135256 297.554638 
L 101.223245 297.554638 
L 101.223245 297.091518 
L 110.358901 297.091518 
L 110.358901 296.628397 
L 112.204777 296.628397 
L 112.204777 296.165277 
L 122.699028 296.165277 
L 122.699028 295.702156 
L 123.553867 295.702156 
L 123.553867 295.239036 
L 127.293718 295.239036 
L 127.293718 294.775915 
L 129.79784 294.775915 
L 129.79784 294.312795 
L 132.986651 294.312795 
L 132.986651 293.849674 
L 133.46572 293.849674 
L 133.46572 293.386554 
L 136.494612 293.386554 
L 136.494612 292.923433 
L 136.924311 292.923433 
L 136.924311 292.460313 
L 138.049816 292.460313 
L 138.049816 291.997192 
L 139.074469 291.997192 
L 139.074469 291.534072 
L 139.107066 291.534072 
L 139.107066 291.070951 
L 139.746525 291.070951 
L 139.746525 290.607831 
L 140.423864 290.607831 
L 140.423864 290.14471 
L 141.350061 290.14471 
L 141.350061 289.68159 
L 142.20229 289.68159 
L 142.20229 289.218469 
L 142.712875 289.218469 
L 142.712875 288.755349 
L 143.578237 288.755349 
L 143.578237 288.292228 
L 143.60342 288.292228 
L 143.60342 287.829108 
L 143.791143 287.829108 
L 143.791143 287.365987 
L 148.592055 287.365987 
L 148.592055 286.902867 
L 150.657656 286.902867 
L 150.657656 286.439746 
L 151.0643 286.439746 
L 151.0643 285.976625 
L 151.349063 285.976625 
L 151.349063 285.513505 
L 151.740076 285.513505 
L 151.740076 285.050384 
L 173.600884 285.050384 
L 173.600884 284.587264 
L 175.651681 284.587264 
L 175.651681 284.124143 
L 178.203515 284.124143 
L 178.203515 283.661023 
L 188.420222 283.661023 
L 188.420222 283.197902 
L 192.830339 283.197902 
L 192.830339 282.734782 
L 193.328744 282.734782 
L 193.328744 282.271661 
L 193.567686 282.271661 
L 193.567686 281.808541 
L 193.572704 281.808541 
L 193.572704 281.34542 
L 193.617801 281.34542 
L 193.617801 280.8823 
L 194.483163 280.8823 
L 194.483163 280.419179 
L 235.276658 280.419179 
L 235.276658 279.492938 
L 253.980116 279.492938 
L 253.980116 279.029818 
L 254.151856 279.029818 
L 254.151856 278.566697 
L 338.688 278.566697 
" style="fill:none;stroke:#000080;stroke-linecap:square;stroke-width:1.5;"/>
   </g>
   <g id="line2d_36">
    <defs>
     <path d="M 0 6 
C 1.591219 6 3.117479 5.367802 4.242641 4.242641 
C 5.367802 3.117479 6 1.591219 6 0 
C 6 -1.591219 5.367802 -3.117479 4.242641 -4.242641 
C 3.117479 -5.367802 1.591219 -6 0 -6 
C -1.591219 -6 -3.117479 -5.367802 -4.242641 -4.242641 
C -5.367802 -3.117479 -6 -1.591219 -6 0 
C -6 1.591219 -5.367802 3.117479 -4.242641 4.242641 
C -3.117479 5.367802 -1.591219 6 0 6 
z
" id="m2121252540" style="stroke:#000080;stroke-width:1.5;"/>
    </defs>
    <g>
     <use style="fill-opacity:0;stroke:#000080;stroke-width:1.5;" x="112.204777" xlink:href="#m2121252540" y="296.165277"/>
     <use style="fill-opacity:0;stroke:#000080;stroke-width:1.5;" x="175.651681" xlink:href="#m2121252540" y="284.124143"/>
     <use style="fill-opacity:0;stroke:#000080;stroke-width:1.5;" x="235.276658" xlink:href="#m2121252540" y="280.419179"/>
     <use style="fill-opacity:0;stroke:#000080;stroke-width:1.5;" x="254.151856" xlink:href="#m2121252540" y="278.566697"/>
     <use style="fill-opacity:0;stroke:#000080;stroke-width:1.5;" x="254.151856" xlink:href="#m2121252540" y="278.566697"/>
     <use style="fill-opacity:0;stroke:#000080;stroke-width:1.5;" x="338.688" xlink:href="#m2121252540" y="278.566697"/>
    </g>
   </g>
   <g id="line2d_37">
    <path style="fill:none;stroke:#000080;stroke-linecap:square;stroke-width:1.5;"/>
    <g/>
   </g>
   <g id="line2d_38">
    <path clip-path="url(#p70550b1d33)" d="M 258.377143 278.566697 
" style="fill:none;stroke:#000080;stroke-linecap:square;stroke-width:1.5;"/>
    <defs>
     <path d="M -12 12 
L 12 -12 
M -12 -12 
L 12 12 
" id="m89ad120a35" style="stroke:#000080;"/>
    </defs>
    <g clip-path="url(#p70550b1d33)">
     <use style="fill:#000080;stroke:#000080;" x="258.377143" xlink:href="#m89ad120a35" y="278.566697"/>
    </g>
   </g>
   <g id="line2d_39">
    <defs>
     <path d="M 0 1.5 
C 0.397805 1.5 0.77937 1.341951 1.06066 1.06066 
C 1.341951 0.77937 1.5 0.397805 1.5 0 
C 1.5 -0.397805 1.341951 -0.77937 1.06066 -1.06066 
C 0.77937 -1.341951 0.397805 -1.5 0 -1.5 
C -0.397805 -1.5 -0.77937 -1.341951 -1.06066 -1.06066 
C -1.341951 -0.77937 -1.5 -0.397805 -1.5 0 
C -1.5 0.397805 -1.341951 0.77937 -1.06066 1.06066 
C -0.77937 1.341951 -0.397805 1.5 0 1.5 
z
" id="m334d815fa9" style="stroke:#ff00ff;"/>
    </defs>
    <g>
     <use style="fill:#ff00ff;stroke:#ff00ff;" x="224.851329" xlink:href="#m334d815fa9" y="221.139753"/>
     <use style="fill:#ff00ff;stroke:#ff00ff;" x="224.851329" xlink:href="#m334d815fa9" y="221.139753"/>
    </g>
   </g>
   <g id="line2d_40">
    <path d="M 17.444571 298.944 
L 17.444571 287.829108 
L 29.53256 287.829108 
L 29.53256 285.976625 
L 51.379845 285.976625 
L 51.379845 285.050384 
L 62.175444 285.050384 
L 62.175444 284.587264 
L 66.853775 284.587264 
L 66.853775 284.124143 
L 71.35013 284.124143 
L 71.35013 283.661023 
L 79.938565 283.661023 
L 79.938565 283.197902 
L 85.315119 283.197902 
L 85.315119 282.734782 
L 122.906394 282.734782 
L 122.906394 282.271661 
L 129.742212 282.271661 
L 129.742212 281.808541 
L 132.917126 281.808541 
L 132.917126 281.34542 
L 136.942755 281.34542 
L 136.942755 280.8823 
L 140.544239 280.8823 
L 140.544239 279.492938 
L 141.162927 279.492938 
L 141.162927 279.029818 
L 141.478449 279.029818 
L 141.478449 278.566697 
L 141.648175 278.566697 
L 141.648175 278.103577 
L 142.765762 278.103577 
L 142.765762 277.177336 
L 143.092717 277.177336 
L 143.092717 276.714215 
L 144.013775 276.714215 
L 144.013775 276.251095 
L 145.350002 276.251095 
L 145.350002 275.787974 
L 145.721664 275.787974 
L 145.832743 274.398612 
L 146.205204 274.398612 
L 146.205204 273.935492 
L 146.738883 273.935492 
L 146.738883 273.472371 
L 146.958248 273.472371 
L 146.958248 273.009251 
L 147.749695 273.009251 
L 147.749695 272.54613 
L 147.976374 272.54613 
L 147.976374 272.08301 
L 148.190475 272.08301 
L 148.190475 271.619889 
L 149.413639 271.619889 
L 149.413639 271.156769 
L 149.610898 271.156769 
L 149.610898 270.693648 
L 149.788308 270.693648 
L 149.83238 268.841166 
L 150.352736 268.841166 
L 150.454969 267.914925 
L 150.531253 267.914925 
L 150.531253 267.451805 
L 151.99078 267.451805 
L 151.998557 266.525564 
L 152.299175 266.525564 
L 152.299175 266.062443 
L 152.413432 266.062443 
L 152.474064 264.673082 
L 152.863116 264.673082 
L 152.863116 263.746841 
L 153.120174 263.746841 
L 153.120174 263.28372 
L 154.761093 263.28372 
L 154.794242 262.357479 
L 154.952482 262.357479 
L 154.952482 261.894358 
L 155.148284 261.894358 
L 155.148284 260.968117 
L 155.916435 260.968117 
L 155.916435 260.504997 
L 157.613546 260.504997 
L 157.613546 260.041876 
L 158.031107 260.041876 
L 158.031107 259.115635 
L 158.92645 259.115635 
L 159.015067 258.189394 
L 159.481921 258.189394 
L 159.481921 257.263153 
L 159.653192 257.263153 
L 159.653192 256.800033 
L 160.020244 256.800033 
L 160.034962 255.873792 
L 160.689494 255.873792 
L 160.788407 254.02131 
L 161.054091 254.02131 
L 161.054091 253.558189 
L 162.016937 253.558189 
L 162.016937 253.095069 
L 162.178151 253.095069 
L 162.178151 252.168828 
L 162.346481 252.168828 
L 162.346481 251.242587 
L 163.0577 251.242587 
L 163.0577 250.779466 
L 163.930348 250.779466 
L 163.930348 250.316346 
L 164.233648 250.316346 
L 164.233648 249.853225 
L 164.813684 249.853225 
L 164.813684 249.390104 
L 165.131442 249.390104 
L 165.131442 248.463863 
L 165.273656 248.463863 
L 165.273656 247.537622 
L 165.862816 247.537622 
L 165.862816 246.611381 
L 166.425924 246.611381 
L 166.425924 246.148261 
L 166.81587 246.148261 
L 166.81587 245.68514 
L 167.481174 245.68514 
L 167.481174 245.22202 
L 167.807685 245.22202 
L 167.807685 244.758899 
L 168.18668 244.758899 
L 168.18668 244.295779 
L 168.515445 244.295779 
L 168.515445 243.832658 
L 169.07628 243.832658 
L 169.07628 242.906417 
L 169.701534 242.906417 
L 169.701534 242.443297 
L 169.86697 242.443297 
L 169.86697 241.517056 
L 170.050192 241.517056 
L 170.050192 241.053935 
L 171.458184 241.053935 
L 171.54458 238.738333 
L 173.353579 238.738333 
L 173.353579 238.275212 
L 174.400072 238.275212 
L 174.400072 237.348971 
L 174.543659 237.348971 
L 174.543659 236.42273 
L 175.085791 236.42273 
L 175.085791 235.959609 
L 175.482621 235.959609 
L 175.482621 235.033368 
L 175.651681 235.033368 
L 175.651681 234.570248 
L 176.948219 234.570248 
L 176.948219 233.644007 
L 178.491802 233.644007 
L 178.491802 233.180886 
L 179.519494 233.180886 
L 179.519494 232.254645 
L 180.15286 232.254645 
L 180.15286 231.791525 
L 180.430691 231.791525 
L 180.430691 231.328404 
L 182.030146 231.328404 
L 182.030146 230.865284 
L 182.967335 230.865284 
L 182.967335 229.939043 
L 183.284386 229.939043 
L 183.284386 229.012802 
L 184.159369 229.012802 
L 184.159369 228.549681 
L 184.573727 228.549681 
L 184.573727 227.62344 
L 188.5746 227.62344 
L 188.5746 227.16032 
L 196.798669 227.16032 
L 196.798669 226.234079 
L 198.80002 226.234079 
L 198.80002 225.307837 
L 199.063578 225.307837 
L 199.063578 224.381596 
L 202.121076 224.381596 
L 202.121076 223.455355 
L 203.703893 223.455355 
L 203.703893 222.529114 
L 205.691486 222.529114 
L 205.691486 221.602873 
L 224.851329 221.602873 
L 224.851329 221.139753 
L 338.688 221.139753 
L 338.688 221.139753 
" style="fill:none;stroke:#ff00ff;stroke-linecap:square;stroke-width:1.5;"/>
   </g>
   <g id="line2d_41">
    <defs>
     <path d="M -0 8.485281 
L 5.091169 0 
L 0 -8.485281 
L -5.091169 -0 
z
" id="mcd993eda3d" style="stroke:#ff00ff;stroke-linejoin:miter;stroke-width:1.5;"/>
    </defs>
    <g>
     <use style="fill-opacity:0;stroke:#ff00ff;stroke-linejoin:miter;stroke-width:1.5;" x="122.906394" xlink:href="#mcd993eda3d" y="282.271661"/>
     <use style="fill-opacity:0;stroke:#ff00ff;stroke-linejoin:miter;stroke-width:1.5;" x="171.514136" xlink:href="#mcd993eda3d" y="240.590815"/>
     <use style="fill-opacity:0;stroke:#ff00ff;stroke-linejoin:miter;stroke-width:1.5;" x="224.851329" xlink:href="#mcd993eda3d" y="221.602873"/>
     <use style="fill-opacity:0;stroke:#ff00ff;stroke-linejoin:miter;stroke-width:1.5;" x="224.851329" xlink:href="#mcd993eda3d" y="221.139753"/>
     <use style="fill-opacity:0;stroke:#ff00ff;stroke-linejoin:miter;stroke-width:1.5;" x="224.851329" xlink:href="#mcd993eda3d" y="221.139753"/>
     <use style="fill-opacity:0;stroke:#ff00ff;stroke-linejoin:miter;stroke-width:1.5;" x="338.688" xlink:href="#mcd993eda3d" y="221.139753"/>
    </g>
   </g>
   <g id="line2d_42">
    <path style="fill:none;stroke:#ff00ff;stroke-linecap:square;stroke-width:1.5;"/>
    <g/>
   </g>
   <g id="line2d_43">
    <path clip-path="url(#p70550b1d33)" d="M 258.37716 221.139753 
" style="fill:none;stroke:#ff00ff;stroke-linecap:square;stroke-width:1.5;"/>
    <defs>
     <path d="M -12 12 
L 12 -12 
M -12 -12 
L 12 12 
" id="m06ae097d27" style="stroke:#ff00ff;"/>
    </defs>
    <g clip-path="url(#p70550b1d33)">
     <use style="fill:#ff00ff;stroke:#ff00ff;" x="258.37716" xlink:href="#m06ae097d27" y="221.139753"/>
    </g>
   </g>
   <g id="line2d_44">
    <defs>
     <path d="M 0 1.5 
C 0.397805 1.5 0.77937 1.341951 1.06066 1.06066 
C 1.341951 0.77937 1.5 0.397805 1.5 0 
C 1.5 -0.397805 1.341951 -0.77937 1.06066 -1.06066 
C 0.77937 -1.341951 0.397805 -1.5 0 -1.5 
C -0.397805 -1.5 -0.77937 -1.341951 -1.06066 -1.06066 
C -1.341951 -0.77937 -1.5 -0.397805 -1.5 0 
C -1.5 0.397805 -1.341951 0.77937 -1.06066 1.06066 
C -0.77937 1.341951 -0.397805 1.5 0 1.5 
z
" id="ma72a9a6655" style="stroke:#ff7500;"/>
    </defs>
    <g>
     <use style="fill:#ff7500;stroke:#ff7500;" x="257.066462" xlink:href="#ma72a9a6655" y="195.668124"/>
     <use style="fill:#ff7500;stroke:#ff7500;" x="257.066462" xlink:href="#ma72a9a6655" y="195.668124"/>
    </g>
   </g>
   <g id="line2d_45">
    <path d="M 146.495417 298.944 
L 146.548634 298.017759 
L 148.344551 298.017759 
L 148.344551 297.091518 
L 148.592055 297.091518 
L 148.592055 296.628397 
L 149.095146 296.628397 
L 149.131841 294.312795 
L 149.332295 294.312795 
L 149.341352 292.923433 
L 150.059777 292.923433 
L 150.059777 291.997192 
L 150.224095 291.997192 
L 150.224095 291.070951 
L 150.624038 291.070951 
L 150.632448 290.14471 
L 150.82478 290.14471 
L 150.866312 289.218469 
L 151.047887 289.218469 
L 151.1298 285.976625 
L 151.660987 285.976625 
L 151.660987 285.513505 
L 151.865879 285.513505 
L 151.967429 284.124143 
L 152.052897 284.124143 
L 152.052897 283.661023 
L 152.314453 283.661023 
L 152.329717 282.734782 
L 152.489189 282.734782 
L 152.579665 281.34542 
L 153.207444 281.34542 
L 153.287059 279.029818 
L 153.366312 279.029818 
L 153.459513 276.714215 
L 153.502361 276.714215 
L 153.609024 275.787974 
L 153.7432 275.787974 
L 153.7432 275.324854 
L 153.932113 275.324854 
L 153.93907 273.009251 
L 154.139643 273.009251 
L 154.173993 271.619889 
L 154.351528 271.619889 
L 154.426099 270.230528 
L 154.641235 270.230528 
L 154.641235 269.767407 
L 154.78099 269.767407 
L 154.78099 269.304287 
L 155.070227 269.304287 
L 155.070227 268.841166 
L 155.303359 268.841166 
L 155.30979 267.914925 
L 155.450689 267.914925 
L 155.450689 266.988684 
L 155.659924 266.988684 
L 155.659924 266.525564 
L 156.021696 266.525564 
L 156.021696 266.062443 
L 156.144725 266.062443 
L 156.144725 265.599323 
L 156.484659 265.599323 
L 156.556648 262.8206 
L 156.723476 262.8206 
L 156.788581 260.968117 
L 156.888722 260.968117 
L 156.988292 259.578756 
L 157.197287 259.578756 
L 157.197287 259.115635 
L 157.494815 259.115635 
L 157.494815 258.189394 
L 157.675417 258.189394 
L 157.73707 257.263153 
L 157.80408 257.263153 
L 157.80408 256.800033 
L 158.12438 256.800033 
L 158.12438 256.336912 
L 158.260646 256.336912 
L 158.260646 255.873792 
L 158.503274 255.873792 
L 158.503274 255.410671 
L 158.641936 255.410671 
L 158.641936 254.947551 
L 158.863624 254.947551 
L 158.863624 254.48443 
L 159.129083 254.48443 
L 159.129083 254.02131 
L 159.592935 254.02131 
L 159.592935 253.558189 
L 159.857512 253.558189 
L 159.857512 252.631948 
L 160.263949 252.631948 
L 160.355672 250.779466 
L 160.513841 250.779466 
L 160.513841 250.316346 
L 160.816565 250.316346 
L 160.816565 249.853225 
L 161.132553 249.853225 
L 161.132553 248.926984 
L 161.999419 248.926984 
L 162.091193 247.074502 
L 162.273306 247.074502 
L 162.273306 246.148261 
L 162.483394 246.148261 
L 162.521708 244.295779 
L 162.615012 244.295779 
L 162.615012 243.832658 
L 163.315579 243.832658 
L 163.315579 243.369538 
L 163.705322 243.369538 
L 163.705322 242.443297 
L 163.969529 242.443297 
L 163.969529 241.980176 
L 164.50142 241.980176 
L 164.50142 241.517056 
L 164.753922 241.517056 
L 164.753922 241.053935 
L 164.965896 241.053935 
L 165.069087 240.127694 
L 165.439918 240.127694 
L 165.439918 239.201453 
L 165.96434 239.201453 
L 165.96434 238.275212 
L 166.196659 238.275212 
L 166.196659 237.348971 
L 166.456493 237.348971 
L 166.503937 236.42273 
L 166.829163 236.42273 
L 166.829163 235.959609 
L 167.014197 235.959609 
L 167.014197 235.496489 
L 167.785687 235.496489 
L 167.785687 235.033368 
L 168.260276 235.033368 
L 168.260276 234.107127 
L 168.563628 234.107127 
L 168.563628 233.644007 
L 168.967898 233.644007 
L 168.967898 232.717766 
L 169.440395 232.717766 
L 169.440395 232.254645 
L 170.658064 232.254645 
L 170.658064 231.791525 
L 171.633072 231.791525 
L 171.633072 231.328404 
L 173.028377 231.328404 
L 173.028377 230.865284 
L 174.393615 230.865284 
L 174.455933 229.012802 
L 177.002059 229.012802 
L 177.002059 228.086561 
L 178.56822 228.086561 
L 178.56822 227.62344 
L 178.73349 227.62344 
L 178.73349 226.697199 
L 178.996692 226.697199 
L 178.996692 225.770958 
L 179.533929 225.770958 
L 179.533929 224.844717 
L 180.690668 224.844717 
L 180.690668 223.918476 
L 182.037091 223.918476 
L 182.037091 222.992235 
L 182.797981 222.992235 
L 182.797981 222.065994 
L 184.297772 222.065994 
L 184.297772 221.139753 
L 184.412073 221.139753 
L 184.412073 220.213512 
L 187.108485 220.213512 
L 187.108485 219.750391 
L 187.387635 219.750391 
L 187.387635 219.287271 
L 188.927093 219.287271 
L 188.927093 218.82415 
L 190.44139 218.82415 
L 190.44139 217.897909 
L 191.677938 217.897909 
L 191.677938 217.434789 
L 192.982993 217.434789 
L 192.982993 216.508548 
L 193.62352 216.508548 
L 193.62352 215.582307 
L 195.031607 215.582307 
L 195.031607 214.656066 
L 196.719259 214.656066 
L 196.719259 213.729825 
L 197.515269 213.729825 
L 197.515269 213.266704 
L 198.920697 213.266704 
L 198.920697 212.340463 
L 201.125126 212.340463 
L 201.125126 211.414222 
L 202.326639 211.414222 
L 202.326639 210.951101 
L 202.506634 210.951101 
L 202.506634 210.02486 
L 203.475883 210.02486 
L 203.475883 209.56174 
L 203.979153 209.56174 
L 204.02133 208.635499 
L 205.134257 208.635499 
L 205.134257 207.709258 
L 210.150302 207.709258 
L 210.150302 206.783017 
L 216.830419 206.783017 
L 216.830419 206.319896 
L 219.507738 206.319896 
L 219.507738 205.856776 
L 221.471613 205.856776 
L 221.471613 204.930535 
L 223.622709 204.930535 
L 223.622709 204.004294 
L 223.95688 204.004294 
L 223.95688 203.541173 
L 225.482599 203.541173 
L 225.482599 202.614932 
L 227.268171 202.614932 
L 227.268171 201.688691 
L 232.255216 201.688691 
L 232.255216 200.76245 
L 234.546441 200.76245 
L 234.546441 200.299329 
L 236.662154 200.299329 
L 236.662154 199.836209 
L 237.794946 199.836209 
L 237.794946 199.373088 
L 238.176693 199.373088 
L 238.176693 198.909968 
L 246.103311 198.909968 
L 246.103311 197.983727 
L 250.926118 197.983727 
L 250.933735 197.057486 
L 253.197371 197.057486 
L 253.197371 196.594365 
L 255.054881 196.594365 
L 255.054881 196.131245 
L 257.066462 196.131245 
L 257.066462 195.668124 
L 338.688 195.668124 
L 338.688 195.668124 
" style="fill:none;stroke:#ff7500;stroke-linecap:square;stroke-width:1.5;"/>
   </g>
   <g id="line2d_46">
    <defs>
     <path d="M 0 -6 
L -1.347084 -1.854102 
L -5.706339 -1.854102 
L -2.179628 0.708204 
L -3.526712 4.854102 
L -0 2.291796 
L 3.526712 4.854102 
L 2.179628 0.708204 
L 5.706339 -1.854102 
L 1.347084 -1.854102 
z
" id="me9b96cb555" style="stroke:#ff7500;stroke-linejoin:bevel;stroke-width:1.5;"/>
    </defs>
    <g>
     <use style="fill-opacity:0;stroke:#ff7500;stroke-linejoin:bevel;stroke-width:1.5;" x="173.028377" xlink:href="#me9b96cb555" y="231.328404"/>
     <use style="fill-opacity:0;stroke:#ff7500;stroke-linejoin:bevel;stroke-width:1.5;" x="225.482599" xlink:href="#me9b96cb555" y="202.614932"/>
     <use style="fill-opacity:0;stroke:#ff7500;stroke-linejoin:bevel;stroke-width:1.5;" x="257.066462" xlink:href="#me9b96cb555" y="196.131245"/>
     <use style="fill-opacity:0;stroke:#ff7500;stroke-linejoin:bevel;stroke-width:1.5;" x="257.066462" xlink:href="#me9b96cb555" y="195.668124"/>
     <use style="fill-opacity:0;stroke:#ff7500;stroke-linejoin:bevel;stroke-width:1.5;" x="338.688" xlink:href="#me9b96cb555" y="195.668124"/>
    </g>
   </g>
   <g id="line2d_47">
    <path style="fill:none;stroke:#ff7500;stroke-linecap:square;stroke-width:1.5;"/>
    <g/>
   </g>
   <g id="line2d_48">
    <path clip-path="url(#p70550b1d33)" d="M 258.377143 195.668124 
" style="fill:none;stroke:#ff7500;stroke-linecap:square;stroke-width:1.5;"/>
    <defs>
     <path d="M -12 12 
L 12 -12 
M -12 -12 
L 12 12 
" id="me9d4780199" style="stroke:#ff7500;"/>
    </defs>
    <g clip-path="url(#p70550b1d33)">
     <use style="fill:#ff7500;stroke:#ff7500;" x="258.377143" xlink:href="#me9d4780199" y="195.668124"/>
    </g>
   </g>
   <g id="line2d_49">
    <defs>
     <path d="M 0 1.5 
C 0.397805 1.5 0.77937 1.341951 1.06066 1.06066 
C 1.341951 0.77937 1.5 0.397805 1.5 0 
C 1.5 -0.397805 1.341951 -0.77937 1.06066 -1.06066 
C 0.77937 -1.341951 0.397805 -1.5 0 -1.5 
C -0.397805 -1.5 -0.77937 -1.341951 -1.06066 -1.06066 
C -1.341951 -0.77937 -1.5 -0.397805 -1.5 0 
C -1.5 0.397805 -1.341951 0.77937 -1.06066 1.06066 
C -0.77937 1.341951 -0.397805 1.5 0 1.5 
z
" id="m2d6ef9eda8" style="stroke:#6495ed;"/>
    </defs>
    <g>
     <use style="fill:#6495ed;stroke:#6495ed;" x="257.982935" xlink:href="#m2d6ef9eda8" y="229.012802"/>
     <use style="fill:#6495ed;stroke:#6495ed;" x="257.982935" xlink:href="#m2d6ef9eda8" y="229.012802"/>
    </g>
   </g>
   <g id="line2d_50">
    <path d="M 17.444571 298.944 
L 17.444571 292.460313 
L 121.310093 292.460313 
L 121.355214 291.534072 
L 121.53454 291.534072 
L 121.623516 290.607831 
L 125.183475 290.607831 
L 125.183475 290.14471 
L 132.517825 290.14471 
L 132.612604 289.218469 
L 132.70687 289.218469 
L 132.70687 288.755349 
L 134.321942 288.755349 
L 134.364738 287.365987 
L 134.745246 287.365987 
L 134.828688 285.976625 
L 134.891008 285.976625 
L 134.891008 285.513505 
L 135.421987 285.513505 
L 135.46217 284.587264 
L 136.112156 284.587264 
L 136.112156 284.124143 
L 136.266147 284.124143 
L 136.266147 283.661023 
L 136.701442 283.661023 
L 136.757427 282.734782 
L 136.831795 282.734782 
L 136.831795 282.271661 
L 136.997972 282.271661 
L 136.997972 281.808541 
L 137.289545 281.808541 
L 137.325651 280.419179 
L 138.01518 280.419179 
L 138.067109 279.029818 
L 138.136107 279.029818 
L 138.204833 278.103577 
L 138.27329 278.103577 
L 138.324456 276.714215 
L 138.426341 276.714215 
L 138.426341 276.251095 
L 138.645071 276.251095 
L 138.745106 275.324854 
L 139.172077 275.324854 
L 139.172077 274.861733 
L 139.636299 274.861733 
L 139.667863 273.935492 
L 140.026805 273.935492 
L 140.026805 273.472371 
L 140.454035 273.472371 
L 140.544239 272.54613 
L 141.307054 272.54613 
L 141.307054 272.08301 
L 141.492656 272.08301 
L 141.521035 270.693648 
L 141.871938 270.693648 
L 141.871938 269.767407 
L 142.405626 269.767407 
L 142.405626 269.304287 
L 142.553247 269.304287 
L 142.553247 268.841166 
L 143.183176 268.841166 
L 143.183176 267.914925 
L 143.388196 267.914925 
L 143.388196 267.451805 
L 144.124035 267.451805 
L 144.124035 266.988684 
L 144.282077 266.988684 
L 144.282077 266.525564 
L 144.688773 266.525564 
L 144.688773 265.599323 
L 145.699363 265.599323 
L 145.699363 265.136202 
L 146.237689 265.136202 
L 146.237689 264.673082 
L 146.506074 264.673082 
L 146.612281 263.28372 
L 147.13383 263.28372 
L 147.13383 262.357479 
L 147.48985 262.357479 
L 147.48985 261.894358 
L 148.306159 261.894358 
L 148.306159 261.431238 
L 148.516274 261.431238 
L 148.516274 260.968117 
L 151.61336 260.968117 
L 151.61336 260.041876 
L 152.579665 260.041876 
L 152.579665 259.578756 
L 152.936949 259.578756 
L 152.936949 259.115635 
L 154.554156 259.115635 
L 154.554156 258.652515 
L 155.990803 258.652515 
L 155.990803 258.189394 
L 156.788581 258.189394 
L 156.788581 257.726274 
L 157.613546 257.726274 
L 157.613546 257.263153 
L 157.876384 257.263153 
L 157.876384 256.336912 
L 160.196054 256.336912 
L 160.196054 255.873792 
L 161.433867 255.873792 
L 161.433867 255.410671 
L 164.723964 255.410671 
L 164.768882 254.02131 
L 165.615296 254.02131 
L 165.615296 253.558189 
L 168.118942 253.558189 
L 168.118942 253.095069 
L 169.454688 253.095069 
L 169.454688 252.631948 
L 182.10916 252.631948 
L 182.10916 252.168828 
L 184.25869 252.168828 
L 184.25869 251.705707 
L 184.710085 251.705707 
L 184.710085 250.779466 
L 187.102254 250.779466 
L 187.102254 249.853225 
L 189.71275 249.853225 
L 189.71275 248.926984 
L 190.219549 248.926984 
L 190.219549 248.463863 
L 193.62209 248.463863 
L 193.62209 248.000743 
L 194.138268 248.000743 
L 194.138268 247.537622 
L 195.100689 247.537622 
L 195.100689 246.611381 
L 195.410474 246.611381 
L 195.410474 246.148261 
L 196.015879 246.148261 
L 196.015879 245.68514 
L 196.891945 245.68514 
L 196.938101 244.758899 
L 199.109555 244.758899 
L 199.109555 244.295779 
L 200.927859 244.295779 
L 200.927859 243.832658 
L 202.717489 243.832658 
L 202.790732 242.443297 
L 205.896692 242.443297 
L 205.896692 241.517056 
L 206.885989 241.517056 
L 206.885989 241.053935 
L 212.420511 241.053935 
L 212.420511 240.590815 
L 214.251159 240.590815 
L 214.352037 239.201453 
L 218.030759 239.201453 
L 218.030759 238.738333 
L 220.614573 238.738333 
L 220.614573 237.812091 
L 224.43709 237.812091 
L 224.43709 236.88585 
L 227.449105 236.88585 
L 227.449105 235.959609 
L 227.801512 235.959609 
L 227.864929 234.570248 
L 237.397166 234.570248 
L 237.397166 233.644007 
L 242.502968 233.644007 
L 242.502968 232.717766 
L 242.998301 232.717766 
L 242.998301 232.254645 
L 248.018166 232.254645 
L 248.018166 231.791525 
L 249.720539 231.791525 
L 249.720539 230.865284 
L 251.316069 230.865284 
L 251.316069 230.402163 
L 257.737587 230.402163 
L 257.737587 229.475922 
L 257.982935 229.475922 
L 257.982935 229.012802 
L 338.688 229.012802 
L 338.688 229.012802 
" style="fill:none;stroke:#6495ed;stroke-linecap:square;stroke-width:1.5;"/>
   </g>
   <g id="line2d_51">
    <defs>
     <path d="M -0 6 
L 6 -6 
L -6 -6 
z
" id="m08ade4a039" style="stroke:#6495ed;stroke-linejoin:miter;stroke-width:1.5;"/>
    </defs>
    <g>
     <use style="fill-opacity:0;stroke:#6495ed;stroke-linejoin:miter;stroke-width:1.5;" x="160.196054" xlink:href="#m08ade4a039" y="256.336912"/>
     <use style="fill-opacity:0;stroke:#6495ed;stroke-linejoin:miter;stroke-width:1.5;" x="237.397166" xlink:href="#m08ade4a039" y="233.644007"/>
     <use style="fill-opacity:0;stroke:#6495ed;stroke-linejoin:miter;stroke-width:1.5;" x="257.982935" xlink:href="#m08ade4a039" y="229.012802"/>
     <use style="fill-opacity:0;stroke:#6495ed;stroke-linejoin:miter;stroke-width:1.5;" x="257.982935" xlink:href="#m08ade4a039" y="229.012802"/>
     <use style="fill-opacity:0;stroke:#6495ed;stroke-linejoin:miter;stroke-width:1.5;" x="338.688" xlink:href="#m08ade4a039" y="229.012802"/>
    </g>
   </g>
   <g id="line2d_52">
    <path style="fill:none;stroke:#6495ed;stroke-linecap:square;stroke-width:1.5;"/>
    <g/>
   </g>
   <g id="line2d_53">
    <path clip-path="url(#p70550b1d33)" d="M 258.378433 229.012802 
" style="fill:none;stroke:#6495ed;stroke-linecap:square;stroke-width:1.5;"/>
    <defs>
     <path d="M -12 12 
L 12 -12 
M -12 -12 
L 12 12 
" id="ma9d1403677" style="stroke:#6495ed;"/>
    </defs>
    <g clip-path="url(#p70550b1d33)">
     <use style="fill:#6495ed;stroke:#6495ed;" x="258.378433" xlink:href="#ma9d1403677" y="229.012802"/>
    </g>
   </g>
   <g id="line2d_54">
    <defs>
     <path d="M 0 1.5 
C 0.397805 1.5 0.77937 1.341951 1.06066 1.06066 
C 1.341951 0.77937 1.5 0.397805 1.5 0 
C 1.5 -0.397805 1.341951 -0.77937 1.06066 -1.06066 
C 0.77937 -1.341951 0.397805 -1.5 0 -1.5 
C -0.397805 -1.5 -0.77937 -1.341951 -1.06066 -1.06066 
C -1.341951 -0.77937 -1.5 -0.397805 -1.5 0 
C -1.5 0.397805 -1.341951 0.77937 -1.06066 1.06066 
C -0.77937 1.341951 -0.397805 1.5 0 1.5 
z
" id="m502c034f6d" style="stroke:#ff0000;"/>
    </defs>
    <g>
     <use style="fill:#ff0000;stroke:#ff0000;" x="300.683573" xlink:href="#m502c034f6d" y="142.872385"/>
     <use style="fill:#ff0000;stroke:#ff0000;" x="300.683573" xlink:href="#m502c034f6d" y="142.872385"/>
    </g>
   </g>
   <g id="line2d_55">
    <path d="M 17.444571 298.944 
L 17.444571 287.829108 
L 29.53256 287.829108 
L 29.53256 286.902867 
L 36.60358 286.902867 
L 36.60358 285.050384 
L 41.620548 285.050384 
L 41.620548 284.124143 
L 48.691568 284.124143 
L 48.691568 283.661023 
L 53.708537 283.661023 
L 53.708537 283.197902 
L 55.762588 283.197902 
L 55.762588 282.734782 
L 57.6 282.734782 
L 57.6 281.34542 
L 59.262141 281.34542 
L 59.262141 280.8823 
L 60.779557 280.8823 
L 60.779557 279.956059 
L 62.175444 279.956059 
L 62.175444 279.029818 
L 64.67102 279.029818 
L 64.67102 278.103577 
L 65.796525 278.103577 
L 65.796525 277.640456 
L 69.687988 277.640456 
L 69.687988 277.177336 
L 71.35013 277.177336 
L 71.35013 276.714215 
L 74.263433 276.714215 
L 74.263433 276.251095 
L 83.438118 276.251095 
L 83.438118 275.787974 
L 94.714831 275.787974 
L 94.714831 275.324854 
L 96.489848 275.324854 
L 96.489848 274.861733 
L 97.043522 274.861733 
L 97.043522 273.935492 
L 98.270913 273.935492 
L 98.270913 273.472371 
L 99.097574 273.472371 
L 99.097574 273.009251 
L 101.223245 273.009251 
L 101.223245 272.54613 
L 102.464508 272.54613 
L 102.464508 271.156769 
L 103.117741 271.156769 
L 103.117741 270.230528 
L 104.826449 270.230528 
L 104.826449 269.767407 
L 105.621863 269.767407 
L 105.621863 268.841166 
L 106.48859 268.841166 
L 106.48859 267.914925 
L 106.698704 267.914925 
L 106.802819 266.988684 
L 107.90885 266.988684 
L 107.90885 266.525564 
L 108.294265 266.525564 
L 108.294265 266.062443 
L 109.222105 266.062443 
L 109.222105 265.599323 
L 112.72987 265.599323 
L 112.72987 265.136202 
L 113.594805 265.136202 
L 113.594805 263.746841 
L 114.418861 263.746841 
L 114.418861 262.8206 
L 120.142369 262.8206 
L 120.142369 262.357479 
L 120.990934 262.357479 
L 120.990934 261.894358 
L 124.444412 261.894358 
L 124.444412 261.431238 
L 126.47328 261.431238 
L 126.47328 260.968117 
L 129.031467 260.968117 
L 129.031467 260.504997 
L 129.686407 260.504997 
L 129.686407 260.041876 
L 130.822389 260.041876 
L 130.822389 259.578756 
L 131.962617 259.578756 
L 131.962617 259.115635 
L 134.513701 259.115635 
L 134.513701 258.652515 
L 134.849486 258.652515 
L 134.849486 258.189394 
L 135.117629 258.189394 
L 135.117629 257.263153 
L 137.875944 257.263153 
L 137.875944 256.800033 
L 138.711825 256.800033 
L 138.711825 255.873792 
L 143.728793 255.873792 
L 143.728793 254.947551 
L 144.55823 254.947551 
L 144.55823 254.02131 
L 145.688202 254.02131 
L 145.688202 253.558189 
L 148.286932 253.558189 
L 148.286932 253.095069 
L 152.914832 253.095069 
L 152.914832 252.631948 
L 153.523746 252.631948 
L 153.523746 251.705707 
L 163.589711 251.705707 
L 163.589711 251.242587 
L 174.818933 251.242587 
L 174.818933 250.779466 
L 177.776137 250.779466 
L 177.776137 250.316346 
L 178.990077 250.316346 
L 178.990077 249.853225 
L 179.3421 249.853225 
L 179.3421 249.390104 
L 179.525911 249.390104 
L 179.525911 248.463863 
L 180.225431 248.463863 
L 180.266984 247.074502 
L 181.41793 247.074502 
L 181.41793 246.611381 
L 181.650924 246.611381 
L 181.7458 245.68514 
L 181.903253 245.68514 
L 181.903253 244.758899 
L 182.251039 244.758899 
L 182.344078 243.832658 
L 182.471879 243.832658 
L 182.471879 242.906417 
L 182.661841 242.906417 
L 182.704666 241.517056 
L 183.124623 241.517056 
L 183.124623 241.053935 
L 183.43629 241.053935 
L 183.43629 240.590815 
L 183.577985 240.590815 
L 183.577985 240.127694 
L 184.186401 240.127694 
L 184.186401 239.664574 
L 185.255491 239.664574 
L 185.255491 238.275212 
L 187.451895 238.275212 
L 187.451895 237.348971 
L 191.107812 237.348971 
L 191.107812 236.88585 
L 191.408193 236.88585 
L 191.408193 235.959609 
L 192.341132 235.959609 
L 192.341132 235.496489 
L 192.795152 235.496489 
L 192.795152 235.033368 
L 193.565535 235.033368 
L 193.565535 234.107127 
L 193.736073 234.107127 
L 193.736073 233.180886 
L 204.688707 233.180886 
L 204.688707 232.254645 
L 204.849759 232.254645 
L 204.849759 231.328404 
L 207.860747 231.328404 
L 207.954632 229.939043 
L 208.095454 229.939043 
L 208.095454 229.475922 
L 211.180838 229.475922 
L 211.180838 228.549681 
L 211.702796 228.549681 
L 211.702796 228.086561 
L 212.002556 228.086561 
L 212.002556 227.62344 
L 212.82084 227.62344 
L 212.82084 227.16032 
L 214.020809 227.16032 
L 214.020809 226.234079 
L 214.140883 226.234079 
L 214.140883 225.770958 
L 214.433491 225.770958 
L 214.433491 224.844717 
L 215.368821 224.844717 
L 215.368821 223.918476 
L 217.019026 223.918476 
L 217.019026 223.455355 
L 218.873302 223.455355 
L 218.873302 222.529114 
L 219.273547 222.529114 
L 219.273547 221.602873 
L 221.023277 221.602873 
L 221.023277 221.139753 
L 221.154954 221.139753 
L 221.154954 220.213512 
L 222.900548 220.213512 
L 222.983829 218.82415 
L 223.231967 218.82415 
L 223.231967 218.36103 
L 223.445244 218.36103 
L 223.486943 216.971668 
L 224.210332 216.971668 
L 224.210332 216.045427 
L 226.547356 216.045427 
L 226.547356 215.582307 
L 226.763904 215.582307 
L 226.763904 215.119186 
L 226.885403 215.119186 
L 226.934041 213.266704 
L 227.581036 213.266704 
L 227.581036 212.803583 
L 227.734631 212.803583 
L 227.734631 212.340463 
L 228.019037 212.340463 
L 228.019037 211.414222 
L 229.012872 211.414222 
L 229.012872 210.951101 
L 229.194147 210.951101 
L 229.194147 210.487981 
L 229.52042 210.487981 
L 229.52042 209.56174 
L 231.381226 209.56174 
L 231.41956 208.172378 
L 231.926999 208.172378 
L 231.926999 207.709258 
L 232.234536 207.709258 
L 232.234536 206.783017 
L 233.019168 206.783017 
L 233.019168 205.856776 
L 233.333942 205.856776 
L 233.333942 204.930535 
L 236.040977 204.930535 
L 236.145494 203.078053 
L 236.174173 203.078053 
L 236.174173 202.614932 
L 236.326379 202.614932 
L 236.326379 202.151812 
L 236.722686 202.151812 
L 236.826328 200.76245 
L 236.917423 200.76245 
L 236.917423 200.299329 
L 237.395133 200.299329 
L 237.395133 199.373088 
L 237.685955 199.373088 
L 237.685955 198.909968 
L 238.427957 198.909968 
L 238.427957 197.983727 
L 238.970685 197.983727 
L 238.970685 197.057486 
L 239.233492 197.057486 
L 239.233492 196.594365 
L 240.018902 196.594365 
L 240.018902 196.131245 
L 241.142281 196.131245 
L 241.142281 195.668124 
L 241.762096 195.668124 
L 241.762096 195.205004 
L 242.451452 195.205004 
L 242.495556 194.278763 
L 242.602572 194.278763 
L 242.602572 193.352522 
L 243.27594 193.352522 
L 243.27594 192.889401 
L 243.76009 192.889401 
L 243.76009 191.96316 
L 244.016458 191.96316 
L 244.016458 191.50004 
L 249.414012 191.50004 
L 249.414012 191.036919 
L 249.98682 191.036919 
L 249.98682 190.573799 
L 250.166996 190.573799 
L 250.166996 190.110678 
L 250.505624 190.110678 
L 250.505624 189.647558 
L 250.796856 189.647558 
L 250.894113 188.258196 
L 251.934192 188.258196 
L 252.028236 185.942593 
L 255.383299 185.942593 
L 255.383299 185.479473 
L 257.828832 185.479473 
L 257.828832 185.016352 
L 259.010611 185.016352 
L 259.060973 183.626991 
L 259.423754 183.626991 
L 259.423754 182.70075 
L 260.147389 182.70075 
L 260.147389 182.237629 
L 260.422744 182.237629 
L 260.422744 181.311388 
L 260.93855 181.311388 
L 260.93855 180.848268 
L 261.067024 180.848268 
L 261.067024 180.385147 
L 261.736686 180.385147 
L 261.736686 179.458906 
L 262.233147 179.458906 
L 262.233147 178.995786 
L 262.708739 178.995786 
L 262.708739 178.069545 
L 268.183462 178.069545 
L 268.183462 177.606424 
L 269.353665 177.606424 
L 269.353665 177.143304 
L 269.715326 177.143304 
L 269.715326 176.680183 
L 270.418646 176.680183 
L 270.418646 176.217062 
L 270.558781 176.217062 
L 270.592668 175.290821 
L 270.953606 175.290821 
L 270.953606 174.827701 
L 271.983433 174.827701 
L 271.983433 174.36458 
L 272.118281 174.36458 
L 272.118281 173.438339 
L 272.434946 173.438339 
L 272.434946 172.975219 
L 273.129346 172.975219 
L 273.166443 172.048978 
L 274.160342 172.048978 
L 274.160342 171.122737 
L 275.294657 171.122737 
L 275.294657 170.659616 
L 279.154083 170.659616 
L 279.154083 170.196496 
L 279.553622 170.196496 
L 279.553622 169.733375 
L 280.758967 169.733375 
L 280.758967 169.270255 
L 281.177046 169.270255 
L 281.190986 167.880893 
L 281.624433 167.880893 
L 281.702448 166.491532 
L 282.174193 166.491532 
L 282.174193 166.028411 
L 282.526649 166.028411 
L 282.526649 165.10217 
L 282.689189 165.10217 
L 282.689189 164.63905 
L 283.141641 164.63905 
L 283.141641 164.175929 
L 283.328484 164.175929 
L 283.328484 163.712808 
L 283.477399 163.712808 
L 283.477399 163.249688 
L 284.237992 163.249688 
L 284.237992 162.323447 
L 284.392852 162.323447 
L 284.392852 161.860326 
L 284.68612 161.860326 
L 284.68612 161.397206 
L 285.223766 161.397206 
L 285.223766 160.934085 
L 285.724438 160.934085 
L 285.828601 159.544724 
L 286.038506 159.544724 
L 286.038506 158.618483 
L 286.827828 158.618483 
L 286.827828 158.155362 
L 291.370657 158.155362 
L 291.370657 157.692242 
L 292.401731 157.692242 
L 292.401731 157.229121 
L 292.555937 157.229121 
L 292.555937 156.766001 
L 292.968084 156.766001 
L 293.016133 155.83976 
L 293.348732 155.83976 
L 293.348732 155.376639 
L 293.891915 155.376639 
L 293.903192 153.987278 
L 294.135219 153.987278 
L 294.135219 153.061037 
L 294.306867 153.061037 
L 294.306867 152.134795 
L 294.564708 152.134795 
L 294.666643 151.208554 
L 294.774634 151.208554 
L 294.774634 150.282313 
L 295.226531 150.282313 
L 295.294523 149.356072 
L 295.361418 149.356072 
L 295.361418 148.892952 
L 295.708937 148.892952 
L 295.816609 147.966711 
L 295.825514 147.966711 
L 295.825514 147.50359 
L 296.349254 147.50359 
L 296.405856 146.577349 
L 296.505942 146.577349 
L 296.505942 146.114229 
L 296.727632 146.114229 
L 296.727632 145.651108 
L 297.116497 145.651108 
L 297.212444 143.798626 
L 297.400266 143.798626 
L 297.400266 143.335506 
L 300.683573 143.335506 
L 300.683573 142.872385 
L 338.688 142.872385 
L 338.688 142.872385 
" style="fill:none;stroke:#ff0000;stroke-linecap:square;stroke-width:1.5;"/>
   </g>
   <g id="line2d_56">
    <defs>
     <path d="M 0 -6 
L -5.196152 -3 
L -5.196152 3 
L -0 6 
L 5.196152 3 
L 5.196152 -3 
z
" id="m212a4f3490" style="stroke:#ff0000;stroke-linejoin:miter;stroke-width:1.5;"/>
    </defs>
    <g>
     <use style="fill-opacity:0;stroke:#ff0000;stroke-linejoin:miter;stroke-width:1.5;" x="129.686407" xlink:href="#m212a4f3490" y="260.504997"/>
     <use style="fill-opacity:0;stroke:#ff0000;stroke-linejoin:miter;stroke-width:1.5;" x="187.451895" xlink:href="#m212a4f3490" y="238.275212"/>
     <use style="fill-opacity:0;stroke:#ff0000;stroke-linejoin:miter;stroke-width:1.5;" x="269.715326" xlink:href="#m212a4f3490" y="177.143304"/>
     <use style="fill-opacity:0;stroke:#ff0000;stroke-linejoin:miter;stroke-width:1.5;" x="300.683573" xlink:href="#m212a4f3490" y="142.872385"/>
     <use style="fill-opacity:0;stroke:#ff0000;stroke-linejoin:miter;stroke-width:1.5;" x="300.683573" xlink:href="#m212a4f3490" y="142.872385"/>
     <use style="fill-opacity:0;stroke:#ff0000;stroke-linejoin:miter;stroke-width:1.5;" x="338.688" xlink:href="#m212a4f3490" y="142.872385"/>
    </g>
   </g>
   <g id="line2d_57">
    <path style="fill:none;stroke:#ff0000;stroke-linecap:square;stroke-width:1.5;"/>
    <g/>
   </g>
   <g id="line2d_58">
    <path clip-path="url(#p70550b1d33)" d="M 301.237998 142.872385 
" style="fill:none;stroke:#ff0000;stroke-linecap:square;stroke-width:1.5;"/>
    <defs>
     <path d="M -12 12 
L 12 -12 
M -12 -12 
L 12 12 
" id="m992e31945b" style="stroke:#ff0000;"/>
    </defs>
    <g clip-path="url(#p70550b1d33)">
     <use style="fill:#ff0000;stroke:#ff0000;" x="301.237998" xlink:href="#m992e31945b" y="142.872385"/>
    </g>
   </g>
   <g id="line2d_59">
    <path d="M 338.688 278.566697 
L 369.60768 293.571802 
" style="fill:none;stroke:#000080;stroke-linecap:square;stroke-width:1.5;"/>
    <g>
     <use style="fill-opacity:0;stroke:#000080;stroke-width:1.5;" x="338.688" xlink:href="#m2121252540" y="278.566697"/>
     <use style="fill-opacity:0;stroke:#000080;stroke-width:1.5;" x="369.60768" xlink:href="#m2121252540" y="293.571802"/>
    </g>
   </g>
   <g id="line2d_60">
    <path d="M 338.688 229.012802 
L 369.60768 241.998701 
" style="fill:none;stroke:#6495ed;stroke-linecap:square;stroke-width:1.5;"/>
    <g>
     <use style="fill-opacity:0;stroke:#6495ed;stroke-linejoin:miter;stroke-width:1.5;" x="338.688" xlink:href="#m08ade4a039" y="229.012802"/>
     <use style="fill-opacity:0;stroke:#6495ed;stroke-linejoin:miter;stroke-width:1.5;" x="369.60768" xlink:href="#m08ade4a039" y="241.998701"/>
    </g>
   </g>
   <g id="line2d_61">
    <path d="M 338.688 221.139753 
L 369.60768 190.4256 
" style="fill:none;stroke:#ff00ff;stroke-linecap:square;stroke-width:1.5;"/>
    <g>
     <use style="fill-opacity:0;stroke:#ff00ff;stroke-linejoin:miter;stroke-width:1.5;" x="338.688" xlink:href="#mcd993eda3d" y="221.139753"/>
     <use style="fill-opacity:0;stroke:#ff00ff;stroke-linejoin:miter;stroke-width:1.5;" x="369.60768" xlink:href="#mcd993eda3d" y="190.4256"/>
    </g>
   </g>
   <g id="line2d_62">
    <path d="M 338.688 195.668124 
L 369.60768 138.852499 
" style="fill:none;stroke:#ff7500;stroke-linecap:square;stroke-width:1.5;"/>
    <g>
     <use style="fill-opacity:0;stroke:#ff7500;stroke-linejoin:bevel;stroke-width:1.5;" x="338.688" xlink:href="#me9b96cb555" y="195.668124"/>
     <use style="fill-opacity:0;stroke:#ff7500;stroke-linejoin:bevel;stroke-width:1.5;" x="369.60768" xlink:href="#me9b96cb555" y="138.852499"/>
    </g>
   </g>
   <g id="line2d_63">
    <path d="M 338.688 142.872385 
L 369.60768 87.279398 
" style="fill:none;stroke:#ff0000;stroke-linecap:square;stroke-width:1.5;"/>
    <g>
     <use style="fill-opacity:0;stroke:#ff0000;stroke-linejoin:miter;stroke-width:1.5;" x="338.688" xlink:href="#m212a4f3490" y="142.872385"/>
     <use style="fill-opacity:0;stroke:#ff0000;stroke-linejoin:miter;stroke-width:1.5;" x="369.60768" xlink:href="#m212a4f3490" y="87.279398"/>
    </g>
   </g>
   <g id="line2d_64">
    <path d="M 338.688 298.944 
L 338.688 30.334099 
" style="fill:none;stroke:#000000;stroke-linecap:square;stroke-width:1.5;"/>
   </g>
   <g id="patch_3">
    <path d="M 57.6 298.944 
L 57.6 27.648 
" style="fill:none;stroke:#000000;stroke-linecap:square;stroke-linejoin:miter;stroke-width:0.8;"/>
   </g>
   <g id="patch_4">
    <path d="M 338.688 298.944 
L 338.688 27.648 
" style="fill:none;stroke:#000000;stroke-linecap:square;stroke-linejoin:miter;stroke-width:0.8;"/>
   </g>
   <g id="patch_5">
    <path d="M 57.6 298.944 
L 338.688 298.944 
" style="fill:none;stroke:#000000;stroke-linecap:square;stroke-linejoin:miter;stroke-width:0.8;"/>
   </g>
   <g id="patch_6">
    <path d="M 57.6 27.648 
L 338.688 27.648 
" style="fill:none;stroke:#000000;stroke-linecap:square;stroke-linejoin:miter;stroke-width:0.8;"/>
   </g>
   <g id="text_13">
    <!-- MOLE -->
    <g transform="translate(375.22944 298.262739)scale(0.17 -0.17)">
     <defs>
      <path d="M 9.8125 72.90625 
L 24.515625 72.90625 
L 43.109375 23.296875 
L 61.8125 72.90625 
L 76.515625 72.90625 
L 76.515625 0 
L 66.890625 0 
L 66.890625 64.015625 
L 48.09375 14.015625 
L 38.1875 14.015625 
L 19.390625 64.015625 
L 19.390625 0 
L 9.8125 0 
z
" id="DejaVuSans-77"/>
      <path d="M 39.40625 66.21875 
Q 28.65625 66.21875 22.328125 58.203125 
Q 16.015625 50.203125 16.015625 36.375 
Q 16.015625 22.609375 22.328125 14.59375 
Q 28.65625 6.59375 39.40625 6.59375 
Q 50.140625 6.59375 56.421875 14.59375 
Q 62.703125 22.609375 62.703125 36.375 
Q 62.703125 50.203125 56.421875 58.203125 
Q 50.140625 66.21875 39.40625 66.21875 
z
M 39.40625 74.21875 
Q 54.734375 74.21875 63.90625 63.9375 
Q 73.09375 53.65625 73.09375 36.375 
Q 73.09375 19.140625 63.90625 8.859375 
Q 54.734375 -1.421875 39.40625 -1.421875 
Q 24.03125 -1.421875 14.8125 8.828125 
Q 5.609375 19.09375 5.609375 36.375 
Q 5.609375 53.65625 14.8125 63.9375 
Q 24.03125 74.21875 39.40625 74.21875 
z
" id="DejaVuSans-79"/>
      <path d="M 9.8125 72.90625 
L 19.671875 72.90625 
L 19.671875 8.296875 
L 55.171875 8.296875 
L 55.171875 0 
L 9.8125 0 
z
" id="DejaVuSans-76"/>
      <path d="M 9.8125 72.90625 
L 55.90625 72.90625 
L 55.90625 64.59375 
L 19.671875 64.59375 
L 19.671875 43.015625 
L 54.390625 43.015625 
L 54.390625 34.71875 
L 19.671875 34.71875 
L 19.671875 8.296875 
L 56.78125 8.296875 
L 56.78125 0 
L 9.8125 0 
z
" id="DejaVuSans-69"/>
     </defs>
     <use xlink:href="#DejaVuSans-77"/>
     <use x="86.279297" xlink:href="#DejaVuSans-79"/>
     <use x="164.990234" xlink:href="#DejaVuSans-76"/>
     <use x="220.703125" xlink:href="#DejaVuSans-69"/>
    </g>
   </g>
   <g id="text_14">
    <!-- NSGA-II-M -->
    <g transform="translate(375.22944 246.689638)scale(0.17 -0.17)">
     <defs>
      <path d="M 9.8125 72.90625 
L 23.09375 72.90625 
L 55.421875 11.921875 
L 55.421875 72.90625 
L 64.984375 72.90625 
L 64.984375 0 
L 51.703125 0 
L 19.390625 60.984375 
L 19.390625 0 
L 9.8125 0 
z
" id="DejaVuSans-78"/>
      <path d="M 53.515625 70.515625 
L 53.515625 60.890625 
Q 47.90625 63.578125 42.921875 64.890625 
Q 37.9375 66.21875 33.296875 66.21875 
Q 25.25 66.21875 20.875 63.09375 
Q 16.5 59.96875 16.5 54.203125 
Q 16.5 49.359375 19.40625 46.890625 
Q 22.3125 44.4375 30.421875 42.921875 
L 36.375 41.703125 
Q 47.40625 39.59375 52.65625 34.296875 
Q 57.90625 29 57.90625 20.125 
Q 57.90625 9.515625 50.796875 4.046875 
Q 43.703125 -1.421875 29.984375 -1.421875 
Q 24.8125 -1.421875 18.96875 -0.25 
Q 13.140625 0.921875 6.890625 3.21875 
L 6.890625 13.375 
Q 12.890625 10.015625 18.65625 8.296875 
Q 24.421875 6.59375 29.984375 6.59375 
Q 38.421875 6.59375 43.015625 9.90625 
Q 47.609375 13.234375 47.609375 19.390625 
Q 47.609375 24.75 44.3125 27.78125 
Q 41.015625 30.8125 33.5 32.328125 
L 27.484375 33.5 
Q 16.453125 35.6875 11.515625 40.375 
Q 6.59375 45.0625 6.59375 53.421875 
Q 6.59375 63.09375 13.40625 68.65625 
Q 20.21875 74.21875 32.171875 74.21875 
Q 37.3125 74.21875 42.625 73.28125 
Q 47.953125 72.359375 53.515625 70.515625 
z
" id="DejaVuSans-83"/>
      <path d="M 59.515625 10.40625 
L 59.515625 29.984375 
L 43.40625 29.984375 
L 43.40625 38.09375 
L 69.28125 38.09375 
L 69.28125 6.78125 
Q 63.578125 2.734375 56.6875 0.65625 
Q 49.8125 -1.421875 42 -1.421875 
Q 24.90625 -1.421875 15.25 8.5625 
Q 5.609375 18.5625 5.609375 36.375 
Q 5.609375 54.25 15.25 64.234375 
Q 24.90625 74.21875 42 74.21875 
Q 49.125 74.21875 55.546875 72.453125 
Q 61.96875 70.703125 67.390625 67.28125 
L 67.390625 56.78125 
Q 61.921875 61.421875 55.765625 63.765625 
Q 49.609375 66.109375 42.828125 66.109375 
Q 29.4375 66.109375 22.71875 58.640625 
Q 16.015625 51.171875 16.015625 36.375 
Q 16.015625 21.625 22.71875 14.15625 
Q 29.4375 6.6875 42.828125 6.6875 
Q 48.046875 6.6875 52.140625 7.59375 
Q 56.25 8.5 59.515625 10.40625 
z
" id="DejaVuSans-71"/>
      <path d="M 34.1875 63.1875 
L 20.796875 26.90625 
L 47.609375 26.90625 
z
M 28.609375 72.90625 
L 39.796875 72.90625 
L 67.578125 0 
L 57.328125 0 
L 50.6875 18.703125 
L 17.828125 18.703125 
L 11.1875 0 
L 0.78125 0 
z
" id="DejaVuSans-65"/>
      <path d="M 9.8125 72.90625 
L 19.671875 72.90625 
L 19.671875 0 
L 9.8125 0 
z
" id="DejaVuSans-73"/>
     </defs>
     <use xlink:href="#DejaVuSans-78"/>
     <use x="74.804688" xlink:href="#DejaVuSans-83"/>
     <use x="138.28125" xlink:href="#DejaVuSans-71"/>
     <use x="215.771484" xlink:href="#DejaVuSans-65"/>
     <use x="281.929688" xlink:href="#DejaVuSans-45"/>
     <use x="318.013672" xlink:href="#DejaVuSans-73"/>
     <use x="347.505859" xlink:href="#DejaVuSans-73"/>
     <use x="376.998047" xlink:href="#DejaVuSans-45"/>
     <use x="413.082031" xlink:href="#DejaVuSans-77"/>
    </g>
   </g>
   <g id="text_15">
    <!-- SMS-EMOA- -->
    <g transform="translate(375.22944 195.116537)scale(0.17 -0.17)">
     <use xlink:href="#DejaVuSans-83"/>
     <use x="63.476562" xlink:href="#DejaVuSans-77"/>
     <use x="149.755859" xlink:href="#DejaVuSans-83"/>
     <use x="213.232422" xlink:href="#DejaVuSans-45"/>
     <use x="249.316406" xlink:href="#DejaVuSans-69"/>
     <use x="312.5" xlink:href="#DejaVuSans-77"/>
     <use x="398.779297" xlink:href="#DejaVuSans-79"/>
     <use x="475.740234" xlink:href="#DejaVuSans-65"/>
     <use x="541.898438" xlink:href="#DejaVuSans-45"/>
    </g>
   </g>
   <g id="text_16">
    <!-- RM-MEDA A -->
    <g transform="translate(375.22944 143.543437)scale(0.17 -0.17)">
     <defs>
      <path d="M 44.390625 34.1875 
Q 47.5625 33.109375 50.5625 29.59375 
Q 53.5625 26.078125 56.59375 19.921875 
L 66.609375 0 
L 56 0 
L 46.6875 18.703125 
Q 43.0625 26.03125 39.671875 28.421875 
Q 36.28125 30.8125 30.421875 30.8125 
L 19.671875 30.8125 
L 19.671875 0 
L 9.8125 0 
L 9.8125 72.90625 
L 32.078125 72.90625 
Q 44.578125 72.90625 50.734375 67.671875 
Q 56.890625 62.453125 56.890625 51.90625 
Q 56.890625 45.015625 53.6875 40.46875 
Q 50.484375 35.9375 44.390625 34.1875 
z
M 19.671875 64.796875 
L 19.671875 38.921875 
L 32.078125 38.921875 
Q 39.203125 38.921875 42.84375 42.21875 
Q 46.484375 45.515625 46.484375 51.90625 
Q 46.484375 58.296875 42.84375 61.546875 
Q 39.203125 64.796875 32.078125 64.796875 
z
" id="DejaVuSans-82"/>
      <path d="M 19.671875 64.796875 
L 19.671875 8.109375 
L 31.59375 8.109375 
Q 46.6875 8.109375 53.6875 14.9375 
Q 60.6875 21.78125 60.6875 36.53125 
Q 60.6875 51.171875 53.6875 57.984375 
Q 46.6875 64.796875 31.59375 64.796875 
z
M 9.8125 72.90625 
L 30.078125 72.90625 
Q 51.265625 72.90625 61.171875 64.09375 
Q 71.09375 55.28125 71.09375 36.53125 
Q 71.09375 17.671875 61.125 8.828125 
Q 51.171875 0 30.078125 0 
L 9.8125 0 
z
" id="DejaVuSans-68"/>
     </defs>
     <use xlink:href="#DejaVuSans-82"/>
     <use x="69.482422" xlink:href="#DejaVuSans-77"/>
     <use x="155.761719" xlink:href="#DejaVuSans-45"/>
     <use x="191.845703" xlink:href="#DejaVuSans-77"/>
     <use x="278.125" xlink:href="#DejaVuSans-69"/>
     <use x="341.308594" xlink:href="#DejaVuSans-68"/>
     <use x="416.560547" xlink:href="#DejaVuSans-65"/>
     <use x="484.96875" xlink:href="#DejaVuSans-32"/>
     <use x="516.755859" xlink:href="#DejaVuSans-65"/>
    </g>
   </g>
   <g id="text_17">
    <!-- HMO-CMA-E -->
    <g transform="translate(375.22944 91.970336)scale(0.17 -0.17)">
     <defs>
      <path d="M 9.8125 72.90625 
L 19.671875 72.90625 
L 19.671875 43.015625 
L 55.515625 43.015625 
L 55.515625 72.90625 
L 65.375 72.90625 
L 65.375 0 
L 55.515625 0 
L 55.515625 34.71875 
L 19.671875 34.71875 
L 19.671875 0 
L 9.8125 0 
z
" id="DejaVuSans-72"/>
      <path d="M 64.40625 67.28125 
L 64.40625 56.890625 
Q 59.421875 61.53125 53.78125 63.8125 
Q 48.140625 66.109375 41.796875 66.109375 
Q 29.296875 66.109375 22.65625 58.46875 
Q 16.015625 50.828125 16.015625 36.375 
Q 16.015625 21.96875 22.65625 14.328125 
Q 29.296875 6.6875 41.796875 6.6875 
Q 48.140625 6.6875 53.78125 8.984375 
Q 59.421875 11.28125 64.40625 15.921875 
L 64.40625 5.609375 
Q 59.234375 2.09375 53.4375 0.328125 
Q 47.65625 -1.421875 41.21875 -1.421875 
Q 24.65625 -1.421875 15.125 8.703125 
Q 5.609375 18.84375 5.609375 36.375 
Q 5.609375 53.953125 15.125 64.078125 
Q 24.65625 74.21875 41.21875 74.21875 
Q 47.75 74.21875 53.53125 72.484375 
Q 59.328125 70.75 64.40625 67.28125 
z
" id="DejaVuSans-67"/>
     </defs>
     <use xlink:href="#DejaVuSans-72"/>
     <use x="75.195312" xlink:href="#DejaVuSans-77"/>
     <use x="161.474609" xlink:href="#DejaVuSans-79"/>
     <use x="242.935547" xlink:href="#DejaVuSans-45"/>
     <use x="279.019531" xlink:href="#DejaVuSans-67"/>
     <use x="348.84375" xlink:href="#DejaVuSans-77"/>
     <use x="435.123047" xlink:href="#DejaVuSans-65"/>
     <use x="501.28125" xlink:href="#DejaVuSans-45"/>
     <use x="537.365234" xlink:href="#DejaVuSans-69"/>
    </g>
   </g>
   <g id="text_18">
    <!-- best 2016 -->
    <g transform="translate(375.22944 40.397235)scale(0.17 -0.17)">
     <defs>
      <path d="M 48.6875 27.296875 
Q 48.6875 37.203125 44.609375 42.84375 
Q 40.53125 48.484375 33.40625 48.484375 
Q 26.265625 48.484375 22.1875 42.84375 
Q 18.109375 37.203125 18.109375 27.296875 
Q 18.109375 17.390625 22.1875 11.75 
Q 26.265625 6.109375 33.40625 6.109375 
Q 40.53125 6.109375 44.609375 11.75 
Q 48.6875 17.390625 48.6875 27.296875 
z
M 18.109375 46.390625 
Q 20.953125 51.265625 25.265625 53.625 
Q 29.59375 56 35.59375 56 
Q 45.5625 56 51.78125 48.09375 
Q 58.015625 40.1875 58.015625 27.296875 
Q 58.015625 14.40625 51.78125 6.484375 
Q 45.5625 -1.421875 35.59375 -1.421875 
Q 29.59375 -1.421875 25.265625 0.953125 
Q 20.953125 3.328125 18.109375 8.203125 
L 18.109375 0 
L 9.078125 0 
L 9.078125 75.984375 
L 18.109375 75.984375 
z
" id="DejaVuSans-98"/>
     </defs>
     <use xlink:href="#DejaVuSans-98"/>
     <use x="63.476562" xlink:href="#DejaVuSans-101"/>
     <use x="125" xlink:href="#DejaVuSans-115"/>
     <use x="177.099609" xlink:href="#DejaVuSans-116"/>
     <use x="216.308594" xlink:href="#DejaVuSans-32"/>
     <use x="248.095703" xlink:href="#DejaVuSans-50"/>
     <use x="311.71875" xlink:href="#DejaVuSans-48"/>
     <use x="375.341797" xlink:href="#DejaVuSans-49"/>
     <use x="438.964844" xlink:href="#DejaVuSans-54"/>
    </g>
   </g>
   <g id="text_19">
    <!-- bbob-biobj f51, 10-D -->
    <g transform="translate(60.41088 38.111366)scale(0.102 -0.102)">
     <defs>
      <path d="M 9.421875 54.6875 
L 18.40625 54.6875 
L 18.40625 -0.984375 
Q 18.40625 -11.421875 14.421875 -16.109375 
Q 10.453125 -20.796875 1.609375 -20.796875 
L -1.8125 -20.796875 
L -1.8125 -13.1875 
L 0.59375 -13.1875 
Q 5.71875 -13.1875 7.5625 -10.8125 
Q 9.421875 -8.453125 9.421875 -0.984375 
z
M 9.421875 75.984375 
L 18.40625 75.984375 
L 18.40625 64.59375 
L 9.421875 64.59375 
z
" id="DejaVuSans-106"/>
      <path d="M 10.796875 72.90625 
L 49.515625 72.90625 
L 49.515625 64.59375 
L 19.828125 64.59375 
L 19.828125 46.734375 
Q 21.96875 47.46875 24.109375 47.828125 
Q 26.265625 48.1875 28.421875 48.1875 
Q 40.625 48.1875 47.75 41.5 
Q 54.890625 34.8125 54.890625 23.390625 
Q 54.890625 11.625 47.5625 5.09375 
Q 40.234375 -1.421875 26.90625 -1.421875 
Q 22.3125 -1.421875 17.546875 -0.640625 
Q 12.796875 0.140625 7.71875 1.703125 
L 7.71875 11.625 
Q 12.109375 9.234375 16.796875 8.0625 
Q 21.484375 6.890625 26.703125 6.890625 
Q 35.15625 6.890625 40.078125 11.328125 
Q 45.015625 15.765625 45.015625 23.390625 
Q 45.015625 31 40.078125 35.4375 
Q 35.15625 39.890625 26.703125 39.890625 
Q 22.75 39.890625 18.8125 39.015625 
Q 14.890625 38.140625 10.796875 36.28125 
z
" id="DejaVuSans-53"/>
     </defs>
     <use xlink:href="#DejaVuSans-98"/>
     <use x="63.476562" xlink:href="#DejaVuSans-98"/>
     <use x="126.953125" xlink:href="#DejaVuSans-111"/>
     <use x="188.134766" xlink:href="#DejaVuSans-98"/>
     <use x="251.611328" xlink:href="#DejaVuSans-45"/>
     <use x="287.695312" xlink:href="#DejaVuSans-98"/>
     <use x="351.171875" xlink:href="#DejaVuSans-105"/>
     <use x="378.955078" xlink:href="#DejaVuSans-111"/>
     <use x="440.136719" xlink:href="#DejaVuSans-98"/>
     <use x="503.613281" xlink:href="#DejaVuSans-106"/>
     <use x="531.396484" xlink:href="#DejaVuSans-32"/>
     <use x="563.183594" xlink:href="#DejaVuSans-102"/>
     <use x="598.388672" xlink:href="#DejaVuSans-53"/>
     <use x="662.011719" xlink:href="#DejaVuSans-49"/>
     <use x="725.634766" xlink:href="#DejaVuSans-44"/>
     <use x="757.421875" xlink:href="#DejaVuSans-32"/>
     <use x="789.208984" xlink:href="#DejaVuSans-49"/>
     <use x="852.832031" xlink:href="#DejaVuSans-48"/>
     <use x="916.455078" xlink:href="#DejaVuSans-45"/>
     <use x="952.539062" xlink:href="#DejaVuSans-68"/>
    </g>
    <!-- 58 targets: 1..-1.0e-4 -->
    <g transform="translate(60.41088 49.533135)scale(0.102 -0.102)">
     <defs>
      <path d="M 11.71875 12.40625 
L 22.015625 12.40625 
L 22.015625 0 
L 11.71875 0 
z
M 11.71875 51.703125 
L 22.015625 51.703125 
L 22.015625 39.3125 
L 11.71875 39.3125 
z
" id="DejaVuSans-58"/>
     </defs>
     <use xlink:href="#DejaVuSans-53"/>
     <use x="63.623047" xlink:href="#DejaVuSans-56"/>
     <use x="127.246094" xlink:href="#DejaVuSans-32"/>
     <use x="159.033203" xlink:href="#DejaVuSans-116"/>
     <use x="198.242188" xlink:href="#DejaVuSans-97"/>
     <use x="259.521484" xlink:href="#DejaVuSans-114"/>
     <use x="298.884766" xlink:href="#DejaVuSans-103"/>
     <use x="362.361328" xlink:href="#DejaVuSans-101"/>
     <use x="423.884766" xlink:href="#DejaVuSans-116"/>
     <use x="463.09375" xlink:href="#DejaVuSans-115"/>
     <use x="515.193359" xlink:href="#DejaVuSans-58"/>
     <use x="548.884766" xlink:href="#DejaVuSans-32"/>
     <use x="580.671875" xlink:href="#DejaVuSans-49"/>
     <use x="644.294922" xlink:href="#DejaVuSans-46"/>
     <use x="676.082031" xlink:href="#DejaVuSans-46"/>
     <use x="707.869141" xlink:href="#DejaVuSans-45"/>
     <use x="743.953125" xlink:href="#DejaVuSans-49"/>
     <use x="807.576172" xlink:href="#DejaVuSans-46"/>
     <use x="839.363281" xlink:href="#DejaVuSans-48"/>
     <use x="902.986328" xlink:href="#DejaVuSans-101"/>
     <use x="964.509766" xlink:href="#DejaVuSans-45"/>
     <use x="1000.59375" xlink:href="#DejaVuSans-52"/>
    </g>
    <!-- 10 instances -->
    <g transform="translate(60.41088 60.954904)scale(0.102 -0.102)">
     <use xlink:href="#DejaVuSans-49"/>
     <use x="63.623047" xlink:href="#DejaVuSans-48"/>
     <use x="127.246094" xlink:href="#DejaVuSans-32"/>
     <use x="159.033203" xlink:href="#DejaVuSans-105"/>
     <use x="186.816406" xlink:href="#DejaVuSans-110"/>
     <use x="250.195312" xlink:href="#DejaVuSans-115"/>
     <use x="302.294922" xlink:href="#DejaVuSans-116"/>
     <use x="341.503906" xlink:href="#DejaVuSans-97"/>
     <use x="402.783203" xlink:href="#DejaVuSans-110"/>
     <use x="466.162109" xlink:href="#DejaVuSans-99"/>
     <use x="521.142578" xlink:href="#DejaVuSans-101"/>
     <use x="582.666016" xlink:href="#DejaVuSans-115"/>
    </g>
   </g>
   <g id="text_20">
    <!-- v2.4, hv-hash=ff0e71e8cd978373 -->
    <g style="fill:#808080;" transform="translate(112.648687 294.151352)scale(0.1 -0.1)">
     <defs>
      <path d="M 54.890625 33.015625 
L 54.890625 0 
L 45.90625 0 
L 45.90625 32.71875 
Q 45.90625 40.484375 42.875 44.328125 
Q 39.84375 48.1875 33.796875 48.1875 
Q 26.515625 48.1875 22.3125 43.546875 
Q 18.109375 38.921875 18.109375 30.90625 
L 18.109375 0 
L 9.078125 0 
L 9.078125 75.984375 
L 18.109375 75.984375 
L 18.109375 46.1875 
Q 21.34375 51.125 25.703125 53.5625 
Q 30.078125 56 35.796875 56 
Q 45.21875 56 50.046875 50.171875 
Q 54.890625 44.34375 54.890625 33.015625 
z
" id="DejaVuSans-104"/>
      <path d="M 10.59375 45.40625 
L 73.1875 45.40625 
L 73.1875 37.203125 
L 10.59375 37.203125 
z
M 10.59375 25.484375 
L 73.1875 25.484375 
L 73.1875 17.1875 
L 10.59375 17.1875 
z
" id="DejaVuSans-61"/>
      <path d="M 8.203125 72.90625 
L 55.078125 72.90625 
L 55.078125 68.703125 
L 28.609375 0 
L 18.3125 0 
L 43.21875 64.59375 
L 8.203125 64.59375 
z
" id="DejaVuSans-55"/>
      <path d="M 10.984375 1.515625 
L 10.984375 10.5 
Q 14.703125 8.734375 18.5 7.8125 
Q 22.3125 6.890625 25.984375 6.890625 
Q 35.75 6.890625 40.890625 13.453125 
Q 46.046875 20.015625 46.78125 33.40625 
Q 43.953125 29.203125 39.59375 26.953125 
Q 35.25 24.703125 29.984375 24.703125 
Q 19.046875 24.703125 12.671875 31.3125 
Q 6.296875 37.9375 6.296875 49.421875 
Q 6.296875 60.640625 12.9375 67.421875 
Q 19.578125 74.21875 30.609375 74.21875 
Q 43.265625 74.21875 49.921875 64.515625 
Q 56.59375 54.828125 56.59375 36.375 
Q 56.59375 19.140625 48.40625 8.859375 
Q 40.234375 -1.421875 26.421875 -1.421875 
Q 22.703125 -1.421875 18.890625 -0.6875 
Q 15.09375 0.046875 10.984375 1.515625 
z
M 30.609375 32.421875 
Q 37.25 32.421875 41.125 36.953125 
Q 45.015625 41.5 45.015625 49.421875 
Q 45.015625 57.28125 41.125 61.84375 
Q 37.25 66.40625 30.609375 66.40625 
Q 23.96875 66.40625 20.09375 61.84375 
Q 16.21875 57.28125 16.21875 49.421875 
Q 16.21875 41.5 20.09375 36.953125 
Q 23.96875 32.421875 30.609375 32.421875 
z
" id="DejaVuSans-57"/>
      <path d="M 40.578125 39.3125 
Q 47.65625 37.796875 51.625 33 
Q 55.609375 28.21875 55.609375 21.1875 
Q 55.609375 10.40625 48.1875 4.484375 
Q 40.765625 -1.421875 27.09375 -1.421875 
Q 22.515625 -1.421875 17.65625 -0.515625 
Q 12.796875 0.390625 7.625 2.203125 
L 7.625 11.71875 
Q 11.71875 9.328125 16.59375 8.109375 
Q 21.484375 6.890625 26.8125 6.890625 
Q 36.078125 6.890625 40.9375 10.546875 
Q 45.796875 14.203125 45.796875 21.1875 
Q 45.796875 27.640625 41.28125 31.265625 
Q 36.765625 34.90625 28.71875 34.90625 
L 20.21875 34.90625 
L 20.21875 43.015625 
L 29.109375 43.015625 
Q 36.375 43.015625 40.234375 45.921875 
Q 44.09375 48.828125 44.09375 54.296875 
Q 44.09375 59.90625 40.109375 62.90625 
Q 36.140625 65.921875 28.71875 65.921875 
Q 24.65625 65.921875 20.015625 65.03125 
Q 15.375 64.15625 9.8125 62.3125 
L 9.8125 71.09375 
Q 15.4375 72.65625 20.34375 73.4375 
Q 25.25 74.21875 29.59375 74.21875 
Q 40.828125 74.21875 47.359375 69.109375 
Q 53.90625 64.015625 53.90625 55.328125 
Q 53.90625 49.265625 50.4375 45.09375 
Q 46.96875 40.921875 40.578125 39.3125 
z
" id="DejaVuSans-51"/>
     </defs>
     <use xlink:href="#DejaVuSans-118"/>
     <use x="59.179688" xlink:href="#DejaVuSans-50"/>
     <use x="122.802734" xlink:href="#DejaVuSans-46"/>
     <use x="154.589844" xlink:href="#DejaVuSans-52"/>
     <use x="218.212891" xlink:href="#DejaVuSans-44"/>
     <use x="250" xlink:href="#DejaVuSans-32"/>
     <use x="281.787109" xlink:href="#DejaVuSans-104"/>
     <use x="345.166016" xlink:href="#DejaVuSans-118"/>
     <use x="401.720703" xlink:href="#DejaVuSans-45"/>
     <use x="437.804688" xlink:href="#DejaVuSans-104"/>
     <use x="501.183594" xlink:href="#DejaVuSans-97"/>
     <use x="562.462891" xlink:href="#DejaVuSans-115"/>
     <use x="614.5625" xlink:href="#DejaVuSans-104"/>
     <use x="677.941406" xlink:href="#DejaVuSans-61"/>
     <use x="761.730469" xlink:href="#DejaVuSans-102"/>
     <use x="796.935547" xlink:href="#DejaVuSans-102"/>
     <use x="832.140625" xlink:href="#DejaVuSans-48"/>
     <use x="895.763672" xlink:href="#DejaVuSans-101"/>
     <use x="957.287109" xlink:href="#DejaVuSans-55"/>
     <use x="1020.910156" xlink:href="#DejaVuSans-49"/>
     <use x="1084.533203" xlink:href="#DejaVuSans-101"/>
     <use x="1146.056641" xlink:href="#DejaVuSans-56"/>
     <use x="1209.679688" xlink:href="#DejaVuSans-99"/>
     <use x="1264.660156" xlink:href="#DejaVuSans-100"/>
     <use x="1328.136719" xlink:href="#DejaVuSans-57"/>
     <use x="1391.759766" xlink:href="#DejaVuSans-55"/>
     <use x="1455.382812" xlink:href="#DejaVuSans-56"/>
     <use x="1519.005859" xlink:href="#DejaVuSans-51"/>
     <use x="1582.628906" xlink:href="#DejaVuSans-55"/>
     <use x="1646.251953" xlink:href="#DejaVuSans-51"/>
    </g>
   </g>
   <g id="text_21">
    <!-- 51 Schaffer F7/Schwefel -->
    <g transform="translate(76.995562 21.648)scale(0.2 -0.2)">
     <defs>
      <path d="M 4.203125 54.6875 
L 13.1875 54.6875 
L 24.421875 12.015625 
L 35.59375 54.6875 
L 46.1875 54.6875 
L 57.421875 12.015625 
L 68.609375 54.6875 
L 77.59375 54.6875 
L 63.28125 0 
L 52.6875 0 
L 40.921875 44.828125 
L 29.109375 0 
L 18.5 0 
z
" id="DejaVuSans-119"/>
     </defs>
     <use xlink:href="#DejaVuSans-53"/>
     <use x="63.623047" xlink:href="#DejaVuSans-49"/>
     <use x="127.246094" xlink:href="#DejaVuSans-32"/>
     <use x="159.033203" xlink:href="#DejaVuSans-83"/>
     <use x="222.509766" xlink:href="#DejaVuSans-99"/>
     <use x="277.490234" xlink:href="#DejaVuSans-104"/>
     <use x="340.869141" xlink:href="#DejaVuSans-97"/>
     <use x="402.148438" xlink:href="#DejaVuSans-102"/>
     <use x="437.353516" xlink:href="#DejaVuSans-102"/>
     <use x="472.558594" xlink:href="#DejaVuSans-101"/>
     <use x="534.082031" xlink:href="#DejaVuSans-114"/>
     <use x="575.195312" xlink:href="#DejaVuSans-32"/>
     <use x="606.982422" xlink:href="#DejaVuSans-70"/>
     <use x="664.501953" xlink:href="#DejaVuSans-55"/>
     <use x="728.125" xlink:href="#DejaVuSans-47"/>
     <use x="761.816406" xlink:href="#DejaVuSans-83"/>
     <use x="825.292969" xlink:href="#DejaVuSans-99"/>
     <use x="880.273438" xlink:href="#DejaVuSans-104"/>
     <use x="943.652344" xlink:href="#DejaVuSans-119"/>
     <use x="1025.439453" xlink:href="#DejaVuSans-101"/>
     <use x="1086.962891" xlink:href="#DejaVuSans-102"/>
     <use x="1122.167969" xlink:href="#DejaVuSans-101"/>
     <use x="1183.691406" xlink:href="#DejaVuSans-108"/>
    </g>
   </g>
  </g>
 </g>
 <defs>
  <clipPath id="p70550b1d33">
   <rect height="271.296" width="281.088" x="57.6" y="27.648"/>
  </clipPath>
 </defs>
</svg>
