<?xml version="1.0" encoding="utf-8" standalone="no"?>
<!DOCTYPE svg PUBLIC "-//W3C//DTD SVG 1.1//EN"
  "http://www.w3.org/Graphics/SVG/1.1/DTD/svg11.dtd">
<!-- Created with matplotlib (https://matplotlib.org/) -->
<svg height="345.6pt" version="1.1" viewBox="0 0 460.8 345.6" width="460.8pt" xmlns="http://www.w3.org/2000/svg" xmlns:xlink="http://www.w3.org/1999/xlink">
 <metadata>
  <rdf:RDF xmlns:cc="http://creativecommons.org/ns#" xmlns:dc="http://purl.org/dc/elements/1.1/" xmlns:rdf="http://www.w3.org/1999/02/22-rdf-syntax-ns#">
   <cc:Work>
    <dc:type rdf:resource="http://purl.org/dc/dcmitype/StillImage"/>
    <dc:date>2021-03-30T18:29:17.317824</dc:date>
    <dc:format>image/svg+xml</dc:format>
    <dc:creator>
     <cc:Agent>
      <dc:title>Matplotlib v3.3.4, https://matplotlib.org/</dc:title>
     </cc:Agent>
    </dc:creator>
   </cc:Work>
  </rdf:RDF>
 </metadata>
 <defs>
  <style type="text/css">*{stroke-linecap:butt;stroke-linejoin:round;}</style>
 </defs>
 <g id="figure_1">
  <g id="patch_1">
   <path d="M 0 345.6 
L 460.8 345.6 
L 460.8 0 
L 0 0 
z
" style="fill:#ffffff;"/>
  </g>
  <g id="axes_1">
   <g id="patch_2">
    <path d="M 57.6 298.944 
L 338.688 298.944 
L 338.688 27.648 
L 57.6 27.648 
z
" style="fill:#ffffff;"/>
   </g>
   <g id="line2d_1">
    <path d="M 17.444571 298.944 
L 17.444571 294.312795 
L 48.691568 294.312795 
L 48.691568 285.050384 
L 94.714831 285.050384 
L 94.714831 275.787974 
L 123.152022 275.787974 
L 123.152022 271.156769 
L 159.683242 271.156769 
L 159.683242 257.263153 
L 178.187935 257.263153 
L 178.187935 248.000743 
L 197.469471 248.000743 
L 197.469471 243.369538 
L 210.917726 243.369538 
L 210.917726 234.107127 
L 222.066937 234.107127 
L 222.066937 220.213512 
L 231.596131 220.213512 
L 231.596131 210.951101 
L 246.009961 210.951101 
L 246.009961 201.688691 
L 259.17273 201.688691 
L 259.17273 192.426281 
L 273.659454 192.426281 
L 273.659454 187.795075 
L 286.286859 187.795075 
L 286.286859 173.90146 
L 302.246213 173.90146 
L 302.246213 169.270255 
L 308.144417 169.270255 
L 308.144417 155.376639 
L 319.555689 155.376639 
L 319.555689 146.114229 
L 338.688 146.114229 
" style="fill:none;stroke:#f5deb3;stroke-linecap:square;stroke-width:4;"/>
   </g>
   <g id="line2d_2">
    <defs>
     <path d="M -0 7.778175 
L 7.778175 0 
L 0 -7.778175 
L -7.778175 -0 
z
" id="me688ebc099" style="stroke:#f5deb3;stroke-linejoin:miter;stroke-width:1.5;"/>
    </defs>
    <g>
     <use style="fill:#f5deb3;stroke:#f5deb3;stroke-linejoin:miter;stroke-width:1.5;" x="123.152022" xlink:href="#me688ebc099" y="271.156769"/>
     <use style="fill:#f5deb3;stroke:#f5deb3;stroke-linejoin:miter;stroke-width:1.5;" x="222.066937" xlink:href="#me688ebc099" y="234.107127"/>
     <use style="fill:#f5deb3;stroke:#f5deb3;stroke-linejoin:miter;stroke-width:1.5;" x="286.286859" xlink:href="#me688ebc099" y="187.795075"/>
     <use style="fill:#f5deb3;stroke:#f5deb3;stroke-linejoin:miter;stroke-width:1.5;" x="319.555689" xlink:href="#me688ebc099" y="155.376639"/>
     <use style="fill:#f5deb3;stroke:#f5deb3;stroke-linejoin:miter;stroke-width:1.5;" x="319.555689" xlink:href="#me688ebc099" y="146.114229"/>
     <use style="fill:#f5deb3;stroke:#f5deb3;stroke-linejoin:miter;stroke-width:1.5;" x="338.688" xlink:href="#me688ebc099" y="146.114229"/>
    </g>
   </g>
   <g id="line2d_3">
    <path style="fill:none;stroke:#f5deb3;stroke-linecap:square;stroke-width:4;"/>
    <g/>
   </g>
   <g id="line2d_4">
    <path d="M 338.688 146.114229 
L 369.60768 35.706297 
" style="fill:none;stroke:#f5deb3;stroke-linecap:square;stroke-width:4;"/>
    <g>
     <use style="fill:#f5deb3;stroke:#f5deb3;stroke-linejoin:miter;stroke-width:1.5;" x="338.688" xlink:href="#me688ebc099" y="146.114229"/>
     <use style="fill:#f5deb3;stroke:#f5deb3;stroke-linejoin:miter;stroke-width:1.5;" x="369.60768" xlink:href="#me688ebc099" y="35.706297"/>
    </g>
   </g>
   <g id="matplotlib.axis_1">
    <g id="xtick_1">
     <g id="line2d_5">
      <path clip-path="url(#p52824b513c)" d="M 57.6 298.944 
L 57.6 27.648 
" style="fill:none;stroke:#b0b0b0;stroke-linecap:square;stroke-width:0.8;"/>
     </g>
     <g id="line2d_6">
      <defs>
       <path d="M 0 0 
L 0 3.5 
" id="mad0c823adb" style="stroke:#000000;stroke-width:0.8;"/>
      </defs>
      <g>
       <use style="stroke:#000000;stroke-width:0.8;" x="57.6" xlink:href="#mad0c823adb" y="298.944"/>
      </g>
     </g>
     <g id="text_1">
      <!-- 0 -->
      <g transform="translate(51.2375 321.140875)scale(0.2 -0.2)">
       <defs>
        <path d="M 31.78125 66.40625 
Q 24.171875 66.40625 20.328125 58.90625 
Q 16.5 51.421875 16.5 36.375 
Q 16.5 21.390625 20.328125 13.890625 
Q 24.171875 6.390625 31.78125 6.390625 
Q 39.453125 6.390625 43.28125 13.890625 
Q 47.125 21.390625 47.125 36.375 
Q 47.125 51.421875 43.28125 58.90625 
Q 39.453125 66.40625 31.78125 66.40625 
z
M 31.78125 74.21875 
Q 44.046875 74.21875 50.515625 64.515625 
Q 56.984375 54.828125 56.984375 36.375 
Q 56.984375 17.96875 50.515625 8.265625 
Q 44.046875 -1.421875 31.78125 -1.421875 
Q 19.53125 -1.421875 13.0625 8.265625 
Q 6.59375 17.96875 6.59375 36.375 
Q 6.59375 54.828125 13.0625 64.515625 
Q 19.53125 74.21875 31.78125 74.21875 
z
" id="DejaVuSans-48"/>
       </defs>
       <use xlink:href="#DejaVuSans-48"/>
      </g>
     </g>
    </g>
    <g id="xtick_2">
     <g id="line2d_7">
      <path clip-path="url(#p52824b513c)" d="M 137.910857 298.944 
L 137.910857 27.648 
" style="fill:none;stroke:#b0b0b0;stroke-linecap:square;stroke-width:0.8;"/>
     </g>
     <g id="line2d_8">
      <g>
       <use style="stroke:#000000;stroke-width:0.8;" x="137.910857" xlink:href="#mad0c823adb" y="298.944"/>
      </g>
     </g>
     <g id="text_2">
      <!-- 2 -->
      <g transform="translate(131.548357 321.140875)scale(0.2 -0.2)">
       <defs>
        <path d="M 19.1875 8.296875 
L 53.609375 8.296875 
L 53.609375 0 
L 7.328125 0 
L 7.328125 8.296875 
Q 12.9375 14.109375 22.625 23.890625 
Q 32.328125 33.6875 34.8125 36.53125 
Q 39.546875 41.84375 41.421875 45.53125 
Q 43.3125 49.21875 43.3125 52.78125 
Q 43.3125 58.59375 39.234375 62.25 
Q 35.15625 65.921875 28.609375 65.921875 
Q 23.96875 65.921875 18.8125 64.3125 
Q 13.671875 62.703125 7.8125 59.421875 
L 7.8125 69.390625 
Q 13.765625 71.78125 18.9375 73 
Q 24.125 74.21875 28.421875 74.21875 
Q 39.75 74.21875 46.484375 68.546875 
Q 53.21875 62.890625 53.21875 53.421875 
Q 53.21875 48.921875 51.53125 44.890625 
Q 49.859375 40.875 45.40625 35.40625 
Q 44.1875 33.984375 37.640625 27.21875 
Q 31.109375 20.453125 19.1875 8.296875 
z
" id="DejaVuSans-50"/>
       </defs>
       <use xlink:href="#DejaVuSans-50"/>
      </g>
     </g>
    </g>
    <g id="xtick_3">
     <g id="line2d_9">
      <path clip-path="url(#p52824b513c)" d="M 218.221714 298.944 
L 218.221714 27.648 
" style="fill:none;stroke:#b0b0b0;stroke-linecap:square;stroke-width:0.8;"/>
     </g>
     <g id="line2d_10">
      <g>
       <use style="stroke:#000000;stroke-width:0.8;" x="218.221714" xlink:href="#mad0c823adb" y="298.944"/>
      </g>
     </g>
     <g id="text_3">
      <!-- 4 -->
      <g transform="translate(211.859214 321.140875)scale(0.2 -0.2)">
       <defs>
        <path d="M 37.796875 64.3125 
L 12.890625 25.390625 
L 37.796875 25.390625 
z
M 35.203125 72.90625 
L 47.609375 72.90625 
L 47.609375 25.390625 
L 58.015625 25.390625 
L 58.015625 17.1875 
L 47.609375 17.1875 
L 47.609375 0 
L 37.796875 0 
L 37.796875 17.1875 
L 4.890625 17.1875 
L 4.890625 26.703125 
z
" id="DejaVuSans-52"/>
       </defs>
       <use xlink:href="#DejaVuSans-52"/>
      </g>
     </g>
    </g>
    <g id="xtick_4">
     <g id="line2d_11">
      <path clip-path="url(#p52824b513c)" d="M 298.532571 298.944 
L 298.532571 27.648 
" style="fill:none;stroke:#b0b0b0;stroke-linecap:square;stroke-width:0.8;"/>
     </g>
     <g id="line2d_12">
      <g>
       <use style="stroke:#000000;stroke-width:0.8;" x="298.532571" xlink:href="#mad0c823adb" y="298.944"/>
      </g>
     </g>
     <g id="text_4">
      <!-- 6 -->
      <g transform="translate(292.170071 321.140875)scale(0.2 -0.2)">
       <defs>
        <path d="M 33.015625 40.375 
Q 26.375 40.375 22.484375 35.828125 
Q 18.609375 31.296875 18.609375 23.390625 
Q 18.609375 15.53125 22.484375 10.953125 
Q 26.375 6.390625 33.015625 6.390625 
Q 39.65625 6.390625 43.53125 10.953125 
Q 47.40625 15.53125 47.40625 23.390625 
Q 47.40625 31.296875 43.53125 35.828125 
Q 39.65625 40.375 33.015625 40.375 
z
M 52.59375 71.296875 
L 52.59375 62.3125 
Q 48.875 64.0625 45.09375 64.984375 
Q 41.3125 65.921875 37.59375 65.921875 
Q 27.828125 65.921875 22.671875 59.328125 
Q 17.53125 52.734375 16.796875 39.40625 
Q 19.671875 43.65625 24.015625 45.921875 
Q 28.375 48.1875 33.59375 48.1875 
Q 44.578125 48.1875 50.953125 41.515625 
Q 57.328125 34.859375 57.328125 23.390625 
Q 57.328125 12.15625 50.6875 5.359375 
Q 44.046875 -1.421875 33.015625 -1.421875 
Q 20.359375 -1.421875 13.671875 8.265625 
Q 6.984375 17.96875 6.984375 36.375 
Q 6.984375 53.65625 15.1875 63.9375 
Q 23.390625 74.21875 37.203125 74.21875 
Q 40.921875 74.21875 44.703125 73.484375 
Q 48.484375 72.75 52.59375 71.296875 
z
" id="DejaVuSans-54"/>
       </defs>
       <use xlink:href="#DejaVuSans-54"/>
      </g>
     </g>
    </g>
    <g id="xtick_5">
     <g id="line2d_13">
      <path clip-path="url(#p52824b513c)" d="M 97.755429 298.944 
L 97.755429 27.648 
" style="fill:none;stroke:#b0b0b0;stroke-linecap:square;stroke-width:0.8;"/>
     </g>
     <g id="line2d_14">
      <defs>
       <path d="M 0 0 
L 0 2 
" id="mc83d5b150c" style="stroke:#000000;stroke-width:0.6;"/>
      </defs>
      <g>
       <use style="stroke:#000000;stroke-width:0.6;" x="97.755429" xlink:href="#mc83d5b150c" y="298.944"/>
      </g>
     </g>
    </g>
    <g id="xtick_6">
     <g id="line2d_15">
      <path clip-path="url(#p52824b513c)" d="M 178.066286 298.944 
L 178.066286 27.648 
" style="fill:none;stroke:#b0b0b0;stroke-linecap:square;stroke-width:0.8;"/>
     </g>
     <g id="line2d_16">
      <g>
       <use style="stroke:#000000;stroke-width:0.6;" x="178.066286" xlink:href="#mc83d5b150c" y="298.944"/>
      </g>
     </g>
    </g>
    <g id="xtick_7">
     <g id="line2d_17">
      <path clip-path="url(#p52824b513c)" d="M 258.377143 298.944 
L 258.377143 27.648 
" style="fill:none;stroke:#b0b0b0;stroke-linecap:square;stroke-width:0.8;"/>
     </g>
     <g id="line2d_18">
      <g>
       <use style="stroke:#000000;stroke-width:0.6;" x="258.377143" xlink:href="#mc83d5b150c" y="298.944"/>
      </g>
     </g>
    </g>
    <g id="xtick_8">
     <g id="line2d_19">
      <path clip-path="url(#p52824b513c)" d="M 338.688 298.944 
L 338.688 27.648 
" style="fill:none;stroke:#b0b0b0;stroke-linecap:square;stroke-width:0.8;"/>
     </g>
     <g id="line2d_20">
      <g>
       <use style="stroke:#000000;stroke-width:0.6;" x="338.688" xlink:href="#mc83d5b150c" y="298.944"/>
      </g>
     </g>
    </g>
    <g id="text_5">
     <!-- log10(# f-evals / dimension) -->
     <g transform="translate(77.764078 342.217594)scale(0.17 -0.17)">
      <defs>
       <path d="M 9.421875 75.984375 
L 18.40625 75.984375 
L 18.40625 0 
L 9.421875 0 
z
" id="DejaVuSans-108"/>
       <path d="M 30.609375 48.390625 
Q 23.390625 48.390625 19.1875 42.75 
Q 14.984375 37.109375 14.984375 27.296875 
Q 14.984375 17.484375 19.15625 11.84375 
Q 23.34375 6.203125 30.609375 6.203125 
Q 37.796875 6.203125 41.984375 11.859375 
Q 46.1875 17.53125 46.1875 27.296875 
Q 46.1875 37.015625 41.984375 42.703125 
Q 37.796875 48.390625 30.609375 48.390625 
z
M 30.609375 56 
Q 42.328125 56 49.015625 48.375 
Q 55.71875 40.765625 55.71875 27.296875 
Q 55.71875 13.875 49.015625 6.21875 
Q 42.328125 -1.421875 30.609375 -1.421875 
Q 18.84375 -1.421875 12.171875 6.21875 
Q 5.515625 13.875 5.515625 27.296875 
Q 5.515625 40.765625 12.171875 48.375 
Q 18.84375 56 30.609375 56 
z
" id="DejaVuSans-111"/>
       <path d="M 45.40625 27.984375 
Q 45.40625 37.75 41.375 43.109375 
Q 37.359375 48.484375 30.078125 48.484375 
Q 22.859375 48.484375 18.828125 43.109375 
Q 14.796875 37.75 14.796875 27.984375 
Q 14.796875 18.265625 18.828125 12.890625 
Q 22.859375 7.515625 30.078125 7.515625 
Q 37.359375 7.515625 41.375 12.890625 
Q 45.40625 18.265625 45.40625 27.984375 
z
M 54.390625 6.78125 
Q 54.390625 -7.171875 48.1875 -13.984375 
Q 42 -20.796875 29.203125 -20.796875 
Q 24.46875 -20.796875 20.265625 -20.09375 
Q 16.0625 -19.390625 12.109375 -17.921875 
L 12.109375 -9.1875 
Q 16.0625 -11.328125 19.921875 -12.34375 
Q 23.78125 -13.375 27.78125 -13.375 
Q 36.625 -13.375 41.015625 -8.765625 
Q 45.40625 -4.15625 45.40625 5.171875 
L 45.40625 9.625 
Q 42.625 4.78125 38.28125 2.390625 
Q 33.9375 0 27.875 0 
Q 17.828125 0 11.671875 7.65625 
Q 5.515625 15.328125 5.515625 27.984375 
Q 5.515625 40.671875 11.671875 48.328125 
Q 17.828125 56 27.875 56 
Q 33.9375 56 38.28125 53.609375 
Q 42.625 51.21875 45.40625 46.390625 
L 45.40625 54.6875 
L 54.390625 54.6875 
z
" id="DejaVuSans-103"/>
       <path d="M 12.40625 8.296875 
L 28.515625 8.296875 
L 28.515625 63.921875 
L 10.984375 60.40625 
L 10.984375 69.390625 
L 28.421875 72.90625 
L 38.28125 72.90625 
L 38.28125 8.296875 
L 54.390625 8.296875 
L 54.390625 0 
L 12.40625 0 
z
" id="DejaVuSans-49"/>
       <path d="M 31 75.875 
Q 24.46875 64.65625 21.28125 53.65625 
Q 18.109375 42.671875 18.109375 31.390625 
Q 18.109375 20.125 21.3125 9.0625 
Q 24.515625 -2 31 -13.1875 
L 23.1875 -13.1875 
Q 15.875 -1.703125 12.234375 9.375 
Q 8.59375 20.453125 8.59375 31.390625 
Q 8.59375 42.28125 12.203125 53.3125 
Q 15.828125 64.359375 23.1875 75.875 
z
" id="DejaVuSans-40"/>
       <path d="M 51.125 44 
L 36.921875 44 
L 32.8125 27.6875 
L 47.125 27.6875 
z
M 43.796875 71.78125 
L 38.71875 51.515625 
L 52.984375 51.515625 
L 58.109375 71.78125 
L 65.921875 71.78125 
L 60.890625 51.515625 
L 76.125 51.515625 
L 76.125 44 
L 58.984375 44 
L 54.984375 27.6875 
L 70.515625 27.6875 
L 70.515625 20.21875 
L 53.078125 20.21875 
L 48 0 
L 40.1875 0 
L 45.21875 20.21875 
L 30.90625 20.21875 
L 25.875 0 
L 18.015625 0 
L 23.09375 20.21875 
L 7.71875 20.21875 
L 7.71875 27.6875 
L 24.90625 27.6875 
L 29 44 
L 13.28125 44 
L 13.28125 51.515625 
L 30.90625 51.515625 
L 35.890625 71.78125 
z
" id="DejaVuSans-35"/>
       <path id="DejaVuSans-32"/>
       <path d="M 37.109375 75.984375 
L 37.109375 68.5 
L 28.515625 68.5 
Q 23.6875 68.5 21.796875 66.546875 
Q 19.921875 64.59375 19.921875 59.515625 
L 19.921875 54.6875 
L 34.71875 54.6875 
L 34.71875 47.703125 
L 19.921875 47.703125 
L 19.921875 0 
L 10.890625 0 
L 10.890625 47.703125 
L 2.296875 47.703125 
L 2.296875 54.6875 
L 10.890625 54.6875 
L 10.890625 58.5 
Q 10.890625 67.625 15.140625 71.796875 
Q 19.390625 75.984375 28.609375 75.984375 
z
" id="DejaVuSans-102"/>
       <path d="M 4.890625 31.390625 
L 31.203125 31.390625 
L 31.203125 23.390625 
L 4.890625 23.390625 
z
" id="DejaVuSans-45"/>
       <path d="M 56.203125 29.59375 
L 56.203125 25.203125 
L 14.890625 25.203125 
Q 15.484375 15.921875 20.484375 11.0625 
Q 25.484375 6.203125 34.421875 6.203125 
Q 39.59375 6.203125 44.453125 7.46875 
Q 49.3125 8.734375 54.109375 11.28125 
L 54.109375 2.78125 
Q 49.265625 0.734375 44.1875 -0.34375 
Q 39.109375 -1.421875 33.890625 -1.421875 
Q 20.796875 -1.421875 13.15625 6.1875 
Q 5.515625 13.8125 5.515625 26.8125 
Q 5.515625 40.234375 12.765625 48.109375 
Q 20.015625 56 32.328125 56 
Q 43.359375 56 49.78125 48.890625 
Q 56.203125 41.796875 56.203125 29.59375 
z
M 47.21875 32.234375 
Q 47.125 39.59375 43.09375 43.984375 
Q 39.0625 48.390625 32.421875 48.390625 
Q 24.90625 48.390625 20.390625 44.140625 
Q 15.875 39.890625 15.1875 32.171875 
z
" id="DejaVuSans-101"/>
       <path d="M 2.984375 54.6875 
L 12.5 54.6875 
L 29.59375 8.796875 
L 46.6875 54.6875 
L 56.203125 54.6875 
L 35.6875 0 
L 23.484375 0 
z
" id="DejaVuSans-118"/>
       <path d="M 34.28125 27.484375 
Q 23.390625 27.484375 19.1875 25 
Q 14.984375 22.515625 14.984375 16.5 
Q 14.984375 11.71875 18.140625 8.90625 
Q 21.296875 6.109375 26.703125 6.109375 
Q 34.1875 6.109375 38.703125 11.40625 
Q 43.21875 16.703125 43.21875 25.484375 
L 43.21875 27.484375 
z
M 52.203125 31.203125 
L 52.203125 0 
L 43.21875 0 
L 43.21875 8.296875 
Q 40.140625 3.328125 35.546875 0.953125 
Q 30.953125 -1.421875 24.3125 -1.421875 
Q 15.921875 -1.421875 10.953125 3.296875 
Q 6 8.015625 6 15.921875 
Q 6 25.140625 12.171875 29.828125 
Q 18.359375 34.515625 30.609375 34.515625 
L 43.21875 34.515625 
L 43.21875 35.40625 
Q 43.21875 41.609375 39.140625 45 
Q 35.0625 48.390625 27.6875 48.390625 
Q 23 48.390625 18.546875 47.265625 
Q 14.109375 46.140625 10.015625 43.890625 
L 10.015625 52.203125 
Q 14.9375 54.109375 19.578125 55.046875 
Q 24.21875 56 28.609375 56 
Q 40.484375 56 46.34375 49.84375 
Q 52.203125 43.703125 52.203125 31.203125 
z
" id="DejaVuSans-97"/>
       <path d="M 44.28125 53.078125 
L 44.28125 44.578125 
Q 40.484375 46.53125 36.375 47.5 
Q 32.28125 48.484375 27.875 48.484375 
Q 21.1875 48.484375 17.84375 46.4375 
Q 14.5 44.390625 14.5 40.28125 
Q 14.5 37.15625 16.890625 35.375 
Q 19.28125 33.59375 26.515625 31.984375 
L 29.59375 31.296875 
Q 39.15625 29.25 43.1875 25.515625 
Q 47.21875 21.78125 47.21875 15.09375 
Q 47.21875 7.46875 41.1875 3.015625 
Q 35.15625 -1.421875 24.609375 -1.421875 
Q 20.21875 -1.421875 15.453125 -0.5625 
Q 10.6875 0.296875 5.421875 2 
L 5.421875 11.28125 
Q 10.40625 8.6875 15.234375 7.390625 
Q 20.0625 6.109375 24.8125 6.109375 
Q 31.15625 6.109375 34.5625 8.28125 
Q 37.984375 10.453125 37.984375 14.40625 
Q 37.984375 18.0625 35.515625 20.015625 
Q 33.0625 21.96875 24.703125 23.78125 
L 21.578125 24.515625 
Q 13.234375 26.265625 9.515625 29.90625 
Q 5.8125 33.546875 5.8125 39.890625 
Q 5.8125 47.609375 11.28125 51.796875 
Q 16.75 56 26.8125 56 
Q 31.78125 56 36.171875 55.265625 
Q 40.578125 54.546875 44.28125 53.078125 
z
" id="DejaVuSans-115"/>
       <path d="M 25.390625 72.90625 
L 33.6875 72.90625 
L 8.296875 -9.28125 
L 0 -9.28125 
z
" id="DejaVuSans-47"/>
       <path d="M 45.40625 46.390625 
L 45.40625 75.984375 
L 54.390625 75.984375 
L 54.390625 0 
L 45.40625 0 
L 45.40625 8.203125 
Q 42.578125 3.328125 38.25 0.953125 
Q 33.9375 -1.421875 27.875 -1.421875 
Q 17.96875 -1.421875 11.734375 6.484375 
Q 5.515625 14.40625 5.515625 27.296875 
Q 5.515625 40.1875 11.734375 48.09375 
Q 17.96875 56 27.875 56 
Q 33.9375 56 38.25 53.625 
Q 42.578125 51.265625 45.40625 46.390625 
z
M 14.796875 27.296875 
Q 14.796875 17.390625 18.875 11.75 
Q 22.953125 6.109375 30.078125 6.109375 
Q 37.203125 6.109375 41.296875 11.75 
Q 45.40625 17.390625 45.40625 27.296875 
Q 45.40625 37.203125 41.296875 42.84375 
Q 37.203125 48.484375 30.078125 48.484375 
Q 22.953125 48.484375 18.875 42.84375 
Q 14.796875 37.203125 14.796875 27.296875 
z
" id="DejaVuSans-100"/>
       <path d="M 9.421875 54.6875 
L 18.40625 54.6875 
L 18.40625 0 
L 9.421875 0 
z
M 9.421875 75.984375 
L 18.40625 75.984375 
L 18.40625 64.59375 
L 9.421875 64.59375 
z
" id="DejaVuSans-105"/>
       <path d="M 52 44.1875 
Q 55.375 50.25 60.0625 53.125 
Q 64.75 56 71.09375 56 
Q 79.640625 56 84.28125 50.015625 
Q 88.921875 44.046875 88.921875 33.015625 
L 88.921875 0 
L 79.890625 0 
L 79.890625 32.71875 
Q 79.890625 40.578125 77.09375 44.375 
Q 74.3125 48.1875 68.609375 48.1875 
Q 61.625 48.1875 57.5625 43.546875 
Q 53.515625 38.921875 53.515625 30.90625 
L 53.515625 0 
L 44.484375 0 
L 44.484375 32.71875 
Q 44.484375 40.625 41.703125 44.40625 
Q 38.921875 48.1875 33.109375 48.1875 
Q 26.21875 48.1875 22.15625 43.53125 
Q 18.109375 38.875 18.109375 30.90625 
L 18.109375 0 
L 9.078125 0 
L 9.078125 54.6875 
L 18.109375 54.6875 
L 18.109375 46.1875 
Q 21.1875 51.21875 25.484375 53.609375 
Q 29.78125 56 35.6875 56 
Q 41.65625 56 45.828125 52.96875 
Q 50 49.953125 52 44.1875 
z
" id="DejaVuSans-109"/>
       <path d="M 54.890625 33.015625 
L 54.890625 0 
L 45.90625 0 
L 45.90625 32.71875 
Q 45.90625 40.484375 42.875 44.328125 
Q 39.84375 48.1875 33.796875 48.1875 
Q 26.515625 48.1875 22.3125 43.546875 
Q 18.109375 38.921875 18.109375 30.90625 
L 18.109375 0 
L 9.078125 0 
L 9.078125 54.6875 
L 18.109375 54.6875 
L 18.109375 46.1875 
Q 21.34375 51.125 25.703125 53.5625 
Q 30.078125 56 35.796875 56 
Q 45.21875 56 50.046875 50.171875 
Q 54.890625 44.34375 54.890625 33.015625 
z
" id="DejaVuSans-110"/>
       <path d="M 8.015625 75.875 
L 15.828125 75.875 
Q 23.140625 64.359375 26.78125 53.3125 
Q 30.421875 42.28125 30.421875 31.390625 
Q 30.421875 20.453125 26.78125 9.375 
Q 23.140625 -1.703125 15.828125 -13.1875 
L 8.015625 -13.1875 
Q 14.5 -2 17.703125 9.0625 
Q 20.90625 20.125 20.90625 31.390625 
Q 20.90625 42.671875 17.703125 53.65625 
Q 14.5 64.65625 8.015625 75.875 
z
" id="DejaVuSans-41"/>
      </defs>
      <use xlink:href="#DejaVuSans-108"/>
      <use x="27.783203" xlink:href="#DejaVuSans-111"/>
      <use x="88.964844" xlink:href="#DejaVuSans-103"/>
      <use x="152.441406" xlink:href="#DejaVuSans-49"/>
      <use x="216.064453" xlink:href="#DejaVuSans-48"/>
      <use x="279.6875" xlink:href="#DejaVuSans-40"/>
      <use x="318.701172" xlink:href="#DejaVuSans-35"/>
      <use x="402.490234" xlink:href="#DejaVuSans-32"/>
      <use x="434.277344" xlink:href="#DejaVuSans-102"/>
      <use x="463.982422" xlink:href="#DejaVuSans-45"/>
      <use x="500.066406" xlink:href="#DejaVuSans-101"/>
      <use x="561.589844" xlink:href="#DejaVuSans-118"/>
      <use x="620.769531" xlink:href="#DejaVuSans-97"/>
      <use x="682.048828" xlink:href="#DejaVuSans-108"/>
      <use x="709.832031" xlink:href="#DejaVuSans-115"/>
      <use x="761.931641" xlink:href="#DejaVuSans-32"/>
      <use x="793.71875" xlink:href="#DejaVuSans-47"/>
      <use x="827.410156" xlink:href="#DejaVuSans-32"/>
      <use x="859.197266" xlink:href="#DejaVuSans-100"/>
      <use x="922.673828" xlink:href="#DejaVuSans-105"/>
      <use x="950.457031" xlink:href="#DejaVuSans-109"/>
      <use x="1047.869141" xlink:href="#DejaVuSans-101"/>
      <use x="1109.392578" xlink:href="#DejaVuSans-110"/>
      <use x="1172.771484" xlink:href="#DejaVuSans-115"/>
      <use x="1224.871094" xlink:href="#DejaVuSans-105"/>
      <use x="1252.654297" xlink:href="#DejaVuSans-111"/>
      <use x="1313.835938" xlink:href="#DejaVuSans-110"/>
      <use x="1377.214844" xlink:href="#DejaVuSans-41"/>
     </g>
    </g>
   </g>
   <g id="matplotlib.axis_2">
    <g id="ytick_1">
     <g id="line2d_21">
      <path clip-path="url(#p52824b513c)" d="M 57.6 298.944 
L 338.688 298.944 
" style="fill:none;stroke:#b0b0b0;stroke-linecap:square;stroke-width:0.8;"/>
     </g>
     <g id="line2d_22">
      <defs>
       <path d="M 0 0 
L -3.5 0 
" id="m30739de0d7" style="stroke:#000000;stroke-width:0.8;"/>
      </defs>
      <g>
       <use style="stroke:#000000;stroke-width:0.8;" x="57.6" xlink:href="#m30739de0d7" y="298.944"/>
      </g>
     </g>
     <g id="text_6">
      <!-- 0.0 -->
      <g transform="translate(25.155 305.02275)scale(0.16 -0.16)">
       <defs>
        <path d="M 10.6875 12.40625 
L 21 12.40625 
L 21 0 
L 10.6875 0 
z
" id="DejaVuSans-46"/>
       </defs>
       <use xlink:href="#DejaVuSans-48"/>
       <use x="63.623047" xlink:href="#DejaVuSans-46"/>
       <use x="95.410156" xlink:href="#DejaVuSans-48"/>
      </g>
     </g>
    </g>
    <g id="ytick_2">
     <g id="line2d_23">
      <path clip-path="url(#p52824b513c)" d="M 57.6 245.22202 
L 338.688 245.22202 
" style="fill:none;stroke:#b0b0b0;stroke-linecap:square;stroke-width:0.8;"/>
     </g>
     <g id="line2d_24">
      <g>
       <use style="stroke:#000000;stroke-width:0.8;" x="57.6" xlink:href="#m30739de0d7" y="245.22202"/>
      </g>
     </g>
     <g id="text_7">
      <!-- 0.2 -->
      <g transform="translate(25.155 251.30077)scale(0.16 -0.16)">
       <use xlink:href="#DejaVuSans-48"/>
       <use x="63.623047" xlink:href="#DejaVuSans-46"/>
       <use x="95.410156" xlink:href="#DejaVuSans-50"/>
      </g>
     </g>
    </g>
    <g id="ytick_3">
     <g id="line2d_25">
      <path clip-path="url(#p52824b513c)" d="M 57.6 191.50004 
L 338.688 191.50004 
" style="fill:none;stroke:#b0b0b0;stroke-linecap:square;stroke-width:0.8;"/>
     </g>
     <g id="line2d_26">
      <g>
       <use style="stroke:#000000;stroke-width:0.8;" x="57.6" xlink:href="#m30739de0d7" y="191.50004"/>
      </g>
     </g>
     <g id="text_8">
      <!-- 0.4 -->
      <g transform="translate(25.155 197.57879)scale(0.16 -0.16)">
       <use xlink:href="#DejaVuSans-48"/>
       <use x="63.623047" xlink:href="#DejaVuSans-46"/>
       <use x="95.410156" xlink:href="#DejaVuSans-52"/>
      </g>
     </g>
    </g>
    <g id="ytick_4">
     <g id="line2d_27">
      <path clip-path="url(#p52824b513c)" d="M 57.6 137.778059 
L 338.688 137.778059 
" style="fill:none;stroke:#b0b0b0;stroke-linecap:square;stroke-width:0.8;"/>
     </g>
     <g id="line2d_28">
      <g>
       <use style="stroke:#000000;stroke-width:0.8;" x="57.6" xlink:href="#m30739de0d7" y="137.778059"/>
      </g>
     </g>
     <g id="text_9">
      <!-- 0.6 -->
      <g transform="translate(25.155 143.856809)scale(0.16 -0.16)">
       <use xlink:href="#DejaVuSans-48"/>
       <use x="63.623047" xlink:href="#DejaVuSans-46"/>
       <use x="95.410156" xlink:href="#DejaVuSans-54"/>
      </g>
     </g>
    </g>
    <g id="ytick_5">
     <g id="line2d_29">
      <path clip-path="url(#p52824b513c)" d="M 57.6 84.056079 
L 338.688 84.056079 
" style="fill:none;stroke:#b0b0b0;stroke-linecap:square;stroke-width:0.8;"/>
     </g>
     <g id="line2d_30">
      <g>
       <use style="stroke:#000000;stroke-width:0.8;" x="57.6" xlink:href="#m30739de0d7" y="84.056079"/>
      </g>
     </g>
     <g id="text_10">
      <!-- 0.8 -->
      <g transform="translate(25.155 90.134829)scale(0.16 -0.16)">
       <defs>
        <path d="M 31.78125 34.625 
Q 24.75 34.625 20.71875 30.859375 
Q 16.703125 27.09375 16.703125 20.515625 
Q 16.703125 13.921875 20.71875 10.15625 
Q 24.75 6.390625 31.78125 6.390625 
Q 38.8125 6.390625 42.859375 10.171875 
Q 46.921875 13.96875 46.921875 20.515625 
Q 46.921875 27.09375 42.890625 30.859375 
Q 38.875 34.625 31.78125 34.625 
z
M 21.921875 38.8125 
Q 15.578125 40.375 12.03125 44.71875 
Q 8.5 49.078125 8.5 55.328125 
Q 8.5 64.0625 14.71875 69.140625 
Q 20.953125 74.21875 31.78125 74.21875 
Q 42.671875 74.21875 48.875 69.140625 
Q 55.078125 64.0625 55.078125 55.328125 
Q 55.078125 49.078125 51.53125 44.71875 
Q 48 40.375 41.703125 38.8125 
Q 48.828125 37.15625 52.796875 32.3125 
Q 56.78125 27.484375 56.78125 20.515625 
Q 56.78125 9.90625 50.3125 4.234375 
Q 43.84375 -1.421875 31.78125 -1.421875 
Q 19.734375 -1.421875 13.25 4.234375 
Q 6.78125 9.90625 6.78125 20.515625 
Q 6.78125 27.484375 10.78125 32.3125 
Q 14.796875 37.15625 21.921875 38.8125 
z
M 18.3125 54.390625 
Q 18.3125 48.734375 21.84375 45.5625 
Q 25.390625 42.390625 31.78125 42.390625 
Q 38.140625 42.390625 41.71875 45.5625 
Q 45.3125 48.734375 45.3125 54.390625 
Q 45.3125 60.0625 41.71875 63.234375 
Q 38.140625 66.40625 31.78125 66.40625 
Q 25.390625 66.40625 21.84375 63.234375 
Q 18.3125 60.0625 18.3125 54.390625 
z
" id="DejaVuSans-56"/>
       </defs>
       <use xlink:href="#DejaVuSans-48"/>
       <use x="63.623047" xlink:href="#DejaVuSans-46"/>
       <use x="95.410156" xlink:href="#DejaVuSans-56"/>
      </g>
     </g>
    </g>
    <g id="ytick_6">
     <g id="line2d_31">
      <path clip-path="url(#p52824b513c)" d="M 57.6 30.334099 
L 338.688 30.334099 
" style="fill:none;stroke:#b0b0b0;stroke-linecap:square;stroke-width:0.8;"/>
     </g>
     <g id="line2d_32">
      <g>
       <use style="stroke:#000000;stroke-width:0.8;" x="57.6" xlink:href="#m30739de0d7" y="30.334099"/>
      </g>
     </g>
     <g id="text_11">
      <!-- 1.0 -->
      <g transform="translate(25.155 36.412849)scale(0.16 -0.16)">
       <use xlink:href="#DejaVuSans-49"/>
       <use x="63.623047" xlink:href="#DejaVuSans-46"/>
       <use x="95.410156" xlink:href="#DejaVuSans-48"/>
      </g>
     </g>
    </g>
    <g id="text_12">
     <!-- Fraction of function,target pairs -->
     <g transform="translate(17.619531 297.681)rotate(-90)scale(0.17 -0.17)">
      <defs>
       <path d="M 9.8125 72.90625 
L 51.703125 72.90625 
L 51.703125 64.59375 
L 19.671875 64.59375 
L 19.671875 43.109375 
L 48.578125 43.109375 
L 48.578125 34.8125 
L 19.671875 34.8125 
L 19.671875 0 
L 9.8125 0 
z
" id="DejaVuSans-70"/>
       <path d="M 41.109375 46.296875 
Q 39.59375 47.171875 37.8125 47.578125 
Q 36.03125 48 33.890625 48 
Q 26.265625 48 22.1875 43.046875 
Q 18.109375 38.09375 18.109375 28.8125 
L 18.109375 0 
L 9.078125 0 
L 9.078125 54.6875 
L 18.109375 54.6875 
L 18.109375 46.1875 
Q 20.953125 51.171875 25.484375 53.578125 
Q 30.03125 56 36.53125 56 
Q 37.453125 56 38.578125 55.875 
Q 39.703125 55.765625 41.0625 55.515625 
z
" id="DejaVuSans-114"/>
       <path d="M 48.78125 52.59375 
L 48.78125 44.1875 
Q 44.96875 46.296875 41.140625 47.34375 
Q 37.3125 48.390625 33.40625 48.390625 
Q 24.65625 48.390625 19.8125 42.84375 
Q 14.984375 37.3125 14.984375 27.296875 
Q 14.984375 17.28125 19.8125 11.734375 
Q 24.65625 6.203125 33.40625 6.203125 
Q 37.3125 6.203125 41.140625 7.25 
Q 44.96875 8.296875 48.78125 10.40625 
L 48.78125 2.09375 
Q 45.015625 0.34375 40.984375 -0.53125 
Q 36.96875 -1.421875 32.421875 -1.421875 
Q 20.0625 -1.421875 12.78125 6.34375 
Q 5.515625 14.109375 5.515625 27.296875 
Q 5.515625 40.671875 12.859375 48.328125 
Q 20.21875 56 33.015625 56 
Q 37.15625 56 41.109375 55.140625 
Q 45.0625 54.296875 48.78125 52.59375 
z
" id="DejaVuSans-99"/>
       <path d="M 18.3125 70.21875 
L 18.3125 54.6875 
L 36.8125 54.6875 
L 36.8125 47.703125 
L 18.3125 47.703125 
L 18.3125 18.015625 
Q 18.3125 11.328125 20.140625 9.421875 
Q 21.96875 7.515625 27.59375 7.515625 
L 36.8125 7.515625 
L 36.8125 0 
L 27.59375 0 
Q 17.1875 0 13.234375 3.875 
Q 9.28125 7.765625 9.28125 18.015625 
L 9.28125 47.703125 
L 2.6875 47.703125 
L 2.6875 54.6875 
L 9.28125 54.6875 
L 9.28125 70.21875 
z
" id="DejaVuSans-116"/>
       <path d="M 8.5 21.578125 
L 8.5 54.6875 
L 17.484375 54.6875 
L 17.484375 21.921875 
Q 17.484375 14.15625 20.5 10.265625 
Q 23.53125 6.390625 29.59375 6.390625 
Q 36.859375 6.390625 41.078125 11.03125 
Q 45.3125 15.671875 45.3125 23.6875 
L 45.3125 54.6875 
L 54.296875 54.6875 
L 54.296875 0 
L 45.3125 0 
L 45.3125 8.40625 
Q 42.046875 3.421875 37.71875 1 
Q 33.40625 -1.421875 27.6875 -1.421875 
Q 18.265625 -1.421875 13.375 4.4375 
Q 8.5 10.296875 8.5 21.578125 
z
M 31.109375 56 
z
" id="DejaVuSans-117"/>
       <path d="M 11.71875 12.40625 
L 22.015625 12.40625 
L 22.015625 4 
L 14.015625 -11.625 
L 7.71875 -11.625 
L 11.71875 4 
z
" id="DejaVuSans-44"/>
       <path d="M 18.109375 8.203125 
L 18.109375 -20.796875 
L 9.078125 -20.796875 
L 9.078125 54.6875 
L 18.109375 54.6875 
L 18.109375 46.390625 
Q 20.953125 51.265625 25.265625 53.625 
Q 29.59375 56 35.59375 56 
Q 45.5625 56 51.78125 48.09375 
Q 58.015625 40.1875 58.015625 27.296875 
Q 58.015625 14.40625 51.78125 6.484375 
Q 45.5625 -1.421875 35.59375 -1.421875 
Q 29.59375 -1.421875 25.265625 0.953125 
Q 20.953125 3.328125 18.109375 8.203125 
z
M 48.6875 27.296875 
Q 48.6875 37.203125 44.609375 42.84375 
Q 40.53125 48.484375 33.40625 48.484375 
Q 26.265625 48.484375 22.1875 42.84375 
Q 18.109375 37.203125 18.109375 27.296875 
Q 18.109375 17.390625 22.1875 11.75 
Q 26.265625 6.109375 33.40625 6.109375 
Q 40.53125 6.109375 44.609375 11.75 
Q 48.6875 17.390625 48.6875 27.296875 
z
" id="DejaVuSans-112"/>
      </defs>
      <use xlink:href="#DejaVuSans-70"/>
      <use x="50.269531" xlink:href="#DejaVuSans-114"/>
      <use x="91.382812" xlink:href="#DejaVuSans-97"/>
      <use x="152.662109" xlink:href="#DejaVuSans-99"/>
      <use x="207.642578" xlink:href="#DejaVuSans-116"/>
      <use x="246.851562" xlink:href="#DejaVuSans-105"/>
      <use x="274.634766" xlink:href="#DejaVuSans-111"/>
      <use x="335.816406" xlink:href="#DejaVuSans-110"/>
      <use x="399.195312" xlink:href="#DejaVuSans-32"/>
      <use x="430.982422" xlink:href="#DejaVuSans-111"/>
      <use x="492.164062" xlink:href="#DejaVuSans-102"/>
      <use x="527.369141" xlink:href="#DejaVuSans-32"/>
      <use x="559.15625" xlink:href="#DejaVuSans-102"/>
      <use x="594.361328" xlink:href="#DejaVuSans-117"/>
      <use x="657.740234" xlink:href="#DejaVuSans-110"/>
      <use x="721.119141" xlink:href="#DejaVuSans-99"/>
      <use x="776.099609" xlink:href="#DejaVuSans-116"/>
      <use x="815.308594" xlink:href="#DejaVuSans-105"/>
      <use x="843.091797" xlink:href="#DejaVuSans-111"/>
      <use x="904.273438" xlink:href="#DejaVuSans-110"/>
      <use x="967.652344" xlink:href="#DejaVuSans-44"/>
      <use x="999.439453" xlink:href="#DejaVuSans-116"/>
      <use x="1038.648438" xlink:href="#DejaVuSans-97"/>
      <use x="1099.927734" xlink:href="#DejaVuSans-114"/>
      <use x="1139.291016" xlink:href="#DejaVuSans-103"/>
      <use x="1202.767578" xlink:href="#DejaVuSans-101"/>
      <use x="1264.291016" xlink:href="#DejaVuSans-116"/>
      <use x="1303.5" xlink:href="#DejaVuSans-32"/>
      <use x="1335.287109" xlink:href="#DejaVuSans-112"/>
      <use x="1398.763672" xlink:href="#DejaVuSans-97"/>
      <use x="1460.042969" xlink:href="#DejaVuSans-105"/>
      <use x="1487.826172" xlink:href="#DejaVuSans-114"/>
      <use x="1528.939453" xlink:href="#DejaVuSans-115"/>
     </g>
    </g>
   </g>
   <g id="line2d_33">
    <defs>
     <path d="M 0 1.5 
C 0.397805 1.5 0.77937 1.341951 1.06066 1.06066 
C 1.341951 0.77937 1.5 0.397805 1.5 0 
C 1.5 -0.397805 1.341951 -0.77937 1.06066 -1.06066 
C 0.77937 -1.341951 0.397805 -1.5 0 -1.5 
C -0.397805 -1.5 -0.77937 -1.341951 -1.06066 -1.06066 
C -1.341951 -0.77937 -1.5 -0.397805 -1.5 0 
C -1.5 0.397805 -1.341951 0.77937 -1.06066 1.06066 
C -0.77937 1.341951 -0.397805 1.5 0 1.5 
z
" id="m4dbc4dea5f" style="stroke:#f5deb3;"/>
    </defs>
    <g>
     <use style="fill:#f5deb3;stroke:#f5deb3;" x="340.862995" xlink:href="#m4dbc4dea5f" y="122.958203"/>
     <use style="fill:#f5deb3;stroke:#f5deb3;" x="340.862995" xlink:href="#m4dbc4dea5f" y="122.958203"/>
    </g>
   </g>
   <g id="line2d_34">
    <defs>
     <path d="M 0 1.5 
C 0.397805 1.5 0.77937 1.341951 1.06066 1.06066 
C 1.341951 0.77937 1.5 0.397805 1.5 0 
C 1.5 -0.397805 1.341951 -0.77937 1.06066 -1.06066 
C 0.77937 -1.341951 0.397805 -1.5 0 -1.5 
C -0.397805 -1.5 -0.77937 -1.341951 -1.06066 -1.06066 
C -1.341951 -0.77937 -1.5 -0.397805 -1.5 0 
C -1.5 0.397805 -1.341951 0.77937 -1.06066 1.06066 
C -0.77937 1.341951 -0.397805 1.5 0 1.5 
z
" id="m36427fa444" style="stroke:#000080;"/>
    </defs>
    <g>
     <use style="fill:#000080;stroke:#000080;" x="251.628318" xlink:href="#m36427fa444" y="270.693648"/>
     <use style="fill:#000080;stroke:#000080;" x="251.628318" xlink:href="#m36427fa444" y="270.693648"/>
    </g>
   </g>
   <g id="line2d_35">
    <path d="M 17.444571 298.944 
L 17.444571 297.091518 
L 81.334453 297.091518 
L 81.334453 296.165277 
L 101.506816 296.165277 
L 101.506816 295.239036 
L 106.593963 295.239036 
L 106.593963 294.775915 
L 108.671345 294.775915 
L 108.671345 294.312795 
L 110.527398 294.312795 
L 110.527398 292.460313 
L 112.204777 292.460313 
L 112.204777 291.534072 
L 116.443076 291.534072 
L 116.443076 290.14471 
L 119.850084 290.14471 
L 119.850084 289.218469 
L 120.852343 289.218469 
L 120.852343 288.755349 
L 124.368753 288.755349 
L 124.368753 288.292228 
L 125.147256 288.292228 
L 125.147256 286.902867 
L 125.892487 286.902867 
L 125.892487 285.976625 
L 127.954256 285.976625 
L 127.954256 285.513505 
L 129.79784 285.513505 
L 129.79784 285.050384 
L 130.926816 285.050384 
L 130.926816 284.587264 
L 131.465029 284.587264 
L 131.465029 284.124143 
L 132.986651 284.124143 
L 132.986651 283.197902 
L 134.386096 283.197902 
L 134.386096 282.734782 
L 141.913576 282.734782 
L 141.913576 282.271661 
L 142.20229 282.271661 
L 142.20229 281.808541 
L 149.566262 281.808541 
L 149.566262 281.34542 
L 161.663187 281.34542 
L 161.663187 280.8823 
L 212.475634 280.8823 
L 212.475634 280.419179 
L 218.65829 280.419179 
L 218.65829 279.956059 
L 227.443557 279.956059 
L 227.443557 279.492938 
L 229.883375 279.492938 
L 229.883375 279.029818 
L 229.915246 279.029818 
L 229.915246 278.566697 
L 231.573437 278.566697 
L 231.573437 278.103577 
L 232.103803 278.103577 
L 232.103803 277.640456 
L 233.807868 277.640456 
L 233.807868 277.177336 
L 233.822845 277.177336 
L 233.822845 276.714215 
L 233.842295 276.714215 
L 233.842295 276.251095 
L 233.863218 276.251095 
L 233.863218 275.787974 
L 236.381315 275.787974 
L 236.381315 275.324854 
L 245.207643 275.324854 
L 245.207643 274.861733 
L 245.518947 274.861733 
L 245.518947 273.935492 
L 245.578556 273.935492 
L 245.578556 273.472371 
L 245.747681 273.472371 
L 245.747681 273.009251 
L 246.378007 273.009251 
L 246.378007 272.54613 
L 246.3984 272.54613 
L 246.3984 272.08301 
L 246.41586 272.08301 
L 246.41586 271.619889 
L 248.061511 271.619889 
L 248.061511 271.156769 
L 251.628318 271.156769 
L 251.628318 270.693648 
L 338.688 270.693648 
" style="fill:none;stroke:#000080;stroke-linecap:square;stroke-width:1.5;"/>
   </g>
   <g id="line2d_36">
    <defs>
     <path d="M 0 6 
C 1.591219 6 3.117479 5.367802 4.242641 4.242641 
C 5.367802 3.117479 6 1.591219 6 0 
C 6 -1.591219 5.367802 -3.117479 4.242641 -4.242641 
C 3.117479 -5.367802 1.591219 -6 0 -6 
C -1.591219 -6 -3.117479 -5.367802 -4.242641 -4.242641 
C -5.367802 -3.117479 -6 -1.591219 -6 0 
C -6 1.591219 -5.367802 3.117479 -4.242641 4.242641 
C -3.117479 5.367802 -1.591219 6 0 6 
z
" id="ma765517331" style="stroke:#000080;stroke-width:1.5;"/>
    </defs>
    <g>
     <use style="fill-opacity:0;stroke:#000080;stroke-width:1.5;" x="120.852343" xlink:href="#ma765517331" y="288.755349"/>
     <use style="fill-opacity:0;stroke:#000080;stroke-width:1.5;" x="161.663187" xlink:href="#ma765517331" y="280.8823"/>
     <use style="fill-opacity:0;stroke:#000080;stroke-width:1.5;" x="251.628318" xlink:href="#ma765517331" y="271.156769"/>
     <use style="fill-opacity:0;stroke:#000080;stroke-width:1.5;" x="251.628318" xlink:href="#ma765517331" y="270.693648"/>
     <use style="fill-opacity:0;stroke:#000080;stroke-width:1.5;" x="338.688" xlink:href="#ma765517331" y="270.693648"/>
    </g>
   </g>
   <g id="line2d_37">
    <path style="fill:none;stroke:#000080;stroke-linecap:square;stroke-width:1.5;"/>
    <g/>
   </g>
   <g id="line2d_38">
    <path clip-path="url(#p52824b513c)" d="M 258.377143 270.693648 
" style="fill:none;stroke:#000080;stroke-linecap:square;stroke-width:1.5;"/>
    <defs>
     <path d="M -12 12 
L 12 -12 
M -12 -12 
L 12 12 
" id="mc4df85a577" style="stroke:#000080;"/>
    </defs>
    <g clip-path="url(#p52824b513c)">
     <use style="fill:#000080;stroke:#000080;" x="258.377143" xlink:href="#mc4df85a577" y="270.693648"/>
    </g>
   </g>
   <g id="line2d_39">
    <defs>
     <path d="M 0 1.5 
C 0.397805 1.5 0.77937 1.341951 1.06066 1.06066 
C 1.341951 0.77937 1.5 0.397805 1.5 0 
C 1.5 -0.397805 1.341951 -0.77937 1.06066 -1.06066 
C 0.77937 -1.341951 0.397805 -1.5 0 -1.5 
C -0.397805 -1.5 -0.77937 -1.341951 -1.06066 -1.06066 
C -1.341951 -0.77937 -1.5 -0.397805 -1.5 0 
C -1.5 0.397805 -1.341951 0.77937 -1.06066 1.06066 
C -0.77937 1.341951 -0.397805 1.5 0 1.5 
z
" id="m8f84070c1c" style="stroke:#ff00ff;"/>
    </defs>
    <g>
     <use style="fill:#ff00ff;stroke:#ff00ff;" x="246.817536" xlink:href="#m8f84070c1c" y="228.549681"/>
     <use style="fill:#ff00ff;stroke:#ff00ff;" x="246.817536" xlink:href="#m8f84070c1c" y="228.549681"/>
    </g>
   </g>
   <g id="line2d_40">
    <path d="M 17.444571 298.944 
L 17.444571 285.976625 
L 45.512012 285.976625 
L 45.512012 285.513505 
L 128.168991 285.513505 
L 128.168991 285.050384 
L 129.089405 285.050384 
L 129.089405 284.587264 
L 132.612604 284.587264 
L 132.612604 284.124143 
L 135.522271 284.124143 
L 135.522271 283.661023 
L 137.68266 283.661023 
L 137.68266 283.197902 
L 138.067109 283.197902 
L 138.067109 282.734782 
L 140.287441 282.734782 
L 140.287441 282.271661 
L 142.351634 282.271661 
L 142.351634 281.808541 
L 144.510517 281.808541 
L 144.510517 281.34542 
L 145.564956 281.34542 
L 145.564956 280.8823 
L 145.810583 280.8823 
L 145.810583 280.419179 
L 146.052799 280.419179 
L 146.129168 279.492938 
L 146.728368 279.492938 
L 146.728368 279.029818 
L 147.287301 279.029818 
L 147.287301 278.566697 
L 147.499916 278.566697 
L 147.550159 277.640456 
L 147.749695 277.640456 
L 147.749695 277.177336 
L 148.516274 277.177336 
L 148.516274 276.714215 
L 150.573489 276.714215 
L 150.573489 276.251095 
L 151.509721 276.251095 
L 151.509721 275.787974 
L 151.889366 275.787974 
L 151.889366 275.324854 
L 152.811246 275.324854 
L 152.811246 274.861733 
L 154.215123 274.861733 
L 154.228812 273.935492 
L 154.667942 273.935492 
L 154.667942 273.009251 
L 155.031067 273.009251 
L 155.031067 272.54613 
L 155.953659 272.54613 
L 155.959855 271.619889 
L 156.729404 271.619889 
L 156.729404 271.156769 
L 157.249147 271.156769 
L 157.335239 269.767407 
L 158.368898 269.767407 
L 158.368898 268.841166 
L 158.826871 268.841166 
L 158.826871 267.914925 
L 159.385473 267.914925 
L 159.421068 266.988684 
L 160.220333 266.988684 
L 160.220333 266.062443 
L 160.456491 266.062443 
L 160.456491 265.599323 
L 160.713095 265.599323 
L 160.713095 265.136202 
L 161.429341 265.136202 
L 161.429341 264.673082 
L 161.63189 264.673082 
L 161.63189 264.209961 
L 162.690982 264.209961 
L 162.690982 263.746841 
L 162.816868 263.746841 
L 162.879471 262.8206 
L 163.041197 262.8206 
L 163.041197 262.357479 
L 163.323704 262.357479 
L 163.323704 261.431238 
L 163.973442 261.431238 
L 163.973442 260.504997 
L 164.493826 260.504997 
L 164.543127 259.578756 
L 165.950372 259.578756 
L 165.950372 259.115635 
L 166.500553 259.115635 
L 166.500553 258.652515 
L 166.729224 258.652515 
L 166.75593 257.263153 
L 166.88223 257.263153 
L 166.88223 256.800033 
L 167.086355 256.800033 
L 167.086355 255.873792 
L 167.826518 255.873792 
L 167.826518 255.410671 
L 169.114201 255.410671 
L 169.114201 254.947551 
L 169.308343 254.947551 
L 169.308343 254.48443 
L 169.749363 254.48443 
L 169.749363 254.02131 
L 170.086056 254.02131 
L 170.086056 253.558189 
L 171.003983 253.558189 
L 171.003983 253.095069 
L 171.580031 253.095069 
L 171.580031 252.631948 
L 172.281613 252.631948 
L 172.281613 252.168828 
L 172.453287 252.168828 
L 172.453287 251.705707 
L 172.824653 251.705707 
L 172.902209 250.316346 
L 173.29636 250.316346 
L 173.29636 249.853225 
L 174.214017 249.853225 
L 174.214017 249.390104 
L 176.281114 249.390104 
L 176.281114 248.463863 
L 176.996497 248.463863 
L 176.996497 247.537622 
L 177.299796 247.537622 
L 177.299796 247.074502 
L 177.515311 247.074502 
L 177.515311 246.148261 
L 177.767269 246.148261 
L 177.767269 245.68514 
L 178.163673 245.68514 
L 178.163673 245.22202 
L 178.897209 245.22202 
L 178.897209 244.295779 
L 179.026426 244.295779 
L 179.026426 243.369538 
L 180.041099 243.369538 
L 180.041099 242.906417 
L 180.802828 242.906417 
L 180.802828 241.980176 
L 182.045422 241.980176 
L 182.045422 241.517056 
L 183.724843 241.517056 
L 183.724843 241.053935 
L 184.648019 241.053935 
L 184.648019 240.590815 
L 186.327 240.590815 
L 186.327 239.664574 
L 187.161362 239.664574 
L 187.161362 239.201453 
L 187.649305 239.201453 
L 187.649305 238.275212 
L 192.132202 238.275212 
L 192.132202 237.348971 
L 193.720444 237.348971 
L 193.720444 236.42273 
L 194.459336 236.42273 
L 194.459336 235.496489 
L 198.824965 235.496489 
L 198.824965 235.033368 
L 204.862519 235.033368 
L 204.862519 234.107127 
L 207.206397 234.107127 
L 207.206397 233.180886 
L 211.770081 233.180886 
L 211.770081 232.717766 
L 215.403087 232.717766 
L 215.403087 232.254645 
L 221.074438 232.254645 
L 221.074438 231.791525 
L 221.665642 231.791525 
L 221.665642 230.865284 
L 224.254686 230.865284 
L 224.254686 229.939043 
L 225.644232 229.939043 
L 225.644232 229.012802 
L 246.817536 229.012802 
L 246.817536 228.549681 
L 338.688 228.549681 
L 338.688 228.549681 
" style="fill:none;stroke:#ff00ff;stroke-linecap:square;stroke-width:1.5;"/>
   </g>
   <g id="line2d_41">
    <defs>
     <path d="M -0 8.485281 
L 5.091169 0 
L 0 -8.485281 
L -5.091169 -0 
z
" id="mf6a5e2dc0c" style="stroke:#ff00ff;stroke-linejoin:miter;stroke-width:1.5;"/>
    </defs>
    <g>
     <use style="fill-opacity:0;stroke:#ff00ff;stroke-linejoin:miter;stroke-width:1.5;" x="155.953659" xlink:href="#mf6a5e2dc0c" y="272.08301"/>
     <use style="fill-opacity:0;stroke:#ff00ff;stroke-linejoin:miter;stroke-width:1.5;" x="192.132202" xlink:href="#mf6a5e2dc0c" y="238.275212"/>
     <use style="fill-opacity:0;stroke:#ff00ff;stroke-linejoin:miter;stroke-width:1.5;" x="246.817536" xlink:href="#mf6a5e2dc0c" y="229.012802"/>
     <use style="fill-opacity:0;stroke:#ff00ff;stroke-linejoin:miter;stroke-width:1.5;" x="246.817536" xlink:href="#mf6a5e2dc0c" y="228.549681"/>
     <use style="fill-opacity:0;stroke:#ff00ff;stroke-linejoin:miter;stroke-width:1.5;" x="338.688" xlink:href="#mf6a5e2dc0c" y="228.549681"/>
    </g>
   </g>
   <g id="line2d_42">
    <path style="fill:none;stroke:#ff00ff;stroke-linecap:square;stroke-width:1.5;"/>
    <g/>
   </g>
   <g id="line2d_43">
    <path clip-path="url(#p52824b513c)" d="M 258.37716 228.549681 
" style="fill:none;stroke:#ff00ff;stroke-linecap:square;stroke-width:1.5;"/>
    <defs>
     <path d="M -12 12 
L 12 -12 
M -12 -12 
L 12 12 
" id="m1797acee1e" style="stroke:#ff00ff;"/>
    </defs>
    <g clip-path="url(#p52824b513c)">
     <use style="fill:#ff00ff;stroke:#ff00ff;" x="258.37716" xlink:href="#m1797acee1e" y="228.549681"/>
    </g>
   </g>
   <g id="line2d_44">
    <defs>
     <path d="M 0 1.5 
C 0.397805 1.5 0.77937 1.341951 1.06066 1.06066 
C 1.341951 0.77937 1.5 0.397805 1.5 0 
C 1.5 -0.397805 1.341951 -0.77937 1.06066 -1.06066 
C 0.77937 -1.341951 0.397805 -1.5 0 -1.5 
C -0.397805 -1.5 -0.77937 -1.341951 -1.06066 -1.06066 
C -1.341951 -0.77937 -1.5 -0.397805 -1.5 0 
C -1.5 0.397805 -1.341951 0.77937 -1.06066 1.06066 
C -0.77937 1.341951 -0.397805 1.5 0 1.5 
z
" id="m57b5f5c97d" style="stroke:#ff7500;"/>
    </defs>
    <g>
     <use style="fill:#ff7500;stroke:#ff7500;" x="258.084476" xlink:href="#m57b5f5c97d" y="215.119186"/>
     <use style="fill:#ff7500;stroke:#ff7500;" x="258.084476" xlink:href="#m57b5f5c97d" y="215.119186"/>
    </g>
   </g>
   <g id="line2d_45">
    <path d="M 146.324022 298.944 
L 146.324022 298.480879 
L 147.600257 298.480879 
L 147.61026 297.554638 
L 147.858474 297.554638 
L 147.858474 297.091518 
L 148.248413 297.091518 
L 148.248413 296.628397 
L 148.826773 296.628397 
L 148.826773 296.165277 
L 149.476646 296.165277 
L 149.476646 295.702156 
L 149.823575 295.702156 
L 149.823575 295.239036 
L 150.068464 295.239036 
L 150.068464 294.775915 
L 150.258492 294.775915 
L 150.258492 294.312795 
L 150.37835 294.312795 
L 150.412445 293.386554 
L 150.990318 293.386554 
L 150.990318 292.923433 
L 151.162458 292.923433 
L 151.162458 292.460313 
L 151.381313 292.460313 
L 151.389366 291.534072 
L 152.322086 291.534072 
L 152.428609 290.607831 
L 152.639723 290.607831 
L 152.729424 289.218469 
L 152.840905 289.218469 
L 152.885298 288.292228 
L 153.229193 288.292228 
L 153.229193 287.829108 
L 153.351929 287.829108 
L 153.351929 287.365987 
L 153.495227 287.365987 
L 153.502361 286.439746 
L 153.693887 286.439746 
L 153.693887 285.976625 
L 153.959927 285.976625 
L 153.959927 285.513505 
L 154.139643 285.513505 
L 154.153391 284.587264 
L 154.614488 284.587264 
L 154.614488 284.124143 
L 154.734529 284.124143 
L 154.807483 282.734782 
L 154.85375 282.734782 
L 154.85375 282.271661 
L 155.109299 282.271661 
L 155.219531 281.34542 
L 155.373976 281.34542 
L 155.373976 280.8823 
L 155.622068 280.8823 
L 155.622068 280.419179 
L 155.97843 280.419179 
L 155.97843 279.956059 
L 156.187581 279.956059 
L 156.187581 279.492938 
L 156.315521 279.492938 
L 156.382164 278.566697 
L 156.460597 278.566697 
L 156.460597 278.103577 
L 156.776762 278.103577 
L 156.788581 277.177336 
L 157.409509 277.177336 
L 157.500487 276.251095 
L 157.557108 276.251095 
L 157.557108 275.787974 
L 157.781772 275.787974 
L 157.809652 274.398612 
L 157.98704 274.398612 
L 157.98704 273.935492 
L 158.233478 273.935492 
L 158.341898 272.08301 
L 158.615355 272.08301 
L 158.615355 271.156769 
L 158.800572 271.156769 
L 158.800572 270.693648 
L 159.431225 270.693648 
L 159.446449 269.767407 
L 159.623089 269.767407 
L 159.683242 268.841166 
L 159.837683 268.841166 
L 159.862466 267.914925 
L 160.37492 267.914925 
L 160.432539 266.525564 
L 160.613753 266.525564 
L 160.637457 265.599323 
L 160.849359 265.599323 
L 160.849359 265.136202 
L 160.993852 265.136202 
L 160.993852 264.209961 
L 161.283861 264.209961 
L 161.356752 262.8206 
L 161.551152 262.8206 
L 161.551152 262.357479 
L 161.712255 262.357479 
L 161.712255 261.894358 
L 162.117326 261.894358 
L 162.208484 260.504997 
L 162.320689 260.504997 
L 162.320689 260.041876 
L 162.991595 260.041876 
L 162.991595 259.578756 
L 163.461244 259.578756 
L 163.461244 259.115635 
L 163.741046 259.115635 
L 163.741046 258.652515 
L 163.871412 258.652515 
L 163.871412 258.189394 
L 164.175729 258.189394 
L 164.206643 257.263153 
L 165.120455 257.263153 
L 165.120455 256.800033 
L 165.284547 256.800033 
L 165.284547 256.336912 
L 165.568939 256.336912 
L 165.568939 255.873792 
L 165.838222 255.873792 
L 165.901395 254.947551 
L 166.487008 254.947551 
L 166.487008 254.02131 
L 166.868978 254.02131 
L 166.868978 253.558189 
L 167.226535 253.558189 
L 167.226535 252.631948 
L 167.643609 252.631948 
L 167.643609 252.168828 
L 167.826518 252.168828 
L 167.826518 251.705707 
L 168.92082 251.705707 
L 168.92082 251.242587 
L 169.894855 251.242587 
L 169.900426 249.853225 
L 170.138339 249.853225 
L 170.138339 248.926984 
L 171.76122 248.926984 
L 171.76122 248.000743 
L 174.109302 248.000743 
L 174.126799 246.611381 
L 174.470942 246.611381 
L 174.470942 245.68514 
L 176.230812 245.68514 
L 176.230812 245.22202 
L 176.545699 245.22202 
L 176.545699 244.758899 
L 177.16626 244.758899 
L 177.16626 243.832658 
L 177.43051 243.832658 
L 177.43051 243.369538 
L 177.617605 243.369538 
L 177.617605 242.906417 
L 180.103277 242.906417 
L 180.103277 241.980176 
L 181.295184 241.980176 
L 181.295184 241.517056 
L 181.505489 241.517056 
L 181.505489 240.590815 
L 181.838757 240.590815 
L 181.838757 239.664574 
L 184.633664 239.664574 
L 184.633664 239.201453 
L 185.263573 239.201453 
L 185.263573 238.738333 
L 189.456895 238.738333 
L 189.456895 237.812091 
L 189.876534 237.812091 
L 189.876534 236.88585 
L 191.700296 236.88585 
L 191.700296 236.42273 
L 196.458197 236.42273 
L 196.458197 235.959609 
L 197.307067 235.959609 
L 197.307067 235.496489 
L 199.04421 235.496489 
L 199.04421 234.570248 
L 199.791569 234.570248 
L 199.791569 234.107127 
L 201.005723 234.107127 
L 201.005723 233.180886 
L 202.410609 233.180886 
L 202.410609 232.717766 
L 206.717816 232.717766 
L 206.717816 231.791525 
L 208.202343 231.791525 
L 208.202343 231.328404 
L 208.811736 231.328404 
L 208.811736 230.402163 
L 209.744755 230.402163 
L 209.744755 229.475922 
L 212.161021 229.475922 
L 212.265133 228.549681 
L 216.777643 228.549681 
L 216.777643 228.086561 
L 220.336581 228.086561 
L 220.336581 227.16032 
L 221.313272 227.16032 
L 221.313272 226.234079 
L 224.087306 226.234079 
L 224.087306 225.307837 
L 226.987715 225.307837 
L 226.987715 224.844717 
L 228.597212 224.844717 
L 228.597212 223.918476 
L 231.14021 223.918476 
L 231.14021 222.992235 
L 233.116834 222.992235 
L 233.116834 222.529114 
L 233.675012 222.529114 
L 233.675012 221.602873 
L 239.217071 221.602873 
L 239.217071 220.676632 
L 239.637182 220.676632 
L 239.637182 219.750391 
L 241.399192 219.750391 
L 241.399192 219.287271 
L 241.823438 219.287271 
L 241.823438 218.36103 
L 242.2941 218.36103 
L 242.2941 217.897909 
L 249.342314 217.897909 
L 249.342314 216.971668 
L 252.176783 216.971668 
L 252.176783 216.508548 
L 256.301067 216.508548 
L 256.301067 215.582307 
L 258.084476 215.582307 
L 258.084476 215.119186 
L 338.688 215.119186 
L 338.688 215.119186 
" style="fill:none;stroke:#ff7500;stroke-linecap:square;stroke-width:1.5;"/>
   </g>
   <g id="line2d_46">
    <defs>
     <path d="M 0 -6 
L -1.347084 -1.854102 
L -5.706339 -1.854102 
L -2.179628 0.708204 
L -3.526712 4.854102 
L -0 2.291796 
L 3.526712 4.854102 
L 2.179628 0.708204 
L 5.706339 -1.854102 
L 1.347084 -1.854102 
z
" id="md442f0cb22" style="stroke:#ff7500;stroke-linejoin:bevel;stroke-width:1.5;"/>
    </defs>
    <g>
     <use style="fill-opacity:0;stroke:#ff7500;stroke-linejoin:bevel;stroke-width:1.5;" x="185.263573" xlink:href="#md442f0cb22" y="238.738333"/>
     <use style="fill-opacity:0;stroke:#ff7500;stroke-linejoin:bevel;stroke-width:1.5;" x="239.637182" xlink:href="#md442f0cb22" y="220.676632"/>
     <use style="fill-opacity:0;stroke:#ff7500;stroke-linejoin:bevel;stroke-width:1.5;" x="258.084476" xlink:href="#md442f0cb22" y="215.119186"/>
     <use style="fill-opacity:0;stroke:#ff7500;stroke-linejoin:bevel;stroke-width:1.5;" x="258.084476" xlink:href="#md442f0cb22" y="215.119186"/>
     <use style="fill-opacity:0;stroke:#ff7500;stroke-linejoin:bevel;stroke-width:1.5;" x="338.688" xlink:href="#md442f0cb22" y="215.119186"/>
    </g>
   </g>
   <g id="line2d_47">
    <path style="fill:none;stroke:#ff7500;stroke-linecap:square;stroke-width:1.5;"/>
    <g/>
   </g>
   <g id="line2d_48">
    <path clip-path="url(#p52824b513c)" d="M 258.377143 215.119186 
" style="fill:none;stroke:#ff7500;stroke-linecap:square;stroke-width:1.5;"/>
    <defs>
     <path d="M -12 12 
L 12 -12 
M -12 -12 
L 12 12 
" id="m85bb341e2b" style="stroke:#ff7500;"/>
    </defs>
    <g clip-path="url(#p52824b513c)">
     <use style="fill:#ff7500;stroke:#ff7500;" x="258.377143" xlink:href="#m85bb341e2b" y="215.119186"/>
    </g>
   </g>
   <g id="line2d_49">
    <defs>
     <path d="M 0 1.5 
C 0.397805 1.5 0.77937 1.341951 1.06066 1.06066 
C 1.341951 0.77937 1.5 0.397805 1.5 0 
C 1.5 -0.397805 1.341951 -0.77937 1.06066 -1.06066 
C 0.77937 -1.341951 0.397805 -1.5 0 -1.5 
C -0.397805 -1.5 -0.77937 -1.341951 -1.06066 -1.06066 
C -1.341951 -0.77937 -1.5 -0.397805 -1.5 0 
C -1.5 0.397805 -1.341951 0.77937 -1.06066 1.06066 
C -0.77937 1.341951 -0.397805 1.5 0 1.5 
z
" id="m3da9ffed36" style="stroke:#6495ed;"/>
    </defs>
    <g>
     <use style="fill:#6495ed;stroke:#6495ed;" x="245.151107" xlink:href="#m3da9ffed36" y="240.127694"/>
     <use style="fill:#6495ed;stroke:#6495ed;" x="245.151107" xlink:href="#m3da9ffed36" y="240.127694"/>
    </g>
   </g>
   <g id="line2d_50">
    <path d="M 17.444571 298.944 
L 17.444571 289.218469 
L 125.219619 289.218469 
L 125.219619 288.755349 
L 125.787955 288.755349 
L 125.787955 288.292228 
L 132.659801 288.292228 
L 132.659801 287.829108 
L 134.279041 287.829108 
L 134.279041 287.365987 
L 134.513701 287.365987 
L 134.513701 286.902867 
L 134.640379 286.902867 
L 134.640379 286.439746 
L 136.112156 286.439746 
L 136.13148 285.513505 
L 136.323544 285.513505 
L 136.323544 285.050384 
L 136.645276 285.050384 
L 136.645276 284.587264 
L 136.887363 284.587264 
L 136.887363 283.661023 
L 137.217107 283.661023 
L 137.217107 283.197902 
L 138.032507 283.197902 
L 138.136107 282.271661 
L 138.443265 282.271661 
L 138.443265 281.808541 
L 138.877599 281.808541 
L 138.877599 281.34542 
L 139.461666 281.34542 
L 139.461666 280.8823 
L 139.652088 280.8823 
L 139.652088 280.419179 
L 140.073083 280.419179 
L 140.073083 279.956059 
L 141.220721 279.956059 
L 141.307054 279.029818 
L 141.492656 279.029818 
L 141.591783 278.103577 
L 142.092866 278.103577 
L 142.092866 277.640456 
L 143.75376 277.640456 
L 143.828447 276.714215 
L 145.372754 276.714215 
L 145.372754 276.251095 
L 146.205204 276.251095 
L 146.205204 275.787974 
L 146.345539 275.787974 
L 146.345539 275.324854 
L 147.388869 275.324854 
L 147.388869 274.861733 
L 149.131841 274.861733 
L 149.131841 274.398612 
L 149.779481 274.398612 
L 149.779481 273.935492 
L 151.525705 273.935492 
L 151.525705 273.472371 
L 152.885298 273.472371 
L 152.885298 272.54613 
L 153.799388 272.54613 
L 153.799388 271.619889 
L 155.050658 271.619889 
L 155.050658 271.156769 
L 157.596634 271.156769 
L 157.596634 270.693648 
L 157.765022 270.693648 
L 157.765022 270.230528 
L 160.886762 270.230528 
L 160.886762 269.767407 
L 161.150963 269.767407 
L 161.150963 269.304287 
L 162.787576 269.304287 
L 162.787576 268.841166 
L 165.967831 268.841166 
L 166.027059 267.451805 
L 168.400474 267.451805 
L 168.400474 266.988684 
L 168.548585 266.988684 
L 168.548585 266.525564 
L 168.835167 266.525564 
L 168.835167 266.062443 
L 171.302098 266.062443 
L 171.302098 265.136202 
L 173.012074 265.136202 
L 173.012074 264.673082 
L 174.354823 264.673082 
L 174.354823 264.209961 
L 175.75154 264.209961 
L 175.75154 263.28372 
L 176.568518 263.28372 
L 176.568518 262.8206 
L 177.509911 262.8206 
L 177.509911 261.894358 
L 178.10461 261.894358 
L 178.10461 261.431238 
L 179.046221 261.431238 
L 179.046221 260.968117 
L 181.092577 260.968117 
L 181.092577 260.504997 
L 188.786195 260.504997 
L 188.8765 259.578756 
L 189.88362 259.578756 
L 189.88362 258.652515 
L 190.748312 258.652515 
L 190.748312 258.189394 
L 192.503445 258.189394 
L 192.503445 257.726274 
L 192.965933 257.726274 
L 192.965933 257.263153 
L 194.341085 257.263153 
L 194.341085 256.800033 
L 195.574195 256.800033 
L 195.574195 256.336912 
L 199.740314 256.336912 
L 199.740314 255.873792 
L 203.038649 255.873792 
L 203.038649 255.410671 
L 203.462066 255.410671 
L 203.490094 254.48443 
L 204.086954 254.48443 
L 204.086954 254.02131 
L 207.480069 254.02131 
L 207.480069 253.095069 
L 212.901944 253.095069 
L 212.901944 252.168828 
L 215.186306 252.168828 
L 215.186306 251.705707 
L 217.509081 251.705707 
L 217.509081 250.779466 
L 221.669363 250.779466 
L 221.669363 250.316346 
L 222.399607 250.316346 
L 222.399607 249.853225 
L 224.685994 249.853225 
L 224.685994 249.390104 
L 227.525479 249.390104 
L 227.525479 248.926984 
L 228.120069 248.926984 
L 228.120069 248.463863 
L 229.410687 248.463863 
L 229.410687 248.000743 
L 230.824679 248.000743 
L 230.824679 247.074502 
L 232.510324 247.074502 
L 232.510324 246.148261 
L 235.28918 246.148261 
L 235.28918 245.68514 
L 235.453234 245.68514 
L 235.453234 245.22202 
L 236.027915 245.22202 
L 236.027915 244.295779 
L 236.699067 244.295779 
L 236.699067 243.832658 
L 237.092052 243.832658 
L 237.092052 243.369538 
L 238.957892 243.369538 
L 238.957892 242.443297 
L 241.640812 242.443297 
L 241.640812 241.517056 
L 242.134519 241.517056 
L 242.134519 241.053935 
L 243.94479 241.053935 
L 243.94479 240.590815 
L 245.151107 240.590815 
L 245.151107 240.127694 
L 338.688 240.127694 
L 338.688 240.127694 
" style="fill:none;stroke:#6495ed;stroke-linecap:square;stroke-width:1.5;"/>
   </g>
   <g id="line2d_51">
    <defs>
     <path d="M -0 6 
L 6 -6 
L -6 -6 
z
" id="mebe98ef6bd" style="stroke:#6495ed;stroke-linejoin:miter;stroke-width:1.5;"/>
    </defs>
    <g>
     <use style="fill-opacity:0;stroke:#6495ed;stroke-linejoin:miter;stroke-width:1.5;" x="189.88362" xlink:href="#mebe98ef6bd" y="259.578756"/>
     <use style="fill-opacity:0;stroke:#6495ed;stroke-linejoin:miter;stroke-width:1.5;" x="245.151107" xlink:href="#mebe98ef6bd" y="240.590815"/>
     <use style="fill-opacity:0;stroke:#6495ed;stroke-linejoin:miter;stroke-width:1.5;" x="245.151107" xlink:href="#mebe98ef6bd" y="240.127694"/>
     <use style="fill-opacity:0;stroke:#6495ed;stroke-linejoin:miter;stroke-width:1.5;" x="245.151107" xlink:href="#mebe98ef6bd" y="240.127694"/>
     <use style="fill-opacity:0;stroke:#6495ed;stroke-linejoin:miter;stroke-width:1.5;" x="338.688" xlink:href="#mebe98ef6bd" y="240.127694"/>
    </g>
   </g>
   <g id="line2d_52">
    <path style="fill:none;stroke:#6495ed;stroke-linecap:square;stroke-width:1.5;"/>
    <g/>
   </g>
   <g id="line2d_53">
    <path clip-path="url(#p52824b513c)" d="M 258.379636 240.127694 
" style="fill:none;stroke:#6495ed;stroke-linecap:square;stroke-width:1.5;"/>
    <defs>
     <path d="M -12 12 
L 12 -12 
M -12 -12 
L 12 12 
" id="mb207e27458" style="stroke:#6495ed;"/>
    </defs>
    <g clip-path="url(#p52824b513c)">
     <use style="fill:#6495ed;stroke:#6495ed;" x="258.379636" xlink:href="#mb207e27458" y="240.127694"/>
    </g>
   </g>
   <g id="line2d_54">
    <defs>
     <path d="M 0 1.5 
C 0.397805 1.5 0.77937 1.341951 1.06066 1.06066 
C 1.341951 0.77937 1.5 0.397805 1.5 0 
C 1.5 -0.397805 1.341951 -0.77937 1.06066 -1.06066 
C 0.77937 -1.341951 0.397805 -1.5 0 -1.5 
C -0.397805 -1.5 -0.77937 -1.341951 -1.06066 -1.06066 
C -1.341951 -0.77937 -1.5 -0.397805 -1.5 0 
C -1.5 0.397805 -1.341951 0.77937 -1.06066 1.06066 
C -0.77937 1.341951 -0.397805 1.5 0 1.5 
z
" id="m30e62b991c" style="stroke:#ff0000;"/>
    </defs>
    <g>
     <use style="fill:#ff0000;stroke:#ff0000;" x="300.328227" xlink:href="#m30e62b991c" y="158.155362"/>
     <use style="fill:#ff0000;stroke:#ff0000;" x="300.328227" xlink:href="#m30e62b991c" y="158.155362"/>
    </g>
   </g>
   <g id="line2d_55">
    <path d="M 17.444571 298.944 
L 17.444571 285.976625 
L 36.60358 285.976625 
L 36.60358 285.513505 
L 41.620548 285.513505 
L 41.620548 285.050384 
L 51.379845 285.050384 
L 51.379845 284.587264 
L 55.762588 284.587264 
L 55.762588 284.124143 
L 59.262141 284.124143 
L 59.262141 283.197902 
L 62.175444 283.197902 
L 62.175444 280.8823 
L 63.467834 280.8823 
L 63.467834 279.956059 
L 64.67102 279.956059 
L 64.67102 279.492938 
L 72.125336 279.492938 
L 72.125336 279.029818 
L 76.759008 279.029818 
L 76.759008 278.566697 
L 86.012784 278.566697 
L 86.012784 278.103577 
L 86.683608 278.103577 
L 86.683608 277.640456 
L 96.301313 277.640456 
L 96.301313 277.177336 
L 97.928955 277.177336 
L 97.928955 275.787974 
L 98.100772 275.787974 
L 98.100772 274.861733 
L 98.935347 274.861733 
L 98.935347 274.398612 
L 99.575392 274.398612 
L 99.575392 273.472371 
L 99.731799 273.472371 
L 99.731799 273.009251 
L 100.343767 273.009251 
L 100.343767 271.619889 
L 100.641881 271.619889 
L 100.641881 271.156769 
L 101.365607 271.156769 
L 101.365607 270.693648 
L 101.646892 270.693648 
L 101.646892 270.230528 
L 103.623262 270.230528 
L 103.623262 269.767407 
L 104.474128 269.767407 
L 104.474128 269.304287 
L 104.709797 269.304287 
L 104.709797 268.378046 
L 105.51043 268.378046 
L 105.51043 267.914925 
L 106.168594 267.914925 
L 106.168594 267.451805 
L 110.694282 267.451805 
L 110.694282 266.988684 
L 112.280765 266.988684 
L 112.280765 266.525564 
L 114.148479 266.525564 
L 114.148479 266.062443 
L 114.751048 266.062443 
L 114.751048 265.599323 
L 116.081002 265.599323 
L 116.081002 265.136202 
L 116.262979 265.136202 
L 116.262979 264.209961 
L 124.965026 264.209961 
L 124.965026 263.28372 
L 126.439646 263.28372 
L 126.439646 262.8206 
L 127.674226 262.8206 
L 127.674226 262.357479 
L 128.381113 262.357479 
L 128.381113 261.431238 
L 130.531948 261.431238 
L 130.531948 260.968117 
L 132.326708 260.968117 
L 132.326708 260.504997 
L 133.420657 260.504997 
L 133.420657 259.578756 
L 136.813232 259.578756 
L 136.813232 259.115635 
L 136.942755 259.115635 
L 136.942755 258.652515 
L 138.01518 258.652515 
L 138.01518 258.189394 
L 139.041811 258.189394 
L 139.041811 257.263153 
L 140.226464 257.263153 
L 140.226464 256.800033 
L 140.574203 256.800033 
L 140.574203 256.336912 
L 142.120287 256.336912 
L 142.120287 255.873792 
L 143.489809 255.873792 
L 143.489809 255.410671 
L 144.830078 255.410671 
L 144.830078 254.947551 
L 147.429332 254.947551 
L 147.429332 254.48443 
L 155.514359 254.48443 
L 155.514359 253.558189 
L 156.711612 253.558189 
L 156.812195 252.631948 
L 158.76896 252.631948 
L 158.76896 251.705707 
L 158.973421 251.705707 
L 158.973421 251.242587 
L 161.058716 251.242587 
L 161.058716 250.779466 
L 165.788929 250.779466 
L 165.788929 249.853225 
L 170.28336 249.853225 
L 170.28336 249.390104 
L 172.125403 249.390104 
L 172.125403 248.463863 
L 172.366452 248.463863 
L 172.366452 247.537622 
L 175.067161 247.537622 
L 175.067161 247.074502 
L 175.417783 247.074502 
L 175.417783 246.611381 
L 176.931477 246.611381 
L 176.931477 245.68514 
L 177.820411 245.68514 
L 177.820411 244.758899 
L 183.446541 244.758899 
L 183.446541 244.295779 
L 186.82796 244.295779 
L 186.82796 243.369538 
L 188.852089 243.369538 
L 188.919607 241.980176 
L 190.892668 241.980176 
L 190.892668 241.517056 
L 191.213986 241.517056 
L 191.213986 240.590815 
L 191.451957 240.590815 
L 191.451957 239.664574 
L 193.005962 239.664574 
L 193.005962 239.201453 
L 195.198253 239.201453 
L 195.198253 238.738333 
L 195.551174 238.738333 
L 195.551174 238.275212 
L 196.23198 238.275212 
L 196.23198 237.348971 
L 197.033575 237.348971 
L 197.033575 236.88585 
L 198.025151 236.88585 
L 198.025151 235.959609 
L 199.451593 235.959609 
L 199.451593 235.496489 
L 200.513989 235.496489 
L 200.513989 234.570248 
L 200.65686 234.570248 
L 200.65686 234.107127 
L 201.078116 234.107127 
L 201.15717 233.180886 
L 201.719165 233.180886 
L 201.719165 232.717766 
L 203.789083 232.717766 
L 203.789083 231.791525 
L 204.012666 231.791525 
L 204.012666 230.402163 
L 207.877797 230.402163 
L 207.877797 229.939043 
L 208.203272 229.939043 
L 208.203272 229.475922 
L 208.710334 229.475922 
L 208.710334 229.012802 
L 209.156792 229.012802 
L 209.156792 228.086561 
L 210.758734 228.086561 
L 210.758734 227.62344 
L 214.778728 227.62344 
L 214.778728 226.697199 
L 214.951657 226.697199 
L 214.951657 225.770958 
L 217.114058 225.770958 
L 217.114058 224.844717 
L 217.558606 224.844717 
L 217.594799 222.992235 
L 219.900811 222.992235 
L 219.900811 222.065994 
L 220.985365 222.065994 
L 220.997714 220.676632 
L 221.326267 220.676632 
L 221.326267 219.750391 
L 221.524653 219.750391 
L 221.524653 218.82415 
L 222.960056 218.82415 
L 222.998953 217.434789 
L 226.365843 217.434789 
L 226.365843 216.971668 
L 226.779818 216.971668 
L 226.779818 216.045427 
L 227.633673 216.045427 
L 227.633673 215.119186 
L 229.49714 215.119186 
L 229.49714 214.656066 
L 229.747385 214.656066 
L 229.747385 213.729825 
L 229.929243 213.729825 
L 229.929243 213.266704 
L 230.481503 213.266704 
L 230.481503 212.340463 
L 230.593473 212.340463 
L 230.593473 211.877342 
L 232.1354 211.877342 
L 232.1354 211.414222 
L 233.570309 211.414222 
L 233.570309 210.487981 
L 233.786879 210.487981 
L 233.786879 209.56174 
L 234.273632 209.56174 
L 234.273632 209.098619 
L 237.081056 209.098619 
L 237.162359 207.709258 
L 237.512876 207.709258 
L 237.512876 206.783017 
L 238.262398 206.783017 
L 238.262398 206.319896 
L 239.313961 206.319896 
L 239.313961 205.393655 
L 240.824126 205.393655 
L 240.824126 204.467414 
L 240.965503 204.467414 
L 240.965503 204.004294 
L 241.445712 204.004294 
L 241.445712 203.541173 
L 242.297784 203.541173 
L 242.297784 202.614932 
L 242.446714 202.614932 
L 242.446714 201.688691 
L 243.681163 201.688691 
L 243.695536 200.76245 
L 244.022218 200.76245 
L 244.022218 199.836209 
L 247.648311 199.836209 
L 247.676583 198.909968 
L 249.08632 198.909968 
L 249.08632 197.983727 
L 249.38813 197.983727 
L 249.38813 197.520606 
L 249.791671 197.520606 
L 249.791671 197.057486 
L 250.751062 197.057486 
L 250.751062 196.594365 
L 251.790553 196.594365 
L 251.807006 195.205004 
L 252.641291 195.205004 
L 252.65747 193.815642 
L 255.478738 193.815642 
L 255.478738 193.352522 
L 257.394675 193.352522 
L 257.394675 192.889401 
L 258.013376 192.889401 
L 258.013376 191.96316 
L 258.467748 191.96316 
L 258.467748 191.50004 
L 259.285099 191.50004 
L 259.361645 190.573799 
L 259.659893 190.573799 
L 259.659893 189.647558 
L 260.186687 189.647558 
L 260.186687 188.721316 
L 260.521536 188.721316 
L 260.521536 187.795075 
L 260.805541 187.795075 
L 260.805541 187.331955 
L 261.768014 187.331955 
L 261.768014 186.868834 
L 262.583366 186.868834 
L 262.583366 186.405714 
L 265.594306 186.405714 
L 265.602455 185.016352 
L 268.027057 185.016352 
L 268.104971 184.090111 
L 268.305585 184.090111 
L 268.377147 183.16387 
L 269.575202 183.16387 
L 269.575202 182.70075 
L 270.331709 182.70075 
L 270.331709 182.237629 
L 271.620071 182.237629 
L 271.620071 181.774509 
L 272.120731 181.774509 
L 272.120731 181.311388 
L 272.459026 181.311388 
L 272.459026 180.848268 
L 272.712559 180.848268 
L 272.712559 180.385147 
L 272.917675 180.385147 
L 272.917675 179.922027 
L 275.383506 179.922027 
L 275.383506 178.995786 
L 278.505956 178.995786 
L 278.505956 178.532665 
L 280.56321 178.532665 
L 280.668345 177.143304 
L 280.781012 177.143304 
L 280.820498 176.217062 
L 281.194238 176.217062 
L 281.2122 174.36458 
L 282.318159 174.36458 
L 282.318159 173.438339 
L 283.272735 173.438339 
L 283.272735 172.975219 
L 285.988661 172.975219 
L 285.988661 172.048978 
L 286.59837 172.048978 
L 286.59837 171.585857 
L 287.231667 171.585857 
L 287.231667 171.122737 
L 287.815199 171.122737 
L 287.815199 170.196496 
L 288.318243 170.196496 
L 288.318243 169.270255 
L 290.637711 169.270255 
L 290.637711 168.807134 
L 290.860281 168.807134 
L 290.863237 167.417773 
L 291.173287 167.417773 
L 291.173287 166.954652 
L 291.670604 166.954652 
L 291.765299 165.565291 
L 291.82991 165.565291 
L 291.82991 165.10217 
L 292.064872 165.10217 
L 292.064872 164.63905 
L 292.250527 164.63905 
L 292.250527 164.175929 
L 292.873291 164.175929 
L 292.953331 163.249688 
L 293.488237 163.249688 
L 293.488237 162.323447 
L 294.035112 162.323447 
L 294.035112 161.860326 
L 294.346806 161.860326 
L 294.346806 161.397206 
L 294.587949 161.397206 
L 294.587949 160.934085 
L 295.781515 160.934085 
L 295.781515 160.007844 
L 296.505664 160.007844 
L 296.505664 159.544724 
L 300.071625 159.544724 
L 300.071625 159.081603 
L 300.328227 159.081603 
L 300.328227 158.155362 
L 338.688 158.155362 
L 338.688 158.155362 
" style="fill:none;stroke:#ff0000;stroke-linecap:square;stroke-width:1.5;"/>
   </g>
   <g id="line2d_56">
    <defs>
     <path d="M 0 -6 
L -5.196152 -3 
L -5.196152 3 
L -0 6 
L 5.196152 3 
L 5.196152 -3 
z
" id="m83d1751f9b" style="stroke:#ff0000;stroke-linejoin:miter;stroke-width:1.5;"/>
    </defs>
    <g>
     <use style="fill-opacity:0;stroke:#ff0000;stroke-linejoin:miter;stroke-width:1.5;" x="114.751048" xlink:href="#m83d1751f9b" y="265.599323"/>
     <use style="fill-opacity:0;stroke:#ff0000;stroke-linejoin:miter;stroke-width:1.5;" x="177.820411" xlink:href="#m83d1751f9b" y="245.68514"/>
     <use style="fill-opacity:0;stroke:#ff0000;stroke-linejoin:miter;stroke-width:1.5;" x="241.445712" xlink:href="#m83d1751f9b" y="204.004294"/>
     <use style="fill-opacity:0;stroke:#ff0000;stroke-linejoin:miter;stroke-width:1.5;" x="300.328227" xlink:href="#m83d1751f9b" y="158.155362"/>
     <use style="fill-opacity:0;stroke:#ff0000;stroke-linejoin:miter;stroke-width:1.5;" x="300.328227" xlink:href="#m83d1751f9b" y="158.155362"/>
     <use style="fill-opacity:0;stroke:#ff0000;stroke-linejoin:miter;stroke-width:1.5;" x="338.688" xlink:href="#m83d1751f9b" y="158.155362"/>
    </g>
   </g>
   <g id="line2d_57">
    <path style="fill:none;stroke:#ff0000;stroke-linecap:square;stroke-width:1.5;"/>
    <g/>
   </g>
   <g id="line2d_58">
    <path clip-path="url(#p52824b513c)" d="M 301.219989 158.155362 
" style="fill:none;stroke:#ff0000;stroke-linecap:square;stroke-width:1.5;"/>
    <defs>
     <path d="M -12 12 
L 12 -12 
M -12 -12 
L 12 12 
" id="m83b4a8302b" style="stroke:#ff0000;"/>
    </defs>
    <g clip-path="url(#p52824b513c)">
     <use style="fill:#ff0000;stroke:#ff0000;" x="301.219989" xlink:href="#m83b4a8302b" y="158.155362"/>
    </g>
   </g>
   <g id="line2d_59">
    <path d="M 338.688 270.693648 
L 369.60768 293.571802 
" style="fill:none;stroke:#000080;stroke-linecap:square;stroke-width:1.5;"/>
    <g>
     <use style="fill-opacity:0;stroke:#000080;stroke-width:1.5;" x="338.688" xlink:href="#ma765517331" y="270.693648"/>
     <use style="fill-opacity:0;stroke:#000080;stroke-width:1.5;" x="369.60768" xlink:href="#ma765517331" y="293.571802"/>
    </g>
   </g>
   <g id="line2d_60">
    <path d="M 338.688 240.127694 
L 369.60768 241.998701 
" style="fill:none;stroke:#6495ed;stroke-linecap:square;stroke-width:1.5;"/>
    <g>
     <use style="fill-opacity:0;stroke:#6495ed;stroke-linejoin:miter;stroke-width:1.5;" x="338.688" xlink:href="#mebe98ef6bd" y="240.127694"/>
     <use style="fill-opacity:0;stroke:#6495ed;stroke-linejoin:miter;stroke-width:1.5;" x="369.60768" xlink:href="#mebe98ef6bd" y="241.998701"/>
    </g>
   </g>
   <g id="line2d_61">
    <path d="M 338.688 228.549681 
L 369.60768 190.4256 
" style="fill:none;stroke:#ff00ff;stroke-linecap:square;stroke-width:1.5;"/>
    <g>
     <use style="fill-opacity:0;stroke:#ff00ff;stroke-linejoin:miter;stroke-width:1.5;" x="338.688" xlink:href="#mf6a5e2dc0c" y="228.549681"/>
     <use style="fill-opacity:0;stroke:#ff00ff;stroke-linejoin:miter;stroke-width:1.5;" x="369.60768" xlink:href="#mf6a5e2dc0c" y="190.4256"/>
    </g>
   </g>
   <g id="line2d_62">
    <path d="M 338.688 215.119186 
L 369.60768 138.852499 
" style="fill:none;stroke:#ff7500;stroke-linecap:square;stroke-width:1.5;"/>
    <g>
     <use style="fill-opacity:0;stroke:#ff7500;stroke-linejoin:bevel;stroke-width:1.5;" x="338.688" xlink:href="#md442f0cb22" y="215.119186"/>
     <use style="fill-opacity:0;stroke:#ff7500;stroke-linejoin:bevel;stroke-width:1.5;" x="369.60768" xlink:href="#md442f0cb22" y="138.852499"/>
    </g>
   </g>
   <g id="line2d_63">
    <path d="M 338.688 158.155362 
L 369.60768 87.279398 
" style="fill:none;stroke:#ff0000;stroke-linecap:square;stroke-width:1.5;"/>
    <g>
     <use style="fill-opacity:0;stroke:#ff0000;stroke-linejoin:miter;stroke-width:1.5;" x="338.688" xlink:href="#m83d1751f9b" y="158.155362"/>
     <use style="fill-opacity:0;stroke:#ff0000;stroke-linejoin:miter;stroke-width:1.5;" x="369.60768" xlink:href="#m83d1751f9b" y="87.279398"/>
    </g>
   </g>
   <g id="line2d_64">
    <path d="M 338.688 298.944 
L 338.688 30.334099 
" style="fill:none;stroke:#000000;stroke-linecap:square;stroke-width:1.5;"/>
   </g>
   <g id="patch_3">
    <path d="M 57.6 298.944 
L 57.6 27.648 
" style="fill:none;stroke:#000000;stroke-linecap:square;stroke-linejoin:miter;stroke-width:0.8;"/>
   </g>
   <g id="patch_4">
    <path d="M 338.688 298.944 
L 338.688 27.648 
" style="fill:none;stroke:#000000;stroke-linecap:square;stroke-linejoin:miter;stroke-width:0.8;"/>
   </g>
   <g id="patch_5">
    <path d="M 57.6 298.944 
L 338.688 298.944 
" style="fill:none;stroke:#000000;stroke-linecap:square;stroke-linejoin:miter;stroke-width:0.8;"/>
   </g>
   <g id="patch_6">
    <path d="M 57.6 27.648 
L 338.688 27.648 
" style="fill:none;stroke:#000000;stroke-linecap:square;stroke-linejoin:miter;stroke-width:0.8;"/>
   </g>
   <g id="text_13">
    <!-- MOLE -->
    <g transform="translate(375.22944 298.262739)scale(0.17 -0.17)">
     <defs>
      <path d="M 9.8125 72.90625 
L 24.515625 72.90625 
L 43.109375 23.296875 
L 61.8125 72.90625 
L 76.515625 72.90625 
L 76.515625 0 
L 66.890625 0 
L 66.890625 64.015625 
L 48.09375 14.015625 
L 38.1875 14.015625 
L 19.390625 64.015625 
L 19.390625 0 
L 9.8125 0 
z
" id="DejaVuSans-77"/>
      <path d="M 39.40625 66.21875 
Q 28.65625 66.21875 22.328125 58.203125 
Q 16.015625 50.203125 16.015625 36.375 
Q 16.015625 22.609375 22.328125 14.59375 
Q 28.65625 6.59375 39.40625 6.59375 
Q 50.140625 6.59375 56.421875 14.59375 
Q 62.703125 22.609375 62.703125 36.375 
Q 62.703125 50.203125 56.421875 58.203125 
Q 50.140625 66.21875 39.40625 66.21875 
z
M 39.40625 74.21875 
Q 54.734375 74.21875 63.90625 63.9375 
Q 73.09375 53.65625 73.09375 36.375 
Q 73.09375 19.140625 63.90625 8.859375 
Q 54.734375 -1.421875 39.40625 -1.421875 
Q 24.03125 -1.421875 14.8125 8.828125 
Q 5.609375 19.09375 5.609375 36.375 
Q 5.609375 53.65625 14.8125 63.9375 
Q 24.03125 74.21875 39.40625 74.21875 
z
" id="DejaVuSans-79"/>
      <path d="M 9.8125 72.90625 
L 19.671875 72.90625 
L 19.671875 8.296875 
L 55.171875 8.296875 
L 55.171875 0 
L 9.8125 0 
z
" id="DejaVuSans-76"/>
      <path d="M 9.8125 72.90625 
L 55.90625 72.90625 
L 55.90625 64.59375 
L 19.671875 64.59375 
L 19.671875 43.015625 
L 54.390625 43.015625 
L 54.390625 34.71875 
L 19.671875 34.71875 
L 19.671875 8.296875 
L 56.78125 8.296875 
L 56.78125 0 
L 9.8125 0 
z
" id="DejaVuSans-69"/>
     </defs>
     <use xlink:href="#DejaVuSans-77"/>
     <use x="86.279297" xlink:href="#DejaVuSans-79"/>
     <use x="164.990234" xlink:href="#DejaVuSans-76"/>
     <use x="220.703125" xlink:href="#DejaVuSans-69"/>
    </g>
   </g>
   <g id="text_14">
    <!-- NSGA-II-M -->
    <g transform="translate(375.22944 246.689638)scale(0.17 -0.17)">
     <defs>
      <path d="M 9.8125 72.90625 
L 23.09375 72.90625 
L 55.421875 11.921875 
L 55.421875 72.90625 
L 64.984375 72.90625 
L 64.984375 0 
L 51.703125 0 
L 19.390625 60.984375 
L 19.390625 0 
L 9.8125 0 
z
" id="DejaVuSans-78"/>
      <path d="M 53.515625 70.515625 
L 53.515625 60.890625 
Q 47.90625 63.578125 42.921875 64.890625 
Q 37.9375 66.21875 33.296875 66.21875 
Q 25.25 66.21875 20.875 63.09375 
Q 16.5 59.96875 16.5 54.203125 
Q 16.5 49.359375 19.40625 46.890625 
Q 22.3125 44.4375 30.421875 42.921875 
L 36.375 41.703125 
Q 47.40625 39.59375 52.65625 34.296875 
Q 57.90625 29 57.90625 20.125 
Q 57.90625 9.515625 50.796875 4.046875 
Q 43.703125 -1.421875 29.984375 -1.421875 
Q 24.8125 -1.421875 18.96875 -0.25 
Q 13.140625 0.921875 6.890625 3.21875 
L 6.890625 13.375 
Q 12.890625 10.015625 18.65625 8.296875 
Q 24.421875 6.59375 29.984375 6.59375 
Q 38.421875 6.59375 43.015625 9.90625 
Q 47.609375 13.234375 47.609375 19.390625 
Q 47.609375 24.75 44.3125 27.78125 
Q 41.015625 30.8125 33.5 32.328125 
L 27.484375 33.5 
Q 16.453125 35.6875 11.515625 40.375 
Q 6.59375 45.0625 6.59375 53.421875 
Q 6.59375 63.09375 13.40625 68.65625 
Q 20.21875 74.21875 32.171875 74.21875 
Q 37.3125 74.21875 42.625 73.28125 
Q 47.953125 72.359375 53.515625 70.515625 
z
" id="DejaVuSans-83"/>
      <path d="M 59.515625 10.40625 
L 59.515625 29.984375 
L 43.40625 29.984375 
L 43.40625 38.09375 
L 69.28125 38.09375 
L 69.28125 6.78125 
Q 63.578125 2.734375 56.6875 0.65625 
Q 49.8125 -1.421875 42 -1.421875 
Q 24.90625 -1.421875 15.25 8.5625 
Q 5.609375 18.5625 5.609375 36.375 
Q 5.609375 54.25 15.25 64.234375 
Q 24.90625 74.21875 42 74.21875 
Q 49.125 74.21875 55.546875 72.453125 
Q 61.96875 70.703125 67.390625 67.28125 
L 67.390625 56.78125 
Q 61.921875 61.421875 55.765625 63.765625 
Q 49.609375 66.109375 42.828125 66.109375 
Q 29.4375 66.109375 22.71875 58.640625 
Q 16.015625 51.171875 16.015625 36.375 
Q 16.015625 21.625 22.71875 14.15625 
Q 29.4375 6.6875 42.828125 6.6875 
Q 48.046875 6.6875 52.140625 7.59375 
Q 56.25 8.5 59.515625 10.40625 
z
" id="DejaVuSans-71"/>
      <path d="M 34.1875 63.1875 
L 20.796875 26.90625 
L 47.609375 26.90625 
z
M 28.609375 72.90625 
L 39.796875 72.90625 
L 67.578125 0 
L 57.328125 0 
L 50.6875 18.703125 
L 17.828125 18.703125 
L 11.1875 0 
L 0.78125 0 
z
" id="DejaVuSans-65"/>
      <path d="M 9.8125 72.90625 
L 19.671875 72.90625 
L 19.671875 0 
L 9.8125 0 
z
" id="DejaVuSans-73"/>
     </defs>
     <use xlink:href="#DejaVuSans-78"/>
     <use x="74.804688" xlink:href="#DejaVuSans-83"/>
     <use x="138.28125" xlink:href="#DejaVuSans-71"/>
     <use x="215.771484" xlink:href="#DejaVuSans-65"/>
     <use x="281.929688" xlink:href="#DejaVuSans-45"/>
     <use x="318.013672" xlink:href="#DejaVuSans-73"/>
     <use x="347.505859" xlink:href="#DejaVuSans-73"/>
     <use x="376.998047" xlink:href="#DejaVuSans-45"/>
     <use x="413.082031" xlink:href="#DejaVuSans-77"/>
    </g>
   </g>
   <g id="text_15">
    <!-- SMS-EMOA- -->
    <g transform="translate(375.22944 195.116537)scale(0.17 -0.17)">
     <use xlink:href="#DejaVuSans-83"/>
     <use x="63.476562" xlink:href="#DejaVuSans-77"/>
     <use x="149.755859" xlink:href="#DejaVuSans-83"/>
     <use x="213.232422" xlink:href="#DejaVuSans-45"/>
     <use x="249.316406" xlink:href="#DejaVuSans-69"/>
     <use x="312.5" xlink:href="#DejaVuSans-77"/>
     <use x="398.779297" xlink:href="#DejaVuSans-79"/>
     <use x="475.740234" xlink:href="#DejaVuSans-65"/>
     <use x="541.898438" xlink:href="#DejaVuSans-45"/>
    </g>
   </g>
   <g id="text_16">
    <!-- RM-MEDA A -->
    <g transform="translate(375.22944 143.543437)scale(0.17 -0.17)">
     <defs>
      <path d="M 44.390625 34.1875 
Q 47.5625 33.109375 50.5625 29.59375 
Q 53.5625 26.078125 56.59375 19.921875 
L 66.609375 0 
L 56 0 
L 46.6875 18.703125 
Q 43.0625 26.03125 39.671875 28.421875 
Q 36.28125 30.8125 30.421875 30.8125 
L 19.671875 30.8125 
L 19.671875 0 
L 9.8125 0 
L 9.8125 72.90625 
L 32.078125 72.90625 
Q 44.578125 72.90625 50.734375 67.671875 
Q 56.890625 62.453125 56.890625 51.90625 
Q 56.890625 45.015625 53.6875 40.46875 
Q 50.484375 35.9375 44.390625 34.1875 
z
M 19.671875 64.796875 
L 19.671875 38.921875 
L 32.078125 38.921875 
Q 39.203125 38.921875 42.84375 42.21875 
Q 46.484375 45.515625 46.484375 51.90625 
Q 46.484375 58.296875 42.84375 61.546875 
Q 39.203125 64.796875 32.078125 64.796875 
z
" id="DejaVuSans-82"/>
      <path d="M 19.671875 64.796875 
L 19.671875 8.109375 
L 31.59375 8.109375 
Q 46.6875 8.109375 53.6875 14.9375 
Q 60.6875 21.78125 60.6875 36.53125 
Q 60.6875 51.171875 53.6875 57.984375 
Q 46.6875 64.796875 31.59375 64.796875 
z
M 9.8125 72.90625 
L 30.078125 72.90625 
Q 51.265625 72.90625 61.171875 64.09375 
Q 71.09375 55.28125 71.09375 36.53125 
Q 71.09375 17.671875 61.125 8.828125 
Q 51.171875 0 30.078125 0 
L 9.8125 0 
z
" id="DejaVuSans-68"/>
     </defs>
     <use xlink:href="#DejaVuSans-82"/>
     <use x="69.482422" xlink:href="#DejaVuSans-77"/>
     <use x="155.761719" xlink:href="#DejaVuSans-45"/>
     <use x="191.845703" xlink:href="#DejaVuSans-77"/>
     <use x="278.125" xlink:href="#DejaVuSans-69"/>
     <use x="341.308594" xlink:href="#DejaVuSans-68"/>
     <use x="416.560547" xlink:href="#DejaVuSans-65"/>
     <use x="484.96875" xlink:href="#DejaVuSans-32"/>
     <use x="516.755859" xlink:href="#DejaVuSans-65"/>
    </g>
   </g>
   <g id="text_17">
    <!-- HMO-CMA-E -->
    <g transform="translate(375.22944 91.970336)scale(0.17 -0.17)">
     <defs>
      <path d="M 9.8125 72.90625 
L 19.671875 72.90625 
L 19.671875 43.015625 
L 55.515625 43.015625 
L 55.515625 72.90625 
L 65.375 72.90625 
L 65.375 0 
L 55.515625 0 
L 55.515625 34.71875 
L 19.671875 34.71875 
L 19.671875 0 
L 9.8125 0 
z
" id="DejaVuSans-72"/>
      <path d="M 64.40625 67.28125 
L 64.40625 56.890625 
Q 59.421875 61.53125 53.78125 63.8125 
Q 48.140625 66.109375 41.796875 66.109375 
Q 29.296875 66.109375 22.65625 58.46875 
Q 16.015625 50.828125 16.015625 36.375 
Q 16.015625 21.96875 22.65625 14.328125 
Q 29.296875 6.6875 41.796875 6.6875 
Q 48.140625 6.6875 53.78125 8.984375 
Q 59.421875 11.28125 64.40625 15.921875 
L 64.40625 5.609375 
Q 59.234375 2.09375 53.4375 0.328125 
Q 47.65625 -1.421875 41.21875 -1.421875 
Q 24.65625 -1.421875 15.125 8.703125 
Q 5.609375 18.84375 5.609375 36.375 
Q 5.609375 53.953125 15.125 64.078125 
Q 24.65625 74.21875 41.21875 74.21875 
Q 47.75 74.21875 53.53125 72.484375 
Q 59.328125 70.75 64.40625 67.28125 
z
" id="DejaVuSans-67"/>
     </defs>
     <use xlink:href="#DejaVuSans-72"/>
     <use x="75.195312" xlink:href="#DejaVuSans-77"/>
     <use x="161.474609" xlink:href="#DejaVuSans-79"/>
     <use x="242.935547" xlink:href="#DejaVuSans-45"/>
     <use x="279.019531" xlink:href="#DejaVuSans-67"/>
     <use x="348.84375" xlink:href="#DejaVuSans-77"/>
     <use x="435.123047" xlink:href="#DejaVuSans-65"/>
     <use x="501.28125" xlink:href="#DejaVuSans-45"/>
     <use x="537.365234" xlink:href="#DejaVuSans-69"/>
    </g>
   </g>
   <g id="text_18">
    <!-- best 2016 -->
    <g transform="translate(375.22944 40.397235)scale(0.17 -0.17)">
     <defs>
      <path d="M 48.6875 27.296875 
Q 48.6875 37.203125 44.609375 42.84375 
Q 40.53125 48.484375 33.40625 48.484375 
Q 26.265625 48.484375 22.1875 42.84375 
Q 18.109375 37.203125 18.109375 27.296875 
Q 18.109375 17.390625 22.1875 11.75 
Q 26.265625 6.109375 33.40625 6.109375 
Q 40.53125 6.109375 44.609375 11.75 
Q 48.6875 17.390625 48.6875 27.296875 
z
M 18.109375 46.390625 
Q 20.953125 51.265625 25.265625 53.625 
Q 29.59375 56 35.59375 56 
Q 45.5625 56 51.78125 48.09375 
Q 58.015625 40.1875 58.015625 27.296875 
Q 58.015625 14.40625 51.78125 6.484375 
Q 45.5625 -1.421875 35.59375 -1.421875 
Q 29.59375 -1.421875 25.265625 0.953125 
Q 20.953125 3.328125 18.109375 8.203125 
L 18.109375 0 
L 9.078125 0 
L 9.078125 75.984375 
L 18.109375 75.984375 
z
" id="DejaVuSans-98"/>
     </defs>
     <use xlink:href="#DejaVuSans-98"/>
     <use x="63.476562" xlink:href="#DejaVuSans-101"/>
     <use x="125" xlink:href="#DejaVuSans-115"/>
     <use x="177.099609" xlink:href="#DejaVuSans-116"/>
     <use x="216.308594" xlink:href="#DejaVuSans-32"/>
     <use x="248.095703" xlink:href="#DejaVuSans-50"/>
     <use x="311.71875" xlink:href="#DejaVuSans-48"/>
     <use x="375.341797" xlink:href="#DejaVuSans-49"/>
     <use x="438.964844" xlink:href="#DejaVuSans-54"/>
    </g>
   </g>
   <g id="text_19">
    <!-- bbob-biobj f37, 10-D -->
    <g transform="translate(60.41088 38.111366)scale(0.102 -0.102)">
     <defs>
      <path d="M 9.421875 54.6875 
L 18.40625 54.6875 
L 18.40625 -0.984375 
Q 18.40625 -11.421875 14.421875 -16.109375 
Q 10.453125 -20.796875 1.609375 -20.796875 
L -1.8125 -20.796875 
L -1.8125 -13.1875 
L 0.59375 -13.1875 
Q 5.71875 -13.1875 7.5625 -10.8125 
Q 9.421875 -8.453125 9.421875 -0.984375 
z
M 9.421875 75.984375 
L 18.40625 75.984375 
L 18.40625 64.59375 
L 9.421875 64.59375 
z
" id="DejaVuSans-106"/>
      <path d="M 40.578125 39.3125 
Q 47.65625 37.796875 51.625 33 
Q 55.609375 28.21875 55.609375 21.1875 
Q 55.609375 10.40625 48.1875 4.484375 
Q 40.765625 -1.421875 27.09375 -1.421875 
Q 22.515625 -1.421875 17.65625 -0.515625 
Q 12.796875 0.390625 7.625 2.203125 
L 7.625 11.71875 
Q 11.71875 9.328125 16.59375 8.109375 
Q 21.484375 6.890625 26.8125 6.890625 
Q 36.078125 6.890625 40.9375 10.546875 
Q 45.796875 14.203125 45.796875 21.1875 
Q 45.796875 27.640625 41.28125 31.265625 
Q 36.765625 34.90625 28.71875 34.90625 
L 20.21875 34.90625 
L 20.21875 43.015625 
L 29.109375 43.015625 
Q 36.375 43.015625 40.234375 45.921875 
Q 44.09375 48.828125 44.09375 54.296875 
Q 44.09375 59.90625 40.109375 62.90625 
Q 36.140625 65.921875 28.71875 65.921875 
Q 24.65625 65.921875 20.015625 65.03125 
Q 15.375 64.15625 9.8125 62.3125 
L 9.8125 71.09375 
Q 15.4375 72.65625 20.34375 73.4375 
Q 25.25 74.21875 29.59375 74.21875 
Q 40.828125 74.21875 47.359375 69.109375 
Q 53.90625 64.015625 53.90625 55.328125 
Q 53.90625 49.265625 50.4375 45.09375 
Q 46.96875 40.921875 40.578125 39.3125 
z
" id="DejaVuSans-51"/>
      <path d="M 8.203125 72.90625 
L 55.078125 72.90625 
L 55.078125 68.703125 
L 28.609375 0 
L 18.3125 0 
L 43.21875 64.59375 
L 8.203125 64.59375 
z
" id="DejaVuSans-55"/>
     </defs>
     <use xlink:href="#DejaVuSans-98"/>
     <use x="63.476562" xlink:href="#DejaVuSans-98"/>
     <use x="126.953125" xlink:href="#DejaVuSans-111"/>
     <use x="188.134766" xlink:href="#DejaVuSans-98"/>
     <use x="251.611328" xlink:href="#DejaVuSans-45"/>
     <use x="287.695312" xlink:href="#DejaVuSans-98"/>
     <use x="351.171875" xlink:href="#DejaVuSans-105"/>
     <use x="378.955078" xlink:href="#DejaVuSans-111"/>
     <use x="440.136719" xlink:href="#DejaVuSans-98"/>
     <use x="503.613281" xlink:href="#DejaVuSans-106"/>
     <use x="531.396484" xlink:href="#DejaVuSans-32"/>
     <use x="563.183594" xlink:href="#DejaVuSans-102"/>
     <use x="598.388672" xlink:href="#DejaVuSans-51"/>
     <use x="662.011719" xlink:href="#DejaVuSans-55"/>
     <use x="725.634766" xlink:href="#DejaVuSans-44"/>
     <use x="757.421875" xlink:href="#DejaVuSans-32"/>
     <use x="789.208984" xlink:href="#DejaVuSans-49"/>
     <use x="852.832031" xlink:href="#DejaVuSans-48"/>
     <use x="916.455078" xlink:href="#DejaVuSans-45"/>
     <use x="952.539062" xlink:href="#DejaVuSans-68"/>
    </g>
    <!-- 58 targets: 1..-1.0e-4 -->
    <g transform="translate(60.41088 49.533135)scale(0.102 -0.102)">
     <defs>
      <path d="M 10.796875 72.90625 
L 49.515625 72.90625 
L 49.515625 64.59375 
L 19.828125 64.59375 
L 19.828125 46.734375 
Q 21.96875 47.46875 24.109375 47.828125 
Q 26.265625 48.1875 28.421875 48.1875 
Q 40.625 48.1875 47.75 41.5 
Q 54.890625 34.8125 54.890625 23.390625 
Q 54.890625 11.625 47.5625 5.09375 
Q 40.234375 -1.421875 26.90625 -1.421875 
Q 22.3125 -1.421875 17.546875 -0.640625 
Q 12.796875 0.140625 7.71875 1.703125 
L 7.71875 11.625 
Q 12.109375 9.234375 16.796875 8.0625 
Q 21.484375 6.890625 26.703125 6.890625 
Q 35.15625 6.890625 40.078125 11.328125 
Q 45.015625 15.765625 45.015625 23.390625 
Q 45.015625 31 40.078125 35.4375 
Q 35.15625 39.890625 26.703125 39.890625 
Q 22.75 39.890625 18.8125 39.015625 
Q 14.890625 38.140625 10.796875 36.28125 
z
" id="DejaVuSans-53"/>
      <path d="M 11.71875 12.40625 
L 22.015625 12.40625 
L 22.015625 0 
L 11.71875 0 
z
M 11.71875 51.703125 
L 22.015625 51.703125 
L 22.015625 39.3125 
L 11.71875 39.3125 
z
" id="DejaVuSans-58"/>
     </defs>
     <use xlink:href="#DejaVuSans-53"/>
     <use x="63.623047" xlink:href="#DejaVuSans-56"/>
     <use x="127.246094" xlink:href="#DejaVuSans-32"/>
     <use x="159.033203" xlink:href="#DejaVuSans-116"/>
     <use x="198.242188" xlink:href="#DejaVuSans-97"/>
     <use x="259.521484" xlink:href="#DejaVuSans-114"/>
     <use x="298.884766" xlink:href="#DejaVuSans-103"/>
     <use x="362.361328" xlink:href="#DejaVuSans-101"/>
     <use x="423.884766" xlink:href="#DejaVuSans-116"/>
     <use x="463.09375" xlink:href="#DejaVuSans-115"/>
     <use x="515.193359" xlink:href="#DejaVuSans-58"/>
     <use x="548.884766" xlink:href="#DejaVuSans-32"/>
     <use x="580.671875" xlink:href="#DejaVuSans-49"/>
     <use x="644.294922" xlink:href="#DejaVuSans-46"/>
     <use x="676.082031" xlink:href="#DejaVuSans-46"/>
     <use x="707.869141" xlink:href="#DejaVuSans-45"/>
     <use x="743.953125" xlink:href="#DejaVuSans-49"/>
     <use x="807.576172" xlink:href="#DejaVuSans-46"/>
     <use x="839.363281" xlink:href="#DejaVuSans-48"/>
     <use x="902.986328" xlink:href="#DejaVuSans-101"/>
     <use x="964.509766" xlink:href="#DejaVuSans-45"/>
     <use x="1000.59375" xlink:href="#DejaVuSans-52"/>
    </g>
    <!-- 10 instances -->
    <g transform="translate(60.41088 60.954904)scale(0.102 -0.102)">
     <use xlink:href="#DejaVuSans-49"/>
     <use x="63.623047" xlink:href="#DejaVuSans-48"/>
     <use x="127.246094" xlink:href="#DejaVuSans-32"/>
     <use x="159.033203" xlink:href="#DejaVuSans-105"/>
     <use x="186.816406" xlink:href="#DejaVuSans-110"/>
     <use x="250.195312" xlink:href="#DejaVuSans-115"/>
     <use x="302.294922" xlink:href="#DejaVuSans-116"/>
     <use x="341.503906" xlink:href="#DejaVuSans-97"/>
     <use x="402.783203" xlink:href="#DejaVuSans-110"/>
     <use x="466.162109" xlink:href="#DejaVuSans-99"/>
     <use x="521.142578" xlink:href="#DejaVuSans-101"/>
     <use x="582.666016" xlink:href="#DejaVuSans-115"/>
    </g>
   </g>
   <g id="text_20">
    <!-- v2.4, hv-hash=ff0e71e8cd978373 -->
    <g style="fill:#808080;" transform="translate(112.648687 294.151352)scale(0.1 -0.1)">
     <defs>
      <path d="M 54.890625 33.015625 
L 54.890625 0 
L 45.90625 0 
L 45.90625 32.71875 
Q 45.90625 40.484375 42.875 44.328125 
Q 39.84375 48.1875 33.796875 48.1875 
Q 26.515625 48.1875 22.3125 43.546875 
Q 18.109375 38.921875 18.109375 30.90625 
L 18.109375 0 
L 9.078125 0 
L 9.078125 75.984375 
L 18.109375 75.984375 
L 18.109375 46.1875 
Q 21.34375 51.125 25.703125 53.5625 
Q 30.078125 56 35.796875 56 
Q 45.21875 56 50.046875 50.171875 
Q 54.890625 44.34375 54.890625 33.015625 
z
" id="DejaVuSans-104"/>
      <path d="M 10.59375 45.40625 
L 73.1875 45.40625 
L 73.1875 37.203125 
L 10.59375 37.203125 
z
M 10.59375 25.484375 
L 73.1875 25.484375 
L 73.1875 17.1875 
L 10.59375 17.1875 
z
" id="DejaVuSans-61"/>
      <path d="M 10.984375 1.515625 
L 10.984375 10.5 
Q 14.703125 8.734375 18.5 7.8125 
Q 22.3125 6.890625 25.984375 6.890625 
Q 35.75 6.890625 40.890625 13.453125 
Q 46.046875 20.015625 46.78125 33.40625 
Q 43.953125 29.203125 39.59375 26.953125 
Q 35.25 24.703125 29.984375 24.703125 
Q 19.046875 24.703125 12.671875 31.3125 
Q 6.296875 37.9375 6.296875 49.421875 
Q 6.296875 60.640625 12.9375 67.421875 
Q 19.578125 74.21875 30.609375 74.21875 
Q 43.265625 74.21875 49.921875 64.515625 
Q 56.59375 54.828125 56.59375 36.375 
Q 56.59375 19.140625 48.40625 8.859375 
Q 40.234375 -1.421875 26.421875 -1.421875 
Q 22.703125 -1.421875 18.890625 -0.6875 
Q 15.09375 0.046875 10.984375 1.515625 
z
M 30.609375 32.421875 
Q 37.25 32.421875 41.125 36.953125 
Q 45.015625 41.5 45.015625 49.421875 
Q 45.015625 57.28125 41.125 61.84375 
Q 37.25 66.40625 30.609375 66.40625 
Q 23.96875 66.40625 20.09375 61.84375 
Q 16.21875 57.28125 16.21875 49.421875 
Q 16.21875 41.5 20.09375 36.953125 
Q 23.96875 32.421875 30.609375 32.421875 
z
" id="DejaVuSans-57"/>
     </defs>
     <use xlink:href="#DejaVuSans-118"/>
     <use x="59.179688" xlink:href="#DejaVuSans-50"/>
     <use x="122.802734" xlink:href="#DejaVuSans-46"/>
     <use x="154.589844" xlink:href="#DejaVuSans-52"/>
     <use x="218.212891" xlink:href="#DejaVuSans-44"/>
     <use x="250" xlink:href="#DejaVuSans-32"/>
     <use x="281.787109" xlink:href="#DejaVuSans-104"/>
     <use x="345.166016" xlink:href="#DejaVuSans-118"/>
     <use x="401.720703" xlink:href="#DejaVuSans-45"/>
     <use x="437.804688" xlink:href="#DejaVuSans-104"/>
     <use x="501.183594" xlink:href="#DejaVuSans-97"/>
     <use x="562.462891" xlink:href="#DejaVuSans-115"/>
     <use x="614.5625" xlink:href="#DejaVuSans-104"/>
     <use x="677.941406" xlink:href="#DejaVuSans-61"/>
     <use x="761.730469" xlink:href="#DejaVuSans-102"/>
     <use x="796.935547" xlink:href="#DejaVuSans-102"/>
     <use x="832.140625" xlink:href="#DejaVuSans-48"/>
     <use x="895.763672" xlink:href="#DejaVuSans-101"/>
     <use x="957.287109" xlink:href="#DejaVuSans-55"/>
     <use x="1020.910156" xlink:href="#DejaVuSans-49"/>
     <use x="1084.533203" xlink:href="#DejaVuSans-101"/>
     <use x="1146.056641" xlink:href="#DejaVuSans-56"/>
     <use x="1209.679688" xlink:href="#DejaVuSans-99"/>
     <use x="1264.660156" xlink:href="#DejaVuSans-100"/>
     <use x="1328.136719" xlink:href="#DejaVuSans-57"/>
     <use x="1391.759766" xlink:href="#DejaVuSans-55"/>
     <use x="1455.382812" xlink:href="#DejaVuSans-56"/>
     <use x="1519.005859" xlink:href="#DejaVuSans-51"/>
     <use x="1582.628906" xlink:href="#DejaVuSans-55"/>
     <use x="1646.251953" xlink:href="#DejaVuSans-51"/>
    </g>
   </g>
   <g id="text_21">
    <!-- 37 Sharp ridge/Rastrigin -->
    <g transform="translate(76.347125 21.648)scale(0.2 -0.2)">
     <use xlink:href="#DejaVuSans-51"/>
     <use x="63.623047" xlink:href="#DejaVuSans-55"/>
     <use x="127.246094" xlink:href="#DejaVuSans-32"/>
     <use x="159.033203" xlink:href="#DejaVuSans-83"/>
     <use x="222.509766" xlink:href="#DejaVuSans-104"/>
     <use x="285.888672" xlink:href="#DejaVuSans-97"/>
     <use x="347.167969" xlink:href="#DejaVuSans-114"/>
     <use x="388.28125" xlink:href="#DejaVuSans-112"/>
     <use x="451.757812" xlink:href="#DejaVuSans-32"/>
     <use x="483.544922" xlink:href="#DejaVuSans-114"/>
     <use x="524.658203" xlink:href="#DejaVuSans-105"/>
     <use x="552.441406" xlink:href="#DejaVuSans-100"/>
     <use x="615.917969" xlink:href="#DejaVuSans-103"/>
     <use x="679.394531" xlink:href="#DejaVuSans-101"/>
     <use x="740.917969" xlink:href="#DejaVuSans-47"/>
     <use x="774.609375" xlink:href="#DejaVuSans-82"/>
     <use x="841.841797" xlink:href="#DejaVuSans-97"/>
     <use x="903.121094" xlink:href="#DejaVuSans-115"/>
     <use x="955.220703" xlink:href="#DejaVuSans-116"/>
     <use x="994.429688" xlink:href="#DejaVuSans-114"/>
     <use x="1035.542969" xlink:href="#DejaVuSans-105"/>
     <use x="1063.326172" xlink:href="#DejaVuSans-103"/>
     <use x="1126.802734" xlink:href="#DejaVuSans-105"/>
     <use x="1154.585938" xlink:href="#DejaVuSans-110"/>
    </g>
   </g>
  </g>
 </g>
 <defs>
  <clipPath id="p52824b513c">
   <rect height="271.296" width="281.088" x="57.6" y="27.648"/>
  </clipPath>
 </defs>
</svg>
